<svg width="71" height="139" viewBox="0 0 71 139" fill="none" xmlns="http://www.w3.org/2000/svg">
<g clip-path="url(#clip0_5355_6185)">
<path d="M12.7187 9.98139C17.5463 9.98139 21.5734 6.55413 22.4996 2H68.7168V112.804C68.7168 126.392 57.7009 137.408 44.1122 137.408H22.4996C21.5734 132.854 17.5463 129.427 12.7187 129.427C7.89105 129.427 3.86392 132.854 2.93768 137.408H-255.283V26.6047C-255.283 13.0383 -244.059 2 -230.448 2H2.93768C3.86392 6.55413 7.89105 9.98139 12.7187 9.98139Z" fill="#EFFFF3" stroke="#5DE19C" stroke-width="4"/>
<g clip-path="url(#clip1_5355_6185)">
<path d="M50.772 39.2082C46.2337 39.2082 42.5439 35.3924 42.5439 30.7054C42.5439 26.0185 46.2337 22.2026 50.772 22.2026C52.6182 22.2026 54.365 22.8224 55.8188 23.9906C56.5484 24.5761 56.6783 25.6615 56.1117 26.4126C55.5452 27.1666 54.4949 27.3009 53.768 26.7154C52.9057 26.0213 51.8692 25.6557 50.772 25.6557C48.0772 25.6557 45.8855 27.9207 45.8855 30.7054C45.8855 33.4902 48.0772 35.7551 50.772 35.7551C52.8808 35.7551 54.6801 34.3699 55.3655 32.4306H51.9107C50.9875 32.4306 50.2385 31.6565 50.2385 30.7054C50.2385 29.7543 50.9875 28.9803 51.9107 28.9803H57.3306C58.2537 28.9803 59 29.7543 59 30.7054C59 35.3953 55.3102 39.2082 50.772 39.2082Z" fill="#5DE19C"/>
<path d="M28.8075 39.8082C27.9342 39.8082 27.199 39.1084 27.1409 38.1945C27.094 37.449 26.707 30.8227 27.445 27.758L27.4533 27.7266C28.1774 24.4049 31.0877 22 34.3878 22C38.3069 22 41.4964 25.296 41.4964 29.3432C41.4964 31.5453 40.5512 33.5275 39.0615 34.8756L41.4881 35.6896C42.3643 35.9838 42.8452 36.9577 42.5605 37.866C42.2758 38.7714 41.3334 39.2684 40.4545 38.9742L33.4619 36.6264C32.6963 36.3694 32.2154 35.5839 32.3232 34.7585C32.4282 33.9331 33.0888 33.3047 33.8931 33.2619L34.3049 33.239C34.3325 33.239 34.3629 33.239 34.3905 33.239C36.4662 33.239 38.1577 31.4939 38.1577 29.3461C38.1577 27.1982 36.469 25.456 34.3905 25.456C32.6355 25.456 31.0905 26.7384 30.7146 28.5035C30.7091 28.5263 30.7036 28.5463 30.698 28.5663L30.687 28.612C30.1729 30.7484 30.3636 36.0923 30.4797 37.9717C30.5405 38.9228 29.8412 39.7453 28.9209 39.8053C28.8849 39.8053 28.8462 39.8082 28.8103 39.8082H28.8075Z" fill="#5DE19C"/>
<path d="M43.0304 45.9148C42.8756 45.9148 42.7181 45.8748 42.5799 45.7977C37.3617 42.9444 28.8766 45.3693 28.791 45.3921C28.2935 45.5378 27.7711 45.2522 27.6274 44.7552C27.4809 44.2582 27.7683 43.7384 28.2631 43.5928C28.6334 43.4842 37.1765 41.0451 43.0635 43.9355C44.708 43.2614 50.6365 41.2364 57.7756 43.6642C58.2675 43.8298 58.5301 44.3639 58.3615 44.8523C58.1929 45.3436 57.6623 45.6035 57.1703 45.4378C49.6471 42.8787 43.503 45.7863 43.4394 45.8177C43.3095 45.8805 43.1686 45.912 43.0304 45.912V45.9148Z" fill="#5DE19C"/>
<path d="M43.0442 42.8101C43.0027 42.8101 42.9585 42.8016 42.9198 42.7816C36.9664 39.8597 28.2603 42.3389 27.8927 42.4445C27.7379 42.4902 27.5776 42.396 27.5334 42.236C27.4892 42.0761 27.5804 41.9104 27.7351 41.8647C27.9867 41.7933 30.2751 41.145 33.2739 40.8765C37.2097 40.5223 40.4987 40.9622 43.0552 42.1818C44.9264 41.4363 51.0069 39.4741 58.2758 41.9447C58.4278 41.9961 58.5108 42.1675 58.461 42.3246C58.4113 42.4817 58.2454 42.5674 58.0934 42.516C50.8493 40.0539 44.8269 42.1018 43.152 42.7873C43.1188 42.8016 43.0801 42.8073 43.0442 42.8073V42.8101Z" fill="#5DE19C"/>
</g>
<line x1="12.5" y1="14.5" x2="12.5" y2="124.5" stroke="#5DE19C" stroke-linecap="round" stroke-dasharray="5 5"/>
</g>
<defs>
<clipPath id="clip0_5355_6185">
<rect width="71" height="139" fill="white"/>
</clipPath>
<clipPath id="clip1_5355_6185">
<rect width="32" height="25" fill="white" transform="translate(27 22)"/>
</clipPath>
</defs>
</svg>
