<svg width="71" height="139" viewBox="0 0 71 139" fill="none" xmlns="http://www.w3.org/2000/svg">
<g clip-path="url(#clip0_5355_6224)">
<path d="M12.7187 9.98139C17.5463 9.98139 21.5734 6.55413 22.4996 2H68.7168V112.804C68.7168 126.392 57.7009 137.408 44.1122 137.408H22.4996C21.5734 132.854 17.5463 129.427 12.7187 129.427C7.89105 129.427 3.86392 132.854 2.93768 137.408H-255.283V26.6047C-255.283 13.0383 -244.059 2 -230.448 2H2.93768C3.86392 6.55413 7.89105 9.98139 12.7187 9.98139Z" fill="#F2FAFD" stroke="#3FBCF5" stroke-width="4"/>
<g clip-path="url(#clip1_5355_6224)">
<path d="M50.772 47.2082C46.2337 47.2082 42.5439 43.3924 42.5439 38.7054C42.5439 34.0185 46.2337 30.2026 50.772 30.2026C52.6182 30.2026 54.365 30.8224 55.8188 31.9906C56.5484 32.5761 56.6783 33.6615 56.1117 34.4126C55.5452 35.1666 54.4949 35.3009 53.768 34.7154C52.9057 34.0213 51.8692 33.6557 50.772 33.6557C48.0772 33.6557 45.8855 35.9207 45.8855 38.7054C45.8855 41.4902 48.0772 43.7551 50.772 43.7551C52.8808 43.7551 54.6801 42.3699 55.3655 40.4306H51.9107C50.9875 40.4306 50.2385 39.6565 50.2385 38.7054C50.2385 37.7543 50.9875 36.9803 51.9107 36.9803H57.3306C58.2537 36.9803 59 37.7543 59 38.7054C59 43.3953 55.3102 47.2082 50.772 47.2082Z" fill="#3CB8FF"/>
<path d="M28.8075 47.8082C27.9342 47.8082 27.199 47.1084 27.1409 46.1945C27.094 45.449 26.707 38.8227 27.445 35.758L27.4533 35.7266C28.1774 32.4049 31.0877 30 34.3878 30C38.3069 30 41.4964 33.296 41.4964 37.3432C41.4964 39.5453 40.5512 41.5275 39.0615 42.8756L41.4881 43.6896C42.3643 43.9838 42.8452 44.9577 42.5605 45.866C42.2758 46.7714 41.3334 47.2684 40.4545 46.9742L33.4619 44.6264C32.6963 44.3694 32.2154 43.5839 32.3232 42.7585C32.4282 41.9331 33.0888 41.3047 33.8931 41.2619L34.3049 41.239C34.3325 41.239 34.3629 41.239 34.3905 41.239C36.4662 41.239 38.1577 39.4939 38.1577 37.3461C38.1577 35.1982 36.469 33.456 34.3905 33.456C32.6355 33.456 31.0905 34.7384 30.7146 36.5035C30.7091 36.5263 30.7036 36.5463 30.698 36.5663L30.687 36.612C30.1729 38.7484 30.3636 44.0923 30.4797 45.9717C30.5405 46.9228 29.8412 47.7453 28.9209 47.8053C28.8849 47.8053 28.8462 47.8082 28.8103 47.8082H28.8075Z" fill="#3CB8FF"/>
<path d="M43.0304 53.9148C42.8756 53.9148 42.7181 53.8748 42.5799 53.7977C37.3617 50.9444 28.8766 53.3693 28.791 53.3921C28.2935 53.5378 27.7711 53.2522 27.6274 52.7552C27.4809 52.2582 27.7683 51.7384 28.2631 51.5928C28.6334 51.4842 37.1765 49.0451 43.0635 51.9355C44.708 51.2614 50.6365 49.2364 57.7756 51.6642C58.2675 51.8298 58.5301 52.3639 58.3615 52.8523C58.1929 53.3436 57.6623 53.6035 57.1703 53.4378C49.6471 50.8787 43.503 53.7863 43.4394 53.8177C43.3095 53.8805 43.1686 53.912 43.0304 53.912V53.9148Z" fill="#3CB8FF"/>
<path d="M43.0442 50.8101C43.0027 50.8101 42.9585 50.8016 42.9198 50.7816C36.9664 47.8597 28.2603 50.3389 27.8927 50.4445C27.7379 50.4902 27.5776 50.396 27.5334 50.236C27.4892 50.0761 27.5804 49.9104 27.7351 49.8647C27.9867 49.7933 30.2751 49.145 33.2739 48.8765C37.2097 48.5223 40.4987 48.9622 43.0552 50.1818C44.9264 49.4363 51.0069 47.4741 58.2758 49.9447C58.4278 49.9961 58.5108 50.1675 58.461 50.3246C58.4113 50.4817 58.2454 50.5674 58.0934 50.516C50.8493 48.0539 44.8269 50.1018 43.152 50.7873C43.1188 50.8016 43.0801 50.8073 43.0442 50.8073V50.8101Z" fill="#3CB8FF"/>
</g>
<line x1="12.5" y1="14.5" x2="12.5" y2="124.5" stroke="#3FBBF9" stroke-linecap="round" stroke-dasharray="5 5"/>
</g>
<defs>
<clipPath id="clip0_5355_6224">
<rect width="71" height="139" fill="white"/>
</clipPath>
<clipPath id="clip1_5355_6224">
<rect width="32" height="25" fill="white" transform="translate(27 30)"/>
</clipPath>
</defs>
</svg>
