<svg width="800" height="180" viewBox="0 0 800 180" fill="none" xmlns="http://www.w3.org/2000/svg">
<g clip-path="url(#clip0_2238_46370)">
<mask id="mask0_2238_46370" style="mask-type:luminance" maskUnits="userSpaceOnUse" x="0" y="-3" width="937" height="229">
<path d="M937 -3H0V226H937V-3Z" fill="white"/>
</mask>
<g mask="url(#mask0_2238_46370)">
<g opacity="0.5">
<path d="M1028.93 -128.362H-50.1985V944.267H1028.93V-128.362Z" fill="#63C6F3"/>
<g style="mix-blend-mode:overlay">
<mask id="mask1_2238_46370" style="mask-type:luminance" maskUnits="userSpaceOnUse" x="-6" y="1" width="936" height="228">
<path d="M929.963 1.00012H-5.02661V228H929.963V1.00012Z" fill="white"/>
</mask>
<g mask="url(#mask1_2238_46370)">
<mask id="mask2_2238_46370" style="mask-type:luminance" maskUnits="userSpaceOnUse" x="658" y="-97" width="195" height="194">
<path d="M852.464 -96.1831H658.22V96.8901H852.464V-96.1831Z" fill="white"/>
</mask>
<g mask="url(#mask2_2238_46370)">
<path d="M674.812 96.2197H674.002V290.634H674.812V96.2197Z" fill="#1D1D1B"/>
<path d="M739.56 96.2197H738.75V290.634H739.56V96.2197Z" fill="#1D1D1B"/>
<path d="M707.186 96.2197H706.376V290.634H707.186V96.2197Z" fill="#1D1D1B"/>
<path d="M771.934 96.2197H771.124V290.634H771.934V96.2197Z" fill="#1D1D1B"/>
<path d="M674.812 -96.8535H674.002V97.5605H674.812V-96.8535Z" fill="#1D1D1B"/>
<path d="M739.56 -96.8535H738.75V97.5605H739.56V-96.8535Z" fill="#1D1D1B"/>
<path d="M853.138 80.3984H657.546V81.2029H853.138V80.3984Z" fill="#1D1D1B"/>
<path d="M853.138 16.0406H657.546V16.8451H853.138V16.0406Z" fill="#1D1D1B"/>
<path d="M853.138 48.2196H657.546V49.0241H853.138V48.2196Z" fill="#1D1D1B"/>
<path d="M707.186 -96.8535H706.376V97.5605H707.186V-96.8535Z" fill="#1D1D1B"/>
<path d="M771.934 -96.8535H771.124V97.5605H771.934V-96.8535Z" fill="#1D1D1B"/>
<path d="M658.895 80.3984H463.302V81.2029H658.895V80.3984Z" fill="#1D1D1B"/>
<path d="M658.895 16.0406H463.302V16.8451H658.895V16.0406Z" fill="#1D1D1B"/>
<path d="M658.895 48.2196H463.302V49.0241H658.895V48.2196Z" fill="#1D1D1B"/>
</g>
<mask id="mask3_2238_46370" style="mask-type:luminance" maskUnits="userSpaceOnUse" x="658" y="96" width="195" height="194">
<path d="M852.464 96.8901H658.22V289.963H852.464V96.8901Z" fill="white"/>
</mask>
<g mask="url(#mask3_2238_46370)">
<path d="M674.812 96.2197H674.002V290.634H674.812V96.2197Z" fill="#1D1D1B"/>
<path d="M739.56 96.2197H738.75V290.634H739.56V96.2197Z" fill="#1D1D1B"/>
<path d="M853.138 144.756H657.546V145.561H853.138V144.756Z" fill="#1D1D1B"/>
<path d="M853.138 176.935H657.546V177.74H853.138V176.935Z" fill="#1D1D1B"/>
<path d="M853.138 112.577H657.546V113.382H853.138V112.577Z" fill="#1D1D1B"/>
<path d="M707.186 96.2197H706.376V290.634H707.186V96.2197Z" fill="#1D1D1B"/>
<path d="M771.934 96.2197H771.124V290.634H771.934V96.2197Z" fill="#1D1D1B"/>
<path d="M658.895 144.756H463.302V145.561H658.895V144.756Z" fill="#1D1D1B"/>
<path d="M658.895 176.935H463.302V177.74H658.895V176.935Z" fill="#1D1D1B"/>
<path d="M658.895 112.577H463.302V113.382H658.895V112.577Z" fill="#1D1D1B"/>
<path d="M674.812 -96.8535H674.002V97.5605H674.812V-96.8535Z" fill="#1D1D1B"/>
<path d="M739.56 -96.8535H738.75V97.5605H739.56V-96.8535Z" fill="#1D1D1B"/>
<path d="M707.186 -96.8535H706.376V97.5605H707.186V-96.8535Z" fill="#1D1D1B"/>
<path d="M771.934 -96.8535H771.124V97.5605H771.934V-96.8535Z" fill="#1D1D1B"/>
</g>
<mask id="mask4_2238_46370" style="mask-type:luminance" maskUnits="userSpaceOnUse" x="463" y="-97" width="196" height="194">
<path d="M658.22 -96.1831H463.976V96.8901H658.22V-96.1831Z" fill="white"/>
</mask>
<g mask="url(#mask4_2238_46370)">
<path d="M480.568 96.2197H479.759V290.634H480.568V96.2197Z" fill="#1D1D1B"/>
<path d="M545.316 96.2197H544.507V290.634H545.316V96.2197Z" fill="#1D1D1B"/>
<path d="M610.064 96.2197H609.255V290.634H610.064V96.2197Z" fill="#1D1D1B"/>
<path d="M512.942 96.2197H512.133V290.634H512.942V96.2197Z" fill="#1D1D1B"/>
<path d="M577.69 96.2197H576.881V290.634H577.69V96.2197Z" fill="#1D1D1B"/>
<path d="M642.438 96.2197H641.629V290.634H642.438V96.2197Z" fill="#1D1D1B"/>
<path d="M853.139 80.3984H657.546V81.2029H853.139V80.3984Z" fill="#1D1D1B"/>
<path d="M853.139 16.0406H657.546V16.8451H853.139V16.0406Z" fill="#1D1D1B"/>
<path d="M853.139 48.2196H657.546V49.0241H853.139V48.2196Z" fill="#1D1D1B"/>
<path d="M480.568 -96.8535H479.759V97.5605H480.568V-96.8535Z" fill="#1D1D1B"/>
<path d="M545.316 -96.8535H544.507V97.5605H545.316V-96.8535Z" fill="#1D1D1B"/>
<path d="M610.064 -96.8535H609.255V97.5605H610.064V-96.8535Z" fill="#1D1D1B"/>
<path d="M658.895 80.3984H463.302V81.2029H658.895V80.3984Z" fill="#1D1D1B"/>
<path d="M658.895 16.0406H463.302V16.8451H658.895V16.0406Z" fill="#1D1D1B"/>
<path d="M658.895 48.2196H463.302V49.0241H658.895V48.2196Z" fill="#1D1D1B"/>
<path d="M512.942 -96.8535H512.133V97.5605H512.942V-96.8535Z" fill="#1D1D1B"/>
<path d="M577.69 -96.8535H576.881V97.5605H577.69V-96.8535Z" fill="#1D1D1B"/>
<path d="M642.438 -96.8535H641.629V97.5605H642.438V-96.8535Z" fill="#1D1D1B"/>
<path d="M464.651 80.3984H269.058V81.2029H464.651V80.3984Z" fill="#1D1D1B"/>
<path d="M464.651 16.0406H269.058V16.8451H464.651V16.0406Z" fill="#1D1D1B"/>
<path d="M464.651 48.2196H269.058V49.0241H464.651V48.2196Z" fill="#1D1D1B"/>
</g>
<mask id="mask5_2238_46370" style="mask-type:luminance" maskUnits="userSpaceOnUse" x="463" y="96" width="196" height="194">
<path d="M658.22 96.8901H463.976V289.963H658.22V96.8901Z" fill="white"/>
</mask>
<g mask="url(#mask5_2238_46370)">
<path d="M853.139 144.756H657.546V145.561H853.139V144.756Z" fill="#1D1D1B"/>
<path d="M853.139 176.935H657.546V177.74H853.139V176.935Z" fill="#1D1D1B"/>
<path d="M853.139 112.577H657.546V113.382H853.139V112.577Z" fill="#1D1D1B"/>
<path d="M480.568 96.2197H479.759V290.634H480.568V96.2197Z" fill="#1D1D1B"/>
<path d="M545.316 96.2197H544.507V290.634H545.316V96.2197Z" fill="#1D1D1B"/>
<path d="M610.064 96.2197H609.255V290.634H610.064V96.2197Z" fill="#1D1D1B"/>
<path d="M658.895 144.756H463.302V145.561H658.895V144.756Z" fill="#1D1D1B"/>
<path d="M658.895 176.935H463.302V177.74H658.895V176.935Z" fill="#1D1D1B"/>
<path d="M658.895 112.577H463.302V113.382H658.895V112.577Z" fill="#1D1D1B"/>
<path d="M512.942 96.2197H512.133V290.634H512.942V96.2197Z" fill="#1D1D1B"/>
<path d="M577.69 96.2197H576.881V290.634H577.69V96.2197Z" fill="#1D1D1B"/>
<path d="M642.438 96.2197H641.629V290.634H642.438V96.2197Z" fill="#1D1D1B"/>
<path d="M464.651 144.756H269.058V145.561H464.651V144.756Z" fill="#1D1D1B"/>
<path d="M464.651 176.935H269.058V177.74H464.651V176.935Z" fill="#1D1D1B"/>
<path d="M464.651 112.577H269.058V113.382H464.651V112.577Z" fill="#1D1D1B"/>
<path d="M480.568 -96.8535H479.759V97.5605H480.568V-96.8535Z" fill="#1D1D1B"/>
<path d="M545.316 -96.8535H544.507V97.5605H545.316V-96.8535Z" fill="#1D1D1B"/>
<path d="M610.064 -96.8535H609.255V97.5605H610.064V-96.8535Z" fill="#1D1D1B"/>
<path d="M512.942 -96.8535H512.133V97.5605H512.942V-96.8535Z" fill="#1D1D1B"/>
<path d="M577.69 -96.8535H576.881V97.5605H577.69V-96.8535Z" fill="#1D1D1B"/>
<path d="M642.438 -96.8535H641.629V97.5605H642.438V-96.8535Z" fill="#1D1D1B"/>
</g>
<mask id="mask6_2238_46370" style="mask-type:luminance" maskUnits="userSpaceOnUse" x="269" y="-97" width="195" height="194">
<path d="M463.976 -96.1831H269.732V96.8901H463.976V-96.1831Z" fill="white"/>
</mask>
<g mask="url(#mask6_2238_46370)">
<path d="M286.324 96.2197H285.514V290.634H286.324V96.2197Z" fill="#1D1D1B"/>
<path d="M351.071 96.2197H350.262V290.634H351.071V96.2197Z" fill="#1D1D1B"/>
<path d="M415.819 96.2197H415.01V290.634H415.819V96.2197Z" fill="#1D1D1B"/>
<path d="M318.698 96.2197H317.888V290.634H318.698V96.2197Z" fill="#1D1D1B"/>
<path d="M383.445 96.2197H382.636V290.634H383.445V96.2197Z" fill="#1D1D1B"/>
<path d="M448.194 96.2197H447.384V290.634H448.194V96.2197Z" fill="#1D1D1B"/>
<path d="M658.894 80.3984H463.301V81.2029H658.894V80.3984Z" fill="#1D1D1B"/>
<path d="M658.894 16.0406H463.301V16.8451H658.894V16.0406Z" fill="#1D1D1B"/>
<path d="M658.894 48.2196H463.301V49.0241H658.894V48.2196Z" fill="#1D1D1B"/>
<path d="M286.324 -96.8535H285.514V97.5605H286.324V-96.8535Z" fill="#1D1D1B"/>
<path d="M351.071 -96.8535H350.262V97.5605H351.071V-96.8535Z" fill="#1D1D1B"/>
<path d="M415.819 -96.8535H415.01V97.5605H415.819V-96.8535Z" fill="#1D1D1B"/>
<path d="M464.651 80.3984H269.058V81.2029H464.651V80.3984Z" fill="#1D1D1B"/>
<path d="M464.651 16.0406H269.058V16.8451H464.651V16.0406Z" fill="#1D1D1B"/>
<path d="M464.651 48.2196H269.058V49.0241H464.651V48.2196Z" fill="#1D1D1B"/>
<path d="M318.698 -96.8535H317.888V97.5605H318.698V-96.8535Z" fill="#1D1D1B"/>
<path d="M383.445 -96.8535H382.636V97.5605H383.445V-96.8535Z" fill="#1D1D1B"/>
<path d="M448.194 -96.8535H447.384V97.5605H448.194V-96.8535Z" fill="#1D1D1B"/>
<path d="M270.407 80.3984H74.814V81.2029H270.407V80.3984Z" fill="#1D1D1B"/>
<path d="M270.407 16.0406H74.814V16.8451H270.407V16.0406Z" fill="#1D1D1B"/>
<path d="M270.407 48.2196H74.814V49.0241H270.407V48.2196Z" fill="#1D1D1B"/>
</g>
<mask id="mask7_2238_46370" style="mask-type:luminance" maskUnits="userSpaceOnUse" x="269" y="96" width="195" height="194">
<path d="M463.976 96.8901H269.732V289.963H463.976V96.8901Z" fill="white"/>
</mask>
<g mask="url(#mask7_2238_46370)">
<path d="M658.894 144.756H463.301V145.561H658.894V144.756Z" fill="#1D1D1B"/>
<path d="M658.894 176.935H463.301V177.74H658.894V176.935Z" fill="#1D1D1B"/>
<path d="M658.894 112.577H463.301V113.382H658.894V112.577Z" fill="#1D1D1B"/>
<path d="M286.324 96.2197H285.514V290.634H286.324V96.2197Z" fill="#1D1D1B"/>
<path d="M351.071 96.2197H350.262V290.634H351.071V96.2197Z" fill="#1D1D1B"/>
<path d="M415.819 96.2197H415.01V290.634H415.819V96.2197Z" fill="#1D1D1B"/>
<path d="M464.651 144.756H269.058V145.561H464.651V144.756Z" fill="#1D1D1B"/>
<path d="M464.651 176.935H269.058V177.74H464.651V176.935Z" fill="#1D1D1B"/>
<path d="M464.651 112.577H269.058V113.382H464.651V112.577Z" fill="#1D1D1B"/>
<path d="M318.698 96.2197H317.888V290.634H318.698V96.2197Z" fill="#1D1D1B"/>
<path d="M383.445 96.2197H382.636V290.634H383.445V96.2197Z" fill="#1D1D1B"/>
<path d="M448.194 96.2197H447.384V290.634H448.194V96.2197Z" fill="#1D1D1B"/>
<path d="M270.407 144.756H74.814V145.561H270.407V144.756Z" fill="#1D1D1B"/>
<path d="M270.407 176.935H74.814V177.74H270.407V176.935Z" fill="#1D1D1B"/>
<path d="M270.407 112.577H74.814V113.382H270.407V112.577Z" fill="#1D1D1B"/>
<path d="M286.324 -96.8535H285.514V97.5605H286.324V-96.8535Z" fill="#1D1D1B"/>
<path d="M351.071 -96.8535H350.262V97.5605H351.071V-96.8535Z" fill="#1D1D1B"/>
<path d="M415.819 -96.8535H415.01V97.5605H415.819V-96.8535Z" fill="#1D1D1B"/>
<path d="M318.698 -96.8535H317.888V97.5605H318.698V-96.8535Z" fill="#1D1D1B"/>
<path d="M383.445 -96.8535H382.636V97.5605H383.445V-96.8535Z" fill="#1D1D1B"/>
<path d="M448.194 -96.8535H447.384V97.5605H448.194V-96.8535Z" fill="#1D1D1B"/>
</g>
<mask id="mask8_2238_46370" style="mask-type:luminance" maskUnits="userSpaceOnUse" x="75" y="-97" width="195" height="194">
<path d="M269.732 -96.1831H75.488V96.8901H269.732V-96.1831Z" fill="white"/>
</mask>
<g mask="url(#mask8_2238_46370)">
<path d="M92.0797 96.2197H91.2704V290.634H92.0797V96.2197Z" fill="#1D1D1B"/>
<path d="M156.828 96.2197H156.018V290.634H156.828V96.2197Z" fill="#1D1D1B"/>
<path d="M221.575 96.2197H220.766V290.634H221.575V96.2197Z" fill="#1D1D1B"/>
<path d="M124.454 96.2197H123.644V290.634H124.454V96.2197Z" fill="#1D1D1B"/>
<path d="M189.201 96.2197H188.392V290.634H189.201V96.2197Z" fill="#1D1D1B"/>
<path d="M253.949 96.2197H253.14V290.634H253.949V96.2197Z" fill="#1D1D1B"/>
<path d="M464.65 80.3984H269.057V81.2029H464.65V80.3984Z" fill="#1D1D1B"/>
<path d="M464.65 16.0406H269.057V16.8451H464.65V16.0406Z" fill="#1D1D1B"/>
<path d="M464.65 48.2196H269.057V49.0241H464.65V48.2196Z" fill="#1D1D1B"/>
<path d="M92.0797 -96.8535H91.2704V97.5605H92.0797V-96.8535Z" fill="#1D1D1B"/>
<path d="M156.828 -96.8535H156.018V97.5605H156.828V-96.8535Z" fill="#1D1D1B"/>
<path d="M221.575 -96.8535H220.766V97.5605H221.575V-96.8535Z" fill="#1D1D1B"/>
<path d="M270.406 80.3984H74.8134V81.2029H270.406V80.3984Z" fill="#1D1D1B"/>
<path d="M270.406 16.0406H74.8134V16.8451H270.406V16.0406Z" fill="#1D1D1B"/>
<path d="M270.406 48.2196H74.8134V49.0241H270.406V48.2196Z" fill="#1D1D1B"/>
<path d="M124.454 -96.8535H123.644V97.5605H124.454V-96.8535Z" fill="#1D1D1B"/>
<path d="M189.201 -96.8535H188.392V97.5605H189.201V-96.8535Z" fill="#1D1D1B"/>
<path d="M253.949 -96.8535H253.14V97.5605H253.949V-96.8535Z" fill="#1D1D1B"/>
<path d="M76.1626 80.3984H-119.43V81.2029H76.1626V80.3984Z" fill="#1D1D1B"/>
<path d="M76.1626 16.0406H-119.43V16.8451H76.1626V16.0406Z" fill="#1D1D1B"/>
<path d="M76.1626 48.2196H-119.43V49.0241H76.1626V48.2196Z" fill="#1D1D1B"/>
</g>
<mask id="mask9_2238_46370" style="mask-type:luminance" maskUnits="userSpaceOnUse" x="74" y="96" width="194" height="194">
<path d="M267.659 96.8901H74.4517V289.963H267.659V96.8901Z" fill="white"/>
</mask>
<g mask="url(#mask9_2238_46370)">
<path d="M461.537 144.756H266.988V145.561H461.537V144.756Z" fill="#1D1D1B"/>
<path d="M461.537 176.935H266.988V177.74H461.537V176.935Z" fill="#1D1D1B"/>
<path d="M461.537 112.577H266.988V113.382H461.537V112.577Z" fill="#1D1D1B"/>
<path d="M90.9548 96.2197H90.1498V290.634H90.9548V96.2197Z" fill="#1D1D1B"/>
<path d="M155.357 96.2197H154.552V290.634H155.357V96.2197Z" fill="#1D1D1B"/>
<path d="M219.76 96.2197H218.955V290.634H219.76V96.2197Z" fill="#1D1D1B"/>
<path d="M268.33 144.756H73.7808V145.561H268.33V144.756Z" fill="#1D1D1B"/>
<path d="M268.33 176.935H73.7808V177.74H268.33V176.935Z" fill="#1D1D1B"/>
<path d="M268.33 112.577H73.7808V113.382H268.33V112.577Z" fill="#1D1D1B"/>
<path d="M123.156 96.2197H122.351V290.634H123.156V96.2197Z" fill="#1D1D1B"/>
<path d="M187.558 96.2197H186.753V290.634H187.558V96.2197Z" fill="#1D1D1B"/>
<path d="M251.961 96.2197H251.156V290.634H251.961V96.2197Z" fill="#1D1D1B"/>
<path d="M75.1225 144.756H-119.426V145.561H75.1225V144.756Z" fill="#1D1D1B"/>
<path d="M75.1225 176.935H-119.426V177.74H75.1225V176.935Z" fill="#1D1D1B"/>
<path d="M75.1225 112.577H-119.426V113.382H75.1225V112.577Z" fill="#1D1D1B"/>
<path d="M90.9548 -96.8535H90.1498V97.5605H90.9548V-96.8535Z" fill="#1D1D1B"/>
<path d="M155.357 -96.8535H154.552V97.5605H155.357V-96.8535Z" fill="#1D1D1B"/>
<path d="M219.76 -96.8535H218.955V97.5605H219.76V-96.8535Z" fill="#1D1D1B"/>
<path d="M123.156 -96.8535H122.351V97.5605H123.156V-96.8535Z" fill="#1D1D1B"/>
<path d="M187.558 -96.8535H186.753V97.5605H187.558V-96.8535Z" fill="#1D1D1B"/>
<path d="M251.961 -96.8535H251.156V97.5605H251.961V-96.8535Z" fill="#1D1D1B"/>
</g>
<mask id="mask10_2238_46370" style="mask-type:luminance" maskUnits="userSpaceOnUse" x="-119" y="-97" width="195" height="194">
<path d="M75.4882 -96.1831H-118.756V96.8901H75.4882V-96.1831Z" fill="white"/>
</mask>
<g mask="url(#mask10_2238_46370)">
<path d="M27.3321 96.2197H26.5227V290.634H27.3321V96.2197Z" fill="#1D1D1B"/>
<path d="M59.706 96.2197H58.8966V290.634H59.706V96.2197Z" fill="#1D1D1B"/>
<path d="M270.407 80.3984H74.8141V81.2029H270.407V80.3984Z" fill="#1D1D1B"/>
<path d="M270.407 16.0406H74.8141V16.8451H270.407V16.0406Z" fill="#1D1D1B"/>
<path d="M270.407 48.2196H74.8141V49.0241H270.407V48.2196Z" fill="#1D1D1B"/>
<path d="M27.3321 -96.8535H26.5227V97.5605H27.3321V-96.8535Z" fill="#1D1D1B"/>
<path d="M76.1628 80.3984H-119.43V81.2029H76.1628V80.3984Z" fill="#1D1D1B"/>
<path d="M76.1628 16.0406H-119.43V16.8451H76.1628V16.0406Z" fill="#1D1D1B"/>
<path d="M76.1628 48.2196H-119.43V49.0241H76.1628V48.2196Z" fill="#1D1D1B"/>
<path d="M59.706 -96.8535H58.8966V97.5605H59.706V-96.8535Z" fill="#1D1D1B"/>
</g>
<mask id="mask11_2238_46370" style="mask-type:luminance" maskUnits="userSpaceOnUse" x="-119" y="96" width="195" height="194">
<path d="M75.4882 96.8901H-118.756V289.963H75.4882V96.8901Z" fill="white"/>
</mask>
<g mask="url(#mask11_2238_46370)">
<path d="M270.407 144.756H74.8141V145.561H270.407V144.756Z" fill="#1D1D1B"/>
<path d="M270.407 176.935H74.8141V177.74H270.407V176.935Z" fill="#1D1D1B"/>
<path d="M270.407 112.577H74.8141V113.382H270.407V112.577Z" fill="#1D1D1B"/>
<path d="M27.3321 96.2197H26.5227V290.634H27.3321V96.2197Z" fill="#1D1D1B"/>
<path d="M76.1628 144.756H-119.43V145.561H76.1628V144.756Z" fill="#1D1D1B"/>
<path d="M76.1628 176.935H-119.43V177.74H76.1628V176.935Z" fill="#1D1D1B"/>
<path d="M76.1628 112.577H-119.43V113.382H76.1628V112.577Z" fill="#1D1D1B"/>
<path d="M59.706 96.2197H58.8966V290.634H59.706V96.2197Z" fill="#1D1D1B"/>
<path d="M27.3321 -96.8535H26.5227V97.5605H27.3321V-96.8535Z" fill="#1D1D1B"/>
<path d="M59.706 -96.8535H58.8966V97.5605H59.706V-96.8535Z" fill="#1D1D1B"/>
</g>
</g>
</g>
<path d="M285.363 16.8882H253.869V48.1929H285.363V16.8882Z" fill="#EEFFFB" fill-opacity="0.2"/>
<g style="mix-blend-mode:multiply">
<path d="M609.119 113.484H577.625V144.788H609.119V113.484Z" fill="#EEFFFB"/>
</g>
<path d="M188.322 176.619H156.828V207.923H188.322V176.619Z" fill="#EEFFFB" fill-opacity="0.5"/>
</g>
</g>
</g>
<defs>
<clipPath id="clip0_2238_46370">
<rect width="930" height="227" fill="white"/>
</clipPath>
</defs>
</svg>
