<svg width="283" height="179" viewBox="0 0 283 179" fill="none" xmlns="http://www.w3.org/2000/svg">
<g clip-path="url(#clip0_2238_48837)">
<path d="M306.251 298.044C301.669 293.77 299.62 287.803 300.166 282.008C300.43 279.178 297.943 276.768 295.141 277.258C295.075 277.27 295.009 277.282 294.943 277.293C286.463 278.678 277.842 274.306 274.128 266.56C271.214 260.481 271.737 253.733 274.835 248.376C276.251 245.934 274.974 242.912 272.235 242.251C272.15 242.235 272.07 242.21 271.986 242.194C263.666 240.074 257.528 232.627 257.223 224.046C256.977 217.247 260.213 211.22 265.254 207.56C267.534 205.91 267.577 202.608 265.345 200.897C265.284 200.851 265.223 200.804 265.171 200.761C258.431 195.448 255.85 186.144 259.057 178.174C261.499 172.106 266.932 167.59 273.358 166.329C275.257 165.955 278.521 166.53 277.942 163.841C277.569 162.126 276.068 160.814 275.341 159.26C274.131 156.693 273.502 153.862 273.49 151.013C273.48 145.353 275.988 139.882 280.297 136.179C281.413 135.221 281.517 133.51 280.547 132.398C270.008 120.308 257.514 109.562 243.182 100.689C165.869 52.7825 63.3709 77.2145 16.0493 154.889C-31.4521 232.86 -6.39255 334.488 71.7502 381.466C149.6 428.276 250.665 403.099 297.476 325.244C301.69 318.23 305.317 311.021 308.379 303.689C309.11 301.935 308.519 299.952 307.064 298.742C306.789 298.511 306.526 298.275 306.254 298.035L306.251 298.044ZM129.49 296.425C94.56 279.451 83.5272 235.151 106.421 203.774C123.963 179.72 156.738 171.561 183.519 184.57C218.449 201.544 229.482 245.844 206.588 277.221C189.046 301.275 156.271 309.434 129.49 296.425Z" fill="#62BFED"/>
<path fill-rule="evenodd" clip-rule="evenodd" d="M62.5332 104.455L92.2356 87.4434C83.6757 63.3954 89.0255 35.5083 108.285 16.2591C134.952 -10.3936 178.187 -10.3936 204.854 16.2591C224.258 35.6527 229.542 63.8141 220.708 87.9837L230.385 93.5256C234.716 95.7025 238.986 98.0893 243.182 100.689C244.109 101.263 245.028 101.845 245.94 102.435L249.467 104.455C250.531 105.064 251.467 105.835 252.252 106.725C262.845 114.29 272.295 122.932 280.547 132.398C281.516 133.51 281.413 135.221 280.297 136.179C275.988 139.882 273.48 145.353 273.49 151.013C273.502 153.862 274.131 156.693 275.341 159.26C275.632 159.883 276.048 160.467 276.466 161.054C277.09 161.931 277.719 162.814 277.941 163.841C278.388 165.916 276.546 166.048 274.809 166.172C274.296 166.208 273.791 166.244 273.358 166.329C266.932 167.59 261.499 172.106 259.057 178.174C255.85 186.144 258.43 195.448 265.17 200.761C265.223 200.804 265.284 200.851 265.345 200.897C267.577 202.608 267.534 205.91 265.254 207.56C260.213 211.22 256.976 217.247 257.223 224.046C257.528 232.627 263.666 240.074 271.985 242.194C272.07 242.21 272.15 242.235 272.235 242.251C274.973 242.912 276.25 245.934 274.835 248.376C271.737 253.733 271.213 260.481 274.128 266.56C277.842 274.306 286.463 278.678 294.943 277.294L295.141 277.258C297.943 276.768 300.43 279.178 300.166 282.008C299.62 287.803 301.669 293.77 306.251 298.044L306.41 298.184C306.626 298.376 306.839 298.565 307.06 298.751C308.515 299.961 309.106 301.944 308.375 303.698L308.379 303.689C305.317 311.021 301.689 318.23 297.476 325.245C274.348 363.711 237.975 389.318 197.702 399.737L196.992 422.995L200.362 451.709C200.41 452.122 200.439 452.527 200.439 452.931V461.225C200.439 462.298 199.519 463.174 198.489 463.174C197.459 463.174 196.636 462.371 196.563 461.36C196.559 461.362 196.553 461.366 196.547 461.37L196.54 461.376L196.535 461.379V463.059C196.535 464.17 195.634 465.075 194.518 465.075C193.584 465.075 192.828 464.425 192.602 463.559V464.507C192.602 465.772 191.576 466.797 190.31 466.797C189.044 466.797 188.019 465.772 188.019 464.507V465.917C188.019 467.586 186.661 468.943 184.991 468.943C183.321 468.943 181.963 467.586 181.963 465.917V464.006L183.354 434.59L182.502 433.738C179.917 431.155 179.917 426.974 182.502 424.39L183.898 422.995L180.599 403.211C164.636 405.584 148.284 405.627 132.086 403.203L128.784 423.004L130.18 424.4C132.765 426.983 132.765 431.164 130.18 433.748L129.333 434.595L130.724 464.011V465.921C130.724 467.591 129.367 468.948 127.696 468.948C126.026 468.948 124.668 467.591 124.668 465.921V464.512C124.668 465.777 123.643 466.802 122.377 466.802C121.111 466.802 120.085 465.777 120.085 464.512V463.564C119.859 464.43 119.108 465.079 118.17 465.079C117.058 465.079 116.153 464.18 116.153 463.063V461.389C116.143 461.379 116.133 461.375 116.124 461.365C116.047 462.375 115.276 463.179 114.198 463.179C113.12 463.179 112.249 462.308 112.249 461.23V452.936C112.253 452.531 112.277 452.122 112.326 451.714L115.695 423L114.984 399.701C100.13 395.82 85.574 389.778 71.7501 381.466C-6.39269 334.489 -31.4523 232.86 16.0492 154.889C27.3951 136.265 41.9128 120.703 58.4947 108.464C59.4477 106.828 60.8246 105.433 62.5332 104.455ZM249.766 123.369C250.492 122.922 251.158 122.396 251.754 121.803C253.66 123.33 255.529 124.901 257.358 126.516C254.93 125.431 252.385 124.406 249.766 123.369ZM63.9683 124.235C62.7683 123.762 61.6834 123.092 60.7462 122.27C49.9695 130.965 40.2524 141.254 31.9813 153.043C35.4912 150.436 39.391 148.036 43.3909 145.573L43.4537 145.535C48.9928 142.132 54.7171 138.606 59.6122 134.324C62.1274 132.123 64.9297 128.951 67.6359 125.679L63.9683 124.235ZM178.275 389.268L178.561 390.986C169.294 392.353 159.886 392.872 150.464 392.514C155.666 391.162 160.978 389.922 166.288 389.422C170.252 389.048 174.275 389.079 178.275 389.268ZM164.112 302.091C158.982 302.733 153.761 302.742 148.578 302.087L156.343 279.391L156.341 279.389L156.344 279.387L164.112 302.091ZM119.06 244.537L119.056 244.533C119.056 230.531 119.898 217.878 120.718 205.553L120.718 205.552L120.718 205.552C121.087 200.011 121.451 194.537 121.732 189.037C115.925 192.942 110.718 197.878 106.425 203.766C86.6587 230.855 92.1821 267.578 116.54 288.031L119.06 244.537ZM193.627 244.529L193.622 244.533C193.622 230.8 192.789 218.24 191.974 205.946C191.593 200.202 191.215 194.516 190.929 188.795C219.908 208.066 227.779 248.174 206.591 277.212C203.539 281.398 200.026 285.102 196.163 288.297L193.627 244.529ZM67.2822 363.758C70.7562 366.269 74.3642 368.654 78.1035 370.902C81.8356 373.146 85.6263 375.211 89.4654 377.099C86.1242 374.375 82.649 371.756 78.9296 369.514C75.2062 367.271 71.2594 365.43 67.2822 363.758ZM25.0695 317.105C19.1083 306.837 14.388 295.938 10.9707 284.656C14.3908 290.087 17.8884 295.705 20.3825 301.68C22.4326 306.6 23.8285 311.877 25.0695 317.105ZM4.4615 235.359C5.03384 233.942 5.62547 232.513 6.222 231.073C8.79036 224.877 11.4392 218.472 12.9995 211.839C14.4879 205.513 14.9139 198.807 15.3262 192.318L15.3269 192.308L15.3321 192.226C15.5635 188.601 15.7905 185.047 16.1855 181.622C8.87737 199.009 5.04349 217.219 4.4615 235.359ZM232.278 372.418C248.069 363.383 262.392 351.427 274.346 336.776C271.484 338.75 268.424 340.633 265.302 342.555L265.24 342.593C259.701 345.996 253.976 349.522 249.081 353.804C243.955 358.29 239.543 363.635 235.276 368.809L235.244 368.847L235.238 368.854L235.233 368.861C234.242 370.061 233.259 371.251 232.278 372.418ZM292.106 309.528C293.058 307.659 293.973 305.771 294.848 303.866C294.185 303.053 293.566 302.212 292.991 301.346C292.776 304.146 292.51 306.884 292.106 309.528Z" fill="#62BFED"/>
<g clip-path="url(#clip1_2238_48837)">
<path d="M300.251 285.044C295.669 280.77 293.62 274.803 294.166 269.008C294.43 266.178 291.943 263.768 289.141 264.258C289.075 264.27 289.009 264.282 288.943 264.293C280.463 265.678 271.842 261.306 268.128 253.56C265.214 247.481 265.737 240.733 268.835 235.376C270.251 232.934 268.974 229.912 266.235 229.251C266.15 229.235 266.07 229.21 265.986 229.194C257.666 227.074 251.528 219.627 251.223 211.046C250.977 204.247 254.213 198.22 259.254 194.56C261.534 192.91 261.577 189.608 259.345 187.897C259.284 187.851 259.223 187.804 259.171 187.761C252.431 182.448 249.85 173.144 253.057 165.174C255.499 159.106 260.932 154.59 267.358 153.329C269.257 152.955 272.521 153.53 271.942 150.841C271.569 149.126 270.068 147.814 269.341 146.26C268.131 143.693 267.502 140.862 267.49 138.013C267.48 132.353 269.988 126.882 274.297 123.179C275.413 122.221 275.517 120.51 274.547 119.398C264.008 107.308 251.514 96.5624 237.182 87.6892C159.869 39.7825 57.3709 64.2145 10.0493 141.889C-37.4521 219.86 -12.3925 321.488 65.7502 368.466C143.6 415.276 244.665 390.099 291.476 312.244C295.69 305.23 299.317 298.021 302.379 290.689C303.11 288.935 302.519 286.952 301.064 285.742C300.789 285.511 300.526 285.275 300.254 285.035L300.251 285.044ZM123.49 283.425C88.56 266.451 77.5272 222.151 100.421 190.774C117.963 166.72 150.738 158.561 177.519 171.57C212.449 188.544 223.482 232.844 200.588 264.221C183.046 288.275 150.271 296.434 123.49 283.425Z" fill="#FFDE17"/>
<path d="M103.419 379.856C98.6463 376.982 94.0812 373.091 89.2445 368.96C84.1278 364.585 78.8368 360.074 72.9298 356.514C67.0227 352.955 60.5532 350.41 54.2925 347.945C48.3809 345.612 42.7976 343.411 38.0246 340.536C34.8041 338.6 32.2823 336.55 30.3108 334.263C24.4948 327.523 22.2744 317.928 19.9233 307.769C18.4471 301.37 16.9133 294.754 14.3826 288.68C11.8095 282.516 8.16824 276.731 4.64587 271.14C-0.86586 262.39 -6.07173 254.129 -6.79555 245.366C-7.50779 236.741 -3.7517 227.669 0.22213 218.073C2.79049 211.877 5.43934 205.472 6.99963 198.839C8.48876 192.51 8.91451 185.8 9.327 179.308C9.99571 168.835 10.6164 158.94 15.3475 151.084C20.0701 143.224 28.516 138.036 37.4539 132.535C42.9929 129.132 48.7172 125.606 53.6123 121.324C58.7383 116.838 65.0562 108.32 69.3233 103.146C75.9397 95.1339 82.1798 87.5674 90.133 84.1463C98.2088 80.6769 107.946 81.4016 118.257 82.1621C124.849 82.6482 131.663 83.1598 138.311 82.5332C144.865 81.916 151.419 80.1724 157.768 78.4816C167.842 75.7885 177.362 73.2505 186.036 75.2299C188.984 75.9006 191.977 77.1695 195.189 79.1023C199.962 81.9769 204.535 85.8717 209.363 89.9989C214.48 94.3733 219.771 98.8842 225.678 102.444C231.58 105.992 235.946 107.278 242.203 109.751C248.115 112.085 253.698 114.285 258.471 117.16C261.515 118.989 263.935 120.923 265.86 123.059C264.706 126.092 264.1 129.311 264.091 132.536C264.076 136.125 265.011 144.167 266.394 147.437C258.891 149.866 252.61 155.658 249.606 163.066C245.456 173.327 248.151 185.149 256.114 192.556C250.114 197.862 246.74 205.586 246.989 213.665C247.269 222.631 252.046 230.757 259.768 235.399C261.394 236.379 263.121 237.17 264.919 237.778C261.571 244.996 261.55 253.323 264.955 260.519C267.13 265.119 270.612 268.956 275.023 271.612C278.946 273.965 283.391 275.256 287.903 275.387C287.684 277.881 287.526 280.372 287.367 282.821C286.698 293.294 286.077 303.188 281.346 311.045C276.624 318.904 268.178 324.092 259.24 329.593C253.701 332.996 247.976 336.522 243.081 340.804C237.955 345.29 233.543 350.635 229.276 355.809C222.66 363.821 216.42 371.388 208.466 374.809C200.391 378.278 190.653 377.553 180.343 376.793C173.751 376.307 166.936 375.795 160.288 376.422C153.735 377.039 147.18 378.783 140.831 380.473C130.757 383.166 121.238 385.704 112.563 383.725C109.615 383.054 106.623 381.785 103.411 379.853L103.419 379.856ZM184.551 170.856C182.732 169.762 180.824 168.73 178.905 167.795C148.205 152.912 112.057 161.333 94.636 191.166C87.9358 202.646 80.1656 216.94 83.8643 236.6C87.5906 256.384 99.5215 273.617 116.599 283.885C118.418 284.98 120.326 286.011 122.245 286.946C152.945 301.829 197.206 287.234 207.238 264.316C214.371 248.029 221.619 236.737 217.917 217.085C214.19 197.302 201.628 181.125 184.551 170.856Z" fill="#FF3F73"/>
<path d="M177.938 100.592C177.641 99.4067 178.364 98.2079 179.549 97.9102L197.593 93.4178C198.779 93.1201 199.977 93.8436 200.275 95.0289C200.573 96.2142 199.849 97.4129 198.664 97.7106L180.62 102.203C179.435 102.501 178.236 101.777 177.938 100.592Z" fill="#00A14B"/>
<path d="M225.36 140.475C224.146 140.324 223.286 139.219 223.433 138.014L225.693 119.55C225.845 118.337 226.949 117.476 228.155 117.623C229.368 117.775 230.229 118.879 230.081 120.085L227.821 138.549C227.67 139.762 226.565 140.623 225.36 140.475Z" fill="#00AEEF"/>
<path d="M182.368 147.589C181.149 147.66 180.102 146.728 180.032 145.509L178.937 126.939C178.867 125.72 179.799 124.673 181.017 124.603C182.235 124.533 183.283 125.465 183.361 126.687L184.457 145.257C184.527 146.476 183.595 147.523 182.372 147.602L182.368 147.589Z" fill="#FFF200"/>
<path d="M227.109 177.394C226.326 178.333 224.931 178.458 223.992 177.675L209.732 165.736C208.792 164.952 208.667 163.558 209.45 162.618C210.234 161.679 211.629 161.554 212.568 162.337L226.828 174.276C227.767 175.06 227.893 176.454 227.109 177.394Z" fill="#ED1C24"/>
<path d="M97.4097 105.177C97.112 103.992 97.8356 102.793 99.0208 102.495L117.065 98.0028C118.25 97.7051 119.449 98.4287 119.746 99.614C120.044 100.799 119.32 101.998 118.135 102.296L100.091 106.788C98.906 107.086 97.7073 106.362 97.4097 105.177Z" fill="#00A14B"/>
<path d="M149.351 146.251C148.805 147.344 147.474 147.792 146.384 147.237L129.757 138.901C128.664 138.355 128.217 137.024 128.771 135.934C129.317 134.841 130.648 134.394 131.738 134.948L148.365 143.284C149.458 143.83 149.905 145.161 149.351 146.251Z" fill="#00AEEF"/>
<path d="M101.839 152.174C100.621 152.245 99.5734 151.313 99.5034 150.094L98.408 131.524C98.338 130.305 99.27 129.258 100.488 129.188C101.707 129.118 102.754 130.05 102.824 131.268L103.919 149.839C103.989 151.057 103.057 152.104 101.839 152.174Z" fill="#FFF200"/>
<path d="M76.4264 126.985C76.724 128.171 76.0004 129.369 74.8152 129.667L56.7712 134.16C55.586 134.457 54.3872 133.734 54.0896 132.549C53.792 131.363 54.5155 130.164 55.7008 129.867L73.7448 125.374C74.93 125.077 76.1287 125.8 76.4264 126.985Z" fill="#ED1C24"/>
<path d="M83.0728 182.744C84.258 182.446 84.9816 181.247 84.6839 180.062L80.1924 162.018C79.8947 160.832 78.696 160.109 77.5108 160.407C76.3256 160.704 75.602 161.903 75.8996 163.088L80.3912 181.133C80.6888 182.318 81.8875 183.042 83.0728 182.744Z" fill="#00A14B"/>
<path d="M25.6043 159.568C26.3052 160.573 27.6823 160.816 28.6872 160.115L43.9331 149.462C44.938 148.761 45.1806 147.384 44.4798 146.379C43.7789 145.374 42.4018 145.132 41.3969 145.833L26.151 156.485C25.1461 157.186 24.9035 158.563 25.6043 159.568Z" fill="#00AEEF"/>
<path d="M39.955 191.55C40.2526 192.735 41.4513 193.459 42.6365 193.161L60.6806 188.669C61.8658 188.371 62.5894 187.172 62.2917 185.987C61.9941 184.802 60.7954 184.078 59.6101 184.376L41.5661 188.868C40.3809 189.166 39.6573 190.365 39.955 191.55Z" fill="#ED1C24"/>
<path d="M140.202 107.409C139.263 106.626 139.138 105.231 139.921 104.292L151.86 90.0306C152.644 89.0913 154.038 88.9658 154.978 89.7493C155.917 90.5328 156.042 91.9276 155.259 92.8669L143.32 107.128C142.536 108.067 141.133 108.189 140.202 107.409Z" fill="#ED1C24"/>
<g style="mix-blend-mode:overlay" opacity="0.5">
<path d="M255.455 274.072C256.804 274.566 257.55 276.028 257.137 277.402C253.689 288.709 248.291 299.505 241.44 309.436C237.766 314.766 233.551 319.749 228.968 324.41C224.381 329.059 219.415 333.412 214.055 337.289C192.662 352.817 165.579 361.243 138.136 360.325C124.416 359.912 110.676 357.063 97.6248 352.138C91.0925 349.667 84.8214 346.548 78.754 343.03C72.6792 339.529 66.9056 335.428 61.4557 330.909C50.5547 321.85 41.1783 310.824 33.7327 298.554C26.3313 286.252 20.9955 272.654 17.8479 258.483C16.309 251.387 15.326 244.157 14.8397 236.858C14.3535 229.56 14.3716 222.175 15.1001 214.815C15.7955 207.461 17.0205 200.103 18.8772 192.857C20.7595 185.622 23.3138 178.547 26.3586 171.675C27.164 169.983 27.9256 168.253 28.7994 166.591L31.4586 161.613C33.3866 158.388 35.2831 155.119 37.5076 152.054C41.8321 145.859 46.6993 139.981 52.1836 134.716C57.6326 129.416 63.5855 124.639 69.9122 120.451C76.2474 116.266 83.0049 112.793 89.9456 109.856C103.855 104.036 118.723 100.896 133.49 100.372C140.869 100.073 148.248 100.525 155.47 101.64C157.276 101.876 159.071 102.209 160.855 102.567C162.643 102.917 164.419 103.221 166.173 103.719C167.926 104.195 169.683 104.593 171.414 105.141L176.566 106.769C190.128 111.571 202.64 118.649 212.982 127.78C218.192 132.266 222.888 137.259 226.969 142.616C230.502 147.247 233.599 152.135 236.082 157.265C236.763 158.667 236.432 160.341 235.252 161.352C234.136 162.309 232.536 162.417 231.285 161.65C221.304 155.57 211.387 150.746 201.216 147.488C190.45 143.849 179.633 141.985 169.135 141.468C148.091 140.617 128.106 145.698 111.383 155.262L109.799 156.128L108.269 157.078C107.257 157.726 106.208 158.295 105.241 159.003C104.269 159.698 103.251 160.312 102.274 160.994L99.3925 163.094C95.6097 165.96 92.0093 169.037 88.5855 172.292C85.1445 175.54 81.9517 179.059 78.9355 182.755C75.9106 186.448 73.0304 190.345 70.5342 194.48C65.3613 202.653 61.4389 211.733 59.0998 221.4C56.7351 231.055 56.1739 241.28 57.3953 251.376C59.9664 271.552 69.1842 291.222 83.9557 306.216C98.6103 321.362 118.575 332.041 140.304 335.292C162.02 338.852 185.35 334.837 205.619 323.98C210.7 321.281 215.546 318.095 220.16 314.554C224.774 311.013 229.141 307.081 233.137 302.744C237.142 298.431 240.926 293.829 244.258 288.869C247.13 284.592 249.741 280.1 252.054 275.428C252.674 274.164 254.131 273.568 255.442 274.056L255.455 274.072Z" fill="white"/>
</g>
<path d="M27.5906 258.611C19.333 235.56 19.8727 209.038 29.213 186.053C33.8796 174.534 40.8399 164.163 48.6359 154.743C52.5741 150.046 56.8096 145.6 61.2799 141.408C65.8159 137.275 70.5467 133.348 75.6166 129.832C80.6465 126.269 85.9959 123.139 91.578 120.455C97.1467 117.756 102.971 115.542 108.936 113.847C114.901 112.152 120.983 110.772 127.153 110.009C128.687 109.751 130.238 109.663 131.789 109.504L134.11 109.303L136.437 109.206C137.99 109.16 139.544 109.043 141.097 109.067C142.65 109.091 144.209 109.078 145.763 109.123C151.971 109.442 158.164 110.121 164.257 111.335C170.333 112.612 176.306 114.312 182.111 116.447C193.699 120.768 204.561 126.946 214.004 134.732L213.717 135.136C193.074 122.253 169.444 114.917 145.593 114.38C133.695 114.118 121.714 115.263 110.162 118.32C104.373 119.797 98.7064 121.763 93.1873 124.068C87.673 126.385 82.2186 128.962 77.0782 132.102C71.955 135.249 66.9515 138.681 62.3942 142.653C57.8417 146.637 53.6493 151.031 49.8748 155.748C42.3719 165.265 36.9534 176.224 33.0461 187.515C31.01 193.139 29.4196 198.907 28.1248 204.742C27.4982 207.658 26.9608 210.603 26.5663 213.569C26.1462 216.525 25.7982 219.501 25.6262 222.493C24.7792 234.452 25.7367 246.535 28.0681 258.493L27.5954 258.623L27.5906 258.611Z" fill="white"/>
<g style="mix-blend-mode:overlay" opacity="0.3">
<path d="M302.375 290.698C303.106 288.944 302.515 286.961 301.061 285.751C300.785 285.519 300.522 285.283 300.251 285.044C295.669 280.77 293.62 274.803 294.166 269.008C294.43 266.178 291.943 263.768 289.141 264.258C289.075 264.27 289.009 264.282 288.943 264.293C280.463 265.678 271.842 261.306 268.128 253.56C265.214 247.481 265.737 240.733 268.835 235.376C270.251 232.934 268.974 229.912 266.235 229.251C266.15 229.235 266.07 229.21 265.986 229.194C257.666 227.074 251.528 219.627 251.223 211.046C250.977 204.247 254.213 198.22 259.254 194.56C261.534 192.91 261.577 189.608 259.345 187.897C259.284 187.851 259.223 187.804 259.171 187.761C252.431 182.448 249.85 173.144 253.057 165.174C255.499 159.106 260.932 154.59 267.358 153.329C269.257 152.955 272.521 153.53 271.942 150.841C271.569 149.126 270.068 147.814 269.341 146.26C268.131 143.693 267.502 140.862 267.49 138.013C267.48 132.353 269.988 126.882 274.297 123.179C275.413 122.221 275.517 120.51 274.547 119.398C264.008 107.308 251.514 96.5624 237.182 87.6892C159.869 39.7825 57.3709 64.2145 10.0493 141.889C-37.4521 219.86 -12.3925 321.488 65.7502 368.466C143.6 415.276 244.665 390.099 291.476 312.244C295.69 305.23 299.317 298.021 302.379 290.689L302.375 290.698ZM72.1036 357.902C0.203276 314.671 -23.1246 221.004 20.0957 149.104L20.574 148.306C63.9685 77.081 157.435 54.1094 228.926 97.0917C229.513 97.4479 230.099 97.8042 230.686 98.1604C241.342 104.767 251.088 112.604 259.749 121.513C259.742 121.53 259.734 121.547 259.727 121.564C256.726 126.557 255.149 132.248 255.157 138.029C255.162 140.215 255.393 142.397 255.842 144.541C250.949 147.23 246.791 151.192 243.851 156.069C242.986 157.501 242.234 159.022 241.613 160.57C237.509 170.77 239.146 182.316 245.398 191.021C244.686 191.961 244.017 192.94 243.397 193.97C240.224 199.243 238.67 205.301 238.896 211.491C239.284 222.22 245.079 231.977 254.396 237.575C254.508 237.644 254.629 237.717 254.745 237.778C253.079 244.771 253.824 252.223 257.016 258.879C259.672 264.429 263.898 269.056 269.235 272.267C273.245 274.678 277.705 276.168 282.275 276.68C283.231 281.868 285.476 286.731 288.848 290.866C286.478 296.021 283.822 301.062 280.909 305.9C237.677 377.805 144.013 401.137 72.1036 357.902Z" fill="black"/>
</g>
<g style="mix-blend-mode:overlay" opacity="0.3">
<path d="M223.439 212.761C219.302 192.312 206.701 174.422 188.865 163.703C186.942 162.543 184.944 161.462 182.914 160.479C150.55 144.751 111.672 154.433 90.468 183.508C78.1495 200.397 73.4541 221.804 77.5821 242.229C81.7161 262.687 94.3202 280.568 112.156 291.288C114.079 292.448 116.077 293.528 118.107 294.512C150.471 310.239 189.35 300.557 210.553 271.483C222.872 254.594 227.567 233.186 223.439 212.761ZM200.592 264.212C183.05 288.267 150.275 296.426 123.494 283.416C88.5638 266.442 77.531 222.142 100.425 190.766C117.967 166.711 150.741 158.552 177.523 171.562C212.453 188.536 223.486 232.836 200.592 264.212Z" fill="black"/>
</g>
<path d="M246.181 152.714C244.604 154.873 243.302 157.171 242.157 159.527C241.038 161.894 240.149 164.362 239.589 166.891C238.962 169.411 238.774 172.02 238.906 174.616C238.955 177.237 239.627 179.783 240.313 182.365C239.142 179.988 238.111 177.428 237.872 174.705L237.73 173.699C237.715 173.358 237.718 173.024 237.704 172.683C237.705 172.003 237.664 171.325 237.698 170.639C237.821 169.281 237.964 167.921 238.285 166.598C238.905 163.954 239.897 161.389 241.239 159.047C242.572 156.701 244.215 154.531 246.181 152.714Z" fill="white"/>
</g>
<rect x="121" y="105" width="59" height="50" fill="#F5C6A8"/>
<path d="M117 69.5L62.0002 101L128 127" stroke="#F5C6A8" stroke-width="22" stroke-linejoin="round"/>
<path d="M117 69.5L62.0002 101L128 127" stroke="#F5C6A8" stroke-width="22" stroke-linejoin="round"/>
<path d="M117 69.5L62.0002 101L128 127" stroke="#F5C6A8" stroke-width="22" stroke-linejoin="round"/>
<path d="M183 69.5L238 101L172 127" stroke="#F5C6A8" stroke-width="22" stroke-linejoin="round"/>
<path d="M183 69.5L238 101L172 127" stroke="#F5C6A8" stroke-width="22" stroke-linejoin="round"/>
<path d="M183 69.5L238 101L172 127" stroke="#F5C6A8" stroke-width="22" stroke-linejoin="round"/>
<path d="M185.22 137.236V90.0903H173.118V137.236H127.564V90.0903H115.462V137.236C118.176 170.678 113.055 197 113.055 231.533L150.339 266.391L187.622 231.533C187.622 197.5 182.506 170.678 185.22 137.236Z" fill="#2B3852"/>
<path d="M198.853 99.7771C225.52 73.1244 225.52 29.9118 198.853 3.25906C172.187 -23.3936 128.951 -23.3936 102.285 3.25906C75.6179 29.9118 75.6179 73.1244 102.285 99.7771C128.951 126.43 172.187 126.43 198.853 99.7771Z" fill="#FBD083"/>
<path d="M150.571 81.1317C166.935 81.1317 180.2 67.8732 180.2 51.5181C180.2 35.1629 166.935 21.9044 150.571 21.9044C134.207 21.9044 120.942 35.1629 120.942 51.5181C120.942 67.8732 134.207 81.1317 150.571 81.1317Z" fill="#F9B233"/>
</g>
<defs>
<clipPath id="clip0_2238_48837">
<rect width="283" height="179" fill="white"/>
</clipPath>
<clipPath id="clip1_2238_48837">
<rect width="329" height="329" fill="white" transform="translate(65.1244 11.0935) rotate(23.4704)"/>
</clipPath>
</defs>
</svg>
