<svg width="304" height="180" viewBox="0 0 304 180" fill="none" xmlns="http://www.w3.org/2000/svg">
<g clip-path="url(#clip0_2238_48941)">
<path d="M125.81 -39.5721C110.871 -24.3112 94.5611 -6.73974 93.6444 9.91074C93.419 14.0855 89.8312 17.4316 85.2969 17.5208L53.7421 10.8344C52.1288 11.021 50.6896 11.669 49.5643 12.6363C48.7622 13.8417 48.348 15.2691 48.4715 16.7634L61.7713 43.9767C62.5665 48.0948 59.7136 51.9939 55.3128 53.0121C37.7755 57.1086 22.2804 75.2942 8.97703 91.788C7.24836 93.9343 10.075 96.6541 12.4856 95.1718C29.0415 84.9696 52.0511 82.9365 68.5943 83.0101C57.5604 90.8281 47.494 102.834 38.4423 114.056C36.7137 116.203 39.5403 118.922 41.9509 117.44C59.8097 106.435 83.9709 104.023 100.383 104.231C87.9095 111.822 76.62 125.234 66.5791 137.683C64.8504 139.83 67.677 142.55 70.0877 141.067C90.043 128.77 108.845 120.377 124.929 121.211C127.761 121.357 130.499 120.3 132.289 118.28L135.414 114.766C114.939 148.844 123.118 192.587 156.964 218.165L271.298 304.569C309.416 333.374 365.642 328.237 396.898 293.104L412.619 275.423L412.607 275.425C443.851 240.293 438.284 188.458 400.172 159.657L285.838 73.2528C251.998 47.6797 203.872 48.8598 171.636 74.0385L175.648 69.5284C176.871 68.1559 177.534 66.47 177.607 64.7362C177.837 64.4669 177.961 64.3217 177.961 64.3217C177.961 64.3217 177.815 64.1057 177.578 63.6746C177.533 63.2132 177.446 62.7523 177.317 62.2968C173.288 47.9197 178.518 29.2745 187.693 8.83098C188.805 6.36304 185.344 4.33761 183.405 6.31872L183.412 6.32328C173.421 16.5292 162.818 27.7684 156.615 39.0745C153.388 24.3037 151.625 2.87773 159.556 -14.7961C160.668 -17.264 157.208 -19.2895 155.269 -17.3084L155.276 -17.3038C145.108 -6.91774 134.306 4.53848 128.154 16.0462C124.83 1.10529 122.476 -20.0999 130.084 -37.069C131.196 -39.5369 127.735 -41.5624 125.796 -39.5812L125.81 -39.5721Z" fill="#62BFED"/>
<path d="M418.305 265.572L402.321 283.526C370.541 319.203 314.216 325.023 276.499 296.517L163.367 211.012C125.657 182.51 120.838 130.478 152.606 94.803L168.59 76.8485C200.358 41.174 256.69 35.3582 294.4 63.8599L407.532 149.365C445.242 177.866 450.06 229.899 418.293 265.574L418.305 265.572Z" fill="#FFF200"/>
<path opacity="0.25" d="M394.895 277.924C366.623 309.671 316.325 314.862 282.774 289.5L169.619 203.976C136.061 178.611 131.761 132.15 160.028 100.409L176.016 82.4505C204.287 50.7035 254.586 45.513 288.137 70.8741L401.292 156.398C434.85 181.764 439.149 228.225 410.883 259.965L394.895 277.924Z" fill="white"/>
<path d="M237.143 59.1053C231.012 59.1185 224.859 59.8553 218.86 61.2621C212.863 62.68 206.985 64.7056 201.509 67.5012C196.019 70.259 190.875 73.6424 186.23 77.5445C185.046 78.4927 183.946 79.5347 182.844 80.5656C181.707 81.5741 180.707 82.6902 179.651 83.7703C177.579 85.9464 175.662 88.164 173.663 90.3674C169.711 94.7947 165.727 99.142 161.799 103.634C157.883 108.192 154.495 113.15 151.891 118.445C149.266 123.728 147.298 129.296 146.195 134.988C145.042 140.677 144.658 146.479 145.079 152.209C145.229 155.079 145.719 157.913 146.25 160.734C146.883 163.531 147.588 166.316 148.58 169.012C149.502 171.73 150.682 174.359 151.946 176.944C153.291 179.492 154.699 182.012 156.383 184.376C157.994 186.781 159.845 189.036 161.753 191.23C163.733 193.371 165.779 195.466 168.026 197.366C168.587 197.846 169.126 198.341 169.702 198.8L171.436 200.173C172.583 201.099 173.779 201.948 174.944 202.837L181.983 208.11C191.4 215.112 200.712 222.223 210.042 229.326C219.391 236.403 228.621 243.609 237.918 250.74L265.749 272.213L279.698 282.912L283.19 285.585C284.344 286.475 285.521 287.362 286.745 288.229C289.15 290.005 291.734 291.562 294.354 293.043C299.656 295.938 305.364 298.209 311.305 299.834C317.252 301.424 323.43 302.316 329.654 302.55C335.881 302.725 342.156 302.225 348.293 301.005C354.412 299.754 360.433 297.91 366.088 295.317C371.735 292.721 377.105 289.561 381.926 285.782C383.121 284.821 384.333 283.891 385.459 282.856L387.17 281.342L388.801 279.757C390.981 277.63 392.941 275.342 394.883 273.132L406.602 259.782L408.069 258.111C408.553 257.547 409.018 256.952 409.493 256.373L410.91 254.63C411.378 254.046 411.874 253.481 412.272 252.852L414.813 249.178C415.61 247.931 416.317 246.626 417.073 245.352C419.934 240.183 422.104 234.706 423.557 229.102C424.932 223.476 425.574 217.733 425.496 212.017L425.437 209.874C425.422 209.157 425.403 208.446 425.305 207.744L424.833 203.496L424.018 199.302C423.908 198.601 423.694 197.913 423.507 197.231L422.935 195.172C421.323 189.717 419.015 184.462 416.045 179.569L415.789 179.699C421.217 189.678 424.253 200.82 424.016 212.057C423.95 217.661 423.173 223.268 421.7 228.721C420.143 234.161 417.887 239.425 415.055 244.406C414.303 245.633 413.599 246.881 412.812 248.085L410.296 251.618C409.899 252.218 409.412 252.76 408.947 253.326L407.549 255.002C407.083 255.557 406.63 256.121 406.145 256.674L404.655 258.321L392.729 271.518C390.732 273.732 388.789 275.903 386.696 277.928L385.116 279.448L383.462 280.9C382.377 281.883 381.201 282.778 380.047 283.687C375.388 287.294 370.214 290.294 364.782 292.745C359.352 295.207 353.587 296.99 347.708 298.199C341.824 299.375 335.803 299.843 329.82 299.745C323.84 299.56 317.892 298.748 312.163 297.269C306.444 295.748 300.92 293.606 295.786 290.858C293.245 289.437 290.744 287.963 288.402 286.268C287.225 285.45 286.049 284.574 284.878 283.692L281.351 281.066L267.237 270.555L238.946 249.602C229.529 242.6 220.061 235.664 210.701 228.601C201.317 221.57 191.925 214.535 182.633 207.397L175.639 202.065C174.486 201.175 173.286 200.303 172.177 199.382L170.481 198.014C169.912 197.559 169.402 197.053 168.86 196.576C166.697 194.661 164.742 192.556 162.849 190.411C161.026 188.214 159.276 185.965 157.762 183.583C156.18 181.236 154.869 178.739 153.611 176.227C152.445 173.676 151.343 171.097 150.517 168.43C149.62 165.787 149.001 163.067 148.454 160.334C147.999 157.591 147.62 154.83 147.498 152.046C146.866 140.938 149.219 129.648 154.216 119.413C156.68 114.273 159.919 109.455 163.664 105.012C167.494 100.566 171.475 96.1279 175.375 91.6868C177.336 89.4785 179.29 87.2259 181.257 85.0509C182.26 83.9857 183.205 82.8735 184.294 81.8734C185.347 80.8508 186.392 79.8127 187.527 78.8617C191.963 74.9729 196.912 71.572 202.225 68.7592C207.537 65.9464 213.224 63.7484 219.094 62.1698C224.965 60.6023 231.042 59.6788 237.139 59.3974L237.14 59.1229L237.143 59.1053Z" fill="white"/>
<path d="M380.798 142.777C373.452 136.363 365.892 130.187 358.254 124.1C354.455 121.03 350.578 118.048 346.739 115.032L335.105 106.105L323.356 97.3022C319.397 94.416 315.484 91.481 311.482 88.6368C303.531 82.9043 295.491 77.2624 287.249 71.8577C294.595 78.2724 302.155 84.448 309.793 90.535C313.592 93.6051 317.473 96.5799 321.308 99.6035L332.941 108.53L344.695 117.326C348.655 120.212 352.573 123.141 356.57 125.992C364.525 131.717 372.561 137.366 380.803 142.771L380.798 142.777Z" fill="white"/>
<path d="M387.47 272.323C362.655 300.195 318.501 304.752 289.04 282.487L175.858 196.94C146.397 174.675 142.627 133.882 167.437 106.017L183.429 88.0534C208.244 60.182 252.405 55.629 281.858 77.8897L395.041 163.437C424.501 185.702 428.272 226.495 403.461 254.36L387.47 272.323Z" fill="#FFCB00"/>
<path d="M186.278 90.3454L170.478 108.128C155.879 124.555 152.064 145.849 158.295 164.429L243.722 68.3138C222.759 66.3083 200.884 73.923 186.285 90.3498L186.278 90.3454Z" fill="#FFDE17"/>
<path d="M299.927 283.173C308.206 288.011 317.393 290.836 326.769 291.731L412.157 195.644C409.368 187.325 404.566 179.566 397.811 173.018L299.927 283.173Z" fill="#FFDE17"/>
<path d="M293.269 278.744C295.257 280.251 297.337 281.613 299.457 282.854L397.342 172.697C395.611 171.015 393.763 169.404 391.767 167.892L377.057 156.755L278.552 267.602L293.262 278.739L293.269 278.744Z" fill="#FFF42E"/>
<path d="M257.508 251.579L278.098 267.144L376.627 156.555L356.036 140.99L257.508 251.579Z" fill="#FFDE17"/>
<path d="M236.451 235.666L257.041 251.231L355.57 140.641L334.98 125.077L236.451 235.666Z" fill="#FFF42E"/>
<path d="M215.388 219.748L235.978 235.312L334.506 124.723L313.916 109.158L215.388 219.748Z" fill="#FFDE17"/>
<path d="M194.331 203.834L214.921 219.399L313.449 108.81L292.859 93.2452L194.331 203.834Z" fill="#FFF42E"/>
<path d="M179.149 192.476L193.858 203.613L292.363 92.7667L277.654 81.629C275.665 80.1217 273.585 78.7601 271.466 77.5185L173.58 187.675C175.312 189.357 177.16 190.968 179.156 192.48L179.149 192.476Z" fill="#FFDE17"/>
<path d="M270.995 77.1993C262.716 72.3621 253.529 69.5362 244.154 68.6416L158.766 164.729C161.555 173.047 166.356 180.806 173.111 187.355L270.995 77.1993Z" fill="#FFF42E"/>
<g style="mix-blend-mode:overlay">
<path d="M174.146 109.09C171.491 112.151 169.154 115.446 167.272 118.947C165.405 122.457 164.017 126.139 162.951 129.861C161.899 133.592 161.229 137.394 160.88 141.196C160.519 145 160.471 148.829 160.824 152.623C161.468 160.21 163.577 167.78 167.557 174.478C169.535 177.83 171.924 180.956 174.64 183.803C177.401 186.62 180.404 189.201 183.711 191.468L182.363 192.158C181.432 185.19 180.628 178.205 179.862 171.225L178.696 160.745C178.345 157.246 177.965 153.759 177.651 150.254C177.004 143.254 176.413 136.249 176.081 129.216C175.714 122.19 175.376 115.153 174.693 108.158L174.933 108.225L174.141 109.096L174.146 109.09ZM173.948 108.942L174.719 108.057L174.936 107.815L174.966 108.128C175.679 115.123 176.729 122.07 177.751 129.028C178.815 135.984 179.612 142.964 180.354 149.948C180.741 153.44 181.056 156.945 181.399 160.439L182.318 170.946C182.94 177.95 183.525 184.95 183.99 191.971L184.112 193.803L182.642 192.661C176.24 187.675 170.933 181.572 166.85 174.846C164.83 171.468 163.104 167.936 161.712 164.267C160.337 160.589 159.382 156.769 158.788 152.87C158.662 151.897 158.517 150.921 158.45 149.938L158.298 146.979C158.33 145.001 158.318 143.024 158.585 141.05C159.027 137.112 159.854 133.187 161.318 129.446C162.725 125.698 164.512 122.078 166.654 118.657C168.831 115.258 171.257 112.01 173.943 108.949L173.948 108.942Z" fill="#231F20"/>
<path d="M189.681 92.0708C187.244 94.8332 184.786 97.5821 182.37 100.358C179.953 103.134 177.537 105.91 175.165 108.723L175.249 108.464L177.848 129.398C178.725 136.373 179.486 143.361 180.2 150.358C180.882 157.355 181.553 164.354 182.09 171.365L183.781 192.4L183.586 192.059C186.581 194.409 189.608 196.732 192.623 199.056C195.666 201.359 198.676 203.69 201.738 205.966L210.905 212.821C213.952 215.117 217.05 217.348 220.129 219.615L219.126 220.126L217.071 202.532L215.096 184.931L211.362 149.701C210.776 143.825 210.166 137.953 209.635 132.073C209.08 126.198 208.523 120.311 208.023 114.431C207.516 108.547 207.08 102.651 206.659 96.7631L205.343 79.0865L205.885 79.3277C202.802 80.9683 199.906 82.9062 197.179 85.0309C194.461 87.1711 191.961 89.5405 189.676 92.0773L189.681 92.0708ZM189.483 91.9233C191.743 89.351 194.251 86.9574 196.94 84.7596C199.614 82.5418 202.509 80.5643 205.526 78.7533L206.001 78.4713L206.062 79.001L208.262 96.5805C209.011 102.434 209.743 108.296 210.407 114.164C211.084 120.03 211.694 125.902 212.304 131.773C212.938 137.641 213.5 143.521 214.086 149.397L217.366 184.677L218.899 202.328L220.354 219.986L220.471 221.365L219.351 220.496C216.341 218.165 213.356 215.801 210.318 213.492L201.229 206.549C198.214 204.225 195.14 201.951 192.087 199.661C189.02 197.392 185.963 195.109 182.868 192.861L182.695 192.749L182.673 192.519L180.183 171.578C179.331 164.599 178.606 157.604 177.899 150.611C177.221 143.608 176.594 136.607 176.081 129.592L174.504 108.543L174.496 108.391L174.595 108.288C177.118 105.59 179.605 102.87 182.091 100.139C184.579 97.4192 187.023 94.6613 189.488 91.9168L189.483 91.9233Z" fill="#231F20"/>
<path d="M383.884 268.597L388.983 262.834C390.691 260.915 392.357 258.97 394.04 257.044L393.988 257.206C393.095 249.466 392.112 241.737 391.165 234C390.206 226.266 389.254 218.537 388.464 210.784C387.639 203.038 386.916 195.28 386.265 187.509L384.369 164.204L384.575 164.572C378.59 159.864 372.525 155.232 366.452 150.625C360.327 146.072 354.257 141.447 348.092 136.946L348.998 136.481C350.379 148.761 351.88 161.019 353.207 173.303L357.143 210.155C358.402 222.444 359.595 234.74 360.696 247.045C361.81 259.348 362.616 271.689 363.579 284.012L362.936 283.687C366.944 281.936 370.769 279.773 374.287 277.226C377.828 274.704 381.019 271.77 383.884 268.597ZM384.083 268.745C381.251 271.969 378.022 274.898 374.557 277.538C371.065 280.16 367.311 282.486 363.331 284.431L362.756 284.708L362.681 284.101C361.197 271.833 359.557 259.593 358.224 247.305C356.886 235.024 355.626 222.734 354.446 210.437L351.043 173.526C349.917 161.225 348.978 148.897 347.912 136.585L347.804 135.33L348.818 136.12C354.814 140.815 360.919 145.394 366.966 150.035C373.066 154.621 379.176 159.193 385.359 163.685L385.536 163.819L385.565 164.053L388.302 187.263C389.194 195.003 390.007 202.751 390.73 210.509C391.489 218.261 392.073 226.038 392.657 233.814C393.253 241.589 393.818 249.363 394.462 257.13L394.472 257.224L394.417 257.297C392.686 259.191 390.941 261.076 389.233 262.995L384.098 268.725L384.083 268.745Z" fill="#231F20"/>
<path d="M205.972 79.3919C207.451 91.2796 208.829 103.082 210.152 114.849L211.159 123.678L212.106 132.477L213.979 150.061C215.263 161.783 216.374 173.473 217.373 185.189L220.378 220.39L220.216 220.099C223.233 222.425 226.262 224.749 229.306 227.053C232.34 229.37 235.377 231.669 238.442 233.947C244.56 238.515 250.636 243.125 256.802 247.646L255.883 248.113C254.254 233.343 252.509 218.588 250.934 203.814L246.258 159.485L244.036 137.312L241.941 115.122C240.626 100.32 239.226 85.5216 238.027 70.7054L238.77 71.3215C233.103 71.2901 227.41 71.9973 221.865 73.339C219.094 74.0154 216.365 74.8665 213.703 75.888L211.718 76.6891L209.763 77.5477L207.835 78.464L205.984 79.3898L205.972 79.3919ZM205.743 79.2838L207.648 78.1666L209.541 77.1595L211.476 76.2191L213.447 75.3407C216.097 74.2132 218.818 73.2496 221.613 72.4609C227.183 70.8702 232.99 70.0405 238.795 69.9057L239.46 69.8924L239.534 70.5283C241.278 85.2837 242.817 100.064 244.446 114.833L246.766 137.001L248.96 159.185L253.115 203.571C254.484 218.369 255.683 233.185 256.997 247.987L257.107 249.254L256.078 248.455C250.063 243.766 243.966 239.182 237.903 234.541C234.874 232.218 231.837 229.918 228.778 227.634C225.729 225.337 222.669 223.052 219.6 220.781L219.447 220.683L219.438 220.491L215.426 185.141C214.091 173.336 212.857 161.508 211.795 149.713L210.157 132.025L209.345 123.186L208.598 114.369C207.575 102.618 206.613 90.8964 205.753 79.2707L205.743 79.2838Z" fill="#231F20"/>
<path d="M294.272 95.3606L284.624 88.1065L279.782 84.4969C278.176 83.296 276.498 82.1761 274.772 81.1329L275.177 80.9029L280.818 129.823C282.612 146.139 284.23 162.479 285.653 178.831L287.78 203.369L288.838 215.639L289.991 227.893L291.152 240.15L292.415 252.396L293.678 264.642L295.02 276.879L294.807 276.506C299.745 280.099 305.271 283.02 311.158 285.075C317.043 287.148 323.275 288.346 329.577 288.706L328.48 289.745C326.829 274.64 325.258 259.527 323.691 244.407C322.101 229.292 320.56 214.179 319.091 199.053L316.934 176.36L314.927 153.646C313.695 138.497 312.48 123.338 311.169 108.197L311.258 108.352L302.778 101.84L294.265 95.3562L294.272 95.3606ZM294.437 95.1725L302.995 101.597L311.59 107.987L311.673 108.041L311.679 108.142C313.372 123.245 315.169 138.337 316.946 153.425L319.455 176.08L321.818 198.749C323.366 213.866 324.823 228.994 326.248 244.121C327.693 259.251 329.126 274.382 330.492 289.52L330.593 290.636L329.399 290.553C322.898 290.114 316.517 288.703 310.542 286.464C304.562 284.231 298.993 281.136 294.04 277.386L293.841 277.238L293.82 277.009L292.726 264.745L291.554 252.489L290.381 240.233L289.099 227.985L287.812 215.744L286.434 203.513L283.683 179.044C281.858 162.727 280.222 146.395 278.768 130.043L274.66 80.953L274.615 80.4428L275.06 80.7296C276.785 81.8015 278.457 82.9567 280.049 84.1884L284.834 87.8592L294.44 95.1548L294.437 95.1725Z" fill="#231F20"/>
<path d="M315.059 111.203L311.656 108.648L311.889 108.533C313.4 123.65 315.267 138.721 317.044 153.803C318.875 168.88 320.477 183.987 321.89 199.109C323.279 214.235 324.493 229.386 325.791 244.522C326.468 252.088 327.169 259.651 327.924 267.209L330.293 289.871L329.839 289.461C341.066 290.072 352.522 287.848 362.58 283.028L362.067 283.874C360.704 271.59 359.365 259.301 358.086 247.001C356.813 234.706 355.474 222.417 354.257 210.118C353.009 197.819 351.851 185.51 350.713 173.203C349.567 160.892 348.635 148.561 347.659 136.231L347.881 136.619L331.537 123.837C326.074 119.592 320.57 115.4 315.054 111.209L315.059 111.203ZM315.224 111.015C320.765 115.172 326.306 119.329 331.887 123.434L348.69 135.699L348.882 135.842L348.912 136.087C350.385 148.364 351.899 160.628 353.202 172.923C354.51 185.212 355.801 197.509 356.995 209.812C358.224 222.109 359.333 234.427 360.515 246.732C361.684 259.039 362.794 271.356 363.877 283.667L363.931 284.261L363.364 284.514C352.879 289.226 341.133 291.233 329.753 290.386L329.333 290.351L329.292 289.972L327.147 267.287C326.399 259.733 325.6 252.177 324.766 244.627C323.062 229.533 321.266 214.449 319.647 199.351C318.053 184.249 316.645 169.121 315.473 153.968C314.242 138.826 313.107 123.667 311.603 108.555L311.573 108.241L311.836 108.44L315.224 111.015Z" fill="#231F20"/>
<path d="M273.176 79.9321C268.127 77.0136 262.638 74.7241 256.861 73.2705C253.969 72.5557 251.037 72.0017 248.058 71.6723C245.078 71.3429 242.08 71.2274 239.078 71.295L239.502 70.8622L242.078 93.0092L243.365 104.083L244.593 115.167C246.168 129.948 247.605 144.749 248.884 159.565L250.806 181.791C251.437 189.204 252.073 196.61 252.8 204.006C254.151 218.809 255.702 233.595 257.285 248.381L257.098 248.055L294.743 275.903L293.058 276.76L287.902 227.792C287.042 219.633 286.211 211.464 285.4 203.297L283.012 178.789C282.2 170.622 281.503 162.441 280.782 154.264C280.03 146.087 279.395 137.906 278.722 129.721L276.698 105.171C276.001 96.9903 275.237 88.8152 274.444 80.6508L274.503 80.7374L273.176 79.9321ZM273.32 79.7305L274.652 80.5292L274.701 80.5606L274.71 80.6159C275.541 88.7851 276.401 96.9435 277.328 105.096L280.182 129.552C281.139 137.705 282.126 145.847 283 154.014C283.902 162.171 284.824 170.33 285.641 178.49L288.131 202.987C288.955 211.151 289.743 219.322 290.507 227.497L295.1 276.535L295.317 278.843L293.415 277.392C287.209 272.66 281.063 267.876 274.901 263.113L256.405 248.825L256.234 248.695L256.218 248.499C254.86 233.691 253.466 218.889 251.872 204.105C251.121 196.713 250.289 189.318 249.448 181.937L246.956 159.775C245.29 145.004 243.781 130.216 242.411 115.41L241.432 104.3L240.513 93.1792L238.677 70.949L238.638 70.5117L239.095 70.5117C245.173 70.5405 251.206 71.3744 256.978 72.9141C259.86 73.7104 262.683 74.665 265.418 75.7887C268.15 76.93 270.788 78.2469 273.313 79.726L273.32 79.7305Z" fill="#231F20"/>
</g>
<g style="mix-blend-mode:overlay">
<path d="M188.571 92.3367C191.312 89.301 194.306 86.4776 197.504 83.835C200.739 81.2259 204.247 78.8999 207.976 76.8941C211.68 74.8416 215.716 73.3179 219.826 72.1461C221.874 71.5214 223.991 71.1469 226.093 70.7238L229.273 70.278C230.338 70.1494 231.403 70.0892 232.471 70.0113C236.74 69.7861 241.007 69.903 245.197 70.4321C249.389 70.9723 253.491 71.8472 257.496 73.0126C265.469 75.3894 273.023 79.0075 279.586 83.8236L281.089 84.9291L279.111 85.1769C271.532 86.127 263.94 86.9711 256.355 87.7799L244.972 88.9996C241.173 89.3708 237.374 89.7707 233.575 90.1022C225.97 90.8004 218.368 91.4412 210.742 91.841C203.122 92.2741 195.492 92.6806 187.893 93.4119L187.558 93.4418L187.775 93.1988L188.569 92.3256L188.571 92.3367ZM188.77 92.4843L187.997 93.371L187.88 93.1579C195.475 92.4044 203.044 91.3305 210.615 90.2964C218.185 89.2225 225.772 88.385 233.368 87.6028C237.16 87.1984 240.965 86.8604 244.763 86.4892L256.172 85.4927C263.776 84.8233 271.385 84.1869 278.994 83.6588L278.527 85.0166C275.461 82.4627 272.121 80.2528 268.573 78.3014C264.997 76.4005 261.196 74.8462 257.241 73.7122C249.318 71.4176 240.826 70.9942 232.608 71.8961C228.491 72.3172 224.413 73.1074 220.428 74.1834C216.435 75.2438 212.522 76.5921 208.749 78.2751C204.984 79.9737 201.322 81.9448 197.948 84.3273C194.582 86.7143 191.528 89.4797 188.782 92.4822L188.77 92.4843Z" fill="#231F20"/>
<path d="M173.519 109.726C175.96 106.96 178.421 104.207 180.841 101.427C183.261 98.6467 185.682 95.8667 188.058 93.0487L188.143 92.9369L188.313 92.9187L211.062 90.2257C218.648 89.3199 226.234 88.5224 233.832 87.7624C241.43 87.0312 249.031 86.3221 256.635 85.7322L279.451 83.8875L279.688 83.8634L279.852 83.9886C282.851 86.3428 285.883 88.6685 288.903 90.9963C291.95 93.3023 294.965 95.6368 298.032 97.9165L307.213 104.782C310.265 107.081 313.367 109.315 316.451 111.586L317.593 112.43L316.102 112.598L296.99 114.738L277.871 116.804L239.61 120.736C233.23 121.357 226.853 122.001 220.47 122.572C214.09 123.165 207.711 123.758 201.322 124.296C194.94 124.838 188.548 125.325 182.152 125.79L162.975 127.24L162.402 127.283L162.608 126.797C163.942 123.711 165.495 120.706 167.334 117.856C169.16 114.997 171.216 112.258 173.515 109.704L173.519 109.726ZM173.717 109.874C171.464 112.437 169.424 115.168 167.67 118.043C165.941 120.924 164.436 123.921 163.291 127.031L162.924 126.588L182.032 124.319C188.397 123.54 194.769 122.795 201.136 122.095C207.508 121.39 213.885 120.746 220.261 120.102C226.634 119.436 233.019 118.836 239.399 118.215L277.69 114.705L296.845 113.054L316.006 111.476L315.657 112.488C312.642 110.154 309.652 107.786 306.61 105.474L297.507 98.5206C294.487 96.1928 291.408 93.9152 288.351 91.6223C285.279 89.3492 282.217 87.0628 279.117 84.8115L279.52 84.9236L256.759 87.5106C249.177 88.3987 241.585 89.1631 233.984 89.912C226.385 90.6322 218.785 91.3126 211.177 91.8804L188.349 93.6189L188.604 93.489C186.078 96.1907 183.586 98.9148 181.097 101.65C178.605 104.374 176.157 107.136 173.688 109.885L173.717 109.874Z" fill="#231F20"/>
<path d="M400.005 250.991L394.899 256.763C393.188 258.684 391.519 260.633 389.834 262.562L389.779 262.634L389.669 262.642C381.26 263.577 372.857 264.585 364.45 265.571C356.046 266.568 347.639 267.554 339.225 268.388C330.809 269.25 322.385 270.029 313.961 270.739L288.678 272.802L288.422 272.824L288.249 272.683C282.255 267.968 276.18 263.329 270.098 258.715C263.963 254.155 257.884 249.523 251.709 245.016L250.662 244.253L252.021 244.107C265.353 242.661 278.678 241.103 292.021 239.713L332.041 235.577C345.381 234.245 358.733 232.978 372.091 231.784C385.449 230.591 398.831 229.678 412.195 228.626L412.859 228.573L412.669 229.147C411.373 233.133 409.628 236.986 407.512 240.659C405.368 244.314 402.88 247.807 400 250.997L400.005 250.991ZM399.806 250.843C402.626 247.623 405.131 244.161 407.127 240.47C409.155 236.789 410.704 232.908 411.791 228.935L412.265 229.457C398.936 230.993 385.627 232.679 372.287 234.08C358.953 235.486 345.602 236.821 332.255 238.081L292.193 241.728C278.837 242.933 265.471 243.974 252.105 245.123L252.416 244.215C258.421 248.917 264.536 253.503 270.593 258.15C276.702 262.743 282.822 267.322 289.014 271.821L288.585 271.702L313.805 268.852C322.209 267.923 330.625 267.061 339.051 266.293C347.472 265.493 355.905 264.838 364.34 264.195C372.774 263.54 381.206 262.914 389.637 262.209L389.471 262.289C391.198 260.387 392.946 258.499 394.656 256.577L399.8 250.839L399.806 250.843Z" fill="#231F20"/>
<path d="M163.225 126.866C175.79 125.372 188.474 123.955 201.202 122.575L210.748 121.533L220.332 120.536L239.518 118.561C252.301 117.218 265.157 116.01 278.002 114.912L316.476 111.629L316.677 111.611L316.821 111.723C319.842 114.052 322.876 116.379 325.925 118.687C328.964 121.008 332.006 123.311 335.075 125.592C341.204 130.168 347.29 134.785 353.465 139.312L354.515 140.087L353.144 140.235C337.096 141.942 321.069 143.76 305.019 145.416L256.869 150.345L232.784 152.7L208.692 154.942C192.626 156.362 176.566 157.855 160.488 159.168L159.799 159.226L159.681 158.619C158.687 153.343 158.435 147.926 159.049 142.574C159.349 139.9 159.838 137.238 160.527 134.627L161.077 132.673L161.704 130.739L162.41 128.827L163.222 126.884L163.225 126.866ZM163.381 127.055L162.752 128.909L162.154 130.832L161.626 132.771L161.162 134.722C160.59 137.329 160.214 139.966 160.032 142.608C159.684 147.885 160.043 153.175 161.184 158.3L160.377 157.751C176.412 155.938 192.46 154.31 208.507 152.603L232.577 150.16L256.66 147.833L304.845 143.389C320.908 141.918 336.989 140.616 353.055 139.196L352.739 140.112C346.713 135.416 340.607 130.825 334.534 126.176C331.5 123.849 328.458 121.546 325.394 119.258C322.34 116.957 319.276 114.669 316.202 112.395L316.546 112.489L278.417 116.652C265.727 118.037 253.051 119.322 240.293 120.456L221.167 122.203L211.597 123.073L201.994 123.891C189.187 124.993 176.336 126.058 163.368 127.046L163.381 127.055Z" fill="#231F20"/>
<path d="M197.414 203.927L187.751 196.661L182.9 193.046C181.268 191.847 179.713 190.561 178.228 189.211L177.839 188.862L178.393 188.806L231.549 182.921C249.271 181.036 267.01 179.32 284.767 177.783L311.402 175.487L324.717 174.342L338.029 173.106L351.34 171.871L364.635 170.535L377.934 169.194L391.226 167.779L391.476 167.752L391.675 167.9C396.648 171.654 401.033 176.081 404.587 181.063C408.151 186.032 410.897 191.526 412.638 197.326L412.955 198.395L411.745 198.52C395.332 200.245 378.921 201.912 362.502 203.564C346.086 205.237 329.669 206.871 313.246 208.432L288.61 210.729L263.962 212.89C247.52 214.232 231.075 215.563 214.646 216.982L214.543 216.994L214.459 216.941L205.97 210.411L197.443 203.917L197.414 203.927ZM197.579 203.739L206.151 210.174L214.76 216.574L214.579 216.526C230.989 214.751 247.384 212.886 263.788 211.038L288.398 208.41L313.018 205.917C329.435 204.283 345.858 202.722 362.289 201.205C378.715 199.666 395.137 198.134 411.571 196.668L410.677 197.862C409.058 192.229 406.562 186.817 403.205 181.903C399.866 176.98 395.672 172.549 390.875 168.781L391.323 168.903L378.007 170.076L364.698 171.323L351.395 172.574L338.098 173.927L324.8 175.28L311.507 176.724L284.924 179.604C267.201 181.517 249.464 183.245 231.712 184.815L178.438 189.277L178.607 188.865C180.063 190.226 181.577 191.525 183.175 192.741L187.968 196.418L197.589 203.726L197.579 203.739Z" fill="#231F20"/>
<path d="M218.36 219.583L214.951 217.024L214.688 216.825L215.035 216.793C231.448 215.193 247.828 213.257 264.223 211.41C280.608 209.507 297.013 207.823 313.43 206.314C329.851 204.827 346.286 203.497 362.714 202.082C370.924 201.359 379.134 200.595 387.338 199.799L411.951 197.301L412.365 197.263L412.485 197.635C415.606 207.769 415.77 218.789 412.792 229.199L412.63 229.763L411.986 229.83C398.641 231.254 385.293 232.667 371.946 234.012C358.592 235.353 345.25 236.76 331.888 238.056C318.537 239.378 305.171 240.613 291.81 241.84C278.449 243.068 265.072 244.099 251.695 245.17L251.427 245.194L251.24 245.044L234.871 232.241C229.399 227.99 223.886 223.791 218.362 219.594L218.36 219.583ZM218.525 219.394C224.074 223.558 229.624 227.722 235.214 231.833L252.044 244.117L251.589 243.991C264.929 242.465 278.261 240.894 291.61 239.521C304.958 238.147 318.308 236.785 331.673 235.511C345.028 234.21 358.395 233.015 371.758 231.759C385.115 230.509 398.482 229.315 411.848 228.149L411.042 228.78C414.216 218.74 414.355 207.936 411.504 197.897L412.027 198.234L387.402 200.517C379.198 201.314 370.994 202.15 362.791 203.027C346.392 204.812 330.006 206.675 313.598 208.377C297.193 210.061 280.776 211.57 264.332 212.856C247.899 214.197 231.456 215.454 215.048 217.047L215.131 216.816L218.525 219.394Z" fill="#231F20"/>
<path d="M176.883 187.871C174.809 185.876 172.895 183.74 171.137 181.496C169.4 179.238 167.831 176.87 166.419 174.418C163.648 169.488 161.581 164.195 160.364 158.703L160.266 158.287L160.733 158.234L184.801 155.552L196.831 154.209L208.871 152.921C224.931 151.263 241 149.73 257.076 148.349L281.193 146.269C289.23 145.587 297.277 144.892 305.305 144.127C321.382 142.677 337.439 141.037 353.497 139.369L353.71 139.349L353.881 139.479L372.74 153.425C379.027 158.073 385.327 162.691 391.59 167.384L393.51 168.817L391.005 169.071L337.816 174.512C328.952 175.417 320.084 176.301 311.217 177.156L284.606 179.693C275.739 180.548 266.862 181.308 257.983 182.096C249.114 182.9 240.227 183.604 231.344 184.331L204.706 186.536C195.829 187.296 186.954 188.106 178.086 188.95L178.018 188.956L177.97 188.925L176.864 187.868L176.883 187.871ZM177.071 187.707L178.187 188.75L178.081 188.711C186.949 187.828 195.813 186.922 204.673 185.955L231.252 182.983C240.112 181.987 248.962 180.964 257.829 180.041C266.693 179.095 275.547 178.134 284.424 177.266L311.03 174.627C319.9 173.755 328.763 172.918 337.643 172.101L390.875 167.189L390.286 168.883L353.226 140.266L353.615 140.369C337.54 141.83 321.468 143.312 305.413 144.992C297.383 145.786 289.355 146.66 281.334 147.539L257.26 150.148C241.209 151.889 225.152 153.489 209.071 154.956L197.01 156.014L184.944 157.01L160.814 159.013L161.195 158.541C161.708 161.27 162.425 163.963 163.354 166.596C164.288 169.222 165.457 171.774 166.779 174.247C169.448 179.19 172.971 183.709 177.071 187.707Z" fill="#231F20"/>
</g>
<g style="mix-blend-mode:overlay">
<path d="M382.58 173.428L296.775 270.076C294.526 272.606 290.54 273.024 287.865 270.996C285.198 268.972 284.851 265.28 287.106 262.743L372.911 166.095C375.16 163.564 379.146 163.147 381.821 165.175C384.488 167.199 384.835 170.891 382.58 173.428Z" fill="white"/>
</g>
<g style="mix-blend-mode:overlay">
<path d="M360.766 156.943L274.961 253.59C272.712 256.121 268.726 256.539 266.051 254.51C263.384 252.486 263.037 248.794 265.292 246.257L351.097 149.61C353.346 147.079 357.332 146.661 360.007 148.69C362.674 150.713 363.021 154.406 360.766 156.943Z" fill="white"/>
</g>
<g style="mix-blend-mode:overlay">
<path d="M339.708 141.024L253.903 237.672C251.654 240.202 247.668 240.62 244.993 238.592C242.326 236.568 241.979 232.876 244.234 230.339L330.039 133.691C332.288 131.16 336.274 130.743 338.949 132.771C341.616 134.795 341.963 138.487 339.708 141.024Z" fill="white"/>
</g>
<g style="mix-blend-mode:overlay">
<path d="M319.394 125.674L233.59 222.321C231.34 224.852 227.354 225.27 224.679 223.241C222.012 221.218 221.665 217.525 223.92 214.988L309.725 118.341C311.974 115.81 315.961 115.392 318.635 117.421C321.302 119.445 321.649 123.137 319.394 125.674Z" fill="white"/>
</g>
<g style="mix-blend-mode:overlay">
<path d="M298.336 109.755L212.532 206.403C210.282 208.933 206.296 209.351 203.622 207.323C200.954 205.299 200.608 201.607 202.862 199.07L288.667 102.422C290.916 99.8914 294.903 99.4736 297.577 101.502C300.244 103.526 300.591 107.218 298.336 109.755Z" fill="white"/>
</g>
<g style="mix-blend-mode:overlay">
<path d="M276.522 93.2694L190.718 189.917C188.468 192.448 184.482 192.866 181.807 190.837C179.14 188.813 178.794 185.121 181.048 182.584L266.853 85.9364C269.102 83.406 273.089 82.9882 275.763 85.0165C278.43 87.0404 278.777 90.7325 276.522 93.2694Z" fill="white"/>
</g>
<g style="mix-blend-mode:overlay">
<path d="M252.324 82.3163L173.792 170.769C171.641 173.198 167.814 173.594 165.247 171.654L164.845 171.346C162.284 169.41 161.957 165.867 164.114 163.431L242.646 74.9779C244.797 72.549 248.624 72.1535 251.191 74.0935L251.593 74.4016C254.154 76.3372 254.481 79.8808 252.324 82.3163Z" fill="white"/>
</g>
<g style="mix-blend-mode:overlay">
<path d="M219.163 73.2417L158.176 141.723C156.262 143.871 156.552 147.005 158.822 148.722L160.277 149.822C162.548 151.539 165.94 151.19 167.853 149.041L228.841 80.5597C230.754 78.4112 230.465 75.2776 228.194 73.5606L226.739 72.4604C224.469 70.7434 221.077 71.0931 219.163 73.2417Z" fill="white"/>
</g>
<path d="M245.784 84.4445L169.522 170.401C168.865 171.142 167.704 171.265 166.924 170.674C166.144 170.082 166.041 169.007 166.698 168.266L242.96 82.3094C243.617 81.5691 244.778 81.4456 245.558 82.037C246.338 82.6283 246.441 83.7042 245.784 84.4445Z" fill="white"/>
<path d="M217.206 88.6858L165.917 146.483C165.259 147.224 164.098 147.347 163.318 146.756C162.538 146.164 162.435 145.088 163.092 144.347L214.381 86.5502C215.038 85.8097 216.2 85.6862 216.98 86.2777C217.76 86.8692 217.863 87.9453 217.206 88.6858Z" fill="white"/>
<path d="M249.697 118.143L187.31 188.454C186.653 189.194 185.492 189.318 184.711 188.726C183.931 188.135 183.829 187.059 184.486 186.319L246.872 116.008C247.529 115.268 248.691 115.144 249.471 115.736C250.251 116.327 250.354 117.403 249.697 118.143Z" fill="white"/>
<path d="M261.008 143.524L207.556 203.755C206.899 204.496 205.737 204.619 204.957 204.028C204.177 203.436 204.074 202.36 204.731 201.62L258.184 141.388C258.841 140.648 260.002 140.524 260.783 141.116C261.563 141.707 261.666 142.783 261.008 143.524Z" fill="white"/>
<path d="M282.815 160.005L229.363 220.236C228.706 220.977 227.544 221.1 226.764 220.509C225.984 219.917 225.881 218.841 226.538 218.101L279.991 157.869C280.648 157.129 281.809 157.005 282.59 157.597C283.37 158.188 283.473 159.264 282.815 160.005Z" fill="white"/>
<path d="M296.037 183.343L249.684 235.579C249.027 236.32 247.866 236.443 247.085 235.852C246.305 235.26 246.202 234.184 246.859 233.443L293.212 181.207C293.869 180.467 295.031 180.343 295.811 180.935C296.591 181.526 296.694 182.602 296.037 183.343Z" fill="white"/>
<path d="M363.134 187.048L291.801 267.44C291.144 268.18 289.983 268.303 289.203 267.712C288.423 267.121 288.321 266.045 288.978 265.304L360.31 184.913C360.967 184.172 362.128 184.049 362.908 184.64C363.688 185.232 363.791 186.308 363.134 187.048Z" fill="white"/>
<path d="M155.797 103.211C148.255 111.148 142.749 120.798 139.927 131.166C137.073 141.535 136.931 152.572 139.333 163.178C141.823 173.764 146.823 183.937 154.096 192.554C157.718 196.868 161.867 200.805 166.415 204.275C168.686 206.022 171.031 207.631 173.339 209.314C175.646 210.986 177.975 212.643 180.306 214.283C175.915 210.689 171.38 207.228 167.02 203.635C162.661 200.052 158.731 196.06 155.278 191.756C151.837 187.451 148.9 182.813 146.56 177.953C144.19 173.103 142.387 168.029 141.198 162.86C139.989 157.689 139.44 152.404 139.464 147.144C139.481 141.88 140.112 136.629 141.377 131.513C143.916 121.284 148.845 111.586 155.816 103.214L155.797 103.211Z" fill="white"/>
<g style="mix-blend-mode:overlay" opacity="0.4">
<path d="M166.223 90.9022L156.924 101.352C128.071 133.773 130.672 179.871 162.714 204.108L285.833 297.217C317.875 321.454 367.423 314.794 396.269 282.368L405.568 271.918C334.343 236.608 256.614 211.863 166.223 90.9022Z" fill="white"/>
</g>
<g style="mix-blend-mode:overlay" opacity="0.5">
<path d="M166.096 90.9589L175.395 80.5089C204.248 48.0878 253.789 41.4233 285.832 65.66L408.95 158.769C440.992 183.006 443.593 229.104 414.74 261.525L405.441 271.975C353.962 214.482 312.438 149.044 166.096 90.9589Z" fill="#231F20"/>
</g>
<path d="M133.358 -48.6149C118.327 -33.2245 101.905 -15.5145 100.758 1.09813C100.474 5.2634 96.8691 8.64147 92.3722 8.78311L61.1827 2.48321C59.5804 2.68803 58.1443 3.35089 57.0147 4.32849C56.2022 5.53975 55.7711 6.9678 55.8721 8.45626L68.6683 35.4357C69.3976 39.5326 66.5132 43.4535 62.1353 44.52C44.6891 48.8085 29.0656 67.1214 15.6394 83.7219C13.8947 85.8821 16.6582 88.5612 19.0695 87.0551C39.0307 74.5617 68.118 73.7931 84.0516 74.427C86.8567 74.5397 89.5869 73.4538 91.3904 71.4192L113.234 46.862L135.078 22.3048C136.888 20.2747 137.509 17.585 136.837 15.0748C133.048 0.786429 128.177 -25.6736 137.559 -46.1687C138.697 -48.6424 135.295 -50.6217 133.344 -48.6238L133.358 -48.6149Z" fill="#009444"/>
<path d="M162.801 -26.3487C147.773 -10.9602 131.354 6.74778 130.206 23.3585C129.923 27.5233 126.319 30.9009 121.822 31.0426L90.638 24.7435C89.0361 24.9483 87.6001 25.6111 86.4708 26.5886C85.6583 27.7997 85.2274 29.2276 85.3284 30.7159L98.1225 57.6921C98.8517 61.7885 95.9678 65.7089 91.5907 66.7753C74.1473 71.0634 58.5264 89.3741 45.1024 105.973C43.3581 108.133 46.1211 110.811 48.532 109.305C68.4899 96.8135 96.0946 94.9261 112.032 95.5644C114.837 95.677 117.567 94.5913 119.37 92.557L141.21 68.0026L163.05 43.4482C164.86 41.4184 165.481 38.729 164.809 36.2191C161.02 21.9324 157.621 -3.41011 167.009 -23.8984C168.146 -26.3718 164.745 -28.3509 162.795 -26.3532L162.801 -26.3487Z" fill="#39B54A"/>
<path d="M190.796 -2.73475C175.784 12.6427 159.382 30.3377 158.236 46.9361C157.953 51.0978 154.353 54.4731 149.861 54.6147L118.71 48.3209C117.109 48.5255 115.675 49.1879 114.547 50.1646C113.735 51.3749 113.305 52.8017 113.406 54.2889L126.187 81.2448C126.916 85.3382 124.035 89.2557 119.662 90.3214C102.237 94.6066 86.6333 112.904 73.2239 129.491C71.4814 131.649 74.2416 134.326 76.6499 132.821C96.5865 120.338 115.325 111.757 131.241 112.401C134.043 112.513 136.769 111.428 138.571 109.396L160.387 84.8591L182.204 60.3225C184.012 58.2942 184.632 55.6068 183.96 53.0988C180.175 38.8228 185.622 20.1869 194.999 -0.286343C196.135 -2.75793 192.738 -4.73543 190.789 -2.73921L190.796 -2.73475Z" fill="#009444"/>
<path d="M122.355 96.3311C119.066 96.6082 115.846 97.417 112.757 98.5539C111.195 99.097 109.71 99.7966 108.224 100.485C106.758 101.227 105.335 102.035 103.937 102.878L101.905 104.239C101.247 104.721 100.578 105.177 99.9413 105.672C98.6916 106.699 97.4261 107.706 96.2928 108.837C93.9808 111.051 91.9036 113.484 90.2544 116.154L90.3966 116.265C94.7254 111.765 99.5745 107.678 104.985 104.343C110.341 100.944 116.23 98.2787 122.415 96.4963L122.36 96.3246L122.355 96.3311Z" fill="white"/>
<path d="M166.194 63.3629C163.522 65.4015 161.089 67.6239 158.749 69.9259C157.551 71.0537 156.451 72.2546 155.307 73.4178L152.007 77.0204C150.954 78.2524 149.877 79.4775 148.838 80.7183C147.829 81.9878 146.777 83.2197 145.811 84.5268C143.841 87.0969 141.95 89.7377 140.304 92.5558L140.452 92.6709L153.475 78.1342L166.344 63.4889L166.196 63.3738L166.194 63.3629Z" fill="white"/>
<path d="M84.4122 88.3951C81.0805 88.5315 77.7723 89.0834 74.5142 89.9213C73.6957 90.1258 72.8773 90.3303 72.0823 90.5988C71.2715 90.8473 70.4677 91.1003 69.6697 91.3863C68.8697 91.6612 68.0824 91.9737 67.292 92.3037C66.5067 92.6272 65.7144 92.9462 64.9418 93.3071C64.1761 93.6725 63.4054 94.0445 62.6593 94.4518C61.9063 94.8547 61.1425 95.2311 60.423 95.6849C59.6965 96.1342 58.9612 96.568 58.2664 97.0572C57.5557 97.5264 56.852 98.0001 56.1906 98.5402C53.488 100.585 51.0292 102.934 49.0899 105.618L49.2223 105.743C54.0423 101.294 59.693 97.6938 65.7045 94.9604C71.6955 92.1456 78.0396 90.1538 84.44 88.5887L84.4022 88.4082L84.4122 88.3951Z" fill="white"/>
<path d="M108.423 74.4623C107.898 76.5143 107.612 78.5645 106.966 80.2069C106.796 80.6048 106.594 80.9628 106.413 81.2266C106.226 81.4179 106.048 81.5961 105.706 81.7857C105.082 82.1832 104.19 82.5648 103.26 82.8624C102.34 83.2261 101.337 83.4967 100.335 83.8068C99.3314 84.1454 98.3026 84.4092 97.2791 84.7739C95.2225 85.4485 93.1506 86.2108 91.1326 87.281L91.1584 87.4635L97.5087 86.1905C99.6226 85.7383 101.743 85.2906 103.825 84.5834C104.853 84.2121 105.884 83.7837 106.787 83.1168C107.248 82.7988 107.627 82.3702 107.921 81.9055C108.188 81.434 108.358 80.9285 108.484 80.4248C108.947 78.4006 108.798 76.392 108.624 74.4161L108.427 74.4447L108.423 74.4623Z" fill="white"/>
<path d="M125.815 40.3056C122.13 39.8915 118.404 39.8701 114.613 40.2849C112.716 40.467 110.814 40.8314 108.855 41.3928C107.874 41.6877 106.893 42.0792 105.876 42.6922C105.372 42.9724 104.856 43.3907 104.37 43.8775C104.143 44.1606 103.882 44.4609 103.717 44.7446C103.575 45.0242 103.434 45.3038 103.304 45.5813C102.929 46.6664 102.77 47.6858 102.727 48.6339C102.674 49.5951 102.685 50.4999 102.769 51.4032C102.958 53.1838 103.223 54.9058 103.634 56.5855C104.412 59.9466 105.459 63.1875 106.773 66.3764L106.967 66.3257C106.355 62.9752 105.685 59.635 105.169 56.2678C104.917 54.5832 104.701 52.8924 104.623 51.1833C104.554 49.4896 104.565 47.7309 105.154 46.11C105.433 45.2852 106.065 44.6484 106.855 44.1824C107.623 43.692 108.49 43.3432 109.371 43.0428C111.128 42.4486 112.958 42.0571 114.78 41.7293C118.44 41.0935 122.129 40.7588 125.818 40.5032L125.823 40.321L125.815 40.3056Z" fill="white"/>
<path d="M144.76 40.2647C143.847 39.6075 142.89 39.2659 141.916 39.0413C140.951 38.7925 139.957 38.7025 138.955 38.7052C137.96 38.7125 136.957 38.8125 135.937 39.0692C134.926 39.3018 133.91 39.6492 132.882 40.3125L132.872 40.5025C134.846 40.5763 136.815 40.5483 138.794 40.5757C140.773 40.5345 142.743 40.5463 144.726 40.4588L144.743 40.2734L144.76 40.2647Z" fill="white"/>
<path d="M56.6703 66.6515C53.3484 66.7749 50.057 67.3181 46.8068 68.132C45.9933 68.33 45.1748 68.5345 44.3848 68.7964C43.5859 69.0429 42.7801 69.2849 41.982 69.5709C41.187 69.8393 40.3997 70.1518 39.6193 70.4688C38.8389 70.7857 38.0516 71.0982 37.2908 71.4571C36.5251 71.8225 35.7643 72.1814 35.0182 72.5887C34.2702 72.9851 33.5113 73.355 32.7918 73.8088C32.0703 74.2515 31.3469 74.6833 30.6501 75.1615C29.9444 75.6242 29.2456 76.0914 28.5892 76.6249C25.9015 78.6507 23.4575 80.98 21.5381 83.6378L21.6705 83.7622C26.4489 79.355 32.0699 75.7937 38.0497 73.0884C44.011 70.3127 50.3185 68.3555 56.6992 66.8166L56.6615 66.636L56.6703 66.6515Z" fill="white"/>
<path d="M80.5445 52.8717C80.0291 54.9108 79.753 56.948 79.1186 58.5883C78.9487 58.9862 78.7522 59.3377 78.5711 59.6015C78.3834 59.7928 78.2058 59.971 77.8642 60.1607C77.2515 60.5561 76.358 60.9267 75.4272 61.2244C74.5129 61.5815 73.5098 61.8521 72.5124 62.1557C71.5208 62.4923 70.4849 62.7515 69.4733 63.1143C67.4336 63.7802 65.3646 64.525 63.3634 65.5866L63.3892 65.7692L69.7148 64.5288C71.8189 64.0897 73.9348 63.6485 75.9996 62.9498C77.0231 62.585 78.042 62.1587 78.947 61.5028C79.4023 61.1913 79.7819 60.7627 80.0753 60.298C80.3429 59.8265 80.5075 59.3275 80.6293 58.8303C81.082 56.8191 80.9281 54.817 80.7372 52.8495L80.5395 52.8782L80.5445 52.8717Z" fill="white"/>
<path d="M97.7196 18.9434C94.045 18.5162 90.3286 18.4817 86.5523 18.877C84.6603 19.0526 82.7633 19.4104 80.8137 19.9587C79.8383 20.2471 78.8614 20.6322 77.8496 21.2386C77.3527 21.5233 76.8343 21.9307 76.3532 22.4109C76.1313 22.6875 75.8706 22.9878 75.7053 23.2715C75.5688 23.5446 75.4273 23.8242 75.3047 24.1061C74.9345 25.1848 74.7801 26.1977 74.7422 27.1393C74.6944 28.094 74.7123 29.0033 74.7948 29.8957C74.9887 31.6698 75.2583 33.3854 75.686 35.0566C76.4749 38.4048 77.5314 41.6328 78.8553 44.8087L79.0442 44.7646C78.423 41.4269 77.7303 38.1017 77.2114 34.7519C76.9545 33.0738 76.7333 31.3894 76.6383 29.6888C76.5641 28.0016 76.5656 26.2559 77.1422 24.637C77.4167 23.8186 78.0435 23.1884 78.8223 22.7244C79.5853 22.2405 80.4518 21.8917 81.316 21.5999C83.0683 21.0122 84.881 20.6293 86.7053 20.3125C90.3558 19.6897 94.0294 19.3747 97.6977 19.1342L97.7027 18.952L97.7196 18.9434Z" fill="white"/>
<path d="M116.601 18.9871C115.687 18.3299 114.73 17.9883 113.762 17.7571C112.796 17.5082 111.807 17.4117 110.817 17.4123C109.822 17.4196 108.824 17.513 107.809 17.7632C106.798 17.9957 105.787 18.3366 104.776 18.9913L104.771 19.1748C106.74 19.2551 108.704 19.2337 110.671 19.2632C112.645 19.2286 114.605 19.2536 116.584 19.1726L116.601 18.9871Z" fill="white"/>
<g style="mix-blend-mode:overlay" opacity="0.5">
<path d="M20.6882 81.8751C26.6143 74.516 49.3034 46.8128 75.0537 46.2726L64.028 13.2811C63.2554 10.9697 65.427 8.65617 68.0221 9.04307L91.1476 12.5029C97.8368 12.1671 104.069 9.01196 108.064 3.93596L119.202 -10.2392C119.337 -11.1459 120.686 -11.3293 121.047 -10.4919L125.685 0.0246635C128.017 5.32037 128.127 11.2795 125.987 16.7522C123.618 22.8082 116.951 26.5313 110.16 25.5828L88.6903 22.5768C85.25 22.0933 82.3058 25.0393 83.0879 28.1756L89.151 52.5468C90.6616 58.6193 86.4837 64.7858 79.8708 66.2237C57.5183 71.0704 37.3039 76.4968 21.8439 83.1859C20.9367 83.5756 20.1003 82.617 20.7001 81.8731L20.6882 81.8751Z" fill="white"/>
</g>
<g style="mix-blend-mode:overlay" opacity="0.5">
<path d="M48.6884 103.031C54.6146 95.6718 77.3037 67.9685 103.054 67.4283L92.0283 34.4369C91.2557 32.1255 93.4272 29.8119 96.0224 30.1988L119.148 33.6587C125.837 33.3228 132.075 30.1612 136.064 25.0917L147.202 10.9166C147.338 10.0098 148.686 9.82648 149.047 10.6638L153.685 21.1804C156.017 26.4761 156.127 32.4352 153.987 37.9079C151.618 43.9639 144.951 47.687 138.16 46.7386L116.691 43.7326C113.25 43.2491 110.306 46.1951 111.088 49.3314L117.151 73.7026C118.662 79.775 114.484 85.9415 107.871 87.3794C85.5185 92.2262 65.3041 97.6525 49.8441 104.342C48.937 104.731 48.1005 103.773 48.7003 103.029L48.6884 103.031Z" fill="white"/>
</g>
<g style="mix-blend-mode:overlay" opacity="0.5">
<path d="M80.6937 125.131C80.1988 125.563 79.4607 124.989 79.8411 124.464C86.0671 115.821 101.971 96.7456 123.356 92.9383C128.322 92.0582 131.569 87.4868 130.57 82.9346C129.046 75.9777 123.472 64.0991 120.154 57.3691C119.102 55.2484 121.08 52.8501 123.586 53.1899C132.327 54.3932 148.476 56.4479 156.865 56.4106C161.369 56.3919 165.425 53.6776 166.885 49.6884L172.856 33.4545C173.23 32.4386 174.808 32.5209 174.998 33.5689L178.464 52.4981C179.06 55.7281 178.082 59.0732 175.792 61.6502L138.172 103.946C135.702 106.719 132.052 108.321 128.219 108.354C118.164 108.437 95.3799 112.482 80.6887 125.138L80.6937 125.131Z" fill="white"/>
</g>
<g style="mix-blend-mode:overlay" opacity="0.3">
<path d="M57.5349 7.90853C57.2633 7.13466 59.0559 4.30353 59.2094 5.10931C65.2897 36.5356 137.895 90.929 158.563 81.2019C160.254 80.4066 134.177 108.582 134.177 108.582C134.177 108.582 111.446 100.986 74.9005 127.415C74.9005 127.415 99.7202 96.2991 114.416 91.816C114.416 91.816 64.858 92.5422 47.9163 107.016C47.9163 107.016 66.7632 81.527 77.8932 74.3046C77.8932 74.3046 48.7501 67.4286 19.2727 85.3723C19.2727 85.3723 37.3503 60.9287 68.1789 46.3198C71.9197 44.5474 73.7349 40.5036 72.4662 36.8981L57.5349 7.90853Z" fill="white"/>
</g>
<g style="mix-blend-mode:overlay" opacity="0.3">
<path d="M60.4667 4.46415C59.5834 4.36649 56.9063 6.53054 57.8081 6.52231C92.7722 6.11778 166.001 61.9363 159.797 82.608C159.29 84.3042 184.188 55.2214 184.188 55.2214C184.188 55.2214 171.385 35.9547 192.266 -2.32544C192.266 -2.32544 163.954 26.1691 162.153 40.3968C162.153 40.3968 152.794 -4.87407 164.856 -23.0381C164.856 -23.0381 141.357 -1.04731 135.885 10.4526C135.885 10.4526 122.543 -14.7885 135.763 -45.0213C135.763 -45.0213 113.238 -23.9352 103.866 6.90149C102.733 10.6396 98.7578 13.0574 94.6345 12.5811L60.4667 4.46415Z" fill="black"/>
</g>
</g>
<defs>
<clipPath id="clip0_2238_48941">
<rect width="303.656" height="180" fill="white" transform="translate(0.344116)"/>
</clipPath>
</defs>
</svg>
