<svg width="169" height="217" viewBox="0 0 169 217" fill="none" xmlns="http://www.w3.org/2000/svg">
<g clip-path="url(#clip0_2378_20778)">
<path opacity="0.3" fill-rule="evenodd" clip-rule="evenodd" d="M86.7323 -49.5364C76.158 -39.9117 64.5519 -28.7737 62.831 -17.3052C62.4024 -14.4294 59.8846 -12.3387 56.9852 -12.5622L37.3058 -19.1752C36.2636 -19.1475 35.3011 -18.7894 34.517 -18.1906C33.9229 -17.4065 33.5613 -16.4445 33.5381 -15.4023L40.1683 4.27226C40.3948 7.173 38.3084 9.69268 35.4306 10.1208C23.9604 11.8536 12.8321 23.468 3.21786 34.0491C1.96836 35.4261 3.58649 37.4867 5.22588 36.6121C16.4864 30.5909 31.3078 30.6306 41.8592 31.7219C34.285 36.4399 27.0424 44.1177 20.5008 51.3171C19.2513 52.6942 20.8694 54.7547 22.5088 53.8802C34.6556 47.3851 50.2377 47.2346 60.6964 48.4107C52.2189 52.8812 44.0999 61.456 36.8433 69.4423C35.5938 70.8193 37.212 72.8799 38.8514 72.0053C52.424 64.7477 64.9941 60.1198 75.2011 61.7089C76.9979 61.9881 78.8175 61.4285 80.0973 60.143L82.3317 57.9066C66.9408 80.209 69.176 111.005 89.0283 130.839L156.092 197.841C178.451 220.179 214.679 220.159 237.021 197.804L248.259 186.553L248.251 186.553C270.585 164.199 270.569 127.966 248.214 105.632L181.151 38.6294C161.302 18.7984 130.511 16.5889 108.223 31.9918L111.091 29.1216C111.965 28.2486 112.503 27.1234 112.668 25.9279C112.834 25.7558 112.923 25.6629 112.923 25.6629C112.923 25.6629 112.844 25.5039 112.722 25.1901C112.725 24.8681 112.701 24.5439 112.65 24.2206C111.059 14.0148 115.669 1.43674 122.918 -12.1381C123.796 -13.7766 121.726 -15.3963 120.354 -14.1468L120.358 -14.1432C113.286 -7.70658 105.753 -0.593151 101.024 6.84331C99.972 -3.58459 100.309 -18.5275 106.576 -30.2632C107.453 -31.9017 105.384 -33.5214 104.011 -32.272L104.015 -32.2684C96.8188 -25.7181 89.1444 -18.467 84.4333 -10.8878C83.3314 -21.4395 83.2762 -36.2666 89.2886 -47.5349C90.1663 -49.1734 88.0964 -50.7931 86.7239 -49.5436L86.7323 -49.5364Z" fill="#49B8EE"/>
<g clip-path="url(#clip1_2378_20778)">
<path d="M246.259 178.553L235.021 189.804C212.679 212.159 176.45 212.179 154.092 189.841L87.0283 122.839C64.6738 100.505 64.6572 64.2718 86.9914 41.9173L98.2292 30.6663C120.563 8.31181 156.796 8.29522 179.151 30.6294L246.214 97.632C268.569 119.966 268.585 156.199 246.251 178.553L246.259 178.553Z" fill="#FFF200"/>
<path opacity="0.25" d="M230.605 185.396C210.733 205.285 178.388 205.298 158.504 185.429L91.4401 118.427C71.5514 98.5547 71.5384 66.2094 91.407 46.325L102.645 35.0739C122.517 15.1853 154.862 15.1723 174.747 35.0408L241.81 102.043C261.699 121.915 261.712 154.261 241.843 174.145L230.605 185.396Z" fill="white"/>
<path d="M142.905 23.4189C139.001 22.9935 135.04 23.0652 131.139 23.6096C127.238 24.1618 123.377 25.1412 119.726 26.6797C116.07 28.1913 112.596 30.1584 109.41 32.5184C108.601 33.0879 107.839 33.7281 107.077 34.3605C106.294 34.9749 105.592 35.6732 104.856 36.3427C103.409 37.6956 102.059 39.088 100.657 40.4649C97.882 43.236 95.0905 45.9496 92.3263 48.7668C89.5657 51.6306 87.1181 54.8072 85.1498 58.2723C83.169 61.7266 81.5899 65.4245 80.5538 69.2691C79.4859 73.1084 78.9013 77.0793 78.8336 81.0583C78.7605 83.0468 78.9064 85.0345 79.0792 87.0162C79.3179 88.9891 79.6032 90.9584 80.0771 92.8861C80.5049 94.8252 81.1014 96.7202 81.7548 98.5914C82.4615 100.443 83.2101 102.28 84.1437 104.028C85.0282 105.8 86.0744 107.485 87.1607 109.132C88.2955 110.747 89.4752 112.336 90.7945 113.805C91.1236 114.176 91.4377 114.555 91.7775 114.913L92.8007 115.981C93.4769 116.701 94.1884 117.371 94.8783 118.066L99.0502 122.199C104.635 127.692 110.147 133.253 115.67 138.809C121.207 144.348 126.66 149.968 132.161 155.542L148.621 172.313L156.874 180.675L158.94 182.764C159.622 183.46 160.32 184.154 161.048 184.839C162.475 186.233 164.029 187.489 165.61 188.695C168.816 191.067 172.317 193.036 176.004 194.577C179.697 196.094 183.578 197.147 187.527 197.749C191.481 198.311 195.505 198.411 199.483 198.005C203.452 197.577 207.394 196.732 211.146 195.347C214.894 193.957 218.497 192.16 221.788 189.898C222.605 189.32 223.432 188.765 224.209 188.131L225.388 187.209L226.519 186.232C228.031 184.921 229.413 183.484 230.779 182.098L239.023 173.728L240.055 172.68C240.396 172.326 240.727 171.949 241.063 171.583L242.068 170.483C242.4 170.114 242.749 169.759 243.039 169.354L244.872 167.002C245.453 166.199 245.979 165.35 246.535 164.526C248.66 161.166 250.362 157.545 251.616 153.786C252.821 150.007 253.567 146.094 253.852 142.149L253.94 140.668C253.973 140.173 254.003 139.682 253.981 139.19L253.93 136.23L253.657 133.282C253.628 132.791 253.533 132.301 253.453 131.818L253.21 130.358C252.504 126.485 251.342 122.7 249.738 119.117L249.568 119.188C252.438 126.45 253.718 134.345 252.908 142.072C252.538 145.929 251.714 149.738 250.456 153.392C249.146 157.031 247.401 160.498 245.306 163.731C244.755 164.523 244.234 165.333 243.662 166.107L241.853 168.364C241.566 168.749 241.223 169.088 240.894 169.445L239.906 170.501C239.577 170.851 239.255 171.207 238.914 171.554L237.869 172.583L229.503 180.833C228.101 182.217 226.737 183.576 225.286 184.823L224.191 185.758L223.053 186.642C222.304 187.242 221.503 187.776 220.715 188.32C217.537 190.476 214.067 192.177 210.466 193.481C206.864 194.793 203.089 195.614 199.276 196.03C195.461 196.423 191.6 196.319 187.797 195.827C184 195.277 180.261 194.295 176.7 192.87C173.149 191.417 169.758 189.548 166.65 187.291C165.116 186.132 163.61 184.939 162.219 183.604C161.517 182.957 160.82 182.271 160.126 181.58L158.035 179.52L149.665 171.276L132.882 154.831C127.297 149.338 121.677 143.887 116.132 138.355C110.57 132.845 105.003 127.331 99.5056 121.754L95.366 117.583C94.6839 116.888 93.9712 116.202 93.319 115.489L92.3197 114.426C91.984 114.072 91.6891 113.687 91.372 113.32C90.1071 111.847 88.986 110.257 87.9062 108.645C86.875 107.002 85.8922 105.328 85.0681 103.579C84.1985 101.849 83.5103 100.035 82.8568 98.215C82.2644 96.3744 81.7138 94.5189 81.344 92.6225C80.9281 90.7373 80.6936 88.8189 80.5057 86.897C80.3764 84.9745 80.2974 83.0444 80.383 81.1175C80.6317 73.417 82.7918 65.8032 86.5736 59.1037C88.4436 55.736 90.7882 52.6453 93.4326 49.8489C96.1321 47.0562 98.9267 44.2798 101.67 41.4955C103.048 40.1126 104.424 38.6986 105.804 37.3391C106.505 36.6761 107.172 35.9766 107.923 35.3645C108.654 34.7344 109.38 34.093 110.158 33.5181C113.211 31.1525 116.561 29.1594 120.108 27.5974C123.655 26.0354 127.405 24.9236 131.234 24.2517C135.064 23.5875 138.987 23.3818 142.885 23.6199L142.902 23.4309L142.905 23.4189Z" fill="white"/>
<path d="M226.19 180.989C208.751 198.445 180.364 198.457 162.908 181.018L95.8441 114.015C78.3879 96.5766 78.3796 68.1853 95.8148 50.7332L107.053 39.4822C124.491 22.0259 152.883 22.0176 170.335 39.4528L237.398 106.455C254.855 123.894 254.863 152.285 237.428 169.738L226.19 180.989Z" fill="#FFCB00"/>
<path d="M109.268 41.6855L98.0304 52.9365C87.647 63.3291 83.9255 77.8858 86.8394 91.2735L147.598 30.4654C134.206 27.5635 119.656 31.2964 109.272 41.689L109.268 41.6855Z" fill="#FFDE17"/>
<path d="M168.865 182.118C173.916 186.083 179.672 188.711 185.664 190.008L246.423 129.2C245.118 123.204 242.483 117.454 238.516 112.406L168.865 182.118Z" fill="#FFDE17"/>
<path d="M165.111 178.81C166.304 180.003 167.564 181.101 168.858 182.118L238.508 112.407C237.491 111.111 236.395 109.856 235.198 108.659L226.375 99.8431L156.284 169.991L165.107 178.807L165.111 178.81Z" fill="#FFF42E"/>
<path d="M143.945 157.653L156.298 169.997L226.391 99.8539L214.038 87.5102L143.945 157.653Z" fill="#FFDE17"/>
<path d="M131.594 145.313L143.947 157.657L214.04 87.5138L201.687 75.1702L131.594 145.313Z" fill="#FFF42E"/>
<path d="M119.239 132.969L131.592 145.313L201.685 75.17L189.332 62.8263L119.239 132.969Z" fill="#FFDE17"/>
<path d="M106.888 120.629L119.241 132.973L189.334 62.8299L176.981 50.4863L106.888 120.629Z" fill="#FFF42E"/>
<path d="M98.0557 111.807L106.879 120.623L176.97 50.4753L168.146 41.6594C166.954 40.4665 165.694 39.3685 164.4 38.3513L94.7501 108.063C95.767 109.359 96.8628 110.614 98.0599 111.811L98.0557 111.807Z" fill="#FFDE17"/>
<path d="M164.393 38.3518C159.342 34.3871 153.586 31.7585 147.594 30.4618L86.8352 91.2698C88.1398 97.2653 90.7753 103.016 94.7424 108.063L164.393 38.3518Z" fill="#FFF42E"/>
<g style="mix-blend-mode:overlay">
<path d="M100.029 53.971C98.152 55.8999 96.4653 58.0139 95.0576 60.3025C93.6583 62.5983 92.5561 65.0477 91.6573 67.5483C90.7668 70.056 90.1167 72.6395 89.6717 75.2467C89.219 77.8544 88.9649 80.502 88.9692 83.1535C88.9383 88.4517 89.8453 93.8435 91.9999 98.7657C93.0694 101.227 94.4149 103.563 95.9862 105.728C97.5874 107.876 99.3576 109.878 101.34 111.685L100.438 112.066C100.249 107.175 100.142 102.282 100.059 97.3955L99.9247 90.0564C99.9046 87.6095 99.8653 85.1679 99.8684 82.7192C99.8634 77.8266 99.8937 72.9352 100.092 68.0429C100.267 63.1523 100.461 58.2564 100.433 53.3655L100.582 53.4286L100.025 53.9751L100.029 53.971ZM99.9105 53.8547L100.455 53.2974L100.608 53.1451L100.609 53.364C100.657 58.2573 100.923 63.142 101.171 68.032C101.446 72.9238 101.548 77.813 101.615 82.7009C101.659 85.1461 101.656 87.5948 101.672 90.0381L101.646 97.3776C101.636 102.271 101.601 107.159 101.489 112.053L101.46 113.33L100.587 112.434C96.7835 108.524 93.7454 103.918 91.5263 98.9696C90.4317 96.4863 89.5341 93.9178 88.8579 91.2778C88.1932 88.633 87.8049 85.9205 87.6529 83.1784C87.6289 82.4957 87.5928 81.8101 87.6076 81.1245L87.6832 79.0654C87.8187 77.6979 87.9267 76.3287 88.2124 74.9812C88.7251 72.2868 89.483 69.6287 90.6373 67.1441C91.7557 64.6504 93.1096 62.272 94.6793 60.0573C96.2699 57.8605 98.0104 55.7854 99.9069 53.8589L99.9105 53.8547Z" fill="#231F20"/>
<path d="M110.943 43.0455C109.224 44.7826 107.492 46.5089 105.786 48.2568C104.079 50.0047 102.373 51.7526 100.692 53.5298L100.761 53.3564L101.202 68.0296C101.355 72.9189 101.434 77.8098 101.483 82.7031C101.511 87.594 101.532 92.4854 101.466 97.3755L101.321 112.054L101.216 111.804C102.993 113.645 104.793 115.469 106.585 117.293C108.396 119.104 110.184 120.933 112.009 122.728L117.469 128.128C119.284 129.935 121.134 131.701 122.97 133.491L122.299 133.772L122.012 121.45L121.775 109.127L121.443 84.4802C121.411 80.3718 121.363 76.2647 121.367 72.1576C121.354 68.0517 121.342 63.938 121.365 59.8333C121.384 55.725 121.449 51.6133 121.523 47.5087L121.713 35.1817L122.045 35.3874C119.978 36.302 118.014 37.4357 116.147 38.7107C114.284 39.9971 112.548 41.4577 110.939 43.0496L110.943 43.0455ZM110.825 42.9292C112.42 41.311 114.162 39.8341 116.01 38.5059C117.849 37.1626 119.815 36.0014 121.849 34.9641L122.169 34.8031L122.177 35.174L122.559 47.4971C122.696 51.6014 122.822 55.7105 122.905 59.8189C122.995 63.9268 123.043 68.0339 123.09 72.1411C123.153 76.2471 123.17 80.3566 123.202 84.4649L123.241 109.115L123.192 121.439L123.092 133.763L123.087 134.726L122.421 134.044C120.633 132.216 118.862 130.366 117.055 128.551L111.65 123.095C109.858 121.271 108.025 119.477 106.207 117.674C104.379 115.883 102.557 114.084 100.71 112.307L100.606 112.217L100.605 112.057L100.235 97.3862C100.097 92.4958 100.041 87.6031 99.9971 82.7134C99.9723 77.8183 99.9793 72.9287 100.06 68.0374L100.28 53.3575L100.284 53.2516L100.353 53.1877C102.123 51.5015 103.872 49.7974 105.62 48.0854C107.369 46.3813 109.093 44.6478 110.828 42.925L110.825 42.9292Z" fill="#231F20"/>
<path d="M223.988 177.83L227.584 174.207C228.787 173.002 229.966 171.775 231.154 170.562L231.111 170.671C230.992 165.251 230.814 159.832 230.66 154.411C230.498 148.99 230.34 143.573 230.287 138.153C230.211 132.733 230.201 127.313 230.238 121.889L230.386 105.627L230.496 105.896C226.944 102.21 223.337 98.5701 219.724 94.9468C216.074 91.3576 212.464 87.7224 208.785 84.1666L209.392 83.9097C209.559 92.5058 209.803 101.096 209.935 109.691L210.302 135.474C210.39 144.068 210.436 152.662 210.422 161.256C210.417 169.849 210.212 178.446 210.109 187.043L209.717 186.771C212.382 185.847 214.953 184.624 217.35 183.114C219.761 181.622 221.972 179.82 223.988 177.83ZM224.107 177.946C222.108 179.974 219.873 181.77 217.505 183.349C215.12 184.913 212.584 186.254 209.926 187.315L209.543 187.465L209.53 187.04C209.297 178.444 208.963 169.857 208.827 161.259C208.688 152.664 208.599 144.07 208.561 135.476L208.538 109.691C208.536 101.098 208.655 92.4996 208.691 83.9038L208.695 83.0274L209.298 83.6469C212.856 87.3251 216.492 90.9311 220.087 94.5753C223.719 98.1854 227.358 101.787 231.048 105.338L231.154 105.444L231.158 105.608L231.555 121.864C231.674 127.284 231.742 132.704 231.752 138.124C231.784 143.543 231.704 148.966 231.624 154.389C231.552 159.812 231.46 165.232 231.418 170.652L231.42 170.718L231.38 170.764C230.163 171.951 228.938 173.131 227.734 174.336L224.117 177.934L224.107 177.946Z" fill="#231F20"/>
<path d="M122.016 35.2175C122.269 43.5451 122.461 51.8069 122.62 60.0398L122.749 66.2177L122.842 72.371L123.014 84.6669C123.15 92.8663 123.179 101.031 123.134 109.205L123.003 133.766L122.916 133.553C124.708 135.378 126.508 137.202 128.318 139.013C130.122 140.833 131.928 142.641 133.753 144.435C137.396 148.033 141.009 151.656 144.685 155.224L144.071 155.481C143.89 145.15 143.636 134.82 143.491 124.489L143.087 93.4953L142.959 78.0006L142.914 62.5036C142.937 52.1722 142.905 41.8371 143.002 31.504L143.441 31.9833C139.822 31.556 136.144 31.6377 132.523 32.1687C130.713 32.4382 128.92 32.8315 127.16 33.3474L125.845 33.7594L124.546 34.2133L123.261 34.7091L122.024 35.2169L122.016 35.2175ZM121.877 35.1263L123.158 34.4899L124.426 33.9289L125.718 33.417L127.028 32.9506C128.787 32.3604 130.582 31.8888 132.413 31.5434C136.064 30.8419 139.823 30.6837 143.54 31.0059L143.965 31.0443L143.975 31.4894C144.229 41.8194 144.351 52.1517 144.531 62.4834L144.722 77.9812L144.83 93.4812L144.898 124.477C144.91 134.81 144.813 145.143 144.79 155.474L144.786 156.358L144.175 155.732C140.605 152.058 136.978 148.452 133.374 144.808C131.575 142.984 129.768 141.176 127.947 139.377C126.133 137.57 124.311 135.772 122.483 133.981L122.391 133.902L122.397 133.769L121.893 109.033C121.728 100.773 121.629 92.5038 121.638 84.2699L121.622 71.9193L121.619 65.7476L121.656 59.5962C121.687 51.3959 121.755 43.2201 121.884 35.118L121.877 35.1263Z" fill="#231F20"/>
<path d="M177.101 52.116L171.364 46.4117L168.482 43.5702C167.527 42.6253 166.521 41.7312 165.479 40.8866L165.751 40.7566L166.504 74.9744C166.699 86.3806 166.78 97.7914 166.737 109.196L166.665 126.309L166.626 134.866L166.649 143.419L166.675 151.974L166.769 160.529L166.862 169.084L167.006 177.639L166.892 177.366C169.836 180.202 173.194 182.617 176.833 184.459C180.469 186.312 184.379 187.586 188.382 188.285L187.621 188.926C187.447 178.367 187.324 167.808 187.204 157.244C187.069 146.682 186.965 136.126 186.909 125.566L186.853 109.725L186.895 93.8816C186.991 83.3218 187.098 72.7572 187.143 62.1973L187.19 62.311L182.155 57.203L177.097 52.1124L177.101 52.116ZM177.218 51.9977L182.308 57.0507L187.424 62.0822L187.474 62.1254L187.471 62.196C187.673 72.7569 187.941 83.3167 188.197 93.8735L188.479 109.712L188.668 125.551C188.775 136.111 188.824 146.671 188.853 157.23C188.895 167.791 188.928 178.353 188.918 188.914L188.918 189.692L188.161 189.55C184.035 188.781 180.043 187.349 176.358 185.374C172.67 183.403 169.295 180.865 166.351 177.919L166.232 177.803L166.232 177.642L166.248 169.087L166.214 160.532L166.179 151.977L166.074 143.419L165.965 134.865L165.797 126.312L165.466 109.202C165.251 97.7933 165.158 86.3872 165.182 74.9801L165.419 40.7543L165.419 40.3983L165.687 40.6285C166.726 41.4928 167.726 42.4108 168.671 43.3761L171.512 46.2557L177.221 51.9857L177.218 51.9977Z" fill="#231F20"/>
<path d="M189.271 64.2741L187.246 62.2638L187.401 62.2012C187.485 72.7631 187.8 83.3194 188.056 93.8762C188.347 104.434 188.49 114.996 188.512 125.554C188.517 136.114 188.41 146.679 188.357 157.24C188.349 162.52 188.356 167.8 188.398 173.081L188.59 188.923L188.324 188.607C195.461 189.833 202.908 189.115 209.615 186.501L209.238 187.05C209.083 178.457 208.943 169.862 208.843 161.265C208.747 152.672 208.607 144.077 208.547 135.485C208.466 126.89 208.444 118.295 208.434 109.702C208.419 101.107 208.542 92.512 208.637 83.9157L208.757 84.2L199.061 74.1905C195.818 70.8639 192.546 67.5708 189.267 64.2783L189.271 64.2741ZM189.387 64.1558C192.684 67.4274 195.982 70.699 199.308 73.9372L209.327 83.6212L209.441 83.7338L209.446 83.9055C209.672 92.5012 209.924 101.091 210.04 109.687C210.16 118.279 210.268 126.875 210.313 135.469C210.382 144.061 210.373 152.658 210.411 161.253C210.44 169.847 210.431 178.445 210.406 187.036L210.406 187.451L210.029 187.585C203.056 190.093 195.436 190.64 188.215 189.241L187.949 189.186L187.945 188.921L187.897 173.08C187.859 167.802 187.789 162.52 187.696 157.239C187.487 146.678 187.219 136.118 187.065 125.562C186.926 115.004 186.908 104.441 187.043 93.8782C187.139 83.3184 187.297 72.7539 187.217 62.1956L187.216 61.9766L187.373 62.133L189.387 64.1558Z" fill="#231F20"/>
<path d="M164.73 40.1765C161.676 37.7979 158.304 35.8226 154.7 34.4045C152.895 33.7036 151.055 33.1109 149.172 32.67C147.289 32.2292 145.381 31.9349 143.46 31.7668L143.757 31.498L144.111 46.9913L144.288 54.7379L144.426 62.4874C144.571 72.8179 144.626 83.1513 144.58 93.4844L144.512 108.986C144.484 114.155 144.458 119.32 144.492 124.484C144.492 134.814 144.621 145.145 144.771 155.479L144.67 155.241L167.085 177.183L165.959 177.655L165.52 143.437C165.446 137.736 165.391 132.03 165.349 126.326L165.252 109.214C165.209 103.511 165.24 97.8058 165.256 92.102C165.253 86.3957 165.324 80.6955 165.371 74.9894L165.508 57.875C165.54 52.17 165.528 46.4643 165.498 40.764L165.53 40.828L164.73 40.1765ZM164.833 40.0474L165.637 40.6948L165.666 40.72L165.669 40.7588C165.724 46.4652 165.798 52.1662 165.915 57.8678L166.312 74.9771C166.449 80.6811 166.605 86.3798 166.687 92.088C166.788 97.7908 166.901 103.497 166.948 109.196L167.111 126.307C167.161 132.01 167.189 137.714 167.2 143.42L167.277 177.646L167.281 179.257L166.151 178.118C162.464 174.402 158.818 170.656 155.161 166.923L144.183 155.723L144.081 155.621L144.083 155.484C144.078 145.151 144.05 134.82 143.893 124.486C143.844 119.323 143.744 114.152 143.637 108.989L143.337 93.4921C143.133 83.1621 143.031 72.8323 143.019 62.4996L143.041 54.7497L143.102 46.9969L143.225 31.499L143.225 31.1939L143.517 31.2267C147.396 31.6813 151.2 32.6893 154.796 34.1666C156.589 34.9231 158.336 35.7849 160.017 36.7573C161.695 37.7417 163.303 38.8407 164.829 40.0438L164.833 40.0474Z" fill="#231F20"/>
</g>
<g style="mix-blend-mode:overlay">
<path d="M110.825 42.9293C112.75 41.028 114.826 39.2914 117.021 37.6944C119.237 36.1232 121.611 34.767 124.108 33.6479C126.591 32.4947 129.255 31.7306 131.947 31.2148C133.29 30.9297 134.663 30.8224 136.029 30.6803L138.084 30.5997C138.771 30.587 139.455 30.6216 140.141 30.6442C142.878 30.7938 145.594 31.1796 148.238 31.8448C150.882 32.5177 153.448 33.4155 155.936 34.507C160.886 36.7192 165.496 39.7589 169.404 43.5555L170.299 44.4268L169.022 44.4565C164.13 44.571 159.236 44.6114 154.348 44.6278L147.013 44.6566C144.567 44.6414 142.119 44.646 139.675 44.6034C134.782 44.542 129.893 44.4411 125.003 44.1722C120.115 43.9265 115.221 43.6617 110.33 43.6237L110.114 43.6204L110.267 43.468L110.824 42.9215L110.825 42.9293ZM110.943 43.0455L110.398 43.6029L110.336 43.4472C115.227 43.4697 120.12 43.269 125.012 43.0959C129.905 42.8952 134.796 42.8591 139.689 42.8618C142.133 42.8536 144.58 42.8921 147.026 42.9072L154.365 43.0346C159.256 43.1157 164.15 43.2202 169.036 43.3994L168.659 44.304C166.851 42.3204 164.848 40.5548 162.698 38.9529C160.526 37.3839 158.191 36.0384 155.733 34.9721C150.81 32.8203 145.415 31.9206 140.118 31.9561C137.466 31.9526 134.818 32.207 132.212 32.6655C129.602 33.1125 127.027 33.7643 124.52 34.6572C122.019 35.5615 119.567 36.6615 117.276 38.0663C114.988 39.4747 112.878 41.1669 110.951 43.0449L110.943 43.0455Z" fill="#231F20"/>
<path d="M224.107 177.946C222.05 179.983 219.807 181.822 217.424 183.468C216.816 183.862 216.231 184.297 215.601 184.658L213.712 185.754L211.756 186.727C211.104 187.054 210.415 187.305 209.748 187.598C204.338 189.813 198.347 190.714 192.504 190.142C192.141 190.106 191.773 190.095 191.408 190.036L190.324 189.868C189.596 189.758 188.876 189.648 188.163 189.479C186.729 189.184 185.313 188.826 183.922 188.371C181.144 187.474 178.469 186.287 175.934 184.878C173.392 183.478 170.994 181.817 168.754 179.971C167.629 179.055 166.568 178.047 165.526 177.05L162.395 174.059L161.628 173.327L162.71 173.304C168.13 173.193 173.553 173.113 178.973 173.095L187.102 173.073L191.169 173.064L195.235 173.09C200.656 173.139 206.074 173.2 211.494 173.394C216.911 173.607 222.335 173.899 227.752 174.054L228.093 174.063L227.852 174.292C226.585 175.495 225.357 176.737 224.111 177.958L224.107 177.946ZM223.988 177.83C225.208 176.58 226.446 175.353 227.648 174.081L227.748 174.32C222.326 174.4 216.906 174.621 211.483 174.76C206.06 174.883 200.642 174.873 195.223 174.847L191.157 174.813L187.091 174.744L178.962 174.614C173.542 174.522 168.125 174.367 162.702 174.185L163.016 173.43L166.009 176.556C166.997 177.616 168.014 178.607 169.106 179.546C171.28 181.416 173.653 183.055 176.187 184.398C181.27 187.073 186.948 188.456 192.607 188.761C198.274 189.124 203.97 188.354 209.394 186.631C214.83 184.911 219.901 181.881 223.996 177.822L223.988 177.83Z" fill="#231F20"/>
<path d="M99.9105 53.8547C101.63 52.1176 103.361 50.3913 105.068 48.6434C106.774 46.8955 108.481 45.1476 110.162 43.3703L110.223 43.2992L110.332 43.2988L125.009 43.0647C129.904 42.9813 134.792 42.9727 139.687 42.991C144.579 43.0291 149.472 43.0827 154.359 43.2188L169.03 43.5758L169.183 43.5761L169.28 43.6743C171.058 45.5156 172.857 47.3394 174.649 49.1639C176.46 50.9753 178.248 52.8039 180.073 54.5985L185.534 59.9991C187.348 61.8063 189.198 63.5716 191.034 65.3615L191.714 66.026L190.753 66.0359L178.429 66.1473L166.105 66.2079L141.455 66.1885C137.346 66.1618 133.238 66.1507 129.131 66.0888C125.024 66.0423 120.918 65.9959 116.808 65.9106C112.703 65.8289 108.595 65.7083 104.486 65.5722L92.161 65.2026L91.7925 65.1913L91.9521 64.8703C92.9837 62.833 94.1497 60.8677 95.4897 59.0301C96.8213 57.1853 98.2933 55.4394 99.9093 53.8391L99.9105 53.8547ZM100.029 53.9709C98.4409 55.5808 96.9802 57.3219 95.6929 59.1829C94.4217 61.0506 93.2867 63.0135 92.3748 65.0809L92.1659 64.7486L104.495 64.5468C108.603 64.464 112.713 64.4045 116.818 64.3767C120.926 64.3447 125.034 64.3559 129.142 64.367C133.248 64.3625 137.358 64.4047 141.467 64.4314L166.112 64.7446L178.434 64.9735L190.756 65.2534L190.475 65.9278C188.686 64.0991 186.916 62.2495 185.109 60.434L179.703 54.9785C177.911 53.154 176.078 51.36 174.261 49.557C172.432 47.7666 170.611 45.9677 168.764 44.1904L169.014 44.2967L154.335 44.4566C149.444 44.528 144.554 44.5133 139.659 44.4872C134.766 44.4414 129.875 44.3681 124.987 44.2164L110.314 43.7851L110.485 43.7136C108.715 45.3998 106.966 47.104 105.218 48.8159C103.469 50.5201 101.745 52.2536 100.01 53.9763L100.029 53.9709Z" fill="#231F20"/>
<path d="M235.021 167.021L231.426 170.644C230.222 171.849 229.043 173.076 227.856 174.288L227.816 174.334L227.745 174.332C222.324 174.377 216.902 174.472 211.479 174.553C206.057 174.64 200.634 174.721 195.215 174.695C189.794 174.689 184.372 174.624 178.954 174.513L162.698 174.13L162.533 174.127L162.431 174.018C158.879 170.331 155.273 166.691 151.659 163.068C148.009 159.479 144.399 155.844 140.72 152.288L140.096 151.686L140.972 151.682C149.566 151.637 158.161 151.513 166.758 151.507L192.541 151.511C201.133 151.544 209.728 151.624 218.323 151.754C226.918 151.885 235.512 152.211 244.103 152.439L244.53 152.45L244.375 152.833C243.316 155.495 241.978 158.032 240.414 160.419C238.832 162.791 237.041 165.026 235.017 167.025L235.021 167.021ZM234.903 166.904C236.89 164.881 238.69 162.669 240.179 160.26C241.688 157.863 242.902 155.291 243.827 152.624L244.1 153.019C235.503 153.127 226.91 153.34 218.314 153.355C209.723 153.372 201.123 153.34 192.532 153.256L166.75 152.911C158.155 152.789 149.564 152.552 140.967 152.391L141.218 151.785C144.777 155.463 148.413 159.069 152.008 162.713C155.64 166.324 159.279 169.925 162.969 173.476L162.702 173.363L178.965 173.198C184.383 173.157 189.804 173.163 195.227 173.235C200.647 173.284 206.068 173.435 211.489 173.594C216.91 173.744 222.328 173.915 227.75 174.03L227.64 174.074C228.853 172.883 230.078 171.704 231.282 170.498L234.898 166.901L234.903 166.904Z" fill="#231F20"/>
<path d="M92.1196 64.9124C100.222 64.7789 108.395 64.7065 116.593 64.6635L122.743 64.6263L128.915 64.6227L141.267 64.6303C149.499 64.6161 157.77 64.7006 166.027 64.8605L190.759 65.3431L190.888 65.3451L190.973 65.4326C192.765 67.2571 194.565 69.081 196.376 70.8923C198.179 72.712 199.985 74.5198 201.81 76.3144C205.453 79.912 209.066 83.5353 212.742 87.103L213.367 87.713L212.483 87.717C202.148 87.749 191.819 87.8587 181.485 87.8553L150.485 87.8178L134.986 87.7227L119.488 87.5493C109.157 87.3814 98.8264 87.2644 88.4942 87.0223L88.0515 87.0127L88.0114 86.5854C87.6845 82.8709 87.8393 79.1122 88.5419 75.4609C88.8893 73.6355 89.3557 71.8325 89.9471 70.0787L90.4116 68.7686L90.9245 67.4783L91.4858 66.2079L92.1166 64.9244L92.1196 64.9124ZM92.2085 65.0543L91.6993 66.2896L91.2055 67.5745L90.756 68.8756L90.3466 70.1894C89.83 71.9493 89.4371 73.7429 89.1669 75.5546C88.6379 79.1733 88.5592 82.8519 88.9886 86.4727L88.5058 86.0358C98.8393 85.9297 109.171 85.9528 119.506 85.9208L135.001 85.9536L150.498 86.0685L181.492 86.4428C191.824 86.5754 202.157 86.8252 212.487 86.9931L212.232 87.6029C208.662 83.9295 205.034 80.3229 201.431 76.6793C199.631 74.8554 197.825 73.0477 196.003 71.2489C194.189 69.4417 192.368 67.6429 190.539 65.8525L190.753 65.942L166.19 66.092C158.015 66.141 149.855 66.1225 141.651 65.9938L129.35 65.8336L123.195 65.75L117.022 65.6286C108.789 65.4747 100.53 65.2915 92.2002 65.0471L92.2085 65.0543Z" fill="#231F20"/>
<path d="M109.037 120.237L103.299 114.533L100.417 111.692C99.4466 110.748 98.5304 109.749 97.6621 108.712L97.4346 108.443L97.7905 108.444L132.018 108.179C143.424 108.145 154.832 108.228 166.241 108.436L183.353 108.753L191.908 108.914L200.465 109.012L209.023 109.11L217.575 109.139L226.131 109.163L234.686 109.136L234.847 109.135L234.965 109.252C237.917 112.197 240.455 115.565 242.431 119.257C244.414 122.941 245.845 126.928 246.617 131.055L246.757 131.815L245.978 131.815C235.415 131.833 224.857 131.811 214.294 131.778C203.733 131.76 193.173 131.715 182.613 131.62L166.775 131.444L150.937 131.175C140.378 130.927 129.817 130.671 119.262 130.477L119.195 130.478L119.145 130.435L114.113 125.323L109.056 120.232L109.037 120.237ZM109.153 120.119L114.243 125.172L119.359 130.204L119.246 130.157C129.81 130.104 140.369 129.989 150.934 129.885L166.774 129.829L182.614 129.867C193.174 129.912 203.734 130.008 214.296 130.135C224.857 130.246 235.414 130.362 245.975 130.524L245.336 131.284C244.632 127.281 243.355 123.369 241.501 119.738C239.659 116.102 237.243 112.745 234.404 109.802L234.683 109.918L226.126 109.777L217.569 109.687L209.017 109.6L200.461 109.584L191.906 109.567L183.348 109.614L166.235 109.703C154.826 109.757 143.419 109.682 132.012 109.498L97.7918 108.772L97.9239 108.5C98.773 109.543 99.6623 110.548 100.61 111.501L103.452 114.381L109.16 120.111L109.153 120.119Z" fill="#231F20"/>
<path d="M121.21 132.399L119.185 130.389L119.028 130.232L119.251 130.235C129.813 130.303 140.373 130.137 150.937 130.033C161.499 129.89 172.06 129.9 182.618 130.031C193.178 130.178 203.738 130.434 214.298 130.632C219.577 130.719 224.858 130.778 230.137 130.815L245.98 130.849L246.246 130.852L246.301 131.118C247.702 138.338 247.166 145.958 244.66 152.933L244.524 153.311L244.11 153.311C235.515 153.341 226.92 153.363 218.329 153.338C209.734 153.309 201.142 153.327 192.544 153.267C183.952 153.226 175.355 153.123 166.762 153.016C158.168 152.909 149.577 152.665 140.983 152.448L140.81 152.445L140.7 152.329L131.004 142.319C127.762 138.993 124.49 135.699 121.21 132.407L121.21 132.399ZM121.326 132.281C124.624 135.552 127.921 138.824 131.247 142.062L141.266 151.746L140.983 151.627C149.581 151.526 158.176 151.395 166.769 151.4C175.363 151.406 183.957 151.419 192.555 151.494C201.149 151.551 209.744 151.681 218.34 151.769C226.932 151.86 235.527 151.991 244.119 152.141L243.569 152.519C246.177 145.814 246.895 138.364 245.661 131.229L245.974 131.498L230.135 131.315C224.856 131.279 219.575 131.27 214.293 131.289C203.729 131.35 193.17 131.465 182.605 131.468C172.044 131.458 161.486 131.327 150.923 131.04C140.363 130.791 129.803 130.484 119.245 130.412L119.312 130.258L121.326 132.281Z" fill="#231F20"/>
<path d="M97.0741 107.864C95.8679 106.34 94.7726 104.729 93.7821 103.055C92.8065 101.372 91.9435 99.6265 91.1864 97.8336C89.7065 94.2333 88.6965 90.4334 88.24 86.5565L88.2022 86.2621L88.5031 86.259L104.001 86.1273L111.748 86.0597L119.498 86.0309C129.832 86.0343 140.165 86.1238 150.494 86.3191L165.988 86.6062C171.151 86.7099 176.321 86.8052 181.483 86.8503C191.816 86.9984 202.147 87.0137 212.481 87.0093L212.618 87.0107L212.719 87.1125L223.93 98.0835C227.668 101.74 231.415 105.377 235.135 109.063L236.276 110.189L234.664 110.186L200.441 110.141C194.737 110.132 189.033 110.109 183.331 110.065L166.22 109.916C160.518 109.872 154.815 109.762 149.109 109.672C143.408 109.593 137.702 109.445 131.997 109.311L114.888 108.931C109.185 108.821 103.481 108.746 97.7782 108.695L97.7351 108.694L97.7058 108.669L97.0621 107.861L97.0741 107.864ZM97.2035 107.764L97.8543 108.564L97.7892 108.53C103.494 108.554 109.197 108.562 114.901 108.527L132.017 108.375C137.723 108.32 143.424 108.247 149.13 108.243C154.835 108.224 160.536 108.193 166.245 108.228L183.359 108.307C189.064 108.338 194.763 108.394 200.471 108.464L234.69 108.877L234.216 110.004L212.256 87.609L212.498 87.7081C202.166 87.5677 191.834 87.4429 181.502 87.4551C176.337 87.4298 171.168 87.4596 166.004 87.4929L150.506 87.5737C140.173 87.629 129.844 87.5862 119.508 87.45L111.757 87.3184L104.008 87.1438L88.5088 86.8022L88.7797 86.5041C88.9479 88.4236 89.2483 90.3331 89.6875 92.2165C90.1303 94.0958 90.7269 95.9399 91.4259 97.7412C92.8394 101.343 94.8223 104.713 97.2035 107.764Z" fill="#231F20"/>
</g>
<g style="mix-blend-mode:overlay">
<path d="M229.056 111.86L167.865 173.103C166.261 174.707 163.66 174.711 162.053 173.103C160.45 171.499 160.445 168.899 162.053 167.291L223.244 106.048C224.848 104.444 227.449 104.44 229.056 106.048C230.659 107.652 230.664 110.252 229.056 111.86Z" fill="white"/>
</g>
<g style="mix-blend-mode:overlay">
<path d="M216.261 99.0761L155.07 160.32C153.466 161.923 150.865 161.927 149.258 160.32C147.655 158.716 147.65 156.115 149.258 154.508L210.449 93.264C212.053 91.6607 214.654 91.6563 216.261 93.264C217.864 94.868 217.869 97.4686 216.261 99.0761Z" fill="white"/>
</g>
<g style="mix-blend-mode:overlay">
<path d="M203.91 86.7322L142.719 147.976C141.115 149.579 138.514 149.583 136.907 147.976C135.303 146.372 135.299 143.771 136.906 142.164L198.097 80.9201C199.702 79.3168 202.302 79.3125 203.91 80.9201C205.513 82.5241 205.517 85.1248 203.91 86.7322Z" fill="white"/>
</g>
<g style="mix-blend-mode:overlay">
<path d="M191.994 74.8287L130.803 136.072C129.199 137.676 126.599 137.68 124.991 136.072C123.388 134.468 123.384 131.868 124.991 130.26L186.182 69.0166C187.786 67.4133 190.387 67.409 191.994 69.0166C193.598 70.6206 193.602 73.2213 191.994 74.8287Z" fill="white"/>
</g>
<g style="mix-blend-mode:overlay">
<path d="M179.643 62.4849L118.452 123.728C116.848 125.332 114.247 125.336 112.64 123.728C111.037 122.124 111.032 119.524 112.64 117.916L173.831 56.6727C175.435 55.0695 178.036 55.0651 179.643 56.6727C181.246 58.2767 181.251 60.8774 179.643 62.4849Z" fill="white"/>
</g>
<g style="mix-blend-mode:overlay">
<path d="M166.848 49.7011L105.657 110.945C104.053 112.548 101.452 112.552 99.8447 110.945C98.2414 109.341 98.237 106.74 99.8447 105.133L161.036 43.889C162.64 42.2857 165.24 42.2813 166.848 43.889C168.451 45.493 168.455 48.0936 166.848 49.7011Z" fill="white"/>
</g>
<g style="mix-blend-mode:overlay">
<path d="M152.155 40.5884L96.1611 96.6333C94.6266 98.1726 92.1312 98.173 90.5876 96.6349L90.3463 96.391C88.8069 94.8565 88.8066 92.3611 90.3447 90.8176L146.338 34.7727C147.873 33.2333 150.368 33.233 151.912 34.7711L152.153 35.015C153.693 36.5495 153.693 39.0449 152.155 40.5884Z" fill="white"/>
</g>
<g style="mix-blend-mode:overlay">
<path d="M131.479 32.0138L88.0342 75.4894C86.6712 76.8534 86.672 79.064 88.0359 80.4271L88.9099 81.3004C90.2739 82.6634 92.4845 82.6626 93.8476 81.2986L137.292 37.8231C138.655 36.4591 138.654 34.2484 137.29 32.8854L136.416 32.0121C135.052 30.649 132.842 30.6498 131.479 32.0138Z" fill="white"/>
</g>
<path d="M147.833 41.5791L93.3669 96.093C92.8977 96.5625 92.1391 96.5649 91.6696 96.0957C91.2001 95.6266 91.1976 94.868 91.6668 94.3984L146.133 39.8846C146.602 39.4151 147.361 39.4127 147.83 39.8818C148.3 40.351 148.302 41.1096 147.833 41.5791Z" fill="white"/>
<path d="M129.311 42.6897L92.6945 79.3369C92.2253 79.8064 91.4667 79.8088 90.9972 79.3396C90.5277 78.8705 90.5253 78.1119 90.9944 77.6423L127.611 40.9951C128.08 40.5256 128.839 40.5232 129.308 40.9924C129.778 41.4615 129.78 42.2201 129.311 42.6897Z" fill="white"/>
<path d="M148.033 65.1373L103.484 109.724C103.015 110.193 102.256 110.196 101.787 109.727C101.317 109.257 101.315 108.499 101.784 108.029L146.333 63.4428C146.802 62.9733 147.56 62.9709 148.03 63.4401C148.499 63.9092 148.502 64.6678 148.033 65.1373Z" fill="white"/>
<path d="M153.52 83.4078L115.358 121.599C114.889 122.069 114.13 122.071 113.661 121.602C113.191 121.133 113.189 120.374 113.658 119.905L151.82 81.7133C152.29 81.2438 153.048 81.2414 153.518 81.7106C153.987 82.1797 153.99 82.9383 153.52 83.4078Z" fill="white"/>
<path d="M166.311 96.1879L128.149 134.379C127.68 134.849 126.921 134.851 126.452 134.382C125.982 133.913 125.98 133.154 126.449 132.685L164.611 94.4934C165.081 94.0239 165.839 94.0215 166.309 94.4906C166.778 94.9598 166.781 95.7184 166.311 96.1879Z" fill="white"/>
<path d="M173.157 113.167L140.069 146.286C139.599 146.756 138.841 146.758 138.371 146.289C137.902 145.82 137.899 145.061 138.368 144.592L171.457 111.473C171.926 111.003 172.685 111.001 173.154 111.47C173.624 111.939 173.626 112.698 173.157 113.167Z" fill="white"/>
<path d="M193.888 118.007L152.867 159.066C152.398 159.535 151.64 159.538 151.17 159.069C150.7 158.599 150.698 157.841 151.167 157.371L192.188 116.313C192.657 115.843 193.415 115.841 193.885 116.31C194.355 116.779 194.357 117.538 193.888 118.007Z" fill="white"/>
<path d="M215.717 119.98L164.774 170.962C164.305 171.432 163.546 171.434 163.077 170.965C162.607 170.496 162.605 169.737 163.074 169.268L214.017 118.285C214.486 117.816 215.244 117.813 215.714 118.283C216.183 118.752 216.186 119.51 215.717 119.98Z" fill="white"/>
<path d="M88.613 48.7455C83.3304 53.6964 79.2472 59.9767 76.835 66.9445C74.4031 73.91 73.6633 81.5302 74.573 89.0338C75.5408 96.5292 78.1355 103.918 82.2727 110.392C84.3318 113.632 86.7495 116.649 89.4501 119.371C90.797 120.74 92.1998 122.019 93.575 123.347C94.9495 124.667 96.3391 125.978 97.7316 127.277C95.1389 124.48 92.4467 121.766 89.8736 118.971C87.3012 116.185 85.0265 113.145 83.0745 109.925C81.1303 106.704 79.5275 103.289 78.319 99.7617C77.0914 96.2402 76.2385 92.6044 75.7829 88.9465C75.3153 85.2856 75.2755 81.5925 75.6 77.9579C75.9203 74.3197 76.6317 70.7342 77.7408 67.2869C79.9632 60.396 83.6811 54.0415 88.6249 48.7485L88.613 48.7455Z" fill="white"/>
<g style="mix-blend-mode:overlay" opacity="0.4">
<path d="M95.699 40.8425L89.1816 47.3649C68.9602 67.6006 67.9156 99.4585 86.8485 118.378L159.597 191.061C178.53 209.981 210.389 208.909 230.606 188.67L237.123 182.148C193.952 152.848 146.033 130.348 95.699 40.8425Z" fill="white"/>
</g>
<g style="mix-blend-mode:overlay" opacity="0.5">
<path d="M96.4372 40.1024L102.955 33.58C123.176 13.3443 155.031 12.2692 173.963 31.1886L246.712 103.872C265.645 122.791 264.6 154.649 244.379 174.885L237.861 181.407C208.529 138.263 185.984 90.3636 96.4372 40.1024Z" fill="#231F20"/>
</g>
<path d="M84.7324 -57.5364C74.1582 -47.9117 62.552 -36.7737 60.8311 -25.3052C60.4025 -22.4294 57.8847 -20.3387 54.9853 -20.5622L35.306 -27.1752C34.2637 -27.1475 33.3012 -26.7894 32.5171 -26.1906C31.923 -25.4066 31.5614 -24.4445 31.5383 -23.4024L38.1684 -3.72775C38.3949 -0.82701 36.3085 1.69266 33.4307 2.12077C21.9605 3.85363 10.8322 15.468 1.21797 26.0491C-0.0315326 27.4261 1.5866 29.4867 3.22599 28.6121C16.7987 21.3545 35.5447 22.9024 45.7511 24.4838C47.5479 24.7629 49.3674 24.2034 50.6473 22.9179L66.1442 7.40718L81.641 -8.10352C82.925 -9.38542 83.4836 -11.2111 83.1998 -13.0045C81.6092 -23.2104 80.0437 -41.9565 87.2887 -55.5349C88.1665 -57.1734 86.0966 -58.7931 84.724 -57.5436L84.7324 -57.5364Z" fill="#009444"/>
<path d="M102.015 -40.2684C91.4411 -30.6436 79.835 -19.5056 78.114 -8.03713C77.6854 -5.16133 75.1677 -3.07068 72.2683 -3.29411L52.5889 -9.90714C51.5467 -9.87943 50.5841 -9.52135 49.8001 -8.9225C49.206 -8.13849 48.8444 -7.17644 48.8212 -6.1343L55.4514 13.5403C55.6779 16.4411 53.5914 18.9607 50.7137 19.3888C39.2435 21.1217 28.1152 32.736 18.5009 43.3171C17.2514 44.6942 18.8696 46.7547 20.509 45.8802C34.0816 38.6226 51.9436 39.2867 62.1542 40.8716C63.9509 41.1508 65.7705 40.5912 67.0504 39.3057L82.5472 23.795L98.0441 8.28433C99.3281 7.00243 99.8867 5.17679 99.6029 3.38335C98.0123 -6.82252 97.3267 -24.6884 104.576 -38.2632C105.454 -39.9017 103.384 -41.5214 102.011 -40.272L102.015 -40.2684Z" fill="#39B54A"/>
<path d="M118.358 -22.1433C107.784 -12.5186 96.1774 -1.38057 94.4564 10.0879C94.0278 12.9637 91.5101 15.0544 88.6107 14.831L68.9313 8.21793C67.8891 8.24564 66.9265 8.60371 66.1425 9.20256C65.5484 9.98657 65.1868 10.9486 65.1636 11.9908L71.7938 31.6654C72.0203 34.5661 69.9338 37.0858 67.0561 37.5139C55.5859 39.2468 44.4576 50.8611 34.8433 61.4422C33.5938 62.8193 35.212 64.8798 36.8514 64.0053C50.424 56.7477 62.9941 52.1197 73.2011 53.7088C74.9978 53.988 76.8174 53.4284 78.0973 52.1429L93.5941 36.6323L109.091 21.1216C110.375 19.8397 110.934 18.014 110.65 16.2206C109.059 6.01469 113.669 -6.56333 120.918 -20.1382C121.796 -21.7767 119.726 -23.3964 118.354 -22.1469L118.358 -22.1433Z" fill="#009444"/>
<path d="M68.2577 42.0386C66.1267 41.9959 64.0084 42.3276 61.9548 42.897C60.9188 43.1629 59.9227 43.543 58.926 43.9154C57.9401 44.3261 56.9773 44.7859 56.0283 45.272L54.6415 46.0727C54.19 46.361 53.7331 46.6301 53.2941 46.9292C52.4298 47.5536 51.5566 48.1631 50.7611 48.8684C49.1436 50.2419 47.6641 51.785 46.4458 53.5235L46.5306 53.6109C49.5801 50.7918 52.9396 48.2974 56.6153 46.3659C60.26 44.3859 64.2042 42.9543 68.2862 42.1577L68.2613 42.0345L68.2577 42.0386Z" fill="white"/>
<path d="M98.4874 21.8973C96.6362 23.1281 94.929 24.5044 93.2774 25.9431C92.4346 26.6442 91.6509 27.4034 90.8415 28.1332L88.4904 30.4108C87.736 31.1951 86.9654 31.9729 86.2193 32.7644C85.4906 33.5782 84.7362 34.3625 84.0331 35.2056C82.6049 36.8582 81.2239 38.5659 79.9904 40.415L80.0794 40.5061L89.3745 31.2946L98.5769 21.9962L98.4879 21.9051L98.4874 21.8973Z" fill="white"/>
<path d="M44.5851 34.1817C42.4387 34.0384 40.283 34.1852 38.1424 34.5343C37.6051 34.6178 37.0677 34.7014 36.5416 34.831C36.0066 34.9456 35.4757 35.0639 34.9467 35.2054C34.417 35.3392 33.8933 35.5 33.3665 35.6726C32.8434 35.8411 32.316 36.0061 31.7988 36.2015C31.2858 36.4005 30.7692 36.6037 30.2663 36.8333C29.7592 37.0592 29.2468 37.2661 28.7582 37.5297C28.2654 37.7898 27.7679 38.0385 27.293 38.3286C26.8092 38.6036 26.3296 38.8823 25.8732 39.21C24.0179 40.4372 22.301 41.8925 20.8978 43.6175L20.9754 43.7134C24.3317 40.9689 28.171 38.8725 32.1906 37.404C36.202 35.8774 40.3913 34.9476 44.5915 34.3181L44.5779 34.1901L44.5851 34.1817Z" fill="white"/>
<path d="M60.8305 25.956C60.3719 27.3439 60.067 28.7476 59.555 29.8422C59.4224 30.1064 59.2718 30.3407 59.1399 30.511C59.0081 30.6305 58.8835 30.7415 58.653 30.8489C58.2285 31.0803 57.6335 31.2816 57.0183 31.4219C56.4066 31.6088 55.7465 31.725 55.0846 31.8688C54.4203 32.0323 53.7441 32.1419 53.0654 32.3222C51.705 32.6437 50.3296 33.0251 48.9706 33.6243L48.9764 33.7529L53.129 33.3226C54.5131 33.1596 55.9013 33.0002 57.2796 32.6577C57.9619 32.4733 58.6491 32.2494 59.2683 31.8507C59.5827 31.6628 59.8517 31.3922 60.0676 31.0904C60.2673 30.782 60.406 30.443 60.5172 30.1021C60.9339 28.7291 60.957 27.3233 60.9621 25.9383L60.8335 25.9441L60.8305 25.956Z" fill="white"/>
<path d="M74.2806 3.47712C71.9392 2.9261 69.5478 2.64482 67.0889 2.66197C65.8601 2.6529 64.6173 2.77004 63.3259 3.01992C62.6789 3.15473 62.0253 3.35654 61.3362 3.70965C60.9961 3.86826 60.6397 4.12197 60.2989 4.42537C60.1365 4.60579 59.9513 4.79576 59.8284 4.98103C59.721 5.16513 59.6136 5.34924 59.514 5.53275C59.209 6.25977 59.0464 6.9565 58.9628 7.61207C58.8721 8.276 58.8256 8.90531 58.8264 9.53887C58.8425 10.7893 58.9106 12.0045 59.0751 13.2006C59.3765 15.5912 59.8569 17.9174 60.512 20.2265L60.6395 20.2052C60.4451 17.8339 60.2119 15.4656 60.0797 13.0897C60.0175 11.9015 59.9787 10.7115 60.0296 9.51859C60.0852 8.3371 60.1966 7.11621 60.6703 6.03229C60.8985 5.47924 61.3418 5.08208 61.8771 4.81488C62.3992 4.52912 62.9762 4.34873 63.5598 4.20305C64.7232 3.91588 65.9212 3.77474 67.1107 3.67726C69.4986 3.49727 71.8869 3.52847 74.2714 3.6147L74.2854 3.48849L74.2806 3.47712Z" fill="white"/>
<path d="M86.3866 4.57504C85.843 4.05671 85.253 3.75308 84.6455 3.52899C84.0446 3.28875 83.4166 3.15617 82.7778 3.08698C82.1431 3.02139 81.4976 3.0192 80.8328 3.12407C80.1745 3.2128 79.5066 3.38048 78.812 3.76529L78.7945 3.89569C80.0488 4.08667 81.3055 4.20706 82.5652 4.36635C83.8292 4.47837 85.0841 4.62628 86.3535 4.70661L86.3752 4.57982L86.3866 4.57504Z" fill="white"/>
<path d="M28.3662 17.3849C26.227 17.2332 24.0826 17.3753 21.9487 17.7082C21.4149 17.7876 20.8776 17.8711 20.3551 17.9966C19.8278 18.1106 19.2964 18.2211 18.7673 18.3626C18.2412 18.4923 17.7175 18.653 17.198 18.8173C16.6784 18.9816 16.1547 19.1423 15.6453 19.3372C15.1322 19.5362 14.6228 19.7311 14.1199 19.9606C13.6164 20.1824 13.1076 20.385 12.619 20.6487C12.1298 20.9046 11.6401 21.1527 11.1646 21.435C10.6844 21.7059 10.2083 21.9803 9.75555 22.3039C7.91102 23.5185 6.20494 24.9613 4.81612 26.6696L4.89375 26.7655C8.22071 24.0467 12.0384 21.9754 16.0359 20.5242C20.0256 19.0227 24.1892 18.1143 28.375 17.5016L28.3614 17.3735L28.3662 17.3849Z" fill="white"/>
<path d="M44.5134 9.2566C44.062 10.6361 43.7643 12.0314 43.2601 13.1254C43.1274 13.3897 42.9805 13.6198 42.8486 13.7901C42.7168 13.9095 42.5922 14.0206 42.3617 14.128C41.945 14.3588 41.3494 14.5524 40.7342 14.6926C40.126 14.8753 39.466 14.9916 38.8077 15.1312C38.1511 15.2941 37.4707 15.4001 36.7998 15.5798C35.4508 15.8966 34.0784 16.266 32.7308 16.8604L32.7366 16.989L36.8712 16.5796C38.2481 16.4249 39.6327 16.2697 40.9997 15.932C41.6784 15.7518 42.3578 15.5285 42.9776 15.1376C43.2884 14.9538 43.5574 14.6832 43.7732 14.3814C43.9729 14.073 44.1081 13.7382 44.2157 13.4015C44.6252 12.0369 44.6447 10.6352 44.6384 9.255L44.5098 9.26078L44.5134 9.2566Z" fill="white"/>
<path d="M57.8101 -13.0777C55.476 -13.6371 53.0917 -13.9268 50.6436 -13.9222C49.4184 -13.9354 48.1792 -13.8225 46.8949 -13.5809C46.2516 -13.4503 45.6016 -13.2527 44.916 -12.9038C44.5802 -12.7415 44.2232 -12.4956 43.8859 -12.1964C43.7271 -12.0202 43.542 -11.8302 43.419 -11.6449C43.3153 -11.465 43.2079 -11.2809 43.1125 -11.0938C42.811 -10.371 42.652 -9.6784 42.572 -9.02702C42.4849 -8.36726 42.4426 -7.73437 42.4429 -7.10858C42.4625 -5.86236 42.5342 -4.65136 42.71 -3.45994C43.0187 -1.07777 43.5063 1.24006 44.1686 3.54082L44.2925 3.52366C44.0909 1.1608 43.8427 -1.19855 43.7075 -3.5625C43.6417 -4.74657 43.5993 -5.9324 43.6388 -7.1205C43.6909 -8.2978 43.795 -9.51032 44.261 -10.5937C44.4856 -11.1425 44.9253 -11.5355 45.4528 -11.8021C45.9713 -12.0837 46.5483 -12.2641 47.1205 -12.405C48.2803 -12.688 49.4669 -12.8244 50.657 -12.9141C53.0378 -13.0857 55.4152 -13.0419 57.7848 -12.9468L57.7987 -13.073L57.8101 -13.0777Z" fill="white"/>
<g style="mix-blend-mode:overlay" opacity="0.5">
<path d="M4.49661 25.1801C8.74255 20.4872 24.9707 2.84843 41.5596 4.31639L36.4229 -19.4133C36.0629 -21.0759 37.5961 -22.5291 39.2419 -22.0743L53.9063 -18.0128C58.2272 -17.7674 62.4213 -19.5151 65.2902 -22.7587L73.2904 -31.8179C73.4314 -32.4386 74.3091 -32.4696 74.4918 -31.8615L76.8516 -24.2168C78.0374 -20.3675 77.7558 -16.216 76.0559 -12.5638C74.1741 -8.52242 69.6671 -6.4109 65.3565 -7.55664L51.73 -11.184C49.5467 -11.7664 47.4792 -9.92877 47.7965 -7.69196L50.2525 9.68845C50.8644 14.019 47.8131 18.0078 43.4761 18.5341C28.817 20.304 15.4985 22.6299 5.16214 26.1742C4.55578 26.3803 4.0747 25.6538 4.50438 25.1795L4.49661 25.1801Z" fill="white"/>
</g>
<g style="mix-blend-mode:overlay" opacity="0.5">
<path d="M20.9207 41.5858C25.1666 36.893 41.3948 19.2542 57.9837 20.7222L52.847 -3.00759C52.487 -4.67013 54.0202 -6.12335 55.6659 -5.66852L70.3304 -1.60705C74.6513 -1.36168 78.849 -3.11352 81.7143 -6.3529L89.7145 -15.4121C89.8554 -16.0329 90.7331 -16.0638 90.9159 -15.4557L93.2756 -7.81102C94.4614 -3.96175 94.1799 0.18978 92.4799 3.84197C90.5981 7.88335 86.0912 9.99486 81.7806 8.84913L68.1541 5.2218C65.9707 4.63932 63.9033 6.47699 64.2205 8.7138L66.6766 26.0942C67.2885 30.4248 64.2372 34.4135 59.9001 34.9399C45.2411 36.7097 31.9225 39.0356 21.5862 42.58C20.9799 42.786 20.4988 42.0596 20.9285 41.5852L20.9207 41.5858Z" fill="white"/>
</g>
<g style="mix-blend-mode:overlay" opacity="0.5">
<path d="M39.8619 58.9558C39.5181 59.2203 39.0773 58.7685 39.353 58.4309C43.8695 52.865 55.2289 40.7365 69.2097 39.6201C72.4563 39.3637 74.8156 36.4167 74.4425 33.1789C73.874 28.231 70.9917 19.5696 69.2559 14.651C68.7049 13.1006 70.1192 11.5743 71.7111 11.9901C77.262 13.453 87.5284 16.039 92.9263 16.6139C95.8244 16.9234 98.5944 15.3262 99.7699 12.6561L104.572 1.79243C104.872 1.11266 105.883 1.28292 105.942 2.02546L107.051 15.4397C107.243 17.729 106.416 19.9855 104.791 21.6139L78.0883 48.338C76.3351 50.0894 73.8922 50.9424 71.4248 50.6903C64.9526 50.0282 50.0575 51.2096 39.8583 58.9599L39.8619 58.9558Z" fill="white"/>
</g>
<g style="mix-blend-mode:overlay" opacity="0.3">
<path d="M32.2981 -23.4401C32.1703 -23.9937 33.4798 -25.8212 33.5303 -25.2539C35.5621 -3.12453 78.6683 39.5838 92.4198 34.3349C93.5452 33.9059 75.2608 51.508 75.2608 51.508C75.2608 51.508 61.2109 44.6506 36.3534 60.3036C36.3534 60.3036 54.0087 40.5821 63.6439 38.5299C63.6439 38.5299 31.9973 35.5138 20.3433 44.3047C20.3433 44.3047 33.8593 28.0437 41.3811 23.8471C41.3811 23.8471 23.2002 17.0311 3.34821 27.3278C3.34821 27.3278 16.3121 11.7343 36.8298 3.83585C39.3195 2.87767 40.7146 0.214547 40.1173 -2.3649L32.2981 -23.4401Z" fill="white"/>
</g>
<g style="mix-blend-mode:overlay" opacity="0.3">
<path d="M35.0231 -26.1526C34.4657 -26.2827 32.6318 -24.9789 33.2073 -24.9206C55.5228 -22.7187 98.9326 21.0072 93.7639 34.8359C93.3409 35.9708 110.923 17.6628 110.923 17.6628C110.923 17.6628 103.891 3.45512 119.452 -21.4865C119.452 -21.4865 99.7283 -3.8268 97.7445 5.86624C97.7445 5.86624 94.4355 -26.0468 103.192 -37.7288C103.192 -37.7288 86.9191 -24.2169 82.7555 -16.6672C82.7555 -16.6672 75.7308 -35.037 85.935 -54.9675C85.935 -54.9675 70.3357 -42.0109 62.5498 -21.3905C61.6078 -18.8906 58.9315 -17.5038 56.3306 -18.1252L35.0231 -26.1526Z" fill="black"/>
</g>
</g>
</g>
<defs>
<clipPath id="clip0_2378_20778">
<rect width="169" height="217" fill="white"/>
</clipPath>
<clipPath id="clip1_2378_20778">
<rect width="143.961" height="295.72" fill="white" transform="translate(-22.7073 38.0374) rotate(-49.3105)"/>
</clipPath>
</defs>
</svg>
