<svg width="161" height="219" viewBox="0 0 161 219" fill="none" xmlns="http://www.w3.org/2000/svg">
<g clip-path="url(#clip0_2378_20675)">
<g clip-path="url(#clip1_2378_20675)">
<path d="M100.739 260.162C97.194 256.848 95.6081 252.222 96.0307 247.73C96.2351 245.536 94.3106 243.668 92.1426 244.047C92.0914 244.056 92.0403 244.066 91.9891 244.075C85.4267 245.148 78.7558 241.759 75.8819 235.754C73.6264 231.041 74.0317 225.809 76.4287 221.657C77.5241 219.764 76.5359 217.421 74.4166 216.908C74.3514 216.896 74.289 216.876 74.2238 216.864C67.7859 215.22 63.0361 209.447 62.8 202.794C62.6092 197.524 65.1138 192.851 69.0149 190.013C70.7793 188.734 70.8123 186.174 69.0849 184.848C69.0378 184.812 68.9906 184.776 68.9501 184.742C63.7344 180.624 61.7378 173.41 64.2192 167.232C66.1088 162.527 70.313 159.027 75.2861 158.049C76.7553 157.759 79.2809 158.205 78.8328 156.12C78.5448 154.791 77.3827 153.773 76.8207 152.569C75.8838 150.579 75.3974 148.383 75.388 146.175C75.3805 141.787 77.3208 137.546 80.6552 134.674C81.519 133.932 81.5991 132.605 80.849 131.744C72.6933 122.371 63.0252 114.04 51.9343 107.161C-7.89314 70.021 -87.2098 88.9621 -123.829 149.18C-160.587 209.628 -141.195 288.416 -80.7256 324.835C-20.4824 361.125 57.7251 341.607 93.9492 281.249C97.2098 275.811 100.017 270.223 102.386 264.538C102.952 263.179 102.494 261.641 101.369 260.703C101.156 260.524 100.952 260.341 100.742 260.155L100.739 260.162ZM-36.0447 258.907C-63.0746 245.748 -71.6121 211.404 -53.896 187.079C-40.3217 168.43 -14.9594 162.105 5.76534 172.191C32.7952 185.35 41.3328 219.694 23.6166 244.019C10.0423 262.667 -15.32 268.992 -36.0447 258.907Z" fill="#62BFED"/>
<path fill-rule="evenodd" clip-rule="evenodd" d="M-24.8579 130.08L-1.87311 116.892C-8.49706 98.2487 -4.35722 76.6291 10.5464 61.7059C31.1821 41.0432 64.6391 41.0432 85.2748 61.7059C100.29 76.7409 104.38 98.5733 97.5436 117.311L105.031 121.607C108.383 123.295 111.687 125.145 114.934 127.161C115.652 127.606 116.363 128.057 117.069 128.514L119.798 130.08C120.622 130.553 121.346 131.15 121.953 131.84C130.15 137.705 137.463 144.405 143.849 151.744C144.599 152.605 144.519 153.932 143.655 154.674C140.321 157.546 138.381 161.787 138.388 166.175C138.397 168.383 138.884 170.579 139.821 172.568C140.046 173.051 140.368 173.504 140.691 173.959C141.174 174.639 141.66 175.324 141.833 176.12C142.179 177.729 140.753 177.831 139.409 177.927C139.012 177.955 138.621 177.983 138.286 178.049C133.313 179.027 129.109 182.527 127.219 187.232C124.738 193.41 126.734 200.624 131.95 204.742C131.99 204.776 132.037 204.812 132.084 204.848L132.085 204.848C133.812 206.174 133.779 208.734 132.015 210.013C128.114 212.851 125.609 217.524 125.8 222.794C126.036 229.447 130.786 235.22 137.224 236.864C137.259 236.87 137.293 236.879 137.327 236.888C137.357 236.895 137.386 236.902 137.417 236.908C139.536 237.421 140.524 239.764 139.429 241.656C137.032 245.809 136.626 251.041 138.882 255.754C141.756 261.759 148.427 265.148 154.989 264.075L155.143 264.047C157.311 263.668 159.235 265.536 159.031 267.73C158.608 272.222 160.194 276.848 163.739 280.162L163.864 280.272C164.031 280.42 164.195 280.566 164.366 280.71C165.492 281.648 165.949 283.185 165.383 284.545L165.386 284.538C163.017 290.223 160.21 295.811 156.949 301.249C139.052 331.071 110.905 350.923 79.7405 359L79.1911 377.031L81.7987 399.292C81.8359 399.612 81.8583 399.926 81.8583 400.239V406.67C81.8583 407.501 81.1468 408.18 80.3496 408.18C79.5524 408.18 78.9154 407.557 78.8595 406.774C78.8559 406.776 78.8504 406.78 78.8458 406.783L78.8372 406.789V408.091C78.8372 408.952 78.1406 409.654 77.2764 409.654C76.5537 409.654 75.9688 409.15 75.7937 408.479V409.213C75.7937 410.194 75.0003 410.989 74.0206 410.989C73.0409 410.989 72.2474 410.194 72.2474 409.213V410.306C72.2474 411.601 71.1969 412.653 69.9043 412.653C68.6117 412.653 67.5612 411.601 67.5612 410.306V408.826L68.6378 386.02L67.9784 385.36C65.978 383.357 65.978 380.116 67.9784 378.113L69.0587 377.031L66.506 361.693C54.1533 363.533 41.499 363.567 28.9643 361.688L26.4094 377.038L27.4897 378.12C29.4901 380.123 29.4901 383.365 27.4897 385.368L26.8341 386.024L27.9107 408.829V410.31C27.9107 411.604 26.8602 412.656 25.5676 412.656C24.2749 412.656 23.2245 411.604 23.2245 410.31V409.217C23.2245 410.198 22.431 410.993 21.4513 410.993C20.4716 410.993 19.6781 410.198 19.6781 409.217V408.482C19.503 409.154 18.9219 409.657 18.1955 409.657C17.335 409.657 16.6347 408.96 16.6347 408.094V406.796C16.631 406.793 16.6272 406.79 16.6235 406.787C16.6198 406.784 16.6161 406.781 16.6123 406.778C16.5527 407.561 15.9567 408.184 15.1223 408.184C14.2879 408.184 13.6136 407.509 13.6136 406.673V400.243C13.6173 399.929 13.636 399.612 13.6732 399.295L16.2808 377.035L15.7304 358.972C4.23576 355.964 -7.0281 351.279 -17.7255 344.835C-78.1952 308.416 -97.5872 229.628 -60.8289 169.18C-52.049 154.742 -40.8147 142.677 -27.983 133.189C-27.2456 131.92 -26.18 130.839 -24.8579 130.08ZM120.029 144.743C120.591 144.397 121.107 143.989 121.568 143.53C123.043 144.714 124.489 145.932 125.904 147.183C124.026 146.342 122.056 145.547 120.029 144.743ZM-23.7473 145.415C-24.676 145.048 -25.5155 144.529 -26.2407 143.892C-34.5802 150.632 -42.0995 158.609 -48.5 167.749C-45.784 165.728 -42.7661 163.867 -39.6709 161.958L-39.6223 161.928C-35.3359 159.29 -30.9063 156.556 -27.1183 153.237C-25.1719 151.53 -23.0034 149.071 -20.9093 146.535L-23.7473 145.415ZM64.7071 350.884L64.9287 352.216C57.7573 353.275 50.4776 353.678 43.1862 353.4C47.2118 352.352 51.3219 351.391 55.4312 351.003C58.4988 350.713 61.612 350.738 64.7071 350.884ZM53.7477 283.3C49.778 283.797 45.7378 283.804 41.7267 283.296L47.7358 265.701L47.7341 265.7L47.7361 265.698L53.7477 283.3ZM18.8845 238.68L18.8812 238.677C18.8812 227.821 19.5328 218.012 20.1676 208.457L20.1677 208.455C20.453 204.16 20.7348 199.917 20.9526 195.653C16.4584 198.681 12.4295 202.507 9.10691 207.072C-6.1887 228.073 -1.91451 256.543 16.9345 272.399L18.8845 238.68ZM76.5872 238.674L76.5835 238.677C76.5835 228.031 75.9388 218.294 75.3078 208.763V208.763L75.3077 208.763L75.3076 208.76C75.0128 204.307 74.7209 199.9 74.4992 195.465C96.9247 210.406 103.016 241.5 86.6196 264.012C84.2576 267.257 81.5387 270.129 78.5495 272.606L76.5872 238.674ZM-21.1828 331.107C-18.4945 333.054 -15.7026 334.903 -12.809 336.646C-9.92104 338.385 -6.98771 339.986 -4.01684 341.45C-6.60238 339.338 -9.29156 337.308 -12.1697 335.57C-15.051 333.83 -18.1052 332.403 -21.1828 331.107ZM-53.8486 294.939C-58.4616 286.979 -62.1144 278.529 -64.7588 269.782C-62.1122 273.993 -59.4056 278.349 -57.4756 282.98C-55.8892 286.795 -54.809 290.886 -53.8486 294.939ZM-69.7959 231.565C-69.353 230.466 -68.8951 229.359 -68.4335 228.242C-66.446 223.439 -64.3963 218.473 -63.1888 213.331C-62.0371 208.426 -61.7074 203.227 -61.3883 198.197L-61.3878 198.189L-61.3838 198.125C-61.2047 195.316 -61.0291 192.56 -60.7234 189.905C-66.3787 203.385 -69.3455 217.502 -69.7959 231.565ZM106.497 337.821C118.717 330.816 129.8 321.548 139.05 310.189C136.836 311.719 134.468 313.179 132.054 314.668L132.053 314.669L132.053 314.669L132.053 314.669L132.052 314.669L132.004 314.699C127.717 317.337 123.288 320.071 119.5 323.39C115.533 326.868 112.119 331.012 108.817 335.023L108.792 335.052L108.79 335.056C108.021 335.988 107.258 336.913 106.497 337.821ZM152.794 289.065C153.531 287.616 154.238 286.152 154.916 284.676C154.403 284.045 153.923 283.393 153.479 282.722C153.313 284.893 153.106 287.015 152.794 289.065Z" fill="#62BFED"/>
</g>
<g clip-path="url(#clip2_2378_20675)">
<path d="M179.251 318.044C174.669 313.77 172.62 307.803 173.166 302.008C173.43 299.178 170.943 296.768 168.142 297.258C168.075 297.27 168.009 297.282 167.943 297.293C159.463 298.678 150.842 294.306 147.128 286.56C144.214 280.481 144.738 273.733 147.835 268.376C149.251 265.934 147.974 262.912 145.235 262.251C145.151 262.235 145.07 262.21 144.986 262.194C136.666 260.074 130.528 252.627 130.223 244.046C129.977 237.247 133.213 231.22 138.255 227.56C140.535 225.91 140.577 222.608 138.345 220.897C138.284 220.851 138.223 220.804 138.171 220.761C131.431 215.448 128.851 206.144 132.057 198.174C134.499 192.106 139.932 187.59 146.359 186.329C148.257 185.955 151.521 186.53 150.942 183.841C150.57 182.126 149.068 180.814 148.342 179.26C147.131 176.693 146.502 173.862 146.49 171.013C146.48 165.353 148.988 159.882 153.297 156.179C154.413 155.221 154.517 153.51 153.547 152.398C143.008 140.308 130.514 129.562 116.182 120.689C38.869 72.7825 -63.629 97.2145 -110.951 174.889C-158.452 252.86 -133.392 354.488 -55.2496 401.466C22.6004 448.276 123.665 423.099 170.476 345.244C174.69 338.23 178.317 331.021 181.379 323.689C182.11 321.935 181.519 319.952 180.064 318.742C179.789 318.511 179.526 318.275 179.255 318.035L179.251 318.044ZM2.48981 316.425C-32.4399 299.451 -43.4727 255.151 -20.5788 223.774C-3.03716 199.72 29.7376 191.561 56.5194 204.57C91.4491 221.544 102.482 265.844 79.588 297.221C62.0463 321.275 29.2716 329.434 2.48981 316.425Z" fill="#FFDE17"/>
<path d="M-17.5807 412.856C-22.3536 409.982 -26.9187 406.091 -31.7554 401.96C-36.8721 397.585 -42.1631 393.074 -48.0701 389.514C-53.9771 385.955 -60.4466 383.409 -66.7074 380.945C-72.619 378.612 -78.2023 376.411 -82.9752 373.536C-86.1958 371.6 -88.7176 369.55 -90.6891 367.263C-96.5051 360.523 -98.7255 350.928 -101.077 340.769C-102.553 334.37 -104.087 327.754 -106.617 321.68C-109.19 315.516 -112.832 309.731 -116.354 304.14C-121.866 295.39 -127.072 287.129 -127.795 278.366C-128.508 269.741 -124.752 260.669 -120.778 251.073C-118.209 244.877 -115.561 238.472 -114 231.839C-112.511 225.51 -112.085 218.8 -111.673 212.308C-111.004 201.835 -110.383 191.94 -105.652 184.084C-100.93 176.224 -92.4839 171.036 -83.546 165.535C-78.007 162.132 -72.2827 158.606 -67.3876 154.324C-62.2616 149.838 -55.9436 141.32 -51.6766 136.146C-45.0602 128.134 -38.8201 120.567 -30.8669 117.146C-22.7911 113.677 -13.0538 114.402 -2.74303 115.162C3.8488 115.648 10.6631 116.16 17.3116 115.533C23.8646 114.916 30.4194 113.172 36.7684 111.482C46.8425 108.788 56.3618 106.25 65.0365 108.23C67.9843 108.9 70.9769 110.169 74.1889 112.102C78.9619 114.977 83.5355 118.872 88.3636 122.999C93.4804 127.373 98.7714 131.884 104.678 135.444C110.581 138.992 114.946 140.278 121.204 142.751C127.115 145.085 132.698 147.285 137.471 150.16C140.515 151.989 142.935 153.923 144.86 156.059C143.706 159.092 143.1 162.311 143.091 165.536C143.076 169.125 144.011 177.166 145.394 180.437C137.892 182.866 131.61 188.658 128.606 196.066C124.456 206.327 127.151 218.149 135.114 225.556C129.115 230.862 125.74 238.586 125.989 246.665C126.269 255.631 131.047 263.757 138.768 268.399C140.394 269.379 142.122 270.17 143.919 270.778C140.572 277.996 140.55 286.323 143.955 293.518C146.131 298.119 149.612 301.956 154.023 304.612C157.946 306.965 162.392 308.256 166.904 308.387C166.684 310.881 166.526 313.372 166.367 315.82C165.698 326.294 165.077 336.188 160.346 344.044C155.624 351.904 147.178 357.092 138.24 362.593C132.701 365.996 126.977 369.522 122.082 373.804C116.956 378.29 112.543 383.635 108.276 388.809C101.66 396.821 95.4198 404.387 87.4666 407.809C79.3908 411.278 69.6535 410.553 59.3427 409.793C52.7509 409.307 45.9366 408.795 39.2881 409.422C32.7351 410.039 26.1803 411.782 19.8313 413.473C9.75725 416.166 0.237955 418.704 -8.43678 416.725C-11.3846 416.054 -14.3772 414.785 -17.5892 412.853L-17.5807 412.856ZM63.5512 203.856C61.7318 202.762 59.824 201.73 57.9048 200.795C27.205 185.912 -8.94266 194.333 -26.3638 224.166C-33.064 235.645 -40.8343 249.94 -37.1356 269.6C-33.4093 289.384 -21.4784 306.617 -4.40113 316.885C-2.5817 317.98 -0.673928 319.011 1.24532 319.946C31.945 334.829 76.2058 320.234 86.238 297.316C93.3708 281.029 100.619 269.737 96.9168 250.085C93.1906 230.302 80.6285 214.124 63.5512 203.856Z" fill="#FF3F73"/>
<path d="M56.9384 133.592C56.6407 132.407 57.3643 131.208 58.5495 130.91L76.5935 126.418C77.7788 126.12 78.9775 126.844 79.2751 128.029C79.5728 129.214 78.8492 130.413 77.6639 130.711L59.6199 135.203C58.4347 135.501 57.236 134.777 56.9384 133.592Z" fill="#00A14B"/>
<path d="M104.36 173.475C103.147 173.324 102.286 172.219 102.434 171.014L104.693 152.55C104.845 151.337 105.95 150.476 107.155 150.623C108.368 150.775 109.229 151.879 109.081 153.085L106.821 171.549C106.67 172.762 105.565 173.623 104.36 173.475Z" fill="#00AEEF"/>
<path d="M61.3677 180.589C60.1493 180.66 59.102 179.728 59.032 178.509L57.9367 159.939C57.8667 158.72 58.7987 157.673 60.017 157.603C61.2354 157.533 62.2827 158.465 62.3613 159.687L63.4566 178.257C63.5267 179.476 62.5947 180.523 61.3726 180.602L61.3677 180.589Z" fill="#FFF200"/>
<path d="M106.109 210.394C105.326 211.333 103.931 211.458 102.992 210.675L88.7316 198.736C87.7925 197.952 87.667 196.558 88.4505 195.618C89.234 194.679 90.6288 194.554 91.5679 195.337L105.828 207.276C106.767 208.06 106.893 209.454 106.109 210.394Z" fill="#ED1C24"/>
<path d="M28.3509 179.251C27.8051 180.344 26.4736 180.792 25.3842 180.237L8.75754 171.901C7.66438 171.355 7.21701 170.024 7.7713 168.934C8.31706 167.841 9.64854 167.394 10.738 167.948L27.3646 176.284C28.4578 176.83 28.9052 178.161 28.3509 179.251Z" fill="#00AEEF"/>
<path d="M19.2023 140.409C18.2632 139.626 18.1377 138.231 18.9212 137.292L30.8603 123.031C31.6438 122.091 33.0386 121.966 33.9777 122.749C34.9169 123.533 35.0423 124.928 34.2588 125.867L22.3197 140.128C21.5362 141.067 20.1329 141.189 19.2023 140.409Z" fill="#ED1C24"/>
<g style="mix-blend-mode:overlay" opacity="0.5">
<path d="M134.455 307.072C135.804 307.566 136.551 309.028 136.137 310.402C132.689 321.709 127.291 332.505 120.44 342.436C116.766 347.766 112.551 352.749 107.968 357.41C103.381 362.059 98.4147 366.412 93.0556 370.289C71.6619 385.817 44.5787 394.244 17.1364 393.325C3.41569 392.912 -10.324 390.063 -23.3751 385.138C-29.9073 382.667 -36.1784 379.548 -42.2459 376.03C-48.3207 372.53 -54.0943 368.428 -59.5442 363.909C-70.4452 354.851 -79.8216 343.824 -87.2672 331.554C-94.6686 319.252 -100.004 305.654 -103.152 291.483C-104.691 284.387 -105.674 277.157 -106.16 269.858C-106.646 262.56 -106.628 255.175 -105.9 247.815C-105.204 240.461 -103.979 233.103 -102.123 225.857C-100.24 218.622 -97.6861 211.547 -94.6413 204.675C-93.8358 202.983 -93.0743 201.253 -92.2005 199.591L-89.5413 194.613C-87.6133 191.388 -85.7168 188.119 -83.4923 185.054C-79.1678 178.859 -74.3006 172.981 -68.8163 167.716C-63.3672 162.416 -57.4144 157.639 -51.0877 153.451C-44.7525 149.266 -37.995 145.793 -31.0542 142.856C-17.1448 137.036 -2.27712 133.896 12.49 133.372C19.8695 133.073 27.2479 133.525 34.4702 134.64C36.2766 134.876 38.0715 135.209 39.8553 135.567C41.6428 135.917 43.4195 136.221 45.1733 136.719C46.926 137.195 48.6827 137.593 50.4142 138.141L55.5661 139.769C69.1277 144.571 81.6402 151.649 91.982 160.78C97.1924 165.266 101.888 170.259 105.969 175.616C109.502 180.247 112.599 185.135 115.082 190.265C115.763 191.667 115.432 193.341 114.252 194.352C113.136 195.309 111.536 195.417 110.285 194.65C100.304 188.57 90.3867 183.746 80.2163 180.488C69.4497 176.849 58.633 174.985 48.1352 174.468C27.0911 173.617 7.10592 178.698 -9.61701 188.262L-11.2012 189.128L-12.7307 190.079C-13.7427 190.726 -14.7923 191.295 -15.7594 192.003C-16.7312 192.698 -17.7492 193.312 -18.7259 193.994L-21.6074 196.094C-25.3902 198.96 -28.9906 202.037 -32.4144 205.293C-35.8554 208.54 -39.0481 212.059 -42.0644 215.755C-45.0892 219.448 -47.9695 223.345 -50.4657 227.481C-55.6386 235.653 -59.561 244.733 -61.9001 254.4C-64.2648 264.055 -64.8259 274.28 -63.6046 284.376C-61.0335 304.552 -51.8156 324.222 -37.0441 339.216C-22.3895 354.362 -2.42443 365.041 19.3041 368.292C41.0202 371.852 64.35 367.837 84.6195 356.98C89.7003 354.281 94.5461 351.095 99.16 347.554C103.774 344.013 108.141 340.081 112.137 335.744C116.142 331.431 119.927 326.829 123.258 321.869C126.131 317.592 128.741 313.1 131.054 308.428C131.674 307.164 133.131 306.568 134.442 307.056L134.455 307.072Z" fill="white"/>
</g>
<path d="M-93.4093 291.611C-101.667 268.56 -101.127 242.038 -91.7869 219.053C-87.1202 207.534 -80.1599 197.163 -72.364 187.743C-68.4258 183.046 -64.1903 178.6 -59.72 174.408C-55.184 170.275 -50.4532 166.348 -45.3832 162.832C-40.3534 159.269 -35.004 156.139 -29.4219 153.455C-23.8532 150.756 -18.0287 148.542 -12.0637 146.847C-6.0986 145.152 -0.0164142 143.772 6.15333 143.009C7.68692 142.751 9.23803 142.663 10.7895 142.504L13.1104 142.303L15.4369 142.206C16.9903 142.16 18.544 142.043 20.097 142.067C21.65 142.091 23.2093 142.078 24.7635 142.123C30.9709 142.442 37.1643 143.121 43.2574 144.335C49.3331 145.612 55.3064 147.312 61.1114 149.447C72.699 153.768 83.5612 159.946 93.0044 167.732L92.7175 168.136C72.0743 155.253 48.444 147.917 24.5929 147.38C12.6949 147.118 0.714306 148.263 -10.8376 151.32C-16.6267 152.797 -22.2934 154.763 -27.8126 157.068C-33.3269 159.385 -38.7813 161.962 -43.9216 165.102C-49.0449 168.249 -54.0484 171.681 -58.6057 175.653C-63.1582 179.637 -67.3506 184.031 -71.1251 188.748C-78.6279 198.265 -84.0465 209.224 -87.9538 220.515C-89.9899 226.139 -91.5803 231.907 -92.875 237.742C-93.5016 240.658 -94.0391 243.603 -94.4336 246.569C-94.8536 249.525 -95.2017 252.501 -95.3737 255.493C-96.2207 267.452 -95.2632 279.535 -92.9318 291.493L-93.4045 291.623L-93.4093 291.611Z" fill="white"/>
<g style="mix-blend-mode:overlay" opacity="0.3">
<path d="M181.375 323.698C182.106 321.944 181.515 319.961 180.061 318.751C179.785 318.519 179.522 318.283 179.251 318.044C174.669 313.77 172.62 307.803 173.166 302.008C173.43 299.178 170.943 296.768 168.142 297.258C168.075 297.27 168.009 297.282 167.943 297.293C159.463 298.678 150.842 294.306 147.128 286.56C144.214 280.481 144.738 273.733 147.835 268.376C149.251 265.934 147.974 262.912 145.235 262.251C145.151 262.235 145.07 262.21 144.986 262.194C136.666 260.074 130.528 252.627 130.223 244.046C129.977 237.247 133.213 231.22 138.255 227.56C140.535 225.91 140.577 222.608 138.345 220.897C138.284 220.851 138.223 220.804 138.171 220.761C131.431 215.448 128.851 206.144 132.057 198.174C134.499 192.106 139.932 187.59 146.359 186.329C148.257 185.955 151.521 186.53 150.942 183.841C150.57 182.126 149.068 180.814 148.342 179.26C147.131 176.693 146.502 173.862 146.49 171.013C146.48 165.353 148.988 159.882 153.297 156.179C154.413 155.221 154.517 153.51 153.547 152.398C143.008 140.308 130.514 129.562 116.182 120.689C38.869 72.7825 -63.629 97.2145 -110.951 174.889C-158.452 252.86 -133.392 354.488 -55.2496 401.466C22.6004 448.276 123.665 423.099 170.476 345.244C174.69 338.23 178.317 331.021 181.379 323.689L181.375 323.698ZM-48.8962 390.902C-120.797 347.671 -144.125 254.004 -100.904 182.104L-100.426 181.306C-57.0314 110.081 36.4356 87.1094 107.926 130.092C108.513 130.448 109.099 130.804 109.686 131.16C120.342 137.767 130.088 145.604 138.749 154.513C138.742 154.53 138.734 154.547 138.727 154.564C135.727 159.557 134.149 165.248 134.157 171.029C134.162 173.215 134.393 175.397 134.842 177.541C129.949 180.23 125.791 184.192 122.851 189.069C121.986 190.501 121.234 192.022 120.613 193.57C116.509 203.77 118.146 215.316 124.398 224.021C123.686 224.961 123.017 225.94 122.397 226.97C119.224 232.243 117.67 238.301 117.896 244.491C118.284 255.22 124.08 264.977 133.396 270.575C133.508 270.644 133.629 270.717 133.745 270.778C132.079 277.771 132.824 285.223 136.016 291.879C138.673 297.429 142.898 302.056 148.235 305.267C152.245 307.678 156.705 309.168 161.275 309.68C162.232 314.868 164.476 319.731 167.848 323.866C165.478 329.021 162.822 334.062 159.91 338.9C116.677 410.805 23.0127 434.137 -48.8962 390.902Z" fill="black"/>
</g>
<g style="mix-blend-mode:overlay" opacity="0.3">
<path d="M102.439 245.761C98.3018 225.312 85.7014 207.422 67.8656 196.703C65.9426 195.543 63.9445 194.462 61.9142 193.479C29.5504 177.751 -9.32804 187.433 -30.5319 216.508C-42.8504 233.397 -47.5458 254.804 -43.4178 275.229C-39.2838 295.687 -26.6797 313.568 -8.8439 324.288C-6.92084 325.448 -4.92279 326.528 -2.89248 327.512C29.4713 343.239 68.3498 333.557 89.5536 304.483C101.872 287.594 106.567 266.186 102.439 245.761ZM79.5918 297.212C62.0502 321.267 29.2754 329.426 2.49365 316.416C-32.4361 299.442 -43.4688 255.142 -20.5749 223.766C-3.03332 199.711 29.7415 191.552 56.5232 204.562C91.453 221.536 102.486 265.836 79.5918 297.212Z" fill="black"/>
</g>
<path d="M125.181 185.714C123.605 187.873 122.302 190.171 121.157 192.527C120.038 194.894 119.149 197.362 118.589 199.891C117.962 202.411 117.774 205.02 117.906 207.616C117.956 210.237 118.627 212.783 119.313 215.365C118.142 212.988 117.111 210.428 116.872 207.705L116.73 206.699C116.716 206.358 116.718 206.024 116.704 205.683C116.705 205.003 116.664 204.325 116.698 203.639C116.821 202.281 116.964 200.921 117.285 199.598C117.905 196.954 118.897 194.389 120.239 192.047C121.572 189.701 123.215 187.531 125.181 185.714Z" fill="white"/>
</g>
<rect x="0.317139" y="145.637" width="54.8764" height="46.5909" fill="#F5C6A8"/>
<path d="M-3.40323 112.558L-54.5592 141.91L6.82796 166.137" stroke="#F5C6A8" stroke-width="22" stroke-linejoin="round"/>
<path d="M-3.40323 112.558L-54.5592 141.91L6.82796 166.137" stroke="#F5C6A8" stroke-width="22" stroke-linejoin="round"/>
<path d="M-3.40323 112.558L-54.5592 141.91L6.82796 166.137" stroke="#F5C6A8" stroke-width="22" stroke-linejoin="round"/>
<path d="M57.9839 112.558L109.14 141.91L47.7527 166.137" stroke="#F5C6A8" stroke-width="22" stroke-linejoin="round"/>
<path d="M57.9839 112.558L109.14 141.91L47.7527 166.137" stroke="#F5C6A8" stroke-width="22" stroke-linejoin="round"/>
<path d="M57.9839 112.558L109.14 141.91L47.7527 166.137" stroke="#F5C6A8" stroke-width="22" stroke-linejoin="round"/>
<path d="M60.0485 175.676V131.744H48.7923V175.676H6.42262V131.744H-4.83356V175.676C-2.30917 206.837 -7.07227 231.364 -7.07227 263.543L27.6052 296.024L62.2827 263.543C62.2827 231.83 57.5242 206.837 60.0485 175.676Z" fill="#2B3852"/>
<path d="M72.7292 140.77C97.5322 115.935 97.5322 75.6685 72.7292 50.8331C47.9263 25.9976 7.71271 25.9976 -17.0903 50.8331C-41.8932 75.6685 -41.8932 115.935 -17.0903 140.77C7.71271 165.606 47.9263 165.606 72.7292 140.77Z" fill="#FBD083"/>
<path d="M27.8214 123.396C43.0414 123.396 55.3798 111.042 55.3798 95.8018C55.3798 80.5618 43.0414 68.2073 27.8214 68.2073C12.6013 68.2073 0.262939 80.5618 0.262939 95.8018C0.262939 111.042 12.6013 123.396 27.8214 123.396Z" fill="#F9B233"/>
</g>
<defs>
<clipPath id="clip0_2378_20675">
<rect width="161" height="219" fill="white"/>
</clipPath>
<clipPath id="clip1_2378_20675">
<rect width="182.387" height="209.43" fill="white" transform="translate(-18.387 21.5699)"/>
</clipPath>
<clipPath id="clip2_2378_20675">
<rect width="329" height="329" fill="white" transform="translate(-55.8755 44.0935) rotate(23.4704)"/>
</clipPath>
</defs>
</svg>
