<svg width="24" height="24" viewBox="0 0 24 24" fill="none" xmlns="http://www.w3.org/2000/svg">
<path fill-rule="evenodd" clip-rule="evenodd" d="M22 3.0625V15.4375C22 16.0477 21.7371 16.5891 21.3214 16.9646V20.4605C21.7198 20.7003 22 21.1214 22 21.625C22 22.3843 21.3923 23 20.6429 23H7.07143C4.82281 23 3 21.1532 3 18.875V5.125C3 2.8468 4.82281 1 7.07143 1H19.9643C21.0882 1 22 1.9234 22 3.0625ZM7.07143 20.25H19.2857V17.5H7.07143C6.32203 17.5 5.71429 18.1157 5.71429 18.875C5.71429 19.6343 6.32203 20.25 7.07143 20.25ZM8.57839 12C8.29926 12 8.0643 11.7642 8.04575 11.4563C8.03073 11.2051 7.90706 8.97257 8.14291 7.94002L8.14556 7.92943C8.37699 6.81026 9.30713 6 10.3618 6C11.6144 6 12.6337 7.11051 12.6337 8.4741C12.6337 9.21604 12.3316 9.88388 11.8555 10.3381L12.6311 10.6123C12.9111 10.7115 13.0648 11.0396 12.9738 11.3456C12.8828 11.6507 12.5816 11.8181 12.3007 11.719L10.0659 10.928C9.82123 10.8414 9.66753 10.5767 9.70198 10.2986C9.73554 10.0205 9.94666 9.80882 10.2037 9.79439L10.3353 9.78669H10.3627C11.0261 9.78669 11.5667 9.19872 11.5667 8.47506C11.5667 7.7514 11.027 7.16439 10.3627 7.16439C9.80179 7.16439 9.30802 7.59647 9.18788 8.19118L9.18571 8.20025L9.18258 8.21235L9.17905 8.22775C9.01475 8.94755 9.0757 10.748 9.1128 11.3812C9.13223 11.7017 8.90875 11.9788 8.61461 11.999C8.60886 11.999 8.6029 11.9993 8.59694 11.9995C8.59098 11.9998 8.58413 12 8.57839 12ZM16 12C14.3453 12 13 10.6537 13 9C13 7.34632 14.3453 6 16 6C16.6732 6 17.31 6.21868 17.8401 6.63084C18.1061 6.83742 18.1535 7.22036 17.9469 7.48539C17.7403 7.75143 17.3574 7.79879 17.0924 7.59221C16.778 7.34733 16.4001 7.21834 16 7.21834C15.0175 7.21834 14.2183 8.01747 14.2183 9C14.2183 9.98253 15.0175 10.7817 16 10.7817C16.7689 10.7817 17.4249 10.2929 17.6748 9.60867H16.4152C16.0786 9.60867 15.8055 9.33557 15.8055 9C15.8055 8.66443 16.0786 8.39133 16.4152 8.39133H18.3913C18.7279 8.39133 19 8.66443 19 9C19 10.6547 17.6547 12 16 12Z" fill="white"/>
</svg>
