<svg width="24" height="24" viewBox="0 0 24 24" fill="none" xmlns="http://www.w3.org/2000/svg">
<path fill-rule="evenodd" clip-rule="evenodd" d="M6 0.480469C4.34315 0.480469 3 1.82362 3 3.48047V16.4805L21 16.4805V3.48047C21 1.82361 19.6569 0.480469 18 0.480469H6ZM21 18.4805L3 18.4805V20.4805C3 22.1373 4.34315 23.4805 6 23.4805H18C19.6569 23.4805 21 22.1373 21 20.4805V18.4805ZM12 9.4801C12 11.1341 13.3458 12.4797 15 12.4797V12.4805C16.6542 12.4805 18 11.1348 18 9.48084C18 9.1446 17.727 8.87164 17.3907 8.87164H15.4143C15.078 8.87164 14.805 9.14387 14.805 9.48084C14.805 9.81781 15.078 10.09 15.4143 10.09H16.674C16.4246 10.7735 15.7682 11.2628 14.9993 11.2628C14.0162 11.2628 13.2171 10.4638 13.2171 9.48084C13.2171 8.49788 14.0169 7.69886 14.9993 7.69886C15.3996 7.69886 15.777 7.82835 16.092 8.07262C16.3584 8.27937 16.741 8.23154 16.947 7.96594C17.1538 7.70033 17.106 7.31775 16.8403 7.111C16.3098 6.69899 15.6733 6.48047 15 6.48047C13.3458 6.48047 12 7.82615 12 9.4801ZM6.69383 12.4798C6.35865 12.4798 6.07687 12.2437 6.0552 11.936C6.03739 11.6845 5.88799 9.45237 6.17131 8.42028L6.17441 8.40974C6.45231 7.29124 7.56857 6.48047 8.83423 6.48047C10.3375 6.48047 11.5606 7.59054 11.5606 8.95424C11.5606 9.69686 11.1983 10.3636 10.6263 10.8175L11.5567 11.0922C11.8935 11.1912 12.0777 11.5193 11.9686 11.825C11.8594 12.1306 11.4979 12.2978 11.1612 12.1987L8.47892 11.4076C8.18476 11.3212 8.00129 11.0563 8.04155 10.7781C8.0818 10.4999 8.33571 10.2877 8.6438 10.2737L8.80172 10.2667C8.80713 10.2667 8.81255 10.2665 8.81797 10.2663C8.82339 10.2661 8.82881 10.2659 8.83423 10.2659C9.63078 10.2659 10.2787 9.67789 10.2787 8.95494C10.2787 8.23199 9.63078 7.64393 8.83423 7.64393C8.16153 7.64393 7.56857 8.07602 7.42381 8.6711C7.4226 8.67659 7.42092 8.68208 7.41914 8.6879L7.41913 8.68793L7.41762 8.69288L7.41298 8.70834C7.21558 9.42778 7.28912 11.2285 7.33402 11.8608C7.35724 12.1812 7.0894 12.458 6.73641 12.4791C6.72248 12.4798 6.70777 12.4805 6.69461 12.4805L6.69383 12.4798Z" fill="#ffffff"/>
</svg>
