<svg width="54" height="41" viewBox="0 0 54 41" fill="none" xmlns="http://www.w3.org/2000/svg">
<g id="Layer_2" clip-path="url(#clip0_1696_46043)">
<path id="Vector" d="M39.4538 27.6376C31.9217 27.6376 25.7979 21.5091 25.7979 13.9816C25.7979 6.45411 31.9217 0.325684 39.4538 0.325684C42.518 0.325684 45.4171 1.32109 47.8299 3.19724C49.0409 4.1376 49.2565 5.88072 48.3162 7.08714C47.3758 8.29815 45.6327 8.51374 44.4263 7.57338C42.9951 6.4587 41.2749 5.87155 39.4538 5.87155C34.9813 5.87155 31.3437 9.50915 31.3437 13.9816C31.3437 18.4541 34.9813 22.0917 39.4538 22.0917C42.9538 22.0917 45.94 19.8669 47.0776 16.7523H41.3437C39.8116 16.7523 38.5685 15.5091 38.5685 13.9816C38.5685 12.4541 39.8116 11.211 41.3437 11.211H50.3391C51.8712 11.211 53.1097 12.4541 53.1097 13.9816C53.1097 21.5137 46.9859 27.6376 39.4538 27.6376Z" fill="white"/>
<path id="Vector_2" d="M2.9997 28.6009C1.55016 28.6009 0.329983 27.477 0.233653 26.0091C0.155671 24.8119 -0.486529 14.1697 0.738239 9.24769L0.752001 9.19723C1.95383 3.86238 6.7841 0 12.2612 0C18.7657 0 24.0593 5.29357 24.0593 11.7936C24.0593 15.3302 22.4905 18.5137 20.018 20.6789L24.0455 21.9862C25.4997 22.4587 26.2978 24.0229 25.8254 25.4816C25.3529 26.9357 23.7887 27.7339 22.3299 27.2614L10.7245 23.4908C9.45382 23.0779 8.65566 21.8165 8.83456 20.4908C9.00887 19.1651 10.1052 18.1559 11.4401 18.0871L12.1235 18.0504C12.1694 18.0504 12.2199 18.0504 12.2657 18.0504C15.7107 18.0504 18.518 15.2477 18.518 11.7981C18.518 8.34861 15.7153 5.55045 12.2657 5.55045C9.3529 5.55045 6.78869 7.61008 6.16484 10.4449C6.15566 10.4816 6.14649 10.5137 6.13731 10.5459L6.11896 10.6192C5.26575 14.0504 5.58227 22.633 5.77493 25.6513C5.87585 27.1789 4.7153 28.4999 3.18778 28.5963C3.12814 28.5963 3.06392 28.6009 3.00429 28.6009H2.9997Z" fill="white"/>
<path id="Vector_3" d="M26.6052 38.4082C26.3483 38.4082 26.0869 38.344 25.8575 38.2201C17.197 33.6376 3.11442 37.532 2.97222 37.5687C2.14654 37.8027 1.27956 37.344 1.04103 36.5458C0.797914 35.7476 1.27498 34.9128 2.09608 34.6788C2.71076 34.5045 16.8896 30.5871 26.6603 35.2293C29.3896 34.1467 39.229 30.8944 51.0776 34.7935C51.8942 35.0596 52.3299 35.9174 52.0501 36.7018C51.7703 37.4908 50.8896 37.9082 50.0731 37.6421C37.5868 33.532 27.3896 38.2018 27.2841 38.2522C27.0685 38.3531 26.8346 38.4036 26.6052 38.4036V38.4082Z" fill="white"/>
<path id="Vector_4" d="M26.6288 33.422C26.56 33.422 26.4866 33.4082 26.4224 33.3761C16.5417 28.6834 2.09214 32.6651 1.48205 32.8348C1.22517 32.9082 0.959112 32.7568 0.885718 32.4999C0.812323 32.2431 0.963699 31.977 1.22058 31.9036C1.63801 31.7889 5.43617 30.7476 10.4132 30.3165C16.9453 29.7476 22.404 30.4541 26.6471 32.4128C29.7526 31.2155 39.8444 28.0642 51.9086 32.032C52.1609 32.1146 52.2985 32.3898 52.2159 32.6421C52.1333 32.8944 51.8581 33.032 51.6058 32.9495C39.5829 28.9954 29.5875 32.2843 26.8077 33.3853C26.7526 33.4082 26.6884 33.4174 26.6288 33.4174V33.422Z" fill="white"/>
</g>
<defs>
<clipPath id="clip0_1696_46043">
<rect width="53.11" height="40.1513" fill="white"/>
</clipPath>
</defs>
</svg>
