<svg width="100" height="100" viewBox="0 0 100 100" fill="none" xmlns="http://www.w3.org/2000/svg">
<path d="M44.609 7.48354C44.1604 7.54681 43.522 7.7251 42.9699 7.93789C41.6816 8.43824 40.4221 9.68625 39.8528 11.032C39.686 11.4404 32.2784 32.622 32.0196 33.4502C31.7666 34.2554 31.6688 34.8765 31.6746 35.6874C31.6803 36.8492 31.9621 37.8154 32.5775 38.7298C33.3367 39.8686 34.5732 40.806 36.1662 41.4386C36.7931 41.6917 48.8706 45.9131 49.8656 46.2294C56.537 48.3516 62.0466 46.2351 64.5369 40.5932C65.3191 38.8276 65.6066 37.4358 65.5491 35.7334C65.4974 34.1806 65.1523 32.8233 64.4506 31.3683L64.0826 30.6149L64.2666 30.5286C64.5139 30.4021 65.2961 29.8385 65.7102 29.4761C67.3378 28.0441 68.6433 25.4503 68.9941 22.96C69.1724 21.6775 69.0516 20.1707 68.672 19.0377C68.465 18.4051 67.8899 17.3123 67.4815 16.766C66.2393 15.1096 64.1171 13.6086 61.5348 12.5791C60.4478 12.142 48.0482 7.82862 47.4501 7.67909C46.4781 7.43178 45.4372 7.36277 44.609 7.48354ZM48.9167 18.2555C49.5608 18.4281 57.5147 21.2404 57.8943 21.4245C58.1301 21.5395 58.3946 21.7235 58.5154 21.8558C58.6994 22.0628 58.7225 22.1204 58.7225 22.3964C58.7225 23.0923 58.3256 23.8917 57.854 24.1448C57.6297 24.2655 57.5435 24.2771 57.1121 24.254C56.6463 24.231 56.3932 24.1505 52.1373 22.661C49.6701 21.7983 47.5019 21.0449 47.3236 20.9816L47.0015 20.8723L47.3408 19.8831C47.7549 18.7041 47.8584 18.4568 48.0195 18.2958C48.1632 18.152 48.4853 18.1348 48.9167 18.2555ZM48.9569 31.6041C54.4378 33.5192 54.9382 33.7205 55.427 34.2381C55.8008 34.635 55.8929 34.9053 55.8066 35.3941C55.7376 35.7967 55.4213 36.5214 55.174 36.8434C55.0877 36.9642 54.8864 37.1137 54.7254 37.1885C54.3573 37.361 53.7132 37.3725 53.0575 37.2173C52.4134 37.062 43.3955 33.9046 43.0964 33.7263C42.7916 33.5537 42.7111 33.41 42.7571 33.1339C42.8089 32.8578 43.8441 29.85 43.8959 29.85C43.9131 29.85 46.1906 30.6379 48.9569 31.6041Z" fill="white" fill-opacity="0.3"/>
<path d="M17.8343 51.3982C16.9889 51.4845 15.9594 51.841 15.137 52.3241C13.6647 53.1983 12.7617 54.3773 12.4454 55.8554C12.3419 56.35 12.3304 57.0574 12.2211 71.1248C12.1579 79.2398 12.1176 86.262 12.1349 86.7393C12.1866 88.3497 12.6237 89.4596 13.6129 90.4431C14.3836 91.2138 15.367 91.7026 16.592 91.9154C19.0593 92.3525 21.5438 91.0585 22.395 88.896C22.7286 88.0506 22.7228 88.1081 22.7228 85.198V82.5064L29.1297 79.3145C32.6552 77.5604 35.571 76.1341 35.6055 76.1456C35.64 76.1629 36.3647 76.7207 37.2159 77.3994C39.2058 78.9695 39.3726 79.0845 39.9017 79.3548C40.6551 79.7344 41.2474 79.8781 42.0469 79.8839C42.5415 79.8896 42.8463 79.8609 43.1281 79.7861C44.7557 79.3548 46.0554 78.2793 46.8204 76.7322C47.2344 75.8926 47.3667 75.4037 47.407 74.5468C47.453 73.5173 47.2287 72.6201 46.6938 71.7057C46.1877 70.8373 46.274 70.9063 33.351 61.2903C26.6969 56.3385 21.0952 52.1919 20.8997 52.0768C20.037 51.5477 18.8695 51.2947 17.8343 51.3982ZM26.5071 68.9566C26.9385 69.2959 27.295 69.595 27.295 69.6065C27.295 69.6353 22.579 71.9875 22.5158 71.9875C22.4985 71.9875 22.464 71.2283 22.441 70.3024C22.4238 69.3822 22.3893 67.9559 22.3663 67.1335L22.3317 65.6497L24.0226 66.9897C24.9543 67.7259 26.07 68.6115 26.5071 68.9566Z" fill="white" fill-opacity="0.3"/>
<path d="M72.2795 53.0144C69.053 53.2904 65.8496 54.2854 63.3708 55.7807C60.6448 57.4313 58.3558 59.9216 56.8605 62.8719C55.7102 65.1379 55.1466 67.2256 54.9856 69.8481C54.7555 73.5002 55.7448 78.1299 57.4874 81.5921C59.1207 84.8473 61.4557 87.234 64.4751 88.7351C68.3514 90.6675 72.8546 90.9493 78.1457 89.5863C82.1313 88.5568 84.7596 87.0097 87.3936 84.1341C89.1592 82.2075 90.0852 80.8042 90.5683 79.3204C90.8156 78.5612 90.9076 77.9228 90.8673 77.1982C90.7523 75.1047 89.3893 73.3966 87.2613 72.7007C86.8127 72.5512 86.7035 72.5397 85.881 72.5397C85.0586 72.5397 84.9551 72.557 84.5295 72.7007C83.4195 73.0803 82.4591 73.9487 81.1536 75.7546C79.2614 78.3714 78.6748 78.9868 77.398 79.7057C75.3276 80.8789 72.3715 81.2298 70.324 80.5454C68.6044 79.976 67.1839 78.6245 66.2752 76.6921C65.5103 75.0702 65.0674 73.2011 65.0214 71.3837C64.9697 69.6066 65.1997 68.4851 65.8956 67.0703C67.0171 64.7871 68.869 63.309 71.3017 62.7512C71.9056 62.6131 72.1069 62.5901 72.9408 62.5901C73.7288 62.5901 73.9761 62.6131 74.4074 62.7167C75.3794 62.9582 75.6669 63.0962 78.2147 64.5513C79.7388 65.414 80.3024 65.6843 81.1075 65.9373C81.5389 66.0696 81.6942 66.0869 82.4878 66.0869C83.3103 66.0926 83.4195 66.0811 83.8969 65.9316C85.536 65.414 86.6632 64.3097 87.1578 62.7282C87.2728 62.3486 87.2901 62.1875 87.2843 61.4054C87.2843 60.606 87.2671 60.4622 87.1233 59.9963C86.8185 58.9956 86.2089 58.0409 85.3117 57.1495C83.0054 54.8663 79.457 53.3594 75.5864 53.0086C74.8215 52.9396 73.1134 52.9454 72.2795 53.0144Z" fill="white" fill-opacity="0.3"/>
</svg>
