<svg width="24" height="24" viewBox="0 0 24 24" fill="none" xmlns="http://www.w3.org/2000/svg">
<path d="M12.1299 19.7324L4.04897 11.6515" stroke="white" stroke-width="2" stroke-linecap="round"/>
<mask id="path-2-inside-1_969_17590" fill="white">
<path fill-rule="evenodd" clip-rule="evenodd" d="M10.9291 18.1622C10.5309 18.4642 9.9709 18.426 9.61751 18.0726L7.92318 16.3783L18.2793 6.02218C18.6719 5.62953 18.7589 5.07993 18.4736 4.79461C18.1883 4.5093 17.6387 4.59631 17.2461 4.98897L6.88997 15.3451L5.1696 13.6247C4.81621 13.2713 4.77798 12.7113 5.08006 12.3131L13.1921 1.62173C13.3777 1.37715 13.6653 1.23137 13.9723 1.22632L21.1173 1.10878C21.6824 1.09949 22.143 1.56 22.1337 2.12511L22.016 9.27C22.011 9.57698 21.8652 9.86462 21.6206 10.0502L10.9291 18.1622Z"/>
</mask>
<path fill-rule="evenodd" clip-rule="evenodd" d="M10.9291 18.1622C10.5309 18.4642 9.9709 18.426 9.61751 18.0726L7.92318 16.3783L18.2793 6.02218C18.6719 5.62953 18.7589 5.07993 18.4736 4.79461C18.1883 4.5093 17.6387 4.59631 17.2461 4.98897L6.88997 15.3451L5.1696 13.6247C4.81621 13.2713 4.77798 12.7113 5.08006 12.3131L13.1921 1.62173C13.3777 1.37715 13.6653 1.23137 13.9723 1.22632L21.1173 1.10878C21.6824 1.09949 22.143 1.56 22.1337 2.12511L22.016 9.27C22.011 9.57698 21.8652 9.86462 21.6206 10.0502L10.9291 18.1622Z" fill="white"/>
<path d="M9.61751 18.0726L10.3246 17.3655H10.3246L9.61751 18.0726ZM10.9291 18.1622L10.3246 17.3655L10.3246 17.3655L10.9291 18.1622ZM7.92318 16.3783L7.21607 15.6712L6.50896 16.3783L7.21607 17.0854L7.92318 16.3783ZM18.2793 6.02218L17.5722 5.31507L17.5722 5.31507L18.2793 6.02218ZM17.2461 4.98897L16.539 4.28186L16.539 4.28186L17.2461 4.98897ZM6.88997 15.3451L6.18286 16.0522L6.88997 16.7593L7.59707 16.0522L6.88997 15.3451ZM5.1696 13.6247L5.87671 12.9176L5.1696 13.6247ZM5.08006 12.3131L5.8767 12.9176V12.9176L5.08006 12.3131ZM13.1921 1.62173L13.9888 2.22618V2.22618L13.1921 1.62173ZM13.9723 1.22632L13.9888 2.22618L13.9723 1.22632ZM21.1173 1.10878L21.1009 0.108916L21.1173 1.10878ZM22.1337 2.12511L23.1335 2.14157L22.1337 2.12511ZM22.016 9.27L23.0159 9.28647L22.016 9.27ZM21.6206 10.0502L22.225 10.8468H22.225L21.6206 10.0502ZM8.9104 18.7797C9.61718 19.4865 10.7372 19.563 11.5335 18.9588L10.3246 17.3655L10.3246 17.3655L8.9104 18.7797ZM7.21607 17.0854L8.9104 18.7797L10.3246 17.3655L8.63028 15.6712L7.21607 17.0854ZM17.5722 5.31507L7.21607 15.6712L8.63028 17.0854L18.9864 6.72928L17.5722 5.31507ZM17.7665 5.50172C17.7024 5.43761 17.6674 5.36516 17.652 5.30696C17.6376 5.25231 17.642 5.21811 17.643 5.21177C17.6443 5.20369 17.6354 5.25182 17.5722 5.31507L18.9864 6.72928C19.3158 6.39988 19.5468 5.97689 19.6184 5.52452C19.6898 5.07339 19.6056 4.5124 19.1807 4.0875L17.7665 5.50172ZM17.9532 5.69607C18.0164 5.63282 18.0646 5.62397 18.0565 5.62525C18.0501 5.62625 18.0159 5.63067 17.9613 5.61623C17.9031 5.60086 17.8306 5.56582 17.7665 5.50172L19.1807 4.0875C18.7558 3.66261 18.1948 3.57843 17.7437 3.64985C17.2913 3.72148 16.8684 3.95246 16.539 4.28186L17.9532 5.69607ZM7.59707 16.0522L17.9532 5.69607L16.539 4.28186L6.18286 14.638L7.59707 16.0522ZM4.46249 14.3318L6.18286 16.0522L7.59707 14.638L5.87671 12.9176L4.46249 14.3318ZM4.28342 11.7087C3.67925 12.505 3.75571 13.625 4.46249 14.3318L5.87671 12.9176L5.8767 12.9176L4.28342 11.7087ZM12.3955 1.01728L4.28342 11.7087L5.8767 12.9176L13.9888 2.22618L12.3955 1.01728ZM13.9559 0.226453C13.3419 0.236552 12.7666 0.528116 12.3955 1.01728L13.9888 2.22618V2.22618L13.9559 0.226453ZM21.1009 0.108916L13.9559 0.226453L13.9888 2.22618L21.1338 2.10865L21.1009 0.108916ZM23.1335 2.14157C23.1521 1.01136 22.2311 0.0903241 21.1009 0.108916L21.1338 2.10865L21.1338 2.10865L23.1335 2.14157ZM23.0159 9.28647L23.1335 2.14157L21.1338 2.10865L21.0161 9.25354L23.0159 9.28647ZM22.225 10.8468C22.7142 10.4757 23.0058 9.90042 23.0159 9.28647L21.0161 9.25354H21.0161L22.225 10.8468ZM11.5335 18.9588L22.225 10.8468L21.0161 9.25354L10.3246 17.3655L11.5335 18.9588Z" fill="white" mask="url(#path-2-inside-1_969_17590)"/>
<path d="M7.99316 13L10.5515 15.5584L4.25638 21.8535L1.69802 19.2951L7.99316 13Z" fill="white"/>
<path d="M2.37328 17.7748C1.95603 17.3575 1.27107 17.5481 1.30699 18.1371V18.1371C1.43328 20.2078 3.21816 22.0393 5.29362 22.2277V22.2277C5.93269 22.2858 6.14239 21.5439 5.68864 21.0901L2.37328 17.7748Z" fill="white"/>
</svg>
