<svg width="24" height="25" viewBox="0 0 24 25" fill="none" xmlns="http://www.w3.org/2000/svg">
<g clip-path="url(#clip0_1147_13422)">
<path d="M11.5739 12.1749C11.769 11.8569 12.231 11.8569 12.4261 12.1749L13.2226 13.4727C13.2919 13.5855 13.403 13.6663 13.5317 13.6972L15.0121 14.0537C15.3748 14.141 15.5176 14.5804 15.2755 14.8643L14.2873 16.0228C14.2014 16.1235 14.159 16.2542 14.1693 16.3862L14.2878 17.9043C14.3168 18.2762 13.943 18.5478 13.5982 18.4052L12.191 17.8235C12.0687 17.7729 11.9313 17.7729 11.809 17.8235L10.4018 18.4052C10.057 18.5478 9.68322 18.2762 9.71225 17.9043L9.83072 16.3862C9.84102 16.2542 9.79856 16.1235 9.71266 16.0228L8.72449 14.8643C8.48239 14.5804 8.62516 14.141 8.98786 14.0537L10.4683 13.6972C10.597 13.6663 10.7081 13.5855 10.7774 13.4727L11.5739 12.1749Z" fill="#222222"/>
<path d="M12.625 7.70734L18.4192 11.0526C18.806 11.2759 19.0442 11.6886 19.0442 12.1352V18.8258C19.0442 19.2724 18.806 19.685 18.4192 19.9083L12.625 23.2536C12.2382 23.4769 11.7618 23.4769 11.375 23.2536L5.58077 19.9083C5.19402 19.685 4.95577 19.2724 4.95577 18.8258V12.1352C4.95577 11.6886 5.19402 11.2759 5.58077 11.0526L11.375 7.70734C11.7618 7.48405 12.2382 7.48405 12.625 7.70734Z" stroke="#222222" stroke-width="1.5"/>
<path d="M17 10.4805L17.8766 2.5909C17.9424 1.99853 17.4787 1.48047 16.8827 1.48047H7.11726C6.52125 1.48047 6.05756 1.99853 6.12338 2.5909L7 10.4805" stroke="#222222" stroke-width="1.5"/>
</g>
<defs>
<clipPath id="clip0_1147_13422">
<rect width="24" height="24" fill="white" transform="translate(0 0.480469)"/>
</clipPath>
</defs>
</svg>
