<svg width="24" height="25" viewBox="0 0 24 25" fill="none" xmlns="http://www.w3.org/2000/svg">
<g clip-path="url(#clip0_1147_13425)">
<path fill-rule="evenodd" clip-rule="evenodd" d="M11.0003 7.05799C11.6191 6.70072 12.3815 6.70072 13.0003 7.05799L18.7945 10.4033C19.4133 10.7606 19.7945 11.4208 19.7945 12.1353V18.8259C19.7945 19.5405 19.4133 20.2007 18.7945 20.558L13.0003 23.9033C12.3815 24.2606 11.6191 24.2606 11.0003 23.9033L5.20605 20.558C4.58725 20.2007 4.20605 19.5405 4.20605 18.8259V12.1353C4.20605 11.4208 4.58725 10.7606 5.20605 10.4033L11.0003 7.05799ZM12.4261 12.1751C12.231 11.8571 11.769 11.8571 11.5739 12.1751L10.7774 13.4729C10.7081 13.5857 10.597 13.6665 10.4683 13.6975L8.98786 14.0539C8.62516 14.1413 8.48239 14.5807 8.72449 14.8645L9.71266 16.023C9.79856 16.1238 9.84102 16.2544 9.83072 16.3864L9.71225 17.9045C9.68322 18.2765 10.057 18.548 10.4018 18.4055L11.809 17.8237C11.9313 17.7731 12.0687 17.7731 12.191 17.8237L13.5982 18.4055C13.943 18.548 14.3168 18.2765 14.2878 17.9045L14.1693 16.3864C14.159 16.2544 14.2014 16.1238 14.2873 16.023L15.2755 14.8645C15.5176 14.5807 15.3748 14.1413 15.0121 14.0539L13.5317 13.6975C13.403 13.6665 13.2919 13.5857 13.2226 13.4729L12.4261 12.1751Z" fill="#ffffff"/>
<path fill-rule="evenodd" clip-rule="evenodd" d="M5.12966 2.70133C4.99802 1.5166 5.9254 0.480469 7.11742 0.480469H16.8829C18.0749 0.480469 19.0023 1.5166 18.8707 2.70133L18.3279 7.5866L13.2837 4.67434C12.4898 4.21598 11.5116 4.21598 10.7177 4.67434L5.67253 7.58718L5.12966 2.70133Z" fill="#ffffff"/>
</g>
<defs>
<clipPath id="clip0_1147_13425">
<rect width="24" height="24" fill="white" transform="translate(0 0.480469)"/>
</clipPath>
</defs>
</svg>
