<svg width="24" height="24" viewBox="0 0 24 24" fill="none" xmlns="http://www.w3.org/2000/svg">
<rect x="1" y="15" width="7" height="8" rx="1" fill="white"/>
<rect x="9" y="11" width="6" height="12" rx="1" fill="white"/>
<rect x="16" y="15" width="7" height="8" rx="1" fill="white"/>
<g clip-path="url(#clip0_969_17616)">
<path d="M12.2966 1.19311L13.2765 3.27163C13.3248 3.37394 13.4178 3.44463 13.5254 3.46101L15.7163 3.79435C15.9874 3.83573 16.0959 4.1846 15.8996 4.38518L14.3143 6.00305C14.2363 6.08265 14.2006 6.19731 14.219 6.30967L14.5934 8.59424C14.6398 8.87701 14.3563 9.09282 14.1134 8.95919L12.1536 7.88042C12.0573 7.82726 11.942 7.82726 11.8457 7.88042L9.88595 8.95919C9.64332 9.09282 9.35979 8.87701 9.4059 8.59424L9.78028 6.30967C9.79867 6.19731 9.76299 6.08265 9.68504 6.00305L8.10025 4.38518C7.904 4.18488 8.01214 3.83573 8.28359 3.79435L10.4744 3.46101C10.5823 3.44463 10.6753 3.37365 10.7234 3.27163L11.7035 1.19311C11.8248 0.93563 12.1753 0.93563 12.2966 1.19311Z" fill="white"/>
</g>
<defs>
<clipPath id="clip0_969_17616">
<rect width="8" height="8" fill="white" transform="translate(8 1)"/>
</clipPath>
</defs>
</svg>
