<svg width="24" height="24" viewBox="0 0 24 24" fill="none" xmlns="http://www.w3.org/2000/svg">
<path fill-rule="evenodd" clip-rule="evenodd" d="M4 3.48047C4 1.82362 5.34315 0.480469 7 0.480469H17C18.6569 0.480469 20 1.82361 20 3.48047V4.48047H4V3.48047ZM5 6.48047C4.44772 6.48047 4 6.92818 4 7.48047V15.4805C4 16.0328 4.44772 16.4805 5 16.4805H7C7.55228 16.4805 8 16.0328 8 15.4805V7.48047C8 6.92818 7.55228 6.48047 7 6.48047H5ZM4.6863 18.4805L11.3493 23.2397C11.5365 23.4002 11.7682 23.4805 12 23.4805C12.2318 23.4805 12.4636 23.4002 12.6508 23.2397L19.3138 18.4805H4.6863ZM19 16.4805C19.5523 16.4805 20 16.0328 20 15.4805V7.48047C20 6.92818 19.5523 6.48047 19 6.48047H17C16.4477 6.48047 16 6.92818 16 7.48047V15.4805C16 16.0328 16.4477 16.4805 17 16.4805H19ZM10 7.48047C10 6.92818 10.4477 6.48047 11 6.48047H13C13.5523 6.48047 14 6.92818 14 7.48047V15.4805C14 16.0328 13.5523 16.4805 13 16.4805H11C10.4477 16.4805 10 16.0328 10 15.4805V7.48047Z" fill="white" fill-opacity="0.3"/>
</svg>
