<svg width="24" height="24" viewBox="0 0 24 24" fill="none" xmlns="http://www.w3.org/2000/svg">
<path fill-rule="evenodd" clip-rule="evenodd" d="M17 1.98047H7C6.17157 1.98047 5.5 2.65204 5.5 3.48047V4.73047H18.5V3.48047C18.5 2.65204 17.8284 1.98047 17 1.98047ZM5.5 16.9195V6.23047H8.25V16.9805H5.57758L5.5 16.9195ZM5.05878 18.4805H5C4.44772 18.4805 4 18.0328 4 17.4805V3.48047C4 1.82361 5.34315 0.480469 7 0.480469H17C18.6569 0.480469 20 1.82361 20 3.48047V17.4805C20 18.0328 19.5523 18.4805 19 18.4805H18.9412L12.4634 23.5702C12.1914 23.7839 11.8086 23.7839 11.5366 23.5702L5.05878 18.4805ZM7.48667 18.4805L12 22.0267L16.5133 18.4805H7.48667ZM18.5 16.9195L18.4224 16.9805H15.75V6.23047H18.5V16.9195ZM9.75 6.23047V16.9805H14.25V6.23047H9.75Z" fill="#ffffff"/>
</svg>
