<svg width="24" height="24" viewBox="0 0 24 24" fill="none" xmlns="http://www.w3.org/2000/svg">
<path fill-rule="evenodd" clip-rule="evenodd" d="M1 4C1 2.89543 1.89543 2 3 2H20.4994C21.604 2 22.4994 2.89543 22.4994 4V16.538C22.4994 17.6426 21.604 18.538 20.4994 18.538H19.4399L15.9737 22.3893C15.3606 23.0705 14.2304 22.6368 14.2304 21.7203V18.538H3C1.89543 18.538 1 17.6426 1 16.538V4ZM5.9614 5.3076C5.50472 5.3076 5.1345 5.67782 5.1345 6.1345C5.1345 6.59119 5.50472 6.9614 5.9614 6.9614L16.7111 6.9614C17.1678 6.9614 17.538 6.59119 17.538 6.1345C17.538 5.67782 17.1678 5.3076 16.7111 5.3076L5.9614 5.3076ZM5.1345 10.269C5.1345 9.81232 5.50472 9.4421 5.9614 9.4421L16.7111 9.4421C17.1678 9.4421 17.538 9.81232 17.538 10.269C17.538 10.7257 17.1678 11.0959 16.7111 11.0959L5.9614 11.0959C5.50472 11.0959 5.1345 10.7257 5.1345 10.269ZM5.9614 13.5766C5.50472 13.5766 5.1345 13.9468 5.1345 14.4035C5.1345 14.8602 5.50472 15.2304 5.9614 15.2304L12.5766 15.2304C13.0333 15.2304 13.4035 14.8602 13.4035 14.4035C13.4035 13.9468 13.0333 13.5766 12.5766 13.5766L5.9614 13.5766Z" fill="white"/>
</svg>
