<svg width="24" height="24" viewBox="0 0 24 24" fill="none" xmlns="http://www.w3.org/2000/svg">
<path fill-rule="evenodd" clip-rule="evenodd" d="M5.5 0C3.84315 0 2.5 1.34315 2.5 3V17L21.5 17V3C21.5 1.34315 20.1569 0 18.5 0H5.5ZM2.5 21V19L21.5 19V21C21.5 22.6569 20.1569 24 18.5 24H5.5C3.84315 24 2.5 22.6569 2.5 21ZM14.75 10.433C15.0833 10.2406 15.0833 9.75944 14.75 9.56699L10.25 6.96891C9.91667 6.77646 9.5 7.01702 9.5 7.40192L9.5 12.5981C9.5 12.983 9.91667 13.2235 10.25 13.0311L14.75 10.433Z" fill="#ffffff"/>
</svg>
