<svg width="24" height="24" viewBox="0 0 24 24" fill="none" xmlns="http://www.w3.org/2000/svg">
<path d="M22 7V18.3612C22 18.9135 21.5523 19.3612 21 19.3612H13.5084V19.3612C13.0745 19.3612 12.7607 19.9295 12.3297 19.98C12.1039 20.0064 11.8926 20.0066 11.669 19.9808C11.2378 19.9309 10.9248 19.3612 10.4907 19.3612V19.3612H3C2.44772 19.3612 2 18.9135 2 18.3612V7" stroke="white" stroke-width="1.5" stroke-linecap="round" stroke-linejoin="round"/>
<path fill-rule="evenodd" clip-rule="evenodd" d="M11.3872 4.26414C11.2003 4.00427 10.9473 3.80957 10.6298 3.80957H4.34059C3.90817 3.80957 3.55762 4.16012 3.55762 4.59254V16.933C3.55762 17.3655 3.90817 17.716 4.34059 17.716H10.6298C10.8317 17.716 10.9328 17.7669 10.9642 17.7911C10.9762 17.8003 10.9792 17.8058 10.9814 17.8104C10.9839 17.8156 10.9954 17.8416 10.9954 17.903C10.9954 18.3355 11.3459 18.686 11.7784 18.686C12.2108 18.686 12.5613 18.3355 12.5613 17.903C12.5613 17.8418 12.5728 17.816 12.5752 17.8108C12.5774 17.8064 12.5804 17.8008 12.5926 17.7915C12.6244 17.767 12.7261 17.716 12.9287 17.716H19.217C19.6495 17.716 20 17.3655 20 16.933V4.59254C20 4.16012 19.6495 3.80957 19.217 3.80957H12.9287C12.6109 3.80957 12.3574 4.00421 12.1702 4.26403L12.1702 15.5541C12.1702 15.7704 11.9949 15.9456 11.7787 15.9456C11.5625 15.9456 11.3872 15.7704 11.3872 15.5541L11.3872 4.26414Z" fill="white"/>
</svg>
