<svg width="101" height="100" viewBox="0 0 101 100" fill="none" xmlns="http://www.w3.org/2000/svg">
<g clip-path="url(#clip0_6484_573)">
<path d="M20.8797 72.041H81.0167V90.6242H20.8797C18.797 90.6242 17.1167 88.975 17.1167 86.9308V75.7344C17.1167 73.6903 18.797 72.041 20.8797 72.041Z" fill="#E4E4E4"/>
<path d="M83.3833 88.3016H25.4C22.134 88.3016 19.4833 85.7 19.4833 82.4944V69.7184C19.4833 68.4408 18.4183 67.3955 17.1167 67.3955C15.815 67.3955 14.75 68.4408 14.75 69.7184V82.4944C14.75 88.2552 19.5307 92.9474 25.4 92.9474H83.3833C84.685 92.9474 85.75 91.9021 85.75 90.6245C85.75 89.3469 84.685 88.3016 83.3833 88.3016Z" fill="#1CA6D3"/>
<path d="M80.9694 7H26.5834V75.5256H80.9694C83.5964 75.5256 85.75 73.4118 85.75 70.8333V11.6923C85.75 9.11384 83.5964 7 80.9694 7Z" fill="#20C7FE"/>
<path d="M24.2167 7C18.2053 7 14.75 10.3914 14.75 16.2916V81.3329H19.4833C19.4833 78.1273 22.134 75.5256 25.4 75.5256H26.5833V7H24.2167Z" fill="#1CA6D3"/>
</g>
<g clip-path="url(#clip1_6484_573)">
<path d="M29.5231 76.9268V89.3665L35.6622 85.2199L41.8013 89.3665V76.9268H29.5231Z" fill="#E65253"/>
<path d="M70.1859 34.5216C70.2521 34.0866 70.2852 33.6384 70.2852 33.1773C70.2852 29.0572 69.029 25.7857 66.5171 23.362C65.2722 22.1721 63.7102 21.2471 61.8318 20.5858C59.9752 19.9028 57.8127 19.5615 55.3443 19.5615C53.1596 19.5615 51.2812 19.8148 49.7087 20.3217C48.1358 20.8282 46.8033 21.4891 45.711 22.3044C44.5973 23.1639 43.7123 24.078 43.057 25.0476C42.6789 25.6137 42.3484 26.1797 42.0656 26.7457C41.842 27.1931 41.6483 27.6405 41.4845 28.088C41.1132 29.1014 40.8618 30.0598 40.7307 30.9631C40.6799 31.306 40.6387 31.6272 40.6076 31.9267C40.5584 32.397 40.5342 32.8139 40.5342 33.1773C40.5342 34.477 40.993 35.5455 41.9102 36.3829C42.8278 37.1981 44.0291 37.6057 45.5145 37.6057C46.6722 37.6057 47.7754 37.209 48.8238 36.4158C49.8943 35.6227 50.4294 34.4332 50.4294 32.8469C50.4294 31.4809 50.7462 30.313 51.3797 29.3438C52.035 28.3742 53.3566 27.8898 55.3443 27.8898C56.1962 27.8898 57.0153 28.0108 57.8014 28.2532C58.6096 28.4956 59.2758 28.9692 59.8004 29.6743C60.3246 30.3794 60.5865 31.4145 60.5865 32.7805C60.5865 33.8824 60.3355 34.8074 59.8331 35.5567C59.3307 36.2836 58.6972 36.9449 57.9325 37.5394C57.2554 38.0685 56.4362 38.6413 55.4751 39.258C54.6014 39.8087 53.7823 40.4588 53.018 41.2081C52.2533 41.9349 51.6198 42.8052 51.1174 43.8187C50.615 44.8763 50.3636 46.1322 50.3636 47.5862C50.3636 48.6435 50.7353 49.6352 51.4777 50.5606C52.2206 51.4856 53.4219 51.9483 55.082 51.9483C56.6328 51.9483 57.7687 51.5628 58.4898 50.7918C59.2323 50.0208 59.6035 49.0403 59.6035 47.8503C59.6035 47.388 59.6911 46.9804 59.8658 46.6279C60.0405 46.2532 60.1935 45.9778 60.3246 45.8018C60.6305 45.3829 61.0889 44.9423 61.7006 44.4796C62.3342 43.9948 63.0222 43.4774 63.7651 42.9262L64.8788 42.0672C65.2504 41.7588 65.6326 41.4392 66.0256 41.1088C66.7903 40.4479 67.4892 39.7207 68.1227 38.9275C68.7562 38.1344 69.2804 37.264 69.6952 36.3169C69.9273 35.7453 70.0907 35.1467 70.1859 34.5216Z" fill="#1CA6D3"/>
<path d="M55.4097 63.1963C58.148 63.1963 60.3682 60.9845 60.3682 58.2565C60.3682 55.5286 58.148 53.3168 55.4097 53.3168C52.6714 53.3168 50.4512 55.5286 50.4512 58.2565C50.4512 60.9845 52.6714 63.1963 55.4097 63.1963Z" fill="#1CA6D3"/>
</g>
<defs>
<clipPath id="clip0_6484_573">
<rect width="71" height="85.9474" fill="white" transform="translate(14.75 7)"/>
</clipPath>
<clipPath id="clip1_6484_573">
<rect width="68.0417" height="82.3662" fill="white" transform="translate(16.7334 7)"/>
</clipPath>
</defs>
</svg>
