<svg width="101" height="100" viewBox="0 0 101 100" fill="none" xmlns="http://www.w3.org/2000/svg">
<path d="M63.053 69.6562H37.5227V94.2046H63.053V69.6562Z" fill="#C6CEE4"/>
<path d="M26.7214 95.1865H72.8723" stroke="#8E9FC2" stroke-width="8" stroke-miterlimit="10" stroke-linecap="round"/>
<path d="M98.3269 24.8228C98.3269 20.5538 94.7378 17.1016 90.3174 17.1016H10.1826C5.76218 17.1016 2.1731 20.5538 2.1731 24.8228V69.4398H98.3269V24.8228Z" fill="#72D7FF"/>
<path d="M10.1826 80.4357H90.3095C94.7379 80.4357 98.3189 76.9758 98.3189 72.7144V69.4395H2.1731V72.7144C2.1731 76.9835 5.76218 80.4357 10.1826 80.4357Z" fill="#8E9FC2"/>
<path d="M89.3567 2.88477H56.1197C52.8823 2.88477 50.2525 5.42 50.2525 8.54087C50.2525 5.42 47.6226 2.88477 44.3853 2.88477H11.1403C8.98202 2.88477 7.23145 4.57235 7.23145 6.65294V59.4382C7.23145 61.5187 8.98202 63.2063 11.1403 63.2063H89.3567C91.5149 63.2063 93.2655 61.5187 93.2655 59.4382V6.65294C93.2655 4.57235 91.5149 2.88477 89.3567 2.88477Z" fill="#4088DC"/>
<path d="M11.1409 57.5506V8.54126C11.1409 7.50097 12.0202 6.65332 13.0993 6.65332H42.4274C46.7439 6.65332 50.2451 10.0285 50.2451 14.1897C50.2451 10.0285 53.7462 6.65332 58.0627 6.65332H87.3909C88.47 6.65332 89.3493 7.50097 89.3493 8.54126V57.5506C89.3493 58.5909 88.47 59.4385 87.3909 59.4385H13.0993C12.0202 59.4385 11.1409 58.5909 11.1409 57.5506V57.5506Z" fill="white"/>
<path d="M11.1407 57.5506V53.7825C11.1407 52.7422 12.02 51.8945 13.0992 51.8945H42.4273C46.7438 51.8945 50.245 55.2697 50.245 59.4309C50.245 55.2697 53.7461 51.8945 58.0626 51.8945H87.3908C88.4699 51.8945 89.3492 52.7422 89.3492 53.7825V57.5506C89.3492 58.5909 88.4699 59.4386 87.3908 59.4386H13.0992C12.02 59.4386 11.1407 58.5909 11.1407 57.5506V57.5506Z" fill="#EDEFF8"/>
<path d="M50.2454 50.0071C49.1663 50.0071 48.287 49.1594 48.287 48.1191V17.9661C48.287 16.9258 49.1583 16.0781 50.2454 16.0781C51.3325 16.0781 52.2038 16.9258 52.2038 17.9661V48.1268C52.2038 49.1671 51.3325 50.0148 50.2454 50.0148V50.0071Z" fill="#EDEFF8"/>
<path d="M81.5309 17.9653H61.9788C60.8997 17.9653 60.0204 17.1177 60.0204 16.0774C60.0204 15.0371 60.8917 14.1895 61.9788 14.1895H81.5309C82.61 14.1895 83.4893 15.0371 83.4893 16.0774C83.4893 17.1177 82.618 17.9653 81.5309 17.9653Z" fill="#C6CEE4"/>
<path d="M81.5311 29.2778H79.5727C78.4935 29.2778 77.6143 28.4302 77.6143 27.3899C77.6143 26.3496 78.4856 25.502 79.5727 25.502H81.5311C82.6102 25.502 83.4895 26.3496 83.4895 27.3899C83.4895 28.4302 82.6182 29.2778 81.5311 29.2778Z" fill="#C6CEE4"/>
<path d="M71.7548 29.2778H61.9788C60.8997 29.2778 60.0204 28.4302 60.0204 27.3899C60.0204 26.3496 60.8917 25.502 61.9788 25.502H71.7548C72.834 25.502 73.7133 26.3496 73.7133 27.3899C73.7133 28.4302 72.842 29.2778 71.7548 29.2778Z" fill="#C6CEE4"/>
<path d="M81.5309 36.814H61.9788C60.8997 36.814 60.0204 35.9663 60.0204 34.926C60.0204 33.8857 60.8917 33.0381 61.9788 33.0381H81.5309C82.61 33.0381 83.4893 33.8857 83.4893 34.926C83.4893 35.9663 82.618 36.814 81.5309 36.814Z" fill="#C6CEE4"/>
<path d="M73.7133 44.3579H61.9788C60.8997 44.3579 60.0204 43.5103 60.0204 42.47C60.0204 41.4297 60.8917 40.582 61.9788 40.582H73.7133C74.7924 40.582 75.6717 41.4297 75.6717 42.47C75.6717 43.5103 74.8004 44.3579 73.7133 44.3579Z" fill="#C6CEE4"/>
<path d="M38.5199 17.9653H18.9598C17.8806 17.9653 17.0013 17.1177 17.0013 16.0774C17.0013 15.0371 17.8726 14.1895 18.9598 14.1895H38.5119C39.591 14.1895 40.4703 15.0371 40.4703 16.0774C40.4703 17.1177 39.599 17.9653 38.5119 17.9653H38.5199Z" fill="#C6CEE4"/>
<path d="M20.9182 36.814H18.9598C17.8806 36.814 17.0013 35.9663 17.0013 34.926C17.0013 33.8857 17.8726 33.0381 18.9598 33.0381H20.9182C21.9973 33.0381 22.8766 33.8857 22.8766 34.926C22.8766 35.9663 22.0053 36.814 20.9182 36.814Z" fill="#C6CEE4"/>
<path d="M38.5186 36.814H28.7426C27.6635 36.814 26.7842 35.9663 26.7842 34.926C26.7842 33.8857 27.6555 33.0381 28.7426 33.0381H38.5186C39.5978 33.0381 40.4771 33.8857 40.4771 34.926C40.4771 35.9663 39.6058 36.814 38.5186 36.814Z" fill="#C6CEE4"/>
<path d="M38.5199 29.2778H18.9598C17.8806 29.2778 17.0013 28.4302 17.0013 27.3899C17.0013 26.3496 17.8726 25.502 18.9598 25.502H38.5119C39.591 25.502 40.4703 26.3496 40.4703 27.3899C40.4703 28.4302 39.599 29.2778 38.5119 29.2778H38.5199Z" fill="#C6CEE4"/>
<path d="M38.5199 44.3579H18.9598C17.8806 44.3579 17.0013 43.5103 17.0013 42.47C17.0013 41.4297 17.8726 40.582 18.9598 40.582H38.5119C39.591 40.582 40.4703 41.4297 40.4703 42.47C40.4703 43.5103 39.599 44.3579 38.5119 44.3579H38.5199Z" fill="#C6CEE4"/>
</svg>
