<svg width="106" height="106" viewBox="0 0 106 106" fill="none" xmlns="http://www.w3.org/2000/svg">
<path d="M60.1798 12.9627C58.1385 8.9628 52.4231 8.96281 50.3819 12.9627L38.9726 35.3191C38.6094 36.0309 37.9277 36.5262 37.1385 36.6517L12.3506 40.594C7.91573 41.2993 6.14961 46.7349 9.32294 49.9123L27.0595 67.6717C27.6242 68.2371 27.8846 69.0384 27.7601 69.8278L23.8496 94.6207C23.1499 99.0565 27.7737 102.416 31.7762 100.38L54.1473 88.9992C54.8595 88.6369 55.7021 88.6369 56.4144 88.9992L78.7854 100.38C82.7879 102.416 87.4117 99.0565 86.7121 94.6207L82.8015 69.8278C82.677 69.0384 82.9374 68.2371 83.5021 67.6717L101.239 49.9123C104.412 46.7349 102.646 41.2993 98.211 40.594L73.4231 36.6517C72.6339 36.5262 71.9522 36.0309 71.589 35.3191L60.1798 12.9627Z" fill="url(#paint0_linear_6484_618)" stroke="url(#paint1_linear_6484_618)" stroke-width="3"/>
<g filter="url(#filter0_f_6484_618)">
<path fill-rule="evenodd" clip-rule="evenodd" d="M44.3824 4.4396C45.2095 4.87014 45.5135 5.85773 45.0615 6.64546L34.9403 26.8254C33.6573 29.0611 31.3475 30.5944 28.701 30.9673L6.22489 35.0762C5.29245 35.2076 4.42473 34.5941 4.28679 33.7061C4.14885 32.8181 4.79293 31.9917 5.72537 31.8603L28.2015 27.7514C29.7894 27.5277 31.1752 26.6077 31.9451 25.2663L42.0662 5.08634C42.5183 4.29862 43.5553 4.00906 44.3824 4.4396Z" fill="white" fill-opacity="0.5"/>
</g>
<path d="M75.6969 54.138C75.5492 54.1646 75.3277 54.1978 75.0323 54.2376C74.7503 54.2907 74.4617 54.3172 74.1663 54.3172C73.8709 54.3172 73.6024 54.2973 73.3607 54.2575C73.1325 54.2177 72.9378 54.138 72.7767 54.0186C72.6156 53.8992 72.488 53.7399 72.3941 53.5409C72.3135 53.3285 72.2732 53.0565 72.2732 52.7247V41.1792C72.4209 41.1526 72.6357 41.1194 72.9177 41.0796C73.2131 41.0265 73.5084 41 73.8038 41C74.0992 41 74.361 41.0199 74.5892 41.0597C74.8309 41.0995 75.0323 41.1792 75.1934 41.2986C75.3545 41.418 75.4754 41.5839 75.5559 41.7962C75.6499 41.9953 75.6969 42.2607 75.6969 42.5925V54.138Z" fill="#D27300"/>
<path d="M67.3426 54.4765C66.5504 54.4765 65.812 54.3703 65.1273 54.158C64.456 53.9324 63.8652 53.6006 63.355 53.1626C62.8582 52.7247 62.4622 52.174 62.1668 51.5104C61.8848 50.8469 61.7439 50.0706 61.7439 49.1814C61.7439 48.3056 61.8848 47.5558 62.1668 46.932C62.4622 46.295 62.8448 45.7775 63.3147 45.3793C63.7846 44.968 64.3217 44.6694 64.9259 44.4836C65.53 44.2845 66.1476 44.185 66.7787 44.185C67.4903 44.185 68.1347 44.2911 68.712 44.5035C69.3028 44.7158 69.8063 45.0078 70.2225 45.3793C70.6521 45.7509 70.9811 46.1955 71.2093 46.7131C71.451 47.2306 71.5718 47.7946 71.5718 48.4051C71.5718 48.8563 71.4443 49.2013 71.1892 49.4402C70.9341 49.6791 70.5783 49.8317 70.1218 49.898L65.1474 50.6346C65.2951 51.0725 65.5972 51.4043 66.0537 51.6299C66.5102 51.8422 67.0338 51.9484 67.6245 51.9484C68.175 51.9484 68.6919 51.882 69.1752 51.7493C69.672 51.6033 70.0748 51.4374 70.3836 51.2517C70.5984 51.3844 70.7797 51.5702 70.9274 51.809C71.075 52.0479 71.1489 52.3 71.1489 52.5655C71.1489 53.1626 70.8669 53.6072 70.303 53.8992C69.8734 54.1248 69.3901 54.2774 68.853 54.357C68.316 54.4366 67.8125 54.4765 67.3426 54.4765ZM66.7787 46.6533C66.4564 46.6533 66.1745 46.7064 65.9328 46.8126C65.7046 46.9188 65.5166 47.0581 65.3689 47.2306C65.2212 47.3899 65.1071 47.5757 65.0266 47.788C64.9594 47.9871 64.9192 48.1928 64.9057 48.4051L68.3495 47.8477C68.3093 47.5823 68.1616 47.3169 67.9065 47.0515C67.6514 46.786 67.2754 46.6533 66.7787 46.6533Z" fill="#D27300"/>
<path d="M58.843 53.8992C58.6551 54.0452 58.3798 54.1646 58.0173 54.2575C57.6548 54.3504 57.2453 54.3968 56.7888 54.3968C56.2652 54.3968 55.8087 54.3305 55.4194 54.1978C55.0434 54.0651 54.7816 53.8527 54.6339 53.5608C54.5131 53.3352 54.3654 53.0233 54.1909 52.6252C54.0298 52.2138 53.8552 51.7626 53.6673 51.2716C53.4793 50.7673 53.2846 50.2298 53.0832 49.6592C52.8818 49.0885 52.6871 48.5245 52.4992 47.9671C52.3246 47.4098 52.1635 46.8723 52.0158 46.3548C51.8682 45.8372 51.7473 45.3794 51.6533 44.9812C51.8413 44.7954 52.0897 44.6362 52.3985 44.5035C52.7207 44.3575 53.0698 44.2845 53.4457 44.2845C53.9156 44.2845 54.2983 44.384 54.5937 44.5831C54.9025 44.7689 55.1307 45.1272 55.2784 45.658L56.0638 48.7037C56.2115 49.3009 56.3525 49.845 56.4867 50.336C56.621 50.8137 56.7217 51.1853 56.7888 51.4507H56.8895C57.1446 50.4687 57.4132 49.3805 57.6951 48.1861C57.9771 46.9917 58.2321 45.8173 58.4604 44.6627C58.6886 44.5433 58.9437 44.4504 59.2257 44.384C59.5211 44.3177 59.803 44.2845 60.0715 44.2845C60.5414 44.2845 60.9375 44.384 61.2597 44.5831C61.582 44.7822 61.7431 45.1272 61.7431 45.6182C61.7431 45.8306 61.6894 46.1424 61.582 46.5538C61.488 46.9519 61.3604 47.4098 61.1993 47.9273C61.0516 48.4316 60.8704 48.9691 60.6556 49.5397C60.4542 50.1104 60.2461 50.6677 60.0313 51.2118C59.8164 51.7559 59.6016 52.2669 59.3868 52.7446C59.1854 53.2091 59.0042 53.5939 58.843 53.8992Z" fill="#D27300"/>
<path d="M47.5062 54.4765C46.7141 54.4765 45.9757 54.3703 45.2909 54.158C44.6196 53.9324 44.0289 53.6006 43.5187 53.1626C43.0219 52.7247 42.6258 52.174 42.3305 51.5104C42.0485 50.8469 41.9075 50.0706 41.9075 49.1814C41.9075 48.3056 42.0485 47.5558 42.3305 46.932C42.6258 46.295 43.0085 45.7775 43.4784 45.3793C43.9483 44.968 44.4853 44.6694 45.0895 44.4836C45.6937 44.2845 46.3113 44.185 46.9423 44.185C47.6539 44.185 48.2984 44.2911 48.8757 44.5035C49.4664 44.7158 49.9699 45.0078 50.3861 45.3793C50.8158 45.7509 51.1447 46.1955 51.373 46.7131C51.6146 47.2306 51.7355 47.7946 51.7355 48.4051C51.7355 48.8563 51.6079 49.2013 51.3528 49.4402C51.0977 49.6791 50.7419 49.8317 50.2854 49.898L45.3111 50.6346C45.4587 51.0725 45.7608 51.4043 46.2173 51.6299C46.6738 51.8422 47.1974 51.9484 47.7882 51.9484C48.3387 51.9484 48.8556 51.882 49.3389 51.7493C49.8357 51.6033 50.2385 51.4374 50.5473 51.2517C50.7621 51.3844 50.9433 51.5702 51.091 51.809C51.2387 52.0479 51.3125 52.3 51.3125 52.5655C51.3125 53.1626 51.0306 53.6072 50.4667 53.8992C50.0371 54.1248 49.5537 54.2774 49.0167 54.357C48.4796 54.4366 47.9761 54.4765 47.5062 54.4765ZM46.9423 46.6533C46.6201 46.6533 46.3382 46.7064 46.0965 46.8126C45.8682 46.9188 45.6803 47.0581 45.5326 47.2306C45.3849 47.3899 45.2708 47.5757 45.1902 47.788C45.1231 47.9871 45.0828 48.1928 45.0694 48.4051L48.5132 47.8477C48.4729 47.5823 48.3252 47.3169 48.0701 47.0515C47.815 46.786 47.4391 46.6533 46.9423 46.6533Z" fill="#D27300"/>
<path d="M35.3436 54.2177C34.7662 54.2177 34.3097 54.0518 33.9741 53.72C33.6384 53.3883 33.4706 52.937 33.4706 52.3664V42.0749C33.6183 42.0484 33.8533 42.0152 34.1755 41.9754C34.4977 41.9223 34.8065 41.8958 35.1019 41.8958C35.4107 41.8958 35.6792 41.9223 35.9075 41.9754C36.1491 42.0152 36.3505 42.0948 36.5116 42.2143C36.6727 42.3337 36.7936 42.4996 36.8741 42.7119C36.9547 42.9243 36.995 43.2029 36.995 43.548V51.4109H41.6069C41.7008 51.5569 41.7881 51.7559 41.8687 52.0081C41.9492 52.247 41.9895 52.4991 41.9895 52.7645C41.9895 53.2954 41.8754 53.6736 41.6471 53.8992C41.4189 54.1115 41.1168 54.2177 40.7409 54.2177H35.3436Z" fill="#D27300"/>
<path d="M66.5762 68.424C67.704 68.424 68.5633 68.1719 69.154 67.6676C69.7716 67.1368 70.0804 66.3405 70.0804 65.2788C70.0804 64.2703 69.7582 63.5006 69.1138 62.9697C68.4962 62.4124 67.5832 62.1337 66.3748 62.1337C65.9452 62.1337 65.5827 62.1469 65.2873 62.1735C65.0188 62.1735 64.7368 62.2 64.4415 62.2531V68.424H66.5762ZM64.4817 81.2038C64.1864 81.2834 63.7164 81.363 63.072 81.4426C62.4544 81.5223 61.8368 81.5621 61.2192 81.5621C60.6016 81.5621 60.0511 81.509 59.5678 81.4028C59.1113 81.3232 58.7219 81.1639 58.3997 80.9251C58.0775 80.6862 57.8358 80.3544 57.6747 79.9298C57.5136 79.5051 57.433 78.9477 57.433 78.2576V59.5061C57.433 58.9487 57.5807 58.524 57.8761 58.2321C58.1983 57.9136 58.6279 57.6614 59.165 57.4756C60.078 57.1571 61.1118 56.9315 62.2664 56.7988C63.4479 56.6396 64.6294 56.56 65.8109 56.56C69.5165 56.56 72.3495 57.3429 74.3097 58.9089C76.2699 60.4748 77.25 62.5982 77.25 65.2788C77.25 66.5794 77.0352 67.7605 76.6055 68.8221C76.2028 69.8573 75.5852 70.7597 74.7527 71.5294C73.9472 72.2725 72.9134 72.8564 71.6513 73.2811C70.4161 73.6792 68.9795 73.8783 67.3415 73.8783H64.4817V81.2038Z" fill="#D27300"/>
<path d="M55.0004 72.4451C55.0004 73.8783 54.7453 75.1921 54.2351 76.3865C53.7517 77.5543 53.0401 78.5629 52.1003 79.4122C51.1605 80.235 50.0193 80.872 48.6766 81.3232C47.334 81.7744 45.8169 82 44.1252 82C42.4335 82 40.9163 81.7744 39.5737 81.3232C38.2311 80.872 37.0899 80.235 36.15 79.4122C35.2102 78.5629 34.4852 77.5543 33.975 76.3865C33.4917 75.1921 33.25 73.8783 33.25 72.4451V57.2368C33.5454 57.1837 34.0153 57.1173 34.6597 57.0377C35.3042 56.9315 35.9218 56.8785 36.5126 56.8785C37.1302 56.8785 37.6672 56.9315 38.1237 57.0377C38.607 57.1173 39.0098 57.2766 39.332 57.5155C39.6543 57.7543 39.8959 58.0861 40.0571 58.5108C40.2182 58.9354 40.2987 59.4928 40.2987 60.1829V72.3256C40.2987 73.5996 40.6478 74.5949 41.346 75.3115C42.071 76.0282 42.9974 76.3865 44.1252 76.3865C45.2798 76.3865 46.2062 76.0282 46.9044 75.3115C47.6025 74.5949 47.9516 73.5996 47.9516 72.3256V57.2368C48.247 57.1837 48.7169 57.1173 49.3614 57.0377C50.0058 56.9315 50.6234 56.8785 51.2142 56.8785C51.8318 56.8785 52.3688 56.9315 52.8253 57.0377C53.3087 57.1173 53.7114 57.2766 54.0337 57.5155C54.3559 57.7543 54.5976 58.0861 54.7587 58.5108C54.9198 58.9354 55.0004 59.4928 55.0004 60.1829V72.4451Z" fill="#D27300"/>
<defs>
<filter id="filter0_f_6484_618" x="0.268188" y="0.240234" width="49.0027" height="38.8535" filterUnits="userSpaceOnUse" color-interpolation-filters="sRGB">
<feFlood flood-opacity="0" result="BackgroundImageFix"/>
<feBlend mode="normal" in="SourceGraphic" in2="BackgroundImageFix" result="shape"/>
<feGaussianBlur stdDeviation="2" result="effect1_foregroundBlur_6484_618"/>
</filter>
<linearGradient id="paint0_linear_6484_618" x1="55.2808" y1="6.66309" x2="55.2808" y2="112.725" gradientUnits="userSpaceOnUse">
<stop stop-color="#FFF07D"/>
<stop offset="1" stop-color="#FFAA01"/>
</linearGradient>
<linearGradient id="paint1_linear_6484_618" x1="55.2808" y1="6.66309" x2="55.2808" y2="112.725" gradientUnits="userSpaceOnUse">
<stop stop-color="#FFE76D"/>
<stop offset="1" stop-color="#FE8900"/>
</linearGradient>
</defs>
</svg>
