<svg width="101" height="101" viewBox="0 0 101 101" fill="none" xmlns="http://www.w3.org/2000/svg">
<ellipse cx="50.6194" cy="96.9203" rx="25.4889" ry="3.23864" fill="#D9D9D9"/>
<path d="M27.6772 50.96C26.2133 52.9137 17.3656 50.9652 11.9064 47.0833C6.44719 43.2015 8.22577 38.2415 9.68972 36.2879C14.1228 38.4469 14.984 38.6712 20.4432 42.553C25.9024 46.4348 29.1412 49.0064 27.6772 50.96Z" fill="#F7D548"/>
<path d="M73.2724 50.96C74.7363 52.9137 83.584 50.9652 89.0432 47.0833C94.5024 43.2015 92.7238 38.2415 91.2599 36.2879C86.8268 38.4469 85.9656 38.6712 80.5064 42.553C75.0472 46.4348 71.8084 49.0064 73.2724 50.96Z" fill="#F7D548"/>
<path d="M81.6802 44.1193C81.6802 56.3822 74.2766 66.9589 63.5816 71.8355C59.5425 73.6801 55.0321 74.7093 50.2778 74.7093C32.935 74.7093 18.8755 61.0135 18.8755 44.1193C18.8755 30.1305 28.5221 18.3268 41.6877 14.693C44.4183 13.941 47.3034 13.5293 50.2778 13.5293C67.6206 13.5293 81.6802 27.2251 81.6802 44.1193Z" fill="#F2CE36"/>
<path d="M58.1366 14.495C58.543 11.4471 57.9741 8.09833 57.9741 8.09833C57.9741 8.09833 55.6173 10.6554 53.9269 10.6792C52.6103 7.18 48.8638 3 48.8638 3C48.8638 3 48.5144 7.62333 46.889 10.7188C44.581 9.83208 42.2079 7.53625 42.2079 7.53625C42.2079 7.53625 42.3136 11.0038 43.2969 14.2812C42.7524 14.4 42.216 14.5346 41.6797 14.685C30.9847 19.5617 23.5811 30.1383 23.5811 42.4012C23.5811 59.2954 37.6406 72.9912 54.9834 72.9912C57.966 72.9912 60.8429 72.5875 63.5735 71.8354C74.2685 66.9587 81.6721 56.3821 81.6721 44.1192C81.6721 29.8692 71.6679 17.8992 58.1366 14.495Z" fill="#F7D548"/>
<path d="M80.2843 86.1179C79.0572 87.3054 77.7487 88.4137 76.3753 89.4349C68.8904 95.0083 59.4957 98.0008 50.2148 98.0008C35.627 98.0008 21.0474 90.6858 13.5544 77.5599C9.1171 69.6037 7.36982 59.502 9.95417 47.6033L13.4894 50.8808L14.9928 52.2741L19.7796 56.7312L36.1472 48.1574L50.5399 57.5704L56.5375 53.6595L64.9895 48.1495L65.1602 48.2524L79.9593 56.7312L84.3966 52.852L85.0223 52.3058L90.4592 47.5479C90.4755 47.6033 90.4836 47.6587 90.4998 47.7141C90.5892 48.1099 90.6705 48.4979 90.7518 48.8858C91.0687 50.4454 91.2963 51.9654 91.4588 53.4616C92.9948 67.3712 88.1918 78.4862 80.2762 86.1337L80.2843 86.1179Z" fill="#D6F9FC"/>
<path d="M80.6866 86.2889C79.4595 87.4764 78.1511 88.5847 76.7776 89.6059C70.6093 92.7251 63.6852 94.3718 56.8098 94.3718C42.222 94.3718 27.5449 87.0568 20.19 73.9309C16.8255 67.9301 14.9969 60.7259 15.4114 52.4451L20.19 56.9022L36.5495 48.3284L50.9422 57.7414L56.9398 53.8305L57.1024 53.9334L63.1 50.0226L65.5625 48.4155L80.3616 56.8943L84.7989 53.0151L85.4246 52.4689L90.8615 47.7109C90.8778 47.7664 90.8859 47.8218 90.9022 47.8772C90.9915 48.273 91.0728 48.6609 91.1541 49.0489C91.471 50.6084 91.6986 52.1284 91.8611 53.6247C93.3971 67.5343 88.5941 78.6493 80.6785 86.2968L80.6866 86.2889Z" fill="#EEFDFF"/>
<path d="M42.5261 39.3303C42.5261 39.7974 42.4042 40.2408 42.1847 40.6287C42.0303 40.9058 41.8271 41.1512 41.5915 41.357C41.1039 41.7766 40.4618 42.0378 39.7548 42.0378C38.2269 42.0378 36.9835 40.8266 36.9835 39.3383C36.9835 38.317 37.5687 37.4303 38.422 36.9712C38.5276 36.9158 38.6333 36.8683 38.7471 36.8208C39.0559 36.702 39.3972 36.6387 39.7548 36.6387C41.2826 36.6387 42.5261 37.8499 42.5261 39.3383V39.3303Z" fill="black"/>
<path d="M63.5734 39.3303C63.5734 39.7974 63.4515 40.2408 63.2321 40.6287C63.0777 40.9058 62.8745 41.1512 62.6388 41.357C62.1512 41.7766 61.5092 42.0378 60.8022 42.0378C59.2743 42.0378 58.0309 40.8266 58.0309 39.3383C58.0309 38.317 58.616 37.4303 59.4693 36.9712C59.575 36.9158 59.6806 36.8683 59.7944 36.8208C60.1032 36.702 60.4446 36.6387 60.8022 36.6387C62.33 36.6387 63.5734 37.8499 63.5734 39.3383V39.3303Z" fill="black"/>
<path d="M42.5239 39.3304C42.5239 39.7975 42.402 40.2409 42.1826 40.6288C42.0282 40.9059 41.825 41.1513 41.5893 41.3571C41.2805 41.4759 40.9392 41.5392 40.5816 41.5392C39.0537 41.5392 37.8103 40.3279 37.8103 38.8396C37.8103 38.0321 38.176 37.3117 38.7449 36.8129C39.0537 36.6942 39.3951 36.6309 39.7526 36.6309C41.2805 36.6309 42.5239 37.8421 42.5239 39.3304Z" fill="#1A1A1A"/>
<path d="M63.5757 39.3304C63.5757 39.7975 63.4538 40.2409 63.2343 40.6288C63.0799 40.9059 62.8767 41.1513 62.6411 41.3571C62.3322 41.4759 61.9909 41.5392 61.6333 41.5392C60.1055 41.5392 58.8621 40.3279 58.8621 38.8396C58.8621 38.0321 59.2278 37.3117 59.7967 36.8129C60.1055 36.6942 60.4468 36.6309 60.8044 36.6309C62.3322 36.6309 63.5757 37.8421 63.5757 39.3304Z" fill="#1A1A1A"/>
<path d="M54.8529 40.9531L51.4071 46.7402L50.2775 48.6323L45.702 40.9531H54.8529Z" fill="#EF7F0F"/>
<path d="M54.852 40.9531L51.0974 47.2469L47.2777 40.9531H54.852Z" fill="#F7931E"/>
<path d="M29.0114 64.4098C29.3514 64.2098 29.8614 64.0198 30.5414 63.8398C31.2414 63.6598 31.9414 63.5698 32.6414 63.5698C33.6414 63.5698 34.5214 63.7198 35.2814 64.0198C36.0614 64.2998 36.5614 64.7498 36.7814 65.3698C37.1414 66.4098 37.5314 67.6198 37.9514 68.9998C38.3714 70.3798 38.7914 71.8098 39.2114 73.2898C39.6314 74.7498 40.0414 76.1998 40.4414 77.6398C40.8414 79.0598 41.1914 80.3198 41.4914 81.4198C41.2514 81.6998 40.8914 81.9198 40.4114 82.0798C39.9314 82.2598 39.3614 82.3498 38.7014 82.3498C38.2214 82.3498 37.8114 82.3098 37.4714 82.2298C37.1514 82.1498 36.8814 82.0298 36.6614 81.8698C36.4614 81.7098 36.2914 81.4998 36.1514 81.2398C36.0314 80.9798 35.9214 80.6798 35.8214 80.3398L35.2814 78.2698H29.8514C29.6914 78.8698 29.5314 79.4898 29.3714 80.1298C29.2114 80.7698 29.0514 81.3898 28.8914 81.9898C28.6114 82.0898 28.3114 82.1698 27.9914 82.2298C27.6914 82.3098 27.3214 82.3498 26.8814 82.3498C25.8614 82.3498 25.1014 82.1798 24.6014 81.8398C24.1214 81.4798 23.8814 80.9898 23.8814 80.3698C23.8814 80.0898 23.9214 79.8098 24.0014 79.5298C24.0814 79.2498 24.1714 78.9198 24.2714 78.5398C24.4114 77.9998 24.6014 77.3298 24.8414 76.5298C25.1014 75.7298 25.3814 74.8698 25.6814 73.9498C25.9814 73.0098 26.3014 72.0498 26.6414 71.0698C26.9814 70.0898 27.3014 69.1698 27.6014 68.3098C27.9014 67.4298 28.1714 66.6498 28.4114 65.9698C28.6714 65.2898 28.8714 64.7698 29.0114 64.4098ZM32.6114 68.2798C32.3314 69.1198 32.0114 70.0598 31.6514 71.0998C31.3114 72.1198 31.0014 73.1598 30.7214 74.2198H34.4414C34.1614 73.1398 33.8714 72.0898 33.5714 71.0698C33.2914 70.0298 33.0314 69.0998 32.7914 68.2798H32.6114ZM49.05 78.2998C49.33 78.3798 49.69 78.4398 50.13 78.4798C50.57 78.4998 50.99 78.5098 51.39 78.5098C52.19 78.5098 52.85 78.3498 53.37 78.0298C53.91 77.6898 54.18 77.1698 54.18 76.4698C54.18 75.8098 53.96 75.3398 53.52 75.0598C53.08 74.7798 52.41 74.6398 51.51 74.6398H49.05V78.2998ZM49.05 70.9798H51.24C52.1 70.9798 52.72 70.8198 53.1 70.4998C53.5 70.1798 53.7 69.7098 53.7 69.0898C53.7 68.5498 53.47 68.1198 53.01 67.7998C52.57 67.4798 51.9 67.3198 51 67.3198C50.7 67.3198 50.35 67.3298 49.95 67.3498C49.57 67.3698 49.27 67.3998 49.05 67.4398V70.9798ZM51 82.5298C50.66 82.5298 50.26 82.5198 49.8 82.4998C49.34 82.4798 48.86 82.4398 48.36 82.3798C47.88 82.3198 47.4 82.2398 46.92 82.1398C46.44 82.0598 46 81.9398 45.6 81.7798C44.5 81.3598 43.95 80.6298 43.95 79.5898V65.5798C43.95 65.1598 44.06 64.8398 44.28 64.6198C44.52 64.3798 44.84 64.1898 45.24 64.0498C45.92 63.8098 46.77 63.6398 47.79 63.5398C48.81 63.4198 49.86 63.3598 50.94 63.3598C53.5 63.3598 55.47 63.7898 56.85 64.6498C58.23 65.5098 58.92 66.8398 58.92 68.6398C58.92 69.5398 58.66 70.3198 58.14 70.9798C57.62 71.6198 56.92 72.0898 56.04 72.3898C57.04 72.6698 57.87 73.1798 58.53 73.9198C59.21 74.6598 59.55 75.5898 59.55 76.7098C59.55 78.6898 58.81 80.1598 57.33 81.1198C55.87 82.0598 53.76 82.5298 51 82.5298ZM71.7942 67.5298C70.2542 67.5298 69.0742 67.9998 68.2542 68.9398C67.4342 69.8798 67.0242 71.2098 67.0242 72.9298C67.0242 74.6698 67.4742 76.0098 68.3742 76.9498C69.2942 77.8898 70.5242 78.3598 72.0642 78.3598C72.8842 78.3598 73.5742 78.2498 74.1342 78.0298C74.7142 77.8098 75.2642 77.5598 75.7842 77.2798C76.1242 77.5598 76.3842 77.8998 76.5642 78.2998C76.7642 78.6798 76.8642 79.1298 76.8642 79.6498C76.8642 80.4698 76.4042 81.1698 75.4842 81.7498C74.5842 82.3098 73.2042 82.5898 71.3442 82.5898C70.0042 82.5898 68.7442 82.3998 67.5642 82.0198C66.3842 81.6398 65.3542 81.0598 64.4742 80.2798C63.5942 79.4798 62.8942 78.4798 62.3742 77.2798C61.8742 76.0598 61.6242 74.6098 61.6242 72.9298C61.6242 71.3698 61.8642 69.9998 62.3442 68.8198C62.8442 67.6198 63.5142 66.6098 64.3542 65.7898C65.2142 64.9698 66.2142 64.3498 67.3542 63.9298C68.4942 63.5098 69.7142 63.2998 71.0142 63.2998C72.8542 63.2998 74.2742 63.5998 75.2742 64.1998C76.2942 64.7998 76.8042 65.5698 76.8042 66.5098C76.8042 67.0298 76.6742 67.4798 76.4142 67.8598C76.1542 68.2398 75.8542 68.5398 75.5142 68.7598C74.9942 68.4198 74.4342 68.1298 73.8342 67.8898C73.2542 67.6498 72.5742 67.5298 71.7942 67.5298Z" fill="#9BDFE4"/>
</svg>
