<svg width="378" height="67" viewBox="0 0 378 67" fill="none" xmlns="http://www.w3.org/2000/svg">
<path d="M13.05 66.68C11.97 66.68 11.07 66.17 10.35 65.15C9.69 64.13 9.18 62.99 8.82 61.73C8.52 60.47 8.37 59.51 8.37 58.85C8.37 57.83 8.61 56.48 9.09 54.8C9.63 53.12 10.26 51.38 10.98 49.58C11.7 47.72 12.42 45.98 13.14 44.36C13.92 42.68 14.58 41.36 15.12 40.4C13.86 39.5 12.84 38.57 12.06 37.61C11.28 36.59 10.89 35.33 10.89 33.83C10.89 32.69 11.22 31.79 11.88 31.13C12.54 30.47 13.53 30.14 14.85 30.14C15.75 30.14 16.65 30.29 17.55 30.59C18.45 30.83 19.29 31.16 20.07 31.58C21.99 28.64 24.18 25.52 26.64 22.22C29.16 18.86 31.62 15.89 34.02 13.31C34.32 13.01 34.68 12.68 35.1 12.32C35.58 11.96 36.09 11.78 36.63 11.78C37.17 11.78 37.44 12.08 37.44 12.68C37.44 13.1 37.32 13.49 37.08 13.85C36.84 14.21 36.6 14.54 36.36 14.84C35.58 15.8 34.8 16.73 34.02 17.63C33.24 18.53 32.46 19.46 31.68 20.42C30 22.52 28.38 24.68 26.82 26.9C25.32 29.12 23.88 31.37 22.5 33.65C23.82 34.85 25.08 36.11 26.28 37.43C27.54 38.69 28.77 39.98 29.97 41.3H32.67C36.39 41.3 40.32 41.03 44.46 40.49C48.6 39.95 52.62 39.05 56.52 37.79C60.48 36.47 63.96 34.7 66.96 32.48C70.02 30.26 72.27 27.44 73.71 24.02C74.49 22.04 74.88 20.15 74.88 18.35C74.88 15.41 74.04 12.95 72.36 10.97C70.68 8.99 68.49 7.43 65.79 6.29C63.09 5.09 60.21 4.25 57.15 3.77C54.09 3.23 51.18 2.96 48.42 2.96H46.8C43.5 2.96 39.93 3.17 36.09 3.59C32.31 3.95 28.53 4.61 24.75 5.57C20.97 6.47 17.46 7.76 14.22 9.44C10.98 11.06 8.31 13.13 6.21 15.65C5.25 16.73 4.47 17.93 3.87 19.25C3.27 20.57 2.97 21.92 2.97 23.3C2.97 23.72 3.03 24.14 3.15 24.56C3.33 24.98 3.42 25.4 3.42 25.82C3.42 26.18 3.27 26.48 2.97 26.72C2.67 26.96 2.31 27.08 1.89 27.08C0.99 27.08 0.45 26.66 0.27 25.82C0.09 24.92 0 24.23 0 23.75C0 22.19 0.3 20.66 0.9 19.16C1.56 17.66 2.37 16.28 3.33 15.02C5.55 12.08 8.34 9.68 11.7 7.81999C15.12 5.9 18.84 4.4 22.86 3.32C26.88 2.24 30.96 1.49 35.1 1.07C39.24 0.649998 43.14 0.439999 46.8 0.439999H48.33C51.51 0.439999 54.81 0.739998 58.23 1.34C61.71 1.94 64.92 2.93 67.86 4.31C70.86 5.69 73.26 7.55 75.06 9.88999C76.92 12.17 77.85 14.99 77.85 18.35C77.85 20.57 77.4 22.73 76.5 24.83C74.88 28.49 72.45 31.55 69.21 34.01C65.97 36.47 62.25 38.42 58.05 39.86C53.91 41.3 49.59 42.35 45.09 43.01C40.65 43.61 36.39 43.94 32.31 44C32.97 44.66 33.6 45.35 34.2 46.07C34.86 46.73 35.49 47.42 36.09 48.14C36.81 48.98 37.86 50.18 39.24 51.74C40.68 53.3 42.24 54.89 43.92 56.51C45.66 58.07 47.37 59.42 49.05 60.56C50.79 61.64 52.35 62.18 53.73 62.18C55.11 62.18 56.19 61.88 56.97 61.28C57.81 60.68 58.53 60.38 59.13 60.38C60.09 60.38 60.57 60.83 60.57 61.73C60.57 62.27 60.09 62.78 59.13 63.26C58.23 63.74 57.21 64.1 56.07 64.34C54.99 64.64 54.18 64.79 53.64 64.79C52.2 64.79 50.73 64.46 49.23 63.8C48.09 63.32 46.8 62.48 45.36 61.28C43.92 60.08 42.45 58.73 40.95 57.23C39.51 55.73 38.13 54.29 36.81 52.91C35.55 51.53 34.53 50.42 33.75 49.58L28.53 43.91C26.97 43.79 25.65 43.7 24.57 43.64C23.55 43.58 22.53 43.43 21.51 43.19C20.55 42.95 19.32 42.53 17.82 41.93C17.34 42.89 16.71 44.15 15.93 45.71C15.21 47.27 14.49 48.92 13.77 50.66C13.05 52.4 12.45 54.05 11.97 55.61C11.49 57.17 11.25 58.43 11.25 59.39C11.25 61.07 11.52 62.21 12.06 62.81C12.66 63.47 13.23 63.89 13.77 64.07C14.31 64.31 14.58 64.7 14.58 65.24C14.58 65.6 14.43 65.93 14.13 66.23C13.89 66.53 13.53 66.68 13.05 66.68ZM16.56 38.06C17.04 37.22 17.46 36.41 17.82 35.63C18.24 34.85 18.69 34.07 19.17 33.29C18.15 32.45 17.04 32.03 15.84 32.03C14.52 32.03 13.86 32.57 13.86 33.65C13.86 34.49 14.16 35.3 14.76 36.08C15.36 36.8 15.96 37.46 16.56 38.06ZM26.28 41.12C25.44 40.22 24.6 39.32 23.76 38.42C22.98 37.46 22.17 36.5 21.33 35.54C20.91 36.2 20.52 36.89 20.16 37.61C19.8 38.33 19.44 39.02 19.08 39.68C20.34 40.28 21.51 40.64 22.59 40.76C23.67 40.88 24.9 41 26.28 41.12ZM78.7163 62.9C75.5963 62.9 73.4063 62 72.1463 60.2C70.9463 58.34 70.3463 56.18 70.3463 53.72C70.3463 51.92 70.7963 49.79 71.6963 47.33C72.5963 44.81 73.8263 42.35 75.3863 39.95C77.0063 37.55 78.8663 35.57 80.9663 34.01C83.0663 32.39 85.3163 31.58 87.7163 31.58C89.2763 31.58 90.5063 32.03 91.4062 32.93C92.3663 33.77 92.8463 34.85 92.8463 36.17C92.8463 38.69 92.0363 41.12 90.4163 43.46C88.7963 45.8 86.6963 47.72 84.1163 49.22C81.5363 50.72 78.7763 51.47 75.8363 51.47C75.4763 51.47 75.1163 51.47 74.7563 51.47C74.3963 51.41 74.0363 51.35 73.6763 51.29C73.4963 52.07 73.4063 52.97 73.4063 53.99C73.4063 55.55 73.7663 56.99 74.4863 58.31C75.2663 59.63 76.7363 60.29 78.8963 60.29C80.6963 60.29 82.4363 59.84 84.1163 58.94C85.7963 58.04 87.2063 57.02 88.3463 55.88C89.4863 54.74 90.4463 53.72 91.2263 52.82C92.0063 51.92 92.8163 50.9 93.6563 49.76C94.4963 48.56 95.5463 47 96.8063 45.08C97.0463 44.66 97.4063 44.45 97.8863 44.45C98.7263 44.45 99.1463 44.9 99.1463 45.8C99.1463 46.1 99.0863 46.34 98.9663 46.52C97.3463 49.28 95.5463 51.92 93.5663 54.44C91.5863 56.9 89.3663 58.94 86.9063 60.56C84.5063 62.12 81.7763 62.9 78.7163 62.9ZM76.4663 48.68C78.7463 48.68 80.8763 48.08 82.8563 46.88C84.8963 45.62 86.5463 44.06 87.8063 42.2C89.1263 40.34 89.7863 38.45 89.7863 36.53C89.7863 35.87 89.6063 35.33 89.2463 34.91C88.9463 34.49 88.4063 34.28 87.6263 34.28C86.0663 34.28 84.5663 34.82 83.1263 35.9C81.6863 36.92 80.3663 38.24 79.1663 39.86C78.0263 41.42 77.0363 42.98 76.1963 44.54C75.4163 46.1 74.8463 47.42 74.4863 48.5C74.7863 48.56 75.0863 48.62 75.3863 48.68C75.7463 48.68 76.1063 48.68 76.4663 48.68ZM98.1162 62.36C96.1362 62.36 94.7562 61.85 93.9762 60.83C93.2562 59.75 92.8962 58.46 92.8962 56.96C92.8962 55.52 93.1362 54.02 93.6162 52.46C94.0962 50.9 94.6062 49.46 95.1462 48.14C95.7462 46.76 96.2262 45.74 96.5862 45.08C97.6662 43.22 98.8662 41.42 100.186 39.68C101.566 37.94 103.036 36.41 104.596 35.09C106.156 33.71 107.746 32.66 109.366 31.94C111.046 31.16 112.726 30.77 114.406 30.77C117.286 30.77 119.326 31.55 120.526 33.11C121.726 34.61 122.326 36.23 122.326 37.97C122.326 38.57 122.236 39.2 122.056 39.86C121.816 40.76 121.516 41.54 121.156 42.2C120.856 42.86 120.466 43.19 119.986 43.19C119.566 43.19 119.176 42.98 118.816 42.56C118.456 42.14 118.336 41.72 118.456 41.3C118.576 40.88 118.726 40.46 118.906 40.04C119.146 39.62 119.296 39.2 119.356 38.78C119.416 38.48 119.446 38.21 119.446 37.97C119.506 37.73 119.536 37.49 119.536 37.25C119.536 35.63 118.996 34.52 117.916 33.92C116.896 33.26 115.786 32.93 114.586 32.93C113.206 32.93 111.766 33.32 110.266 34.1C108.826 34.88 107.566 35.78 106.486 36.8C105.166 38.12 103.846 39.65 102.526 41.39C101.206 43.13 100.066 44.9 99.1062 46.7C98.9862 47 98.6562 47.72 98.1162 48.86C97.6362 50 97.1562 51.29 96.6762 52.73C96.2562 54.11 96.0462 55.4 96.0462 56.6C96.0462 57.44 96.2262 58.16 96.5862 58.76C97.0062 59.36 97.6962 59.66 98.6562 59.66C99.6762 59.66 100.846 59.18 102.166 58.22C103.546 57.26 104.926 56.09 106.306 54.71C107.746 53.27 109.036 51.89 110.176 50.57C111.316 49.25 112.156 48.23 112.696 47.51C113.056 47.03 113.386 46.52 113.686 45.98C114.046 45.38 114.406 44.84 114.766 44.36C114.946 44.12 115.306 44 115.846 44C116.326 44 116.806 44.15 117.286 44.45C117.826 44.69 118.036 45.05 117.916 45.53C117.676 45.95 117.226 46.88 116.566 48.32C115.966 49.7 115.396 51.23 114.856 52.91C114.316 54.53 114.046 55.97 114.046 57.23C114.046 58.79 114.526 59.69 115.486 59.93C116.146 60.05 116.836 59.81 117.556 59.21C118.336 58.61 119.026 57.92 119.626 57.14C120.286 56.36 120.766 55.79 121.066 55.43C122.326 53.75 123.496 52.04 124.576 50.3C125.716 48.5 126.856 46.82 127.996 45.26C128.356 44.78 128.776 44.54 129.256 44.54C130.096 44.54 130.516 44.99 130.516 45.89C130.516 46.19 130.126 46.97 129.346 48.23C128.566 49.43 127.606 50.81 126.466 52.37C125.386 53.93 124.366 55.34 123.406 56.6C122.446 57.86 121.366 59.09 120.166 60.29C118.966 61.49 117.436 62.09 115.576 62.09C113.836 62.09 112.636 61.7 111.976 60.92C111.376 60.14 111.076 59.27 111.076 58.31C111.076 57.47 111.166 56.6 111.346 55.7C111.526 54.74 111.706 53.93 111.886 53.27L111.526 53C110.986 53.66 110.176 54.5 109.096 55.52C108.016 56.54 106.816 57.59 105.496 58.67C104.176 59.69 102.856 60.56 101.536 61.28C100.276 62 99.1362 62.36 98.1162 62.36ZM133.183 62.09C130.783 62.09 129.133 61.37 128.233 59.93C127.333 58.49 126.883 56.75 126.883 54.71C126.883 52.43 127.243 49.82 127.963 46.88C128.743 43.94 129.733 40.88 130.933 37.7C132.193 34.52 133.603 31.4 135.163 28.34C136.723 25.28 138.313 22.49 139.933 19.97C141.553 17.45 143.083 15.38 144.523 13.76C145.783 12.38 146.983 11.33 148.123 10.61C149.323 9.83 150.583 9.2 151.903 8.72C152.803 8.36 153.703 8.18 154.603 8.18C155.803 8.18 156.823 8.48 157.663 9.08C158.563 9.68 159.013 10.67 159.013 12.05C159.013 13.37 158.533 14.9 157.573 16.64C156.613 18.32 155.413 20.03 153.973 21.77C152.533 23.51 151.063 25.13 149.563 26.63C148.063 28.13 146.743 29.36 145.603 30.32C143.083 32.42 140.653 34.4 138.313 36.26C135.973 38.06 134.023 39.89 132.463 41.75C131.623 44.09 130.963 46.37 130.483 48.59C130.003 50.75 129.763 52.7 129.763 54.44C129.763 56 130.033 57.29 130.573 58.31C131.173 59.33 132.193 59.84 133.633 59.84C135.073 59.84 136.453 59.39 137.773 58.49C139.093 57.53 140.353 56.33 141.553 54.89C142.813 53.45 143.953 52.01 144.973 50.57C145.693 49.55 146.383 48.56 147.043 47.6C147.763 46.58 148.333 45.77 148.753 45.17C148.993 44.75 149.383 44.54 149.923 44.54C150.583 44.54 150.913 44.87 150.913 45.53C150.913 45.95 150.733 46.49 150.373 47.15C149.653 48.35 148.723 49.79 147.583 51.47C146.443 53.15 145.153 54.8 143.713 56.42C142.273 58.04 140.653 59.39 138.853 60.47C137.113 61.55 135.223 62.09 133.183 62.09ZM146.683 15.56C145.363 17 143.953 18.86 142.453 21.14C141.013 23.42 139.573 25.94 138.133 28.7C136.693 31.46 135.373 34.25 134.173 37.07C136.093 35.33 137.833 33.86 139.393 32.66C140.953 31.4 142.513 30.08 144.073 28.7C145.453 27.5 146.923 26.03 148.483 24.29C150.103 22.49 151.603 20.63 152.983 18.71C154.363 16.79 155.323 15.02 155.863 13.4C156.043 12.74 156.133 12.23 156.133 11.87C156.133 10.91 155.653 10.43 154.693 10.43C154.453 10.43 154.183 10.46 153.883 10.52C153.643 10.58 153.373 10.67 153.073 10.79C151.993 11.21 150.913 11.81 149.833 12.59C148.813 13.37 147.763 14.36 146.683 15.56ZM177.318 66.68C176.238 66.68 175.338 66.17 174.618 65.15C173.958 64.13 173.448 62.99 173.088 61.73C172.788 60.47 172.638 59.51 172.638 58.85C172.638 57.83 172.878 56.48 173.358 54.8C173.898 53.12 174.528 51.38 175.248 49.58C175.968 47.72 176.688 45.98 177.408 44.36C178.188 42.68 178.848 41.36 179.388 40.4C178.128 39.5 177.108 38.57 176.328 37.61C175.548 36.59 175.158 35.33 175.158 33.83C175.158 32.69 175.488 31.79 176.148 31.13C176.808 30.47 177.798 30.14 179.118 30.14C180.018 30.14 180.918 30.29 181.818 30.59C182.718 30.83 183.558 31.16 184.338 31.58C186.258 28.64 188.448 25.52 190.908 22.22C193.428 18.86 195.888 15.89 198.288 13.31C198.588 13.01 198.948 12.68 199.368 12.32C199.848 11.96 200.358 11.78 200.898 11.78C201.438 11.78 201.708 12.08 201.708 12.68C201.708 13.1 201.588 13.49 201.348 13.85C201.108 14.21 200.868 14.54 200.628 14.84C199.848 15.8 199.068 16.73 198.288 17.63C197.508 18.53 196.728 19.46 195.948 20.42C194.268 22.52 192.648 24.68 191.088 26.9C189.588 29.12 188.148 31.37 186.768 33.65C188.088 34.85 189.348 36.11 190.548 37.43C191.808 38.69 193.038 39.98 194.238 41.3H196.938C200.658 41.3 204.588 41.03 208.728 40.49C212.868 39.95 216.888 39.05 220.788 37.79C224.748 36.47 228.228 34.7 231.228 32.48C234.288 30.26 236.538 27.44 237.978 24.02C238.758 22.04 239.148 20.15 239.148 18.35C239.148 15.41 238.308 12.95 236.628 10.97C234.948 8.99 232.758 7.43 230.058 6.29C227.358 5.09 224.478 4.25 221.418 3.77C218.358 3.23 215.448 2.96 212.688 2.96H211.068C207.768 2.96 204.198 3.17 200.358 3.59C196.578 3.95 192.798 4.61 189.018 5.57C185.238 6.47 181.728 7.76 178.488 9.44C175.248 11.06 172.578 13.13 170.478 15.65C169.518 16.73 168.738 17.93 168.138 19.25C167.538 20.57 167.238 21.92 167.238 23.3C167.238 23.72 167.298 24.14 167.418 24.56C167.598 24.98 167.688 25.4 167.688 25.82C167.688 26.18 167.538 26.48 167.238 26.72C166.938 26.96 166.578 27.08 166.158 27.08C165.258 27.08 164.718 26.66 164.538 25.82C164.358 24.92 164.268 24.23 164.268 23.75C164.268 22.19 164.568 20.66 165.168 19.16C165.828 17.66 166.638 16.28 167.598 15.02C169.818 12.08 172.608 9.68 175.968 7.81999C179.388 5.9 183.108 4.4 187.128 3.32C191.148 2.24 195.228 1.49 199.368 1.07C203.508 0.649998 207.408 0.439999 211.068 0.439999H212.598C215.778 0.439999 219.078 0.739998 222.498 1.34C225.978 1.94 229.188 2.93 232.128 4.31C235.128 5.69 237.528 7.55 239.328 9.88999C241.188 12.17 242.118 14.99 242.118 18.35C242.118 20.57 241.668 22.73 240.768 24.83C239.148 28.49 236.718 31.55 233.478 34.01C230.238 36.47 226.518 38.42 222.318 39.86C218.178 41.3 213.858 42.35 209.358 43.01C204.918 43.61 200.658 43.94 196.578 44C197.238 44.66 197.868 45.35 198.468 46.07C199.128 46.73 199.758 47.42 200.358 48.14C201.078 48.98 202.128 50.18 203.508 51.74C204.948 53.3 206.508 54.89 208.188 56.51C209.928 58.07 211.638 59.42 213.318 60.56C215.058 61.64 216.618 62.18 217.998 62.18C219.378 62.18 220.458 61.88 221.238 61.28C222.078 60.68 222.798 60.38 223.398 60.38C224.358 60.38 224.838 60.83 224.838 61.73C224.838 62.27 224.358 62.78 223.398 63.26C222.498 63.74 221.478 64.1 220.338 64.34C219.258 64.64 218.448 64.79 217.908 64.79C216.468 64.79 214.998 64.46 213.498 63.8C212.358 63.32 211.068 62.48 209.628 61.28C208.188 60.08 206.718 58.73 205.218 57.23C203.778 55.73 202.398 54.29 201.078 52.91C199.818 51.53 198.798 50.42 198.018 49.58L192.798 43.91C191.238 43.79 189.918 43.7 188.838 43.64C187.818 43.58 186.798 43.43 185.778 43.19C184.818 42.95 183.588 42.53 182.088 41.93C181.608 42.89 180.978 44.15 180.198 45.71C179.478 47.27 178.758 48.92 178.038 50.66C177.318 52.4 176.718 54.05 176.238 55.61C175.758 57.17 175.518 58.43 175.518 59.39C175.518 61.07 175.788 62.21 176.328 62.81C176.928 63.47 177.498 63.89 178.038 64.07C178.578 64.31 178.848 64.7 178.848 65.24C178.848 65.6 178.698 65.93 178.398 66.23C178.158 66.53 177.798 66.68 177.318 66.68ZM180.828 38.06C181.308 37.22 181.728 36.41 182.088 35.63C182.508 34.85 182.958 34.07 183.438 33.29C182.418 32.45 181.308 32.03 180.108 32.03C178.788 32.03 178.128 32.57 178.128 33.65C178.128 34.49 178.428 35.3 179.028 36.08C179.628 36.8 180.228 37.46 180.828 38.06ZM190.548 41.12C189.708 40.22 188.868 39.32 188.028 38.42C187.248 37.46 186.438 36.5 185.598 35.54C185.178 36.2 184.788 36.89 184.428 37.61C184.068 38.33 183.708 39.02 183.348 39.68C184.608 40.28 185.778 40.64 186.858 40.76C187.938 40.88 189.168 41 190.548 41.12ZM242.984 62.9C239.864 62.9 237.674 62 236.414 60.2C235.214 58.34 234.614 56.18 234.614 53.72C234.614 51.92 235.064 49.79 235.964 47.33C236.864 44.81 238.094 42.35 239.654 39.95C241.274 37.55 243.134 35.57 245.234 34.01C247.334 32.39 249.584 31.58 251.984 31.58C253.544 31.58 254.774 32.03 255.674 32.93C256.634 33.77 257.114 34.85 257.114 36.17C257.114 38.69 256.304 41.12 254.684 43.46C253.064 45.8 250.964 47.72 248.384 49.22C245.804 50.72 243.044 51.47 240.104 51.47C239.744 51.47 239.384 51.47 239.024 51.47C238.664 51.41 238.304 51.35 237.944 51.29C237.764 52.07 237.674 52.97 237.674 53.99C237.674 55.55 238.034 56.99 238.754 58.31C239.534 59.63 241.004 60.29 243.164 60.29C244.964 60.29 246.704 59.84 248.384 58.94C250.064 58.04 251.474 57.02 252.614 55.88C253.754 54.74 254.714 53.72 255.494 52.82C256.274 51.92 257.084 50.9 257.924 49.76C258.764 48.56 259.814 47 261.074 45.08C261.314 44.66 261.674 44.45 262.154 44.45C262.994 44.45 263.414 44.9 263.414 45.8C263.414 46.1 263.354 46.34 263.234 46.52C261.614 49.28 259.814 51.92 257.834 54.44C255.854 56.9 253.634 58.94 251.174 60.56C248.774 62.12 246.044 62.9 242.984 62.9ZM240.734 48.68C243.014 48.68 245.144 48.08 247.124 46.88C249.164 45.62 250.814 44.06 252.074 42.2C253.394 40.34 254.054 38.45 254.054 36.53C254.054 35.87 253.874 35.33 253.514 34.91C253.214 34.49 252.674 34.28 251.894 34.28C250.334 34.28 248.834 34.82 247.394 35.9C245.954 36.92 244.634 38.24 243.434 39.86C242.294 41.42 241.304 42.98 240.464 44.54C239.684 46.1 239.114 47.42 238.754 48.5C239.054 48.56 239.354 48.62 239.654 48.68C240.014 48.68 240.374 48.68 240.734 48.68ZM263.824 62.99C262.684 62.99 261.934 62.48 261.574 61.46C261.214 60.44 261.034 59.54 261.034 58.76C261.034 57.38 261.214 55.61 261.574 53.45C261.934 51.29 262.414 49.04 263.014 46.7C262.294 47.84 261.514 48.98 260.674 50.12C259.894 51.26 259.174 52.31 258.514 53.27C258.274 53.69 257.914 53.9 257.434 53.9C257.014 53.9 256.654 53.72 256.354 53.36C255.994 53 255.964 52.61 256.264 52.19C257.044 51.05 258.064 49.52 259.324 47.6C260.644 45.68 261.964 43.67 263.284 41.57C264.604 39.47 265.714 37.64 266.614 36.08C266.914 35.54 267.184 35.06 267.424 34.64C267.724 34.16 267.994 33.74 268.234 33.38C268.654 32.96 269.224 32.75 269.944 32.75C270.364 32.75 270.724 32.87 271.024 33.11C271.384 33.35 271.564 33.68 271.564 34.1C271.564 34.22 271.534 34.34 271.474 34.46C271.414 34.58 271.354 34.7 271.294 34.82C270.694 35.78 270.154 36.77 269.674 37.79C269.194 38.81 268.774 39.83 268.414 40.85C267.514 43.61 266.644 46.49 265.804 49.49C265.024 52.43 264.574 55.34 264.454 58.22L264.814 58.31C266.194 56.15 267.874 53.81 269.854 51.29C271.894 48.71 274.114 46.16 276.514 43.64C278.914 41.06 281.374 38.72 283.894 36.62C286.414 34.46 288.844 32.72 291.184 31.4C291.544 31.22 291.874 31.13 292.174 31.13C292.594 31.13 292.954 31.28 293.254 31.58C293.554 31.82 293.704 32.12 293.704 32.48C293.704 32.84 293.494 33.17 293.074 33.47C292.114 34.07 291.154 34.7 290.194 35.36C289.294 36.02 288.394 36.68 287.494 37.34C284.014 39.98 280.834 42.89 277.954 46.07C275.074 49.19 272.464 52.49 270.124 55.97C269.584 56.75 269.074 57.56 268.594 58.4C268.114 59.24 267.634 60.08 267.154 60.92C266.794 61.4 266.314 61.85 265.714 62.27C265.174 62.75 264.544 62.99 263.824 62.99ZM303.454 25.28C303.154 25.28 302.824 25.22 302.464 25.1C302.104 24.98 301.924 24.71 301.924 24.29C301.924 23.99 302.014 23.72 302.194 23.48C302.674 22.58 303.544 21.8 304.804 21.14C306.124 20.48 307.114 20.15 307.774 20.15C308.074 20.15 308.404 20.24 308.764 20.42C309.124 20.54 309.304 20.81 309.304 21.23C309.304 22.25 308.674 23.18 307.414 24.02C306.214 24.86 304.894 25.28 303.454 25.28ZM293.374 62.09C291.334 62.09 289.714 61.52 288.514 60.38C287.314 59.24 286.714 57.65 286.714 55.61C286.714 54.41 286.834 53.24 287.074 52.1C287.314 50.9 287.644 49.73 288.064 48.59C288.304 47.93 288.784 46.85 289.504 45.35C290.284 43.79 291.184 42.17 292.204 40.49C293.224 38.75 294.214 37.28 295.174 36.08C296.134 34.88 296.974 34.28 297.694 34.28C297.994 34.28 298.384 34.4 298.864 34.64C299.404 34.82 299.674 35.12 299.674 35.54C299.674 35.78 299.554 36.08 299.314 36.44C297.934 38 296.494 39.86 294.994 42.02C293.494 44.18 292.234 46.43 291.214 48.77C290.194 51.11 289.684 53.36 289.684 55.52C289.684 58.28 291.004 59.66 293.644 59.66C295.444 59.66 297.244 58.79 299.044 57.05C300.904 55.31 302.944 52.97 305.164 50.03C305.824 49.19 306.394 48.38 306.874 47.6C307.414 46.76 307.894 46.04 308.314 45.44C308.734 45.02 309.184 44.81 309.664 44.81C310.384 44.81 310.744 45.08 310.744 45.62C310.744 46.28 310.264 47.33 309.304 48.77C308.344 50.21 307.264 51.71 306.064 53.27C303.724 56.15 301.684 58.34 299.944 59.84C298.204 61.34 296.014 62.09 293.374 62.09ZM314.615 62.9C311.495 62.9 309.305 62 308.045 60.2C306.845 58.34 306.245 56.18 306.245 53.72C306.245 51.92 306.695 49.79 307.595 47.33C308.495 44.81 309.725 42.35 311.285 39.95C312.905 37.55 314.765 35.57 316.865 34.01C318.965 32.39 321.215 31.58 323.615 31.58C325.175 31.58 326.405 32.03 327.305 32.93C328.265 33.77 328.745 34.85 328.745 36.17C328.745 38.69 327.935 41.12 326.315 43.46C324.695 45.8 322.595 47.72 320.015 49.22C317.435 50.72 314.675 51.47 311.735 51.47C311.375 51.47 311.015 51.47 310.655 51.47C310.295 51.41 309.935 51.35 309.575 51.29C309.395 52.07 309.305 52.97 309.305 53.99C309.305 55.55 309.665 56.99 310.385 58.31C311.165 59.63 312.635 60.29 314.795 60.29C316.595 60.29 318.335 59.84 320.015 58.94C321.695 58.04 323.105 57.02 324.245 55.88C325.385 54.74 326.345 53.72 327.125 52.82C327.905 51.92 328.715 50.9 329.555 49.76C330.395 48.56 331.445 47 332.705 45.08C332.945 44.66 333.305 44.45 333.785 44.45C334.625 44.45 335.045 44.9 335.045 45.8C335.045 46.1 334.985 46.34 334.865 46.52C333.245 49.28 331.445 51.92 329.465 54.44C327.485 56.9 325.265 58.94 322.805 60.56C320.405 62.12 317.675 62.9 314.615 62.9ZM312.365 48.68C314.645 48.68 316.775 48.08 318.755 46.88C320.795 45.62 322.445 44.06 323.705 42.2C325.025 40.34 325.685 38.45 325.685 36.53C325.685 35.87 325.505 35.33 325.145 34.91C324.845 34.49 324.305 34.28 323.525 34.28C321.965 34.28 320.465 34.82 319.025 35.9C317.585 36.92 316.265 38.24 315.065 39.86C313.925 41.42 312.935 42.98 312.095 44.54C311.315 46.1 310.745 47.42 310.385 48.5C310.685 48.56 310.985 48.62 311.285 48.68C311.645 48.68 312.005 48.68 312.365 48.68ZM351.295 63.44C350.215 63.44 349.285 63.11 348.505 62.45C347.785 61.79 347.425 60.71 347.425 59.21C347.425 57.23 347.815 55.25 348.595 53.27C349.375 51.23 350.245 49.34 351.205 47.6L350.755 47.51C350.155 48.29 349.285 49.37 348.145 50.75C347.065 52.07 345.805 53.45 344.365 54.89C342.985 56.27 341.545 57.56 340.045 58.76C338.845 59.72 337.645 60.53 336.445 61.19C335.305 61.79 334.255 62.09 333.295 62.09C332.275 62.09 331.555 61.82 331.135 61.28C330.715 60.68 330.505 59.96 330.505 59.12C330.505 57.74 330.685 56.24 331.045 54.62C331.465 53 331.945 51.47 332.485 50.03C332.065 50.63 331.645 51.2 331.225 51.74C330.865 52.28 330.505 52.79 330.145 53.27C329.905 53.69 329.545 53.9 329.065 53.9C328.645 53.9 328.285 53.72 327.985 53.36C327.625 53 327.595 52.61 327.895 52.19C328.675 51.05 329.695 49.52 330.955 47.6C332.275 45.68 333.595 43.67 334.915 41.57C336.235 39.47 337.345 37.64 338.245 36.08C338.545 35.54 338.815 35.06 339.055 34.64C339.355 34.16 339.625 33.74 339.865 33.38C340.285 32.96 340.855 32.75 341.575 32.75C342.115 32.75 342.565 32.93 342.925 33.29C343.105 33.47 343.195 33.71 343.195 34.01V34.1C343.195 34.22 343.165 34.34 343.105 34.46C343.045 34.58 342.985 34.7 342.925 34.82C342.925 34.82 342.865 34.88 342.745 35C341.605 37.46 340.405 39.92 339.145 42.38C337.945 44.78 337.015 46.85 336.355 48.59C336.175 49.07 335.875 49.91 335.455 51.11C335.035 52.31 334.645 53.57 334.285 54.89C333.925 56.15 333.745 57.17 333.745 57.95C333.745 58.73 334.015 59.12 334.555 59.12C334.915 59.12 335.425 58.94 336.085 58.58C336.805 58.16 337.705 57.47 338.785 56.51C340.705 54.83 342.535 53.06 344.275 51.2C346.015 49.34 347.665 47.45 349.225 45.53C349.405 45.29 349.855 44.72 350.575 43.82C351.355 42.86 352.225 41.78 353.185 40.58C354.205 39.32 355.165 38.12 356.065 36.98C357.025 35.78 357.805 34.82 358.405 34.1C359.005 33.38 359.845 33.02 360.925 33.02C361.345 33.02 361.705 33.14 362.005 33.38C362.305 33.62 362.455 33.98 362.455 34.46C362.455 34.82 362.425 35.06 362.365 35.18C361.885 36.92 360.955 38.72 359.575 40.58C358.255 42.38 356.815 44.36 355.255 46.52C353.755 48.62 352.435 51.02 351.295 53.72C351.235 53.96 351.085 54.53 350.845 55.43C350.605 56.27 350.485 57.11 350.485 57.95C350.485 58.67 350.605 59.3 350.845 59.84C351.145 60.32 351.595 60.56 352.195 60.56C353.275 60.56 354.625 60.02 356.245 58.94C357.925 57.86 359.605 56.54 361.285 54.98C362.965 53.36 364.495 51.8 365.875 50.3C367.315 48.74 368.365 47.51 369.025 46.61C370.765 44.21 372.235 41.72 373.435 39.14C374.635 36.56 375.235 34.22 375.235 32.12C375.235 30.08 373.765 29.03 370.825 28.97C369.985 28.97 369.565 28.61 369.565 27.89C369.565 27.59 369.685 27.32 369.925 27.08C370.165 26.84 370.495 26.72 370.915 26.72C373.075 26.78 374.755 27.26 375.955 28.16C377.215 29.06 377.845 30.38 377.845 32.12C377.845 34.46 377.215 36.98 375.955 39.68C374.695 42.38 373.195 44.96 371.455 47.42C369.295 50.42 366.985 53.06 364.525 55.34C362.125 57.62 359.275 59.81 355.975 61.91C355.255 62.33 354.475 62.69 353.635 62.99C352.855 63.29 352.075 63.44 351.295 63.44Z" fill="#3AB6FF"/>
</svg>
