<svg width="252" height="180" viewBox="0 0 252 180" fill="none" xmlns="http://www.w3.org/2000/svg">
<g clip-path="url(#clip0_2238_48805)">
<path d="M94.613 -0.509286L9.14929 71.239L152.575 242.252L238.038 170.503L94.613 -0.509286Z" fill="white"/>
<path d="M161.443 234.772L152.531 242.259L9.12769 71.2579L18.039 63.7704L161.443 234.772ZM37.1595 47.7133L28.2482 55.2008L171.652 226.202L180.563 218.715L37.1595 47.7133ZM56.28 31.6562L47.3687 39.1438L190.772 210.145L199.684 202.658L56.28 31.6129V31.6562ZM75.4005 15.5991L66.4891 23.0867L209.893 194.088L218.804 186.601L75.4438 15.5559L75.4005 15.5991ZM94.521 -0.457939L85.6096 7.02959L229.013 178.031L237.925 170.543L94.5642 -0.501221L94.521 -0.457939Z" fill="url(#paint0_linear_2238_48805)"/>
<path style="mix-blend-mode:multiply" opacity="0.7" d="M421.04 157.906C393.873 237.066 294.161 274.59 198.213 241.697C102.308 208.76 46.5467 117.914 73.7134 38.7109C100.837 -40.4492 200.592 -77.9735 296.541 -45.037C392.446 -12.1005 448.163 78.7454 421.04 157.949V157.906Z" fill="url(#paint1_radial_2238_48805)"/>
<path d="M247.182 -55.381C247.182 -55.381 213.44 -44.734 190.643 -40.7089C168.364 -36.7703 132.459 -35.169 132.459 -35.169L207.341 54.1188L247.182 -55.381Z" fill="#FD5133"/>
<path d="M132.459 -35.1257C132.459 -35.1257 124.802 -0.544579 116.886 21.2255C109.143 42.4763 92.6176 74.4173 92.6176 74.4173L207.341 54.162L132.459 -35.1257Z" fill="white"/>
<path d="M92.6176 74.3741C92.6176 74.3741 118.703 98.2649 133.627 116.053C148.162 133.365 167.499 163.662 167.499 163.662L207.341 54.1188L92.6176 74.3741Z" fill="#FD5133"/>
<path d="M167.499 163.662C167.499 163.662 201.241 153.015 224.039 148.99C246.317 145.051 282.222 143.45 282.222 143.45L207.341 54.1621L167.499 163.705V163.662Z" fill="white"/>
<path d="M282.222 143.407C282.222 143.407 289.879 108.825 297.795 87.0553C305.538 65.8046 322.063 33.8635 322.063 33.8635L207.341 54.1188L282.222 143.407Z" fill="#FD5133"/>
<path d="M322.063 33.9068C322.063 33.9068 295.978 10.0159 281.054 -7.77238C266.519 -25.0846 247.182 -55.381 247.182 -55.381L207.341 54.1621L322.063 33.9068Z" fill="white"/>
<g style="mix-blend-mode:multiply">
<path d="M282.222 143.407C282.222 143.407 289.879 108.825 297.795 87.0553C305.538 65.8046 322.063 33.8635 322.063 33.8635L207.341 54.1188L282.222 143.407Z" fill="#F2F2F2"/>
</g>
<g opacity="0.2">
<path d="M132.459 -35.1257L151.363 -13.0094L170.181 9.28011L207.73 53.7725L245.062 98.5679L263.707 120.944L282.222 143.407L263.274 121.29L244.5 99.0007L206.908 54.465L169.619 9.71291L150.974 -12.6631L132.459 -35.1257Z" fill="white"/>
<path d="M92.6176 74.3741L121.255 69.0505L149.893 63.9002L207.211 53.5994L264.615 43.6449L293.339 38.7109L322.063 33.9067L293.426 39.2302L264.745 44.3806L207.427 54.6814L150.022 64.5926L121.342 69.5699L92.6176 74.3741Z" fill="white"/>
<path d="M167.499 163.662L177.189 136.179L187.052 108.782L206.821 53.9457L226.894 -0.760937L236.973 -28.1142L247.182 -55.381L237.449 -27.8978L227.586 -0.501251L207.816 54.3352L187.744 109.042L177.708 136.352L167.499 163.662Z" fill="white"/>
</g>
<path d="M212.661 53.2099C213.181 56.153 211.234 58.9662 208.292 59.4856C205.351 60.0049 202.539 58.0573 202.02 55.1142C201.501 52.1712 203.447 49.3579 206.389 48.8386C209.33 48.3192 212.142 50.2668 212.661 53.2099Z" fill="#FD5133"/>
<path d="M212.661 53.2099C213.181 56.153 211.234 58.9662 208.292 59.4856C205.351 60.0049 202.539 58.0573 202.02 55.1142C201.501 52.1712 203.447 49.3579 206.389 48.8386C209.33 48.3192 212.142 50.2668 212.661 53.2099Z" fill="#FD5133" style="mix-blend-mode:multiply"/>
</g>
<defs>
<linearGradient id="paint0_linear_2238_48805" x1="5.69129" y1="110.498" x2="241.455" y2="131.145" gradientUnits="userSpaceOnUse">
<stop stop-color="#2CCAD0"/>
<stop offset="1" stop-color="#1AB7BD"/>
</linearGradient>
<radialGradient id="paint1_radial_2238_48805" cx="0" cy="0" r="1" gradientUnits="userSpaceOnUse" gradientTransform="translate(252.598 78.7673) rotate(18.9388) scale(183.739 150.934)">
<stop stop-color="#A7A9AC"/>
<stop offset="0.84" stop-color="white"/>
</radialGradient>
<clipPath id="clip0_2238_48805">
<rect width="252" height="180" fill="white"/>
</clipPath>
</defs>
</svg>
