<svg width="225" height="180" viewBox="0 0 225 180" fill="none" xmlns="http://www.w3.org/2000/svg">
<g clip-path="url(#clip0_2238_48824)">
<path fill-rule="evenodd" clip-rule="evenodd" d="M129.763 75.0479L78.0379 91.9414L44.8217 121.82C18.0416 153.637 -6.79975 143.001 -12.4221 124.513C-16.1407 112.286 -9.4076 97.6817 3.40287 85.8627L89.7832 6.16861C116.774 -18.734 163.528 -4.72889 166.419 30.7338C167.678 46.1721 153.585 67.2676 129.763 75.0479Z" fill="#39C889"/>
<path fill-rule="evenodd" clip-rule="evenodd" d="M54.5549 101.032C71.9863 106.064 96.2998 103.108 112.722 91.0029C114.439 89.7362 114.265 87.2691 114.729 87.0209C99.6868 98.7418 88.9649 99.3552 67.3711 94.1631L54.5539 101.03L54.5549 101.032Z" fill="#FEC525"/>
<path fill-rule="evenodd" clip-rule="evenodd" d="M142.822 33.8297C132.503 43.5531 134.965 59.9113 128.863 71.559C119.218 89.9649 108.196 96.5284 95.7686 99.5428C115.611 91.4108 118.022 80.2838 121.005 59.381C122.203 50.9815 125.193 40.9144 132.157 34.4705C133.752 32.9944 136.42 30.7388 139.141 29.1911C144.06 26.3914 147.147 29.7569 142.823 33.8308L142.822 33.8297Z" fill="#F4C338"/>
<path fill-rule="evenodd" clip-rule="evenodd" d="M37.2811 72.5204C37.6123 71.0285 37.977 69.5825 38.3841 68.1925C43.9967 49.0177 53.8261 37.2368 65.602 29.0223C67.3727 27.787 71.6752 25.4778 72.0813 25.1098C57.2055 38.5583 51.3817 48.4261 48.0608 65.1928L37.2801 72.5193L37.2811 72.5204Z" fill="#FEC525"/>
<path fill-rule="evenodd" clip-rule="evenodd" d="M137.801 27.0896C124.501 32.4226 107.08 18.9376 92.7711 19.0614C70.3957 19.2565 59.4998 32.4598 54.2359 38.9333C72.3133 22.0437 81.4474 25.5691 104.188 35.268C113.695 39.3232 125.56 42.1096 134.407 38.4376C136.433 37.5972 139.587 36.0577 141.977 34.0225C146.297 30.3417 143.374 24.8561 137.801 27.0896Z" fill="#F4C338"/>
<path fill-rule="evenodd" clip-rule="evenodd" d="M144.454 28.2055C146.316 30.9462 145.495 34.7508 142.624 36.7032C139.752 38.6555 135.915 38.0163 134.053 35.2756C132.192 32.5349 133.012 28.7303 135.884 26.778C138.756 24.8256 142.593 25.466 144.454 28.2055Z" fill="#F4C338"/>
<path fill-rule="evenodd" clip-rule="evenodd" d="M97.7756 121.452L85.9507 174.574L59.4183 210.524C30.3382 240.252 43.3172 263.955 62.2583 267.771C74.7846 270.293 88.6695 262.183 99.1958 248.291L170.176 154.614C192.356 125.341 173.912 80.1483 138.342 80.6884C122.858 80.9227 103.223 96.9874 97.7766 121.453L97.7756 121.452Z" fill="#39C889"/>
<path fill-rule="evenodd" clip-rule="evenodd" d="M79.1677 198.827C72.4788 181.959 73.0764 157.468 83.5388 139.953C84.6332 138.121 87.1056 138.056 87.3086 137.571C77.0949 153.675 77.5181 164.41 84.7657 185.405L79.1656 198.827L79.1677 198.827Z" fill="#FEC525"/>
<path fill-rule="evenodd" clip-rule="evenodd" d="M137.536 104.478C128.854 115.688 112.338 114.814 101.335 122.013C83.9477 133.388 78.4797 144.995 76.6771 157.657C82.8569 137.12 93.6966 133.647 114.212 128.662C122.455 126.658 132.184 122.712 137.926 115.158C139.241 113.428 141.229 110.555 142.507 107.697C144.819 102.529 141.172 99.7803 137.536 104.478Z" fill="#F4C338"/>
<path fill-rule="evenodd" clip-rule="evenodd" d="M109.207 213.276C110.659 212.802 112.063 212.299 113.407 211.76C131.947 204.325 142.724 193.402 149.763 180.888C150.821 179.006 152.706 174.501 153.032 174.061C141.083 190.166 131.824 196.917 115.459 201.838L109.207 213.276Z" fill="#3BB57F"/>
<path fill-rule="evenodd" clip-rule="evenodd" d="M144.727 108.825C140.702 122.581 155.801 138.623 157.057 152.881C159.021 175.176 146.933 187.295 140.996 193.16C156.062 173.536 151.674 164.782 139.828 143.077C134.876 134.003 130.959 122.46 133.761 113.298C134.402 111.201 135.629 107.912 137.425 105.336C140.672 100.679 146.413 103.062 144.726 108.824L144.727 108.825Z" fill="#F4C338"/>
<path fill-rule="evenodd" clip-rule="evenodd" d="M142.974 102.311C140.067 100.722 136.359 101.905 134.694 104.953C133.028 108.001 134.034 111.76 136.942 113.348C139.849 114.937 143.556 113.754 145.221 110.705C146.888 107.658 145.882 103.899 142.974 102.311Z" fill="#F4C338"/>
</g>
<defs>
<clipPath id="clip0_2238_48824">
<rect width="225" height="180" fill="white"/>
</clipPath>
</defs>
</svg>
