<svg width="101" height="220" viewBox="0 0 101 220" fill="none" xmlns="http://www.w3.org/2000/svg">
<g clip-path="url(#clip0_2238_50709)">
<g clip-path="url(#clip1_2238_50709)">
<path fill-rule="evenodd" clip-rule="evenodd" d="M52.9851 126.768L9.24282 141.041L-18.847 166.287C-41.4941 193.17 -62.5016 184.182 -67.2563 168.562C-70.401 158.231 -64.707 145.891 -53.8736 135.905L19.1754 68.57C42.001 47.5292 81.5387 59.3624 83.9841 89.3256C85.0489 102.37 73.1309 120.194 52.9851 126.768Z" fill="#39C889"/>
<path fill-rule="evenodd" clip-rule="evenodd" d="M-10.6161 148.722C4.12514 152.974 24.6863 150.476 38.5735 140.249C40.0264 139.178 39.8787 137.094 40.2709 136.884C27.5505 146.787 18.4834 147.306 0.222211 142.919L-10.6169 148.721L-10.6161 148.722Z" fill="#FEC525"/>
<path fill-rule="evenodd" clip-rule="evenodd" d="M64.0285 91.9416C55.3022 100.157 57.3842 113.979 52.2235 123.82C44.0678 139.371 34.7462 144.917 24.237 147.464C41.0167 140.593 43.0557 131.192 45.5786 113.53C46.5919 106.433 49.1203 97.9276 55.0098 92.483C56.3586 91.2358 58.6148 89.33 60.9152 88.0223C65.0752 85.6568 67.6858 88.5003 64.0293 91.9425L64.0285 91.9416Z" fill="#F4C338"/>
<path fill-rule="evenodd" clip-rule="evenodd" d="M-25.224 124.632C-24.944 123.372 -24.6355 122.15 -24.2912 120.976C-19.5448 104.774 -11.2325 94.8204 -1.27395 87.8797C0.223442 86.836 3.86195 84.8849 4.20536 84.574C-8.37464 95.9369 -13.2996 104.274 -16.108 118.441L-25.2249 124.631L-25.224 124.632Z" fill="#FEC525"/>
<path fill-rule="evenodd" clip-rule="evenodd" d="M59.7829 86.2467C48.5348 90.7527 33.8032 79.3589 21.7022 79.4635C2.77999 79.6283 -6.43425 90.7841 -10.8858 96.2538C4.40167 81.9833 12.1261 84.962 31.3569 93.1568C39.3969 96.5832 49.431 98.9374 56.9126 95.8349C58.6258 95.1248 61.2931 93.8241 63.3138 92.1045C66.9675 88.9944 64.4953 84.3595 59.7829 86.2467Z" fill="#F4C338"/>
<path fill-rule="evenodd" clip-rule="evenodd" d="M65.409 87.1896C66.9835 89.5053 66.2894 92.7199 63.8609 94.3695C61.4324 96.0191 58.1877 95.479 56.6132 93.1633C55.0387 90.8476 55.7329 87.6331 58.1614 85.9835C60.5899 84.3339 63.8354 84.8749 65.409 87.1896Z" fill="#F4C338"/>
<path fill-rule="evenodd" clip-rule="evenodd" d="M25.9342 165.976L15.9343 210.86L-6.50329 241.234C-31.0954 266.352 -20.1195 286.38 -4.10159 289.604C6.49151 291.735 18.2335 284.883 27.1352 273.145L87.1608 193.995C105.918 169.262 90.3202 131.077 60.2398 131.534C47.1453 131.732 30.5407 145.305 25.9351 165.977L25.9342 165.976Z" fill="#39C889"/>
<path fill-rule="evenodd" clip-rule="evenodd" d="M10.1982 231.352C4.54156 217.099 5.04696 196.407 13.8947 181.608C14.8201 180.059 16.911 180.005 17.0827 179.595C8.44531 193.202 8.80312 202.272 14.9322 220.011L10.1964 231.351L10.1982 231.352Z" fill="#FEC525"/>
<path fill-rule="evenodd" clip-rule="evenodd" d="M59.558 151.634C52.2167 161.106 38.2496 160.367 28.9447 166.449C14.2404 176.06 9.61632 185.867 8.09198 196.566C13.318 179.214 22.4848 176.28 39.8337 172.068C46.8046 170.375 55.0322 167.041 59.888 160.658C61.0003 159.196 62.6814 156.769 63.7621 154.353C65.7172 149.987 62.6335 147.665 59.558 151.634Z" fill="#F4C338"/>
<path fill-rule="evenodd" clip-rule="evenodd" d="M35.6011 243.56C36.8294 243.159 38.0165 242.734 39.153 242.279C54.8317 235.997 63.9458 226.768 69.8984 216.195C70.793 214.604 72.3867 210.798 72.663 210.426C62.558 224.034 54.7279 229.738 40.8881 233.896L35.6011 243.56Z" fill="#3BB57F"/>
<path fill-rule="evenodd" clip-rule="evenodd" d="M65.6395 155.307C62.2354 166.929 75.0042 180.484 76.0666 192.531C77.7275 211.369 67.5048 221.608 62.4848 226.563C75.2252 209.982 71.5142 202.586 61.4963 184.248C57.3085 176.581 53.9965 166.827 56.3657 159.086C56.9085 157.315 57.9459 154.535 59.4646 152.359C62.2104 148.424 67.0656 150.438 65.6387 155.306L65.6395 155.307Z" fill="#F4C338"/>
<path fill-rule="evenodd" clip-rule="evenodd" d="M64.1568 149.803C61.6987 148.46 58.5632 149.46 57.155 152.036C55.7459 154.611 56.5967 157.786 59.0558 159.128C61.5139 160.471 64.6494 159.471 66.0577 156.895C67.4667 154.321 66.6159 151.145 64.1568 149.803Z" fill="#F4C338"/>
</g>
</g>
<defs>
<clipPath id="clip0_2238_50709">
<rect width="101" height="220" fill="white"/>
</clipPath>
<clipPath id="clip1_2238_50709">
<rect width="161.466" height="208.365" fill="white" transform="translate(50.8477 41.2487) rotate(49.2491)"/>
</clipPath>
</defs>
</svg>
