<svg width="149" height="220" viewBox="0 0 149 220" fill="none" xmlns="http://www.w3.org/2000/svg">
<g clip-path="url(#clip0_2238_50690)">
<path d="M67.5284 -7.83742L2.01367 46.1282L111.96 174.756L177.475 120.79L67.5284 -7.83742Z" fill="white"/>
<path d="M118.759 169.13L111.927 174.761L1.99707 46.1423L8.82833 40.5105L118.759 169.13ZM23.4857 28.4331L16.6544 34.0649L126.585 162.684L133.416 157.052L23.4857 28.4331ZM38.1431 16.3558L31.3118 21.9875L141.242 150.607L148.073 144.975L38.1431 16.3232V16.3558ZM52.8004 4.27839L45.9692 9.91015L155.899 138.529L162.731 132.898L52.8336 4.24583L52.8004 4.27839ZM67.4578 -7.79899L60.6265 -2.16722L170.557 126.452L177.388 120.82L67.4909 -7.83154L67.4578 -7.79899Z" fill="url(#paint0_linear_2238_50690)"/>
<path style="mix-blend-mode:multiply" opacity="0.7" d="M297.761 124.14C276.935 183.68 200.498 211.904 126.946 187.163C53.4269 162.39 10.6818 94.0602 31.5072 34.4871C52.2994 -25.0533 128.77 -53.2773 202.322 -28.504C275.841 -3.73075 318.553 64.5992 297.761 124.172V124.14Z" fill="url(#paint1_radial_2238_50690)"/>
<path d="M164.485 -36.2843C164.485 -36.2843 138.619 -28.2761 121.143 -25.2486C104.064 -22.2863 76.5404 -21.0818 76.5404 -21.0818L133.943 46.0762L164.485 -36.2843Z" fill="#FD5133"/>
<path d="M76.5404 -21.0493C76.5404 -21.0493 70.6708 4.96104 64.6022 21.3355C58.6663 37.3193 45.9987 61.3438 45.9987 61.3438L133.943 46.1088L76.5404 -21.0493Z" fill="white"/>
<path d="M45.9987 61.3112C45.9987 61.3112 65.995 79.2808 77.4357 92.6603C88.578 105.682 103.401 128.469 103.401 128.469L133.943 46.0762L45.9987 61.3112Z" fill="#FD5133"/>
<path d="M103.401 128.469C103.401 128.469 129.267 120.461 146.743 117.434C163.821 114.471 191.345 113.267 191.345 113.267L133.943 46.1088L103.401 128.502V128.469Z" fill="white"/>
<path d="M191.345 113.234C191.345 113.234 197.215 87.2239 203.283 70.8495C209.219 54.8657 221.887 30.8411 221.887 30.8411L133.943 46.0762L191.345 113.234Z" fill="#FD5133"/>
<path d="M221.887 30.8737C221.887 30.8737 201.891 12.9041 190.45 -0.47538C179.308 -13.4968 164.485 -36.2843 164.485 -36.2843L133.943 46.1088L221.887 30.8737Z" fill="white"/>
<g style="mix-blend-mode:multiply">
<path d="M191.345 113.234C191.345 113.234 197.215 87.2239 203.283 70.8495C209.219 54.8657 221.887 30.8411 221.887 30.8411L133.943 46.0762L191.345 113.234Z" fill="#F2F2F2"/>
</g>
<g opacity="0.2">
<path d="M76.5404 -21.0493L91.032 -4.41438L105.457 12.3507L134.241 45.8158L162.86 79.5087L177.152 96.3389L191.345 113.234L176.821 96.5993L162.429 79.8343L133.611 46.3366L105.026 12.6762L90.7335 -4.15395L76.5404 -21.0493Z" fill="white"/>
<path d="M45.9987 61.3113L67.9515 57.3072L89.9044 53.4333L133.843 45.6856L177.849 38.1983L199.868 34.4872L221.887 30.8737L199.934 34.8778L177.948 38.7517L134.009 46.4994L90.0039 53.9542L68.0179 57.6979L45.9987 61.3113Z" fill="white"/>
<path d="M103.401 128.469L110.829 107.798L118.39 87.1914L133.545 45.946L148.932 4.7983L156.658 -15.7756L164.485 -36.2843L157.023 -15.6128L149.462 4.99362L134.308 46.239L118.921 87.3867L111.227 107.928L103.401 128.469Z" fill="white"/>
</g>
<path d="M138.022 45.3926C138.42 47.6062 136.927 49.7222 134.672 50.1128C132.417 50.5035 130.262 49.0386 129.864 46.8249C129.466 44.6113 130.958 42.4953 133.213 42.1047C135.468 41.714 137.624 43.1789 138.022 45.3926Z" fill="#FD5133"/>
<path d="M138.022 45.3926C138.42 47.6062 136.927 49.7222 134.672 50.1128C132.417 50.5035 130.262 49.0386 129.864 46.8249C129.466 44.6113 130.958 42.4953 133.213 42.1047C135.468 41.714 137.624 43.1789 138.022 45.3926Z" fill="#FD5133" style="mix-blend-mode:multiply"/>
</g>
<defs>
<linearGradient id="paint0_linear_2238_50690" x1="-0.637201" y1="75.6568" x2="180.041" y2="91.7833" gradientUnits="userSpaceOnUse">
<stop stop-color="#2CCAD0"/>
<stop offset="1" stop-color="#1AB7BD"/>
</linearGradient>
<radialGradient id="paint1_radial_2238_50690" cx="0" cy="0" r="1" gradientUnits="userSpaceOnUse" gradientTransform="translate(168.636 64.6156) rotate(18.6071) scale(140.574 113.749)">
<stop stop-color="#A7A9AC"/>
<stop offset="0.84" stop-color="white"/>
</radialGradient>
<clipPath id="clip0_2238_50690">
<rect width="149" height="220" fill="white"/>
</clipPath>
</defs>
</svg>
