<svg width="28" height="28" viewBox="0 0 28 28" fill="none" xmlns="http://www.w3.org/2000/svg">
<g id="flat_icon_28X28">
<path id="Vector" d="M28 11.7322V16.2656L24.7561 17.1282C24.5249 17.9216 24.2093 18.6804 23.8182 19.3894L25.5039 22.2971L22.2989 25.5031L19.3921 23.8169C18.6811 24.2082 17.9247 24.5238 17.1315 24.7551L16.2692 28H11.7373L10.875 24.7529C10.0818 24.5216 9.32325 24.206 8.61439 23.8147L5.70763 25.5009L2.50262 22.2949L4.18833 19.3873C3.79716 18.676 3.48163 17.9194 3.25039 17.126L0 16.2678V11.7344L3.24606 10.8718C3.47731 10.0784 3.79284 9.31964 4.18401 8.61056L2.4983 5.7029L5.7033 2.49691L8.61006 4.18313C9.32109 3.79184 10.0775 3.47622 10.8706 3.2449L11.7329 0H16.2649L17.1272 3.2449C17.9203 3.47622 18.6789 3.79184 19.3878 4.18313L22.2945 2.49691L25.4995 5.7029L23.8138 8.61056C24.205 9.3218 24.5205 10.0784 24.7518 10.8718L27.9957 11.7344L28 11.7322ZM14 8.49382C10.9657 8.49382 8.49552 10.9648 8.49552 14C8.49552 17.0352 10.9657 19.5062 14 19.5062C17.0343 19.5062 19.5045 17.0352 19.5045 14C19.5045 10.9648 17.0343 8.49382 14 8.49382Z" fill="#D0D0D0"/>
</g>
</svg>
