<svg width="24" height="24" viewBox="0 0 24 24" fill="none" xmlns="http://www.w3.org/2000/svg">
<path d="M22 10.3802V13.6183L19.6829 14.2344C19.5178 14.8011 19.2924 15.3431 19.013 15.8496L20.217 17.9265L17.9278 20.2165L15.8515 19.012C15.3436 19.2915 14.8033 19.517 14.2368 19.6822L13.6209 22H10.3838L9.76783 19.6807C9.2013 19.5154 8.65946 19.29 8.15313 19.0105L6.07688 20.2149L3.78759 17.925L4.99166 15.8481C4.71226 15.34 4.48688 14.7996 4.3217 14.2329L2 13.6198V10.3817L4.31862 9.76559C4.48379 9.19889 4.70917 8.65689 4.98858 8.1504L3.7845 6.0735L6.07379 3.78351L8.15005 4.98795C8.65792 4.70846 9.19821 4.48301 9.76474 4.31779L10.3807 2H13.6178L14.2337 4.31779C14.8002 4.48301 15.3421 4.70846 15.8484 4.98795L17.9247 3.78351L20.214 6.0735L19.0099 8.1504C19.2893 8.65843 19.5147 9.19889 19.6798 9.76559L21.9969 10.3817L22 10.3802ZM12 8.06701C9.83266 8.06701 8.06823 9.83199 8.06823 12C8.06823 14.168 9.83266 15.933 12 15.933C14.1673 15.933 15.9318 14.168 15.9318 12C15.9318 9.83199 14.1673 8.06701 12 8.06701Z" fill="white"/>
</svg>
