<svg width="24" height="24" viewBox="0 0 24 24" fill="none" xmlns="http://www.w3.org/2000/svg">
<path fill-rule="evenodd" clip-rule="evenodd" d="M11.5 2V2.09852L6.58014 11.0594L6.5 11L1.5 6.5L2.5 21H3H4.5L20 21L21.5 21L22.5 6.5L17.5 11L16.64 11.6615L16.43 11.0778L11.5 2ZM18.676 17.5761C18.7347 17.4961 18.764 17.3734 18.764 17.2081V15.5761C18.764 15.4161 18.7187 15.2934 18.628 15.2081C18.5427 15.1174 18.42 15.0721 18.26 15.0721H16.908C16.7694 15.0721 16.6547 15.1148 16.564 15.2001C16.4787 15.2854 16.436 15.4241 16.436 15.6161C16.436 15.7228 16.4494 15.8241 16.476 15.9201C16.508 16.0161 16.54 16.0934 16.572 16.1521H17.428V16.9041C17.38 16.9308 17.3107 16.9548 17.22 16.9761C17.1294 16.9974 17.0254 17.0081 16.908 17.0081C16.7267 17.0081 16.556 16.9814 16.396 16.9281C16.236 16.8694 16.0947 16.7841 15.972 16.6721C15.8494 16.5548 15.7507 16.4081 15.676 16.2321C15.6067 16.0508 15.572 15.8374 15.572 15.5921C15.572 15.1388 15.7027 14.7841 15.964 14.5281C16.2307 14.2721 16.588 14.1441 17.036 14.1441C17.2867 14.1441 17.5107 14.1841 17.708 14.2641C17.9107 14.3388 18.0787 14.4161 18.212 14.4961C18.3027 14.4374 18.3827 14.3574 18.452 14.2561C18.5214 14.1548 18.556 14.0348 18.556 13.8961C18.556 13.6348 18.4067 13.4241 18.108 13.2641C17.8147 13.0988 17.4147 13.0161 16.908 13.0161C16.556 13.0161 16.212 13.0694 15.876 13.1761C15.5454 13.2828 15.2494 13.4454 14.988 13.6641C14.732 13.8774 14.524 14.1468 14.364 14.4721C14.2094 14.7974 14.132 15.1788 14.132 15.6161C14.132 16.0321 14.204 16.3974 14.348 16.7121C14.492 17.0268 14.6867 17.2908 14.932 17.5041C15.1827 17.7121 15.476 17.8694 15.812 17.9761C16.148 18.0774 16.508 18.1281 16.892 18.1281C17.036 18.1281 17.18 18.1201 17.324 18.1041C17.4734 18.0881 17.6147 18.0641 17.748 18.0321C17.8814 18.0054 18.004 17.9734 18.116 17.9361C18.228 17.8934 18.3214 17.8508 18.396 17.8081C18.524 17.7334 18.6174 17.6561 18.676 17.5761ZM13.8143 17.8321C13.7397 17.9068 13.6303 17.9628 13.4863 18.0001C13.3477 18.0428 13.1797 18.0641 12.9823 18.0641C12.785 18.0641 12.5983 18.0348 12.4223 17.9761C12.2463 17.9174 12.1023 17.7761 11.9903 17.5521L11.1983 15.9361C11.1183 15.7708 11.0463 15.6161 10.9823 15.4721C10.9183 15.3228 10.849 15.1521 10.7743 14.9601L10.7263 14.9681C10.7477 15.2561 10.7583 15.5494 10.7583 15.8481C10.7637 16.1468 10.7663 16.4401 10.7663 16.7281V17.9681C10.7077 17.9841 10.617 18.0001 10.4943 18.0161C10.377 18.0321 10.2597 18.0401 10.1423 18.0401C10.025 18.0401 9.92101 18.0321 9.83034 18.0161C9.73968 18.0001 9.66501 17.9681 9.60634 17.9201C9.54768 17.8721 9.50234 17.8081 9.47034 17.7281C9.43834 17.6428 9.42234 17.5334 9.42234 17.4001V13.4001C9.49701 13.2934 9.61168 13.2134 9.76634 13.1601C9.92101 13.1068 10.0863 13.0801 10.2623 13.0801C10.4597 13.0801 10.6463 13.1121 10.8223 13.1761C11.0037 13.2348 11.1477 13.3734 11.2543 13.5921L12.0543 15.2081C12.1343 15.3734 12.2063 15.5308 12.2703 15.6801C12.3343 15.8241 12.4037 15.9921 12.4783 16.1841L12.5183 16.1761C12.497 15.8881 12.4837 15.6001 12.4783 15.3121C12.473 15.0241 12.4703 14.7361 12.4703 14.4481V13.1521C12.529 13.1361 12.617 13.1201 12.7343 13.1041C12.857 13.0881 12.977 13.0801 13.0943 13.0801C13.329 13.0801 13.5077 13.1228 13.6303 13.2081C13.753 13.2881 13.8143 13.4588 13.8143 13.7201V17.8321ZM5.51953 13.8961C5.51953 13.6668 5.5862 13.4854 5.71953 13.3521C5.85286 13.2188 6.0342 13.1521 6.26353 13.1521H8.90353C8.94087 13.2108 8.97286 13.2881 8.99953 13.3841C9.03153 13.4801 9.04753 13.5814 9.04753 13.6881C9.04753 13.8908 9.0022 14.0348 8.91153 14.1201C8.8262 14.2054 8.71153 14.2481 8.56753 14.2481H6.87953V14.9921H8.67953C8.71686 15.0508 8.74886 15.1281 8.77553 15.2241C8.80753 15.3148 8.82353 15.4134 8.82353 15.5201C8.82353 15.7228 8.78086 15.8668 8.69553 15.9521C8.6102 16.0374 8.49553 16.0801 8.35153 16.0801H6.87953V16.9201H8.93553C8.97286 16.9788 9.00486 17.0561 9.03153 17.1521C9.06353 17.2481 9.07953 17.3494 9.07953 17.4561C9.07953 17.6588 9.0342 17.8054 8.94353 17.8961C8.8582 17.9814 8.74353 18.0241 8.59953 18.0241H6.26353C6.0342 18.0241 5.85286 17.9574 5.71953 17.8241C5.5862 17.6908 5.51953 17.5094 5.51953 17.2801V13.8961Z" fill="white"/>
<circle cx="11.5" cy="2.5" r="1.5" fill="white"/>
<circle cx="1.5" cy="6.5" r="1.5" fill="white"/>
<circle cx="22.5" cy="6.5" r="1.5" fill="white"/>
<rect x="1" y="20" width="22" height="2" rx="1" fill="white"/>
</svg>
