<svg width="140" height="170" viewBox="0 0 140 170" fill="none" xmlns="http://www.w3.org/2000/svg">
<g clip-path="url(#clip0_3627_44112)">
<path d="M119.579 140.788C119.579 140.788 139.574 154.037 136.014 162.043C132.453 170.049 128.411 169.784 126.769 169.105C125.126 168.426 121.241 164.453 126.09 157.774C126.09 157.774 116.726 152.198 113.736 149.493C113.736 149.493 118.339 146.719 119.589 140.788H119.579Z" fill="#032640"/>
<path d="M128.393 170C127.567 170 126.927 169.803 126.544 169.646C125.432 169.194 123.977 167.787 123.406 165.781C122.934 164.118 122.895 161.443 125.255 157.951C123.2 156.712 115.971 152.286 113.344 149.926C113.207 149.798 113.138 149.621 113.158 149.434C113.177 149.247 113.276 149.09 113.433 148.991C113.472 148.962 117.839 146.257 119.02 140.66C119.059 140.474 119.187 140.316 119.364 140.238C119.541 140.169 119.747 140.188 119.905 140.287C120.741 140.838 140.265 153.899 136.547 162.259C133.675 168.712 130.468 169.98 128.393 169.98V170ZM114.682 149.542C118.075 152.306 126.298 157.224 126.386 157.273C126.524 157.361 126.623 157.499 126.662 157.656C126.691 157.814 126.662 157.981 126.564 158.119C124.626 160.784 123.928 163.322 124.528 165.456C125.019 167.197 126.268 168.269 126.986 168.564C128.078 169.007 131.904 169.843 135.484 161.797C137.186 157.971 132.75 152.63 128.737 148.824C125.255 145.529 121.479 142.795 119.954 141.733C118.784 146.031 115.971 148.558 114.692 149.532L114.682 149.542Z" fill="black"/>
<path d="M58.4202 151.047C58.4202 151.047 41.3555 171.662 32.8968 166.764C24.4382 161.866 25.2054 157.411 26.1496 155.66C27.0938 153.909 31.9625 150.073 38.808 156.25C38.808 156.25 46.1061 146.532 49.46 143.523C49.46 143.523 51.9976 148.962 58.4301 151.047H58.4202Z" fill="#032640"/>
<path d="M35.8185 168.092C34.6678 168.092 33.576 167.836 32.5924 167.266C23.1306 161.787 24.8715 156.791 25.6288 155.384C26.2583 154.214 27.9697 152.788 30.2417 152.394C32.1302 152.07 35.1005 152.345 38.7003 155.404C40.2544 153.358 46.0967 145.745 49.0474 143.09C49.1851 142.972 49.372 142.913 49.549 142.952C49.7261 142.991 49.8834 143.109 49.9621 143.277C49.9818 143.326 52.48 148.519 58.5781 150.496C58.765 150.555 58.9027 150.703 58.9617 150.889C59.0109 151.076 58.9715 151.273 58.8535 151.421C58.224 152.178 44.9361 168.092 35.8087 168.092H35.8185ZM31.5007 153.457C31.1466 153.457 30.7925 153.486 30.4384 153.545C28.4221 153.889 27.0648 155.168 26.6517 155.945C26.0223 157.115 24.6256 161.315 33.1727 166.262C37.2447 168.623 43.7263 164.325 48.4376 160.302C52.5784 156.771 56.1094 152.827 57.4175 151.322C52.6669 149.503 50.1785 145.972 49.2933 144.477C45.8312 147.88 39.3298 156.525 39.261 156.614C39.1626 156.742 39.0151 156.83 38.8479 156.84C38.6905 156.85 38.5233 156.801 38.4053 156.692C36.0447 154.568 33.6842 153.457 31.5007 153.457Z" fill="black"/>
<path d="M56.8482 89.771C56.8482 89.771 42.98 77.3584 38.908 71.9292C38.908 71.9292 36.6163 68.8408 35.3082 69.8932C34.0001 70.9456 35.8197 73.0603 35.8197 73.0603C35.8197 73.0603 33.8525 70.1489 32.3969 71.3882C30.9412 72.6275 33.3804 74.693 33.3804 74.693C33.3804 74.693 31.3838 71.9685 30.1839 73.6012C28.9839 75.234 35.8197 84.5876 49.1666 99.0263" fill="white"/>
<path d="M49.1671 99.6067C49.0097 99.6067 48.8523 99.5477 48.7441 99.4198C39.0167 88.9055 27.8238 75.8242 29.7122 73.2571C30.1745 72.6276 30.7253 72.4998 31.1089 72.4998C31.1974 72.4998 31.2859 72.4998 31.3646 72.5194C31.3646 72.4604 31.3646 72.4014 31.3646 72.3325C31.3646 71.7916 31.5908 71.3096 32.0334 70.9359C32.4465 70.5818 32.9383 70.4343 33.4694 70.513C33.7448 70.5523 34.0104 70.6507 34.2661 70.7785C34.2661 70.749 34.2661 70.7293 34.2661 70.6998C34.3153 70.1982 34.5514 69.7556 34.9448 69.431C35.289 69.1556 35.7021 69.0376 36.1644 69.0966C37.6496 69.2835 39.2036 71.3392 39.3806 71.5752C43.3739 76.8963 57.1044 89.2104 57.2421 89.3285C57.4782 89.5449 57.4978 89.9088 57.2913 90.1547C57.0749 90.3907 56.711 90.4104 56.4651 90.2038C55.8946 89.6924 42.5084 77.693 38.4463 72.2735C37.9053 71.5457 36.7644 70.3556 36.0169 70.2572C35.8693 70.2376 35.771 70.2572 35.6726 70.3458C35.5153 70.4736 35.4366 70.6113 35.4169 70.808C35.3776 71.2703 35.6923 71.8801 35.9677 72.2932C36.1447 72.5096 36.2628 72.6768 36.2923 72.7358C36.4693 72.9915 36.4103 73.3358 36.1644 73.5227C35.9185 73.7095 35.5743 73.6702 35.3677 73.444C35.3284 73.3948 35.1808 73.2276 35.0038 72.9719C34.5317 72.4014 33.8432 71.7522 33.2826 71.6736C33.0859 71.6441 32.9187 71.6932 32.7613 71.8309C32.5842 71.9785 32.5056 72.1358 32.5056 72.3424C32.5056 72.667 32.7023 73.0505 32.9482 73.3948C33.4301 73.8276 33.7645 74.2702 33.8334 74.3587C34.0104 74.5947 33.9809 74.9291 33.7645 75.1259C33.5481 75.3226 33.2137 75.3324 32.9875 75.1455C32.899 75.0767 32.4859 74.7029 32.0925 74.1915C31.7581 73.9062 31.3941 73.6702 31.0892 73.6702C30.9712 73.6702 30.8237 73.6997 30.6368 73.9554C30.204 74.6537 32.7514 80.4371 49.5802 98.6428C49.7966 98.8788 49.7867 99.2428 49.5507 99.469C49.4425 99.5772 49.2949 99.6264 49.1572 99.6264L49.1671 99.6067Z" fill="black"/>
<path d="M132.139 123.104C134.047 122.622 134.126 120.743 134.126 120.714C134.126 119.77 133.86 119.012 133.319 118.462C132.945 118.088 132.513 117.871 132.129 117.744C134.145 117.055 133.949 115.068 133.949 115.039C133.831 114.104 133.457 113.386 132.847 112.924C132.454 112.619 132.021 112.472 131.637 112.393C133.408 111.498 133.063 109.639 133.054 109.619C132.847 108.695 132.414 108.016 131.765 107.603C131.293 107.298 130.782 107.2 130.368 107.17C132.159 106 131.47 104.121 131.46 104.092C131.106 103.216 130.565 102.616 129.857 102.321C129.424 102.135 128.991 102.095 128.608 102.105C130.28 100.708 129.336 98.9084 129.326 98.8888C128.864 98.0626 128.254 97.5413 127.506 97.3347C127.005 97.197 126.523 97.2265 126.129 97.3052C127.546 95.7512 126.444 94.1185 126.424 94.089C125.874 93.3218 125.215 92.8694 124.447 92.7415C123.946 92.6628 123.484 92.7415 123.11 92.8497C124.231 91.1776 122.982 89.722 122.972 89.7023C121.9 88.522 120.798 88.4729 119.982 88.7089C120.985 87.2532 120.021 85.8271 120.002 85.8074C119.441 85.0402 118.782 84.5976 118.015 84.4796C117.818 84.4501 117.641 84.4501 117.464 84.4599C118.595 83.3092 118.064 81.824 118.054 81.8043C117.7 80.9289 117.169 80.329 116.461 80.0241C116.264 79.9454 116.077 79.8962 115.89 79.8569C117.277 79.0208 117.12 77.4373 117.12 77.4176C116.992 76.4833 116.618 75.7751 116.008 75.303C115.684 75.0571 115.35 74.9194 115.025 74.8309C116.786 74.1719 116.726 72.372 116.726 72.3425C116.667 71.3982 116.343 70.6704 115.763 70.159C115.428 69.8639 115.045 69.6869 114.7 69.5787C116.471 68.8508 116.323 67.0214 116.323 66.9919C116.215 66.0575 115.851 65.3395 115.251 64.8576C114.868 64.5527 114.445 64.3953 114.071 64.3166C115.93 63.4412 115.576 61.5331 115.566 61.5036C115.369 60.5791 114.936 59.9004 114.287 59.4873C113.894 59.2316 113.471 59.1136 113.107 59.0644C114.868 58.0415 114.366 56.1727 114.356 56.1531C114.081 55.2482 113.599 54.6089 112.92 54.245C112.478 54.0089 112.015 53.9302 111.622 53.9204C113.304 52.7106 112.586 50.891 112.576 50.8615C112.202 49.996 111.651 49.4058 110.943 49.1206C110.491 48.9337 110.038 48.9042 109.645 48.9337C111.101 47.5076 110.156 45.8257 110.146 45.7962C109.655 44.9896 109.035 44.488 108.288 44.3012C107.766 44.1733 107.284 44.2225 106.891 44.3208C108.16 42.6389 106.911 41.1046 106.891 41.0849C105.711 39.7276 104.383 39.7768 103.439 40.18C104.334 38.3408 102.868 37.072 102.848 37.0523C101.304 35.8032 99.9863 36.295 99.2388 36.7966C99.8191 34.7409 98.0684 33.7771 98.0487 33.7574C96.2684 32.8427 95.0783 33.6 94.4587 34.259C94.5669 32.1443 92.6588 31.5837 92.6293 31.5739C91.0359 31.1608 90.072 31.7706 89.5212 32.4296C89.5212 32.1148 89.4425 31.7804 89.2557 31.4854C88.9803 31.0428 88.4885 30.7575 87.8098 30.6592C87.7902 30.6592 86.0984 30.5018 85.4001 31.9181C85.2821 31.6034 85.0952 31.2886 84.8001 31.0329C84.3182 30.6297 83.6494 30.4625 82.8035 30.5411C82.7838 30.5411 80.9249 30.7772 80.6102 32.7246C80.1282 31.9968 79.125 31.1018 77.2956 31.5739C77.2759 31.5739 75.358 32.1345 75.4661 34.2492C74.876 33.6295 73.6662 32.8328 71.8761 33.7574C71.8565 33.7672 70.1057 34.7311 70.686 36.7868C69.9287 36.2655 68.6206 35.7934 67.0764 37.0523C67.0567 37.0621 65.5912 38.3408 66.4961 40.1899C65.66 39.826 64.3126 39.6194 63.0339 41.0849C63.0241 41.1046 61.7651 42.6389 63.0339 44.3208C62.2077 44.1241 60.7914 44.1143 59.7784 45.806C59.7685 45.8257 58.8145 47.5076 60.28 48.9337C59.4046 48.8747 58.0866 49.1108 57.3391 50.8615C57.3391 50.8812 56.6211 52.7008 58.303 53.9105C57.4276 53.94 56.1195 54.304 55.5589 56.1432C55.5589 56.1629 55.0474 58.0317 56.8178 59.0546C55.9523 59.1726 54.7425 59.6742 54.3491 61.4938C54.3491 61.5135 53.995 63.4216 55.8539 64.2969C54.9786 64.4937 53.8081 65.1035 53.5918 66.9821C53.5918 67.0017 53.4344 68.8312 55.2146 69.559C54.3688 69.8147 53.3065 70.5032 53.1885 72.3228C53.1885 72.3425 53.1295 74.1424 54.8802 74.8014C54.0344 75.0276 53.0213 75.6669 52.7852 77.3881C52.7852 77.4078 52.618 78.9913 54.0147 79.8274C53.2475 79.9651 52.3721 80.447 51.841 81.7748C51.841 81.7945 51.3001 83.2698 52.4213 84.4206C51.6443 84.3812 50.7099 84.6566 49.8837 85.7779C49.8739 85.7976 48.9002 87.2139 49.9034 88.6696C49.087 88.4335 47.9953 88.4925 46.9134 89.6728C46.9035 89.6925 45.6544 91.1383 46.7757 92.8104C45.9101 92.535 44.5725 92.4956 43.4611 94.0496C43.4512 94.0693 42.3398 95.702 43.7562 97.256C42.9201 97.0888 41.5235 97.138 40.5694 98.8396C40.5596 98.8592 39.6154 100.659 41.2874 102.056C40.3924 102.026 39.1334 102.331 38.4449 104.052C38.4449 104.072 37.7466 105.951 39.5268 107.121C38.6416 107.18 37.2745 107.613 36.8516 109.57C36.8516 109.59 36.4975 111.449 38.2679 112.344C37.4023 112.521 36.2024 113.111 35.9565 114.999C35.9565 115.019 35.7598 117.006 37.7761 117.694C36.9204 117.97 35.7696 118.717 35.7893 120.665C35.7893 120.684 35.868 122.563 37.7761 123.045C36.9401 123.399 35.8975 124.235 36.0647 126.143C36.0647 126.163 36.3106 128.179 38.4744 128.396C37.7269 128.848 36.7434 129.832 37.186 131.72C37.186 131.74 37.6876 133.599 39.7137 133.608C38.8679 134.326 38.3564 135.507 38.9859 137.071C38.9859 137.09 39.8022 138.949 41.9267 138.526C41.3366 139.205 40.7858 140.385 41.7202 142.008C41.73 142.028 42.8021 143.749 44.8381 143.041C44.602 143.395 44.3758 143.867 44.3266 144.428C44.2578 145.195 44.5332 145.952 45.1331 146.68C45.1528 146.7 46.4019 148.116 48.2018 147.25C48.0445 147.585 47.9166 148.008 47.9264 148.48C47.9461 149.237 48.3002 149.945 48.9985 150.595C49.028 150.624 49.8149 151.322 50.9165 151.263C51.3689 151.244 51.7918 151.076 52.2049 150.811C52.0672 151.175 51.9689 151.627 52.0377 152.119C52.1361 152.867 52.5689 153.526 53.3459 154.076C53.3557 154.076 54.054 154.558 54.9589 154.558C55.4408 154.558 55.9818 154.421 56.5031 154.017C56.4146 154.401 56.3851 154.844 56.5031 155.316C56.69 156.043 57.1916 156.653 58.0079 157.116C58.0178 157.116 58.5686 157.401 59.2964 157.401C59.8669 157.401 60.5455 157.224 61.1553 156.624C61.1062 156.998 61.116 157.43 61.2734 157.883C61.5291 158.591 62.0897 159.142 62.9651 159.525C62.9749 159.525 63.4372 159.722 64.0568 159.722C64.6765 159.722 65.4633 159.525 66.0928 158.748C66.083 159.122 66.1321 159.555 66.3387 159.968C66.6633 160.637 67.2829 161.119 68.1878 161.394C68.1878 161.394 68.5025 161.473 68.9353 161.473C69.5943 161.473 70.5582 161.276 71.2172 160.332C71.2467 160.686 71.3352 161.089 71.5614 161.463C71.945 162.102 72.604 162.525 73.5285 162.712C73.5285 162.712 73.7154 162.751 74.0006 162.751C74.6498 162.751 75.8301 162.564 76.4792 161.355C76.5481 161.689 76.6759 162.053 76.9218 162.387C77.3644 162.987 78.0627 163.341 79.007 163.44C79.007 163.44 79.0561 163.44 79.1643 163.44C79.6561 163.44 81.161 163.312 81.8003 161.817C81.8986 162.151 82.0658 162.515 82.3511 162.83C82.8527 163.381 83.5805 163.666 84.5247 163.666C84.5247 163.666 86.6492 163.617 87.1803 161.65C87.5246 162.515 88.3311 163.607 90.1999 163.617C90.2687 163.617 91.8523 163.558 92.8063 162.505C93.1211 162.161 93.3178 161.738 93.4161 161.256C94.0554 162.535 95.2652 162.722 95.934 162.722C96.2094 162.722 96.3963 162.692 96.4061 162.682C97.3307 162.496 97.9995 162.073 98.3733 161.433C98.5995 161.06 98.688 160.656 98.7175 160.302C99.3765 161.256 100.34 161.443 100.999 161.443C101.432 161.443 101.737 161.365 101.757 161.355C102.662 161.079 103.271 160.607 103.596 159.929C103.793 159.506 103.852 159.083 103.842 158.709C104.471 159.486 105.248 159.683 105.878 159.683C106.507 159.683 106.96 159.496 106.97 159.486C107.835 159.102 108.406 158.552 108.651 157.843C108.809 157.401 108.819 156.958 108.769 156.584C109.379 157.184 110.058 157.361 110.628 157.361C111.356 157.361 111.917 157.086 111.927 157.076C112.743 156.614 113.245 156.014 113.432 155.276C113.55 154.804 113.51 154.362 113.432 153.978C113.963 154.381 114.504 154.519 114.976 154.519C115.881 154.519 116.579 154.047 116.589 154.037C117.356 153.486 117.789 152.827 117.887 152.08C117.956 151.588 117.858 151.135 117.72 150.772C118.133 151.037 118.556 151.195 119.008 151.224C119.048 151.224 119.097 151.224 119.136 151.224C120.169 151.224 120.887 150.585 120.926 150.545C121.625 149.906 121.989 149.198 121.998 148.441C121.998 147.968 121.88 147.545 121.723 147.211C122.136 147.408 122.53 147.496 122.884 147.496C124.044 147.496 124.782 146.66 124.802 146.641C125.411 145.913 125.677 145.165 125.608 144.398C125.559 143.818 125.323 143.346 125.077 142.992C125.431 143.119 125.756 143.178 126.051 143.178C127.467 143.178 128.205 141.988 128.214 141.969C128.687 141.152 128.824 140.356 128.618 139.618C128.49 139.156 128.254 138.772 127.998 138.487C128.214 138.526 128.421 138.556 128.608 138.556C130.28 138.556 130.939 137.061 130.949 137.031C131.618 135.389 130.998 134.238 130.231 133.569C132.247 133.549 132.739 131.691 132.749 131.671C132.965 130.756 132.867 129.95 132.454 129.3C132.178 128.858 131.804 128.563 131.46 128.356C133.624 128.14 133.86 126.124 133.87 126.104C133.949 125.16 133.742 124.392 133.25 123.802C132.926 123.409 132.522 123.173 132.159 123.015L132.139 123.104Z" fill="white"/>
<path d="M84.5153 164.335C83.3842 164.335 82.5088 163.98 81.899 163.312C81.8301 163.233 81.7613 163.154 81.7023 163.066C80.8072 164.01 79.568 164.099 79.1352 164.099C78.9877 164.099 78.9188 164.099 78.909 164.099C77.7975 163.98 76.9615 163.548 76.4206 162.81C76.3714 162.741 76.3222 162.663 76.273 162.594C75.1321 163.617 73.6469 163.41 73.3912 163.371C73.3814 163.371 73.3617 163.371 73.3519 163.371C72.2798 163.154 71.4929 162.643 71.0208 161.856C70.9618 161.758 70.9126 161.659 70.8634 161.551C70.3127 161.945 69.634 162.151 68.8865 162.151C68.3652 162.151 68.0013 162.053 67.9816 162.043C66.8997 161.718 66.162 161.138 65.7686 160.312C65.7194 160.204 65.6702 160.086 65.6309 159.968C65.0604 160.302 64.4703 160.391 64.0179 160.391C63.2802 160.391 62.7294 160.164 62.6999 160.154C61.6672 159.702 60.9983 159.033 60.6934 158.168C60.6541 158.04 60.6147 157.922 60.5852 157.784C60.1721 157.971 59.7295 158.069 59.2673 158.069C58.3821 158.069 57.7132 157.725 57.7034 157.715C56.7297 157.164 56.1297 156.427 55.9035 155.542C55.8641 155.394 55.8445 155.237 55.8248 155.089C55.5297 155.178 55.2347 155.227 54.9199 155.227C53.7987 155.227 52.9725 154.637 52.9626 154.637C52.0676 153.988 51.5463 153.191 51.4283 152.286C51.4086 152.148 51.3988 152.011 51.3988 151.863C51.2414 151.902 51.0742 151.922 50.907 151.932C49.5989 152.011 48.6743 151.204 48.576 151.116C47.7498 150.358 47.3268 149.512 47.3072 148.588C47.3072 148.45 47.3072 148.322 47.3268 148.185C46.0777 148.312 45.0843 147.634 44.6614 147.152C43.9434 146.296 43.6188 145.391 43.7073 144.467C43.727 144.27 43.7565 144.073 43.8155 143.877C42.4779 143.867 41.5435 142.981 41.1894 142.391C40.4321 141.073 40.5206 140.001 40.8353 139.214C39.4092 139.018 38.6125 137.887 38.4059 137.365C37.924 136.165 37.983 135.015 38.5633 134.08C36.9896 133.539 36.5864 131.946 36.5765 131.926C36.2224 130.421 36.6552 129.399 37.2158 128.74C35.6421 128.012 35.4454 126.3 35.4454 126.281C35.3077 124.727 35.8782 123.773 36.5175 123.202C35.5143 122.504 35.1897 121.383 35.17 120.753C35.1602 119.179 35.7995 118.274 36.5077 117.753C35.4749 116.927 35.2782 115.678 35.3471 115.009C35.5438 113.475 36.2913 112.668 37.0388 112.245C36.1339 111.281 36.1438 110.022 36.2519 109.521C36.5372 108.222 37.265 107.308 38.3076 106.875C37.2945 105.547 37.8453 104.003 37.8748 103.924C38.4355 102.537 39.3207 101.938 40.1272 101.692C39.419 100.511 39.7042 99.2426 40.0387 98.6328C40.796 97.2853 41.8091 96.8132 42.6648 96.705C42.1828 95.505 42.5959 94.3346 42.9598 93.7936C43.8745 92.515 44.927 92.1708 45.7925 92.1511C45.3991 90.5774 46.4416 89.3676 46.4613 89.3578C47.317 88.4234 48.1924 88.0988 48.9399 88.0595C48.6743 86.9776 49.0579 85.9842 49.3825 85.5219C50.0218 84.6465 50.73 84.2138 51.3791 84.0367C50.8283 82.8368 51.2611 81.6565 51.2709 81.6467C51.684 80.6238 52.2742 80.0336 52.8741 79.6992C52.0479 78.6665 52.1856 77.4174 52.1856 77.4075C52.343 76.2568 52.8446 75.3715 53.6315 74.8208C52.7954 74.0732 52.5692 73.0208 52.5889 72.3914C52.6872 70.9062 53.3364 70.0603 54.0151 69.5784C53.0708 68.7128 52.943 67.4932 53.002 67.0014C53.179 65.4868 53.897 64.6704 54.6249 64.2376C53.72 63.3328 53.6315 62.1132 53.7593 61.4738C54.0741 60.0083 54.8511 59.2707 55.6084 58.8969C54.7331 57.8543 54.8314 56.5659 54.9888 56.0544C55.4314 54.5889 56.3068 53.9201 57.1133 53.625C56.3854 52.5529 56.533 51.3333 56.7789 50.7235C57.3887 49.2974 58.3427 48.7269 59.1787 48.5302C58.5689 47.3007 58.982 46.0516 59.2476 45.5893C59.9263 44.4681 60.8901 43.8386 62.0016 43.7402C61.5885 42.4616 62.1196 41.3108 62.5622 40.7896C63.6244 39.5699 64.7359 39.3437 65.6211 39.4421C65.4539 38.0651 66.2702 37.0324 66.6833 36.6881C67.9521 35.6554 69.1029 35.6357 69.9684 35.9013C70.0569 34.1702 71.5618 33.344 71.5814 33.3342C73.0568 32.5768 74.2076 32.8326 74.9846 33.2653C75.378 31.8785 76.5878 31.249 77.1287 31.1015C78.6532 30.7081 79.686 31.131 80.3548 31.6818C81.1121 30.2261 82.6957 30.0294 82.7153 30.0294C83.7284 29.9311 84.5448 30.1376 85.1546 30.6491C85.2529 30.7376 85.3513 30.8261 85.4398 30.9343C86.3644 30.0589 87.6528 30.1278 87.8299 30.1376C88.7347 30.2753 89.3544 30.6392 89.7281 31.2392C89.7675 31.2982 89.797 31.3572 89.8363 31.4261C90.5051 30.9933 91.4494 30.7376 92.7575 31.072C93.4263 31.2589 94.5279 31.9277 94.9017 33.226C95.6885 32.7834 96.8294 32.5473 98.3048 33.3047C98.7966 33.5604 99.849 34.4554 99.9178 35.8816C100.783 35.616 101.934 35.6357 103.203 36.6586C103.714 37.0914 104.442 38.1143 104.275 39.4224C105.131 39.3339 106.262 39.5503 107.324 40.7601C107.757 41.2912 108.288 42.4518 107.885 43.7107C108.062 43.7206 108.249 43.7501 108.416 43.7993C109.321 44.0255 110.068 44.6156 110.639 45.5598C110.973 46.1401 111.298 47.3401 110.717 48.5007C110.865 48.54 111.012 48.5794 111.15 48.6384C112.016 48.9826 112.675 49.6711 113.107 50.694C113.363 51.3628 113.501 52.5628 112.783 53.6054C112.92 53.6545 113.058 53.7135 113.186 53.7824C114.012 54.2152 114.593 54.9725 114.907 56.0347C115.065 56.5462 115.163 57.8347 114.288 58.8772C114.396 58.9264 114.494 58.9854 114.593 59.0543C115.379 59.5559 115.891 60.3624 116.127 61.4345C116.255 62.1328 116.166 63.3328 115.271 64.2278C115.389 64.2967 115.497 64.3753 115.596 64.454C116.324 65.0343 116.756 65.8802 116.884 66.9818C116.943 67.6014 116.766 68.7522 115.871 69.5685C115.96 69.6276 116.048 69.6964 116.127 69.7751C116.825 70.3849 117.219 71.2603 117.297 72.3619C117.327 72.9618 117.11 74.0437 116.255 74.8109C116.294 74.8404 116.324 74.8601 116.363 74.8896C117.101 75.4502 117.553 76.2961 117.701 77.3878C117.76 77.9485 117.642 78.9124 117.012 79.6894C117.71 80.0828 118.251 80.732 118.605 81.627C118.635 81.6958 119.048 82.8564 118.507 84.0367C119.264 84.2531 119.933 84.7449 120.494 85.5121C120.504 85.5317 121.3 86.6727 120.946 88.0693C121.704 88.1087 122.569 88.4332 123.415 89.3578C123.769 89.7512 124.408 90.8626 124.084 92.1708C124.241 92.1708 124.399 92.1904 124.556 92.2101C125.471 92.3576 126.267 92.8888 126.907 93.7936C127.29 94.3444 127.703 95.5149 127.212 96.7246C127.369 96.7443 127.517 96.7738 127.664 96.8132C128.559 97.0591 129.287 97.6787 129.838 98.6328C130.162 99.2524 130.448 100.531 129.749 101.701C129.867 101.731 129.975 101.78 130.084 101.819C130.939 102.183 131.579 102.882 131.992 103.914C132.198 104.426 132.405 105.754 131.559 106.885C131.736 106.964 131.913 107.052 132.07 107.15C132.857 107.652 133.379 108.449 133.615 109.531C133.634 109.619 133.89 111.124 132.828 112.265C132.956 112.334 133.074 112.412 133.192 112.501C133.929 113.071 134.382 113.907 134.519 115.009C134.598 115.688 134.401 116.947 133.359 117.773C133.487 117.871 133.615 117.979 133.723 118.088C134.372 118.747 134.706 119.651 134.697 120.753C134.697 120.783 134.647 122.327 133.349 123.222C133.467 123.32 133.565 123.428 133.664 123.546C134.264 124.255 134.519 125.179 134.421 126.281C134.342 126.979 133.87 128.179 132.651 128.749C132.749 128.867 132.838 128.985 132.926 129.123C133.418 129.91 133.546 130.854 133.29 131.936C133.123 132.575 132.523 133.667 131.303 134.1C131.884 135.034 131.943 136.185 131.461 137.385C131.431 137.464 130.752 139.008 129.021 139.244C129.071 139.362 129.11 139.48 129.139 139.608C129.385 140.503 129.228 141.447 128.677 142.401C128.569 142.568 127.703 143.886 126.041 143.906C126.09 144.103 126.13 144.29 126.149 144.486C126.228 145.411 125.913 146.316 125.205 147.162C125.166 147.211 124.271 148.224 122.845 148.224C122.736 148.224 122.638 148.224 122.53 148.204C122.55 148.342 122.55 148.47 122.55 148.607C122.53 149.532 122.107 150.378 121.291 151.135C121.251 151.175 120.278 152.03 118.95 151.961C118.783 151.961 118.625 151.932 118.458 151.893C118.458 152.03 118.458 152.178 118.428 152.315C118.31 153.23 117.789 154.017 116.894 154.676C116.855 154.706 116.048 155.266 114.937 155.266C114.622 155.266 114.327 155.217 114.032 155.128C114.012 155.286 113.993 155.433 113.953 155.581C113.727 156.476 113.127 157.204 112.173 157.745C112.075 157.794 111.425 158.109 110.589 158.109C110.127 158.109 109.675 158.01 109.271 157.823C109.242 157.951 109.212 158.079 109.163 158.207C108.858 159.073 108.18 159.741 107.167 160.184C107.137 160.194 106.586 160.43 105.839 160.43C105.386 160.43 104.796 160.341 104.226 160.007C104.186 160.125 104.137 160.243 104.088 160.351C103.695 161.177 102.957 161.758 101.895 162.082C101.806 162.102 101.452 162.19 100.97 162.19C100.223 162.19 99.5441 161.984 98.9933 161.59C98.9441 161.699 98.8949 161.797 98.8359 161.895C98.3736 162.682 97.5769 163.194 96.4852 163.42C96.4163 163.43 96.2 163.469 95.8951 163.469C94.9607 163.469 94.1443 163.164 93.5345 162.594C93.4362 162.761 93.3181 162.908 93.2001 163.056C92.0985 164.276 90.3674 164.354 90.1806 164.364C88.9019 164.364 87.879 163.902 87.1905 163.046C86.4332 164.079 85.1841 164.394 84.4956 164.403L84.5153 164.335ZM81.7711 161.315C81.7711 161.315 81.7908 161.315 81.8105 161.315C82.0564 161.335 82.2629 161.492 82.3318 161.728C82.4203 162.043 82.5678 162.308 82.7547 162.515C83.1383 162.938 83.7284 163.154 84.5054 163.164C84.5644 163.164 86.1873 163.105 86.6004 161.581C86.6693 161.335 86.8758 161.168 87.1315 161.148C87.3774 161.128 87.6135 161.276 87.702 161.512C88.1249 162.574 88.961 163.105 90.1904 163.115C90.1904 163.115 91.5772 163.066 92.3641 162.19C92.6001 161.935 92.7477 161.61 92.8362 161.217C92.8854 160.971 93.0821 160.794 93.328 160.754C93.5739 160.725 93.8099 160.853 93.9181 161.069C94.4 162.013 95.2656 162.22 95.9147 162.22C96.1409 162.22 96.2786 162.19 96.2786 162.19C97.0262 162.033 97.5573 161.708 97.8523 161.217C97.9999 160.961 98.0884 160.666 98.1179 160.331C98.1376 160.086 98.3048 159.879 98.5507 159.82C98.7867 159.751 99.0424 159.85 99.1801 160.046C100.026 161.266 101.58 160.872 101.59 160.872C102.308 160.656 102.809 160.282 103.055 159.761C103.193 159.486 103.252 159.161 103.242 158.807C103.242 158.561 103.39 158.335 103.626 158.246C103.862 158.158 104.127 158.237 104.285 158.423C104.698 158.925 105.229 159.181 105.868 159.181C106.36 159.181 106.734 159.033 106.744 159.033C107.442 158.728 107.904 158.286 108.101 157.735C108.209 157.44 108.239 157.105 108.19 156.741C108.16 156.496 108.288 156.26 108.504 156.151C108.721 156.043 108.996 156.083 109.173 156.26C109.586 156.663 110.078 156.869 110.619 156.869C111.199 156.869 111.652 156.643 111.662 156.643C112.301 156.279 112.714 155.797 112.861 155.227C112.94 154.912 112.94 154.568 112.861 154.194C112.812 153.958 112.911 153.712 113.117 153.574C113.324 153.447 113.589 153.456 113.786 153.604C114.15 153.879 114.553 154.027 114.986 154.027C115.694 154.027 116.265 153.653 116.274 153.643C116.894 153.191 117.248 152.67 117.327 152.089C117.366 151.765 117.327 151.42 117.189 151.057C117.101 150.82 117.179 150.555 117.366 150.398C117.563 150.24 117.838 150.23 118.045 150.368C118.389 150.594 118.714 150.712 119.048 150.722H119.146C119.943 150.722 120.533 150.211 120.543 150.201C121.114 149.67 121.418 149.109 121.428 148.509C121.428 148.194 121.359 147.87 121.202 147.535C121.094 147.309 121.143 147.044 121.32 146.876C121.497 146.699 121.763 146.66 121.979 146.768C122.284 146.916 122.589 146.994 122.884 146.994C123.759 146.994 124.359 146.345 124.359 146.335C124.851 145.745 125.077 145.135 125.028 144.526C124.989 144.142 124.851 143.768 124.595 143.395C124.458 143.188 124.458 142.913 124.615 142.716C124.772 142.519 125.028 142.441 125.274 142.519C126.877 143.08 127.694 141.782 127.723 141.732C128.107 141.073 128.225 140.424 128.067 139.834C127.979 139.519 127.812 139.214 127.576 138.929C127.418 138.742 127.389 138.467 127.517 138.26C127.644 138.054 127.89 137.936 128.136 137.985C128.313 138.024 128.48 138.034 128.638 138.034C129.907 138.034 130.418 136.913 130.448 136.864C131.018 135.457 130.448 134.572 129.887 134.08C129.7 133.923 129.641 133.667 129.72 133.441C129.798 133.215 130.015 133.057 130.261 133.057C131.785 133.038 132.179 131.739 132.218 131.592C132.395 130.844 132.316 130.195 131.992 129.674C131.805 129.379 131.539 129.123 131.195 128.917C130.979 128.789 130.87 128.533 130.929 128.287C130.988 128.041 131.195 127.864 131.441 127.835C133.083 127.677 133.31 126.251 133.329 126.094C133.398 125.327 133.231 124.697 132.838 124.235C132.621 123.969 132.326 123.763 131.962 123.605C131.736 123.507 131.588 123.271 131.608 123.025C131.628 122.779 131.805 122.573 132.041 122.504C133.497 122.13 133.585 120.724 133.585 120.665C133.585 119.897 133.379 119.278 132.946 118.845C132.7 118.599 132.375 118.402 131.992 118.274C131.756 118.196 131.588 117.979 131.588 117.724C131.588 117.468 131.746 117.252 131.982 117.173C133.506 116.652 133.428 115.235 133.408 115.078C133.31 114.321 133.015 113.74 132.523 113.366C132.257 113.16 131.933 113.022 131.559 112.944C131.313 112.894 131.126 112.698 131.097 112.452C131.067 112.206 131.185 111.97 131.411 111.852C132.769 111.163 132.533 109.757 132.523 109.698C132.356 108.95 132.011 108.4 131.5 108.065C131.185 107.868 130.811 107.75 130.379 107.721C130.133 107.701 129.916 107.534 129.857 107.288C129.798 107.042 129.887 106.786 130.103 106.659C131.451 105.773 131.018 104.426 130.969 104.269C130.684 103.56 130.251 103.069 129.69 102.833C129.395 102.705 129.061 102.646 128.697 102.665C128.431 102.665 128.225 102.528 128.136 102.292C128.048 102.056 128.116 101.8 128.303 101.633C129.562 100.57 128.953 99.2721 128.884 99.1245C128.51 98.4557 128.018 98.0328 127.428 97.8656C127.084 97.7672 126.73 97.7672 126.326 97.8459C126.081 97.8951 125.825 97.7869 125.707 97.5607C125.589 97.3345 125.608 97.0689 125.785 96.882C126.848 95.7116 126.12 94.5215 126.031 94.3838C125.589 93.7641 125.048 93.3904 124.448 93.292C124.113 93.233 123.749 93.2724 123.376 93.3805C123.14 93.4494 122.884 93.3707 122.736 93.174C122.589 92.9773 122.579 92.7117 122.717 92.5052C123.572 91.2265 122.658 90.1151 122.618 90.0659C121.9 89.2791 121.094 89.0037 120.228 89.2496C119.992 89.3184 119.737 89.2299 119.599 89.0332C119.461 88.8365 119.451 88.5709 119.599 88.3644C120.366 87.253 119.648 86.171 119.619 86.1219C119.166 85.5022 118.625 85.1383 118.025 85.0399C117.897 85.0203 117.76 85.0203 117.592 85.0203C117.356 85.0399 117.13 84.8924 117.032 84.676C116.933 84.4596 116.983 84.2039 117.15 84.0269C118.005 83.1515 117.622 82.0204 117.602 81.9712C117.317 81.2631 116.884 80.7713 116.324 80.5352C116.196 80.4762 116.058 80.4369 115.871 80.4074C115.635 80.368 115.448 80.1812 115.409 79.9353C115.37 79.6992 115.478 79.4533 115.684 79.3353C116.737 78.696 116.638 77.496 116.629 77.4469C116.53 76.6895 116.225 76.1092 115.743 75.7355C115.527 75.5683 115.271 75.4502 114.956 75.3617C114.711 75.2929 114.543 75.0765 114.524 74.8306C114.514 74.5749 114.661 74.3486 114.897 74.2601C116.235 73.7585 116.215 72.4012 116.215 72.3422C116.166 71.575 115.911 70.975 115.448 70.5816C115.212 70.3751 114.927 70.2275 114.602 70.1193C114.366 70.0505 114.199 69.8341 114.189 69.5882C114.179 69.3423 114.317 69.1161 114.553 69.0276C115.911 68.467 115.822 67.09 115.812 67.031C115.724 66.2736 115.438 65.6835 114.956 65.2999C114.701 65.0933 114.376 64.9458 114.012 64.8671C113.766 64.8081 113.589 64.6114 113.56 64.3655C113.53 64.1196 113.668 63.8836 113.894 63.7754C115.301 63.1164 115.094 61.7492 115.065 61.6017C114.907 60.8542 114.563 60.2936 114.042 59.969C113.766 59.7919 113.452 59.6838 113.098 59.6346C112.852 59.6051 112.655 59.4182 112.606 59.1723C112.557 58.9264 112.665 58.6805 112.881 58.5527C114.229 57.7658 113.875 56.3593 113.865 56.3003C113.638 55.5626 113.255 55.0414 112.714 54.7561C112.409 54.5988 112.065 54.5102 111.671 54.5004C111.425 54.5004 111.209 54.3332 111.13 54.0873C111.062 53.8512 111.14 53.5857 111.347 53.448C112.645 52.5136 112.124 51.1366 112.104 51.0776C111.799 50.3793 111.357 49.8973 110.796 49.6711C110.491 49.5433 110.137 49.4941 109.763 49.5236C109.517 49.5334 109.291 49.4056 109.193 49.1793C109.094 48.9531 109.144 48.6974 109.321 48.5203C110.422 47.4483 109.793 46.2287 109.714 46.091C109.321 45.432 108.809 45.0189 108.219 44.8713C107.875 44.7828 107.501 44.7927 107.098 44.891C106.862 44.95 106.606 44.8517 106.478 44.6451C106.34 44.4386 106.35 44.173 106.498 43.9763C107.462 42.7075 106.616 41.5862 106.518 41.4584C105.514 40.2978 104.452 40.4158 103.744 40.7207C103.518 40.8191 103.262 40.7601 103.095 40.583C102.928 40.406 102.888 40.1404 102.996 39.924C103.675 38.5372 102.672 37.593 102.554 37.4946C101.59 36.7078 100.606 36.6389 99.6523 37.2783C99.4457 37.416 99.1801 37.4061 98.9834 37.2684C98.7867 37.1209 98.6982 36.875 98.7671 36.6389C99.2097 35.0849 97.9999 34.3472 97.8622 34.2686C96.7409 33.6981 95.7672 33.826 94.9705 34.662C94.8033 34.839 94.5476 34.8882 94.3214 34.7997C94.0951 34.7013 93.9574 34.4751 93.9673 34.239C94.046 32.6358 92.7083 32.1932 92.5608 32.1441C91.5084 31.8687 90.6625 32.0949 90.0724 32.8129C89.915 32.9998 89.6593 33.0686 89.4331 32.9899C89.2069 32.9112 89.0495 32.6949 89.0396 32.4588C89.0396 32.2031 88.9708 31.9769 88.8626 31.7998C88.6757 31.4949 88.3315 31.3179 87.82 31.2392C87.7315 31.2392 86.5217 31.1703 86.0201 32.1834C85.9218 32.39 85.7152 32.5178 85.4693 32.508C85.2333 32.4981 85.0366 32.3506 84.9579 32.1244C84.8595 31.8588 84.712 31.6425 84.5251 31.4851C84.171 31.1802 83.6399 31.0621 82.9612 31.131C82.9219 31.131 81.5252 31.3474 81.2794 32.8227C81.24 33.0588 81.063 33.2457 80.8269 33.2948C80.5909 33.344 80.3548 33.2457 80.2171 33.0489C79.6171 32.1441 78.7123 31.8392 77.532 32.1441C77.3943 32.1834 76.0566 32.6358 76.1353 34.2292C76.1452 34.4751 76.0075 34.6915 75.7812 34.7898C75.555 34.8882 75.2993 34.8292 75.1321 34.662C74.5813 34.0915 73.6272 33.5604 72.2208 34.2784C72.0929 34.3472 70.893 35.0849 71.3257 36.6291C71.3946 36.8652 71.306 37.1209 71.1093 37.2586C70.9126 37.4061 70.6471 37.4061 70.4405 37.2586C69.4963 36.6094 68.5127 36.6881 67.5292 37.4946C67.421 37.5832 66.4178 38.5274 67.1062 39.924C67.2144 40.1404 67.1751 40.406 67.0079 40.583C66.8407 40.7601 66.5751 40.8092 66.3587 40.7109C65.326 40.2584 64.3916 40.5142 63.5654 41.4584C63.4769 41.5666 62.631 42.6878 63.5949 43.9566C63.7425 44.1533 63.7523 44.4189 63.6146 44.6254C63.4769 44.832 63.231 44.9304 62.995 44.8713C61.8934 44.6156 61.018 45.0189 60.3689 46.091C60.3492 46.1303 59.6607 47.4089 60.782 48.5007C60.959 48.6679 61.0082 48.9334 60.9098 49.1498C60.8115 49.376 60.5754 49.5137 60.3393 49.4941C59.2476 49.4252 58.4509 49.9465 57.9788 51.0678C57.9296 51.1956 57.4772 52.5038 58.746 53.4185C58.9525 53.566 59.0312 53.8217 58.9624 54.0578C58.8935 54.2938 58.6771 54.4611 58.4214 54.4709C57.3198 54.5004 56.5723 55.12 56.2182 56.2905C56.2084 56.3298 55.8543 57.7461 57.2116 58.533C57.428 58.6609 57.5362 58.9067 57.487 59.1526C57.4378 59.3985 57.2411 59.5854 56.9952 59.6149C55.933 59.7526 55.2642 60.4313 55.0183 61.6017C54.9986 61.7394 54.8019 63.0967 56.2084 63.7557C56.4346 63.8639 56.5625 64.0999 56.5428 64.3458C56.5133 64.5917 56.3363 64.7983 56.0904 64.8475C55.0281 65.0835 54.4183 65.8212 54.2806 67.031C54.2806 67.0703 54.1921 68.4473 55.5396 69.0079C55.7658 69.1063 55.9133 69.3325 55.9035 69.5784C55.8937 69.8243 55.7264 70.0406 55.4904 70.1095C54.497 70.4144 53.956 71.1717 53.8774 72.352C53.8774 72.3914 53.8577 73.7388 55.1953 74.2503C55.4314 74.3388 55.5789 74.5749 55.5691 74.8208C55.5592 75.0765 55.3822 75.2929 55.1363 75.3519C54.1823 75.6076 53.6216 76.3158 53.4643 77.4567C53.4643 77.4862 53.3659 78.6861 54.4183 79.3156C54.6249 79.4435 54.7331 79.6795 54.6937 79.9156C54.6544 80.1517 54.4675 80.3385 54.2314 80.3877C53.4446 80.5352 52.8545 81.0664 52.4905 81.9811C52.4807 82.0106 52.0971 83.1318 52.9528 84.0072C53.12 84.1744 53.1692 84.4301 53.0708 84.6564C52.9725 84.8826 52.7463 85.0104 52.5102 85.0006C51.7234 84.9613 51.0545 85.3252 50.4742 86.1219C50.4546 86.1514 49.7464 87.2333 50.5037 88.3447C50.6414 88.5513 50.6414 88.8168 50.5037 89.0135C50.3562 89.2102 50.1103 89.2988 49.8743 89.2299C49.0087 88.984 48.2022 89.2693 47.4744 90.0659C47.4449 90.0954 46.5302 91.2069 47.3859 92.4855C47.5236 92.692 47.5137 92.9576 47.3662 93.1543C47.2186 93.351 46.9629 93.4396 46.7269 93.3609C45.6745 93.0363 44.7794 93.3805 44.0614 94.3838C43.9827 94.5018 43.2451 95.6919 44.3171 96.8623C44.4844 97.0492 44.5139 97.3246 44.3958 97.541C44.268 97.7574 44.0221 97.8754 43.7762 97.8262C42.6746 97.6098 41.8091 98.0426 41.2091 99.1245C41.1402 99.2524 40.5304 100.551 41.7992 101.613C41.9861 101.77 42.055 102.036 41.9664 102.272C41.8779 102.508 41.6517 102.656 41.4058 102.646C40.3534 102.606 39.5764 103.157 39.1239 104.269C39.0748 104.396 38.642 105.744 39.9895 106.639C40.196 106.777 40.2944 107.032 40.2354 107.268C40.1764 107.514 39.96 107.682 39.7141 107.701C38.5633 107.78 37.8355 108.459 37.5601 109.698C37.5601 109.747 37.3142 111.144 38.6715 111.822C38.8879 111.93 39.0158 112.176 38.9862 112.422C38.9567 112.668 38.7699 112.865 38.524 112.914C37.4519 113.13 36.8323 113.858 36.6749 115.068C36.665 115.206 36.5864 116.622 38.101 117.143C38.3371 117.222 38.4945 117.448 38.4945 117.694C38.4945 117.94 38.3273 118.166 38.0912 118.245C37.029 118.599 36.488 119.406 36.4978 120.655C36.4978 120.694 36.5864 122.101 38.042 122.474C38.2879 122.533 38.4551 122.75 38.4748 122.996C38.4945 123.241 38.3568 123.477 38.1207 123.576C37.1076 124.009 36.6454 124.854 36.7536 126.094C36.7732 126.241 36.9995 127.658 38.642 127.815C38.8879 127.835 39.0944 128.022 39.1535 128.267C39.2125 128.513 39.1043 128.769 38.8879 128.897C37.924 129.477 37.5798 130.382 37.865 131.592C37.8748 131.631 38.2781 133.018 39.8321 133.028C40.078 133.028 40.2944 133.185 40.3731 133.411C40.4518 133.638 40.3927 133.893 40.2059 134.051C39.6256 134.543 39.0649 135.428 39.6354 136.854C39.6944 136.992 40.3239 138.28 41.9271 137.956C42.173 137.906 42.4189 138.015 42.5467 138.231C42.6746 138.447 42.6451 138.713 42.4877 138.9C41.7894 139.716 41.7402 140.66 42.35 141.713C42.4287 141.831 43.2254 143.031 44.7696 142.49C45.0056 142.411 45.2712 142.49 45.4187 142.686C45.5761 142.883 45.5761 143.159 45.4384 143.365C45.1925 143.729 45.0548 144.103 45.0155 144.486C44.9565 145.096 45.1925 145.706 45.6941 146.306C45.7236 146.335 46.6875 147.388 48.0645 146.729C48.2907 146.621 48.5465 146.67 48.7235 146.837C48.9005 147.004 48.9497 147.27 48.8415 147.496C48.694 147.821 48.6153 148.145 48.6251 148.47C48.635 149.06 48.9399 149.63 49.5103 150.161C49.5103 150.161 50.1497 150.732 50.9955 150.683C51.3299 150.663 51.6545 150.545 51.9988 150.329C52.2053 150.191 52.4807 150.211 52.6774 150.358C52.8741 150.516 52.943 150.781 52.8545 151.017C52.7168 151.371 52.6774 151.725 52.7168 152.05C52.7954 152.63 53.1495 153.161 53.7888 153.614C53.7888 153.614 54.3495 153.988 55.0576 153.988C55.4806 153.988 55.8838 153.85 56.2576 153.565C56.4543 153.417 56.7198 153.407 56.9264 153.535C57.1329 153.663 57.2313 153.909 57.1821 154.155C57.1034 154.519 57.0936 154.873 57.1821 155.187C57.3297 155.768 57.7329 156.24 58.4116 156.623C58.4116 156.623 58.8542 156.83 59.4148 156.83C59.9754 156.83 60.4574 156.623 60.8705 156.22C61.0475 156.043 61.3131 156.004 61.5393 156.112C61.7655 156.22 61.8934 156.456 61.854 156.702C61.8049 157.056 61.8344 157.391 61.9426 157.686C62.1393 158.237 62.6015 158.679 63.3195 158.994C63.3195 158.994 63.6933 159.141 64.1752 159.141C64.8145 159.141 65.3457 158.886 65.7588 158.384C65.9161 158.187 66.1817 158.118 66.4178 158.207C66.6538 158.296 66.8013 158.522 66.8013 158.768C66.7915 159.122 66.8505 159.446 66.9882 159.722C67.2341 160.233 67.7357 160.617 68.4734 160.843C68.4734 160.843 68.7193 160.902 69.0537 160.902C69.5947 160.902 70.352 160.745 70.8634 160.007C71.0011 159.8 71.2569 159.712 71.4929 159.781C71.729 159.85 71.906 160.056 71.9257 160.292C71.9552 160.627 72.0437 160.922 72.1913 161.177C72.4863 161.669 73.0174 161.994 73.7748 162.151H73.7846C73.7846 162.151 73.9223 162.171 74.1387 162.171C74.7682 162.171 75.6239 161.984 76.1058 161.079C76.2238 160.863 76.4599 160.745 76.7058 160.784C76.9517 160.823 77.1386 161.01 77.1877 161.246C77.2468 161.561 77.3648 161.826 77.5222 162.053C77.8566 162.515 78.427 162.79 79.1942 162.879C79.1942 162.879 79.2335 162.879 79.2926 162.879C79.7647 162.879 80.9056 162.751 81.3974 161.61C81.4859 161.394 81.7023 161.256 81.9285 161.256L81.7711 161.315Z" fill="black"/>
<path d="M70.1456 61.9165C66.8802 61.9165 64.2246 58.8183 64.2246 55.0021C64.2246 51.1859 66.8802 48.0876 70.1456 48.0876C73.4111 48.0876 76.0667 51.1859 76.0667 55.0021C76.0667 58.8183 73.4111 61.9165 70.1456 61.9165ZM70.1456 49.2581C67.5195 49.2581 65.3852 51.835 65.3852 55.0021C65.3852 58.1691 67.5195 60.7461 70.1456 60.7461C72.7718 60.7461 74.9061 58.1691 74.9061 55.0021C74.9061 51.835 72.7718 49.2581 70.1456 49.2581Z" fill="black"/>
<path d="M71.856 60.461C73.7192 60.461 75.2296 57.9333 75.2296 54.8153C75.2296 51.6973 73.7192 49.1697 71.856 49.1697C69.9928 49.1697 68.4824 51.6973 68.4824 54.8153C68.4824 57.9333 69.9928 60.461 71.856 60.461Z" fill="black"/>
<path d="M85.8527 61.9165C82.5873 61.9165 79.9316 58.8183 79.9316 55.0021C79.9316 51.1859 82.5873 48.0876 85.8527 48.0876C89.1181 48.0876 91.7737 51.1859 91.7737 55.0021C91.7737 58.8183 89.1181 61.9165 85.8527 61.9165ZM85.8527 49.2581C83.2266 49.2581 81.0922 51.835 81.0922 55.0021C81.0922 58.1691 83.2266 60.7461 85.8527 60.7461C88.4788 60.7461 90.6131 58.1691 90.6131 55.0021C90.6131 51.835 88.4788 49.2581 85.8527 49.2581Z" fill="black"/>
<path d="M87.565 60.461C89.4282 60.461 90.9386 57.9333 90.9386 54.8153C90.9386 51.6973 89.4282 49.1697 87.565 49.1697C85.7018 49.1697 84.1914 51.6973 84.1914 54.8153C84.1914 57.9333 85.7018 60.461 87.565 60.461Z" fill="black"/>
<path d="M78.0639 69.9127C80.7528 69.9127 82.9326 67.9267 82.9326 65.4769C82.9326 63.027 80.7528 61.041 78.0639 61.041C75.3751 61.041 73.1953 63.027 73.1953 65.4769C73.1953 67.9267 75.3751 69.9127 78.0639 69.9127Z" fill="#F1614E"/>
<path d="M78.0623 70.493C75.0526 70.493 72.6035 68.2407 72.6035 65.4769C72.6035 62.713 75.0526 60.4607 78.0623 60.4607C81.072 60.4607 83.521 62.713 83.521 65.4769C83.521 68.2407 81.072 70.493 78.0623 70.493ZM78.0623 61.6213C75.6919 61.6213 73.774 63.3524 73.774 65.4769C73.774 67.6013 75.7017 69.3324 78.0623 69.3324C80.4228 69.3324 82.3506 67.6013 82.3506 65.4769C82.3506 63.3524 80.4228 61.6213 78.0623 61.6213Z" fill="black"/>
<path d="M83.6685 81.7944C94.3401 81.3616 96.4744 78.1552 96.4744 78.1552C96.4744 78.1552 98.0776 76.552 97.5367 74.3291C97.0055 72.0964 95.5499 71.6145 95.5499 71.6145C95.5499 71.6145 93.6614 70.6408 90.4058 71.8112C87.1601 72.9718 80.6096 73.2275 80.6096 73.2275H75.9573C75.9573 73.2275 69.4068 72.9718 66.1611 71.8112C62.9153 70.6506 61.0171 71.6145 61.0171 71.6145C61.0171 71.6145 59.5614 72.0964 59.0303 74.3291C58.4991 76.5618 60.0925 78.1552 60.0925 78.1552C60.0925 78.1552 62.2268 81.3518 72.8985 81.7944H83.6685Z" fill="#F1614E"/>
<path d="M83.6792 82.3746H72.8994C62.6507 81.9517 59.9951 78.9813 59.6509 78.5289C59.3951 78.2535 57.9001 76.5421 58.4607 74.1914C59.0115 71.8702 60.4967 71.1915 60.7819 71.0735C61.0868 70.9358 63.1031 70.0899 66.3489 71.2505C69.4766 72.3718 75.9091 72.6275 75.978 72.6373H80.6007C80.6007 72.6373 87.0725 72.3718 90.2002 71.2505C93.446 70.0899 95.4623 70.9259 95.7672 71.0735C96.0524 71.1817 97.5376 71.8702 98.0884 74.1914C98.649 76.5519 97.154 78.2633 96.8983 78.5289C96.554 78.9813 93.8984 81.9517 83.6792 82.3746ZM63.1031 71.8111C61.9327 71.8111 61.3032 72.1259 61.2934 72.1259L61.2147 72.1554C61.2147 72.1554 60.0541 72.598 59.6115 74.4569C59.1591 76.3257 60.4672 77.683 60.5262 77.742L60.5951 77.8305C60.5951 77.8305 62.8278 80.7911 72.9388 81.2042H83.6694C93.7706 80.7911 95.9836 77.8502 96.0032 77.8207L96.0721 77.742C96.1213 77.683 97.4294 76.3355 96.9868 74.4569C96.5442 72.598 95.4229 72.1751 95.3738 72.1554L95.2951 72.1259C95.2951 72.1259 93.5542 71.2997 90.6133 72.3521C87.3184 73.5324 80.9154 73.7881 80.64 73.8078H75.9681C75.6731 73.7979 69.2701 73.5422 65.9751 72.3521C64.8145 71.939 63.8507 71.8111 63.113 71.8111H63.1031Z" fill="black"/>
<path d="M78.3382 77.9485C69.6042 77.9485 63.034 76.2568 62.9356 76.2273C62.6209 76.1486 62.4438 75.824 62.5225 75.5191C62.6012 75.2044 62.9258 75.0273 63.2307 75.106C63.3782 75.1454 77.8857 78.8731 92.3244 75.106C92.6293 75.0273 92.9539 75.2142 93.0326 75.5191C93.1112 75.8338 92.9244 76.1486 92.6195 76.2273C87.682 77.5157 82.7347 77.9485 78.3382 77.9485Z" fill="black"/>
<path d="M112.133 95.9773C112.133 95.9773 126.001 83.5647 130.073 78.1355C130.073 78.1355 132.365 75.0471 133.673 76.0995C134.981 77.1519 133.161 79.2666 133.161 79.2666C133.161 79.2666 135.128 76.3552 136.584 77.5945C138.04 78.8338 135.601 80.8993 135.601 80.8993C135.601 80.8993 137.597 78.1748 138.797 79.8075C139.997 81.4403 133.161 90.7939 119.814 105.233" fill="white"/>
<path d="M119.815 105.813C119.677 105.813 119.53 105.764 119.422 105.656C119.185 105.439 119.176 105.065 119.392 104.829C136.211 86.6334 138.768 80.8403 138.335 80.1419C138.149 79.8862 137.991 79.8567 137.883 79.8567C137.588 79.8567 137.214 80.0829 136.89 80.3682C136.496 80.8894 136.073 81.2632 135.985 81.3321C135.758 81.5189 135.424 81.5189 135.208 81.3124C134.991 81.1157 134.962 80.7813 135.139 80.5452C135.208 80.4567 135.542 80.0141 136.024 79.5813C136.28 79.2272 136.476 78.8436 136.476 78.5289C136.476 78.3322 136.398 78.1748 136.221 78.0273C136.054 77.8896 135.896 77.8404 135.699 77.8699C135.149 77.9486 134.45 78.5978 133.978 79.1682C133.801 79.4239 133.663 79.601 133.614 79.6403C133.418 79.8764 133.064 79.9059 132.818 79.719C132.572 79.5321 132.513 79.1879 132.69 78.9322C132.729 78.8732 132.837 78.7059 133.014 78.4896C133.29 78.0765 133.604 77.4765 133.565 77.0044C133.545 76.8077 133.467 76.67 133.309 76.5421C133.211 76.4634 133.113 76.4438 132.965 76.4536C132.218 76.5519 131.077 77.7421 130.536 78.4699C126.474 83.8893 113.087 95.8888 112.517 96.4002C112.281 96.6166 111.907 96.5969 111.691 96.351C111.474 96.115 111.494 95.7412 111.74 95.5248C111.878 95.397 125.608 83.0828 129.601 77.7617C129.769 77.5355 131.332 75.4799 132.818 75.2832C133.27 75.2241 133.693 75.3422 134.037 75.6176C134.44 75.9421 134.677 76.3749 134.716 76.8864C134.716 76.9159 134.716 76.9355 134.716 76.965C134.972 76.8273 135.237 76.7388 135.513 76.6995C136.034 76.6306 136.535 76.7782 136.949 77.1224C137.381 77.4962 137.617 77.9781 137.617 78.5191C137.617 78.5781 137.617 78.6371 137.617 78.7059C137.706 78.6961 137.785 78.6863 137.873 78.6863C138.257 78.6863 138.808 78.8141 139.27 79.4436C141.158 82.0107 129.965 95.0921 120.248 105.606C120.13 105.734 119.972 105.793 119.825 105.793L119.815 105.813Z" fill="black"/>
</g>
<defs>
<clipPath id="clip0_3627_44112">
<rect width="140" height="170" fill="white"/>
</clipPath>
</defs>
</svg>
