<svg width="140" height="170" viewBox="0 0 140 170" fill="none" xmlns="http://www.w3.org/2000/svg">
<g clip-path="url(#clip0_3627_44132)">
<path d="M47.4227 117.227C47.4227 117.227 49.246 130.763 46.2792 141.115C46.2792 141.115 38.5225 155.65 44.4559 163.613C44.4559 163.613 47.6493 169.186 60.433 168.99C60.433 168.99 73.67 170.783 75.5036 160.832C75.5036 160.832 75.9569 156.052 73.6803 149.882C73.6803 149.882 67.2833 131.762 69.7968 115.836C69.7968 115.836 53.1295 113.848 47.4227 117.227Z" fill="#FFF4F0"/>
<path d="M62.6493 170C61.4853 170 60.6509 169.918 60.3727 169.887C47.6611 170.052 43.963 164.705 43.5612 164.067C37.5969 156.001 44.612 142.125 45.3021 140.817C48.1556 130.753 46.4147 117.464 46.3941 117.33L46.322 116.795L46.837 116.486C52.8014 112.952 69.2317 114.858 69.9219 114.941L70.9417 115.064L70.7975 115.95C68.3458 131.505 74.578 149.429 74.6398 149.614C76.9576 155.877 76.525 160.698 76.5044 160.904V160.976C75.0313 168.98 66.7698 170.011 62.6287 170.011L62.6493 170ZM60.5067 168.095H60.5891C61.0835 168.177 72.8062 169.629 74.475 160.729C74.5059 160.317 74.7841 155.816 72.6929 150.16C72.6208 149.965 66.5019 132.339 68.6343 116.62C65.1216 116.28 53.4092 115.353 48.5058 117.701C48.8251 120.421 49.9377 132.03 47.2697 141.342L47.2491 141.425L47.2079 141.507C47.1357 141.651 39.7601 155.692 45.3124 163.14L45.3743 163.222C45.3743 163.222 48.5367 168.29 60.4139 168.105H60.5067V168.095Z" fill="black"/>
<path d="M63.648 70.0891C63.648 70.0891 36.1645 67.2666 20.548 82.842C20.548 82.842 5.84822 96.7897 11.1327 112.025C11.1327 112.025 15.0266 123.037 34.0528 122.79C34.0528 122.79 45.1986 122.491 52.1004 121.028C52.1004 121.028 63.4729 119.092 72.4967 120.678C72.4967 120.678 88.8446 123.501 98.435 118.525C98.435 118.525 114.422 112.077 105.79 94.2248C105.79 94.2248 93.6759 73.2825 63.6377 70.0994L63.648 70.0891Z" fill="#F0534A"/>
<path d="M33.4967 123.686C27.9135 123.686 20.3627 122.687 14.7692 118.154C11.2565 115.301 10.2058 112.406 10.1646 112.293C7.9189 105.844 8.88721 98.5922 12.9459 91.3299C15.995 85.8806 19.6519 82.3782 19.8064 82.234C28.0577 74.0033 39.5847 70.9027 47.805 69.7387C56.664 68.4922 63.4937 69.1721 63.7821 69.1927C79.5738 70.8718 90.4003 77.4542 96.7046 82.6872C103.534 88.3632 106.594 93.5755 106.728 93.8022L106.759 93.8537C109.313 99.1485 111.301 106.864 106.223 113.549C103.328 117.371 99.455 119.081 98.9399 119.308C89.1126 124.366 73.0016 121.667 72.3217 121.543C63.7718 120.039 52.8938 121.801 52.3478 121.893C45.4151 123.356 34.5783 123.665 34.1147 123.676C33.919 123.676 33.713 123.676 33.5173 123.676L33.4967 123.686ZM58.7345 70.7997C50.2773 70.7997 32.5387 72.2521 21.331 83.4289C21.1765 83.5834 7.07421 97.2118 12.1321 111.757C12.2763 112.169 16.0053 121.893 33.4452 121.893C33.6512 121.893 33.8469 121.893 34.0529 121.893C34.1457 121.893 45.1576 121.574 51.8739 120.153H51.9152C52.389 120.06 63.5967 118.185 72.7132 119.792C72.8677 119.823 88.783 122.491 97.9304 117.752L98.0231 117.711C98.0231 117.711 101.855 116.125 104.564 112.509C108.18 107.688 108.283 101.662 104.884 94.6057C104.647 94.2142 101.598 89.2285 95.2315 83.9543C89.1641 78.9273 78.7394 72.6024 63.5349 70.9851C63.4524 70.9851 61.6394 70.81 58.7345 70.81V70.7997Z" fill="black"/>
<path d="M93.0388 29.863C93.0388 29.863 112.827 21.6736 129.855 36.703C146.883 51.7427 132.585 68.8529 132.585 68.8529C132.585 68.8529 122.469 80.5756 103.072 77.0836C83.6853 73.6018 73.5696 85.0154 73.5696 85.0154C73.5696 85.0154 63.5775 94.7706 51.2676 84.0162C38.9577 73.2618 72.1686 35.436 93.0388 29.863Z" fill="#F68E57"/>
<path d="M63.1838 89.9085C59.5784 89.9085 55.324 88.6312 50.7915 84.6755C48.072 82.2959 47.217 78.536 48.3192 73.7872C52.0379 57.7998 76.1529 33.6024 92.8408 29.1111C94.0357 28.6475 113.69 21.3131 130.461 36.1159C147.89 51.5058 133.427 69.2341 133.273 69.4195C133.16 69.5534 122.601 81.4616 102.987 77.9386C84.2702 74.5701 74.3502 85.4893 74.2575 85.6026C74.1648 85.6953 69.7353 89.9085 63.1838 89.9085ZM106.016 28.5342C98.7331 28.5342 93.5104 30.615 93.4177 30.6562L93.3147 30.6872C77.3994 34.9415 53.4801 58.902 49.9365 74.1477C48.9682 78.33 49.6171 81.441 51.8834 83.4188C63.4516 93.5242 72.6814 84.8197 73.0729 84.4489C73.454 84.0162 83.6728 72.7777 103.296 76.3007C122.014 79.6692 131.934 68.4512 132.037 68.3379C132.593 67.6786 145.603 51.6603 129.389 37.3417C121.457 30.3369 112.846 28.5136 106.037 28.5136L106.016 28.5342Z" fill="black"/>
<path d="M44.6849 59.3657L31.623 69.9553L35.4757 77.1043L43.0367 74.9102L44.6849 59.3657Z" fill="#F68E57"/>
<path d="M35.475 77.9282C35.1763 77.9282 34.8982 77.7634 34.7437 77.4955L30.891 70.3465C30.7056 69.9963 30.788 69.5637 31.097 69.3164L44.1589 58.7268C44.4164 58.5208 44.777 58.4796 45.0757 58.6444C45.3642 58.7989 45.5393 59.1286 45.4981 59.4582L43.8499 75.0027C43.819 75.3323 43.5821 75.6104 43.2627 75.7031L35.7017 77.9076C35.6296 77.9282 35.5471 77.9385 35.475 77.9385V77.9282ZM32.6731 70.1611L35.8871 76.1255L42.2738 74.261L43.6542 61.2609L32.6731 70.1611Z" fill="black"/>
<path d="M58.7868 86.4267C58.4057 86.643 48.9904 98.4894 48.9904 98.4894C48.9904 98.4894 45.5911 94.3586 42.7994 98.0773C40.0181 101.786 46.1988 105.607 46.1988 105.607C46.1988 105.607 50.7416 108.595 55.1711 103.959C59.6109 99.3135 68.4802 86.5297 68.4802 86.5297C68.4802 86.5297 65.1839 82.8213 58.7868 86.4267Z" fill="#884F4A"/>
<path d="M49.7117 107.369C47.4145 107.369 45.7663 106.318 45.7457 106.298C45.6118 106.215 41.8931 103.898 41.3265 100.89C41.0999 99.7153 41.3781 98.6028 42.1403 97.583C43.0571 96.3675 44.1388 95.7288 45.3646 95.7082C46.8686 95.6464 48.1562 96.5735 48.9185 97.2534C57.8702 85.9942 58.2101 85.7985 58.3853 85.7058C65.2767 81.8119 68.9543 85.8088 69.0985 85.9839C69.356 86.2723 69.3766 86.6844 69.1603 87.0037C68.7997 87.5291 60.1983 99.9008 55.7688 104.536C53.657 106.751 51.4938 107.379 49.7117 107.379V107.369ZM45.447 97.3564C45.447 97.3564 45.4161 97.3564 45.3955 97.3564C44.695 97.377 44.0564 97.7684 43.4589 98.5719C42.985 99.2106 42.8099 99.8699 42.9541 100.581C43.3147 102.486 45.7354 104.351 46.6419 104.907C46.8274 105.02 50.7006 107.452 54.5841 103.393C58.375 99.4269 65.5652 89.2597 67.3885 86.6638C66.3481 85.9221 63.6595 84.6551 59.2815 87.0964C58.5501 87.8484 53.0287 94.7399 49.6499 99.0046C49.4954 99.2003 49.2584 99.3136 49.0112 99.3136C48.764 99.3136 48.5271 99.2003 48.3725 99.0149C47.9811 98.5513 46.7141 97.3564 45.4676 97.3564H45.447Z" fill="black"/>
<path d="M39.8005 83.635C39.4194 83.8513 30.0041 95.6976 30.0041 95.6976C30.0041 95.6976 26.6047 91.5669 23.8131 95.2856C21.0318 98.994 27.2125 102.816 27.2125 102.816C27.2125 102.816 31.7553 105.803 36.1848 101.168C40.6246 96.5217 49.4939 83.738 49.4939 83.738C49.4939 83.738 46.1975 80.0296 39.8005 83.635Z" fill="#884F4A"/>
<path d="M30.7351 104.578C28.438 104.578 26.7898 103.527 26.7692 103.506C26.6353 103.424 22.9165 101.106 22.35 98.0982C22.1234 96.9238 22.4015 95.8113 23.1638 94.7915C24.0806 93.576 25.1622 92.9373 26.388 92.9167C26.4189 92.9167 26.4395 92.9167 26.4704 92.9167C27.9229 92.9167 29.19 93.8026 29.9419 94.4619C38.8936 83.2027 39.2336 83.007 39.4087 82.9143C46.3002 79.0204 49.9777 83.0173 50.1219 83.1924C50.3794 83.4808 50.4 83.8929 50.1837 84.2122C49.8232 84.7376 41.2217 97.1093 36.7922 101.745C34.6805 103.96 32.5172 104.588 30.7351 104.588V104.578ZM26.4704 94.5649C26.4704 94.5649 26.4395 94.5649 26.4189 94.5649C25.7185 94.5855 25.0798 94.9769 24.4823 95.7804C24.0085 96.4191 23.8334 97.0784 23.9776 97.7891C24.3381 99.6948 26.7589 101.559 27.6654 102.116C27.8508 102.229 31.724 104.66 35.6076 100.601C39.3984 96.6354 46.5886 86.4682 48.4119 83.8723C47.3715 83.1306 44.6829 81.8635 40.3049 84.3049C39.5735 85.0569 34.0521 91.9484 30.6733 96.2131C30.5188 96.4088 30.2819 96.5221 30.0346 96.5221C29.7977 96.5633 29.5505 96.4191 29.3857 96.2234C28.9942 95.7598 27.7272 94.5649 26.4807 94.5649H26.4704Z" fill="black"/>
<path d="M42.4886 55.8938C42.4886 55.8938 36.9157 74.8685 41.4585 84.5722C46.0013 94.2656 66.6242 93.7506 70.1369 84.8813C73.6393 76.012 59.6194 56.4192 59.6194 56.4192L42.4989 55.9041L42.4886 55.8938Z" fill="#F68E57"/>
<path d="M56.1187 92.5045C50.484 92.5045 43.335 90.5472 40.7082 84.9125C36.0933 75.044 41.4602 56.4401 41.6971 55.6572C41.8001 55.2967 42.1194 55.0494 42.5109 55.07L59.6314 55.5851C59.8889 55.5851 60.1259 55.719 60.2804 55.925C60.8675 56.7388 74.5269 75.9917 70.9009 85.1803C69.2218 89.4141 63.7107 92.2881 56.8604 92.4942C56.6235 92.4942 56.3762 92.5045 56.129 92.5045H56.1187ZM43.1083 56.7285C42.2224 60.0352 38.2977 75.8681 42.2018 84.212C44.6123 89.3626 51.5862 91.0005 56.7986 90.846C62.9999 90.6605 67.9238 88.1883 69.3557 84.5726C72.4151 76.8261 60.9603 59.8086 59.1679 57.223L43.1083 56.7388V56.7285Z" fill="black"/>
<path d="M21.0332 67.1841L23.351 63.9392C23.351 63.9392 33.9406 65.0002 38.2258 69.028C38.2258 69.028 46.7861 65.4226 55.2021 66.1334L57.2418 71.0058L41.4604 78.3505L21.0435 67.1944L21.0332 67.1841Z" fill="white"/>
<path d="M41.451 79.1644C41.3171 79.1644 41.1831 79.1335 41.0595 79.0614L20.6426 67.9052C20.4366 67.7919 20.2924 67.5962 20.2306 67.3696C20.1791 67.1429 20.2306 66.8957 20.3645 66.7103L22.6823 63.4654C22.8574 63.2285 23.1458 63.0946 23.4342 63.1255C23.8669 63.1667 33.7663 64.1968 38.3915 68.0803C40.3487 67.3181 47.7965 64.6913 55.2751 65.3196C55.5842 65.3505 55.852 65.536 55.9653 65.8244L58.0049 70.6968C58.1801 71.1089 57.9946 71.5724 57.5929 71.7579L41.8115 79.1026C41.6982 79.1541 41.5849 79.1747 41.4613 79.1747L41.451 79.1644ZM22.2496 66.906L41.4819 77.4132L56.1713 70.5835L54.6365 66.906C46.6737 66.4013 38.6285 69.7388 38.546 69.78C38.2473 69.9037 37.8971 69.8418 37.6601 69.6255C34.1372 66.3085 25.8138 65.0724 23.7433 64.8149L22.2496 66.906Z" fill="black"/>
<path d="M30.3145 88.0749L21.0332 67.5447C21.0332 67.5447 30.8296 68.1627 37.9477 73.9417C37.9477 73.9417 48.4652 69.7079 57.1285 70.6453L62.8044 90.4442C62.8044 90.4442 51.0508 90.2381 44.1387 93.5345C44.1387 93.5345 35.3724 87.8586 30.3145 88.0646V88.0749Z" fill="#496B5F"/>
<path d="M44.1395 94.3689C43.985 94.3689 43.8305 94.3277 43.6966 94.235C43.6142 94.1835 35.126 88.7033 30.3566 88.899C30.0166 88.899 29.7076 88.7239 29.5737 88.4148L20.2923 67.8846C20.1687 67.6168 20.1996 67.3181 20.3644 67.0708C20.5293 66.8339 20.7971 66.7 21.0958 66.7206C21.4976 66.7412 30.9025 67.4005 38.103 72.994C40.2457 72.1905 49.3828 68.9662 57.2323 69.8109C57.5619 69.8418 57.8504 70.0788 57.9328 70.4084L63.6087 90.2072C63.6808 90.4545 63.6293 90.7326 63.4748 90.9386C63.3203 91.1446 63.0834 91.2476 62.8052 91.2579C62.6919 91.2579 51.1546 91.0931 44.5104 94.2762C44.3971 94.3277 44.2734 94.3586 44.1601 94.3586L44.1395 94.3689ZM30.851 87.2508C35.5587 87.4053 42.481 91.5361 44.2013 92.6074C50.0318 90.0012 58.6539 89.6613 61.7133 89.6201L56.5009 71.4076C48.2497 70.7483 38.3606 74.6628 38.2576 74.704C37.9794 74.8173 37.6601 74.7658 37.4335 74.5804C32.1593 70.3054 25.2987 68.9353 22.3835 68.5233L30.851 87.2405V87.2508Z" fill="black"/>
<path d="M44.2712 94.0186C43.9209 94.0186 43.6016 93.8023 43.4883 93.452L37.1634 74.1992C37.0192 73.7665 37.2561 73.3029 37.6887 73.1587C38.1214 73.0145 38.5849 73.2514 38.7291 73.6841L45.0541 92.937C45.1983 93.3696 44.9613 93.8332 44.5287 93.9774C44.4463 94.0083 44.3536 94.0186 44.2712 94.0186Z" fill="black"/>
<path d="M60.076 60.6121C60.0245 61.0344 61.0855 69.1826 55.9658 73.8284C55.9658 73.8284 52.5664 75.6415 53.3905 77.1557C54.2146 78.67 56.6663 76.7334 56.6663 76.7334C56.6663 76.7334 53.6687 78.4743 54.8842 79.628C56.0997 80.7817 58.1909 78.3404 58.1909 78.3404C58.1909 78.3404 55.7083 80.2667 57.0372 81.3174C58.366 82.3681 62.5071 79.8443 65.5768 72.6541" fill="#F68E57"/>
<path d="M57.7771 82.3784C57.19 82.3784 56.7882 82.1723 56.5307 81.9766C56.1187 81.6573 55.8817 81.2349 55.8302 80.7714C55.8096 80.7714 55.789 80.7714 55.7684 80.7714C55.2122 80.8023 54.7177 80.6169 54.3159 80.2357C53.9039 79.8443 53.7185 79.3395 53.7803 78.8142C53.7906 78.7112 53.8112 78.6081 53.8421 78.5051C53.3373 78.3712 52.9253 78.0519 52.6575 77.5574C52.4102 77.1042 52.3587 76.5891 52.5132 76.0741C52.9459 74.6422 54.8825 73.4782 55.4697 73.1588C57.4166 71.3561 59.621 67.7919 59.2502 61.0241C59.2399 60.7562 59.2399 60.5811 59.2502 60.5193C59.3017 60.0661 59.7138 59.7364 60.167 59.7982C60.61 59.8497 60.9293 60.2309 60.8984 60.6738C60.8984 60.7253 60.8984 60.818 60.9087 60.9417C61.3104 68.4409 58.7454 72.4274 56.5101 74.4465C56.4586 74.4877 56.4071 74.5289 56.3453 74.5598C55.5315 74.9924 54.2953 75.8989 54.0996 76.5479C54.0584 76.6715 54.0893 76.723 54.0996 76.7745C54.1614 76.8981 54.2129 76.9084 54.2644 76.9187C54.5426 76.9806 55.0164 76.7951 55.4594 76.5479C55.7787 76.311 56.0671 76.1359 56.2423 76.0328C56.6131 75.8165 57.0973 75.9298 57.3342 76.2801C57.5814 76.6406 57.499 77.1248 57.1591 77.3926C57.0458 77.4853 56.7573 77.7016 56.3659 77.9283C55.7993 78.3609 55.3976 78.8245 55.3976 79.0202C55.5006 79.1129 55.5521 79.1335 55.6654 79.1232C55.9641 79.1026 56.3556 78.876 56.7367 78.5875C57.1282 78.1343 57.5299 77.815 57.6741 77.7016C58.0038 77.4441 58.4879 77.475 58.7764 77.784C59.0648 78.0931 59.0854 78.5669 58.8073 78.8863C58.6939 79.0202 58.354 79.4013 57.8905 79.7825C57.6432 80.0915 57.4578 80.3799 57.4578 80.5757C57.4578 80.5963 57.4578 80.6272 57.5402 80.689C57.602 80.7405 57.7874 80.7714 58.1068 80.689C59.8065 80.2563 62.629 77.4647 64.8025 72.3553C64.9776 71.933 65.4618 71.7373 65.8842 71.9227C66.3065 72.0978 66.5022 72.582 66.3168 73.0043C63.7415 79.0408 60.4966 81.7809 58.5085 82.296C58.2304 82.3681 57.9832 82.399 57.7565 82.399L57.7771 82.3784Z" fill="black"/>
<path d="M20.7958 79.1539C20.7958 79.1539 18.8179 73.8797 22.8972 72.7465C26.9765 71.6134 26.9147 73.9003 26.9147 73.9003C26.9147 73.9003 26.9662 74.9613 24.5866 76.0017C24.5866 76.0017 27.1207 75.1261 27.9551 76.8155C28.7895 78.5049 25.1119 79.3496 25.1119 79.3496C25.1119 79.3496 27.9963 78.371 28.6246 80.2767C29.253 82.1824 25.1738 82.9344 25.1738 82.9344C25.1738 82.9344 22.8045 83.6555 20.7958 79.1436V79.1539Z" fill="#F68E57"/>
<path d="M24.8116 83.7998C23.802 83.7998 21.7315 83.2847 20.0421 79.4836C20.0421 79.4733 20.0318 79.4527 20.0215 79.4321C19.97 79.3085 18.8678 76.2799 20.0112 74.024C20.5366 72.9836 21.4328 72.2831 22.6792 71.9431C24.5849 71.4178 25.9962 71.5002 26.8821 72.1904C27.7371 72.8599 27.7371 73.8076 27.7371 73.9107C27.7371 74.024 27.7268 74.5184 27.2323 75.1365C27.8298 75.3528 28.3551 75.7546 28.6951 76.4447C28.9629 76.9907 28.9732 77.547 28.726 78.0723C28.623 78.2886 28.4891 78.4741 28.3139 78.6595C28.8393 78.9582 29.2101 79.4218 29.4059 80.0192C29.5913 80.5961 29.5398 81.173 29.2307 81.688C28.3861 83.1096 25.8829 83.6452 25.3369 83.7483C25.2442 83.7689 25.0588 83.7998 24.8116 83.7998ZM21.5564 78.8346C23.2046 82.5018 24.9455 82.1413 24.9558 82.1413C25.9447 81.9559 27.4589 81.4305 27.8092 80.8433C27.871 80.7403 27.8813 80.6579 27.8401 80.5343C27.768 80.3077 27.6444 80.1635 27.4486 80.0707C27.016 79.8544 26.3052 79.9162 25.8005 80.0192C25.5738 80.0913 25.3884 80.1325 25.2957 80.1532C24.8631 80.2562 24.4407 79.9986 24.3171 79.5763C24.1935 79.1539 24.4304 78.711 24.8425 78.5668C24.9043 78.5462 25.0897 78.4844 25.3678 78.4226C26.1404 78.1856 27.0469 77.7633 27.2323 77.3718C27.2529 77.3306 27.2735 77.2997 27.2117 77.1864C26.7173 76.1872 24.8631 76.7847 24.8425 76.795C24.4304 76.9392 23.9669 76.7229 23.8123 76.3108C23.6578 75.8988 23.8432 75.4352 24.245 75.2601C25.749 74.6008 26.0271 74.0137 26.0683 73.8901C26.058 73.7973 26.0065 73.6222 25.8314 73.4986C25.6253 73.3441 24.9352 73.0454 23.1016 73.5501C22.3187 73.7664 21.783 74.1682 21.4637 74.7863C20.7941 76.1151 21.2783 78.1444 21.5358 78.8449L21.5564 78.8346Z" fill="black"/>
<path d="M60.8659 77.9284C60.8659 77.9284 60.1551 71.7374 55.5711 72.6851C50.9871 73.6328 52.2026 75.8476 52.2026 75.8476C52.2026 75.8476 52.6868 76.9189 55.5505 76.7438C55.5505 76.7438 52.6147 77.1558 52.6353 79.2469C52.6662 81.3278 56.7145 80.308 56.7145 80.308C56.7145 80.308 53.377 80.7921 53.7169 82.9966C54.0568 85.201 58.4554 83.8825 58.4554 83.8825C58.4554 83.8825 61.1543 83.3983 60.8556 77.9387L60.8659 77.9284Z" fill="#F68E57"/>
<path d="M55.9426 85.0877C55.2009 85.0877 54.4592 84.9743 53.8823 84.6138C53.3467 84.2739 53.0067 83.7588 52.9037 83.1201C52.8007 82.4197 52.9449 81.7604 53.3467 81.2041C53.0582 81.1114 52.7904 80.9878 52.5638 80.8127C52.0796 80.4418 51.8118 79.9062 51.8118 79.2572C51.8015 78.3816 52.1517 77.712 52.6565 77.2073C51.7912 76.8467 51.5131 76.342 51.441 76.1875C51.4101 76.1463 50.9568 75.2501 51.441 74.1993C51.956 73.0971 53.2849 72.3142 55.3966 71.8816C56.7667 71.6034 57.9719 71.8301 59.002 72.5717C61.2374 74.189 61.67 77.6914 61.6803 77.8459C61.6803 77.8665 61.6803 77.8769 61.6803 77.8975C61.9893 83.594 59.1668 84.5623 58.6724 84.6859C58.4148 84.7683 57.189 85.1083 55.9323 85.1083L55.9426 85.0877ZM56.3752 81.2247C55.8293 81.3689 55.0567 81.6677 54.7064 82.1415C54.5519 82.3578 54.5004 82.5845 54.5416 82.8626C54.5725 83.0274 54.6343 83.1304 54.7682 83.2128C55.4378 83.6352 57.1993 83.388 58.2294 83.0789C58.2603 83.0789 58.2912 83.0583 58.3221 83.0583C58.3221 83.0583 60.2794 82.5227 60.0527 78.0005C60.0115 77.7326 59.6098 75.0337 58.044 73.9006C57.4053 73.437 56.6533 73.3031 55.7468 73.4886C53.6454 73.9212 53.0994 74.5908 52.9655 74.8586C52.811 75.1676 52.9243 75.4252 52.9346 75.4561C52.9346 75.4561 53.4394 76.0329 55.5099 75.9093C55.9426 75.8887 56.334 76.2081 56.3752 76.651C56.4164 77.094 56.1074 77.4854 55.6747 77.5472C55.6541 77.5472 53.4497 77.8872 53.4703 79.216C53.4703 79.3808 53.5218 79.4426 53.5836 79.4838C53.975 79.7929 55.1082 79.7517 56.0147 79.5971C56.3237 79.5147 56.54 79.4838 56.6121 79.4735C57.0448 79.4117 57.4568 79.7002 57.5392 80.1328C57.6217 80.5655 57.3538 80.9878 56.9315 81.0908C56.8285 81.1217 56.6327 81.1629 56.3855 81.2041L56.3752 81.2247Z" fill="black"/>
<path d="M40.9097 10.9414C40.972 5.18434 36.4846 0.468176 30.8867 0.4076C25.2889 0.347023 20.7005 4.96497 20.6382 10.7221C20.5759 16.4792 25.0633 21.1953 30.6611 21.2559C36.259 21.3165 40.8474 16.6986 40.9097 10.9414Z" fill="black"/>
<path d="M30.7776 21.6737C30.7776 21.6737 30.7054 21.6737 30.6642 21.6737C27.8417 21.6428 25.2046 20.489 23.2371 18.4185C21.2696 16.348 20.1983 13.6182 20.2292 10.7235C20.2601 7.82892 21.3829 5.11972 23.4019 3.10069C25.4106 1.07136 28.0993 -0.0205602 30.8909 4.21418e-05C36.711 0.0618491 41.3877 4.9755 41.3259 10.9502C41.2641 16.8836 36.5359 21.6737 30.7673 21.6737H30.7776ZM30.7776 0.824135C28.2229 0.824135 25.8124 1.83365 23.9788 3.67756C22.1143 5.55237 21.0739 8.05555 21.0533 10.7338C21.0327 13.4121 22.0113 15.9359 23.8243 17.8519C25.6373 19.7577 28.0683 20.829 30.6642 20.8496C36.0208 20.9217 40.44 16.4613 40.5018 10.9399C40.5637 5.41845 36.2475 0.885942 30.8806 0.824135C30.8497 0.824135 30.8085 0.824135 30.7776 0.824135Z" fill="black"/>
<path d="M80.5874 11.3709C80.6497 5.61379 76.1623 0.89762 70.5645 0.837043C64.9667 0.776466 60.3782 5.39442 60.3159 11.1515C60.2536 16.9086 64.7411 21.6248 70.3389 21.6854C75.9367 21.7459 80.5251 17.128 80.5874 11.3709Z" fill="black"/>
<path d="M70.4494 22.1065C70.4494 22.1065 70.3773 22.1065 70.3361 22.1065C67.5136 22.0756 64.8765 20.9219 62.909 18.8514C60.9415 16.7808 59.8701 14.051 59.901 11.1564C59.9319 8.26178 61.0548 5.55258 63.0738 3.53355C65.0928 1.50422 67.7196 0.412301 70.573 0.432903C76.3932 0.49471 81.0699 5.40836 81.0081 11.383C80.9463 17.3165 76.2181 22.1065 70.4494 22.1065ZM70.4494 1.257C67.8947 1.257 65.4843 2.26651 63.6507 4.11042C61.7862 5.98523 60.7457 8.48841 60.7251 11.1667C60.6942 13.845 61.6831 16.3688 63.4961 18.2848C65.3091 20.1905 67.7402 21.2618 70.3361 21.2927C75.7236 21.3649 80.1119 16.9045 80.1737 11.383C80.2355 5.86161 75.9193 1.3291 70.5524 1.2673C70.5215 1.2673 70.4803 1.2673 70.4494 1.2673V1.257Z" fill="black"/>
<path d="M80.83 35.6282C80.9828 21.5028 67.7604 9.90752 51.2969 9.72936C34.8334 9.5512 21.3632 20.8577 21.2104 34.983C21.0575 49.1084 34.2799 60.7038 50.7434 60.8819C67.2069 61.0601 80.6771 49.7536 80.83 35.6282Z" fill="#F68E57"/>
<path d="M51.1227 61.7142C50.9888 61.7142 50.8549 61.7142 50.7312 61.7142C42.5727 61.6215 34.9293 58.8093 29.2018 53.7926C23.4435 48.7348 20.3119 42.0596 20.384 34.9827C20.4561 27.9058 23.7319 21.2925 29.6036 16.3685C35.434 11.4755 43.1599 8.84868 51.2978 8.91049C68.1917 9.09591 81.7995 21.0865 81.645 35.642C81.5729 42.7189 78.2971 49.3322 72.4255 54.2562C66.6877 59.0771 59.137 61.7142 51.1227 61.7142ZM50.9064 10.5587C43.2835 10.5587 36.1036 13.0619 30.6646 17.6356C25.1741 22.2505 22.1043 28.4209 22.0322 35.0033C21.9601 41.5961 24.8959 47.8283 30.2834 52.5565C35.7122 57.3156 42.9745 59.9836 50.7415 60.0763C50.8652 60.0763 50.9888 60.0763 51.1227 60.0763C58.7455 60.0763 65.9254 57.5732 71.3645 52.9994C76.855 48.3845 79.9247 42.2141 79.9968 35.6317C80.141 21.9827 67.2646 10.7338 51.2875 10.569C51.1639 10.569 51.0403 10.569 50.9064 10.569V10.5587Z" fill="black"/>
<path d="M21.8575 33.8188C21.8575 33.8188 44.7157 26.6388 81.1921 34.375C80.5741 20.829 67.6564 9.90977 51.6896 9.73465C36.0937 9.56983 23.1863 19.7062 21.7441 32.7886C21.775 33.1286 21.8162 33.4685 21.8575 33.8188Z" fill="black"/>
<path d="M81.6345 34.89L81.1091 34.7767C45.1787 27.1538 22.2071 34.138 21.9805 34.2101L21.5066 34.3543L21.4448 33.8702C21.4036 33.5405 21.3727 33.2212 21.3418 32.9019V32.7474C22.8046 19.4486 36.1549 9.168 51.689 9.32252C67.8309 9.49764 80.9649 20.489 81.6036 34.3543L81.6242 34.89H81.6345ZM48.3926 30.3987C57.334 30.3987 68.2636 31.2537 80.7589 33.8599C79.8318 20.6847 67.1819 10.3114 51.689 10.1466C51.5654 10.1466 51.4418 10.1466 51.3182 10.1466C36.3609 10.1466 23.5978 20.0357 22.1659 32.7886C22.1865 32.9637 22.1968 33.1285 22.2174 33.283C24.3703 32.6958 33.7032 30.3987 48.3926 30.3987Z" fill="black"/>
<path d="M49.2726 31.0953C49.2909 26.7147 46.0544 23.1499 42.0435 23.1331C38.0327 23.1163 34.7664 26.6539 34.7481 31.0345C34.7297 35.4151 37.9663 38.9799 41.9771 38.9967C45.9879 39.0135 49.2542 35.476 49.2726 31.0953Z" fill="#FFE800"/>
<path d="M42.0044 39.8242H41.9735C37.5131 39.8036 33.9077 35.8583 33.918 31.0373C33.9386 26.2164 37.5646 22.3123 42.0147 22.3123H42.0456C46.506 22.3329 50.1114 26.2782 50.1011 31.0991C50.0805 35.9201 46.4545 39.8242 42.0044 39.8242ZM42.0044 23.9604C38.4711 23.9604 35.5765 27.1332 35.5662 31.0476C35.5456 34.9621 38.4299 38.1657 41.9735 38.1863H41.9941C45.5274 38.1863 48.422 35.0136 48.4323 31.1094C48.4529 27.195 45.5686 23.9913 42.025 23.9707H42.0044V23.9604Z" fill="black"/>
<path d="M61.4054 31.3539C61.4237 26.9733 58.1872 23.4084 54.1764 23.3916C50.1655 23.3748 46.8992 26.9124 46.8809 31.293C46.8625 35.6737 50.0991 39.2385 54.1099 39.2553C58.1207 39.2721 61.387 35.7345 61.4054 31.3539Z" fill="#FFE800"/>
<path d="M54.1509 40.0818H54.12C49.6596 40.0612 46.0542 36.1158 46.0645 31.2949C46.0851 26.474 49.7111 22.5698 54.1612 22.5698H54.1921C58.6525 22.5904 62.2579 26.5358 62.2476 31.3567C62.227 36.1777 58.601 40.0818 54.1509 40.0818ZM54.1509 24.218C50.6176 24.218 47.723 27.3908 47.7127 31.3052C47.6921 35.2196 50.5764 38.4233 54.12 38.4439H54.1406C57.6739 38.4439 60.5685 35.2712 60.5788 31.367C60.5994 27.4526 57.7151 24.2489 54.1715 24.2283H54.1509V24.218Z" fill="black"/>
<path d="M57.6178 32.6289C57.6252 30.8425 56.3077 29.3888 54.6749 29.3819C53.0421 29.3751 51.7124 30.8177 51.705 32.6041C51.6975 34.3905 53.015 35.8442 54.6478 35.851C56.2806 35.8578 57.6103 34.4152 57.6178 32.6289Z" fill="black"/>
<path d="M54.6654 36.2703H54.6551C52.7906 36.2703 51.2866 34.6221 51.2969 32.6031C51.2969 31.6348 51.6472 30.7283 52.2858 30.0381C52.9245 29.3479 53.7692 28.9668 54.6757 28.9668H54.686C55.5925 28.9668 56.4475 29.3582 57.0759 30.0587C57.7042 30.7489 58.0442 31.6657 58.0442 32.634C58.0442 34.6427 56.5196 36.2703 54.6654 36.2703ZM54.6654 29.8012C53.9958 29.8012 53.3675 30.0896 52.8833 30.6047C52.3888 31.1403 52.121 31.8511 52.121 32.6134C52.121 34.1689 53.2541 35.4462 54.6551 35.4462C56.0561 35.4462 57.1995 34.1895 57.2098 32.634C57.2098 31.8717 56.942 31.1609 56.4578 30.6253C55.984 30.0999 55.3453 29.8115 54.6757 29.8012H54.6654Z" fill="black"/>
<path d="M44.9146 32.8977C44.9221 31.1113 43.6046 29.6576 41.9718 29.6507C40.339 29.6439 39.0093 31.0865 39.0018 32.8729C38.9943 34.6593 40.3119 36.113 41.9447 36.1198C43.5775 36.1266 44.9072 34.684 44.9146 32.8977Z" fill="black"/>
<path d="M41.9545 36.5279H41.9442C40.0797 36.5279 38.5757 34.8797 38.586 32.8607C38.586 31.8924 38.9362 30.9859 39.5749 30.2957C40.2136 29.6055 41.0583 29.2244 41.9648 29.2244H41.9751C43.8396 29.2244 45.3436 30.8725 45.3332 32.8916C45.3332 33.8599 44.983 34.7664 44.3443 35.4566C43.7057 36.1467 42.861 36.5279 41.9545 36.5279ZM41.9545 30.0588C41.2849 30.0588 40.6565 30.3472 40.1724 30.8622C39.6779 31.3979 39.4101 32.1087 39.4101 32.871C39.4101 34.4264 40.5432 35.7038 41.9442 35.7038C42.6137 35.7038 43.2421 35.4154 43.7263 34.9003C44.2207 34.3646 44.4886 33.6539 44.4886 32.8916C44.4886 31.3361 43.3554 30.0588 41.9545 30.0588Z" fill="black"/>
<path d="M53.0061 40.711C53.0314 38.3729 50.8659 36.4538 48.1694 36.4246C45.4729 36.3955 43.2664 38.2672 43.2411 40.6053C43.2158 42.9435 45.3813 44.8625 48.0778 44.8917C50.7743 44.9209 52.9807 43.0491 53.0061 40.711Z" fill="#EF3831"/>
<path d="M48.1436 45.7062C48.1436 45.7062 48.0921 45.7062 48.0715 45.7062C46.5675 45.6856 45.1563 45.1602 44.0952 44.2228C43.0033 43.2545 42.4058 41.9669 42.4161 40.5865C42.4264 39.2165 43.0548 37.9391 44.1673 36.9914C45.249 36.0746 46.7014 35.5698 48.1745 35.5905C49.6785 35.6111 51.0897 36.1364 52.1507 37.0738C53.2427 38.0421 53.8401 39.3298 53.8298 40.7101C53.8195 42.0802 53.1912 43.3575 52.0786 44.3052C51.0176 45.2117 49.6167 45.7062 48.1436 45.7062ZM48.1127 37.2489C47.0208 37.2489 46.0113 37.6095 45.2387 38.2585C44.497 38.8868 44.0746 39.7212 44.0643 40.6174C44.0643 41.5033 44.4558 42.348 45.1872 42.997C45.9494 43.6769 46.9796 44.058 48.0921 44.0683C48.1127 44.0683 48.1333 44.0683 48.1436 44.0683C49.2355 44.0683 50.245 43.7078 51.0176 43.0588C51.7593 42.4304 52.1816 41.596 52.1919 40.6998C52.1919 39.8139 51.8005 38.9692 51.0691 38.3203C50.3068 37.6404 49.2767 37.2592 48.1642 37.2489C48.1436 37.2489 48.123 37.2489 48.1127 37.2489Z" fill="black"/>
<path d="M48.4017 50.9496C42.5816 50.9496 39.0174 48.7452 38.8011 48.601C38.4199 48.3537 38.3066 47.849 38.5435 47.4575C38.7908 47.0764 39.2955 46.9631 39.6766 47.2C39.7488 47.2412 47.0626 51.7222 57.7758 47.3339C58.1981 47.1588 58.6823 47.3648 58.8574 47.7872C59.0325 48.2095 58.8265 48.6937 58.4042 48.8585C54.6236 50.4037 51.2448 50.9393 48.4017 50.9393V50.9496Z" fill="black"/>
</g>
<defs>
<clipPath id="clip0_3627_44132">
<rect width="140" height="170" fill="white"/>
</clipPath>
</defs>
</svg>
