<svg width="140" height="170" viewBox="0 0 140 170" fill="none" xmlns="http://www.w3.org/2000/svg">
<g clip-path="url(#clip0_3627_44227)">
<path d="M35.413 135.57C35.413 135.57 43.2264 136.742 48.5068 133.226L49.452 139.952C49.452 139.952 42.8862 146.575 36.3582 141.824L35.4004 135.57H35.413Z" fill="#FFF4F0"/>
<path d="M34.7324 131.086C34.7324 131.086 41.9788 132.309 47.8514 129.214L48.4564 133.545C48.4564 133.545 40.3279 137.175 35.3751 135.302L34.7324 131.086Z" fill="#97999C"/>
<path d="M34.6445 131.201L23.7812 57.1313C23.7812 57.1313 30.2462 59.4623 36.686 54.864L47.5618 128.934C47.5618 128.934 41.5757 133.048 34.6571 131.201H34.6445Z" fill="#3471B8"/>
<path d="M23.9316 56.7873L28.5441 42.1389L36.849 54.6346C36.849 54.6346 30.4849 59.0164 23.9316 56.8V56.7873Z" fill="#FDCCA9"/>
<path d="M41.4615 144.346C39.798 144.346 37.9454 143.977 35.9543 142.996C35.7022 142.869 35.5258 142.627 35.488 142.346L22.9991 56.7236C22.9865 56.5962 22.9991 56.4688 23.0243 56.3542L27.6619 40.3811C27.7628 40.0499 28.04 39.8079 28.3677 39.7697C28.6953 39.7315 29.0356 39.8843 29.212 40.1773L37.7186 54.1123C37.7816 54.2142 37.8194 54.3289 37.832 54.4435L50.2957 139.913C50.3335 140.168 50.2579 140.423 50.0815 140.614C50.0437 140.665 46.6789 144.359 41.4489 144.359L41.4615 144.346ZM37.1137 141.62C43.0746 144.308 47.435 140.754 48.544 139.71L36.1811 54.8639L28.771 42.7376L24.7256 56.6599L37.1137 141.633V141.62Z" fill="black"/>
<path d="M28.2046 58.405C25.3187 58.405 23.5543 57.4242 23.4283 57.3478C23.0124 57.1057 22.8738 56.5835 23.1133 56.1632C23.3527 55.7555 23.8694 55.6027 24.2853 55.8447C24.4995 55.9721 29.364 58.6088 36.5347 53.8322C36.9254 53.5647 37.4673 53.6793 37.7193 54.0742C37.984 54.469 37.8706 55.0168 37.4799 55.2715C33.8 57.7171 30.6242 58.3922 28.2172 58.3922L28.2046 58.405Z" fill="black"/>
<path d="M38.9302 132.296C36.2712 132.296 34.6076 131.621 34.4816 131.558C34.0405 131.367 33.8389 130.87 34.0279 130.424C34.217 129.978 34.7085 129.774 35.1495 129.965C35.3638 130.055 40.4551 132.093 47.336 128.157C47.7519 127.927 48.2686 128.068 48.508 128.488C48.7349 128.908 48.5962 129.43 48.1804 129.672C44.5509 131.749 41.3373 132.296 38.9428 132.296H38.9302Z" fill="black"/>
<path d="M39.5474 136.704C36.8883 136.704 35.2248 136.029 35.0988 135.965C34.6577 135.774 34.4561 135.277 34.6451 134.831C34.8216 134.385 35.3257 134.182 35.7667 134.373C35.9936 134.462 41.0723 136.5 47.9532 132.564C48.3691 132.335 48.8858 132.475 49.1252 132.895C49.352 133.315 49.2134 133.838 48.7975 134.08C45.1681 136.156 41.9545 136.704 39.56 136.704H39.5474Z" fill="black"/>
<path d="M25.9609 49.6671C25.9609 49.6671 29.5148 51.2593 33.4089 48.5971L28.494 40.6233L25.9609 49.6671Z" fill="black"/>
<path d="M61.7777 101.968C61.6139 101.968 46.781 96.9364 46.781 96.9364C46.781 96.9364 46.6801 92.2235 42.786 92.7075C38.8919 93.1915 40.0639 96.9109 40.0639 96.9109C40.0639 96.9109 40.631 98.8853 43.4665 98.7324L44.6134 106.031L62.8867 115.075L61.7777 101.968Z" fill="#FFD200"/>
<path d="M62.8729 115.941C62.7469 115.941 62.6208 115.916 62.4948 115.852L44.2214 106.808C43.9694 106.681 43.793 106.439 43.7551 106.171L42.7218 99.5987C39.9114 99.3949 39.2561 97.255 39.2309 97.1531C39.2057 97.0894 38.6134 95.1278 39.609 93.561C40.2139 92.6057 41.2473 92.0198 42.6713 91.8415C43.9442 91.6759 45.028 91.9816 45.8849 92.7204C47.0696 93.7521 47.4476 95.3953 47.5737 96.2869C53.1943 98.1976 61.2472 100.923 61.9277 101.114C62.2932 101.191 62.583 101.497 62.6208 101.891L63.7298 114.999C63.755 115.304 63.6164 115.61 63.3644 115.788C63.2131 115.89 63.0493 115.941 62.8855 115.941H62.8729ZM45.3808 105.458L61.9025 113.623L60.9699 102.618C59.6593 102.21 56.181 101.051 46.5025 97.7517C46.1622 97.6371 45.9227 97.3187 45.9227 96.9493C45.9227 96.9365 45.8597 94.9749 44.7759 94.0323C44.297 93.6247 43.6795 93.4591 42.8982 93.561C42.0034 93.6757 41.3859 93.9814 41.0709 94.4909C40.5163 95.3698 40.8818 96.6308 40.8944 96.6436C40.9448 96.7837 41.3859 97.9683 43.4275 97.8664C43.8812 97.8536 44.2466 98.1593 44.3223 98.5924L45.3934 105.445L45.3808 105.458Z" fill="black"/>
<path d="M30.5983 96.9747C30.5983 96.9747 34.9713 95.8155 35.5636 98.1848C36.1559 100.554 32.4382 100.847 32.4382 100.847C32.4382 100.847 36.3575 100.083 36.3197 103.063C36.2819 106.044 31.4678 105.827 31.4678 105.827C31.4678 105.827 28.8213 106.031 28.1912 101.917C27.5611 97.8026 30.6109 96.9874 30.6109 96.9874L30.5983 96.9747Z" fill="#FFD200"/>
<path d="M31.7213 106.694C31.6079 106.694 31.5197 106.694 31.4567 106.694C30.2468 106.745 27.9154 105.866 27.3231 102.044C26.7308 98.185 29.0622 96.4908 30.3729 96.1469C30.6879 96.0578 33.4856 95.3572 35.187 96.3762C35.8045 96.7456 36.2203 97.2933 36.3842 97.9811C36.5732 98.7581 36.4598 99.4969 36.0313 100.096C35.9431 100.21 35.8549 100.325 35.7541 100.427C35.9053 100.516 36.0439 100.618 36.1825 100.72C36.6362 101.102 37.1781 101.828 37.1655 103.076C37.1655 103.942 36.8253 104.719 36.2077 105.305C34.8845 106.566 32.5909 106.694 31.7213 106.694ZM31.4567 104.961H31.4819C32.1624 104.987 34.141 104.885 35.0231 104.044C35.3004 103.777 35.439 103.458 35.439 103.051C35.439 102.439 35.2248 102.185 35.0735 102.044C34.5694 101.624 33.6369 101.599 33.032 101.637C32.7547 101.688 32.5657 101.701 32.4901 101.701C32.049 101.739 31.6331 101.408 31.5701 100.949C31.5071 100.49 31.8095 100.07 32.2632 99.981C32.3262 99.981 32.5279 99.93 32.8051 99.9045C33.4352 99.7899 34.3174 99.5097 34.6451 99.0511C34.7333 98.9237 34.8215 98.7327 34.7333 98.376C34.6703 98.134 34.5442 97.9684 34.33 97.841C33.5108 97.357 31.7591 97.5481 30.8265 97.7901C30.5745 97.8665 28.5329 98.5671 29.0244 101.752C29.5159 104.91 31.2046 104.936 31.4063 104.936C31.4189 104.936 31.4441 104.936 31.4693 104.936L31.4567 104.961Z" fill="black"/>
<path d="M79.0544 139.098V157.937C79.0544 157.937 71.4552 157.428 71.9467 162.778C71.9467 162.778 71.2283 169.414 81.5118 169.134C81.5118 169.134 89.5143 168.917 89.6529 164.37V140.27L79.0544 139.111V139.098Z" fill="#3E2B2F"/>
<path d="M80.8824 170C77.1395 170 74.4048 169.07 72.7287 167.249C71.04 165.402 71.0652 163.275 71.0904 162.778C70.9644 161.287 71.3803 160.052 72.3002 159.097C73.9259 157.402 76.7488 157.109 78.1981 157.071V138.143L90.5106 139.481V164.37C90.3468 169.694 81.8906 169.987 81.5377 170C81.3109 170 81.084 170 80.8698 170H80.8824ZM78.5258 158.791C77.2151 158.791 74.7325 159.046 73.5352 160.307C72.9555 160.918 72.7161 161.695 72.8169 162.701V162.791V162.88C72.8169 162.943 72.6657 164.65 74.0267 166.115C75.4508 167.644 77.9713 168.382 81.5125 168.28C81.5881 168.28 88.7085 167.975 88.8219 164.357V141.06L79.9372 140.092V158.893L79.0299 158.829C78.9038 158.829 78.74 158.816 78.551 158.816L78.5258 158.791Z" fill="black"/>
<path d="M105.054 139.098V157.937C105.054 157.937 97.4552 157.428 97.9467 162.778C97.9467 162.778 97.2283 169.414 107.512 169.134C107.512 169.134 115.514 168.917 115.653 164.37V140.27L105.054 139.111V139.098Z" fill="#3E2B2F"/>
<path d="M106.869 170C103.126 170 100.391 169.07 98.715 167.249C97.0263 165.402 97.0515 163.275 97.0767 162.778C96.9507 161.287 97.3666 160.052 98.2866 159.097C99.9123 157.402 102.735 157.109 104.184 157.071V138.143L116.497 139.481V164.37C116.333 169.694 107.877 169.987 107.524 170C107.297 170 107.07 170 106.856 170H106.869ZM104.512 158.791C103.201 158.791 100.719 159.046 99.5216 160.307C98.9419 160.918 98.7024 161.695 98.8033 162.701V162.791V162.88C98.8033 162.943 98.652 164.65 100.013 166.115C101.437 167.644 103.958 168.382 107.499 168.28C107.574 168.28 114.695 167.975 114.808 164.357V141.06L105.924 140.092V158.893L105.016 158.829C104.89 158.829 104.726 158.816 104.537 158.816L104.512 158.791Z" fill="black"/>
<path d="M96.7204 61.0073C96.7204 61.0073 129.991 60.6124 136.997 82.9416C136.997 82.9416 144.849 109.207 129.713 130.581C129.713 130.581 117.552 147.547 96.8716 147.038H97.1615C76.2416 147.292 64.3198 130.581 64.3198 130.581C49.1844 109.219 57.0357 82.9416 57.0357 82.9416C63.3872 59.9628 97.3127 61.0073 97.3127 61.0073" fill="#FFD200"/>
<path d="M97.9088 147.556C97.6316 147.556 97.3669 147.556 97.0897 147.556C97.0015 147.556 96.9133 147.556 96.825 147.556C75.9934 147.556 63.8826 130.908 63.7565 130.742C48.5455 109.279 56.2707 82.6195 56.3464 82.352C62.7988 59.0165 97.1149 59.7808 97.4678 59.7935C102.068 59.8954 131.381 61.3475 137.959 82.3393C138.047 82.6195 145.76 109.279 130.561 130.742C130.435 130.921 118.249 147.569 97.9088 147.569V147.556ZM97.3039 145.824C117.153 146.168 129.049 129.889 129.175 129.723C143.895 108.948 136.409 83.1035 136.333 82.8488C129.604 61.3858 97.2283 61.5131 96.8881 61.5259C92.5781 61.5259 63.6683 62.3411 57.9973 82.836C57.9091 83.1163 50.4485 108.974 65.1554 129.736C65.2688 129.902 76.9008 145.837 96.825 145.837C96.8881 145.837 96.9511 145.837 97.0141 145.837H97.3039V145.824Z" fill="black"/>
<path d="M80.8067 79.3332C80.7185 79.3332 80.6303 79.3332 80.5421 79.295C79.975 79.1421 79.6221 78.5562 79.7734 77.983C80.2648 76.0341 82.445 72.3275 87.2213 72.2638C87.3978 72.2638 91.9094 71.9963 94.6693 75.2317C95.9295 73.1809 98.6894 70.1621 103.97 70.3149C104.171 70.3149 108.708 70.5187 111.695 74.2509C112.073 74.7222 111.998 75.3972 111.531 75.7794C111.065 76.1615 110.397 76.0851 110.019 75.6138C107.662 72.6714 103.919 72.4803 103.882 72.4803C97.53 72.302 95.8161 77.6646 95.8035 77.7155C95.6775 78.1359 95.2994 78.4416 94.8583 78.467C94.4299 78.5052 94.014 78.2632 93.8123 77.8684C92.0102 74.1617 87.3221 74.4292 87.2717 74.4292C82.9113 74.4929 81.8527 78.3651 81.8149 78.5307C81.6889 79.0148 81.2478 79.3332 80.7815 79.3332H80.8067Z" fill="black"/>
<path d="M94.8846 118.476C83.1014 118.476 79.3207 110.922 79.1695 110.591C78.9048 110.056 79.1317 109.407 79.661 109.139C80.1903 108.884 80.833 109.101 81.085 109.636C81.2363 109.942 84.7397 116.769 96.0944 116.285C96.2834 116.285 107.31 116.463 112.83 108.451C113.171 107.954 113.838 107.84 114.317 108.184C114.809 108.528 114.922 109.203 114.582 109.687C108.394 118.68 96.5985 118.463 96.0944 118.45C95.6785 118.463 95.2627 118.476 94.8594 118.476H94.8846Z" fill="black"/>
<path d="M96.6222 67.487C107.334 67.487 118.26 71.2701 118.26 71.2701C133.043 75.0532 134.328 67.8054 134.328 67.8054C135.929 62.825 126.301 58.7107 126.301 58.7107C117.845 55.2461 114.089 41.069 114.089 41.069C110.649 29.6943 96.1686 30.4458 96.1686 30.4458H97.0633C97.0633 30.4458 83.3394 29.707 79.9116 41.069C79.9116 41.069 76.1687 55.2461 67.6999 58.7107C67.6999 58.7107 58.0591 62.825 59.6722 67.8054C59.6722 67.8054 60.9577 75.0532 75.7402 71.2701C75.7402 71.2701 86.6664 67.487 97.3784 67.487H96.6349H96.6222Z" fill="black"/>
<path d="M125.835 72.8114C123.617 72.8114 121.059 72.442 118.148 71.6905C118.009 71.6395 107.386 68.0093 96.9886 67.9201C86.5917 68.0093 75.9679 71.6523 75.8671 71.6905C69.4777 73.3336 64.7392 73.1808 61.7777 71.2447C59.6101 69.8308 59.2572 67.9711 59.2446 67.8946C57.5559 62.6594 67.1211 58.4942 67.5369 58.3286C75.7159 54.9786 79.4587 41.1073 79.4966 40.9672C82.4707 31.0954 93.0567 30.0892 96.2072 30C96.2829 30 96.4341 30 96.6609 30C96.7491 30 96.8248 30 96.8878 30C99.9123 30.0382 111.469 30.8789 114.493 40.9417C114.531 41.0945 118.287 54.9659 126.453 58.3159C126.869 58.4942 136.446 62.6467 134.733 67.9456C134.733 67.9711 134.38 69.818 132.212 71.2319C130.599 72.2764 128.469 72.8114 125.848 72.8114H125.835ZM97.3667 67.054C107.789 67.2195 118.287 70.8243 118.387 70.8625C125.949 72.7987 129.805 71.7542 131.708 70.5313C133.573 69.334 133.888 67.7927 133.901 67.7291C135.375 63.1307 126.213 59.1566 126.125 59.1184C117.568 55.6155 113.825 41.7696 113.674 41.1837C110.864 31.8724 100.202 30.9426 97.0642 30.8662H96.1694C93.1449 30.9426 83.1134 31.9234 80.3157 41.1837C80.1645 41.7569 76.4216 55.6028 67.852 59.1056C67.7638 59.1438 58.6019 63.118 60.0638 67.6654C60.089 67.78 60.3914 69.3085 62.2692 70.5186C64.1721 71.7414 68.0284 72.7859 75.615 70.8498C75.6906 70.8243 86.1884 67.2195 96.6105 67.054H97.3541H97.3667Z" fill="black"/>
<path d="M104.21 102.032C109.708 102.032 114.166 97.0016 114.166 90.7969C114.166 84.5922 109.708 79.5623 104.21 79.5623C98.7113 79.5623 94.2539 84.5922 94.2539 90.7969C94.2539 97.0016 98.7113 102.032 104.21 102.032Z" fill="white"/>
<path d="M104.209 102.898C98.2484 102.898 93.3965 97.4714 93.3965 90.7969C93.3965 84.1223 98.2484 78.696 104.209 78.696C110.17 78.696 115.022 84.1223 115.022 90.7969C115.022 97.4714 110.17 102.898 104.209 102.898ZM104.209 80.4284C99.1936 80.4284 95.1104 85.0776 95.1104 90.7969C95.1104 96.5161 99.1936 101.165 104.209 101.165C109.225 101.165 113.308 96.5161 113.308 90.7969C113.308 85.0776 109.225 80.4284 104.209 80.4284Z" fill="black"/>
<path d="M88.1926 101.713C93.2943 101.713 97.4301 97.0482 97.4301 91.2937C97.4301 85.5392 93.2943 80.8743 88.1926 80.8743C83.0908 80.8743 78.9551 85.5392 78.9551 91.2937C78.9551 97.0482 83.0908 101.713 88.1926 101.713Z" fill="white"/>
<path d="M88.1921 102.579C82.6219 102.579 78.0977 97.5224 78.0977 91.2937C78.0977 85.0649 82.6219 80.0081 88.1921 80.0081C93.7623 80.0081 98.2866 85.0649 98.2866 91.2937C98.2866 97.5224 93.7623 102.579 88.1921 102.579ZM88.1921 81.7404C83.5671 81.7404 79.8116 86.0202 79.8116 91.2937C79.8116 96.5671 83.5671 100.847 88.1921 100.847C92.8172 100.847 96.5727 96.5671 96.5727 91.2937C96.5727 86.0202 92.8172 81.7404 88.1921 81.7404Z" fill="black"/>
<path d="M95.5885 113.088C100.224 113.088 103.982 109.792 103.982 105.725C103.982 101.659 100.224 98.363 95.5885 98.363C90.9531 98.363 87.1953 101.659 87.1953 105.725C87.1953 109.792 90.9531 113.088 95.5885 113.088Z" fill="#F5333F"/>
<path d="M95.59 113.954C90.486 113.954 86.3398 110.26 86.3398 105.726C86.3398 101.191 90.486 97.4971 95.59 97.4971C100.694 97.4971 104.84 101.191 104.84 105.726C104.84 110.26 100.694 113.954 95.59 113.954ZM95.59 99.2167C91.4312 99.2167 88.0538 102.134 88.0538 105.713C88.0538 109.292 91.4312 112.209 95.59 112.209C99.7487 112.209 103.126 109.292 103.126 105.713C103.126 102.134 99.7487 99.2167 95.59 99.2167Z" fill="black"/>
<path d="M96.333 50.6862C99.9871 50.6862 102.949 47.983 102.949 44.6485C102.949 41.314 99.9871 38.6108 96.333 38.6108C92.679 38.6108 89.7168 41.314 89.7168 44.6485C89.7168 47.983 92.679 50.6862 96.333 50.6862Z" fill="#BBBBBB"/>
<path d="M96.4834 47.8328H95.8659C94.3068 47.8328 93.043 49.1102 93.043 50.686V50.7879C93.043 52.3637 94.3068 53.6412 95.8659 53.6412H96.4834C98.0425 53.6412 99.3063 52.3637 99.3063 50.7879V50.686C99.3063 49.1102 98.0425 47.8328 96.4834 47.8328Z" fill="#BBBBBB"/>
<path d="M94.3159 42.9033H94.2907C93.8314 42.9033 93.459 43.2797 93.459 43.744V45.4381C93.459 45.9024 93.8314 46.2788 94.2907 46.2788H94.3159C94.7753 46.2788 95.1477 45.9024 95.1477 45.4381V43.744C95.1477 43.2797 94.7753 42.9033 94.3159 42.9033Z" fill="black"/>
<path d="M94.304 46.3171C93.8125 46.3171 93.4219 45.9222 93.4219 45.4255V43.7696C93.4219 43.2728 93.8125 42.8779 94.304 42.8779C94.7955 42.8779 95.1862 43.2728 95.1862 43.7696V45.4255C95.1862 45.9222 94.7955 46.3171 94.304 46.3171ZM94.304 42.9416C93.863 42.9416 93.4975 43.311 93.4975 43.7568V45.4127C93.4975 45.8586 93.863 46.2279 94.304 46.2279C94.7451 46.2279 95.1106 45.8586 95.1106 45.4127V43.7568C95.1106 43.311 94.7451 42.9416 94.304 42.9416Z" fill="#231815"/>
<path d="M97.9585 42.9033H97.9333C97.474 42.9033 97.1016 43.2797 97.1016 43.744V45.4381C97.1016 45.9024 97.474 46.2788 97.9333 46.2788H97.9585C98.4179 46.2788 98.7903 45.9024 98.7903 45.4381V43.744C98.7903 43.2797 98.4179 42.9033 97.9585 42.9033Z" fill="black"/>
<path d="M97.9466 46.3171C97.4551 46.3171 97.0645 45.9222 97.0645 45.4255V43.7696C97.0645 43.2728 97.4551 42.8779 97.9466 42.8779C98.4381 42.8779 98.8288 43.2728 98.8288 43.7696V45.4255C98.8288 45.9222 98.4381 46.3171 97.9466 46.3171ZM97.9466 42.9416C97.5055 42.9416 97.1401 43.311 97.1401 43.7568V45.4127C97.1401 45.8586 97.5055 46.2279 97.9466 46.2279C98.3877 46.2279 98.7532 45.8586 98.7532 45.4127V43.7568C98.7532 43.311 98.3877 42.9416 97.9466 42.9416Z" fill="#231815"/>
<path d="M104.563 60.4558C104.462 60.4558 104.361 60.4431 104.261 60.4049L87.1717 54.4182C86.6929 54.2526 86.4408 53.7176 86.6046 53.2336C86.7685 52.7495 87.2978 52.4948 87.7767 52.6604L104.865 58.6471C105.344 58.8127 105.596 59.3476 105.433 59.8317C105.294 60.2138 104.941 60.4558 104.563 60.4558Z" fill="#BBBBBB"/>
<path d="M87.3845 59.8699C86.9812 59.8699 86.6032 59.6024 86.4897 59.1821C86.3511 58.6853 86.641 58.1758 87.1325 58.0357L104.574 53.2208C105.066 53.0807 105.57 53.3737 105.708 53.8705C105.847 54.3672 105.557 54.8767 105.066 55.0168L87.6239 59.8317C87.5483 59.8572 87.4601 59.8699 87.3845 59.8699Z" fill="#BBBBBB"/>
<path d="M88.0541 96.7964C90.7268 96.7964 92.8934 94.1674 92.8934 90.9243C92.8934 87.6813 90.7268 85.0522 88.0541 85.0522C85.3815 85.0522 83.2148 87.6813 83.2148 90.9243C83.2148 94.1674 85.3815 96.7964 88.0541 96.7964Z" fill="black"/>
<path d="M104.335 96.7964C107.008 96.7964 109.175 94.1674 109.175 90.9243C109.175 87.6813 107.008 85.0522 104.335 85.0522C101.663 85.0522 99.4961 87.6813 99.4961 90.9243C99.4961 94.1674 101.663 96.7964 104.335 96.7964Z" fill="black"/>
<path d="M119.156 120.183C118.98 120.183 118.816 120.17 118.652 120.132C117.354 119.89 116.85 118.82 116.787 118.692C115.842 116.514 118.917 114.604 119.27 114.4C122.181 112.464 122.307 106.018 122.105 103.7C122.067 103.229 122.408 102.808 122.887 102.758C123.365 102.719 123.769 103.063 123.819 103.547C123.857 103.929 124.588 112.948 120.19 115.865C119.257 116.425 118.148 117.482 118.375 117.992C118.375 118.005 118.564 118.361 119.005 118.425C119.371 118.489 120.429 118.412 122.383 116.438C122.723 116.094 123.265 116.094 123.592 116.438C123.933 116.782 123.933 117.329 123.592 117.661C121.941 119.329 120.454 120.17 119.182 120.17L119.156 120.183Z" fill="black"/>
<path d="M122.534 122.96C121.501 122.96 120.845 122.374 120.77 122.297C118.879 120.234 121.69 117.075 122.017 116.731C122.345 116.387 122.887 116.361 123.227 116.693C123.567 117.024 123.593 117.572 123.265 117.915C122.547 118.692 121.45 120.387 121.942 121.049C122.03 121.113 122.332 121.291 122.736 121.215C123.177 121.138 124.072 120.705 125.181 118.731C125.407 118.31 125.937 118.17 126.353 118.399C126.768 118.629 126.907 119.164 126.68 119.584C125.559 121.597 124.311 122.73 122.988 122.934C122.837 122.96 122.685 122.972 122.547 122.972L122.534 122.96Z" fill="black"/>
<path d="M126.012 124.743H126C124.979 124.743 124.349 124.068 124.286 123.992C122.622 122.183 124.928 119.062 125.193 118.705C125.483 118.323 126.025 118.26 126.39 118.553C126.756 118.846 126.831 119.393 126.541 119.763C125.937 120.552 125.029 122.259 125.546 122.82C125.546 122.82 125.735 123.011 126.012 123.011C126.327 123.011 126.73 122.743 127.146 122.297C127.172 122.259 132.465 115.597 132.515 104.503C132.515 104.032 132.906 103.637 133.372 103.637C133.851 103.637 134.229 104.032 134.229 104.503C134.178 116.234 128.684 123.125 128.444 123.418C127.65 124.297 126.844 124.73 126 124.73L126.012 124.743Z" fill="black"/>
</g>
<defs>
<clipPath id="clip0_3627_44227">
<rect width="140" height="170" fill="white"/>
</clipPath>
</defs>
</svg>
