<svg width="141" height="170" viewBox="0 0 141 170" fill="none" xmlns="http://www.w3.org/2000/svg">
<g clip-path="url(#clip0_3627_44270)">
<path d="M92.3296 116.873C92.1824 116.81 61.2548 86.1871 61.2548 86.1871C61.2548 86.1871 63.4211 82.0017 59.751 80.54C56.0809 79.0783 55.3237 82.9061 55.3237 82.9061C55.3237 82.9061 54.882 84.9042 57.4585 86.1556L56.1019 90.1096L87.0296 128.903L92.3402 116.862L92.3296 116.873Z" fill="#FAC3C1"/>
<path d="M87.031 129.545C86.8417 129.545 86.663 129.461 86.5473 129.313L55.6196 90.5197C55.4829 90.3515 55.4514 90.1306 55.5145 89.9308L56.7028 86.4816C54.2631 85.0198 54.7047 82.8956 54.7258 82.7904C54.7363 82.7273 55.1254 80.8239 56.6607 79.9827C57.5966 79.4674 58.7113 79.4674 59.9838 79.9827C61.13 80.4348 61.8977 81.171 62.2763 82.17C62.8336 83.6633 62.3183 85.3038 62.0134 86.0609C72.5294 96.4613 91.9841 115.716 92.7412 116.4C92.9516 116.568 93.0357 116.873 92.92 117.136L87.6094 129.177C87.5253 129.376 87.336 129.513 87.1152 129.545C87.0836 129.545 87.0626 129.545 87.031 129.545ZM56.7974 90.0044L86.8733 127.725L91.595 117.01C90.2174 115.695 84.6018 110.174 60.8251 86.6393C60.6358 86.45 60.5832 86.1556 60.7094 85.9137C60.7094 85.8927 61.6453 84.0524 61.0985 82.6012C60.8461 81.9386 60.3308 81.4549 59.5211 81.1394C58.6062 80.7819 57.849 80.7608 57.2496 81.0763C56.2296 81.6337 55.9351 83.0323 55.9351 83.0428C55.9246 83.1164 55.6617 84.6097 57.7334 85.6087C58.0173 85.7454 58.154 86.0714 58.0488 86.3764L56.7974 90.0044Z" fill="black"/>
<path d="M82.2891 62.1685L86.1485 32.3871L92.3108 41.0523L101.838 30.6204L105.256 42.5666L115.12 32.5553L115.457 32.6605L118.433 46.4049L127.697 38.1498L130.169 52.0731L140.001 48.0665L127.319 75.282L82.2891 62.1685Z" fill="#FFF200"/>
<path d="M127.318 75.9131C127.265 75.9131 127.202 75.9131 127.139 75.8921L82.1096 62.7786C81.8152 62.6945 81.6259 62.4 81.6679 62.0951L85.5273 32.3031C85.5589 32.0507 85.7482 31.8404 85.99 31.7773C86.2424 31.7142 86.4948 31.8089 86.6525 32.0192L92.3628 40.0534L101.386 30.1999C101.533 30.0317 101.764 29.958 101.985 30.0106C102.206 30.0632 102.374 30.2315 102.437 30.4418L105.56 41.3574L114.667 32.1033C114.825 31.9351 115.067 31.8825 115.288 31.9456L115.635 32.0507C115.856 32.1138 116.024 32.2926 116.066 32.5134L118.811 45.2168L127.287 37.6768C127.455 37.5296 127.697 37.477 127.907 37.5506C128.117 37.6242 128.275 37.8135 128.317 38.0344L130.652 51.2004L139.78 47.4883C140.011 47.3936 140.284 47.4462 140.463 47.6355C140.642 47.8248 140.684 48.0982 140.579 48.3296L127.896 75.5451C127.791 75.7659 127.57 75.9026 127.329 75.9026L127.318 75.9131ZM82.9719 61.727L126.982 74.546L138.77 49.255L130.399 52.6622C130.22 52.7358 130.031 52.7253 129.863 52.6306C129.695 52.536 129.579 52.3782 129.547 52.1889L127.276 39.3699L118.832 46.8783C118.663 47.0256 118.432 47.0782 118.222 47.0045C118.011 46.9309 117.854 46.7627 117.812 46.5418L115.004 33.5545L105.687 43.0084C105.529 43.1662 105.308 43.2293 105.087 43.1767C104.877 43.1241 104.709 42.9559 104.645 42.7455L101.533 31.872L92.7518 41.4731C92.6257 41.6098 92.4364 41.6834 92.2576 41.6729C92.0683 41.6624 91.9001 41.5677 91.7844 41.41L86.5474 34.0383L82.9614 61.7165L82.9719 61.727Z" fill="black"/>
<path d="M112.321 92.1707L121.785 96.0827L123.458 101.477L119.935 105.757L109.345 111.152L91.1523 113.003L80.2051 108.355L87.4401 90.688L112.321 92.1707Z" fill="black"/>
<path d="M86.1149 110.027C86.1149 110.027 84.1273 103.118 88.2181 94.3372C88.2181 94.3372 82.9601 91.298 79.8052 96.5666C79.8052 96.5666 76.6504 89.3105 68.816 92.1183C60.9815 94.9261 60.8659 107.219 60.8659 107.219C60.8659 107.219 59.9299 128.988 75.8197 135.434C75.8197 135.434 70.5616 154.047 86.9246 154.867L88.3232 139.419L86.1044 110.038L86.1149 110.027Z" fill="#37519B"/>
<mask id="mask0_3627_44270" style="mask-type:luminance" maskUnits="userSpaceOnUse" x="60" y="91" width="29" height="65">
<path d="M86.1676 110.5C86.1676 110.5 84.1801 103.591 88.2708 94.8103C88.2708 94.8103 83.0128 91.7712 79.858 97.0397C79.858 97.0397 76.7032 89.7836 68.8687 92.5914C61.0343 95.3992 60.9186 107.692 60.9186 107.692C60.9186 107.692 59.9827 129.461 75.8724 135.907C75.8724 135.907 70.6144 154.52 86.9773 155.341L88.376 139.893L86.1571 110.511L86.1676 110.5Z" fill="white"/>
</mask>
<g mask="url(#mask0_3627_44270)">
<path d="M69.7731 91.6869L65.8086 88.1851L64.126 92.9278L59.2676 94.4421L64.0313 97.7021L64.9462 102.834L68.6689 98.6801L74.4633 100.384L72.1287 95.378L74.947 90.9613L69.7731 91.6869Z" fill="#FFF200"/>
<path d="M69.3512 116.631L65.3867 113.119L63.7041 117.861L58.8457 119.376L63.62 122.636L64.5349 127.767L68.2576 123.614L74.0519 125.317L71.7173 120.312L74.5251 115.905L69.3512 116.631Z" fill="#FFF200"/>
</g>
<path d="M86.7989 155.477C86.7989 155.477 86.7779 155.477 86.7674 155.477C82.2034 155.246 78.8172 153.647 76.714 150.713C73.0019 145.529 74.4636 137.884 74.9579 135.791C59.3626 129.008 60.1092 107.408 60.1092 107.188C60.1092 107.082 60.1513 104.012 61.1713 100.541C62.5489 95.8618 65.0728 92.7491 68.4695 91.5292C74.9579 89.2052 78.4807 93.4116 79.7111 95.3781C83.1709 90.8667 88.3237 93.7691 88.3868 93.8007C88.6708 93.9584 88.7759 94.316 88.6392 94.5999C84.6957 103.065 86.5465 109.785 86.5676 109.848C86.5781 109.89 86.5886 109.932 86.5886 109.974L88.8075 139.356C88.8075 139.356 88.8075 139.43 88.8075 139.461L87.4088 154.909C87.3773 155.235 87.1144 155.477 86.7884 155.477H86.7989ZM72.129 92.0866C71.1616 92.0866 70.0889 92.2653 68.8901 92.6965C61.5499 95.3255 61.3606 107.093 61.3606 107.219C61.3606 107.45 60.635 128.651 75.9253 134.845C76.2198 134.96 76.3775 135.286 76.2934 135.591C76.2724 135.676 73.8326 144.551 77.7341 149.988C79.5113 152.47 82.3717 153.879 86.231 154.194L87.5771 139.398L85.3687 110.132C85.1689 109.375 83.6126 102.908 87.2721 94.6314C85.9787 94.0741 82.4979 93.0646 80.2054 96.8819C80.0897 97.0817 79.8689 97.1974 79.6375 97.1868C79.4061 97.1763 79.1958 97.0291 79.1117 96.8188C79.0065 96.5874 76.9769 92.0971 72.1396 92.0971L72.129 92.0866Z" fill="black"/>
<path d="M123.196 89.1315C123.196 89.1315 117.444 101.12 98.1051 99.2795C78.7661 97.4392 77.1572 79.4462 77.1572 79.4462C77.1572 79.4462 73.5922 58.4667 96.2648 55.9324C118.937 53.398 127.802 75.3029 127.802 75.3029C127.802 75.3029 135.395 74.8402 135.164 81.4127C134.932 87.9853 128.37 91.6764 123.196 89.142V89.1315Z" fill="#FAC3C1"/>
<path d="M101.995 100.09C100.744 100.09 99.429 100.026 98.0409 99.9002C78.418 98.0284 76.5461 79.6884 76.5356 79.5097C76.483 79.1837 75.0423 70.3292 80.3424 63.2939C83.718 58.8036 89.0497 56.122 96.1901 55.3228C117.359 52.9567 126.823 71.6857 128.19 74.6828C129.295 74.6828 132.197 74.8931 134.09 76.7439C135.278 77.9007 135.846 79.4886 135.783 81.4446C135.667 84.7782 134.027 87.628 131.272 89.279C128.853 90.7303 125.971 90.9721 123.448 89.9416C122.133 92.0973 116.276 100.1 101.984 100.1L101.995 100.09ZM99.8076 56.3533C98.6824 56.3533 97.5256 56.4164 96.3268 56.5531C89.5439 57.3103 84.4962 59.8341 81.3309 64.0406C76.3568 70.6551 77.7554 79.2678 77.766 79.3519C77.8396 80.1091 79.5747 96.8927 98.1566 98.6699C116.791 100.447 122.575 88.9951 122.627 88.8689C122.701 88.7217 122.827 88.606 122.985 88.5534C123.143 88.5009 123.311 88.5114 123.458 88.585C125.719 89.6892 128.401 89.5525 130.63 88.2169C133.007 86.7868 134.437 84.305 134.532 81.4025C134.584 79.8146 134.142 78.5527 133.217 77.6483C131.293 75.7659 127.854 75.9342 127.822 75.9447C127.559 75.9552 127.307 75.808 127.212 75.5556C127.128 75.3558 119.199 56.3744 99.7971 56.3744L99.8076 56.3533Z" fill="black"/>
<path d="M127.381 83.7685C127.171 83.7685 126.971 83.6633 126.855 83.474C126.676 83.1796 126.76 82.801 127.055 82.6117C127.802 82.1385 130.367 81.9702 131.125 81.9282C131.472 81.9071 131.766 82.17 131.777 82.5171C131.798 82.8641 131.535 83.1586 131.188 83.1691C129.768 83.2427 128.022 83.4635 127.707 83.6633C127.602 83.7264 127.486 83.758 127.381 83.758V83.7685Z" fill="black"/>
<path d="M99.628 86.5238C100.528 86.5238 101.258 85.8976 101.258 85.1252C101.258 84.3527 100.528 83.7266 99.628 83.7266C98.7278 83.7266 97.998 84.3527 97.998 85.1252C97.998 85.8976 98.7278 86.5238 99.628 86.5238Z" fill="#231F20"/>
<path d="M100.132 90.8983C98.555 90.8983 96.7462 90.5828 94.8533 89.6259C94.5483 89.4681 94.4222 89.1001 94.5799 88.7846C94.7376 88.4796 95.1057 88.3534 95.4107 88.5112C100.395 91.035 104.833 88.5533 104.886 88.5217C105.18 88.3535 105.569 88.4586 105.737 88.7531C105.906 89.0475 105.8 89.4366 105.506 89.6049C105.369 89.6785 103.203 90.8983 100.132 90.8983Z" fill="black"/>
<path d="M95.9069 67.2267C95.7597 67.2267 95.623 67.1741 95.5073 67.0795C89.5868 62.0423 94.3611 55.6906 94.4137 55.6275C94.624 55.3541 95.0131 55.3015 95.2865 55.5118C95.5599 55.7222 95.6125 56.1112 95.4022 56.3847C95.2339 56.6055 91.3009 61.8635 96.3171 66.1225C96.58 66.3434 96.6115 66.743 96.3907 67.0059C96.2645 67.1531 96.0962 67.2267 95.9174 67.2267H95.9069Z" fill="black"/>
<path d="M89.0908 65.5546C88.8279 65.5546 88.586 65.3863 88.5019 65.1339C87.1558 61.1694 90.0582 57.1733 90.1844 57.005C90.3948 56.7316 90.7733 56.6685 91.0573 56.8789C91.3307 57.0787 91.3938 57.4783 91.1835 57.7517C91.1519 57.7832 88.5439 61.3902 89.6797 64.7343C89.7953 65.0603 89.6166 65.4179 89.2906 65.523C89.2275 65.5441 89.1539 65.5546 89.0908 65.5546Z" fill="black"/>
<path d="M83.9698 66.9743C83.7069 66.9743 83.465 66.8061 83.3809 66.5537C82.0138 62.5471 85.0214 59.2976 85.1476 59.1609C85.3789 58.9085 85.7786 58.898 86.0309 59.1399C86.2833 59.3712 86.2938 59.7708 86.052 60.0232C85.9994 60.0758 83.444 62.8836 84.5587 66.1541C84.6744 66.4801 84.4956 66.8376 84.1696 66.9428C84.1065 66.9638 84.0329 66.9743 83.9698 66.9743Z" fill="black"/>
<path d="M108.178 66.3014C108.104 66.3014 108.031 66.2909 107.957 66.2593C100.953 63.5356 100.448 56.3953 100.448 56.3216C100.427 55.9746 100.69 55.6802 101.027 55.6591C101.363 55.6381 101.668 55.901 101.689 56.248C101.71 56.5109 102.163 62.6628 108.409 65.092C108.725 65.2182 108.893 65.5758 108.767 65.9018C108.672 66.1436 108.441 66.3014 108.188 66.3014H108.178Z" fill="black"/>
<path d="M113.299 66.1121C113.204 66.1121 113.12 66.0911 113.025 66.049C108.241 63.746 106.169 57.3523 106.085 57.0788C105.98 56.7528 106.158 56.3953 106.484 56.3007C106.81 56.1955 107.157 56.3743 107.263 56.7003C107.284 56.7634 109.271 62.8627 113.562 64.9238C113.867 65.071 114.003 65.4496 113.856 65.7546C113.751 65.9754 113.53 66.1121 113.299 66.1121Z" fill="black"/>
<path d="M100.512 66.2908C100.364 66.2908 100.207 66.2382 100.091 66.1225C96.5261 62.81 96.9678 56.5424 96.9888 56.2795C97.0204 55.9325 97.3043 55.6801 97.6619 55.7116C98.0089 55.7432 98.2613 56.0376 98.2297 56.3847C98.2297 56.4478 97.8196 62.3157 100.943 65.2181C101.195 65.4495 101.206 65.8491 100.974 66.1015C100.848 66.2382 100.68 66.3013 100.522 66.3013L100.512 66.2908Z" fill="black"/>
<path d="M98.6598 158.853C98.6598 158.853 100.994 164.469 97.1455 165.762C93.2861 167.045 87.6811 167.403 87.6811 167.403C87.6811 167.403 80.7826 168.223 80.0885 165.415C79.3945 162.607 85.4622 159.095 85.4622 159.095L98.6703 158.864L98.6598 158.853Z" fill="#47484A"/>
<path d="M85.4938 168.139C83.2329 168.139 80.015 167.739 79.4681 165.552C78.6794 162.376 84.4738 158.927 85.1363 158.538C85.2309 158.485 85.3256 158.454 85.4412 158.454L98.6494 158.222C98.9228 158.222 99.1331 158.369 99.2383 158.601C99.3014 158.737 100.647 162.029 99.5748 164.374C99.1436 165.32 98.3865 165.983 97.3349 166.33C93.444 167.624 87.9441 167.981 87.7127 168.002C87.4708 168.034 86.598 168.128 85.4938 168.128V168.139ZM85.62 159.705C83.4327 160.998 80.2568 163.575 80.6775 165.257C81.1402 167.108 85.946 166.972 87.597 166.782C87.6917 166.782 93.2021 166.414 96.9353 165.173C97.6609 164.931 98.1446 164.511 98.4286 163.88C99.0385 162.544 98.5758 160.525 98.2182 159.495L85.62 159.715V159.705Z" fill="black"/>
<path d="M101.111 149.021L99.8279 161.082C99.8279 161.082 93.4026 164.248 85.1055 159.558L86.5041 145.74L101.111 149.021Z" fill="#7E8083"/>
<path d="M94.3403 162.754C91.7534 162.754 88.4619 162.155 84.8023 160.094C84.5815 159.967 84.4658 159.736 84.4868 159.484L85.8855 145.666C85.9065 145.487 86.0011 145.329 86.1378 145.224C86.2851 145.119 86.4638 145.087 86.6426 145.119L101.249 148.4C101.554 148.473 101.765 148.757 101.733 149.073L100.45 161.135C100.429 161.345 100.292 161.534 100.103 161.629C99.9454 161.703 97.7581 162.754 94.3298 162.754H94.3403ZM85.7698 159.21C92.5211 162.859 97.9368 161.166 99.2513 160.651L100.44 149.515L87.0632 146.507L85.7698 159.21Z" fill="black"/>
<path d="M110.544 160.714C110.544 160.714 112.879 166.33 109.03 167.623C105.17 168.906 99.5654 169.264 99.5654 169.264C99.5654 169.264 92.6669 170.084 91.9729 167.276C91.2683 164.469 97.3466 160.956 97.3466 160.956L110.555 160.725L110.544 160.714Z" fill="#47484A"/>
<path d="M97.3766 170C95.1157 170 91.8978 169.601 91.351 167.413C90.5623 164.237 96.3566 160.788 97.0191 160.399C97.1137 160.346 97.2084 160.315 97.3241 160.315L110.532 160.083C110.806 160.083 111.016 160.231 111.121 160.462C111.184 160.599 112.53 163.89 111.458 166.235C111.026 167.182 110.269 167.844 109.218 168.191C105.327 169.485 99.8269 169.842 99.5955 169.863C99.3537 169.895 98.4808 169.99 97.3766 169.99V170ZM97.5028 161.566C95.3155 162.86 92.1397 165.436 92.5603 167.119C93.023 168.98 97.8288 168.833 99.4799 168.644C99.5745 168.644 105.085 168.275 108.818 167.035C109.544 166.793 110.027 166.372 110.311 165.741C110.921 164.406 110.459 162.387 110.101 161.356L97.5028 161.577V161.566Z" fill="black"/>
<path d="M112.994 150.882L111.711 162.944C111.711 162.944 105.285 166.109 96.9883 161.419L98.3869 147.601L112.994 150.882Z" fill="#7E8083"/>
<path d="M106.223 164.616C103.636 164.616 100.345 164.016 96.6851 161.955C96.4643 161.829 96.3486 161.598 96.3696 161.345L97.7683 147.527C97.7893 147.348 97.8839 147.191 98.0206 147.086C98.1679 146.98 98.3466 146.949 98.5254 146.98L113.132 150.261C113.437 150.335 113.647 150.619 113.616 150.934L112.333 162.996C112.312 163.207 112.175 163.396 111.986 163.491C111.828 163.564 109.641 164.616 106.213 164.616H106.223ZM97.6526 161.072C104.404 164.721 109.82 163.028 111.134 162.513L112.322 151.376L98.9461 148.369L97.6526 161.072Z" fill="black"/>
<path d="M114.404 106.977C114.404 106.977 129.473 117.63 121.061 144.32C121.061 144.32 128.769 142.679 130.409 148.421C132.05 154.152 125.972 156.266 125.972 156.266C125.972 156.266 116.739 160.241 96.0535 151.587C75.3684 142.921 79.3435 120.102 79.3435 120.102C79.3435 120.102 81.6781 106.283 90.3328 102.655C90.3328 102.655 100.733 98.4385 114.404 106.988V106.977Z" fill="#37519B"/>
<mask id="mask1_3627_44270" style="mask-type:luminance" maskUnits="userSpaceOnUse" x="79" y="101" width="52" height="57">
<path d="M114.455 107.04C114.455 107.04 129.524 117.693 121.111 144.383C121.111 144.383 128.82 142.742 130.46 148.484C132.101 154.215 126.022 156.329 126.022 156.329C126.022 156.329 116.789 160.304 96.1043 151.65C75.4192 142.984 79.3943 120.164 79.3943 120.164C79.3943 120.164 81.7289 106.346 90.3836 102.718C90.3836 102.718 100.784 98.5015 114.455 107.051V107.04Z" fill="white"/>
</mask>
<g mask="url(#mask1_3627_44270)">
<path d="M92.6032 106.042L88.6386 102.529L86.9561 107.272L82.0977 108.786L86.8614 112.046L87.7763 117.178L91.499 113.024L97.2933 114.728L94.9588 109.722L97.7665 105.306L92.6032 106.042Z" fill="#FFF200"/>
<path d="M117.494 120.164L113.529 116.663L111.847 121.405L106.988 122.92L111.752 126.18L112.667 131.311L116.39 127.158L122.184 128.861L119.849 123.856L122.668 119.439L117.494 120.164Z" fill="#FFF200"/>
<path d="M94.6735 129.314L90.7089 125.801L89.0264 130.544L84.168 132.058L88.9317 135.318L89.8466 140.461L93.5693 136.296L99.3636 138L97.0291 132.994L99.8474 128.588L94.6735 129.314Z" fill="#FFF200"/>
<path d="M110.857 148.221L106.882 144.709L105.21 149.452L100.352 150.966L105.115 154.226L106.03 159.368L109.753 155.204L115.547 156.908L113.213 151.902L116.02 147.496L110.857 148.221Z" fill="#FFF200"/>
</g>
<path d="M119.377 157.812C114.435 157.812 106.695 156.708 95.8109 152.154C74.9156 143.405 78.6908 120.217 78.7329 119.986C78.7539 119.849 79.3533 116.421 81.0254 112.488C83.2653 107.219 86.3991 103.623 90.0902 102.077C90.5319 101.898 100.953 97.8391 114.729 106.452C114.729 106.452 114.75 106.462 114.761 106.473C114.919 106.578 129.746 117.43 121.954 143.552C125.003 143.205 129.746 143.805 131.008 148.253C132.785 154.489 126.244 156.834 126.171 156.855C126.002 156.929 123.826 157.823 119.377 157.823V157.812ZM97.1359 102.235C93.0768 102.235 90.6055 103.192 90.5634 103.213C82.3294 106.662 79.9843 120.049 79.9633 120.186C79.9212 120.417 76.3247 142.627 96.2947 150.998C116.422 159.421 125.634 155.719 125.729 155.677C125.992 155.583 131.271 153.669 129.82 148.579C128.369 143.479 121.491 144.856 121.197 144.919C120.986 144.961 120.755 144.888 120.608 144.73C120.461 144.562 120.408 144.331 120.471 144.12C128.558 118.482 114.54 107.84 114.056 107.482C107.305 103.265 101.363 102.235 97.1359 102.235Z" fill="black"/>
<path d="M120.082 93.5798C120.082 93.5798 127.653 97.2815 126.391 104.411C125.129 111.541 118.641 113.255 111.438 110.006C104.234 106.756 100.175 104.317 92.8768 106.399C92.8768 106.399 90.8051 106.304 88.5547 103.875C88.5547 103.875 93.9599 97.5549 113.068 102.245C113.068 102.245 119.198 104.317 120.271 101.698C121.354 99.0797 119.009 97.639 119.009 97.639C119.009 97.639 117.926 96.6505 115.676 96.7346C115.676 96.7346 119.146 94.8523 120.092 93.5798H120.082Z" fill="#D5D7D8"/>
<path d="M118.031 112.225C115.928 112.225 113.604 111.678 111.185 110.584C110.491 110.269 109.829 109.964 109.187 109.669C103.099 106.872 99.4286 105.19 93.0453 106.998C92.9822 107.019 92.9191 107.03 92.8455 107.019C92.7509 107.019 90.4899 106.893 88.0923 104.296C87.882 104.064 87.8714 103.707 88.0712 103.465C88.3026 103.192 93.9497 96.9135 113.205 101.635C114.698 102.14 118.988 103.149 119.693 101.456C120.534 99.4057 118.873 98.2805 118.673 98.1649C118.641 98.1438 118.61 98.1228 118.578 98.0912C118.547 98.0597 117.621 97.271 115.686 97.3551C115.392 97.3551 115.14 97.1763 115.066 96.8924C114.992 96.6085 115.118 96.314 115.371 96.1773C116.307 95.6726 118.873 94.1477 119.588 93.1908C119.767 92.9489 120.093 92.8753 120.355 93.0015C120.44 93.0435 128.327 96.9976 127.002 104.506C126.455 107.608 124.919 109.901 122.564 111.152C121.239 111.857 119.703 112.204 118.021 112.204L118.031 112.225ZM97.9879 105.011C102.016 105.011 105.328 106.536 109.703 108.544C110.344 108.839 110.996 109.144 111.69 109.449C115.634 111.226 119.388 111.447 121.985 110.069C123.984 109.007 125.298 107.019 125.782 104.306C126.791 98.5855 121.754 95.2414 120.229 94.3686C119.567 95.0416 118.526 95.7567 117.632 96.3245C118.631 96.5769 119.209 97.0081 119.377 97.1448C120.345 97.7652 121.849 99.5214 120.85 101.951C119.588 105.021 113.552 103.076 112.868 102.844C97.2307 99.0061 91.0263 102.655 89.4594 103.907C91.0683 105.442 92.488 105.726 92.835 105.778C94.7384 105.242 96.421 105.011 97.9984 105.011H97.9879Z" fill="black"/>
<path d="M96.9252 79.3246C97.4571 76.8786 95.1188 74.2934 91.7023 73.5504C88.2859 72.8073 85.085 74.1879 84.5531 76.6339C84.0211 79.0799 86.3594 81.6651 89.7759 82.4081C93.1923 83.1512 96.3932 81.7706 96.9252 79.3246Z" fill="white"/>
<path d="M93.3826 74.304C93.3826 74.304 90.7431 75.1032 90.7957 78.7417C90.8483 82.3698 93.0146 82.8535 93.0146 82.8535C93.0146 82.8535 97.0212 82.2225 96.9791 78.7943C96.9371 75.3661 93.3826 74.3145 93.3826 74.3145V74.304Z" fill="black"/>
<path d="M91.7846 83.453C91.0905 83.453 90.3754 83.3689 89.6288 83.2112C87.7044 82.7905 86.1269 81.9387 85.0753 80.7399C84.0237 79.5411 83.6136 78.1004 83.9186 76.6912C84.5495 73.7678 87.8726 72.264 91.8056 73.1158C93.73 73.5364 95.3074 74.3882 96.3591 75.587C97.4107 76.7859 97.8208 78.2266 97.5158 79.6357C97.2109 81.0449 96.2434 82.1806 94.7922 82.8431C93.8983 83.2427 92.8782 83.453 91.7846 83.453ZM89.6603 74.1358C87.3047 74.1358 85.517 75.1979 85.1384 76.9646C84.9176 77.9742 85.2331 79.0258 86.0113 79.9302C86.8736 80.9082 88.2512 81.6443 89.8917 82.0018C91.5322 82.3594 93.0886 82.2542 94.2769 81.7179C95.36 81.2236 96.0751 80.4034 96.296 79.3833C96.5168 78.3633 96.2013 77.3222 95.4231 76.4178C94.5608 75.4398 93.1832 74.7037 91.5427 74.3461C90.8907 74.2094 90.2598 74.1358 89.6603 74.1358Z" fill="black"/>
<path d="M92.3709 83.1165C92.2237 83.1165 92.087 83.064 91.9713 82.9693C91.8872 82.8957 89.7945 81.0764 90.0889 78.0478C90.3939 74.9666 92.8231 73.9255 92.9282 73.8835C93.2437 73.7467 93.6118 73.9045 93.738 74.22C93.8642 74.5354 93.717 74.9035 93.4015 75.0297C93.3279 75.0613 91.5506 75.85 91.3193 78.1635C91.0879 80.5506 92.7495 82.0018 92.7705 82.0123C93.0334 82.2332 93.065 82.6328 92.8441 82.8957C92.7179 83.0429 92.5497 83.1165 92.3709 83.1165Z" fill="black"/>
<path d="M109.701 82.9792C113.161 82.4739 115.672 80.0564 115.31 77.5795C114.949 75.1026 111.851 73.5043 108.391 74.0096C104.932 74.5149 102.42 76.9325 102.782 79.4094C103.144 81.8863 106.242 83.4846 109.701 82.9792Z" fill="white"/>
<path d="M110.502 74.1252C110.502 74.1252 107.852 75.7867 108.893 79.3411C109.934 82.8956 112.005 82.6011 112.005 82.6011C112.005 82.6011 116.612 80.7293 115.097 77.1643C113.583 73.5994 110.491 74.1252 110.491 74.1252H110.502Z" fill="black"/>
<path d="M108.272 83.9052C105.001 83.9052 102.53 82.2647 102.152 79.6882C101.941 78.2581 102.457 76.8594 103.582 75.7342C104.707 74.609 106.337 73.8624 108.293 73.5784C112.278 73 115.486 74.7247 115.917 77.6902C116.127 79.1204 115.612 80.519 114.487 81.6442C113.362 82.7694 111.732 83.5161 109.776 83.8C109.26 83.8736 108.756 83.9157 108.272 83.9157V83.9052ZM103.392 79.5095C103.718 81.7494 106.337 83.0429 109.607 82.5591C111.269 82.3173 112.689 81.6758 113.614 80.7609C114.455 79.9196 114.844 78.889 114.697 77.869C114.371 75.6291 111.763 74.3461 108.482 74.8193C106.821 75.0612 105.401 75.7027 104.476 76.6176C103.634 77.4588 103.245 78.4894 103.392 79.5095Z" fill="black"/>
<path d="M111.155 83.1795C111.05 83.1795 110.945 83.1585 110.85 83.0954C110.745 83.0428 108.337 81.6442 108.022 78.5735C107.696 75.4502 109.872 73.9254 109.956 73.8623C110.24 73.6625 110.629 73.7361 110.819 74.0201C111.008 74.304 110.945 74.6931 110.661 74.8824C110.598 74.9349 109.01 76.0812 109.252 78.4473C109.504 80.887 111.429 82.0017 111.45 82.0122C111.744 82.1805 111.86 82.5591 111.692 82.864C111.576 83.0638 111.366 83.1795 111.145 83.1795H111.155Z" fill="black"/>
<path d="M85.9576 71.1913C85.7262 71.1913 85.5159 71.0651 85.4002 70.8548C85.2425 70.5498 85.3687 70.1712 85.6736 70.0135C85.8419 69.9294 89.8906 67.8998 93.8866 69.4877C94.2021 69.6139 94.3599 69.9714 94.2337 70.2974C94.1075 70.6129 93.7499 70.7707 93.4239 70.6445C89.9431 69.2669 86.273 71.1072 86.231 71.1282C86.1363 71.1703 86.0417 71.1913 85.947 71.1913H85.9576Z" fill="black"/>
<path d="M114.003 71.3596C113.898 71.3596 113.793 71.3386 113.698 71.2755C113.667 71.2545 110.06 69.2564 106.537 70.4658C106.211 70.5814 105.853 70.4027 105.748 70.0767C105.633 69.7507 105.811 69.3931 106.137 69.288C110.207 67.8893 114.15 70.1082 114.319 70.2029C114.613 70.3711 114.718 70.7497 114.55 71.0547C114.434 71.2545 114.224 71.3701 114.003 71.3701V71.3596Z" fill="black"/>
<path d="M56.775 71.7487L44.7447 57.1735C44.7447 57.1735 40.1492 51.253 35.4485 54.8705C30.7478 58.488 41.1377 70.6551 46.606 75.4714C46.606 75.4714 55.6919 75.6922 56.7855 71.7487H56.775Z" fill="#FAC3C1"/>
<path d="M46.9009 76.1022C46.7327 76.1022 46.6275 76.1022 46.5855 76.1022C46.4382 76.1022 46.3015 76.0391 46.1859 75.9445C42.011 72.2534 33.4509 62.8625 33.6297 57.3101C33.6718 56.0587 34.1555 55.0702 35.0599 54.3656C39.1717 51.2108 43.5043 54.5654 45.2289 56.7738L57.2487 71.3385C57.3749 71.4962 57.4275 71.7065 57.3644 71.9063C56.2602 75.8709 48.573 76.0917 46.8904 76.0917L46.9009 76.1022ZM46.8484 74.8613C49.2881 74.8824 54.9878 74.3881 56.0814 71.8853L44.2719 57.5835C44.0932 57.3521 39.9814 52.1888 35.8276 55.3751C35.2176 55.8378 34.9127 56.4898 34.8811 57.3732C34.7339 61.7268 41.685 70.2658 46.8484 74.8718V74.8613Z" fill="black"/>
<path d="M62.8631 72.9159C62.8631 72.9159 53.7772 65.5757 46.2373 73.0211C46.2373 73.0211 40.7689 68.6359 37.3722 73.3471C36.4258 74.6616 36.2681 75.934 36.5415 77.0803L36.3837 76.9646C36.3837 76.9646 32.1142 79.4885 33.6496 83.758C34.7958 86.9654 37.9822 89.3104 40.5165 89.3104L39.9907 89.6785C40.3167 92.4232 53.3356 100.415 63.0734 90.4462C72.8113 80.477 62.8526 72.9054 62.8526 72.9054L62.8631 72.9159Z" fill="#FAC3C1"/>
<path d="M52.1066 95.8514C49.6774 95.8514 47.6478 95.3256 46.4174 94.905C42.8209 93.6851 39.7292 91.34 39.5399 89.689C39.4978 89.342 39.7397 89.037 40.0867 88.995C40.4338 88.9529 40.7387 89.1948 40.7808 89.5418C40.8754 90.32 43.0312 92.4337 46.8275 93.7272C50.2768 94.8945 56.9229 95.9671 62.8014 89.9519C65.7248 86.9654 67.0919 83.9157 66.8711 80.8976C66.5451 76.3652 62.6857 73.3787 62.6542 73.3471C62.6226 73.3156 60.4037 71.5489 57.3436 70.6971C53.3264 69.5824 49.793 70.4867 46.838 73.3997C46.7224 73.5259 43.7043 76.8279 45.839 80.4139C46.7855 82.0123 48.1736 82.2963 49.1726 82.2542C51.1075 82.1701 53.2528 80.803 54.0415 79.152C54.1887 78.847 54.5673 78.7103 54.8723 78.8575C55.1773 79.0047 55.314 79.3833 55.1667 79.6883C54.1782 81.7599 51.6228 83.3899 49.2252 83.4951C47.3428 83.5792 45.7549 82.7064 44.7664 81.0448C42.1479 76.6386 45.9021 72.5584 45.9442 72.5163C53.8102 64.745 63.3272 72.2745 63.4218 72.3481C63.5796 72.4743 67.7439 75.6817 68.112 80.7819C68.3644 84.1681 66.8711 87.5438 63.6847 90.8143C59.8148 94.7788 55.5663 95.8514 52.1066 95.8514Z" fill="black"/>
<path d="M43.7252 83.4529C42.1793 83.4529 40.7386 82.7693 40.644 82.7168C40.4337 82.5906 36.711 80.2665 36.0485 76.996C35.7646 75.5764 36.0905 74.2093 37.016 72.9158C38.015 71.5277 39.2664 70.7285 40.7597 70.5287C43.7883 70.108 46.6486 72.369 46.7748 72.4741C47.0483 72.6845 47.0903 73.0841 46.8695 73.347C46.6592 73.6204 46.2596 73.6625 45.9967 73.4416C45.9756 73.4206 43.4202 71.4225 40.9279 71.759C39.7922 71.9168 38.8142 72.5478 38.0255 73.6414C37.2999 74.651 37.0475 75.6605 37.2683 76.7437C37.7941 79.3516 40.8859 81.4023 41.2119 81.6126C41.5168 81.7493 44.2405 82.9376 45.4814 81.5284C45.7127 81.2655 46.1018 81.2445 46.3647 81.4759C46.6276 81.7072 46.6486 82.0963 46.4173 82.3592C45.6812 83.2005 44.6821 83.4634 43.7252 83.4634V83.4529Z" fill="black"/>
<path d="M40.6647 89.8678C40.2651 89.8678 39.855 89.8152 39.4238 89.7206C36.7738 89.0896 34.2184 86.7025 33.2194 83.9157C31.8733 80.151 34.597 77.3327 36.227 76.3757C36.5214 76.1969 36.9 76.3021 37.0788 76.5966C37.2575 76.891 37.1524 77.2696 36.8579 77.4484C36.7002 77.543 33.0511 79.7724 34.3867 83.4951C35.3541 86.1872 37.7939 88.059 39.7078 88.5112C40.507 88.7005 41.6322 88.7531 42.4525 87.9644C44.5452 85.9663 43.5146 82.9588 43.5041 82.9272C43.3884 82.6012 43.5566 82.2437 43.8826 82.128C44.2086 82.0123 44.5662 82.1806 44.6819 82.5066C44.7344 82.6643 45.9859 86.3134 43.3253 88.8688C42.6312 89.5313 41.7163 89.8783 40.6753 89.8783L40.6647 89.8678Z" fill="black"/>
</g>
<defs>
<clipPath id="clip0_3627_44270">
<rect width="140" height="170" fill="white" transform="translate(0.75)"/>
</clipPath>
</defs>
</svg>
