<svg width="123" height="115" viewBox="0 0 123 115" fill="none" xmlns="http://www.w3.org/2000/svg">
    <path d="M52.824 80.683c2.782-4.766 4.565-12.102 4.565-20.33 0-.76-.016-1.511-.045-2.254h8.051c-.03.743-.045 1.495-.045 2.255 0 8.227 1.783 15.563 4.565 20.33h-17.09z" fill="#BEC4C6"/>
    <path d="M65.35 60.354c0-.76.015-1.512.045-2.255h-8.052a55.625 55.625 0 0 1-.122 6.56s3.875-2.233 8.295 0a55.68 55.68 0 0 1-.166-4.306z" fill="#BEC4C6" style="mix-blend-mode:multiply" opacity=".5"/>
    <path d="M59.35 58.098h-1.156c.023.743.035 1.495.035 2.255 0 8.227-1.405 15.563-3.599 20.33h2.457c1.393-4.767 2.287-12.103 2.287-20.33 0-.76-.009-1.512-.024-2.255z" fill="#BEC4C6" style="mix-blend-mode:screen" opacity=".5"/>
    <path d="M69.915 80.683h-4.264c-1.393-4.766-2.287-12.102-2.287-20.33 0-.76.008-1.511.023-2.254h2.008c-.03.743-.045 1.495-.045 2.255 0 8.227 1.783 15.563 4.565 20.33z" fill="#BEC4C6" style="mix-blend-mode:multiply" opacity=".5"/>
    <path d="M50.305 53.57h-.01c-6.285-.022-11.119-.474-15.212-1.422-4.905-1.135-8.804-3.012-11.921-5.737-6.682-5.84-9.793-15.646-9.793-30.856 0-.661.287-1.293.794-1.75a2.667 2.667 0 0 1 1.891-.67c.197.008 19.91.822 34.134.209a2.668 2.668 0 0 1 1.894.668c.508.457.794 1.09.794 1.751v35.386c0 .644-.271 1.261-.756 1.716a2.655 2.655 0 0 1-1.815.706zM18.54 18.074c.305 12.32 2.906 20.23 8.119 24.787 4.309 3.767 10.691 5.55 21.076 5.829V18.28c-10.82.329-23.689-.022-29.195-.207z" fill="#BEC4C6"/>
    <path d="M20.875 15.84c-1.311-.04-2.397.976-2.337 2.21l.001.023c5.553.186 18.431.535 29.196.207v-2.307c-9.495.289-20.569.054-26.859-.133z" fill="#BEC4C6" style="mix-blend-mode:multiply" opacity=".5"/>
    <g style="mix-blend-mode:screen" opacity=".5" fill="#BEC4C6">
        <path d="M47.735 48.688v-.59c.052.299.056.502 0 .59zM18.539 18.05l.058.025-.057-.002c.304 12.32 2.905 20.23 8.118 24.787 4.309 3.767 10.692 5.55 21.076 5.829-.726 1.16-4.87.57-4.87.57-28.076-.33-24.325-31.208-24.325-31.208z"/>
    </g>
    <path d="M52.807 51.526V16.14c0-.661-.288-1.294-.795-1.75a2.667 2.667 0 0 0-1.893-.669c-14.224.614-33.937-.2-34.135-.208a2.667 2.667 0 0 0-1.89.67 2.39 2.39 0 0 0-.715 1.15 2.37 2.37 0 0 1 .783-1.529 2.667 2.667 0 0 1 1.891-.669c.197.008 19.91.822 34.135.209a2.668 2.668 0 0 1 1.893.668c.508.457.795 1.09.795 1.751v35.385c0 .204-.027.405-.08.599a2.37 2.37 0 0 0 .011-.22z" fill="#BEC4C6" style="mix-blend-mode:screen" opacity=".5"/>
    <path d="M45.707 52.637c2.352.026 4.424.154 6.248.367a2.665 2.665 0 0 1-1.649.566h-.01c-6.285-.022-11.119-.474-15.212-1.422-4.905-1.136-8.805-3.012-11.922-5.738-3.507-3.065-6.03-7.224-7.636-12.682 2.836 8.097 10.339 18.687 30.181 18.91z" fill="#BEC4C6" style="mix-blend-mode:multiply" opacity=".5"/>
    <path d="M70.618 52.865a2.354 2.354 0 0 1-.757-1.716V15.763c0-.662.287-1.294.795-1.751a2.668 2.668 0 0 1 1.893-.668c14.224.614 33.937-.2 34.134-.209a2.668 2.668 0 0 1 1.892.67c.507.456.794 1.089.794 1.75 0 15.21-3.112 25.015-9.794 30.856-3.117 2.725-7.017 4.602-11.922 5.737-4.093.948-8.926 1.4-15.212 1.423h-.01c-.68 0-1.332-.254-1.814-.706zm4.384-34.584V48.69c10.385-.279 16.768-2.063 21.077-5.83 5.213-4.556 7.814-12.467 8.118-24.786-5.506.185-18.375.536-29.195.207z" fill="#BEC4C6"/>
    <path d="M75.001 15.973v2.307c10.765.328 23.643-.02 29.196-.207l.001-.022c.06-1.235-1.026-2.25-2.337-2.211-6.29.187-17.364.421-26.859.133z" fill="#BEC4C6" style="mix-blend-mode:multiply" opacity=".5"/>
    <g style="mix-blend-mode:screen" opacity=".5" fill="#BEC4C6">
        <path d="M75.001 48.69v-.591c-.052.299-.055.502 0 .59zM104.198 18.051l-.058.025.057-.002c-.304 12.319-2.905 20.23-8.118 24.787-4.31 3.766-10.692 5.55-21.077 5.829.727 1.16 4.872.57 4.872.57 28.076-.33 24.325-31.21 24.325-31.21l-.001.001z"/>
    </g>
    <path d="M69.93 51.528V16.142c0-.661.287-1.294.794-1.75a2.668 2.668 0 0 1 1.894-.669c14.224.614 33.936-.2 34.134-.208a2.665 2.665 0 0 1 1.891.67c.351.315.597.715.714 1.15a2.367 2.367 0 0 0-.782-1.529 2.668 2.668 0 0 0-1.892-.669c-.197.008-19.91.822-34.134.209a2.667 2.667 0 0 0-1.893.668 2.355 2.355 0 0 0-.795 1.751V51.15c0 .204.027.405.08.599a2.367 2.367 0 0 1-.011-.22z" fill="#BEC4C6" style="mix-blend-mode:screen" opacity=".5"/>
    <path d="M77.03 52.637c-2.352.026-4.424.154-6.248.367a2.665 2.665 0 0 0 1.649.566h.01c6.285-.022 11.119-.474 15.212-1.422 4.905-1.136 8.805-3.012 11.922-5.738 3.507-3.065 6.03-7.224 7.636-12.682-2.836 8.097-10.339 18.687-30.18 18.91z" fill="#BEC4C6" style="mix-blend-mode:multiply" opacity=".5"/>
    <path d="M32.256 6a65.382 65.382 0 0 0-1.078 11.9c0 24.731 13.51 44.779 30.175 44.779C78.02 62.679 91.53 42.63 91.53 17.9c0-4.121-.375-8.111-1.078-11.901H32.256z" fill="#BEC4C6"/>
    <path d="M32.256 6a65.382 65.382 0 0 0-1.078 11.9c0 24.731 13.51 44.779 30.175 44.779C78.02 62.679 91.53 42.63 91.53 17.9c0-4.121-.375-8.111-1.078-11.901H32.256z" fill="#BEC4C6"/>
    <path d="M90.45 6H79.575c.44 3.79.675 7.78.675 11.9 0 24.731-8.46 44.779-18.896 44.779 16.666 0 30.176-20.048 30.176-44.778 0-4.121-.376-8.111-1.078-11.901z" fill="#BEC4C6" style="mix-blend-mode:multiply" opacity=".5"/>
    <path d="m61.778 20.675 3.954 7.549 8.843 1.21-6.399 5.876 1.51 8.297-7.908-3.917-7.909 3.917 1.51-8.297-6.398-5.876 8.843-1.21 3.954-7.55z" fill="#8F989B" style="mix-blend-mode:multiply" opacity=".5"/>
    <path d="M42.457 17.9c0-4.12.235-8.11.675-11.9h-7.441c-.62 3.79-.95 7.78-.95 11.9 0 24.731 11.914 44.779 26.612 44.779-10.436 0-18.896-20.048-18.896-44.778z" fill="#BEC4C6" style="mix-blend-mode:screen" opacity=".5"/>
    <path d="M45.736 13.743c-3.504 0-6.344-2.676-6.344-5.977 0 3.3-2.84 5.977-6.344 5.977 3.504 0 6.344 2.676 6.344 5.977 0-3.301 2.84-5.977 6.344-5.977zM48.251 19.72c-1.389 0-2.515-1.06-2.515-2.37 0 1.31-1.125 2.37-2.514 2.37 1.389 0 2.514 1.06 2.514 2.369 0-1.309 1.126-2.37 2.515-2.37z" fill="#fff"/>
    <path d="M60.935 6.883c15.84 0 28.68-.395 28.68-.883h-57.36c0 .487 12.84.883 28.68.883z" fill="#BEC4C6" style="mix-blend-mode:screen" opacity=".5"/>
    <path d="M73.558 80.684H49.179c-3.219 0-5.829 2.458-5.829 5.491h36.037c0-3.033-2.61-5.491-5.83-5.491z" fill="#BEC4C6"/>
    <path d="M49.18 81.096h24.378c3.072 0 5.587 2.24 5.81 5.08h.02c0-3.034-2.61-5.492-5.83-5.492H49.18c-3.218 0-5.828 2.458-5.828 5.491h.018c.224-2.84 2.739-5.079 5.81-5.079z" fill="#BEC4C6" style="mix-blend-mode:screen" opacity=".5"/>
    <path d="M79.386 86.174h-6.519c0-3.032-1.665-5.49-3.72-5.49h4.411c3.219 0 5.828 2.458 5.828 5.49z" fill="#BEC4C6" style="mix-blend-mode:multiply" opacity=".5"/>
    <path d="M56.377 80.684h-4.812c-3.22 0-5.83 2.458-5.83 5.491h4.813c0-3.033 2.61-5.491 5.829-5.491z" fill="#BEC4C6" style="mix-blend-mode:screen" opacity=".5"/>
    <path d="M88.8 86.175H33.935c-.298 0-.54.228-.54.508v20.078c0 .281.242.509.54.509H88.8c.299 0 .54-.228.54-.509V86.683c0-.28-.241-.508-.54-.508z" fill="#44352A"/>
    <path d="M88.8 103.644H33.935c-.297 0-.54-.227-.54-.508v3.626c0 .28.242.508.54.508H88.8c.298 0 .54-.227.54-.508v-3.626c0 .28-.241.508-.54.508z" fill="#44352A" style="mix-blend-mode:multiply" opacity=".3"/>
    <g style="mix-blend-mode:multiply" opacity=".3" fill="#44352A">
        <path d="M33.936 107.271h3.376a49.75 49.75 0 0 1-3.747-.141.553.553 0 0 0 .371.141zM88.8 86.176H72.028c-2.59 11.946-17.147 21.095-34.716 21.095H88.8c.298 0 .54-.228.54-.509V86.684c0-.28-.241-.508-.54-.508z"/>
    </g>
    <path d="M88.8 86.175H33.935c-.297 0-.54.227-.54.508v.66c0-.281.242-.51.54-.51H88.8c.298 0 .54.228.54.51v-.66c0-.28-.241-.508-.54-.508z" fill="#44352A" style="mix-blend-mode:screen" opacity=".3"/>
    <path d="M92.964 104.55h-63.19c-.375 0-.68.287-.68.64v3.169c0 .353.305.64.68.64h63.19c.375 0 .68-.287.68-.64v-3.169c0-.353-.305-.64-.68-.64z" fill="#44352A"/>
    <path d="M92.964 108.425h-63.19c-.375 0-.68-.287-.68-.641v.575c0 .354.305.641.68.641h63.19c.376 0 .68-.287.68-.641v-.575c0 .354-.304.641-.68.641z" fill="#44352A" style="mix-blend-mode:multiply" opacity=".3"/>
    <path d="M92.964 104.55h-63.19c-.375 0-.68.287-.68.64v.593c0-.354.305-.641.68-.641h63.19c.376 0 .68.287.68.641v-.593c0-.353-.304-.64-.68-.64z" fill="#44352A" style="mix-blend-mode:screen" opacity=".3"/>
    <path d="M92.964 104.55H74.946c.376 0 .68.287.68.64v3.169c0 .354-.304.641-.68.641h18.018c.375 0 .68-.287.68-.641v-3.169c0-.353-.305-.64-.68-.64z" fill="#44352A" style="mix-blend-mode:multiply" opacity=".3"/>
    <path d="M44.167 108.359v-3.169c0-.353.305-.64.68-.64h-9.802c-.375 0-.68.287-.68.64v3.169c0 .354.305.641.68.641h9.802c-.375 0-.68-.287-.68-.641z" fill="#44352A" style="mix-blend-mode:screen" opacity=".3"/>
    <path d="M84.281 89.285h-45.92v12.746h45.92V89.285z" fill="#BEC4C6"/>
    <path d="M38.405 101.741V89.285h-.043v12.746H84.28v-.29H38.405z" fill="#EFCA6F" style="mix-blend-mode:multiply" opacity=".5"/>
    <path d="M84.281 89.285h-45.92v.223h45.92v-.223z" fill="#EFCA6F" style="mix-blend-mode:screen" opacity=".5"/>
    <path d="M43.35 86.174h36.036c0-.337-.033-.668-.095-.989H43.446a5.22 5.22 0 0 0-.095.99z" fill="#BEC4C6" style="mix-blend-mode:multiply" opacity=".5"/>
    <path d="M71.06 89.285c-2.086 5.118-6.422 9.558-12.2 12.746h25.42V89.285H71.06z" fill="#BEC4C6" style="mix-blend-mode:multiply" opacity=".3"/>
    <path d="M40.111 91.53c.435 0 .787-.332.787-.741 0-.41-.352-.742-.787-.742-.435 0-.787.332-.787.742s.352.741.787.741zM40.111 101.091c.435 0 .787-.332.787-.742s-.352-.742-.787-.742c-.435 0-.787.332-.787.742s.352.742.787.742zM82.532 91.53c.435 0 .787-.332.787-.741 0-.41-.352-.742-.787-.742-.435 0-.787.332-.787.742s.352.741.787.741zM82.532 101.091c.435 0 .787-.332.787-.742s-.352-.742-.787-.742c-.435 0-.787.332-.787.742s.352.742.787.742z" fill="#44352A"/>
</svg>
