<svg width="122" height="115" viewBox="0 0 122 115" fill="none" xmlns="http://www.w3.org/2000/svg">
    <g clip-path="url(#i8bhbgziia)">
        <path d="M35.473 9.969v30.42c0 .886.401 1.68 1.008 1.993L60.818 54.96c.178.092.363.137.549.137V9.968H35.473z" fill="#00AD37"/>
        <path d="M61.365 9.969v45.129c.188 0 .376-.045.554-.137L86.25 42.38c.607-.314 1.008-1.106 1.008-1.993V9.968H61.365z" fill="#00942F"/>
        <path d="M86.784 6h-50.84c-1.44 0-2.61 1.102-2.61 2.462v.38c0 1.36 1.17 2.462 2.61 2.462h50.84c1.442 0 2.61-1.102 2.61-2.461v-.381c0-1.36-1.168-2.462-2.61-2.462z" fill="#FFAF02"/>
        <path d="M93.98 78.24c0 .986-2.103 1.866-2.2 2.826-.101.98 1.78 2.225 1.581 3.176-.203.963-2.447 1.44-2.743 2.367-.3.94 1.284 2.51.89 3.406-.398.903-2.698.955-3.184 1.814-.49.86.74 2.696.165 3.504-.577.812-2.841.44-3.498 1.192-.657.755.17 2.78-.562 3.467-.73.688-2.876-.09-3.676.53-.797.617-.404 2.755-1.264 3.299-.857.542-2.8-.617-3.716-.156-.908.459-.963 2.627-1.923 3.003-.95.372-2.616-1.123-3.611-.839-.983.281-1.49 2.398-2.51 2.587-1.006.187-2.33-1.587-3.366-1.492-1.018.094-1.953 2.076-2.996 2.076s-1.979-1.984-2.997-2.076c-1.038-.095-2.36 1.679-3.368 1.492-1.02-.192-1.527-2.308-2.51-2.587-.995-.284-2.66 1.211-3.61.839-.959-.376-1.014-2.544-1.924-3.003-.913-.461-2.859.698-3.716.156-.86-.544-.467-2.682-1.264-3.299-.8-.62-2.947.161-3.677-.53-.73-.688.096-2.712-.561-3.467-.655-.752-2.922-.38-3.498-1.192-.575-.808.654-2.641.165-3.504-.486-.856-2.786-.908-3.184-1.814-.394-.897 1.19-2.467.89-3.406-.299-.927-2.543-1.404-2.744-2.367-.198-.948 1.683-2.197 1.583-3.174-.1-.96-2.202-1.842-2.202-2.826 0-.983 2.104-1.866 2.202-2.826.1-.979-1.78-2.225-1.583-3.176.204-.962 2.448-1.44 2.744-2.367.3-.939-1.284-2.509-.89-3.405.398-.904 2.698-.956 3.184-1.814.49-.861-.74-2.696-.165-3.505.576-.811 2.84-.44 3.498-1.192.657-.754-.17-2.779.561-3.467.73-.688 2.877.09 3.677-.53.797-.617.403-2.755 1.264-3.299.857-.541 2.8.618 3.716.157.908-.46.963-2.628 1.923-3.004.95-.371 2.616 1.123 3.611.84.983-.282 1.49-2.398 2.51-2.588 1.006-.186 2.33 1.587 3.365 1.493 1.019-.095 1.954-2.077 2.997-2.077s1.979 1.985 2.997 2.077c1.038.094 2.36-1.68 3.367-1.492 1.021.191 1.528 2.308 2.51 2.587.996.283 2.661-1.211 3.612-.84.958.376 1.013 2.545 1.923 3.004.913.46 2.859-.698 3.716-.157.86.544.467 2.68 1.264 3.3.8.62 2.947-.161 3.676.53.73.687-.095 2.712.562 3.466.654.752 2.921.38 3.498 1.192.574.809-.654 2.642-.165 3.505.486.856 2.786.908 3.184 1.814.394.896-1.19 2.466-.89 3.405.299.927 2.543 1.405 2.743 2.367.198.949-1.682 2.197-1.582 3.174.1.96 2.202 1.842 2.202 2.826z" fill="#FFD102"/>
        <path d="M85.741 69.282c-3.802-9.195-13.28-15.708-24.377-15.708-9.24 0-17.36 4.52-22.011 11.34-2.621 3.843-4.14 8.416-4.14 13.324 0 6.394 2.58 12.221 6.813 16.603 4.784 4.952 11.675 8.06 19.338 8.06 8.188 0 15.498-3.55 20.292-9.105 3.664-4.245 5.86-9.66 5.86-15.56 0-3.16-.629-6.18-1.778-8.957l.003.003z" fill="#FFAF02"/>
        <path d="M62.791 101.588c-7.859 0-14.93-3.188-19.835-8.267-4.343-4.496-6.989-10.472-6.989-17.032 0-2.5.384-4.915 1.101-7.194a23.39 23.39 0 0 0-1.856 9.142c0 6.395 2.58 12.222 6.814 16.604 4.784 4.952 11.675 8.06 19.338 8.06 6.809 0 13.01-2.455 17.664-6.475-4.506 3.237-10.133 5.16-16.237 5.16v.002z" fill="#FFC02E"/>
        <path d="M59.872 55.097c11.31 0 20.971 6.64 24.846 16.012a23.813 23.813 0 0 1 1.813 9.131c0 3.221-.63 6.234-1.776 9.041a23.44 23.44 0 0 0 2.761-11.041c0-3.16-.63-6.18-1.778-8.956-3.801-9.195-13.28-15.708-24.376-15.708-7.456 0-14.184 2.942-18.946 7.662 4.677-3.824 10.778-6.139 17.456-6.139v-.002z" fill="#FF9E02"/>
        <path d="M76.064 74.314c-.918-.158-2.106-.293-3.483-.402-1.522-.12-3.273-.213-5.14-.274a1.285 1.285 0 0 1-1.167-.8c-1.309-3.407-2.698-6.415-3.829-8.085-.504-.745-1.663-.745-2.169 0-1.13 1.667-2.518 4.678-3.83 8.086-.177.465-.639.78-1.165.799-3.559.118-6.693.345-8.621.679-.936.163-1.367 1.199-.798 1.918 1.312 1.655 3.644 3.847 6.63 6.115.394.298.565.788.442 1.249a87.104 87.104 0 0 0-.542 2.105c-.502 2.074-.83 3.826-1.013 5.216-.123.94.885 1.649 1.803 1.263 2.034-.853 4.484-1.887 7.518-3.59.408-.229.915-.229 1.321 0 3.034 1.703 5.484 2.739 7.518 3.59.918.386 1.928-.324 1.803-1.263-.243-1.837-.737-4.313-1.555-7.321-.125-.461.048-.95.442-1.249 2.986-2.268 5.318-4.458 6.63-6.115.57-.72.138-1.758-.797-1.918l.002-.003z" fill="#FDC92B"/>
    </g>
    <defs>
        <clipPath id="i8bhbgziia">
            <path fill="#fff" transform="translate(13.75 6)" d="M0 0h95.077v103H0z"/>
        </clipPath>
    </defs>
</svg>
