<svg width="122" height="115" viewBox="0 0 122 115" fill="none" xmlns="http://www.w3.org/2000/svg">
    <path d="M52.455 80.683c2.782-4.766 4.565-12.102 4.565-20.33 0-.76-.016-1.511-.045-2.254h8.05c-.028.743-.044 1.495-.044 2.255 0 8.227 1.783 15.563 4.565 20.33h-17.09z" fill="#DD6E00"/>
    <path d="M64.981 60.354c0-.76.016-1.512.045-2.255h-8.051a55.627 55.627 0 0 1-.122 6.56s3.874-2.233 8.295 0a55.631 55.631 0 0 1-.167-4.306z" fill="#F8B805" style="mix-blend-mode:multiply" opacity=".5"/>
    <path d="M58.982 58.098h-1.156c.023.743.035 1.495.035 2.255 0 8.227-1.406 15.563-3.599 20.33h2.456c1.394-4.767 2.288-12.103 2.288-20.33 0-.76-.009-1.512-.024-2.255z" fill="#DD6E00" style="mix-blend-mode:screen" opacity=".5"/>
    <path d="M69.546 80.683h-4.264c-1.394-4.766-2.287-12.102-2.287-20.33 0-.76.008-1.511.023-2.254h2.008c-.03.743-.045 1.495-.045 2.255 0 8.227 1.782 15.563 4.564 20.33h.001z" fill="#F8B805" style="mix-blend-mode:multiply" opacity=".5"/>
    <path d="M49.937 53.57h-.01c-6.285-.023-11.12-.475-15.212-1.423-4.905-1.136-8.805-3.012-11.922-5.737C16.112 40.57 13 30.764 13 15.554c0-.661.287-1.293.794-1.75a2.667 2.667 0 0 1 1.891-.67c.197.008 19.91.822 34.135.209a2.668 2.668 0 0 1 1.893.668c.508.457.795 1.09.795 1.751v35.386c0 .644-.272 1.261-.757 1.716a2.655 2.655 0 0 1-1.814.706zM18.172 18.072c.304 12.32 2.905 20.23 8.118 24.787 4.309 3.767 10.692 5.55 21.076 5.829V18.279c-10.82.329-23.689-.022-29.194-.207z" fill="#DD6E00"/>
    <path d="M20.508 15.839c-1.312-.04-2.398.976-2.338 2.21l.002.023c5.553.186 18.43.535 29.195.207v-2.307c-9.495.29-20.568.054-26.859-.133z" fill="#F8B805" style="mix-blend-mode:multiply" opacity=".5"/>
    <g style="mix-blend-mode:screen" opacity=".5" fill="#DD6E00">
        <path d="M47.367 48.687v-.59c.052.299.055.502 0 .59zM18.17 18.05l.058.024-.057-.002c.305 12.32 2.905 20.23 8.119 24.787 4.308 3.767 10.691 5.55 21.076 5.829-.727 1.16-4.871.57-4.871.57C14.419 48.928 18.17 18.05 18.17 18.05z"/>
    </g>
    <path d="M52.439 51.525V16.14c0-.661-.288-1.294-.795-1.75a2.667 2.667 0 0 0-1.893-.669c-14.224.614-33.937-.2-34.135-.208a2.667 2.667 0 0 0-1.89.67 2.39 2.39 0 0 0-.715 1.15 2.37 2.37 0 0 1 .783-1.529 2.667 2.667 0 0 1 1.891-.669c.197.008 19.91.822 34.135.209a2.668 2.668 0 0 1 1.893.668c.508.457.795 1.09.795 1.751v35.385c0 .204-.028.404-.08.599.007-.074.011-.147.011-.22z" fill="#F8B805" style="mix-blend-mode:screen" opacity=".5"/>
    <path d="M45.338 52.636c2.352.026 4.424.154 6.248.367a2.665 2.665 0 0 1-1.649.566h-.01c-6.285-.022-11.119-.474-15.212-1.422-4.905-1.136-8.805-3.012-11.922-5.738-3.507-3.065-6.03-7.224-7.636-12.682 2.836 8.097 10.339 18.687 30.181 18.91z" fill="#DD6E00" style="mix-blend-mode:multiply" opacity=".5"/>
    <path d="M70.249 52.864a2.355 2.355 0 0 1-.757-1.716V15.762c0-.662.288-1.294.795-1.751a2.668 2.668 0 0 1 1.893-.668c14.224.614 33.937-.2 34.135-.209a2.665 2.665 0 0 1 1.891.67c.507.456.794 1.089.794 1.75 0 15.21-3.111 25.015-9.793 30.856-3.118 2.725-7.018 4.602-11.922 5.737-4.093.948-8.927 1.4-15.212 1.423h-.01c-.68 0-1.333-.254-1.815-.706zm4.385-34.584v30.408C85.018 48.41 91.4 46.627 95.71 42.86c5.213-4.557 7.815-12.467 8.119-24.786-5.506.185-18.376.536-29.196.207z" fill="#DD6E00"/>
    <path d="M74.633 15.972v2.307c10.764.328 23.642-.02 29.195-.207l.002-.022c.06-1.235-1.026-2.25-2.338-2.211-6.29.187-17.363.421-26.859.133z" fill="#F8B805" style="mix-blend-mode:multiply" opacity=".5"/>
    <g style="mix-blend-mode:screen" opacity=".5" fill="#DD6E00">
        <path d="M74.633 48.69v-.591c-.052.299-.056.502 0 .59zM103.83 18.05l-.057.025.057-.002c-.305 12.319-2.906 20.23-8.119 24.786-4.309 3.767-10.692 5.55-21.076 5.83.727 1.16 4.87.57 4.87.57 28.077-.33 24.326-31.21 24.326-31.21l-.001.001z"/>
    </g>
    <path d="M69.56 51.526V16.14c0-.661.288-1.294.796-1.75a2.667 2.667 0 0 1 1.893-.669c14.224.614 33.937-.2 34.134-.208a2.668 2.668 0 0 1 1.892.67c.351.315.596.715.714 1.15a2.373 2.373 0 0 0-.783-1.529 2.666 2.666 0 0 0-1.891-.669c-.197.008-19.91.822-34.135.209a2.668 2.668 0 0 0-1.893.668 2.355 2.355 0 0 0-.795 1.751v35.385c0 .204.027.404.08.598a2.37 2.37 0 0 1-.011-.22z" fill="#DD6E00" style="mix-blend-mode:screen" opacity=".5"/>
    <path d="M76.662 52.636c-2.351.026-4.423.154-6.248.367.461.364 1.044.566 1.65.566h.01c6.285-.022 11.118-.474 15.212-1.422 4.905-1.136 8.804-3.012 11.921-5.738 3.507-3.065 6.03-7.224 7.637-12.682-2.837 8.097-10.34 18.687-30.182 18.91z" fill="#DD6E00" style="mix-blend-mode:multiply" opacity=".5"/>
    <path d="M31.887 6a65.381 65.381 0 0 0-1.078 11.9c0 24.731 13.51 44.779 30.176 44.779 16.665 0 30.176-20.048 30.176-44.778 0-4.121-.375-8.111-1.078-11.901H31.887z" fill="#DD6E00"/>
    <path d="M31.887 6a65.381 65.381 0 0 0-1.078 11.9c0 24.731 13.51 44.779 30.176 44.779 16.665 0 30.176-20.048 30.176-44.778 0-4.121-.375-8.111-1.078-11.901H31.887z" fill="#DD6E00"/>
    <path d="M90.082 6H79.206c.44 3.79.675 7.78.675 11.9 0 24.731-8.46 44.779-18.896 44.779C77.65 62.679 91.16 42.63 91.16 17.9c0-4.121-.376-8.111-1.079-11.901z" fill="#DD6E00" style="mix-blend-mode:multiply" opacity=".5"/>
    <path d="m61.409 20.675 3.954 7.549 8.843 1.21-6.399 5.876 1.51 8.296-7.908-3.917-7.91 3.917 1.511-8.296-6.398-5.876 8.842-1.21 3.955-7.55z" fill="#A45405" style="mix-blend-mode:multiply" opacity=".5"/>
    <path d="M42.089 17.9c0-4.12.235-8.11.675-11.9h-7.442c-.619 3.79-.95 7.78-.95 11.9 0 24.731 11.915 44.779 26.613 44.779-10.436 0-18.896-20.048-18.896-44.778z" fill="#DD6E00" style="mix-blend-mode:screen" opacity=".5"/>
    <path d="M45.367 13.743c-3.504 0-6.344-2.676-6.344-5.977 0 3.3-2.84 5.977-6.344 5.977 3.504 0 6.344 2.676 6.344 5.976 0-3.3 2.84-5.976 6.344-5.976zM47.883 19.719c-1.389 0-2.515-1.06-2.515-2.37 0 1.31-1.126 2.37-2.515 2.37 1.39 0 2.515 1.06 2.515 2.369 0-1.309 1.126-2.37 2.515-2.37z" fill="#fff"/>
    <path d="M60.566 6.883c15.84 0 28.68-.395 28.68-.883h-57.36c0 .487 12.84.883 28.68.883z" fill="#DD6E00" style="mix-blend-mode:screen" opacity=".5"/>
    <path d="M73.19 80.683H48.81c-3.218 0-5.828 2.458-5.828 5.491h36.037c0-3.033-2.61-5.491-5.83-5.491z" fill="#DD6E00"/>
    <path d="M48.811 81.095h24.38c3.07 0 5.586 2.24 5.81 5.08h.018c0-3.034-2.61-5.492-5.829-5.492H48.811c-3.219 0-5.829 2.458-5.829 5.491h.019c.223-2.84 2.739-5.079 5.81-5.079z" fill="#DD6E00" style="mix-blend-mode:screen" opacity=".5"/>
    <path d="M79.018 86.174h-6.52c0-3.033-1.664-5.491-3.719-5.491h4.41c3.22 0 5.829 2.458 5.829 5.49z" fill="#F8B805" style="mix-blend-mode:multiply" opacity=".5"/>
    <path d="M56.008 80.683h-4.812c-3.219 0-5.829 2.458-5.829 5.491h4.812c0-3.033 2.61-5.491 5.829-5.491z" fill="#DD6E00" style="mix-blend-mode:screen" opacity=".5"/>
    <path d="M88.432 86.175H33.568c-.298 0-.54.228-.54.508v20.078c0 .281.242.509.54.509h54.864c.298 0 .54-.228.54-.509V86.683c0-.28-.242-.508-.54-.508z" fill="#44352A"/>
    <path d="M88.432 103.643H33.568c-.298 0-.54-.227-.54-.508v3.626c0 .28.242.508.54.508h54.864c.298 0 .54-.227.54-.508v-3.626c0 .28-.241.508-.54.508z" fill="#44352A" style="mix-blend-mode:multiply" opacity=".3"/>
    <g style="mix-blend-mode:multiply" opacity=".3" fill="#44352A">
        <path d="M33.568 107.269h3.376c-1.266 0-2.517-.048-3.748-.141a.554.554 0 0 0 .372.141zM88.432 86.174H71.659c-2.59 11.946-17.146 21.095-34.715 21.095h51.488c.298 0 .54-.228.54-.509V86.682c0-.28-.242-.508-.54-.508z"/>
    </g>
    <path d="M88.432 86.175H33.568c-.298 0-.54.227-.54.508v.66c0-.281.242-.51.54-.51h54.864c.298 0 .54.228.54.51v-.66c0-.28-.241-.508-.54-.508z" fill="#44352A" style="mix-blend-mode:screen" opacity=".3"/>
    <path d="M92.596 104.55h-63.19c-.376 0-.68.287-.68.64v3.169c0 .353.304.64.68.64h63.19c.375 0 .68-.287.68-.64v-3.169c0-.353-.305-.64-.68-.64z" fill="#44352A"/>
    <path d="M92.596 108.424h-63.19c-.376 0-.68-.287-.68-.641v.575c0 .354.304.641.68.641h63.19c.376 0 .68-.287.68-.641v-.575c0 .354-.304.641-.68.641z" fill="#44352A" style="mix-blend-mode:multiply" opacity=".3"/>
    <path d="M92.596 104.55h-63.19c-.376 0-.68.287-.68.64v.593c0-.354.304-.641.68-.641h63.19c.376 0 .68.287.68.641v-.593c0-.353-.304-.64-.68-.64z" fill="#44352A" style="mix-blend-mode:screen" opacity=".3"/>
    <path d="M92.595 104.55H74.578c.375 0 .68.287.68.64v3.169c0 .354-.305.641-.68.641h18.017c.376 0 .68-.287.68-.641v-3.169c0-.353-.304-.64-.68-.64z" fill="#44352A" style="mix-blend-mode:multiply" opacity=".3"/>
    <path d="M43.798 108.359v-3.169c0-.353.304-.64.68-.64h-9.802c-.375 0-.68.287-.68.64v3.169c0 .354.305.641.68.641h9.802c-.376 0-.68-.287-.68-.641z" fill="#44352A" style="mix-blend-mode:screen" opacity=".3"/>
    <path d="M83.912 89.285h-45.92v12.746h45.92V89.285z" fill="#DD6E00"/>
    <path d="M38.035 101.741V89.285h-.042v12.746h45.919v-.29H38.035z" fill="#EFCA6F" style="mix-blend-mode:multiply" opacity=".5"/>
    <path d="M83.912 89.285h-45.92v.223h45.92v-.223z" fill="#EFCA6F" style="mix-blend-mode:screen" opacity=".5"/>
    <path d="M42.982 86.174H79.02c0-.337-.035-.668-.096-.989H43.078c-.062.321-.096.651-.096.99z" fill="#F8B805" style="mix-blend-mode:multiply" opacity=".5"/>
    <path d="M70.691 89.285c-2.085 5.118-6.421 9.557-12.2 12.746h25.422V89.285H70.69z" fill="#EFCA6F" style="mix-blend-mode:multiply" opacity=".3"/>
    <path d="M39.742 91.53c.435 0 .788-.333.788-.742 0-.41-.353-.742-.788-.742-.434 0-.787.332-.787.742s.352.741.787.741zM39.742 101.09c.435 0 .788-.332.788-.742s-.353-.742-.788-.742c-.434 0-.787.333-.787.742 0 .41.352.742.787.742zM82.163 91.53c.435 0 .788-.333.788-.742 0-.41-.353-.742-.788-.742-.435 0-.787.332-.787.742s.352.741.787.741zM82.163 101.09c.435 0 .788-.332.788-.742s-.353-.742-.788-.742c-.435 0-.787.333-.787.742 0 .41.352.742.787.742z" fill="#44352A"/>
</svg>
