<svg width="122" height="115" viewBox="0 0 122 115" fill="none" xmlns="http://www.w3.org/2000/svg">
    <path d="M52.56 80.683c2.79-4.766 4.577-12.102 4.577-20.33 0-.76-.016-1.511-.045-2.254h8.073a57.25 57.25 0 0 0-.045 2.255c0 8.227 1.787 15.563 4.577 20.33H52.56z" fill="#F8B805"/>
    <path d="M65.12 60.354c0-.76.016-1.512.046-2.255h-8.073a55.473 55.473 0 0 1-.122 6.56s3.885-2.233 8.317 0a55.527 55.527 0 0 1-.167-4.306z" fill="#F8B805" style="mix-blend-mode:multiply" opacity=".5"/>
    <path d="M59.106 58.098h-1.16c.023.743.036 1.495.036 2.255 0 8.227-1.41 15.563-3.609 20.33h2.463c1.397-4.767 2.294-12.103 2.294-20.33 0-.76-.01-1.512-.024-2.255z" fill="#F8B805" style="mix-blend-mode:screen" opacity=".5"/>
    <path d="M69.698 80.683h-4.275c-1.397-4.766-2.293-12.102-2.293-20.33 0-.76.008-1.511.022-2.254h2.014c-.03.743-.045 1.495-.045 2.255 0 8.227 1.787 15.563 4.577 20.33z" fill="#F8B805" style="mix-blend-mode:multiply" opacity=".5"/>
    <path d="M50.036 53.57h-.01c-6.302-.023-11.149-.475-15.253-1.423-4.918-1.135-8.828-3.012-11.954-5.737C16.12 40.57 13 30.764 13 15.554c0-.661.288-1.293.796-1.75a2.678 2.678 0 0 1 1.897-.67c.197.008 19.963.822 34.226.209a2.68 2.68 0 0 1 1.898.668c.51.457.797 1.09.797 1.751v35.386a2.35 2.35 0 0 1-.759 1.716 2.666 2.666 0 0 1-1.819.706zm-31.85-35.498c.305 12.32 2.913 20.23 8.14 24.787 4.32 3.767 10.72 5.55 21.133 5.829V18.279c-10.85.329-23.754-.022-29.274-.207z" fill="#F8B805"/>
    <path d="M20.528 15.839c-1.315-.04-2.404.976-2.344 2.21l.001.023c5.568.186 18.48.535 29.274.207v-2.307c-9.52.29-20.623.054-26.93-.133h-.001z" fill="#F8B805" style="mix-blend-mode:multiply" opacity=".5"/>
    <g style="mix-blend-mode:screen" opacity=".5" fill="#F8B805">
        <path d="M47.458 48.687v-.59c.052.299.055.502 0 .59zM18.184 18.049l.058.024-.058-.002c.306 12.32 2.914 20.23 8.14 24.787 4.321 3.767 10.721 5.55 21.134 5.829-.729 1.16-4.884.57-4.884.57-28.151-.33-24.39-31.208-24.39-31.208z"/>
    </g>
    <path d="M52.544 51.525V16.14c0-.661-.288-1.294-.796-1.75a2.679 2.679 0 0 0-1.899-.669c-14.262.614-34.028-.2-34.226-.208a2.678 2.678 0 0 0-1.896.67 2.39 2.39 0 0 0-.716 1.15c.056-.579.333-1.123.784-1.529a2.678 2.678 0 0 1 1.897-.669c.197.008 19.964.822 34.226.209a2.68 2.68 0 0 1 1.898.668c.51.457.797 1.09.797 1.751v35.385c0 .204-.027.405-.08.599.007-.073.011-.146.011-.22z" fill="#F8B805" style="mix-blend-mode:screen" opacity=".5"/>
    <path d="M45.425 52.635c2.358.026 4.436.155 6.265.367a2.677 2.677 0 0 1-1.654.566h-.01c-6.302-.022-11.148-.474-15.253-1.422-4.918-1.136-8.828-3.012-11.953-5.738-3.517-3.065-6.047-7.224-7.657-12.682 2.843 8.097 10.366 18.687 30.262 18.91z" fill="#F8B805" style="mix-blend-mode:multiply" opacity=".5"/>
    <path d="M70.403 52.864a2.351 2.351 0 0 1-.759-1.716V15.762c0-.662.288-1.294.797-1.751a2.68 2.68 0 0 1 1.898-.668c14.263.614 34.028-.2 34.227-.209a2.68 2.68 0 0 1 1.896.67c.508.456.796 1.089.796 1.75 0 15.21-3.12 25.015-9.82 30.856-3.125 2.725-7.036 4.602-11.954 5.737-4.104.948-8.95 1.4-15.252 1.423h-.01a2.665 2.665 0 0 1-1.82-.706zm4.396-34.584v30.409c10.413-.279 16.813-2.063 21.133-5.83 5.227-4.556 7.836-12.467 8.141-24.786-5.521.185-18.425.536-29.274.207z" fill="#F8B805"/>
    <path d="M74.798 15.972v2.307c10.794.328 23.706-.02 29.274-.207l.002-.022c.06-1.235-1.029-2.25-2.344-2.211-6.307.187-17.41.421-26.931.133z" fill="#F8B805" style="mix-blend-mode:multiply" opacity=".5"/>
    <g style="mix-blend-mode:screen" opacity=".5" fill="#F8B805">
        <path d="M74.798 48.688v-.59c-.052.299-.055.502 0 .59zM104.074 18.05l-.058.024.057-.002c-.305 12.319-2.913 20.23-8.14 24.787-4.32 3.766-10.72 5.55-21.133 5.829.728 1.16 4.884.57 4.884.57 28.152-.33 24.39-31.21 24.39-31.21v.002z"/>
    </g>
    <path d="M69.713 51.526V16.14c0-.661.288-1.294.797-1.75a2.679 2.679 0 0 1 1.898-.669c14.263.614 34.028-.2 34.226-.208a2.68 2.68 0 0 1 1.897.67c.351.315.598.715.715 1.15a2.366 2.366 0 0 0-.784-1.529 2.68 2.68 0 0 0-1.896-.669c-.198.008-19.964.822-34.227.209a2.68 2.68 0 0 0-1.898.668 2.353 2.353 0 0 0-.797 1.751v35.385c0 .204.027.404.08.599a2.367 2.367 0 0 1-.011-.22z" fill="#F8B805" style="mix-blend-mode:screen" opacity=".5"/>
    <path d="M76.833 52.635c-2.358.026-4.436.155-6.265.367a2.676 2.676 0 0 0 1.654.566h.01c6.302-.022 11.148-.474 15.253-1.422 4.918-1.136 8.828-3.012 11.953-5.738 3.517-3.065 6.047-7.224 7.657-12.682-2.844 8.097-10.366 18.687-30.262 18.91z" fill="#F8B805" style="mix-blend-mode:multiply" opacity=".5"/>
    <path d="M31.938 6a65.219 65.219 0 0 0-1.081 11.9c0 24.731 13.547 44.779 30.257 44.779S91.37 42.63 91.37 17.9c0-4.121-.377-8.111-1.081-11.901H31.938z" fill="#F8B805"/>
    <path d="M31.938 6a65.219 65.219 0 0 0-1.081 11.9c0 24.731 13.547 44.779 30.257 44.779S91.37 42.63 91.37 17.9c0-4.121-.377-8.111-1.081-11.901H31.938z" fill="#F8B805"/>
    <path d="M90.29 6H79.383c.44 3.79.677 7.78.677 11.9 0 24.731-8.483 44.779-18.947 44.779 16.71 0 30.257-20.048 30.257-44.778 0-4.121-.377-8.111-1.081-11.901z" fill="#F8B805" style="mix-blend-mode:multiply" opacity=".5"/>
    <path d="m61.8 21 3.964 7.549 8.866 1.21-6.415 5.876 1.514 8.297-7.93-3.917-7.93 3.917 1.515-8.297-6.416-5.876 8.866-1.21L61.8 21z" fill="#F7A108" style="mix-blend-mode:multiply" opacity=".5"/>
    <path d="M42.167 17.9c0-4.12.236-8.11.677-11.9h-7.462a73.71 73.71 0 0 0-.953 11.9c0 24.731 11.947 44.779 26.684 44.779-10.464 0-18.946-20.048-18.946-44.778z" fill="#F8B805" style="mix-blend-mode:screen" opacity=".5"/>
    <path d="M45.454 13.743c-3.513 0-6.361-2.676-6.361-5.977 0 3.3-2.848 5.977-6.362 5.977 3.514 0 6.362 2.676 6.362 5.977 0-3.301 2.848-5.977 6.361-5.977zM47.976 19.719c-1.393 0-2.521-1.06-2.521-2.37 0 1.31-1.13 2.37-2.522 2.37 1.393 0 2.522 1.06 2.522 2.369 0-1.309 1.128-2.37 2.521-2.37z" fill="#fff"/>
    <path d="M60.694 6.883c15.883 0 28.757-.395 28.757-.883H31.938c0 .487 12.875.883 28.756.883z" fill="#F8B805" style="mix-blend-mode:screen" opacity=".5"/>
    <path d="M73.35 80.683H48.908c-3.228 0-5.845 2.458-5.845 5.491h36.133c0-3.033-2.616-5.491-5.844-5.491z" fill="#F8B805"/>
    <path d="M48.908 81.095h24.444c3.08 0 5.602 2.24 5.826 5.08h.019c0-3.034-2.617-5.492-5.845-5.492H48.908c-3.228 0-5.845 2.458-5.845 5.491h.018c.225-2.84 2.747-5.079 5.827-5.079z" fill="#F8B805" style="mix-blend-mode:screen" opacity=".5"/>
    <path d="M79.195 86.174h-6.537c0-3.033-1.67-5.491-3.73-5.491h4.423c3.227 0 5.844 2.458 5.844 5.49z" fill="#F8B805" style="mix-blend-mode:multiply" opacity=".5"/>
    <path d="M56.124 80.683h-4.825c-3.227 0-5.844 2.458-5.844 5.491h4.824c0-3.033 2.617-5.491 5.845-5.491z" fill="#F8B805" style="mix-blend-mode:screen" opacity=".5"/>
    <path d="M88.635 86.175H33.623c-.3 0-.541.228-.541.508v20.078c0 .281.242.509.54.509h55.012c.298 0 .54-.228.54-.509V86.683c0-.28-.242-.508-.54-.508z" fill="#44352A"/>
    <path d="M88.635 103.644H33.623c-.299 0-.541-.227-.541-.508v3.626c0 .28.242.508.54.508h55.012c.299 0 .541-.227.541-.508v-3.626c0 .28-.242.508-.54.508h-.001z" fill="#44352A" style="mix-blend-mode:multiply" opacity=".3"/>
    <path d="M88.635 86.175H33.623c-.299 0-.541.227-.541.508v.66c0-.281.242-.51.54-.51h55.012c.299 0 .541.228.541.51v-.66c0-.28-.242-.508-.54-.508h-.001z" fill="#44352A" style="mix-blend-mode:screen" opacity=".3"/>
    <path d="M92.808 104.549h-63.36c-.376 0-.68.287-.68.64v3.169c0 .354.304.64.68.64h63.36c.377 0 .682-.286.682-.64v-3.169c0-.353-.305-.64-.681-.64z" fill="#44352A"/>
    <path d="M92.808 108.425h-63.36c-.375 0-.68-.287-.68-.641v.575c0 .354.305.641.68.641H92.81c.376 0 .682-.287.682-.641v-.575c0 .354-.306.641-.682.641z" fill="#44352A" style="mix-blend-mode:multiply" opacity=".3"/>
    <path d="M92.808 104.549h-63.36c-.375 0-.68.287-.68.64v.593c0-.354.305-.641.68-.641H92.81c.376 0 .682.287.682.641v-.593c0-.353-.306-.64-.682-.64z" fill="#44352A" style="mix-blend-mode:screen" opacity=".3"/>
    <path d="M92.809 104.549H74.743c.376 0 .681.287.681.64v3.169c0 .354-.305.641-.681.641h18.066c.376 0 .681-.287.681-.641v-3.169c0-.353-.305-.64-.681-.64z" fill="#44352A" style="mix-blend-mode:multiply" opacity=".3"/>
    <path d="M43.88 108.358v-3.169c0-.353.306-.64.683-.64h-9.829c-.376 0-.681.287-.681.64v3.169c0 .354.305.641.681.641h9.829c-.377 0-.682-.287-.682-.641z" fill="#44352A" style="mix-blend-mode:screen" opacity=".3"/>
    <path d="M84.103 89.285H38.061v12.746h46.042V89.285z" fill="#EFCA6F"/>
    <path d="M38.103 101.741V89.285h-.043v12.746h46.043v-.29h-46z" fill="#EFCA6F" style="mix-blend-mode:multiply" opacity=".5"/>
    <path d="M84.103 89.285H38.061v.223h46.042v-.223z" fill="#EFCA6F" style="mix-blend-mode:screen" opacity=".5"/>
    <path d="M43.063 86.174h36.133c0-.337-.034-.668-.096-.989H43.16c-.063.321-.097.651-.097.99z" fill="#F8B805" style="mix-blend-mode:multiply" opacity=".5"/>
    <path d="M70.846 89.285c-2.091 5.118-6.44 9.557-12.233 12.746h25.49V89.285H70.846z" fill="#EFCA6F" style="mix-blend-mode:multiply" opacity=".3"/>
    <path d="M39.814 91.53c.436 0 .79-.332.79-.741 0-.41-.354-.742-.79-.742-.436 0-.79.332-.79.742s.354.741.79.741zM39.814 101.091c.436 0 .79-.332.79-.742s-.354-.742-.79-.742c-.436 0-.79.332-.79.742s.354.742.79.742zM82.349 91.53c.436 0 .79-.332.79-.741 0-.41-.354-.742-.79-.742-.436 0-.79.332-.79.742s.354.741.79.741zM82.349 101.091c.436 0 .79-.332.79-.742s-.354-.742-.79-.742c-.436 0-.79.332-.79.742s.354.742.79.742z" fill="#44352A"/>
</svg>
