<svg width="24" height="24" viewBox="0 0 24 24" fill="none" xmlns="http://www.w3.org/2000/svg">
<path d="M22.4217 6.82548L20.5307 8.71637C20.338 8.90915 20.0262 8.90915 19.8334 8.71637L15.2805 4.16346C15.0877 3.97067 15.0877 3.65894 15.2805 3.46616L17.1714 1.57527C17.9384 0.808244 19.1854 0.808244 19.9565 1.57527L22.4217 4.0404C23.1928 4.80743 23.1928 6.05435 22.4217 6.82548ZM13.6562 5.09045L2.88501 15.8616L2.01544 20.8452C1.89648 21.5179 2.48303 22.1003 3.15572 21.9855L8.13935 21.1118L18.9106 10.3407C19.1033 10.1479 19.1033 9.83614 18.9106 9.64336L14.3576 5.09045C14.1607 4.89767 13.849 4.89767 13.6562 5.09045ZM7.0893 14.9387C6.86371 14.7131 6.86371 14.3521 7.0893 14.1265L13.406 7.80989C13.6316 7.5843 13.9926 7.5843 14.2181 7.80989C14.4437 8.03549 14.4437 8.39644 14.2181 8.62203L7.90145 14.9387C7.67585 15.1643 7.3149 15.1643 7.0893 14.9387ZM5.60857 18.3882H7.57741V19.8772L4.93178 20.3407L3.65614 19.065L4.11963 16.4194H5.60857V18.3882Z" fill="white"/>
<path d="M2 22H21" stroke="white" stroke-width="2" stroke-linecap="round"/>
</svg>
