<svg width="198" height="180" viewBox="0 0 198 180" fill="none" xmlns="http://www.w3.org/2000/svg">
<g clip-path="url(#clip0_2238_49995)">
<path fill-rule="evenodd" clip-rule="evenodd" d="M109.414 -36.4758C109.664 -35.9291 109.928 -35.3871 110.206 -34.8547C104.805 -35.3871 98.6749 -34.4135 92.2523 -31.4303C96.3534 -24.3896 101.663 -19.7517 107.184 -17.2721C104.225 -14.2169 102.522 -8.89803 100.934 -3.4688C118.912 2.56955 130.577 -7.96278 130.865 -20.3752H130.87C130.898 -20.3416 130.932 -20.308 130.961 -20.2745C130.951 -20.3176 130.937 -20.3608 130.922 -20.404C141.537 -14.6006 156.004 -19.0467 160.215 -36.4758H109.414Z" fill="#F69754"/>
<path fill-rule="evenodd" clip-rule="evenodd" d="M94.4109 -1.0036C97.3896 0.713421 98.4161 4.55513 96.6989 7.52874L91.9887 15.6822C86.0313 26.0035 83.8537 27.2792 71.9438 27.2792H62.485C59.0506 27.2792 56.235 24.4687 56.235 21.0299C56.235 17.591 59.0458 14.7805 62.485 14.7805C67.0513 14.7134 66.1351 11.169 63.8664 11.0107C62.8399 10.9388 61.5496 11.1642 60.5327 11.0251H53.0981C49.6637 11.0251 46.8481 8.21458 46.8481 4.77575C46.8481 1.34172 49.6589 -1.47362 53.0981 -1.47362H55.9376C56.0959 -1.52158 56.2494 -1.58873 56.3981 -1.67506C57.3718 -2.23621 57.7076 -3.4832 57.1464 -4.46161C56.5036 -5.57911 55.3381 -5.23379 54.1485 -5.23379H46.3493C42.9102 -5.23379 40.0994 -8.04433 40.0994 -11.4832C40.0994 -14.9172 42.9102 -17.7325 46.3493 -17.7325H49.1217C49.2033 -17.7661 49.28 -17.8045 49.3567 -17.8476C50.3304 -18.4088 50.6662 -19.6558 50.105 -20.6342C48.9394 -22.6534 46.2726 -22.7397 45.4523 -27.3824C44.8096 -31.0178 46.2582 -33.9339 48.5845 -35.4591C49.3424 -35.9579 50.1913 -36.308 51.0931 -36.4902H53.9758C55.2997 -36.2312 56.6379 -35.6077 57.8802 -34.5622C61.4873 -31.531 60.2306 -29.1761 61.3961 -27.1569C61.9573 -26.1833 63.2044 -25.8476 64.1829 -26.4087C64.2597 -26.4519 64.3316 -26.4999 64.4036 -26.5526L65.9817 -29.2912C67.6988 -32.2696 71.5409 -33.296 74.5148 -31.579C77.4934 -29.862 78.5199 -26.0203 76.8027 -23.0467L72.7064 -15.9532C72.1117 -14.922 71.2339 -14.0875 71.8766 -12.97C72.4378 -11.9963 73.6849 -11.6606 74.6634 -12.2218C74.8121 -12.3081 74.9464 -12.4088 75.0664 -12.5239L76.4861 -14.9795C78.2033 -17.9532 82.0454 -18.9843 85.0192 -17.2673C87.9979 -15.5503 89.0244 -11.7086 87.3072 -8.73497L83.5899 -2.29855C83.2013 -1.34892 82.3619 -0.341728 81.9111 0.579132C80.9134 2.62708 83.5275 5.18822 85.8682 1.26977C87.5854 -1.70863 91.4275 -2.735 94.4013 -1.01798L94.4109 -1.0036Z" fill="#FF6633"/>
<path d="M65.4012 19.6774C65.2669 19.6774 65.1614 19.7829 65.1614 19.9172C65.1614 20.0515 65.2669 20.157 65.4012 20.157H80.9037L89.7438 35.471C89.811 35.5862 89.9597 35.6245 90.0748 35.5574C90.1899 35.4902 90.2283 35.3416 90.1611 35.2264L81.321 19.9124L89.0723 6.48798C89.1395 6.37287 89.1011 6.22419 88.986 6.15704C88.8708 6.0899 88.7222 6.12827 88.655 6.24337L81.0428 19.428L72.2124 4.13307L79.9636 -9.29132C80.0308 -9.40643 79.9924 -9.55511 79.8773 -9.62225C79.7622 -9.6894 79.6135 -9.65103 79.5463 -9.53113L71.9342 3.65346L63.1037 -11.6366L70.8549 -25.061C70.9221 -25.1761 70.8837 -25.3248 70.7686 -25.392C70.6535 -25.4591 70.5048 -25.4207 70.4376 -25.3008L62.8255 -12.1162L53.4482 -28.356C53.381 -28.4711 53.2323 -28.5094 53.1172 -28.4423C53.0021 -28.3752 52.9637 -28.2265 53.0309 -28.1114L62.4082 -11.8716H47.1839C47.0496 -11.8716 46.944 -11.7661 46.944 -11.6318C46.944 -11.4975 47.0496 -11.392 47.1839 -11.392H62.6864L71.5169 3.90286H56.2925C56.1582 3.90286 56.0527 4.00837 56.0527 4.14267C56.0527 4.27696 56.1582 4.38247 56.2925 4.38247H71.7951L80.6255 19.6726H65.4012V19.6774Z" fill="#663300"/>
<path fill-rule="evenodd" clip-rule="evenodd" d="M236.605 35.4376C239.929 5.5289 237.977 -11.9099 199.748 -28.3894C194.909 12.9533 209.039 23.3609 236.605 35.4376Z" fill="#A9AF57"/>
<path fill-rule="evenodd" clip-rule="evenodd" d="M191.534 39.7542L195.323 25.6056C196.584 20.8958 193.764 16.0133 189.054 14.7519C184.924 13.644 180.66 15.6776 178.823 19.3706L178.866 19.2171C179.926 15.2651 177.556 11.1596 173.604 10.1045C169.652 9.04453 165.546 11.4138 164.486 15.3658L164.222 16.349L160.596 10.0709C158.351 6.18603 153.338 4.84311 149.453 7.0877C145.568 9.33229 144.225 14.3443 146.47 18.2291L150.096 24.5073L149.113 24.2435C145.16 23.1835 141.054 25.5528 139.999 29.5049C138.939 33.4569 141.309 37.5624 145.261 38.6223L145.415 38.6655C141.299 38.4113 137.404 41.0875 136.301 45.217C135.04 49.9268 137.86 54.8093 142.57 56.0707L156.95 59.922C165.047 62.0898 171.609 63.1977 179.609 58.3776C187.447 53.6534 189.413 47.6726 191.534 39.759V39.7542Z" fill="#F65E54"/>
<path d="M182.692 29.1114C182.725 28.9819 182.649 28.8524 182.519 28.814C182.39 28.7804 182.255 28.8572 182.222 28.9867L175.142 55.4134L164.868 37.6197L169.856 19.0107C169.89 18.8812 169.813 18.7469 169.684 18.7133C169.554 18.6798 169.425 18.7565 169.386 18.886L164.523 37.0298L153.51 17.9556C153.442 17.8404 153.294 17.8021 153.179 17.8692C153.064 17.9364 153.025 18.085 153.092 18.2002L164.096 37.2552L145.979 32.4015C145.849 32.368 145.72 32.4447 145.682 32.5742C145.648 32.7037 145.725 32.8332 145.854 32.8715L164.436 37.8499L174.71 55.6436L148.31 48.5693C148.181 48.5357 148.046 48.6125 148.013 48.742C147.979 48.8715 148.056 49.001 148.185 49.0393L175.051 56.2383L184.16 72.008C184.227 72.1232 184.376 72.1615 184.491 72.0944C184.606 72.0272 184.644 71.8785 184.577 71.7634L175.483 56.0081L182.687 29.1162L182.692 29.1114Z" fill="#663300"/>
<path fill-rule="evenodd" clip-rule="evenodd" d="M93.7584 41.3369L124.068 93.8355C137.589 73.754 128.711 47.663 93.7584 41.3369Z" fill="#F69754"/>
<path fill-rule="evenodd" clip-rule="evenodd" d="M93.7586 41.3369L124.068 93.8355C99.9126 95.5045 81.7575 74.7708 93.7586 41.3369Z" fill="#F69754"/>
<path d="M106.618 63.1688L109.851 53.7204C109.889 53.6101 109.827 53.5045 109.717 53.4854C109.606 53.4614 109.482 53.5333 109.448 53.6436L106.349 62.7035L100.44 52.4686C100.387 52.3774 100.258 52.3535 100.152 52.411C100.047 52.4734 100.004 52.5981 100.056 52.6892L105.966 62.9194L96.5693 61.0776C96.459 61.0537 96.3342 61.1256 96.3007 61.2359C96.2623 61.3462 96.3246 61.4517 96.435 61.4709L106.239 63.3942L112.053 73.4565L98.2433 70.7467C98.133 70.7227 98.0082 70.7946 97.9747 70.9049C97.9363 71.0152 97.9986 71.1208 98.109 71.1399L112.326 73.9313L118.59 84.785L101.754 81.4804C101.639 81.4564 101.519 81.5284 101.486 81.6387C101.447 81.749 101.51 81.8545 101.62 81.8737L118.864 85.255L128.73 102.344C128.783 102.435 128.913 102.464 129.018 102.401C129.124 102.339 129.167 102.214 129.114 102.123L119.247 85.0344L124.936 68.4109C124.975 68.3006 124.912 68.1951 124.802 68.1759C124.692 68.1567 124.567 68.2239 124.533 68.3342L118.979 84.5643L112.715 73.7107L117.406 60.0081C117.444 59.8978 117.382 59.7923 117.271 59.7731C117.161 59.7491 117.036 59.821 117.003 59.9314L112.446 73.2406L106.632 63.1783L106.618 63.1688Z" fill="#663300"/>
<path fill-rule="evenodd" clip-rule="evenodd" d="M39.0633 74.2527L39.025 74.2383C36.7082 84.9385 38.2959 93.562 41.9605 100.631C36.5595 100.099 30.4295 101.073 24.0069 104.056C28.108 111.097 33.4178 115.735 38.9386 118.214C35.9743 121.264 34.2764 126.588 32.6887 132.017C50.6662 138.056 62.3315 127.523 62.6193 115.111H62.6241C62.6529 115.145 62.6864 115.178 62.7152 115.212C62.7056 115.169 62.6912 115.125 62.6768 115.082C73.5698 121.039 88.5208 116.2 92.2813 97.6099C86.7844 96.2718 81.3259 95.0824 77.2008 96.1231C77.8148 90.104 76.4526 83.1879 72.4043 76.1136C66.61 80.1808 62.7008 85.0057 60.4608 89.9505C56.1679 83.2455 49.4959 77.5573 39.0681 74.2144L39.0585 74.2527H39.0633Z" fill="#907C20"/>
<path d="M72.9224 133.26C72.9703 133.346 73.0806 133.375 73.167 133.327C73.2533 133.279 73.2821 133.168 73.2341 133.082L46.5028 86.7897C46.4549 86.7034 46.3446 86.6746 46.2582 86.7226C46.1719 86.7705 46.1431 86.8808 46.1911 86.9672L72.9224 133.26Z" fill="#663300"/>
<path d="M33.6384 107.241C33.5424 107.217 33.4417 107.274 33.4177 107.37C33.3937 107.466 33.4513 107.567 33.5472 107.591L62.2499 115.279L43.078 126.348C42.9917 126.396 42.9629 126.507 43.0109 126.593C43.0588 126.679 43.1692 126.708 43.2555 126.66L62.8015 115.375C62.8399 115.351 62.8735 115.312 62.8831 115.264C62.907 115.169 62.8543 115.068 62.7536 115.044L33.6336 107.241H33.6384Z" fill="#663300"/>
<path d="M70.6871 86.1423C70.7111 86.0464 70.6584 85.9457 70.5576 85.9217C70.4617 85.8977 70.361 85.9553 70.337 86.0512L62.533 115.169C62.509 115.264 62.5665 115.365 62.6625 115.389C62.7104 115.404 62.7584 115.394 62.8016 115.37L82.3524 104.085C82.4387 104.037 82.4675 103.926 82.4195 103.84C82.3716 103.754 82.2613 103.725 82.1749 103.773L63.003 114.842L70.6919 86.1423H70.6871Z" fill="#663300"/>
<path fill-rule="evenodd" clip-rule="evenodd" d="M187.037 76.6316L187.047 76.5933C197.475 79.9362 204.147 85.6244 208.44 92.3294C210.68 87.3894 214.589 82.5645 220.383 78.4925C224.432 85.5668 225.794 92.4781 225.18 98.502C229.305 97.4613 234.763 98.6507 240.26 99.9888C236.5 118.579 221.549 123.413 210.656 117.452C210.67 117.5 210.68 117.543 210.694 117.586C210.661 117.552 210.632 117.524 210.603 117.49H210.598C210.315 129.902 198.65 140.43 180.668 134.392C182.255 128.962 183.958 123.639 186.918 120.588C181.397 118.109 176.087 113.471 171.986 106.43C178.408 103.447 184.538 102.473 189.939 103.006C186.275 95.9361 184.687 87.3126 187.004 76.6124L187.042 76.6268L187.037 76.6316Z" fill="#A9AF57"/>
<path d="M221.208 135.456C221.256 135.543 221.227 135.653 221.141 135.701C221.055 135.749 220.944 135.72 220.896 135.634L194.165 89.3414C194.117 89.2551 194.146 89.1448 194.232 89.0968C194.319 89.0489 194.429 89.0776 194.477 89.164L221.208 135.456Z" fill="#663300"/>
<path d="M181.522 109.965C181.426 109.941 181.368 109.84 181.392 109.744C181.416 109.648 181.517 109.591 181.613 109.615L210.733 117.418C210.829 117.442 210.886 117.543 210.862 117.638C210.848 117.686 210.819 117.725 210.776 117.749L191.225 129.034C191.139 129.082 191.028 129.053 190.98 128.967C190.932 128.881 190.961 128.77 191.048 128.722L210.219 117.653L181.522 109.965Z" fill="#663300"/>
<path fill-rule="evenodd" clip-rule="evenodd" d="M134.05 122.464C130.942 117.864 129.2 111.845 128.845 102.492C136.769 107.476 141.11 111.994 143.542 116.986C143.734 116.037 143.935 115.039 144.146 113.994L145.657 106.55C150.583 112.334 153.337 117.389 154.478 121.936L154.828 121.116L157.788 114.233C161.673 121.48 163.333 127.332 163.362 132.214C163.712 131.72 164.076 131.212 164.446 130.684L168.652 124.761C174.883 143.538 164.244 158.305 162.239 160.31C159.265 162.027 141.388 162.871 128.241 148.089L135.474 147.408C136.117 147.346 136.736 147.288 137.34 147.231C133.129 144.766 128.889 140.401 124.552 133.413L131.992 134.291L132.875 134.396C129.503 131.135 126.505 126.224 123.958 119.063L131.157 121.476C132.169 121.816 133.134 122.137 134.05 122.449V122.464Z" fill="#A9AF57"/>
<path d="M140.084 152.842C139.964 152.833 139.873 152.727 139.882 152.612C139.892 152.492 139.997 152.401 140.117 152.411L158.133 153.825L154.378 147.317L132.323 138.262C132.213 138.219 132.16 138.089 132.203 137.979C132.246 137.869 132.376 137.816 132.486 137.859L154.023 146.698L147.418 135.26L131.517 126.08C131.412 126.022 131.378 125.888 131.436 125.782C131.493 125.677 131.627 125.643 131.733 125.701L146.986 134.507L133.719 111.533C133.661 111.428 133.695 111.298 133.8 111.236C133.906 111.178 134.035 111.212 134.098 111.317L147.365 134.291V116.684C147.365 116.564 147.461 116.468 147.581 116.468C147.701 116.468 147.797 116.564 147.797 116.684V135.044L154.402 146.482L157.515 123.413C157.529 123.293 157.639 123.212 157.759 123.226C157.879 123.24 157.961 123.351 157.946 123.471L154.761 147.096L158.517 153.605L166.302 137.298C166.355 137.188 166.484 137.144 166.59 137.197C166.7 137.25 166.743 137.379 166.69 137.485L158.781 154.06L169.65 172.885C169.712 172.991 169.674 173.12 169.568 173.183C169.463 173.245 169.333 173.207 169.271 173.101L158.402 154.276L140.093 152.842H140.084Z" fill="#663300"/>
<path fill-rule="evenodd" clip-rule="evenodd" d="M84.3715 192.334L70.2216 188.545C65.5114 187.283 62.691 182.401 63.9525 177.691C65.0605 173.562 68.9506 170.885 73.066 171.14L72.9125 171.096C68.9553 170.036 66.5906 165.936 67.6507 161.979C68.7107 158.027 72.8118 155.658 76.769 156.718L77.7523 156.981L74.126 150.703C71.8813 146.818 73.2243 141.806 77.1095 139.562C80.9947 137.317 86.0072 138.665 88.2519 142.545L91.8782 148.823L92.142 147.84C93.202 143.888 97.3031 141.519 101.26 142.579C105.213 143.638 107.582 147.739 106.522 151.696L106.479 151.849C108.316 148.156 112.58 146.128 116.71 147.231C121.42 148.492 124.241 153.375 122.979 158.084L119.127 172.463C116.959 180.559 114.633 186.794 106.46 191.312C98.4495 195.739 92.2859 194.449 84.3715 192.329V192.334Z" fill="#F65E54"/>
<path d="M77.6471 180.094C77.5176 180.06 77.4408 179.926 77.4744 179.797C77.508 179.667 77.6423 179.59 77.7718 179.624L104.201 186.703L93.9266 168.909L75.3159 163.921C75.1864 163.888 75.1097 163.754 75.1433 163.624C75.1768 163.495 75.3111 163.418 75.4406 163.451L93.5861 168.315L82.5731 149.24C82.506 149.125 82.5444 148.977 82.6595 148.91C82.7746 148.842 82.9233 148.881 82.9904 148.996L93.9938 168.051L98.8479 149.936C98.8815 149.806 99.0158 149.73 99.1453 149.763C99.2748 149.797 99.3515 149.931 99.318 150.061L94.3391 168.641L104.613 186.434L111.688 160.037C111.722 159.907 111.856 159.83 111.986 159.864C112.115 159.897 112.192 160.032 112.158 160.161L104.959 187.024L114.067 202.794C114.135 202.909 114.096 203.058 113.981 203.125C113.866 203.192 113.717 203.154 113.65 203.039L104.556 187.283L77.6615 180.08L77.6471 180.094Z" fill="#663300"/>
<rect x="151" y="15" width="9" height="16" fill="#F65E54"/>
</g>
<defs>
<clipPath id="clip0_2238_49995">
<rect width="198" height="180" fill="white"/>
</clipPath>
</defs>
</svg>
