<svg width="189" height="180" viewBox="0 0 189 180" fill="none" xmlns="http://www.w3.org/2000/svg">
<g clip-path="url(#clip0_2238_50048)">
<path fill-rule="evenodd" clip-rule="evenodd" d="M24.7758 152.195H116.694C122.371 152.195 127.015 156.845 127.015 162.528C127.015 168.21 122.371 172.86 116.694 172.86H24.7758C19.0989 172.86 14.4541 168.21 14.4541 162.528C14.4541 156.845 19.0989 152.195 24.7758 152.195Z" fill="#68AFA7"/>
<path d="M183.818 142.676H137.622C134.758 142.676 132.436 145 132.436 147.867V147.871C132.436 150.738 134.758 153.062 137.622 153.062H183.818C186.682 153.062 189.004 150.738 189.004 147.871V147.867C189.004 145 186.682 142.676 183.818 142.676Z" fill="#68AFA7"/>
<path fill-rule="evenodd" clip-rule="evenodd" d="M0 39.6248C30.2651 34.773 52.2006 21.547 62.0893 6.47138L0 -1.2561V39.6248Z" fill="#8B3D1C"/>
<path fill-rule="evenodd" clip-rule="evenodd" d="M46.7366 81.8676L97.158 63.7068L107.714 93.0669C122.075 127.376 158.475 84.5555 165.022 115.592L150.965 121.09C128.495 129.038 124.662 132.983 114.377 133.276C109.876 133.406 102.312 132.81 94.4874 131.589L98.1397 141.798L71.7037 151.321L64.8646 132.3L46.7366 81.8676Z" fill="#B26140"/>
<path fill-rule="evenodd" clip-rule="evenodd" d="M103.47 107.033C105.156 106.427 107.018 107.301 107.624 108.992C108.231 110.679 107.357 112.543 105.668 113.15C103.979 113.757 102.121 112.882 101.514 111.192C100.908 109.501 101.781 107.64 103.47 107.033Z" fill="#CC894C"/>
<path fill-rule="evenodd" clip-rule="evenodd" d="M103.366 109.053L111.926 98.7244C112.547 97.973 113.669 97.8682 114.416 98.4932C115.167 99.1146 115.272 100.238 114.647 100.99L106.087 111.318C105.466 112.07 104.344 112.174 103.593 111.549C102.842 110.928 102.738 109.804 103.362 109.053H103.366Z" fill="#F7F7F7"/>
<path fill-rule="evenodd" clip-rule="evenodd" d="M71.9311 159.03L63.9082 135.978L94.1084 125.1L123.655 130.429L165.213 115.462L168.024 114.45L171.449 123.98L121.349 142.026C115.275 140.931 96.0464 134.378 99.3415 143.543L101.128 148.514L71.9275 159.03H71.9311Z" fill="#8B3D1C"/>
<path fill-rule="evenodd" clip-rule="evenodd" d="M114.073 112.853C115.492 111.755 117.531 112.019 118.628 113.442C119.725 114.862 119.462 116.903 118.04 118.001C116.621 119.1 114.582 118.836 113.485 117.413C112.388 115.993 112.651 113.952 114.07 112.853H114.073Z" fill="#CC894C"/>
<path fill-rule="evenodd" clip-rule="evenodd" d="M125.684 114.826C126.698 113.345 128.719 112.969 130.199 113.988C131.678 115.003 132.054 117.026 131.036 118.507C130.022 119.989 128.001 120.364 126.521 119.346C125.041 118.33 124.666 116.307 125.684 114.826Z" fill="#CC894C"/>
<path fill-rule="evenodd" clip-rule="evenodd" d="M114.593 114.808L119.574 102.348C119.935 101.445 120.97 101 121.876 101.362C122.779 101.723 123.222 102.76 122.862 103.666L117.881 116.127C117.52 117.03 116.484 117.474 115.579 117.113C114.676 116.752 114.232 115.715 114.593 114.808Z" fill="#F7F7F7"/>
<path fill-rule="evenodd" clip-rule="evenodd" d="M126.777 116.528L127.697 103.135C127.766 102.164 128.614 101.423 129.585 101.492C130.556 101.56 131.296 102.409 131.227 103.381L130.307 116.773C130.238 117.745 129.39 118.486 128.419 118.421C127.448 118.352 126.708 117.503 126.777 116.531V116.528Z" fill="#F7F7F7"/>
<path fill-rule="evenodd" clip-rule="evenodd" d="M97.1616 94.9527C98.9372 95.1984 100.179 96.8421 99.9297 98.6196C99.6843 100.397 98.0422 101.64 96.2665 101.39C94.4909 101.145 93.2494 99.5011 93.4984 97.7236C93.7438 95.9462 95.3859 94.7034 97.1616 94.9527Z" fill="#CC894C"/>
<path fill-rule="evenodd" clip-rule="evenodd" d="M93.4589 84.7759C95.2165 85.1408 96.3425 86.8568 95.9816 88.6161C95.6207 90.3755 93.9029 91.5027 92.1453 91.1414C90.3877 90.7765 89.2581 89.0605 89.6226 87.3011C89.9871 85.5418 91.705 84.4146 93.4589 84.7759Z" fill="#CC894C"/>
<path fill-rule="evenodd" clip-rule="evenodd" d="M96.1331 96.694L108.508 91.5315C109.407 91.1558 110.45 91.5857 110.822 92.4853C111.197 93.3848 110.768 94.4289 109.869 94.801L97.4937 99.9635C96.595 100.339 95.552 99.9093 95.1803 99.0097C94.805 98.1102 95.2344 97.0661 96.1331 96.694Z" fill="#F7F7F7"/>
<path fill-rule="evenodd" clip-rule="evenodd" d="M92.3149 86.4448L105.004 82.106C105.924 81.7917 106.935 82.2866 107.253 83.2115C107.567 84.1327 107.072 85.1443 106.148 85.4622L93.459 89.801C92.5387 90.1153 91.5281 89.6204 91.2106 88.6955C90.8966 87.7743 91.391 86.7627 92.3113 86.4448H92.3149Z" fill="#F7F7F7"/>
<path fill-rule="evenodd" clip-rule="evenodd" d="M52.2403 79.812L84.4471 68.6741L48.3968 -31.6206L13.4977 -20.0926L52.2403 79.812Z" fill="#EC8151"/>
<path fill-rule="evenodd" clip-rule="evenodd" d="M62.0893 6.47144C38.7102 15.4056 18.2543 19.4409 0 20.4561V-31.718H49.0861L62.0857 6.47144H62.0893Z" fill="#B26140"/>
<path fill-rule="evenodd" clip-rule="evenodd" d="M123.868 66.5825C122.382 69.1619 123.273 72.4892 125.846 73.9776L132.905 78.0563C141.838 83.2188 144.021 83.2332 152.95 78.0743L160.041 73.9776C162.618 72.4892 163.51 69.1619 162.023 66.5825C160.536 64.003 157.212 63.1107 154.635 64.5991C151.185 66.5283 150.337 63.472 151.968 62.3665C152.704 61.8679 153.769 61.4778 154.473 60.9323L160.045 57.7134C162.622 56.225 163.513 52.8977 162.026 50.3183C160.54 47.7388 157.216 46.8465 154.639 48.3349L152.509 49.5668C152.372 49.5993 152.228 49.6174 152.076 49.6174C151.102 49.6174 150.312 48.8262 150.312 47.8508C150.312 46.7345 151.333 46.4888 152.224 45.9722L158.071 42.5944C160.648 41.106 161.539 37.7787 160.052 35.1993C158.565 32.6198 155.242 31.7275 152.665 33.2159L150.586 34.4189C150.51 34.4298 150.434 34.4334 150.359 34.4334C149.384 34.4334 148.594 33.6422 148.594 32.6668C148.594 30.6473 150.557 29.4262 149.164 25.586C148.07 22.5766 145.725 21.0196 143.317 20.8823C140.658 20.7305 137.926 22.3129 136.738 25.586C135.345 29.4226 137.308 30.6473 137.308 32.6668C137.308 33.6422 136.518 34.4334 135.544 34.4334C135.468 34.4334 135.392 34.4298 135.316 34.4189L132.945 33.0497C130.368 31.5613 127.044 32.4536 125.557 35.0331C124.071 37.6125 124.962 40.9398 127.539 42.4282L133.678 45.9758C134.569 46.4924 135.59 46.7381 135.59 47.8544C135.59 48.8298 134.8 49.621 133.826 49.621C133.678 49.621 133.533 49.6029 133.393 49.5668L131.263 48.3385C128.686 46.8501 125.363 47.7424 123.876 50.3219C122.389 52.9013 123.28 56.2286 125.853 57.717L131.426 60.9359C132.129 61.4814 133.194 61.8715 133.93 62.3701C135.562 63.4756 134.713 66.5319 131.263 64.6027C128.686 63.1143 125.363 64.0066 123.876 66.5861L123.868 66.5825Z" fill="#EC915C"/>
<path d="M154.57 69.5377C154.671 69.4799 154.797 69.5124 154.855 69.6135C154.913 69.7147 154.877 69.8411 154.779 69.8989L143.155 76.6149V91.9362C143.155 92.0518 143.061 92.1457 142.945 92.1457C142.83 92.1457 142.736 92.0518 142.736 91.9362V76.6149L131.115 69.8989C131.014 69.8411 130.982 69.7147 131.039 69.6135C131.097 69.5124 131.223 69.4799 131.324 69.5377L142.736 76.1344V60.8312L131.115 54.1152C131.014 54.0574 130.982 53.931 131.039 53.8298C131.097 53.7287 131.223 53.6962 131.324 53.754L142.736 60.3507V45.0474L131.115 38.3315C131.014 38.2737 130.982 38.1473 131.039 38.0461C131.097 37.9449 131.223 37.9124 131.324 37.9702L142.736 44.567V28.3172C142.736 28.2016 142.83 28.1077 142.945 28.1077C143.061 28.1077 143.155 28.2016 143.155 28.3172V44.567L154.566 37.9702C154.667 37.9124 154.794 37.9449 154.851 38.0461C154.909 38.1473 154.873 38.2737 154.776 38.3315L143.151 45.0474V60.3507L154.563 53.754C154.664 53.6962 154.79 53.7287 154.848 53.8298C154.906 53.931 154.87 54.0574 154.772 54.1152L143.147 60.8312V76.1344L154.559 69.5377H154.57Z" fill="#8B3D1C"/>
<path fill-rule="evenodd" clip-rule="evenodd" d="M9.49162 138.128L9.47358 138.11C14.7896 133.283 20.2068 131.354 25.4218 131.115C23.3502 128.222 21.8922 124.418 21.4807 119.786C26.8221 119.808 31.1962 121.304 34.4154 123.626C35.1769 120.942 37.6419 118.229 40.2043 115.545C49.5263 123.782 47.3717 133.868 40.4172 138.102C40.4461 138.113 40.4749 138.117 40.5038 138.128C40.4749 138.135 40.4461 138.142 40.4172 138.149C47.3717 142.387 49.5263 152.47 40.2043 160.71C37.6419 158.026 35.1769 155.313 34.4154 152.629C31.1962 154.955 26.8221 156.451 21.4807 156.469C21.8922 151.841 23.3502 148.037 25.4218 145.14C20.2068 144.901 14.7896 142.976 9.47358 138.146L9.49162 138.128Z" fill="#907C20"/>
<path d="M54.0918 138.009C54.1567 138.009 54.2109 138.063 54.2109 138.128C54.2109 138.193 54.1567 138.247 54.0918 138.247H19.0447C18.9798 138.247 18.9256 138.193 18.9256 138.128C18.9256 138.063 18.9798 138.009 19.0447 138.009H54.0918Z" fill="#8B3D1C"/>
<path d="M26.4431 124.219C26.3962 124.172 26.3962 124.096 26.4431 124.053C26.49 124.006 26.5658 124.006 26.6091 124.053L40.3847 137.842V123.312C40.3847 123.247 40.4388 123.193 40.5038 123.193C40.5687 123.193 40.6229 123.247 40.6229 123.312V138.128C40.6229 138.157 40.612 138.189 40.5868 138.211C40.5399 138.258 40.4641 138.258 40.4208 138.211L26.4431 124.219Z" fill="#8B3D1C"/>
<path d="M26.6091 152.203C26.5622 152.249 26.4864 152.249 26.4431 152.203C26.3962 152.156 26.3962 152.08 26.4431 152.036L40.4208 138.045C40.4677 137.998 40.5399 137.998 40.5868 138.045C40.6084 138.066 40.6229 138.099 40.6229 138.128V152.943C40.6229 153.008 40.5687 153.062 40.5038 153.062C40.4388 153.062 40.3847 153.008 40.3847 152.943V138.413L26.6091 152.203Z" fill="#8B3D1C"/>
<path fill-rule="evenodd" clip-rule="evenodd" d="M25.2197 76.5896C29.6371 76.5896 33.2497 80.2059 33.2497 84.6278V93.9737C33.2497 98.3956 29.6371 102.012 25.2197 102.012C20.8023 102.012 17.1897 98.3956 17.1897 93.9737V84.6278C17.1897 80.2059 20.8023 76.5896 25.2197 76.5896Z" fill="#8B3D1C"/>
<path fill-rule="evenodd" clip-rule="evenodd" d="M25.2197 73.5984C30.6766 73.5984 35.1409 78.0673 35.1409 83.5296V83.8584C35.1409 89.3207 30.6766 93.7896 25.2197 93.7896C19.7629 93.7896 15.2986 89.3207 15.2986 83.8584V83.5296C15.2986 78.0673 19.7629 73.5984 25.2197 73.5984Z" fill="#AB5D36"/>
<path d="M25.4579 82.63C25.4579 82.7781 25.3388 82.8973 25.1908 82.8973C25.0429 82.8973 24.9238 82.7781 24.9238 82.63V79.9096C24.9238 76.4668 25.8946 73.862 27.3599 72.0882C28.8395 70.3 30.8209 69.3679 32.8275 69.2884C32.9755 69.2812 33.0982 69.3968 33.1018 69.5449C33.109 69.693 32.9935 69.8159 32.8455 69.8195C30.9869 69.8953 29.1427 70.7624 27.7641 72.4278C26.371 74.1077 25.4507 76.6004 25.4507 79.906V82.6264L25.4579 82.63Z" fill="#8B3D1C"/>
</g>
<defs>
<clipPath id="clip0_2238_50048">
<rect width="189" height="180" fill="white"/>
</clipPath>
</defs>
</svg>
