<svg width="141" height="220" viewBox="0 0 141 220" fill="none" xmlns="http://www.w3.org/2000/svg">
<g clip-path="url(#clip0_2238_52642)">
<path fill-rule="evenodd" clip-rule="evenodd" d="M-29.3065 185.846H66.0157C71.9029 185.846 76.7197 190.644 76.7197 196.509C76.7197 202.373 71.9029 207.171 66.0157 207.171H-29.3065C-35.1937 207.171 -40.0105 202.373 -40.0105 196.509C-40.0105 190.644 -35.1937 185.846 -29.3065 185.846Z" fill="#68AFA7"/>
<path fill-rule="evenodd" clip-rule="evenodd" d="M-55 69.6772C-23.614 64.6703 -0.865993 51.0215 9.38893 35.464L-55 27.4895V69.6772Z" fill="#8B3D1C"/>
<path fill-rule="evenodd" clip-rule="evenodd" d="M-6.53247 113.27L45.7564 94.5289L56.7037 124.828C71.5958 160.234 109.344 116.044 116.134 148.073L101.556 153.747C78.254 161.949 74.2793 166.02 63.6127 166.322C58.9456 166.456 51.1009 165.841 42.9868 164.581L46.7744 175.116L19.3593 184.944L12.267 165.315L-6.53247 113.27Z" fill="#B26140"/>
<path fill-rule="evenodd" clip-rule="evenodd" d="M52.3024 139.241C54.0502 138.614 55.9814 139.517 56.6102 141.261C57.2389 143.002 56.3332 144.926 54.5816 145.552C52.8301 146.179 50.9026 145.277 50.2738 143.532C49.6451 141.787 50.5508 139.867 52.3024 139.241Z" fill="#CC894C"/>
<path fill-rule="evenodd" clip-rule="evenodd" d="M52.194 141.325L61.0716 130.666C61.7154 129.89 62.8793 129.782 63.6541 130.427C64.4325 131.068 64.5411 132.228 63.8936 133.003L55.016 143.662C54.3722 144.438 53.2083 144.546 52.4298 143.901C51.6513 143.26 51.5428 142.1 52.1902 141.325H52.194Z" fill="#F7F7F7"/>
<path fill-rule="evenodd" clip-rule="evenodd" d="M19.5951 192.9L11.2751 169.111L42.5938 157.885L73.2351 163.384L116.332 147.938L119.247 146.895L122.799 156.729L70.8435 175.352C64.5446 174.222 44.6036 167.459 48.0207 176.917L49.8733 182.047L19.5914 192.9H19.5951Z" fill="#8B3D1C"/>
<path fill-rule="evenodd" clip-rule="evenodd" d="M63.2984 145.247C64.7693 144.113 66.8839 144.386 68.0217 145.854C69.1594 147.32 68.8862 149.426 67.4116 150.559C65.9407 151.693 63.8261 151.421 62.6884 149.952C61.5506 148.487 61.8238 146.38 63.2947 145.247H63.2984Z" fill="#CC894C"/>
<path fill-rule="evenodd" clip-rule="evenodd" d="M75.3387 147.282C76.3904 145.754 78.4863 145.366 80.0208 146.417C81.5552 147.465 81.9445 149.553 80.889 151.081C79.8374 152.61 77.7415 152.998 76.207 151.946C74.6725 150.899 74.2832 148.811 75.3387 147.282Z" fill="#CC894C"/>
<path fill-rule="evenodd" clip-rule="evenodd" d="M63.8373 147.264L69.0022 134.405C69.3764 133.473 70.4506 133.015 71.39 133.387C72.3257 133.76 72.786 134.83 72.4117 135.766L67.2469 148.624C66.8726 149.556 65.7984 150.015 64.859 149.642C63.9234 149.269 63.463 148.199 63.8373 147.264Z" fill="#F7F7F7"/>
<path fill-rule="evenodd" clip-rule="evenodd" d="M76.4726 149.038L77.427 135.218C77.4981 134.215 78.3776 133.451 79.3844 133.522C80.3912 133.592 81.1584 134.469 81.0873 135.471L80.1329 149.292C80.0618 150.295 79.1823 151.059 78.1755 150.992C77.1687 150.921 76.4015 150.045 76.4726 149.042V149.038Z" fill="#F7F7F7"/>
<path fill-rule="evenodd" clip-rule="evenodd" d="M45.7602 126.774C47.6016 127.027 48.8891 128.724 48.6309 130.558C48.3764 132.392 46.6734 133.675 44.8321 133.417C42.9907 133.164 41.7032 131.468 41.9614 129.633C42.2159 127.799 43.9188 126.517 45.7602 126.774Z" fill="#CC894C"/>
<path fill-rule="evenodd" clip-rule="evenodd" d="M41.9202 116.272C43.7429 116.648 44.9106 118.419 44.5363 120.235C44.1621 122.05 42.3805 123.213 40.5579 122.841C38.7352 122.464 37.5637 120.693 37.9417 118.878C38.3197 117.062 40.1013 115.899 41.9202 116.272Z" fill="#CC894C"/>
<path fill-rule="evenodd" clip-rule="evenodd" d="M44.6937 128.571L57.5273 123.243C58.4592 122.855 59.5409 123.299 59.9264 124.227C60.3156 125.156 59.8702 126.233 58.9383 126.617L46.1047 131.945C45.1727 132.332 44.0911 131.889 43.7056 130.96C43.3164 130.032 43.7617 128.955 44.6937 128.571Z" fill="#F7F7F7"/>
<path fill-rule="evenodd" clip-rule="evenodd" d="M40.7337 117.994L53.893 113.517C54.8473 113.192 55.8953 113.703 56.2246 114.657C56.5502 115.608 56.0375 116.652 55.0794 116.98L41.9201 121.457C40.9658 121.782 39.9178 121.271 39.5885 120.317C39.2628 119.366 39.7756 118.322 40.73 117.994H40.7337Z" fill="#F7F7F7"/>
<path fill-rule="evenodd" clip-rule="evenodd" d="M-0.82486 111.149L32.5747 99.6552L-4.8108 -3.84552L-41.0024 8.05099L-0.82486 111.149Z" fill="#EC8151"/>
<path fill-rule="evenodd" clip-rule="evenodd" d="M9.38893 35.464C-14.8561 44.6837 -36.0696 48.8481 -55 49.8957V-3.94617H-4.09592L9.38519 35.464H9.38893Z" fill="#B26140"/>
<path fill-rule="evenodd" clip-rule="evenodd" d="M82.3753 67.3883C82.389 70.4542 84.9298 72.9718 88.0193 72.9857L96.4924 73.0197C107.215 73.0643 109.183 71.9602 114.504 62.7823L118.73 55.4933C120.266 52.8449 119.326 49.4153 116.642 47.8707C113.957 46.326 110.505 47.2288 108.97 49.8772C106.88 53.3663 104.52 51.0687 105.407 49.2462C105.807 48.424 106.559 47.5307 106.906 46.6832L110.227 40.956C111.763 38.3076 110.823 34.878 108.139 33.3334C105.454 31.7887 102.002 32.6915 100.466 35.3399L99.1983 37.5301C99.0922 37.6293 98.972 37.7193 98.8358 37.7969C97.9607 38.2953 96.8371 37.9926 96.3269 37.1208C95.743 36.1232 96.5318 35.3811 97.0622 34.4634L100.546 28.4539C102.082 25.8055 101.143 22.3759 98.458 20.8312C95.7735 19.2866 92.3216 20.1894 90.7859 22.8378L89.5481 24.9763C89.4857 25.0248 89.4195 25.0668 89.3515 25.1055C88.4763 25.604 87.3527 25.3012 86.8425 24.4295C85.7863 22.6247 86.9109 20.5291 83.6512 17.8096C81.0952 15.6795 78.174 15.488 75.9403 16.5967C73.4721 17.8217 71.8461 20.6334 72.4916 24.1659C73.2471 28.3074 75.6509 28.3976 76.7071 30.2024C77.2173 31.0742 76.9213 32.1856 76.0461 32.684C75.9781 32.7228 75.9081 32.7583 75.8344 32.7874L72.9888 32.7767C69.896 32.7646 67.3775 35.2624 67.3912 38.3283C67.405 41.3942 69.9458 43.9118 73.0385 43.9239L80.4073 43.9541C81.4781 43.9598 82.5239 43.6569 83.1077 44.6545C83.6179 45.5263 83.3219 46.6377 82.4467 47.1361C82.3138 47.2118 82.1747 47.2695 82.0294 47.3092L79.4747 47.3007C76.3819 47.2887 73.8634 49.7865 73.8771 52.8524C73.8909 55.9182 76.4317 58.4358 79.5211 58.4497L86.2092 58.476C87.1265 58.6035 88.2868 58.4076 89.2087 58.4766C91.252 58.6301 92.0888 61.7954 87.9811 61.8362C84.8884 61.8241 82.3699 64.3219 82.3836 67.3878L82.3753 67.3883Z" fill="#EC915C"/>
<path d="M111.494 54.324C111.555 54.2207 111.685 54.1851 111.79 54.246C111.895 54.3068 111.929 54.4383 111.871 54.5398L104.944 66.4884L112.957 80.1812C113.018 80.2845 112.983 80.4164 112.879 80.4755C112.775 80.5346 112.642 80.4986 112.581 80.3953L104.568 66.7025L90.6185 66.6451C90.4975 66.6451 90.4022 66.5487 90.4012 66.4288C90.4001 66.3088 90.4966 66.2152 90.6176 66.2151L104.317 66.2731L96.3127 52.5965L82.3633 52.539C82.2423 52.5391 82.147 52.4427 82.146 52.3227C82.1449 52.2028 82.2414 52.1091 82.3624 52.1091L96.0614 52.1671L88.0575 38.4904L74.1081 38.433C73.9871 38.433 73.8918 38.3366 73.8908 38.2167C73.8898 38.0967 73.9862 38.0031 74.1072 38.003L87.8062 38.061L79.3073 23.5385C79.2468 23.4352 79.282 23.3032 79.3857 23.2441C79.4894 23.1851 79.6228 23.221 79.6833 23.3243L88.1822 37.8469L94.9808 26.1138C95.0413 26.0104 95.1718 25.9748 95.2766 26.0357C95.3813 26.0966 95.415 26.228 95.3578 26.3295L88.4303 38.2781L96.4341 51.9548L103.233 40.2217C103.293 40.1183 103.424 40.0827 103.529 40.1436C103.633 40.2045 103.667 40.3359 103.61 40.4374L96.6822 52.386L104.686 66.0627L111.485 54.3295L111.494 54.324Z" fill="#8B3D1C"/>
<path d="M1.09506 171.206C1.16243 171.206 1.21857 171.262 1.21857 171.329C1.21857 171.396 1.16243 171.452 1.09506 171.452H-35.25C-35.3174 171.452 -35.3735 171.396 -35.3735 171.329C-35.3735 171.262 -35.3174 171.206 -35.25 171.206H1.09506Z" fill="#8B3D1C"/>
</g>
<defs>
<clipPath id="clip0_2238_52642">
<rect width="141" height="220" fill="white"/>
</clipPath>
</defs>
</svg>
