<svg width="129" height="220" viewBox="0 0 129 220" fill="none" xmlns="http://www.w3.org/2000/svg">
<g clip-path="url(#clip0_2238_52588)">
<path fill-rule="evenodd" clip-rule="evenodd" d="M101.685 -2.95966C101.917 -2.45819 102.162 -1.96112 102.421 -1.47285C97.4015 -1.96112 91.7045 -1.06816 85.7356 1.6679C89.547 8.12537 94.4817 12.379 99.6125 14.6532C96.8621 17.4553 95.2796 22.3336 93.8041 27.313C110.512 32.8511 121.353 23.1913 121.62 11.8072H121.625C121.652 11.838 121.683 11.8688 121.709 11.8996C121.701 11.86 121.687 11.8204 121.674 11.7808C131.539 17.1034 144.983 13.0257 148.897 -2.95966L101.685 -2.95966Z" fill="#F69754"/>
<path d="M131.2 28.4435C131.245 28.5227 131.347 28.5491 131.427 28.5051C131.508 28.4611 131.534 28.3599 131.49 28.2808L113.209 -2.95966H112.825L131.2 28.4435Z" fill="#663300"/>
<path d="M94.6867 4.57994C94.5975 4.55794 94.5039 4.61073 94.4816 4.69871C94.4593 4.78668 94.5128 4.87906 94.602 4.90105L121.277 11.9524L103.459 22.1048C103.379 22.1488 103.353 22.25 103.397 22.3292C103.442 22.4084 103.544 22.4347 103.624 22.3908L121.79 12.0403C121.825 12.0183 121.857 11.9832 121.87 11.9392C121.892 11.8512 121.839 11.7588 121.75 11.7368L94.6867 4.57994Z" fill="#663300"/>
<path d="M125.57 -2.95966L121.549 11.8556C121.527 11.9435 121.58 12.0359 121.669 12.0579C121.714 12.0711 121.759 12.0623 121.794 12.0403L139.964 1.6899C140.044 1.64591 140.071 1.54474 140.026 1.46556C139.982 1.38638 139.879 1.35999 139.799 1.40397L121.981 11.5565L125.918 -2.95966H125.57Z" fill="#663300"/>
<path fill-rule="evenodd" clip-rule="evenodd" d="M87.7415 29.5741C90.5098 31.1489 91.4637 34.6723 89.8678 37.3996L85.4903 44.8776C79.9538 54.3439 77.93 55.5139 66.8615 55.5139H58.0708C54.8791 55.5139 52.2624 52.9362 52.2624 49.7823C52.2624 46.6283 54.8746 44.0506 58.0708 44.0506C62.3146 43.989 61.4632 40.7383 59.3547 40.5931C58.4007 40.5272 57.2016 40.7339 56.2565 40.6063H49.3471C46.1553 40.6063 43.5386 38.0286 43.5386 34.8747C43.5386 31.7251 46.1509 29.143 49.3471 29.143H51.986C52.1331 29.099 52.2758 29.0374 52.414 28.9583C53.3189 28.4436 53.6309 27.2999 53.1094 26.4025C52.512 25.3776 51.4288 25.6943 50.3233 25.6943H43.075C39.8788 25.6943 37.2666 23.1166 37.2666 19.9627C37.2666 16.8131 39.8788 14.231 43.075 14.231H45.6516C45.7274 14.2002 45.7987 14.165 45.87 14.1254C46.7749 13.6108 47.087 12.4671 46.5654 11.5697C45.4822 9.71782 43.0037 9.63864 42.2414 5.38058C41.6441 2.04628 42.9903 -0.628207 45.1523 -2.02703C45.8567 -2.48451 46.6457 -2.80562 47.4837 -2.97278H50.1628C51.3932 -2.73524 52.6369 -2.1634 53.7914 -1.20445C57.1436 1.5756 55.9757 3.73542 57.0589 5.58733C57.5805 6.48029 58.7395 6.78821 59.6489 6.27354C59.7202 6.23395 59.7871 6.18997 59.8539 6.14158L61.3205 3.62985C62.9164 0.898184 66.487 -0.0431638 69.2508 1.53161C72.0191 3.10639 72.973 6.62985 71.3772 9.35712L67.5703 15.863C67.0175 16.8087 66.2017 17.5741 66.7991 18.599C67.3206 19.492 68.4796 19.7999 69.389 19.2853C69.5272 19.2061 69.652 19.1137 69.7635 19.0081L71.083 16.7559C72.6788 14.0287 76.2495 13.0829 79.0133 14.6577C81.7815 16.2325 82.7355 19.7559 81.1396 22.4832L77.6849 28.3864C77.3238 29.2574 76.5437 30.1811 76.1247 31.0257C75.1974 32.904 77.6269 35.253 79.8023 31.6591C81.3981 28.9275 84.9688 27.9861 87.7326 29.5609L87.7415 29.5741Z" fill="#FF6633"/>
<path d="M60.7813 48.5417C60.6565 48.5417 60.5584 48.6385 60.5584 48.7617C60.5584 48.8848 60.6565 48.9816 60.7813 48.9816H75.1887L83.4043 63.027C83.4667 63.1326 83.6049 63.1678 83.7119 63.1062C83.8188 63.0446 83.8545 62.9083 83.7921 62.8027L75.5765 48.7573L82.7802 36.445C82.8426 36.3394 82.8069 36.203 82.7 36.1414C82.593 36.0799 82.4548 36.1151 82.3924 36.2206L75.3179 48.313L67.1113 34.2851L74.315 21.9728C74.3774 21.8673 74.3417 21.7309 74.2347 21.6693C74.1277 21.6077 73.9895 21.6429 73.9271 21.7529L66.8527 33.8453L58.646 19.8218L65.8497 7.50952C65.9121 7.40395 65.8765 7.26759 65.7695 7.206C65.6625 7.14442 65.5243 7.17961 65.4619 7.28958L58.3875 19.3819L49.6726 4.48753C49.6102 4.38196 49.472 4.34677 49.365 4.40835C49.258 4.46994 49.2224 4.6063 49.2848 4.71187L57.9997 19.6063H43.8508C43.726 19.6063 43.6279 19.7031 43.6279 19.8262C43.6279 19.9494 43.726 20.0462 43.8508 20.0462H58.2582L66.4649 34.074H52.316C52.1912 34.074 52.0932 34.1708 52.0932 34.2939C52.0932 34.4171 52.1912 34.5139 52.316 34.5139H66.7234L74.9301 48.5373H60.7813V48.5417Z" fill="#663300"/>
<path fill-rule="evenodd" clip-rule="evenodd" d="M176.517 68.1472L180.039 55.1707C181.211 50.8511 178.59 46.3731 174.213 45.2162C170.375 44.2 166.412 46.0652 164.704 49.4522L164.744 49.3115C165.73 45.6869 163.527 41.9215 159.854 40.9537C156.181 39.9816 152.365 42.1546 151.38 45.7792L151.135 46.681L147.765 40.9229C145.679 37.3599 141.02 36.1282 137.41 38.1869C133.799 40.2455 132.551 44.8423 134.637 48.4053L138.007 54.1634L137.093 53.9214C133.42 52.9493 129.604 55.1223 128.623 58.747C127.638 62.3716 129.84 66.137 133.514 67.1091L133.656 67.1487C129.831 66.9156 126.212 69.3701 125.187 73.1575C124.014 77.4771 126.635 81.9551 131.013 83.112L144.377 86.6443C151.902 88.6325 158 89.6487 165.435 85.2278C172.719 80.895 174.547 75.4097 176.517 68.1516V68.1472Z" fill="#F65E54"/>
<path fill-rule="evenodd" clip-rule="evenodd" d="M87.1353 68.4068L115.304 116.556C127.87 98.1384 119.619 74.2088 87.1353 68.4068Z" fill="#F69754"/>
<path fill-rule="evenodd" clip-rule="evenodd" d="M87.1354 68.4068L115.304 116.556C92.8546 118.087 75.9821 99.071 87.1354 68.4068Z" fill="#F69754"/>
<path d="M99.0864 88.4303L102.091 79.7646C102.127 79.6634 102.069 79.5666 101.966 79.549C101.864 79.5271 101.748 79.593 101.716 79.6942L98.8368 88.0036L93.3449 78.6165C93.2958 78.5329 93.1755 78.5109 93.0774 78.5637C92.9793 78.6209 92.9392 78.7353 92.9883 78.8188L98.4802 88.2015L89.7475 86.5124C89.645 86.4904 89.5291 86.5564 89.4979 86.6575C89.4622 86.7587 89.5201 86.8555 89.6227 86.8731L98.7343 88.637L104.137 97.8657L91.3032 95.3804C91.2007 95.3584 91.0848 95.4244 91.0536 95.5256C91.0179 95.6267 91.0759 95.7235 91.1784 95.7411L104.391 98.3012L110.213 108.256L94.5663 105.225C94.4593 105.203 94.3479 105.269 94.3167 105.37C94.281 105.471 94.339 105.568 94.4415 105.586L110.467 108.687L119.637 124.36C119.686 124.443 119.806 124.47 119.904 124.413C120.002 124.355 120.042 124.241 119.993 124.157L110.824 108.484L116.111 93.2382C116.146 93.137 116.088 93.0402 115.986 93.0226C115.883 93.005 115.767 93.0666 115.736 93.1678L110.574 108.053L104.752 98.0989L109.112 85.5314C109.148 85.4303 109.09 85.3335 108.987 85.3159C108.885 85.2939 108.769 85.3599 108.737 85.4611L104.503 97.6678L99.0998 88.4391L99.0864 88.4303Z" fill="#663300"/>
<path fill-rule="evenodd" clip-rule="evenodd" d="M36.3039 98.596L36.2682 98.5828C34.1151 108.397 35.5906 116.306 38.9963 122.789C33.9769 122.301 28.2799 123.194 22.311 125.93C26.1224 132.388 31.0571 136.641 36.188 138.916C33.4331 141.713 31.855 146.596 30.3795 151.575C47.0871 157.113 57.9283 147.454 58.1958 136.07H58.2002C58.227 136.1 58.2582 136.131 58.2849 136.162C58.276 136.122 58.2626 136.083 58.2493 136.043C68.3728 141.506 82.2675 137.068 85.7624 120.018C80.6538 118.791 75.5809 117.7 71.7473 118.655C72.3179 113.134 71.0519 106.791 67.2895 100.303C61.9046 104.033 58.2716 108.458 56.1898 112.993C52.2001 106.844 45.9994 101.627 36.3083 98.5608L36.2994 98.596H36.3039Z" fill="#907C20"/>
<path d="M67.7709 152.715C67.8155 152.794 67.918 152.82 67.9982 152.776C68.0785 152.732 68.1052 152.631 68.0607 152.552L43.2177 110.094C43.1731 110.015 43.0706 109.989 42.9904 110.033C42.9101 110.077 42.8834 110.178 42.928 110.257L67.7709 152.715Z" fill="#663300"/>
<path d="M31.2621 128.851C31.173 128.829 31.0793 128.882 31.0571 128.97C31.0348 129.058 31.0883 129.15 31.1774 129.172L57.8525 136.223L40.0349 146.376C39.9547 146.42 39.9279 146.521 39.9725 146.6C40.0171 146.679 40.1196 146.706 40.1999 146.662L58.3651 136.311C58.4008 136.289 58.432 136.254 58.4409 136.21C58.4632 136.122 58.4142 136.03 58.3205 136.008L31.2577 128.851H31.2621Z" fill="#663300"/>
<path d="M65.6935 109.501C65.7158 109.413 65.6668 109.32 65.5732 109.298C65.484 109.276 65.3904 109.329 65.3681 109.417L58.1154 136.122C58.0931 136.21 58.1466 136.303 58.2358 136.325C58.2803 136.338 58.3249 136.329 58.365 136.307L76.5348 125.957C76.615 125.913 76.6417 125.811 76.5972 125.732C76.5526 125.653 76.4501 125.627 76.3698 125.671L58.5523 135.823L65.698 109.501H65.6935Z" fill="#663300"/>
<path fill-rule="evenodd" clip-rule="evenodd" d="M124.58 142.813C121.692 138.594 120.073 133.074 119.744 124.496C127.108 129.067 131.142 133.21 133.402 137.789C133.58 136.918 133.768 136.003 133.964 135.045L135.368 128.218C139.946 133.523 142.505 138.159 143.566 142.329L143.891 141.577L146.642 135.264C150.252 141.911 151.795 147.278 151.821 151.756C152.147 151.303 152.486 150.836 152.829 150.352L156.738 144.92C162.529 162.141 152.642 175.685 150.778 177.524C148.015 179.099 131.401 179.873 119.182 166.316L125.904 165.691C126.502 165.634 127.077 165.581 127.638 165.528C123.724 163.267 119.784 159.264 115.754 152.855L122.668 153.66L123.488 153.757C120.354 150.766 117.568 146.262 115.201 139.694L121.892 141.907C122.833 142.219 123.729 142.514 124.58 142.8V142.813Z" fill="#A9AF57"/>
<path d="M130.188 170.675C130.077 170.666 129.992 170.57 130.001 170.464C130.01 170.354 130.108 170.27 130.219 170.279L146.962 171.577L143.472 165.608L122.975 157.303C122.873 157.263 122.824 157.144 122.864 157.043C122.904 156.942 123.024 156.894 123.127 156.933L143.142 165.04L137.004 154.549L122.226 146.13C122.128 146.077 122.097 145.954 122.151 145.857C122.204 145.76 122.329 145.729 122.427 145.782L136.603 153.858L124.273 132.788C124.219 132.691 124.25 132.573 124.348 132.515C124.446 132.463 124.567 132.493 124.625 132.59L136.955 153.66V137.512C136.955 137.402 137.044 137.314 137.155 137.314C137.267 137.314 137.356 137.402 137.356 137.512V154.351L143.494 164.842L146.387 143.684C146.401 143.574 146.503 143.499 146.615 143.512C146.726 143.526 146.802 143.627 146.789 143.737L143.829 165.405L147.319 171.375L154.554 156.419C154.603 156.317 154.723 156.278 154.821 156.326C154.924 156.375 154.964 156.493 154.915 156.59L147.564 171.792L157.665 189.058C157.723 189.155 157.688 189.273 157.59 189.33C157.492 189.388 157.371 189.352 157.313 189.256L147.212 171.99L130.197 170.675H130.188Z" fill="#663300"/>
<path d="M32.7287 208.465L24.21 206.213C24.1119 206.187 24.054 206.09 24.0807 205.993C24.1075 205.896 24.2056 205.839 24.3036 205.866L32.4702 208.025L26.8579 198.436C26.8089 198.348 26.8356 198.238 26.9248 198.19C27.0139 198.141 27.1254 198.168 27.1744 198.256L32.7867 207.845L34.9754 199.786C35.0022 199.69 35.1047 199.632 35.1983 199.659C35.2964 199.685 35.3543 199.782 35.3276 199.879L33.0452 208.285L38.5639 217.716L41.7779 205.874C41.8047 205.778 41.9028 205.72 42.0008 205.747C42.0989 205.773 42.1568 205.87 42.1301 205.967L38.818 218.156L44.7691 228.326L48.6874 213.889C48.7142 213.792 48.8167 213.735 48.9103 213.761C49.0084 213.788 49.0663 213.885 49.0396 213.981L45.0232 228.77L57.643 250.342C57.692 250.43 57.6653 250.54 57.5761 250.588C57.487 250.637 57.3755 250.61 57.3265 250.522L44.7067 228.951L29.7198 224.987C29.6217 224.961 29.5637 224.864 29.5905 224.767C29.6172 224.671 29.7153 224.613 29.8134 224.64L44.4437 228.506L38.4926 218.336L26.1402 215.068C26.0421 215.041 25.9842 214.945 26.0109 214.848C26.0377 214.751 26.1358 214.694 26.2338 214.72L38.234 217.892L32.7154 208.461L32.7287 208.465Z" fill="#663300"/>
<path fill-rule="evenodd" clip-rule="evenodd" d="M78.4116 206.895L65.2613 203.42C60.8838 202.263 58.2627 197.785 59.435 193.465C60.4648 189.678 64.08 187.223 67.9047 187.457L67.7621 187.417C64.0845 186.445 61.8868 182.684 62.872 179.055C63.8571 175.43 67.6685 173.257 71.3461 174.229L72.2599 174.471L68.8899 168.713C66.8037 165.15 68.0518 160.553 71.6626 158.495C75.2734 156.436 79.9317 157.672 82.0179 161.231L85.388 166.989L85.6331 166.087C86.6183 162.462 90.4297 160.289 94.1073 161.262C97.7805 162.234 99.9826 165.995 98.9974 169.624L98.9573 169.764C100.665 166.377 104.628 164.517 108.466 165.528C112.843 166.685 115.464 171.163 114.292 175.483L110.712 188.671C108.697 196.096 106.535 201.814 98.9395 205.958C91.4951 210.018 85.7669 208.835 78.4116 206.891V206.895Z" fill="#F65E54"/>
<path d="M72.1617 195.669C72.0413 195.638 71.97 195.515 72.0012 195.396C72.0324 195.278 72.1572 195.207 72.2776 195.238L96.8397 201.731L87.2912 185.411L69.9952 180.836C69.8748 180.805 69.8035 180.682 69.8347 180.564C69.8659 180.445 69.9907 180.374 70.1111 180.405L86.9747 184.866L76.7397 167.371C76.6773 167.266 76.713 167.13 76.82 167.068C76.927 167.006 77.0652 167.042 77.1276 167.147L87.3536 184.624L91.8648 168.009C91.896 167.891 92.0208 167.82 92.1412 167.851C92.2616 167.882 92.3329 168.005 92.3017 168.124L87.6746 185.165L97.223 201.484L103.798 177.273C103.829 177.154 103.954 177.084 104.075 177.115C104.195 177.146 104.266 177.269 104.235 177.388L97.544 202.025L106.009 216.489C106.072 216.594 106.036 216.731 105.929 216.792C105.822 216.854 105.684 216.819 105.621 216.713L97.1695 202.263L72.175 195.656L72.1617 195.669Z" fill="#663300"/>
</g>
<defs>
<clipPath id="clip0_2238_52588">
<rect width="129" height="220" fill="white"/>
</clipPath>
</defs>
</svg>
