<svg width="82" height="96" viewBox="0 0 82 96" fill="none" xmlns="http://www.w3.org/2000/svg">
<path d="M81.9101 27.4583V70.099C81.9101 71.5235 81.1486 72.8379 79.915 73.5502L73.0674 77.4991L72.9162 77.5868L62.362 83.6743L42.9502 94.8724C41.7165 95.5846 40.1936 95.5846 38.9581 94.8724L19.4212 83.6035L9.14135 77.6763L8.71769 77.4302L1.99512 73.552C0.761468 72.8398 0 71.5253 0 70.1009V27.4583C0 26.0338 0.761468 24.7194 1.99512 24.0071L38.9599 2.68676C40.1936 1.97453 41.7165 1.97453 42.952 2.68676L79.915 24.0071C81.1486 24.7194 81.9101 26.0338 81.9101 27.4583V27.4583Z" fill="#42301A"/>
<path d="M0 25.2153V68.1059C0 69.452 0.718542 70.6975 1.88687 71.3706L39.0682 92.8159C40.2365 93.4889 41.6736 93.4889 42.8419 92.8159L80.0232 71.3706C81.1916 70.6975 81.9101 69.452 81.9101 68.1059V25.2153C81.9101 23.8691 81.1916 22.6237 80.0232 21.9506L42.8419 0.505297C41.6736 -0.167781 40.2365 -0.167781 39.0682 0.505297L1.88687 21.9506C0.718542 22.6237 0 23.8691 0 25.2153Z" fill="url(#paint0_linear_3176_24637)"/>
<path opacity="0.8" d="M6.00187 28.5343V64.0639C6.00187 65.4101 6.72041 66.6555 7.88874 67.3286L38.689 85.0934C39.8573 85.7665 41.2944 85.7665 42.4628 85.0934L73.263 67.3286C74.4295 66.6555 75.1499 65.4101 75.1499 64.0639V28.5343C75.1499 27.1882 74.4314 25.9427 73.263 25.2696L42.4609 7.50481C41.2926 6.83173 39.8555 6.83173 38.6871 7.50481L7.88687 25.2696C6.71854 25.9427 6 27.1882 6 28.5343H6.00187Z" fill="#FFEDD9"/>
<path d="M30.876 54.48C29.956 54.48 29.116 54.41 28.356 54.27C27.616 54.13 26.976 53.92 26.436 53.64C25.896 53.36 25.476 53.02 25.176 52.62C24.876 52.2 24.726 51.72 24.726 51.18C24.726 50.62 24.886 50.15 25.206 49.77C25.526 49.39 25.886 49.09 26.286 48.87C26.846 49.29 27.446 49.66 28.086 49.98C28.726 50.28 29.536 50.43 30.516 50.43C31.456 50.43 32.126 50.22 32.526 49.8C32.926 49.38 33.126 48.87 33.126 48.27C33.126 47.69 32.946 47.21 32.586 46.83C32.246 46.45 31.646 46.26 30.786 46.26C30.246 46.26 29.796 46.32 29.436 46.44C29.076 46.56 28.666 46.73 28.206 46.95C27.226 46.91 26.446 46.65 25.866 46.17C25.306 45.67 25.026 44.91 25.026 43.89C25.026 43.83 25.026 43.76 25.026 43.68C25.026 43.58 25.036 43.39 25.056 43.11L25.416 38.55C25.476 37.69 25.746 37.01 26.226 36.51C26.706 36.01 27.376 35.76 28.236 35.76H36.876C36.996 35.98 37.116 36.27 37.236 36.63C37.356 36.99 37.416 37.37 37.416 37.77C37.416 38.53 37.246 39.07 36.906 39.39C36.566 39.71 36.136 39.87 35.616 39.87H29.856L29.646 42.69C30.026 42.59 30.406 42.5 30.786 42.42C31.186 42.34 31.686 42.3 32.286 42.3C33.326 42.3 34.226 42.46 34.986 42.78C35.746 43.08 36.366 43.5 36.846 44.04C37.346 44.58 37.706 45.21 37.926 45.93C38.166 46.65 38.286 47.42 38.286 48.24C38.286 49.06 38.146 49.85 37.866 50.61C37.586 51.37 37.146 52.04 36.546 52.62C35.946 53.18 35.176 53.63 34.236 53.97C33.316 54.31 32.196 54.48 30.876 54.48ZM46.0998 50.25C46.3798 50.33 46.7398 50.39 47.1798 50.43C47.6198 50.45 48.0398 50.46 48.4398 50.46C49.2398 50.46 49.8998 50.3 50.4198 49.98C50.9598 49.64 51.2298 49.12 51.2298 48.42C51.2298 47.76 51.0098 47.29 50.5698 47.01C50.1298 46.73 49.4598 46.59 48.5598 46.59H46.0998V50.25ZM46.0998 42.93H48.2898C49.1498 42.93 49.7698 42.77 50.1498 42.45C50.5498 42.13 50.7498 41.66 50.7498 41.04C50.7498 40.5 50.5198 40.07 50.0598 39.75C49.6198 39.43 48.9498 39.27 48.0498 39.27C47.7498 39.27 47.3998 39.28 46.9998 39.3C46.6198 39.32 46.3198 39.35 46.0998 39.39V42.93ZM48.0498 54.48C47.7098 54.48 47.3098 54.47 46.8498 54.45C46.3898 54.43 45.9098 54.39 45.4098 54.33C44.9298 54.27 44.4498 54.19 43.9698 54.09C43.4898 54.01 43.0498 53.89 42.6498 53.73C41.5498 53.31 40.9998 52.58 40.9998 51.54V37.53C40.9998 37.11 41.1098 36.79 41.3298 36.57C41.5698 36.33 41.8898 36.14 42.2898 36C42.9698 35.76 43.8198 35.59 44.8398 35.49C45.8598 35.37 46.9098 35.31 47.9898 35.31C50.5498 35.31 52.5198 35.74 53.8998 36.6C55.2798 37.46 55.9698 38.79 55.9698 40.59C55.9698 41.49 55.7098 42.27 55.1898 42.93C54.6698 43.57 53.9698 44.04 53.0898 44.34C54.0898 44.62 54.9198 45.13 55.5798 45.87C56.2598 46.61 56.5998 47.54 56.5998 48.66C56.5998 50.64 55.8598 52.11 54.3798 53.07C52.9198 54.01 50.8098 54.48 48.0498 54.48Z" fill="#72542E"/>
<defs>
<linearGradient id="paint0_linear_3176_24637" x1="40.9551" y1="0.000488281" x2="40.9551" y2="93.3207" gradientUnits="userSpaceOnUse">
<stop stop-color="#9D7D53"/>
<stop offset="1" stop-color="#72542E"/>
</linearGradient>
</defs>
</svg>
