<svg width="82" height="96" viewBox="0 0 82 96" fill="none" xmlns="http://www.w3.org/2000/svg">
<path d="M81.8284 27.4582V70.099C81.8284 71.5234 81.0677 72.8379 79.8353 73.5501L72.9945 77.4991L72.8435 77.5867L62.2998 83.6743L42.9074 94.8723C41.6749 95.5846 40.1535 95.5846 38.9192 94.8723L19.4018 83.6034L9.13224 77.6762L8.709 77.4301L1.99313 73.552C0.760709 72.8397 0 71.5253 0 70.1008V27.4582C0 26.0338 0.760709 24.7193 1.99313 24.0071L38.9211 2.6867C40.1535 1.97447 41.6749 1.97447 42.9092 2.6867L79.8353 24.0071C81.0677 24.7193 81.8284 26.0338 81.8284 27.4582V27.4582Z" fill="#E24729"/>
<path d="M0 25.2153V68.1058C0 69.452 0.717826 70.6975 1.88499 71.3705L39.0292 92.8158C40.1964 93.4889 41.632 93.4889 42.7992 92.8158L79.9434 71.3705C81.1106 70.6975 81.8284 69.452 81.8284 68.1058V25.2153C81.8284 23.8691 81.1106 22.6236 79.9434 21.9506L42.7992 0.505267C41.632 -0.167812 40.1964 -0.167812 39.0292 0.505267L1.88499 21.9506C0.717826 22.6236 0 23.8691 0 25.2153Z" fill="url(#paint0_linear_3176_24624)"/>
<path opacity="0.8" d="M6.37638 28.8958V64.4254C6.37638 65.7715 7.0942 67.017 8.26137 67.6901L39.0309 85.4549C40.1981 86.1279 41.6338 86.1279 42.8009 85.4549L73.5705 67.6901C74.7358 67.017 75.4555 65.7715 75.4555 64.4254V28.8958C75.4555 27.5496 74.7377 26.3041 73.5705 25.6311L42.7991 7.86626C41.6319 7.19318 40.1962 7.19318 39.0291 7.86626L8.2595 25.6311C7.09234 26.3041 6.37451 27.5496 6.37451 28.8958H6.37638Z" fill="#FDE8DC"/>
<path d="M30.857 41.62L27.857 42.55C27.557 42.35 27.257 42.07 26.957 41.71C26.657 41.35 26.507 40.85 26.507 40.21C26.507 39.01 27.237 38.17 28.697 37.69L32.057 36.55H33.167C34.027 36.55 34.707 36.8 35.207 37.3C35.707 37.8 35.957 38.48 35.957 39.34V54.97C35.737 55.01 35.407 55.06 34.967 55.12C34.547 55.2 34.117 55.24 33.677 55.24C33.237 55.24 32.837 55.21 32.477 55.15C32.137 55.09 31.847 54.97 31.607 54.79C31.367 54.61 31.177 54.37 31.037 54.07C30.917 53.75 30.857 53.34 30.857 52.84V41.62ZM43.8044 37.36C44.1444 37.16 44.6544 36.97 45.3344 36.79C46.0344 36.61 46.7344 36.52 47.4344 36.52C48.4344 36.52 49.3144 36.67 50.0744 36.97C50.8544 37.25 51.3544 37.7 51.5744 38.32C51.9344 39.36 52.3244 40.57 52.7444 41.95C53.1644 43.33 53.5844 44.76 54.0044 46.24C54.4244 47.7 54.8344 49.15 55.2344 50.59C55.6344 52.01 55.9844 53.27 56.2844 54.37C56.0444 54.65 55.6844 54.87 55.2044 55.03C54.7244 55.21 54.1544 55.3 53.4944 55.3C53.0144 55.3 52.6044 55.26 52.2644 55.18C51.9444 55.1 51.6744 54.98 51.4544 54.82C51.2544 54.66 51.0844 54.45 50.9444 54.19C50.8244 53.93 50.7144 53.63 50.6144 53.29L50.0744 51.22H44.6444C44.4844 51.82 44.3244 52.44 44.1644 53.08C44.0044 53.72 43.8444 54.34 43.6844 54.94C43.4044 55.04 43.1044 55.12 42.7844 55.18C42.4844 55.26 42.1144 55.3 41.6744 55.3C40.6544 55.3 39.8944 55.13 39.3944 54.79C38.9144 54.43 38.6744 53.94 38.6744 53.32C38.6744 53.04 38.7144 52.76 38.7944 52.48C38.8744 52.2 38.9644 51.87 39.0644 51.49C39.2044 50.95 39.3944 50.28 39.6344 49.48C39.8944 48.68 40.1744 47.82 40.4744 46.9C40.7744 45.96 41.0944 45 41.4344 44.02C41.7744 43.04 42.0944 42.12 42.3944 41.26C42.6944 40.38 42.9644 39.6 43.2044 38.92C43.4644 38.24 43.6644 37.72 43.8044 37.36ZM47.4044 41.23C47.1244 42.07 46.8044 43.01 46.4444 44.05C46.1044 45.07 45.7944 46.11 45.5144 47.17H49.2344C48.9544 46.09 48.6644 45.04 48.3644 44.02C48.0844 42.98 47.8244 42.05 47.5844 41.23H47.4044Z" fill="#F76B1F"/>
<defs>
<linearGradient id="paint0_linear_3176_24624" x1="40.9142" y1="0.000457764" x2="40.9142" y2="93.3206" gradientUnits="userSpaceOnUse">
<stop stop-color="#FBA475"/>
<stop offset="1" stop-color="#F76B1F"/>
</linearGradient>
</defs>
</svg>
