<svg width="82" height="96" viewBox="0 0 82 96" fill="none" xmlns="http://www.w3.org/2000/svg">
<path d="M81.9101 27.4583V70.099C81.9101 71.5235 81.1486 72.8379 79.915 73.5502L73.0674 77.4991L72.9162 77.5868L62.362 83.6743L42.9502 94.8724C41.7165 95.5846 40.1936 95.5846 38.9581 94.8724L19.4212 83.6035L9.14135 77.6763L8.71769 77.4302L1.99512 73.552C0.761468 72.8398 0 71.5253 0 70.1009V27.4583C0 26.0338 0.761468 24.7194 1.99512 24.0071L38.9599 2.68676C40.1936 1.97453 41.7165 1.97453 42.952 2.68676L79.915 24.0071C81.1486 24.7194 81.9101 26.0338 81.9101 27.4583V27.4583Z" fill="#4D4D4D"/>
<path d="M0 25.2153V68.1059C0 69.452 0.718542 70.6975 1.88687 71.3706L39.0682 92.8159C40.2365 93.4889 41.6736 93.4889 42.8419 92.8159L80.0232 71.3706C81.1916 70.6975 81.9101 69.452 81.9101 68.1059V25.2153C81.9101 23.8691 81.1916 22.6237 80.0232 21.9506L42.8419 0.505297C41.6736 -0.167781 40.2365 -0.167781 39.0682 0.505297L1.88687 21.9506C0.718542 22.6237 0 23.8691 0 25.2153Z" fill="url(#paint0_linear_3176_24639)"/>
<path opacity="0.8" d="M6.00187 28.5343V64.0639C6.00187 65.4101 6.72041 66.6555 7.88874 67.3286L38.689 85.0934C39.8573 85.7665 41.2944 85.7665 42.4628 85.0934L73.263 67.3286C74.4295 66.6555 75.1499 65.4101 75.1499 64.0639V28.5343C75.1499 27.1882 74.4314 25.9427 73.263 25.2696L42.4609 7.50481C41.2926 6.83173 39.8555 6.83173 38.6871 7.50481L7.88687 25.2696C6.71854 25.9427 6 27.1882 6 28.5343H6.00187Z" fill="#EBEBEB"/>
<path d="M36.7214 37.98C36.7214 38.4 36.6214 38.81 36.4214 39.21C36.2414 39.59 36.0214 39.88 35.7614 40.08C35.2214 39.84 34.6514 39.66 34.0514 39.54C33.4714 39.4 32.9314 39.33 32.4314 39.33C31.2314 39.33 30.3014 39.65 29.6414 40.29C29.0014 40.91 28.5714 41.81 28.3514 42.99C28.7514 42.71 29.2814 42.46 29.9414 42.24C30.6014 42 31.2814 41.88 31.9814 41.88C33.8214 41.88 35.2814 42.41 36.3614 43.47C37.4614 44.53 38.0114 46.05 38.0114 48.03C38.0114 48.89 37.8614 49.71 37.5614 50.49C37.2614 51.27 36.8114 51.96 36.2114 52.56C35.6114 53.14 34.8614 53.61 33.9614 53.97C33.0814 54.31 32.0514 54.48 30.8714 54.48C28.5114 54.48 26.6514 53.69 25.2914 52.11C23.9514 50.53 23.2814 48.28 23.2814 45.36C23.2814 43.7 23.4814 42.24 23.8814 40.98C24.3014 39.72 24.8814 38.67 25.6214 37.83C26.3814 36.99 27.2814 36.36 28.3214 35.94C29.3614 35.52 30.5114 35.31 31.7714 35.31C33.3714 35.31 34.5914 35.53 35.4314 35.97C36.2914 36.41 36.7214 37.08 36.7214 37.98ZM30.8414 45.78C30.4614 45.78 30.0514 45.86 29.6114 46.02C29.1914 46.18 28.8514 46.4 28.5914 46.68V47.43C28.5914 48.51 28.8114 49.28 29.2514 49.74C29.7114 50.2 30.2614 50.43 30.9014 50.43C31.5614 50.43 32.0514 50.21 32.3714 49.77C32.7114 49.33 32.8814 48.76 32.8814 48.06C32.8814 47.36 32.7014 46.81 32.3414 46.41C32.0014 45.99 31.5014 45.78 30.8414 45.78ZM44.78 36.36C45.12 36.16 45.63 35.97 46.31 35.79C47.01 35.61 47.71 35.52 48.41 35.52C49.41 35.52 50.29 35.67 51.05 35.97C51.83 36.25 52.33 36.7 52.55 37.32C52.91 38.36 53.3 39.57 53.72 40.95C54.14 42.33 54.56 43.76 54.98 45.24C55.4 46.7 55.81 48.15 56.21 49.59C56.61 51.01 56.96 52.27 57.26 53.37C57.02 53.65 56.66 53.87 56.18 54.03C55.7 54.21 55.13 54.3 54.47 54.3C53.99 54.3 53.58 54.26 53.24 54.18C52.92 54.1 52.65 53.98 52.43 53.82C52.23 53.66 52.06 53.45 51.92 53.19C51.8 52.93 51.69 52.63 51.59 52.29L51.05 50.22H45.62C45.46 50.82 45.3 51.44 45.14 52.08C44.98 52.72 44.82 53.34 44.66 53.94C44.38 54.04 44.08 54.12 43.76 54.18C43.46 54.26 43.09 54.3 42.65 54.3C41.63 54.3 40.87 54.13 40.37 53.79C39.89 53.43 39.65 52.94 39.65 52.32C39.65 52.04 39.69 51.76 39.77 51.48C39.85 51.2 39.94 50.87 40.04 50.49C40.18 49.95 40.37 49.28 40.61 48.48C40.87 47.68 41.15 46.82 41.45 45.9C41.75 44.96 42.07 44 42.41 43.02C42.75 42.04 43.07 41.12 43.37 40.26C43.67 39.38 43.94 38.6 44.18 37.92C44.44 37.24 44.64 36.72 44.78 36.36ZM48.38 40.23C48.1 41.07 47.78 42.01 47.42 43.05C47.08 44.07 46.77 45.11 46.49 46.17H50.21C49.93 45.09 49.64 44.04 49.34 43.02C49.06 41.98 48.8 41.05 48.56 40.23H48.38Z" fill="#707070"/>
<defs>
<linearGradient id="paint0_linear_3176_24639" x1="40.9551" y1="0.000488281" x2="40.9551" y2="93.3207" gradientUnits="userSpaceOnUse">
<stop stop-color="#969696"/>
<stop offset="1" stop-color="#707070"/>
</linearGradient>
</defs>
</svg>
