<svg width="82" height="96" viewBox="0 0 82 96" fill="none" xmlns="http://www.w3.org/2000/svg">
<path d="M81.9101 27.4583V70.099C81.9101 71.5235 81.1486 72.8379 79.915 73.5502L73.0674 77.4991L72.9162 77.5868L62.362 83.6743L42.9502 94.8724C41.7165 95.5846 40.1936 95.5846 38.9581 94.8724L19.4212 83.6035L9.14135 77.6763L8.71769 77.4302L1.99512 73.552C0.761468 72.8398 0 71.5253 0 70.1009V27.4583C0 26.0338 0.761468 24.7194 1.99512 24.0071L38.9599 2.68676C40.1936 1.97453 41.7165 1.97453 42.952 2.68676L79.915 24.0071C81.1486 24.7194 81.9101 26.0338 81.9101 27.4583V27.4583Z" fill="#2E1F0E"/>
<path d="M0 25.2153V68.1059C0 69.452 0.718542 70.6975 1.88687 71.3706L39.0682 92.8159C40.2365 93.4889 41.6736 93.4889 42.8419 92.8159L80.0232 71.3706C81.1916 70.6975 81.9101 69.452 81.9101 68.1059V25.2153C81.9101 23.8691 81.1916 22.6237 80.0232 21.9506L42.8419 0.505297C41.6736 -0.167781 40.2365 -0.167781 39.0682 0.505297L1.88687 21.9506C0.718542 22.6237 0 23.8691 0 25.2153Z" fill="url(#paint0_linear_3176_24638)"/>
<path opacity="0.8" d="M6.00187 28.5343V64.0639C6.00187 65.4101 6.72041 66.6555 7.88874 67.3286L38.689 85.0934C39.8573 85.7665 41.2944 85.7665 42.4628 85.0934L73.263 67.3286C74.4295 66.6555 75.1499 65.4101 75.1499 64.0639V28.5343C75.1499 27.1882 74.4314 25.9427 73.263 25.2696L42.4609 7.50481C41.2926 6.83173 39.8555 6.83173 38.6871 7.50481L7.88687 25.2696C6.71854 25.9427 6 27.1882 6 28.5343H6.00187Z" fill="#F4DBBC"/>
<path d="M31.5938 54.48C30.6738 54.48 29.8338 54.41 29.0738 54.27C28.3338 54.13 27.6938 53.92 27.1538 53.64C26.6138 53.36 26.1938 53.02 25.8938 52.62C25.5938 52.2 25.4438 51.72 25.4438 51.18C25.4438 50.62 25.6038 50.15 25.9238 49.77C26.2438 49.39 26.6038 49.09 27.0038 48.87C27.5638 49.29 28.1638 49.66 28.8038 49.98C29.4438 50.28 30.2538 50.43 31.2338 50.43C32.1738 50.43 32.8438 50.22 33.2438 49.8C33.6438 49.38 33.8438 48.87 33.8438 48.27C33.8438 47.69 33.6638 47.21 33.3038 46.83C32.9638 46.45 32.3638 46.26 31.5038 46.26C30.9638 46.26 30.5138 46.32 30.1538 46.44C29.7938 46.56 29.3838 46.73 28.9238 46.95C27.9438 46.91 27.1638 46.65 26.5838 46.17C26.0238 45.67 25.7438 44.91 25.7438 43.89C25.7438 43.83 25.7438 43.76 25.7438 43.68C25.7438 43.58 25.7538 43.39 25.7738 43.11L26.1338 38.55C26.1938 37.69 26.4638 37.01 26.9438 36.51C27.4238 36.01 28.0938 35.76 28.9538 35.76H37.5938C37.7138 35.98 37.8338 36.27 37.9538 36.63C38.0738 36.99 38.1338 37.37 38.1338 37.77C38.1338 38.53 37.9638 39.07 37.6238 39.39C37.2838 39.71 36.8538 39.87 36.3338 39.87H30.5738L30.3638 42.69C30.7438 42.59 31.1238 42.5 31.5038 42.42C31.9038 42.34 32.4038 42.3 33.0038 42.3C34.0438 42.3 34.9438 42.46 35.7038 42.78C36.4638 43.08 37.0838 43.5 37.5638 44.04C38.0638 44.58 38.4238 45.21 38.6438 45.93C38.8838 46.65 39.0038 47.42 39.0038 48.24C39.0038 49.06 38.8638 49.85 38.5838 50.61C38.3038 51.37 37.8638 52.04 37.2638 52.62C36.6638 53.18 35.8938 53.63 34.9538 53.97C34.0338 54.31 32.9138 54.48 31.5938 54.48ZM50.9876 39.48C49.4476 39.48 48.2676 39.95 47.4476 40.89C46.6276 41.83 46.2176 43.16 46.2176 44.88C46.2176 46.62 46.6676 47.96 47.5676 48.9C48.4876 49.84 49.7176 50.31 51.2576 50.31C52.0776 50.31 52.7676 50.2 53.3276 49.98C53.9076 49.76 54.4576 49.51 54.9776 49.23C55.3176 49.51 55.5776 49.85 55.7576 50.25C55.9576 50.63 56.0576 51.08 56.0576 51.6C56.0576 52.42 55.5976 53.12 54.6776 53.7C53.7776 54.26 52.3976 54.54 50.5376 54.54C49.1976 54.54 47.9376 54.35 46.7576 53.97C45.5776 53.59 44.5476 53.01 43.6676 52.23C42.7876 51.43 42.0876 50.43 41.5676 49.23C41.0676 48.01 40.8176 46.56 40.8176 44.88C40.8176 43.32 41.0576 41.95 41.5376 40.77C42.0376 39.57 42.7076 38.56 43.5476 37.74C44.4076 36.92 45.4076 36.3 46.5476 35.88C47.6876 35.46 48.9076 35.25 50.2076 35.25C52.0476 35.25 53.4676 35.55 54.4676 36.15C55.4876 36.75 55.9976 37.52 55.9976 38.46C55.9976 38.98 55.8676 39.43 55.6076 39.81C55.3476 40.19 55.0476 40.49 54.7076 40.71C54.1876 40.37 53.6276 40.08 53.0276 39.84C52.4476 39.6 51.7676 39.48 50.9876 39.48Z" fill="#584024"/>
<defs>
<linearGradient id="paint0_linear_3176_24638" x1="40.9551" y1="0.000488281" x2="40.9551" y2="93.3207" gradientUnits="userSpaceOnUse">
<stop stop-color="#997852"/>
<stop offset="1" stop-color="#584024"/>
</linearGradient>
</defs>
</svg>
