<svg width="82" height="96" viewBox="0 0 82 96" fill="none" xmlns="http://www.w3.org/2000/svg">
<path d="M81.8284 27.4583V70.099C81.8284 71.5235 81.0677 72.8379 79.8353 73.5502L72.9945 77.4991L72.8435 77.5868L62.2998 83.6743L42.9074 94.8724C41.6749 95.5846 40.1535 95.5846 38.9192 94.8724L19.4018 83.6035L9.13224 77.6744L8.709 77.4283L1.99313 73.5502C0.760709 72.8379 0 71.5235 0 70.099V27.4583C0 26.0338 0.760709 24.7194 1.99313 24.0071L38.9211 2.68676C40.1535 1.97453 41.6749 1.97453 42.9092 2.68676L79.8353 24.0071C81.0677 24.7194 81.8284 26.0338 81.8284 27.4583V27.4583Z" fill="#7526BC"/>
<path d="M0 25.2153V68.1059C0 69.452 0.717826 70.6975 1.88499 71.3706L39.0292 92.8159C40.1964 93.4889 41.632 93.4889 42.7992 92.8159L79.9434 71.3706C81.1106 70.6975 81.8284 69.452 81.8284 68.1059V25.2153C81.8284 23.8691 81.1106 22.6237 79.9434 21.9506L42.7992 0.505297C41.6339 -0.167781 40.1964 -0.167781 39.0292 0.505297L1.88499 21.9506C0.717826 22.6237 0 23.8691 0 25.2153Z" fill="url(#paint0_linear_3176_24643)"/>
<path opacity="0.8" d="M6.00186 28.5343V64.0639C6.00186 65.4101 6.71969 66.6555 7.88686 67.3286L38.6564 85.0934C39.8236 85.7665 41.2592 85.7665 42.4264 85.0934L73.196 67.3286C74.3631 66.6555 75.081 65.4101 75.081 64.0639V28.5343C75.081 27.1882 74.3631 25.9427 73.196 25.2696L42.4245 7.50481C41.2592 6.83173 39.8217 6.83173 38.6546 7.50481L7.88499 25.2696C6.71783 25.9427 6 27.1882 6 28.5343H6.00186Z" fill="#EEDBFF"/>
<path d="M31.6962 35.97C32.0762 35.85 32.5062 35.75 32.9862 35.67C33.4862 35.59 33.9362 35.55 34.3362 35.55C34.7962 35.55 35.2362 35.6 35.6562 35.7C36.0962 35.78 36.4862 35.93 36.8262 36.15C37.1662 36.35 37.4362 36.63 37.6362 36.99C37.8362 37.35 37.9362 37.8 37.9362 38.34V46.32H40.6062C40.7262 46.54 40.8462 46.83 40.9662 47.19C41.0862 47.55 41.1462 47.93 41.1462 48.33C41.1462 49.09 40.9762 49.63 40.6362 49.95C40.2962 50.27 39.8662 50.43 39.3462 50.43H37.9362V53.97C37.7162 54.01 37.3862 54.06 36.9462 54.12C36.5062 54.2 36.0862 54.24 35.6862 54.24C35.2462 54.24 34.8562 54.22 34.5162 54.18C34.1762 54.14 33.8862 54.05 33.6462 53.91C33.4262 53.75 33.2562 53.53 33.1362 53.25C33.0162 52.97 32.9562 52.59 32.9562 52.11V50.43H25.4262C24.9662 50.19 24.5662 49.84 24.2262 49.38C23.9062 48.9 23.7462 48.32 23.7462 47.64C23.7462 47.26 23.7962 46.84 23.8962 46.38C23.9962 45.92 24.1662 45.52 24.4062 45.18L31.6962 35.97ZM33.2262 40.68H33.1362L29.1462 46.32H33.2262V40.68ZM48.3596 50.25C48.6396 50.33 48.9996 50.39 49.4396 50.43C49.8796 50.45 50.2996 50.46 50.6996 50.46C51.4996 50.46 52.1596 50.3 52.6796 49.98C53.2196 49.64 53.4896 49.12 53.4896 48.42C53.4896 47.76 53.2696 47.29 52.8296 47.01C52.3896 46.73 51.7196 46.59 50.8196 46.59H48.3596V50.25ZM48.3596 42.93H50.5496C51.4096 42.93 52.0296 42.77 52.4096 42.45C52.8096 42.13 53.0096 41.66 53.0096 41.04C53.0096 40.5 52.7796 40.07 52.3196 39.75C51.8796 39.43 51.2096 39.27 50.3096 39.27C50.0096 39.27 49.6596 39.28 49.2596 39.3C48.8796 39.32 48.5796 39.35 48.3596 39.39V42.93ZM50.3096 54.48C49.9696 54.48 49.5696 54.47 49.1096 54.45C48.6496 54.43 48.1696 54.39 47.6696 54.33C47.1896 54.27 46.7096 54.19 46.2296 54.09C45.7496 54.01 45.3096 53.89 44.9096 53.73C43.8096 53.31 43.2596 52.58 43.2596 51.54V37.53C43.2596 37.11 43.3696 36.79 43.5896 36.57C43.8296 36.33 44.1496 36.14 44.5496 36C45.2296 35.76 46.0796 35.59 47.0996 35.49C48.1196 35.37 49.1696 35.31 50.2496 35.31C52.8096 35.31 54.7796 35.74 56.1596 36.6C57.5396 37.46 58.2296 38.79 58.2296 40.59C58.2296 41.49 57.9696 42.27 57.4496 42.93C56.9296 43.57 56.2296 44.04 55.3496 44.34C56.3496 44.62 57.1796 45.13 57.8396 45.87C58.5196 46.61 58.8596 47.54 58.8596 48.66C58.8596 50.64 58.1196 52.11 56.6396 53.07C55.1796 54.01 53.0696 54.48 50.3096 54.48Z" fill="#9458C9"/>
<defs>
<linearGradient id="paint0_linear_3176_24643" x1="40.9142" y1="0.000488281" x2="40.9142" y2="93.3207" gradientUnits="userSpaceOnUse">
<stop stop-color="#D6B9F0"/>
<stop offset="1" stop-color="#9458C9"/>
</linearGradient>
</defs>
</svg>
