<svg width="82" height="96" viewBox="0 0 82 96" fill="none" xmlns="http://www.w3.org/2000/svg">
<path d="M81.8284 27.4582V70.099C81.8284 71.5234 81.0677 72.8379 79.8353 73.5501L72.9945 77.4991L72.8435 77.5867L62.2998 83.6743L42.9074 94.8723C41.6749 95.5846 40.1535 95.5846 38.9192 94.8723L19.4018 83.6034L9.13224 77.6744L8.709 77.4282L1.99313 73.5501C0.760709 72.8379 0 71.5234 0 70.099V27.4582C0 26.0338 0.760709 24.7193 1.99313 24.0071L38.9211 2.6867C40.1535 1.97447 41.6749 1.97447 42.9092 2.6867L79.8353 24.0071C81.0677 24.7193 81.8284 26.0338 81.8284 27.4582V27.4582Z" fill="#377E2A"/>
<path d="M0 25.2153V68.1058C0 69.452 0.717826 70.6975 1.88499 71.3705L39.0292 92.8158C40.1964 93.4889 41.632 93.4889 42.7992 92.8158L79.9434 71.3705C81.1087 70.6975 81.8284 69.452 81.8284 68.1058V25.2153C81.8284 23.8691 81.1106 22.6236 79.9434 21.9506L42.7992 0.505267C41.6339 -0.167812 40.1964 -0.167812 39.0292 0.505267L1.88499 21.9506C0.717826 22.6236 0 23.8691 0 25.2153Z" fill="url(#paint0_linear_3176_24629)"/>
<path opacity="0.8" d="M6.00186 28.5343V64.0639C6.00186 65.4101 6.71969 66.6555 7.88686 67.3286L38.6564 85.0934C39.8236 85.7665 41.2592 85.7665 42.4264 85.0934L73.196 67.3286C74.3631 66.6555 75.081 65.4101 75.081 64.0639V28.5343C75.081 27.1882 74.3631 25.9427 73.196 25.2696L42.4245 7.50481C41.2592 6.83173 39.8217 6.83173 38.6546 7.50481L7.88499 25.2696C6.71783 25.9427 6 27.1882 6 28.5343H6.00186Z" fill="#D3F3CD"/>
<path d="M31.3238 35.31C32.4638 35.31 33.4738 35.46 34.3538 35.76C35.2338 36.04 35.9838 36.43 36.6038 36.93C37.2238 37.43 37.6938 38.02 38.0138 38.7C38.3338 39.38 38.4938 40.11 38.4938 40.89C38.4938 42.99 37.3038 44.99 34.9238 46.89L30.9938 50.04H38.1938C38.3138 50.26 38.4238 50.54 38.5238 50.88C38.6438 51.22 38.7038 51.59 38.7038 51.99C38.7038 52.71 38.5438 53.23 38.2238 53.55C37.9038 53.85 37.4838 54 36.9638 54H26.5538C26.1138 53.7 25.7638 53.32 25.5038 52.86C25.2638 52.38 25.1438 51.82 25.1438 51.18C25.1438 50.5 25.2838 49.93 25.5638 49.47C25.8438 48.99 26.1538 48.61 26.4938 48.33L30.6338 44.79C31.1538 44.35 31.5838 43.96 31.9238 43.62C32.2638 43.26 32.5338 42.94 32.7338 42.66C32.9538 42.38 33.1038 42.12 33.1838 41.88C33.2838 41.64 33.3338 41.41 33.3338 41.19C33.3338 40.63 33.0838 40.19 32.5838 39.87C32.1038 39.55 31.5038 39.39 30.7838 39.39C29.9838 39.39 29.2638 39.52 28.6238 39.78C28.0038 40.02 27.4838 40.28 27.0638 40.56C26.7238 40.32 26.4438 40.02 26.2238 39.66C26.0038 39.3 25.8938 38.88 25.8938 38.4C25.8938 37.36 26.3838 36.59 27.3638 36.09C28.3438 35.57 29.6638 35.31 31.3238 35.31ZM50.9876 39.48C49.4476 39.48 48.2676 39.95 47.4476 40.89C46.6276 41.83 46.2176 43.16 46.2176 44.88C46.2176 46.62 46.6676 47.96 47.5676 48.9C48.4876 49.84 49.7176 50.31 51.2576 50.31C52.0776 50.31 52.7676 50.2 53.3276 49.98C53.9076 49.76 54.4576 49.51 54.9776 49.23C55.3176 49.51 55.5776 49.85 55.7576 50.25C55.9576 50.63 56.0576 51.08 56.0576 51.6C56.0576 52.42 55.5976 53.12 54.6776 53.7C53.7776 54.26 52.3976 54.54 50.5376 54.54C49.1976 54.54 47.9376 54.35 46.7576 53.97C45.5776 53.59 44.5476 53.01 43.6676 52.23C42.7876 51.43 42.0876 50.43 41.5676 49.23C41.0676 48.01 40.8176 46.56 40.8176 44.88C40.8176 43.32 41.0576 41.95 41.5376 40.77C42.0376 39.57 42.7076 38.56 43.5476 37.74C44.4076 36.92 45.4076 36.3 46.5476 35.88C47.6876 35.46 48.9076 35.25 50.2076 35.25C52.0476 35.25 53.4676 35.55 54.4676 36.15C55.4876 36.75 55.9976 37.52 55.9976 38.46C55.9976 38.98 55.8676 39.43 55.6076 39.81C55.3476 40.19 55.0476 40.49 54.7076 40.71C54.1876 40.37 53.6276 40.08 53.0276 39.84C52.4476 39.6 51.7676 39.48 50.9876 39.48Z" fill="#5EB14E"/>
<defs>
<linearGradient id="paint0_linear_3176_24629" x1="40.9142" y1="0.000457764" x2="40.9142" y2="93.3206" gradientUnits="userSpaceOnUse">
<stop stop-color="#91DB82"/>
<stop offset="1" stop-color="#5EB14E"/>
</linearGradient>
</defs>
</svg>
