<svg width="82" height="96" viewBox="0 0 82 96" fill="none" xmlns="http://www.w3.org/2000/svg">
<path d="M81.9101 27.4583V70.099C81.9101 71.5235 81.1486 72.8379 79.915 73.5502L73.0674 77.4991L72.9162 77.5868L62.362 83.6743L42.9502 94.8724C41.7165 95.5846 40.1936 95.5846 38.9581 94.8724L19.4212 83.6035L9.14135 77.6763L8.71769 77.4302L1.99512 73.552C0.761468 72.8398 0 71.5253 0 70.1009V27.4583C0 26.0338 0.761468 24.7194 1.99512 24.0071L38.9599 2.68676C40.1936 1.97453 41.7165 1.97453 42.952 2.68676L79.915 24.0071C81.1486 24.7194 81.9101 26.0338 81.9101 27.4583V27.4583Z" fill="#313131"/>
<path d="M0 25.2153V68.1059C0 69.452 0.718542 70.6975 1.88687 71.3706L39.0682 92.8159C40.2365 93.4889 41.6736 93.4889 42.8419 92.8159L80.0232 71.3706C81.1916 70.6975 81.9101 69.452 81.9101 68.1059V25.2153C81.9101 23.8691 81.1916 22.6237 80.0232 21.9506L42.8419 0.505297C41.6736 -0.167781 40.2365 -0.167781 39.0682 0.505297L1.88687 21.9506C0.718542 22.6237 0 23.8691 0 25.2153Z" fill="url(#paint0_linear_3176_24640)"/>
<path opacity="0.8" d="M6.00187 28.5343V64.0639C6.00187 65.4101 6.72041 66.6555 7.88874 67.3286L38.689 85.0934C39.8573 85.7665 41.2944 85.7665 42.4628 85.0934L73.263 67.3286C74.4295 66.6555 75.1499 65.4101 75.1499 64.0639V28.5343C75.1499 27.1882 74.4314 25.9427 73.263 25.2696L42.4609 7.50481C41.2926 6.83173 39.8555 6.83173 38.6871 7.50481L7.88687 25.2696C6.71854 25.9427 6 27.1882 6 28.5343H6.00187Z" fill="#E0E0E0"/>
<path d="M36.8386 37.98C36.8386 38.4 36.7386 38.81 36.5386 39.21C36.3586 39.59 36.1386 39.88 35.8786 40.08C35.3386 39.84 34.7686 39.66 34.1686 39.54C33.5886 39.4 33.0486 39.33 32.5486 39.33C31.3486 39.33 30.4186 39.65 29.7586 40.29C29.1186 40.91 28.6886 41.81 28.4686 42.99C28.8686 42.71 29.3986 42.46 30.0586 42.24C30.7186 42 31.3986 41.88 32.0986 41.88C33.9386 41.88 35.3986 42.41 36.4786 43.47C37.5786 44.53 38.1286 46.05 38.1286 48.03C38.1286 48.89 37.9786 49.71 37.6786 50.49C37.3786 51.27 36.9286 51.96 36.3286 52.56C35.7286 53.14 34.9786 53.61 34.0786 53.97C33.1986 54.31 32.1686 54.48 30.9886 54.48C28.6286 54.48 26.7686 53.69 25.4086 52.11C24.0686 50.53 23.3986 48.28 23.3986 45.36C23.3986 43.7 23.5986 42.24 23.9986 40.98C24.4186 39.72 24.9986 38.67 25.7386 37.83C26.4986 36.99 27.3986 36.36 28.4386 35.94C29.4786 35.52 30.6286 35.31 31.8886 35.31C33.4886 35.31 34.7086 35.53 35.5486 35.97C36.4086 36.41 36.8386 37.08 36.8386 37.98ZM30.9586 45.78C30.5786 45.78 30.1686 45.86 29.7286 46.02C29.3086 46.18 28.9686 46.4 28.7086 46.68V47.43C28.7086 48.51 28.9286 49.28 29.3686 49.74C29.8286 50.2 30.3786 50.43 31.0186 50.43C31.6786 50.43 32.1686 50.21 32.4886 49.77C32.8286 49.33 32.9986 48.76 32.9986 48.06C32.9986 47.36 32.8186 46.81 32.4586 46.41C32.1186 45.99 31.6186 45.78 30.9586 45.78ZM46.1271 50.25C46.4071 50.33 46.7671 50.39 47.2071 50.43C47.6471 50.45 48.0671 50.46 48.4671 50.46C49.2671 50.46 49.9271 50.3 50.4471 49.98C50.9871 49.64 51.2571 49.12 51.2571 48.42C51.2571 47.76 51.0371 47.29 50.5971 47.01C50.1571 46.73 49.4871 46.59 48.5871 46.59H46.1271V50.25ZM46.1271 42.93H48.3171C49.1771 42.93 49.7971 42.77 50.1771 42.45C50.5771 42.13 50.7771 41.66 50.7771 41.04C50.7771 40.5 50.5471 40.07 50.0871 39.75C49.6471 39.43 48.9771 39.27 48.0771 39.27C47.7771 39.27 47.4271 39.28 47.0271 39.3C46.6471 39.32 46.3471 39.35 46.1271 39.39V42.93ZM48.0771 54.48C47.7371 54.48 47.3371 54.47 46.8771 54.45C46.4171 54.43 45.9371 54.39 45.4371 54.33C44.9571 54.27 44.4771 54.19 43.9971 54.09C43.5171 54.01 43.0771 53.89 42.6771 53.73C41.5771 53.31 41.0271 52.58 41.0271 51.54V37.53C41.0271 37.11 41.1371 36.79 41.3571 36.57C41.5971 36.33 41.9171 36.14 42.3171 36C42.9971 35.76 43.8471 35.59 44.8671 35.49C45.8871 35.37 46.9371 35.31 48.0171 35.31C50.5771 35.31 52.5471 35.74 53.9271 36.6C55.3071 37.46 55.9971 38.79 55.9971 40.59C55.9971 41.49 55.7371 42.27 55.2171 42.93C54.6971 43.57 53.9971 44.04 53.1171 44.34C54.1171 44.62 54.9471 45.13 55.6071 45.87C56.2871 46.61 56.6271 47.54 56.6271 48.66C56.6271 50.64 55.8871 52.11 54.4071 53.07C52.9471 54.01 50.8371 54.48 48.0771 54.48Z" fill="#464545"/>
<defs>
<linearGradient id="paint0_linear_3176_24640" x1="40.9551" y1="0.000488281" x2="40.9551" y2="93.3207" gradientUnits="userSpaceOnUse">
<stop stop-color="#8C8C8C"/>
<stop offset="1" stop-color="#464545"/>
</linearGradient>
</defs>
</svg>
