<svg width="82" height="96" viewBox="0 0 82 96" fill="none" xmlns="http://www.w3.org/2000/svg">
<path d="M81.8284 27.4583V70.099C81.8284 71.5235 81.0677 72.8379 79.8353 73.5502L72.9945 77.4991L72.8435 77.5868L62.2998 83.6743L42.9074 94.8724C41.6749 95.5846 40.1535 95.5846 38.9192 94.8724L19.4018 83.6035L9.13224 77.6744L8.709 77.4283L1.99313 73.5502C0.760709 72.8379 0 71.5235 0 70.099V27.4583C0 26.0338 0.760709 24.7194 1.99313 24.0071L38.9211 2.68676C40.1535 1.97453 41.6749 1.97453 42.9092 2.68676L79.8353 24.0071C81.0677 24.7194 81.8284 26.0338 81.8284 27.4583V27.4583Z" fill="#4831C2"/>
<path d="M0 25.2153V68.1059C0 69.452 0.717826 70.6975 1.88499 71.3706L39.0292 92.8159C40.1964 93.4889 41.632 93.4889 42.7992 92.8159L79.9434 71.3706C81.1106 70.6975 81.8284 69.452 81.8284 68.1059V25.2153C81.8284 23.8691 81.1106 22.6237 79.9434 21.9506L42.7992 0.505297C41.6339 -0.167781 40.1964 -0.167781 39.0292 0.505297L1.88499 21.9506C0.717826 22.6237 0 23.8691 0 25.2153Z" fill="url(#paint0_linear_3176_24642)"/>
<path opacity="0.8" d="M6.00186 28.5343V64.0639C6.00186 65.4101 6.71969 66.6555 7.88686 67.3286L38.6564 85.0934C39.8236 85.7665 41.2592 85.7665 42.4264 85.0934L73.196 67.3286C74.3631 66.6555 75.081 65.4101 75.081 64.0639V28.5343C75.081 27.1882 74.3631 25.9427 73.196 25.2696L42.4245 7.50481C41.2592 6.83173 39.8217 6.83173 38.6546 7.50481L7.88499 25.2696C6.71783 25.9427 6 27.1882 6 28.5343H6.00186Z" fill="#EDEAFF"/>
<path d="M30.8593 35.97C31.2393 35.85 31.6693 35.75 32.1493 35.67C32.6493 35.59 33.0993 35.55 33.4993 35.55C33.9593 35.55 34.3993 35.6 34.8193 35.7C35.2593 35.78 35.6493 35.93 35.9893 36.15C36.3293 36.35 36.5993 36.63 36.7993 36.99C36.9993 37.35 37.0993 37.8 37.0993 38.34V46.32H39.7693C39.8893 46.54 40.0093 46.83 40.1293 47.19C40.2493 47.55 40.3093 47.93 40.3093 48.33C40.3093 49.09 40.1393 49.63 39.7993 49.95C39.4593 50.27 39.0293 50.43 38.5093 50.43H37.0993V53.97C36.8793 54.01 36.5493 54.06 36.1093 54.12C35.6693 54.2 35.2493 54.24 34.8493 54.24C34.4093 54.24 34.0193 54.22 33.6793 54.18C33.3393 54.14 33.0493 54.05 32.8093 53.91C32.5893 53.75 32.4193 53.53 32.2993 53.25C32.1793 52.97 32.1193 52.59 32.1193 52.11V50.43H24.5893C24.1293 50.19 23.7293 49.84 23.3893 49.38C23.0693 48.9 22.9093 48.32 22.9093 47.64C22.9093 47.26 22.9593 46.84 23.0593 46.38C23.1593 45.92 23.3293 45.52 23.5693 45.18L30.8593 35.97ZM32.3893 40.68H32.2993L28.3093 46.32H32.3893V40.68ZM46.7321 36.36C47.0721 36.16 47.5821 35.97 48.2621 35.79C48.9621 35.61 49.6621 35.52 50.3621 35.52C51.3621 35.52 52.2421 35.67 53.0021 35.97C53.7821 36.25 54.2821 36.7 54.5021 37.32C54.8621 38.36 55.2521 39.57 55.6721 40.95C56.0921 42.33 56.5121 43.76 56.9321 45.24C57.3521 46.7 57.7621 48.15 58.1621 49.59C58.5621 51.01 58.9121 52.27 59.2121 53.37C58.9721 53.65 58.6121 53.87 58.1321 54.03C57.6521 54.21 57.0821 54.3 56.4221 54.3C55.9421 54.3 55.5321 54.26 55.1921 54.18C54.8721 54.1 54.6021 53.98 54.3821 53.82C54.1821 53.66 54.0121 53.45 53.8721 53.19C53.7521 52.93 53.6421 52.63 53.5421 52.29L53.0021 50.22H47.5721C47.4121 50.82 47.2521 51.44 47.0921 52.08C46.9321 52.72 46.7721 53.34 46.6121 53.94C46.3321 54.04 46.0321 54.12 45.7121 54.18C45.4121 54.26 45.0421 54.3 44.6021 54.3C43.5821 54.3 42.8221 54.13 42.3221 53.79C41.8421 53.43 41.6021 52.94 41.6021 52.32C41.6021 52.04 41.6421 51.76 41.7221 51.48C41.8021 51.2 41.8921 50.87 41.9921 50.49C42.1321 49.95 42.3221 49.28 42.5621 48.48C42.8221 47.68 43.1021 46.82 43.4021 45.9C43.7021 44.96 44.0221 44 44.3621 43.02C44.7021 42.04 45.0221 41.12 45.3221 40.26C45.6221 39.38 45.8921 38.6 46.1321 37.92C46.3921 37.24 46.5921 36.72 46.7321 36.36ZM50.3321 40.23C50.0521 41.07 49.7321 42.01 49.3721 43.05C49.0321 44.07 48.7221 45.11 48.4421 46.17H52.1621C51.8821 45.09 51.5921 44.04 51.2921 43.02C51.0121 41.98 50.7521 41.05 50.5121 40.23H50.3321Z" fill="#7C6DCC"/>
<defs>
<linearGradient id="paint0_linear_3176_24642" x1="40.9142" y1="0.000488281" x2="40.9142" y2="93.3207" gradientUnits="userSpaceOnUse">
<stop stop-color="#ADA0F1"/>
<stop offset="1" stop-color="#7C6DCC"/>
</linearGradient>
</defs>
</svg>
