<svg width="82" height="96" viewBox="0 0 82 96" fill="none" xmlns="http://www.w3.org/2000/svg">
<path d="M81.8284 27.4583V70.099C81.8284 71.5235 81.0677 72.8379 79.8353 73.5502L72.9945 77.4991L72.8435 77.5868L62.2998 83.6743L42.9074 94.8724C41.6749 95.5846 40.1535 95.5846 38.9192 94.8724L19.4018 83.6035L9.13224 77.6744L8.709 77.4283L1.99313 73.5502C0.760709 72.8379 0 71.5235 0 70.099V27.4583C0 26.0338 0.760709 24.7194 1.99313 24.0071L38.9211 2.68676C40.1535 1.97453 41.6749 1.97453 42.9092 2.68676L79.8353 24.0071C81.0677 24.7194 81.8284 26.0338 81.8284 27.4583V27.4583Z" fill="#863991"/>
<path d="M0 25.2153V68.1059C0 69.452 0.717826 70.6975 1.88499 71.3706L39.0292 92.8159C40.1964 93.4889 41.632 93.4889 42.7992 92.8159L79.9434 71.3706C81.1106 70.6975 81.8284 69.452 81.8284 68.1059V25.2153C81.8284 23.8691 81.1106 22.6237 79.9434 21.9506L42.7992 0.505297C41.6339 -0.167781 40.1964 -0.167781 39.0292 0.505297L1.88499 21.9506C0.717826 22.6237 0 23.8691 0 25.2153Z" fill="url(#paint0_linear_3176_24644)"/>
<path opacity="0.8" d="M6.00186 28.5343V64.0639C6.00186 65.4101 6.71969 66.6555 7.88686 67.3286L38.6564 85.0934C39.8236 85.7665 41.2592 85.7665 42.4264 85.0934L73.196 67.3286C74.3631 66.6555 75.081 65.4101 75.081 64.0639V28.5343C75.081 27.1882 74.3631 25.9427 73.196 25.2696L42.4245 7.50481C41.2592 6.83173 39.8217 6.83173 38.6546 7.50481L7.88499 25.2696C6.71783 25.9427 6 27.1882 6 28.5343H6.00186Z" fill="#FBDFFF"/>
<path d="M31.6943 35.97C32.0743 35.85 32.5043 35.75 32.9843 35.67C33.4843 35.59 33.9343 35.55 34.3343 35.55C34.7943 35.55 35.2343 35.6 35.6543 35.7C36.0943 35.78 36.4843 35.93 36.8243 36.15C37.1643 36.35 37.4343 36.63 37.6343 36.99C37.8343 37.35 37.9343 37.8 37.9343 38.34V46.32H40.6043C40.7243 46.54 40.8443 46.83 40.9643 47.19C41.0843 47.55 41.1443 47.93 41.1443 48.33C41.1443 49.09 40.9743 49.63 40.6343 49.95C40.2943 50.27 39.8643 50.43 39.3443 50.43H37.9343V53.97C37.7143 54.01 37.3843 54.06 36.9443 54.12C36.5043 54.2 36.0843 54.24 35.6843 54.24C35.2443 54.24 34.8543 54.22 34.5143 54.18C34.1743 54.14 33.8843 54.05 33.6443 53.91C33.4243 53.75 33.2543 53.53 33.1343 53.25C33.0143 52.97 32.9543 52.59 32.9543 52.11V50.43H25.4243C24.9643 50.19 24.5643 49.84 24.2243 49.38C23.9043 48.9 23.7443 48.32 23.7443 47.64C23.7443 47.26 23.7943 46.84 23.8943 46.38C23.9943 45.92 24.1643 45.52 24.4043 45.18L31.6943 35.97ZM33.2243 40.68H33.1343L29.1443 46.32H33.2243V40.68ZM52.9671 39.48C51.4271 39.48 50.2471 39.95 49.4271 40.89C48.6071 41.83 48.1971 43.16 48.1971 44.88C48.1971 46.62 48.6471 47.96 49.5471 48.9C50.4671 49.84 51.6971 50.31 53.2371 50.31C54.0571 50.31 54.7471 50.2 55.3071 49.98C55.8871 49.76 56.4371 49.51 56.9571 49.23C57.2971 49.51 57.5571 49.85 57.7371 50.25C57.9371 50.63 58.0371 51.08 58.0371 51.6C58.0371 52.42 57.5771 53.12 56.6571 53.7C55.7571 54.26 54.3771 54.54 52.5171 54.54C51.1771 54.54 49.9171 54.35 48.7371 53.97C47.5571 53.59 46.5271 53.01 45.6471 52.23C44.7671 51.43 44.0671 50.43 43.5471 49.23C43.0471 48.01 42.7971 46.56 42.7971 44.88C42.7971 43.32 43.0371 41.95 43.5171 40.77C44.0171 39.57 44.6871 38.56 45.5271 37.74C46.3871 36.92 47.3871 36.3 48.5271 35.88C49.6671 35.46 50.8871 35.25 52.1871 35.25C54.0271 35.25 55.4471 35.55 56.4471 36.15C57.4671 36.75 57.9771 37.52 57.9771 38.46C57.9771 38.98 57.8471 39.43 57.5871 39.81C57.3271 40.19 57.0271 40.49 56.6871 40.71C56.1671 40.37 55.6071 40.08 55.0071 39.84C54.4271 39.6 53.7471 39.48 52.9671 39.48Z" fill="#994FA3"/>
<defs>
<linearGradient id="paint0_linear_3176_24644" x1="40.9142" y1="0.000488281" x2="40.9142" y2="93.3207" gradientUnits="userSpaceOnUse">
<stop stop-color="#E8A6F1"/>
<stop offset="1" stop-color="#994FA3"/>
</linearGradient>
</defs>
</svg>
