<svg width="82" height="96" viewBox="0 0 82 96" fill="none" xmlns="http://www.w3.org/2000/svg">
<path d="M81.9101 27.4582V70.099C81.9101 71.5234 81.1486 72.8379 79.915 73.5501L73.0674 77.4991L72.9162 77.5867L62.362 83.6743L42.9502 94.8724C41.7165 95.5846 40.1936 95.5846 38.9581 94.8724L19.4212 83.6034L9.14135 77.6762L8.71769 77.4301L1.99512 73.552C0.761468 72.8398 0 71.5253 0 70.1008V27.4582C0 26.0338 0.761468 24.7193 1.99512 24.0071L38.9599 2.68672C40.1936 1.97449 41.7165 1.97449 42.952 2.68672L79.915 24.0071C81.1486 24.7193 81.9101 26.0338 81.9101 27.4582V27.4582Z" fill="#CB6D06"/>
<path d="M0 25.2153V68.1059C0 69.452 0.718542 70.6975 1.88687 71.3706L39.0682 92.8159C40.2365 93.4889 41.6736 93.4889 42.8419 92.8159L80.0232 71.3706C81.1916 70.6975 81.9101 69.452 81.9101 68.1059V25.2153C81.9101 23.8691 81.1916 22.6237 80.0232 21.9506L42.8419 0.505297C41.6736 -0.167781 40.2365 -0.167781 39.0682 0.505297L1.88687 21.9506C0.718542 22.6237 0 23.8691 0 25.2153Z" fill="url(#paint0_linear_3176_24623)"/>
<path opacity="0.8" d="M6.00187 28.5343V64.0639C6.00187 65.4101 6.72041 66.6555 7.88874 67.3286L38.689 85.0934C39.8573 85.7665 41.2944 85.7665 42.4628 85.0934L73.263 67.3286C74.4295 66.6555 75.1499 65.4101 75.1499 64.0639V28.5343C75.1499 27.1882 74.4314 25.9427 73.263 25.2696L42.4609 7.50481C41.2926 6.83173 39.8555 6.83173 38.6871 7.50481L7.88687 25.2696C6.71854 25.9427 6 27.1882 6 28.5343H6.00187Z" fill="#FFE7CC"/>
<path d="M29.7251 47.25V53.88C29.5051 53.94 29.1551 54 28.6751 54.06C28.1951 54.12 27.7251 54.15 27.2651 54.15C26.8051 54.15 26.3951 54.11 26.0351 54.03C25.6951 53.97 25.4051 53.85 25.1651 53.67C24.9251 53.49 24.7451 53.24 24.6251 52.92C24.5051 52.6 24.4451 52.18 24.4451 51.66V35.82C24.6651 35.78 25.0151 35.73 25.4951 35.67C25.9751 35.59 26.4351 35.55 26.8751 35.55C27.3351 35.55 27.7351 35.59 28.0751 35.67C28.4351 35.73 28.7351 35.85 28.9751 36.03C29.2151 36.21 29.3951 36.46 29.5151 36.78C29.6351 37.1 29.6951 37.52 29.6951 38.04V42.81L35.9351 35.64C37.2951 35.64 38.2651 35.9 38.8451 36.42C39.4451 36.92 39.7451 37.52 39.7451 38.22C39.7451 38.74 39.6151 39.23 39.3551 39.69C39.0951 40.15 38.6751 40.67 38.0951 41.25L34.3451 45C34.8451 45.56 35.3651 46.14 35.9051 46.74C36.4651 47.34 37.0051 47.93 37.5251 48.51C38.0651 49.07 38.5751 49.61 39.0551 50.13C39.5551 50.65 39.9851 51.1 40.3451 51.48C40.3451 51.92 40.2651 52.31 40.1051 52.65C39.9451 52.99 39.7251 53.28 39.4451 53.52C39.1851 53.76 38.8851 53.94 38.5451 54.06C38.2051 54.18 37.8451 54.24 37.4651 54.24C36.6451 54.24 35.9751 54.04 35.4551 53.64C34.9351 53.22 34.4351 52.73 33.9551 52.17L29.7251 47.25ZM51.5862 39.48C50.0462 39.48 48.8662 39.95 48.0462 40.89C47.2262 41.83 46.8162 43.16 46.8162 44.88C46.8162 46.62 47.2662 47.96 48.1662 48.9C49.0862 49.84 50.3162 50.31 51.8562 50.31C52.6762 50.31 53.3662 50.2 53.9262 49.98C54.5062 49.76 55.0562 49.51 55.5762 49.23C55.9162 49.51 56.1762 49.85 56.3562 50.25C56.5562 50.63 56.6562 51.08 56.6562 51.6C56.6562 52.42 56.1962 53.12 55.2762 53.7C54.3762 54.26 52.9962 54.54 51.1362 54.54C49.7962 54.54 48.5362 54.35 47.3562 53.97C46.1762 53.59 45.1462 53.01 44.2662 52.23C43.3862 51.43 42.6862 50.43 42.1662 49.23C41.6662 48.01 41.4162 46.56 41.4162 44.88C41.4162 43.32 41.6562 41.95 42.1362 40.77C42.6362 39.57 43.3062 38.56 44.1462 37.74C45.0062 36.92 46.0062 36.3 47.1462 35.88C48.2862 35.46 49.5062 35.25 50.8062 35.25C52.6462 35.25 54.0662 35.55 55.0662 36.15C56.0862 36.75 56.5962 37.52 56.5962 38.46C56.5962 38.98 56.4662 39.43 56.2062 39.81C55.9462 40.19 55.6462 40.49 55.3062 40.71C54.7862 40.37 54.2262 40.08 53.6262 39.84C53.0462 39.6 52.3662 39.48 51.5862 39.48Z" fill="#FA982C"/>
<defs>
<linearGradient id="paint0_linear_3176_24623" x1="40.9551" y1="0.000488281" x2="40.9551" y2="93.3207" gradientUnits="userSpaceOnUse">
<stop stop-color="#FFBB70"/>
<stop offset="1" stop-color="#FA982C"/>
</linearGradient>
</defs>
</svg>
