<svg width="24" height="24" viewBox="0 0 24 24" fill="none" xmlns="http://www.w3.org/2000/svg">
<circle cx="12" cy="12" r="10" fill="url(#paint0_linear_2568_17728)"/>
<circle cx="12" cy="12" r="8" fill="url(#paint1_linear_2568_17728)"/>
<path d="M11.436 12.352H12.324C12.812 12.352 13.196 12.244 13.476 12.028C13.756 11.804 13.896 11.48 13.896 11.056C13.896 10.624 13.76 10.304 13.488 10.096C13.224 9.888 12.844 9.784 12.348 9.784C12.172 9.784 12.008 9.792 11.856 9.808C11.704 9.816 11.564 9.832 11.436 9.856V12.352ZM12.408 13.564H9.924V9.316C9.924 9.172 9.964 9.06 10.044 8.98C10.132 8.9 10.244 8.836 10.38 8.788C10.636 8.708 10.94 8.648 11.292 8.608C11.644 8.568 11.972 8.548 12.276 8.548C13.332 8.548 14.12 8.772 14.64 9.22C15.168 9.668 15.432 10.276 15.432 11.044C15.432 11.556 15.316 12 15.084 12.376C14.852 12.752 14.512 13.044 14.064 13.252C13.616 13.46 13.064 13.564 12.408 13.564ZM9.924 12.88H11.448V15.976C11.384 16 11.284 16.02 11.148 16.036C11.02 16.06 10.884 16.072 10.74 16.072C10.452 16.072 10.244 16.02 10.116 15.916C9.988 15.804 9.924 15.62 9.924 15.364V12.88Z" fill="#EBA238"/>
<defs>
<linearGradient id="paint0_linear_2568_17728" x1="12" y1="2" x2="12" y2="22" gradientUnits="userSpaceOnUse">
<stop stop-color="#FFDD92"/>
<stop offset="1" stop-color="#FABF3C"/>
</linearGradient>
<linearGradient id="paint1_linear_2568_17728" x1="12" y1="4" x2="12" y2="20" gradientUnits="userSpaceOnUse">
<stop stop-color="#FBC449"/>
<stop offset="1" stop-color="#FFDC8F"/>
</linearGradient>
</defs>
</svg>
