<svg width="24" height="24" viewBox="0 0 24 24" fill="none" xmlns="http://www.w3.org/2000/svg">
<path d="M12.493 21.6819C17.7439 21.6819 22.0005 17.4253 22.0005 12.1744C22.0005 6.92362 17.7439 2.66699 12.493 2.66699C7.24222 2.66699 2.9856 6.92362 2.9856 12.1744C2.9856 17.4253 7.24222 21.6819 12.493 21.6819Z" fill="#1D81BD"/>
<path d="M12.4929 21.0149C17.7437 21.0149 22.0004 16.7583 22.0004 11.5074C22.0004 6.25663 17.7437 2 12.4929 2C7.2421 2 2.98547 6.25663 2.98547 11.5074C2.98547 16.7583 7.2421 21.0149 12.4929 21.0149Z" fill="url(#paint0_linear_2568_17806)"/>
<path d="M12.4929 19.1241C13.522 19.1241 14.5192 18.923 15.457 18.5263C16.3637 18.1427 17.1785 17.5934 17.8787 16.8932C18.5789 16.193 19.1282 15.3783 19.5118 14.4716C19.9085 13.5338 20.1096 12.5364 20.1096 11.5074C20.1096 10.4784 19.9085 9.481 19.5118 8.54321C19.1282 7.6365 18.5789 6.82173 17.8787 6.12156C17.1785 5.42139 16.3637 4.87203 15.457 4.48845C14.5192 4.09175 13.5219 3.89062 12.4929 3.89062C11.4638 3.89062 10.4665 4.09175 9.52869 4.48845C8.62197 4.87203 7.8072 5.42139 7.10703 6.12156C6.40686 6.82173 5.8575 7.6365 5.47392 8.54321C5.07723 9.481 4.8761 10.4784 4.8761 11.5074C4.8761 12.5364 5.07723 13.5338 5.47392 14.4716C5.8575 15.3783 6.40686 16.193 7.10703 16.8932C7.8072 17.5934 8.62197 18.1427 9.52869 18.5263C10.4665 18.923 11.4638 19.1241 12.4929 19.1241Z" fill="white"/>
<path d="M12.4934 17.2334C13.2681 17.2334 14.0176 17.0826 14.7211 16.785C15.4026 16.4967 16.0152 16.0834 16.5423 15.5562C17.0695 15.0291 17.4828 14.4163 17.771 13.735C18.0685 13.0315 18.2195 12.282 18.2195 11.5073C18.2195 10.7326 18.0687 9.98312 17.771 9.27967C17.4828 8.59832 17.0695 7.98553 16.5423 7.45841C16.0152 6.93128 15.4024 6.51791 14.7211 6.22969C14.0176 5.9322 13.2681 5.78125 12.4934 5.78125C11.7187 5.78125 10.9692 5.93206 10.2658 6.22969C9.5844 6.51791 8.97161 6.93128 8.44449 7.45841C7.91737 7.98553 7.50399 8.59818 7.21577 9.27967C6.91829 9.98312 6.76733 10.7326 6.76733 11.5073C6.76733 12.282 6.91814 13.0315 7.21577 13.735C7.50399 14.4163 7.91737 15.0291 8.44449 15.5562C8.97161 16.0834 9.5844 16.4967 10.2658 16.785C10.9692 17.0824 11.7187 17.2334 12.4934 17.2334Z" fill="url(#paint1_linear_2568_17806)"/>
<path d="M12.4932 15.3427C13.0135 15.3427 13.5151 15.242 13.9844 15.0436C14.4405 14.8507 14.8512 14.5734 15.2052 14.2193C15.5593 13.8652 15.8367 13.4544 16.0296 12.9984C16.228 12.5292 16.3286 12.0275 16.3286 11.5073C16.3286 10.987 16.228 10.4852 16.0296 10.0161C15.8367 9.56014 15.5593 9.14933 15.2052 8.79525C14.8512 8.44118 14.4404 8.16379 13.9844 7.97093C13.5153 7.77251 13.0135 7.67188 12.4932 7.67188C11.9729 7.67188 11.4712 7.77251 11.0021 7.97093C10.5461 8.16379 10.1353 8.44118 9.78122 8.79525C9.42714 9.14933 9.14989 9.55999 8.95689 10.0161C8.75847 10.4854 8.65784 10.987 8.65784 11.5073C8.65784 12.0275 8.75847 12.5293 8.95689 12.9984C9.14975 13.4544 9.42714 13.8652 9.78122 14.2193C10.1353 14.5734 10.546 14.8506 11.0021 15.0435C11.4713 15.2419 11.9729 15.3425 12.4932 15.3425V15.3427Z" fill="white"/>
<path d="M12.4928 13.4519C12.7586 13.4519 13.0125 13.4016 13.2474 13.3022C13.478 13.2046 13.6868 13.0633 13.8679 12.8823C14.0489 12.7013 14.1902 12.4925 14.2878 12.2618C14.3872 12.0269 14.4375 11.773 14.4375 11.5072C14.4375 11.2414 14.3872 10.9875 14.2878 10.7526C14.1902 10.522 14.049 10.3131 13.868 10.1321C13.6868 9.95093 13.4782 9.80967 13.2475 9.71217C13.0126 9.61282 12.7587 9.5625 12.4929 9.5625C12.2271 9.5625 11.9732 9.61282 11.7383 9.71217C11.5077 9.80967 11.2988 9.95107 11.1178 10.1321C10.9368 10.3131 10.7955 10.5218 10.698 10.7526C10.5987 10.9875 10.5483 11.2414 10.5483 11.5072C10.5483 11.773 10.5987 12.0269 10.698 12.2618C10.7957 12.4925 10.9369 12.7013 11.1179 12.8823C11.299 13.0633 11.5077 13.2046 11.7383 13.3021C11.9732 13.4015 12.2271 13.4518 12.4929 13.4518L12.4928 13.4519Z" fill="#D95355"/>
<g style="mix-blend-mode:multiply" opacity="0.35">
<path d="M11.4437 12.5414C11.4396 12.5051 11.4512 12.4675 11.4789 12.4394L12.3199 11.5864C12.3684 11.5372 12.4476 11.5366 12.4968 11.5851L12.5011 11.5892L12.6433 11.46L12.7153 11.5297L12.5876 11.6743L12.5919 11.6785C12.641 11.7269 12.6416 11.8062 12.5932 11.8554L11.7522 12.7083C11.7245 12.7364 11.6869 12.7485 11.6505 12.745L6.01211 18.4641C5.94127 18.3981 5.87156 18.3309 5.80286 18.2628L11.4438 12.5411L11.4437 12.5414Z" fill="#A3A3A3"/>
</g>
<path d="M2.37289 4.39085L2 4.08025L3.01718 3.73145L4.91172 5.30911L3.89453 5.65791L2.50645 4.50203L3.01875 4.25785L2.37289 4.39085Z" fill="#BC3939"/>
<path d="M3.70954 3.11227L3.96526 4.07871C3.99463 3.85193 4.02399 3.62528 4.05321 3.3985L5.07054 4.24563L4.9116 5.30914L3.01721 3.73148L3.17615 2.66797L3.70968 3.11227H3.70954Z" fill="#D95355"/>
<path d="M12.3614 11.4826C12.4207 11.5135 12.4955 11.5001 12.54 11.4467C12.5913 11.3851 12.5829 11.2936 12.5213 11.2423L3.0803 3.59513C3.01872 3.54381 2.92721 3.55222 2.87589 3.6138C2.82458 3.67538 2.83299 3.76689 2.89456 3.81821L12.3356 11.4653C12.3437 11.472 12.3524 11.4779 12.3614 11.4826Z" fill="#4F4F4F"/>
<path d="M11.4003 10.7487L12.3103 11.5064C12.3663 11.553 12.4496 11.5454 12.4962 11.4894L12.5726 11.3976C12.6193 11.3416 12.6117 11.2583 12.5556 11.2117L11.6457 10.4541C11.5896 10.4074 11.5064 10.415 11.4598 10.471L11.3833 10.5628C11.3367 10.6189 11.3443 10.7021 11.4003 10.7487Z" fill="#3F3F3F"/>
<path d="M12.5615 11.3848L12.7152 11.5279L12.6517 11.6054L12.4825 11.4796L12.5615 11.3848Z" fill="#3F3F3F"/>
<defs>
<linearGradient id="paint0_linear_2568_17806" x1="3.57969" y1="3.92285" x2="23.956" y2="9.70568" gradientUnits="userSpaceOnUse">
<stop stop-color="#29C4E7"/>
<stop offset="1" stop-color="#0193FE"/>
</linearGradient>
<linearGradient id="paint1_linear_2568_17806" x1="7.12521" y1="6.93933" x2="19.3973" y2="10.4222" gradientUnits="userSpaceOnUse">
<stop stop-color="#29C4E7"/>
<stop offset="1" stop-color="#0193FE"/>
</linearGradient>
</defs>
</svg>
