<svg width="24" height="24" viewBox="0 0 24 24" fill="none" xmlns="http://www.w3.org/2000/svg">
<mask id="path-1-outside-1_2233_51444" maskUnits="userSpaceOnUse" x="1" y="1" width="22" height="22" fill="black">
<rect fill="white" x="1" y="1" width="22" height="22"/>
<path fill-rule="evenodd" clip-rule="evenodd" d="M22 12C22 17.5228 17.5228 22 12 22C6.47715 22 2 17.5228 2 12C2 6.47715 6.47715 2 12 2C17.5228 2 22 6.47715 22 12ZM9.52814 7.11833C9.8533 6.94431 10.2478 6.96338 10.5547 7.16795L16.5547 11.168C16.8329 11.3534 17 11.6656 17 12C17 12.3344 16.8329 12.6466 16.5547 12.8321L10.5547 16.8321C10.2478 17.0366 9.8533 17.0557 9.52814 16.8817C9.20298 16.7077 9 16.3688 9 16V8C9 7.63121 9.20298 7.29235 9.52814 7.11833Z"/>
</mask>
<path fill-rule="evenodd" clip-rule="evenodd" d="M22 12C22 17.5228 17.5228 22 12 22C6.47715 22 2 17.5228 2 12C2 6.47715 6.47715 2 12 2C17.5228 2 22 6.47715 22 12ZM9.52814 7.11833C9.8533 6.94431 10.2478 6.96338 10.5547 7.16795L16.5547 11.168C16.8329 11.3534 17 11.6656 17 12C17 12.3344 16.8329 12.6466 16.5547 12.8321L10.5547 16.8321C10.2478 17.0366 9.8533 17.0557 9.52814 16.8817C9.20298 16.7077 9 16.3688 9 16V8C9 7.63121 9.20298 7.29235 9.52814 7.11833Z" fill="white"/>
<path d="M10.5547 7.16795L10 8L10.5547 7.16795ZM9.52814 7.11833L10 8V8L9.52814 7.11833ZM16.5547 11.168L16 12L16 12L16.5547 11.168ZM16.5547 12.8321L17.1094 13.6641L17.1094 13.6641L16.5547 12.8321ZM10.5547 16.8321L10 16H10L10.5547 16.8321ZM9.52814 16.8817L9.05628 17.7634H9.05628L9.52814 16.8817ZM12 23C18.0751 23 23 18.0751 23 12H21C21 16.9706 16.9706 21 12 21V23ZM1 12C1 18.0751 5.92487 23 12 23V21C7.02944 21 3 16.9706 3 12H1ZM12 1C5.92487 1 1 5.92487 1 12H3C3 7.02944 7.02944 3 12 3V1ZM23 12C23 5.92487 18.0751 1 12 1V3C16.9706 3 21 7.02944 21 12H23ZM11.1094 6.3359C10.4957 5.92676 9.7066 5.88861 9.05628 6.23665L10 8H10L11.1094 6.3359ZM17.1094 10.3359L11.1094 6.3359L10 8L16 12L17.1094 10.3359ZM18 12C18 11.3313 17.6658 10.7068 17.1094 10.3359L16 12L16 12H18ZM17.1094 13.6641C17.6658 13.2932 18 12.6687 18 12H16L16 12L17.1094 13.6641ZM11.1094 17.6641L17.1094 13.6641L16 12L10 16L11.1094 17.6641ZM9.05628 17.7634C9.7066 18.1114 10.4957 18.0732 11.1094 17.6641L10 16L9.05628 17.7634ZM8 16C8 16.7376 8.40597 17.4153 9.05628 17.7634L10 16H8ZM8 8V16H10V8H8ZM9.05628 6.23665C8.40597 6.58469 8 7.26241 8 8H10V8L9.05628 6.23665Z" fill="white" mask="url(#path-1-outside-1_2233_51444)"/>
</svg>
