<svg width="82" height="120" viewBox="0 0 82 120" fill="none" xmlns="http://www.w3.org/2000/svg">
<path d="M72.8436 77.1561V118.518C72.8436 119.642 71.6335 120.351 70.6528 119.804L62.2999 115.137L40.987 103.231L19.4019 115.292L11.3231 119.804C10.3424 120.351 9.13232 119.644 9.13232 118.518V77.1561L10.3909 76.2816L14.5244 73.4066L16.1726 72.2581L40.987 54.9985L65.7343 72.2114L68.1674 73.9044L71.5179 76.235L72.8436 77.1561Z" fill="url(#paint0_linear_3104_8863)"/>
<path d="M19.4037 73.4066V115.29L11.3249 119.802C10.3442 120.349 9.13418 119.642 9.13418 118.516V77.6706L8.71094 77.4245V73.4028H19.4037V73.4066Z" fill="#ADC335"/>
<path opacity="0.5" d="M40.989 103.229L9.13428 84.7221V74.1039H72.8344L72.8194 118.553C72.8194 119.657 71.6336 120.352 70.6697 119.814L40.9871 103.229H40.989Z" fill="url(#paint1_linear_3104_8863)"/>
<path d="M72.9925 73.9044V77.4991L72.8415 77.5867V118.518C72.8415 119.642 71.6315 120.35 70.6507 119.804L62.2979 115.137V73.9062H72.9907L72.9925 73.9044Z" fill="#ADC335"/>
<path d="M81.8284 27.4582V70.099C81.8284 71.5234 81.0677 72.8379 79.8353 73.5501L72.9945 77.4991L72.8435 77.5867L62.2998 83.6743L42.9074 94.8723C41.6749 95.5846 40.1535 95.5846 38.9192 94.8723L19.4018 83.6034L9.13224 77.6743L8.709 77.4282L1.99313 73.5501C0.760709 72.8379 0 71.5234 0 70.099V27.4582C0 26.0338 0.760709 24.7193 1.99313 24.0071L38.9211 2.6867C40.1535 1.97447 41.6749 1.97447 42.9092 2.6867L79.8353 24.0071C81.0677 24.7193 81.8284 26.0338 81.8284 27.4582Z" fill="#8B9E22"/>
<path d="M0 25.2153V68.1058C0 69.452 0.717826 70.6975 1.88499 71.3705L39.0292 92.8158C40.1964 93.4889 41.632 93.4889 42.7992 92.8158L79.9434 71.3705C81.1087 70.6975 81.8284 69.452 81.8284 68.1058V25.2153C81.8284 23.8691 81.1106 22.6236 79.9434 21.9506L42.7992 0.505267C41.6339 -0.167812 40.1964 -0.167812 39.0292 0.505267L1.88499 21.9506C0.717826 22.6236 0 23.8691 0 25.2153Z" fill="url(#paint2_linear_3104_8863)"/>
<path opacity="0.8" d="M6.00186 28.5343V64.0639C6.00186 65.4101 6.71969 66.6555 7.88686 67.3286L38.6564 85.0934C39.8236 85.7665 41.2592 85.7665 42.4264 85.0934L73.196 67.3286C74.3631 66.6555 75.081 65.4101 75.081 64.0639V28.5343C75.081 27.1882 74.3631 25.9427 73.196 25.2696L42.4245 7.50481C41.2592 6.83173 39.8217 6.83173 38.6546 7.50481L7.88499 25.2696C6.71783 25.9427 6 27.1882 6 28.5343H6.00186Z" fill="#F5FADD"/>
<path d="M30.4888 35.31C31.6288 35.31 32.6388 35.46 33.5188 35.76C34.3988 36.04 35.1488 36.43 35.7688 36.93C36.3888 37.43 36.8588 38.02 37.1788 38.7C37.4988 39.38 37.6588 40.11 37.6588 40.89C37.6588 42.99 36.4688 44.99 34.0888 46.89L30.1588 50.04H37.3588C37.4788 50.26 37.5888 50.54 37.6888 50.88C37.8088 51.22 37.8688 51.59 37.8688 51.99C37.8688 52.71 37.7088 53.23 37.3888 53.55C37.0688 53.85 36.6488 54 36.1288 54H25.7188C25.2788 53.7 24.9288 53.32 24.6688 52.86C24.4288 52.38 24.3088 51.82 24.3088 51.18C24.3088 50.5 24.4488 49.93 24.7288 49.47C25.0088 48.99 25.3188 48.61 25.6588 48.33L29.7988 44.79C30.3188 44.35 30.7488 43.96 31.0888 43.62C31.4288 43.26 31.6988 42.94 31.8988 42.66C32.1188 42.38 32.2688 42.12 32.3488 41.88C32.4488 41.64 32.4988 41.41 32.4988 41.19C32.4988 40.63 32.2488 40.19 31.7488 39.87C31.2688 39.55 30.6688 39.39 29.9488 39.39C29.1488 39.39 28.4288 39.52 27.7888 39.78C27.1688 40.02 26.6488 40.28 26.2288 40.56C25.8888 40.32 25.6088 40.02 25.3888 39.66C25.1688 39.3 25.0588 38.88 25.0588 38.4C25.0588 37.36 25.5488 36.59 26.5288 36.09C27.5088 35.57 28.8288 35.31 30.4888 35.31ZM44.7526 36.36C45.0926 36.16 45.6026 35.97 46.2826 35.79C46.9826 35.61 47.6826 35.52 48.3826 35.52C49.3826 35.52 50.2626 35.67 51.0226 35.97C51.8026 36.25 52.3026 36.7 52.5226 37.32C52.8826 38.36 53.2726 39.57 53.6926 40.95C54.1126 42.33 54.5326 43.76 54.9526 45.24C55.3726 46.7 55.7826 48.15 56.1826 49.59C56.5826 51.01 56.9326 52.27 57.2326 53.37C56.9926 53.65 56.6326 53.87 56.1526 54.03C55.6726 54.21 55.1026 54.3 54.4426 54.3C53.9626 54.3 53.5526 54.26 53.2126 54.18C52.8926 54.1 52.6226 53.98 52.4026 53.82C52.2026 53.66 52.0326 53.45 51.8926 53.19C51.7726 52.93 51.6626 52.63 51.5626 52.29L51.0226 50.22H45.5926C45.4326 50.82 45.2726 51.44 45.1126 52.08C44.9526 52.72 44.7926 53.34 44.6326 53.94C44.3526 54.04 44.0526 54.12 43.7326 54.18C43.4326 54.26 43.0626 54.3 42.6226 54.3C41.6026 54.3 40.8426 54.13 40.3426 53.79C39.8626 53.43 39.6226 52.94 39.6226 52.32C39.6226 52.04 39.6626 51.76 39.7426 51.48C39.8226 51.2 39.9126 50.87 40.0126 50.49C40.1526 49.95 40.3426 49.28 40.5826 48.48C40.8426 47.68 41.1226 46.82 41.4226 45.9C41.7226 44.96 42.0426 44 42.3826 43.02C42.7226 42.04 43.0426 41.12 43.3426 40.26C43.6426 39.38 43.9126 38.6 44.1526 37.92C44.4126 37.24 44.6126 36.72 44.7526 36.36ZM48.3526 40.23C48.0726 41.07 47.7526 42.01 47.3926 43.05C47.0526 44.07 46.7426 45.11 46.4626 46.17H50.1826C49.9026 45.09 49.6126 44.04 49.3126 43.02C49.0326 41.98 48.7726 41.05 48.5326 40.23H48.3526Z" fill="#ADC335"/>
<defs>
<linearGradient id="paint0_linear_3104_8863" x1="9.13419" y1="87.4965" x2="72.8436" y2="87.4965" gradientUnits="userSpaceOnUse">
<stop stop-color="#EFF5CC"/>
<stop offset="1" stop-color="#CEE841"/>
</linearGradient>
<linearGradient id="paint1_linear_3104_8863" x1="75.5" y1="100.5" x2="-31.5" y2="97.0519" gradientUnits="userSpaceOnUse">
<stop stop-color="#ADC335"/>
<stop offset="1" stop-color="#ADC335" stop-opacity="0"/>
</linearGradient>
<linearGradient id="paint2_linear_3104_8863" x1="40.9142" y1="0.000457764" x2="40.9142" y2="93.3206" gradientUnits="userSpaceOnUse">
<stop stop-color="#DDE99E"/>
<stop offset="1" stop-color="#ADC335"/>
</linearGradient>
</defs>
</svg>
