<svg width="82" height="120" viewBox="0 0 82 120" fill="none" xmlns="http://www.w3.org/2000/svg">
<path d="M72.8436 77.1561V118.518C72.8436 119.642 71.6335 120.351 70.6528 119.804L62.2999 115.137L40.987 103.231L19.4019 115.292L11.3231 119.804C10.3424 120.351 9.13232 119.644 9.13232 118.518V77.1561L10.3909 76.2816L14.5244 73.4066L16.1726 72.2581L40.987 54.9985L65.7343 72.2114L68.1674 73.9044L71.5179 76.235L72.8436 77.1561Z" fill="#B2DFF4"/>
<path d="M19.4037 73.4066V115.29L11.3249 119.802C10.3442 120.349 9.13418 119.642 9.13418 118.516V77.6706L8.71094 77.4245V73.4028H19.4037V73.4066Z" fill="#5AA4C6"/>
<path opacity="0.5" d="M40.989 103.229L9.13428 84.7221V74.1039H72.8344L72.8194 118.553C72.8194 119.657 71.6336 120.352 70.6697 119.814L40.9871 103.229H40.989Z" fill="url(#paint0_linear_3104_9617)"/>
<path d="M72.9925 73.9044V77.4991L72.8415 77.5868V118.518C72.8415 119.642 71.6315 120.351 70.6507 119.804L62.2979 115.137V73.9063H72.9907L72.9925 73.9044Z" fill="#5AA4C6"/>
<path d="M81.8284 27.4583V70.099C81.8284 71.5235 81.0677 72.8379 79.8353 73.5502L72.9945 77.4991L72.8435 77.5868L62.2998 83.6743L42.9074 94.8724C41.6749 95.5846 40.1535 95.5846 38.9192 94.8724L19.4018 83.6035L9.13224 77.6744L8.709 77.4283L1.99313 73.5502C0.760709 72.8379 0 71.5235 0 70.099V27.4583C0 26.0338 0.760709 24.7194 1.99313 24.0071L38.9211 2.68676C40.1535 1.97453 41.6749 1.97453 42.9092 2.68676L79.8353 24.0071C81.0677 24.7194 81.8284 26.0338 81.8284 27.4583Z" fill="#447E98"/>
<path d="M0 25.2153V68.1059C0 69.452 0.717826 70.6975 1.88499 71.3706L39.0292 92.8159C40.1964 93.4889 41.632 93.4889 42.7992 92.8159L79.9434 71.3706C81.1087 70.6975 81.8284 69.452 81.8284 68.1059V25.2153C81.8284 23.8691 81.1106 22.6237 79.9434 21.9506L42.7992 0.505297C41.6339 -0.167781 40.1964 -0.167781 39.0292 0.505297L1.88499 21.9506C0.717826 22.6237 0 23.8691 0 25.2153Z" fill="url(#paint1_linear_3104_9617)"/>
<path opacity="0.8" d="M6.00186 28.5343V64.0639C6.00186 65.4101 6.71969 66.6555 7.88686 67.3286L38.6564 85.0934C39.8236 85.7665 41.2592 85.7665 42.4264 85.0934L73.196 67.3286C74.3631 66.6555 75.081 65.4101 75.081 64.0639V28.5343C75.081 27.1882 74.3631 25.9427 73.196 25.2696L42.4245 7.50481C41.2592 6.83173 39.8217 6.83173 38.6546 7.50481L7.88499 25.2696C6.71783 25.9427 6 27.1882 6 28.5343H6.00186Z" fill="#C8EEFF"/>
<path d="M30.4392 35.31C32.7392 35.31 34.4892 35.79 35.6892 36.75C36.8892 37.69 37.4892 38.96 37.4892 40.56C37.4892 41.52 37.2292 42.34 36.7092 43.02C36.2092 43.68 35.6092 44.18 34.9092 44.52C35.3292 44.68 35.7192 44.88 36.0792 45.12C36.4392 45.36 36.7592 45.66 37.0392 46.02C37.3192 46.38 37.5392 46.8 37.6992 47.28C37.8592 47.76 37.9392 48.32 37.9392 48.96C37.9392 49.82 37.7492 50.59 37.3692 51.27C37.0092 51.95 36.4992 52.53 35.8392 53.01C35.1792 53.49 34.3892 53.85 33.4692 54.09C32.5692 54.35 31.5792 54.48 30.4992 54.48C28.4192 54.48 26.8492 54.19 25.7892 53.61C24.7292 53.03 24.1992 52.29 24.1992 51.39C24.1992 50.85 24.3292 50.39 24.5892 50.01C24.8492 49.61 25.1692 49.3 25.5492 49.08C25.9492 49.36 26.4792 49.66 27.1392 49.98C27.8192 50.28 28.6992 50.43 29.7792 50.43C30.7992 50.43 31.5492 50.25 32.0292 49.89C32.5292 49.53 32.7792 49.06 32.7792 48.48C32.7792 47.9 32.5792 47.46 32.1792 47.16C31.7992 46.86 31.1292 46.71 30.1692 46.71H27.3492C27.2092 46.49 27.0892 46.22 26.9892 45.9C26.8892 45.58 26.8392 45.2 26.8392 44.76C26.8392 44.3 26.8792 43.91 26.9592 43.59C27.0592 43.25 27.1892 42.97 27.3492 42.75H30.1692C31.6092 42.75 32.3292 42.2 32.3292 41.1C32.3292 40.58 32.0992 40.16 31.6392 39.84C31.1792 39.52 30.4892 39.36 29.5692 39.36C28.7492 39.36 28.0292 39.46 27.4092 39.66C26.7892 39.84 26.2792 40.07 25.8792 40.35C25.5392 40.11 25.2592 39.82 25.0392 39.48C24.8192 39.12 24.7092 38.7 24.7092 38.22C24.7092 37.22 25.2292 36.49 26.2692 36.03C27.3092 35.55 28.6992 35.31 30.4392 35.31ZM46.0266 50.25C46.3066 50.33 46.6666 50.39 47.1066 50.43C47.5466 50.45 47.9666 50.46 48.3666 50.46C49.1666 50.46 49.8266 50.3 50.3466 49.98C50.8866 49.64 51.1566 49.12 51.1566 48.42C51.1566 47.76 50.9366 47.29 50.4966 47.01C50.0566 46.73 49.3866 46.59 48.4866 46.59H46.0266V50.25ZM46.0266 42.93H48.2166C49.0766 42.93 49.6966 42.77 50.0766 42.45C50.4766 42.13 50.6766 41.66 50.6766 41.04C50.6766 40.5 50.4466 40.07 49.9866 39.75C49.5466 39.43 48.8766 39.27 47.9766 39.27C47.6766 39.27 47.3266 39.28 46.9266 39.3C46.5466 39.32 46.2466 39.35 46.0266 39.39V42.93ZM47.9766 54.48C47.6366 54.48 47.2366 54.47 46.7766 54.45C46.3166 54.43 45.8366 54.39 45.3366 54.33C44.8566 54.27 44.3766 54.19 43.8966 54.09C43.4166 54.01 42.9766 53.89 42.5766 53.73C41.4766 53.31 40.9266 52.58 40.9266 51.54V37.53C40.9266 37.11 41.0366 36.79 41.2566 36.57C41.4966 36.33 41.8166 36.14 42.2166 36C42.8966 35.76 43.7466 35.59 44.7666 35.49C45.7866 35.37 46.8366 35.31 47.9166 35.31C50.4766 35.31 52.4466 35.74 53.8266 36.6C55.2066 37.46 55.8966 38.79 55.8966 40.59C55.8966 41.49 55.6366 42.27 55.1166 42.93C54.5966 43.57 53.8966 44.04 53.0166 44.34C54.0166 44.62 54.8466 45.13 55.5066 45.87C56.1866 46.61 56.5266 47.54 56.5266 48.66C56.5266 50.64 55.7866 52.11 54.3066 53.07C52.8466 54.01 50.7366 54.48 47.9766 54.48Z" fill="#5AA4C6"/>
<defs>
<linearGradient id="paint0_linear_3104_9617" x1="84.5" y1="120" x2="-16" y2="120" gradientUnits="userSpaceOnUse">
<stop stop-color="#5AA4C6"/>
<stop offset="1" stop-color="#5AA4C6" stop-opacity="0"/>
</linearGradient>
<linearGradient id="paint1_linear_3104_9617" x1="40.9142" y1="0.000488281" x2="40.9142" y2="93.3207" gradientUnits="userSpaceOnUse">
<stop stop-color="#9FCDE2"/>
<stop offset="1" stop-color="#5AA4C6"/>
</linearGradient>
</defs>
</svg>
