<svg width="82" height="120" viewBox="0 0 82 120" fill="none" xmlns="http://www.w3.org/2000/svg">
<path d="M72.8436 77.1561V118.518C72.8436 119.642 71.6335 120.351 70.6528 119.804L62.2999 115.137L40.987 103.231L19.4019 115.292L11.3231 119.804C10.3424 120.351 9.13232 119.644 9.13232 118.518V77.1561L10.3909 76.2816L14.5244 73.4066L16.1726 72.2581L40.987 54.9985L65.7343 72.2114L68.1674 73.9044L71.5179 76.235L72.8436 77.1561Z" fill="#BCE7ED"/>
<path d="M19.4037 73.4066V115.29L11.3249 119.802C10.3442 120.349 9.13418 119.642 9.13418 118.516V77.6706L8.71094 77.4245V73.4028H19.4037V73.4066Z" fill="#60B0AD"/>
<path opacity="0.5" d="M40.989 103.229L9.13428 84.7221V74.1039H72.8344L72.8194 118.553C72.8194 119.657 71.6336 120.352 70.6697 119.814L40.9871 103.229H40.989Z" fill="url(#paint0_linear_3104_8862)"/>
<path d="M72.9925 73.9044V77.4991L72.8415 77.5868V118.518C72.8415 119.642 71.6315 120.351 70.6507 119.804L62.2979 115.137V73.9063H72.9907L72.9925 73.9044Z" fill="#60B0AD"/>
<path d="M81.8284 27.4583V70.099C81.8284 71.5235 81.0677 72.8379 79.8353 73.5502L72.9945 77.4991L72.8435 77.5868L62.2998 83.6743L42.9074 94.8724C41.6749 95.5846 40.1535 95.5846 38.9192 94.8724L19.4018 83.6035L9.13224 77.6744L8.709 77.4283L1.99313 73.5502C0.760709 72.8379 0 71.5235 0 70.099V27.4583C0 26.0338 0.760709 24.7194 1.99313 24.0071L38.9211 2.68676C40.1535 1.97453 41.6749 1.97453 42.9092 2.68676L79.8353 24.0071C81.0677 24.7194 81.8284 26.0338 81.8284 27.4583Z" fill="#4A8785"/>
<path d="M0 25.2153V68.1059C0 69.452 0.717826 70.6975 1.88499 71.3706L39.0292 92.8159C40.1964 93.4889 41.632 93.4889 42.7992 92.8159L79.9434 71.3706C81.1087 70.6975 81.8284 69.452 81.8284 68.1059V25.2153C81.8284 23.8691 81.1106 22.6237 79.9434 21.9506L42.7992 0.505297C41.6339 -0.167781 40.1964 -0.167781 39.0292 0.505297L1.88499 21.9506C0.717826 22.6237 0 23.8691 0 25.2153Z" fill="url(#paint1_linear_3104_8862)"/>
<path opacity="0.8" d="M6.00186 28.5343V64.0639C6.00186 65.4101 6.71969 66.6555 7.88686 67.3286L38.6564 85.0934C39.8236 85.7665 41.2592 85.7665 42.4264 85.0934L73.196 67.3286C74.3631 66.6555 75.081 65.4101 75.081 64.0639V28.5343C75.081 27.1882 74.3631 25.9427 73.196 25.2696L42.4245 7.50481C41.2592 6.83173 39.8217 6.83173 38.6546 7.50481L7.88499 25.2696C6.71783 25.9427 6 27.1882 6 28.5343H6.00186Z" fill="#D2F4F3"/>
<path d="M30.322 35.31C32.622 35.31 34.372 35.79 35.572 36.75C36.772 37.69 37.372 38.96 37.372 40.56C37.372 41.52 37.112 42.34 36.592 43.02C36.092 43.68 35.492 44.18 34.792 44.52C35.212 44.68 35.602 44.88 35.962 45.12C36.322 45.36 36.642 45.66 36.922 46.02C37.202 46.38 37.422 46.8 37.582 47.28C37.742 47.76 37.822 48.32 37.822 48.96C37.822 49.82 37.632 50.59 37.252 51.27C36.892 51.95 36.382 52.53 35.722 53.01C35.062 53.49 34.272 53.85 33.352 54.09C32.452 54.35 31.462 54.48 30.382 54.48C28.302 54.48 26.732 54.19 25.672 53.61C24.612 53.03 24.082 52.29 24.082 51.39C24.082 50.85 24.212 50.39 24.472 50.01C24.732 49.61 25.052 49.3 25.432 49.08C25.832 49.36 26.362 49.66 27.022 49.98C27.702 50.28 28.582 50.43 29.662 50.43C30.682 50.43 31.432 50.25 31.912 49.89C32.412 49.53 32.662 49.06 32.662 48.48C32.662 47.9 32.462 47.46 32.062 47.16C31.682 46.86 31.012 46.71 30.052 46.71H27.232C27.092 46.49 26.972 46.22 26.872 45.9C26.772 45.58 26.722 45.2 26.722 44.76C26.722 44.3 26.762 43.91 26.842 43.59C26.942 43.25 27.072 42.97 27.232 42.75H30.052C31.492 42.75 32.212 42.2 32.212 41.1C32.212 40.58 31.982 40.16 31.522 39.84C31.062 39.52 30.372 39.36 29.452 39.36C28.632 39.36 27.912 39.46 27.292 39.66C26.672 39.84 26.162 40.07 25.762 40.35C25.422 40.11 25.142 39.82 24.922 39.48C24.702 39.12 24.592 38.7 24.592 38.22C24.592 37.22 25.112 36.49 26.152 36.03C27.192 35.55 28.582 35.31 30.322 35.31ZM44.6794 36.36C45.0194 36.16 45.5294 35.97 46.2094 35.79C46.9094 35.61 47.6094 35.52 48.3094 35.52C49.3094 35.52 50.1894 35.67 50.9494 35.97C51.7294 36.25 52.2294 36.7 52.4494 37.32C52.8094 38.36 53.1994 39.57 53.6194 40.95C54.0394 42.33 54.4594 43.76 54.8794 45.24C55.2994 46.7 55.7094 48.15 56.1094 49.59C56.5094 51.01 56.8594 52.27 57.1594 53.37C56.9194 53.65 56.5594 53.87 56.0794 54.03C55.5994 54.21 55.0294 54.3 54.3694 54.3C53.8894 54.3 53.4794 54.26 53.1394 54.18C52.8194 54.1 52.5494 53.98 52.3294 53.82C52.1294 53.66 51.9594 53.45 51.8194 53.19C51.6994 52.93 51.5894 52.63 51.4894 52.29L50.9494 50.22H45.5194C45.3594 50.82 45.1994 51.44 45.0394 52.08C44.8794 52.72 44.7194 53.34 44.5594 53.94C44.2794 54.04 43.9794 54.12 43.6594 54.18C43.3594 54.26 42.9894 54.3 42.5494 54.3C41.5294 54.3 40.7694 54.13 40.2694 53.79C39.7894 53.43 39.5494 52.94 39.5494 52.32C39.5494 52.04 39.5894 51.76 39.6694 51.48C39.7494 51.2 39.8394 50.87 39.9394 50.49C40.0794 49.95 40.2694 49.28 40.5094 48.48C40.7694 47.68 41.0494 46.82 41.3494 45.9C41.6494 44.96 41.9694 44 42.3094 43.02C42.6494 42.04 42.9694 41.12 43.2694 40.26C43.5694 39.38 43.8394 38.6 44.0794 37.92C44.3394 37.24 44.5394 36.72 44.6794 36.36ZM48.2794 40.23C47.9994 41.07 47.6794 42.01 47.3194 43.05C46.9794 44.07 46.6694 45.11 46.3894 46.17H50.1094C49.8294 45.09 49.5394 44.04 49.2394 43.02C48.9594 41.98 48.6994 41.05 48.4594 40.23H48.2794Z" fill="#60B0AD"/>
<defs>
<linearGradient id="paint0_linear_3104_8862" x1="-13.5" y1="97.0519" x2="72.8344" y2="97.0519" gradientUnits="userSpaceOnUse">
<stop stop-color="#60B0AD" stop-opacity="0"/>
<stop offset="1" stop-color="#60B0AD"/>
</linearGradient>
<linearGradient id="paint1_linear_3104_8862" x1="40.9142" y1="0.000488281" x2="40.9142" y2="93.3207" gradientUnits="userSpaceOnUse">
<stop stop-color="#8FD3D1"/>
<stop offset="1" stop-color="#60B0AD"/>
</linearGradient>
</defs>
</svg>
