<svg width="82" height="120" viewBox="0 0 82 120" fill="none" xmlns="http://www.w3.org/2000/svg">
<g clip-path="url(#clip0_3176_24149)">
<path d="M72.916 77.156V118.518C72.916 119.642 71.7048 120.351 70.7231 119.804L62.3619 115.137L41.0296 103.231L19.4229 115.292L11.336 119.804C10.3543 120.351 9.14307 119.644 9.14307 118.518V77.156L10.4028 76.2816L14.5405 73.4066L16.1904 72.258L41.0296 54.9985L65.8015 72.2114L68.2371 73.9044L71.5909 76.235L72.9179 77.156H72.916Z" fill="#CCF5D3"/>
<path d="M19.4232 73.4066V115.29L11.3363 119.802C10.3546 120.349 9.14339 119.642 9.14339 118.516V77.6706L8.71973 77.4245V73.4028H19.4232V73.4066Z" fill="#2ECC49"/>
<path opacity="0.5" d="M41.0296 103.229L9.14307 84.7221V74.1039H72.9067L72.8918 118.553C72.8918 119.657 71.7048 120.352 70.7399 119.814L41.0277 103.229H41.0296Z" fill="url(#paint0_linear_3176_24149)"/>
<path d="M73.0657 73.9044V77.4991L72.9145 77.5867V118.518C72.9145 119.642 71.7033 120.351 70.7216 119.804L62.3604 115.137V73.9063H73.0638L73.0657 73.9044Z" fill="#2ECC49"/>
<path d="M81.9101 27.4582V70.099C81.9101 71.5234 81.1486 72.8379 79.915 73.5501L73.0674 77.4991L72.9162 77.5867L62.362 83.6743L42.9502 94.8724C41.7165 95.5846 40.1936 95.5846 38.9581 94.8724L19.4212 83.6034L9.14135 77.6762L8.71769 77.4301L1.99512 73.552C0.761468 72.8398 0 71.5253 0 70.1008V27.4582C0 26.0338 0.761468 24.7193 1.99512 24.0071L38.9599 2.68672C40.1936 1.97449 41.7165 1.97449 42.952 2.68672L79.915 24.0071C81.1486 24.7193 81.9101 26.0338 81.9101 27.4582V27.4582Z" fill="#3ABA50"/>
<path d="M0 25.2153V68.1059C0 69.452 0.718542 70.6975 1.88687 71.3706L39.0682 92.8159C40.2365 93.4889 41.6736 93.4889 42.8419 92.8159L80.0232 71.3706C81.1916 70.6975 81.9101 69.452 81.9101 68.1059V25.2153C81.9101 23.8691 81.1916 22.6237 80.0232 21.9506L42.8419 0.505297C41.6736 -0.167781 40.2365 -0.167781 39.0682 0.505297L1.88687 21.9506C0.718542 22.6237 0 23.8691 0 25.2153Z" fill="url(#paint1_linear_3176_24149)"/>
<path opacity="0.8" d="M6.00187 28.5343V64.0639C6.00187 65.4101 6.72041 66.6555 7.88874 67.3286L38.689 85.0934C39.8573 85.7665 41.2944 85.7665 42.4628 85.0934L73.263 67.3286C74.4295 66.6555 75.1499 65.4101 75.1499 64.0639V28.5343C75.1499 27.1882 74.4314 25.9427 73.263 25.2696L42.4609 7.50481C41.2926 6.83173 39.8555 6.83173 38.6871 7.50481L7.88687 25.2696C6.71854 25.9427 6 27.1882 6 28.5343H6.00187Z" fill="#F3FFF5"/>
<path d="M15.1766 38.88C15.3526 38.912 15.5686 38.944 15.8246 38.976C16.0806 38.992 16.3206 39 16.5446 39C17.0886 39 17.5846 38.92 18.0326 38.76C18.4966 38.6 18.8886 38.352 19.2086 38.016C19.5446 37.68 19.8006 37.248 19.9766 36.72C20.1686 36.176 20.2646 35.528 20.2646 34.776C20.2646 33.336 19.9286 32.256 19.2566 31.536C18.5846 30.8 17.6886 30.432 16.5686 30.432C16.3446 30.432 16.1126 30.44 15.8726 30.456C15.6486 30.472 15.4166 30.496 15.1766 30.528V38.88ZM16.5206 42.384C16.2486 42.384 15.9366 42.376 15.5846 42.36C15.2326 42.344 14.8646 42.312 14.4806 42.264C14.1126 42.216 13.7366 42.152 13.3526 42.072C12.9846 42.008 12.6406 41.912 12.3206 41.784C11.4406 41.448 11.0006 40.864 11.0006 40.032V28.824C11.0006 28.488 11.0886 28.232 11.2646 28.056C11.4566 27.864 11.7126 27.712 12.0326 27.6C12.7206 27.376 13.4486 27.232 14.2166 27.168C14.9846 27.088 15.6726 27.048 16.2806 27.048C17.5286 27.048 18.6566 27.2 19.6646 27.504C20.6886 27.808 21.5606 28.28 22.2806 28.92C23.0166 29.544 23.5846 30.336 23.9846 31.296C24.3846 32.256 24.5846 33.392 24.5846 34.704C24.5846 35.984 24.3926 37.104 24.0086 38.064C23.6246 39.008 23.0726 39.808 22.3526 40.464C21.6486 41.104 20.8006 41.584 19.8086 41.904C18.8166 42.224 17.7206 42.384 16.5206 42.384ZM25.065 34.704C25.065 33.456 25.257 32.352 25.641 31.392C26.041 30.432 26.577 29.632 27.249 28.992C27.937 28.336 28.737 27.84 29.649 27.504C30.577 27.168 31.577 27 32.649 27C33.721 27 34.713 27.168 35.625 27.504C36.553 27.84 37.361 28.336 38.049 28.992C38.737 29.632 39.273 30.432 39.657 31.392C40.057 32.352 40.257 33.456 40.257 34.704C40.257 35.952 40.065 37.064 39.681 38.04C39.297 39 38.761 39.808 38.073 40.464C37.401 41.104 36.601 41.592 35.673 41.928C34.745 42.264 33.737 42.432 32.649 42.432C31.561 42.432 30.553 42.264 29.625 41.928C28.697 41.576 27.897 41.072 27.225 40.416C26.553 39.76 26.025 38.952 25.641 37.992C25.257 37.032 25.065 35.936 25.065 34.704ZM29.385 34.704C29.385 36.16 29.681 37.248 30.273 37.968C30.865 38.688 31.657 39.048 32.649 39.048C33.657 39.048 34.457 38.688 35.049 37.968C35.641 37.248 35.937 36.16 35.937 34.704C35.937 33.264 35.641 32.184 35.049 31.464C34.473 30.744 33.681 30.384 32.673 30.384C31.681 30.384 30.881 30.744 30.273 31.464C29.681 32.168 29.385 33.248 29.385 34.704ZM45.636 38.88C45.812 38.912 46.028 38.944 46.284 38.976C46.54 38.992 46.78 39 47.004 39C47.548 39 48.044 38.92 48.492 38.76C48.956 38.6 49.348 38.352 49.668 38.016C50.004 37.68 50.26 37.248 50.436 36.72C50.628 36.176 50.724 35.528 50.724 34.776C50.724 33.336 50.388 32.256 49.716 31.536C49.044 30.8 48.148 30.432 47.028 30.432C46.804 30.432 46.572 30.44 46.332 30.456C46.108 30.472 45.876 30.496 45.636 30.528V38.88ZM46.98 42.384C46.708 42.384 46.396 42.376 46.044 42.36C45.692 42.344 45.324 42.312 44.94 42.264C44.572 42.216 44.196 42.152 43.812 42.072C43.444 42.008 43.1 41.912 42.78 41.784C41.9 41.448 41.46 40.864 41.46 40.032V28.824C41.46 28.488 41.548 28.232 41.724 28.056C41.916 27.864 42.172 27.712 42.492 27.6C43.18 27.376 43.908 27.232 44.676 27.168C45.444 27.088 46.132 27.048 46.74 27.048C47.988 27.048 49.116 27.2 50.124 27.504C51.148 27.808 52.02 28.28 52.74 28.92C53.476 29.544 54.044 30.336 54.444 31.296C54.844 32.256 55.044 33.392 55.044 34.704C55.044 35.984 54.852 37.104 54.468 38.064C54.084 39.008 53.532 39.808 52.812 40.464C52.108 41.104 51.26 41.584 50.268 41.904C49.276 42.224 48.18 42.384 46.98 42.384ZM55.5244 34.704C55.5244 33.456 55.7164 32.352 56.1004 31.392C56.5004 30.432 57.0364 29.632 57.7084 28.992C58.3964 28.336 59.1964 27.84 60.1084 27.504C61.0364 27.168 62.0364 27 63.1084 27C64.1804 27 65.1724 27.168 66.0844 27.504C67.0124 27.84 67.8204 28.336 68.5084 28.992C69.1964 29.632 69.7324 30.432 70.1164 31.392C70.5164 32.352 70.7164 33.456 70.7164 34.704C70.7164 35.952 70.5244 37.064 70.1404 38.04C69.7564 39 69.2204 39.808 68.5324 40.464C67.8604 41.104 67.0604 41.592 66.1324 41.928C65.2044 42.264 64.1964 42.432 63.1084 42.432C62.0204 42.432 61.0124 42.264 60.0844 41.928C59.1564 41.576 58.3564 41.072 57.6844 40.416C57.0124 39.76 56.4844 38.952 56.1004 37.992C55.7164 37.032 55.5244 35.936 55.5244 34.704ZM59.8444 34.704C59.8444 36.16 60.1404 37.248 60.7324 37.968C61.3244 38.688 62.1164 39.048 63.1084 39.048C64.1164 39.048 64.9164 38.688 65.5084 37.968C66.1004 37.248 66.3964 36.16 66.3964 34.704C66.3964 33.264 66.1004 32.184 65.5084 31.464C64.9324 30.744 64.1404 30.384 63.1324 30.384C62.1404 30.384 61.3404 30.744 60.7324 31.464C60.1404 32.168 59.8444 33.248 59.8444 34.704ZM24.5474 47.888C24.8194 47.728 25.2274 47.576 25.7714 47.432C26.3314 47.288 26.8914 47.216 27.4514 47.216C28.2514 47.216 28.9554 47.336 29.5634 47.576C30.1874 47.8 30.5874 48.16 30.7634 48.656C31.0514 49.488 31.3634 50.456 31.6994 51.56C32.0354 52.664 32.3714 53.808 32.7074 54.992C33.0434 56.16 33.3714 57.32 33.6914 58.472C34.0114 59.608 34.2914 60.616 34.5314 61.496C34.3394 61.72 34.0514 61.896 33.6674 62.024C33.2834 62.168 32.8274 62.24 32.2994 62.24C31.9154 62.24 31.5874 62.208 31.3154 62.144C31.0594 62.08 30.8434 61.984 30.6674 61.856C30.5074 61.728 30.3714 61.56 30.2594 61.352C30.1634 61.144 30.0754 60.904 29.9954 60.632L29.5634 58.976H25.2194C25.0914 59.456 24.9634 59.952 24.8354 60.464C24.7074 60.976 24.5794 61.472 24.4514 61.952C24.2274 62.032 23.9874 62.096 23.7314 62.144C23.4914 62.208 23.1954 62.24 22.8434 62.24C22.0274 62.24 21.4194 62.104 21.0194 61.832C20.6354 61.544 20.4434 61.152 20.4434 60.656C20.4434 60.432 20.4754 60.208 20.5394 59.984C20.6034 59.76 20.6754 59.496 20.7554 59.192C20.8674 58.76 21.0194 58.224 21.2114 57.584C21.4194 56.944 21.6434 56.256 21.8834 55.52C22.1234 54.768 22.3794 54 22.6514 53.216C22.9234 52.432 23.1794 51.696 23.4194 51.008C23.6594 50.304 23.8754 49.68 24.0674 49.136C24.2754 48.592 24.4354 48.176 24.5474 47.888ZM27.4274 50.984C27.2034 51.656 26.9474 52.408 26.6594 53.24C26.3874 54.056 26.1394 54.888 25.9154 55.736H28.8914C28.6674 54.872 28.4354 54.032 28.1954 53.216C27.9714 52.384 27.7634 51.64 27.5714 50.984H27.4274ZM39.3783 59C39.6023 59.064 39.8903 59.112 40.2423 59.144C40.5943 59.16 40.9303 59.168 41.2503 59.168C41.8903 59.168 42.4183 59.04 42.8343 58.784C43.2663 58.512 43.4823 58.096 43.4823 57.536C43.4823 57.008 43.3063 56.632 42.9543 56.408C42.6023 56.184 42.0663 56.072 41.3463 56.072H39.3783V59ZM39.3783 53.144H41.1303C41.8183 53.144 42.3143 53.016 42.6183 52.76C42.9383 52.504 43.0983 52.128 43.0983 51.632C43.0983 51.2 42.9143 50.856 42.5463 50.6C42.1943 50.344 41.6583 50.216 40.9383 50.216C40.6983 50.216 40.4183 50.224 40.0983 50.24C39.7943 50.256 39.5543 50.28 39.3783 50.312V53.144ZM40.9383 62.384C40.6663 62.384 40.3463 62.376 39.9783 62.36C39.6103 62.344 39.2263 62.312 38.8263 62.264C38.4423 62.216 38.0583 62.152 37.6743 62.072C37.2903 62.008 36.9383 61.912 36.6183 61.784C35.7383 61.448 35.2983 60.864 35.2983 60.032V48.824C35.2983 48.488 35.3863 48.232 35.5623 48.056C35.7543 47.864 36.0103 47.712 36.3303 47.6C36.8743 47.408 37.5543 47.272 38.3703 47.192C39.1863 47.096 40.0263 47.048 40.8903 47.048C42.9383 47.048 44.5143 47.392 45.6183 48.08C46.7223 48.768 47.2743 49.832 47.2743 51.272C47.2743 51.992 47.0663 52.616 46.6503 53.144C46.2343 53.656 45.6743 54.032 44.9703 54.272C45.7703 54.496 46.4343 54.904 46.9623 55.496C47.5063 56.088 47.7783 56.832 47.7783 57.728C47.7783 59.312 47.1863 60.488 46.0023 61.256C44.8343 62.008 43.1463 62.384 40.9383 62.384ZM56.3737 50.384C55.1417 50.384 54.1977 50.76 53.5417 51.512C52.8857 52.264 52.5577 53.328 52.5577 54.704C52.5577 56.096 52.9177 57.168 53.6377 57.92C54.3737 58.672 55.3577 59.048 56.5897 59.048C57.2457 59.048 57.7977 58.96 58.2457 58.784C58.7097 58.608 59.1497 58.408 59.5657 58.184C59.8377 58.408 60.0457 58.68 60.1897 59C60.3497 59.304 60.4297 59.664 60.4297 60.08C60.4297 60.736 60.0617 61.296 59.3257 61.76C58.6057 62.208 57.5017 62.432 56.0137 62.432C54.9417 62.432 53.9337 62.28 52.9897 61.976C52.0457 61.672 51.2217 61.208 50.5177 60.584C49.8137 59.944 49.2537 59.144 48.8377 58.184C48.4377 57.208 48.2377 56.048 48.2377 54.704C48.2377 53.456 48.4297 52.36 48.8137 51.416C49.2137 50.456 49.7497 49.648 50.4217 48.992C51.1097 48.336 51.9097 47.84 52.8217 47.504C53.7337 47.168 54.7097 47 55.7497 47C57.2217 47 58.3577 47.24 59.1577 47.72C59.9737 48.2 60.3817 48.816 60.3817 49.568C60.3817 49.984 60.2777 50.344 60.0697 50.648C59.8617 50.952 59.6217 51.192 59.3497 51.368C58.9337 51.096 58.4857 50.864 58.0057 50.672C57.5417 50.48 56.9977 50.384 56.3737 50.384Z" fill="#2ECC49"/>
</g>
<defs>
<linearGradient id="paint0_linear_3176_24149" x1="76" y1="120" x2="-13.5" y2="120" gradientUnits="userSpaceOnUse">
<stop stop-color="#2ECC49"/>
<stop offset="1" stop-color="#2ECC49" stop-opacity="0"/>
</linearGradient>
<linearGradient id="paint1_linear_3176_24149" x1="40.9551" y1="0.000488281" x2="40.9551" y2="93.3207" gradientUnits="userSpaceOnUse">
<stop stop-color="#65F47D"/>
<stop offset="1" stop-color="#2ECC49"/>
</linearGradient>
<clipPath id="clip0_3176_24149">
<rect width="81.9101" height="120" fill="white"/>
</clipPath>
</defs>
</svg>
