<svg width="82" height="120" viewBox="0 0 82 120" fill="none" xmlns="http://www.w3.org/2000/svg">
<g clip-path="url(#clip0_3104_8865)">
<path d="M72.916 77.156V118.518C72.916 119.642 71.7048 120.351 70.7231 119.804L62.3619 115.137L41.0296 103.231L19.4229 115.292L11.336 119.804C10.3543 120.351 9.14307 119.644 9.14307 118.518V77.156L10.4028 76.2816L14.5405 73.4066L16.1904 72.258L41.0296 54.9985L65.8015 72.2114L68.2371 73.9044L71.5909 76.235L72.9179 77.156H72.916Z" fill="#FEF083"/>
<path d="M19.4232 73.4066V115.29L11.3363 119.802C10.3546 120.349 9.14339 119.642 9.14339 118.516V77.6706L8.71973 77.4245V73.4028H19.4232V73.4066Z" fill="#FADC56"/>
<path opacity="0.5" d="M41.0296 103.229L9.14307 84.7221V74.1039H72.9067L72.8918 118.553C72.8918 119.657 71.7048 120.352 70.7399 119.814L41.0277 103.229H41.0296Z" fill="url(#paint0_linear_3104_8865)"/>
<path d="M73.0657 73.9044V77.4991L72.9145 77.5867V118.518C72.9145 119.642 71.7033 120.351 70.7216 119.804L62.3604 115.137V73.9063H73.0638L73.0657 73.9044Z" fill="#FADC56"/>
<path d="M81.9101 27.4583V70.099C81.9101 71.5234 81.1486 72.8379 79.915 73.5501L73.0674 77.4991L72.9162 77.5867L62.362 83.6743L42.9502 94.8724C41.7165 95.5846 40.1936 95.5846 38.9581 94.8724L19.4212 83.6034L9.14135 77.6762L8.71769 77.4301L1.99512 73.552C0.761468 72.8398 0 71.5253 0 70.1008V27.4583C0 26.0338 0.761468 24.7193 1.99512 24.0071L38.9599 2.68672C40.1936 1.97449 41.7165 1.97449 42.952 2.68672L79.915 24.0071C81.1486 24.7193 81.9101 26.0338 81.9101 27.4583Z" fill="url(#paint1_linear_3104_8865)"/>
<path d="M0 25.2153V68.1059C0 69.452 0.718542 70.6975 1.88687 71.3706L39.0682 92.8159C40.2365 93.4889 41.6736 93.4889 42.8419 92.8159L80.0232 71.3706C81.1916 70.6975 81.9101 69.452 81.9101 68.1059V25.2153C81.9101 23.8691 81.1916 22.6237 80.0232 21.9506L42.8419 0.505297C41.6736 -0.167781 40.2365 -0.167781 39.0682 0.505297L1.88687 21.9506C0.718542 22.6237 0 23.8691 0 25.2153Z" fill="url(#paint2_linear_3104_8865)"/>
<path opacity="0.8" d="M6.00187 28.5343V64.0639C6.00187 65.4101 6.72041 66.6555 7.88874 67.3286L38.689 85.0934C39.8573 85.7665 41.2944 85.7665 42.4628 85.0934L73.263 67.3286C74.4295 66.6555 75.1499 65.4101 75.1499 64.0639V28.5343C75.1499 27.1882 74.4314 25.9427 73.263 25.2696L42.4609 7.50481C41.2926 6.83173 39.8555 6.83173 38.6871 7.50481L7.88687 25.2696C6.71854 25.9427 6 27.1882 6 28.5343H6.00187Z" fill="#FFF68E"/>
<path d="M16.9875 44.25C17.8275 44.25 18.4675 44.06 18.9075 43.68C19.3675 43.28 19.5975 42.68 19.5975 41.88C19.5975 41.12 19.3575 40.54 18.8775 40.14C18.4175 39.72 17.7375 39.51 16.8375 39.51C16.5175 39.51 16.2475 39.52 16.0275 39.54C15.8275 39.54 15.6175 39.56 15.3975 39.6V44.25H16.9875ZM15.4275 53.88C15.2075 53.94 14.8575 54 14.3775 54.06C13.9175 54.12 13.4575 54.15 12.9975 54.15C12.5375 54.15 12.1275 54.11 11.7675 54.03C11.4275 53.97 11.1375 53.85 10.8975 53.67C10.6575 53.49 10.4775 53.24 10.3575 52.92C10.2375 52.6 10.1775 52.18 10.1775 51.66V37.53C10.1775 37.11 10.2875 36.79 10.5075 36.57C10.7475 36.33 11.0675 36.14 11.4675 36C12.1475 35.76 12.9175 35.59 13.7775 35.49C14.6575 35.37 15.5375 35.31 16.4175 35.31C19.1775 35.31 21.2875 35.9 22.7475 37.08C24.2075 38.26 24.9375 39.86 24.9375 41.88C24.9375 42.86 24.7775 43.75 24.4575 44.55C24.1575 45.33 23.6975 46.01 23.0775 46.59C22.4775 47.15 21.7075 47.59 20.7675 47.91C19.8475 48.21 18.7775 48.36 17.5575 48.36H15.4275V53.88ZM31.7332 53.97C31.5332 54.03 31.2132 54.09 30.7732 54.15C30.3532 54.21 29.9132 54.24 29.4532 54.24C29.0132 54.24 28.6132 54.21 28.2532 54.15C27.9132 54.09 27.6232 53.97 27.3832 53.79C27.1432 53.61 26.9532 53.37 26.8132 53.07C26.6932 52.75 26.6332 52.34 26.6332 51.84V42.84C26.6332 42.38 26.7132 41.99 26.8732 41.67C27.0532 41.33 27.3032 41.03 27.6232 40.77C27.9432 40.51 28.3332 40.28 28.7932 40.08C29.2732 39.86 29.7832 39.67 30.3232 39.51C30.8632 39.35 31.4232 39.23 32.0032 39.15C32.5832 39.05 33.1632 39 33.7432 39C34.7032 39 35.4632 39.19 36.0232 39.57C36.5832 39.93 36.8632 40.53 36.8632 41.37C36.8632 41.65 36.8232 41.93 36.7432 42.21C36.6632 42.47 36.5632 42.71 36.4432 42.93C36.0232 42.93 35.5932 42.95 35.1532 42.99C34.7132 43.03 34.2832 43.09 33.8632 43.17C33.4432 43.25 33.0432 43.34 32.6632 43.44C32.3032 43.52 31.9932 43.62 31.7332 43.74V53.97ZM46.1206 54.48C44.9406 54.48 43.8406 54.32 42.8206 54C41.8206 53.66 40.9406 53.16 40.1806 52.5C39.4406 51.84 38.8506 51.01 38.4106 50.01C37.9906 49.01 37.7806 47.84 37.7806 46.5C37.7806 45.18 37.9906 44.05 38.4106 43.11C38.8506 42.15 39.4206 41.37 40.1206 40.77C40.8206 40.15 41.6206 39.7 42.5206 39.42C43.4206 39.12 44.3406 38.97 45.2806 38.97C46.3406 38.97 47.3006 39.13 48.1606 39.45C49.0406 39.77 49.7906 40.21 50.4106 40.77C51.0506 41.33 51.5406 42 51.8806 42.78C52.2406 43.56 52.4206 44.41 52.4206 45.33C52.4206 46.01 52.2306 46.53 51.8506 46.89C51.4706 47.25 50.9406 47.48 50.2606 47.58L42.8506 48.69C43.0706 49.35 43.5206 49.85 44.2006 50.19C44.8806 50.51 45.6606 50.67 46.5406 50.67C47.3606 50.67 48.1306 50.57 48.8506 50.37C49.5906 50.15 50.1906 49.9 50.6506 49.62C50.9706 49.82 51.2406 50.1 51.4606 50.46C51.6806 50.82 51.7906 51.2 51.7906 51.6C51.7906 52.5 51.3706 53.17 50.5306 53.61C49.8906 53.95 49.1706 54.18 48.3706 54.3C47.5706 54.42 46.8206 54.48 46.1206 54.48ZM45.2806 42.69C44.8006 42.69 44.3806 42.77 44.0206 42.93C43.6806 43.09 43.4006 43.3 43.1806 43.56C42.9606 43.8 42.7906 44.08 42.6706 44.4C42.5706 44.7 42.5106 45.01 42.4906 45.33L47.6206 44.49C47.5606 44.09 47.3406 43.69 46.9606 43.29C46.5806 42.89 46.0206 42.69 45.2806 42.69ZM60.5454 47.25V53.88C60.3254 53.94 59.9754 54 59.4954 54.06C59.0154 54.12 58.5454 54.15 58.0854 54.15C57.6254 54.15 57.2154 54.11 56.8554 54.03C56.5154 53.97 56.2254 53.85 55.9854 53.67C55.7454 53.49 55.5654 53.24 55.4454 52.92C55.3254 52.6 55.2654 52.18 55.2654 51.66V35.82C55.4854 35.78 55.8354 35.73 56.3154 35.67C56.7954 35.59 57.2554 35.55 57.6954 35.55C58.1554 35.55 58.5554 35.59 58.8954 35.67C59.2554 35.73 59.5554 35.85 59.7954 36.03C60.0354 36.21 60.2154 36.46 60.3354 36.78C60.4554 37.1 60.5154 37.52 60.5154 38.04V42.81L66.7554 35.64C68.1154 35.64 69.0854 35.9 69.6654 36.42C70.2654 36.92 70.5654 37.52 70.5654 38.22C70.5654 38.74 70.4354 39.23 70.1754 39.69C69.9154 40.15 69.4954 40.67 68.9154 41.25L65.1654 45C65.6654 45.56 66.1854 46.14 66.7254 46.74C67.2854 47.34 67.8254 47.93 68.3454 48.51C68.8854 49.07 69.3954 49.61 69.8754 50.13C70.3754 50.65 70.8054 51.1 71.1654 51.48C71.1654 51.92 71.0854 52.31 70.9254 52.65C70.7654 52.99 70.5454 53.28 70.2654 53.52C70.0054 53.76 69.7054 53.94 69.3654 54.06C69.0254 54.18 68.6654 54.24 68.2854 54.24C67.4654 54.24 66.7954 54.04 66.2754 53.64C65.7554 53.22 65.2554 52.73 64.7754 52.17L60.5454 47.25Z" fill="#F9D854"/>
</g>
<defs>
<linearGradient id="paint0_linear_3104_8865" x1="70" y1="120" x2="-9" y2="117" gradientUnits="userSpaceOnUse">
<stop stop-color="#F9D754"/>
<stop offset="1" stop-color="#F9D754" stop-opacity="0"/>
</linearGradient>
<linearGradient id="paint1_linear_3104_8865" x1="-1.14407" y1="48.7786" x2="80.766" y2="48.7786" gradientUnits="userSpaceOnUse">
<stop stop-color="#F7C952"/>
<stop offset="1" stop-color="#F3BC2D"/>
</linearGradient>
<linearGradient id="paint2_linear_3104_8865" x1="32.9578" y1="1.34991" x2="48.9214" y2="91.9748" gradientUnits="userSpaceOnUse">
<stop stop-color="#FCEF5F"/>
<stop offset="1" stop-color="#F8D352"/>
</linearGradient>
<clipPath id="clip0_3104_8865">
<rect width="81.9101" height="120" fill="white"/>
</clipPath>
</defs>
</svg>
