<svg width="28" height="23" viewBox="0 0 28 23" fill="none" xmlns="http://www.w3.org/2000/svg">
<g clip-path="url(#clip0_5351_5766)">
<path d="M19.1037 0.5C19.8183 0.5 20.4785 0.8812 20.8358 1.5L26.1811 10.7583C26.5383 11.3771 26.5383 12.1395 26.1811 12.7583L20.8358 22.0167C20.4785 22.6355 19.8183 23.0167 19.1037 23.0167H8.41317C7.69864 23.0167 7.03839 22.6355 6.68112 22.0167L1.33582 12.7583C0.978554 12.1395 0.978555 11.3771 1.33582 10.7583L6.68112 1.5C7.03839 0.8812 7.69864 0.5 8.41317 0.5H19.1037Z" fill="url(#paint0_linear_5351_5766)"/>
<path d="M17.9388 2.25C18.6533 2.25 19.3136 2.6312 19.6708 3.25L23.7661 10.3433C24.1234 10.9621 24.1234 11.7245 23.7661 12.3433L19.6708 19.4366C19.3136 20.0554 18.6533 20.4366 17.9388 20.4366H9.74813C9.0336 20.4366 8.37334 20.0554 8.01608 19.4366L3.92078 12.3433C3.56351 11.7245 3.56351 10.9621 3.92078 10.3433L8.01608 3.25C8.37334 2.6312 9.0336 2.25 9.74813 2.25H17.9388Z" fill="url(#paint1_linear_5351_5766)"/>
<path d="M13.6325 6.80505C15.6345 6.80505 17.1305 8.02605 17.2295 9.73105H15.1615C15.0405 8.95005 14.4575 8.47705 13.5005 8.47705C12.5655 8.47705 12.0485 8.85105 12.0485 9.39005C12.0485 10.0611 12.7415 10.2921 14.4905 10.6551C16.5585 11.0841 17.2625 12.1071 17.2625 13.4491C17.2625 15.1651 15.6455 16.2101 13.6435 16.2101C11.4325 16.2101 9.81554 15.0111 9.72754 13.0971H11.7845C11.8945 13.9551 12.6425 14.5271 13.7865 14.5271C14.6005 14.5271 15.2055 14.1201 15.2055 13.5371C15.2055 12.8221 14.6005 12.5361 13.0055 12.2391C11.0585 11.8761 10.0025 11.0731 10.0025 9.39005C10.0025 7.77305 11.6085 6.80505 13.6325 6.80505Z" fill="white"/>
</g>
<defs>
<linearGradient id="paint0_linear_5351_5766" x1="2.69339" y1="4.66228" x2="24.9089" y2="17.2526" gradientUnits="userSpaceOnUse">
<stop stop-color="#D8DCD6"/>
<stop offset="1" stop-color="#959BA3"/>
</linearGradient>
<linearGradient id="paint1_linear_5351_5766" x1="4.90625" y1="5.61184" x2="22.8496" y2="15.781" gradientUnits="userSpaceOnUse">
<stop stop-color="#959BA3"/>
<stop offset="1" stop-color="#D8DCD6"/>
</linearGradient>
<clipPath id="clip0_5351_5766">
<rect width="28" height="23" fill="white"/>
</clipPath>
</defs>
</svg>
