<svg width="28" height="23" viewBox="0 0 28 23" fill="none" xmlns="http://www.w3.org/2000/svg">
<g clip-path="url(#clip0_5351_5738)">
<path d="M19.1037 0.5C19.8183 0.5 20.4785 0.8812 20.8358 1.5L26.1811 10.7583C26.5383 11.3771 26.5383 12.1395 26.1811 12.7583L20.8358 22.0167C20.4785 22.6355 19.8183 23.0167 19.1037 23.0167H8.41317C7.69864 23.0167 7.03839 22.6355 6.68112 22.0167L1.33582 12.7583C0.978554 12.1395 0.978555 11.3771 1.33582 10.7583L6.68112 1.5C7.03839 0.8812 7.69864 0.5 8.41317 0.5H19.1037Z" fill="url(#paint0_linear_5351_5738)"/>
<path d="M17.9388 2.25C18.6533 2.25 19.3136 2.6312 19.6708 3.25L23.7661 10.3433C24.1234 10.9621 24.1234 11.7245 23.7661 12.3433L19.6708 19.4366C19.3136 20.0554 18.6533 20.4366 17.9388 20.4366H9.74813C9.0336 20.4366 8.37334 20.0554 8.01608 19.4366L3.92078 12.3433C3.56351 11.7245 3.56351 10.9621 3.92078 10.3433L8.01608 3.25C8.37334 2.6312 9.0336 2.25 9.74813 2.25H17.9388Z" fill="url(#paint1_linear_5351_5738)"/>
<mask id="mask0_5351_5738" style="mask-type:alpha" maskUnits="userSpaceOnUse" x="1" y="0" width="26" height="24">
<path d="M19.1037 0.5C19.8183 0.5 20.4785 0.8812 20.8358 1.5L26.1811 10.7583C26.5383 11.3771 26.5383 12.1395 26.1811 12.7583L20.8358 22.0167C20.4785 22.6355 19.8183 23.0167 19.1037 23.0167H8.41317C7.69864 23.0167 7.03839 22.6355 6.68112 22.0167L1.33582 12.7583C0.978554 12.1395 0.978555 11.3771 1.33582 10.7583L6.68112 1.5C7.03839 0.8812 7.69864 0.5 8.41317 0.5H19.1037Z" fill="url(#paint2_linear_5351_5738)"/>
</mask>
<g mask="url(#mask0_5351_5738)">
<path d="M14 12L7 0H21L14 12L21 24H7L14 12Z" fill="#79759E" fill-opacity="0.4"/>
</g>
<mask id="mask1_5351_5738" style="mask-type:alpha" maskUnits="userSpaceOnUse" x="1" y="0" width="26" height="24">
<path d="M19.1037 0.5C19.8183 0.5 20.4785 0.8812 20.8358 1.5L26.1811 10.7583C26.5383 11.3771 26.5383 12.1395 26.1811 12.7583L20.8358 22.0167C20.4785 22.6355 19.8183 23.0167 19.1037 23.0167H8.41317C7.69864 23.0167 7.03839 22.6355 6.68112 22.0167L1.33582 12.7583C0.978554 12.1395 0.978555 11.3771 1.33582 10.7583L6.68112 1.5C7.03839 0.8812 7.69864 0.5 8.41317 0.5H19.1037Z" fill="url(#paint3_linear_5351_5738)"/>
</mask>
<g mask="url(#mask1_5351_5738)">
<path d="M13.9641 12.0625L21.0005 0L27.7851 12.1243L13.9641 12.0625L7.00055 24L0.000488281 12L13.9641 12.0625Z" fill="#575279" fill-opacity="0.1"/>
</g>
<path d="M18.4179 7.02502V8.79602H15.5029V15.99H13.5009V8.79602H10.5859V7.02502H18.4179Z" fill="white"/>
</g>
<defs>
<linearGradient id="paint0_linear_5351_5738" x1="2.69339" y1="4.66228" x2="24.9089" y2="17.2526" gradientUnits="userSpaceOnUse">
<stop offset="0.09" stop-color="#D0CBE4"/>
<stop offset="1" stop-color="#6B6793"/>
</linearGradient>
<linearGradient id="paint1_linear_5351_5738" x1="4.90625" y1="5.61184" x2="22.8496" y2="15.781" gradientUnits="userSpaceOnUse">
<stop stop-color="#6B6793"/>
<stop offset="1" stop-color="#D0CBE4"/>
</linearGradient>
<linearGradient id="paint2_linear_5351_5738" x1="2.69339" y1="4.66228" x2="24.9089" y2="17.2526" gradientUnits="userSpaceOnUse">
<stop offset="0.245" stop-color="#ACCED7"/>
<stop offset="1" stop-color="#5D7B8A"/>
</linearGradient>
<linearGradient id="paint3_linear_5351_5738" x1="2.69339" y1="4.66228" x2="24.9089" y2="17.2526" gradientUnits="userSpaceOnUse">
<stop offset="0.245" stop-color="#ACCED7"/>
<stop offset="1" stop-color="#5D7B8A"/>
</linearGradient>
<clipPath id="clip0_5351_5738">
<rect width="28" height="23" fill="white"/>
</clipPath>
</defs>
</svg>
