<svg width="28" height="23" viewBox="0 0 28 23" fill="none" xmlns="http://www.w3.org/2000/svg">
<g clip-path="url(#clip0_5351_5774)">
<path d="M19.1037 0.5C19.8183 0.5 20.4785 0.8812 20.8358 1.5L26.1811 10.7583C26.5383 11.3771 26.5383 12.1395 26.1811 12.7583L20.8358 22.0167C20.4785 22.6355 19.8183 23.0167 19.1037 23.0167H8.41317C7.69864 23.0167 7.03839 22.6355 6.68112 22.0167L1.33582 12.7583C0.978554 12.1395 0.978555 11.3771 1.33582 10.7583L6.68112 1.5C7.03839 0.8812 7.69864 0.5 8.41317 0.5H19.1037Z" fill="url(#paint0_linear_5351_5774)"/>
<path d="M17.9388 2.25C18.6533 2.25 19.3136 2.6312 19.6708 3.25L23.7661 10.3433C24.1234 10.9621 24.1234 11.7245 23.7661 12.3433L19.6708 19.4365C19.3136 20.0553 18.6533 20.4365 17.9388 20.4365H9.74813C9.0336 20.4365 8.37334 20.0553 8.01608 19.4365L3.92078 12.3433C3.56351 11.7245 3.56351 10.9621 3.92078 10.3433L8.01608 3.25C8.37334 2.6312 9.0336 2.25 9.74813 2.25H17.9388Z" fill="url(#paint1_linear_5351_5774)"/>
<path d="M9.98975 15.99V7.02502H13.8838C15.8748 7.02502 16.9968 8.05902 16.9968 9.69802C16.9968 10.336 16.5678 11.062 15.9518 11.293C16.8098 11.568 17.4148 12.404 17.4148 13.273C17.4148 14.934 16.2268 15.99 14.2138 15.99H9.98975ZM11.9918 10.655H13.7958C14.5548 10.655 14.9948 10.325 14.9948 9.69802C14.9948 9.07102 14.5548 8.73002 13.7958 8.73002H11.9918V10.655ZM11.9918 14.285H14.1258C14.9178 14.285 15.4128 13.933 15.4128 13.273C15.4128 12.613 14.9178 12.261 14.1258 12.261H11.9918V14.285Z" fill="white"/>
</g>
<defs>
<linearGradient id="paint0_linear_5351_5774" x1="2.69339" y1="4.66228" x2="24.9089" y2="17.2526" gradientUnits="userSpaceOnUse">
<stop offset="0.14" stop-color="#A88A70"/>
<stop offset="1" stop-color="#846252"/>
</linearGradient>
<linearGradient id="paint1_linear_5351_5774" x1="4.90625" y1="5.61184" x2="22.8496" y2="15.7809" gradientUnits="userSpaceOnUse">
<stop offset="0.18" stop-color="#846252"/>
<stop offset="1" stop-color="#A88A70"/>
</linearGradient>
<clipPath id="clip0_5351_5774">
<rect width="28" height="23" fill="white"/>
</clipPath>
</defs>
</svg>
