<svg width="28" height="23" viewBox="0 0 28 23" fill="none" xmlns="http://www.w3.org/2000/svg">
<g clip-path="url(#clip0_5351_5734)">
<path d="M19.1037 0.5C19.8183 0.5 20.4785 0.8812 20.8358 1.5L26.1811 10.7583C26.5383 11.3771 26.5383 12.1395 26.1811 12.7583L20.8358 22.0167C20.4785 22.6355 19.8183 23.0167 19.1037 23.0167H8.41317C7.69864 23.0167 7.03839 22.6355 6.68112 22.0167L1.33582 12.7583C0.978554 12.1395 0.978555 11.3771 1.33582 10.7583L6.68112 1.5C7.03839 0.8812 7.69864 0.5 8.41317 0.5H19.1037Z" fill="url(#paint0_linear_5351_5734)"/>
<path d="M17.9388 2.25C18.6533 2.25 19.3136 2.6312 19.6708 3.25L23.7661 10.3433C24.1234 10.9621 24.1234 11.7245 23.7661 12.3433L19.6708 19.4366C19.3136 20.0554 18.6533 20.4366 17.9388 20.4366H9.74813C9.0336 20.4366 8.37334 20.0554 8.01608 19.4366L3.92078 12.3433C3.56351 11.7245 3.56351 10.9621 3.92078 10.3433L8.01608 3.25C8.37334 2.6312 9.0336 2.25 9.74813 2.25H17.9388Z" fill="url(#paint1_linear_5351_5734)"/>
<path d="M13.5196 6.79395C15.8626 6.79395 17.5566 8.11395 18.0736 9.79695H15.8736C15.4996 9.13695 14.6526 8.63095 13.5636 8.63095C11.9356 8.63095 10.7256 9.82995 10.7256 11.5019C10.7256 13.1849 11.9356 14.4059 13.5636 14.4059C14.9606 14.4059 15.9286 13.5479 16.1376 12.6679H13.3986V10.9739H18.2716V11.5019C18.2716 14.2189 16.2366 16.2099 13.5196 16.2099C10.7586 16.2099 8.72363 14.2189 8.72363 11.5019C8.72363 8.78495 10.7586 6.79395 13.5196 6.79395Z" fill="white"/>
</g>
<defs>
<linearGradient id="paint0_linear_5351_5734" x1="2.69339" y1="4.66228" x2="24.9089" y2="17.2526" gradientUnits="userSpaceOnUse">
<stop stop-color="#E7CC89"/>
<stop offset="1" stop-color="#D89B53"/>
</linearGradient>
<linearGradient id="paint1_linear_5351_5734" x1="4.90625" y1="5.61184" x2="22.8496" y2="15.781" gradientUnits="userSpaceOnUse">
<stop offset="0.18" stop-color="#D89B53"/>
<stop offset="1" stop-color="#E7CC89"/>
</linearGradient>
<clipPath id="clip0_5351_5734">
<rect width="28" height="23" fill="white"/>
</clipPath>
</defs>
</svg>
