<svg width="247" height="180" viewBox="0 0 247 180" fill="none" xmlns="http://www.w3.org/2000/svg">
<g clip-path="url(#clip0_2238_49654)">
<g opacity="0.5">
<path d="M127.03 142.508C127.049 140.772 116.56 139.179 103.6 138.95C90.6352 138.727 80.1122 139.959 80.0979 141.704C80.0741 143.44 90.5638 145.039 103.533 145.262C116.483 145.491 127.006 144.259 127.03 142.508Z" fill="url(#paint0_linear_2238_49654)"/>
<path d="M89.8689 30.0292C89.8689 30.0292 66.4147 37.3876 61.741 51.1389C57.0578 64.8854 59.052 86.5089 70.1699 115.567C81.2973 144.634 80.1312 141.956 80.1312 141.956L93.0054 141.914L89.8642 30.0244L89.8689 30.0292Z" fill="url(#paint1_linear_2238_49654)"/>
<path style="mix-blend-mode:screen" d="M77.685 137.771C77.4851 154.452 88.9266 168.175 103.243 168.417C117.559 168.66 129.324 155.341 129.529 138.67C129.738 121.988 118.297 108.266 103.985 108.018C89.6691 107.766 77.8991 121.099 77.6897 137.771H77.685Z" fill="url(#paint2_radial_2238_49654)"/>
<path style="mix-blend-mode:screen" d="M90.3306 143.355C90.2259 151.993 96.0561 159.09 103.357 159.218C110.648 159.347 116.65 152.44 116.755 143.807C116.859 135.174 111.034 128.063 103.733 127.944C96.4369 127.815 90.4353 134.712 90.3306 143.355Z" fill="url(#paint3_radial_2238_49654)"/>
<g style="mix-blend-mode:screen">
<path d="M80.1646 142.261C80.1075 142.261 80.0551 142.227 80.0266 142.204H80.0028V142.151C79.9742 142.123 79.9695 142.094 79.9457 142.066L79.8029 141.714H79.8552C79.4126 140.477 77.5374 135.407 69.9795 115.676C59.447 88.1451 56.5295 65.7987 61.5507 51.0485C63.9827 43.8756 71.5596 38.4721 77.466 35.2138C83.8626 31.6797 89.7643 29.8151 89.8214 29.7961L90.0641 29.72L90.0784 30.0244L93.2196 142.166L80.3217 142.208L80.2741 142.266H80.1694L80.1646 142.261ZM89.6786 30.3431C87.1419 31.1898 66.2434 38.5054 61.9219 51.2293C56.9483 65.8462 59.8611 88.0643 70.346 115.467C78.3084 136.253 79.9695 140.796 80.2931 141.709L92.796 141.68L89.6786 30.3383V30.3431Z" fill="url(#paint4_radial_2238_49654)"/>
</g>
<path d="M89.869 30.0293C89.869 30.0293 108.983 26.2335 127.344 33.3446C145.706 40.451 152.307 47.8237 151.817 60.6903C150.308 99.7228 127.03 142.504 127.03 142.504L93.0102 141.918C93.0102 141.918 80.6881 94.1576 81.1831 53.4079C81.4306 33.0355 89.869 30.0293 89.869 30.0293Z" fill="url(#paint5_linear_2238_49654)"/>
<path style="mix-blend-mode:screen" d="M54.2212 51.9286C53.9262 76.1919 75.5956 96.2409 102.629 96.7118C129.667 97.1732 151.817 77.8805 152.112 53.6172C152.407 29.3491 130.733 9.30006 103.7 8.83867C76.6807 8.37728 54.5211 27.67 54.2212 51.9286Z" fill="url(#paint6_radial_2238_49654)"/>
<path style="mix-blend-mode:screen" d="M93.667 138.784C93.5813 145.315 97.9742 150.699 103.462 150.785C108.945 150.885 113.452 145.657 113.533 139.126C113.614 132.581 109.235 127.202 103.752 127.111C98.2598 127.016 93.7527 132.243 93.667 138.784Z" fill="url(#paint7_radial_2238_49654)"/>
<path style="mix-blend-mode:screen" opacity="0.9" d="M110.063 146.489C109.811 146.684 109.73 147.108 109.906 147.407C110.082 147.707 110.429 147.798 110.696 147.593C110.953 147.388 111.015 146.979 110.839 146.675C110.667 146.361 110.325 146.285 110.063 146.489Z" fill="url(#paint8_radial_2238_49654)"/>
<path style="mix-blend-mode:screen" opacity="0.9" d="M121.267 146.275C121.01 146.48 120.943 146.894 121.114 147.208C121.276 147.507 121.633 147.588 121.89 147.384C122.147 147.189 122.214 146.77 122.047 146.47C121.871 146.166 121.524 146.085 121.267 146.28V146.275Z" fill="url(#paint9_radial_2238_49654)"/>
<path style="mix-blend-mode:screen" opacity="0.9" d="M112.281 157.734C112.024 157.939 111.948 158.353 112.124 158.652C112.295 158.966 112.647 159.042 112.9 158.838C113.161 158.633 113.233 158.224 113.057 157.92C112.885 157.62 112.533 157.534 112.281 157.734Z" fill="url(#paint10_radial_2238_49654)"/>
<path style="mix-blend-mode:screen" opacity="0.9" d="M87.8986 144.734C87.6464 144.939 87.575 145.353 87.7463 145.652C87.9129 145.952 88.2556 146.042 88.5221 145.838C88.7791 145.633 88.8553 145.224 88.6839 144.925C88.5078 144.62 88.1604 144.53 87.8939 144.734H87.8986Z" fill="url(#paint11_radial_2238_49654)"/>
<path style="mix-blend-mode:screen" opacity="0.9" d="M80.1884 146.257C79.9362 146.461 79.86 146.87 80.0314 147.17C80.2075 147.474 80.5501 147.56 80.8167 147.36C81.0689 147.155 81.1403 146.742 80.969 146.442C80.8072 146.138 80.4454 146.052 80.1932 146.257H80.1884Z" fill="url(#paint12_radial_2238_49654)"/>
<path style="mix-blend-mode:screen" opacity="0.9" d="M77.1901 164.607C76.9331 164.812 76.8522 165.226 77.0282 165.525C77.1996 165.83 77.5518 165.916 77.804 165.711C78.0706 165.506 78.1372 165.097 77.9658 164.798C77.7993 164.493 77.4423 164.408 77.1901 164.607Z" fill="url(#paint13_radial_2238_49654)"/>
<path style="mix-blend-mode:screen" opacity="0.9" d="M119.315 157.844C119.063 158.043 118.977 158.457 119.153 158.762C119.33 159.075 119.677 159.152 119.929 158.947C120.196 158.743 120.267 158.333 120.091 158.034C119.92 157.729 119.567 157.644 119.315 157.848V157.844Z" fill="url(#paint14_radial_2238_49654)"/>
<path style="mix-blend-mode:screen" opacity="0.9" d="M99.9969 146.941C99.7304 147.146 99.6638 147.56 99.8351 147.859C100.002 148.173 100.354 148.249 100.611 148.045C100.868 147.84 100.949 147.431 100.773 147.127C100.601 146.827 100.254 146.737 99.9969 146.941Z" fill="url(#paint15_radial_2238_49654)"/>
<path style="mix-blend-mode:screen" opacity="0.1" d="M90.7733 159.071C89.9594 159.713 89.7405 161.011 90.2831 161.967C90.8161 162.928 91.9203 163.19 92.7246 162.543C93.529 161.906 93.7574 160.612 93.2101 159.651C92.6723 158.685 91.5776 158.429 90.7685 159.066L90.7733 159.071Z" fill="url(#paint16_radial_2238_49654)"/>
<path style="mix-blend-mode:screen" opacity="0.9" d="M111.343 167.1C110.729 167.575 110.568 168.555 110.972 169.269C111.377 169.992 112.19 170.177 112.8 169.697C113.404 169.221 113.566 168.251 113.161 167.537C112.762 166.814 111.943 166.619 111.343 167.1Z" fill="url(#paint17_radial_2238_49654)"/>
<path style="mix-blend-mode:screen" opacity="0.5" d="M89.336 150.604C88.7221 151.084 88.5602 152.05 88.9648 152.773C89.3741 153.487 90.1927 153.682 90.7971 153.206C91.4111 152.725 91.5729 151.755 91.1684 151.046C90.7638 150.328 89.9405 150.128 89.336 150.609V150.604Z" fill="url(#paint18_radial_2238_49654)"/>
<path style="mix-blend-mode:screen" opacity="0.2" d="M97.9362 179.6C95.9944 181.132 95.4804 184.228 96.7654 186.526C98.0552 188.809 100.663 189.432 102.61 187.9C104.547 186.378 105.08 183.282 103.781 180.989C102.496 178.692 99.8733 178.078 97.941 179.6H97.9362Z" fill="url(#paint19_radial_2238_49654)"/>
<path style="mix-blend-mode:screen" opacity="0.2" d="M123.432 178.34C121.5 179.871 120.972 182.968 122.271 185.265C123.561 187.553 126.174 188.176 128.115 186.645C130.052 185.122 130.571 182.026 129.286 179.728C128.001 177.436 125.374 176.822 123.437 178.344L123.432 178.34Z" fill="url(#paint20_radial_2238_49654)"/>
<path style="mix-blend-mode:screen" opacity="0.2" d="M76.7712 174.22C74.8341 175.743 74.3153 178.839 75.6004 181.132C76.8854 183.429 79.5078 184.052 81.4401 182.521C83.3819 180.999 83.9102 177.902 82.6109 175.605C81.3211 173.312 78.7082 172.694 76.7712 174.22Z" fill="url(#paint21_radial_2238_49654)"/>
<path style="mix-blend-mode:screen" opacity="0.9" d="M102.224 153.453C101.615 153.924 101.449 154.899 101.853 155.613C102.258 156.336 103.076 156.531 103.685 156.05C104.29 155.575 104.456 154.595 104.052 153.881C103.647 153.158 102.829 152.973 102.224 153.453Z" fill="url(#paint22_radial_2238_49654)"/>
<path style="mix-blend-mode:screen" opacity="0.2" d="M95.3518 154.619C90.8352 158.172 89.6168 165.392 92.6295 170.734C95.6326 176.066 101.725 177.512 106.237 173.959C110.758 170.401 111.972 163.185 108.973 157.844C105.97 152.511 99.8685 151.065 95.3566 154.619H95.3518Z" fill="url(#paint23_radial_2238_49654)"/>
</g>
<path d="M49.619 61.4607C49.6476 59.2631 33.9606 57.2559 14.5804 56.9705C-4.8045 56.6898 -20.5438 58.2452 -20.5676 60.4475C-20.6009 62.6451 -4.91873 64.6571 14.4757 64.9377C33.8464 65.2231 49.5809 63.6677 49.619 61.4607Z" fill="url(#paint24_linear_2238_49654)"/>
<path style="mix-blend-mode:screen" d="M-24.1752 55.4818C-24.4798 76.5439 -7.36507 93.8769 14.0426 94.1813C35.4503 94.4905 53.0505 77.6712 53.3503 56.6138C53.6645 35.5469 36.5545 18.2139 15.1516 17.9095C-6.2609 17.5908 -23.8611 34.4243 -24.1752 55.4818Z" fill="url(#paint25_radial_2238_49654)"/>
<path style="mix-blend-mode:screen" d="M-5.26625 62.5359C-5.42331 73.438 3.29587 82.4041 14.2139 82.5659C25.1176 82.7276 34.0938 74.0088 34.2509 63.1019C34.4079 52.1998 25.6983 43.2194 14.7755 43.0672C3.86701 42.9054 -5.11394 51.6147 -5.271 62.5311L-5.26625 62.5359Z" fill="url(#paint26_radial_2238_49654)"/>
<path d="M-18.2259 -29C-14.8658 16.1828 -1.25876 60.7235 -1.25876 60.7235L49.619 61.4655C49.619 61.4655 78.6655 16.3778 85.4048 -29H-18.2307H-18.2259Z" fill="url(#paint27_linear_2238_49654)"/>
<path style="mix-blend-mode:screen" d="M-52.5411 -29C-41.052 -10.1068 -16.051 3.19733 13.124 3.63018C43.308 4.06303 69.4084 -9.39811 80.8928 -29H-52.5411Z" fill="url(#paint28_radial_2238_49654)"/>
<path style="mix-blend-mode:screen" d="M-0.273537 56.766C-0.40204 65.014 6.1659 71.8159 14.3711 71.9205C22.5667 72.049 29.3108 65.4468 29.4345 57.1989C29.5582 48.932 23.0046 42.1395 14.8042 42.0254C6.58948 41.9017 -0.154552 48.5039 -0.273537 56.766Z" fill="url(#paint29_radial_2238_49654)"/>
<path style="mix-blend-mode:screen" opacity="0.9" d="M24.242 66.4932C23.8612 66.7406 23.747 67.2733 24.0088 67.6538C24.2705 68.0344 24.7893 68.1485 25.1891 67.8869C25.5698 67.6253 25.665 67.1116 25.4033 66.7263C25.1462 66.3315 24.6322 66.2316 24.242 66.4932Z" fill="url(#paint30_radial_2238_49654)"/>
<path style="mix-blend-mode:screen" opacity="0.9" d="M40.9949 66.222C40.6142 66.4836 40.5095 67.0021 40.7712 67.3969C41.014 67.7774 41.5518 67.8773 41.9325 67.6157C42.3133 67.3683 42.418 66.8403 42.1657 66.4598C41.9087 66.0745 41.3852 65.9746 40.9949 66.222Z" fill="url(#paint31_radial_2238_49654)"/>
<path style="mix-blend-mode:screen" opacity="0.9" d="M27.564 80.6918C27.1832 80.9534 27.069 81.4718 27.3308 81.8524C27.5925 82.2472 28.1113 82.347 28.4921 82.0854C28.8823 81.8286 28.987 81.3101 28.7253 80.9248C28.4635 80.5443 27.9447 80.4349 27.564 80.6918Z" fill="url(#paint32_radial_2238_49654)"/>
<path style="mix-blend-mode:screen" opacity="0.9" d="M38.0822 80.8296C37.7015 81.0865 37.5777 81.6049 37.8395 81.9855C38.1013 82.385 38.62 82.4801 39.0008 82.2185C39.4006 81.9617 39.5053 81.4432 39.2435 81.0627C38.9865 80.6774 38.463 80.568 38.0822 80.8296Z" fill="url(#paint33_radial_2238_49654)"/>
<path style="mix-blend-mode:screen" opacity="0.9" d="M9.1881 67.064C8.78832 67.3208 8.69314 67.844 8.94539 68.2246C9.19763 68.6194 9.72593 68.7193 10.1067 68.4576C10.4874 68.196 10.6112 67.6823 10.3494 67.297C10.0924 66.9165 9.56886 66.8024 9.1881 67.064Z" fill="url(#paint34_radial_2238_49654)"/>
<path style="mix-blend-mode:screen" opacity="0.9" d="M26.16 92.5213C25.2415 93.1206 24.9988 94.3573 25.608 95.2563C26.2124 96.1696 27.426 96.4027 28.3446 95.7986C29.2441 95.1992 29.4869 93.9768 28.8824 93.0731C28.2827 92.1598 27.0643 91.9124 26.16 92.5165V92.5213Z" fill="url(#paint35_radial_2238_49654)"/>
<path style="mix-blend-mode:screen" opacity="0.2" d="M6.10401 108.308C3.20079 110.244 2.42976 114.154 4.35255 117.056C6.27534 119.938 10.1828 120.728 13.086 118.792C15.9797 116.87 16.7793 112.96 14.8375 110.064C12.9147 107.162 8.99771 106.387 6.09925 108.308H6.10401Z" fill="url(#paint36_radial_2238_49654)"/>
<path style="mix-blend-mode:screen" opacity="0.2" d="M44.2361 106.715C41.3471 108.651 40.5618 112.561 42.5036 115.458C44.4264 118.345 48.3339 119.134 51.2371 117.198C54.1308 115.277 54.9113 111.367 52.9886 108.465C51.0658 105.569 47.1393 104.793 44.2361 106.715Z" fill="url(#paint37_radial_2238_49654)"/>
<path style="mix-blend-mode:screen" opacity="0.9" d="M12.5149 75.2881C11.6058 75.8826 11.3536 77.1098 11.9628 78.0136C12.572 78.9269 13.7904 79.1742 14.6994 78.5701C15.599 77.966 15.8512 76.7341 15.2468 75.8303C14.6376 74.9171 13.4192 74.684 12.5149 75.2881Z" fill="url(#paint38_radial_2238_49654)"/>
<path style="mix-blend-mode:screen" opacity="0.2" d="M2.23929 76.7581C-4.51427 81.2435 -6.34189 90.3619 -1.83476 97.1067C2.65334 103.842 11.7723 105.669 18.5116 101.178C25.2699 96.6882 27.0928 87.5745 22.5999 80.8297C18.1118 74.0944 8.98808 72.2678 2.23452 76.7581H2.23929Z" fill="url(#paint39_radial_2238_49654)"/>
<path d="M160.888 62.4358C160.888 62.4358 129.034 70.874 122.69 86.6421C116.331 102.41 119.039 127.206 134.141 160.526C149.252 193.86 147.667 190.792 147.667 190.792L165.153 190.745L160.888 62.4358Z" fill="url(#paint40_linear_2238_49654)"/>
<path style="mix-blend-mode:screen" d="M144.345 185.988C144.069 205.114 159.613 220.854 179.05 221.135C198.488 221.415 214.47 206.142 214.746 187.02C215.031 167.889 199.497 152.15 180.054 151.874C160.608 151.584 144.626 166.871 144.34 185.993L144.345 185.988Z" fill="url(#paint41_radial_2238_49654)"/>
<path style="mix-blend-mode:screen" d="M161.517 192.395C161.374 202.298 169.294 210.437 179.207 210.584C189.107 210.732 197.26 202.812 197.403 192.909C197.545 183.006 189.635 174.853 179.717 174.72C169.808 174.572 161.655 182.483 161.517 192.395Z" fill="url(#paint42_radial_2238_49654)"/>
<g style="mix-blend-mode:screen">
<path d="M147.715 191.14C147.634 191.14 147.562 191.106 147.524 191.073H147.491L147.481 191.016C147.448 190.983 147.443 190.949 147.41 190.916L147.215 190.512H147.286C146.686 189.089 144.135 183.277 133.879 160.65C119.572 129.076 115.613 103.452 122.428 86.5375C125.731 78.3133 136.021 72.1155 144.045 68.3768C152.731 64.3242 160.746 62.1885 160.822 62.1647L161.15 62.0791L161.165 62.4311L165.429 191.03L147.91 191.078L147.848 191.144H147.705L147.715 191.14ZM160.636 62.7974C157.19 63.7677 128.81 72.1583 122.942 86.7468C116.188 103.509 120.139 128.985 134.384 160.417C145.197 184.252 147.458 189.46 147.891 190.512L164.872 190.478L160.636 62.7974Z" fill="url(#paint43_radial_2238_49654)"/>
</g>
<path d="M160.888 62.4359C160.888 62.4359 186.841 58.0837 211.781 66.2412C236.72 74.3892 245.682 82.8464 245.015 97.5966C242.969 142.361 211.357 191.42 211.357 191.42L165.153 190.75C165.153 190.75 148.424 135.982 149.09 89.2488C149.428 65.8845 160.884 62.4359 160.884 62.4359H160.888Z" fill="url(#paint44_linear_2238_49654)"/>
<path style="mix-blend-mode:screen" d="M112.476 87.546C112.071 115.372 141.508 138.361 178.217 138.903C214.936 139.431 245.015 117.308 245.415 89.4819C245.815 61.6511 216.383 38.6625 179.674 38.1298C142.979 37.597 112.885 59.7247 112.476 87.546Z" fill="url(#paint45_radial_2238_49654)"/>
<path style="mix-blend-mode:screen" d="M166.052 187.153C165.933 194.645 171.902 200.819 179.355 200.914C186.799 201.028 192.924 195.035 193.033 187.544C193.143 180.038 187.194 173.868 179.75 173.764C172.287 173.654 166.167 179.648 166.057 187.149L166.052 187.153Z" fill="url(#paint46_radial_2238_49654)"/>
<path style="mix-blend-mode:screen" d="M8.94532 231.157C8.51221 261.242 40.3334 286.1 80.0266 286.685C119.729 287.256 152.25 263.335 152.683 233.25C153.116 203.159 121.295 178.302 81.5972 177.726C41.9183 177.15 9.38317 201.076 8.94055 231.157H8.94532Z" fill="url(#paint47_radial_2238_49654)"/>
</g>
<defs>
<linearGradient id="paint0_linear_2238_49654" x1="103.514" y1="145.257" x2="103.605" y2="138.946" gradientUnits="userSpaceOnUse">
<stop stop-color="white"/>
<stop offset="1" stop-color="#FFFFC0"/>
</linearGradient>
<linearGradient id="paint1_linear_2238_49654" x1="75.6451" y1="141.957" x2="77.2683" y2="29.846" gradientUnits="userSpaceOnUse">
<stop stop-color="#FFFFDF"/>
<stop offset="0.21" stop-color="#FFC83C"/>
<stop offset="1" stop-color="#BF001A"/>
</linearGradient>
<radialGradient id="paint2_radial_2238_49654" cx="0" cy="0" r="1" gradientUnits="userSpaceOnUse" gradientTransform="translate(103.622 138.282) rotate(0.989419) scale(25.9276 30.3447)">
<stop stop-color="#FFF29A"/>
<stop offset="0.09" stop-color="#D5CA80"/>
<stop offset="0.23" stop-color="#9D955F"/>
<stop offset="0.37" stop-color="#6D6741"/>
<stop offset="0.5" stop-color="#45422A"/>
<stop offset="0.63" stop-color="#272517"/>
<stop offset="0.76" stop-color="#11100A"/>
<stop offset="0.89" stop-color="#040402"/>
<stop offset="1"/>
</radialGradient>
<radialGradient id="paint3_radial_2238_49654" cx="0" cy="0" r="1" gradientUnits="userSpaceOnUse" gradientTransform="translate(102.309 143.549) rotate(0.979425) scale(13.145 15.6397)">
<stop stop-color="#FFC106"/>
<stop offset="0.09" stop-color="#D5A105"/>
<stop offset="0.23" stop-color="#9D7703"/>
<stop offset="0.37" stop-color="#6D5202"/>
<stop offset="0.5" stop-color="#453401"/>
<stop offset="0.63" stop-color="#271D00"/>
<stop offset="0.76" stop-color="#110D00"/>
<stop offset="0.89" stop-color="#040300"/>
<stop offset="1"/>
</radialGradient>
<radialGradient id="paint4_radial_2238_49654" cx="0" cy="0" r="1" gradientUnits="userSpaceOnUse" gradientTransform="translate(75.586 85.8149) rotate(0.979425) scale(35.6771 42.4478)">
<stop stop-color="#FFF29A"/>
<stop offset="0.13" stop-color="#E4D98A"/>
<stop offset="0.41" stop-color="#A19961"/>
<stop offset="0.8" stop-color="#363321"/>
<stop offset="1"/>
</radialGradient>
<linearGradient id="paint5_linear_2238_49654" x1="115.261" y1="142.33" x2="116.899" y2="29.2164" gradientUnits="userSpaceOnUse">
<stop stop-color="#FFFFDA"/>
<stop offset="0.21" stop-color="#FFDD4D"/>
<stop offset="1" stop-color="#D10019"/>
</linearGradient>
<radialGradient id="paint6_radial_2238_49654" cx="0" cy="0" r="1" gradientUnits="userSpaceOnUse" gradientTransform="translate(102.644 52.4999) rotate(0.989419) scale(48.9958 43.9608)">
<stop stop-color="#FF0000"/>
<stop offset="0.22" stop-color="#B40000"/>
<stop offset="0.43" stop-color="#740000"/>
<stop offset="0.62" stop-color="#420000"/>
<stop offset="0.78" stop-color="#1E0000"/>
<stop offset="0.91" stop-color="#080000"/>
<stop offset="1"/>
</radialGradient>
<radialGradient id="paint7_radial_2238_49654" cx="0" cy="0" r="1" gradientUnits="userSpaceOnUse" gradientTransform="translate(100.427 138.792) rotate(0.979424) scale(9.85877 11.8861)">
<stop stop-color="#FFC106"/>
<stop offset="0.09" stop-color="#D5A105"/>
<stop offset="0.23" stop-color="#9D7703"/>
<stop offset="0.37" stop-color="#6D5202"/>
<stop offset="0.5" stop-color="#453401"/>
<stop offset="0.63" stop-color="#271D00"/>
<stop offset="0.76" stop-color="#110D00"/>
<stop offset="0.89" stop-color="#040300"/>
<stop offset="1"/>
</radialGradient>
<radialGradient id="paint8_radial_2238_49654" cx="0" cy="0" r="1" gradientUnits="userSpaceOnUse" gradientTransform="translate(92.327 112.501) rotate(60.6359) scale(0.632715 0.586269)">
<stop offset="0.02" stop-color="#FFD056"/>
<stop offset="0.04" stop-color="#EFC350"/>
<stop offset="0.15" stop-color="#B7953E"/>
<stop offset="0.27" stop-color="#866D2D"/>
<stop offset="0.38" stop-color="#5D4C1F"/>
<stop offset="0.5" stop-color="#3B3014"/>
<stop offset="0.62" stop-color="#211B0B"/>
<stop offset="0.74" stop-color="#0E0C04"/>
<stop offset="0.86" stop-color="#030201"/>
<stop offset="1"/>
</radialGradient>
<radialGradient id="paint9_radial_2238_49654" cx="0" cy="0" r="1" gradientUnits="userSpaceOnUse" gradientTransform="translate(104.227 113.625) rotate(60.6356) scale(0.632718 0.586276)">
<stop offset="0.02" stop-color="#FFD056"/>
<stop offset="0.04" stop-color="#EFC350"/>
<stop offset="0.15" stop-color="#B7953E"/>
<stop offset="0.27" stop-color="#866D2D"/>
<stop offset="0.38" stop-color="#5D4C1F"/>
<stop offset="0.5" stop-color="#3B3014"/>
<stop offset="0.62" stop-color="#211B0B"/>
<stop offset="0.74" stop-color="#0E0C04"/>
<stop offset="0.86" stop-color="#030201"/>
<stop offset="1"/>
</radialGradient>
<radialGradient id="paint10_radial_2238_49654" cx="0" cy="0" r="1" gradientUnits="userSpaceOnUse" gradientTransform="translate(94.2588 123.193) rotate(60.6356) scale(0.628198 0.582088)">
<stop offset="0.02" stop-color="#FFD056"/>
<stop offset="0.04" stop-color="#EFC350"/>
<stop offset="0.15" stop-color="#B7953E"/>
<stop offset="0.27" stop-color="#866D2D"/>
<stop offset="0.38" stop-color="#5D4C1F"/>
<stop offset="0.5" stop-color="#3B3014"/>
<stop offset="0.62" stop-color="#211B0B"/>
<stop offset="0.74" stop-color="#0E0C04"/>
<stop offset="0.86" stop-color="#030201"/>
<stop offset="1"/>
</radialGradient>
<radialGradient id="paint11_radial_2238_49654" cx="0" cy="0" r="1" gradientUnits="userSpaceOnUse" gradientTransform="translate(68.8666 108.235) rotate(60.6357) scale(0.632716 0.586273)">
<stop offset="0.02" stop-color="#FFD056"/>
<stop offset="0.04" stop-color="#EFC350"/>
<stop offset="0.15" stop-color="#B7953E"/>
<stop offset="0.27" stop-color="#866D2D"/>
<stop offset="0.38" stop-color="#5D4C1F"/>
<stop offset="0.5" stop-color="#3B3014"/>
<stop offset="0.62" stop-color="#211B0B"/>
<stop offset="0.74" stop-color="#0E0C04"/>
<stop offset="0.86" stop-color="#030201"/>
<stop offset="1"/>
</radialGradient>
<radialGradient id="paint12_radial_2238_49654" cx="0" cy="0" r="1" gradientUnits="userSpaceOnUse" gradientTransform="translate(60.6226 108.742) rotate(60.6355) scale(0.632712 0.586271)">
<stop offset="0.02" stop-color="#FFD056"/>
<stop offset="0.04" stop-color="#EFC350"/>
<stop offset="0.15" stop-color="#B7953E"/>
<stop offset="0.27" stop-color="#866D2D"/>
<stop offset="0.38" stop-color="#5D4C1F"/>
<stop offset="0.5" stop-color="#3B3014"/>
<stop offset="0.62" stop-color="#211B0B"/>
<stop offset="0.74" stop-color="#0E0C04"/>
<stop offset="0.86" stop-color="#030201"/>
<stop offset="1"/>
</radialGradient>
<radialGradient id="paint13_radial_2238_49654" cx="0" cy="0" r="1" gradientUnits="userSpaceOnUse" gradientTransform="translate(56.7395 125.419) rotate(60.6356) scale(0.628197 0.582086)">
<stop offset="0.02" stop-color="#FFD056"/>
<stop offset="0.04" stop-color="#EFC350"/>
<stop offset="0.15" stop-color="#B7953E"/>
<stop offset="0.27" stop-color="#866D2D"/>
<stop offset="0.38" stop-color="#5D4C1F"/>
<stop offset="0.5" stop-color="#3B3014"/>
<stop offset="0.62" stop-color="#211B0B"/>
<stop offset="0.74" stop-color="#0E0C04"/>
<stop offset="0.86" stop-color="#030201"/>
<stop offset="1"/>
</radialGradient>
<radialGradient id="paint14_radial_2238_49654" cx="0" cy="0" r="1" gradientUnits="userSpaceOnUse" gradientTransform="translate(101.719 124.128) rotate(60.6357) scale(0.628195 0.582083)">
<stop offset="0.02" stop-color="#FFD056"/>
<stop offset="0.04" stop-color="#EFC350"/>
<stop offset="0.15" stop-color="#B7953E"/>
<stop offset="0.27" stop-color="#866D2D"/>
<stop offset="0.38" stop-color="#5D4C1F"/>
<stop offset="0.5" stop-color="#3B3014"/>
<stop offset="0.62" stop-color="#211B0B"/>
<stop offset="0.74" stop-color="#0E0C04"/>
<stop offset="0.86" stop-color="#030201"/>
<stop offset="1"/>
</radialGradient>
<radialGradient id="paint15_radial_2238_49654" cx="0" cy="0" r="1" gradientUnits="userSpaceOnUse" gradientTransform="translate(81.6199 111.721) rotate(60.6353) scale(0.628194 0.582087)">
<stop offset="0.02" stop-color="#FFD056"/>
<stop offset="0.04" stop-color="#EFC350"/>
<stop offset="0.15" stop-color="#B7953E"/>
<stop offset="0.27" stop-color="#866D2D"/>
<stop offset="0.38" stop-color="#5D4C1F"/>
<stop offset="0.5" stop-color="#3B3014"/>
<stop offset="0.62" stop-color="#211B0B"/>
<stop offset="0.74" stop-color="#0E0C04"/>
<stop offset="0.86" stop-color="#030201"/>
<stop offset="1"/>
</radialGradient>
<radialGradient id="paint16_radial_2238_49654" cx="0" cy="0" r="1" gradientUnits="userSpaceOnUse" gradientTransform="translate(72.0338 123.071) rotate(60.6356) scale(1.9795 1.8342)">
<stop offset="0.02" stop-color="#FFD056"/>
<stop offset="0.04" stop-color="#EFC350"/>
<stop offset="0.15" stop-color="#B7953E"/>
<stop offset="0.27" stop-color="#866D2D"/>
<stop offset="0.38" stop-color="#5D4C1F"/>
<stop offset="0.5" stop-color="#3B3014"/>
<stop offset="0.62" stop-color="#211B0B"/>
<stop offset="0.74" stop-color="#0E0C04"/>
<stop offset="0.86" stop-color="#030201"/>
<stop offset="1"/>
</radialGradient>
<radialGradient id="paint17_radial_2238_49654" cx="0" cy="0" r="1" gradientUnits="userSpaceOnUse" gradientTransform="translate(93.3199 132.524) rotate(60.6357) scale(1.48236 1.37355)">
<stop offset="0.02" stop-color="#FFD056"/>
<stop offset="0.04" stop-color="#EFC350"/>
<stop offset="0.15" stop-color="#B7953E"/>
<stop offset="0.27" stop-color="#866D2D"/>
<stop offset="0.38" stop-color="#5D4C1F"/>
<stop offset="0.5" stop-color="#3B3014"/>
<stop offset="0.62" stop-color="#211B0B"/>
<stop offset="0.74" stop-color="#0E0C04"/>
<stop offset="0.86" stop-color="#030201"/>
<stop offset="1"/>
</radialGradient>
<radialGradient id="paint18_radial_2238_49654" cx="0" cy="0" r="1" gradientUnits="userSpaceOnUse" gradientTransform="translate(70.5802 114.603) rotate(60.6357) scale(1.48688 1.37774)">
<stop offset="0.02" stop-color="#FFD056"/>
<stop offset="0.04" stop-color="#EFC350"/>
<stop offset="0.15" stop-color="#B7953E"/>
<stop offset="0.27" stop-color="#866D2D"/>
<stop offset="0.38" stop-color="#5D4C1F"/>
<stop offset="0.5" stop-color="#3B3014"/>
<stop offset="0.62" stop-color="#211B0B"/>
<stop offset="0.74" stop-color="#0E0C04"/>
<stop offset="0.86" stop-color="#030201"/>
<stop offset="1"/>
</radialGradient>
<radialGradient id="paint19_radial_2238_49654" cx="0" cy="0" r="1" gradientUnits="userSpaceOnUse" gradientTransform="translate(80.2114 145.376) rotate(60.6356) scale(4.74084 4.39286)">
<stop offset="0.02" stop-color="#FFD056"/>
<stop offset="0.04" stop-color="#EFC350"/>
<stop offset="0.15" stop-color="#B7953E"/>
<stop offset="0.27" stop-color="#866D2D"/>
<stop offset="0.38" stop-color="#5D4C1F"/>
<stop offset="0.5" stop-color="#3B3014"/>
<stop offset="0.62" stop-color="#211B0B"/>
<stop offset="0.74" stop-color="#0E0C04"/>
<stop offset="0.86" stop-color="#030201"/>
<stop offset="1"/>
</radialGradient>
<radialGradient id="paint20_radial_2238_49654" cx="0" cy="0" r="1" gradientUnits="userSpaceOnUse" gradientTransform="translate(107.343 147.225) rotate(60.6356) scale(4.74084 4.39286)">
<stop offset="0.02" stop-color="#FFD056"/>
<stop offset="0.04" stop-color="#EFC350"/>
<stop offset="0.15" stop-color="#B7953E"/>
<stop offset="0.27" stop-color="#866D2D"/>
<stop offset="0.38" stop-color="#5D4C1F"/>
<stop offset="0.5" stop-color="#3B3014"/>
<stop offset="0.62" stop-color="#211B0B"/>
<stop offset="0.74" stop-color="#0E0C04"/>
<stop offset="0.86" stop-color="#030201"/>
<stop offset="1"/>
</radialGradient>
<radialGradient id="paint21_radial_2238_49654" cx="0" cy="0" r="1" gradientUnits="userSpaceOnUse" gradientTransform="translate(57.9524 137.874) rotate(60.6356) scale(4.73633 4.38867)">
<stop offset="0.02" stop-color="#FFD056"/>
<stop offset="0.04" stop-color="#EFC350"/>
<stop offset="0.15" stop-color="#B7953E"/>
<stop offset="0.27" stop-color="#866D2D"/>
<stop offset="0.38" stop-color="#5D4C1F"/>
<stop offset="0.5" stop-color="#3B3014"/>
<stop offset="0.62" stop-color="#211B0B"/>
<stop offset="0.74" stop-color="#0E0C04"/>
<stop offset="0.86" stop-color="#030201"/>
<stop offset="1"/>
</radialGradient>
<radialGradient id="paint22_radial_2238_49654" cx="0" cy="0" r="1" gradientUnits="userSpaceOnUse" gradientTransform="translate(84.1576 118.776) rotate(60.6355) scale(1.48237 1.37356)">
<stop offset="0.02" stop-color="#FFD056"/>
<stop offset="0.04" stop-color="#EFC350"/>
<stop offset="0.15" stop-color="#B7953E"/>
<stop offset="0.27" stop-color="#866D2D"/>
<stop offset="0.38" stop-color="#5D4C1F"/>
<stop offset="0.5" stop-color="#3B3014"/>
<stop offset="0.62" stop-color="#211B0B"/>
<stop offset="0.74" stop-color="#0E0C04"/>
<stop offset="0.86" stop-color="#030201"/>
<stop offset="1"/>
</radialGradient>
<radialGradient id="paint23_radial_2238_49654" cx="0" cy="0" r="1" gradientUnits="userSpaceOnUse" gradientTransform="translate(81.5099 127.367) rotate(60.6356) scale(11.0409 10.2305)">
<stop offset="0.02" stop-color="#F68C4C"/>
<stop offset="0.03" stop-color="#EF8849"/>
<stop offset="0.14" stop-color="#B76838"/>
<stop offset="0.26" stop-color="#864C29"/>
<stop offset="0.37" stop-color="#5D351C"/>
<stop offset="0.49" stop-color="#3B2112"/>
<stop offset="0.61" stop-color="#21120A"/>
<stop offset="0.73" stop-color="#0E0804"/>
<stop offset="0.86" stop-color="#030201"/>
<stop offset="1"/>
</radialGradient>
<linearGradient id="paint24_linear_2238_49654" x1="14.4643" y1="64.9383" x2="14.5798" y2="56.9671" gradientUnits="userSpaceOnUse">
<stop stop-color="white"/>
<stop offset="1" stop-color="#FFFFC0"/>
</linearGradient>
<radialGradient id="paint25_radial_2238_49654" cx="0" cy="0" r="1" gradientUnits="userSpaceOnUse" gradientTransform="translate(14.6502 55.7107) rotate(0.829513) scale(38.7694 38.3162)">
<stop stop-color="#FFF29A"/>
<stop offset="0.09" stop-color="#D5CA80"/>
<stop offset="0.23" stop-color="#9D955F"/>
<stop offset="0.37" stop-color="#6D6741"/>
<stop offset="0.5" stop-color="#45422A"/>
<stop offset="0.63" stop-color="#272517"/>
<stop offset="0.76" stop-color="#11100A"/>
<stop offset="0.89" stop-color="#040402"/>
<stop offset="1"/>
</radialGradient>
<radialGradient id="paint26_radial_2238_49654" cx="0" cy="0" r="1" gradientUnits="userSpaceOnUse" gradientTransform="translate(14.5238 62.8162) rotate(0.829513) scale(19.7609 19.7494)">
<stop stop-color="#FFC106"/>
<stop offset="0.09" stop-color="#D5A105"/>
<stop offset="0.23" stop-color="#9D7703"/>
<stop offset="0.37" stop-color="#6D5202"/>
<stop offset="0.5" stop-color="#453401"/>
<stop offset="0.63" stop-color="#271D00"/>
<stop offset="0.76" stop-color="#110D00"/>
<stop offset="0.89" stop-color="#040300"/>
<stop offset="1"/>
</radialGradient>
<linearGradient id="paint27_linear_2238_49654" x1="32.2776" y1="61.2051" x2="34.3446" y2="-81.5584" gradientUnits="userSpaceOnUse">
<stop stop-color="#FFFFDA"/>
<stop offset="0.21" stop-color="#FFDD4D"/>
<stop offset="1" stop-color="#D10019"/>
</linearGradient>
<radialGradient id="paint28_radial_2238_49654" cx="0" cy="0" r="1" gradientUnits="userSpaceOnUse" gradientTransform="translate(16.5967 -51.8369) rotate(0.829513) scale(73.1331 55.509)">
<stop stop-color="#FF0000"/>
<stop offset="0.22" stop-color="#B40000"/>
<stop offset="0.43" stop-color="#740000"/>
<stop offset="0.62" stop-color="#420000"/>
<stop offset="0.78" stop-color="#1E0000"/>
<stop offset="0.91" stop-color="#080000"/>
<stop offset="1"/>
</radialGradient>
<radialGradient id="paint29_radial_2238_49654" cx="0" cy="0" r="1" gradientUnits="userSpaceOnUse" gradientTransform="translate(13.5826 57.8913) rotate(0.829513) scale(14.8207 14.812)">
<stop stop-color="#FFC106"/>
<stop offset="0.09" stop-color="#D5A105"/>
<stop offset="0.23" stop-color="#9D7703"/>
<stop offset="0.37" stop-color="#6D5202"/>
<stop offset="0.5" stop-color="#453401"/>
<stop offset="0.63" stop-color="#271D00"/>
<stop offset="0.76" stop-color="#110D00"/>
<stop offset="0.89" stop-color="#040300"/>
<stop offset="1"/>
</radialGradient>
<radialGradient id="paint30_radial_2238_49654" cx="0" cy="0" r="1" gradientUnits="userSpaceOnUse" gradientTransform="translate(24.7268 67.2027) rotate(56.3145) scale(0.842069 0.842259)">
<stop offset="0.02" stop-color="#FFD056"/>
<stop offset="0.04" stop-color="#EFC350"/>
<stop offset="0.15" stop-color="#B7953E"/>
<stop offset="0.27" stop-color="#866D2D"/>
<stop offset="0.38" stop-color="#5D4C1F"/>
<stop offset="0.5" stop-color="#3B3014"/>
<stop offset="0.62" stop-color="#211B0B"/>
<stop offset="0.74" stop-color="#0E0C04"/>
<stop offset="0.86" stop-color="#030201"/>
<stop offset="1"/>
</radialGradient>
<radialGradient id="paint31_radial_2238_49654" cx="0" cy="0" r="1" gradientUnits="userSpaceOnUse" gradientTransform="translate(41.4765 66.9275) rotate(56.3145) scale(0.837309 0.837499)">
<stop offset="0.02" stop-color="#FFD056"/>
<stop offset="0.04" stop-color="#EFC350"/>
<stop offset="0.15" stop-color="#B7953E"/>
<stop offset="0.27" stop-color="#866D2D"/>
<stop offset="0.38" stop-color="#5D4C1F"/>
<stop offset="0.5" stop-color="#3B3014"/>
<stop offset="0.62" stop-color="#211B0B"/>
<stop offset="0.74" stop-color="#0E0C04"/>
<stop offset="0.86" stop-color="#030201"/>
<stop offset="1"/>
</radialGradient>
<radialGradient id="paint32_radial_2238_49654" cx="0" cy="0" r="1" gradientUnits="userSpaceOnUse" gradientTransform="translate(28.0429 81.3924) rotate(56.3145) scale(0.837309 0.837497)">
<stop offset="0.02" stop-color="#FFD056"/>
<stop offset="0.04" stop-color="#EFC350"/>
<stop offset="0.15" stop-color="#B7953E"/>
<stop offset="0.27" stop-color="#866D2D"/>
<stop offset="0.38" stop-color="#5D4C1F"/>
<stop offset="0.5" stop-color="#3B3014"/>
<stop offset="0.62" stop-color="#211B0B"/>
<stop offset="0.74" stop-color="#0E0C04"/>
<stop offset="0.86" stop-color="#030201"/>
<stop offset="1"/>
</radialGradient>
<radialGradient id="paint33_radial_2238_49654" cx="0" cy="0" r="1" gradientUnits="userSpaceOnUse" gradientTransform="translate(38.5594 81.5292) rotate(56.3145) scale(0.837312 0.837501)">
<stop offset="0.02" stop-color="#FFD056"/>
<stop offset="0.04" stop-color="#EFC350"/>
<stop offset="0.15" stop-color="#B7953E"/>
<stop offset="0.27" stop-color="#866D2D"/>
<stop offset="0.38" stop-color="#5D4C1F"/>
<stop offset="0.5" stop-color="#3B3014"/>
<stop offset="0.62" stop-color="#211B0B"/>
<stop offset="0.74" stop-color="#0E0C04"/>
<stop offset="0.86" stop-color="#030201"/>
<stop offset="1"/>
</radialGradient>
<radialGradient id="paint34_radial_2238_49654" cx="0" cy="0" r="1" gradientUnits="userSpaceOnUse" gradientTransform="translate(9.66657 67.7647) rotate(56.3145) scale(0.837309 0.837498)">
<stop offset="0.02" stop-color="#FFD056"/>
<stop offset="0.04" stop-color="#EFC350"/>
<stop offset="0.15" stop-color="#B7953E"/>
<stop offset="0.27" stop-color="#866D2D"/>
<stop offset="0.38" stop-color="#5D4C1F"/>
<stop offset="0.5" stop-color="#3B3014"/>
<stop offset="0.62" stop-color="#211B0B"/>
<stop offset="0.74" stop-color="#0E0C04"/>
<stop offset="0.86" stop-color="#030201"/>
<stop offset="1"/>
</radialGradient>
<radialGradient id="paint35_radial_2238_49654" cx="0" cy="0" r="1" gradientUnits="userSpaceOnUse" gradientTransform="translate(27.2557 94.1702) rotate(56.3145) scale(1.96958 1.97003)">
<stop offset="0.02" stop-color="#FFD056"/>
<stop offset="0.04" stop-color="#EFC350"/>
<stop offset="0.15" stop-color="#B7953E"/>
<stop offset="0.27" stop-color="#866D2D"/>
<stop offset="0.38" stop-color="#5D4C1F"/>
<stop offset="0.5" stop-color="#3B3014"/>
<stop offset="0.62" stop-color="#211B0B"/>
<stop offset="0.74" stop-color="#0E0C04"/>
<stop offset="0.86" stop-color="#030201"/>
<stop offset="1"/>
</radialGradient>
<radialGradient id="paint36_radial_2238_49654" cx="0" cy="0" r="1" gradientUnits="userSpaceOnUse" gradientTransform="translate(9.60958 113.554) rotate(56.3144) scale(6.29886 6.30028)">
<stop offset="0.02" stop-color="#FFD056"/>
<stop offset="0.04" stop-color="#EFC350"/>
<stop offset="0.15" stop-color="#B7953E"/>
<stop offset="0.27" stop-color="#866D2D"/>
<stop offset="0.38" stop-color="#5D4C1F"/>
<stop offset="0.5" stop-color="#3B3014"/>
<stop offset="0.62" stop-color="#211B0B"/>
<stop offset="0.74" stop-color="#0E0C04"/>
<stop offset="0.86" stop-color="#030201"/>
<stop offset="1"/>
</radialGradient>
<radialGradient id="paint37_radial_2238_49654" cx="0" cy="0" r="1" gradientUnits="userSpaceOnUse" gradientTransform="translate(47.7598 111.959) rotate(56.3145) scale(6.30361 6.30504)">
<stop offset="0.02" stop-color="#FFD056"/>
<stop offset="0.04" stop-color="#EFC350"/>
<stop offset="0.15" stop-color="#B7953E"/>
<stop offset="0.27" stop-color="#866D2D"/>
<stop offset="0.38" stop-color="#5D4C1F"/>
<stop offset="0.5" stop-color="#3B3014"/>
<stop offset="0.62" stop-color="#211B0B"/>
<stop offset="0.74" stop-color="#0E0C04"/>
<stop offset="0.86" stop-color="#030201"/>
<stop offset="1"/>
</radialGradient>
<radialGradient id="paint38_radial_2238_49654" cx="0" cy="0" r="1" gradientUnits="userSpaceOnUse" gradientTransform="translate(13.6286 76.9347) rotate(56.3145) scale(1.96958 1.97003)">
<stop offset="0.02" stop-color="#FFD056"/>
<stop offset="0.04" stop-color="#EFC350"/>
<stop offset="0.15" stop-color="#B7953E"/>
<stop offset="0.27" stop-color="#866D2D"/>
<stop offset="0.38" stop-color="#5D4C1F"/>
<stop offset="0.5" stop-color="#3B3014"/>
<stop offset="0.62" stop-color="#211B0B"/>
<stop offset="0.74" stop-color="#0E0C04"/>
<stop offset="0.86" stop-color="#030201"/>
<stop offset="1"/>
</radialGradient>
<radialGradient id="paint39_radial_2238_49654" cx="0" cy="0" r="1" gradientUnits="userSpaceOnUse" gradientTransform="translate(10.4022 88.9705) rotate(56.3145) scale(14.6767 14.68)">
<stop offset="0.02" stop-color="#F68C4C"/>
<stop offset="0.03" stop-color="#EF8849"/>
<stop offset="0.14" stop-color="#B76838"/>
<stop offset="0.26" stop-color="#864C29"/>
<stop offset="0.37" stop-color="#5D351C"/>
<stop offset="0.49" stop-color="#3B2112"/>
<stop offset="0.61" stop-color="#21120A"/>
<stop offset="0.73" stop-color="#0E0804"/>
<stop offset="0.86" stop-color="#030201"/>
<stop offset="1"/>
</radialGradient>
<linearGradient id="paint40_linear_2238_49654" x1="141.69" y1="190.779" x2="143.552" y2="62.1834" gradientUnits="userSpaceOnUse">
<stop stop-color="#FFFFDF"/>
<stop offset="0.21" stop-color="#FFC83C"/>
<stop offset="1" stop-color="#BF001A"/>
</linearGradient>
<radialGradient id="paint41_radial_2238_49654" cx="0" cy="0" r="1" gradientUnits="userSpaceOnUse" gradientTransform="translate(179.647 186.735) rotate(0.829513) scale(35.2099 34.7982)">
<stop stop-color="#FFF29A"/>
<stop offset="0.09" stop-color="#D5CA80"/>
<stop offset="0.23" stop-color="#9D955F"/>
<stop offset="0.37" stop-color="#6D6741"/>
<stop offset="0.5" stop-color="#45422A"/>
<stop offset="0.63" stop-color="#272517"/>
<stop offset="0.76" stop-color="#11100A"/>
<stop offset="0.89" stop-color="#040402"/>
<stop offset="1"/>
</radialGradient>
<radialGradient id="paint42_radial_2238_49654" cx="0" cy="0" r="1" gradientUnits="userSpaceOnUse" gradientTransform="translate(179.528 192.647) rotate(0.829513) scale(17.9476 17.9371)">
<stop stop-color="#FFC106"/>
<stop offset="0.09" stop-color="#D5A105"/>
<stop offset="0.23" stop-color="#9D7703"/>
<stop offset="0.37" stop-color="#6D5202"/>
<stop offset="0.5" stop-color="#453401"/>
<stop offset="0.63" stop-color="#271D00"/>
<stop offset="0.76" stop-color="#110D00"/>
<stop offset="0.89" stop-color="#040300"/>
<stop offset="1"/>
</radialGradient>
<radialGradient id="paint43_radial_2238_49654" cx="0" cy="0" r="1" gradientUnits="userSpaceOnUse" gradientTransform="translate(142.618 126.433) rotate(0.829513) scale(48.7075 48.6789)">
<stop stop-color="#FFF29A"/>
<stop offset="0.13" stop-color="#E4D98A"/>
<stop offset="0.41" stop-color="#A19961"/>
<stop offset="0.8" stop-color="#363321"/>
<stop offset="1"/>
</radialGradient>
<linearGradient id="paint44_linear_2238_49654" x1="195.642" y1="191.184" x2="197.519" y2="61.5426" gradientUnits="userSpaceOnUse">
<stop stop-color="#FFFFDA"/>
<stop offset="0.21" stop-color="#FFDD4D"/>
<stop offset="1" stop-color="#D10019"/>
</linearGradient>
<radialGradient id="paint45_radial_2238_49654" cx="0" cy="0" r="1" gradientUnits="userSpaceOnUse" gradientTransform="translate(181.466 88.5822) rotate(0.829513) scale(66.4062 50.4032)">
<stop stop-color="#FF0000"/>
<stop offset="0.22" stop-color="#B40000"/>
<stop offset="0.43" stop-color="#740000"/>
<stop offset="0.62" stop-color="#420000"/>
<stop offset="0.78" stop-color="#1E0000"/>
<stop offset="0.91" stop-color="#080000"/>
<stop offset="1"/>
</radialGradient>
<radialGradient id="paint46_radial_2238_49654" cx="0" cy="0" r="1" gradientUnits="userSpaceOnUse" gradientTransform="translate(178.193 187.057) rotate(0.829513) scale(13.4571 13.4492)">
<stop stop-color="#FFC106"/>
<stop offset="0.09" stop-color="#D5A105"/>
<stop offset="0.23" stop-color="#9D7703"/>
<stop offset="0.37" stop-color="#6D5202"/>
<stop offset="0.5" stop-color="#453401"/>
<stop offset="0.63" stop-color="#271D00"/>
<stop offset="0.76" stop-color="#110D00"/>
<stop offset="0.89" stop-color="#040300"/>
<stop offset="1"/>
</radialGradient>
<radialGradient id="paint47_radial_2238_49654" cx="0" cy="0" r="1" gradientUnits="userSpaceOnUse" gradientTransform="translate(83.4344 232.333) rotate(0.829513) scale(71.8124 54.5066)">
<stop stop-color="#FF0000"/>
<stop offset="0.22" stop-color="#B40000"/>
<stop offset="0.43" stop-color="#740000"/>
<stop offset="0.62" stop-color="#420000"/>
<stop offset="0.78" stop-color="#1E0000"/>
<stop offset="0.91" stop-color="#080000"/>
<stop offset="1"/>
</radialGradient>
<clipPath id="clip0_2238_49654">
<rect width="247" height="180" fill="white"/>
</clipPath>
</defs>
</svg>
