<svg width="24" height="24" viewBox="0 0 24 24" fill="none" xmlns="http://www.w3.org/2000/svg">
<mask id="path-1-inside-1_2233_51384" fill="white">
<path fill-rule="evenodd" clip-rule="evenodd" d="M12 23C18.0751 23 23 18.0751 23 12C23 5.92487 18.0751 1 12 1C5.92487 1 1 5.92487 1 12C1 18.0751 5.92487 23 12 23ZM7.29289 7.29289C7.68342 6.90237 8.31658 6.90237 8.70711 7.29289L12 10.5858L15.2929 7.29289C15.6834 6.90237 16.3166 6.90237 16.7071 7.29289C17.0976 7.68342 17.0976 8.31658 16.7071 8.70711L13.4142 12L16.7071 15.2929C17.0976 15.6834 17.0976 16.3166 16.7071 16.7071C16.3166 17.0976 15.6834 17.0976 15.2929 16.7071L12 13.4142L8.70711 16.7071C8.31658 17.0976 7.68342 17.0976 7.29289 16.7071C6.90237 16.3166 6.90237 15.6834 7.29289 15.2929L10.5858 12L7.29289 8.70711C6.90237 8.31658 6.90237 7.68342 7.29289 7.29289Z"/>
</mask>
<path fill-rule="evenodd" clip-rule="evenodd" d="M12 23C18.0751 23 23 18.0751 23 12C23 5.92487 18.0751 1 12 1C5.92487 1 1 5.92487 1 12C1 18.0751 5.92487 23 12 23ZM7.29289 7.29289C7.68342 6.90237 8.31658 6.90237 8.70711 7.29289L12 10.5858L15.2929 7.29289C15.6834 6.90237 16.3166 6.90237 16.7071 7.29289C17.0976 7.68342 17.0976 8.31658 16.7071 8.70711L13.4142 12L16.7071 15.2929C17.0976 15.6834 17.0976 16.3166 16.7071 16.7071C16.3166 17.0976 15.6834 17.0976 15.2929 16.7071L12 13.4142L8.70711 16.7071C8.31658 17.0976 7.68342 17.0976 7.29289 16.7071C6.90237 16.3166 6.90237 15.6834 7.29289 15.2929L10.5858 12L7.29289 8.70711C6.90237 8.31658 6.90237 7.68342 7.29289 7.29289Z" fill="#F5C638"/>
<path d="M8.70711 7.29289L9.41422 6.58579H9.41422L8.70711 7.29289ZM7.29289 7.29289L6.58579 6.58579L6.58579 6.58579L7.29289 7.29289ZM12 10.5858L11.2929 11.2929L12 12L12.7071 11.2929L12 10.5858ZM15.2929 7.29289L16 8V8L15.2929 7.29289ZM16.7071 7.29289L17.4142 6.58579L17.4142 6.58579L16.7071 7.29289ZM16.7071 8.70711L17.4142 9.41421V9.41421L16.7071 8.70711ZM13.4142 12L12.7071 11.2929L12 12L12.7071 12.7071L13.4142 12ZM16.7071 15.2929L17.4142 14.5858L17.4142 14.5858L16.7071 15.2929ZM16.7071 16.7071L16 16L16 16L16.7071 16.7071ZM15.2929 16.7071L16 16L15.2929 16.7071ZM12 13.4142L12.7071 12.7071L12 12L11.2929 12.7071L12 13.4142ZM8.70711 16.7071L8 16L8 16L8.70711 16.7071ZM7.29289 15.2929L8 16H8L7.29289 15.2929ZM10.5858 12L11.2929 12.7071L12 12L11.2929 11.2929L10.5858 12ZM7.29289 8.70711L6.58579 9.41421L7.29289 8.70711ZM22 12C22 17.5228 17.5228 22 12 22V24C18.6274 24 24 18.6274 24 12H22ZM12 2C17.5228 2 22 6.47715 22 12H24C24 5.37258 18.6274 0 12 0V2ZM2 12C2 6.47715 6.47715 2 12 2V0C5.37258 0 0 5.37258 0 12H2ZM12 22C6.47715 22 2 17.5228 2 12H0C0 18.6274 5.37258 24 12 24V22ZM9.41422 6.58579C8.63317 5.80474 7.36684 5.80474 6.58579 6.58579L8 8H8L9.41422 6.58579ZM12.7071 9.87868L9.41422 6.58579L8 8L11.2929 11.2929L12.7071 9.87868ZM14.5858 6.58579L11.2929 9.87868L12.7071 11.2929L16 8L14.5858 6.58579ZM17.4142 6.58579C16.6332 5.80474 15.3668 5.80474 14.5858 6.58579L16 8V8L17.4142 6.58579ZM17.4142 9.41421C18.1953 8.63316 18.1953 7.36684 17.4142 6.58579L16 8V8L17.4142 9.41421ZM14.1213 12.7071L17.4142 9.41421L16 8L12.7071 11.2929L14.1213 12.7071ZM17.4142 14.5858L14.1213 11.2929L12.7071 12.7071L16 16L17.4142 14.5858ZM17.4142 17.4142C18.1953 16.6332 18.1953 15.3668 17.4142 14.5858L16 16H16L17.4142 17.4142ZM14.5858 17.4142C15.3668 18.1953 16.6332 18.1953 17.4142 17.4142L16 16H16L14.5858 17.4142ZM11.2929 14.1213L14.5858 17.4142L16 16L12.7071 12.7071L11.2929 14.1213ZM9.41421 17.4142L12.7071 14.1213L11.2929 12.7071L8 16L9.41421 17.4142ZM6.58579 17.4142C7.36684 18.1953 8.63317 18.1953 9.41421 17.4142L8 16H8L6.58579 17.4142ZM6.58579 14.5858C5.80474 15.3668 5.80474 16.6332 6.58579 17.4142L8 16L8 16L6.58579 14.5858ZM9.87868 11.2929L6.58579 14.5858L8 16L11.2929 12.7071L9.87868 11.2929ZM6.58579 9.41421L9.87868 12.7071L11.2929 11.2929L8 8L6.58579 9.41421ZM6.58579 6.58579C5.80474 7.36683 5.80474 8.63316 6.58579 9.41421L8 8L8 8L6.58579 6.58579Z" fill="#F5C638" mask="url(#path-1-inside-1_2233_51384)"/>
</svg>
