<svg width="25" height="24" viewBox="0 0 25 24" fill="none" xmlns="http://www.w3.org/2000/svg">
<path d="M5.95342 4.53217C5.97047 4.98333 6.35534 5.33333 6.80659 5.33333H7.28613C7.37454 5.33333 7.45932 5.36845 7.52184 5.43096C7.58435 5.49348 7.61947 5.57826 7.61947 5.66667V11.3772C7.61947 11.4375 7.63584 11.4967 7.66685 11.5485C7.69786 11.6002 7.74233 11.6426 7.79552 11.6711C7.84872 11.6995 7.90865 11.713 7.96891 11.7101C8.02918 11.7072 8.08752 11.688 8.13772 11.6545L9.24967 10.9132C9.35918 10.8402 9.48785 10.8012 9.61947 10.8012C9.75108 10.8012 9.87975 10.8402 9.98926 10.9132L11.1012 11.6545C11.1514 11.688 11.2098 11.7072 11.27 11.7101C11.3303 11.713 11.3902 11.6995 11.4434 11.6711C11.4966 11.6426 11.5411 11.6002 11.5721 11.5485C11.6031 11.4967 11.6195 11.4375 11.6195 11.3772V5.66667C11.6195 5.57826 11.6546 5.49348 11.7171 5.43096C11.7796 5.36845 11.8644 5.33333 11.9528 5.33333H19.6195C19.7963 5.33333 19.9658 5.40357 20.0909 5.5286C20.2159 5.65362 20.2861 5.82319 20.2861 6V21.3333C20.2861 21.5101 20.2159 21.6797 20.0909 21.8047C19.9658 21.9298 19.7963 22 19.6195 22H6.78613C6.12309 22 5.48721 21.7366 5.01837 21.2678C4.54952 20.7989 4.28613 20.163 4.28613 19.5V4.5C4.28613 4.49604 4.28659 4.49221 4.28672 4.48829C4.29087 3.83832 4.55204 3.2164 5.01317 2.75833C5.49287 2.27593 6.14417 2.00325 6.82447 2H19.6195C19.7963 2 19.9658 2.07024 20.0909 2.19526C20.2159 2.32029 20.2861 2.48986 20.2861 2.66667V3C20.2861 3.17681 20.2159 3.34638 20.0909 3.4714C19.9658 3.59643 19.7963 3.66667 19.6195 3.66667H6.78613C6.67403 3.66679 6.56309 3.68951 6.45996 3.73346C6.35683 3.77742 6.26362 3.84171 6.18589 3.9225C6.10817 4.00329 6.04752 4.09891 6.00758 4.20366C5.96764 4.30841 5.94922 4.42014 5.95342 4.53217Z" fill="#D0D0D0"/>
</svg>
