<svg width="25" height="24" viewBox="0 0 25 24" fill="none" xmlns="http://www.w3.org/2000/svg">
<path d="M6.52447 4.53217C6.54151 4.98333 6.92639 5.33333 7.37764 5.33333H7.85718C7.94558 5.33333 8.03037 5.36845 8.09288 5.43096C8.15539 5.49348 8.19051 5.57826 8.19051 5.66667V11.3772C8.19051 11.4375 8.20689 11.4967 8.23789 11.5485C8.2689 11.6002 8.31337 11.6426 8.36657 11.6711C8.41977 11.6995 8.47969 11.713 8.53996 11.7101C8.60022 11.7072 8.65856 11.688 8.70876 11.6545L9.82072 10.9132C9.93023 10.8402 10.0589 10.8012 10.1905 10.8012C10.3221 10.8012 10.4508 10.8402 10.5603 10.9132L11.6723 11.6545C11.7225 11.688 11.7808 11.7072 11.8411 11.7101C11.9013 11.713 11.9613 11.6995 12.0145 11.6711C12.0676 11.6426 12.1121 11.6002 12.1431 11.5485C12.1741 11.4967 12.1905 11.4375 12.1905 11.3772V5.66667C12.1905 5.57826 12.2256 5.49348 12.2881 5.43096C12.3507 5.36845 12.4354 5.33333 12.5238 5.33333H20.1905C20.3673 5.33333 20.5369 5.40357 20.6619 5.5286C20.7869 5.65362 20.8572 5.82319 20.8572 6V21.3333C20.8572 21.5101 20.7869 21.6797 20.6619 21.8047C20.5369 21.9298 20.3673 22 20.1905 22H7.35718C6.69414 22 6.05825 21.7366 5.58941 21.2678C5.12057 20.7989 4.85718 20.163 4.85718 19.5V4.5C4.85718 4.49604 4.85764 4.49221 4.85776 4.48829C4.86192 3.83832 5.12308 3.2164 5.58422 2.75833C6.06391 2.27593 6.71521 2.00325 7.39551 2H20.1905C20.3673 2 20.5369 2.07024 20.6619 2.19526C20.7869 2.32029 20.8572 2.48986 20.8572 2.66667V3C20.8572 3.17681 20.7869 3.34638 20.6619 3.4714C20.5369 3.59643 20.3673 3.66667 20.1905 3.66667H7.35718C7.24507 3.66679 7.13414 3.68951 7.03101 3.73346C6.92788 3.77742 6.83466 3.84171 6.75694 3.9225C6.67921 4.00329 6.61857 4.09891 6.57862 4.20366C6.53868 4.30841 6.52026 4.42014 6.52447 4.53217Z" fill="#698EB2"/>
</svg>
