<svg width="25" height="24" viewBox="0 0 25 24" fill="none" xmlns="http://www.w3.org/2000/svg">
<path d="M6.16729 4.53217C6.18433 4.98333 6.56921 5.33333 7.02046 5.33333H7.5C7.58841 5.33333 7.67319 5.36845 7.7357 5.43096C7.79821 5.49348 7.83333 5.57826 7.83333 5.66667V11.3772C7.83333 11.4375 7.84971 11.4967 7.88072 11.5485C7.91172 11.6002 7.9562 11.6426 8.00939 11.6711C8.06259 11.6995 8.12251 11.713 8.18278 11.7101C8.24304 11.7072 8.30138 11.688 8.35158 11.6545L9.46354 10.9132C9.57305 10.8402 9.70172 10.8012 9.83333 10.8012C9.96495 10.8012 10.0936 10.8402 10.2031 10.9132L11.3151 11.6545C11.3653 11.688 11.4236 11.7072 11.4839 11.7101C11.5442 11.713 11.6041 11.6995 11.6573 11.6711C11.7105 11.6426 11.7549 11.6002 11.7859 11.5485C11.817 11.4967 11.8333 11.4375 11.8333 11.3772V5.66667C11.8333 5.57826 11.8685 5.49348 11.931 5.43096C11.9935 5.36845 12.0783 5.33333 12.1667 5.33333H19.8333C20.0101 5.33333 20.1797 5.40357 20.3047 5.5286C20.4298 5.65362 20.5 5.82319 20.5 6V21.3333C20.5 21.5101 20.4298 21.6797 20.3047 21.8047C20.1797 21.9298 20.0101 22 19.8333 22H7C6.33696 22 5.70107 21.7366 5.23223 21.2678C4.76339 20.7989 4.5 20.163 4.5 19.5V4.5C4.5 4.49604 4.50046 4.49221 4.50058 4.48829C4.50474 3.83832 4.7659 3.2164 5.22704 2.75833C5.70674 2.27593 6.35803 2.00325 7.03833 2H19.8333C20.0101 2 20.1797 2.07024 20.3047 2.19526C20.4298 2.32029 20.5 2.48986 20.5 2.66667V3C20.5 3.17681 20.4298 3.34638 20.3047 3.4714C20.1797 3.59643 20.0101 3.66667 19.8333 3.66667H7C6.88789 3.66679 6.77696 3.68951 6.67383 3.73346C6.5707 3.77742 6.47749 3.84171 6.39976 3.9225C6.32203 4.00329 6.26139 4.09891 6.22145 4.20366C6.1815 4.30841 6.16309 4.42014 6.16729 4.53217Z" fill="white"/>
</svg>
