<svg width="24" height="24" viewBox="0 0 24 24" fill="none" xmlns="http://www.w3.org/2000/svg">
<path d="M5 4L5 20" stroke="white" stroke-width="2" stroke-linecap="round"/>
<mask id="path-2-inside-1_1018_8415" fill="white">
<path fill-rule="evenodd" clip-rule="evenodd" d="M13 15C13 15.5523 13.4477 16 14 16H21L19 11L21 6H18V15H13Z"/>
</mask>
<path fill-rule="evenodd" clip-rule="evenodd" d="M13 15C13 15.5523 13.4477 16 14 16H21L19 11L21 6H18V15H13Z" fill="white"/>
<path d="M13 15V13C11.8954 13 11 13.8954 11 15H13ZM21 16V18C21.6636 18 22.2841 17.6708 22.6561 17.1213C23.0282 16.5717 23.1034 15.8734 22.857 15.2572L21 16ZM19 11L17.143 10.2572C16.9523 10.734 16.9523 11.266 17.143 11.7428L19 11ZM21 6L22.857 6.74278C23.1034 6.1266 23.0282 5.42829 22.6561 4.87874C22.2841 4.3292 21.6636 4 21 4V6ZM18 6V4C16.8954 4 16 4.89543 16 6H18ZM18 15V17C19.1046 17 20 16.1046 20 15H18ZM14 14C14.5523 14 15 14.4477 15 15H11C11 16.6569 12.3431 18 14 18V14ZM21 14H14V18H21V14ZM17.143 11.7428L19.143 16.7428L22.857 15.2572L20.857 10.2572L17.143 11.7428ZM19.143 5.25722L17.143 10.2572L20.857 11.7428L22.857 6.74278L19.143 5.25722ZM18 8H21V4H18V8ZM16 6V15H20V6H16ZM18 13H13V17H18V13Z" fill="white" mask="url(#path-2-inside-1_1018_8415)"/>
<mask id="path-4-inside-2_1018_8415" fill="white">
<path fill-rule="evenodd" clip-rule="evenodd" d="M16 4H6V14H17V5C17 4.44772 16.5523 4 16 4ZM13.3686 7.33787C13.5552 7.13431 13.5414 6.81802 13.3379 6.63143C13.1343 6.44483 12.818 6.45858 12.6314 6.66214L10.25 9.26006L9.36858 8.2985C9.18198 8.09494 8.8657 8.08119 8.66214 8.26779C8.45858 8.45439 8.44483 8.77067 8.63143 8.97423L9.88143 10.3379C9.97613 10.4412 10.1098 10.5 10.25 10.5C10.3902 10.5 10.5239 10.4412 10.6186 10.3379L13.3686 7.33787Z"/>
</mask>
<path fill-rule="evenodd" clip-rule="evenodd" d="M16 4H6V14H17V5C17 4.44772 16.5523 4 16 4ZM13.3686 7.33787C13.5552 7.13431 13.5414 6.81802 13.3379 6.63143C13.1343 6.44483 12.818 6.45858 12.6314 6.66214L10.25 9.26006L9.36858 8.2985C9.18198 8.09494 8.8657 8.08119 8.66214 8.26779C8.45858 8.45439 8.44483 8.77067 8.63143 8.97423L9.88143 10.3379C9.97613 10.4412 10.1098 10.5 10.25 10.5C10.3902 10.5 10.5239 10.4412 10.6186 10.3379L13.3686 7.33787Z" fill="white"/>
<path d="M6 4V3C5.44772 3 5 3.44772 5 4H6ZM6 14H5C5 14.5523 5.44772 15 6 15V14ZM17 14V15C17.5523 15 18 14.5523 18 14H17ZM13.3379 6.63143L12.6621 7.36858L12.6621 7.36858L13.3379 6.63143ZM13.3686 7.33787L12.6314 6.66214L13.3686 7.33787ZM12.6314 6.66214L13.3686 7.33787L13.3686 7.33786L12.6314 6.66214ZM10.25 9.26006L9.51285 9.93578C9.70226 10.1424 9.9697 10.2601 10.25 10.2601C10.5303 10.2601 10.7977 10.1424 10.9872 9.93578L10.25 9.26006ZM9.36858 8.2985L10.1057 7.62278V7.62278L9.36858 8.2985ZM8.66214 8.26779L7.98642 7.53063L7.98642 7.53064L8.66214 8.26779ZM8.63143 8.97423L9.36858 8.2985H9.36858L8.63143 8.97423ZM9.88143 10.3379L9.14427 11.0136L9.14427 11.0136L9.88143 10.3379ZM10.6186 10.3379L9.88143 9.66214L9.88142 9.66214L10.6186 10.3379ZM6 5H16V3H6V5ZM7 14V4H5V14H7ZM17 13H6V15H17V13ZM16 5V14H18V5H16ZM16 5H18C18 3.89543 17.1046 3 16 3V5ZM12.6621 7.36858C12.4586 7.18198 12.4448 6.8657 12.6314 6.66214L14.1057 8.01359C14.6655 7.40291 14.6243 6.45406 14.0136 5.89427L12.6621 7.36858ZM13.3686 7.33786C13.182 7.54142 12.8657 7.55518 12.6621 7.36858L14.0136 5.89427C13.4029 5.33448 12.4541 5.37574 11.8943 5.98642L13.3686 7.33786ZM10.9872 9.93578L13.3686 7.33787L11.8943 5.98642L9.51285 8.58433L10.9872 9.93578ZM8.63143 8.97423L9.51285 9.93578L10.9872 8.58433L10.1057 7.62278L8.63143 8.97423ZM9.33786 9.00494C9.13431 9.19154 8.81802 9.17779 8.63143 8.97423L10.1057 7.62278C9.54595 7.0121 8.5971 6.97085 7.98642 7.53063L9.33786 9.00494ZM9.36858 8.2985C9.55518 8.50206 9.54142 8.81835 9.33787 9.00494L7.98642 7.53064C7.37574 8.09042 7.33448 9.03927 7.89427 9.64995L9.36858 8.2985ZM10.6186 9.66214L9.36858 8.2985L7.89427 9.64995L9.14427 11.0136L10.6186 9.66214ZM10.25 9.5C10.3902 9.5 10.5239 9.55883 10.6186 9.66214L9.14427 11.0136C9.42839 11.3235 9.82954 11.5 10.25 11.5V9.5ZM9.88142 9.66214C9.97613 9.55883 10.1099 9.5 10.25 9.5V11.5C10.6705 11.5 11.0716 11.3235 11.3557 11.0136L9.88142 9.66214ZM12.6314 6.66214L9.88143 9.66214L11.3557 11.0136L14.1057 8.01359L12.6314 6.66214Z" fill="white" mask="url(#path-4-inside-2_1018_8415)"/>
</svg>
