<svg width="24" height="24" viewBox="0 0 24 24" fill="none" xmlns="http://www.w3.org/2000/svg">
<path d="M5 4L5 20" stroke="white" stroke-width="2" stroke-linecap="round"/>
<mask id="path-2-inside-1_1018_8383" fill="white">
<path fill-rule="evenodd" clip-rule="evenodd" d="M20 4H5V14H20L17.2727 9L20 4ZM14.3686 7.33787C14.5552 7.13431 14.5414 6.81802 14.3379 6.63143C14.1343 6.44483 13.818 6.45858 13.6314 6.66214L11.25 9.26006L10.3686 8.2985C10.182 8.09494 9.8657 8.08119 9.66214 8.26779C9.45858 8.45439 9.44483 8.77067 9.63143 8.97423L10.8814 10.3379C10.9761 10.4412 11.1098 10.5 11.25 10.5C11.3902 10.5 11.5239 10.4412 11.6186 10.3379L14.3686 7.33787Z"/>
</mask>
<path fill-rule="evenodd" clip-rule="evenodd" d="M20 4H5V14H20L17.2727 9L20 4ZM14.3686 7.33787C14.5552 7.13431 14.5414 6.81802 14.3379 6.63143C14.1343 6.44483 13.818 6.45858 13.6314 6.66214L11.25 9.26006L10.3686 8.2985C10.182 8.09494 9.8657 8.08119 9.66214 8.26779C9.45858 8.45439 9.44483 8.77067 9.63143 8.97423L10.8814 10.3379C10.9761 10.4412 11.1098 10.5 11.25 10.5C11.3902 10.5 11.5239 10.4412 11.6186 10.3379L14.3686 7.33787Z" fill="white"/>
<path d="M5 4V3C4.44772 3 4 3.44772 4 4H5ZM20 4L20.8779 4.47885C21.0469 4.16901 21.0401 3.79303 20.8599 3.48954C20.6797 3.18605 20.3529 3 20 3V4ZM5 14H4C4 14.5523 4.44772 15 5 15V14ZM20 14V15C20.3529 15 20.6797 14.814 20.8599 14.5105C21.0401 14.207 21.0469 13.831 20.8779 13.5211L20 14ZM17.2727 9L16.3948 8.52115C16.232 8.81963 16.232 9.18037 16.3948 9.47885L17.2727 9ZM14.3379 6.63143L13.6621 7.36858L13.6621 7.36858L14.3379 6.63143ZM14.3686 7.33787L15.1057 8.01359L15.1057 8.01359L14.3686 7.33787ZM13.6314 6.66214L14.3686 7.33787L14.3686 7.33786L13.6314 6.66214ZM11.25 9.26006L10.5128 9.93578C10.7023 10.1424 10.9697 10.2601 11.25 10.2601C11.5303 10.2601 11.7977 10.1424 11.9872 9.93578L11.25 9.26006ZM10.3686 8.2985L9.63143 8.97423L9.63143 8.97423L10.3686 8.2985ZM9.66214 8.26779L8.98642 7.53063L9.66214 8.26779ZM9.63143 8.97423L10.3686 8.2985L10.3686 8.2985L9.63143 8.97423ZM10.8814 10.3379L10.1443 11.0136L10.1443 11.0136L10.8814 10.3379ZM11.6186 10.3379L10.8814 9.66214L10.8814 9.66214L11.6186 10.3379ZM5 5H20V3H5V5ZM6 14V4H4V14H6ZM20 13H5V15H20V13ZM16.3948 9.47885L19.1221 14.4789L20.8779 13.5211L18.1506 8.52115L16.3948 9.47885ZM19.1221 3.52115L16.3948 8.52115L18.1506 9.47885L20.8779 4.47885L19.1221 3.52115ZM13.6621 7.36858C13.4586 7.18198 13.4448 6.8657 13.6314 6.66214L15.1057 8.01359C15.6655 7.40291 15.6243 6.45406 15.0136 5.89427L13.6621 7.36858ZM14.3686 7.33786C14.182 7.54142 13.8657 7.55518 13.6621 7.36858L15.0136 5.89427C14.4029 5.33448 13.4541 5.37574 12.8943 5.98642L14.3686 7.33786ZM11.9872 9.93578L14.3686 7.33787L12.8943 5.98642L10.5128 8.58433L11.9872 9.93578ZM9.63143 8.97423L10.5128 9.93578L11.9872 8.58433L11.1057 7.62278L9.63143 8.97423ZM10.3379 9.00494C10.1343 9.19154 9.81802 9.17779 9.63143 8.97423L11.1057 7.62278C10.5459 7.0121 9.5971 6.97085 8.98642 7.53063L10.3379 9.00494ZM10.3686 8.2985C10.5552 8.50206 10.5414 8.81835 10.3379 9.00494L8.98642 7.53063C8.37574 8.09042 8.33448 9.03928 8.89427 9.64995L10.3686 8.2985ZM11.6186 9.66214L10.3686 8.2985L8.89427 9.64995L10.1443 11.0136L11.6186 9.66214ZM11.25 9.5C11.3902 9.5 11.5239 9.55883 11.6186 9.66214L10.1443 11.0136C10.4284 11.3235 10.8295 11.5 11.25 11.5V9.5ZM10.8814 9.66214C10.9761 9.55883 11.1099 9.5 11.25 9.5V11.5C11.6705 11.5 12.0716 11.3235 12.3557 11.0136L10.8814 9.66214ZM13.6314 6.66214L10.8814 9.66214L12.3557 11.0136L15.1057 8.01359L13.6314 6.66214Z" fill="white" mask="url(#path-2-inside-1_1018_8383)"/>
</svg>
