<svg width="24" height="24" viewBox="0 0 24 24" fill="none" xmlns="http://www.w3.org/2000/svg">
<path d="M2 4L2 20" stroke="#698EB2" stroke-width="3" stroke-linecap="round"/>
<mask id="path-2-inside-1_1018_8383" fill="white">
<path fill-rule="evenodd" clip-rule="evenodd" d="M3 4C2.44772 4 2 4.44772 2 5V18C2 18.5523 2.44772 19 3 19H21.5723C22.2663 19 22.7493 18.3104 22.5121 17.6583L20.397 11.8417C20.3167 11.621 20.3167 11.379 20.397 11.1583L22.5121 5.34174C22.7493 4.68956 22.2663 4 21.5723 4H3ZM16.7109 8.8852C17.1214 8.42719 17.0911 7.71555 16.6433 7.29571C16.1955 6.87587 15.4996 6.90681 15.0891 7.36482L9.85 13.2101L7.91087 11.0466C7.50036 10.5886 6.80454 10.5577 6.35671 10.9775C5.90888 11.3974 5.87863 12.109 6.28914 12.567L9.03913 15.6352C9.24748 15.8676 9.54167 16 9.85 16C10.1583 16 10.4525 15.8676 10.6609 15.6352L16.7109 8.8852Z"/>
</mask>
<path fill-rule="evenodd" clip-rule="evenodd" d="M3 4C2.44772 4 2 4.44772 2 5V18C2 18.5523 2.44772 19 3 19H21.5723C22.2663 19 22.7493 18.3104 22.5121 17.6583L20.397 11.8417C20.3167 11.621 20.3167 11.379 20.397 11.1583L22.5121 5.34174C22.7493 4.68956 22.2663 4 21.5723 4H3ZM16.7109 8.8852C17.1214 8.42719 17.0911 7.71555 16.6433 7.29571C16.1955 6.87587 15.4996 6.90681 15.0891 7.36482L9.85 13.2101L7.91087 11.0466C7.50036 10.5886 6.80454 10.5577 6.35671 10.9775C5.90888 11.3974 5.87863 12.109 6.28914 12.567L9.03913 15.6352C9.24748 15.8676 9.54167 16 9.85 16C10.1583 16 10.4525 15.8676 10.6609 15.6352L16.7109 8.8852Z" fill="#698EB2"/>
<path d="M22.5121 17.6583L21.5723 18L21.5723 18L22.5121 17.6583ZM20.397 11.8417L19.4572 12.1835L19.4572 12.1835L20.397 11.8417ZM20.397 11.1583L19.4572 10.8165L19.4572 10.8165L20.397 11.1583ZM22.5121 5.34174L23.4519 5.68349L23.4519 5.68348L22.5121 5.34174ZM16.6433 7.29571L15.9593 8.02524L15.9593 8.02525L16.6433 7.29571ZM16.7109 8.8852L15.9662 8.21776L15.9662 8.21776L16.7109 8.8852ZM15.0891 7.36482L15.8338 8.03226L15.8338 8.03226L15.0891 7.36482ZM9.85 13.2101L9.10534 13.8776C9.29502 14.0892 9.5658 14.2101 9.85 14.2101C10.1342 14.2101 10.405 14.0892 10.5947 13.8776L9.85 13.2101ZM7.91087 11.0466L8.65554 10.3792L8.65554 10.3792L7.91087 11.0466ZM6.35671 10.9775L5.67277 10.248L5.67277 10.248L6.35671 10.9775ZM6.28914 12.567L7.0338 11.8996L7.0338 11.8996L6.28914 12.567ZM9.03913 15.6352L8.29447 16.3026L8.29447 16.3026L9.03913 15.6352ZM10.6609 15.6352L9.91621 14.9678L9.9162 14.9678L10.6609 15.6352ZM3 5V5V3C1.89543 3 1 3.89543 1 5H3ZM3 18V5H1V18H3ZM3 18H3H1C1 19.1046 1.89543 20 3 20V18ZM21.5723 18H3V20H21.5723V18ZM21.5723 18L21.5723 18V20C22.9602 20 23.9262 18.6209 23.4519 17.3165L21.5723 18ZM19.4572 12.1835L21.5723 18L23.4519 17.3165L21.3368 11.5L19.4572 12.1835ZM19.4572 10.8165C19.2967 11.258 19.2967 11.742 19.4572 12.1835L21.3368 11.5V11.5L19.4572 10.8165ZM21.5723 5L19.4572 10.8165L21.3368 11.5L23.4519 5.68349L21.5723 5ZM21.5723 5L21.5723 5L23.4519 5.68348C23.9262 4.37912 22.9602 3 21.5723 3V5ZM3 5H21.5723V3H3V5ZM15.9593 8.02525C15.9822 8.04667 15.9981 8.07814 15.9999 8.11861C16.0016 8.15911 15.9883 8.19305 15.9662 8.21776L17.4555 9.55264C18.2276 8.69118 18.1729 7.35899 17.3272 6.56617L15.9593 8.02525ZM15.8338 8.03226C15.8549 8.0087 15.8766 8.00097 15.8966 8.00008C15.9166 7.9992 15.9377 8.00491 15.9593 8.02524L17.3272 6.56617C16.4687 5.76131 15.1282 5.82299 14.3445 6.69738L15.8338 8.03226ZM10.5947 13.8776L15.8338 8.03226L14.3445 6.69738L9.10534 12.5427L10.5947 13.8776ZM7.16621 11.7141L9.10534 13.8776L10.5947 12.5427L8.65554 10.3792L7.16621 11.7141ZM7.04065 11.7071C7.06234 11.6867 7.08344 11.681 7.10336 11.6819C7.12335 11.6828 7.1451 11.6905 7.16621 11.7141L8.65554 10.3792C7.87183 9.50481 6.53129 9.44312 5.67277 10.248L7.04065 11.7071ZM7.0338 11.8996C7.01165 11.8749 6.99842 11.8409 7.00014 11.8004C7.00186 11.76 7.0178 11.7285 7.04065 11.7071L5.67277 10.248C4.82709 11.0408 4.77235 12.373 5.54447 13.2345L7.0338 11.8996ZM9.7838 14.9678L7.0338 11.8996L5.54447 13.2345L8.29447 16.3026L9.7838 14.9678ZM9.85 15C9.82988 15 9.80515 14.9916 9.7838 14.9678L8.29447 16.3026C8.68981 16.7437 9.25345 17 9.85 17V15ZM9.9162 14.9678C9.89485 14.9916 9.87013 15 9.85 15V17C10.4465 17 11.0102 16.7437 11.4055 16.3026L9.9162 14.9678ZM15.9662 8.21776L9.91621 14.9678L11.4055 16.3026L17.4555 9.55264L15.9662 8.21776Z" fill="#698EB2" mask="url(#path-2-inside-1_1018_8383)"/>
</svg>
