<svg width="51" height="50" viewBox="0 0 51 50" fill="none" xmlns="http://www.w3.org/2000/svg">
<circle cx="25.2856" cy="25" r="23.5" stroke="#3AB6FF" stroke-width="3"/>
<circle cx="25.2856" cy="25" r="19.5" stroke="#3AB6FF"/>
<ellipse cx="41.1686" cy="16.3027" rx="3.05949" ry="8.46679" transform="rotate(-30 41.1686 16.3027)" fill="white"/>
<ellipse cx="10.1686" cy="33.8623" rx="3.05949" ry="8.46679" transform="rotate(-30 10.1686 33.8623)" fill="white"/>
<path d="M5.18323 27.4814L37.2708 8.95565L45.6765 23.5147L13.5889 42.0405L5.18323 27.4814Z" fill="white"/>
<path d="M15.628 28.1194C15.395 27.8947 15.1487 27.7196 14.8891 27.5939C14.6275 27.4645 14.3536 27.3864 14.0675 27.3597C13.783 27.3271 13.4892 27.3467 13.1861 27.4183C12.8867 27.4878 12.582 27.6121 12.272 27.791C11.6926 28.1256 11.2665 28.5635 10.9935 29.1049C10.7242 29.6442 10.6265 30.2591 10.7004 30.9496C10.7722 31.6364 11.0361 32.3747 11.492 33.1644C11.948 33.9542 12.4557 34.5566 13.0152 34.9717C13.5747 35.3868 14.1582 35.6133 14.7657 35.6513C15.371 35.6856 15.9726 35.5302 16.5705 35.185C17.113 34.8718 17.5207 34.5084 17.7937 34.0949C18.0683 33.6756 18.2048 33.2302 18.2032 32.7588C18.2054 32.2852 18.0669 31.8066 17.7877 31.3232L18.3164 31.1139L15.3936 32.8014L14.3517 30.9968L19.0958 28.2578L19.9203 29.686C20.4956 30.6824 20.7796 31.66 20.7722 32.6189C20.7627 33.574 20.5008 34.4584 19.9864 35.2721C19.4699 36.082 18.7356 36.7618 17.7835 37.3115C16.7206 37.9252 15.6516 38.2299 14.5765 38.2257C13.4993 38.2178 12.4852 37.9102 11.5342 37.3029C10.5849 36.6898 9.765 35.7853 9.07465 34.5896C8.54412 33.6707 8.20396 32.7747 8.05419 31.9017C7.90598 31.0228 7.92871 30.1929 8.12239 29.4119C8.31606 28.6308 8.65833 27.9239 9.14919 27.2912C9.64005 26.6584 10.2601 26.1258 11.0092 25.6933C11.6514 25.3225 12.3035 25.0715 12.9658 24.9401C13.6259 24.805 14.268 24.7836 14.8921 24.876C15.5199 24.9662 16.1057 25.1668 16.6493 25.4779C17.1909 25.7852 17.6624 26.1969 18.0637 26.7132L15.628 28.1194ZM27.513 31.709C26.6531 32.2054 25.804 32.4521 24.9657 32.4489C24.129 32.44 23.3512 32.2051 22.6324 31.7442C21.9115 31.2796 21.2996 30.6118 20.7968 29.7409C20.2897 28.8626 20.0163 27.997 19.9765 27.144C19.9346 26.2874 20.1201 25.4964 20.5328 24.7709C20.9471 24.0397 21.5842 23.4258 22.4441 22.9294C23.304 22.4329 24.1523 22.1892 24.9891 22.1982C25.8274 22.2013 26.607 22.4351 27.3279 22.8997C28.0467 23.3606 28.6596 24.0302 29.1667 24.9085C29.6696 25.7795 29.9419 26.6432 29.9838 27.4999C30.0235 28.3528 29.8362 29.1449 29.4219 29.8761C29.0092 30.6016 28.3729 31.2125 27.513 31.709ZM26.4694 29.8758C26.8606 29.6499 27.1233 29.3507 27.2574 28.978C27.3895 28.6016 27.4101 28.1813 27.3192 27.7171C27.232 27.2507 27.0457 26.7703 26.7602 26.2758C26.4747 25.7813 26.1518 25.3797 25.7915 25.071C25.4349 24.7602 25.0607 24.5679 24.6687 24.4941C24.2767 24.4202 23.8851 24.4962 23.4939 24.7221C23.099 24.9501 22.8319 25.2544 22.6924 25.635C22.5567 26.0136 22.5324 26.436 22.6196 26.9023C22.7104 27.3665 22.8986 27.8459 23.1841 28.3404C23.4697 28.8349 23.7907 29.2376 24.1473 29.5484C24.5075 29.857 24.8855 30.0472 25.2812 30.1189C25.6784 30.1848 26.0745 30.1038 26.4694 29.8758ZM34.8734 27.4521C34.3309 27.7653 33.7931 27.9503 33.26 28.0071C32.7248 28.0602 32.226 27.9718 31.7635 27.7418C31.3026 27.506 30.9103 27.1077 30.5864 26.5467C30.3137 26.0743 30.1713 25.6275 30.1594 25.2063C30.1475 24.7851 30.2345 24.3904 30.4205 24.0222C30.6065 23.6541 30.8608 23.3104 31.1834 22.9913C31.5097 22.6701 31.8715 22.3677 32.2688 22.0842C32.7334 21.7471 33.1043 21.469 33.3814 21.25C33.6563 21.0273 33.8354 20.8304 33.9187 20.6593C34.0019 20.4882 33.9914 20.3122 33.887 20.1314L33.8678 20.0982C33.6654 19.7476 33.3981 19.5403 33.0658 19.4762C32.7373 19.41 32.3719 19.493 31.9697 19.7253C31.5453 19.9703 31.2619 20.2594 31.1196 20.5925C30.9752 20.9219 30.9434 21.2502 31.0241 21.5776L28.7408 22.6597C28.5532 22.0791 28.5131 21.5069 28.6206 20.9429C28.7259 20.3753 28.9764 19.8419 29.3722 19.3428C29.7695 18.8378 30.3077 18.3893 30.9868 17.9973C31.4591 17.7246 31.9432 17.5189 32.4389 17.3803C32.9383 17.2396 33.423 17.1886 33.8931 17.2272C34.3668 17.2637 34.807 17.4081 35.2135 17.6605C35.6179 17.9093 35.966 18.2864 36.258 18.792L39.569 24.527L37.3326 25.8182L36.6519 24.6391L36.5854 24.6774C36.6023 25.022 36.5549 25.3618 36.4433 25.6969C36.3296 26.0283 36.1452 26.3438 35.8901 26.6436C35.633 26.9397 35.2941 27.2092 34.8734 27.4521ZM34.6091 25.4347C34.956 25.2344 35.2229 24.9893 35.4097 24.6993C35.5945 24.4057 35.6943 24.0971 35.7093 23.7735C35.7242 23.45 35.6454 23.1387 35.4728 22.8398L34.9519 21.9375C34.9058 22.0281 34.8298 22.131 34.7241 22.2461C34.6199 22.3555 34.4981 22.4726 34.3586 22.5974C34.217 22.7186 34.0742 22.8379 33.9305 22.9553C33.7846 23.0691 33.6524 23.1725 33.5338 23.2655C33.2805 23.4659 33.0761 23.67 32.9205 23.8779C32.765 24.0858 32.6737 24.2984 32.6467 24.5158C32.6175 24.7295 32.6668 24.947 32.7947 25.1684C32.98 25.4895 33.238 25.6678 33.5685 25.7033C33.9005 25.733 34.2474 25.6435 34.6091 25.4347ZM36.4319 11.2221L42.9773 22.5592L40.6191 23.9207L34.0737 12.5836L36.4319 11.2221Z" fill="#3AB6FF"/>
</svg>
