<svg width="24" height="24" viewBox="0 0 24 24" fill="none" xmlns="http://www.w3.org/2000/svg">
<circle cx="12" cy="12" r="10" stroke="#3AB6FF" stroke-width="2"/>
<path d="M11.9257 14.92H12.3429C13.4826 14.92 14.5978 14.6378 15.4442 13.9222C16.3171 13.1842 16.7714 12.0975 16.7714 10.7772V10.5829C16.7714 9.26254 16.3171 8.17578 15.4442 7.43778C14.5978 6.72224 13.4826 6.44001 12.3429 6.44001H10.3543C9.60064 6.44001 8.79427 6.5638 8.22546 7.15928C7.66771 7.74318 7.57143 8.54212 7.57143 9.24573V16.64V17.4213C6.00186 16.1376 5 14.1858 5 12C5 8.13401 8.13401 5 12 5C15.866 5 19 8.13401 19 12C19 15.866 15.866 19 12 19C10.4479 19 9.0138 18.4949 7.85311 17.64H8.57143H10.9257H11.9257V16.64V14.92ZM11.9257 10.9314V10.4286H12.2286C12.294 10.4286 12.3297 10.4404 12.3453 10.4471C12.3609 10.4538 12.3706 10.4613 12.3786 10.47C12.3956 10.4886 12.4286 10.5419 12.4286 10.64V10.72C12.4286 10.8181 12.3956 10.8714 12.3786 10.89C12.3706 10.8987 12.3609 10.9063 12.3453 10.913C12.3297 10.9197 12.294 10.9314 12.2286 10.9314H11.9257ZM11.9261 9.74405C11.9261 9.74409 11.926 9.74549 11.9259 9.74811L11.9261 9.74405ZM11.2421 10.4288C11.2398 10.4289 11.2385 10.429 11.2385 10.429L11.2421 10.4288Z" fill="#3AB6FF" stroke="#3AB6FF" stroke-width="2"/>
</svg>
