<svg width="24" height="24" viewBox="0 0 24 24" fill="none" xmlns="http://www.w3.org/2000/svg">
<circle cx="12" cy="12" r="10" stroke="white" stroke-width="2"/>
<path d="M10.9257 11.9314V9.76001C10.9257 9.48573 10.9943 9.42858 11.2571 9.42858H12.2286C12.9943 9.42858 13.4286 10 13.4286 10.64V10.72C13.4286 11.36 12.9943 11.9314 12.2286 11.9314H10.9257Z" fill="white"/>
<path fill-rule="evenodd" clip-rule="evenodd" d="M12 20C16.4183 20 20 16.4183 20 12C20 7.58172 16.4183 4 12 4C7.58172 4 4 7.58172 4 12C4 16.4183 7.58172 20 12 20ZM10.9257 13.92H12.3429C14.32 13.92 15.7714 12.9372 15.7714 10.7772V10.5829C15.7714 8.42287 14.32 7.44001 12.3429 7.44001H10.3543C8.98286 7.44001 8.57143 7.93144 8.57143 9.24573V16.64H10.9257V13.92Z" fill="white"/>
</svg>
