<svg width="25" height="24" viewBox="0 0 25 24" fill="none" xmlns="http://www.w3.org/2000/svg">
<circle cx="12.2861" cy="12" r="10" stroke="#D0D0D0" stroke-width="2"/>
<path d="M12.2118 14.92H12.629C13.7687 14.92 14.884 14.6378 15.7303 13.9222C16.6033 13.1842 17.0576 12.0975 17.0576 10.7772V10.5829C17.0576 9.26254 16.6033 8.17578 15.7303 7.43778C14.884 6.72224 13.7687 6.44001 12.629 6.44001H10.6404C9.88678 6.44001 9.08041 6.5638 8.51159 7.15928C7.95384 7.74318 7.85756 8.54212 7.85756 9.24573V16.64V17.4213C6.28799 16.1376 5.28613 14.1858 5.28613 12C5.28613 8.13401 8.42014 5 12.2861 5C16.1521 5 19.2861 8.13401 19.2861 12C19.2861 15.866 16.1521 19 12.2861 19C10.734 19 9.29993 18.4949 8.13924 17.64H8.85756H11.2118H12.2118V16.64V14.92ZM12.2118 10.9314V10.4286H12.5147C12.5801 10.4286 12.6158 10.4404 12.6315 10.4471C12.6471 10.4538 12.6567 10.4613 12.6647 10.47C12.6817 10.4886 12.7147 10.5419 12.7147 10.64V10.72C12.7147 10.8181 12.6817 10.8714 12.6647 10.89C12.6567 10.8987 12.6471 10.9063 12.6315 10.913C12.6158 10.9197 12.5801 10.9314 12.5147 10.9314H12.2118ZM12.2122 9.74405C12.2122 9.74409 12.2122 9.74549 12.212 9.74811L12.2122 9.74405ZM11.5282 10.4288C11.5259 10.4289 11.5247 10.429 11.5246 10.429L11.5282 10.4288Z" fill="#D0D0D0" stroke="#D0D0D0" stroke-width="2"/>
</svg>
