<svg width="25" height="24" viewBox="0 0 25 24" fill="none" xmlns="http://www.w3.org/2000/svg">
<circle cx="12.8572" cy="12" r="10" stroke="#698EB2" stroke-width="2"/>
<path d="M12.7829 14.92H13.2C14.3398 14.92 15.455 14.6378 16.3014 13.9222C17.1743 13.1842 17.6286 12.0975 17.6286 10.7772V10.5829C17.6286 9.26254 17.1743 8.17578 16.3014 7.43778C15.455 6.72224 14.3398 6.44001 13.2 6.44001H11.2115C10.4578 6.44001 9.65145 6.5638 9.08264 7.15928C8.52489 7.74318 8.42861 8.54212 8.42861 9.24573V16.64V17.4213C6.85904 16.1376 5.85718 14.1858 5.85718 12C5.85718 8.13401 8.99118 5 12.8572 5C16.7232 5 19.8572 8.13401 19.8572 12C19.8572 15.866 16.7232 19 12.8572 19C11.3051 19 9.87098 18.4949 8.71028 17.64H9.42861H11.7829H12.7829V16.64V14.92ZM12.7829 10.9314V10.4286H13.0857C13.1511 10.4286 13.1868 10.4404 13.2025 10.4471C13.2181 10.4538 13.2277 10.4613 13.2357 10.47C13.2528 10.4886 13.2857 10.5419 13.2857 10.64V10.72C13.2857 10.8181 13.2528 10.8714 13.2357 10.89C13.2277 10.8987 13.2181 10.9063 13.2025 10.913C13.1868 10.9197 13.1511 10.9314 13.0857 10.9314H12.7829ZM12.7832 9.74405C12.7833 9.74409 12.7832 9.74549 12.783 9.74811L12.7832 9.74405ZM12.0992 10.4288C12.0969 10.4289 12.0957 10.429 12.0956 10.429L12.0992 10.4288Z" fill="#698EB2" stroke="#698EB2" stroke-width="2"/>
</svg>
