<svg width="1730" height="681" viewBox="0 0 1730 681" fill="none" xmlns="http://www.w3.org/2000/svg">
<g clip-path="url(#clip0_1696_72199)">
<mask id="path-1-inside-1_1696_72199" fill="white">
<path d="M0 0.519531H1728V713.52H0V0.519531Z"/>
</mask>
<path d="M0 0.519531H1728V713.52H0V0.519531Z" fill="#0C0541"/>
<path d="M1728 712.52H0V714.52H1728V712.52Z" fill="#F0F0F0" mask="url(#path-1-inside-1_1696_72199)"/>
<path style="mix-blend-mode:color-dodge" d="M62.7897 283.54C53.5467 283.54 53.5467 295.672 62.7897 295.672C72.0327 295.672 72.0327 283.54 62.7897 283.54Z" fill="url(#paint0_radial_1696_72199)"/>
<path style="mix-blend-mode:color-dodge" d="M1718.74 44.376C1712.96 44.376 1712.96 53.0413 1718.74 53.0413C1724.51 53.0413 1724.51 44.376 1718.74 44.376Z" fill="url(#paint1_radial_1696_72199)"/>
<path style="mix-blend-mode:color-dodge" d="M536.638 219.777C531.969 230.486 551.324 236.678 555.993 225.987C560.662 215.278 541.307 209.086 536.638 219.777Z" fill="url(#paint2_radial_1696_72199)"/>
<path style="mix-blend-mode:color-dodge" d="M798.255 653.318C802.944 646.606 791.25 640.137 786.56 646.849C781.891 653.561 793.565 660.03 798.255 653.318Z" fill="url(#paint3_radial_1696_72199)"/>
<path style="mix-blend-mode:color-dodge" d="M1042.62 547.193C1047.31 539.52 1035.6 532.133 1030.93 539.806C1026.24 547.479 1037.95 554.867 1042.62 547.193Z" fill="url(#paint4_radial_1696_72199)"/>
<path style="mix-blend-mode:color-dodge" d="M1207.4 530.676C1211.49 524.924 1201.26 519.377 1197.16 525.129C1193.07 530.881 1203.3 536.428 1207.4 530.676Z" fill="url(#paint5_radial_1696_72199)"/>
<path style="mix-blend-mode:color-dodge" d="M1007.82 617.845C1013.09 609.214 999.947 600.9 994.666 609.532C989.403 618.163 1002.56 626.476 1007.82 617.845Z" fill="url(#paint6_radial_1696_72199)"/>
<path style="mix-blend-mode:color-dodge" d="M815.806 167.425C807.718 167.425 807.718 177.823 815.806 177.823C823.894 177.823 823.894 167.425 815.806 167.425Z" fill="url(#paint7_radial_1696_72199)"/>
<path style="mix-blend-mode:color-dodge" d="M502.122 165.69C496.345 165.69 496.345 172.623 502.122 172.623C507.899 172.623 507.899 165.69 502.122 165.69Z" fill="url(#paint8_radial_1696_72199)"/>
<path style="mix-blend-mode:color-dodge" d="M1494.59 340.58C1492.88 343.737 1499.24 345.773 1500.95 342.616C1502.65 339.458 1496.3 337.422 1494.59 340.58Z" fill="url(#paint9_radial_1696_72199)"/>
<path style="mix-blend-mode:color-dodge" d="M1127.57 289.422C1121.83 292.359 1127.42 299.657 1133.14 296.72C1138.89 293.782 1133.3 286.485 1127.57 289.422Z" fill="url(#paint10_radial_1696_72199)"/>
<path style="mix-blend-mode:color-dodge" d="M678.309 644.704C673.523 647.645 678.163 654.939 682.948 651.997C687.734 649.055 683.094 641.762 678.309 644.704Z" fill="url(#paint11_radial_1696_72199)"/>
<path opacity="0.52" d="M1418.05 566.897C1418.05 566.412 1417.26 566.03 1416.31 566.03C1415.37 566.03 1414.58 566.422 1414.58 566.897C1414.58 567.371 1415.37 567.763 1416.31 567.763C1417.26 567.763 1418.05 567.371 1418.05 566.897Z" fill="white"/>
<path opacity="0.39" d="M1613.89 467.245C1613.89 468.194 1613.1 468.978 1612.15 468.978C1611.2 468.978 1610.42 468.194 1610.42 467.245C1610.42 466.296 1611.18 465.512 1612.15 465.512C1613.12 465.512 1613.89 466.275 1613.89 467.245Z" fill="white"/>
<path opacity="0.77" d="M1704 445.582C1704 447.017 1702.84 448.182 1701.4 448.182C1699.97 448.182 1698.8 447.017 1698.8 445.582C1698.8 444.147 1699.97 442.982 1701.4 442.982C1702.84 442.982 1704 444.147 1704 445.582Z" fill="white"/>
<path opacity="0.26" d="M1338.33 455.986C1338.33 456.46 1337.56 456.846 1336.59 456.846C1335.63 456.846 1334.86 456.46 1334.86 455.986C1334.86 455.512 1335.63 455.113 1336.59 455.113C1337.56 455.113 1338.33 455.5 1338.33 455.986Z" fill="white"/>
<path opacity="0.77" d="M1598.29 553.033C1598.29 552.557 1597.9 552.166 1597.42 552.166C1596.94 552.166 1596.55 552.557 1596.55 553.033C1596.55 553.509 1596.94 553.899 1597.42 553.899C1597.9 553.899 1598.29 553.509 1598.29 553.033Z" fill="white"/>
<path opacity="0.48" d="M1362.59 454.246C1362.59 454.726 1361.82 455.113 1360.86 455.113C1359.9 455.113 1359.12 454.726 1359.12 454.246C1359.12 453.767 1359.9 453.38 1360.86 453.38C1361.82 453.38 1362.59 453.767 1362.59 454.246Z" fill="white"/>
<path opacity="0.43" d="M1730 447.315C1730 447.791 1729.61 448.181 1729.13 448.181C1728.66 448.181 1728.27 447.791 1728.27 447.315C1728.27 446.839 1728.66 446.448 1729.13 446.448C1729.61 446.448 1730 446.839 1730 447.315Z" fill="white"/>
<path opacity="0.03" d="M1502.97 634.486C1502.97 634.966 1502.2 635.352 1501.24 635.352C1500.27 635.352 1499.5 634.966 1499.5 634.486C1499.5 634.005 1500.27 633.619 1501.24 633.619C1502.2 633.619 1502.97 634.005 1502.97 634.486Z" fill="white"/>
<path opacity="0.69" d="M1650.28 563.43C1650.28 562.953 1649.89 562.563 1649.41 562.563C1648.93 562.563 1648.55 562.953 1648.55 563.43C1648.55 563.907 1648.93 564.297 1649.41 564.297C1649.89 564.297 1650.28 563.907 1650.28 563.43Z" fill="white"/>
<path opacity="0.31" d="M1691.87 663.082C1691.87 664.041 1690.71 664.815 1689.27 664.815C1687.83 664.815 1686.67 664.041 1686.67 663.082C1686.67 662.122 1687.83 661.349 1689.27 661.349C1690.71 661.349 1691.87 662.122 1691.87 663.082Z" fill="white"/>
<path opacity="0.72" d="M1676.28 582.493C1676.28 582.021 1675.88 581.627 1675.41 581.627C1674.94 581.627 1674.54 582.021 1674.54 582.493C1674.54 582.966 1674.94 583.36 1675.41 583.36C1675.88 583.36 1676.28 582.966 1676.28 582.493Z" fill="white"/>
<path opacity="0.71" d="M1381.65 625.821C1381.65 625.339 1381.27 624.954 1380.79 624.954C1380.3 624.954 1379.92 625.339 1379.92 625.821C1379.92 626.302 1380.3 626.687 1380.79 626.687C1381.27 626.687 1381.65 626.302 1381.65 625.821Z" fill="white"/>
<path opacity="0.06" d="M1321 519.236C1321 518.288 1320.6 517.503 1320.13 517.503C1319.66 517.503 1319.26 518.288 1319.26 519.236C1319.26 520.184 1319.66 520.969 1320.13 520.969C1320.6 520.969 1321 520.184 1321 519.236Z" fill="white"/>
<path opacity="0.4" d="M1418.05 508.839C1418.05 509.797 1417.27 510.572 1416.31 510.572C1415.36 510.572 1414.58 509.797 1414.58 508.839C1414.58 507.88 1415.36 507.105 1416.31 507.105C1417.27 507.105 1418.05 507.88 1418.05 508.839Z" fill="white"/>
<path opacity="0.55" d="M1355.66 551.298C1355.66 550.827 1354.9 550.432 1353.92 550.432C1352.95 550.432 1352.19 550.827 1352.19 551.298C1352.19 551.769 1352.98 552.165 1353.92 552.165C1354.87 552.165 1355.66 551.769 1355.66 551.298Z" fill="white"/>
<path opacity="0.51" d="M1527.23 600.691C1527.23 599.744 1526.46 598.958 1525.49 598.958C1524.51 598.958 1523.76 599.721 1523.76 600.691C1523.76 601.662 1524.53 602.424 1525.49 602.424C1526.44 602.424 1527.23 601.662 1527.23 600.691Z" fill="white"/>
<path opacity="0.7" d="M151.174 494.974C152.132 494.974 152.908 494.198 152.908 493.241C152.908 492.284 152.132 491.508 151.174 491.508C150.217 491.508 149.441 492.284 149.441 493.241C149.441 494.198 150.217 494.974 151.174 494.974Z" fill="white"/>
<path opacity="0.61" d="M118.247 328.599C118.247 327.642 119.023 326.866 119.98 326.866C120.937 326.866 121.713 327.642 121.713 328.599C121.713 329.556 120.937 330.332 119.98 330.332C119.023 330.332 118.247 329.556 118.247 328.599Z" fill="white"/>
<path opacity="0.21" d="M412.868 553.891C412.868 552.929 414.043 552.166 415.468 552.166C416.893 552.166 418.067 552.945 418.067 553.891C418.067 554.836 416.893 555.632 415.468 555.632C414.043 555.632 412.868 554.853 412.868 553.891Z" fill="white"/>
<path opacity="0.56" d="M603.507 496.708C603.507 495.754 604.287 494.975 605.24 494.975C606.193 494.975 606.973 495.754 606.973 496.708C606.973 497.661 606.193 498.441 605.24 498.441C604.287 498.441 603.507 497.661 603.507 496.708Z" fill="white"/>
<path opacity="0.08" d="M1081.83 607.623C1081.83 606.672 1082.62 605.89 1083.57 605.89C1084.52 605.89 1085.3 606.672 1085.3 607.623C1085.3 608.574 1084.52 609.356 1083.57 609.356C1082.62 609.356 1081.83 608.574 1081.83 607.623Z" fill="white"/>
<path opacity="0.73" d="M825.34 319.067C825.34 318.583 826.128 318.2 827.073 318.2C828.018 318.2 828.806 318.594 828.806 319.067C828.806 319.539 828.018 319.933 827.073 319.933C826.128 319.933 825.34 319.539 825.34 319.067Z" fill="white"/>
<path opacity="0.52" d="M1371.25 171.756C1371.25 171.272 1371.65 170.89 1372.12 170.89C1372.59 170.89 1372.99 171.286 1372.99 171.756C1372.99 172.226 1372.61 172.623 1372.12 172.623C1371.64 172.623 1371.25 172.226 1371.25 171.756Z" fill="white"/>
<path opacity="0.07" d="M19.4629 386.658C19.4629 387.133 19.8537 387.524 20.3294 387.524C20.8052 387.524 21.196 387.133 21.196 386.658C21.196 386.182 20.8052 385.791 20.3294 385.791C19.8537 385.791 19.4629 386.182 19.4629 386.658Z" fill="white"/>
<path opacity="0.22" d="M582.709 141.428C582.709 142.379 583.492 143.161 584.442 143.161C585.392 143.161 586.175 142.379 586.175 141.428C586.175 140.478 585.392 139.695 584.442 139.695C583.492 139.695 582.709 140.478 582.709 141.428Z" fill="white"/>
<path opacity="0.56" d="M662.431 60.8402C662.431 61.3232 662.814 61.7067 663.297 61.7067C663.78 61.7067 664.164 61.3232 664.164 60.8402C664.164 60.3572 663.766 59.9736 663.297 59.9736C662.828 59.9736 662.431 60.3714 662.431 60.8402Z" fill="white"/>
<path opacity="0.68" d="M714.422 206.417C714.422 206.895 715.201 207.284 716.155 207.284C717.109 207.284 717.888 206.895 717.888 206.417C717.888 205.94 717.109 205.551 716.155 205.551C715.201 205.551 714.422 205.94 714.422 206.417Z" fill="white"/>
<path opacity="0.39" d="M1173.69 72.1051C1173.69 73.0566 1174.47 73.8382 1175.42 73.8382C1176.37 73.8382 1177.15 73.0566 1177.15 72.1051C1177.15 71.1536 1176.37 70.3721 1175.42 70.3721C1174.47 70.3721 1173.69 71.1536 1173.69 72.1051Z" fill="white"/>
<path opacity="0.58" d="M1173.68 328.599C1174.64 328.599 1175.42 328.211 1175.42 327.733C1175.42 327.254 1174.64 326.866 1173.68 326.866C1172.73 326.866 1171.95 327.254 1171.95 327.733C1171.95 328.211 1172.73 328.599 1173.68 328.599Z" fill="white"/>
<path opacity="0.13" d="M1258.61 613.689C1258.61 614.179 1259 614.555 1259.47 614.555C1259.95 614.555 1260.34 614.163 1260.34 613.689C1260.34 613.215 1259.95 612.822 1259.47 612.822C1259 612.822 1258.61 613.215 1258.61 613.689Z" fill="white"/>
<path opacity="0.77" d="M1574.02 98.1012C1574.02 99.0495 1574.42 99.8343 1574.89 99.8343C1575.37 99.8343 1575.76 99.0495 1575.76 98.1012C1575.76 97.1529 1575.37 96.3682 1574.89 96.3682C1574.42 96.3682 1574.02 97.1529 1574.02 98.1012Z" fill="white"/>
<path opacity="0.46" d="M21.1953 605.89C21.1953 606.834 21.9631 607.623 22.9284 607.623C23.8936 607.623 24.6614 606.856 24.6614 605.89C24.6614 604.925 23.8936 604.157 22.9284 604.157C21.9631 604.157 21.1953 604.925 21.1953 605.89Z" fill="white"/>
<path opacity="0.46" d="M485.657 129.297C485.657 130.247 486.421 131.03 487.39 131.03C488.359 131.03 489.123 130.247 489.123 129.297C489.123 128.346 488.341 127.563 487.39 127.563C486.44 127.563 485.657 128.328 485.657 129.297Z" fill="white"/>
<path opacity="0.72" d="M83.5859 373.659C83.5859 374.617 84.7438 375.392 86.1742 375.392C87.6045 375.392 88.7851 374.617 88.7851 373.659C88.7851 372.701 87.6272 371.926 86.1742 371.926C84.7211 371.926 83.5859 372.701 83.5859 373.659Z" fill="white"/>
<path opacity="0.62" d="M698.825 65.1735C698.825 66.1337 699.598 66.9066 700.558 66.9066C701.518 66.9066 702.291 66.1337 702.291 65.1735C702.291 64.2133 701.518 63.4404 700.558 63.4404C699.598 63.4404 698.825 64.2133 698.825 65.1735Z" fill="white"/>
<path opacity="0.39" d="M717.888 245.412C717.888 246.361 718.269 247.145 718.754 247.145C719.239 247.145 719.621 246.361 719.621 245.412C719.621 244.463 719.229 243.679 718.754 243.679C718.28 243.679 717.888 244.442 717.888 245.412Z" fill="white"/>
<path opacity="0.77" d="M1085.3 49.5758C1085.3 50.5332 1086.07 51.3089 1087.03 51.3089C1087.99 51.3089 1088.76 50.5332 1088.76 49.5758C1088.76 48.6185 1087.99 47.8428 1087.03 47.8428C1086.07 47.8428 1085.3 48.6185 1085.3 49.5758Z" fill="white"/>
<path opacity="0.28" d="M1177.15 403.988C1177.15 404.47 1177.92 404.854 1178.88 404.854C1179.85 404.854 1180.62 404.47 1180.62 403.988C1180.62 403.505 1179.85 403.121 1178.88 403.121C1177.92 403.121 1177.15 403.505 1177.15 403.988Z" fill="white"/>
<path opacity="0.69" d="M1293.27 621.487C1293.27 622.44 1294.04 623.22 1295.01 623.22C1295.97 623.22 1296.73 622.44 1296.73 621.487C1296.73 620.534 1295.96 619.754 1295.01 619.754C1294.06 619.754 1293.27 620.534 1293.27 621.487Z" fill="white"/>
<path opacity="0.26" d="M1449.24 60.8458C1449.24 61.3265 1450.03 61.7067 1450.97 61.7067C1451.91 61.7067 1452.71 61.3154 1452.71 60.8458C1452.71 60.3762 1451.93 59.9736 1450.97 59.9736C1450 59.9736 1449.24 60.365 1449.24 60.8458Z" fill="white"/>
<path opacity="0.59" d="M28.127 669.148C28.127 668.673 28.9096 668.281 29.86 668.281C30.8104 668.281 31.5931 668.673 31.5931 669.148C31.5931 669.623 30.8104 670.014 29.86 670.014C28.9096 670.014 28.127 669.623 28.127 669.148Z" fill="white"/>
<path opacity="0.09" d="M241.296 461.179C241.296 460.696 242.062 460.312 243.029 460.312C243.995 460.312 244.762 460.696 244.762 461.179C244.762 461.662 243.995 462.046 243.029 462.046C242.062 462.046 241.296 461.662 241.296 461.179Z" fill="white"/>
<path opacity="0.29" d="M208.367 31.3783C208.367 30.9008 208.756 30.5117 209.234 30.5117C209.711 30.5117 210.1 30.9008 210.1 31.3783C210.1 31.8557 209.711 32.2448 209.234 32.2448C208.756 32.2448 208.367 31.8557 208.367 31.3783Z" fill="white"/>
<path opacity="0.5" d="M856.534 611.956C856.534 611.477 856.921 611.09 857.401 611.09C857.88 611.09 858.267 611.477 858.267 611.956C858.267 612.436 857.88 612.823 857.401 612.823C856.921 612.823 856.534 612.436 856.534 611.956Z" fill="white"/>
<path opacity="0.74" d="M674.562 423.918C674.562 422.964 675.34 422.185 676.295 422.185C677.249 422.185 678.028 422.964 678.028 423.918C678.028 424.872 677.249 425.651 676.295 425.651C675.34 425.651 674.562 424.872 674.562 423.918Z" fill="white"/>
<path opacity="0.69" d="M1260.34 605.024C1260.34 604.541 1261.1 604.157 1262.08 604.157C1263.06 604.157 1263.81 604.552 1263.81 605.024C1263.81 605.495 1263.02 605.89 1262.08 605.89C1261.15 605.89 1260.34 605.506 1260.34 605.024Z" fill="white"/>
<path opacity="0.49" d="M1067.97 312.135C1067.97 311.648 1068.36 311.269 1068.83 311.269C1069.3 311.269 1069.7 311.648 1069.7 312.135C1069.7 312.623 1069.3 313.002 1068.83 313.002C1068.36 313.002 1067.97 312.623 1067.97 312.135Z" fill="white"/>
<path opacity="0.17" d="M163.307 586.827C163.307 585.866 164.465 585.094 165.906 585.094C167.347 585.094 168.506 585.866 168.506 586.827C168.506 587.788 167.347 588.56 165.906 588.56C164.465 588.56 163.307 587.788 163.307 586.827Z" fill="white"/>
<path opacity="0.53" d="M38.5264 292.205C38.5264 291.25 39.3045 290.472 40.2594 290.472C41.2144 290.472 41.9925 291.25 41.9925 292.205C41.9925 293.16 41.2144 293.938 40.2594 293.938C39.3045 293.938 38.5264 293.16 38.5264 292.205Z" fill="white"/>
<path opacity="0.8" d="M530.718 441.249C530.718 440.298 531.5 439.516 532.451 439.516C533.401 439.516 534.184 440.298 534.184 441.249C534.184 442.199 533.401 442.982 532.451 442.982C531.5 442.982 530.718 442.199 530.718 441.249Z" fill="white"/>
<path opacity="0.48" d="M683.228 385.79C683.228 384.831 684.002 384.057 684.961 384.057C685.919 384.057 686.694 384.831 686.694 385.79C686.694 386.748 685.919 387.523 684.961 387.523C684.002 387.523 683.228 386.748 683.228 385.79Z" fill="white"/>
<path opacity="0.19" d="M598.307 432.584C598.307 431.612 599.087 430.851 600.04 430.851C600.992 430.851 601.773 431.631 601.773 432.584C601.773 433.536 600.992 434.317 600.04 434.317C599.087 434.317 598.307 433.536 598.307 432.584Z" fill="white"/>
<path opacity="0.52" d="M1353.92 506.245C1353.92 505.763 1354.31 505.372 1354.78 505.372C1355.25 505.372 1355.66 505.763 1355.66 506.245C1355.66 506.727 1355.27 507.105 1354.78 507.105C1354.3 507.105 1353.92 506.714 1353.92 506.245Z" fill="white"/>
<path opacity="0.79" d="M1303.67 557.364C1303.67 556.406 1304.82 555.631 1306.25 555.631C1307.68 555.631 1308.87 556.406 1308.87 557.364C1308.87 558.322 1307.71 559.097 1306.25 559.097C1304.8 559.097 1303.67 558.322 1303.67 557.364Z" fill="white"/>
<path opacity="0.77" d="M1189.28 157.892C1189.28 157.409 1190.05 157.025 1191.02 157.025C1191.98 157.025 1192.75 157.409 1192.75 157.892C1192.75 158.375 1191.98 158.758 1191.02 158.758C1190.05 158.758 1189.28 158.375 1189.28 157.892Z" fill="white"/>
<path opacity="0.26" d="M36.792 217.683C36.792 218.634 37.574 219.416 38.5251 219.416C39.4761 219.416 40.2581 218.634 40.2581 217.683C40.2581 216.732 39.4761 215.95 38.5251 215.95C37.574 215.95 36.792 216.732 36.792 217.683Z" fill="white"/>
<path opacity="0.3" d="M636.434 111.966C636.434 112.929 637.204 113.7 638.167 113.7C639.129 113.7 639.9 112.929 639.9 111.966C639.9 111.004 639.129 110.233 638.167 110.233C637.204 110.233 636.434 111.004 636.434 111.966Z" fill="white"/>
<path opacity="0.43" d="M568.844 189.954C568.844 190.93 569.625 191.687 570.577 191.687C571.529 191.687 572.31 190.906 572.31 189.954C572.31 189.002 571.529 188.221 570.577 188.221C569.625 188.221 568.844 189.002 568.844 189.954Z" fill="white"/>
<path opacity="0.56" d="M683.228 509.705C683.228 510.185 683.614 510.572 684.094 510.572C684.574 510.572 684.961 510.185 684.961 509.705C684.961 509.225 684.574 508.839 684.094 508.839C683.614 508.839 683.228 509.225 683.228 509.705Z" fill="white"/>
<path opacity="0.66" d="M1100.9 496.708C1100.9 497.65 1101.28 498.441 1101.76 498.441C1102.25 498.441 1102.63 497.681 1102.63 496.708C1102.63 495.735 1102.25 494.975 1101.76 494.975C1101.28 494.975 1100.9 495.735 1100.9 496.708Z" fill="white"/>
<path opacity="0.48" d="M1426.71 59.1068C1426.71 59.5882 1427.1 59.9733 1427.58 59.9733C1428.06 59.9733 1428.45 59.5882 1428.45 59.1068C1428.45 58.6254 1428.06 58.2402 1427.58 58.2402C1427.1 58.2402 1426.71 58.6254 1426.71 59.1068Z" fill="white"/>
<path opacity="0.22" d="M163.307 177.823C163.307 178.783 163.696 179.556 164.179 179.556C164.662 179.556 165.04 178.783 165.04 177.823C165.04 176.863 164.651 176.09 164.179 176.09C163.707 176.09 163.307 176.863 163.307 177.823Z" fill="white"/>
<path opacity="0.13" d="M762.948 11.4479C762.948 12.3965 763.733 13.181 764.681 13.181C765.63 13.181 766.414 12.3965 766.414 11.4479C766.414 10.4993 765.648 9.71484 764.681 9.71484C763.714 9.71484 762.948 10.4993 762.948 11.4479Z" fill="white"/>
<path opacity="0.18" d="M57.5889 247.145C57.5889 248.106 58.361 248.878 59.3219 248.878C60.2828 248.878 61.055 248.106 61.055 247.145C61.055 246.184 60.2828 245.412 59.3219 245.412C58.361 245.412 57.5889 246.184 57.5889 247.145Z" fill="white"/>
<path opacity="0.65" d="M483.926 47.8424C483.926 48.8074 484.694 49.5755 485.659 49.5755C486.624 49.5755 487.392 48.8074 487.392 47.8424C487.392 46.8774 486.624 46.1094 485.659 46.1094C484.694 46.1094 483.926 46.8774 483.926 47.8424Z" fill="white"/>
<path opacity="0.79" d="M885.995 374.525C885.995 375.958 886.773 377.125 887.728 377.125C888.683 377.125 889.461 375.958 889.461 374.525C889.461 373.093 888.683 371.926 887.728 371.926C886.773 371.926 885.995 373.093 885.995 374.525Z" fill="white"/>
<path opacity="0.7" d="M1069.7 540.9C1069.7 542.338 1070.86 543.5 1072.3 543.5C1073.74 543.5 1074.9 542.338 1074.9 540.9C1074.9 539.463 1073.74 538.301 1072.3 538.301C1070.86 538.301 1069.7 539.463 1069.7 540.9Z" fill="white"/>
<path opacity="0.43" d="M1057.57 53.0291C1057.57 53.9828 1058.33 54.7738 1059.3 54.7738C1060.27 54.7738 1061.04 54.0061 1061.04 53.0291C1061.04 52.052 1060.27 51.3076 1059.3 51.3076C1058.33 51.3076 1057.57 52.0753 1057.57 53.0291Z" fill="white"/>
<path opacity="0.03" d="M1286.33 240.213C1286.33 241.169 1287.12 241.946 1288.08 241.946C1289.04 241.946 1289.8 241.169 1289.8 240.213C1289.8 239.256 1289.02 238.479 1288.08 238.479C1287.13 238.479 1286.33 239.256 1286.33 240.213Z" fill="white"/>
<path opacity="0.36" d="M142.51 301.737C142.51 301.255 142.895 300.87 143.376 300.87C143.858 300.87 144.243 301.255 144.243 301.737C144.243 302.218 143.858 302.603 143.376 302.603C142.895 302.603 142.51 302.218 142.51 301.737Z" fill="white"/>
<path opacity="0.63" d="M76.6523 171.756C76.6523 171.277 77.0395 170.89 77.5189 170.89C77.9982 170.89 78.3854 171.277 78.3854 171.756C78.3854 172.236 77.9982 172.623 77.5189 172.623C77.0395 172.623 76.6523 172.236 76.6523 171.756Z" fill="white"/>
<path opacity="0.45" d="M399.003 618.889C399.003 618.408 399.388 618.022 399.869 618.022C400.351 618.022 400.736 618.408 400.736 618.889C400.736 619.37 400.351 619.756 399.869 619.756C399.388 619.756 399.003 619.37 399.003 618.889Z" fill="white"/>
<path opacity="0.17" d="M710.956 657.016C710.956 655.58 711.728 654.416 712.68 654.416C713.632 654.416 714.422 655.58 714.422 657.016C714.422 658.451 713.65 659.615 712.68 659.615C711.71 659.615 710.956 658.451 710.956 657.016Z" fill="white"/>
<path opacity="0.22" d="M1336.59 422.184C1336.59 421.227 1337.37 420.451 1338.33 420.451C1339.28 420.451 1340.06 421.227 1340.06 422.184C1340.06 423.141 1339.28 423.917 1338.33 423.917C1337.37 423.917 1336.59 423.141 1336.59 422.184Z" fill="white"/>
<path opacity="0.15" d="M558.446 415.253C558.446 416.202 559.21 416.986 560.179 416.986C561.149 416.986 561.912 416.222 561.912 415.253C561.912 414.283 561.149 413.52 560.179 413.52C559.21 413.52 558.446 414.283 558.446 415.253Z" fill="white"/>
<path opacity="0.62" d="M201.435 620.622C201.435 622.053 202.214 623.222 203.168 623.222C204.122 623.222 204.901 622.053 204.901 620.622C204.901 619.191 204.122 618.022 203.168 618.022C202.214 618.022 201.435 619.191 201.435 620.622Z" fill="white"/>
<path opacity="0.53" d="M712.688 43.5091C712.688 43.9894 713.461 44.3756 714.422 44.3756C715.382 44.3756 716.155 43.9894 716.155 43.5091C716.155 43.0289 715.382 42.6426 714.422 42.6426C713.461 42.6426 712.688 43.0289 712.688 43.5091Z" fill="white"/>
<path opacity="0.52" d="M745.617 396.178C745.617 397.142 746.397 397.921 747.36 397.921C748.324 397.921 749.083 397.142 749.083 396.178C749.083 395.214 748.304 394.455 747.36 394.455C746.417 394.455 745.617 395.234 745.617 396.178Z" fill="white"/>
<path opacity="0.27" d="M922.39 489.774C922.39 490.737 922.775 491.507 923.256 491.507C923.738 491.507 924.123 490.737 924.123 489.774C924.123 488.811 923.738 488.041 923.256 488.041C922.775 488.041 922.39 488.811 922.39 489.774Z" fill="white"/>
<path opacity="0.31" d="M1097.43 267.942C1097.43 268.897 1098.21 269.675 1099.16 269.675C1100.12 269.675 1100.9 268.897 1100.9 267.942C1100.9 266.987 1100.12 266.209 1099.16 266.209C1098.21 266.209 1097.43 266.987 1097.43 267.942Z" fill="white"/>
<path opacity="0.25" d="M1241.27 526.169C1241.27 527.122 1242.05 527.902 1243.01 527.902C1243.96 527.902 1244.74 527.122 1244.74 526.169C1244.74 525.215 1243.96 524.436 1243.01 524.436C1242.05 524.436 1241.27 525.215 1241.27 526.169Z" fill="white"/>
<path opacity="0.69" d="M1551.49 12.3148C1551.49 12.7874 1551.89 13.1813 1552.36 13.1813C1552.83 13.1813 1553.23 12.7874 1553.23 12.3148C1553.23 11.8421 1552.83 11.4482 1552.36 11.4482C1551.89 11.4482 1551.49 11.8421 1551.49 12.3148Z" fill="white"/>
<path opacity="0.69" d="M324.482 419.585C324.482 419.106 324.87 418.719 325.349 418.719C325.828 418.719 326.215 419.106 326.215 419.585C326.215 420.065 325.828 420.452 325.349 420.452C324.87 420.452 324.482 420.065 324.482 419.585Z" fill="white"/>
<path opacity="0.39" d="M312.351 104.167C312.351 103.684 312.733 103.301 313.217 103.301C313.701 103.301 314.084 103.684 314.084 104.167C314.084 104.651 313.701 105.034 313.217 105.034C312.733 105.034 312.351 104.631 312.351 104.167Z" fill="white"/>
<path opacity="0.43" d="M776.812 595.491C776.812 594.526 777.204 593.758 777.683 593.758C778.163 593.758 778.545 594.548 778.545 595.491C778.545 596.434 778.152 597.224 777.683 597.224C777.215 597.224 776.812 596.434 776.812 595.491Z" fill="white"/>
<path opacity="0.44" d="M1152.89 559.964C1152.89 559.481 1153.27 559.098 1153.76 559.098C1154.24 559.098 1154.62 559.481 1154.62 559.964C1154.62 560.447 1154.24 560.831 1153.76 560.831C1153.27 560.831 1152.89 560.447 1152.89 559.964Z" fill="white"/>
<path opacity="0.72" d="M1111.3 187.345C1111.3 186.86 1111.68 186.487 1112.16 186.487C1112.64 186.487 1113.03 186.879 1113.03 187.345C1113.03 187.81 1112.64 188.22 1112.16 188.22C1111.68 188.22 1111.3 187.829 1111.3 187.345Z" fill="white"/>
<path opacity="0.71" d="M1405.92 230.681C1405.92 230.207 1406.68 229.814 1407.63 229.814C1408.59 229.814 1409.38 230.207 1409.38 230.681C1409.38 231.155 1408.62 231.548 1407.63 231.548C1406.64 231.548 1405.92 231.171 1405.92 230.681Z" fill="white"/>
<path opacity="0.44" d="M111.314 612.823C111.314 611.873 112.489 611.09 113.914 611.09C115.339 611.09 116.514 611.873 116.514 612.823C116.514 613.773 115.339 614.556 113.914 614.556C112.489 614.556 111.314 613.773 111.314 612.823Z" fill="white"/>
<path opacity="0.1" d="M83.5859 198.619C83.5859 197.676 84.3586 196.886 85.308 196.886C86.2573 196.886 87.0521 197.654 87.0521 198.619C87.0521 199.584 86.2794 200.352 85.308 200.352C84.3366 200.352 83.5859 199.584 83.5859 198.619Z" fill="white"/>
<path opacity="0.11" d="M490.857 637.086C490.857 636.128 492.021 635.353 493.457 635.353C494.893 635.353 496.057 636.128 496.057 637.086C496.057 638.043 494.893 638.819 493.457 638.819C492.021 638.819 490.857 638.043 490.857 637.086Z" fill="white"/>
<path opacity="0.8" d="M284.622 341.598C284.622 341.13 285.398 340.731 286.341 340.731C287.284 340.731 288.088 341.117 288.088 341.598C288.088 342.079 287.312 342.465 286.341 342.465C285.371 342.465 284.622 342.079 284.622 341.598Z" fill="white"/>
<path opacity="0.41" d="M201.435 161.358C201.435 160.884 202.197 160.491 203.168 160.491C204.138 160.491 204.901 160.872 204.901 161.358C204.901 161.843 204.138 162.224 203.168 162.224C202.197 162.224 201.435 161.831 201.435 161.358Z" fill="white"/>
<path opacity="0.51" d="M558.446 680.401C558.446 679.454 558.831 678.679 559.313 678.679C559.794 678.679 560.179 679.454 560.179 680.401C560.179 681.348 559.794 682.145 559.313 682.145C558.831 682.145 558.446 681.37 558.446 680.401Z" fill="white"/>
<path opacity="0.51" d="M875.598 60.8402C875.598 60.3518 875.992 59.9736 876.464 59.9736C876.937 59.9736 877.331 60.3675 877.331 60.8402C877.331 61.3128 876.937 61.7067 876.464 61.7067C875.992 61.7067 875.598 61.3128 875.598 60.8402Z" fill="white"/>
<path opacity="0.22" d="M1017.71 484.576C1017.71 483.624 1018.49 482.843 1019.44 482.843C1020.39 482.843 1021.18 483.624 1021.18 484.576C1021.18 485.528 1020.39 486.309 1019.44 486.309C1018.49 486.309 1017.71 485.528 1017.71 484.576Z" fill="white"/>
<path opacity="0.58" d="M880.797 132.762C880.797 131.804 881.571 131.029 882.53 131.029C883.489 131.029 884.263 131.804 884.263 132.762C884.263 133.721 883.489 134.495 882.53 134.495C881.571 134.495 880.797 133.721 880.797 132.762Z" fill="white"/>
<path opacity="0.06" d="M1466.57 124.096C1466.57 123.151 1466.96 122.363 1467.44 122.363C1467.92 122.363 1468.31 123.129 1468.31 124.096C1468.31 125.064 1467.92 125.829 1467.44 125.829C1466.96 125.829 1466.57 125.064 1466.57 124.096Z" fill="white"/>
<path opacity="0.75" d="M173.705 311.269C173.705 312.225 174.094 313.002 174.572 313.002C175.049 313.002 175.438 312.225 175.438 311.269C175.438 310.314 175.049 309.536 174.572 309.536C174.094 309.536 173.705 310.314 173.705 311.269Z" fill="white"/>
<path opacity="0.29" d="M612.172 361.519C612.172 362.471 612.948 363.261 613.905 363.261C614.862 363.261 615.638 362.489 615.638 361.519C615.638 360.549 614.862 359.795 613.905 359.795C612.948 359.795 612.172 360.567 612.172 361.519Z" fill="white"/>
<path opacity="0.51" d="M757.748 115.421C757.748 116.371 758.134 117.165 758.62 117.165C759.106 117.165 759.481 116.393 759.481 115.421C759.481 114.45 759.095 113.699 758.62 113.699C758.145 113.699 757.748 114.472 757.748 115.421Z" fill="white"/>
<path opacity="0.45" d="M747.351 189.087C747.351 189.57 747.734 189.954 748.217 189.954C748.7 189.954 749.084 189.57 749.084 189.087C749.084 188.604 748.7 188.221 748.217 188.221C747.734 188.221 747.351 188.604 747.351 189.087Z" fill="white"/>
<path opacity="0.45" d="M728.287 475.043C728.287 475.518 728.678 475.91 729.154 475.91C729.629 475.91 730.02 475.518 730.02 475.043C730.02 474.568 729.629 474.177 729.154 474.177C728.678 474.177 728.287 474.568 728.287 475.043Z" fill="white"/>
<path opacity="0.16" d="M1265.54 384.057C1265.54 385.011 1266.32 385.79 1267.27 385.79C1268.22 385.79 1269 385.011 1269 384.057C1269 383.103 1268.22 382.324 1267.27 382.324C1266.32 382.324 1265.54 383.103 1265.54 384.057Z" fill="white"/>
<path opacity="0.68" d="M1061.04 610.222C1061.04 610.706 1061.42 611.089 1061.9 611.089C1062.39 611.089 1062.77 610.706 1062.77 610.222C1062.77 609.738 1062.39 609.355 1061.9 609.355C1061.42 609.355 1061.04 609.738 1061.04 610.222Z" fill="white"/>
<path opacity="0.27" d="M1657.21 107.633C1657.21 108.119 1657.59 108.5 1658.08 108.5C1658.56 108.5 1658.94 108.119 1658.94 107.633C1658.94 107.147 1658.56 106.767 1658.08 106.767C1657.59 106.767 1657.21 107.147 1657.21 107.633Z" fill="white"/>
<path opacity="0.57" d="M691.893 469.845C691.893 470.323 692.67 470.712 693.626 470.712C694.581 470.712 695.359 470.323 695.359 469.845C695.359 469.367 694.581 468.979 693.626 468.979C692.67 468.979 691.893 469.367 691.893 469.845Z" fill="white"/>
<path opacity="0.04" d="M414.603 434.317C414.603 435.267 415.386 436.05 416.336 436.05C417.285 436.05 418.069 435.267 418.069 434.317C418.069 433.367 417.285 432.584 416.336 432.584C415.386 432.584 414.603 433.367 414.603 434.317Z" fill="white"/>
<path opacity="0.68" d="M911.992 382.325C911.992 383.29 912.76 384.058 913.725 384.058C914.69 384.058 915.458 383.29 915.458 382.325C915.458 381.36 914.69 380.592 913.725 380.592C912.76 380.592 911.992 381.36 911.992 382.325Z" fill="white"/>
<path opacity="0.71" d="M1497.77 306.936C1497.77 308.37 1498.55 309.535 1499.5 309.535C1500.46 309.535 1501.24 308.37 1501.24 306.936C1501.24 305.501 1500.46 304.336 1499.5 304.336C1498.55 304.336 1497.77 305.501 1497.77 306.936Z" fill="white"/>
<path opacity="0.66" d="M1100.9 423.918C1100.9 424.88 1101.28 425.651 1101.76 425.651C1102.24 425.651 1102.63 424.88 1102.63 423.918C1102.63 422.955 1102.24 422.185 1101.76 422.185C1101.28 422.185 1100.9 422.955 1100.9 423.918Z" fill="white"/>
<path opacity="0.4" d="M1369.52 113.699C1369.52 114.651 1370.31 115.432 1371.27 115.432C1372.23 115.432 1372.99 114.651 1372.99 113.699C1372.99 112.747 1372.2 111.966 1371.27 111.966C1370.33 111.966 1369.52 112.747 1369.52 113.699Z" fill="white"/>
<path opacity="0.13" d="M196.235 398.788C196.235 398.305 196.619 397.922 197.102 397.922C197.585 397.922 197.968 398.305 197.968 398.788C197.968 399.272 197.585 399.655 197.102 399.655C196.619 399.655 196.235 399.272 196.235 398.788Z" fill="white"/>
<path opacity="0.36" d="M586.176 599.825C586.176 599.349 586.957 598.958 587.909 598.958C588.86 598.958 589.642 599.349 589.642 599.825C589.642 600.3 588.86 600.691 587.909 600.691C586.957 600.691 586.176 600.3 586.176 599.825Z" fill="white"/>
<path opacity="0.41" d="M705.757 667.413C705.757 666.937 706.537 666.547 707.49 666.547C708.443 666.547 709.223 666.937 709.223 667.413C709.223 667.89 708.443 668.28 707.49 668.28C706.537 668.28 705.757 667.89 705.757 667.413Z" fill="white"/>
<path opacity="0.05" d="M866.932 424.785C866.932 424.314 867.693 423.918 868.646 423.918C869.598 423.918 870.398 424.295 870.398 424.785C870.398 425.274 869.636 425.651 868.646 425.651C867.655 425.651 866.932 425.274 866.932 424.785Z" fill="white"/>
<path opacity="0.4" d="M761.216 59.1167C761.216 58.6386 761.594 58.2402 762.072 58.2402C762.55 58.2402 762.949 58.6386 762.949 59.1167C762.949 59.5948 762.55 59.9733 762.072 59.9733C761.594 59.9733 761.216 59.5948 761.216 59.1167Z" fill="white"/>
<path opacity="0.55" d="M1433.64 156.159C1433.64 155.672 1434.04 155.293 1434.51 155.293C1434.98 155.293 1435.38 155.69 1435.38 156.159C1435.38 156.629 1434.98 157.026 1434.51 157.026C1434.04 157.026 1433.64 156.629 1433.64 156.159Z" fill="white"/>
<path opacity="0.53" d="M1355.66 379.725C1355.66 379.245 1356.04 378.858 1356.52 378.858C1357 378.858 1357.39 379.245 1357.39 379.725C1357.39 380.205 1357 380.591 1356.52 380.591C1356.04 380.591 1355.66 380.205 1355.66 379.725Z" fill="white"/>
<path opacity="0.5" d="M756.017 480.242C756.017 478.81 757.184 477.643 758.616 477.643C760.048 477.643 761.216 478.81 761.216 480.242C761.216 481.674 760.048 482.842 758.616 482.842C757.184 482.842 756.017 481.674 756.017 480.242Z" fill="white"/>
<path opacity="0.62" d="M284.622 113.699C284.622 112.763 285.003 111.966 285.489 111.966C285.974 111.966 286.355 112.728 286.355 113.699C286.355 114.669 285.974 115.432 285.489 115.432C285.003 115.432 284.622 114.669 284.622 113.699Z" fill="white"/>
<path opacity="0.27" d="M378.208 670.881C378.208 669.456 378.975 668.281 379.941 668.281C380.908 668.281 381.674 669.431 381.674 670.881C381.674 672.331 380.908 673.48 379.941 673.48C378.975 673.48 378.208 672.331 378.208 670.881Z" fill="white"/>
<path opacity="0.26" d="M717.888 391.856C717.888 391.382 718.28 390.989 718.754 390.989C719.228 390.989 719.621 391.382 719.621 391.856C719.621 392.33 719.228 392.722 718.754 392.722C718.28 392.722 717.888 392.33 717.888 391.856Z" fill="white"/>
<path opacity="0.62" d="M634.701 243.678C634.701 242.716 635.471 241.945 636.434 241.945C637.397 241.945 638.167 242.716 638.167 243.678C638.167 244.641 637.397 245.411 636.434 245.411C635.471 245.411 634.701 244.641 634.701 243.678Z" fill="white"/>
<path opacity="0.5" d="M1036.77 82.5036C1036.77 81.539 1037.93 80.7705 1039.37 80.7705C1040.82 80.7705 1041.97 81.5553 1041.97 82.5036C1041.97 83.4519 1040.79 84.2366 1039.37 84.2366C1037.95 84.2366 1036.77 83.4519 1036.77 82.5036Z" fill="white"/>
<path opacity="0.51" d="M1260.34 205.551C1260.34 204.583 1261.13 203.818 1262.07 203.818C1263.02 203.818 1263.81 204.608 1263.81 205.551C1263.81 206.494 1263.02 207.284 1262.07 207.284C1261.13 207.284 1260.34 206.494 1260.34 205.551Z" fill="white"/>
<path opacity="0.52" d="M1646.81 32.2448C1646.81 31.2995 1647.58 30.5117 1648.55 30.5117C1649.51 30.5117 1650.28 31.277 1650.28 32.2448C1650.28 33.2126 1649.51 33.9779 1648.55 33.9779C1647.58 33.9779 1646.81 33.2126 1646.81 32.2448Z" fill="white"/>
<path opacity="0.33" d="M1672.81 83.3632C1672.81 82.8894 1673.59 82.5029 1674.54 82.5029C1675.5 82.5029 1676.27 82.8894 1676.27 83.3632C1676.27 83.837 1675.5 84.236 1674.54 84.236C1673.59 84.236 1672.81 83.8495 1672.81 83.3632Z" fill="white"/>
<path opacity="0.22" d="M373.008 273.141C373.008 274.111 373.792 274.874 374.741 274.874C375.69 274.874 376.474 274.09 376.474 273.141C376.474 272.192 375.69 271.408 374.741 271.408C373.792 271.408 373.008 272.192 373.008 273.141Z" fill="white"/>
<path opacity="0.12" d="M471.794 235.88C471.794 236.359 472.569 236.747 473.527 236.747C474.485 236.747 475.26 236.359 475.26 235.88C475.26 235.401 474.485 235.014 473.527 235.014C472.569 235.014 471.794 235.401 471.794 235.88Z" fill="white"/>
<path opacity="0.42" d="M700.557 143.161C700.557 144.111 701.321 144.894 702.29 144.894C703.259 144.894 704.023 144.111 704.023 143.161C704.023 142.21 703.259 141.428 702.29 141.428C701.321 141.428 700.557 142.21 700.557 143.161Z" fill="white"/>
<path opacity="0.59" d="M291.554 4.51529C291.554 5.48686 291.948 6.24836 292.42 6.24836C292.893 6.24836 293.287 5.4606 293.287 4.51529C293.287 3.56998 292.893 2.78223 292.42 2.78223C291.948 2.78223 291.554 3.56998 291.554 4.51529Z" fill="white"/>
<path opacity="0.54" d="M752.551 318.201C752.551 319.158 753.327 319.934 754.284 319.934C755.241 319.934 756.017 319.158 756.017 318.201C756.017 317.244 755.241 316.468 754.284 316.468C753.327 316.468 752.551 317.244 752.551 318.201Z" fill="white"/>
<path opacity="0.33" d="M1104.36 503.639C1104.36 504.586 1105.13 505.372 1106.1 505.372C1107.06 505.372 1107.83 504.607 1107.83 503.639C1107.83 502.672 1107.06 501.906 1106.1 501.906C1105.13 501.906 1104.36 502.672 1104.36 503.639Z" fill="white"/>
<path opacity="0.03" d="M797.61 613.689C797.61 614.175 798.004 614.555 798.477 614.555C798.95 614.555 799.343 614.161 799.343 613.689C799.343 613.216 798.95 612.822 798.477 612.822C798.004 612.822 797.61 613.216 797.61 613.689Z" fill="white"/>
<path opacity="0.04" d="M1710.94 637.086C1710.94 640.927 1707.44 644.018 1703.14 644.018C1698.84 644.018 1695.34 640.908 1695.34 637.086C1695.34 633.263 1698.84 630.153 1703.14 630.153C1707.44 630.153 1710.94 633.263 1710.94 637.086Z" fill="#DCD1FF"/>
<path opacity="0.08" d="M1269 390.123C1269 391.561 1267.45 392.723 1265.54 392.723C1263.62 392.723 1262.07 391.561 1262.07 390.123C1262.07 388.685 1263.62 387.523 1265.54 387.523C1267.45 387.523 1269 388.685 1269 390.123Z" fill="#DCD1FF"/>
<path opacity="0.03" d="M1691.87 559.096C1691.87 558.141 1691.1 557.363 1690.14 557.363C1689.18 557.363 1688.41 558.141 1688.41 559.096C1688.41 560.052 1689.18 560.829 1690.14 560.829C1691.1 560.829 1691.87 560.052 1691.87 559.096Z" fill="#DCD1FF"/>
<path opacity="0.07" d="M1407.65 601.558C1407.65 600.128 1406.48 598.958 1405.05 598.958C1403.62 598.958 1402.45 600.109 1402.45 601.558C1402.45 603.006 1403.62 604.157 1405.05 604.157C1406.48 604.157 1407.65 602.987 1407.65 601.558Z" fill="#DCD1FF"/>
<path opacity="0.08" d="M1693.61 624.953C1693.61 623.036 1691.67 621.487 1689.27 621.487C1686.88 621.487 1684.94 623.036 1684.94 624.953C1684.94 626.871 1686.88 628.42 1689.27 628.42C1691.67 628.42 1693.61 626.871 1693.61 624.953Z" fill="#DCD1FF"/>
<path opacity="0.09" d="M1350.46 498.452C1350.46 496.535 1349.29 494.975 1347.85 494.975C1346.41 494.975 1345.26 496.535 1345.26 498.452C1345.26 500.369 1346.43 501.907 1347.85 501.907C1349.27 501.907 1350.46 500.347 1350.46 498.452Z" fill="#DCD1FF"/>
<path opacity="0.05" d="M215.299 582.495C215.299 584.892 217.234 586.827 219.631 586.827C222.029 586.827 223.964 584.892 223.964 582.495C223.964 580.098 222.029 578.162 219.631 578.162C217.234 578.162 215.299 580.098 215.299 582.495Z" fill="#DCD1FF"/>
<path opacity="0.07" d="M709.224 25.3128C709.224 27.2252 710.777 28.779 712.69 28.779C714.602 28.779 716.156 27.2252 716.156 25.3128C716.156 23.4005 714.602 21.8467 712.69 21.8467C710.777 21.8467 709.224 23.4005 709.224 25.3128Z" fill="#DCD1FF"/>
<path opacity="0.06" d="M743.885 368.46C745.799 368.46 747.351 367.296 747.351 365.86C747.351 364.425 745.799 363.261 743.885 363.261C741.971 363.261 740.419 364.425 740.419 365.86C740.419 367.296 741.971 368.46 743.885 368.46Z" fill="#DCD1FF"/>
<path opacity="0.08" d="M911.992 456.846C911.992 458.762 913.542 460.312 915.458 460.312C917.374 460.312 918.924 458.762 918.924 456.846C918.924 454.93 917.374 453.38 915.458 453.38C913.542 453.38 911.992 454.93 911.992 456.846Z" fill="#DCD1FF"/>
<path opacity="0.04" d="M1076.63 241.946C1076.63 245.787 1080.13 248.878 1084.43 248.878C1088.73 248.878 1092.23 245.769 1092.23 241.946C1092.23 238.123 1088.73 235.014 1084.43 235.014C1080.13 235.014 1076.63 238.123 1076.63 241.946Z" fill="#DCD1FF"/>
<path opacity="0.02" d="M1220.48 491.507C1220.48 493.415 1222.04 494.973 1223.94 494.973C1225.85 494.973 1227.41 493.415 1227.41 491.507C1227.41 489.6 1225.85 488.041 1223.94 488.041C1222.04 488.041 1220.48 489.6 1220.48 491.507Z" fill="#DCD1FF"/>
<path opacity="0.03" d="M1575.76 241.079C1575.76 243.481 1577.71 245.411 1580.09 245.411C1582.47 245.411 1584.42 243.481 1584.42 241.079C1584.42 238.676 1582.49 236.746 1580.09 236.746C1577.69 236.746 1575.76 238.676 1575.76 241.079Z" fill="#DCD1FF"/>
<path opacity="0.06" d="M54.123 655.282C54.123 653.852 55.6828 652.683 57.5892 652.683C59.4956 652.683 61.0553 653.852 61.0553 655.282C61.0553 656.712 59.4956 657.882 57.5892 657.882C55.6828 657.882 54.123 656.712 54.123 655.282Z" fill="#DCD1FF"/>
<path opacity="0.09" d="M334.88 387.524C334.88 386.559 335.665 385.791 336.613 385.791C337.561 385.791 338.346 386.576 338.346 387.524C338.346 388.472 337.561 389.257 336.613 389.257C335.665 389.257 334.88 388.472 334.88 387.524Z" fill="#DCD1FF"/>
<path opacity="0.08" d="M322.748 82.5036C322.748 81.5449 323.91 80.7705 325.348 80.7705C326.786 80.7705 327.947 81.5449 327.947 82.5036C327.947 83.4623 326.786 84.2366 325.348 84.2366C323.91 84.2366 322.748 83.4623 322.748 82.5036Z" fill="#DCD1FF"/>
<path opacity="0.09" d="M769.88 558.23C769.88 555.831 771.813 553.897 774.213 553.897C776.612 553.897 778.545 555.831 778.545 558.23C778.545 560.629 776.612 562.563 774.213 562.563C771.813 562.563 769.88 560.629 769.88 558.23Z" fill="#DCD1FF"/>
<path opacity="0.06" d="M834.004 82.5036C834.004 81.5545 834.788 80.7705 835.737 80.7705C836.686 80.7705 837.47 81.5545 837.47 82.5036C837.47 83.4526 836.686 84.2366 835.737 84.2366C834.788 84.2366 834.004 83.4526 834.004 82.5036Z" fill="#DCD1FF"/>
<path opacity="0.05" d="M1135.56 523.569C1135.56 522.139 1136.73 520.97 1138.16 520.97C1139.59 520.97 1140.76 522.139 1140.76 523.569C1140.76 525 1139.59 526.169 1138.16 526.169C1136.73 526.169 1135.56 525 1135.56 523.569Z" fill="#DCD1FF"/>
<path opacity="0.03" d="M1095.7 163.958C1095.7 163.002 1096.86 162.225 1098.3 162.225C1099.73 162.225 1100.9 163.002 1100.9 163.958C1100.9 164.913 1099.73 165.691 1098.3 165.691C1096.86 165.691 1095.7 164.913 1095.7 163.958Z" fill="#DCD1FF"/>
<path opacity="0.07" d="M1379.92 206.418C1379.92 204.988 1381.09 203.818 1382.52 203.818C1383.95 203.818 1385.12 204.97 1385.12 206.418C1385.12 207.866 1383.95 209.018 1382.52 209.018C1381.09 209.018 1379.92 207.848 1379.92 206.418Z" fill="#DCD1FF"/>
<path opacity="0.03" d="M1710.94 18.3805C1710.94 17.4177 1711.71 16.6475 1712.67 16.6475C1713.63 16.6475 1714.4 17.4177 1714.4 18.3805C1714.4 19.3433 1713.63 20.1136 1712.67 20.1136C1711.71 20.1136 1710.94 19.3433 1710.94 18.3805Z" fill="#DCD1FF"/>
<path opacity="0.02" d="M106.115 680.411C106.115 678.495 107.665 676.945 109.581 676.945C111.498 676.945 113.048 678.495 113.048 680.411C113.048 682.328 111.498 683.878 109.581 683.878C107.665 683.878 106.115 682.328 106.115 680.411Z" fill="#DCD1FF"/>
<path opacity="0.04" d="M102.649 175.223C102.649 173.778 103.821 172.623 105.249 172.623C106.677 172.623 107.849 173.794 107.849 175.223C107.849 176.651 106.693 177.822 105.249 177.822C103.805 177.822 102.649 176.651 102.649 175.223Z" fill="#DCD1FF"/>
<path opacity="0.1" d="M296.753 313.002C296.753 312.043 297.92 311.269 299.34 311.269C300.76 311.269 301.952 312.043 301.952 313.002C301.952 313.961 300.785 314.735 299.34 314.735C297.894 314.735 296.753 313.961 296.753 313.002Z" fill="#DCD1FF"/>
<path opacity="0.09" d="M558.446 641.418C558.446 639.028 560.778 637.085 563.645 637.085C566.513 637.085 568.845 639.028 568.845 641.418C568.845 643.807 566.513 645.75 563.645 645.75C560.778 645.75 558.446 643.807 558.446 641.418Z" fill="#DCD1FF"/>
<path opacity="0.03" d="M866.932 41.7754C866.932 40.3465 868.085 39.1758 869.531 39.1758C870.977 39.1758 872.131 40.3292 872.131 41.7754C872.131 43.2215 870.977 44.375 869.531 44.375C868.085 44.375 866.932 43.2215 866.932 41.7754Z" fill="#DCD1FF"/>
<path opacity="0.02" d="M1003.84 451.647C1003.84 449.744 1005.78 448.181 1008.18 448.181C1010.58 448.181 1012.51 449.727 1012.51 451.647C1012.51 453.567 1010.58 455.113 1008.18 455.113C1005.78 455.113 1003.84 453.567 1003.84 451.647Z" fill="#DCD1FF"/>
<path opacity="0.08" d="M1093.96 230.681C1093.96 228.285 1095.9 226.349 1098.3 226.349C1100.69 226.349 1102.63 228.285 1102.63 230.681C1102.63 233.078 1100.69 235.014 1098.3 235.014C1095.9 235.014 1093.96 233.078 1093.96 230.681Z" fill="#DCD1FF"/>
<path opacity="0.09" d="M1437.11 103.311C1437.11 101.394 1438.67 99.834 1440.59 99.834C1442.5 99.834 1444.04 101.394 1444.04 103.311C1444.04 105.228 1442.48 106.766 1440.59 106.766C1438.69 106.766 1437.11 105.206 1437.11 103.311Z" fill="#DCD1FF"/>
<path opacity="0.08" d="M189.304 283.539C189.304 285.46 190.463 287.006 191.903 287.006C193.344 287.006 194.503 285.46 194.503 283.539C194.503 281.619 193.344 280.073 191.903 280.073C190.463 280.073 189.304 281.619 189.304 283.539Z" fill="#DCD1FF"/>
<path opacity="0.07" d="M612.172 333.798C612.172 335.722 613.733 337.264 615.638 337.264C617.543 337.264 619.104 335.704 619.104 333.798C619.104 331.893 617.543 330.332 615.638 330.332C613.733 330.332 612.172 331.893 612.172 333.798Z" fill="#DCD1FF"/>
<path opacity="0.04" d="M752.551 94.6351C752.551 96.5459 754.106 98.1012 756.017 98.1012C757.928 98.1012 759.483 96.5459 759.483 94.6351C759.483 92.7243 757.928 91.1689 756.017 91.1689C754.106 91.1689 752.551 92.7243 752.551 94.6351Z" fill="#DCD1FF"/>
<path opacity="0.09" d="M743.885 165.691C743.885 166.647 744.662 167.424 745.618 167.424C746.574 167.424 747.351 166.647 747.351 165.691C747.351 164.735 746.574 163.958 745.618 163.958C744.662 163.958 743.885 164.735 743.885 165.691Z" fill="#DCD1FF"/>
<path opacity="0.04" d="M724.82 442.115C724.82 443.557 725.983 444.715 727.41 444.715C728.837 444.715 730.02 443.557 730.02 442.115C730.02 440.673 728.857 439.516 727.41 439.516C725.962 439.516 724.82 440.673 724.82 442.115Z" fill="#DCD1FF"/>
<path opacity="0.03" d="M1243.01 353.729C1243.01 356.13 1244.94 358.062 1247.34 358.062C1249.74 358.062 1251.67 356.13 1251.67 353.729C1251.67 351.329 1249.74 349.396 1247.34 349.396C1244.94 349.396 1243.01 351.329 1243.01 353.729Z" fill="#DCD1FF"/>
<path opacity="0.06" d="M1045.44 572.095C1045.44 573.53 1046.99 574.694 1048.9 574.694C1050.82 574.694 1052.37 573.53 1052.37 572.095C1052.37 570.659 1050.82 569.495 1048.9 569.495C1046.99 569.495 1045.44 570.659 1045.44 572.095Z" fill="#DCD1FF"/>
<path opacity="0.08" d="M1622.55 87.7028C1622.55 88.6656 1623.7 89.4359 1625.15 89.4359C1626.59 89.4359 1627.75 88.6656 1627.75 87.7028C1627.75 86.74 1626.59 85.9697 1625.15 85.9697C1623.7 85.9697 1622.55 86.74 1622.55 87.7028Z" fill="#DCD1FF"/>
<path opacity="0.09" d="M1579.22 266.209C1579.22 267.173 1580.4 267.942 1581.82 267.942C1583.25 267.942 1584.42 267.157 1584.42 266.209C1584.42 265.26 1583.25 264.476 1581.82 264.476C1580.4 264.476 1579.22 265.26 1579.22 266.209Z" fill="#DCD1FF"/>
</g>
<defs>
<radialGradient id="paint0_radial_1696_72199" cx="0" cy="0" r="1" gradientUnits="userSpaceOnUse" gradientTransform="translate(54.58 288.608) scale(7.08557 5.98896)">
<stop stop-color="#73C979"/>
<stop offset="0.13" stop-color="#70C476"/>
<stop offset="0.27" stop-color="#68B66E"/>
<stop offset="0.42" stop-color="#5BA060"/>
<stop offset="0.57" stop-color="#49814D"/>
<stop offset="0.73" stop-color="#325935"/>
<stop offset="0.88" stop-color="#172818"/>
<stop offset="1"/>
</radialGradient>
<radialGradient id="paint1_radial_1696_72199" cx="0" cy="0" r="1" gradientUnits="userSpaceOnUse" gradientTransform="translate(1719.02 46.6735) scale(4.42147 4.2784)">
<stop stop-color="#73C979"/>
<stop offset="0.13" stop-color="#70C476"/>
<stop offset="0.27" stop-color="#68B66E"/>
<stop offset="0.42" stop-color="#5BA060"/>
<stop offset="0.57" stop-color="#49814D"/>
<stop offset="0.73" stop-color="#325935"/>
<stop offset="0.88" stop-color="#172818"/>
<stop offset="1"/>
</radialGradient>
<radialGradient id="paint2_radial_1696_72199" cx="0" cy="0" r="1" gradientUnits="userSpaceOnUse" gradientTransform="translate(541.132 221.674) scale(10.3047 8.83878)">
<stop stop-color="#73C979"/>
<stop offset="0.13" stop-color="#70C476"/>
<stop offset="0.27" stop-color="#68B66E"/>
<stop offset="0.42" stop-color="#5BA060"/>
<stop offset="0.57" stop-color="#49814D"/>
<stop offset="0.73" stop-color="#325935"/>
<stop offset="0.88" stop-color="#172818"/>
<stop offset="1"/>
</radialGradient>
<radialGradient id="paint3_radial_1696_72199" cx="0" cy="0" r="1" gradientUnits="userSpaceOnUse" gradientTransform="translate(786.518 648.06) rotate(124.876) scale(6.27599 6.56801)">
<stop stop-color="#73C979"/>
<stop offset="0.13" stop-color="#70C476"/>
<stop offset="0.27" stop-color="#68B66E"/>
<stop offset="0.42" stop-color="#5BA060"/>
<stop offset="0.57" stop-color="#49814D"/>
<stop offset="0.73" stop-color="#325935"/>
<stop offset="0.88" stop-color="#172818"/>
<stop offset="1"/>
</radialGradient>
<radialGradient id="paint4_radial_1696_72199" cx="0" cy="0" r="1" gradientUnits="userSpaceOnUse" gradientTransform="translate(1031.86 540.529) rotate(121.395) scale(6.89454 6.83952)">
<stop stop-color="#73C979"/>
<stop offset="0.13" stop-color="#70C476"/>
<stop offset="0.27" stop-color="#68B66E"/>
<stop offset="0.42" stop-color="#5BA060"/>
<stop offset="0.57" stop-color="#49814D"/>
<stop offset="0.73" stop-color="#325935"/>
<stop offset="0.88" stop-color="#172818"/>
<stop offset="1"/>
</radialGradient>
<radialGradient id="paint5_radial_1696_72199" cx="0" cy="0" r="1" gradientUnits="userSpaceOnUse" gradientTransform="translate(1197.89 525.134) rotate(125.435) scale(5.41441 5.70606)">
<stop stop-color="#81E3C9"/>
<stop offset="0.12" stop-color="#7EDEC4"/>
<stop offset="0.25" stop-color="#76D0B9"/>
<stop offset="0.39" stop-color="#6ABAA5"/>
<stop offset="0.53" stop-color="#589B89"/>
<stop offset="0.68" stop-color="#417265"/>
<stop offset="0.83" stop-color="#25413A"/>
<stop offset="0.98" stop-color="#040807"/>
<stop offset="1"/>
</radialGradient>
<radialGradient id="paint6_radial_1696_72199" cx="0" cy="0" r="1" gradientUnits="userSpaceOnUse" gradientTransform="translate(996.577 611.314) rotate(121.407) scale(7.7519 7.6918)">
<stop stop-color="#81E3C9"/>
<stop offset="0.12" stop-color="#7EDEC4"/>
<stop offset="0.25" stop-color="#76D0B9"/>
<stop offset="0.39" stop-color="#6ABAA5"/>
<stop offset="0.53" stop-color="#589B89"/>
<stop offset="0.68" stop-color="#417265"/>
<stop offset="0.83" stop-color="#25413A"/>
<stop offset="0.98" stop-color="#040807"/>
<stop offset="1"/>
</radialGradient>
<radialGradient id="paint7_radial_1696_72199" cx="0" cy="0" r="1" gradientUnits="userSpaceOnUse" gradientTransform="translate(811.686 171.169) scale(6.20125 5.13635)">
<stop stop-color="#EDEDED"/>
<stop offset="0.13" stop-color="#E8E8E8"/>
<stop offset="0.26" stop-color="#DCDCDC"/>
<stop offset="0.39" stop-color="#C8C8C8"/>
<stop offset="0.52" stop-color="#ABABAB"/>
<stop offset="0.65" stop-color="#868686"/>
<stop offset="0.79" stop-color="#595959"/>
<stop offset="0.92" stop-color="#252525"/>
<stop offset="1"/>
</radialGradient>
<radialGradient id="paint8_radial_1696_72199" cx="0" cy="0" r="1" gradientUnits="userSpaceOnUse" gradientTransform="translate(496.442 167.784) scale(4.42462 3.42427)">
<stop stop-color="#EDEDED"/>
<stop offset="0.13" stop-color="#E8E8E8"/>
<stop offset="0.26" stop-color="#DCDCDC"/>
<stop offset="0.39" stop-color="#C8C8C8"/>
<stop offset="0.52" stop-color="#ABABAB"/>
<stop offset="0.65" stop-color="#868686"/>
<stop offset="0.79" stop-color="#595959"/>
<stop offset="0.92" stop-color="#252525"/>
<stop offset="1"/>
</radialGradient>
<radialGradient id="paint9_radial_1696_72199" cx="0" cy="0" r="1" gradientUnits="userSpaceOnUse" gradientTransform="translate(1497.8 339.308) rotate(-61.5376) scale(2.75001 3.24533)">
<stop stop-color="#EDEDED"/>
<stop offset="0.13" stop-color="#E8E8E8"/>
<stop offset="0.26" stop-color="#DCDCDC"/>
<stop offset="0.39" stop-color="#C8C8C8"/>
<stop offset="0.52" stop-color="#ABABAB"/>
<stop offset="0.65" stop-color="#868686"/>
<stop offset="0.79" stop-color="#595959"/>
<stop offset="0.92" stop-color="#252525"/>
<stop offset="1"/>
</radialGradient>
<radialGradient id="paint10_radial_1696_72199" cx="0" cy="0" r="1" gradientUnits="userSpaceOnUse" gradientTransform="translate(1129.02 292.76) rotate(-27.1437) scale(4.94453 4.46301)">
<stop stop-color="#EDEDED"/>
<stop offset="0.13" stop-color="#E8E8E8"/>
<stop offset="0.26" stop-color="#DCDCDC"/>
<stop offset="0.39" stop-color="#C8C8C8"/>
<stop offset="0.52" stop-color="#ABABAB"/>
<stop offset="0.65" stop-color="#868686"/>
<stop offset="0.79" stop-color="#595959"/>
<stop offset="0.92" stop-color="#252525"/>
<stop offset="1"/>
</radialGradient>
<radialGradient id="paint11_radial_1696_72199" cx="0" cy="0" r="1" gradientUnits="userSpaceOnUse" gradientTransform="translate(677.22 649.849) rotate(-31.5814) scale(4.3058 4.27103)">
<stop stop-color="#EDEDED"/>
<stop offset="0.13" stop-color="#E8E8E8"/>
<stop offset="0.26" stop-color="#DCDCDC"/>
<stop offset="0.39" stop-color="#C8C8C8"/>
<stop offset="0.52" stop-color="#ABABAB"/>
<stop offset="0.65" stop-color="#868686"/>
<stop offset="0.79" stop-color="#595959"/>
<stop offset="0.92" stop-color="#252525"/>
<stop offset="1"/>
</radialGradient>
<clipPath id="clip0_1696_72199">
<rect width="1730" height="680" fill="white" transform="translate(0 0.519531)"/>
</clipPath>
</defs>
</svg>
