<svg width="100" height="100" viewBox="0 0 100 100" fill="none" xmlns="http://www.w3.org/2000/svg">
<mask id="mask0_5468_37681" style="mask-type:luminance" maskUnits="userSpaceOnUse" x="4" y="0" width="96" height="100">
<path d="M99.7873 0.302246H4.88281V99.6653H99.7873V0.302246Z" fill="white"/>
</mask>
<g mask="url(#mask0_5468_37681)">
<mask id="mask1_5468_37681" style="mask-type:luminance" maskUnits="userSpaceOnUse" x="4" y="1" width="33" height="42">
<path d="M36.093 1.57617H4.88281V42.3405H36.093V1.57617Z" fill="white"/>
</mask>
<g mask="url(#mask1_5468_37681)">
<path d="M30.8635 13.3425C30.8495 13.2672 30.7977 13.1986 30.708 13.1513L9.49316 1.88281L14.1853 27.0255L35.4001 38.2939C35.4892 38.3413 35.5416 38.4099 35.5556 38.4851L30.8635 13.3425Z" fill="url(#paint0_linear_5468_37681)"/>
<path d="M31.0691 12.8446C31.4857 13.0662 31.515 13.5093 31.1344 13.8322L27.5425 16.8883C27.1625 17.2118 26.5142 17.295 26.0976 17.074L4.88281 5.80556L5.24267 5.49965L26.4575 16.7681C26.6569 16.8743 26.9668 16.8337 27.148 16.6789L30.7397 13.6228C30.9215 13.4686 30.9074 13.2574 30.708 13.1511L9.49318 1.88269L9.85369 1.57617L31.0691 12.8446Z" fill="#83BBFF"/>
<path d="M36.0851 38.3874L31.393 13.2447C31.429 13.4389 31.3442 13.6544 31.1344 13.8329L27.5425 16.889C27.1625 17.2125 26.5142 17.2957 26.0976 17.0747L4.88281 5.80566L9.5749 30.9483L30.7897 42.2168C31.2063 42.4383 31.8546 42.3545 32.2346 42.031L35.8265 38.9749C36.0363 38.7965 36.1216 38.5816 36.0851 38.3874Z" fill="url(#paint1_linear_5468_37681)"/>
<path d="M35.536 35.4458L35.1517 33.3882C35.1877 33.5824 35.1029 33.7979 34.8931 33.9763L31.3013 37.0324C30.9213 37.356 30.273 37.4391 29.8564 37.2182L8.6416 25.9497L9.02587 28.0073L30.2407 39.2758C30.6573 39.4974 31.3056 39.4136 31.6856 39.0901L35.2774 36.034C35.4872 35.8555 35.5726 35.64 35.536 35.4458Z" fill="url(#paint2_linear_5468_37681)"/>
<path d="M30.7171 26.3688L32.3041 25.0189L31.1196 18.6736L29.5332 20.0235L30.7171 26.3688Z" fill="#4A82F4"/>
<path d="M31.1036 28.0291L32.6899 26.6793L32.4405 25.7463L30.8535 27.0962L31.1036 28.0291Z" fill="#4A82F4"/>
<path style="mix-blend-mode:multiply" d="M36.0851 38.3874L31.393 13.2447C31.429 13.4389 31.3442 13.6544 31.1344 13.8329L27.5425 16.889C27.1625 17.2125 26.5142 17.2957 26.0976 17.0747L4.88281 5.80566L9.5749 30.9483L30.7897 42.2168C31.2063 42.4383 31.8546 42.3545 32.2346 42.031L35.8265 38.9749C36.0363 38.7965 36.1216 38.5816 36.0851 38.3874Z" fill="url(#paint3_linear_5468_37681)"/>
<path d="M26.4574 16.768C26.6569 16.8736 26.9667 16.8336 27.1479 16.6788L30.4933 13.8327L10.2751 3.09351L6.58203 6.21032L26.4574 16.768Z" fill="url(#paint4_linear_5468_37681)"/>
</g>
<mask id="mask2_5468_37681" style="mask-type:alpha" maskUnits="userSpaceOnUse" x="4" y="5" width="33" height="38">
<path style="mix-blend-mode:multiply" d="M36.0851 38.3874L31.393 13.2447C31.429 13.4389 31.3442 13.6544 31.1344 13.8329L27.5425 16.889C27.1625 17.2125 26.5142 17.2957 26.0976 17.0747L4.88281 5.80566L9.5749 30.9483L30.7897 42.2168C31.2063 42.4383 31.8546 42.3545 32.2346 42.031L35.8265 38.9749C36.0363 38.7965 36.1216 38.5816 36.0851 38.3874Z" fill="url(#paint5_linear_5468_37681)"/>
</mask>
<g mask="url(#mask2_5468_37681)">
<path d="M69.2313 96.7821L22.834 88.0548C16.3426 86.8357 12.483 80.5471 14.2132 74.014L26.5821 27.3258C28.3123 20.7922 34.9797 16.4867 41.4711 17.7064L87.8683 26.4337C94.36 27.6534 98.2198 33.9413 96.4893 40.475L84.1205 87.163C82.3905 93.6968 75.723 98.0019 69.2313 96.7821Z" fill="url(#paint6_linear_5468_37681)" fill-opacity="0.5"/>
</g>
<path d="M72.1166 99.4587L25.7188 90.7313C19.2274 89.5115 13.6634 82.5816 15.3936 76.0478L29.4669 30.0021C31.1971 23.4685 37.8645 19.1629 44.356 20.3826L90.7535 29.1099C97.2446 30.3296 101.104 36.6177 99.3745 43.1513L87.0051 89.8396C85.2752 96.3727 78.6076 100.678 72.1166 99.4587Z" fill="url(#paint7_linear_5468_37681)"/>
<path d="M70.8445 96.7821L24.4473 88.0548C17.9559 86.8357 14.0962 80.5471 15.8264 74.014L28.1954 27.3258C29.9255 20.7922 36.593 16.4867 43.0844 17.7064L89.482 26.4337C95.9731 27.6534 99.833 33.9413 98.1024 40.475L85.7336 87.163C84.0037 93.6968 77.3362 98.0019 70.8445 96.7821Z" fill="url(#paint8_linear_5468_37681)" stroke="url(#paint9_linear_5468_37681)" stroke-width="0.5" stroke-miterlimit="10"/>
<path d="M67.1263 66.614C60.0941 65.2904 55.8996 58.4596 57.7757 51.3829C59.6519 44.3062 66.8944 39.6258 73.9269 40.9489C76.7906 41.4876 79.2467 42.9271 81.0327 45.1165C81.9256 46.2112 81.6976 47.8877 80.5174 48.8574C79.3409 49.827 77.6581 49.7279 76.7651 48.6333C75.7046 47.336 74.2448 46.4826 72.5448 46.1595C68.367 45.3751 64.0651 48.1549 62.9534 52.3569C61.8414 56.5589 64.3314 60.6188 68.5091 61.4031C71.776 62.0195 75.1206 60.4507 76.9537 57.7269L71.6002 56.7184C70.1702 56.4512 69.3206 55.0678 69.7027 53.6283C70.0842 52.1888 71.553 51.2407 72.9823 51.5079L81.3804 53.0896C82.8097 53.3568 83.66 54.7446 83.2779 56.1797C81.4014 63.2564 74.1588 67.9369 67.1263 66.614Z" fill="#00B2EF"/>
<path d="M32.8576 61.1187C31.5051 60.8644 30.6465 59.593 30.9213 58.1966C31.1488 57.0589 33.1924 46.9438 35.5623 42.5392L35.5881 42.4917C38.0352 37.695 43.5092 34.9108 48.6225 35.8719C54.6974 37.014 58.3209 42.9141 56.7024 49.0254C55.8223 52.3482 53.5683 55.0634 50.7176 56.6624L54.1522 58.5975C55.3929 59.2956 55.7493 60.9075 54.9464 62.1918C54.1436 63.4761 52.4821 63.9503 51.2413 63.252L41.3453 57.6708C40.2592 57.0589 39.8298 55.7357 40.3278 54.5204C40.8216 53.305 42.0967 52.5465 43.3589 52.7189L44.0029 52.8051C44.0458 52.8094 44.093 52.818 44.136 52.8266C47.3559 53.43 50.6704 51.288 51.529 48.0514C52.3876 44.8147 50.4686 41.6858 47.2486 41.0824C44.5309 40.5696 41.6201 42.0564 40.3322 44.6122C40.315 44.6424 40.3021 44.6725 40.2849 44.7027L40.2506 44.7673C38.602 47.8402 36.7558 55.9599 36.1892 58.8302C35.9015 60.2825 34.489 61.3169 33.0422 61.1445C32.9821 61.1359 32.9262 61.1273 32.8704 61.1187H32.8576Z" fill="#034EA1"/>
<path d="M52.4477 74.4791C52.2073 74.4319 51.9798 74.3281 51.7951 74.1733C44.8486 68.3466 30.7324 69.5313 30.5907 69.5447C29.7621 69.6179 29.0666 69.0358 29.0408 68.2428C29.015 67.4498 29.6633 66.7517 30.4919 66.6784C31.1059 66.6224 45.3209 65.4332 53.2892 71.5096C56.1056 70.9708 66.1001 69.6434 76.1937 75.3886C76.8848 75.7848 77.0822 76.6644 76.6275 77.3536C76.1721 78.0434 75.2408 78.2848 74.5453 77.888C63.9109 71.837 53.2248 74.4319 53.1175 74.4574C52.89 74.5135 52.6624 74.5224 52.4435 74.4791H52.4477Z" fill="#6D6D64"/>
<mask id="mask3_5468_37681" style="mask-type:luminance" maskUnits="userSpaceOnUse" x="29" y="66" width="48" height="13">
<path d="M52.4477 74.4791C52.2073 74.4319 51.9798 74.3281 51.7951 74.1733C44.8486 68.3466 30.7324 69.5313 30.5907 69.5447C29.7621 69.6179 29.0666 69.0358 29.0408 68.2428C29.015 67.4498 29.6633 66.7517 30.4919 66.6784C31.1059 66.6224 45.3209 65.4332 53.2892 71.5096C56.1056 70.9708 66.1001 69.6434 76.1937 75.3886C76.8848 75.7848 77.0822 76.6644 76.6275 77.3536C76.1721 78.0434 75.2408 78.2848 74.5453 77.888C63.9109 71.837 53.2248 74.4319 53.1175 74.4574C52.89 74.5135 52.6624 74.5224 52.4435 74.4791H52.4477Z" fill="white"/>
</mask>
<g mask="url(#mask3_5468_37681)">
<path d="M31.3895 72.1173L33.4502 64.3428L30.0071 63.6963L27.9463 71.4664L31.3895 72.1173Z" fill="#00ADEE"/>
<path d="M34.7 72.7383L36.7608 64.9676L33.3176 64.3167L31.2568 72.0918L34.7 72.7383Z" fill="#8BC44E"/>
<path d="M38.0139 73.3631L40.0746 65.5879L36.6272 64.9414L34.5664 72.7121L38.0139 73.3631Z" fill="#F9A51A"/>
<path d="M41.324 73.9835L43.3805 66.2128L39.9416 65.5625L37.8809 73.337L41.324 73.9835Z" fill="#F18295"/>
<path d="M44.5314 74.5868L46.5879 66.8167L43.1447 66.1658L41.084 73.9403L44.5314 74.5868Z" fill="#93938A"/>
</g>
<path d="M53.7144 69.7988C53.65 69.7861 53.5856 69.76 53.5341 69.7167C45.4799 63.5754 30.9944 64.7778 30.3804 64.8294C30.1229 64.851 29.9125 64.6657 29.9082 64.4116C29.9082 64.1574 30.11 63.9332 30.3676 63.9116C30.784 63.8727 34.5922 63.5624 39.3448 64.0319C45.5829 64.6485 50.5073 66.2689 53.9806 68.8549C57.1748 68.2733 67.3843 67.0835 77.662 72.9319C77.8766 73.0568 77.9371 73.337 77.7995 73.5612C77.6581 73.7854 77.3702 73.867 77.1511 73.7421C66.9116 67.9154 56.7583 69.2517 53.8904 69.7988C53.8303 69.8116 53.7702 69.8116 53.7144 69.7988Z" fill="#939280"/>
<mask id="mask4_5468_37681" style="mask-type:luminance" maskUnits="userSpaceOnUse" x="42" y="2" width="12" height="12">
<path d="M53.9279 2.21313H42.4629V13.6781H53.9279V2.21313Z" fill="white"/>
</mask>
<g mask="url(#mask4_5468_37681)">
<path d="M53.7343 9.42055C54.5489 6.36118 52.7292 3.2207 49.6698 2.40609C46.6104 1.59148 43.47 3.41122 42.6554 6.47062C41.8408 9.52998 43.6605 12.6704 46.7199 13.4851C49.7792 14.2997 52.9197 12.4799 53.7343 9.42055Z" fill="url(#paint10_radial_5468_37681)"/>
</g>
</g>
<defs>
<linearGradient id="paint0_linear_5468_37681" x1="10.1207" y1="20.5959" x2="34.9304" y2="19.7646" gradientUnits="userSpaceOnUse">
<stop stop-color="#4A82F4"/>
<stop offset="1" stop-color="#4A82F4"/>
</linearGradient>
<linearGradient id="paint1_linear_5468_37681" x1="22.1587" y1="23.3805" x2="33.5927" y2="21.3734" gradientUnits="userSpaceOnUse">
<stop offset="0.42" stop-color="#4A82F4"/>
<stop offset="0.5" stop-color="#3E78E5"/>
<stop offset="0.58" stop-color="#3772DB"/>
</linearGradient>
<linearGradient id="paint2_linear_5468_37681" x1="23.7498" y1="31.9847" x2="35.0692" y2="29.9981" gradientUnits="userSpaceOnUse">
<stop offset="0.42" stop-color="#3772DB"/>
<stop offset="0.5" stop-color="#2A64CB"/>
<stop offset="0.58" stop-color="#235CC1"/>
</linearGradient>
<linearGradient id="paint3_linear_5468_37681" x1="36.4873" y1="39.1986" x2="7.75974" y2="8.19748" gradientUnits="userSpaceOnUse">
<stop stop-color="#BDC1E4"/>
<stop offset="0.46" stop-color="#DDDFF1"/>
<stop offset="1" stop-color="white"/>
</linearGradient>
<linearGradient id="paint4_linear_5468_37681" x1="6.72063" y1="10.3514" x2="30.3514" y2="9.5596" gradientUnits="userSpaceOnUse">
<stop stop-color="#F3FAFF"/>
<stop offset="0.11" stop-color="#EDF7FF"/>
<stop offset="0.64" stop-color="#D9EDFF"/>
<stop offset="1" stop-color="#D2EAFF"/>
</linearGradient>
<linearGradient id="paint5_linear_5468_37681" x1="36.4873" y1="39.1986" x2="7.75974" y2="8.19748" gradientUnits="userSpaceOnUse">
<stop stop-color="#BDC1E4"/>
<stop offset="0.46" stop-color="#DDDFF1"/>
<stop offset="1" stop-color="white"/>
</linearGradient>
<linearGradient id="paint6_linear_5468_37681" x1="35.5636" y1="22.8393" x2="80.8511" y2="100.976" gradientUnits="userSpaceOnUse">
<stop offset="0.04" stop-color="#4E4E4E"/>
<stop offset="1" stop-color="white" stop-opacity="0"/>
</linearGradient>
<linearGradient id="paint7_linear_5468_37681" x1="15.0801" y1="59.9207" x2="99.7904" y2="59.9207" gradientUnits="userSpaceOnUse">
<stop offset="0.54" stop-color="#98B9D9"/>
<stop offset="0.66" stop-color="#B3CDE5"/>
</linearGradient>
<linearGradient id="paint8_linear_5468_37681" x1="37.1769" y1="22.8393" x2="82.4648" y2="100.976" gradientUnits="userSpaceOnUse">
<stop offset="0.04" stop-color="white"/>
<stop offset="0.56" stop-color="#EEF6FF"/>
<stop offset="0.92" stop-color="#E0EFFF"/>
</linearGradient>
<linearGradient id="paint9_linear_5468_37681" x1="15.3069" y1="57.2444" x2="98.6266" y2="57.2444" gradientUnits="userSpaceOnUse">
<stop stop-color="#E8F3FF"/>
<stop offset="1" stop-color="#B3CDE5"/>
</linearGradient>
<radialGradient id="paint10_radial_5468_37681" cx="0" cy="0" r="1" gradientUnits="userSpaceOnUse" gradientTransform="translate(46.6048 5.52627) scale(8.55044)">
<stop stop-color="#F8FCFF"/>
<stop offset="0.28" stop-color="#F3FAFF"/>
<stop offset="0.89" stop-color="#BBDCFF"/>
<stop offset="0.92" stop-color="#BEDEFF"/>
<stop offset="0.95" stop-color="#CAE4FF"/>
<stop offset="0.98" stop-color="#DEEFFF"/>
<stop offset="1" stop-color="#F3FAFF"/>
</radialGradient>
</defs>
</svg>
