<svg width="62" height="63" viewBox="0 0 62 63" fill="none" xmlns="http://www.w3.org/2000/svg">
<g clip-path="url(#clip0_2233_47183)">
<path d="M30.999 6.45557L57.999 23.4556L3.99902 23.4556L30.999 6.45557Z" fill="#D2573F"/>
<rect x="3.99902" y="23.4556" width="54" height="32" fill="#D2573F"/>
<rect x="7.99902" y="4.45557" width="46" height="44" fill="white"/>
<line x1="14.999" y1="33.4556" x2="46.999" y2="33.4556" stroke="#F8F8F8" stroke-width="2"/>
<g filter="url(#filter0_d_2233_47183)">
<path fill-rule="evenodd" clip-rule="evenodd" d="M33.499 58.9556H28.499H3.99902V26.4556C10.241 29.1307 23.4006 36.5766 30.999 46.6663C38.5975 36.5766 51.7571 29.1307 57.999 26.4556V58.9556H33.499Z" fill="#F94558"/>
</g>
<rect x="3.99902" y="57.4556" width="54" height="2" fill="#D64054"/>
<mask id="mask0_2233_47183" style="mask-type:alpha" maskUnits="userSpaceOnUse" x="3" y="26" width="55" height="33">
<path fill-rule="evenodd" clip-rule="evenodd" d="M33.499 58.9556H28.499H3.99902V26.4556C10.241 29.1307 23.4006 36.5766 30.999 46.6663C38.5975 36.5766 51.7571 29.1307 57.999 26.4556V58.9556H33.499Z" fill="#F94558" fill-opacity="0.5"/>
</mask>
<g mask="url(#mask0_2233_47183)">
<rect x="5.99902" y="4.45557" width="54" height="2" transform="rotate(90 5.99902 4.45557)" fill="#D64054"/>
<rect x="57.999" y="4.45557" width="54" height="2" transform="rotate(90 57.999 4.45557)" fill="#D64054"/>
</g>
<line x1="14.999" y1="12.4556" x2="26.999" y2="12.4556" stroke="#F8F8F8" stroke-width="2"/>
<line x1="14.999" y1="19.4556" x2="46.999" y2="19.4556" stroke="#F8F8F8" stroke-width="2"/>
<line x1="14.999" y1="26.4556" x2="46.999" y2="26.4556" stroke="#F8F8F8" stroke-width="2"/>
</g>
<defs>
<filter id="filter0_d_2233_47183" x="2.99902" y="21.4556" width="56" height="37.5" filterUnits="userSpaceOnUse" color-interpolation-filters="sRGB">
<feFlood flood-opacity="0" result="BackgroundImageFix"/>
<feColorMatrix in="SourceAlpha" type="matrix" values="0 0 0 0 0 0 0 0 0 0 0 0 0 0 0 0 0 0 127 0" result="hardAlpha"/>
<feOffset dy="-4"/>
<feGaussianBlur stdDeviation="0.5"/>
<feComposite in2="hardAlpha" operator="out"/>
<feColorMatrix type="matrix" values="0 0 0 0 0 0 0 0 0 0 0 0 0 0 0 0 0 0 0.05 0"/>
<feBlend mode="normal" in2="BackgroundImageFix" result="effect1_dropShadow_2233_47183"/>
<feBlend mode="normal" in="SourceGraphic" in2="effect1_dropShadow_2233_47183" result="shape"/>
</filter>
<clipPath id="clip0_2233_47183">
<rect width="62" height="62" fill="white" transform="translate(-0.000976562 0.455566)"/>
</clipPath>
</defs>
</svg>
