<svg width="229" height="268" viewBox="0 0 229 268" fill="none" xmlns="http://www.w3.org/2000/svg">
<g clip-path="url(#clip0_4661_19587)">
<path d="M171.908 141.305C171.708 141.305 171.492 141.272 171.292 141.189C170.376 140.857 169.91 139.844 170.243 138.931L200.071 58.1922C200.404 57.279 201.42 56.8142 202.336 57.1462C203.252 57.4783 203.718 58.491 203.385 59.4042L173.557 140.143C173.291 140.857 172.624 141.288 171.908 141.288V141.305Z" fill="black"/>
<path d="M199.921 39.3151L210.763 30.2334L214.927 42.9842L227.818 47.3341L214.86 55.7019L212.079 69.3326L202.403 58.0096L186.797 62.1603L193.359 48.9778L186.148 37.0405L199.921 39.3151Z" fill="#FFF200"/>
<path d="M212.079 70.5116C211.746 70.5116 211.413 70.3622 211.18 70.0965L201.97 59.338L187.08 63.306C186.631 63.4223 186.164 63.2728 185.865 62.9076C185.565 62.5423 185.515 62.0608 185.715 61.6458L191.994 49.0278L185.099 37.6383C184.865 37.2399 184.882 36.7584 185.132 36.3765C185.382 35.9947 185.848 35.7954 186.298 35.8785L199.538 38.07L209.964 29.3204C210.264 29.0714 210.663 28.9884 211.046 29.088C211.429 29.1876 211.712 29.4864 211.846 29.8517L215.843 42.038L228.167 46.2053C228.6 46.3547 228.9 46.72 228.95 47.1683C229 47.6165 228.8 48.0482 228.417 48.2972L215.876 56.3993L213.195 69.5486C213.111 69.9803 212.778 70.3456 212.329 70.4452C212.229 70.4784 212.129 70.4784 212.029 70.4784L212.079 70.5116ZM202.386 56.831C202.719 56.831 203.052 56.9804 203.285 57.2461L211.413 66.7428L213.711 55.4696C213.778 55.1541 213.961 54.8885 214.227 54.7225L225.136 47.6663L214.56 44.0968C214.211 43.9805 213.928 43.6983 213.828 43.3497L210.197 32.2425L200.687 40.2117C200.421 40.4276 200.071 40.5272 199.738 40.4774L188.479 38.6179L194.375 48.3636C194.575 48.7123 194.608 49.1274 194.425 49.4926L189.012 60.3508L202.103 56.8642C202.203 56.831 202.303 56.831 202.403 56.831H202.386Z" fill="black"/>
<path d="M98.5614 173.182C116.507 173.182 131.054 158.583 131.054 140.574C131.054 122.566 116.507 107.967 98.5614 107.967C80.616 107.967 66.0684 122.566 66.0684 140.574C66.0684 158.583 80.616 173.182 98.5614 173.182Z" fill="black"/>
<path d="M44.1678 240.107C44.1678 240.107 39.9542 250.6 33.4589 247.977C26.9636 245.337 19.4691 239.394 19.4691 239.394C19.4691 239.394 9.75947 232.62 12.4575 227.904C15.1555 223.189 27.2634 225.281 27.2634 225.281L44.1678 240.107Z" fill="#47484A"/>
<path d="M35.5575 249.571C34.7248 249.571 33.8754 249.405 33.026 249.056C26.4641 246.383 19.0529 240.556 18.7531 240.307C17.7205 239.593 8.31069 232.803 11.4417 227.324C14.4562 222.044 26.1477 223.903 27.4634 224.119C27.6799 224.153 27.8798 224.252 28.0463 224.402L44.9507 239.228C45.3171 239.56 45.4503 240.091 45.2671 240.539C45.1672 240.805 42.5691 247.131 38.1223 249.023C37.2729 249.389 36.4236 249.571 35.5575 249.571ZM21.5677 225.995C18.2201 225.995 14.6061 226.527 13.4903 228.486C11.7249 231.574 17.8704 236.82 20.1521 238.431C20.2853 238.53 27.6633 244.341 33.9087 246.882C35.0246 247.33 36.1071 247.33 37.1897 246.882C39.9543 245.703 41.9695 242.017 42.7356 240.423L26.7306 226.394C25.5148 226.211 23.5829 226.012 21.5511 226.012L21.5677 225.995Z" fill="black"/>
<path d="M74.0628 213.626L42.8188 244.541C42.8188 244.541 30.711 241.569 26.2476 225.53L59.8731 192.309L74.0628 213.626Z" fill="#7E8083"/>
<path d="M42.8021 245.719C42.7022 245.719 42.6189 245.719 42.519 245.686C42.0027 245.553 29.695 242.349 25.0816 225.846C24.9651 225.431 25.0816 224.999 25.3814 224.7L59.007 191.478C59.2568 191.229 59.6065 191.113 59.9563 191.146C60.306 191.179 60.6224 191.379 60.8223 191.661L75.012 212.979C75.3284 213.444 75.2618 214.074 74.8621 214.456L43.6182 245.37C43.4016 245.586 43.1019 245.703 42.7854 245.703L42.8021 245.719ZM27.5465 225.879C31.3604 238.63 40.0541 242.399 42.469 243.229L72.5304 213.493L59.6565 194.168L27.5465 225.896V225.879Z" fill="black"/>
<path d="M99.1613 254.867C99.1613 254.867 100.161 266.14 93.1824 266.721C86.2041 267.302 76.8109 265.377 76.8109 265.377C76.8109 265.377 65.0861 263.716 65.3526 258.304C65.6191 252.891 77.3772 249.272 77.3772 249.272L99.1613 254.867Z" fill="#47484A"/>
<path d="M90.3176 268C83.8723 268 76.9273 266.589 76.5776 266.522C75.3451 266.356 63.8702 264.546 64.1866 258.237C64.4864 252.177 75.7449 248.542 77.0273 248.143C77.2271 248.077 77.4603 248.077 77.6601 248.143L99.4443 253.738C99.9272 253.854 100.277 254.269 100.327 254.768C100.36 255.05 100.91 261.873 97.7955 265.559C96.6297 266.954 95.0974 267.734 93.2654 267.884C92.3161 267.967 91.3169 268 90.3009 268H90.3176ZM77.4103 250.501C74.3292 251.513 66.7181 254.751 66.5349 258.37C66.3517 261.923 74.2126 263.833 76.9773 264.231C77.1438 264.264 86.3538 266.124 93.0822 265.559C94.2814 265.46 95.2473 264.978 96.0134 264.065C97.8121 261.94 98.0952 257.939 98.0453 255.813L77.4103 250.517V250.501Z" fill="black"/>
<path d="M113.851 217.761L99.9773 259.433C99.9773 259.433 87.8361 262.239 76.5776 249.953L91.5334 205.143L113.851 217.761Z" fill="#7E8083"/>
<path d="M96.6962 260.911C92.0996 260.911 83.689 259.5 75.6949 250.767C75.4117 250.451 75.3118 250.003 75.445 249.604L90.4008 204.794C90.5174 204.462 90.7672 204.196 91.1003 204.063C91.4334 203.931 91.7998 203.964 92.0996 204.13L114.417 216.748C114.9 217.03 115.133 217.611 114.95 218.142L101.076 259.815C100.943 260.197 100.627 260.496 100.227 260.595C100.06 260.629 98.7614 260.911 96.6962 260.911ZM77.8933 249.687C87.0699 259.334 96.5297 258.786 99.0612 258.42L112.418 218.325L92.1829 206.886L77.8933 249.687Z" fill="black"/>
<path d="M72.2476 116.152C72.2476 116.152 63.3707 120.668 58.4743 123.69C58.4743 123.69 43.9348 102.023 23.3665 114.641C2.79811 127.276 16.7546 178.91 46.5829 192.475C46.5829 192.475 53.761 194.932 46.966 214.34C40.1709 233.749 54.3273 236.389 54.3273 236.389C54.3273 236.389 67.5343 237.899 78.2932 212.829C89.052 187.759 91.8833 162.125 91.8833 162.125L68.8667 140.259C68.8667 140.259 66.2186 125.001 72.2642 116.136L72.2476 116.152Z" fill="#37519B"/>
<mask id="mask0_4661_19587" style="mask-type:luminance" maskUnits="userSpaceOnUse" x="13" y="111" width="79" height="126">
<path d="M72.2476 116.733C72.2476 116.733 63.3707 121.249 58.4743 124.271C58.4743 124.271 43.9348 102.604 23.3665 115.222C2.79811 127.857 16.7546 179.491 46.5829 193.056C46.5829 193.056 53.761 195.513 46.966 214.921C40.1709 234.33 54.3273 236.97 54.3273 236.97C54.3273 236.97 67.5343 238.481 78.2932 213.411C89.052 188.34 91.8833 162.706 91.8833 162.706L68.8667 140.84C68.8667 140.84 66.2186 125.582 72.2642 116.717L72.2476 116.733Z" fill="white"/>
</mask>
<g mask="url(#mask0_4661_19587)">
<path d="M21.0348 123.972L13.5403 117.347L10.3593 126.296L1.18262 129.135L10.1927 135.278L11.9081 144.957L18.953 137.121L29.9117 140.342L25.4983 130.895L30.8111 122.594L21.0348 123.972Z" fill="#FFF200"/>
<path d="M11.908 146.136C11.8081 146.136 11.6915 146.136 11.5916 146.087C11.1585 145.97 10.8421 145.605 10.7588 145.157L9.11003 135.959L0.499634 130.098C0.133234 129.849 -0.0666202 129.401 -2.03308e-06 128.953C0.0666161 128.504 0.383052 128.139 0.816071 128.006L9.44312 125.333L12.4243 116.949C12.5575 116.584 12.8573 116.301 13.2404 116.202C13.6234 116.102 14.0231 116.202 14.3063 116.451L21.4011 122.71L30.6444 121.415C31.1107 121.349 31.5437 121.564 31.7935 121.946C32.0433 122.328 32.0433 122.826 31.7935 123.208L26.8305 130.978L30.9608 139.827C31.1607 140.242 31.094 140.74 30.7943 141.089C30.4945 141.438 30.0115 141.587 29.5785 141.454L19.3359 138.449L12.7907 145.738C12.5575 145.987 12.2411 146.12 11.908 146.12V146.136ZM3.8472 129.534L10.8421 134.299C11.1086 134.481 11.2751 134.747 11.3417 135.062L12.6408 142.368L18.0702 136.324C18.37 135.992 18.8363 135.859 19.2693 135.976L27.7298 138.449L24.4156 131.377C24.249 131.011 24.2657 130.58 24.4822 130.248L28.4127 124.088L21.1679 125.101C20.8348 125.151 20.4851 125.051 20.2186 124.819L14.0231 119.356L11.425 126.661C11.3084 127.01 11.0253 127.276 10.6589 127.392L3.79723 129.517L3.8472 129.534Z" fill="black"/>
<path d="M57.7912 140.409L50.2966 133.801L47.1156 142.733L37.939 145.589L46.9491 151.732L48.6811 161.411L55.726 153.575L66.6681 156.779L62.2546 147.349L67.5674 139.047L57.7912 140.409Z" fill="#FFF200"/>
<path d="M48.6814 162.589C48.5815 162.589 48.4649 162.589 48.365 162.54C47.932 162.423 47.6155 162.058 47.5323 161.61L45.8835 152.412L37.2731 146.551C36.9067 146.302 36.7068 145.854 36.7734 145.406C36.8401 144.957 37.1565 144.592 37.5895 144.459L46.2166 141.786L49.1977 133.402C49.331 133.037 49.6307 132.754 50.0138 132.655C50.3969 132.555 50.7966 132.655 51.0797 132.904L58.1745 139.163L67.4178 137.868C67.8675 137.802 68.3171 138.018 68.567 138.399C68.8168 138.781 68.8168 139.279 68.567 139.661L63.6039 147.431L67.7342 156.28C67.9341 156.696 67.8675 157.194 67.5677 157.542C67.2679 157.891 66.7849 158.04 66.3519 157.908L56.1094 154.902L49.5641 162.191C49.331 162.44 49.0145 162.573 48.6814 162.573V162.589ZM40.6206 145.987L47.6155 150.752C47.882 150.934 48.0486 151.2 48.1152 151.515L49.4142 158.821L54.8436 152.777C55.1434 152.445 55.6097 152.312 56.0427 152.429L64.5033 154.902L61.189 147.83C61.0225 147.464 61.0391 147.033 61.2556 146.701L65.1861 140.541L57.9414 141.554C57.6083 141.604 57.2585 141.504 56.9921 141.272L50.7966 135.809L48.1985 143.115C48.0819 143.463 47.7987 143.729 47.4323 143.845L40.5707 145.97L40.6206 145.987Z" fill="black"/>
<path d="M42.2028 171.256L34.7083 164.632L31.5272 173.581L22.3506 176.42L31.3607 182.563L33.0928 192.242L40.1376 184.406L51.0797 187.627L46.6662 178.18L51.979 169.878L42.2028 171.256Z" fill="#FFF200"/>
<path d="M33.0926 193.421C32.9926 193.421 32.8761 193.421 32.7761 193.371C32.3431 193.254 32.0267 192.889 31.9434 192.441L30.2946 183.243L21.6842 177.382C21.3178 177.133 21.118 176.685 21.1846 176.237C21.2512 175.788 21.5676 175.423 22.0006 175.29L30.6277 172.617L33.6089 164.233C33.7421 163.868 34.0419 163.586 34.4249 163.486C34.808 163.386 35.2077 163.486 35.4908 163.735L42.5857 169.994L51.8289 168.699C52.2953 168.633 52.7283 168.849 52.9781 169.23C53.2279 169.612 53.2279 170.11 52.9781 170.492L48.015 178.262L52.1454 187.111C52.3452 187.527 52.2786 188.025 51.9788 188.373C51.679 188.722 51.1961 188.871 50.763 188.739L40.5205 185.733L33.9753 193.022C33.7421 193.271 33.4257 193.404 33.0926 193.404V193.421ZM25.0318 176.818L32.0267 181.583C32.2931 181.765 32.4597 182.031 32.5263 182.347L33.8254 189.652L39.2547 183.608C39.5545 183.276 40.0209 183.143 40.4539 183.26L48.9144 185.733L45.6001 178.661C45.4336 178.295 45.4502 177.864 45.6667 177.532L49.5972 171.372L42.3525 172.385C42.0194 172.435 41.6697 172.335 41.4032 172.103L35.2077 166.64L32.6096 173.946C32.493 174.294 32.2099 174.56 31.8435 174.676L24.9818 176.801L25.0318 176.818Z" fill="black"/>
</g>
<path d="M54.7935 238.165C54.4604 238.165 54.2439 238.148 54.1773 238.132C53.8775 238.082 48.7146 237.069 45.8167 232.055C43.2852 227.689 43.3019 221.795 45.85 214.523C52.0622 196.775 46.2331 194.168 46.1664 194.151C25.8812 184.92 13.7234 159.651 12.5243 140.541C11.7582 128.073 15.3722 118.726 22.7335 114.21C41.5032 102.687 55.5929 118.626 58.7573 122.694C63.7536 119.722 71.6146 115.704 71.6979 115.671L75.7949 113.579L73.2134 117.381C68.0172 125.001 69.5994 137.902 69.9491 140.259L93.099 162.241L93.0323 162.822C92.999 163.088 90.0512 188.922 79.359 213.859C69.5494 236.704 57.6248 238.148 54.7768 238.148L54.7935 238.165ZM54.527 235.807C54.527 235.807 57.6414 236.023 61.855 233.45C65.8854 230.993 71.8311 225.447 77.1939 212.946C86.8702 190.383 90.1345 167.072 90.6174 163.154L67.7341 141.438L67.6675 141.056C67.5675 140.492 65.5856 128.604 69.3995 119.522C66.3851 121.116 61.9883 123.474 59.0737 125.267L58.1078 125.865L57.4749 124.935C56.9086 124.088 43.3185 104.364 23.9659 116.235C17.3874 120.27 14.1564 128.87 14.8726 140.425C16.0217 158.854 27.6799 183.194 47.0491 192.01C47.1158 192.026 48.7312 192.641 49.8804 194.998C51.2794 197.887 52.1121 203.748 48.0484 215.336C45.7334 221.928 45.6668 227.174 47.8319 230.91C50.1968 234.977 54.4438 235.824 54.5104 235.841L54.527 235.807Z" fill="black"/>
<path d="M105.64 147.614C105.64 147.614 82.8065 148.179 78.0932 177.399C73.38 206.603 66.2019 231.673 92.0664 239.028C117.914 246.383 148.492 245.055 143.213 203.598C143.213 203.598 156.986 187.394 176.622 174.959C196.241 162.523 196.807 129.351 178.32 121.631C159.834 113.911 132.454 130.115 132.454 130.115L105.657 147.647L105.64 147.614Z" fill="#37519B"/>
<mask id="mask1_4661_19587" style="mask-type:luminance" maskUnits="userSpaceOnUse" x="73" y="120" width="119" height="124">
<path d="M105.357 148.212C105.357 148.212 82.5233 148.776 77.81 177.997C73.0968 207.201 65.9187 232.271 91.7832 239.626C117.631 246.981 148.209 245.653 142.929 204.196C142.929 204.196 156.703 187.992 176.338 175.556C195.957 163.121 196.524 129.949 178.037 122.229C159.534 114.508 132.17 130.713 132.17 130.713L105.373 148.245L105.357 148.212Z" fill="white"/>
</mask>
<g mask="url(#mask1_4661_19587)">
<path d="M164.547 133.369L157.053 126.744L153.871 135.693L144.695 138.532L153.705 144.675L155.437 154.354L162.482 146.518L173.424 149.739L169.01 140.292L174.323 131.991L164.547 133.369Z" fill="#FFF200"/>
<path d="M155.437 155.533C155.337 155.533 155.22 155.533 155.12 155.483C154.687 155.367 154.371 155.002 154.288 154.554L152.639 145.356L144.028 139.495C143.662 139.246 143.462 138.798 143.529 138.35C143.595 137.901 143.912 137.536 144.345 137.403L152.972 134.73L155.953 126.346C156.086 125.981 156.386 125.698 156.769 125.599C157.152 125.499 157.552 125.599 157.835 125.848L164.93 132.107L174.173 130.812C174.639 130.746 175.073 130.961 175.322 131.343C175.572 131.725 175.572 132.223 175.322 132.605L170.359 140.375L174.49 149.224C174.689 149.639 174.623 150.137 174.323 150.486C174.023 150.835 173.54 150.984 173.107 150.851L162.865 147.846L156.319 155.135C156.086 155.384 155.77 155.517 155.437 155.517V155.533ZM147.376 138.931L154.371 143.696C154.637 143.878 154.804 144.144 154.871 144.459L156.17 151.765L161.599 145.721C161.899 145.389 162.365 145.256 162.798 145.372L171.259 147.846L167.944 140.774C167.778 140.408 167.794 139.977 168.011 139.645L171.941 133.485L164.697 134.498C164.364 134.548 164.014 134.448 163.747 134.215L157.552 128.753L154.954 136.058C154.837 136.407 154.554 136.673 154.188 136.789L147.326 138.914L147.376 138.931Z" fill="black"/>
<path d="M166.312 172.418L158.818 165.811L155.637 174.743L146.46 177.598L155.47 183.741L157.202 193.421L164.23 185.584L175.189 188.805L170.776 179.358L176.088 171.057L166.312 172.418Z" fill="#FFF200"/>
<path d="M157.202 194.599C157.103 194.599 156.986 194.599 156.886 194.549C156.453 194.433 156.137 194.068 156.053 193.62L154.404 184.422L145.794 178.561C145.428 178.312 145.228 177.864 145.294 177.415C145.361 176.967 145.677 176.602 146.111 176.469L154.738 173.796L157.719 165.412C157.852 165.046 158.152 164.764 158.535 164.665C158.918 164.565 159.318 164.665 159.601 164.914L166.696 171.173L175.939 169.878C176.405 169.811 176.838 170.027 177.088 170.409C177.338 170.791 177.338 171.289 177.088 171.671L172.125 179.441L176.255 188.29C176.455 188.705 176.388 189.203 176.089 189.552C175.789 189.901 175.306 190.05 174.873 189.917L164.63 186.912L158.085 194.201C157.852 194.45 157.536 194.583 157.202 194.583V194.599ZM149.142 177.997L156.137 182.762C156.403 182.944 156.57 183.21 156.636 183.525L157.935 190.83L163.365 184.787C163.664 184.455 164.131 184.322 164.564 184.438L173.024 186.912L169.71 179.839C169.543 179.474 169.56 179.043 169.777 178.71L173.707 172.551L166.462 173.564C166.129 173.613 165.78 173.514 165.513 173.281L159.318 167.819L156.719 175.124C156.603 175.473 156.32 175.739 155.953 175.855L149.092 177.98L149.142 177.997Z" fill="black"/>
<path d="M125.442 168.018L117.931 161.411L114.767 170.343L105.573 173.199L114.583 179.342L116.315 189.021L123.36 181.184L134.319 184.389L129.906 174.958L135.218 166.64L125.442 168.018Z" fill="#FFF200"/>
<path d="M116.315 190.183C116.215 190.183 116.099 190.183 115.999 190.133C115.566 190.017 115.249 189.652 115.166 189.204L113.517 180.006L104.907 174.145C104.54 173.896 104.341 173.448 104.407 172.999C104.474 172.551 104.79 172.186 105.223 172.053L113.85 169.38L116.832 160.996C116.965 160.63 117.265 160.348 117.648 160.249C118.031 160.149 118.43 160.249 118.713 160.498L125.808 166.757L135.052 165.462C135.501 165.395 135.951 165.611 136.201 165.993C136.451 166.375 136.451 166.873 136.201 167.255L131.238 175.025L135.368 183.874C135.568 184.289 135.501 184.787 135.201 185.136C134.902 185.485 134.419 185.634 133.986 185.501L123.743 182.496L117.198 189.785C116.965 190.034 116.648 190.167 116.315 190.167V190.183ZM108.254 173.581L115.249 178.346C115.516 178.528 115.682 178.794 115.749 179.109L117.048 186.414L122.477 180.371C122.777 180.039 123.244 179.906 123.677 180.022L132.137 182.496L128.823 175.423C128.656 175.058 128.673 174.627 128.889 174.294L132.82 168.135L125.575 169.148C125.242 169.197 124.892 169.098 124.626 168.865L118.43 163.403L115.832 170.708C115.716 171.057 115.433 171.323 115.066 171.439L108.204 173.564L108.254 173.581Z" fill="black"/>
<path d="M85.155 179.175L77.6438 172.567L74.4794 181.5L65.2861 184.355L74.2962 190.498L76.0283 200.178L83.0732 192.341L94.0152 195.545L89.6018 186.115L94.9146 177.814L85.155 179.175Z" fill="#FFF200"/>
<path d="M76.0281 201.357C75.9282 201.357 75.8116 201.357 75.7117 201.307C75.2787 201.191 74.9622 200.825 74.879 200.377L73.2302 191.179L64.6198 185.318C64.2534 185.069 64.0535 184.621 64.1201 184.173C64.1867 183.725 64.5032 183.359 64.9362 183.226L73.5632 180.553L76.5444 172.169C76.6776 171.804 76.9774 171.522 77.3605 171.422C77.7435 171.322 78.1432 171.422 78.4264 171.671L85.5212 177.93L94.7645 176.635C95.2142 176.569 95.6638 176.785 95.9136 177.166C96.1635 177.548 96.1635 178.046 95.9136 178.428L90.9506 186.198L95.0809 195.048C95.2808 195.463 95.2142 195.961 94.9144 196.309C94.6146 196.658 94.1316 196.807 93.6986 196.675L83.456 193.67L76.9108 200.958C76.6776 201.207 76.3612 201.34 76.0281 201.34V201.357ZM67.9673 184.754L74.9622 189.519C75.2287 189.701 75.3952 189.967 75.4619 190.283L76.7609 197.588L82.1903 191.544C82.4901 191.212 82.9564 191.08 83.3894 191.196L91.8499 193.67L88.5357 186.597C88.3691 186.232 88.3858 185.8 88.6023 185.468L92.5328 179.308L85.288 180.321C84.955 180.371 84.6052 180.271 84.3387 180.039L78.1432 174.576L75.5451 181.882C75.4286 182.23 75.1454 182.496 74.779 182.612L67.9173 184.737L67.9673 184.754Z" fill="black"/>
<path d="M112.785 210.306L105.29 203.698L102.109 212.63L92.9326 215.486L101.943 221.629L103.675 231.308L110.72 223.472L121.662 226.676L117.248 217.246L122.561 208.944L112.785 210.306Z" fill="#FFF200"/>
<path d="M103.675 232.486C103.575 232.486 103.458 232.486 103.358 232.437C102.925 232.32 102.609 231.955 102.525 231.507L100.877 222.309L92.2662 216.448C91.8998 216.199 91.7 215.751 91.7666 215.303C91.8332 214.854 92.1497 214.489 92.5827 214.356L101.21 211.683L104.191 203.299C104.324 202.934 104.624 202.651 105.007 202.552C105.39 202.452 105.79 202.552 106.073 202.801L113.168 209.06L122.411 207.765C122.861 207.699 123.31 207.914 123.56 208.296C123.81 208.678 123.81 209.176 123.56 209.558L118.597 217.328L122.727 226.177C122.927 226.592 122.861 227.091 122.561 227.439C122.261 227.788 121.778 227.937 121.345 227.804L111.103 224.799L104.557 232.088C104.324 232.337 104.008 232.47 103.675 232.47V232.486ZM95.6138 215.884L102.609 220.649C102.875 220.831 103.042 221.097 103.108 221.412L104.407 228.718L109.837 222.674C110.137 222.342 110.603 222.209 111.036 222.326L119.496 224.799L116.182 217.727C116.016 217.361 116.032 216.93 116.249 216.598L120.179 210.438L112.935 211.451C112.601 211.501 112.252 211.401 111.985 211.169L105.79 205.706L103.192 213.012C103.075 213.36 102.792 213.626 102.426 213.742L95.5638 215.867L95.6138 215.884Z" fill="black"/>
</g>
<path d="M114.034 244.192C105.756 244.192 97.5124 242.382 91.7333 240.739C67.3344 233.799 71.1316 211.667 75.5451 186.033C76.0114 183.327 76.4777 180.587 76.9274 177.798C79.4422 162.258 87.07 154.72 93.0323 151.134C98.7115 147.714 103.891 147.149 105.273 147.05L131.804 129.7C132.137 129.501 138.899 125.516 148.059 122.428C160.483 118.244 170.809 117.796 178.753 121.116C186.664 124.42 191.927 132.606 192.81 143.015C193.759 154.189 189.312 168.882 177.238 176.52C159.651 187.66 146.66 202.021 144.428 204.545C146.294 219.886 143.379 230.96 135.768 237.501C129.905 242.532 121.961 244.192 114.034 244.192ZM166.929 121.282C150.824 121.282 133.253 131.56 133.037 131.676L106.006 149.358H105.673C104.774 149.391 83.7558 150.304 79.2424 178.163C78.7927 180.952 78.3097 183.708 77.86 186.415C73.4799 211.95 69.9991 232.105 92.3828 238.464C103.225 241.552 123.077 245.288 134.236 235.708C141.297 229.648 143.912 219.089 142.03 204.312L141.963 203.798L142.296 203.399C142.43 203.233 156.42 186.913 175.972 174.527C187.214 167.405 191.344 153.658 190.461 143.198C189.645 133.685 184.932 126.23 177.854 123.258C174.456 121.847 170.742 121.266 166.929 121.266V121.282Z" fill="black"/>
<path d="M114 120.303C114 120.303 126.058 125.002 125.625 132.639C125.192 140.276 97.2457 142.484 99.161 152.462C101.076 162.44 119.596 155.102 119.596 155.102C119.596 155.102 157.685 140.425 127.823 118.975C127.823 118.975 115.766 116.916 114 120.303Z" fill="#D5D7D8"/>
<path d="M107.322 158.871C105.19 158.871 103.158 158.539 101.509 157.642C99.5942 156.596 98.4117 154.919 97.9787 152.678C96.7463 146.286 104.974 142.999 112.918 139.828C118.247 137.702 124.276 135.295 124.443 132.572C124.826 125.865 113.684 121.448 113.567 121.399C113.251 121.282 113.018 121.033 112.901 120.718C112.785 120.402 112.801 120.054 112.968 119.755C115.033 115.82 125.875 117.447 128.024 117.812C128.207 117.846 128.373 117.912 128.507 118.012C137.15 124.221 141.131 130.58 140.315 136.889C138.782 148.81 120.779 155.882 120.013 156.181C119.646 156.331 113.184 158.854 107.322 158.854V158.871ZM116.282 120.037C119.829 121.78 127.174 126.197 126.791 132.705C126.541 136.922 120.346 139.396 113.801 142.019C106.739 144.842 99.4443 147.747 100.31 152.246C100.61 153.79 101.376 154.886 102.659 155.583C106.972 157.958 116.032 155.251 119.163 154.006C119.347 153.94 136.651 147.133 138 136.607C138.682 131.261 135.102 125.699 127.374 120.087C123.194 119.406 118.53 119.307 116.299 120.037H116.282Z" fill="black"/>
<path d="M78.8594 119.273C78.8594 119.273 64.1534 134.847 78.2765 143.646C92.3995 152.462 87.8362 156.862 87.3865 157.31C86.9368 157.758 79.892 165.678 66.6516 152.313C53.4112 138.947 63.4206 119.705 71.648 114.276C71.648 114.276 79.7421 112.948 78.8594 119.273Z" fill="#D5D7D8"/>
<path d="M80.7744 161.212C76.1611 161.212 71.1314 158.489 65.8353 153.143C60.739 148.013 58.4573 141.471 59.2068 134.266C60.1727 124.985 65.8852 116.7 71.0315 113.297C71.1647 113.214 71.3313 113.147 71.4978 113.114C71.9808 113.031 76.3443 112.4 78.7259 114.724C79.8917 115.87 80.3414 117.447 80.0583 119.44C80.025 119.689 79.9084 119.904 79.7418 120.087C79.6752 120.17 72.4971 127.857 73.4298 135.029C73.8295 138.068 75.6781 140.641 78.9258 142.667C85.6209 146.851 89.2183 150.702 89.6013 154.156C89.7679 155.683 89.3015 157.111 88.2523 158.157C86.3537 160.116 83.6723 161.228 80.8577 161.245C80.841 161.245 80.8077 161.245 80.7911 161.245L80.7744 161.212ZM72.0974 115.405C67.584 118.51 62.4044 126.18 61.5384 134.498C60.8556 140.99 62.9207 146.851 67.5007 151.483C72.3472 156.38 76.8106 158.854 80.7744 158.854C80.7911 158.854 80.8077 158.854 80.8244 158.854C83.9388 158.838 85.8374 157.211 86.5036 156.513C87.1031 155.916 87.3363 155.202 87.2364 154.388C87.0698 152.877 85.5876 149.59 77.6434 144.642C73.7628 142.218 71.5478 139.08 71.0648 135.312C70.0988 127.824 76.311 120.353 77.7266 118.775C77.8099 117.729 77.5934 116.966 77.0438 116.418C75.8447 115.239 73.2632 115.272 72.0807 115.422L72.0974 115.405Z" fill="black"/>
<path d="M63.2871 60.6328L70.5818 4.49924L82.2233 20.8196L100.244 1.17871L106.706 23.6753L125.342 4.81469L125.991 5.01392L131.604 30.8975L149.125 15.3574L153.788 41.5896L172.391 34.052L148.408 85.3376L63.2871 60.6328Z" fill="#FFF200"/>
<path d="M148.409 86.5162C148.292 86.5162 148.192 86.5162 148.076 86.4664L62.9544 61.7617C62.4048 61.5956 62.0384 61.0644 62.1216 60.4833L69.4163 4.3497C69.483 3.86823 69.8327 3.46976 70.299 3.35355C70.7654 3.23733 71.265 3.41996 71.5481 3.81842L82.3569 18.96L99.3779 0.381671C99.661 0.0662208 100.094 -0.0666004 100.51 0.0330155C100.927 0.132631 101.26 0.448082 101.376 0.846545L107.272 21.4172L124.493 3.98445C124.793 3.6856 125.242 3.56938 125.659 3.6856L126.308 3.86823C126.725 3.98445 127.041 4.3331 127.124 4.74817L132.304 28.6892L148.326 14.4773C148.642 14.1951 149.092 14.1121 149.491 14.2449C149.891 14.3777 150.191 14.7264 150.258 15.1414L154.671 39.9458L171.925 32.9395C172.375 32.7568 172.891 32.8731 173.224 33.2217C173.557 33.5704 173.64 34.0851 173.441 34.5333L149.458 85.8189C149.258 86.234 148.842 86.4996 148.392 86.4996L148.409 86.5162ZM64.5865 59.786L147.776 83.9262L170.06 36.26L154.238 42.6852C153.905 42.818 153.538 42.8014 153.222 42.6188C152.906 42.4528 152.689 42.1373 152.639 41.7887L148.342 17.6318L132.387 31.7773C132.071 32.0595 131.638 32.1425 131.238 32.0097C130.838 31.8769 130.539 31.5448 130.455 31.1464L125.159 6.67408L107.555 24.4887C107.255 24.7876 106.822 24.9038 106.423 24.8042C106.023 24.7046 105.69 24.3891 105.59 23.9906L99.711 3.50297L83.1064 21.5999C82.8732 21.8655 82.5235 21.9983 82.1737 21.9817C81.824 21.9651 81.4909 21.7825 81.291 21.4836L71.3816 7.60382L64.6032 59.7694L64.5865 59.786Z" fill="black"/>
<path d="M140.614 111.42C140.614 111.42 129.739 134.017 93.1821 130.53C56.642 127.06 53.5942 93.1575 53.5942 93.1575C53.5942 93.1575 46.8491 53.6266 89.7013 48.845C132.553 44.0634 149.308 85.3376 149.308 85.3376C149.308 85.3376 163.664 84.4743 163.231 96.8599C162.798 109.245 150.39 116.202 140.614 111.42Z" fill="#FAC3C1"/>
<path d="M100.543 132.074C98.1785 132.074 95.6969 131.958 93.0822 131.709C55.9925 128.189 52.4617 93.6223 52.4284 93.2737C52.3285 92.6594 49.6138 75.9737 59.6232 62.7082C66.0019 54.2409 76.0945 49.1936 89.5847 47.6828C129.589 43.2167 147.493 78.5305 150.074 84.1588C152.156 84.1588 157.635 84.5573 161.216 88.0439C163.464 90.2354 164.53 93.2073 164.414 96.8931C164.197 103.169 161.083 108.548 155.886 111.669C151.323 114.409 145.86 114.857 141.097 112.915C138.616 116.982 127.54 132.057 100.527 132.057L100.543 132.074ZM96.4131 49.6585C94.298 49.6585 92.0996 49.7747 89.8345 50.0238C77.0105 51.4516 67.4675 56.2 61.4885 64.136C52.0953 76.6046 54.7268 92.8254 54.7601 92.9914C54.8933 94.4193 58.1909 126.047 93.2987 129.384C128.523 132.738 139.448 111.138 139.548 110.922C139.682 110.64 139.931 110.424 140.231 110.325C140.531 110.225 140.847 110.242 141.131 110.374C145.394 112.466 150.457 112.201 154.687 109.677C159.184 106.987 161.882 102.306 162.065 96.8433C162.165 93.8548 161.332 91.464 159.584 89.7705C155.936 86.2176 149.458 86.5496 149.375 86.5496C148.875 86.5828 148.409 86.284 148.209 85.8191C148.059 85.4372 133.053 49.6751 96.3964 49.6751L96.4131 49.6585Z" fill="black"/>
<path d="M148.525 101.309C148.126 101.309 147.743 101.11 147.526 100.762C147.176 100.214 147.343 99.4831 147.892 99.1511C149.308 98.2711 154.138 97.9391 155.587 97.8727C156.236 97.8395 156.786 98.3375 156.819 98.985C156.853 99.6325 156.353 100.18 155.703 100.214C153.005 100.363 149.724 100.762 149.125 101.143C148.925 101.26 148.708 101.326 148.509 101.326L148.525 101.309Z" fill="black"/>
<path d="M96.0801 106.506C97.7818 106.506 99.1612 105.324 99.1612 103.866C99.1612 102.408 97.7818 101.227 96.0801 101.227C94.3785 101.227 92.999 102.408 92.999 103.866C92.999 105.324 94.3785 106.506 96.0801 106.506Z" fill="#231F20"/>
<path d="M97.0295 114.758C94.0483 114.758 90.6341 114.16 87.0534 112.35C86.4705 112.051 86.2373 111.354 86.5371 110.773C86.8369 110.192 87.5364 109.96 88.1193 110.258C97.5458 115.007 105.94 110.341 106.023 110.292C106.589 109.976 107.305 110.159 107.622 110.723C107.938 111.288 107.755 112.002 107.189 112.334C106.939 112.483 102.825 114.774 97.0295 114.774V114.758Z" fill="black"/>
<path d="M89.0353 70.1626C88.7688 70.1626 88.5024 70.063 88.2692 69.8804C77.0607 60.3837 86.1041 48.4132 86.1874 48.2969C86.5871 47.7823 87.3199 47.6826 87.8362 48.0811C88.3525 48.4796 88.4524 49.2101 88.0527 49.7248C87.7363 50.1398 80.3083 60.0516 89.7848 68.0873C90.2844 68.5024 90.3344 69.2495 89.918 69.7476C89.6849 70.0132 89.3518 70.1626 89.0187 70.1626H89.0353Z" fill="black"/>
<path d="M76.1445 66.9917C75.6615 66.9917 75.1951 66.6763 75.0286 66.1948C72.4805 58.7236 77.9765 51.2026 78.2096 50.8872C78.5927 50.3725 79.3255 50.2563 79.8584 50.6381C80.3747 51.02 80.4913 51.7671 80.1082 52.2818C80.0583 52.3482 75.1119 59.1553 77.2603 65.4477C77.4768 66.062 77.1437 66.7261 76.5275 66.9419C76.3943 66.9917 76.2777 67.0083 76.1445 67.0083V66.9917Z" fill="black"/>
<path d="M66.4683 69.6815C65.9854 69.6815 65.519 69.3661 65.3525 68.8846C62.771 61.3304 68.4502 55.2206 68.6834 54.955C69.1331 54.4901 69.8825 54.4569 70.3489 54.9051C70.8152 55.3534 70.8485 56.1005 70.3988 56.5654C70.2989 56.665 65.4691 61.9613 67.5842 68.1209C67.8007 68.7352 67.4676 69.3993 66.8514 69.6151C66.7182 69.6649 66.6016 69.6815 66.4683 69.6815Z" fill="black"/>
<path d="M112.218 68.4027C112.068 68.4027 111.935 68.3695 111.785 68.3197C98.5447 63.1895 97.5954 49.7413 97.5788 49.6085C97.5455 48.961 98.0284 48.4131 98.678 48.3633C99.3108 48.3135 99.8771 48.8116 99.9271 49.4591C99.9604 49.9572 100.81 61.5624 112.634 66.1281C113.234 66.3606 113.534 67.0413 113.301 67.6556C113.117 68.1205 112.668 68.4027 112.201 68.4027H112.218Z" fill="black"/>
<path d="M121.895 68.0544C121.728 68.0544 121.545 68.0212 121.378 67.9382C112.335 63.6049 108.421 51.5514 108.255 51.0367C108.055 50.4224 108.404 49.7583 109.021 49.5591C109.637 49.3599 110.303 49.7085 110.503 50.3228C110.536 50.439 114.3 61.9281 122.411 65.8131C122.994 66.0953 123.244 66.7926 122.961 67.3737C122.761 67.7888 122.344 68.0378 121.895 68.0378V68.0544Z" fill="black"/>
<path d="M97.7288 68.3862C97.4457 68.3862 97.1625 68.2866 96.9294 68.0707C90.1843 61.8281 91.017 50.0237 91.067 49.509C91.1169 48.8615 91.6665 48.38 92.3327 48.4298C92.9822 48.4796 93.4652 49.0441 93.4153 49.6916C93.4153 49.8078 92.6325 60.8652 98.5448 66.3441C99.0278 66.7923 99.0445 67.5229 98.6115 68.0043C98.3783 68.2534 98.0619 68.3862 97.7454 68.3862H97.7288Z" fill="black"/>
<path d="M90.9598 92.9565C91.9665 88.3422 87.5439 83.4657 81.0815 82.0646C74.6192 80.6635 68.5644 83.2684 67.5577 87.8827C66.551 92.4971 70.9736 97.3736 77.4359 98.7747C83.8983 100.176 89.9531 97.5709 90.9598 92.9565Z" fill="white"/>
<path d="M84.2553 83.4946C84.2553 83.4946 79.259 85.0055 79.3589 91.8458C79.4588 98.6861 83.5392 99.5992 83.5392 99.5992C83.5392 99.5992 91.117 98.4038 91.0337 91.9454C90.9505 85.4869 84.2387 83.4946 84.2387 83.4946H84.2553Z" fill="black"/>
<path d="M81.2409 100.728C79.9418 100.728 78.5762 100.579 77.1605 100.28C73.5132 99.4995 70.5487 97.889 68.5668 95.6145C66.5849 93.3565 65.8021 90.6503 66.385 87.9938C66.9679 85.3374 68.7833 83.1957 71.5313 81.9505C74.2793 80.7053 77.6435 80.4728 81.2909 81.2532C84.9382 82.0335 87.9027 83.644 89.8846 85.9185C91.8665 88.1765 92.6492 90.8827 92.0663 93.5391C91.4834 96.1956 89.6681 98.3373 86.9201 99.5825C85.238 100.346 83.306 100.728 81.2409 100.728ZM77.2438 83.1625C75.4784 83.1625 73.8629 83.4779 72.4972 84.0922C70.4487 85.022 69.0997 86.5826 68.6834 88.4919C68.267 90.4012 68.8666 92.3769 70.3488 94.0704C71.981 95.9133 74.5791 97.3079 77.6768 97.972C80.7746 98.6361 83.7224 98.4535 85.9708 97.4408C88.0193 96.511 89.3683 94.9504 89.7847 93.0411C90.201 91.1318 89.6015 89.156 88.1192 87.4626C86.4871 85.6197 83.889 84.2251 80.7912 83.5609C79.5754 83.2953 78.3763 83.1625 77.2438 83.1625Z" fill="black"/>
<path d="M82.3569 100.081C82.0904 100.081 81.8239 99.9813 81.5907 99.7987C81.4242 99.6493 77.4771 96.2291 78.0433 90.5178C78.6096 84.7069 83.2062 82.7478 83.4061 82.6648C84.0057 82.4157 84.6885 82.698 84.9383 83.2957C85.1881 83.8934 84.905 84.5741 84.3054 84.8231C84.1389 84.8895 80.808 86.3838 80.375 90.7337C79.9253 95.233 83.073 97.9724 83.1063 97.989C83.6059 98.4041 83.6559 99.1512 83.2395 99.6493C83.0064 99.9149 82.6733 100.064 82.3402 100.064L82.3569 100.081Z" fill="black"/>
<path d="M115.105 99.8448C121.648 98.892 126.398 94.3316 125.714 89.6589C125.029 84.9863 119.169 81.9708 112.625 82.9236C106.081 83.8765 101.331 88.4369 102.016 93.1095C102.701 97.7822 108.561 100.798 115.105 99.8448Z" fill="white"/>
<path d="M116.615 83.1461C116.615 83.1461 111.619 86.284 113.584 92.9748C115.549 99.6657 119.48 99.1012 119.48 99.1012C119.48 99.1012 128.19 95.5815 125.325 88.8574C122.461 82.1333 116.632 83.1461 116.632 83.1461H116.615Z" fill="black"/>
<path d="M112.418 101.592C106.239 101.592 101.559 98.5038 100.86 93.6392C100.477 90.9496 101.426 88.3097 103.575 86.1846C105.706 84.0595 108.787 82.6648 112.468 82.1336C116.149 81.6023 119.513 82.0671 122.161 83.495C124.809 84.9228 126.491 87.1808 126.874 89.8704C127.69 95.4489 122.811 100.28 115.266 101.376C114.283 101.525 113.334 101.592 112.418 101.592ZM115.316 84.2753C114.5 84.2753 113.667 84.3417 112.818 84.4579C109.67 84.9062 106.989 86.1182 105.24 87.8615C103.641 89.4387 102.925 91.3812 103.208 93.3071C103.824 97.5408 108.754 99.9648 114.95 99.0517C121.145 98.1551 125.192 94.4361 124.576 90.2024C124.293 88.2765 123.044 86.6163 121.062 85.5537C119.48 84.707 117.498 84.2587 115.333 84.2587L115.316 84.2753Z" fill="black"/>
<path d="M117.847 100.214C117.647 100.214 117.448 100.164 117.264 100.064C117.065 99.948 112.518 97.3413 111.918 91.547C111.302 85.6531 115.416 82.7808 115.582 82.6646C116.115 82.2993 116.848 82.4322 117.214 82.9634C117.581 83.4947 117.448 84.2252 116.915 84.5905C116.781 84.6735 113.8 86.8485 114.25 91.298C114.733 95.8969 118.38 97.9888 118.414 98.022C118.98 98.3375 119.18 99.0514 118.863 99.6159C118.647 99.9978 118.247 100.214 117.831 100.214H117.847Z" fill="black"/>
<path d="M70.2158 77.6176C69.7827 77.6176 69.3664 77.3852 69.1665 76.9701C68.8667 76.389 69.0999 75.6917 69.6828 75.3929C69.9992 75.2268 77.6603 71.4082 85.2048 74.3967C85.8044 74.6292 86.1042 75.3099 85.871 75.9242C85.6379 76.5385 84.955 76.8207 84.3388 76.5883C77.7936 74.0149 70.8153 77.4682 70.7487 77.5014C70.5822 77.5844 70.399 77.6342 70.2158 77.6342V77.6176Z" fill="black"/>
<path d="M123.227 77.9495C123.027 77.9495 122.827 77.8997 122.644 77.8001C122.578 77.7669 115.766 73.998 109.104 76.2726C108.488 76.4884 107.822 76.1564 107.605 75.5421C107.389 74.9278 107.722 74.2637 108.338 74.0479C116.016 71.4246 123.494 75.5753 123.81 75.7579C124.376 76.0734 124.576 76.7873 124.243 77.3518C124.027 77.7336 123.627 77.9495 123.211 77.9495H123.227Z" fill="black"/>
</g>
<defs>
<clipPath id="clip0_4661_19587">
<rect width="229" height="268" fill="white"/>
</clipPath>
</defs>
</svg>
