<svg width="62" height="63" viewBox="0 0 62 63" fill="none" xmlns="http://www.w3.org/2000/svg">
<g clip-path="url(#clip0_2233_47187)">
<g clip-path="url(#clip1_2233_47187)">
<path d="M55.2992 4.45557H6.69922V44.806H55.2992V4.45557Z" fill="#2174BF"/>
<path d="M55.2992 4.45557V22.2849H47.7817V9.90069L55.2992 4.45557Z" fill="#5391E2"/>
<path d="M47.7817 33.2181H57.9992V15.3373L47.7817 9.89648V33.2181Z" fill="#6AA7EA"/>
<path d="M6.72021 4.45557V22.2849H14.2377V9.90069L6.72021 4.45557Z" fill="#5391E2"/>
<path d="M14.2337 33.2181H4.02051V15.3373L14.2337 9.89648V33.2181Z" fill="#6AA7EA"/>
<path d="M3.99902 15.4556H57.999V54.4556C57.999 57.217 55.7604 59.4556 52.999 59.4556H8.99902C6.2376 59.4556 3.99902 57.217 3.99902 54.4556V15.4556Z" fill="#5A96E7"/>
<path d="M3.99902 44.4556H57.999V56.4556C57.999 58.1124 56.6559 59.4556 54.999 59.4556H6.99902C5.34217 59.4556 3.99902 58.1124 3.99902 56.4556V44.4556Z" fill="#6AA7EA"/>
<path d="M20.2075 24.6394C20.2075 25.7395 19.3231 26.6342 18.226 26.6342C17.129 26.6342 16.2446 25.7438 16.2446 24.6394C16.2446 23.5349 17.1333 22.6445 18.226 22.6445C19.3188 22.6445 20.2075 23.5349 20.2075 24.6394Z" fill="#111111"/>
<path d="M45.7451 24.6394C45.7451 25.7395 44.8564 26.6342 43.7636 26.6342C42.6709 26.6342 41.7822 25.7438 41.7822 24.6394C41.7822 23.5349 42.6666 22.6445 43.7636 22.6445C44.8607 22.6445 45.7451 23.5349 45.7451 24.6394Z" fill="#111111"/>
<g style="mix-blend-mode:multiply">
<path d="M30.999 52.0661C21.7297 52.0661 17.061 41.9849 17.061 33.342V24.6435C17.061 23.9928 17.584 23.4663 18.2303 23.4663C18.8766 23.4663 19.3996 23.9928 19.3996 24.6435V33.342C19.3996 40.6878 24.604 46.6595 30.999 46.6595C37.3939 46.6595 42.5984 40.6835 42.5984 33.342V24.6435C42.5984 23.9928 43.1213 23.4663 43.7676 23.4663C44.4139 23.4663 44.9369 23.9928 44.9369 24.6435V33.342C44.9369 41.9849 40.2683 52.0661 30.999 52.0661Z" fill="#AAAAAA"/>
</g>
<path d="M30.999 49.0138C23.3114 49.0138 17.061 41.9805 17.061 33.3376V24.6391C17.061 23.9884 17.584 23.4619 18.2303 23.4619C18.8766 23.4619 19.3996 23.9884 19.3996 24.6391V33.3376C19.3996 40.6834 24.604 46.6551 30.999 46.6551C37.3939 46.6551 42.5984 40.6791 42.5984 33.3376V24.6391C42.5984 23.9884 43.1213 23.4619 43.7676 23.4619C44.4139 23.4619 44.9369 23.9884 44.9369 24.6391V33.3376C44.9369 41.9805 38.6823 49.0138 30.999 49.0138Z" fill="#E8E8E8"/>
</g>
</g>
<defs>
<clipPath id="clip0_2233_47187">
<rect width="62" height="62" fill="white" transform="translate(-0.000976562 0.455566)"/>
</clipPath>
<clipPath id="clip1_2233_47187">
<rect width="54" height="58" fill="white" transform="translate(3.99902 4.45557)"/>
</clipPath>
</defs>
</svg>
