<svg width="280" height="280" viewBox="0 0 280 280" fill="none" xmlns="http://www.w3.org/2000/svg">
<g clip-path="url(#clip0_4598_2676)">
<path d="M138.512 185.097L138.281 173.914L128.501 178.086L119.185 172.717L120.959 184.768L114.285 193.537L126.09 193.382L131.761 204.816L136.178 194.019L147.057 192.088L138.512 185.097Z" fill="#FFF200"/>
<path d="M131.761 206.419C131.163 206.419 130.603 206.071 130.333 205.53L125.125 195.004L114.343 195.14C113.687 195.14 113.166 194.811 112.896 194.251C112.626 193.71 112.684 193.034 113.051 192.552L119.3 184.324L117.622 172.929C117.526 172.311 117.796 171.713 118.297 171.365C118.799 171.017 119.474 170.998 119.995 171.307L128.617 176.29L137.663 172.427C138.145 172.215 138.705 172.273 139.168 172.562C139.611 172.852 139.881 173.354 139.901 173.876L140.132 184.305L148.098 190.833C148.581 191.238 148.793 191.876 148.639 192.474C148.484 193.073 147.983 193.537 147.366 193.652L137.355 195.429L133.265 205.395C133.034 205.974 132.474 206.361 131.838 206.399C131.838 206.399 131.799 206.399 131.78 206.399L131.761 206.419ZM126.09 191.779C126.707 191.779 127.247 192.127 127.517 192.668L131.606 200.934L134.693 193.421C134.905 192.919 135.349 192.552 135.889 192.455L143.315 191.122L137.47 186.352C137.104 186.062 136.892 185.618 136.872 185.135L136.679 176.328L129.08 179.573C128.617 179.766 128.096 179.747 127.652 179.496L121.21 175.768L122.502 184.537C122.56 184.962 122.444 185.406 122.193 185.753L117.526 191.895L126.032 191.779H126.051H126.09Z" fill="#231F20"/>
<path d="M77.2892 188.225L77.0577 177.043L67.2782 181.215L57.9616 175.826L59.7362 187.897L53.0815 196.646L64.8671 196.491L70.538 207.925L74.9552 197.148L85.8341 195.217L77.2892 188.225Z" fill="#FFF200"/>
<path d="M70.5381 209.547C69.9402 209.547 69.3808 209.199 69.1107 208.659L63.9027 198.133L53.1202 198.268C52.4644 198.268 51.9436 197.94 51.6735 197.38C51.4035 196.839 51.4614 196.163 51.8278 195.68L58.0775 187.453L56.3993 176.058C56.3029 175.44 56.5729 174.841 57.0744 174.493C57.5759 174.146 58.2511 174.126 58.7719 174.435L67.394 179.418L76.4405 175.556C76.9228 175.343 77.4821 175.401 77.9451 175.691C78.3887 175.98 78.6588 176.483 78.678 177.004L78.9095 187.433L86.8758 193.961C87.3581 194.367 87.5702 195.004 87.4159 195.603C87.2616 196.202 86.7601 196.665 86.1429 196.781L76.1319 198.558L72.0427 208.523C71.8112 209.103 71.2518 209.489 70.6153 209.528C70.6153 209.528 70.5767 209.528 70.5574 209.528L70.5381 209.547ZM64.8672 194.908C65.4844 194.908 66.0245 195.255 66.2945 195.796L70.3838 204.062L73.47 196.549C73.6822 196.047 74.1259 195.68 74.6659 195.583L82.0922 194.27L76.2476 189.5C75.8812 189.21 75.669 188.766 75.6497 188.283L75.4568 179.476L67.8569 182.721C67.394 182.914 66.8732 182.895 66.4296 182.644L59.9871 178.916L61.2794 187.684C61.3373 188.109 61.2216 188.553 60.9708 188.901L56.3029 195.043L64.8093 194.927H64.8286L64.8672 194.908Z" fill="#231F20"/>
<path d="M89.4602 156.301C78.6584 156.706 70.9814 157.054 61.8963 161.322C55.7624 164.2 46.388 168.603 42.1637 178.916C41.18 181.311 37.3222 191.741 42.781 201.223C48.2976 210.783 59.4273 212.638 62.5136 213.159C83.9243 216.751 101.574 197.631 106.666 192.107C109.694 188.824 126.456 170.689 121.075 161.322C117.603 155.258 106.434 155.663 89.4409 156.301H89.4602Z" fill="#37519B"/>
<path d="M69.9207 221.096C69.3035 221.096 68.7055 220.729 68.4355 220.111L31.7479 133.395C31.4007 132.584 31.7865 131.637 32.5966 131.29C33.4068 130.942 34.3519 131.328 34.6991 132.139L71.3867 218.856C71.7339 219.667 71.3481 220.614 70.5379 220.961C70.3258 221.058 70.1136 221.096 69.9207 221.096Z" fill="black"/>
<path d="M17.2234 118.581L19.0172 103.208L31.8829 110.257L45.3659 104.077L41.3345 120.455L49.3201 133.414L33.156 131.637L23.878 146.624L19.2294 131.193L4.56982 127.079L17.2234 118.581Z" fill="#FFF200"/>
<path d="M23.8777 148.247C23.8777 148.247 23.7427 148.247 23.6656 148.247C23.0483 148.169 22.5275 147.725 22.3346 147.126L17.9367 132.526L4.12586 128.663C3.52791 128.489 3.06497 127.987 2.96853 127.369C2.87208 126.751 3.14213 126.133 3.66293 125.785L15.6992 117.693L17.4159 103.053C17.4738 102.532 17.8017 102.049 18.2646 101.817C18.7469 101.566 19.3063 101.586 19.7692 101.817L31.9212 108.48L44.6905 102.629C45.2499 102.377 45.9057 102.455 46.3879 102.86C46.8701 103.247 47.063 103.884 46.928 104.483L43.0509 120.204L50.6701 132.583C50.998 133.105 50.998 133.762 50.6701 134.283C50.3421 134.804 49.7442 135.094 49.1462 135.017L33.9851 133.356L25.2472 147.493C24.9579 147.976 24.4371 148.247 23.8777 148.247ZM8.35014 126.48L19.6535 129.648C20.1743 129.802 20.5986 130.208 20.7529 130.729L24.3792 142.762L31.7862 130.787C32.1141 130.266 32.7121 129.976 33.3293 130.034L46.2143 131.444L39.9647 121.285C39.7332 120.918 39.6754 120.474 39.7718 120.049L43.0123 106.897L32.5385 111.686C32.0755 111.899 31.5547 111.88 31.1111 111.629L20.3479 105.719L18.824 118.717C18.7662 119.18 18.5154 119.605 18.1296 119.856L8.38872 126.403L8.35014 126.48Z" fill="black"/>
<mask id="mask0_4598_2676" style="mask-type:luminance" maskUnits="userSpaceOnUse" x="39" y="155" width="84" height="59">
<path d="M89.4602 156.301C78.6584 156.706 70.9814 157.054 61.8963 161.322C55.7624 164.2 46.388 168.603 42.1637 178.916C41.18 181.311 37.3222 191.741 42.781 201.223C48.2976 210.783 59.4273 212.638 62.5136 213.159C83.9243 216.751 101.574 197.631 106.666 192.107C109.694 188.824 126.456 170.689 121.075 161.322C117.603 155.258 106.434 155.663 89.4409 156.301H89.4602Z" fill="white"/>
</mask>
<g mask="url(#mask0_4598_2676)">
<path d="M84.0013 159.816L83.7698 148.633L73.9904 152.805L64.6738 147.417L66.4484 159.487L59.7744 168.236L71.5792 168.082L77.2502 179.515L81.6674 168.738L92.5463 166.807L84.0013 159.816Z" fill="#FFF200"/>
<path d="M77.25 181.137C76.6521 181.137 76.0927 180.79 75.8226 180.249L70.6146 169.723L59.8321 169.858C59.1956 169.897 58.6555 169.53 58.3854 168.97C58.1154 168.429 58.1733 167.753 58.5398 167.27L64.7894 159.043L63.1112 147.648C63.0148 147.03 63.2848 146.431 63.7864 146.084C64.2879 145.736 64.963 145.717 65.4838 146.026L74.1059 151.009L83.1524 147.146C83.6347 146.933 84.194 146.991 84.657 147.281C85.1006 147.571 85.3707 148.073 85.39 148.594L85.6214 159.024L93.5878 165.551C94.07 165.957 94.2822 166.594 94.1278 167.193C93.9735 167.792 93.472 168.255 92.8548 168.371L82.8438 170.148L78.7546 180.114C78.5231 180.693 77.9637 181.079 77.3272 181.118C77.3272 181.118 77.2886 181.118 77.2693 181.118L77.25 181.137ZM71.5791 166.498C72.1963 166.498 72.7364 166.845 73.0065 167.386L77.0957 175.652L80.1819 168.139C80.3941 167.637 80.8378 167.27 81.3779 167.174L88.8041 165.861L82.9596 161.09C82.5931 160.8 82.3809 160.356 82.3616 159.873L82.1687 151.067L74.5689 154.311C74.1059 154.504 73.5851 154.485 73.1415 154.234L66.699 150.506L67.9913 159.275C68.0492 159.7 67.9335 160.144 67.6827 160.491L63.0148 166.633L71.5212 166.517H71.5405L71.5791 166.498Z" fill="black"/>
<path d="M56.9195 201.397L56.6881 190.234L46.9086 194.386L37.592 189.017L39.3666 201.069L32.7119 209.837L44.4975 209.682L50.1684 221.116L54.5856 210.339L65.4645 208.388L56.9195 201.397Z" fill="#FFF200"/>
<path d="M50.1685 222.719C49.5705 222.719 49.0111 222.371 48.7411 221.83L43.5331 211.305L32.7506 211.44C32.0948 211.44 31.574 211.112 31.3039 210.551C31.0339 210.011 31.0917 209.335 31.4582 208.852L37.7078 200.624L36.0297 189.23C35.9332 188.612 36.2033 188.013 36.7048 187.665C37.2063 187.318 37.8814 187.298 38.4022 187.607L47.0244 192.59L56.0709 188.727C56.5531 188.515 57.1125 188.573 57.5754 188.863C58.0384 189.152 58.2891 189.655 58.3084 190.176L58.5399 200.605L66.5062 207.133C66.9884 207.539 67.2006 208.176 67.0463 208.775C66.892 209.373 66.3905 209.837 65.7732 209.953L55.7623 211.73L51.673 221.695C51.4415 222.275 50.8822 222.661 50.2456 222.7C50.2456 222.7 50.2071 222.7 50.1878 222.7L50.1685 222.719ZM44.4975 208.079C45.1148 208.079 45.6549 208.427 45.9249 208.968L50.0142 217.234L53.1004 209.721C53.3126 209.219 53.7562 208.852 54.2963 208.755L61.7225 207.423L55.878 202.652C55.5115 202.363 55.2993 201.918 55.28 201.436L55.0872 192.629L47.4873 195.873C47.0244 196.067 46.5036 196.047 46.0599 195.796L39.6174 192.069L40.9098 200.837C40.9677 201.262 40.8519 201.706 40.6012 202.054L35.9332 208.195L44.4397 208.079H44.459H44.4975Z" fill="black"/>
</g>
<path d="M242.75 132.564C242.75 132.564 249.964 122.309 256.445 127.62C262.926 132.951 269.696 142.375 269.696 142.375C269.696 142.375 278.685 153.539 274.576 157.845C270.448 162.152 257.679 155.393 257.679 155.393L242.769 132.564H242.75Z" fill="#47484A"/>
<path d="M270.333 160.858C264.797 160.858 257.949 157.343 256.908 156.803C256.676 156.667 256.464 156.494 256.31 156.262L241.399 133.434C241.033 132.873 241.052 132.159 241.438 131.618C241.612 131.367 245.952 125.264 251.333 124.53C253.551 124.221 255.615 124.839 257.448 126.346C264.006 131.734 270.699 141.004 270.969 141.391C271.934 142.569 280.652 153.732 275.714 158.908C274.384 160.298 272.455 160.82 270.333 160.82V160.858ZM258.779 154.157C262.772 156.185 271.008 159.236 273.419 156.725C275.792 154.234 271.104 146.663 268.462 143.38C268.346 143.225 261.672 133.994 255.442 128.856C254.304 127.91 253.108 127.562 251.796 127.736C248.999 128.122 246.164 130.903 244.736 132.622L258.798 154.137L258.779 154.157Z" fill="black"/>
<path d="M222.94 139.073L245.334 128.064C245.334 128.064 257.891 135.828 258.856 155.489L233.279 168.217L222.94 139.073Z" fill="#7E8083"/>
<path d="M233.278 169.839C233.066 169.839 232.873 169.8 232.68 169.723C232.256 169.549 231.928 169.202 231.774 168.777L221.435 139.633C221.165 138.861 221.512 138.011 222.245 137.644L244.64 126.635C245.141 126.384 245.72 126.423 246.183 126.712C246.723 127.041 259.473 135.152 260.456 155.412C260.495 156.049 260.148 156.648 259.569 156.938L233.992 169.685C233.761 169.8 233.529 169.858 233.278 169.858V169.839ZM224.926 139.903L234.185 165.996L257.197 154.543C256.097 139.382 247.687 131.869 245.199 129.957L224.946 139.923L224.926 139.903Z" fill="black"/>
<path d="M255.5 154.273C255.5 154.273 262.714 144.017 269.195 149.329C275.676 154.659 282.446 164.084 282.446 164.084C282.446 164.084 291.435 175.247 287.326 179.554C283.198 183.861 270.429 177.101 270.429 177.101L255.519 154.273H255.5Z" fill="#47484A"/>
<path d="M283.083 182.586C277.547 182.586 270.699 179.071 269.658 178.53C269.426 178.395 269.214 178.221 269.06 177.989L254.149 155.161C253.783 154.601 253.802 153.886 254.188 153.346C254.362 153.095 258.702 146.992 264.083 146.258C266.301 145.949 268.365 146.567 270.198 148.073C276.756 153.461 283.449 162.732 283.719 163.118C284.684 164.296 293.402 175.459 288.464 180.635C287.134 182.026 285.205 182.547 283.083 182.547V182.586ZM271.529 175.884C275.522 177.912 283.758 180.964 286.169 178.453C288.542 175.961 283.854 168.391 281.212 165.107C281.096 164.953 274.422 155.721 268.192 150.584C267.054 149.657 265.858 149.29 264.546 149.464C261.749 149.85 258.914 152.631 257.486 154.35L271.548 175.865L271.529 175.884Z" fill="black"/>
<path d="M235.69 160.801L258.084 149.792C258.084 149.792 270.641 157.556 271.606 177.217L229.961 191.663L235.69 160.82V160.801Z" fill="#7E8083"/>
<path d="M229.961 193.266C229.575 193.266 229.209 193.131 228.919 192.88C228.495 192.513 228.283 191.933 228.398 191.373L234.127 160.53C234.224 160.028 234.552 159.603 234.995 159.39L257.39 148.382C257.891 148.131 258.47 148.169 258.933 148.459C259.473 148.787 272.223 156.899 273.207 177.159C273.245 177.873 272.802 178.53 272.126 178.762L230.482 193.208C230.308 193.266 230.134 193.305 229.961 193.305V193.266ZM237.117 161.901L232.044 189.249L269.947 176.096C268.809 160.974 260.437 153.538 257.949 151.665L237.136 161.901H237.117Z" fill="black"/>
<path d="M67.9531 215.225C66.0435 215.225 64.1532 215.071 62.2821 214.742C52.3483 213.081 45.3465 208.794 41.4308 202.034C35.7599 192.223 39.444 181.388 40.7171 178.317C45.1921 167.425 54.8559 162.886 61.2405 159.893C70.8078 155.393 79.0249 155.103 89.4217 154.717C106.955 154.079 118.529 153.654 122.502 160.549C127.691 169.588 115.577 184.903 107.881 193.227C94.3789 207.867 80.9731 215.245 67.9724 215.245L67.9531 215.225ZM89.4795 156.3L89.5374 157.903C79.1021 158.29 71.5601 158.56 62.5908 162.77C56.6498 165.571 47.6611 169.781 43.6683 179.515C42.5496 182.257 39.2704 191.856 44.1891 200.393C47.6033 206.302 53.8529 210.049 62.8029 211.556C76.4402 213.835 90.8105 206.92 105.528 191.006C117.41 178.144 122.714 167.348 119.725 162.114C116.735 156.899 105.335 157.324 89.5374 157.884L89.4795 156.281V156.3Z" fill="black"/>
<path d="M254.226 114.41C247.321 97.4914 235.979 91.9485 229.479 91.8133C225.66 91.7361 223.036 92.6052 221.242 94.1889C220.914 94.4786 219.352 95.9271 218.561 98.4764C217.385 102.32 219.101 105.14 219.989 107.496C217.52 106.974 214.877 106.781 212.196 107.071C204.789 107.901 195.472 112.749 195.472 112.749C195.472 112.749 195.376 112.865 195.183 113.077C190.978 108.307 185.654 104.328 180.099 103.421C179.366 102.764 178.614 102.281 177.823 102.011C163.568 97.2597 119.358 153.712 110.466 167C108.556 169.858 103.811 177.371 94.8034 181.137C89.769 183.243 88.2066 182.161 80.0859 184.285C71.1937 186.603 63.9218 188.515 59.7361 194.019C54.586 200.798 54.8946 211.981 59.1189 219.455C68.9562 236.895 100.204 234.346 109.54 233.592C114.632 233.167 130.044 231.912 145.514 223.627C153.133 224.554 163.626 224.38 173.174 222.255C184.709 219.687 196.012 213.989 202.474 209.161C214.838 205.549 238.236 196.105 252.317 171.693C262 154.91 261.17 131.328 254.246 114.41H254.226Z" fill="#37519B"/>
<path d="M243.714 145.137C243.714 145.137 243.656 145.137 243.618 145.137C242.73 145.079 242.055 144.326 242.113 143.438C243.02 126.906 236.558 120.185 236.5 120.127C235.883 119.509 235.883 118.485 236.5 117.848C237.117 117.21 238.12 117.21 238.757 117.848C239.065 118.157 246.318 125.496 245.315 143.631C245.277 144.481 244.563 145.157 243.714 145.157V145.137Z" fill="black"/>
<mask id="mask1_4598_2676" style="mask-type:luminance" maskUnits="userSpaceOnUse" x="56" y="91" width="204" height="144">
<path d="M254.593 114.584C247.687 97.6653 236.345 92.1224 229.845 91.9872C226.026 91.9099 223.402 92.779 221.609 94.3627C221.281 94.6524 219.718 96.1009 218.927 98.6503C217.751 102.494 219.467 105.313 220.355 107.67C217.886 107.148 215.243 106.955 212.562 107.245C205.155 108.075 195.839 112.923 195.839 112.923C195.839 112.923 195.742 113.039 195.549 113.251C191.344 108.481 186.02 104.502 180.465 103.594C179.732 102.938 178.98 102.455 178.189 102.185C163.935 97.4335 119.724 153.886 110.832 167.174C108.923 170.032 104.178 177.545 95.1696 181.311C90.1352 183.416 88.5728 182.335 80.4521 184.459C71.56 186.777 64.288 188.689 60.1023 194.193C54.9522 200.972 55.2608 212.155 59.4851 219.629C69.3224 237.069 100.571 234.519 109.906 233.766C114.999 233.341 130.41 232.086 145.88 223.8C153.499 224.727 163.993 224.554 173.541 222.429C185.075 219.861 196.379 214.163 202.84 209.335C215.205 205.723 238.602 196.279 252.683 171.867C262.366 155.084 261.537 131.502 254.612 114.584H254.593Z" fill="white"/>
</mask>
<g mask="url(#mask1_4598_2676)">
<path d="M190.206 190.485L189.956 179.322L180.195 183.474L170.879 178.105L172.653 190.156L165.979 198.925L177.784 198.77L183.436 210.204L187.872 199.427L198.751 197.476L190.206 190.485Z" fill="#FFF200"/>
<path d="M183.436 211.807C182.838 211.807 182.278 211.459 182.008 210.918L176.8 200.393L166.018 200.528C165.381 200.605 164.841 200.199 164.571 199.639C164.301 199.099 164.359 198.423 164.725 197.94L170.975 189.712L169.297 178.318C169.2 177.699 169.47 177.101 169.972 176.753C170.473 176.405 171.149 176.386 171.669 176.695L180.291 181.678L189.338 177.815C189.82 177.603 190.38 177.661 190.843 177.951C191.286 178.24 191.556 178.742 191.576 179.264L191.807 189.693L199.773 196.221C200.256 196.627 200.468 197.264 200.313 197.863C200.159 198.461 199.658 198.925 199.04 199.041L189.029 200.818L184.94 210.783C184.709 211.363 184.149 211.749 183.513 211.787C183.513 211.787 183.474 211.787 183.455 211.787L183.436 211.807ZM177.765 197.167C178.382 197.167 178.922 197.515 179.192 198.056L183.281 206.322L186.367 198.809C186.58 198.307 187.023 197.94 187.563 197.843L194.99 196.511L189.145 191.74C188.779 191.451 188.566 191.006 188.547 190.524L188.354 181.717L180.754 184.961C180.291 185.154 179.771 185.135 179.327 184.884L172.885 181.157L174.177 189.925C174.235 190.35 174.119 190.794 173.868 191.142L169.2 197.283L177.707 197.167H177.726H177.765Z" fill="black"/>
<path d="M248.883 176.966L248.651 165.783L238.872 169.955L229.555 164.566L231.33 176.637L224.675 185.386L236.461 185.232L242.132 196.665L246.549 185.888L257.428 183.957L248.883 176.966Z" fill="#FFF200"/>
<path d="M242.132 198.268C241.534 198.268 240.975 197.921 240.704 197.38L235.496 186.854L224.714 186.989C224.058 186.97 223.537 186.661 223.267 186.101C222.997 185.56 223.055 184.884 223.422 184.401L229.671 176.174L227.993 164.779C227.897 164.161 228.167 163.562 228.668 163.215C229.17 162.867 229.845 162.848 230.366 163.157L238.988 168.139L248.034 164.277C248.517 164.064 249.076 164.122 249.539 164.412C249.982 164.702 250.253 165.204 250.272 165.725L250.503 176.154L258.47 182.682C258.952 183.088 259.164 183.725 259.01 184.324C258.855 184.923 258.354 185.386 257.737 185.502L247.726 187.279L243.636 197.245C243.405 197.824 242.846 198.21 242.209 198.23C242.209 198.23 242.17 198.23 242.151 198.23L242.132 198.268ZM236.461 183.629C237.078 183.629 237.618 183.976 237.888 184.517L241.978 192.783L245.064 185.27C245.276 184.768 245.72 184.401 246.26 184.305L253.686 182.972L247.841 178.202C247.475 177.912 247.263 177.468 247.243 176.985L247.051 168.178L239.451 171.423C238.988 171.616 238.467 171.597 238.023 171.345L231.581 167.618L232.873 176.386C232.931 176.811 232.815 177.255 232.565 177.603L227.897 183.745L236.403 183.629H236.422H236.461Z" fill="black"/>
<path d="M219.39 129.745L219.14 118.562L209.38 122.734L200.063 117.346L201.838 129.417L195.164 138.165L206.968 138.011L212.639 149.444L217.057 138.668L227.935 136.736L219.39 129.745Z" fill="#FFF200"/>
<path d="M212.639 151.067C212.041 151.067 211.482 150.719 211.212 150.178L206.004 139.652L195.221 139.788C194.623 139.749 194.045 139.459 193.775 138.899C193.505 138.358 193.562 137.682 193.929 137.2L200.179 128.972L198.5 117.577C198.404 116.959 198.674 116.361 199.176 116.013C199.677 115.665 200.352 115.646 200.873 115.955L209.495 120.938L218.542 117.075C219.024 116.863 219.583 116.921 220.046 117.21C220.49 117.5 220.76 118.002 220.779 118.524L221.011 128.953L228.977 135.481C229.459 135.886 229.671 136.524 229.517 137.122C229.363 137.721 228.861 138.185 228.244 138.3L218.233 140.077L214.144 150.043C213.912 150.622 213.353 151.009 212.716 151.047C212.716 151.047 212.678 151.047 212.658 151.047L212.639 151.067ZM206.968 136.427C207.585 136.427 208.126 136.775 208.396 137.315L212.485 145.582L215.571 138.069C215.783 137.567 216.227 137.2 216.767 137.103L224.193 135.77L218.349 131C217.982 130.71 217.77 130.266 217.751 129.783L217.558 120.976L209.958 124.221C209.495 124.414 208.974 124.395 208.531 124.144L202.088 120.416L203.381 129.185C203.438 129.609 203.323 130.054 203.072 130.401L198.404 136.543L206.91 136.427H206.93H206.968Z" fill="black"/>
<path d="M138.512 185.097L138.28 173.914L128.501 178.086L119.184 172.717L120.959 184.768L114.285 193.537L126.09 193.382L131.76 204.816L136.178 194.019L147.057 192.088L138.512 185.097Z" fill="#FFF200"/>
<path d="M131.761 206.419C131.163 206.419 130.603 206.071 130.333 205.53L125.125 195.004L114.343 195.14C113.687 195.14 113.166 194.811 112.896 194.251C112.626 193.71 112.684 193.034 113.051 192.552L119.3 184.324L117.622 172.929C117.526 172.311 117.796 171.713 118.297 171.365C118.799 171.017 119.474 170.998 119.995 171.307L128.617 176.29L137.663 172.427C138.145 172.215 138.705 172.273 139.168 172.562C139.611 172.852 139.881 173.354 139.901 173.876L140.132 184.305L148.098 190.833C148.581 191.238 148.793 191.876 148.639 192.474C148.484 193.073 147.983 193.537 147.366 193.652L137.355 195.429L133.265 205.395C133.034 205.974 132.474 206.361 131.838 206.399C131.838 206.399 131.799 206.399 131.78 206.399L131.761 206.419ZM126.09 191.779C126.707 191.779 127.247 192.127 127.517 192.668L131.606 200.934L134.693 193.421C134.905 192.919 135.349 192.552 135.889 192.455L143.315 191.122L137.47 186.352C137.104 186.062 136.892 185.618 136.872 185.135L136.679 176.328L129.08 179.573C128.617 179.766 128.096 179.747 127.652 179.496L121.21 175.768L122.502 184.537C122.56 184.962 122.444 185.406 122.193 185.753L117.526 191.895L126.032 191.779H126.051H126.09Z" fill="black"/>
<path d="M111.43 226.697L111.199 215.515L101.419 219.687L92.1028 214.298L93.8773 226.369L87.2227 235.118L99.0082 234.964L104.679 246.397L109.096 235.62L119.975 233.689L111.43 226.697Z" fill="#FFF200"/>
<path d="M104.679 248C104.081 248 103.522 247.652 103.252 247.112L98.0438 236.586L87.2613 236.721C86.6441 236.76 86.0847 236.393 85.8147 235.833C85.5446 235.292 85.6025 234.616 85.969 234.133L92.2186 225.906L90.5404 214.511C90.444 213.893 90.714 213.294 91.2155 212.946C91.7171 212.599 92.3922 212.58 92.913 212.889L101.535 217.871L110.582 214.009C111.064 213.796 111.623 213.854 112.086 214.144C112.53 214.434 112.8 214.936 112.819 215.457L113.051 225.886L121.017 232.414C121.499 232.82 121.711 233.457 121.557 234.056C121.403 234.655 120.901 235.118 120.284 235.234L110.273 237.011L106.184 246.977C105.952 247.556 105.393 247.942 104.756 247.981C104.756 247.981 104.718 247.981 104.699 247.981L104.679 248ZM99.0083 233.361C99.6255 233.361 100.166 233.708 100.436 234.249L104.525 242.515L107.611 235.002C107.823 234.5 108.267 234.133 108.807 234.037L116.233 232.704L110.389 227.934C110.022 227.644 109.81 227.2 109.791 226.717L109.598 217.91L101.998 221.155C101.535 221.348 101.014 221.328 100.571 221.077L94.1282 217.35L95.4205 226.118C95.4784 226.543 95.3627 226.987 95.1119 227.335L90.444 233.477L98.9504 233.361H98.9697H99.0083Z" fill="black"/>
<path d="M77.2887 188.225L77.0572 177.043L67.2777 181.215L57.9612 175.826L59.7357 187.897L53.0811 196.646L64.8666 196.491L70.5375 207.925L74.9547 197.148L85.8337 195.217L77.2887 188.225Z" fill="#FFF200"/>
<path d="M70.5376 209.547C69.9397 209.547 69.3803 209.199 69.1102 208.659L63.9022 198.133L53.1197 198.268C52.4639 198.268 51.9431 197.94 51.673 197.38C51.403 196.839 51.4609 196.163 51.8274 195.68L58.077 187.453L56.3988 176.058C56.3024 175.44 56.5724 174.841 57.0739 174.493C57.5755 174.146 58.2506 174.126 58.7714 174.435L67.3935 179.418L76.44 175.556C76.9223 175.343 77.4816 175.401 77.9446 175.691C78.3882 175.98 78.6583 176.483 78.6776 177.004L78.909 187.433L86.8754 193.961C87.3576 194.367 87.5697 195.004 87.4154 195.603C87.2611 196.202 86.7596 196.665 86.1424 196.781L76.1314 198.558L72.0422 208.523C71.8107 209.103 71.2513 209.489 70.6148 209.528C70.6148 209.528 70.5762 209.528 70.5569 209.528L70.5376 209.547ZM64.8667 194.908C65.4839 194.908 66.024 195.255 66.2941 195.796L70.3833 204.062L73.4695 196.549C73.6817 196.047 74.1254 195.68 74.6655 195.583L82.0917 194.27L76.2472 189.5C75.8807 189.21 75.6685 188.766 75.6492 188.283L75.4563 179.476L67.8565 182.721C67.3935 182.914 66.8727 182.895 66.4291 182.644L59.9866 178.916L61.2789 187.684C61.3368 188.109 61.2211 188.553 60.9703 188.901L56.3024 195.043L64.8088 194.927H64.8281L64.8667 194.908Z" fill="black"/>
</g>
<path d="M97.5618 235.697C76.884 235.697 63.4975 230.521 57.6916 220.227C52.85 211.652 53.1587 199.948 58.4438 193.015C62.9767 187.066 70.7116 185.038 79.6616 182.702C83.4423 181.717 85.9113 181.388 87.898 181.118C90.1162 180.828 91.7365 180.616 94.1862 179.611C100.05 177.236 105.046 172.717 109.077 166.131C109.54 165.377 110.524 165.146 111.276 165.609C112.028 166.073 112.26 167.058 111.797 167.811C107.399 174.996 101.882 179.959 95.3628 182.605C92.5274 183.744 90.5599 184.015 88.2838 184.305C86.297 184.575 84.0209 184.865 80.4332 185.811C71.6953 188.09 64.8092 189.905 60.9514 194.965C56.4956 200.837 56.2642 211.227 60.4499 218.644C66.6416 229.633 83.0951 234.114 109.347 231.97C125.434 230.656 140.865 225.036 155.236 215.283C155.969 214.781 156.972 214.974 157.454 215.708C157.955 216.442 157.763 217.446 157.03 217.948C142.196 228.03 126.225 233.824 109.598 235.176C105.335 235.523 101.304 235.697 97.5232 235.697H97.5618Z" fill="black"/>
<path d="M195.453 114.352C194.913 114.352 194.392 114.081 194.083 113.599C193.62 112.845 193.852 111.86 194.585 111.378C194.816 111.223 200.487 107.727 211.849 105.468C223.75 103.111 231.62 110.837 231.967 111.184C232.584 111.822 232.584 112.826 231.967 113.463C231.35 114.081 230.327 114.081 229.71 113.463C229.421 113.174 222.67 106.607 212.485 108.635C201.703 110.779 196.34 114.081 196.302 114.101C196.032 114.275 195.742 114.352 195.453 114.352Z" fill="black"/>
<path d="M197.247 212.116C196.456 212.116 195.762 211.537 195.665 210.725C195.55 209.837 196.167 209.045 197.035 208.929C222.516 205.55 241.554 187.067 250.89 170.882C260.862 153.597 258.991 130.363 252.722 115.028C245.855 98.2255 234.841 93.5323 229.421 93.4165C222.824 93.2233 220.934 96.3135 220.047 98.9787C219.526 100.524 219.757 103.208 220.702 106.511C220.953 107.361 220.452 108.249 219.603 108.5C218.754 108.751 217.867 108.249 217.616 107.399C216.478 103.363 216.266 100.176 216.999 97.9551C218.773 92.6053 222.863 90.0366 229.479 90.1911C242.653 90.4808 252.143 105.159 255.673 113.792C262.231 129.861 264.16 154.253 253.648 172.485C248.941 180.655 230.964 207.655 197.44 212.097C197.363 212.097 197.305 212.097 197.228 212.097L197.247 212.116Z" fill="black"/>
<path d="M160.849 225.114C155.544 225.114 150.529 224.535 146.556 223.878C145.688 223.743 145.09 222.912 145.225 222.024C145.36 221.155 146.189 220.537 147.057 220.691C153.866 221.811 163.858 222.7 172.788 220.653C181.642 218.605 190.515 213.333 196.398 209.258C197.131 208.756 198.134 208.929 198.636 209.663C199.137 210.397 198.964 211.401 198.231 211.904C192.116 216.133 182.857 221.638 173.521 223.781C169.374 224.747 165.034 225.095 160.868 225.095L160.849 225.114Z" fill="black"/>
<path d="M139.592 165.088C144.029 141.835 160.656 102.725 180.716 102.455C191.769 102.32 201.008 113.966 204.808 121.594C211.444 134.901 209.669 152.264 200.449 161.882C193.601 169.028 191.209 161.805 180.89 163.929C173.965 165.358 162.025 174.571 153.249 177.313C143.508 180.365 141.791 182.663 140.19 181.678" fill="#D5D7D8"/>
<path d="M141.001 183.532C140.46 183.532 139.94 183.397 139.4 183.069C138.647 182.605 138.397 181.62 138.859 180.867C139.322 180.114 140.306 179.863 141.058 180.326C141.29 180.365 142.37 179.863 143.373 179.418C145.263 178.569 148.118 177.275 152.805 175.807C156.914 174.513 161.852 171.712 166.616 168.989C171.863 165.996 176.801 163.176 180.601 162.384C185.346 161.399 188.548 162.249 191.132 162.925C194.392 163.794 196.032 164.219 199.33 160.781C208.049 151.684 209.804 135.152 203.4 122.328C200.237 115.993 191.499 104.077 180.929 104.077C180.871 104.077 180.813 104.077 180.736 104.077C162.739 104.309 145.9 140.483 141.155 165.397C140.981 166.266 140.152 166.845 139.284 166.672C138.416 166.498 137.837 165.667 138.011 164.798C142.235 142.646 159.094 101.142 180.697 100.852C192.888 100.678 202.494 113.367 206.255 120.88C213.238 134.863 211.251 152.959 201.626 163.002C197.035 167.811 193.756 166.942 190.303 166.015C187.931 165.378 185.249 164.682 181.237 165.513C177.939 166.189 173.194 168.893 168.179 171.77C163.26 174.571 158.187 177.487 153.751 178.878C149.256 180.287 146.498 181.524 144.685 182.354C143.161 183.049 142.042 183.551 141.001 183.551V183.532Z" fill="black"/>
<path d="M175.74 122.753L201.703 69.0622L182.067 76.7296L177.592 49.015L158.939 65.1223L153.461 37.736L152.767 37.5236L132.918 57.1073L126.495 33.2939L107.283 53.7081L95.305 36.3261L86.7793 95.3862L175.74 122.753Z" fill="#FFF200"/>
<path d="M175.74 124.047C175.624 124.047 175.489 124.047 175.354 123.989L86.3932 96.6224C85.7953 96.4293 85.4095 95.8306 85.506 95.2126L94.0317 36.1525C94.1088 35.631 94.4946 35.2061 95.0154 35.0902C95.5362 34.9744 96.057 35.1675 96.3656 35.6117L107.437 51.6997L125.569 32.4057C125.897 32.0774 126.36 31.9229 126.823 32.0387C127.266 32.1546 127.633 32.5023 127.749 32.9465L133.593 54.6546L151.879 36.5967C152.207 36.2684 152.709 36.1525 153.152 36.2877L153.827 36.5001C154.271 36.6353 154.618 37.0216 154.715 37.4851L159.768 62.7276L176.743 48.0495C177.09 47.7405 177.591 47.6632 178.016 47.8177C178.459 47.9722 178.768 48.3585 178.845 48.822L183.089 74.9722L201.24 67.8842C201.722 67.6911 202.281 67.8263 202.648 68.2126C203.014 68.5988 203.091 69.1782 202.86 69.6418L176.897 123.333C176.685 123.777 176.222 124.067 175.74 124.067V124.047ZM88.2064 94.4787L175.064 121.208L199.118 71.4572L182.529 77.9272C182.163 78.0624 181.758 78.043 181.43 77.8499C181.102 77.6568 180.87 77.3284 180.793 76.9422L176.665 51.4872L159.768 66.1074C159.421 66.3971 158.939 66.4937 158.515 66.3585C158.09 66.204 157.762 65.837 157.666 65.3928L152.496 39.5902L133.805 58.0345C133.478 58.3628 133.015 58.4787 132.571 58.3628C132.127 58.2469 131.78 57.8993 131.664 57.4551L125.839 35.8435L108.19 54.5967C107.92 54.8864 107.553 55.0216 107.167 55.0023C106.782 54.983 106.434 54.7705 106.203 54.4422L96.0956 39.7448L88.1871 94.4787H88.2064Z" fill="black"/>
<path d="M165.98 153.983C165.98 153.983 153.095 178.183 113.456 172.698C73.817 167.193 72.081 129.996 72.081 129.996C72.081 129.996 66.5644 86.4444 113.456 83.1998C160.347 79.9552 176.666 125.882 176.666 125.882C176.666 125.882 192.347 125.593 191.287 139.131C190.245 152.65 176.415 159.68 165.98 154.002V153.983Z" fill="#FAC3C1"/>
<path d="M124.913 175.131C121.306 175.131 117.41 174.861 113.243 174.281C72.756 168.661 70.4992 130.44 70.4799 130.054C70.3834 129.397 68.2038 110.895 79.7964 96.7384C87.2034 87.6997 98.4874 82.601 113.34 81.5774C156.875 78.5645 174.929 117.404 177.765 124.298C180.215 124.453 186.04 125.225 189.743 129.165C192.154 131.734 193.215 135.114 192.887 139.247C192.347 146.2 188.663 152.052 182.761 155.258C177.649 158.039 171.708 158.309 166.597 156.069C163.568 160.627 151.86 175.131 124.913 175.131ZM118.066 84.6482C116.6 84.6482 115.095 84.7062 113.571 84.8027C99.6447 85.7684 89.113 90.4615 82.2847 98.7663C71.5601 111.822 73.6433 129.61 73.6626 129.783C73.7397 131.367 75.8615 165.861 113.668 171.095C151.628 176.367 164.05 154.176 164.571 153.21C164.764 152.844 165.111 152.554 165.516 152.438C165.922 152.322 166.365 152.361 166.732 152.573C171.187 155.007 176.608 154.949 181.218 152.438C186.156 149.753 189.242 144.848 189.685 138.996C189.936 135.809 189.165 133.26 187.39 131.367C183.667 127.408 176.743 127.485 176.685 127.485C175.99 127.447 175.373 127.06 175.142 126.423C174.987 125.998 159.73 84.6482 118.046 84.6482H118.066Z" fill="black"/>
<path d="M175.161 142.878C174.582 142.878 174.023 142.588 173.734 142.047C173.329 141.275 173.56 140.328 174.332 139.904C175.933 138.996 180.89 138.841 182.934 138.803H182.954C183.822 138.803 184.555 139.517 184.555 140.386C184.555 141.275 183.86 142.009 182.973 142.009C180.138 142.047 176.627 142.318 175.913 142.685C175.682 142.801 175.431 142.859 175.18 142.859L175.161 142.878Z" fill="black"/>
<path d="M101.805 147.598C102.941 146.473 102.806 144.491 101.503 143.171C100.2 141.851 98.2224 141.693 97.086 142.818C95.9496 143.943 96.0847 145.924 97.3879 147.244C98.691 148.564 100.669 148.722 101.805 147.598Z" fill="black"/>
<path d="M109.501 158.135C105.393 158.135 97.8703 157.093 91.5821 150.468C90.9648 149.831 91.0034 148.807 91.6399 148.189C92.2765 147.571 93.2988 147.61 93.8967 148.247C101.67 156.436 111.565 154.814 111.99 154.756C112.858 154.601 113.687 155.18 113.841 156.069C113.996 156.938 113.417 157.768 112.549 157.923C112.395 157.942 111.257 158.135 109.501 158.135Z" fill="black"/>
<path d="M114.825 108.075C114.227 108.075 113.649 107.747 113.379 107.167C111.758 103.788 111.238 100.234 111.855 96.8735C112.086 95.676 112.472 94.44 113.07 93.1267C115.443 87.8734 119.783 83.9915 123.023 81.6546C123.737 81.1331 124.74 81.3069 125.261 82.0215C125.781 82.7361 125.608 83.7404 124.894 84.2619C121.982 86.367 118.066 89.8241 116.002 94.44C115.52 95.5215 115.192 96.5065 115.018 97.4528C114.401 100.833 115.365 103.846 116.291 105.777C116.677 106.569 116.33 107.534 115.539 107.921C115.308 108.037 115.076 108.075 114.845 108.075H114.825Z" fill="black"/>
<path d="M103.908 98.2444C103.908 98.2444 103.792 98.2444 103.734 98.2444C102.847 98.1479 102.229 97.356 102.326 96.4676C103.31 87.7187 112.395 82.7552 112.78 82.5427C113.552 82.1178 114.536 82.4268 114.941 83.1994C115.346 83.9719 115.057 84.9569 114.285 85.3818C114.208 85.4204 106.299 89.7659 105.509 96.8346C105.412 97.665 104.718 98.2637 103.927 98.2637L103.908 98.2444Z" fill="black"/>
<path d="M93.8582 97.6848C93.8582 97.6848 93.7425 97.6848 93.6846 97.6848C92.7973 97.5882 92.1801 96.7963 92.2765 95.9079C93.2795 87.0238 101.902 83.5667 102.268 83.4122C103.098 83.0839 104.023 83.4895 104.351 84.32C104.679 85.1504 104.274 86.0775 103.445 86.4058C103.348 86.4444 96.25 89.3414 95.4785 96.2556C95.382 97.0861 94.6876 97.6848 93.8968 97.6848H93.8582Z" fill="black"/>
<path d="M139.669 116.225C139.264 116.225 138.859 116.071 138.531 115.762C136.468 113.695 131.607 107.959 131.337 99.4225C131.144 93.4547 133.227 88.8002 135.021 85.9418C135.484 85.1886 136.487 84.9569 137.239 85.4397C137.991 85.9032 138.223 86.9075 137.741 87.6607C136.197 90.1328 134.384 94.1693 134.558 99.326C134.789 106.723 139.014 111.706 140.808 113.502C141.444 114.12 141.444 115.144 140.808 115.781C140.499 116.09 140.075 116.264 139.669 116.264V116.225Z" fill="black"/>
<path d="M150.664 119.624C150.201 119.624 149.757 119.431 149.449 119.064C145.63 114.526 141.02 107.071 140.749 97.2789C140.672 94.4978 140.962 91.6973 141.617 88.9355C141.83 88.0664 142.678 87.5257 143.546 87.7381C144.414 87.9506 144.935 88.8003 144.742 89.6694C144.164 92.1609 143.894 94.6909 143.971 97.1823C144.221 106.047 148.426 112.826 151.918 116.978C152.496 117.654 152.4 118.678 151.725 119.238C151.416 119.489 151.05 119.624 150.683 119.624H150.664Z" fill="black"/>
<path d="M125.395 109.678C124.759 109.678 124.161 109.292 123.91 108.674C122.753 105.777 121.152 99.8861 123.351 93.1844C124.855 88.6071 127.556 85.4784 129.543 83.6436C130.198 83.0449 131.221 83.1028 131.799 83.7595C132.397 84.4161 132.34 85.4397 131.684 86.0384C129.967 87.6028 127.652 90.2874 126.379 94.208C124.489 99.9633 125.878 105.004 126.861 107.496C127.189 108.326 126.784 109.253 125.974 109.581C125.781 109.659 125.569 109.697 125.376 109.697L125.395 109.678Z" fill="black"/>
<mask id="mask2_4598_2676" style="mask-type:luminance" maskUnits="userSpaceOnUse" x="80" y="112" width="23" height="23">
<path d="M100.371 132.85C104.077 129.26 103.016 122.143 98.0019 116.953C92.9874 111.763 85.9182 110.465 82.2124 114.055C78.5066 117.644 79.5675 124.762 84.5819 129.952C89.5964 135.142 96.6655 136.439 100.371 132.85Z" fill="white"/>
</mask>
<g mask="url(#mask2_4598_2676)">
<path d="M99.673 133.543C103.696 130.452 103.624 123.597 99.5126 118.232C95.401 112.867 88.8067 111.023 84.7837 114.114C80.7608 117.205 80.8326 124.06 84.9442 129.425C89.0557 134.79 95.6501 136.633 99.673 133.543Z" fill="white"/>
<path d="M107.659 127C108.075 121.394 104.442 116.554 99.5443 116.19C94.6468 115.825 90.3393 120.074 89.9233 125.68C89.5072 131.286 93.1401 136.125 98.0377 136.49C102.935 136.854 107.243 132.605 107.659 127Z" fill="black"/>
</g>
<path d="M94.7261 136.813C94.7261 136.813 94.6296 136.813 94.5911 136.813C91.2348 136.755 87.8206 134.978 84.9659 131.772C79.8929 126.075 79.2178 118.775 83.3456 114.429C85.0238 112.652 87.2999 111.687 89.7495 111.687C89.7881 111.687 89.846 111.687 89.8846 111.687C93.2408 111.744 96.655 113.521 99.5097 116.727C104.583 122.425 105.258 129.725 101.13 134.071C99.4519 135.847 97.1758 136.813 94.7261 136.813ZM89.7495 114.236C87.9943 114.236 86.4126 114.912 85.1974 116.187C82.0147 119.547 82.7091 125.38 86.8755 130.053C89.248 132.719 92.0063 134.206 94.6296 134.244C96.4814 134.283 98.0438 133.607 99.2783 132.294C102.461 128.933 101.767 123.101 97.6001 118.427C95.2276 115.762 92.4693 114.275 89.846 114.236H89.7303H89.7495Z" fill="black"/>
<mask id="mask3_4598_2676" style="mask-type:luminance" maskUnits="userSpaceOnUse" x="115" y="130" width="27" height="20">
<path d="M141.571 140.377C141.878 135.159 136.238 130.585 128.975 130.159C121.711 129.734 115.574 133.619 115.267 138.836C114.96 144.054 120.599 148.628 127.863 149.054C135.126 149.479 141.264 145.594 141.571 140.377Z" fill="white"/>
</mask>
<g mask="url(#mask3_4598_2676)">
<path d="M141.571 140.377C141.878 135.159 136.238 130.585 128.975 130.159C121.711 129.734 115.574 133.619 115.267 138.836C114.96 144.054 120.599 148.628 127.863 149.054C135.126 149.479 141.264 145.594 141.571 140.377Z" fill="white"/>
<path d="M141.858 139.713C142.19 134.048 138.451 129.22 133.505 128.929C128.56 128.639 124.282 132.995 123.95 138.66C123.618 144.325 127.357 149.153 132.303 149.443C137.248 149.734 141.526 145.377 141.858 139.713Z" fill="black"/>
</g>
<path d="M129.041 150.757C128.597 150.757 128.173 150.757 127.71 150.719C123.621 150.487 120.11 149.232 117.564 147.107C115.018 144.983 113.726 142.144 113.899 139.15C114.073 136.156 115.693 133.511 118.471 131.695C121.248 129.88 124.875 129.03 128.964 129.281C133.053 129.513 136.564 130.768 139.11 132.893C141.656 135.017 142.948 137.837 142.775 140.85C142.428 146.721 136.737 150.757 129.041 150.757ZM127.652 131.811C124.624 131.811 121.904 132.526 119.879 133.839C117.796 135.21 116.6 137.141 116.465 139.305C116.33 141.468 117.313 143.534 119.223 145.118C121.306 146.875 124.373 147.938 127.864 148.15C134.751 148.556 139.939 145.408 140.209 140.695C140.344 138.532 139.361 136.465 137.451 134.862C135.368 133.124 132.301 132.043 128.81 131.83C128.424 131.811 128.019 131.792 127.633 131.792L127.652 131.811Z" fill="black"/>
<path d="M107.303 112.227C106.975 112.227 106.647 112.092 106.396 111.841C100.976 106.356 92.5079 106.781 92.4308 106.781C91.7364 106.839 91.1191 106.279 91.0806 105.564C91.042 104.85 91.5821 104.251 92.2958 104.212C92.7008 104.193 101.998 103.729 108.228 110.026C108.73 110.528 108.73 111.339 108.228 111.841C107.978 112.092 107.65 112.208 107.322 112.208L107.303 112.227Z" fill="black"/>
<path d="M145.128 130.421C144.743 130.421 144.357 130.247 144.106 129.899C144.048 129.822 138.917 123.062 131.26 122.406C130.546 122.348 130.025 121.73 130.083 121.015C130.141 120.3 130.758 119.779 131.472 119.837C140.287 120.59 145.919 128.026 146.151 128.354C146.575 128.914 146.459 129.725 145.881 130.15C145.649 130.324 145.379 130.401 145.109 130.401L145.128 130.421Z" fill="black"/>
</g>
<defs>
<clipPath id="clip0_4598_2676">
<rect width="287" height="216" fill="white" transform="translate(2.96875 32)"/>
</clipPath>
</defs>
</svg>
