<svg width="1600" height="400" viewBox="0 0 1600 400" fill="none" xmlns="http://www.w3.org/2000/svg">
<g opacity="0.3" clip-path="url(#clip0_43_248)">
<mask id="mask0_43_248" style="mask-type:luminance" maskUnits="userSpaceOnUse" x="0" y="0" width="1600" height="400">
<path d="M1600 0H0V400H1600V0Z" fill="white"/>
</mask>
<g mask="url(#mask0_43_248)">
<path d="M1662 0H-62V296H1662V0Z" fill="#216186"/>
<path d="M150 0V296M200 0V296M-150 0V296M250 0V296M-100 0V296M300 0V296M-50 0V296M350 0V296M0 0L3.05176e-05 296M400 0V296M50 0V296M450 0V296M100 0V296M800 0V296M850 0V296M500 0V296M900 0V296M550 0V296M950 0V296M600 0V296M1000 0V296M650 0V296M1050 0V296M700 0V296M1100 0V296M750 0V296M1450 0V296M1500 0V296M1150 0V296M1550 0V296M1200 0V296M1600 0V296M1250 0V296M1650 0V296M1300 0V296M1700 0V296M1350 0V296M1750 0V296M1400 0V296" stroke="#0C0541" stroke-width="4"/>
<path d="M1674 195H-94V442H1674V195Z" fill="#07496F"/>
<path d="M80.7458 173.276C79.732 168.223 80.0867 162.805 82.1079 157.751C87.0236 145.481 99.8306 140.156 110.698 145.85C121.563 151.555 126.384 166.12 121.468 178.391C121.298 178.819 121.092 179.216 120.904 179.628C123.868 179.671 126.864 180.382 129.743 181.894C140.61 187.588 145.429 202.165 140.514 214.435C135.588 226.703 122.791 232.03 111.924 226.336C107.313 223.915 103.806 219.902 101.658 215.149C95.4738 221.262 86.44 223.059 78.4438 218.863C67.5786 213.158 62.7577 198.593 67.6836 186.325C70.2991 179.8 75.1594 175.264 80.756 173.279L80.7458 173.276Z" fill="#033755"/>
<path d="M1397.6 214.776C1395.43 212.845 1393.77 210.123 1393.03 206.819C1391.24 198.793 1395.5 190.482 1402.55 188.258C1409.61 186.041 1416.78 190.747 1418.58 198.773C1418.64 199.052 1418.68 199.333 1418.72 199.613C1420.14 198.293 1421.8 197.273 1423.67 196.686C1430.72 194.462 1437.89 199.175 1439.69 207.2C1441.48 215.229 1437.22 223.537 1430.17 225.76C1427.17 226.701 1424.17 226.39 1421.55 225.115C1420.68 230.803 1417.02 235.739 1411.83 237.372C1404.77 239.589 1397.6 234.883 1395.81 226.854C1394.85 222.586 1395.63 218.243 1397.61 214.772L1397.6 214.776Z" fill="#033755"/>
<path d="M1685 -1H-85V43H1685V-1Z" fill="#216186" stroke="#0C0541" stroke-width="2"/>
<path d="M1269 257C1323.68 257 1368 252.299 1368 246.5C1368 240.701 1323.68 236 1269 236C1214.32 236 1170 240.701 1170 246.5C1170 252.299 1214.32 257 1269 257Z" fill="#033755"/>
<mask id="mask1_43_248" style="mask-type:luminance" maskUnits="userSpaceOnUse" x="1150" y="91" width="209" height="188">
<path d="M1150.56 178.267L1208.2 278.098L1358.89 191.098L1301.25 91.2669L1150.56 178.267Z" fill="white"/>
</mask>
<g mask="url(#mask1_43_248)">
<path d="M1284.28 224.326C1284.28 224.326 1241.73 180.898 1234.02 137.57L1268.42 143.282L1294.17 194.398L1284.28 224.326Z" fill="#033755"/>
<path d="M1316.09 195.978C1316.09 195.978 1342.24 209.513 1357.7 189.035C1357.7 189.035 1332.31 186.61 1324.45 170.552C1316.59 154.494 1316.09 195.978 1316.09 195.978Z" fill="#033755"/>
<path d="M1275.62 125.891C1275.62 125.891 1276.98 96.4746 1302.44 93.3287C1302.44 93.3287 1291.85 116.523 1301.83 131.361C1311.8 146.199 1275.62 125.891 1275.62 125.891Z" fill="#033755"/>
<path opacity="0.2" d="M1287.73 176.179L1280.12 162.992L1190.56 175.664L1198.17 188.851L1287.73 176.179Z" fill="white"/>
<path d="M1284.27 224.326C1290.65 220.148 1326.18 196.043 1332.59 174.059C1332.59 174.059 1338.24 163.761 1325.68 142.544C1325.68 142.544 1314.92 124.979 1307.4 122.287C1301.39 120.132 1270.82 117.15 1234.02 137.57C1236.44 139.408 1265.95 162.85 1284.27 224.326Z" fill="#07496F"/>
<path opacity="0.2" d="M1205.55 157.649C1203.01 159.851 1200.67 162.017 1198.51 164.145C1231.72 196.378 1243.02 236.954 1244.47 242.594C1255.57 239.157 1268.43 233.544 1283.29 224.964C1283.29 224.964 1283.64 224.74 1284.27 224.327C1265.95 162.851 1236.44 139.407 1234.02 137.571C1224.82 142.678 1215.24 149.239 1205.55 157.646V157.649Z" fill="#60629E"/>
<path d="M1176.07 199.076C1186.88 211.498 1199.48 238.095 1202.84 245.401C1212.63 248.013 1226.15 248.263 1244.47 242.591C1243.02 236.95 1231.72 196.374 1198.51 164.141C1185.03 177.431 1178.65 189.267 1176.06 199.073L1176.07 199.076Z" fill="#07496F"/>
<path d="M1176.07 199.077C1171.16 217.711 1179.98 229.014 1179.98 229.014C1179.98 229.014 1185.7 240.83 1202.84 245.402C1199.48 238.091 1186.88 211.499 1176.07 199.077Z" fill="#033755"/>
<path d="M1294.35 146.021C1293.04 143.756 1290.26 142.912 1288.14 144.136C1286.02 145.36 1285.36 148.189 1286.67 150.455C1287.98 152.72 1290.76 153.564 1292.88 152.34C1295 151.116 1295.66 148.287 1294.35 146.021Z" fill="#033755"/>
<path d="M1293.58 146.463C1292.54 144.651 1290.31 143.975 1288.62 144.955C1286.92 145.935 1286.39 148.198 1287.44 150.011C1288.49 151.823 1290.71 152.499 1292.41 151.519C1294.1 150.54 1294.63 148.276 1293.58 146.463Z" fill="#07496F"/>
<path d="M1292.05 147.349C1291.52 146.442 1290.41 146.104 1289.56 146.594C1288.71 147.085 1288.45 148.218 1288.97 149.125C1289.5 150.032 1290.61 150.37 1291.46 149.88C1292.31 149.39 1292.57 148.257 1292.05 147.349Z" fill="#033755"/>
<path d="M1327 143.74C1327 143.74 1289.2 169.136 1281.68 152.487C1281.68 152.487 1270.61 136.215 1312.63 125.013" stroke="#033755" stroke-width="3" stroke-miterlimit="10"/>
<path d="M1216.78 241.78C1216.93 242.143 1217.26 242.429 1217.6 242.598C1217.98 242.994 1218.49 243.217 1218.91 242.968C1223.06 240.464 1227.52 238.58 1232.25 237.406C1233.63 237.064 1232.43 234.843 1231.32 235.12C1229.7 235.522 1228.11 236.005 1226.55 236.555C1226.38 236.284 1226.13 236.049 1225.84 235.932C1223.47 234.998 1219.61 233.566 1217.28 234.887C1214.83 236.276 1215.86 239.585 1216.79 241.782L1216.78 241.78ZM1220.13 236.666C1221.5 236.621 1222.96 236.935 1224.34 237.381C1222.24 238.236 1220.19 239.238 1218.21 240.387C1217.71 238.61 1217.78 236.743 1220.13 236.663V236.666Z" fill="#033755"/>
<path d="M1212.05 229.779C1212.09 229.869 1212.14 229.968 1212.2 230.069C1212.24 230.434 1212.51 230.937 1212.92 231.27C1216.02 233.738 1219.41 233.041 1222.68 231.823C1225.57 230.748 1228.6 228.523 1226.53 224.889C1225.84 223.678 1224.67 222.633 1223.37 222.21C1221.5 221.599 1219.75 222.573 1218.08 223.212C1215.42 224.233 1210.22 225.624 1212.05 229.776V229.779ZM1218.44 225.698C1219.52 225.284 1220.59 224.85 1221.67 224.461C1222.1 224.307 1222.54 224.127 1223.01 224.072C1224.2 223.932 1225.4 225.108 1225.2 226.378C1224.8 228.743 1221.94 229.538 1220.06 230.177C1218.16 230.819 1215.79 231.454 1213.85 230.402C1212.73 227.569 1216.63 226.397 1218.44 225.701V225.698Z" fill="#033755"/>
<path d="M1208.14 222.443C1207.96 222.507 1207.83 222.672 1207.81 222.981C1207.8 223.046 1207.8 223.112 1207.79 223.177C1207.74 223.791 1208.35 224.415 1208.84 224.668C1209.3 224.906 1209.8 224.948 1210.31 224.863C1210.6 224.964 1210.84 224.883 1210.97 224.689C1212.38 224.191 1213.83 222.956 1214.79 222.305C1217.09 220.736 1219.28 219.041 1221.84 217.953C1221.94 217.955 1222.03 217.941 1222.12 217.9C1222.34 217.794 1222.57 217.688 1222.79 217.582C1223.88 217.074 1222.27 215.137 1221.33 215.464C1219.6 216.072 1218.02 216.966 1216.51 217.967C1214.08 216.872 1210.25 215.643 1207.94 217.225C1206.01 218.556 1206.91 220.677 1208.14 222.44V222.443ZM1211.53 218.713C1212.62 218.672 1213.72 218.838 1214.79 219.149C1213.89 219.784 1213.01 220.426 1212.08 221.014C1211.83 221.171 1210.73 221.958 1209.87 222.419C1209.32 221.72 1208.79 220.877 1208.9 220.196C1209.09 219.034 1210.64 218.747 1211.53 218.715V218.713Z" fill="#033755"/>
<path d="M1213.69 204.093C1213.69 204.127 1213.7 204.16 1213.71 204.195C1213.75 204.358 1213.85 204.517 1213.96 204.671C1214.03 205.674 1213.27 207.36 1212.91 208.09C1212.34 209.244 1211.54 210.263 1210.56 211.065C1208.42 212.813 1205.57 213.327 1202.83 212.679C1201.34 212.325 1202.28 214.591 1203.32 214.84C1206.63 215.623 1210.06 214.984 1212.59 212.778C1214.56 211.05 1216.86 207.155 1215.8 204.265C1215.59 203.689 1214.73 202.984 1214.12 203.235C1214.08 203.25 1214.04 203.266 1214.01 203.283C1213.7 203.41 1213.61 203.774 1213.69 204.096V204.093Z" fill="#033755"/>
<path d="M1198.71 207.801C1198.51 208.385 1199.07 209.165 1199.67 209.511C1199.71 209.545 1199.73 209.577 1199.77 209.609C1202.26 211.973 1205.38 211.222 1207.87 209.614C1209.98 208.253 1214.2 204.409 1212.95 201.265C1211.6 197.86 1206.84 199.955 1204.68 200.729C1203.05 201.315 1200.88 201.967 1199.71 203.343C1198.58 204.663 1199.26 206.276 1198.72 207.799L1198.71 207.801ZM1203.2 204.096C1204.24 203.581 1205.33 203.134 1206.43 202.755C1207.45 202.403 1209.41 201.441 1210.51 201.675C1211.05 201.792 1211.01 201.609 1210.72 202.393C1210.52 202.923 1210.2 203.419 1209.9 203.886C1209.28 204.873 1208.52 205.762 1207.65 206.528C1206.34 207.684 1202.86 210.15 1200.97 208.464C1201.04 207.933 1201.03 207.396 1201.06 206.825C1201.14 205.314 1201.98 204.7 1203.2 204.098V204.096Z" fill="#033755"/>
<path d="M1199.35 195.965C1197.92 195.169 1196.35 194.743 1194.9 195.552C1192.44 196.932 1193.96 200.553 1194.53 202.746C1194.58 202.949 1194.67 203.157 1194.79 203.35C1194.84 204.066 1195.97 205.211 1196.56 204.941C1198.95 203.853 1200.51 201.804 1202.45 200.096C1203.44 199.218 1204.48 198.385 1205.53 197.574C1206.13 197.112 1207.73 196.336 1207.9 195.515C1208.05 194.755 1207.18 194 1206.57 193.739C1206.53 193.719 1206.48 193.698 1206.43 193.678C1206.15 193.554 1205.89 193.621 1205.76 193.887L1205.71 193.99C1205.67 194.086 1205.66 194.199 1205.68 194.317C1205.15 194.899 1203.84 195.585 1203.44 195.898C1202.8 196.4 1202.16 196.915 1201.54 197.441C1201.5 197.414 1201.47 197.388 1201.44 197.361C1202.57 195.042 1203.39 192.588 1203.88 190.003C1204.05 189.14 1202.07 187.525 1201.89 188.431C1201.39 191.083 1200.54 193.599 1199.36 195.966L1199.35 195.965ZM1195.96 198.046C1196.84 196.898 1198.11 197.023 1199.31 197.554C1199.61 197.944 1200.06 198.297 1200.43 198.389C1198.96 199.729 1197.69 201.296 1196.02 202.348C1195.57 200.845 1195.15 199.099 1195.96 198.046Z" fill="#033755"/>
<path d="M1185.69 191.381C1185.18 192.318 1187.15 193.977 1187.75 192.875C1189.27 190.1 1191.37 187.831 1193.92 186.166C1193.61 187.006 1193.36 187.868 1193.17 188.764C1192.72 190.811 1192.46 192.852 1191.38 194.636C1191.31 194.749 1191.28 194.875 1191.29 195.002C1191.16 195.076 1191.03 195.138 1190.89 195.196C1189.73 195.695 1191.28 197.797 1192.32 197.351C1194.74 196.314 1195.99 193.69 1197.69 191.784C1198.64 190.72 1199.66 189.722 1200.74 188.8C1201.4 188.236 1202.54 187.726 1202.64 186.738C1202.7 186.136 1202.15 185.426 1201.61 185.222C1201.15 185.042 1200.81 185.023 1200.43 185.351C1200.26 185.504 1200.22 185.734 1200.25 185.968C1199.75 186.399 1198.45 187.324 1198.18 187.571C1197.29 188.38 1196.44 189.24 1195.65 190.149C1195.47 190.359 1195.29 190.579 1195.11 190.805C1195.15 190.623 1195.19 190.446 1195.22 190.264C1195.71 188.016 1196.55 185.958 1197.73 184.041C1198.24 183.222 1196.72 181.94 1195.98 182.228C1191.54 183.959 1188 187.138 1185.68 191.385L1185.69 191.381Z" fill="#033755"/>
</g>
<mask id="mask2_43_248" style="mask-type:luminance" maskUnits="userSpaceOnUse" x="1322" y="25" width="99" height="99">
<path d="M1421 25H1322V124H1421V25Z" fill="white"/>
</mask>
<g mask="url(#mask2_43_248)">
<path d="M1371.5 25C1344.16 25 1322 47.1613 1322 74.4983C1322 84.3633 1324.89 93.5549 1329.86 101.274L1325.94 114.281L1337.52 110.49C1346.39 118.862 1358.34 123.997 1371.5 123.997C1398.84 123.997 1421 101.835 1421 74.4983C1421 47.1613 1398.84 25 1371.5 25Z" fill="#033755"/>
<path d="M1403.01 83.4526L1402.36 75.0498H1389.49L1388.18 72.9483L1393.56 66.7763L1383.05 62.0496L1377.41 68.0889L1374.13 67.4326L1372.16 59.6862L1359.95 60.8662L1362.05 69.5307L1360.74 70.7141L1350.23 65.1985L1343.14 73.4686L1352.86 77.6716L1352.46 80.5587L1341.44 81.215L1344.32 89.4851L1355.48 87.9107L1357.06 90.1414L1349.97 96.9697L1360.34 101.04L1366.51 94.2119L1370.58 95.13L1374.65 103.665L1385.42 100.907L1381.61 92.6374L1384.63 91.454L1394.48 95.5245L1400.78 88.8288L1390.93 83.9695L1403.01 83.4458V83.4526ZM1360.99 84.874C1360.99 84.874 1354.43 74.2405 1372.02 72.0063C1372.02 72.0063 1364.41 83.5614 1384.76 85.0032C1384.76 85.0032 1368.35 94.4567 1360.99 84.8706V84.874Z" fill="#0C4464"/>
<path d="M1343.14 64.6747L1343.86 73.057L1353.9 72.989L1354.96 66.6232L1343.14 64.6747Z" fill="#0C4464"/>
<path d="M1341.43 72.4246V81.2184L1344.32 89.4919L1355.74 78.5694L1341.43 72.4246Z" fill="#0C4464"/>
<path d="M1400.78 80.0383V88.8355L1394.48 95.5312L1381.02 89.8625L1379.71 82.3133L1389.88 79.7527L1400.78 80.0383Z" fill="#0C4464"/>
<path d="M1403.01 83.4525V74.6553L1389.49 73.8425L1395.07 81.9188L1403.01 83.4525Z" fill="#0C4464"/>
<path d="M1393.49 66.9088V58.1116L1379.97 57.299L1385.55 65.3752L1393.49 66.9088Z" fill="#0C4464"/>
<path d="M1349.97 88.1792V96.9764L1360.34 101.047L1366.51 94.2186L1375.11 88.6791L1372.35 84.8059L1364.21 84.7413L1349.97 88.1792Z" fill="#0C4464"/>
<path d="M1359.95 52.0723V60.8695L1361.46 64.5217L1357.58 69.1838L1359.88 71.8736L1368.81 68.7213L1367.36 56.9724L1359.95 52.0723Z" fill="#0C4464"/>
<path d="M1374.65 94.875V103.672L1385.42 100.914V92.1171L1374.65 94.875Z" fill="#0C4464"/>
<path d="M1403.01 74.6551L1402.35 66.2523H1389.49L1388.17 64.1508L1393.56 57.9788L1383.05 53.2521L1377.41 59.2914L1374.13 58.6351L1372.16 50.8887L1359.95 52.0687L1362.05 60.7332L1360.74 61.9166L1350.23 56.401L1343.14 64.6711L1352.86 68.8741L1352.46 71.7612L1341.43 72.4175L1344.32 80.6876L1355.48 79.1132L1357.06 81.3439L1349.97 88.1722L1360.34 92.2427L1366.51 85.4144L1370.58 86.3325L1374.65 94.8679L1385.42 92.1101L1381.61 83.8399L1384.63 82.6565L1394.48 86.727L1400.78 80.0313L1390.93 75.1719L1403.01 74.6483V74.6551ZM1360.99 76.0765C1360.99 76.0765 1354.43 65.443 1372.02 63.2088C1372.02 63.2088 1364.41 74.7639 1384.76 76.2057C1384.76 76.2057 1368.35 85.6592 1360.99 76.0731V76.0765Z" fill="#216186"/>
</g>
<path d="M207.085 138.006C208.265 133.962 210.545 130.31 213.861 127.707C221.917 121.392 232.923 123.723 238.435 132.9C243.942 142.084 241.876 154.644 233.82 160.959C233.54 161.181 233.246 161.362 232.959 161.563C235.028 163.002 236.87 164.927 238.329 167.361C243.841 176.538 241.77 189.105 233.714 195.42C225.651 201.728 214.652 199.404 209.139 190.227C206.802 186.33 205.838 181.834 206.108 177.462C199.467 178.834 192.438 175.809 188.384 169.052C182.877 159.867 184.943 147.308 193.006 140.999C197.291 137.642 202.41 136.753 207.091 138.012L207.085 138.006Z" fill="#033755"/>
</g>
</g>
<defs>
<clipPath id="clip0_43_248">
<rect width="1600" height="400" fill="white"/>
</clipPath>
</defs>
</svg>
