<svg width="1080" height="786" viewBox="0 0 1080 786" fill="none" xmlns="http://www.w3.org/2000/svg">
<g filter="url(#filter0_f_6481_27018)">
<ellipse cx="540" cy="758" rx="520" ry="8" fill="black" fill-opacity="0.4"/>
</g>
<g clip-path="url(#clip0_6481_27018)">
<path d="M18.3789 57.6631L23.2818 57.6631L23.2818 129.466L18.3789 129.466C17.0644 129.466 16 128.401 16 127.086L16 60.0425C16 58.7277 17.0644 57.6631 18.3789 57.6631Z" fill="#F3F3F5"/>
<path opacity="0.7" d="M20.4029 57.655L18.5804 57.655L18.5804 129.458L20.4029 129.458L20.4029 57.655Z" fill="#DBDBDB"/>
<path d="M141.873 1.38729L141.873 7.29148L98.1977 7.29148L98.1977 1.38729C98.1977 0.629095 98.8106 0.00805288 99.5767 0.00805294L140.494 0.00805652C141.252 0.00805659 141.873 0.621033 141.873 1.38729Z" fill="#F3F3F5"/>
<path opacity="0.7" d="M141.865 4.41201L141.865 2.58911L98.1977 2.58911L98.1977 4.41201L141.865 4.41201Z" fill="#DBDBDB"/>
<path d="M193.766 1.37933L193.766 7.28352L150.09 7.28352L150.09 1.37933C150.09 0.621137 150.703 -3.76465e-06 151.469 -3.69767e-06L192.387 -1.20555e-07C193.145 -5.42858e-08 193.766 0.613075 193.766 1.37933Z" fill="#F3F3F5"/>
<path opacity="0.7" d="M193.758 4.40395L193.758 2.58105L150.09 2.58105L150.09 4.40395L193.758 4.40395Z" fill="#DBDBDB"/>
<path d="M1018.07 753.306L65.8281 753.306C42.5227 753.306 23.5962 734.383 23.5962 711.065L23.5963 50.049C23.5963 26.7386 42.5147 7.80789 65.8281 7.8079L1018.07 7.80798C1041.38 7.80798 1060.31 26.7307 1060.31 50.0491L1060.31 711.065C1060.31 734.375 1041.38 753.306 1018.07 753.306Z" fill="white"/>
<path fill-rule="evenodd" clip-rule="evenodd" d="M1018.07 749.612C1039.34 749.612 1056.61 732.335 1056.61 711.065L1056.61 50.049C1056.61 28.7712 1039.34 11.5021 1018.07 11.5021L65.8283 11.502C44.5551 11.502 27.2896 28.7783 27.2896 50.0489L27.2896 711.065C27.2896 732.342 44.5621 749.612 65.8282 749.612L1018.07 749.612ZM1064 711.065C1064 736.415 1043.42 757 1018.07 757L65.8282 757C40.4834 757 19.903 736.424 19.903 711.065L19.903 50.0489C19.903 24.6987 40.4746 4.11362 65.8283 4.11362L1018.07 4.1137C1043.42 4.11371 1064 24.6899 1064 50.049L1064 711.065Z" fill="#F3F3F5"/>
</g>
<defs>
<filter id="filter0_f_6481_27018" x="0" y="730" width="1080" height="56" filterUnits="userSpaceOnUse" color-interpolation-filters="sRGB">
<feFlood flood-opacity="0" result="BackgroundImageFix"/>
<feBlend mode="normal" in="SourceGraphic" in2="BackgroundImageFix" result="shape"/>
<feGaussianBlur stdDeviation="10" result="effect1_foregroundBlur_6481_27018"/>
</filter>
<clipPath id="clip0_6481_27018">
<rect width="1048" height="757" fill="white" transform="translate(1064 757) rotate(-180)"/>
</clipPath>
</defs>
</svg>
