<svg width="222" height="81" viewBox="0 0 222 81" fill="none" xmlns="http://www.w3.org/2000/svg">
<g filter="url(#filter0_d_72_366)">
<path d="M194.911 40.0718C200.607 42.6958 205.439 45.8638 209.407 49.5758C213.439 53.2878 215.455 57.3198 215.455 61.6718C215.455 65.5118 214.399 68.3598 212.287 70.2158C210.175 72.0718 207.583 72.9998 204.511 72.9998C200.095 72.9998 195.935 70.9838 192.031 66.9518C188.191 62.8558 184.479 57.5118 180.895 50.9198C180.895 55.4638 180.639 59.2718 180.127 62.3438C179.679 65.4158 178.655 67.9758 177.055 70.0238C175.455 72.0078 173.055 72.9998 169.855 72.9998C166.527 72.9998 164.063 71.7518 162.463 69.2558C160.927 66.7598 159.967 63.7518 159.583 60.2318C159.263 56.7118 159.103 52.1038 159.103 46.4078C159.103 42.3758 159.135 37.6078 159.199 32.1038C159.327 26.5358 159.455 23.0798 159.583 21.7358C159.711 16.9358 160.703 13.0958 162.559 10.2158C164.415 7.2718 167.039 5.7998 170.431 5.7998C174.335 5.7998 177.055 7.46381 178.591 10.7918C180.191 14.1198 180.991 19.2078 180.991 26.0558V28.9358C184.255 23.0478 188.031 17.7678 192.319 13.0958C196.607 8.42381 200.895 6.08781 205.183 6.08781C208.191 6.08781 210.655 7.23981 212.575 9.54381C214.559 11.7838 215.551 14.5678 215.551 17.8958C215.551 22.3758 213.631 26.6638 209.791 30.7598C206.015 34.7918 201.055 37.8958 194.911 40.0718Z" fill="#E31313"/>
</g>
<g filter="url(#filter1_d_72_366)">
<path d="M134.262 72.9999C129.526 72.9999 125.334 72.0719 121.686 70.2159C118.038 68.3599 115.19 65.7679 113.142 62.4399C111.158 59.0479 110.166 55.2399 110.166 51.0159C110.166 46.8559 111.158 43.0159 113.142 39.4959C115.19 35.9759 118.006 33.1599 121.59 31.0479C125.174 28.9359 129.238 27.8799 133.782 27.8799C137.878 27.8799 141.494 28.7119 144.63 30.3759C147.766 32.0399 150.166 34.2479 151.83 36.9999C153.494 39.6879 154.326 42.5039 154.326 45.4479C154.326 50.2479 152.502 53.7679 148.854 56.0079C145.27 58.1839 140.982 59.2719 135.99 59.2719C132.662 59.2719 129.846 58.8559 127.542 58.0239C129.462 61.1599 132.63 62.7279 137.046 62.7279C138.838 62.7279 140.758 62.5039 142.806 62.0559C143.574 61.8639 144.31 61.7679 145.014 61.7679C146.422 61.7679 147.542 62.1199 148.374 62.8239C149.27 63.5279 149.718 64.4879 149.718 65.7039C149.718 67.6879 148.502 69.4159 146.07 70.8879C143.638 72.2959 139.702 72.9999 134.262 72.9999ZM127.83 46.3119C128.406 47.2079 129.174 47.8799 130.134 48.3279C131.158 48.7119 132.278 48.9039 133.494 48.9039C134.902 48.9039 136.118 48.5839 137.142 47.9439C138.23 47.3039 138.774 46.4719 138.774 45.4479C138.774 44.2959 138.294 43.3039 137.334 42.4719C136.438 41.6399 135.126 41.2239 133.398 41.2239C131.67 41.2239 130.294 41.7679 129.27 42.8559C128.31 43.8799 127.83 45.0319 127.83 46.3119Z" fill="#FFDE00"/>
</g>
<g filter="url(#filter2_d_72_366)">
<path d="M77.0314 72.9999C72.9354 72.9999 70.1834 70.5999 68.7754 65.7999C67.4314 60.9999 66.7594 54.3759 66.7594 45.9279C66.7594 42.0879 66.9194 38.8879 67.2394 36.3279C67.6234 33.7039 68.4874 31.4959 69.8314 29.7039C71.2394 27.8479 73.3834 26.9199 76.2634 26.9199C78.0554 26.9199 79.6234 27.3359 80.9674 28.1679C82.3754 28.9999 83.2714 30.1839 83.6554 31.7199C85.0634 30.4399 86.8874 29.4799 89.1274 28.8399C91.3674 28.1999 93.7674 27.8799 96.3274 27.8799C98.3754 27.8799 100.455 28.3919 102.567 29.4159C104.743 30.4399 106.535 31.8479 107.943 33.6399C109.415 35.3679 110.151 37.2559 110.151 39.3039C110.151 41.3519 109.415 43.1759 107.943 44.7759C106.535 46.3119 104.647 47.0799 102.279 47.0799C101.511 47.0799 100.775 46.9839 100.071 46.7919C99.4314 46.5999 98.8554 46.4079 98.3434 46.2159C97.0634 45.7039 96.0394 45.4479 95.2714 45.4479C92.7754 45.4479 90.5674 46.4399 88.6474 48.4239C86.7914 50.3439 85.8634 52.8399 85.8634 55.9119C85.8634 59.3039 85.7354 62.1199 85.4794 64.3599C85.2234 66.5999 84.4554 68.6159 83.1754 70.4079C81.8954 72.1359 79.8474 72.9999 77.0314 72.9999Z" fill="#2B93D2"/>
</g>
<g filter="url(#filter3_d_72_366)">
<path d="M20.0142 73.0957C14.7662 73.0957 11.1821 70.0877 9.26215 64.0717C7.40615 58.0557 6.47815 50.3757 6.47815 41.0317C6.47815 34.9517 7.56615 29.2557 9.74215 23.9437C11.9821 18.5677 15.3741 14.2477 19.9181 10.9837C24.4622 7.6557 29.9982 5.9917 36.5262 5.9917C41.7742 5.9917 46.5422 7.1117 50.8302 9.3517C55.1182 11.5277 58.5102 14.6637 61.0062 18.7597C63.5662 22.8557 64.8461 27.5917 64.8461 32.9677C64.8461 39.1757 63.5981 44.3917 61.1021 48.6157C58.6061 52.8397 55.3741 55.9757 51.4062 58.0237C47.4382 60.0717 43.2462 61.0957 38.8302 61.0957C35.2462 61.0957 31.9502 60.4877 28.9422 59.2717C29.3262 61.3197 29.5182 62.8877 29.5182 63.9757C29.5182 70.0557 26.3502 73.0957 20.0142 73.0957ZM37.4862 46.2157C39.7901 46.2157 41.7741 45.3837 43.4381 43.7197C45.1661 41.9917 46.0301 40.0077 46.0301 37.7677C46.0301 35.4637 45.1661 33.4797 43.4381 31.8157C41.7741 30.0877 39.7901 29.2237 37.4862 29.2237C35.2462 29.2237 33.2622 30.0877 31.5342 31.8157C29.8062 33.4797 28.9422 35.4637 28.9422 37.7677C28.9422 40.0077 29.8062 41.9917 31.5342 43.7197C33.2622 45.3837 35.2462 46.2157 37.4862 46.2157Z" fill="#3FAE45"/>
</g>
<g filter="url(#filter4_d_72_366)">
<path fill-rule="evenodd" clip-rule="evenodd" d="M188.411 70.4009L188.383 70.3715C187.071 68.9713 185.784 67.4513 184.521 65.8146C183.819 68.4999 182.669 70.9595 180.995 73.102L180.971 73.1325L180.947 73.1626C178.161 76.6171 174.145 77.9998 169.855 77.9998C165.07 77.9998 160.899 76.0803 158.254 71.9541L158.229 71.9154L158.205 71.8763C156.208 68.6312 155.061 64.88 154.613 60.774L154.608 60.7293L154.604 60.6845C154.299 57.3376 154.138 53.1522 154.108 48.165C154.204 47.6014 154.268 47.0156 154.3 46.4078C154.317 46.0937 154.326 45.7737 154.326 45.4478C154.326 44.5834 154.254 43.7301 154.11 42.8877C154.123 39.6568 154.153 36.0425 154.199 32.0457L154.2 32.0173L154.2 31.9889C154.322 26.691 154.447 23.0943 154.59 21.44C154.75 16.1501 155.865 11.3842 158.342 7.52869C161.085 3.19116 165.277 0.799805 170.431 0.799805C173.097 0.799805 175.704 1.37264 178.008 2.78264C180.322 4.19801 181.995 6.25183 183.114 8.6605C183.877 10.2549 184.466 12.0683 184.908 14.072C186.105 12.5703 187.348 11.1178 188.635 9.7149C193.414 4.50883 198.938 1.08781 205.183 1.08781C209.645 1.08781 213.499 2.87467 216.367 6.28464C219.22 9.53352 220.551 13.5188 220.551 17.8958C220.551 23.9465 217.918 29.402 213.439 34.1795C211.21 36.5589 208.658 38.629 205.806 40.4039C208.34 42.0847 210.677 43.9188 212.808 45.9109C217.575 50.3048 220.455 55.5833 220.455 61.6718C220.455 66.3998 219.134 70.8553 215.588 73.9716C212.476 76.7063 208.676 77.9998 204.511 77.9998C198.397 77.9998 193.016 75.1564 188.439 70.4299L188.411 70.4009ZM209.407 49.5758C206.867 47.1996 203.973 45.0463 200.725 43.116C198.899 42.0308 196.961 41.0161 194.911 40.0718C197.047 39.3154 199.04 38.4468 200.889 37.4661C204.36 35.6256 207.328 33.3902 209.791 30.7598C213.631 26.6638 215.551 22.3758 215.551 17.8958C215.551 14.5678 214.559 11.7838 212.575 9.54381C210.655 7.23981 208.191 6.08781 205.183 6.08781C200.895 6.08781 196.607 8.42381 192.319 13.0958C190.013 15.6079 187.856 18.2958 185.846 21.1595C184.738 22.7382 183.676 24.3703 182.658 26.0558C182.088 26.9991 181.533 27.9591 180.991 28.9358V26.0558C180.991 23.7703 180.902 21.6809 180.724 19.7874C180.368 16.0076 179.657 13.0091 178.591 10.7918C177.055 7.46381 174.335 5.7998 170.431 5.7998C167.039 5.7998 164.415 7.2718 162.559 10.2158C160.703 13.0958 159.711 16.9358 159.583 21.7358C159.455 23.0798 159.327 26.5358 159.199 32.1038C159.135 37.6078 159.103 42.3758 159.103 46.4078C159.103 52.1038 159.263 56.7118 159.583 60.2318C159.967 63.7518 160.927 66.7598 162.463 69.2558C164.063 71.7518 166.527 72.9998 169.855 72.9998C173.055 72.9998 175.455 72.0078 177.055 70.0238C178.655 67.9758 179.679 65.4158 180.127 62.3438C180.25 61.6083 180.358 60.8307 180.451 60.0108C180.747 57.4062 180.895 54.3759 180.895 50.9198C182.439 53.7601 184.007 56.3687 185.599 58.7456C187.702 61.8853 189.846 64.6207 192.031 66.9518C195.935 70.9838 200.095 72.9998 204.511 72.9998C207.583 72.9998 210.175 72.0718 212.287 70.2158C214.399 68.3598 215.455 65.5118 215.455 61.6718C215.455 57.3198 213.439 53.2878 209.407 49.5758Z" fill="white"/>
</g>
<g filter="url(#filter5_d_72_366)">
<path fill-rule="evenodd" clip-rule="evenodd" d="M159.112 42.5059C158.694 39.6552 157.669 36.9396 156.095 34.3912C153.917 30.7972 150.815 27.9975 146.973 25.9591C143.011 23.857 138.568 22.8799 133.782 22.8799C128.43 22.8799 123.474 24.1337 119.051 26.7402C115.091 29.0736 111.866 32.1593 109.438 35.9669C109.685 36.5174 109.868 37.0818 109.986 37.6601C109.991 37.6816 109.995 37.7032 109.999 37.7248C110.101 38.2401 110.151 38.7665 110.151 39.3039C110.151 41.3519 109.415 43.1759 107.943 44.7759C107.249 45.5339 106.437 46.1048 105.508 46.4887C105.28 47.9671 105.166 49.477 105.166 51.0159C105.166 56.0584 106.36 60.7492 108.826 64.9643L108.854 65.0127L108.883 65.0604C111.437 69.2098 114.991 72.4198 119.418 74.6723C123.872 76.9379 128.862 77.9999 134.262 77.9999C139.899 77.9999 144.953 77.3119 148.575 75.215L148.617 75.1906L148.659 75.1654C151.876 73.218 154.718 70.1332 154.718 65.7039C154.718 63.4566 153.943 61.3364 152.351 59.6921C156.238 56.9814 158.448 53.1091 159.111 48.5229C159.106 47.8354 159.103 47.1304 159.103 46.4079C159.103 46.0924 159.103 45.7724 159.104 45.4479C159.105 44.5053 159.108 43.5246 159.112 42.5059ZM147.122 56.9485C147.716 56.6615 148.293 56.348 148.854 56.0079C152.502 53.7679 154.326 50.2479 154.326 45.4479C154.326 42.5039 153.494 39.6879 151.83 36.9999C150.166 34.2479 147.766 32.0399 144.63 30.3759C141.494 28.7119 137.878 27.8799 133.782 27.8799C129.238 27.8799 125.174 28.9359 121.59 31.0479C118.006 33.1599 115.19 35.9759 113.142 39.4959C111.158 43.0159 110.166 46.8559 110.166 51.0159C110.166 55.2399 111.158 59.0479 113.142 62.4399C115.19 65.7679 118.038 68.3599 121.686 70.2159C125.334 72.0719 129.526 72.9999 134.262 72.9999C139.702 72.9999 143.638 72.2959 146.07 70.8879C148.502 69.4159 149.718 67.6879 149.718 65.7039C149.718 64.4879 149.27 63.5279 148.374 62.8239C148.103 62.5947 147.801 62.4027 147.469 62.2482C146.782 61.928 145.963 61.7679 145.014 61.7679C144.31 61.7679 143.574 61.8639 142.806 62.0559C140.758 62.5039 138.838 62.7279 137.046 62.7279C136.685 62.7279 136.333 62.7174 135.99 62.6966C132.121 62.4616 129.305 60.904 127.542 58.0239C129.846 58.8559 132.662 59.2719 135.99 59.2719C136.345 59.2719 136.697 59.2664 137.046 59.2553C138.772 59.2006 140.411 59.0103 141.963 58.6845C141.996 58.6774 142.03 58.6703 142.063 58.6631C143.085 58.4441 144.068 58.166 145.014 57.8288C145.739 57.5702 146.441 57.2767 147.122 56.9485ZM137.142 47.9439C138.23 47.3039 138.774 46.4719 138.774 45.4479C138.774 44.2959 138.294 43.3039 137.334 42.4719C136.438 41.6399 135.126 41.2239 133.398 41.2239C131.67 41.2239 130.294 41.7679 129.27 42.8559C128.31 43.8799 127.83 45.0319 127.83 46.3119C128.406 47.2079 129.174 47.8799 130.134 48.3279C131.158 48.7119 132.278 48.9039 133.494 48.9039C134.902 48.9039 136.118 48.5839 137.142 47.9439Z" fill="white"/>
</g>
<g filter="url(#filter6_d_72_366)">
<path fill-rule="evenodd" clip-rule="evenodd" d="M61.7662 47.4115C61.8407 55.3839 62.5258 62.0241 63.9606 67.1481L63.9689 67.1777L63.9775 67.2073C64.854 70.1952 66.2946 72.9498 68.6091 74.9682C71.0077 77.0601 73.9326 77.9999 77.0314 77.9999C80.8952 77.9999 84.6909 76.7621 87.1932 73.3841L87.2189 73.3493L87.2441 73.3141C89.0294 70.8146 90.0971 67.9899 90.447 64.9277C90.7324 62.4307 90.8634 59.4093 90.8634 55.9119C90.8634 53.9279 91.423 52.7475 92.2404 51.901C93.3047 50.8012 94.2386 50.4628 95.206 50.4484C95.2377 50.4536 95.302 50.4655 95.4027 50.4906C95.641 50.5502 95.9966 50.6624 96.4864 50.8583L96.5369 50.8785L96.5878 50.8976C97.2248 51.1364 97.9097 51.3636 98.6346 51.5811L98.695 51.5992L98.7558 51.6157C99.9105 51.9307 101.09 52.0799 102.279 52.0799C105.198 52.0799 107.945 51.2655 110.212 49.4741C110.261 48.6715 110.348 47.8812 110.473 47.1033C110.474 47.1009 110.474 47.0984 110.474 47.096C110.908 44.4156 111.797 41.8822 113.142 39.4959C113.179 39.4317 113.217 39.3677 113.255 39.3039C113.765 38.4452 114.321 37.629 114.924 36.8553C114.479 34.4983 113.396 32.3539 111.815 30.4744C109.915 28.0808 107.522 26.2259 104.722 24.9041C102.038 23.6066 99.2248 22.8799 96.3274 22.8799C93.3483 22.8799 90.4822 23.2528 87.7538 24.0323C86.8337 24.2952 85.9415 24.6091 85.0844 24.9788C84.613 24.5798 84.1026 24.2162 83.556 23.89C81.3306 22.5244 78.8411 21.9199 76.2634 21.9199C72.2298 21.9199 68.4245 23.2856 65.8479 26.682L65.8396 26.6929L65.8314 26.7039C65.3586 27.3343 64.934 27.9921 64.5553 28.6745C64.7492 30.0572 64.8461 31.4883 64.8461 32.9679C64.8461 33.9933 64.8121 34.9915 64.744 35.9627C64.7428 35.9803 64.7415 35.9979 64.7403 36.0155C64.4761 39.7126 63.7177 43.0167 62.4649 45.9279C62.247 46.4343 62.0141 46.9289 61.7662 47.4115ZM80.4533 27.8756C79.2282 27.2385 77.8316 26.9199 76.2634 26.9199C73.3834 26.9199 71.2394 27.8479 69.8314 29.7039C68.4874 31.4959 67.6234 33.7039 67.2394 36.3279C66.9194 38.8879 66.7594 42.0879 66.7594 45.9279C66.7594 54.3759 67.4314 60.9999 68.7754 65.7999C70.1834 70.5999 72.9354 72.9999 77.0314 72.9999C79.8474 72.9999 81.8954 72.1359 83.1754 70.4079C84.4554 68.6159 85.2234 66.5999 85.4794 64.3599C85.7354 62.1199 85.8634 59.3039 85.8634 55.9119C85.8634 52.8399 86.7914 50.3439 88.6474 48.4239C90.5674 46.4399 92.7754 45.4479 95.2714 45.4479C96.0394 45.4479 97.0634 45.7039 98.3434 46.2159C98.8554 46.4079 99.4314 46.5999 100.071 46.7919C100.775 46.9839 101.511 47.0799 102.279 47.0799C104.647 47.0799 106.535 46.3119 107.943 44.7759C109.415 43.1759 110.151 41.3519 110.151 39.3039C110.151 37.2559 109.415 35.3679 107.943 33.6399C106.535 31.8479 104.743 30.4399 102.567 29.4159C100.455 28.3919 98.3754 27.8799 96.3274 27.8799C93.7674 27.8799 91.3674 28.1999 89.1274 28.8399C88.7683 28.9425 88.4199 29.0534 88.0821 29.1724C86.3133 29.796 84.8377 30.6451 83.6554 31.7199C83.2714 30.1839 82.3754 28.9999 80.9674 28.1679C80.7995 28.064 80.6282 27.9666 80.4533 27.8756Z" fill="white"/>
</g>
<g filter="url(#filter7_d_72_366)">
<path fill-rule="evenodd" clip-rule="evenodd" d="M4.49149 65.5688L4.48435 65.5457C2.42837 58.8815 1.47815 50.6581 1.47815 41.0317C1.47815 34.3407 2.67854 27.9969 5.1153 22.0484L5.12099 22.0345L5.12677 22.0206C7.70527 15.8322 11.6627 10.7626 16.9827 6.93607C22.5112 2.89366 29.1193 0.991699 36.5261 0.991699C42.5002 0.991699 48.064 2.27116 53.1191 4.90631C58.2128 7.49702 62.2869 11.2624 65.2613 16.1339C67.8359 20.2621 69.2956 24.8691 69.7171 29.8586C69.0445 30.7864 68.4971 31.8227 68.0751 32.9677C67.6948 33.9995 67.4162 35.1195 67.2394 36.3277C66.9194 38.8877 66.7594 42.0877 66.7594 45.9277C66.7594 46.814 66.7668 47.6802 66.7816 48.5264C66.3678 49.4297 65.91 50.3078 65.4068 51.1593C62.4812 56.1103 58.5847 59.9454 53.6994 62.4668C49.0306 64.8765 44.0533 66.0957 38.8302 66.0957C37.3366 66.0957 35.8712 66.0044 34.4368 65.8188C34.1452 69.0291 33.0379 72.0878 30.6041 74.4234C27.746 77.166 23.9025 78.0957 20.0142 78.0957C16.3667 78.0957 12.9785 77.0218 10.1758 74.6696C7.44766 72.3799 5.64879 69.195 4.49885 65.5919L4.49149 65.5688ZM29.4995 64.7652C29.5119 64.508 29.5182 64.2448 29.5182 63.9757C29.5182 62.8877 29.3262 61.3197 28.9422 59.2717C30.6227 59.9511 32.3932 60.4407 34.2535 60.7405C35.723 60.9773 37.2485 61.0957 38.8302 61.0957C43.2462 61.0957 47.4381 60.0717 51.4062 58.0237C55.3741 55.9757 58.6061 52.8397 61.1021 48.6157C63.5982 44.3917 64.8461 39.1757 64.8461 32.9677C64.8461 27.5917 63.5662 22.8557 61.0062 18.7597C58.5102 14.6637 55.1181 11.5277 50.8302 9.3517C46.5421 7.1117 41.7742 5.9917 36.5261 5.9917C29.9981 5.9917 24.4622 7.6557 19.9181 10.9837C15.3742 14.2477 11.9821 18.5677 9.74215 23.9437C7.56615 29.2557 6.47815 34.9517 6.47815 41.0317C6.47815 50.3757 7.40615 58.0557 9.26215 64.0717C11.1821 70.0877 14.7662 73.0957 20.0142 73.0957C26.0697 73.0957 29.2315 70.3189 29.4995 64.7652ZM39.902 35.3519L39.8366 35.2839C39.0715 34.4894 38.3698 34.2237 37.4861 34.2237C36.6994 34.2237 35.9539 34.467 35.0697 35.3512L35.0363 35.3846L35.0024 35.4173C34.2079 36.1824 33.9422 36.8841 33.9422 37.7677C33.9422 38.5445 34.1793 39.281 35.0364 40.1506C35.8914 40.9617 36.6483 41.2157 37.4861 41.2157C38.4326 41.2157 39.1538 40.933 39.9026 40.1842C40.7869 39.2999 41.0301 38.5544 41.0301 37.7677C41.0301 36.8841 40.7644 36.1824 39.9699 35.4173L39.902 35.3519ZM31.5342 43.7197C29.8062 41.9917 28.9422 40.0077 28.9422 37.7677C28.9422 35.4637 29.8062 33.4797 31.5342 31.8157C33.2622 30.0877 35.2462 29.2237 37.4861 29.2237C39.7901 29.2237 41.7741 30.0877 43.4381 31.8157C45.1661 33.4797 46.0301 35.4637 46.0301 37.7677C46.0301 40.0077 45.1661 41.9917 43.4381 43.7197C41.7741 45.3837 39.7901 46.2157 37.4861 46.2157C35.2462 46.2157 33.2622 45.3837 31.5342 43.7197Z" fill="white"/>
</g>
<defs>
<filter id="filter0_d_72_366" x="158.103" y="5.7998" width="58.448" height="69.2002" filterUnits="userSpaceOnUse" color-interpolation-filters="sRGB">
<feFlood flood-opacity="0" result="BackgroundImageFix"/>
<feColorMatrix in="SourceAlpha" type="matrix" values="0 0 0 0 0 0 0 0 0 0 0 0 0 0 0 0 0 0 127 0" result="hardAlpha"/>
<feOffset dy="1"/>
<feGaussianBlur stdDeviation="0.5"/>
<feComposite in2="hardAlpha" operator="out"/>
<feColorMatrix type="matrix" values="0 0 0 0 0 0 0 0 0 0 0 0 0 0 0 0 0 0 0.25 0"/>
<feBlend mode="normal" in2="BackgroundImageFix" result="effect1_dropShadow_72_366"/>
<feBlend mode="normal" in="SourceGraphic" in2="effect1_dropShadow_72_366" result="shape"/>
</filter>
<filter id="filter1_d_72_366" x="109.166" y="27.8799" width="46.16" height="47.1201" filterUnits="userSpaceOnUse" color-interpolation-filters="sRGB">
<feFlood flood-opacity="0" result="BackgroundImageFix"/>
<feColorMatrix in="SourceAlpha" type="matrix" values="0 0 0 0 0 0 0 0 0 0 0 0 0 0 0 0 0 0 127 0" result="hardAlpha"/>
<feOffset dy="1"/>
<feGaussianBlur stdDeviation="0.5"/>
<feComposite in2="hardAlpha" operator="out"/>
<feColorMatrix type="matrix" values="0 0 0 0 0 0 0 0 0 0 0 0 0 0 0 0 0 0 0.25 0"/>
<feBlend mode="normal" in2="BackgroundImageFix" result="effect1_dropShadow_72_366"/>
<feBlend mode="normal" in="SourceGraphic" in2="effect1_dropShadow_72_366" result="shape"/>
</filter>
<filter id="filter2_d_72_366" x="65.7594" y="26.9199" width="45.392" height="48.0801" filterUnits="userSpaceOnUse" color-interpolation-filters="sRGB">
<feFlood flood-opacity="0" result="BackgroundImageFix"/>
<feColorMatrix in="SourceAlpha" type="matrix" values="0 0 0 0 0 0 0 0 0 0 0 0 0 0 0 0 0 0 127 0" result="hardAlpha"/>
<feOffset dy="1"/>
<feGaussianBlur stdDeviation="0.5"/>
<feComposite in2="hardAlpha" operator="out"/>
<feColorMatrix type="matrix" values="0 0 0 0 0 0 0 0 0 0 0 0 0 0 0 0 0 0 0.25 0"/>
<feBlend mode="normal" in2="BackgroundImageFix" result="effect1_dropShadow_72_366"/>
<feBlend mode="normal" in="SourceGraphic" in2="effect1_dropShadow_72_366" result="shape"/>
</filter>
<filter id="filter3_d_72_366" x="5.47815" y="5.9917" width="60.368" height="69.104" filterUnits="userSpaceOnUse" color-interpolation-filters="sRGB">
<feFlood flood-opacity="0" result="BackgroundImageFix"/>
<feColorMatrix in="SourceAlpha" type="matrix" values="0 0 0 0 0 0 0 0 0 0 0 0 0 0 0 0 0 0 127 0" result="hardAlpha"/>
<feOffset dy="1"/>
<feGaussianBlur stdDeviation="0.5"/>
<feComposite in2="hardAlpha" operator="out"/>
<feColorMatrix type="matrix" values="0 0 0 0 0 0 0 0 0 0 0 0 0 0 0 0 0 0 0.25 0"/>
<feBlend mode="normal" in2="BackgroundImageFix" result="effect1_dropShadow_72_366"/>
<feBlend mode="normal" in="SourceGraphic" in2="effect1_dropShadow_72_366" result="shape"/>
</filter>
<filter id="filter4_d_72_366" x="153.108" y="0.799805" width="68.4428" height="79.2002" filterUnits="userSpaceOnUse" color-interpolation-filters="sRGB">
<feFlood flood-opacity="0" result="BackgroundImageFix"/>
<feColorMatrix in="SourceAlpha" type="matrix" values="0 0 0 0 0 0 0 0 0 0 0 0 0 0 0 0 0 0 127 0" result="hardAlpha"/>
<feOffset dy="1"/>
<feGaussianBlur stdDeviation="0.5"/>
<feComposite in2="hardAlpha" operator="out"/>
<feColorMatrix type="matrix" values="0 0 0 0 0 0 0 0 0 0 0 0 0 0 0 0 0 0 0.25 0"/>
<feBlend mode="normal" in2="BackgroundImageFix" result="effect1_dropShadow_72_366"/>
<feBlend mode="normal" in="SourceGraphic" in2="effect1_dropShadow_72_366" result="shape"/>
</filter>
<filter id="filter5_d_72_366" x="104.166" y="22.8799" width="55.9465" height="57.1201" filterUnits="userSpaceOnUse" color-interpolation-filters="sRGB">
<feFlood flood-opacity="0" result="BackgroundImageFix"/>
<feColorMatrix in="SourceAlpha" type="matrix" values="0 0 0 0 0 0 0 0 0 0 0 0 0 0 0 0 0 0 127 0" result="hardAlpha"/>
<feOffset dy="1"/>
<feGaussianBlur stdDeviation="0.5"/>
<feComposite in2="hardAlpha" operator="out"/>
<feColorMatrix type="matrix" values="0 0 0 0 0 0 0 0 0 0 0 0 0 0 0 0 0 0 0.25 0"/>
<feBlend mode="normal" in2="BackgroundImageFix" result="effect1_dropShadow_72_366"/>
<feBlend mode="normal" in="SourceGraphic" in2="effect1_dropShadow_72_366" result="shape"/>
</filter>
<filter id="filter6_d_72_366" x="60.7662" y="21.9199" width="55.158" height="58.0801" filterUnits="userSpaceOnUse" color-interpolation-filters="sRGB">
<feFlood flood-opacity="0" result="BackgroundImageFix"/>
<feColorMatrix in="SourceAlpha" type="matrix" values="0 0 0 0 0 0 0 0 0 0 0 0 0 0 0 0 0 0 127 0" result="hardAlpha"/>
<feOffset dy="1"/>
<feGaussianBlur stdDeviation="0.5"/>
<feComposite in2="hardAlpha" operator="out"/>
<feColorMatrix type="matrix" values="0 0 0 0 0 0 0 0 0 0 0 0 0 0 0 0 0 0 0.25 0"/>
<feBlend mode="normal" in2="BackgroundImageFix" result="effect1_dropShadow_72_366"/>
<feBlend mode="normal" in="SourceGraphic" in2="effect1_dropShadow_72_366" result="shape"/>
</filter>
<filter id="filter7_d_72_366" x="0.478149" y="0.991699" width="70.239" height="79.104" filterUnits="userSpaceOnUse" color-interpolation-filters="sRGB">
<feFlood flood-opacity="0" result="BackgroundImageFix"/>
<feColorMatrix in="SourceAlpha" type="matrix" values="0 0 0 0 0 0 0 0 0 0 0 0 0 0 0 0 0 0 127 0" result="hardAlpha"/>
<feOffset dy="1"/>
<feGaussianBlur stdDeviation="0.5"/>
<feComposite in2="hardAlpha" operator="out"/>
<feColorMatrix type="matrix" values="0 0 0 0 0 0 0 0 0 0 0 0 0 0 0 0 0 0 0.25 0"/>
<feBlend mode="normal" in2="BackgroundImageFix" result="effect1_dropShadow_72_366"/>
<feBlend mode="normal" in="SourceGraphic" in2="effect1_dropShadow_72_366" result="shape"/>
</filter>
</defs>
</svg>
