<svg width="5187" height="680" viewBox="0 0 5187 680" fill="none" xmlns="http://www.w3.org/2000/svg">
<g clip-path="url(#clip0_5413_126207)">
<path d="M-5 0H5187V555H-5V0Z" fill="#00A0FD"/>
<ellipse cx="1776" cy="555.5" rx="118" ry="124.5" fill="white"/>
<ellipse cx="1868.5" cy="485.5" rx="88.5" ry="93.5" fill="white"/>
<ellipse cx="2045" cy="420" rx="176" ry="185" fill="white"/>
<ellipse cx="2264.5" cy="493.5" rx="137.5" ry="144.5" fill="white"/>
<ellipse cx="2433.52" cy="488.5" rx="100" ry="105.5" fill="white"/>
<ellipse cx="2546.52" cy="517" rx="93" ry="98" fill="white"/>
<ellipse cx="2734.02" cy="517.5" rx="114.5" ry="120.5" fill="white"/>
<ellipse cx="2856.52" cy="546" rx="78" ry="82" fill="white"/>
<ellipse cx="3003.52" cy="615" rx="113" ry="119" fill="white"/>
<ellipse cx="3116.02" cy="622.5" rx="72.5" ry="76.5" fill="white"/>
<ellipse cx="3209" cy="590.5" rx="66" ry="69.5" fill="white"/>
<ellipse cx="3348" cy="534.5" rx="98" ry="103.5" fill="white"/>
<ellipse cx="3348" cy="534.5" rx="98" ry="103.5" fill="white"/>
<ellipse cx="3459.5" cy="544.5" rx="69.5" ry="73.5" fill="white"/>
<rect x="3" y="562" width="5188" height="362" fill="white"/>
<ellipse cx="118" cy="124.5" rx="118" ry="124.5" transform="matrix(-1 0 0 1 1858 417)" fill="white"/>
<ellipse cx="88.5" cy="93.5" rx="88.5" ry="93.5" transform="matrix(-1 0 0 1 1711 392)" fill="white"/>
<ellipse cx="176" cy="185" rx="176" ry="185" transform="matrix(-1 0 0 1 1620 417)" fill="white"/>
<ellipse cx="176" cy="185" rx="176" ry="185" transform="matrix(-1 0 0 1 4796 417)" fill="white"/>
<ellipse cx="137.5" cy="144.5" rx="137.5" ry="144.5" transform="matrix(-1 0 0 1 1358 420)" fill="white"/>
<ellipse cx="137.5" cy="144.5" rx="137.5" ry="144.5" transform="matrix(-1 0 0 1 4518.52 410)" fill="white"/>
<ellipse cx="100" cy="105.5" rx="100" ry="105.5" transform="matrix(-1 0 0 1 1157.48 383)" fill="white"/>
<ellipse cx="100" cy="105.5" rx="100" ry="105.5" transform="matrix(-1 0 0 1 4312 444)" fill="white"/>
<ellipse cx="93" cy="98" rx="93" ry="98" transform="matrix(-1 0 0 1 1037.48 419)" fill="white"/>
<ellipse cx="93" cy="98" rx="93" ry="98" transform="matrix(-1 0 0 1 4192 480)" fill="white"/>
<ellipse cx="114.5" cy="120.5" rx="114.5" ry="120.5" transform="matrix(-1 0 0 1 869 397)" fill="white"/>
<ellipse cx="114.5" cy="120.5" rx="114.5" ry="120.5" transform="matrix(-1 0 0 1 3689 496)" fill="white"/>
<ellipse cx="114.5" cy="120.5" rx="114.5" ry="120.5" transform="matrix(-1 0 0 1 3897 435)" fill="white"/>
<ellipse cx="114.5" cy="120.5" rx="114.5" ry="120.5" transform="matrix(-1 0 0 1 4057 459)" fill="white"/>
<ellipse cx="78" cy="82" rx="78" ry="82" transform="matrix(-1 0 0 1 712.482 464)" fill="white"/>
<ellipse cx="78" cy="82" rx="78" ry="82" transform="matrix(-1 0 0 1 712 464)" fill="white"/>
<ellipse cx="78" cy="82" rx="78" ry="82" transform="matrix(-1 0 0 1 4908 472)" fill="white"/>
<ellipse cx="78" cy="82" rx="78" ry="82" transform="matrix(-1 0 0 1 5090 496)" fill="white"/>
<ellipse cx="78" cy="82" rx="78" ry="82" transform="matrix(-1 0 0 1 4978 496)" fill="white"/>
<ellipse cx="113" cy="119" rx="113" ry="119" transform="matrix(-1 0 0 1 600.482 496)" fill="white"/>
<ellipse cx="72.5" cy="76.5" rx="72.5" ry="76.5" transform="matrix(-1 0 0 1 447.482 546)" fill="white"/>
<ellipse cx="66" cy="69.5" rx="66" ry="69.5" transform="matrix(-1 0 0 1 348 521)" fill="white"/>
<ellipse cx="98" cy="103.5" rx="98" ry="103.5" transform="matrix(-1 0 0 1 283 459)" fill="white"/>
<ellipse cx="69.5" cy="73.5" rx="69.5" ry="73.5" transform="matrix(-1 0 0 1 139 471)" fill="white"/>
<ellipse cx="69.5" cy="73.5" rx="69.5" ry="73.5" transform="matrix(-1 0 0 1 5187 471)" fill="white"/>
</g>
<defs>
<clipPath id="clip0_5413_126207">
<rect width="5187" height="680" fill="white"/>
</clipPath>
</defs>
</svg>
