<svg width="151" height="156" viewBox="0 0 151 156" fill="none" xmlns="http://www.w3.org/2000/svg">
<g id="Group">
<g id="image">
<path id="Vector" d="M138.793 76.5539C138.348 74.4586 136.843 72.7465 134.814 72.0328C125.338 68.6858 97.9477 59.0177 89.2357 55.9415C87.5781 55.3544 85.7297 55.727 84.4326 56.9118C77.5301 63.2084 55.6034 83.1986 48.0329 90.0999C46.4213 91.5694 45.7109 93.7738 46.1633 95.9043L57.8936 151.122C58.5969 154.44 61.8697 156.564 65.206 155.868L145.752 139.098C147.357 138.764 148.764 137.808 149.661 136.44C150.559 135.073 150.87 133.406 150.531 131.81L138.793 76.5539Z" fill="url(#paint0_linear_2233_46917)"/>
<path id="Vector_2" d="M133.867 68.823C133.772 67.1883 132.362 65.9402 130.715 66.0351L57.8976 70.261C57.1094 70.3067 56.3672 70.6617 55.8442 71.2524C55.3176 71.843 55.049 72.613 55.0949 73.4005L57.8835 120.497C57.9365 121.414 58.4171 122.254 59.1841 122.775C59.9475 123.292 60.9123 123.429 61.7924 123.14C87.4301 114.872 110.59 116.2 133.288 119.305C134.171 119.428 135.065 119.147 135.719 118.545C136.376 117.941 136.726 117.079 136.673 116.193C136.08 106.142 134.415 78.0341 133.867 68.8266V68.823Z" fill="url(#paint1_linear_2233_46917)"/>
<g id="Clip path group">
<mask id="mask0_2233_46917" style="mask-type:luminance" maskUnits="userSpaceOnUse" x="55" y="66" width="82" height="58">
<g id="clippath">
<path id="Vector_3" d="M133.868 68.823C133.773 67.1883 132.363 65.9402 130.716 66.0351L57.8986 70.261C57.1104 70.3067 56.3682 70.6617 55.8451 71.2524C55.3185 71.843 55.0499 72.613 55.0959 73.4005L57.8844 120.497C57.9374 121.414 58.4181 122.254 59.185 122.775C59.9485 123.292 60.9133 123.429 61.7934 123.14C87.4311 114.872 110.591 116.2 133.288 119.305C134.172 119.428 135.066 119.147 135.72 118.545C136.377 117.941 136.727 117.079 136.674 116.193C136.081 106.142 134.416 78.0341 133.868 68.8266V68.823Z" fill="white"/>
</g>
</mask>
<g mask="url(#mask0_2233_46917)">
<g id="Group_2">
<g id="Group_3">
<path id="Vector_4" style="mix-blend-mode:multiply" d="M72.6197 67.4729C76.928 72.2507 76.2424 79.8165 71.0894 84.3658C65.9364 88.9151 58.267 88.7322 53.9622 83.9544C49.6539 79.1766 50.3396 71.6109 55.4926 67.0616C60.6456 62.5087 68.315 62.6951 72.6197 67.4729Z" fill="url(#paint2_radial_2233_46917)"/>
</g>
</g>
</g>
</g>
<path id="Vector_5" d="M106.194 93.6157C101.313 94.1747 96.8812 90.6801 96.3193 85.8215C95.7573 80.9628 99.2704 76.5576 104.151 75.9986C106.138 75.7701 108.092 76.1955 109.796 77.2256C110.651 77.7424 110.919 78.8499 110.403 79.6971C109.884 80.5479 108.771 80.8151 107.919 80.3018C106.908 79.6901 105.749 79.437 104.568 79.5741C101.67 79.9081 99.5814 82.5238 99.9172 85.4066C100.253 88.2895 102.882 90.3672 105.781 90.0333C108.05 89.7731 109.82 88.1137 110.326 86.0254L106.608 86.4508C105.614 86.5633 104.717 85.8566 104.604 84.8687C104.491 83.8808 105.201 82.9878 106.194 82.8753L112.026 82.2073C113.019 82.0948 113.917 82.8015 114.03 83.7894C114.592 88.6446 111.078 93.0532 106.198 93.6122L106.194 93.6157Z" fill="#00B2EF"/>
<path id="Vector_6" d="M82.6367 96.9451C81.6966 97.0541 80.8237 96.4177 80.6505 95.4791C80.5126 94.7126 79.2968 87.8957 79.7245 84.6332V84.598C80.1097 81.0718 82.9548 78.2205 86.5033 77.8127C90.7197 77.3311 94.5473 80.3475 95.0315 84.5418C95.2966 86.8234 94.5155 88.9926 93.0735 90.5712L95.7808 91.1161C96.7598 91.313 97.3924 92.2622 97.1945 93.236C96.9966 94.2099 96.0423 94.8427 95.0633 94.6423L87.2561 93.0743C86.4008 92.9021 85.7893 92.1462 85.807 91.2778C85.8211 90.4094 86.4573 89.6747 87.3161 89.534L87.7544 89.4602C87.7862 89.4532 87.8145 89.4496 87.8463 89.4461C90.08 89.1895 91.6881 87.175 91.4336 84.9496C91.1791 82.7241 89.1504 81.128 86.9132 81.3847C85.0259 81.6026 83.5168 83.1214 83.3224 84.9953C83.3224 85.0199 83.3189 85.041 83.3118 85.0621L83.3047 85.1113C83.0078 87.3859 83.8525 92.8985 84.206 94.8286C84.3827 95.806 83.7324 96.7447 82.7498 96.9205C82.711 96.9275 82.6721 96.9345 82.6332 96.9381L82.6367 96.9451Z" fill="#034EA1"/>
<path id="Vector_7" d="M98.6681 101.519C98.502 101.537 98.3288 101.519 98.1662 101.456C92.2074 99.1424 83.3717 102.7 83.2833 102.739C82.7673 102.95 82.17 102.718 81.9544 102.222C81.7388 101.726 81.9827 101.153 82.5022 100.942C82.8875 100.784 91.7868 97.2053 98.4701 99.4729C100.16 98.5729 106.295 95.7427 114.268 97.3775C114.816 97.49 115.163 98.0068 115.042 98.5342C114.922 99.0615 114.378 99.399 113.83 99.2865C105.429 97.5638 99.1664 101.333 99.1028 101.371C98.972 101.452 98.8236 101.501 98.6716 101.519H98.6681Z" fill="#6D6D64"/>
<g id="Clip path group_2">
<mask id="mask1_2233_46917" style="mask-type:luminance" maskUnits="userSpaceOnUse" x="81" y="96" width="35" height="7">
<g id="clippath-1">
<path id="Vector_8" d="M98.6671 101.519C98.501 101.537 98.3278 101.519 98.1652 101.456C92.2064 99.1424 83.3707 102.7 83.2823 102.739C82.7663 102.95 82.169 102.718 81.9534 102.222C81.7378 101.726 81.9817 101.153 82.5012 100.942C82.8865 100.784 91.7858 97.2053 98.4692 99.4729C100.159 98.5729 106.294 95.7427 114.267 97.3775C114.815 97.49 115.162 98.0068 115.041 98.5342C114.921 99.0615 114.377 99.399 113.829 99.2865C105.428 97.5638 99.1654 101.333 99.1018 101.371C98.971 101.452 98.8226 101.501 98.6706 101.519H98.6671Z" fill="white"/>
</g>
</mask>
<g mask="url(#mask1_2233_46917)">
<g id="Group_4">
<path id="Vector_9" d="M83.8232 98.8738L81.4321 99.1477L82.0496 104.481L84.4407 104.207L83.8232 98.8738Z" fill="#00ADEE"/>
<path id="Vector_10" d="M86.1205 98.6103L83.7295 98.8843L84.3474 104.221L86.7384 103.947L86.1205 98.6103Z" fill="#8BC44E"/>
<path id="Vector_11" d="M88.4209 98.3459L86.0298 98.6194L86.6467 103.956L89.0378 103.683L88.4209 98.3459Z" fill="#F9A51A"/>
<path id="Vector_12" d="M90.7231 98.083L88.332 98.3569L88.9499 103.694L91.341 103.42L90.7231 98.083Z" fill="#F18295"/>
<path id="Vector_13" d="M92.9448 97.8318L90.5537 98.1057L91.1716 103.442L93.5627 103.168L92.9448 97.8318Z" fill="#93938A"/>
</g>
</g>
</g>
<path id="Vector_14" d="M98.314 98.302C98.2681 98.3055 98.2221 98.302 98.1762 98.288C91.4222 95.9957 82.3496 99.638 81.9644 99.7927C81.8018 99.8595 81.618 99.7821 81.5544 99.6204C81.4873 99.4587 81.565 99.2759 81.7276 99.2091C81.9891 99.1036 84.3748 98.1508 87.5698 97.5004C91.7614 96.6496 95.3558 96.6989 98.2504 97.6481C100.173 96.6426 106.482 93.8617 114.6 95.5246C114.77 95.5598 114.879 95.725 114.844 95.8938C114.809 96.0625 114.642 96.1715 114.469 96.1364C106.379 94.4769 100.145 97.3422 98.4271 98.2598C98.3918 98.2774 98.3529 98.2915 98.314 98.295V98.302Z" fill="#939280"/>
<g id="Clip path group_3">
<mask id="mask2_2233_46917" style="mask-type:luminance" maskUnits="userSpaceOnUse" x="46" y="55" width="105" height="101">
<g id="clippath-2">
<path id="Vector_15" d="M138.794 76.5539C138.349 74.4586 136.844 72.7465 134.815 72.0328C125.339 68.6858 97.9487 59.0177 89.2366 55.9415C87.5791 55.3544 85.7306 55.727 84.4335 56.9118C77.5311 63.2084 55.6044 83.1986 48.0339 90.0999C46.4223 91.5694 45.7119 93.7738 46.1643 95.9043L57.8946 151.122C58.5979 154.44 61.8707 156.564 65.207 155.868L145.753 139.098C147.358 138.764 148.765 137.808 149.662 136.44C150.56 135.073 150.871 133.406 150.532 131.81L138.794 76.5539Z" fill="white"/>
</g>
</mask>
<g mask="url(#mask2_2233_46917)">
<g id="Group_5">
<path id="Vector_16" d="M58.2285 164.165L157.189 141.338L143.808 76.0442L100.393 112.393L42.8296 95.0359L58.2285 164.165Z" fill="url(#paint3_linear_2233_46917)"/>
<g id="Clip path group_4">
<mask id="mask3_2233_46917" style="mask-type:luminance" maskUnits="userSpaceOnUse" x="42" y="76" width="116" height="89">
<g id="clippath-3">
<path id="Vector_17" d="M58.2285 164.165L157.189 141.338L143.808 76.0442L100.393 112.393L42.8296 95.0359L58.2285 164.165Z" fill="white"/>
</g>
</mask>
<g mask="url(#mask3_2233_46917)">
<g id="Group_6">
<g id="Group_7">
<path id="Vector_18" d="M46.9458 167.628L100.388 112.382L184.691 146.316L46.9458 167.628Z" fill="url(#paint4_linear_2233_46917)"/>
</g>
</g>
</g>
</g>
<path id="Vector_19" d="M114.978 183.287H114.964C114.6 183.269 114.236 183.223 113.879 183.16C113.815 183.15 113.755 183.114 113.72 183.058C113.681 183.002 113.667 182.939 113.678 182.872C113.702 182.738 113.833 182.647 113.967 182.671C114.303 182.731 114.646 182.773 114.992 182.791C115.123 182.798 115.229 182.907 115.229 183.041V183.055C115.222 183.185 115.113 183.29 114.978 183.29V183.287ZM116.622 183.216C116.498 183.216 116.392 183.125 116.374 183.002C116.364 182.939 116.381 182.872 116.42 182.819C116.459 182.766 116.519 182.731 116.586 182.724C116.926 182.678 117.265 182.608 117.594 182.52C117.615 182.513 117.636 182.513 117.657 182.513C117.77 182.513 117.869 182.587 117.898 182.696C117.905 182.717 117.908 182.738 117.908 182.759C117.908 182.872 117.834 182.974 117.724 183.002C117.375 183.097 117.014 183.167 116.654 183.22C116.643 183.22 116.629 183.22 116.618 183.22L116.622 183.216ZM112.335 182.738C112.31 182.738 112.282 182.735 112.26 182.728C112.031 182.654 111.794 182.58 111.55 182.503L111.246 182.408C111.182 182.387 111.129 182.345 111.101 182.285C111.069 182.225 111.066 182.158 111.083 182.095C111.115 181.993 111.211 181.923 111.32 181.923C111.345 181.923 111.373 181.926 111.394 181.933L111.663 182.018C111.918 182.098 112.169 182.176 112.409 182.253C112.515 182.288 112.586 182.383 112.582 182.492C112.582 182.517 112.578 182.541 112.571 182.566C112.54 182.668 112.444 182.738 112.335 182.738ZM119.202 182.432C119.106 182.432 119.018 182.38 118.979 182.295C118.951 182.236 118.944 182.169 118.968 182.105C118.99 182.042 119.036 181.993 119.096 181.965C119.403 181.817 119.704 181.645 119.99 181.459C120.029 181.434 120.078 181.42 120.124 181.42C120.209 181.42 120.287 181.462 120.333 181.532C120.357 181.571 120.372 181.617 120.372 181.666C120.372 181.75 120.329 181.831 120.258 181.877C119.955 182.074 119.636 182.253 119.311 182.415C119.276 182.432 119.241 182.439 119.202 182.439V182.432ZM109.744 181.919C109.719 181.919 109.695 181.919 109.67 181.909H109.663C109.334 181.803 108.998 181.698 108.655 181.589C108.525 181.546 108.45 181.406 108.493 181.276C108.525 181.174 108.62 181.103 108.73 181.103C108.754 181.103 108.783 181.107 108.804 181.114C108.995 181.174 109.186 181.234 109.369 181.293C109.521 181.339 109.67 181.388 109.815 181.434C109.917 181.469 109.988 181.564 109.988 181.673C109.988 181.698 109.984 181.722 109.977 181.747C109.945 181.849 109.85 181.919 109.74 181.919H109.744ZM107.157 181.1C107.132 181.1 107.107 181.096 107.083 181.089C107.083 181.089 107.076 181.089 107.072 181.086C106.743 180.98 106.408 180.875 106.068 180.769C105.938 180.727 105.863 180.587 105.906 180.457C105.938 180.355 106.033 180.284 106.143 180.284C106.167 180.284 106.192 180.288 106.217 180.295L106.397 180.351C106.68 180.443 106.955 180.527 107.228 180.615C107.334 180.65 107.404 180.745 107.401 180.854C107.401 180.878 107.397 180.903 107.39 180.928C107.358 181.03 107.263 181.1 107.153 181.1H107.157ZM121.414 180.896C121.344 180.896 121.276 180.864 121.227 180.812C121.135 180.71 121.142 180.552 121.245 180.46C121.414 180.309 121.591 180.154 121.771 179.993L122.04 179.753C122.139 179.666 122.301 179.676 122.39 179.775C122.432 179.82 122.453 179.88 122.453 179.943C122.453 180.014 122.421 180.08 122.368 180.126C122.093 180.369 121.831 180.604 121.577 180.829C121.531 180.871 121.471 180.893 121.411 180.893L121.414 180.896ZM104.573 180.281C104.549 180.281 104.52 180.277 104.496 180.27C104.22 180.182 103.944 180.094 103.665 180.007L103.485 179.95C103.421 179.929 103.368 179.887 103.34 179.827C103.308 179.768 103.305 179.701 103.322 179.637C103.354 179.535 103.449 179.465 103.559 179.465C103.584 179.465 103.608 179.469 103.633 179.476C103.962 179.581 104.291 179.683 104.612 179.785L104.644 179.796C104.75 179.827 104.821 179.926 104.817 180.035C104.817 180.059 104.814 180.084 104.807 180.109C104.775 180.21 104.679 180.281 104.57 180.281H104.573ZM101.986 179.462C101.961 179.462 101.933 179.458 101.912 179.451L100.898 179.131C100.767 179.089 100.693 178.948 100.735 178.818C100.767 178.716 100.866 178.646 100.972 178.646C100.997 178.646 101.021 178.65 101.046 178.657L102.057 178.976C102.163 179.008 102.234 179.103 102.23 179.216C102.23 179.24 102.227 179.265 102.219 179.289C102.184 179.391 102.089 179.462 101.983 179.462H101.986ZM123.439 179.096C123.369 179.096 123.302 179.068 123.252 179.015C123.16 178.913 123.171 178.755 123.273 178.664C123.531 178.435 123.796 178.2 124.065 177.96C124.164 177.873 124.33 177.883 124.418 177.982C124.461 178.027 124.482 178.087 124.482 178.15C124.482 178.221 124.45 178.287 124.401 178.333C124.129 178.572 123.863 178.808 123.605 179.036C123.56 179.078 123.499 179.1 123.439 179.1V179.096ZM99.3991 178.642C99.3744 178.642 99.3496 178.639 99.3249 178.632L98.9185 178.502C98.717 178.439 98.5156 178.375 98.3141 178.312C98.2505 178.291 98.1975 178.249 98.1692 178.189C98.1374 178.129 98.1339 178.062 98.1515 177.999C98.1833 177.897 98.2823 177.827 98.3883 177.827C98.4131 177.827 98.4378 177.83 98.4625 177.837C98.6569 177.901 98.8513 177.96 99.0457 178.02L99.4769 178.157C99.5829 178.189 99.6536 178.284 99.6501 178.396C99.6501 178.421 99.6465 178.446 99.6395 178.47C99.6077 178.572 99.5122 178.642 99.4027 178.642H99.3991ZM96.812 177.823C96.7873 177.823 96.7625 177.82 96.7378 177.813L96.2819 177.669C96.0981 177.609 95.9108 177.553 95.727 177.493C95.5962 177.451 95.522 177.31 95.5644 177.18C95.5962 177.078 95.6917 177.008 95.8012 177.008C95.826 177.008 95.8507 177.011 95.8754 177.018L96.1935 177.12C96.4233 177.194 96.6565 177.268 96.8862 177.342C96.9923 177.373 97.063 177.468 97.0594 177.581C97.0594 177.605 97.0559 177.63 97.0488 177.655C97.017 177.757 96.9216 177.827 96.812 177.827V177.823ZM125.464 177.299C125.394 177.299 125.327 177.268 125.277 177.215C125.185 177.113 125.196 176.955 125.298 176.864L125.563 176.632C125.737 176.477 125.913 176.319 126.094 176.16C126.193 176.073 126.359 176.083 126.443 176.182C126.486 176.227 126.507 176.287 126.507 176.35C126.507 176.421 126.475 176.487 126.422 176.533L125.627 177.236C125.581 177.278 125.521 177.299 125.461 177.299H125.464ZM94.2285 177.004C94.2037 177.004 94.1754 177.001 94.1507 176.994L93.8892 176.909C93.6382 176.828 93.3908 176.751 93.1399 176.67C93.0091 176.628 92.9349 176.487 92.9773 176.357C93.0091 176.255 93.1081 176.185 93.2141 176.185C93.2389 176.185 93.2671 176.189 93.2883 176.196C93.4509 176.248 93.6135 176.298 93.7761 176.35C93.9528 176.407 94.126 176.463 94.2991 176.515C94.4052 176.547 94.4759 176.642 94.4723 176.755C94.4723 176.779 94.4688 176.804 94.4617 176.828C94.4264 176.93 94.331 177.001 94.2249 177.001L94.2285 177.004ZM91.6484 176.185C91.6237 176.185 91.5954 176.182 91.5742 176.174C91.2385 176.069 90.8992 175.96 90.5634 175.855C90.4998 175.833 90.4468 175.791 90.4185 175.731C90.3867 175.672 90.3832 175.605 90.4008 175.542C90.4326 175.44 90.5281 175.369 90.6376 175.369C90.6624 175.369 90.6871 175.373 90.7118 175.38C90.8815 175.433 91.0511 175.489 91.2208 175.542C91.3869 175.594 91.5565 175.647 91.7226 175.7C91.8287 175.731 91.8958 175.826 91.8958 175.939C91.8958 175.964 91.8923 175.988 91.8852 176.013C91.8534 176.115 91.7545 176.185 91.6484 176.185ZM127.493 175.499C127.422 175.499 127.355 175.468 127.306 175.415C127.26 175.366 127.239 175.303 127.242 175.236C127.242 175.169 127.274 175.109 127.324 175.064C127.585 174.831 127.85 174.596 128.115 174.36C128.214 174.272 128.38 174.283 128.469 174.378C128.511 174.424 128.532 174.483 128.532 174.547C128.532 174.617 128.5 174.684 128.447 174.73C128.232 174.919 128.02 175.109 127.811 175.296L127.656 175.433C127.61 175.471 127.55 175.496 127.49 175.496L127.493 175.499ZM89.0613 175.366C89.0366 175.366 89.0083 175.362 88.9871 175.355C88.7963 175.296 88.6019 175.236 88.411 175.173C88.2661 175.127 88.1177 175.081 87.9728 175.035C87.842 174.993 87.7713 174.853 87.8102 174.722C87.842 174.621 87.9374 174.55 88.047 174.55C88.0717 174.55 88.1 174.554 88.1212 174.561L88.5453 174.694C88.7397 174.758 88.9376 174.817 89.132 174.881C89.238 174.912 89.3052 175.011 89.3052 175.12C89.3052 175.144 89.3017 175.169 89.2946 175.194C89.2593 175.296 89.1638 175.366 89.0578 175.366H89.0613ZM86.4742 174.547C86.4495 174.547 86.4248 174.547 86.4 174.536C86.1667 174.462 85.9335 174.389 85.7002 174.315L85.3857 174.216C85.2549 174.174 85.1807 174.033 85.2231 173.903C85.2549 173.801 85.3503 173.731 85.4599 173.731C85.4846 173.731 85.5129 173.735 85.5376 173.742L85.573 173.752C85.8981 173.854 86.2233 173.956 86.5485 174.062C86.6545 174.093 86.7216 174.192 86.7216 174.301C86.7216 174.325 86.7181 174.35 86.711 174.374C86.6792 174.476 86.5803 174.547 86.4742 174.547ZM83.8871 173.728C83.8624 173.728 83.8377 173.728 83.8129 173.717H83.8058C83.5726 173.64 83.3393 173.566 83.1061 173.492L82.7986 173.394C82.735 173.372 82.6819 173.33 82.6537 173.271C82.6219 173.211 82.6183 173.144 82.636 173.081C82.6678 172.979 82.7632 172.908 82.8728 172.908C82.8975 172.908 82.9258 172.912 82.9505 172.919C83.1096 172.968 83.2651 173.021 83.4241 173.07C83.6044 173.126 83.7846 173.183 83.9614 173.242C84.0638 173.278 84.1345 173.372 84.1345 173.481C84.1345 173.506 84.131 173.531 84.1239 173.555C84.0921 173.657 83.9932 173.728 83.8871 173.728ZM129.515 173.703C129.444 173.703 129.377 173.675 129.327 173.619C129.236 173.517 129.246 173.358 129.349 173.267L129.441 173.186C129.674 172.979 129.907 172.771 130.144 172.564C130.243 172.476 130.409 172.487 130.497 172.585C130.54 172.631 130.561 172.69 130.561 172.754C130.561 172.824 130.529 172.891 130.476 172.937C130.211 173.172 129.946 173.408 129.684 173.64C129.638 173.682 129.578 173.703 129.518 173.703H129.515ZM81.3036 172.908C81.2788 172.908 81.2541 172.908 81.2293 172.898L80.8795 172.789C80.6568 172.719 80.4377 172.648 80.2185 172.578C80.1549 172.557 80.1019 172.515 80.0736 172.455C80.0418 172.395 80.0383 172.328 80.056 172.265C80.0878 172.163 80.1867 172.093 80.2928 172.093C80.3175 172.093 80.3422 172.093 80.367 172.103C80.6709 172.202 80.9784 172.297 81.2894 172.395L81.3813 172.423C81.4874 172.458 81.558 172.553 81.5545 172.662C81.5545 172.687 81.551 172.712 81.5439 172.736C81.5121 172.838 81.4167 172.908 81.3071 172.908H81.3036ZM78.7165 172.089C78.6917 172.089 78.667 172.086 78.6423 172.079L78.3524 171.987C78.1121 171.91 77.8718 171.833 77.6314 171.759C77.5007 171.717 77.4265 171.576 77.4689 171.446C77.5007 171.344 77.5961 171.274 77.7057 171.274C77.7304 171.274 77.7551 171.274 77.7799 171.284C78.1156 171.39 78.4514 171.499 78.7907 171.604C78.8967 171.636 78.9639 171.734 78.9639 171.843C78.9639 171.868 78.9603 171.892 78.9533 171.917C78.9215 172.019 78.826 172.089 78.7165 172.089ZM131.54 171.906C131.469 171.906 131.402 171.875 131.353 171.822C131.307 171.773 131.285 171.71 131.289 171.643C131.293 171.576 131.321 171.516 131.374 171.47L131.596 171.274C131.784 171.105 131.975 170.936 132.166 170.767C132.264 170.679 132.431 170.69 132.519 170.788C132.561 170.834 132.583 170.894 132.583 170.957C132.583 171.028 132.551 171.094 132.498 171.14C132.233 171.376 131.968 171.611 131.706 171.843C131.66 171.885 131.6 171.906 131.54 171.906ZM76.1329 171.27C76.1082 171.27 76.0799 171.27 76.0587 171.26L75.6982 171.147C75.4791 171.077 75.2599 171.01 75.0443 170.94C74.9807 170.919 74.9277 170.876 74.8994 170.817C74.8676 170.757 74.8641 170.69 74.8818 170.627C74.9136 170.525 75.0125 170.454 75.1186 170.454C75.1433 170.454 75.168 170.458 75.1928 170.465C75.4084 170.535 75.6275 170.602 75.8502 170.672L76.2071 170.785C76.3132 170.817 76.3803 170.915 76.3803 171.024C76.3803 171.049 76.3768 171.073 76.3697 171.098C76.3344 171.2 76.2389 171.27 76.1329 171.27ZM73.5458 170.451C73.5211 170.451 73.4963 170.447 73.4716 170.44L73.3762 170.409C73.0651 170.31 72.7612 170.215 72.4572 170.117C72.3936 170.096 72.3406 170.054 72.3123 169.994C72.2805 169.934 72.277 169.867 72.2947 169.804C72.3265 169.702 72.4254 169.632 72.5315 169.632C72.5562 169.632 72.5809 169.635 72.6057 169.642L72.8354 169.716C73.0934 169.797 73.355 169.881 73.62 169.966C73.7261 169.997 73.7932 170.096 73.7932 170.205C73.7932 170.229 73.7897 170.254 73.7826 170.279C73.7508 170.381 73.6518 170.451 73.5458 170.451ZM133.565 170.11C133.494 170.11 133.427 170.078 133.378 170.026C133.332 169.976 133.311 169.913 133.314 169.846C133.318 169.779 133.346 169.72 133.395 169.674C133.516 169.569 133.632 169.463 133.752 169.358C133.897 169.227 134.042 169.101 134.187 168.971C134.286 168.883 134.452 168.893 134.541 168.992C134.583 169.038 134.604 169.097 134.604 169.161C134.604 169.231 134.572 169.298 134.519 169.343C134.254 169.579 133.989 169.815 133.728 170.047C133.682 170.089 133.622 170.11 133.562 170.11H133.565ZM70.9587 169.632C70.934 169.632 70.9092 169.628 70.8845 169.621L70.5487 169.516C70.319 169.442 70.0928 169.372 69.8701 169.301C69.7394 169.259 69.6652 169.118 69.7076 168.988C69.7394 168.886 69.8383 168.816 69.9444 168.816C69.9691 168.816 69.9974 168.816 70.0186 168.827C70.3508 168.932 70.6866 169.038 71.0329 169.147C71.139 169.182 71.2096 169.277 71.2061 169.386C71.2061 169.41 71.2026 169.435 71.1955 169.46C71.1637 169.561 71.0683 169.632 70.9587 169.632ZM68.3716 168.813C68.3469 168.813 68.3186 168.809 68.2974 168.802C67.951 168.693 67.6117 168.584 67.283 168.482C67.1523 168.44 67.0781 168.299 67.1205 168.169C67.1523 168.067 67.2512 167.997 67.3573 167.997C67.382 167.997 67.4103 168 67.4315 168.008C67.6223 168.067 67.8167 168.131 68.0146 168.19C68.156 168.236 68.3009 168.282 68.4458 168.327C68.5519 168.359 68.619 168.458 68.619 168.567C68.619 168.591 68.6155 168.616 68.6084 168.64C68.5766 168.742 68.4776 168.813 68.3716 168.813ZM135.59 168.31C135.52 168.31 135.452 168.282 135.403 168.226C135.357 168.176 135.336 168.113 135.339 168.046C135.343 167.979 135.375 167.92 135.424 167.874C135.576 167.74 135.728 167.603 135.88 167.47L136.216 167.171C136.315 167.083 136.481 167.093 136.569 167.192C136.612 167.238 136.633 167.297 136.633 167.361C136.633 167.431 136.601 167.498 136.548 167.543C136.35 167.719 136.156 167.892 135.958 168.067L135.753 168.247C135.707 168.289 135.65 168.31 135.587 168.31H135.59ZM65.7845 167.99C65.7598 167.99 65.7315 167.986 65.7103 167.979C65.3533 167.867 65.0176 167.758 64.6959 167.659C64.6323 167.638 64.5793 167.596 64.551 167.536C64.5192 167.477 64.5157 167.41 64.5334 167.347C64.5652 167.245 64.6641 167.174 64.7702 167.174C64.7949 167.174 64.8196 167.178 64.8444 167.185C65.1625 167.287 65.5018 167.392 65.8587 167.505C65.9612 167.54 66.0319 167.635 66.0319 167.744C66.0319 167.768 66.0284 167.793 66.0213 167.818C65.9895 167.92 65.8941 167.99 65.7845 167.99ZM63.1939 167.167C63.1691 167.167 63.1444 167.164 63.1197 167.157C62.9147 167.093 62.7238 167.03 62.5506 166.977C62.3881 166.925 62.2361 166.879 62.1018 166.837C61.971 166.795 61.8968 166.654 61.9392 166.524C61.971 166.422 62.0664 166.352 62.176 166.352C62.2007 166.352 62.229 166.355 62.2538 166.362L62.5471 166.454C62.7627 166.52 63.0066 166.598 63.2716 166.682C63.3777 166.714 63.4448 166.812 63.4448 166.921C63.4448 166.946 63.4413 166.97 63.4342 166.995C63.4024 167.097 63.3034 167.167 63.1974 167.167H63.1939ZM137.615 166.51C137.545 166.51 137.478 166.478 137.428 166.425C137.382 166.376 137.361 166.313 137.364 166.246C137.368 166.179 137.396 166.12 137.449 166.074L137.538 165.993C137.771 165.786 138.008 165.578 138.241 165.367C138.34 165.279 138.506 165.29 138.591 165.388C138.633 165.434 138.654 165.494 138.654 165.557C138.654 165.627 138.623 165.694 138.57 165.74C138.305 165.975 138.043 166.211 137.778 166.443C137.732 166.485 137.672 166.506 137.612 166.506L137.615 166.51ZM139.644 164.71C139.573 164.71 139.506 164.682 139.457 164.625C139.411 164.576 139.39 164.513 139.393 164.446C139.397 164.379 139.425 164.32 139.478 164.274L139.803 163.986C139.959 163.848 140.118 163.708 140.273 163.567C140.372 163.479 140.538 163.49 140.627 163.588C140.669 163.634 140.69 163.694 140.69 163.757C140.69 163.827 140.658 163.894 140.605 163.94C140.34 164.175 140.075 164.407 139.81 164.643C139.764 164.682 139.704 164.706 139.644 164.706V164.71ZM141.666 162.913C141.595 162.913 141.528 162.885 141.478 162.832C141.432 162.783 141.411 162.72 141.415 162.653C141.418 162.586 141.447 162.527 141.496 162.481C141.761 162.245 142.026 162.01 142.288 161.778C142.387 161.69 142.553 161.7 142.641 161.799C142.684 161.845 142.705 161.904 142.705 161.968C142.705 162.038 142.673 162.105 142.623 162.15C142.503 162.256 142.383 162.361 142.267 162.467C142.122 162.597 141.977 162.723 141.832 162.854C141.786 162.896 141.726 162.917 141.666 162.917V162.913ZM143.691 161.117C143.62 161.117 143.553 161.085 143.504 161.032C143.458 160.983 143.436 160.92 143.44 160.853C143.443 160.786 143.475 160.727 143.525 160.681C143.79 160.445 144.055 160.21 144.316 159.978C144.415 159.89 144.581 159.9 144.67 159.999C144.712 160.045 144.733 160.104 144.733 160.168C144.733 160.238 144.702 160.305 144.652 160.35C144.652 160.35 144.649 160.35 144.645 160.354C144.454 160.523 144.267 160.691 144.076 160.86L143.86 161.054C143.815 161.096 143.754 161.117 143.694 161.117H143.691ZM145.716 159.32C145.645 159.32 145.578 159.289 145.529 159.236C145.483 159.187 145.462 159.123 145.465 159.057C145.469 158.99 145.5 158.93 145.55 158.884L145.864 158.607C146.023 158.466 146.183 158.322 146.342 158.181C146.441 158.093 146.607 158.104 146.695 158.202C146.737 158.248 146.759 158.308 146.759 158.371C146.759 158.441 146.727 158.508 146.674 158.554C146.412 158.786 146.147 159.021 145.882 159.257C145.836 159.296 145.776 159.32 145.716 159.32ZM147.741 157.524C147.67 157.524 147.603 157.492 147.554 157.439C147.462 157.337 147.473 157.179 147.575 157.088C147.84 156.852 148.105 156.617 148.367 156.385C148.466 156.297 148.632 156.307 148.72 156.406C148.763 156.451 148.784 156.511 148.784 156.575C148.784 156.645 148.752 156.712 148.699 156.757C148.437 156.989 148.172 157.225 147.907 157.46C147.861 157.503 147.801 157.524 147.741 157.524ZM149.766 155.727C149.696 155.727 149.628 155.696 149.579 155.643C149.487 155.541 149.498 155.383 149.6 155.291C149.869 155.052 150.134 154.82 150.392 154.588C150.491 154.5 150.657 154.511 150.745 154.609C150.788 154.655 150.809 154.715 150.809 154.778C150.809 154.848 150.777 154.915 150.728 154.961C150.466 155.193 150.201 155.428 149.932 155.664C149.886 155.706 149.826 155.727 149.766 155.727ZM151.791 153.931C151.721 153.931 151.654 153.899 151.604 153.846C151.558 153.797 151.537 153.734 151.54 153.667C151.54 153.6 151.572 153.54 151.625 153.495C151.894 153.256 152.159 153.02 152.417 152.792C152.516 152.704 152.682 152.714 152.77 152.813C152.813 152.858 152.834 152.918 152.834 152.981C152.834 153.052 152.802 153.119 152.749 153.164C152.491 153.396 152.226 153.628 151.958 153.867C151.912 153.906 151.851 153.931 151.791 153.931ZM153.817 152.134C153.746 152.134 153.679 152.103 153.629 152.053C153.537 151.951 153.548 151.793 153.65 151.702C153.788 151.579 153.926 151.459 154.06 151.34C154.191 151.224 154.318 151.111 154.446 150.999C154.545 150.911 154.711 150.921 154.799 151.016C154.842 151.062 154.863 151.122 154.863 151.185C154.863 151.255 154.831 151.322 154.778 151.368C154.52 151.596 154.255 151.832 153.983 152.071C153.937 152.113 153.877 152.134 153.817 152.134ZM155.842 150.334C155.771 150.334 155.704 150.303 155.654 150.25C155.563 150.148 155.573 149.99 155.676 149.898C155.874 149.722 156.068 149.55 156.255 149.385L156.467 149.195C156.566 149.107 156.732 149.118 156.821 149.216C156.863 149.262 156.884 149.322 156.884 149.385C156.884 149.455 156.853 149.522 156.8 149.568L156.609 149.737C156.414 149.909 156.213 150.088 156.004 150.271C155.958 150.313 155.898 150.334 155.838 150.334H155.842ZM157.87 148.534C157.8 148.534 157.733 148.503 157.683 148.45C157.637 148.401 157.616 148.337 157.619 148.27C157.623 148.204 157.651 148.144 157.704 148.098C157.853 147.968 157.994 147.842 158.132 147.719C158.259 147.606 158.383 147.497 158.499 147.392C158.598 147.304 158.765 147.314 158.853 147.413C158.895 147.458 158.917 147.518 158.917 147.581C158.917 147.652 158.885 147.719 158.832 147.764L158.694 147.887C158.489 148.07 158.27 148.263 158.037 148.471C157.991 148.51 157.93 148.534 157.87 148.534ZM159.903 146.734C159.832 146.734 159.765 146.702 159.715 146.65C159.623 146.548 159.634 146.39 159.736 146.298C160.164 145.918 160.397 145.711 160.397 145.711C160.496 145.623 160.662 145.634 160.751 145.729C160.843 145.831 160.832 145.989 160.73 146.08C160.73 146.08 160.645 146.154 160.56 146.231C160.5 146.284 160.426 146.351 160.337 146.428L160.069 146.667C160.023 146.71 159.963 146.731 159.903 146.731V146.734Z" fill="#FD6B06"/>
</g>
</g>
</g>
<path id="Vector_20" d="M60.1886 62.1185C66.2004 62.9482 70.3956 68.4502 69.5544 74.4023C68.7133 80.3544 63.1609 84.5064 57.1455 83.6767C51.1337 82.847 46.9385 77.3449 47.7797 71.3929C48.6208 65.4408 54.1732 61.2888 60.1886 62.1185Z" fill="#ED5353"/>
<path id="Vector_21" d="M56.3016 70.3453L54.6299 71.0344L53.5767 68.5382L58.2242 66.6187L63.0026 77.9567L60.0232 79.1872L56.2945 70.3453H56.3016Z" fill="white"/>
<path id="Vector_22" d="M122.454 0L83.5482 36.4999L78.6426 24.3426L122.454 0Z" fill="#E0EFFF"/>
<path id="Vector_23" d="M122.453 0L83.5479 36.4999L84.6965 28.9798L122.453 0Z" fill="#9FBFE3"/>
<path id="Vector_24" d="M122.455 0C122.455 0 71.4203 11.0779 64.9914 12.4737C64.8677 12.4983 64.7687 12.5967 64.7405 12.7162C64.7086 12.8393 64.7546 12.9659 64.8535 13.0467C67.4336 15.1596 78.6408 24.3426 78.6408 24.3426L122.455 0Z" fill="#FAFCFF"/>
<path id="Vector_25" d="M122.458 0C122.458 0 103.486 38.887 101.288 43.3906C101.238 43.489 101.146 43.5629 101.037 43.584C100.927 43.6051 100.814 43.5734 100.733 43.4996C98.3577 41.348 84.7012 28.9728 84.7012 28.9728L122.458 0Z" fill="#FAFCFF"/>
<path id="Vector 5" d="M1.63525 98.0403L2.63525 98.0403L1.63525 98.0403ZM49.7294 53.0291L50.0105 53.9887L49.7294 53.0291ZM79.9153 39.9636C80.3614 39.638 80.4592 39.0124 80.1336 38.5663C79.8081 38.1202 79.1825 38.0224 78.7363 38.348L79.9153 39.9636ZM42.325 125.85C41.7839 125.96 41.4345 126.488 41.5448 127.029C41.655 127.57 42.1831 127.919 42.7243 127.809L42.325 125.85ZM39.3613 128.318C39.9107 128.261 40.3096 127.769 40.2524 127.22C40.1952 126.671 39.7035 126.272 39.1542 126.329L39.3613 128.318ZM35.9337 126.532C35.3815 126.545 34.9447 127.004 34.958 127.556C34.9713 128.108 35.4297 128.545 35.9818 128.532L35.9337 126.532ZM32.6038 128.488C33.1555 128.516 33.6246 128.09 33.6517 127.539C33.6788 126.987 33.2536 126.518 32.702 126.491L32.6038 128.488ZM29.4811 126.216C28.9329 126.149 28.4343 126.54 28.3675 127.088C28.3007 127.636 28.691 128.135 29.2392 128.201L29.4811 126.216ZM25.9017 127.669C26.4434 127.776 26.9697 127.424 27.0773 126.883C27.1848 126.341 26.8328 125.815 26.2911 125.707L25.9017 127.669ZM23.1547 124.955C22.6233 124.805 22.0706 125.113 21.9202 125.645C21.7698 126.176 22.0786 126.729 22.61 126.879L23.1547 124.955ZM19.3889 125.816C19.9052 126.012 20.4828 125.753 20.679 125.237C20.8752 124.72 20.6158 124.143 20.0995 123.947L19.3889 125.816ZM17.1594 122.666C16.6645 122.421 16.0646 122.623 15.8194 123.118C15.5742 123.613 15.7765 124.213 16.2714 124.458L17.1594 122.666ZM13.2997 122.784C13.7653 123.081 14.3835 122.945 14.6805 122.479C14.9774 122.013 14.8407 121.395 14.375 121.098L13.2997 122.784ZM11.795 119.232C11.3678 118.882 10.7377 118.945 10.3877 119.372C10.0377 119.8 10.1004 120.43 10.5276 120.78L11.795 119.232ZM8.0167 118.442C8.39571 118.843 9.02861 118.862 9.43032 118.483C9.83202 118.104 9.85042 117.471 9.47141 117.069L8.0167 118.442ZM7.45509 114.624C7.1331 114.176 6.50833 114.073 6.05962 114.395C5.6109 114.717 5.50817 115.342 5.83016 115.79L7.45509 114.624ZM4.02116 112.874C4.28031 113.362 4.88576 113.547 5.37347 113.288C5.86118 113.029 6.04645 112.423 5.78729 111.936L4.02116 112.874ZM4.48224 109.039C4.28786 108.522 3.71122 108.261 3.19427 108.455C2.67732 108.65 2.41583 109.226 2.61021 109.743L4.48224 109.039ZM1.60248 106.48C1.73445 107.016 2.27617 107.344 2.81246 107.212C3.34875 107.08 3.67651 106.538 3.54455 106.002L1.60248 106.48ZM2.94865 102.852C2.87436 102.305 2.37049 101.922 1.82322 101.996C1.27596 102.07 0.892538 102.574 0.96683 103.121L2.94865 102.852ZM0.670968 99.7509C0.694295 100.303 1.16052 100.731 1.71231 100.708C2.26411 100.684 2.69251 100.218 2.66918 99.6664L0.670968 99.7509ZM2.67397 96.4803C2.70148 95.9287 2.27663 95.4593 1.72503 95.4317C1.17343 95.4042 0.703968 95.8291 0.676455 96.3807L2.67397 96.4803ZM1.00717 93.1004C0.923775 93.6464 1.29875 94.1565 1.8447 94.2399C2.39065 94.3233 2.90084 93.9484 2.98424 93.4024L1.00717 93.1004ZM3.60905 90.3703C3.74827 89.8359 3.42787 89.2898 2.89342 89.1505C2.35897 89.0113 1.81285 89.3317 1.67363 89.8662L3.60905 90.3703ZM2.66829 86.7166C2.47556 87.2342 2.7389 87.81 3.25647 88.0027C3.77404 88.1954 4.34984 87.9321 4.54257 87.4145L2.66829 86.7166ZM5.76626 84.5641C6.00827 84.0676 5.80202 83.469 5.30559 83.227C4.80915 82.985 4.21052 83.1912 3.96851 83.6877L5.76626 84.5641ZM5.54484 80.7992C5.25882 81.2717 5.40996 81.8865 5.88241 82.1725C6.35486 82.4586 6.96973 82.3074 7.25574 81.835L5.54484 80.7992ZM8.98135 79.2391C9.30568 78.7921 9.20622 78.1668 8.75919 77.8425C8.31217 77.5182 7.68687 77.6176 7.36254 78.0646L8.98135 79.2391ZM9.38694 75.4885C9.02983 75.9098 9.08185 76.5408 9.50314 76.8979C9.92443 77.255 10.5555 77.203 10.9126 76.7817L9.38694 75.4885ZM13.0203 74.4628C13.4052 74.0667 13.3961 73.4336 13 73.0488C12.6039 72.6639 11.9708 72.6729 11.5859 73.069L13.0203 74.4628ZM13.9305 70.8013C13.5222 71.1732 13.4928 71.8057 13.8647 72.214C14.2366 72.6223 14.8691 72.6518 15.2773 72.2799L13.9305 70.8013ZM17.6619 70.2262C18.0899 69.8772 18.1539 69.2473 17.8048 68.8193C17.4558 68.3913 16.8259 68.3273 16.3979 68.6763L17.6619 70.2262ZM18.9673 66.6858C18.5226 67.0134 18.4277 67.6394 18.7553 68.084C19.0829 68.5287 19.7089 68.6236 20.1535 68.296L18.9673 66.6858ZM22.7383 66.4805C23.1971 66.173 23.3197 65.5519 23.0122 65.0931C22.7048 64.6343 22.0836 64.5117 21.6248 64.8191L22.7383 66.4805ZM24.3548 63.0696C23.8839 63.3582 23.7363 63.974 24.025 64.4448C24.3137 64.9156 24.9294 65.0633 25.4002 64.7746L24.3548 63.0696ZM28.1262 63.1726C28.6073 62.9015 28.7776 62.2917 28.5065 61.8105C28.2354 61.3294 27.6256 61.1591 27.1444 61.4302L28.1262 63.1726ZM29.9951 59.8884C29.505 60.1429 29.3139 60.7466 29.5684 61.2367C29.8229 61.7269 30.4266 61.9179 30.9167 61.6634L29.9951 59.8884ZM33.7511 60.249C34.2491 60.0102 34.4592 59.4129 34.2204 58.9149C33.9816 58.417 33.3843 58.2069 32.8863 58.4457L33.7511 60.249ZM35.8243 57.091C35.3194 57.3148 35.0915 57.9055 35.3153 58.4104C35.5391 58.9153 36.1298 59.1432 36.6347 58.9194L35.8243 57.091ZM39.55 57.6771C40.0611 57.4678 40.3058 56.8839 40.0965 56.3728C39.8872 55.8617 39.3033 55.617 38.7922 55.8263L39.55 57.6771ZM41.8052 54.6415C41.2884 54.8364 41.0275 55.4133 41.2225 55.9301C41.4174 56.4468 41.9943 56.7077 42.511 56.5128L41.8052 54.6415ZM45.4978 55.4337C46.0199 55.2534 46.2969 54.684 46.1166 54.162C45.9363 53.64 45.3669 53.363 44.8449 53.5433L45.4978 55.4337ZM47.9152 52.5334C47.388 52.6978 47.0939 53.2585 47.2583 53.7858C47.4228 54.313 47.9835 54.6071 48.5107 54.4426L47.9152 52.5334ZM51.5967 53.5227C52.1264 53.3664 52.4292 52.8103 52.2729 52.2806C52.1167 51.7509 51.5606 51.4481 51.0309 51.6044L51.5967 53.5227ZM54.1745 50.6644C53.6461 50.8253 53.3483 51.384 53.5092 51.9123C53.6701 52.4406 54.2288 52.7385 54.7572 52.5776L54.1745 50.6644ZM57.9174 51.586C58.4426 51.4152 58.7299 50.8509 58.5591 50.3257C58.3883 49.8005 57.824 49.5132 57.2988 49.6841L57.9174 51.586ZM60.3828 48.629C59.8636 48.8171 59.595 49.3905 59.783 49.9098C59.9711 50.429 60.5445 50.6976 61.0638 50.5096L60.3828 48.629ZM64.1767 49.3006C64.6862 49.0877 64.9267 48.5019 64.7138 47.9924C64.5008 47.4828 63.9151 47.2423 63.4055 47.4552L64.1767 49.3006ZM66.3517 46.1231C65.8555 46.3655 65.6497 46.9642 65.8921 47.4605C66.1344 47.9568 66.7332 48.1626 67.2295 47.9202L66.3517 46.1231ZM70.1933 46.3632C70.6748 46.0926 70.8457 45.4829 70.5752 45.0015C70.3046 44.52 69.6949 44.3491 69.2135 44.6197L70.1933 46.3632ZM72.0023 42.9591C71.5343 43.2525 71.3929 43.8697 71.6862 44.3376C71.9796 44.8055 72.5968 44.947 73.0647 44.6536L72.0023 42.9591ZM75.8514 42.8323C76.3085 42.5224 76.4279 41.9006 76.1179 41.4434C75.808 40.9863 75.1862 40.867 74.7291 41.1769L75.8514 42.8323ZM77.4056 39.3097C76.9564 39.631 76.8527 40.2556 77.174 40.7048C77.4953 41.154 78.1199 41.2577 78.5691 40.9364L77.4056 39.3097ZM43.8643 125.487C43.3796 125.618 42.8656 125.739 42.325 125.85L42.7243 127.809C43.3029 127.691 43.8578 127.561 44.3856 127.418L43.8643 125.487ZM39.1542 126.329C38.1294 126.436 37.0513 126.505 35.9337 126.532L35.9818 128.532C37.1512 128.503 38.2823 128.431 39.3613 128.318L39.1542 126.329ZM32.702 126.491C31.6455 126.439 30.5686 126.349 29.4811 126.216L29.2392 128.201C30.3756 128.34 31.5005 128.434 32.6038 128.488L32.702 126.491ZM26.2911 125.707C25.2431 125.499 24.1948 125.249 23.1547 124.955L22.61 126.879C23.7038 127.189 24.8039 127.451 25.9017 127.669L26.2911 125.707ZM20.0995 123.947C19.1004 123.567 18.1177 123.141 17.1594 122.666L16.2714 124.458C17.2907 124.963 18.3328 125.415 19.3889 125.816L20.0995 123.947ZM14.375 121.098C13.4809 120.528 12.6185 119.907 11.795 119.232L10.5276 120.78C11.4152 121.507 12.3421 122.174 13.2997 122.784L14.375 121.098ZM9.47141 117.069C8.75409 116.309 8.07974 115.495 7.45509 114.624L5.83016 115.79C6.50816 116.735 7.23963 117.618 8.0167 118.442L9.47141 117.069ZM5.78729 111.936C5.30256 111.023 4.86561 110.059 4.48224 109.039L2.61021 109.743C3.02361 110.843 3.49587 111.886 4.02116 112.874L5.78729 111.936ZM3.54455 106.002C3.29775 104.999 3.09765 103.95 2.94865 102.852L0.96683 103.121C1.12509 104.287 1.33825 105.406 1.60248 106.48L3.54455 106.002ZM2.66918 99.6664C2.64669 99.1345 2.63525 98.5925 2.63525 98.0403L0.635254 98.0403C0.635251 98.6201 0.647267 99.1903 0.670968 99.7509L2.66918 99.6664ZM2.63525 98.0403C2.63526 97.5148 2.64831 96.9948 2.67397 96.4803L0.676455 96.3807C0.649134 96.9284 0.635257 97.4816 0.635254 98.0403L2.63525 98.0403ZM2.98424 93.4024C3.14212 92.3689 3.35168 91.3584 3.60905 90.3703L1.67363 89.8662C1.39913 90.92 1.17558 91.998 1.00717 93.1004L2.98424 93.4024ZM4.54257 87.4145C4.90485 86.4416 5.31411 85.4915 5.76626 84.5641L3.96851 83.6877C3.48891 84.6714 3.05391 85.681 2.66829 86.7166L4.54257 87.4145ZM7.25574 81.835C7.79303 80.9475 8.36962 80.0823 8.98135 79.2391L7.36254 78.0646C6.71971 78.9506 6.1122 79.862 5.54484 80.7992L7.25574 81.835ZM10.9126 76.7817C11.5861 75.9872 12.29 75.2143 13.0203 74.4628L11.5859 73.069C10.8258 73.8513 10.0912 74.6576 9.38694 75.4885L10.9126 76.7817ZM15.2773 72.2799C16.0519 71.5743 16.8481 70.8899 17.6619 70.2262L16.3979 68.6763C15.5574 69.3617 14.7335 70.0699 13.9305 70.8013L15.2773 72.2799ZM20.1535 68.296C21.0034 67.6699 21.8664 67.0649 22.7383 66.4805L21.6248 64.8191C20.7296 65.4191 19.8422 66.0412 18.9673 66.6858L20.1535 68.296ZM25.4002 64.7746C26.3059 64.2192 27.2162 63.6853 28.1262 63.1726L27.1444 61.4302C26.2141 61.9543 25.2826 62.5007 24.3548 63.0696L25.4002 64.7746ZM30.9167 61.6634C31.8692 61.1689 32.8158 60.6976 33.7511 60.249L32.8863 58.4457C31.9329 58.9029 30.9673 59.3837 29.9951 59.8884L30.9167 61.6634ZM36.6347 58.9194C37.6297 58.4784 38.6039 58.0645 39.55 57.6771L38.7922 55.8263C37.8293 56.2205 36.8376 56.6419 35.8243 57.091L36.6347 58.9194ZM42.511 56.5128C43.563 56.116 44.5628 55.7566 45.4978 55.4337L44.8449 53.5433C43.893 53.872 42.8755 54.2378 41.8052 54.6415L42.511 56.5128ZM48.5107 54.4426C49.0524 54.2737 49.5539 54.1225 50.0105 53.9887L49.4483 52.0694C48.9806 52.2064 48.4681 52.3609 47.9152 52.5334L48.5107 54.4426ZM50.0105 53.9887C50.5526 53.83 51.081 53.6748 51.5967 53.5227L51.0309 51.6044C50.5168 51.756 49.9896 51.9108 49.4483 52.0694L50.0105 53.9887ZM54.7572 52.5776C55.8649 52.2402 56.914 51.9124 57.9174 51.586L57.2988 49.6841C56.3104 50.0056 55.2737 50.3296 54.1745 50.6644L54.7572 52.5776ZM61.0638 50.5096C62.1361 50.1213 63.1667 49.7226 64.1767 49.3006L63.4055 47.4552C62.429 47.8633 61.4287 48.2503 60.3828 48.629L61.0638 50.5096ZM67.2295 47.9202C68.2115 47.4405 69.1924 46.9257 70.1933 46.3632L69.2135 44.6197C68.2451 45.1639 67.2982 45.6608 66.3517 46.1231L67.2295 47.9202ZM73.0647 44.6536C73.9614 44.0914 74.886 43.4868 75.8514 42.8323L74.7291 41.1769C73.7811 41.8196 72.8765 42.411 72.0023 42.9591L73.0647 44.6536ZM78.5691 40.9364C79.0083 40.6223 79.4567 40.2982 79.9153 39.9636L78.7363 38.348C78.2825 38.6791 77.8393 38.9995 77.4056 39.3097L78.5691 40.9364Z" fill="#A4C1DE"/>
</g>
</g>
<defs>
<linearGradient id="paint0_linear_2233_46917" x1="-71.1812" y1="-689.354" x2="-55.6096" y2="-617.074" gradientUnits="userSpaceOnUse">
<stop stop-color="#2988F7"/>
<stop offset="1" stop-color="#0D67BF"/>
</linearGradient>
<linearGradient id="paint1_linear_2233_46917" x1="58.8837" y1="94.6669" x2="145.046" y2="94.6455" gradientUnits="userSpaceOnUse">
<stop stop-color="#FAFCFF"/>
<stop offset="1" stop-color="#E0EFFF"/>
</linearGradient>
<radialGradient id="paint2_radial_2233_46917" cx="0" cy="0" r="1" gradientUnits="userSpaceOnUse" gradientTransform="translate(288.341 -90.4575) rotate(-41.0602) scale(12.4047 11.6065)">
<stop stop-color="#BE8887"/>
<stop offset="1" stop-color="white"/>
</radialGradient>
<linearGradient id="paint3_linear_2233_46917" x1="57.5499" y1="120.18" x2="111.614" y2="120.084" gradientUnits="userSpaceOnUse">
<stop stop-color="#1E66D1"/>
<stop offset="1" stop-color="#1E5FE0"/>
</linearGradient>
<linearGradient id="paint4_linear_2233_46917" x1="196.159" y1="40.8026" x2="271.542" y2="38.4476" gradientUnits="userSpaceOnUse">
<stop stop-color="#197DE0"/>
<stop offset="1" stop-color="#2987F5"/>
</linearGradient>
</defs>
</svg>
