<svg width="1768" height="522" viewBox="0 0 1768 522" fill="none" xmlns="http://www.w3.org/2000/svg">
<rect y="348" width="1768" height="174" fill="#FCF1E3"/>
<path d="M505.217 310.334C505.217 307.756 507.311 305.667 509.893 305.667H580.025C582.607 305.667 584.7 307.756 584.7 310.334V338.334C584.7 340.911 582.607 343 580.025 343H509.893C507.311 343 505.217 340.911 505.217 338.334V310.334Z" fill="#FCF1E3"/>
<path d="M422.618 310.334C422.618 307.756 424.711 305.667 427.293 305.667H497.425C500.007 305.667 502.1 307.756 502.1 310.334V338.334C502.1 340.911 500.007 343 497.425 343H427.293C424.711 343 422.618 340.911 422.618 338.334V310.334Z" fill="#FCF1E3"/>
<path d="M354.044 310.334C354.044 307.756 356.138 305.667 358.72 305.667H414.825C417.408 305.667 419.501 307.756 419.501 310.334V338.334C419.501 340.911 417.408 343 414.825 343H358.72C356.138 343 354.044 340.911 354.044 338.334V310.334Z" fill="#FCF1E3"/>
<path d="M275.341 310.334C275.341 307.756 277.434 305.667 280.016 305.667H346.252C348.834 305.667 350.928 307.756 350.928 310.334V338.334C350.928 340.911 348.834 343 346.252 343H280.016C277.434 343 275.341 340.911 275.341 338.334V310.334Z" fill="#FCF1E3"/>
<path d="M196.638 310.334C196.638 307.756 198.731 305.667 201.313 305.667H267.549C270.131 305.667 272.224 307.756 272.224 310.334V338.334C272.224 340.911 270.131 343 267.549 343H201.313C198.731 343 196.638 340.911 196.638 338.334V310.334Z" fill="#FCF1E3"/>
<path d="M505.217 227.889C505.217 225.312 507.311 223.222 509.893 223.222H580.025C582.607 223.222 584.7 225.312 584.7 227.889V255.889C584.7 258.466 582.607 260.556 580.025 260.556H509.893C507.311 260.556 505.217 258.466 505.217 255.889V227.889Z" fill="#FCF1E3"/>
<path d="M422.618 227.889C422.618 225.312 424.711 223.222 427.293 223.222H497.425C500.007 223.222 502.1 225.312 502.1 227.889V255.889C502.1 258.466 500.007 260.556 497.425 260.556H427.293C424.711 260.556 422.618 258.466 422.618 255.889V227.889Z" fill="#FCF1E3"/>
<path d="M354.044 227.889C354.044 225.312 356.138 223.222 358.72 223.222H414.825C417.408 223.222 419.501 225.312 419.501 227.889V255.889C419.501 258.466 417.408 260.556 414.825 260.556H358.72C356.138 260.556 354.044 258.466 354.044 255.889V227.889Z" fill="#FCF1E3"/>
<path d="M275.341 227.889C275.341 225.312 277.434 223.222 280.016 223.222H346.252C348.834 223.222 350.928 225.312 350.928 227.889V255.889C350.928 258.466 348.834 260.556 346.252 260.556H280.016C277.434 260.556 275.341 258.466 275.341 255.889V227.889Z" fill="#FCF1E3"/>
<path d="M196.638 227.889C196.638 225.312 198.731 223.222 201.313 223.222H267.549C270.131 223.222 272.224 225.312 272.224 227.889V255.889C272.224 258.466 270.131 260.556 267.549 260.556H201.313C198.731 260.556 196.638 258.466 196.638 255.889V227.889Z" fill="#FCF1E3"/>
<path d="M461.58 269.111C461.58 266.534 463.673 264.445 466.255 264.445H536.387C538.969 264.445 541.063 266.534 541.063 269.111V297.111C541.063 299.689 538.969 301.778 536.387 301.778H466.255C463.673 301.778 461.58 299.689 461.58 297.111V269.111Z" fill="#FCF1E3"/>
<path d="M378.98 269.111C378.98 266.534 381.074 264.445 383.656 264.445H453.787C456.37 264.445 458.463 266.534 458.463 269.111V297.111C458.463 299.689 456.37 301.778 453.787 301.778H383.656C381.074 301.778 378.98 299.689 378.98 297.111V269.111Z" fill="#FCF1E3"/>
<path d="M310.407 269.111C310.407 266.534 312.5 264.445 315.082 264.445H371.188C373.77 264.445 375.863 266.534 375.863 269.111V297.111C375.863 299.689 373.77 301.778 371.188 301.778H315.082C312.5 301.778 310.407 299.689 310.407 297.111V269.111Z" fill="#FCF1E3"/>
<path d="M231.703 269.111C231.703 266.534 233.797 264.445 236.379 264.445H302.615C305.197 264.445 307.29 266.534 307.29 269.111V297.111C307.29 299.689 305.197 301.778 302.615 301.778H236.379C233.797 301.778 231.703 299.689 231.703 297.111V269.111Z" fill="#FCF1E3"/>
<path d="M153 269.111C153 266.534 155.093 264.445 157.675 264.445H223.911C226.493 264.445 228.586 266.534 228.586 269.111V297.111C228.586 299.689 226.493 301.778 223.911 301.778H157.675C155.093 301.778 153 299.689 153 297.111V269.111Z" fill="#FCF1E3"/>
<path d="M546.517 269.111C546.517 266.534 548.611 264.445 551.193 264.445H621.325C623.907 264.445 626 266.534 626 269.111V297.111C626 299.689 623.907 301.778 621.325 301.778H551.193C548.611 301.778 546.517 299.689 546.517 297.111V269.111Z" fill="#FCF1E3"/>
<path d="M461.58 186.667C461.58 184.089 463.673 182 466.255 182H536.387C538.969 182 541.063 184.089 541.063 186.667V214.667C541.063 217.244 538.969 219.333 536.387 219.333H466.255C463.673 219.333 461.58 217.244 461.58 214.667V186.667Z" fill="#FCF1E3"/>
<path d="M378.98 186.667C378.98 184.089 381.074 182 383.656 182H453.787C456.37 182 458.463 184.089 458.463 186.667V214.667C458.463 217.244 456.37 219.333 453.787 219.333H383.656C381.074 219.333 378.98 217.244 378.98 214.667V186.667Z" fill="#FCF1E3"/>
<path d="M310.407 186.667C310.407 184.089 312.5 182 315.082 182H371.188C373.77 182 375.863 184.089 375.863 186.667V214.667C375.863 217.244 373.77 219.333 371.188 219.333H315.082C312.5 219.333 310.407 217.244 310.407 214.667V186.667Z" fill="#FCF1E3"/>
<path d="M231.703 186.667C231.703 184.089 233.797 182 236.379 182H302.615C305.197 182 307.29 184.089 307.29 186.667V214.667C307.29 217.244 305.197 219.333 302.615 219.333H236.379C233.797 219.333 231.703 217.244 231.703 214.667V186.667Z" fill="#FCF1E3"/>
<path d="M153 186.667C153 184.089 155.093 182 157.675 182H223.911C226.493 182 228.586 184.089 228.586 186.667V214.667C228.586 217.244 226.493 219.333 223.911 219.333H157.675C155.093 219.333 153 217.244 153 214.667V186.667Z" fill="#FCF1E3"/>
<path d="M546.517 186.667C546.517 184.089 548.611 182 551.193 182H621.325C623.907 182 626 184.089 626 186.667V214.667C626 217.244 623.907 219.333 621.325 219.333H551.193C548.611 219.333 546.517 217.244 546.517 214.667V186.667Z" fill="#FCF1E3"/>
<path d="M429.631 146.334C429.631 143.756 431.724 141.667 434.306 141.667H490.412C492.994 141.667 495.087 143.756 495.087 146.334V174.334C495.087 176.911 492.994 179 490.412 179H434.306C431.724 179 429.631 176.911 429.631 174.334V146.334Z" fill="#FCF1E3"/>
<path d="M350.928 146.334C350.928 143.756 353.021 141.667 355.603 141.667H421.839C424.421 141.667 426.514 143.756 426.514 146.334V174.334C426.514 176.911 424.421 179 421.839 179H355.603C353.021 179 350.928 176.911 350.928 174.334V146.334Z" fill="#FCF1E3"/>
<path d="M217.378 300.808C217.378 300.808 171.629 287.19 167.431 329.796C163.233 372.403 184.688 383.171 214.539 385.511C244.389 387.852 270.978 365.375 271.443 344.306C271.908 323.236 270.549 286.754 217.378 300.802V300.808Z" fill="#FCF1E3" stroke="white" stroke-width="4" stroke-miterlimit="10" stroke-linecap="round"/>
<path d="M206.613 274.706C206.613 274.706 215.166 285.941 212.364 297.649L211.584 299.832L217.377 300.808L228.068 298.116L216.561 275.488C216.561 275.488 211.119 270.807 206.613 274.706Z" fill="#FFE2B7" stroke="white" stroke-width="4" stroke-miterlimit="10" stroke-linecap="round"/>
<path d="M292.656 288.916C292.656 288.916 261.561 303.274 260.939 331.68C260.316 360.086 251.298 403.159 305.092 407.84C358.886 412.521 361.689 366.634 361.689 366.634L361.381 335.421C361.381 335.421 359.829 300.776 320.646 287.352L292.662 288.91L292.656 288.916Z" fill="#FCF1E3" stroke="white" stroke-width="4" stroke-miterlimit="10" stroke-linecap="round"/>
<path d="M308.512 258.327L306.023 278.93L289.854 288.916L298.557 290.165L298.249 305.462L306.953 295.161L310.372 304.522L317.216 295.161L320.948 302.03L324.989 294.852L332.141 295.161C332.141 295.161 332.141 287.357 322.193 279.863L324.059 260.825C324.059 260.825 318.46 249.59 308.512 258.327Z" fill="#FFE2B7" stroke="white" stroke-width="4" stroke-miterlimit="10" stroke-linecap="round"/>
<path d="M412.471 309.786C412.471 309.786 458.806 307.912 461.602 337.567C464.399 367.222 448.229 392.191 416.204 395.629C384.179 399.066 354.015 377.839 354.015 360.359C354.015 342.879 351.84 317.595 400.657 309.482L412.471 309.792V309.786Z" fill="#FCF1E3" stroke="white" stroke-width="4" stroke-miterlimit="10" stroke-linecap="round"/>
<path d="M412.779 287.625L422.105 287L414.64 307.288L416.192 312.593C416.192 312.593 400.953 313.217 400.645 309.47C400.645 309.47 403.755 315.4 412.773 287.618L412.779 287.625Z" fill="#FFE2B7" stroke="white" stroke-width="4" stroke-linecap="round" stroke-linejoin="round"/>
<path d="M210.112 326.983C214.879 326.983 218.743 322.477 218.743 316.918C218.743 311.359 214.879 306.853 210.112 306.853C205.345 306.853 201.48 311.359 201.48 316.918C201.48 322.477 205.345 326.983 210.112 326.983Z" fill="#FFE2B7"/>
<path d="M238.331 328.39C242.454 328.39 245.797 323.675 245.797 317.858C245.797 312.041 242.454 307.326 238.331 307.326C234.208 307.326 230.865 312.041 230.865 317.858C230.865 323.675 234.208 328.39 238.331 328.39Z" fill="#FFE2B7"/>
<path d="M186.555 335.417L201.946 331.203L202.411 337.291L197.283 339.631C197.283 339.631 195.881 354.613 221.54 355.08C247.199 355.547 249.059 341.032 249.059 341.032L243.46 339.625L245.791 333.537L260.251 337.285L259.321 342.432L253.722 342.899C253.722 342.899 245.326 361.161 221.069 359.755C196.811 358.348 200.079 352.734 190.753 341.965L185.625 342.432L186.555 335.411V335.417Z" fill="#FFE2B7"/>
<path d="M323.436 310.452L314.732 325.75L320.954 326.999L321.262 322.318L326.861 322.009L327.169 326.689H334.943C334.943 326.689 336.809 321.069 323.436 310.458V310.452Z" fill="#FFE2B7"/>
<path d="M299.187 309.519C299.187 309.519 309.135 316.388 307.582 326.999L300.431 327.308V320.129H292.965V325.75H285.191C285.191 325.75 293.279 309.519 299.187 309.519Z" fill="#FFE2B7"/>
<path d="M344.898 331.679C344.898 331.679 351.742 347.911 340.858 381.622L332.154 369.447L322.828 382.247L316.606 369.763L305.722 380.998L301.681 364.142L289.866 377.566L286.448 362.268L273.389 377.566L275.255 326.689L281.162 339.798L287.07 335.742L292.977 351.664L301.995 342.927L308.524 355.411L314.124 346.983L320.345 356.969L328.119 344.794L334.648 351.664L344.91 331.686L344.898 331.679Z" fill="#FFE2B7"/>
<path d="M386.196 318.292L383.629 329.764L399.255 325.55L386.196 318.292Z" fill="#FFE2B7"/>
<path d="M412.078 322.743C412.078 322.743 424.436 330 424.672 329.297C424.907 328.594 424.672 317.589 424.672 317.589L412.078 322.737V322.743Z" fill="#FFE2B7"/>
<path d="M444.967 333.978L429.577 340.296V348.257L417.913 348.723L417.678 340.999L403.683 342.169L405.084 350.361L392.255 349.427L393.656 339.592L382.464 339.125L380.368 345.916L372.207 344.746L374.074 335.148L365.213 331.401L360.779 362.069C360.779 362.069 370.341 368.386 370.806 367.453C371.271 366.519 371.736 357.618 371.736 357.618L383.629 359.255L385.031 370.024L403.689 371.43L403.924 359.255L418.149 358.788L418.85 370.496L430.278 367.689L429.577 357.624L438.438 355.284L440.769 362.542L449.401 358.091C449.401 358.091 453.363 351.07 444.967 333.978Z" fill="#FFE2B7"/>
<path d="M1329 173L1417.16 209.776L1535 227.865" stroke="#FCF1E3" stroke-width="3" stroke-linecap="round" stroke-linejoin="round"/>
<path d="M1304.5 267L1417.16 209.429L1499.84 161.946" stroke="#FCF1E3" stroke-width="3" stroke-linecap="round" stroke-linejoin="round"/>
<path d="M1435.46 118L1417.22 209.71L1461.17 269.175" stroke="#FCF1E3" stroke-width="3" stroke-linecap="round" stroke-linejoin="round"/>
<path d="M1394.99 275.327L1417.22 209.408L1373.5 128.5" stroke="#FCF1E3" stroke-width="3" stroke-linecap="round" stroke-linejoin="round"/>
<path d="M1467.53 180.277C1467.53 180.277 1460 205.805 1471.72 217.951C1471.72 217.951 1451.6 240.552 1450.35 247.251L1405.53 248.081L1378.3 232.178C1378.3 232.178 1369.09 192.423 1364.49 188.65C1364.49 188.65 1384.18 171.496 1389.21 157.253C1389.21 157.253 1422.31 156.423 1429.42 151.399L1467.53 180.277Z" stroke="#FCF1E3" stroke-width="3" stroke-linecap="round" stroke-linejoin="round"/>
<path d="M1462.46 183.531C1462.46 183.531 1457.86 207.228 1466.44 217.088L1445.31 244.141L1406.38 244.565L1381.06 229.246C1381.06 229.246 1378.14 203.235 1369.76 190.653C1369.76 190.653 1388.59 174.29 1391.94 165.49C1391.94 165.49 1414.12 167.168 1427.94 156.673C1427.94 156.673 1454.72 182.26 1462.48 183.515L1462.46 183.531Z" stroke="#FCF1E3" stroke-width="3" stroke-linecap="round" stroke-linejoin="round"/>
<path d="M1456.34 187.382C1456.34 187.382 1454.24 204.303 1461.17 216.011L1441.43 241.928L1406.99 241.295C1406.99 241.295 1396.91 233.776 1384.53 226.875C1384.53 226.875 1384.95 209.954 1375.91 194.056C1375.91 194.056 1393.55 177.542 1395.23 171.062C1395.23 171.062 1416.65 171.484 1426.31 164.583C1426.31 164.583 1442.26 181.715 1456.32 187.366L1456.34 187.382Z" stroke="#FCF1E3" stroke-width="3" stroke-linecap="round" stroke-linejoin="round"/>
<path d="M1425.33 168.978C1425.33 168.978 1432.7 182.721 1452.52 188.986C1452.52 188.986 1452.73 204.607 1455.9 214.401C1455.9 214.401 1444.08 230.654 1439.02 237.534L1408.45 236.077C1408.45 236.077 1399.39 229.197 1389.69 223.79C1389.69 223.79 1387.17 203.782 1382.95 195.672C1382.95 195.672 1395.38 185.246 1398.75 177.331C1398.75 177.331 1418.36 174.627 1425.33 168.994V168.978Z" stroke="#FCF1E3" stroke-width="3" stroke-linecap="round" stroke-linejoin="round"/>
<path d="M1388.22 197.777C1388.22 197.777 1392.39 208.261 1393.44 222.296C1393.44 222.296 1399.91 224.803 1408.88 231.511L1434.97 234.018L1450.62 214.741C1450.62 214.741 1445.82 201.749 1446.24 193.153C1446.24 193.153 1427.25 184.149 1423.7 175.13C1423.7 175.13 1411.8 182.456 1402.2 181.838C1402.2 181.838 1393.02 197.142 1388.22 197.76V197.777Z" stroke="#FCF1E3" stroke-width="3" stroke-linecap="round" stroke-linejoin="round"/>
<path d="M1404.43 187.204C1404.43 187.204 1398.1 196.339 1392.61 200.293C1392.61 200.293 1397.47 210.056 1398.1 218.771L1410.97 226.663L1431.43 228.745L1445.35 214.204L1441.55 196.129C1441.55 196.129 1425.94 189.48 1422.78 183.041C1422.78 183.041 1412.65 186.785 1404.42 187.188L1404.43 187.204Z" stroke="#FCF1E3" stroke-width="3" stroke-linecap="round" stroke-linejoin="round"/>
<path d="M1421.96 189.193C1421.96 189.193 1428.02 197.356 1436.39 198.608L1441.83 212.837L1428.66 224.35L1412.77 222.886L1403.79 216.398L1398.77 201.958L1406.92 191.697L1421.98 189.193H1421.96Z" stroke="#FCF1E3" stroke-width="3" stroke-linecap="round" stroke-linejoin="round"/>
<path d="M1431.71 201.267L1436.56 212.73L1425.39 219.955L1414.83 218.685L1408.72 213.803L1404.92 204.681L1410.41 197.259L1420.32 195.345C1420.32 195.345 1422.44 200.442 1431.71 201.283V201.267Z" stroke="#FCF1E3" stroke-width="3" stroke-linecap="round" stroke-linejoin="round"/>
<path d="M1547.22 226.333C1547.22 223.756 1549.31 221.667 1551.89 221.667H1622.02C1624.61 221.667 1626.7 223.756 1626.7 226.333V254.333C1626.7 256.911 1624.61 259 1622.02 259H1551.89C1549.31 259 1547.22 256.911 1547.22 254.333V226.333Z" fill="#FCF1E3"/>
<path d="M1484.62 226.333C1484.62 223.756 1486.71 221.667 1489.29 221.667H1539.42C1542.01 221.667 1544.1 223.756 1544.1 226.333V254.333C1544.1 256.911 1542.01 259 1539.42 259H1489.29C1486.71 259 1484.62 256.911 1484.62 254.333V226.333Z" fill="#FCF1E3"/>
<path d="M1238.64 226.333C1238.64 223.756 1240.73 221.667 1243.31 221.667H1309.55C1312.13 221.667 1314.22 223.756 1314.22 226.333V254.333C1314.22 256.911 1312.13 259 1309.55 259H1243.31C1240.73 259 1238.64 256.911 1238.64 254.333V226.333Z" fill="#FCF1E3"/>
<path d="M1547.22 143.889C1547.22 141.312 1549.31 139.222 1551.89 139.222H1622.02C1624.61 139.222 1626.7 141.312 1626.7 143.889V171.889C1626.7 174.466 1624.61 176.556 1622.02 176.556H1551.89C1549.31 176.556 1547.22 174.466 1547.22 171.889V143.889Z" fill="#FCF1E3"/>
<path d="M1464.62 143.889C1464.62 141.312 1466.71 139.222 1469.29 139.222H1539.42C1542.01 139.222 1544.1 141.312 1544.1 143.889V171.889C1544.1 174.466 1542.01 176.556 1539.42 176.556H1469.29C1466.71 176.556 1464.62 174.466 1464.62 171.889V143.889Z" fill="#FCF1E3"/>
<path d="M1317.34 143.889C1317.34 141.312 1319.43 139.222 1322.02 139.222H1367.25C1369.83 139.222 1371.93 141.312 1371.93 143.889V171.889C1371.93 174.466 1369.83 176.556 1367.25 176.556H1322.02C1319.43 176.556 1317.34 174.466 1317.34 171.889V143.889Z" fill="#FCF1E3"/>
<path d="M1238.64 143.889C1238.64 141.312 1240.73 139.222 1243.31 139.222H1309.55C1312.13 139.222 1314.22 141.312 1314.22 143.889V171.889C1314.22 174.466 1312.13 176.556 1309.55 176.556H1243.31C1240.73 176.556 1238.64 174.466 1238.64 171.889V143.889Z" fill="#FCF1E3"/>
<path d="M1503.58 185.111C1503.58 182.534 1505.67 180.444 1508.26 180.444H1578.39C1580.97 180.444 1583.06 182.534 1583.06 185.111V213.111C1583.06 215.688 1580.97 217.778 1578.39 217.778H1508.26C1505.67 217.778 1503.58 215.688 1503.58 213.111V185.111Z" fill="#FCF1E3"/>
<path d="M1273.7 185.111C1273.7 182.534 1275.8 180.444 1278.38 180.444H1344.61C1347.2 180.444 1349.29 182.534 1349.29 185.111V213.111C1349.29 215.688 1347.2 217.778 1344.61 217.778H1278.38C1275.8 217.778 1273.7 215.688 1273.7 213.111V185.111Z" fill="#FCF1E3"/>
<path d="M1195 185.111C1195 182.534 1197.09 180.444 1199.68 180.444H1265.91C1268.49 180.444 1270.59 182.534 1270.59 185.111V213.111C1270.59 215.688 1268.49 217.778 1265.91 217.778H1199.68C1197.09 217.778 1195 215.688 1195 213.111V185.111Z" fill="#FCF1E3"/>
<path d="M1588.52 185.111C1588.52 182.534 1590.61 180.444 1593.19 180.444H1663.32C1665.91 180.444 1668 182.534 1668 185.111V213.111C1668 215.688 1665.91 217.778 1663.32 217.778H1593.19C1590.61 217.778 1588.52 215.688 1588.52 213.111V185.111Z" fill="#FCF1E3"/>
<path d="M1503.58 102.667C1503.58 100.089 1505.67 98 1508.26 98H1578.39C1580.97 98 1583.06 100.089 1583.06 102.667V130.667C1583.06 133.244 1580.97 135.333 1578.39 135.333H1508.26C1505.67 135.333 1503.58 133.244 1503.58 130.667V102.667Z" fill="#FCF1E3"/>
<path d="M1420.98 102.667C1420.98 100.089 1423.07 98 1425.66 98H1495.79C1498.37 98 1500.46 100.089 1500.46 102.667V130.667C1500.46 133.244 1498.37 135.333 1495.79 135.333H1425.66C1423.07 135.333 1420.98 133.244 1420.98 130.667V102.667Z" fill="#FCF1E3"/>
<path d="M1352.41 102.667C1352.41 100.089 1354.5 98 1357.08 98H1413.19C1415.77 98 1417.86 100.089 1417.86 102.667V130.667C1417.86 133.244 1415.77 135.333 1413.19 135.333H1357.08C1354.5 135.333 1352.41 133.244 1352.41 130.667V102.667Z" fill="#FCF1E3"/>
<path d="M1273.7 102.667C1273.7 100.089 1275.8 98 1278.38 98H1344.61C1347.2 98 1349.29 100.089 1349.29 102.667V130.667C1349.29 133.244 1347.2 135.333 1344.61 135.333H1278.38C1275.8 135.333 1273.7 133.244 1273.7 130.667V102.667Z" fill="#FCF1E3"/>
<path d="M1195 102.667C1195 100.089 1197.09 98 1199.68 98H1265.91C1268.49 98 1270.59 100.089 1270.59 102.667V130.667C1270.59 133.244 1268.49 135.333 1265.91 135.333H1199.68C1197.09 135.333 1195 133.244 1195 130.667V102.667Z" fill="#FCF1E3"/>
<path d="M1588.52 102.667C1588.52 100.089 1590.61 98 1593.19 98H1663.32C1665.91 98 1668 100.089 1668 102.667V130.667C1668 133.244 1665.91 135.333 1663.32 135.333H1593.19C1590.61 135.333 1588.52 133.244 1588.52 130.667V102.667Z" fill="#FCF1E3"/>
<path d="M1503.58 267.167C1503.58 264.589 1505.67 262.5 1508.26 262.5H1578.39C1580.97 262.5 1583.06 264.589 1583.06 267.167V295.167C1583.06 297.744 1580.97 299.833 1578.39 299.833H1508.26C1505.67 299.833 1503.58 297.744 1503.58 295.167V267.167Z" fill="#FCF1E3"/>
<path d="M1420.98 267.167C1420.98 264.589 1423.07 262.5 1425.66 262.5H1495.79C1498.37 262.5 1500.46 264.589 1500.46 267.167V295.167C1500.46 297.744 1498.37 299.833 1495.79 299.833H1425.66C1423.07 299.833 1420.98 297.744 1420.98 295.167V267.167Z" fill="#FCF1E3"/>
<path d="M1352.41 267.167C1352.41 264.589 1354.5 262.5 1357.08 262.5H1413.19C1415.77 262.5 1417.86 264.589 1417.86 267.167V295.167C1417.86 297.744 1415.77 299.833 1413.19 299.833H1357.08C1354.5 299.833 1352.41 297.744 1352.41 295.167V267.167Z" fill="#FCF1E3"/>
<path d="M1273.7 267.167C1273.7 264.589 1275.8 262.5 1278.38 262.5H1344.61C1347.2 262.5 1349.29 264.589 1349.29 267.167V295.167C1349.29 297.744 1347.2 299.833 1344.61 299.833H1278.38C1275.8 299.833 1273.7 297.744 1273.7 295.167V267.167Z" fill="#FCF1E3"/>
<path d="M1195 267.167C1195 264.589 1197.09 262.5 1199.68 262.5H1265.91C1268.49 262.5 1270.59 264.589 1270.59 267.167V295.167C1270.59 297.744 1268.49 299.833 1265.91 299.833H1199.68C1197.09 299.833 1195 297.744 1195 295.167V267.167Z" fill="#FCF1E3"/>
<path d="M1588.52 267.167C1588.52 264.589 1590.61 262.5 1593.19 262.5H1663.32C1665.91 262.5 1668 264.589 1668 267.167V295.167C1668 297.744 1665.91 299.833 1663.32 299.833H1593.19C1590.61 299.833 1588.52 297.744 1588.52 295.167V267.167Z" fill="#FCF1E3"/>
<path d="M1460.58 308.833C1460.58 306.256 1462.67 304.167 1465.26 304.167H1535.39C1537.97 304.167 1540.06 306.256 1540.06 308.833V336.833C1540.06 339.411 1537.97 341.5 1535.39 341.5H1465.26C1462.67 341.5 1460.58 339.411 1460.58 336.833V308.833Z" fill="#FCF1E3"/>
<path d="M1377.98 308.833C1377.98 306.256 1380.07 304.167 1382.66 304.167H1452.79C1455.37 304.167 1457.46 306.256 1457.46 308.833V336.833C1457.46 339.411 1455.37 341.5 1452.79 341.5H1382.66C1380.07 341.5 1377.98 339.411 1377.98 336.833V308.833Z" fill="#FCF1E3"/>
<path d="M1309.41 308.833C1309.41 306.256 1311.5 304.167 1314.08 304.167H1370.19C1372.77 304.167 1374.86 306.256 1374.86 308.833V336.833C1374.86 339.411 1372.77 341.5 1370.19 341.5H1314.08C1311.5 341.5 1309.41 339.411 1309.41 336.833V308.833Z" fill="#FCF1E3"/>
<path d="M1230.7 308.833C1230.7 306.256 1232.8 304.167 1235.38 304.167H1301.61C1304.2 304.167 1306.29 306.256 1306.29 308.833V336.833C1306.29 339.411 1304.2 341.5 1301.61 341.5H1235.38C1232.8 341.5 1230.7 339.411 1230.7 336.833V308.833Z" fill="#FCF1E3"/>
<path d="M1152 308.833C1152 306.256 1154.09 304.167 1156.68 304.167H1222.91C1225.49 304.167 1227.59 306.256 1227.59 308.833V336.833C1227.59 339.411 1225.49 341.5 1222.91 341.5H1156.68C1154.09 341.5 1152 339.411 1152 336.833V308.833Z" fill="#FCF1E3"/>
<path d="M1545.52 308.833C1545.52 306.256 1547.61 304.167 1550.19 304.167H1620.32C1622.91 304.167 1625 306.256 1625 308.833V336.833C1625 339.411 1622.91 341.5 1620.32 341.5H1550.19C1547.61 341.5 1545.52 339.411 1545.52 336.833V308.833Z" fill="#FCF1E3"/>
<path d="M1377.98 61.6667C1377.98 59.0893 1380.07 57 1382.66 57H1452.79C1455.37 57 1457.46 59.0893 1457.46 61.6667V89.6667C1457.46 92.244 1455.37 94.3333 1452.79 94.3333H1382.66C1380.07 94.3333 1377.98 92.244 1377.98 89.6667V61.6667Z" fill="#FCF1E3"/>
<path d="M1462.92 61.6667C1462.92 59.0893 1465.01 57 1467.59 57H1537.72C1540.31 57 1542.4 59.0893 1542.4 61.6667V89.6667C1542.4 92.244 1540.31 94.3333 1537.72 94.3333H1467.59C1465.01 94.3333 1462.92 92.244 1462.92 89.6667V61.6667Z" fill="#FCF1E3"/>
<g clip-path="url(#clip0_4763_36748)">
<path d="M1581.62 338.34C1571.37 332.349 1567.67 323.808 1566.59 316.791C1566.05 313.307 1566.15 310.207 1566.38 307.978C1566.5 306.86 1566.65 305.954 1566.78 305.319C1566.84 305.001 1566.9 304.75 1566.94 304.574C1566.96 304.486 1566.98 304.417 1566.99 304.367L1567 304.306L1567.01 304.301C1569.48 294.4 1573.79 287.444 1578.95 282.632C1584.11 277.826 1590.02 275.254 1595.55 273.954C1601.08 272.657 1606.27 272.618 1610.06 272.897C1611.96 273.037 1613.53 273.258 1614.62 273.445C1615.17 273.539 1615.6 273.625 1615.9 273.688C1616.05 273.72 1616.17 273.746 1616.25 273.765C1616.26 273.768 1616.28 273.771 1616.29 273.774C1616.31 273.777 1616.33 273.779 1616.35 273.783C1616.44 273.797 1616.57 273.818 1616.74 273.848C1617.08 273.906 1617.57 273.995 1618.18 274.121C1619.4 274.372 1621.14 274.772 1623.18 275.367C1627.27 276.554 1632.66 278.535 1637.82 281.714C1642.97 284.891 1647.98 289.321 1651.12 295.435C1654.29 301.588 1655.48 309.276 1653.29 318.766C1650.53 330.682 1645.74 337.434 1640.7 341.152C1635.66 344.86 1630.63 345.365 1627.74 345.266M1581.62 338.34C1581.62 338.34 1581.62 338.34 1581.62 338.339L1582.63 336.614L1581.62 338.34ZM1581.62 338.34C1581.93 338.527 1582.15 338.874 1582.17 339.26L1582.17 339.261L1583.3 364.166L1583.3 364.17C1583.43 366.996 1585.6 369.329 1588.45 369.586M1588.45 369.586L1612.31 371.784L1612.5 369.792L1612.32 371.784L1612.31 371.784C1614.86 372.023 1617.23 370.508 1618.14 368.141L1618.14 368.139L1626.62 345.999L1624.75 345.279L1626.62 345.994L1626.62 345.997C1626.8 345.547 1627.24 345.251 1627.74 345.266M1588.45 369.586L1588.44 369.585L1588.63 367.594L1588.45 369.586ZM1627.74 345.266C1627.74 345.266 1627.74 345.266 1627.74 345.266L1627.81 343.267L1627.74 345.266C1627.74 345.266 1627.74 345.266 1627.74 345.266Z" fill="#FCF1E3" stroke="white" stroke-width="4" stroke-linecap="round" stroke-linejoin="round"/>
<path d="M1621.59 327.643C1626.97 328.283 1632.15 321.932 1633.16 313.459C1634.17 304.985 1630.63 297.598 1625.25 296.958C1619.87 296.319 1614.68 302.669 1613.67 311.143C1612.66 319.616 1616.21 327.004 1621.59 327.643Z" fill="#FFE2B7"/>
<path d="M1623.11 317.253C1624.86 317.46 1626.56 315.164 1626.93 312.124C1627.29 309.084 1626.17 306.452 1624.43 306.245C1622.69 306.038 1620.98 308.334 1620.62 311.374C1620.25 314.414 1621.37 317.046 1623.11 317.253Z" fill="#FACC87"/>
<path d="M1603.39 312.641C1607.29 305.922 1606.33 298.038 1601.25 295.033C1596.16 292.028 1588.87 295.038 1584.97 301.758C1581.06 308.477 1582.02 316.36 1587.11 319.365C1592.19 322.371 1599.48 319.36 1603.39 312.641Z" fill="#FFE2B7"/>
<path d="M1597.36 309.195C1598.5 307.247 1598.04 304.856 1596.35 303.855C1594.65 302.854 1592.36 303.622 1591.23 305.57C1590.1 307.518 1590.55 309.909 1592.25 310.91C1593.94 311.911 1596.23 311.143 1597.36 309.195Z" fill="#FACC87"/>
<path d="M1604.29 324.097C1601.7 325.403 1596.62 328.633 1596.09 334.125C1595.99 335.119 1596.4 336.121 1597.21 336.685C1598.02 337.249 1599.21 337.447 1600.9 336.074C1604.27 333.337 1607.31 336.928 1607.31 336.928C1607.31 336.928 1608.92 339.907 1610.9 336.12C1612.64 332.789 1610.74 327.129 1607.3 324.375C1606.46 323.692 1605.27 323.601 1604.3 324.09L1604.29 324.097Z" fill="#FFE2B7"/>
<path d="M1589.09 343.759C1589.09 343.759 1607.63 357.868 1617.15 348.391" stroke="#FFE2B7" stroke-width="3" stroke-linecap="round" stroke-linejoin="round"/>
<path d="M1597.26 342.725L1592.78 354.275" stroke="#FFE2B7" stroke-width="3" stroke-linecap="round" stroke-linejoin="round"/>
<path d="M1605.01 345.498L1603.97 358.407" stroke="#FFE2B7" stroke-width="3" stroke-linecap="round" stroke-linejoin="round"/>
<path d="M1610.89 345.361L1611.9 355.883" stroke="#FFE2B7" stroke-width="3" stroke-linecap="round" stroke-linejoin="round"/>
</g>
<defs>
<clipPath id="clip0_4763_36748">
<rect width="107.038" height="110.856" fill="white" transform="translate(1562.5 259.729) rotate(7.98885)"/>
</clipPath>
</defs>
</svg>
