<svg width="1728" height="525" viewBox="0 0 1728 525" fill="none" xmlns="http://www.w3.org/2000/svg">
<g clip-path="url(#clip0_4769_39826)">
<path fill-rule="evenodd" clip-rule="evenodd" d="M33.7483 149C34.411 148.503 35.3512 148.637 35.8484 149.3L49.3684 167.32C49.8655 167.982 49.7314 168.923 49.0687 169.42C48.4061 169.917 47.4659 169.783 46.9687 169.12L33.4487 151.1C32.9515 150.438 33.0857 149.497 33.7483 149Z" fill="#E8EAFF"/>
<path fill-rule="evenodd" clip-rule="evenodd" d="M41.4102 146C42.2386 146 42.9102 146.672 42.9102 147.5V171.37C42.9102 172.198 42.2386 172.87 41.4102 172.87C40.5817 172.87 39.9102 172.198 39.9102 171.37V147.5C39.9102 146.672 40.5817 146 41.4102 146Z" fill="#E8EAFF"/>
<path fill-rule="evenodd" clip-rule="evenodd" d="M30 157.41C30 156.582 30.6716 155.91 31.5 155.91H51.32C52.1484 155.91 52.82 156.582 52.82 157.41C52.82 158.238 52.1484 158.91 51.32 158.91H31.5C30.6716 158.91 30 158.238 30 157.41Z" fill="#E8EAFF"/>
<path fill-rule="evenodd" clip-rule="evenodd" d="M49.1128 149.932C49.7578 150.452 49.8594 151.396 49.3396 152.041L36.2696 168.261C35.7498 168.906 34.8055 169.008 34.1605 168.488C33.5154 167.968 33.4138 167.024 33.9336 166.379L47.0036 150.159C47.5234 149.514 48.4677 149.412 49.1128 149.932Z" fill="#E8EAFF"/>
<g clip-path="url(#clip1_4769_39826)">
<path d="M221.269 322.777C216.754 323.024 213.488 323.291 212.621 323.367V328.618C214.093 328.503 217.358 328.256 221.592 328.028L221.269 322.777Z" fill="#F1F2FE"/>
<path d="M220.402 337.255C216.834 337.464 214.052 337.654 212.621 337.769V343.02C214.335 342.886 217.197 342.696 220.725 342.506L220.402 337.255Z" fill="#F1F2FE"/>
<path d="M236.892 315.509C233.949 315.547 231.046 315.623 228.305 315.738L228.607 320.494C231.187 320.399 233.929 320.323 236.691 320.304L236.892 315.509Z" fill="#F1F2FE"/>
<path d="M229.194 322.416C227.118 322.492 225.142 322.568 223.328 322.663L223.651 327.914C225.425 327.819 227.34 327.743 229.315 327.686L229.215 322.416H229.194Z" fill="#F1F2FE"/>
<path d="M225.402 329.797C219.274 330.064 214.355 330.444 212.621 330.577V335.828C214.859 335.657 219.778 335.296 225.724 335.048L225.402 329.797Z" fill="#F1F2FE"/>
<path d="M235.827 334.782L236.049 329.493C233.105 329.531 230.203 329.607 227.461 329.721L227.783 334.991C230.364 334.896 233.065 334.82 235.807 334.801L235.827 334.782Z" fill="#F1F2FE"/>
<path d="M255.259 307.443C256.529 306.472 257.477 305.121 257.84 303.561C245.18 302.211 210.063 303.942 205.285 304.189C205.87 305.882 207.12 307.29 208.752 308.127C213.349 307.652 236.31 305.464 255.259 307.443Z" fill="#F1F2FE"/>
<path d="M230.062 308.869L224.195 308.946L224.498 313.949C229.699 313.702 235.988 313.493 242.036 313.569L242.338 308.698L232.118 308.85L232.219 313.664L230.162 313.702L230.062 308.888V308.869Z" fill="#F1F2FE"/>
<path d="M257.998 301.621C257.797 298.368 255.257 295.742 251.931 295.171L251.89 295.076C239.009 294.125 222.579 294.487 211.068 294.924L210.968 295.152C207.5 295.723 204.859 298.577 204.859 302.002C204.859 302.078 204.88 302.154 204.88 302.23C208.73 302.04 244.673 300.194 257.958 301.583L257.998 301.621Z" fill="#F1F2FE"/>
<path d="M244.373 308.679L244.07 313.607C246.227 313.664 248.324 313.759 250.299 313.892V309.003H250.622C250.622 309.003 250.682 309.003 250.723 309.003C248.626 308.85 246.489 308.736 244.373 308.679Z" fill="#F1F2FE"/>
<path d="M228.469 351.334C226.413 351.391 224.417 351.486 222.562 351.581L222.946 368.019H228.832L228.449 351.353L228.469 351.334Z" fill="#F1F2FE"/>
<path d="M222.439 314.063L222.136 309.021C218.306 309.231 215.04 309.497 212.621 309.706V314.71C212.803 314.71 216.774 314.349 222.439 314.044V314.063Z" fill="#F1F2FE"/>
<path d="M235.181 343.952C232.238 343.99 229.335 344.066 226.594 344.18L226.916 349.45C229.497 349.355 232.198 349.279 234.94 349.26L235.161 343.971L235.181 343.952Z" fill="#F1F2FE"/>
<path d="M238.952 315.509L238.75 320.304C242.762 320.304 246.733 320.399 250.321 320.665V315.852C246.793 315.604 242.883 315.509 238.952 315.509Z" fill="#F1F2FE"/>
<path d="M243.565 322.282L243.242 327.571C245.702 327.628 248.08 327.742 250.318 327.914V322.587C248.181 322.434 245.903 322.32 243.565 322.263V322.282Z" fill="#F1F2FE"/>
<path d="M243.042 351.258L242.518 367.582L240.038 367.506L240.563 351.201C237.236 351.144 233.809 351.201 230.523 351.277L230.906 368H250.32V351.696C248.062 351.486 245.622 351.334 243.042 351.258Z" fill="#F1F2FE"/>
<path d="M238.105 329.474L237.883 334.763C242.217 334.763 246.511 334.877 250.321 335.201V329.874C246.571 329.569 242.358 329.455 238.105 329.455V329.474Z" fill="#F1F2FE"/>
<path d="M220.503 351.676C217.117 351.867 214.355 352.057 212.621 352.171V368H220.886L220.503 351.676Z" fill="#F1F2FE"/>
<path d="M242.698 336.76L242.375 342.049C245.157 342.106 247.838 342.259 250.318 342.468V337.141C247.939 336.931 245.359 336.817 242.698 336.741V336.76Z" fill="#F1F2FE"/>
<path d="M212.621 314.919V321.426C214.133 321.293 219.657 320.874 226.551 320.589L226.249 315.833C218.649 316.175 212.903 316.651 212.782 316.67L212.621 314.938V314.919Z" fill="#F1F2FE"/>
<path d="M224.535 344.257C219.233 344.485 214.818 344.809 212.621 344.961V350.212C215.121 350.021 219.596 349.717 224.858 349.508L224.535 344.257Z" fill="#F1F2FE"/>
<path d="M240.321 342.011L240.644 336.722C237.237 336.684 233.729 336.722 230.403 336.836L230.504 342.106L228.448 342.144L228.347 336.913C226.27 336.989 224.295 337.065 222.48 337.16L222.803 342.411C228.004 342.163 234.294 341.954 240.341 342.03L240.321 342.011Z" fill="#F1F2FE"/>
<path d="M241.188 327.552L241.51 322.263C238.103 322.225 234.596 322.263 231.27 322.377L231.37 327.647C234.576 327.552 237.922 327.514 241.188 327.552Z" fill="#F1F2FE"/>
<path d="M250.321 344.428C246.369 344.066 241.834 343.933 237.237 343.952L237.016 349.241C241.693 349.241 246.309 349.374 250.321 349.755V344.428Z" fill="#F1F2FE"/>
<path d="M242.317 272.132L233.689 250.747C233.447 250.139 233.003 249.701 232.499 249.416V229.001H229.899V229.287L215.102 236.098L229.899 242.148V249.301C229.274 249.568 228.73 250.024 228.448 250.747L219.819 272.132L210.688 294.772C222.178 294.315 238.608 293.954 251.509 294.924L242.317 272.151V272.132Z" fill="#E8EAFF"/>
<path d="M66.3708 322.777C61.8552 323.024 58.5895 323.291 57.7227 323.367V328.618C59.1943 328.503 62.46 328.256 66.6934 328.028L66.3708 322.777Z" fill="#F1F2FE"/>
<path d="M65.504 337.255C61.9359 337.464 59.1539 337.654 57.7227 337.769V343.02C59.4362 342.886 62.2987 342.696 65.8266 342.506L65.504 337.255Z" fill="#F1F2FE"/>
<path d="M81.994 315.509C79.0508 315.547 76.1479 315.623 73.4062 315.738L73.7086 320.494C76.289 320.399 79.0306 320.323 81.7924 320.304L81.994 315.509Z" fill="#F1F2FE"/>
<path d="M102.415 304.227L122.574 297.568L126.605 315.642L97.375 320.399V308.984L102.415 304.227Z" fill="#E8EAFF"/>
<path d="M74.3116 322.416C72.2352 322.492 70.2596 322.568 68.4453 322.663L68.7679 327.914C70.5418 327.819 72.4569 327.743 74.4325 327.686L74.3317 322.416H74.3116Z" fill="#F1F2FE"/>
<path d="M70.5034 329.797C64.3751 330.064 59.4563 330.444 57.7227 330.577V335.828C59.9603 335.657 64.8791 335.296 70.826 335.048L70.5034 329.797Z" fill="#F1F2FE"/>
<path d="M80.9246 334.782L81.1463 329.493C78.2031 329.531 75.3002 329.607 72.5586 329.721L72.8811 334.991C75.4615 334.896 78.1628 334.82 80.9044 334.801L80.9246 334.782Z" fill="#F1F2FE"/>
<path d="M100.376 307.443C101.646 306.472 102.594 305.121 102.957 303.561C90.2969 302.211 55.18 303.942 50.4023 304.189C50.987 305.882 52.2368 307.29 53.8697 308.127C58.4659 307.652 81.427 305.464 100.376 307.443Z" fill="#F1F2FE"/>
<path d="M75.1592 308.869L69.293 308.946L69.5954 313.949C74.7964 313.702 81.086 313.493 87.1336 313.569L87.436 308.698L77.2154 308.85L77.3162 313.664L75.26 313.702L75.1592 308.888V308.869Z" fill="#F1F2FE"/>
<path d="M103.1 301.621C102.898 298.368 100.358 295.742 97.0321 295.171L96.9918 295.076C84.1102 294.125 67.6806 294.487 56.1699 294.924L56.0691 295.152C52.6018 295.723 49.9609 298.577 49.9609 302.002C49.9609 302.078 49.9811 302.154 49.9811 302.23C53.8315 302.04 89.7749 300.194 103.06 301.583L103.1 301.621Z" fill="#F1F2FE"/>
<path d="M89.4899 308.679L89.1875 313.607C91.3445 313.664 93.441 313.759 95.4166 313.892V309.003H95.7392C95.7392 309.003 95.7996 309.003 95.84 309.003C93.7434 308.85 91.6066 308.736 89.4899 308.679Z" fill="#F1F2FE"/>
<path d="M73.5667 351.334C71.5105 351.391 69.5148 351.486 67.6602 351.581L68.0432 368.019H73.9296L73.5466 351.353L73.5667 351.334Z" fill="#F1F2FE"/>
<path d="M67.5401 314.063L67.2377 309.021C63.4075 309.231 60.1417 309.497 57.7227 309.706V314.71C57.9041 314.71 61.8754 314.349 67.5401 314.044V314.063Z" fill="#F1F2FE"/>
<path d="M80.2791 343.952C77.3359 343.99 74.433 344.066 71.6914 344.18L72.0139 349.45C74.5943 349.355 77.2956 349.279 80.0372 349.26L80.259 343.971L80.2791 343.952Z" fill="#F1F2FE"/>
<path d="M84.0492 315.509L83.8477 320.304C87.8593 320.304 91.8306 320.399 95.4189 320.665V315.852C91.8911 315.604 87.9802 315.509 84.0492 315.509Z" fill="#F1F2FE"/>
<path d="M88.6663 322.282L88.3438 327.571C90.8031 327.628 93.1819 327.742 95.4195 327.914V322.587C93.2827 322.434 91.0047 322.32 88.6663 322.263V322.282Z" fill="#F1F2FE"/>
<path d="M88.1398 351.258L87.6157 367.582L85.1361 367.506L85.6602 351.201C82.334 351.144 78.907 351.201 75.6211 351.277L76.0041 368H95.4172V351.696C93.1594 351.486 90.7201 351.334 88.1398 351.258Z" fill="#F1F2FE"/>
<path d="M83.2022 329.474L82.9805 334.763C87.3146 334.763 91.6085 334.877 95.4185 335.201V329.874C91.669 329.569 87.4558 329.455 83.2022 329.455V329.474Z" fill="#F1F2FE"/>
<path d="M65.6048 351.676C62.2181 351.867 59.4563 352.057 57.7227 352.171V368H65.9878L65.6048 351.676Z" fill="#F1F2FE"/>
<path d="M87.7991 336.76L87.4766 342.049C90.2585 342.106 92.9396 342.259 95.4192 342.468V337.141C93.0404 336.931 90.4601 336.817 87.7991 336.741V336.76Z" fill="#F1F2FE"/>
<path d="M57.7227 314.919V321.426C59.2346 321.293 64.7581 320.874 71.6525 320.589L71.3501 315.833C63.7502 316.175 58.0049 316.651 57.8839 316.67L57.7227 314.938V314.919Z" fill="#F1F2FE"/>
<path d="M69.6366 344.257C64.3348 344.485 59.92 344.809 57.7227 344.961V350.212C60.2224 350.021 64.6977 349.717 69.9591 349.508L69.6366 344.257Z" fill="#F1F2FE"/>
<path d="M85.4188 342.011L85.7413 336.722C82.3345 336.684 78.8268 336.722 75.5006 336.836L75.6014 342.106L73.5452 342.144L73.4444 336.913C71.368 336.989 69.3924 337.065 67.5781 337.16L67.9007 342.411C73.1017 342.163 79.3913 341.954 85.4389 342.03L85.4188 342.011Z" fill="#F1F2FE"/>
<path d="M86.2854 327.552L86.6079 322.263C83.2011 322.225 79.6934 322.263 76.3672 322.377L76.468 327.647C79.6733 327.552 83.0196 327.514 86.2854 327.552Z" fill="#F1F2FE"/>
<path d="M95.4182 344.428C91.467 344.066 86.9313 343.933 82.335 343.952L82.1133 349.241C86.7902 349.241 91.4066 349.374 95.4182 349.755V344.428Z" fill="#F1F2FE"/>
<path d="M87.4341 272.132L78.806 250.747C78.5641 250.139 78.1206 249.701 77.6167 249.416V229.001H75.0162V229.287L60.2195 236.098L75.0162 242.148V249.301C74.3912 249.568 73.8469 250.024 73.5647 250.747L64.9367 272.132L55.8047 294.772C67.2953 294.315 83.7248 293.954 96.6265 294.924L87.4341 272.151V272.132Z" fill="#E8EAFF"/>
<path d="M97.4531 317.278L135.795 313.606L138.698 326.829L124.889 328.846L121.2 353.274L97.4531 356.756V317.278Z" fill="#F1F2FE"/>
<path d="M205.222 304.227L185.063 297.568L181.031 315.642L210.262 320.399V308.984L205.222 304.227Z" fill="#E8EAFF"/>
<path d="M211.292 316.537L172.95 312.865L170.047 326.087L183.856 328.104L187.545 352.532L211.292 356.033V316.537Z" fill="#F1F2FE"/>
<path d="M128.256 289.616L126.563 266.976C126.563 266.976 116.726 262.961 118.56 258.072C120.395 253.182 182.89 255.94 182.89 255.94C182.89 255.94 191.193 262.372 178.714 268.136L178.089 290.757L151.69 283.139L128.277 289.597L128.256 289.616Z" fill="#F1F2FE"/>
<path d="M132.437 314.205L118.043 315.5V296.5C118.101 296.463 118.164 296.423 118.232 296.379C118.644 296.116 119.235 295.742 119.952 295.299C121.387 294.414 123.318 293.258 125.311 292.17C127.313 291.078 129.342 290.075 130.983 289.478C131.808 289.178 132.483 289 132.981 288.948C133.326 288.912 133.48 288.946 133.531 288.961C133.549 288.996 133.583 289.069 133.625 289.197C133.696 289.421 133.764 289.736 133.821 290.146C133.934 290.964 133.991 292.057 133.999 293.35C134.015 295.93 133.838 299.192 133.592 302.411C133.346 305.625 133.033 308.774 132.782 311.122C132.656 312.295 132.546 313.267 132.467 313.946C132.456 314.038 132.446 314.124 132.437 314.205Z" fill="#F1F2FE" stroke="white" stroke-width="2"/>
<path d="M166.297 291.184C166.449 291.075 166.644 290.947 166.883 290.812C167.61 290.4 168.752 289.912 170.358 289.671C173.493 289.201 178.506 289.66 185.761 293.687L187.308 315.328L172.204 315.328L166.297 291.184Z" fill="#F1F2FE" stroke="white" stroke-width="2"/>
<path d="M153.233 154.993C153.233 154.993 160.229 154.023 161.015 169.928C161.801 185.833 170.812 200.159 177.626 203.469C186.193 207.636 185.931 214.732 185.931 214.732C185.931 214.732 155.572 206.894 118.479 214.485C118.479 214.485 117.371 207.807 129.567 201.167C131.804 199.95 133.74 198.275 135.09 196.202C141.098 187.012 145.19 170.422 145.19 170.422C145.19 170.422 146.218 154.993 153.233 154.993Z" fill="#E8EAFF"/>
<path d="M131.289 324.411L131.24 326.797L132.674 325.444L141.97 326.152L142.985 326.23L143.044 325.213L144.594 298.629C145.838 290.965 147.96 287.722 149.564 286.365C150.359 285.692 151.05 285.462 151.503 285.385C151.733 285.345 151.911 285.344 152.02 285.35C152.074 285.353 152.111 285.358 152.129 285.36C152.133 285.361 152.135 285.361 152.137 285.362C154.574 285.89 156.557 288.343 158.097 292.288C159.612 296.166 160.567 301.153 161.159 306.127C161.75 311.088 161.973 315.978 162.049 319.632C162.087 321.458 162.087 322.972 162.079 324.028C162.074 324.557 162.068 324.97 162.062 325.251C162.059 325.392 162.057 325.499 162.055 325.57L162.053 325.651L162.052 325.671L162.052 325.676L162.052 325.677C162.052 325.677 162.052 325.677 163.052 325.707L162.052 325.677L162.021 326.723L163.067 326.707L175.324 326.517L176.376 326.5L176.306 325.45L173.968 290.197L173.932 289.663L173.469 289.397L166.596 285.433L152.481 270.847L151.69 270.029L150.981 270.918L139.397 285.433L133.047 285.61L132.095 285.637L132.075 286.589L131.289 324.411Z" fill="#F1F2FE" stroke="white" stroke-width="2"/>
<path d="M133.788 336.47L133.788 336.472L134.372 353.898L134.403 354.825L135.33 354.864L144.079 355.225L145.104 355.267L145.12 354.241L145.322 341.019L145.322 340.98L145.32 340.943L145.32 340.942L145.32 340.942L145.32 340.942L145.32 340.941L145.319 340.929C145.319 340.916 145.318 340.895 145.317 340.866C145.315 340.809 145.313 340.72 145.313 340.604C145.314 340.372 145.324 340.035 145.36 339.627C145.434 338.807 145.614 337.731 146.032 336.664C146.448 335.599 147.087 334.577 148.061 333.811C149.024 333.054 150.379 332.496 152.327 332.452C156.342 332.363 158.32 333.727 159.318 334.953C159.835 335.586 160.124 336.225 160.283 336.702C160.362 336.941 160.408 337.136 160.434 337.265C160.447 337.33 160.454 337.377 160.458 337.406C160.46 337.417 160.461 337.425 160.462 337.429L161.831 353.569L161.909 354.484H162.828H172.161H173.208L173.16 353.439L172.576 340.578L172.574 340.533L172.568 340.49L172.568 340.49L172.568 340.489L172.568 340.489L172.566 340.477C172.565 340.471 172.564 340.464 172.563 340.455C172.562 340.444 172.561 340.432 172.559 340.418C172.554 340.364 172.545 340.282 172.537 340.175C172.52 339.96 172.504 339.649 172.504 339.273C172.504 338.516 172.573 337.531 172.834 336.565C173.096 335.597 173.535 334.71 174.228 334.07C174.901 333.449 175.892 332.985 177.423 332.985C180.607 332.985 182.145 334.25 182.927 335.394C183.336 335.992 183.563 336.594 183.687 337.048C183.749 337.274 183.784 337.46 183.803 337.583C183.812 337.645 183.818 337.691 183.821 337.718C183.822 337.732 183.823 337.741 183.824 337.745C183.824 337.745 183.824 337.745 183.824 337.745C183.824 337.745 183.824 337.746 183.824 337.746C183.824 337.747 183.824 337.747 183.824 337.747L183.826 337.775L183.83 337.808L185.967 353.599L186.078 354.42L186.905 354.464L193.719 354.825L194.753 354.88L194.771 353.844L193.772 353.826C194.771 353.844 194.771 353.844 194.771 353.844L194.771 353.843L194.771 353.841L194.772 353.834L194.772 353.808L194.773 353.706C194.774 353.617 194.776 353.486 194.777 353.317C194.779 352.978 194.78 352.484 194.776 351.863C194.767 350.62 194.737 348.864 194.652 346.808C194.483 342.702 194.092 337.37 193.203 332.528C192.224 327.197 187.82 324.676 183.974 323.491C182.03 322.892 180.153 322.608 178.769 322.472C178.075 322.404 177.5 322.373 177.095 322.359C176.893 322.352 176.733 322.349 176.622 322.348C176.566 322.348 176.523 322.348 176.493 322.348L176.457 322.348L176.449 322.348L176.448 322.348L176.447 322.348L176.443 322.348L176.442 322.348L176.425 322.348L176.353 322.349L176.068 322.35C175.819 322.351 175.451 322.353 174.977 322.355C174.03 322.36 172.662 322.366 170.978 322.372C167.61 322.384 162.977 322.396 157.919 322.396C147.797 322.396 135.988 322.348 129.19 322.158C122.167 321.962 118.698 324.095 117.083 326.602C116.297 327.822 116.006 329.05 115.91 329.967C115.862 330.426 115.862 330.813 115.874 331.09C115.881 331.229 115.89 331.342 115.899 331.423C115.901 331.439 115.902 331.453 115.904 331.466L115.326 352.71L115.017 353.583L115.99 353.902L124.94 356.832L126.267 357.266L126.251 355.87L126.05 338.423L126.049 338.385L126.046 338.349L126.046 338.348L126.046 338.348L126.046 338.347L126.046 338.347L126.045 338.34C126.045 338.332 126.044 338.318 126.042 338.298C126.04 338.259 126.037 338.198 126.034 338.118C126.029 337.959 126.026 337.727 126.037 337.449C126.059 336.885 126.137 336.162 126.347 335.469C126.559 334.771 126.882 334.174 127.345 333.774C127.782 333.396 128.425 333.119 129.454 333.192C131.692 333.352 132.721 334.257 133.225 335.002C133.49 335.395 133.634 335.781 133.71 336.067C133.747 336.209 133.768 336.322 133.778 336.395C133.784 336.431 133.786 336.457 133.788 336.47Z" fill="#F1F2FE" stroke="white" stroke-width="2"/>
<path d="M129.105 250.253L128.319 224.778C128.319 224.778 119.49 222.819 118.199 214.733C116.909 206.647 155.816 206.894 155.816 206.894C155.816 206.894 182.285 206.894 185.651 214.98C189.018 223.066 174.745 225.748 174.745 225.748L173.959 250.234H129.065L129.105 250.253Z" fill="#F1F2FE"/>
<path d="M156.925 235.268H145.37C143.829 230.917 144.233 222.213 151.686 222.213C158.621 222.213 157.696 231.642 156.925 235.268Z" fill="white"/>
<path d="M152.065 133.361L134.305 141.523L152.065 148.791V156.458H155.189V133H152.065V133.361Z" fill="#F1F2FE"/>
<path d="M130.919 247.056C130.919 247.056 120.275 252.193 118.461 258.319C117.597 261.249 152.841 260.292 152.841 260.292C152.841 260.292 181.73 261.38 185.196 258.319C183.382 254.4 170.108 245.82 170.108 245.82L130.939 247.037L130.919 247.056Z" fill="#E8EAFF"/>
</g>
<path d="M277.758 176.091C278.523 174.734 280.477 174.734 281.242 176.091L283.97 180.931C284.256 181.437 284.747 181.795 285.317 181.91L290.763 183.008C292.29 183.317 292.894 185.175 291.84 186.322L288.08 190.413C287.686 190.841 287.499 191.418 287.565 191.996L288.203 197.515C288.382 199.063 286.801 200.211 285.384 199.563L280.332 197.251C279.804 197.009 279.196 197.009 278.668 197.251L273.616 199.563C272.199 200.211 270.618 199.063 270.797 197.515L271.435 191.996C271.501 191.418 271.314 190.841 270.92 190.413L267.16 186.322C266.106 185.175 266.71 183.317 268.237 183.008L273.683 181.91C274.253 181.795 274.744 181.437 275.03 180.931L277.758 176.091Z" fill="#F1F2FE"/>
<path fill-rule="evenodd" clip-rule="evenodd" d="M217.121 111.456C217.673 111.049 218.455 111.159 218.869 111.702L230.126 126.456C230.54 126.998 230.428 127.768 229.877 128.175C229.325 128.582 228.542 128.472 228.128 127.93L216.871 113.176C216.457 112.633 216.569 111.863 217.121 111.456Z" fill="#F1F2FE"/>
<path fill-rule="evenodd" clip-rule="evenodd" d="M223.5 109C224.19 109 224.749 109.55 224.749 110.228V129.772C224.749 130.45 224.19 131 223.5 131C222.81 131 222.251 130.45 222.251 129.772V110.228C222.251 109.55 222.81 109 223.5 109Z" fill="#F1F2FE"/>
<path fill-rule="evenodd" clip-rule="evenodd" d="M214 118.342C214 117.664 214.559 117.114 215.249 117.114H231.751C232.441 117.114 233 117.664 233 118.342C233 119.02 232.441 119.57 231.751 119.57H215.249C214.559 119.57 214 119.02 214 118.342Z" fill="#F1F2FE"/>
<path fill-rule="evenodd" clip-rule="evenodd" d="M229.913 112.219C230.45 112.645 230.535 113.418 230.102 113.946L219.22 127.227C218.787 127.755 218.001 127.838 217.464 127.412C216.927 126.987 216.842 126.213 217.275 125.685L228.157 112.405C228.59 111.877 229.376 111.794 229.913 112.219Z" fill="#F1F2FE"/>
<rect x="-39.9609" y="348" width="1768" height="247" fill="#F1F2FE"/>
<g clip-path="url(#clip2_4769_39826)">
<path d="M1569.8 313.39C1568.34 309.293 1565.13 306.671 1562.25 307.441C1559.37 308.212 1557.9 312.151 1558.72 316.441C1556.21 312.773 1552.32 311.05 1549.71 312.588C1547.69 313.793 1547.03 316.658 1547.8 319.75C1545.31 318.337 1542.7 318.157 1541.02 319.564C1539.39 320.948 1539.1 323.475 1539.99 326.122C1537.45 325.874 1535.24 326.637 1534.23 328.389C1532.84 330.832 1534.25 334.352 1537.43 336.81L1542.79 370.609L1596.98 368.739C1598.25 370.302 1600.17 371.362 1602.39 371.468C1606.46 371.667 1609.89 368.639 1610.08 364.711C1610.19 362.549 1609.24 360.589 1607.73 359.209C1609.85 358.245 1611.29 356.649 1611.38 354.778C1611.46 353.094 1610.44 351.554 1608.78 350.392C1610.71 348.78 1611.67 346.7 1611.16 344.77C1610.71 343.147 1609.28 341.988 1607.35 341.405C1609.08 339.041 1609.59 336.394 1608.32 334.541C1607.18 332.885 1604.93 332.264 1602.42 332.717C1603.25 330.875 1603.3 329.007 1602.35 327.607C1601.24 325.99 1599.07 325.384 1596.63 325.77C1598.15 322.531 1597.97 319.189 1595.93 317.62C1594.6 316.6 1592.75 316.549 1590.88 317.246C1591.18 314.573 1590.39 312.228 1588.54 311.225C1586.36 310.039 1583.42 311.063 1581.12 313.531C1580.72 309.75 1578.68 306.834 1575.98 306.66C1573.14 306.455 1570.56 309.378 1569.78 313.412L1569.8 313.39Z" fill="#E8EAFF"/>
<path d="M1513.33 334.067C1511.9 331.439 1509.3 329.89 1506.71 330.391C1504.63 330.792 1503.06 332.42 1502.31 334.567C1499.96 332.751 1496.98 332.37 1494.81 333.834C1493.71 334.577 1492.98 335.707 1492.64 336.996C1490.67 336.582 1488.55 336.945 1486.75 338.153C1485.24 339.176 1484.25 340.657 1483.75 342.288C1480.79 342.175 1477.91 343.795 1476.52 346.63C1475.97 347.79 1475.75 349.028 1475.8 350.225C1473.71 350.793 1471.87 352.192 1470.84 354.276C1469.32 357.432 1470.16 361.077 1472.62 363.32C1471.04 364.036 1469.67 365.256 1468.84 366.953C1467.03 370.813 1468.63 375.418 1472.47 377.269C1475.62 378.798 1479.28 377.949 1481.52 375.465L1542.46 369.577C1543.81 370.472 1545.53 371.029 1547.43 370.993C1551.68 370.929 1555.07 368.071 1555.02 364.616C1554.98 361.864 1552.75 359.584 1549.71 358.793C1551.31 356.645 1551.74 353.984 1550.53 351.898C1549.3 349.793 1546.73 348.864 1544.05 349.247C1546.09 346.032 1545.84 342.115 1543.34 340.145C1541.63 338.801 1539.28 338.683 1537.14 339.628C1537.18 336.849 1535.86 334.357 1533.56 333.429C1530.49 332.184 1526.81 334.132 1525.12 337.778C1525.58 333.705 1523.39 330.076 1520.07 329.554C1517.29 329.116 1514.6 331.054 1513.35 334.065L1513.33 334.067Z" fill="#F1F2FE"/>
<path d="M1489.29 362.798C1489.29 362.798 1478.06 347.635 1494.35 355.757C1494.35 355.757 1487.82 342.9 1500.43 351.583C1500.43 351.583 1499.16 334.341 1507.66 348.649C1507.66 348.649 1511.88 330.217 1518.21 347.335" stroke="white" stroke-width="3" stroke-miterlimit="10" stroke-linecap="round" stroke-linejoin="round"/>
<path d="M1499 368.025C1499 368.025 1504.84 353.202 1507.24 367.957C1507.24 367.957 1516.81 356.858 1516.31 371.826" stroke="white" stroke-width="3" stroke-miterlimit="10" stroke-linecap="round" stroke-linejoin="round"/>
<path d="M1566.27 344.947C1566.27 344.947 1574.47 329.951 1573.75 345.454C1573.75 345.454 1584.72 342.514 1577.77 353.153C1577.77 353.153 1588.49 350.501 1580.33 359.094" stroke="white" stroke-width="3" stroke-miterlimit="10" stroke-linecap="round" stroke-linejoin="round"/>
<path d="M1552.39 335.74C1552.39 335.74 1548.95 321.599 1560.1 331.985C1560.1 331.985 1557.43 324.725 1562.43 323.819C1567.43 322.913 1566.72 331.498 1566.72 331.498C1566.72 331.498 1566.95 323.756 1572.05 324.438C1577.14 325.119 1575.69 334.028 1575.69 334.028C1575.69 334.028 1577.54 322.957 1584.23 330.729C1584.23 330.729 1586.18 331.911 1582.68 338.568" stroke="white" stroke-width="3" stroke-miterlimit="10" stroke-linecap="round" stroke-linejoin="round"/>
<path d="M1584 347.18C1584 347.18 1584.64 341.541 1591.04 345.338C1591.04 345.338 1595.82 348.714 1587.28 352.014C1587.28 352.014 1599.98 351.08 1589.61 358.511C1589.61 358.511 1597.47 356.877 1593.42 363.305" stroke="white" stroke-width="3" stroke-miterlimit="10" stroke-linecap="round" stroke-linejoin="round"/>
</g>
<path d="M425.372 334.189C430.324 340.97 435.156 349.266 437.04 357.66L431.67 358.881C427.671 341.073 408.053 322.694 407.855 322.516L411.612 318.48C412.1 318.939 418.852 325.239 425.383 334.18L425.372 334.189Z" fill="#F1F2FE"/>
<path d="M452.632 330.235C447.445 335.536 433.686 350.938 432.331 358.589L426.907 357.657C428.794 346.95 446.671 328.473 448.701 326.395L452.632 330.235Z" fill="#F1F2FE"/>
<path d="M429.142 359.456L434.645 359.379L434.205 316.404L428.702 316.481L429.142 359.456Z" fill="#F1F2FE"/>
<path d="M415.209 314.037C412.232 309.961 406.502 309.08 402.41 312.069C398.318 315.058 397.414 320.785 400.391 324.86C403.368 328.935 409.098 329.816 413.19 326.828C417.282 323.839 418.186 318.112 415.209 314.037Z" fill="#E5E7FC"/>
<path d="M439.186 305.379C436.209 301.304 430.479 300.423 426.387 303.412C422.295 306.401 421.391 312.127 424.368 316.203C427.345 320.278 433.075 321.159 437.167 318.17C441.259 315.182 442.163 309.455 439.186 305.379Z" fill="#E5E7FC"/>
<path d="M457.097 324.154C454.563 320.684 449.684 319.934 446.2 322.478C442.717 325.023 441.947 329.898 444.482 333.368C447.016 336.838 451.894 337.588 455.378 335.043C458.862 332.499 459.631 327.623 457.097 324.154Z" fill="#E5E7FC"/>
<path d="M312.584 345.82C312.584 345.82 315.977 339.356 331.875 336.526C347.022 333.822 337.147 325.414 337.147 325.414C337.147 325.414 326.53 318.55 314.866 332.403C314.866 332.403 314.6 323.866 326.546 320.481C326.546 320.481 339.765 320 338.281 312.402C336.796 304.804 317.889 311.133 314.57 315.636C311.25 320.139 317.923 304.553 326.844 299.124C326.855 299.126 332.558 291.096 323.196 289.328C323.196 289.328 315.788 287.27 312.297 305.741C312.297 305.741 312.518 287.124 297.749 289.045C297.749 289.045 293.893 291.283 295.245 297.767C295.245 297.767 298.797 302.063 304.881 305.878C304.881 305.878 311.239 309.717 310.232 315.351C310.232 315.351 299.236 302.951 288.376 310.6C288.376 310.6 282.376 318.868 293.693 320.335C293.693 320.335 309.234 318.78 309.774 333.661C309.774 333.661 304.836 323.143 291.179 324.943C291.179 324.943 285.271 326.095 289.045 335.087C289.045 335.087 291.728 337.629 300.013 339.247C308.298 340.864 308.272 345.251 308.272 345.251L312.585 345.81L312.584 345.82Z" fill="#F1F2FE"/>
<path d="M1362.46 319.664C1362.46 319.664 1375.72 287.818 1413.51 286.666C1451.31 285.513 1461.45 292.596 1499.52 261.497C1537.59 230.398 1534.5 225.737 1567.03 228.049C1599.57 230.361 1633.25 250.804 1677.89 191.034C1677.89 191.034 1685.93 156.37 1647.44 159.654C1647.44 159.654 1629.6 163.101 1607.76 180.099C1585.92 197.097 1560.35 191.405 1560.35 191.405C1560.35 191.405 1537.78 183.306 1495.75 222.922C1453.71 262.538 1451.84 264.185 1424.92 264.015C1397.99 263.846 1352.5 281.847 1336.89 320.266L1362.48 319.654L1362.46 319.664Z" fill="#E8EAFF"/>
<path d="M1329.18 176.391L1394.01 133.954L1381.82 169.447L1405.08 132.868L1412.55 138.421L1420.94 116.958L1413.96 113.874L1409.33 118.616L1404.97 116.04L1367.29 144.246L1398.27 110.622L1390.15 112.505L1405.69 103.382L1396.66 87.8385L1377.06 96.2811L1388.02 105.872L1348 134.212L1378.2 122.739L1329.18 176.391Z" fill="#F1F2FE"/>
<path d="M1378.24 118.159L1387.85 117.538L1353.37 156.465L1399.18 124.515L1398.55 133.449L1407.29 124.076L1410.5 129.295L1414.93 118.246L1414.38 117.229L1394.16 92.9459L1385.04 95.805L1395.05 106.535L1378.24 118.159Z" fill="#C8CDFF"/>
<g clip-path="url(#clip3_4769_39826)">
<path d="M1419.2 47.1227C1419.2 47.1227 1454.04 70.0527 1465.51 97.9833L1441.62 99.1581L1416.91 68.63L1419.2 47.1227Z" fill="#C8CDFF"/>
<path d="M1401.99 70.7587C1401.99 70.7587 1382.48 65.488 1375.1 81.4667C1375.1 81.4667 1392.47 79.4007 1400.08 89.024C1407.69 98.6473 1401.99 70.7587 1401.99 70.7587Z" fill="#C8CDFF"/>
<path d="M1439.32 111.867C1439.32 111.867 1442.69 131.788 1426.07 137.601C1426.07 137.601 1429.8 120.509 1420.95 112.011C1412.1 103.513 1439.32 111.867 1439.32 111.867Z" fill="#C8CDFF"/>
<path opacity="0.5" d="M1423.89 79.9087L1430.91 87.6433L1489.12 66.1176L1482.09 58.383L1423.89 79.9087Z" fill="white"/>
<path d="M1419.2 47.123C1415.53 50.8517 1395.22 72.1836 1394.11 87.8571C1394.11 87.8571 1391.82 95.5849 1403.33 107.983C1403.33 107.983 1413.11 118.195 1418.54 118.907C1422.88 119.477 1443.81 117.03 1465.51 97.9836C1463.63 97.1023 1440.43 85.6772 1419.2 47.123Z" fill="#E8EAFF"/>
<path opacity="0.1" d="M1481.68 80.3785C1483.06 78.533 1484.32 76.7408 1485.46 74.9994C1458.5 58.217 1445.02 32.6549 1443.23 29.0831C1436.29 33.0029 1428.48 38.637 1419.76 46.5525C1419.76 46.5525 1419.56 46.7534 1419.2 47.123C1440.43 85.6773 1463.62 97.104 1465.51 97.9837C1470.94 93.2213 1476.41 87.4273 1481.68 80.3804L1481.68 80.3785Z" fill="#6B3DEF"/>
<path d="M1495.43 48.3112C1486.37 41.5558 1474.05 25.5543 1470.73 21.1445C1463.79 20.818 1454.69 22.6168 1443.23 29.0851C1445.02 32.6568 1458.5 58.2189 1485.46 75.0013C1492.56 64.1293 1495.12 55.2641 1495.43 48.3131L1495.43 48.3112Z" fill="#E8EAFF"/>
<path d="M1495.42 48.311C1496 35.1024 1488.45 28.8068 1488.45 28.8068C1488.45 28.8068 1482.89 21.7164 1470.73 21.1443C1474.05 25.5577 1486.36 41.5557 1495.42 48.311Z" fill="#C8CDFF"/>
<path d="M1423.83 101.093C1425.04 102.422 1427.02 102.584 1428.27 101.454C1429.51 100.325 1429.54 98.3322 1428.33 97.0035C1427.13 95.6748 1425.14 95.5132 1423.9 96.6426C1422.65 97.772 1422.62 99.7647 1423.83 101.093Z" fill="#C8CDFF"/>
<path d="M1424.28 100.685C1425.25 101.748 1426.84 101.877 1427.83 100.974C1428.83 100.07 1428.85 98.4756 1427.88 97.4124C1426.92 96.3492 1425.33 96.2199 1424.33 97.1236C1423.34 98.0273 1423.32 99.6218 1424.28 100.685Z" fill="#E8EAFF"/>
<path d="M1425.18 99.8675C1425.66 100.4 1426.46 100.464 1426.96 100.012C1427.46 99.5597 1427.47 98.7617 1426.98 98.2296C1426.5 97.6975 1425.71 97.6328 1425.21 98.0851C1424.71 98.5374 1424.7 99.3354 1425.18 99.8675Z" fill="#C8CDFF"/>
<mask id="mask0_4769_39826" style="mask-type:alpha" maskUnits="userSpaceOnUse" x="1393" y="47" width="73" height="72">
<path d="M1419.2 47.123C1415.53 50.8517 1395.22 72.1836 1394.11 87.8571C1394.11 87.8571 1391.82 95.5849 1403.33 107.983C1403.33 107.983 1413.11 118.195 1418.54 118.907C1422.88 119.477 1443.81 117.03 1465.51 97.9836C1463.63 97.1023 1440.43 85.6772 1419.2 47.123Z" fill="#E8EAFF"/>
</mask>
<g mask="url(#mask0_4769_39826)">
<path fill-rule="evenodd" clip-rule="evenodd" d="M1403.35 108.412C1403.35 108.412 1403.35 108.412 1402.27 107.373C1401.19 106.333 1401.43 106.071 1401.43 106.071L1401.44 106.066L1401.45 106.052L1401.5 106C1401.54 105.956 1401.42 106.084 1401.5 106C1401.67 105.833 1401.85 105.659 1402.16 105.355C1402.78 104.747 1403.67 103.893 1404.76 102.901C1406.93 100.921 1409.93 98.3714 1413.18 96.1324C1416.4 93.9123 1419.99 91.9097 1423.36 91.1499C1426.75 90.3838 1430.18 90.8488 1432.53 93.9342C1432.55 93.9566 1432.57 93.9822 1432.6 94.011C1432.69 94.111 1432.81 94.2499 1432.94 94.4269C1433.21 94.7799 1433.56 95.2906 1433.86 95.9497C1434.48 97.2813 1434.94 99.2024 1434.43 101.585C1433.41 106.302 1429.87 111.639 1416.5 118.5L1413 117C1426.18 110.237 1430.77 104.29 1431.49 100.951C1431.85 99.305 1431.53 98.0495 1431.14 97.2114C1430.94 96.7857 1430.72 96.4633 1430.56 96.2545C1430.48 96.1505 1430.42 96.0764 1430.38 96.0334C1430.36 96.0122 1430.35 95.9988 1430.34 95.9933L1430.26 95.9123L1430.18 95.8078C1428.79 93.9367 1426.75 93.4575 1424.02 94.0761C1421.22 94.7083 1418 96.4496 1414.88 98.6026C1411.78 100.737 1408.9 103.19 1406.78 105.119C1405.72 106.082 1404.86 106.909 1404.27 107.494C1403.97 107.786 1403.74 108.018 1403.58 108.176C1403.51 108.254 1403.45 108.315 1403.41 108.355L1403.36 108.399L1403.35 108.41L1403.35 108.412Z" fill="#C8CDFF"/>
</g>
<path d="M1461.91 25.6003C1461.76 25.3792 1461.5 25.2345 1461.24 25.1713C1460.93 24.9606 1460.56 24.8857 1460.31 25.1133C1457.9 27.3957 1455.18 29.3089 1452.18 30.7841C1451.3 31.2146 1452.43 32.5291 1453.13 32.1818C1454.16 31.6757 1455.16 31.1205 1456.13 30.5242C1456.28 30.6815 1456.48 30.8037 1456.69 30.8388C1458.42 31.1205 1461.21 31.5194 1462.58 30.2948C1464.02 29.0073 1462.85 26.9383 1461.91 25.6001L1461.91 25.6003ZM1460.41 29.5173C1459.5 29.747 1458.47 29.7484 1457.48 29.6504C1458.77 28.7708 1460 27.8015 1461.16 26.7422C1461.75 27.8612 1461.97 29.1233 1460.41 29.5192L1460.41 29.5173Z" fill="#C8CDFF"/>
<path d="M1466.83 32.9588C1466.79 32.9043 1466.74 32.8455 1466.69 32.7863C1466.61 32.5481 1466.36 32.2487 1466.03 32.086C1463.59 30.8822 1461.42 31.842 1459.4 33.1355C1457.62 34.2769 1455.92 36.209 1457.83 38.3441C1458.47 39.0552 1459.41 39.5856 1460.34 39.6807C1461.69 39.8183 1462.72 38.9108 1463.74 38.2398C1465.38 37.1679 1468.66 35.4788 1466.83 32.9607L1466.83 32.9588ZM1463.14 36.6252C1462.48 37.0591 1461.82 37.506 1461.15 37.9249C1460.89 38.0905 1460.62 38.2754 1460.31 38.3797C1459.54 38.6469 1458.56 38.0335 1458.51 37.1517C1458.43 35.5089 1460.23 34.5598 1461.4 33.8566C1462.58 33.1504 1464.08 32.3798 1465.54 32.8021C1466.7 34.5398 1464.25 35.8924 1463.14 36.6233L1463.14 36.6252Z" fill="#C8CDFF"/>
<path d="M1470.52 37.3088C1470.63 37.2401 1470.69 37.1108 1470.67 36.9C1470.66 36.8554 1470.65 36.8106 1470.65 36.766C1470.59 36.3479 1470.09 36.0176 1469.73 35.9191C1469.39 35.8259 1469.05 35.8707 1468.71 36.0026C1468.5 35.9767 1468.36 36.0655 1468.3 36.2146C1467.42 36.7545 1466.63 37.7927 1466.09 38.3685C1464.77 39.7562 1463.55 41.2103 1461.99 42.313C1461.92 42.3255 1461.86 42.3488 1461.81 42.3888C1461.67 42.4925 1461.54 42.5965 1461.4 42.7002C1460.75 43.1984 1462.11 44.2633 1462.69 43.9076C1463.77 43.2477 1464.69 42.4198 1465.56 41.5277C1467.35 41.9082 1470.1 42.1758 1471.41 40.7791C1472.52 39.6056 1471.6 38.3139 1470.52 37.3107L1470.52 37.3088ZM1468.79 40.3041C1468.07 40.4893 1467.3 40.5385 1466.54 40.4853C1467.05 39.9295 1467.55 39.3695 1468.09 38.8407C1468.23 38.6987 1468.86 38.0108 1469.36 37.5769C1469.83 37.9666 1470.31 38.4543 1470.34 38.9266C1470.38 39.7324 1469.38 40.151 1468.79 40.3025L1468.79 40.3041Z" fill="#C8CDFF"/>
<path d="M1469.47 50.4192C1469.46 50.3972 1469.45 50.3768 1469.44 50.3547C1469.39 50.2516 1469.3 50.1581 1469.2 50.0722C1469.01 49.4097 1469.27 48.168 1469.41 47.6261C1469.63 46.769 1470.01 45.9698 1470.55 45.2895C1471.74 43.8059 1473.57 43.0468 1475.5 43.0836C1476.55 43.1038 1475.59 41.7202 1474.86 41.7046C1472.53 41.6615 1470.32 42.5896 1468.95 44.4359C1467.88 45.8808 1466.9 48.8279 1468.03 50.6111C1468.25 50.967 1468.93 51.3152 1469.3 51.0577C1469.33 51.042 1469.35 51.0261 1469.37 51.0086C1469.56 50.879 1469.57 50.6216 1469.47 50.4173L1469.47 50.4192Z" fill="#C8CDFF"/>
<path d="M1478.97 45.755C1479.02 45.3335 1478.53 44.8924 1478.08 44.7477C1478.05 44.7297 1478.03 44.7119 1478 44.6955C1475.98 43.4731 1474 44.4304 1472.57 45.8719C1471.35 47.0911 1469.08 50.2816 1470.38 52.2085C1471.78 54.2945 1474.66 52.1984 1476 51.3653C1477.01 50.7339 1478.37 49.982 1478.95 48.8883C1479.52 47.8388 1478.83 46.8565 1478.97 45.7566L1478.97 45.755ZM1476.5 48.8919C1475.88 49.3889 1475.22 49.8458 1474.53 50.2603C1473.9 50.6451 1472.72 51.5759 1471.95 51.5787C1471.57 51.5795 1471.63 51.6954 1471.71 51.1277C1471.76 50.7435 1471.9 50.3645 1472.04 50.0077C1472.31 49.2546 1472.69 48.5486 1473.16 47.9084C1473.87 46.9431 1475.85 44.7821 1477.36 45.6383C1477.39 46.0047 1477.48 46.3632 1477.54 46.7501C1477.71 47.7745 1477.23 48.3098 1476.5 48.8903L1476.5 48.8919Z" fill="#C8CDFF"/>
<path d="M1480.26 53.7847C1481.34 54.1093 1482.46 54.1664 1483.31 53.414C1484.76 52.1306 1483.21 49.9234 1482.51 48.536C1482.45 48.407 1482.36 48.2812 1482.25 48.1683C1482.11 47.6959 1481.19 47.0925 1480.83 47.3601C1479.39 48.4371 1478.64 50.0374 1477.59 51.4645C1477.05 52.198 1476.48 52.9076 1475.89 53.6038C1475.56 54.0007 1474.59 54.7545 1474.6 55.3293C1474.61 55.8618 1475.31 56.2403 1475.75 56.3274C1475.78 56.3338 1475.81 56.3418 1475.85 56.3482C1476.06 56.3898 1476.22 56.3076 1476.27 56.1102L1476.29 56.0339C1476.3 55.9629 1476.29 55.886 1476.26 55.8093C1476.54 55.342 1477.31 54.6928 1477.53 54.4246C1477.89 53.9944 1478.24 53.5566 1478.58 53.1127C1478.61 53.1256 1478.64 53.1382 1478.66 53.151C1478.24 54.8713 1478.05 56.6351 1478.1 58.4409C1478.11 59.043 1479.67 59.838 1479.66 59.2058C1479.61 57.3538 1479.81 55.5433 1480.26 53.7844L1480.26 53.7847ZM1482.24 51.8955C1481.81 52.7938 1480.94 52.8944 1480.06 52.7132C1479.81 52.4946 1479.45 52.3229 1479.19 52.3156C1479.98 51.2032 1480.61 49.9677 1481.57 49.0194C1482.09 49.9614 1482.63 51.072 1482.24 51.8955Z" fill="#C8CDFF"/>
<path d="M1490.09 54.869C1490.3 54.1666 1488.74 53.3415 1488.49 54.1681C1487.88 56.2492 1486.8 58.0766 1485.33 59.5636C1485.42 58.9555 1485.46 58.3407 1485.46 57.7116C1485.46 56.2749 1485.34 54.869 1485.8 53.5147C1485.83 53.4287 1485.84 53.3405 1485.81 53.2557C1485.89 53.1876 1485.97 53.1268 1486.05 53.0682C1486.76 52.564 1485.41 51.3802 1484.78 51.8305C1483.31 52.8787 1482.85 54.8203 1481.99 56.3457C1481.5 57.1971 1480.97 58.014 1480.38 58.7895C1480.02 59.2637 1479.32 59.7726 1479.4 60.4488C1479.45 60.8609 1479.92 61.2576 1480.31 61.316C1480.65 61.3685 1480.88 61.3322 1481.09 61.0575C1481.18 60.9292 1481.17 60.7695 1481.12 60.6167C1481.39 60.2553 1482.13 59.446 1482.27 59.2405C1482.75 58.5691 1483.19 57.8699 1483.59 57.1444C1483.69 56.977 1483.77 56.8039 1483.86 56.6269C1483.86 56.7543 1483.86 56.8781 1483.86 57.0054C1483.86 58.5835 1483.6 60.0867 1483.09 61.5434C1482.87 62.1654 1484.07 62.8042 1484.53 62.5036C1487.25 60.6968 1489.16 58.0498 1490.1 54.8658L1490.09 54.869Z" fill="#C8CDFF"/>
</g>
<path d="M1303.13 365.512C1303.13 365.512 1314.52 350.43 1321.14 333.885L1327.87 318.108C1327.87 318.108 1331.68 306.79 1342.83 307.782L1364.16 309.142C1366.13 309.267 1368.09 309.117 1370.06 308.941C1372.76 308.692 1377.9 309.759 1382.22 319.813C1382.22 319.813 1402.66 359.495 1407.69 363.282L1303.13 365.512Z" fill="#F1F2FE"/>
<path d="M1363.94 323.199C1362.98 323.839 1362.49 325.072 1362.85 326.228L1370.34 351.441C1370.76 352.873 1372.27 353.7 1373.71 353.262C1375.14 352.834 1375.97 351.33 1375.53 349.884L1368.05 324.67C1367.62 323.239 1366.11 322.412 1364.67 322.85C1364.4 322.939 1364.16 323.034 1363.93 323.184L1363.94 323.199Z" fill="#E5E7FC"/>
<path d="M1354.16 322.978C1353.48 323.428 1353 324.18 1352.95 325.058L1351.34 349.185C1351.25 350.68 1352.37 351.978 1353.86 352.072C1355.36 352.166 1356.66 351.045 1356.75 349.55L1358.36 325.423C1358.46 323.928 1357.34 322.63 1355.84 322.536C1355.22 322.489 1354.64 322.658 1354.16 322.978Z" fill="#E5E7FC"/>
<path d="M1339.81 322.851C1339.28 323.201 1338.88 323.732 1338.69 324.399L1331.84 349.476C1331.46 350.925 1332.29 352.413 1333.75 352.813C1335.2 353.198 1336.69 352.364 1337.09 350.905L1343.93 325.828C1344.32 324.379 1343.49 322.891 1342.03 322.491C1341.23 322.278 1340.45 322.431 1339.81 322.851Z" fill="#E5E7FC"/>
<g clip-path="url(#clip4_4769_39826)">
<path d="M1259.33 294.766C1259.23 294.766 1259.12 294.766 1259.03 294.746C1258.17 294.628 1257.45 294.042 1257.16 293.215C1255.55 288.664 1254.38 270.315 1254.26 268.239C1254.17 266.95 1255.14 265.84 1256.42 265.757C1257.69 265.681 1258.79 266.653 1258.87 267.95C1259.21 273.418 1259.84 281.258 1260.55 286.547L1271.3 270.818C1272.03 269.756 1273.47 269.494 1274.51 270.225C1275.56 270.963 1275.83 272.418 1275.1 273.48L1261.24 293.759C1260.8 294.394 1260.09 294.766 1259.34 294.766H1259.33Z" fill="#F1F2FE"/>
<path d="M1260.56 384C1259.3 384 1258.27 382.973 1258.25 381.69C1258.2 377.96 1257.02 290.243 1257.02 289.305C1257.02 288.016 1258.05 286.967 1259.33 286.967C1260.6 286.967 1261.64 288.016 1261.64 289.305C1261.64 290.498 1262.85 380.718 1262.87 381.628C1262.89 382.918 1261.87 383.98 1260.59 384H1260.55H1260.56Z" fill="#F1F2FE"/>
<path d="M1258.71 308.805C1258.2 308.805 1257.7 308.64 1257.28 308.302C1254.59 306.151 1251.52 301.682 1248.14 295.014C1245.7 290.181 1244.01 285.995 1243.94 285.823C1243.46 284.623 1244.03 283.258 1245.21 282.775C1246.39 282.285 1247.74 282.865 1248.22 284.058C1250.04 288.588 1255.73 301.11 1260.14 304.634C1261.14 305.433 1261.31 306.909 1260.52 307.923C1260.06 308.509 1259.39 308.812 1258.7 308.812L1258.71 308.805Z" fill="#F1F2FE"/>
<path d="M1259.68 309.178C1259.01 309.178 1258.35 308.881 1257.88 308.316C1257.08 307.316 1257.23 305.84 1258.22 305.027C1258.36 304.909 1272.37 293.339 1281.25 282.72C1282.08 281.734 1283.53 281.61 1284.51 282.444C1285.48 283.278 1285.6 284.754 1284.78 285.74C1275.61 296.704 1261.72 308.178 1261.13 308.661C1260.7 309.012 1260.19 309.185 1259.67 309.185L1259.68 309.178Z" fill="#F1F2FE"/>
<path d="M1259.33 326.12C1258.39 326.12 1257.5 325.534 1257.16 324.589C1255.03 318.728 1239.27 302.399 1233.38 296.6C1232.47 295.697 1232.44 294.221 1233.33 293.291C1234.22 292.367 1235.68 292.339 1236.6 293.242C1238.85 295.449 1258.62 315.06 1261.49 322.975C1261.93 324.189 1261.32 325.534 1260.12 325.982C1259.85 326.078 1259.59 326.127 1259.32 326.127L1259.33 326.12Z" fill="#F1F2FE"/>
<path d="M1260.25 343.283C1260.13 343.283 1260.02 343.276 1259.89 343.255C1258.63 343.055 1257.77 341.855 1257.97 340.58C1259.88 328.34 1280.57 297.848 1281.46 296.559C1282.18 295.497 1283.62 295.228 1284.67 295.959C1285.72 296.69 1285.98 298.152 1285.26 299.214C1285.21 299.29 1279.91 307.081 1274.47 316.197C1265.5 331.202 1263.04 338.132 1262.54 341.304C1262.36 342.455 1261.38 343.276 1260.26 343.276L1260.25 343.283Z" fill="#F1F2FE"/>
<path d="M1259.17 339.228C1258.05 339.228 1257.07 338.401 1256.9 337.263C1256.2 335.18 1247.31 324.934 1233.54 311.253C1232.62 310.35 1232.61 308.867 1233.5 307.943C1234.39 307.019 1235.86 307.006 1236.77 307.909C1236.83 307.971 1242.76 313.86 1248.67 320.155C1261.09 333.395 1261.34 335.477 1261.47 336.601C1261.62 337.883 1260.72 339.049 1259.45 339.2C1259.35 339.214 1259.27 339.214 1259.17 339.214V339.228ZM1256.88 337.166C1256.88 337.166 1256.88 337.201 1256.88 337.215C1256.88 337.201 1256.88 337.18 1256.88 337.166Z" fill="#F1F2FE"/>
<path d="M1243.03 277.548C1243.03 277.548 1235.4 277.617 1235.28 282.203C1235.28 282.203 1234.99 286.657 1240.64 287.85C1240.64 287.85 1248.42 289.229 1249.42 284.533C1249.42 284.533 1252.07 278.169 1243.03 277.548H1243.03Z" fill="#E5E7FC"/>
<path d="M1243.09 289.098C1241.64 289.098 1240.52 288.905 1240.46 288.891C1235.28 287.795 1234.13 284.023 1234.25 282.161C1234.29 280.506 1235.14 278.307 1238.89 277.155C1240.94 276.528 1242.93 276.507 1243.02 276.5H1243.1C1246.57 276.741 1248.91 277.824 1250.06 279.72C1251.38 281.892 1250.61 284.319 1250.41 284.843C1250.03 286.505 1248.73 288.539 1244.77 289.001C1244.19 289.07 1243.62 289.098 1243.09 289.098ZM1243 278.603C1242.73 278.603 1241.08 278.672 1239.46 279.175C1237.4 279.817 1236.35 280.844 1236.32 282.237V282.278C1236.29 282.637 1236.28 285.864 1240.85 286.829C1240.88 286.829 1247.62 287.974 1248.4 284.319L1248.42 284.223L1248.46 284.133C1248.46 284.133 1249.19 282.285 1248.28 280.81C1247.51 279.555 1245.68 278.796 1243 278.603Z" fill="#E5E7FC"/>
<path d="M1273.2 264.978C1273.2 264.978 1264.05 265.095 1264.2 272.797C1264.2 272.797 1263.46 281.354 1271.21 282.423C1271.21 282.423 1279.29 283.678 1281.56 276.038C1281.56 276.038 1285.79 265.474 1273.2 264.978Z" fill="#E5E7FC"/>
<path d="M1272.57 283.575C1272.02 283.575 1271.5 283.533 1271.05 283.464C1264.2 282.52 1262.9 276.086 1263.15 272.763C1263.12 270.466 1263.83 268.55 1265.25 267.06C1268.14 264.033 1272.98 263.936 1273.18 263.93H1273.23C1277.56 264.102 1280.54 265.433 1282.1 267.881C1284.33 271.39 1282.74 275.831 1282.53 276.383C1280.81 282.113 1275.9 283.568 1272.57 283.568L1272.57 283.575ZM1273.19 266.026C1272.86 266.04 1268.94 266.212 1266.74 268.522C1265.69 269.625 1265.2 271.011 1265.24 272.776V272.887C1265.21 273.19 1264.7 280.465 1271.36 281.382C1271.66 281.43 1278.61 282.389 1280.57 275.735L1280.61 275.638C1280.62 275.604 1282.12 271.742 1280.36 269.005C1279.19 267.17 1276.78 266.171 1273.19 266.019V266.026Z" fill="#E5E7FC"/>
<path d="M1233.63 289.788C1233.63 289.788 1226.2 289.946 1226.05 296.069C1226.05 296.069 1225.73 302.013 1231.22 303.551C1231.22 303.551 1238.77 305.316 1239.79 299.048C1239.79 299.048 1242.43 290.539 1233.63 289.788Z" fill="#E5E7FC"/>
<path d="M1233.49 304.826C1232.11 304.826 1231.07 304.592 1230.98 304.571L1230.94 304.558C1225.96 303.165 1224.89 298.359 1225.01 296.007C1225.15 290.401 1230.69 288.795 1233.61 288.733H1233.71C1236.64 288.981 1238.75 290.056 1240 291.932C1241.94 294.863 1240.97 298.669 1240.8 299.269C1240.48 301.158 1239.6 302.599 1238.19 303.558C1236.71 304.564 1234.92 304.813 1233.49 304.813V304.826ZM1231.46 302.53C1231.73 302.585 1234.97 303.241 1237.04 301.82C1237.98 301.179 1238.55 300.213 1238.77 298.869L1238.8 298.724C1238.8 298.724 1239.79 295.38 1238.27 293.097C1237.4 291.794 1235.83 291.036 1233.6 290.829C1232.95 290.856 1227.2 291.236 1227.08 296.083C1227.06 296.318 1226.89 301.22 1231.46 302.517V302.53Z" fill="#E5E7FC"/>
<path d="M1286.44 276.969C1286.44 276.969 1279.01 277.127 1278.86 283.251C1278.86 283.251 1278.54 289.195 1284.02 290.732C1284.02 290.732 1291.58 292.497 1292.6 286.229C1292.6 286.229 1295.23 277.72 1286.44 276.969Z" fill="#E5E7FC"/>
<path d="M1286.3 292.008C1284.92 292.008 1283.87 291.773 1283.79 291.753L1283.74 291.739C1278.77 290.339 1277.69 285.533 1277.82 283.189C1277.95 277.583 1283.5 275.976 1286.41 275.914H1286.52C1289.45 276.162 1291.56 277.238 1292.8 279.113C1294.75 282.044 1293.78 285.85 1293.61 286.45C1293.29 288.339 1292.41 289.781 1291 290.739C1289.52 291.746 1287.73 291.994 1286.3 291.994V292.008ZM1284.28 289.712C1284.54 289.767 1287.78 290.422 1289.86 289.001C1290.8 288.36 1291.36 287.395 1291.58 286.05L1291.61 285.905C1291.61 285.905 1292.61 282.561 1291.08 280.279C1290.21 278.975 1288.65 278.217 1286.41 278.01C1285.76 278.038 1280.01 278.417 1279.89 283.264C1279.88 283.499 1279.7 288.402 1284.28 289.698V289.712Z" fill="#E5E7FC"/>
<path d="M1234.74 306.647C1234.74 306.647 1227.11 306.716 1226.99 311.301C1226.99 311.301 1226.7 315.756 1232.35 316.949C1232.35 316.949 1240.13 318.328 1241.13 313.632C1241.13 313.632 1243.78 307.267 1234.74 306.647H1234.74Z" fill="#E5E7FC"/>
<path d="M1234.8 318.19C1233.35 318.19 1232.23 317.997 1232.17 317.983C1226.99 316.887 1225.84 313.115 1225.96 311.253C1226 309.598 1226.85 307.398 1230.6 306.247C1232.65 305.619 1234.64 305.599 1234.73 305.592H1234.81C1238.28 305.833 1240.62 306.916 1241.77 308.812C1243.09 310.984 1242.32 313.411 1242.12 313.935C1241.74 315.597 1240.44 317.631 1236.48 318.093C1235.9 318.162 1235.33 318.19 1234.8 318.19ZM1234.71 307.695C1234.44 307.695 1232.79 307.764 1231.17 308.267C1229.11 308.909 1228.06 309.936 1228.02 311.329V311.37C1228 311.729 1227.99 314.956 1232.56 315.921C1232.59 315.921 1239.33 317.066 1240.11 313.411L1240.13 313.315L1240.17 313.225C1240.17 313.225 1240.9 311.377 1239.99 309.902C1239.22 308.647 1237.39 307.888 1234.71 307.695Z" fill="#E5E7FC"/>
<path d="M1255.31 256.048C1255.31 256.048 1246.15 256.165 1246.3 263.868C1246.3 263.868 1245.57 272.425 1253.31 273.494C1253.31 273.494 1261.4 274.749 1263.66 267.108C1263.66 267.108 1267.9 256.545 1255.31 256.048Z" fill="#E5E7FC"/>
<path d="M1254.68 274.645C1254.12 274.645 1253.6 274.604 1253.15 274.535C1246.31 273.59 1245 267.157 1245.26 263.833C1245.23 261.537 1245.93 259.62 1247.36 258.131C1250.26 255.097 1255.09 255 1255.29 255H1255.35C1259.67 255.172 1262.65 256.503 1264.21 258.951C1266.44 262.461 1264.86 266.902 1264.64 267.453C1262.92 273.183 1258.01 274.638 1254.68 274.638V274.645ZM1255.3 257.103C1254.97 257.117 1251.04 257.289 1248.85 259.599C1247.8 260.703 1247.31 262.089 1247.34 263.854V263.964C1247.31 264.267 1246.8 271.542 1253.46 272.459C1253.77 272.508 1260.71 273.466 1262.68 266.812L1262.71 266.715C1262.73 266.681 1264.22 262.819 1262.47 260.082C1261.3 258.248 1258.89 257.248 1255.3 257.096V257.103Z" fill="#E5E7FC"/>
<path d="M1284.79 292.766C1284.79 292.766 1277.36 292.925 1277.21 299.048C1277.21 299.048 1276.89 304.992 1282.38 306.53C1282.38 306.53 1289.93 308.295 1290.95 302.027C1290.95 302.027 1293.59 293.518 1284.79 292.766Z" fill="#E5E7FC"/>
<path d="M1284.66 307.812C1283.27 307.812 1282.23 307.578 1282.14 307.557L1282.1 307.543C1277.13 306.144 1276.05 301.337 1276.18 298.993C1276.31 293.387 1281.86 291.78 1284.77 291.718H1284.88C1287.81 291.966 1289.92 293.042 1291.16 294.918C1293.11 297.848 1292.14 301.655 1291.97 302.254C1291.65 304.144 1290.77 305.585 1289.36 306.543C1287.88 307.55 1286.09 307.798 1284.66 307.798V307.812ZM1282.63 305.509C1282.89 305.564 1286.13 306.219 1288.21 304.799C1289.15 304.158 1289.71 303.192 1289.93 301.848L1289.97 301.703C1289.97 301.703 1290.96 298.359 1289.43 296.076C1288.56 294.773 1287 294.014 1284.77 293.808C1284.11 293.835 1278.37 294.214 1278.24 299.062C1278.23 299.296 1278.05 304.199 1282.63 305.495V305.509Z" fill="#E5E7FC"/>
</g>
</g>
<defs>
<clipPath id="clip0_4769_39826">
<rect width="1728" height="525" fill="white"/>
</clipPath>
<clipPath id="clip1_4769_39826">
<rect width="208" height="235" fill="white" transform="translate(50 133)"/>
</clipPath>
<clipPath id="clip2_4769_39826">
<rect width="66.921" height="144.611" fill="white" transform="translate(1468.91 381.342) rotate(-94.2038)"/>
</clipPath>
<clipPath id="clip3_4769_39826">
<rect width="79.0923" height="119.385" fill="white" transform="translate(1462.38) rotate(47.7583)"/>
</clipPath>
<clipPath id="clip4_4769_39826">
<rect width="69" height="129" fill="white" transform="translate(1225 255)"/>
</clipPath>
</defs>
</svg>
