<svg width="1600" height="400" viewBox="0 0 1600 400" fill="none" xmlns="http://www.w3.org/2000/svg">
<g clip-path="url(#clip0_4756_36518)">
<rect x="-62" width="1724" height="296" fill="#EBF5FF"/>
<path d="M150 0L150 296M200 0L200 296M-150 0L-150 296M250 0L250 296M-100 0L-100 296M300 0L300 296M-50 0L-50 296M350 0L350 296M0 0L3.05176e-05 296M400 0V296M50 0L50 296M450 0V296M100 0L100 296M800 0V296M850 0V296M500 0V296M900 0V296M550 0V296M950 0V296M600 0V296M1000 0V296M650 0V296M1050 0V296M700 0V296M1100 0V296M750 0V296M1450 0V296M1500 0V296M1150 0V296M1550 0V296M1200 0V296M1600 0V296M1250 0V296M1650 0V296M1300 0V296M1700 0V296M1350 0V296M1750 0V296M1400 0V296" stroke="white" stroke-opacity="0.4" stroke-width="4"/>
<rect x="-94" y="195" width="1768" height="247" fill="#F6FBFF"/>
<path d="M80.7458 173.276C79.732 168.223 80.0867 162.805 82.1079 157.751C87.0236 145.481 99.8306 140.156 110.698 145.85C121.563 151.555 126.384 166.12 121.468 178.39C121.298 178.819 121.092 179.215 120.904 179.628C123.868 179.671 126.864 180.382 129.743 181.894C140.61 187.588 145.429 202.165 140.514 214.435C135.588 226.702 122.791 232.03 111.924 226.336C107.313 223.915 103.806 219.902 101.658 215.149C95.4738 221.262 86.44 223.058 78.4438 218.863C67.5786 213.158 62.7577 198.592 67.6836 186.325C70.2991 179.8 75.1594 175.264 80.756 173.279L80.7458 173.276Z" fill="#DEEFFF"/>
<path d="M1397.68 214.376C1395.5 212.445 1393.85 209.723 1393.11 206.419C1391.31 198.394 1395.58 190.082 1402.63 187.859C1409.68 185.641 1416.85 190.348 1418.65 198.373C1418.71 198.653 1418.75 198.933 1418.8 199.214C1420.21 197.893 1421.87 196.874 1423.74 196.286C1430.79 194.063 1437.96 198.775 1439.76 206.801C1441.55 214.829 1437.29 223.137 1430.24 225.361C1427.25 226.302 1424.24 225.991 1421.63 224.715C1420.76 230.403 1417.09 235.339 1411.9 236.972C1404.85 239.19 1397.67 234.484 1395.88 226.455C1394.93 222.186 1395.7 217.843 1397.68 214.373L1397.68 214.376Z" fill="#DEEFFF"/>
<rect x="-83" y="1" width="1766" height="40" fill="#EBF5FF" stroke="white" stroke-width="2"/>
<ellipse cx="1269" cy="246.5" rx="99" ry="10.5" fill="#DEEFFF"/>
<g clip-path="url(#clip1_4756_36518)">
<path d="M1284.28 224.326C1284.28 224.326 1241.73 180.898 1234.02 137.57L1268.42 143.282L1294.17 194.398L1284.28 224.326Z" fill="#B8D6F2"/>
<path d="M1316.09 195.978C1316.09 195.978 1342.24 209.513 1357.7 189.036C1357.7 189.036 1332.31 186.61 1324.45 170.552C1316.59 154.494 1316.09 195.978 1316.09 195.978Z" fill="#B8D6F2"/>
<path d="M1275.62 125.891C1275.62 125.891 1276.98 96.4753 1302.44 93.3295C1302.44 93.3295 1291.85 116.523 1301.83 131.361C1311.8 146.199 1275.62 125.891 1275.62 125.891Z" fill="#B8D6F2"/>
<path opacity="0.5" d="M1287.73 176.179L1280.12 162.992L1190.56 175.664L1198.17 188.851L1287.73 176.179Z" fill="white"/>
<path d="M1284.27 224.326C1290.65 220.148 1326.18 196.043 1332.59 174.059C1332.59 174.059 1338.24 163.76 1325.68 142.544C1325.68 142.544 1314.92 124.979 1307.4 122.287C1301.39 120.132 1270.82 117.149 1234.02 137.57C1236.44 139.408 1265.95 162.85 1284.27 224.326Z" fill="#C9E2F9"/>
<path opacity="0.1" d="M1205.55 157.649C1203.01 159.85 1200.67 162.016 1198.51 164.144C1231.72 196.378 1243.02 236.953 1244.47 242.594C1255.57 239.156 1268.43 233.544 1283.29 224.964C1283.29 224.964 1283.64 224.74 1284.27 224.326C1265.95 162.85 1236.44 139.407 1234.02 137.57C1224.82 142.677 1215.24 149.239 1205.55 157.645L1205.55 157.649Z" fill="#2096C3"/>
<path d="M1176.07 199.076C1186.88 211.498 1199.48 238.095 1202.84 245.401C1212.63 248.013 1226.15 248.263 1244.47 242.591C1243.02 236.95 1231.72 196.374 1198.51 164.141C1185.03 177.431 1178.65 189.267 1176.06 199.073L1176.07 199.076Z" fill="#C9E2F9"/>
<path d="M1176.07 199.076C1171.16 217.711 1179.98 229.013 1179.98 229.013C1179.98 229.013 1185.7 240.829 1202.84 245.401C1199.48 238.09 1186.88 211.498 1176.07 199.076Z" fill="#B8D6F2"/>
<path d="M1294.35 146.021C1293.04 143.756 1290.26 142.912 1288.14 144.136C1286.02 145.36 1285.36 148.189 1286.67 150.455C1287.98 152.72 1290.76 153.564 1292.88 152.34C1295 151.116 1295.66 148.287 1294.35 146.021Z" fill="#B8D6F2"/>
<path d="M1293.58 146.464C1292.54 144.651 1290.31 143.976 1288.62 144.956C1286.92 145.935 1286.39 148.199 1287.44 150.012C1288.49 151.824 1290.71 152.5 1292.41 151.52C1294.1 150.54 1294.63 148.277 1293.58 146.464Z" fill="#C9E2F9"/>
<path d="M1292.05 147.35C1291.52 146.443 1290.41 146.105 1289.56 146.595C1288.71 147.085 1288.45 148.218 1288.97 149.126C1289.5 150.033 1290.61 150.371 1291.46 149.881C1292.31 149.39 1292.57 148.257 1292.05 147.35Z" fill="#B8D6F2"/>
<path d="M1327 143.74C1327 143.74 1289.2 169.137 1281.68 152.487C1281.68 152.487 1270.61 136.215 1312.63 125.013" stroke="#B8D6F2" stroke-width="3" stroke-miterlimit="10"/>
<path d="M1216.78 241.781C1216.93 242.143 1217.26 242.429 1217.6 242.599C1217.98 242.994 1218.49 243.217 1218.91 242.968C1223.06 240.465 1227.52 238.58 1232.25 237.406C1233.63 237.064 1232.43 234.843 1231.32 235.12C1229.7 235.522 1228.11 236.005 1226.55 236.556C1226.38 236.284 1226.13 236.049 1225.84 235.933C1223.47 234.998 1219.61 233.566 1217.28 234.887C1214.83 236.276 1215.86 239.585 1216.79 241.782L1216.78 241.781ZM1220.13 236.666C1221.5 236.621 1222.96 236.936 1224.34 237.381C1222.24 238.236 1220.19 239.238 1218.21 240.388C1217.71 238.611 1217.78 236.744 1220.13 236.663L1220.13 236.666Z" fill="#B8D6F2"/>
<path d="M1212.05 229.78C1212.09 229.869 1212.14 229.969 1212.2 230.07C1212.24 230.434 1212.51 230.938 1212.92 231.271C1216.02 233.739 1219.41 233.042 1222.68 231.824C1225.57 230.749 1228.6 228.524 1226.53 224.89C1225.84 223.679 1224.67 222.634 1223.37 222.211C1221.5 221.6 1219.75 222.574 1218.08 223.213C1215.42 224.234 1210.22 225.625 1212.05 229.776L1212.05 229.78ZM1218.44 225.698C1219.52 225.285 1220.59 224.85 1221.67 224.461C1222.1 224.308 1222.54 224.128 1223.01 224.073C1224.2 223.932 1225.4 225.109 1225.2 226.379C1224.8 228.744 1221.94 229.539 1220.06 230.178C1218.16 230.819 1215.79 231.454 1213.85 230.403C1212.73 227.569 1216.63 226.398 1218.44 225.702L1218.44 225.698Z" fill="#B8D6F2"/>
<path d="M1208.14 222.443C1207.96 222.507 1207.83 222.672 1207.81 222.981C1207.8 223.046 1207.8 223.113 1207.79 223.178C1207.74 223.791 1208.35 224.415 1208.84 224.668C1209.3 224.906 1209.8 224.948 1210.31 224.863C1210.6 224.964 1210.84 224.884 1210.97 224.689C1212.38 224.191 1213.83 222.957 1214.79 222.305C1217.09 220.736 1219.28 219.041 1221.84 217.954C1221.94 217.956 1222.03 217.941 1222.12 217.9C1222.34 217.795 1222.57 217.688 1222.79 217.583C1223.88 217.074 1222.27 215.137 1221.33 215.465C1219.6 216.072 1218.02 216.966 1216.51 217.967C1214.08 216.872 1210.25 215.643 1207.94 217.226C1206.01 218.556 1206.91 220.678 1208.14 222.44L1208.14 222.443ZM1211.53 218.713C1212.62 218.672 1213.72 218.838 1214.79 219.149C1213.89 219.784 1213.01 220.426 1212.08 221.014C1211.83 221.171 1210.73 221.959 1209.87 222.419C1209.32 221.72 1208.79 220.877 1208.9 220.196C1209.09 219.034 1210.64 218.748 1211.53 218.715L1211.53 218.713Z" fill="#B8D6F2"/>
<path d="M1213.69 204.095C1213.69 204.129 1213.7 204.162 1213.71 204.197C1213.75 204.36 1213.85 204.519 1213.96 204.673C1214.03 205.676 1213.27 207.362 1212.91 208.092C1212.34 209.246 1211.54 210.265 1210.56 211.067C1208.42 212.815 1205.57 213.329 1202.83 212.681C1201.34 212.327 1202.28 214.593 1203.32 214.842C1206.63 215.625 1210.06 214.986 1212.59 212.78C1214.56 211.052 1216.86 207.157 1215.8 204.267C1215.59 203.691 1214.73 202.986 1214.12 203.237C1214.08 203.252 1214.04 203.268 1214.01 203.285C1213.7 203.412 1213.61 203.776 1213.69 204.098L1213.69 204.095Z" fill="#B8D6F2"/>
<path d="M1198.71 207.803C1198.51 208.387 1199.07 209.167 1199.67 209.513C1199.71 209.547 1199.73 209.579 1199.77 209.611C1202.26 211.975 1205.38 211.224 1207.87 209.616C1209.98 208.255 1214.2 204.411 1212.95 201.267C1211.6 197.862 1206.84 199.957 1204.68 200.731C1203.05 201.317 1200.88 201.969 1199.71 203.345C1198.58 204.665 1199.26 206.278 1198.72 207.801L1198.71 207.803ZM1203.2 204.098C1204.24 203.583 1205.33 203.136 1206.43 202.757C1207.45 202.405 1209.41 201.443 1210.51 201.677C1211.05 201.794 1211.01 201.611 1210.72 202.395C1210.52 202.925 1210.2 203.421 1209.9 203.888C1209.28 204.875 1208.52 205.764 1207.65 206.53C1206.34 207.685 1202.86 210.152 1200.97 208.466C1201.04 207.935 1201.03 207.398 1201.06 206.827C1201.14 205.316 1201.98 204.702 1203.2 204.1L1203.2 204.098Z" fill="#B8D6F2"/>
<path d="M1199.35 195.966C1197.92 195.17 1196.35 194.744 1194.9 195.553C1192.44 196.933 1193.96 200.554 1194.53 202.747C1194.58 202.95 1194.67 203.158 1194.79 203.351C1194.84 204.067 1195.97 205.212 1196.56 204.942C1198.95 203.854 1200.51 201.805 1202.45 200.097C1203.44 199.219 1204.48 198.386 1205.53 197.575C1206.13 197.113 1207.73 196.337 1207.9 195.516C1208.05 194.755 1207.18 194.001 1206.57 193.74C1206.53 193.72 1206.48 193.699 1206.43 193.679C1206.15 193.555 1205.89 193.622 1205.76 193.888L1205.71 193.991C1205.67 194.087 1205.66 194.2 1205.68 194.318C1205.15 194.9 1203.84 195.586 1203.44 195.899C1202.8 196.401 1202.16 196.916 1201.54 197.442C1201.5 197.415 1201.47 197.389 1201.44 197.362C1202.57 195.043 1203.39 192.589 1203.88 190.004C1204.05 189.141 1202.07 187.526 1201.89 188.432C1201.39 191.084 1200.54 193.6 1199.36 195.967L1199.35 195.966ZM1195.96 198.047C1196.84 196.899 1198.11 197.024 1199.31 197.555C1199.61 197.945 1200.06 198.298 1200.43 198.39C1198.96 199.73 1197.69 201.296 1196.02 202.349C1195.57 200.846 1195.15 199.1 1195.96 198.047Z" fill="#B8D6F2"/>
<path d="M1185.69 191.383C1185.18 192.32 1187.15 193.979 1187.75 192.877C1189.27 190.102 1191.37 187.833 1193.92 186.168C1193.61 187.008 1193.36 187.87 1193.17 188.766C1192.72 190.813 1192.46 192.854 1191.38 194.638C1191.31 194.751 1191.28 194.877 1191.29 195.004C1191.16 195.078 1191.03 195.14 1190.89 195.198C1189.73 195.697 1191.28 197.799 1192.32 197.353C1194.74 196.316 1195.99 193.692 1197.69 191.786C1198.64 190.722 1199.66 189.724 1200.74 188.802C1201.4 188.238 1202.54 187.728 1202.64 186.74C1202.7 186.138 1202.15 185.428 1201.61 185.224C1201.15 185.044 1200.81 185.025 1200.43 185.353C1200.26 185.506 1200.22 185.736 1200.25 185.97C1199.75 186.401 1198.45 187.326 1198.18 187.573C1197.29 188.382 1196.44 189.242 1195.65 190.151C1195.47 190.361 1195.29 190.581 1195.11 190.807C1195.15 190.625 1195.19 190.448 1195.22 190.266C1195.71 188.018 1196.55 185.96 1197.73 184.043C1198.24 183.224 1196.72 181.942 1195.98 182.23C1191.54 183.961 1188 187.14 1185.68 191.387L1185.69 191.383Z" fill="#B8D6F2"/>
</g>
<g clip-path="url(#clip2_4756_36518)">
<path d="M1371.5 25C1344.16 25 1322 47.1613 1322 74.4983C1322 84.3633 1324.89 93.5549 1329.86 101.274L1325.94 114.281L1337.52 110.49C1346.39 118.862 1358.34 123.997 1371.5 123.997C1398.84 123.997 1421 101.835 1421 74.4983C1421 47.1613 1398.84 25 1371.5 25Z" fill="#FFFFFD"/>
<path d="M1403.01 83.452L1402.36 75.0492H1389.49L1388.18 72.9477L1393.56 66.7757L1383.05 62.049L1377.41 68.0883L1374.13 67.432L1372.16 59.6856L1359.95 60.8656L1362.05 69.5302L1360.74 70.7135L1350.23 65.1979L1343.14 73.468L1352.86 77.6711L1352.46 80.5581L1341.44 81.2144L1344.32 89.4845L1355.48 87.9101L1357.06 90.1409L1349.97 96.9691L1360.34 101.04L1366.51 94.2113L1370.58 95.1294L1374.65 103.665L1385.42 100.907L1381.61 92.6368L1384.63 91.4535L1394.48 95.5239L1400.78 88.8282L1390.93 83.9689L1403.01 83.4452L1403.01 83.452ZM1360.99 84.8734C1360.99 84.8734 1354.43 74.2399 1372.02 72.0058C1372.02 72.0058 1364.41 83.5608 1384.76 85.0026C1384.76 85.0026 1368.35 94.4561 1360.99 84.87L1360.99 84.8734Z" fill="#C9E2F9"/>
<path d="M1343.14 64.6742L1343.86 73.0565L1353.9 72.9885L1354.96 66.6227L1343.14 64.6742Z" fill="#C9E2F9"/>
<path d="M1341.43 72.424V81.2178L1344.32 89.4913L1355.74 78.5688L1341.43 72.424Z" fill="#C9E2F9"/>
<path d="M1400.78 80.0378V88.835L1394.48 95.5307L1381.02 89.862L1379.71 82.3128L1389.88 79.7522L1400.78 80.0378Z" fill="#C9E2F9"/>
<path d="M1403.01 83.452L1403.01 74.6548L1389.49 73.8421L1395.07 81.9183L1403.01 83.452Z" fill="#C9E2F9"/>
<path d="M1393.49 66.9083V58.1111L1379.97 57.2984L1385.55 65.3747L1393.49 66.9083Z" fill="#C9E2F9"/>
<path d="M1349.97 88.1787V96.9759L1360.34 101.046L1366.51 94.2181L1375.11 88.6786L1372.35 84.8054L1364.21 84.7408L1349.97 88.1787Z" fill="#C9E2F9"/>
<path d="M1359.95 52.0718V60.869L1361.46 64.5212L1357.58 69.1833L1359.88 71.8731L1368.81 68.7208L1367.36 56.972L1359.95 52.0718Z" fill="#C9E2F9"/>
<path d="M1374.65 94.8745V103.672L1385.42 100.914V92.1167L1374.65 94.8745Z" fill="#C9E2F9"/>
<path d="M1403.01 74.6548L1402.35 66.2521H1389.49L1388.17 64.1505L1393.56 57.9786L1383.05 53.2518L1377.41 59.2912L1374.13 58.6349L1372.16 50.8884L1359.95 52.0684L1362.05 60.733L1360.74 61.9164L1350.23 56.4007L1343.14 64.6708L1352.86 68.8739L1352.46 71.761L1341.43 72.4173L1344.32 80.6874L1355.48 79.1129L1357.06 81.3437L1349.97 88.172L1360.34 92.2424L1366.51 85.4141L1370.58 86.3323L1374.65 94.8677L1385.42 92.1098L1381.61 83.8397L1384.63 82.6563L1394.48 86.7268L1400.78 80.0311L1390.93 75.1717L1403.01 74.648L1403.01 74.6548ZM1360.99 76.0762C1360.99 76.0762 1354.43 65.4428 1372.02 63.2086C1372.02 63.2086 1364.41 74.7636 1384.76 76.2055C1384.76 76.2055 1368.35 85.659 1360.99 76.0728L1360.99 76.0762Z" fill="#DEEFFF"/>
</g>
<path d="M207.085 138.006C208.265 133.962 210.545 130.311 213.861 127.708C221.917 121.393 232.923 123.723 238.435 132.901C243.942 142.085 241.876 154.645 233.82 160.96C233.54 161.181 233.246 161.363 232.959 161.564C235.028 163.002 236.87 164.927 238.329 167.362C243.841 176.539 241.77 189.105 233.714 195.421C225.651 201.729 214.652 199.405 209.139 190.228C206.802 186.33 205.838 181.835 206.108 177.463C199.467 178.835 192.438 175.809 188.384 169.052C182.877 159.868 184.943 147.309 193.006 141C197.291 137.643 202.41 136.754 207.091 138.013L207.085 138.006Z" fill="#DEEFFF"/>
</g>
<defs>
<clipPath id="clip0_4756_36518">
<rect width="1600" height="400" fill="white"/>
</clipPath>
<clipPath id="clip1_4756_36518">
<rect width="115.275" height="174" fill="white" transform="translate(1208.2 278.098) rotate(-120)"/>
</clipPath>
<clipPath id="clip2_4756_36518">
<rect width="99" height="99" fill="white" transform="translate(1322 25)"/>
</clipPath>
</defs>
</svg>
