<svg width="1702" height="526" viewBox="0 0 1702 526" fill="none" xmlns="http://www.w3.org/2000/svg">
<g clip-path="url(#clip0_4920_50555)">
<path fill-rule="evenodd" clip-rule="evenodd" d="M30.7874 149C31.45 148.503 32.3903 148.637 32.8874 149.3L46.4074 167.32C46.9046 167.982 46.7705 168.923 46.1078 169.42C45.4451 169.917 44.5049 169.783 44.0077 169.12L30.4877 151.1C29.9906 150.438 30.1247 149.497 30.7874 149Z" fill="#564B89"/>
<path fill-rule="evenodd" clip-rule="evenodd" d="M38.4492 146C39.2776 146 39.9492 146.672 39.9492 147.5V171.37C39.9492 172.198 39.2776 172.87 38.4492 172.87C37.6208 172.87 36.9492 172.198 36.9492 171.37V147.5C36.9492 146.672 37.6208 146 38.4492 146Z" fill="#564B89"/>
<path fill-rule="evenodd" clip-rule="evenodd" d="M27.0391 157.41C27.0391 156.582 27.7106 155.91 28.5391 155.91H48.3591C49.1875 155.91 49.8591 156.582 49.8591 157.41C49.8591 158.238 49.1875 158.91 48.3591 158.91H28.5391C27.7106 158.91 27.0391 158.238 27.0391 157.41Z" fill="#564B89"/>
<path fill-rule="evenodd" clip-rule="evenodd" d="M46.1518 149.932C46.7969 150.452 46.8985 151.396 46.3787 152.041L33.3087 168.261C32.7889 168.906 31.8446 169.008 31.1995 168.488C30.5544 167.968 30.4529 167.024 30.9727 166.379L44.0427 150.159C44.5625 149.514 45.5068 149.412 46.1518 149.932Z" fill="#564B89"/>
<g clip-path="url(#clip1_4920_50555)">
<path d="M218.308 322.777C213.793 323.025 210.527 323.291 209.66 323.367V328.618C211.132 328.504 214.398 328.257 218.631 328.028L218.308 322.777Z" fill="#362974"/>
<path d="M217.442 337.254C213.873 337.463 211.091 337.653 209.66 337.768V343.019C211.374 342.885 214.236 342.695 217.764 342.505L217.442 337.254Z" fill="#362974"/>
<path d="M233.931 315.51C230.988 315.548 228.085 315.624 225.344 315.738L225.646 320.494C228.226 320.399 230.968 320.323 233.73 320.304L233.931 315.51Z" fill="#362974"/>
<path d="M226.233 322.414C224.157 322.49 222.181 322.566 220.367 322.661L220.69 327.912C222.464 327.817 224.379 327.741 226.354 327.684L226.254 322.414H226.233Z" fill="#362974"/>
<path d="M222.441 329.797C216.313 330.063 211.394 330.444 209.66 330.577V335.828C211.898 335.657 216.817 335.295 222.763 335.048L222.441 329.797Z" fill="#362974"/>
<path d="M232.866 334.781L233.088 329.492C230.145 329.53 227.242 329.606 224.5 329.72L224.823 334.99C227.403 334.895 230.104 334.819 232.846 334.8L232.866 334.781Z" fill="#362974"/>
<path d="M252.298 307.442C253.568 306.472 254.516 305.121 254.879 303.561C242.219 302.21 207.102 303.941 202.324 304.189C202.909 305.882 204.159 307.29 205.792 308.127C210.388 307.651 233.349 305.463 252.298 307.442Z" fill="#362974"/>
<path d="M227.101 308.87L221.234 308.947L221.537 313.95C226.738 313.703 233.027 313.494 239.075 313.57L239.377 308.699L229.157 308.851L229.258 313.665L227.201 313.703L227.101 308.889V308.87Z" fill="#362974"/>
<path d="M255.037 301.621C254.836 298.368 252.296 295.742 248.97 295.171L248.929 295.076C236.048 294.125 219.618 294.487 208.107 294.924L208.007 295.152C204.539 295.723 201.898 298.577 201.898 302.002C201.898 302.078 201.919 302.154 201.919 302.23C205.769 302.04 241.712 300.194 254.997 301.583L255.037 301.621Z" fill="#362974"/>
<path d="M241.412 308.68L241.109 313.607C243.266 313.664 245.363 313.759 247.338 313.893V309.003H247.661C247.661 309.003 247.722 309.003 247.762 309.003C245.665 308.851 243.528 308.737 241.412 308.68Z" fill="#362974"/>
<path d="M225.508 351.334C223.452 351.391 221.456 351.486 219.602 351.581L219.985 368.019H225.871L225.488 351.353L225.508 351.334Z" fill="#362974"/>
<path d="M219.478 314.063L219.175 309.021C215.345 309.231 212.079 309.497 209.66 309.706V314.71C209.842 314.71 213.813 314.349 219.478 314.044V314.063Z" fill="#362974"/>
<path d="M232.221 343.953C229.277 343.991 226.374 344.067 223.633 344.181L223.955 349.451C226.536 349.356 229.237 349.28 231.979 349.261L232.2 343.972L232.221 343.953Z" fill="#362974"/>
<path d="M235.991 315.51L235.789 320.304C239.801 320.304 243.772 320.399 247.36 320.666V315.852C243.832 315.605 239.922 315.51 235.991 315.51Z" fill="#362974"/>
<path d="M240.604 322.283L240.281 327.572C242.741 327.629 245.119 327.743 247.357 327.914V322.587C245.22 322.435 242.942 322.321 240.604 322.264V322.283Z" fill="#362974"/>
<path d="M240.081 351.258L239.557 367.582L237.078 367.506L237.602 351.201C234.275 351.144 230.848 351.201 227.562 351.277L227.946 368H247.359V351.696C245.101 351.486 242.662 351.334 240.081 351.258Z" fill="#362974"/>
<path d="M235.144 329.474L234.922 334.763C239.256 334.763 243.55 334.877 247.36 335.201V329.874C243.61 329.569 239.397 329.455 235.144 329.455V329.474Z" fill="#362974"/>
<path d="M217.542 351.676C214.156 351.866 211.394 352.056 209.66 352.17V367.999H217.925L217.542 351.676Z" fill="#362974"/>
<path d="M239.737 336.761L239.414 342.05C242.196 342.107 244.877 342.26 247.357 342.469V337.142C244.978 336.932 242.398 336.818 239.737 336.742V336.761Z" fill="#362974"/>
<path d="M209.66 314.92V321.427C211.172 321.293 216.696 320.875 223.59 320.589L223.288 315.833C215.688 316.176 209.942 316.651 209.821 316.67L209.66 314.939V314.92Z" fill="#362974"/>
<path d="M221.574 344.258C216.272 344.486 211.857 344.81 209.66 344.962V350.213C212.16 350.022 216.635 349.718 221.897 349.509L221.574 344.258Z" fill="#362974"/>
<path d="M237.36 342.01L237.683 336.721C234.276 336.683 230.768 336.721 227.442 336.835L227.543 342.105L225.487 342.143L225.386 336.912C223.309 336.988 221.334 337.064 219.52 337.159L219.842 342.41C225.043 342.163 231.333 341.953 237.38 342.029L237.36 342.01Z" fill="#362974"/>
<path d="M238.227 327.553L238.549 322.264C235.142 322.226 231.635 322.264 228.309 322.378L228.409 327.648C231.615 327.553 234.961 327.515 238.227 327.553Z" fill="#362974"/>
<path d="M247.36 344.427C243.408 344.065 238.873 343.932 234.276 343.951L234.055 349.24C238.732 349.24 243.348 349.373 247.36 349.754V344.427Z" fill="#362974"/>
<path d="M239.356 272.13L230.728 250.746C230.486 250.137 230.043 249.699 229.539 249.414V229H226.938V229.285L212.141 236.096L226.938 242.146V249.3C226.313 249.566 225.769 250.023 225.487 250.746L216.859 272.13L207.727 294.77C219.217 294.314 235.647 293.952 248.548 294.923L239.356 272.149V272.13Z" fill="#564B89"/>
<path d="M63.4099 322.777C58.8943 323.025 55.6286 323.291 54.7617 323.367V328.618C56.2333 328.504 59.4991 328.257 63.7324 328.028L63.4099 322.777Z" fill="#362974"/>
<path d="M62.5431 337.254C58.9749 337.463 56.193 337.653 54.7617 337.768V343.019C56.4752 342.885 59.3378 342.695 62.8656 342.505L62.5431 337.254Z" fill="#362974"/>
<path d="M79.033 315.51C76.0898 315.548 73.1869 315.624 70.4453 315.738L70.7477 320.494C73.328 320.399 76.0697 320.323 78.8314 320.304L79.033 315.51Z" fill="#362974"/>
<path d="M99.4538 304.227L119.613 297.568L123.645 315.642L94.4141 320.399V308.984L99.4538 304.227Z" fill="#564B89"/>
<path d="M71.3506 322.414C69.2743 322.49 67.2987 322.566 65.4844 322.661L65.8069 327.912C67.5809 327.817 69.496 327.741 71.4716 327.684L71.3708 322.414H71.3506Z" fill="#362974"/>
<path d="M67.5425 329.797C61.4142 330.063 56.4954 330.444 54.7617 330.577V335.828C56.9994 335.657 61.9181 335.295 67.865 335.048L67.5425 329.797Z" fill="#362974"/>
<path d="M77.9636 334.781L78.1854 329.492C75.2422 329.53 72.3393 329.606 69.5977 329.72L69.9202 334.99C72.5005 334.895 75.2018 334.819 77.9435 334.8L77.9636 334.781Z" fill="#362974"/>
<path d="M97.4154 307.442C98.6854 306.472 99.6329 305.121 99.9958 303.561C87.336 302.21 52.2191 303.941 47.4414 304.189C48.026 305.882 49.2759 307.29 50.9087 308.127C55.505 307.651 78.466 305.463 97.4154 307.442Z" fill="#362974"/>
<path d="M72.1983 308.87L66.332 308.947L66.6344 313.95C71.8354 313.703 78.125 313.494 84.1727 313.57L84.4751 308.699L74.2545 308.851L74.3553 313.665L72.2991 313.703L72.1983 308.889V308.87Z" fill="#362974"/>
<path d="M100.139 301.621C99.9374 298.368 97.3974 295.742 94.0711 295.171L94.0308 295.076C81.1493 294.125 64.7197 294.487 53.209 294.924L53.1082 295.152C49.6408 295.723 47 298.577 47 302.002C47 302.078 47.0202 302.154 47.0202 302.23C50.8705 302.04 86.8139 300.194 100.099 301.583L100.139 301.621Z" fill="#362974"/>
<path d="M86.5289 308.68L86.2266 313.607C88.3836 313.664 90.4801 313.759 92.4557 313.893V309.003H92.7782C92.7782 309.003 92.8387 309.003 92.879 309.003C90.7825 308.851 88.6456 308.737 86.5289 308.68Z" fill="#362974"/>
<path d="M70.6058 351.334C68.5496 351.391 66.5538 351.486 64.6992 351.581L65.0822 368.019H70.9686L70.5856 351.353L70.6058 351.334Z" fill="#362974"/>
<path d="M64.5791 314.063L64.2767 309.021C60.4465 309.231 57.1808 309.497 54.7617 309.706V314.71C54.9431 314.71 58.9145 314.349 64.5791 314.044V314.063Z" fill="#362974"/>
<path d="M77.3182 343.953C74.375 343.991 71.4721 344.067 68.7305 344.181L69.053 349.451C71.6334 349.356 74.3347 349.28 77.0763 349.261L77.298 343.972L77.3182 343.953Z" fill="#362974"/>
<path d="M81.0883 315.51L80.8867 320.304C84.8983 320.304 88.8697 320.399 92.458 320.666V315.852C88.9301 315.605 85.0193 315.51 81.0883 315.51Z" fill="#362974"/>
<path d="M85.7054 322.283L85.3828 327.572C87.8422 327.629 90.221 327.743 92.4586 327.914V322.587C90.3218 322.435 88.0438 322.321 85.7054 322.264V322.283Z" fill="#362974"/>
<path d="M85.1789 351.258L84.6547 367.582L82.1752 367.506L82.6993 351.201C79.3731 351.144 75.9461 351.201 72.6602 351.277L73.0432 368H92.4562V351.696C90.1984 351.486 87.7592 351.334 85.1789 351.258Z" fill="#362974"/>
<path d="M80.2413 329.474L80.0195 334.763C84.3537 334.763 88.6476 334.877 92.4576 335.201V329.874C88.708 329.569 84.4948 329.455 80.2413 329.455V329.474Z" fill="#362974"/>
<path d="M62.6439 351.676C59.2572 351.866 56.4954 352.056 54.7617 352.17V367.999H63.0269L62.6439 351.676Z" fill="#362974"/>
<path d="M84.8382 336.761L84.5156 342.05C87.2976 342.107 89.9787 342.26 92.4583 342.469V337.142C90.0795 336.932 87.4991 336.818 84.8382 336.742V336.761Z" fill="#362974"/>
<path d="M54.7617 314.92V321.427C56.2736 321.293 61.7972 320.875 68.6916 320.589L68.3892 315.833C60.7892 316.176 55.0439 316.651 54.923 316.67L54.7617 314.939V314.92Z" fill="#362974"/>
<path d="M66.6757 344.258C61.3739 344.486 56.959 344.81 54.7617 344.962V350.213C57.2614 350.022 61.7367 349.718 66.9982 349.509L66.6757 344.258Z" fill="#362974"/>
<path d="M82.4579 342.01L82.7804 336.721C79.3735 336.683 75.8659 336.721 72.5397 336.835L72.6404 342.105L70.5842 342.143L70.4834 336.912C68.4071 336.988 66.4315 337.064 64.6172 337.159L64.9397 342.41C70.1407 342.163 76.4303 341.953 82.478 342.029L82.4579 342.01Z" fill="#362974"/>
<path d="M83.3245 327.553L83.647 322.264C80.2401 322.226 76.7325 322.264 73.4062 322.378L73.507 327.648C76.7123 327.553 80.0587 327.515 83.3245 327.553Z" fill="#362974"/>
<path d="M92.4572 344.429C88.5061 344.067 83.9703 343.934 79.3741 343.953L79.1523 349.242C83.8292 349.242 88.4456 349.375 92.4572 349.756V344.429Z" fill="#362974"/>
<path d="M84.4731 272.13L75.8451 250.746C75.6032 250.137 75.1597 249.699 74.6557 249.414V229H72.0552V229.285L57.2586 236.096L72.0552 242.146V249.3C71.4303 249.566 70.886 250.023 70.6038 250.746L61.9758 272.13L52.8438 294.77C64.3343 294.314 80.7639 293.952 93.6656 294.923L84.4731 272.149V272.13Z" fill="#564B89"/>
<path d="M94.4922 317.277L132.835 313.605L135.737 326.828L121.929 328.845L118.239 353.273L94.4922 356.755V317.277Z" fill="#362974"/>
<path d="M202.261 304.227L182.102 297.568L178.07 315.642L207.301 320.399V308.984L202.261 304.227Z" fill="#564B89"/>
<path d="M208.331 316.537L169.989 312.865L167.086 326.088L180.895 328.104L184.584 352.533L208.331 356.034V316.537Z" fill="#362974"/>
<path d="M125.296 289.615L123.602 266.975C123.602 266.975 113.765 262.96 115.599 258.071C117.434 253.181 179.929 255.939 179.929 255.939C179.929 255.939 188.232 262.371 175.753 268.135L175.128 290.756L148.729 283.138L125.316 289.596L125.296 289.615Z" fill="#362974"/>
<path d="M129.476 314.207L115.082 315.501V296.502C115.14 296.464 115.203 296.424 115.271 296.381C115.683 296.117 116.274 295.743 116.991 295.301C118.426 294.415 120.357 293.259 122.35 292.172C124.352 291.08 126.381 290.077 128.022 289.48C128.847 289.179 129.522 289.001 130.021 288.949C130.365 288.913 130.519 288.948 130.57 288.963C130.588 288.998 130.623 289.07 130.664 289.199C130.735 289.423 130.803 289.737 130.86 290.147C130.973 290.966 131.03 292.058 131.038 293.351C131.054 295.931 130.877 299.193 130.631 302.412C130.385 305.626 130.073 308.776 129.821 311.123C129.695 312.297 129.585 313.269 129.506 313.947C129.495 314.039 129.485 314.126 129.476 314.207Z" fill="#362974" stroke="#0C0541" stroke-width="2"/>
<path d="M163.336 291.184C163.488 291.075 163.683 290.947 163.922 290.812C164.649 290.4 165.791 289.912 167.397 289.671C170.532 289.201 175.545 289.66 182.8 293.687L184.347 315.328L169.243 315.328L163.336 291.184Z" fill="#362974" stroke="#0C0541" stroke-width="2"/>
<path d="M150.272 154.992C150.272 154.992 157.268 154.022 158.054 169.927C158.84 185.832 167.851 200.158 174.665 203.468C183.232 207.635 182.97 214.731 182.97 214.731C182.97 214.731 152.611 206.893 115.518 214.484C115.518 214.484 114.41 207.806 126.606 201.166C128.843 199.949 130.779 198.274 132.129 196.201C138.137 187.011 142.229 170.421 142.229 170.421C142.229 170.421 143.257 154.992 150.272 154.992Z" fill="#564B89"/>
<path d="M128.328 324.412L128.279 326.798L129.713 325.445L139.009 326.153L140.024 326.231L140.083 325.214L141.633 298.63C142.877 290.966 144.999 287.723 146.603 286.366C147.398 285.693 148.089 285.463 148.542 285.386C148.772 285.346 148.95 285.345 149.059 285.351C149.113 285.354 149.15 285.359 149.168 285.361C149.172 285.362 149.174 285.362 149.176 285.363C151.613 285.891 153.596 288.344 155.137 292.289C156.651 296.167 157.606 301.154 158.198 306.128C158.789 311.089 159.013 315.979 159.088 319.633C159.126 321.459 159.126 322.973 159.118 324.029C159.113 324.558 159.107 324.971 159.101 325.252C159.098 325.393 159.096 325.5 159.094 325.571L159.092 325.652L159.091 325.672L159.091 325.677L159.091 325.678C159.091 325.678 159.091 325.678 160.091 325.708L159.091 325.678L159.06 326.724L160.106 326.708L172.363 326.518L173.415 326.501L173.345 325.451L171.007 290.198L170.971 289.664L170.508 289.398L163.635 285.434L149.52 270.848L148.729 270.03L148.02 270.919L136.436 285.434L130.086 285.611L129.134 285.638L129.115 286.59L128.328 324.412Z" fill="#362974" stroke="#0C0541" stroke-width="2"/>
<path d="M130.827 336.469L130.827 336.471L131.411 353.897L131.442 354.824L132.369 354.863L141.118 355.224L142.143 355.267L142.159 354.24L142.361 341.018L142.361 340.979L142.359 340.942L142.359 340.941L142.359 340.941L142.359 340.941L142.359 340.94L142.358 340.928C142.358 340.915 142.357 340.894 142.356 340.865C142.354 340.808 142.352 340.719 142.352 340.603C142.353 340.371 142.363 340.034 142.399 339.626C142.473 338.806 142.653 337.73 143.071 336.663C143.487 335.598 144.126 334.576 145.1 333.81C146.063 333.053 147.418 332.495 149.366 332.452C153.381 332.362 155.359 333.726 156.357 334.952C156.874 335.585 157.163 336.224 157.322 336.701C157.401 336.94 157.447 337.135 157.473 337.264C157.486 337.329 157.493 337.376 157.497 337.405C157.499 337.416 157.5 337.424 157.501 337.428L158.87 353.568L158.948 354.483H159.867H169.2H170.247L170.199 353.438L169.615 340.577L169.613 340.532L169.607 340.489L169.607 340.489L169.607 340.488L169.607 340.488L169.605 340.476C169.604 340.47 169.604 340.463 169.603 340.454C169.601 340.444 169.6 340.431 169.598 340.417C169.593 340.363 169.584 340.281 169.576 340.174C169.56 339.959 169.543 339.648 169.543 339.272C169.543 338.515 169.612 337.53 169.873 336.565C170.135 335.596 170.574 334.709 171.267 334.069C171.94 333.448 172.932 332.984 174.462 332.984C177.646 332.984 179.184 334.249 179.966 335.393C180.375 335.991 180.602 336.593 180.726 337.047C180.788 337.273 180.823 337.459 180.842 337.582C180.851 337.644 180.857 337.69 180.86 337.717C180.861 337.731 180.862 337.74 180.863 337.744C180.863 337.744 180.863 337.744 180.863 337.744C180.863 337.744 180.863 337.745 180.863 337.745C180.863 337.746 180.863 337.746 180.863 337.746L180.865 337.774L180.869 337.807L183.006 353.598L183.117 354.419L183.944 354.463L190.758 354.824L191.792 354.879L191.811 353.843L190.811 353.825C191.811 353.843 191.811 353.843 191.811 353.843L191.811 353.842L191.811 353.84L191.811 353.833L191.811 353.807L191.812 353.705C191.813 353.616 191.815 353.485 191.816 353.316C191.818 352.977 191.819 352.484 191.815 351.862C191.806 350.619 191.776 348.863 191.691 346.807C191.522 342.701 191.131 337.369 190.242 332.527C189.263 327.196 184.859 324.675 181.013 323.49C179.069 322.891 177.192 322.607 175.808 322.471C175.114 322.403 174.539 322.372 174.134 322.358C173.932 322.351 173.772 322.348 173.661 322.347C173.605 322.347 173.562 322.347 173.532 322.347L173.496 322.347L173.488 322.347L173.487 322.347L173.486 322.347L173.482 322.347L173.481 322.347L173.464 322.347L173.392 322.348L173.108 322.349C172.858 322.35 172.49 322.352 172.016 322.354C171.069 322.359 169.702 322.365 168.017 322.371C164.649 322.383 160.016 322.395 154.958 322.395C144.836 322.395 133.027 322.347 126.229 322.157C119.206 321.961 115.737 324.094 114.122 326.601C113.336 327.821 113.045 329.049 112.949 329.966C112.901 330.425 112.901 330.812 112.913 331.089C112.92 331.229 112.929 331.341 112.938 331.422C112.94 331.438 112.941 331.452 112.943 331.465L112.365 352.709L112.056 353.582L113.029 353.901L121.979 356.831L123.306 357.265L123.29 355.869L123.089 338.422L123.088 338.384L123.085 338.348L123.085 338.347L123.085 338.347L123.085 338.346L123.085 338.346L123.084 338.339C123.084 338.331 123.083 338.317 123.082 338.297C123.079 338.258 123.076 338.197 123.073 338.117C123.068 337.958 123.065 337.726 123.076 337.448C123.098 336.884 123.176 336.162 123.386 335.468C123.598 334.77 123.921 334.173 124.384 333.773C124.821 333.395 125.464 333.118 126.493 333.191C128.731 333.351 129.76 334.256 130.264 335.001C130.529 335.394 130.673 335.78 130.749 336.066C130.787 336.208 130.807 336.321 130.817 336.394C130.823 336.43 130.825 336.456 130.827 336.469Z" fill="#362974" stroke="#0C0541" stroke-width="2"/>
<path d="M126.144 250.254L125.358 224.779C125.358 224.779 116.529 222.819 115.238 214.734C113.948 206.648 152.855 206.895 152.855 206.895C152.855 206.895 179.324 206.895 182.69 214.981C186.057 223.067 171.784 225.749 171.784 225.749L170.998 250.235H126.104L126.144 250.254Z" fill="#362974"/>
<path d="M153.965 235.268H142.409C140.868 230.917 141.272 222.213 148.725 222.213C155.66 222.213 154.735 231.642 153.965 235.268Z" fill="#0C0541"/>
<path d="M149.104 133.361L131.344 141.523L149.104 148.791V156.458H152.228V133H149.104V133.361Z" fill="#362974"/>
<path d="M127.958 247.057C127.958 247.057 117.314 252.194 115.5 258.32C114.636 261.25 149.88 260.292 149.88 260.292C149.88 260.292 178.769 261.38 182.235 258.32C180.421 254.401 167.147 245.82 167.147 245.82L127.978 247.038L127.958 247.057Z" fill="#564B89"/>
</g>
<path d="M274.797 176.091C275.562 174.734 277.516 174.734 278.281 176.091L281.009 180.931C281.295 181.437 281.786 181.795 282.356 181.91L287.802 183.008C289.329 183.317 289.933 185.175 288.879 186.322L285.119 190.413C284.726 190.841 284.538 191.418 284.604 191.996L285.242 197.515C285.421 199.063 283.84 200.211 282.423 199.563L277.371 197.251C276.843 197.009 276.235 197.009 275.707 197.251L270.655 199.563C269.238 200.211 267.657 199.063 267.836 197.515L268.474 191.996C268.54 191.418 268.353 190.841 267.959 190.413L264.199 186.322C263.145 185.175 263.749 183.317 265.276 183.008L270.722 181.91C271.292 181.795 271.783 181.437 272.069 180.931L274.797 176.091Z" fill="#362974"/>
<path fill-rule="evenodd" clip-rule="evenodd" d="M214.16 111.456C214.712 111.049 215.494 111.159 215.908 111.702L227.165 126.456C227.579 126.998 227.467 127.768 226.916 128.175C226.364 128.582 225.581 128.472 225.167 127.93L213.91 113.176C213.496 112.633 213.608 111.863 214.16 111.456Z" fill="#362974"/>
<path fill-rule="evenodd" clip-rule="evenodd" d="M220.539 109C221.229 109 221.788 109.55 221.788 110.228V129.772C221.788 130.45 221.229 131 220.539 131C219.849 131 219.29 130.45 219.29 129.772V110.228C219.29 109.55 219.849 109 220.539 109Z" fill="#362974"/>
<path fill-rule="evenodd" clip-rule="evenodd" d="M211.039 118.342C211.039 117.664 211.598 117.114 212.288 117.114H228.79C229.48 117.114 230.039 117.664 230.039 118.342C230.039 119.02 229.48 119.57 228.79 119.57H212.288C211.598 119.57 211.039 119.02 211.039 118.342Z" fill="#362974"/>
<path fill-rule="evenodd" clip-rule="evenodd" d="M226.952 112.219C227.49 112.645 227.574 113.418 227.141 113.946L216.259 127.227C215.826 127.755 215.04 127.838 214.503 127.412C213.966 126.987 213.881 126.213 214.314 125.685L225.196 112.405C225.629 111.877 226.415 111.794 226.952 112.219Z" fill="#362974"/>
<rect x="-42.9805" y="348" width="1768" height="178" fill="#362974"/>
<g clip-path="url(#clip2_4920_50555)">
<path d="M1566.84 313.389C1565.38 309.292 1562.17 306.67 1559.29 307.441C1556.41 308.212 1554.94 312.151 1555.76 316.441C1553.25 312.772 1549.36 311.049 1546.75 312.588C1544.73 313.792 1544.07 316.657 1544.83 319.749C1542.35 318.337 1539.74 318.156 1538.06 319.564C1536.43 320.947 1536.14 323.474 1537.03 326.121C1534.49 325.873 1532.28 326.637 1531.27 328.389C1529.88 330.831 1531.29 334.351 1534.47 336.81L1539.83 370.609L1594.02 368.738C1595.29 370.302 1597.21 371.362 1599.43 371.468C1603.5 371.666 1606.93 368.638 1607.12 364.71C1607.23 362.548 1606.28 360.589 1604.77 359.208C1606.89 358.245 1608.33 356.648 1608.42 354.778C1608.5 353.094 1607.48 351.554 1605.82 350.391C1607.75 348.779 1608.71 346.7 1608.2 344.77C1607.75 343.146 1606.32 341.988 1604.39 341.404C1606.12 339.041 1606.63 336.394 1605.36 334.541C1604.22 332.884 1601.96 332.263 1599.46 332.717C1600.29 330.874 1600.34 329.007 1599.39 327.606C1598.28 325.99 1596.1 325.383 1593.67 325.769C1595.19 322.53 1595.01 319.189 1592.97 317.619C1591.63 316.599 1589.79 316.548 1587.92 317.245C1588.22 314.572 1587.43 312.228 1585.58 311.225C1583.4 310.039 1580.46 311.063 1578.16 313.531C1577.76 309.749 1575.72 306.834 1573.02 306.659C1570.17 306.455 1567.6 309.378 1566.82 313.411L1566.84 313.389Z" fill="#362974"/>
<path d="M1510.37 334.066C1508.93 331.438 1506.34 329.889 1503.75 330.39C1501.67 330.791 1500.1 332.419 1499.34 334.566C1497 332.75 1494.02 332.369 1491.85 333.833C1490.75 334.577 1490.02 335.707 1489.68 336.995C1487.71 336.581 1485.59 336.944 1483.79 338.153C1482.28 339.176 1481.29 340.657 1480.79 342.288C1477.83 342.175 1474.95 343.794 1473.56 346.63C1473.01 347.789 1472.79 349.027 1472.84 350.225C1470.75 350.793 1468.91 352.191 1467.88 354.275C1466.36 357.432 1467.2 361.077 1469.66 363.319C1468.08 364.036 1466.7 365.256 1465.88 366.952C1464.07 370.813 1465.67 375.417 1469.51 377.268C1472.66 378.797 1476.32 377.948 1478.56 375.464L1539.5 369.577C1540.85 370.472 1542.56 371.029 1544.46 370.993C1548.72 370.929 1552.11 368.07 1552.06 364.615C1552.02 361.863 1549.79 359.584 1546.75 358.792C1548.35 356.645 1548.77 353.983 1547.57 351.898C1546.34 349.793 1543.77 348.863 1541.09 349.247C1543.13 346.032 1542.88 342.115 1540.38 340.145C1538.67 338.8 1536.32 338.683 1534.18 339.627C1534.22 336.849 1532.9 334.357 1530.6 333.428C1527.53 332.184 1523.85 334.132 1522.16 337.777C1522.62 333.704 1520.43 330.075 1517.11 329.553C1514.32 329.116 1511.64 331.053 1510.39 334.065L1510.37 334.066Z" fill="#362974"/>
<path d="M1486.32 362.799C1486.32 362.799 1475.1 347.635 1491.39 355.758C1491.39 355.758 1484.86 342.9 1497.47 351.583C1497.47 351.583 1496.2 334.342 1504.7 348.65C1504.7 348.65 1508.92 330.217 1515.25 347.336" stroke="#564B89" stroke-width="3" stroke-miterlimit="10" stroke-linecap="round" stroke-linejoin="round"/>
<path d="M1496.04 368.025C1496.04 368.025 1501.88 353.203 1504.28 367.958C1504.28 367.958 1513.84 356.859 1513.35 371.827" stroke="#564B89" stroke-width="3" stroke-miterlimit="10" stroke-linecap="round" stroke-linejoin="round"/>
<path d="M1563.31 344.948C1563.31 344.948 1571.51 329.951 1570.79 345.454C1570.79 345.454 1581.76 342.515 1574.81 353.153C1574.81 353.153 1585.53 350.501 1577.37 359.095" stroke="#564B89" stroke-width="3" stroke-miterlimit="10" stroke-linecap="round" stroke-linejoin="round"/>
<path d="M1549.43 335.74C1549.43 335.74 1545.99 321.598 1557.14 331.984C1557.14 331.984 1554.47 324.724 1559.47 323.818C1564.47 322.912 1563.76 331.497 1563.76 331.497C1563.76 331.497 1563.99 323.755 1569.09 324.437C1574.18 325.118 1572.73 334.027 1572.73 334.027C1572.73 334.027 1574.58 322.956 1581.27 330.728C1581.27 330.728 1583.22 331.91 1579.72 338.567" stroke="#564B89" stroke-width="3" stroke-miterlimit="10" stroke-linecap="round" stroke-linejoin="round"/>
<path d="M1581.04 347.18C1581.04 347.18 1581.68 341.541 1588.08 345.337C1588.08 345.337 1592.86 348.714 1584.31 352.013C1584.31 352.013 1597.02 351.079 1586.65 358.51C1586.65 358.51 1594.51 356.876 1590.46 363.305" stroke="#564B89" stroke-width="3" stroke-miterlimit="10" stroke-linecap="round" stroke-linejoin="round"/>
</g>
<path d="M422.411 334.189C427.364 340.97 432.195 349.266 434.079 357.66L428.709 358.881C424.71 341.073 405.092 322.694 404.894 322.516L408.651 318.48C409.139 318.939 415.891 325.239 422.422 334.18L422.411 334.189Z" fill="#362974"/>
<path d="M449.671 330.235C444.484 335.536 430.725 350.938 429.37 358.589L423.947 357.657C425.833 346.95 443.71 328.473 445.74 326.395L449.671 330.235Z" fill="#362974"/>
<path d="M426.181 359.456L431.684 359.379L431.244 316.404L425.741 316.481L426.181 359.456Z" fill="#362974"/>
<path d="M412.248 314.036C409.271 309.96 403.541 309.079 399.449 312.068C395.357 315.057 394.454 320.784 397.43 324.859C400.407 328.934 406.137 329.815 410.229 326.827C414.321 323.838 415.225 318.111 412.248 314.036Z" fill="#564B89"/>
<path d="M436.225 305.379C433.248 301.304 427.518 300.423 423.426 303.412C419.334 306.401 418.43 312.127 421.407 316.203C424.384 320.278 430.114 321.159 434.206 318.17C438.298 315.182 439.202 309.455 436.225 305.379Z" fill="#564B89"/>
<path d="M454.136 324.154C451.602 320.684 446.723 319.934 443.24 322.478C439.756 325.023 438.986 329.898 441.521 333.368C444.055 336.838 448.933 337.588 452.417 335.043C455.901 332.499 456.67 327.623 454.136 324.154Z" fill="#564B89"/>
<path d="M313.328 348.805C313.328 348.805 315.862 341.958 331.264 337.108C345.938 332.48 335.065 325.411 335.065 325.411C335.065 325.411 323.653 319.969 313.867 335.206C313.867 335.206 312.505 326.774 323.917 321.882C323.917 321.882 336.965 319.705 334.516 312.361C332.067 305.017 314.131 313.724 311.418 318.617C308.705 323.509 313.318 307.194 321.468 300.664C321.478 300.664 326.102 291.967 316.59 291.418C316.59 291.418 308.979 290.33 307.892 309.096C307.892 309.096 305.717 290.604 291.318 294.408C291.318 294.408 287.781 297.124 289.956 303.379C289.956 303.379 294.031 307.183 300.555 310.184C300.555 310.184 307.353 313.175 307.079 318.891C307.079 318.891 294.58 308.008 284.794 316.989C284.794 316.989 279.906 325.96 291.318 325.96C291.318 325.96 306.53 322.421 308.979 337.108C308.979 337.108 302.73 327.313 289.418 330.853C289.418 330.853 283.706 332.755 288.605 341.187C288.605 341.187 291.592 343.364 300.016 343.903C308.441 344.441 308.979 348.795 308.979 348.795L313.328 348.795L313.328 348.805Z" fill="#362974"/>
<path d="M1359.5 319.664C1359.5 319.664 1372.76 287.818 1410.55 286.666C1448.35 285.513 1458.49 292.596 1496.56 261.497C1534.63 230.398 1531.54 225.737 1564.07 228.049C1596.61 230.361 1630.29 250.804 1674.92 191.034C1674.92 191.034 1682.97 156.37 1644.48 159.654C1644.48 159.654 1626.64 163.101 1604.8 180.099C1582.96 197.097 1557.39 191.405 1557.39 191.405C1557.39 191.405 1534.82 183.306 1492.78 222.922C1450.75 262.538 1448.88 264.185 1421.96 264.015C1395.03 263.846 1349.54 281.847 1333.93 320.266L1359.52 319.654L1359.5 319.664Z" fill="#4C4377"/>
<path d="M1326.22 176.391L1391.05 133.954L1378.85 169.447L1402.12 132.868L1409.59 138.421L1417.98 116.958L1411 113.874L1406.37 118.616L1402.01 116.04L1364.33 144.246L1395.31 110.622L1387.18 112.505L1402.73 103.382L1393.7 87.8385L1374.1 96.2811L1385.06 105.872L1345.04 134.212L1375.24 122.739L1326.22 176.391Z" fill="#483896"/>
<path d="M1375.28 118.158L1384.89 117.537L1350.41 156.464L1396.22 124.514L1395.59 133.448L1404.32 124.075L1407.54 129.294L1411.97 118.245L1411.42 117.229L1391.2 92.9449L1382.07 95.8041L1392.09 106.534L1375.28 118.158Z" fill="#362974"/>
<g clip-path="url(#clip3_4920_50555)">
<path d="M1416.24 47.1227C1416.24 47.1227 1451.08 70.0527 1462.55 97.9833L1438.65 99.1581L1413.95 68.63L1416.24 47.1227Z" fill="#4C4377"/>
<path d="M1399.03 70.7587C1399.03 70.7587 1379.52 65.488 1372.14 81.4667C1372.14 81.4667 1389.51 79.4007 1397.12 89.024C1404.72 98.6473 1399.03 70.7587 1399.03 70.7587Z" fill="#4C4377"/>
<path d="M1436.36 111.865C1436.36 111.865 1439.73 131.786 1423.11 137.6C1423.11 137.6 1426.84 120.507 1417.99 112.009C1409.14 103.511 1436.36 111.865 1436.36 111.865Z" fill="#4C4377"/>
<path opacity="0.5" d="M1420.92 79.9097L1427.95 87.6443L1486.16 66.1186L1479.13 58.3839L1420.92 79.9097Z" fill="#4C4377"/>
<path d="M1416.24 47.1235C1412.57 50.8522 1392.25 72.1841 1391.15 87.8576C1391.15 87.8576 1388.86 95.5854 1400.37 107.984C1400.37 107.984 1410.14 118.195 1415.57 118.907C1419.92 119.478 1440.85 117.03 1462.55 97.9841C1460.67 97.1028 1437.47 85.6777 1416.24 47.1235Z" fill="#564B89"/>
<path opacity="0.5" d="M1478.72 80.379C1480.1 78.5335 1481.36 76.7413 1482.49 74.9999C1455.54 58.2175 1442.06 32.6554 1440.27 29.0836C1433.33 33.0034 1425.52 38.6375 1416.8 46.553C1416.8 46.553 1416.6 46.7539 1416.24 47.1235C1437.47 85.6778 1460.66 97.1045 1462.55 97.9842C1467.98 93.2218 1473.45 87.4278 1478.72 80.3809L1478.72 80.379Z" fill="#4C4377"/>
<path d="M1492.47 48.3102C1483.4 41.5549 1471.09 25.5534 1467.77 21.1436C1460.83 20.817 1451.73 22.6159 1440.27 29.0841C1442.06 32.6559 1455.54 58.218 1482.5 75.0004C1489.6 64.1283 1492.16 55.2632 1492.47 48.3121L1492.47 48.3102Z" fill="#564B89"/>
<path d="M1492.46 48.309C1493.04 35.1004 1485.49 28.8049 1485.49 28.8049C1485.49 28.8049 1479.93 21.7145 1467.77 21.1424C1471.09 25.5557 1483.4 41.5537 1492.46 48.309Z" fill="#4C4377"/>
<path d="M1420.87 101.093C1422.07 102.422 1424.06 102.584 1425.3 101.454C1426.55 100.325 1426.58 98.3322 1425.37 97.0035C1424.17 95.6748 1422.18 95.5132 1420.94 96.6426C1419.69 97.772 1419.66 99.7647 1420.87 101.093Z" fill="#4C4377"/>
<path d="M1421.32 100.684C1422.29 101.747 1423.87 101.876 1424.87 100.973C1425.87 100.069 1425.89 98.4746 1424.92 97.4114C1423.96 96.3482 1422.37 96.2189 1421.37 97.1226C1420.38 98.0263 1420.35 99.6208 1421.32 100.684Z" fill="#564B89"/>
<path d="M1422.22 99.869C1422.7 100.401 1423.5 100.466 1424 100.014C1424.49 99.5612 1424.51 98.7632 1424.02 98.2311C1423.54 97.6989 1422.74 97.6342 1422.25 98.0865C1421.75 98.5388 1421.74 99.3369 1422.22 99.869Z" fill="#4C4377"/>
<mask id="mask0_4920_50555" style="mask-type:alpha" maskUnits="userSpaceOnUse" x="1390" y="47" width="73" height="72">
<path d="M1416.24 47.1235C1412.57 50.8522 1392.25 72.1841 1391.15 87.8576C1391.15 87.8576 1388.86 95.5854 1400.37 107.984C1400.37 107.984 1410.14 118.195 1415.57 118.907C1419.92 119.478 1440.85 117.03 1462.55 97.9841C1460.67 97.1028 1437.47 85.6777 1416.24 47.1235Z" fill="#E8EAFF"/>
</mask>
<g mask="url(#mask0_4920_50555)">
<path fill-rule="evenodd" clip-rule="evenodd" d="M1400.39 108.413C1400.39 108.413 1400.39 108.413 1399.31 107.373C1398.23 106.334 1398.47 106.071 1398.47 106.071L1398.48 106.066L1398.49 106.052L1398.54 106.001C1398.58 105.956 1398.46 106.085 1398.54 106.001C1398.7 105.833 1398.89 105.659 1399.2 105.355C1399.82 104.748 1400.71 103.894 1401.8 102.902C1403.97 100.922 1406.97 98.3719 1410.22 96.1329C1413.44 93.9127 1417.03 91.9102 1420.4 91.1504C1423.79 90.3843 1427.22 90.8493 1429.56 93.9347C1429.59 93.9571 1429.61 93.9827 1429.64 94.0115C1429.73 94.1114 1429.85 94.2504 1429.98 94.4274C1430.25 94.7804 1430.59 95.291 1430.9 95.9502C1431.52 97.2817 1431.98 99.2029 1431.47 101.585C1430.45 106.303 1426.91 111.639 1413.54 118.501L1410.04 117.001C1423.22 110.237 1427.81 104.29 1428.53 100.951C1428.89 99.3055 1428.57 98.05 1428.18 97.2119C1427.98 96.7862 1427.76 96.4638 1427.6 96.2549C1427.52 96.151 1427.46 96.0769 1427.42 96.0339C1427.4 96.0127 1427.39 95.9993 1427.38 95.9938L1427.3 95.9128L1427.22 95.8083C1425.83 93.9371 1423.79 93.458 1421.06 94.0766C1418.26 94.7088 1415.04 96.4501 1411.92 98.6031C1408.82 100.737 1405.94 103.19 1403.82 105.12C1402.76 106.082 1401.9 106.909 1401.31 107.494C1401.01 107.787 1400.78 108.019 1400.62 108.176C1400.54 108.255 1400.49 108.315 1400.45 108.355L1400.4 108.4L1400.39 108.41L1400.39 108.413Z" fill="#4C4377"/>
</g>
<path d="M1458.95 25.6013C1458.8 25.3802 1458.54 25.2355 1458.28 25.1722C1457.97 24.9616 1457.6 24.8867 1457.35 25.1143C1454.94 27.3967 1452.22 29.3099 1449.21 30.7851C1448.34 31.2156 1449.47 32.5301 1450.17 32.1828C1451.2 31.6766 1452.2 31.1215 1453.17 30.5252C1453.32 30.6825 1453.52 30.8047 1453.73 30.8398C1455.46 31.1215 1458.25 31.5203 1459.62 30.2958C1461.06 29.0082 1459.89 26.9392 1458.95 25.601L1458.95 25.6013ZM1457.45 29.5183C1456.54 29.748 1455.51 29.7494 1454.52 29.6513C1455.81 28.7718 1457.03 27.8024 1458.2 26.7432C1458.79 27.8622 1459.01 29.1243 1457.45 29.5202L1457.45 29.5183Z" fill="#4C4377"/>
<path d="M1463.87 32.9593C1463.83 32.9048 1463.78 32.8459 1463.73 32.7868C1463.64 32.5486 1463.4 32.2492 1463.07 32.0865C1460.63 30.8827 1458.46 31.8425 1456.44 33.136C1454.66 34.2774 1452.95 36.2095 1454.87 38.3446C1455.51 39.0557 1456.45 39.5861 1457.38 39.6812C1458.72 39.8188 1459.75 38.9113 1460.78 38.2403C1462.42 37.1683 1465.7 35.4793 1463.87 32.9612L1463.87 32.9593ZM1460.18 36.6257C1459.52 37.0596 1458.86 37.5065 1458.19 37.9254C1457.92 38.091 1457.66 38.2758 1457.35 38.3802C1456.58 38.6474 1455.59 38.034 1455.55 37.1522C1455.47 35.5094 1457.27 34.5603 1458.44 33.8571C1459.62 33.1509 1461.12 32.3803 1462.58 32.8026C1463.74 34.5403 1461.29 35.8929 1460.18 36.6238L1460.18 36.6257Z" fill="#4C4377"/>
<path d="M1467.56 37.3088C1467.67 37.2401 1467.73 37.1108 1467.71 36.9C1467.7 36.8554 1467.69 36.8106 1467.69 36.766C1467.63 36.3479 1467.13 36.0176 1466.77 35.9191C1466.43 35.8259 1466.09 35.8707 1465.75 36.0026C1465.54 35.9767 1465.4 36.0655 1465.34 36.2146C1464.46 36.7545 1463.67 37.7927 1463.12 38.3685C1461.81 39.7562 1460.59 41.2103 1459.03 42.313C1458.96 42.3255 1458.9 42.3488 1458.85 42.3888C1458.71 42.4925 1458.58 42.5965 1458.44 42.7002C1457.79 43.1984 1459.15 44.2633 1459.73 43.9076C1460.81 43.2477 1461.73 42.4198 1462.6 41.5277C1464.39 41.9082 1467.14 42.1758 1468.45 40.7791C1469.56 39.6056 1468.64 38.3139 1467.56 37.3107L1467.56 37.3088ZM1465.83 40.3041C1465.11 40.4893 1464.34 40.5385 1463.58 40.4853C1464.09 39.9295 1464.59 39.3695 1465.13 38.8407C1465.27 38.6987 1465.9 38.0108 1466.4 37.5769C1466.87 37.9666 1467.35 38.4543 1467.38 38.9266C1467.42 39.7324 1466.42 40.151 1465.83 40.3025L1465.83 40.3041Z" fill="#4C4377"/>
<path d="M1466.51 50.4187C1466.5 50.3967 1466.49 50.3763 1466.48 50.3542C1466.43 50.2511 1466.34 50.1576 1466.24 50.0717C1466.05 49.4092 1466.31 48.1675 1466.45 47.6256C1466.67 46.7685 1467.05 45.9694 1467.59 45.289C1468.77 43.8054 1470.61 43.0463 1472.54 43.0831C1473.59 43.1033 1472.63 41.7197 1471.9 41.7041C1469.56 41.661 1467.35 42.5891 1465.98 44.4354C1464.91 45.8803 1463.93 48.8274 1465.07 50.6107C1465.29 50.9665 1465.97 51.3147 1466.34 51.0572C1466.37 51.0416 1466.39 51.0256 1466.41 51.0081C1466.6 50.8785 1466.61 50.6212 1466.51 50.4168L1466.51 50.4187Z" fill="#4C4377"/>
<path d="M1476.01 45.755C1476.06 45.3335 1475.57 44.8924 1475.12 44.7477C1475.09 44.7297 1475.07 44.7119 1475.04 44.6955C1473.02 43.4731 1471.04 44.4304 1469.6 45.8719C1468.39 47.0911 1466.12 50.2816 1467.41 52.2085C1468.82 54.2945 1471.7 52.1984 1473.04 51.3653C1474.05 50.7339 1475.41 49.982 1475.99 48.8883C1476.56 47.8388 1475.86 46.8565 1476.01 45.7566L1476.01 45.755ZM1473.54 48.8919C1472.92 49.3889 1472.25 49.8458 1471.57 50.2603C1470.94 50.6451 1469.76 51.5759 1468.99 51.5787C1468.61 51.5795 1468.67 51.6954 1468.75 51.1277C1468.8 50.7435 1468.94 50.3645 1469.07 50.0077C1469.35 49.2546 1469.73 48.5486 1470.2 47.9084C1470.91 46.9431 1472.89 44.7821 1474.4 45.6383C1474.43 46.0047 1474.51 46.3632 1474.58 46.7501C1474.75 47.7745 1474.27 48.3098 1473.54 48.8903L1473.54 48.8919Z" fill="#4C4377"/>
<path d="M1477.3 53.7842C1478.38 54.1088 1479.5 54.1659 1480.35 53.4135C1481.8 52.1301 1480.25 49.9229 1479.55 48.5355C1479.49 48.4065 1479.4 48.2807 1479.29 48.1679C1479.15 47.6954 1478.23 47.092 1477.87 47.3596C1476.43 48.4367 1475.68 50.0369 1474.63 51.464C1474.09 52.1976 1473.51 52.9071 1472.93 53.6033C1472.59 54.0002 1471.63 54.754 1471.64 55.3289C1471.65 55.8613 1472.34 56.2398 1472.78 56.3269C1472.82 56.3333 1472.85 56.3413 1472.89 56.3477C1473.1 56.3893 1473.26 56.3071 1473.31 56.1097L1473.33 56.0334C1473.34 55.9624 1473.33 55.8855 1473.3 55.8088C1473.57 55.3416 1474.35 54.6923 1474.57 54.4242C1474.93 53.9939 1475.28 53.5561 1475.62 53.1122C1475.65 53.1251 1475.68 53.1377 1475.7 53.1506C1475.28 54.8708 1475.09 56.6346 1475.13 58.4404C1475.15 59.0425 1476.71 59.8375 1476.7 59.2053C1476.65 57.3533 1476.85 55.5429 1477.3 53.7839L1477.3 53.7842ZM1479.28 51.895C1478.85 52.7933 1477.98 52.894 1477.1 52.7127C1476.84 52.4942 1476.49 52.3224 1476.23 52.3151C1477.02 51.2027 1477.65 49.9672 1478.61 49.019C1479.13 49.9609 1479.66 51.0715 1479.28 51.895Z" fill="#4C4377"/>
<path d="M1487.13 54.87C1487.34 54.1676 1485.78 53.3425 1485.53 54.169C1484.92 56.2502 1483.84 58.0776 1482.37 59.5646C1482.46 58.9565 1482.5 58.3417 1482.5 57.7125C1482.5 56.2759 1482.38 54.87 1482.84 53.5157C1482.87 53.4297 1482.87 53.3415 1482.85 53.2567C1482.93 53.1886 1483.01 53.1278 1483.09 53.0692C1483.8 52.565 1482.45 51.3812 1481.82 51.8315C1480.35 52.8797 1479.89 54.8213 1479.02 56.3467C1478.54 57.198 1478.01 58.015 1477.42 58.7905C1477.06 59.2647 1476.36 59.7736 1476.44 60.4497C1476.49 60.8618 1476.96 61.2586 1477.35 61.317C1477.69 61.3694 1477.92 61.3332 1478.13 61.0585C1478.22 60.9302 1478.21 60.7705 1478.16 60.6176C1478.43 60.2563 1479.17 59.447 1479.31 59.2415C1479.79 58.5701 1480.23 57.8709 1480.63 57.1454C1480.73 56.978 1480.81 56.8048 1480.9 56.6279C1480.9 56.7552 1480.9 56.8791 1480.9 57.0064C1480.9 58.5845 1480.64 60.0876 1480.12 61.5444C1479.91 62.1664 1481.11 62.8051 1481.57 62.5046C1484.29 60.6978 1486.2 58.0508 1487.14 54.8668L1487.13 54.87Z" fill="#4C4377"/>
</g>
<path d="M1300.17 365.513C1300.17 365.513 1311.56 350.431 1318.18 333.886L1324.91 318.109C1324.91 318.109 1328.72 306.791 1339.87 307.783L1361.2 309.143C1363.17 309.268 1365.13 309.118 1367.1 308.942C1369.8 308.693 1374.94 309.76 1379.26 319.814C1379.26 319.814 1399.7 359.496 1404.73 363.283L1300.17 365.513Z" fill="#362974"/>
<path d="M1360.98 323.199C1360.02 323.839 1359.53 325.072 1359.89 326.227L1367.37 351.441C1367.8 352.873 1369.31 353.7 1370.75 353.262C1372.18 352.834 1373.01 351.33 1372.57 349.884L1365.08 324.67C1364.66 323.238 1363.15 322.411 1361.71 322.849C1361.44 322.939 1361.2 323.034 1360.97 323.184L1360.98 323.199Z" fill="#564B89"/>
<path d="M1351.2 322.978C1350.52 323.428 1350.04 324.179 1349.99 325.057L1348.38 349.184C1348.29 350.679 1349.41 351.977 1350.9 352.071C1352.4 352.165 1353.7 351.044 1353.79 349.549L1355.4 325.423C1355.5 323.927 1354.38 322.63 1352.88 322.535C1352.26 322.489 1351.68 322.658 1351.2 322.978Z" fill="#564B89"/>
<path d="M1336.85 322.851C1336.32 323.2 1335.92 323.731 1335.73 324.398L1328.88 349.475C1328.5 350.924 1329.33 352.412 1330.79 352.812C1332.24 353.198 1333.73 352.363 1334.13 350.904L1340.97 325.827C1341.36 324.378 1340.52 322.89 1339.07 322.49C1338.27 322.277 1337.48 322.431 1336.85 322.851Z" fill="#564B89"/>
<g clip-path="url(#clip4_4920_50555)">
<path d="M1256.37 294.767C1256.26 294.767 1256.16 294.767 1256.07 294.747C1255.21 294.629 1254.49 294.043 1254.2 293.216C1252.59 288.665 1251.42 270.316 1251.3 268.24C1251.21 266.951 1252.18 265.841 1253.46 265.758C1254.73 265.682 1255.83 266.654 1255.91 267.951C1256.25 273.419 1256.88 281.259 1257.59 286.548L1268.34 270.819C1269.07 269.757 1270.5 269.495 1271.55 270.226C1272.6 270.964 1272.87 272.419 1272.14 273.481L1258.28 293.76C1257.84 294.395 1257.13 294.767 1256.38 294.767H1256.37Z" fill="#362974"/>
<path d="M1257.6 384.001C1256.34 384.001 1255.3 382.974 1255.29 381.691C1255.24 377.961 1254.06 290.244 1254.06 289.306C1254.06 288.017 1255.09 286.968 1256.37 286.968C1257.64 286.968 1258.67 288.017 1258.67 289.306C1258.67 290.499 1259.89 380.719 1259.91 381.629C1259.93 382.919 1258.91 383.98 1257.63 384.001H1257.59H1257.6Z" fill="#362974"/>
<path d="M1255.75 308.806C1255.24 308.806 1254.74 308.641 1254.32 308.303C1251.63 306.152 1248.56 301.683 1245.18 295.015C1242.74 290.182 1241.05 285.996 1240.98 285.824C1240.5 284.624 1241.07 283.259 1242.25 282.776C1243.43 282.286 1244.78 282.866 1245.26 284.059C1247.08 288.589 1252.77 301.111 1257.18 304.635C1258.18 305.434 1258.35 306.91 1257.56 307.924C1257.1 308.51 1256.43 308.813 1255.74 308.813L1255.75 308.806Z" fill="#362974"/>
<path d="M1256.72 309.179C1256.05 309.179 1255.39 308.882 1254.92 308.317C1254.12 307.317 1254.27 305.841 1255.26 305.028C1255.4 304.91 1269.41 293.34 1278.29 282.721C1279.11 281.735 1280.57 281.611 1281.54 282.445C1282.52 283.279 1282.64 284.755 1281.82 285.741C1272.65 296.705 1258.76 308.179 1258.17 308.662C1257.74 309.013 1257.22 309.186 1256.71 309.186L1256.72 309.179Z" fill="#362974"/>
<path d="M1256.37 326.121C1255.43 326.121 1254.54 325.535 1254.2 324.59C1252.07 318.729 1236.31 302.4 1230.42 296.601C1229.51 295.698 1229.48 294.222 1230.37 293.292C1231.26 292.368 1232.72 292.34 1233.64 293.243C1235.89 295.45 1255.66 315.061 1258.53 322.976C1258.97 324.19 1258.35 325.535 1257.16 325.983C1256.89 326.079 1256.63 326.128 1256.36 326.128L1256.37 326.121Z" fill="#362974"/>
<path d="M1257.29 343.284C1257.17 343.284 1257.05 343.277 1256.93 343.256C1255.67 343.056 1254.81 341.856 1255.01 340.581C1256.92 328.341 1277.61 297.849 1278.5 296.56C1279.22 295.498 1280.66 295.229 1281.71 295.96C1282.76 296.691 1283.02 298.153 1282.3 299.215C1282.25 299.291 1276.95 307.082 1271.5 316.198C1262.54 331.203 1260.08 338.133 1259.58 341.305C1259.4 342.456 1258.42 343.277 1257.3 343.277L1257.29 343.284Z" fill="#362974"/>
<path d="M1256.21 339.229C1255.09 339.229 1254.11 338.402 1253.94 337.264C1253.24 335.181 1244.35 324.935 1230.58 311.254C1229.66 310.351 1229.65 308.868 1230.54 307.944C1231.43 307.02 1232.9 307.007 1233.81 307.91C1233.87 307.972 1239.8 313.861 1245.71 320.156C1258.13 333.395 1258.38 335.478 1258.51 336.602C1258.66 337.884 1257.76 339.05 1256.49 339.201C1256.39 339.215 1256.31 339.215 1256.21 339.215V339.229ZM1253.92 337.167C1253.92 337.167 1253.92 337.202 1253.92 337.216C1253.92 337.202 1253.92 337.181 1253.92 337.167Z" fill="#362974"/>
<path d="M1240.07 277.548C1240.07 277.548 1232.44 277.617 1232.32 282.203C1232.32 282.203 1232.03 286.657 1237.68 287.85C1237.68 287.85 1245.46 289.229 1246.46 284.533C1246.46 284.533 1249.1 278.169 1240.07 277.548H1240.07Z" fill="#4C4377"/>
<path d="M1240.13 289.098C1238.68 289.098 1237.56 288.905 1237.5 288.891C1232.32 287.795 1231.17 284.023 1231.28 282.161C1231.33 280.506 1232.18 278.307 1235.93 277.155C1237.98 276.528 1239.97 276.507 1240.06 276.5H1240.14C1243.61 276.741 1245.95 277.824 1247.1 279.72C1248.42 281.892 1247.65 284.319 1247.45 284.843C1247.07 286.505 1245.77 288.539 1241.81 289.001C1241.23 289.07 1240.66 289.098 1240.13 289.098ZM1240.04 278.603C1239.77 278.603 1238.12 278.672 1236.5 279.175C1234.44 279.817 1233.39 280.844 1233.35 282.237V282.278C1233.33 282.637 1233.32 285.864 1237.89 286.829C1237.92 286.829 1244.66 287.974 1245.44 284.319L1245.46 284.223L1245.5 284.133C1245.5 284.133 1246.23 282.285 1245.32 280.81C1244.55 279.555 1242.72 278.796 1240.04 278.603Z" fill="#4C4377"/>
<path d="M1270.24 264.978C1270.24 264.978 1261.08 265.095 1261.23 272.797C1261.23 272.797 1260.5 281.354 1268.25 282.423C1268.25 282.423 1276.33 283.678 1278.6 276.038C1278.6 276.038 1282.83 265.474 1270.24 264.978Z" fill="#4C4377"/>
<path d="M1269.61 283.575C1269.06 283.575 1268.54 283.533 1268.09 283.464C1261.24 282.52 1259.93 276.086 1260.19 272.763C1260.16 270.466 1260.87 268.55 1262.29 267.06C1265.18 264.033 1270.02 263.936 1270.22 263.93H1270.27C1274.6 264.102 1277.58 265.433 1279.14 267.881C1281.37 271.39 1279.78 275.831 1279.57 276.383C1277.85 282.113 1272.94 283.568 1269.61 283.568L1269.61 283.575ZM1270.23 266.026C1269.9 266.04 1265.98 266.212 1263.78 268.522C1262.73 269.625 1262.24 271.011 1262.28 272.776V272.887C1262.25 273.19 1261.74 280.465 1268.4 281.382C1268.7 281.43 1275.64 282.389 1277.61 275.735L1277.65 275.638C1277.66 275.604 1279.16 271.742 1277.4 269.005C1276.23 267.17 1273.82 266.171 1270.23 266.019V266.026Z" fill="#4C4377"/>
<path d="M1230.67 289.788C1230.67 289.788 1223.24 289.946 1223.09 296.069C1223.09 296.069 1222.77 302.013 1228.26 303.551C1228.26 303.551 1235.81 305.316 1236.83 299.048C1236.83 299.048 1239.47 290.539 1230.67 289.788Z" fill="#4C4377"/>
<path d="M1230.53 304.826C1229.15 304.826 1228.11 304.592 1228.02 304.571L1227.98 304.558C1223 303.165 1221.93 298.359 1222.05 296.007C1222.18 290.401 1227.73 288.795 1230.65 288.733H1230.75C1233.68 288.981 1235.79 290.056 1237.04 291.932C1238.98 294.863 1238.01 298.669 1237.84 299.269C1237.52 301.158 1236.64 302.599 1235.23 303.558C1233.75 304.564 1231.96 304.813 1230.53 304.813V304.826ZM1228.5 302.53C1228.77 302.585 1232.01 303.241 1234.08 301.82C1235.02 301.179 1235.59 300.213 1235.8 298.869L1235.84 298.724C1235.84 298.724 1236.83 295.38 1235.31 293.097C1234.44 291.794 1232.87 291.036 1230.64 290.829C1229.98 290.856 1224.24 291.236 1224.12 296.083C1224.1 296.318 1223.93 301.22 1228.5 302.517V302.53Z" fill="#4C4377"/>
<path d="M1283.48 276.969C1283.48 276.969 1276.05 277.127 1275.9 283.251C1275.9 283.251 1275.58 289.195 1281.06 290.732C1281.06 290.732 1288.62 292.497 1289.64 286.229C1289.64 286.229 1292.27 277.72 1283.48 276.969Z" fill="#4C4377"/>
<path d="M1283.34 292.008C1281.95 292.008 1280.91 291.773 1280.82 291.753L1280.78 291.739C1275.81 290.339 1274.73 285.533 1274.85 283.189C1274.99 277.583 1280.54 275.976 1283.45 275.914H1283.56C1286.49 276.162 1288.6 277.238 1289.84 279.113C1291.79 282.044 1290.82 285.85 1290.65 286.45C1290.33 288.339 1289.45 289.781 1288.04 290.739C1286.56 291.746 1284.77 291.994 1283.34 291.994V292.008ZM1281.31 289.712C1281.58 289.767 1284.82 290.422 1286.9 289.001C1287.84 288.36 1288.4 287.395 1288.62 286.05L1288.65 285.905C1288.65 285.905 1289.65 282.561 1288.12 280.279C1287.25 278.975 1285.68 278.217 1283.45 278.01C1282.8 278.038 1277.05 278.417 1276.93 283.264C1276.92 283.499 1276.74 288.402 1281.31 289.698V289.712Z" fill="#4C4377"/>
<path d="M1231.77 306.647C1231.77 306.647 1224.14 306.716 1224.03 311.301C1224.03 311.301 1223.74 315.756 1229.39 316.949C1229.39 316.949 1237.17 318.328 1238.17 313.632C1238.17 313.632 1240.81 307.267 1231.78 306.647H1231.77Z" fill="#4C4377"/>
<path d="M1231.84 318.19C1230.39 318.19 1229.27 317.997 1229.21 317.983C1224.03 316.887 1222.88 313.115 1222.99 311.253C1223.04 309.598 1223.89 307.398 1227.64 306.247C1229.69 305.619 1231.68 305.599 1231.77 305.592H1231.85C1235.31 305.833 1237.66 306.916 1238.81 308.812C1240.13 310.984 1239.36 313.411 1239.16 313.935C1238.78 315.597 1237.48 317.631 1233.52 318.093C1232.94 318.162 1232.37 318.19 1231.84 318.19ZM1231.75 307.695C1231.48 307.695 1229.83 307.764 1228.21 308.267C1226.15 308.909 1225.1 309.936 1225.06 311.329V311.37C1225.04 311.729 1225.03 314.956 1229.6 315.921C1229.63 315.921 1236.37 317.066 1237.15 313.411L1237.17 313.315L1237.21 313.225C1237.21 313.225 1237.94 311.377 1237.03 309.902C1236.26 308.647 1234.43 307.888 1231.75 307.695Z" fill="#4C4377"/>
<path d="M1252.34 256.048C1252.34 256.048 1243.19 256.165 1243.34 263.868C1243.34 263.868 1242.6 272.425 1250.35 273.494C1250.35 273.494 1258.44 274.749 1260.7 267.108C1260.7 267.108 1264.94 256.545 1252.34 256.048Z" fill="#4C4377"/>
<path d="M1251.72 274.645C1251.16 274.645 1250.64 274.604 1250.19 274.535C1243.35 273.59 1242.04 267.157 1242.3 263.833C1242.26 261.537 1242.97 259.62 1244.39 258.131C1247.29 255.097 1252.13 255 1252.33 255H1252.39C1256.71 255.172 1259.69 256.503 1261.25 258.951C1263.48 262.461 1261.89 266.902 1261.68 267.453C1259.96 273.183 1255.05 274.638 1251.72 274.638V274.645ZM1252.34 257.103C1252 257.117 1248.08 257.289 1245.89 259.599C1244.84 260.703 1244.35 262.089 1244.38 263.854V263.964C1244.35 264.267 1243.84 271.542 1250.5 272.459C1250.81 272.508 1257.75 273.466 1259.72 266.812L1259.75 266.715C1259.76 266.681 1261.26 262.819 1259.51 260.082C1258.33 258.248 1255.93 257.248 1252.34 257.096V257.103Z" fill="#4C4377"/>
<path d="M1281.83 292.766C1281.83 292.766 1274.4 292.925 1274.25 299.048C1274.25 299.048 1273.93 304.992 1279.42 306.53C1279.42 306.53 1286.97 308.295 1287.99 302.027C1287.99 302.027 1290.63 293.518 1281.83 292.766Z" fill="#4C4377"/>
<path d="M1281.7 307.812C1280.31 307.812 1279.27 307.578 1279.18 307.557L1279.14 307.543C1274.17 306.144 1273.09 301.337 1273.21 298.993C1273.35 293.387 1278.9 291.78 1281.81 291.718H1281.92C1284.85 291.966 1286.96 293.042 1288.2 294.918C1290.15 297.848 1289.18 301.655 1289.01 302.254C1288.69 304.144 1287.81 305.585 1286.4 306.543C1284.92 307.55 1283.13 307.798 1281.7 307.798V307.812ZM1279.67 305.509C1279.93 305.564 1283.17 306.219 1285.25 304.799C1286.19 304.158 1286.75 303.192 1286.97 301.848L1287 301.703C1287 301.703 1288 298.359 1286.47 296.076C1285.6 294.773 1284.04 294.014 1281.8 293.808C1281.15 293.835 1275.41 294.214 1275.28 299.062C1275.27 299.296 1275.09 304.199 1279.67 305.495V305.509Z" fill="#4C4377"/>
</g>
</g>
<defs>
<clipPath id="clip0_4920_50555">
<rect width="1702" height="526" fill="white"/>
</clipPath>
<clipPath id="clip1_4920_50555">
<rect width="208" height="235" fill="white" transform="translate(47.0391 133)"/>
</clipPath>
<clipPath id="clip2_4920_50555">
<rect width="66.921" height="144.611" fill="white" transform="translate(1465.95 381.342) rotate(-94.2038)"/>
</clipPath>
<clipPath id="clip3_4920_50555">
<rect width="79.0923" height="119.385" fill="white" transform="translate(1459.42) rotate(47.7583)"/>
</clipPath>
<clipPath id="clip4_4920_50555">
<rect width="69" height="129" fill="white" transform="translate(1222.04 255)"/>
</clipPath>
</defs>
</svg>
