<svg width="319" height="578" viewBox="0 0 319 578" fill="none" xmlns="http://www.w3.org/2000/svg">
<g clip-path="url(#clip0_4915_48636)">
<path d="M74.2214 469.808C74.2214 469.808 28.473 456.19 24.2751 498.796C20.0772 541.403 41.5319 552.171 71.3825 554.511C101.233 556.852 127.822 534.375 128.287 513.306C128.752 492.236 127.393 455.754 74.2214 469.802V469.808Z" fill="#483E1C"/>
<path d="M66.9556 495.983C71.7226 495.983 75.5871 491.477 75.5871 485.918C75.5871 480.36 71.7226 475.854 66.9556 475.854C62.1886 475.854 58.3242 480.36 58.3242 485.918C58.3242 491.477 62.1886 495.983 66.9556 495.983Z" fill="#0C0541"/>
<path d="M95.1747 497.39C99.2978 497.39 102.64 492.675 102.64 486.858C102.64 481.041 99.2978 476.326 95.1747 476.326C91.0515 476.326 87.709 481.041 87.709 486.858C87.709 492.675 91.0515 497.39 95.1747 497.39Z" fill="#0C0541"/>
<path d="M43.3989 504.417L58.7893 500.203L59.2544 506.291L54.1263 508.631C54.1263 508.631 52.725 523.613 78.3837 524.08C104.042 524.547 105.903 510.032 105.903 510.032L100.304 508.625L102.635 502.537L117.095 506.285L116.165 511.432L110.566 511.899C110.566 511.899 102.17 530.161 77.9125 528.755C53.6552 527.348 56.9229 521.734 47.5969 510.965L42.4688 511.432L43.3989 504.411V504.417Z" fill="#0C0541"/>
<path d="M63.457 443.705C63.457 443.705 72.0099 454.94 69.2073 466.648L68.4281 468.831L74.2206 469.807L84.9118 467.115L73.4052 444.487C73.4052 444.487 67.963 439.807 63.457 443.705Z" fill="#665827"/>
<path d="M149.499 457.916C149.499 457.916 118.404 472.274 117.782 500.68C117.16 529.086 108.142 572.159 161.936 576.84C215.73 581.521 218.533 535.634 218.533 535.634L218.225 504.421C218.225 504.421 216.672 469.776 177.49 456.352L149.505 457.91L149.499 457.916Z" fill="#483E1C"/>
<path d="M165.355 427.327L162.867 447.93L146.697 457.916L155.401 459.165L155.093 474.462L163.797 464.161L167.216 473.522L174.059 464.161L177.792 471.03L181.833 463.852L188.985 464.161C188.985 464.161 188.985 456.357 179.036 448.863L180.903 429.825C180.903 429.825 175.304 418.59 165.355 427.327Z" fill="#665827"/>
<path d="M180.28 479.453L171.576 494.751L177.798 496L178.106 491.319L183.705 491.01L184.013 495.69H191.787C191.787 495.69 193.653 490.07 180.28 479.459V479.453Z" fill="#0C0541"/>
<path d="M156.03 478.518C156.03 478.518 165.978 485.387 164.426 495.998L157.275 496.307V489.128H149.809V494.749H142.035C142.035 494.749 150.123 478.518 156.03 478.518Z" fill="#0C0541"/>
<path d="M201.742 500.679C201.742 500.679 208.586 516.911 197.701 550.622L188.997 538.447L179.671 551.247L173.45 538.763L162.566 549.998L158.525 533.142L146.71 546.566L143.291 531.268L130.232 546.566L132.099 495.689L138.006 508.798L143.913 504.742L149.821 520.664L158.839 511.927L165.368 524.411L170.967 515.983L177.189 525.969L184.963 513.794L191.492 520.664L201.754 500.686L201.742 500.679Z" fill="#0C0541"/>
<path d="M269.315 478.786C269.315 478.786 315.649 476.912 318.446 506.567C321.243 536.222 305.073 561.191 273.048 564.629C241.023 568.066 210.858 546.839 210.858 529.359C210.858 511.879 208.684 486.595 257.501 478.482L269.315 478.792V478.786Z" fill="#483E1C"/>
<path d="M269.623 456.625L278.949 456L271.483 476.288L273.036 481.593C273.036 481.593 257.796 482.217 257.488 478.47C257.488 478.47 260.599 484.4 269.617 456.618L269.623 456.625Z" fill="#665827"/>
<path d="M243.04 487.293L240.473 498.765L256.099 494.551L243.04 487.293Z" fill="#0C0541"/>
<path d="M268.922 491.744C268.922 491.744 281.28 499.001 281.516 498.298C281.751 497.595 281.516 486.59 281.516 486.59L268.922 491.738V491.744Z" fill="#0C0541"/>
<path d="M301.811 502.977L286.421 509.295V517.256L274.757 517.723L274.522 509.998L260.526 511.169L261.928 519.36L249.098 518.426L250.5 508.592L239.307 508.125L237.211 514.916L229.051 513.746L230.917 504.147L222.057 500.4L217.623 531.068C217.623 531.068 227.185 537.386 227.65 536.452C228.115 535.519 228.58 526.618 228.58 526.618L240.473 528.255L241.874 539.023L260.533 540.43L260.768 528.255L274.993 527.788L275.693 539.496L287.121 536.689L286.421 526.624L295.282 524.283L297.613 531.541L306.245 527.091C306.245 527.091 310.207 520.069 301.811 502.977Z" fill="#0C0541"/>
</g>
<path d="M84.1169 54.153C84.1169 54.153 116.163 65.1808 137.885 46.3267C137.885 46.3267 152.838 61.2653 135.39 110.356C135.39 110.356 119.367 59.1325 99.4298 100.042C99.4298 100.042 69.8783 60.2012 76.2875 108.578C76.2875 108.578 62.3994 100.042 55.6351 112.848C55.6351 112.848 61.6893 95.0627 38.5424 102.175C38.5424 102.175 48.5112 82.6115 42.102 68.737C42.102 68.737 35.6928 61.2653 25.0093 68.737C25.0093 68.737 36.4029 27.4725 1.15234 50.9515C1.15234 50.9515 7.91658 6.84031 30.7038 1.15137C30.7038 1.15137 29.6341 21.7836 53.8461 43.4799C53.8461 43.4799 62.3348 17.0896 70.7498 27.1961C71.8103 28.4721 73.5255 29.0065 75.1117 28.5136C80.7463 26.7585 92.4073 25.9846 84.1169 54.153Z" fill="#483E1C"/>
<path d="M75.514 51.6613C77.9077 51.6613 79.8482 49.4318 79.8482 46.6817C79.8482 43.9316 77.9077 41.7021 75.514 41.7021C73.1202 41.7021 71.1797 43.9316 71.1797 46.6817C71.1797 49.4318 73.1202 51.6613 75.514 51.6613Z" fill="#0C0541"/>
<path d="M64.2347 47.9896C66.6284 47.9896 68.5689 45.8922 68.5689 43.3049C68.5689 40.7176 66.6284 38.6201 64.2347 38.6201C61.8409 38.6201 59.9004 40.7176 59.9004 43.3049C59.9004 45.8922 61.8409 47.9896 64.2347 47.9896Z" fill="#0C0541"/>
<path d="M64.3438 46C65.1722 46 65.8438 45.1046 65.8438 44C65.8438 42.8954 65.1722 42 64.3438 42C63.5153 42 62.8438 42.8954 62.8438 44C62.8438 45.1046 63.5153 46 64.3438 46Z" fill="#483E1C"/>
<path d="M76.073 46.5776C76.3671 45.6025 76.0019 44.6303 75.2572 44.4061C74.5125 44.1819 73.6704 44.7906 73.3763 45.7657C73.0822 46.7408 73.4474 47.713 74.1921 47.9372C74.9368 48.1614 75.7789 47.5526 76.073 46.5776Z" fill="#483E1C"/>
<path d="M65.4802 53.9178C65.4802 53.9178 66.4301 57.9485 69.0398 58.188C71.6496 58.4275 74.264 56.6449 74.264 56.6449C74.264 56.6449 78.1787 55.1017 74.3839 59.2521C70.5891 63.4025 66.1949 68.6216 63.5851 61.6244C63.5851 61.6244 60.2606 66.2493 58.4808 59.3719C56.701 52.4945 58.1258 50.8361 58.1258 50.8361C58.1258 50.8361 59.0756 50.1267 60.3805 53.4434C61.6854 56.76 65.72 54.1528 65.4848 53.9178H65.4802Z" fill="#0C0541"/>
<path d="M41.0101 172.565C41.0101 172.565 42.3929 188.018 63.1262 184.585C63.1262 184.585 66.9256 154.021 78.3327 169.474C78.3327 169.474 95.2666 155.395 88.7016 190.076C88.7016 190.076 111.856 201.754 127.407 189.734C127.407 189.734 139.848 199.006 129.828 251.888C129.828 251.888 112.894 198.317 102.525 236.093C102.525 236.093 97.6877 217.549 85.936 218.581C85.936 218.581 81.7875 224.077 87.3188 236.093C87.3188 236.093 73.8397 232.66 71.4231 241.242C71.4231 241.242 68.3129 222.699 54.1446 234.376C54.1446 234.376 60.7096 212.4 55.872 212.057C55.872 212.057 54.1446 208.967 41.7037 224.077C41.7037 224.077 48.2687 188.022 20.2768 230.601C20.2768 230.601 15.7837 211.026 41.0101 172.565Z" fill="#483E1C"/>
<path d="M82.3897 186.986C84.7278 186.986 86.6232 185.102 86.6232 182.779C86.6232 180.456 84.7278 178.572 82.3897 178.572C80.0516 178.572 78.1562 180.456 78.1562 182.779C78.1562 185.102 80.0516 186.986 82.3897 186.986Z" fill="#0C0541"/>
<path d="M72.1957 184.41C74.4374 184.41 76.2546 182.605 76.2546 180.377C76.2546 178.15 74.4374 176.344 72.1957 176.344C69.954 176.344 68.1367 178.15 68.1367 180.377C68.1367 182.605 69.954 184.41 72.1957 184.41Z" fill="#0C0541"/>
<path d="M72.8009 197.29C72.8009 197.29 75.5665 208.62 83.5143 191.282C83.5143 191.282 83.3398 189.739 80.5786 191.624C80.5786 191.624 76.6047 195.916 74.7028 189.565C74.7028 189.565 71.248 196.089 68.1378 187.506C68.1378 187.506 65.8913 187.333 67.2741 192.829C67.2741 192.829 69.8652 204.333 72.8053 197.294L72.8009 197.29Z" fill="#0C0541"/>
<path d="M82.0156 183.553C82.5248 183.553 82.9375 183.143 82.9375 182.637C82.9375 182.131 82.5248 181.721 82.0156 181.721C81.5065 181.721 81.0938 182.131 81.0938 182.637C81.0938 183.143 81.5065 183.553 82.0156 183.553Z" fill="#483E1C"/>
<path d="M72.398 181.378C72.9393 181.378 73.3781 181.02 73.3781 180.578C73.3781 180.136 72.9393 179.777 72.398 179.777C71.8568 179.777 71.418 180.136 71.418 180.578C71.418 181.02 71.8568 181.378 72.398 181.378Z" fill="#483E1C"/>
<defs>
<clipPath id="clip0_4915_48636">
<rect width="296" height="155" fill="white" transform="translate(22.8438 423)"/>
</clipPath>
</defs>
</svg>
