<svg width="697" height="586" viewBox="0 0 697 586" fill="none" xmlns="http://www.w3.org/2000/svg">
<path d="M319.443 6.73121L45.4863 121.704C18.127 133.181 0.328125 159.965 0.328125 189.65V512.319C0.328125 553.008 33.2959 586 73.9717 586H622.685C663.353 586 696.328 553.016 696.328 512.319V189.693C696.328 159.987 678.5 133.188 651.112 121.726L376.349 6.7094C358.143 -0.915233 337.642 -0.900696 319.436 6.73848L319.443 6.73121Z" fill="#FCF1E3"/>
<mask id="mask0_4763_36360" style="mask-type:alpha" maskUnits="userSpaceOnUse" x="0" y="1" width="697" height="585">
<path d="M319.443 6.73121L45.4863 121.704C18.127 133.181 0.328125 159.965 0.328125 189.65V512.319C0.328125 553.008 33.2959 586 73.9717 586H622.685C663.353 586 696.328 553.016 696.328 512.319V189.693C696.328 159.987 678.5 133.188 651.112 121.726L376.349 6.7094C358.143 -0.915233 337.642 -0.900696 319.436 6.73848L319.443 6.73121Z" fill="#FCF1E3"/>
</mask>
<g mask="url(#mask0_4763_36360)">
<mask id="mask1_4763_36360" style="mask-type:alpha" maskUnits="userSpaceOnUse" x="0" y="1" width="697" height="585">
<path d="M319.443 6.73121L45.4863 121.704C18.127 133.181 0.328125 159.965 0.328125 189.65V512.319C0.328125 553.008 33.2959 586 73.9717 586H622.685C663.353 586 696.328 553.016 696.328 512.319V189.693C696.328 159.987 678.5 133.188 651.112 121.726L376.349 6.7094C358.143 -0.915233 337.642 -0.900696 319.436 6.73848L319.443 6.73121Z" fill="#FCF1E3"/>
</mask>
<g mask="url(#mask1_4763_36360)">
<path d="M348.828 0L348.828 585M398.828 0L398.828 585M48.8281 0L48.8282 585M448.828 0L448.828 585M98.8281 0L98.8282 585M498.828 0L498.828 585M148.828 0L148.828 585M548.828 0L548.828 585M198.828 0L198.828 585M598.828 0V585M248.828 0L248.828 585M648.828 0V585M298.828 0L298.828 585" stroke="white" stroke-opacity="0.4" stroke-width="4"/>
</g>
</g>
<rect x="295.828" y="79" width="123" height="32" rx="16" fill="#E99C35"/>
<path d="M316.839 101V89.3636H324.68V91.392H319.3V94.1648H324.277V96.1932H319.3V98.9716H324.703V101H316.839ZM326.156 101V89.3636H330.747C331.63 89.3636 332.382 89.5322 333.003 89.8693C333.624 90.2027 334.098 90.6667 334.423 91.2614C334.753 91.8523 334.918 92.5341 334.918 93.3068C334.918 94.0795 334.751 94.7614 334.418 95.3523C334.084 95.9432 333.601 96.4034 332.969 96.733C332.34 97.0625 331.579 97.2273 330.685 97.2273H327.759V95.2557H330.287C330.761 95.2557 331.151 95.1742 331.458 95.0114C331.768 94.8447 331.999 94.6155 332.151 94.3239C332.306 94.0284 332.384 93.6894 332.384 93.3068C332.384 92.9205 332.306 92.5833 332.151 92.2955C331.999 92.0038 331.768 91.7784 331.458 91.6193C331.147 91.4564 330.753 91.375 330.276 91.375H328.617V101H326.156ZM338.496 89.3636V101H336.036V89.3636H338.496ZM346.353 92.7102C346.307 92.2519 346.112 91.8958 345.767 91.642C345.423 91.3883 344.955 91.2614 344.364 91.2614C343.962 91.2614 343.623 91.3182 343.347 91.4318C343.07 91.5417 342.858 91.6951 342.711 91.892C342.567 92.089 342.495 92.3125 342.495 92.5625C342.487 92.7708 342.531 92.9527 342.625 93.108C342.724 93.2633 342.858 93.3977 343.029 93.5114C343.199 93.6212 343.396 93.7178 343.62 93.8011C343.843 93.8807 344.082 93.9489 344.336 94.0057L345.381 94.2557C345.889 94.3693 346.355 94.5208 346.779 94.7102C347.203 94.8996 347.57 95.1326 347.881 95.4091C348.192 95.6856 348.432 96.0114 348.603 96.3864C348.777 96.7614 348.866 97.1913 348.87 97.6761C348.866 98.3883 348.684 99.0057 348.324 99.5284C347.968 100.047 347.453 100.451 346.779 100.739C346.108 101.023 345.3 101.165 344.353 101.165C343.413 101.165 342.595 101.021 341.898 100.733C341.205 100.445 340.663 100.019 340.273 99.4545C339.887 98.8864 339.684 98.1837 339.665 97.3466H342.046C342.072 97.7367 342.184 98.0625 342.381 98.3239C342.582 98.5814 342.849 98.7765 343.182 98.9091C343.519 99.0379 343.9 99.1023 344.324 99.1023C344.741 99.1023 345.103 99.0417 345.409 98.9205C345.72 98.7992 345.961 98.6307 346.131 98.4148C346.301 98.1989 346.387 97.9508 346.387 97.6705C346.387 97.4091 346.309 97.1894 346.154 97.0114C346.002 96.8333 345.779 96.6818 345.483 96.5568C345.192 96.4318 344.834 96.3182 344.409 96.2159L343.142 95.8977C342.161 95.6591 341.387 95.286 340.819 94.7784C340.25 94.2708 339.968 93.5871 339.972 92.7273C339.968 92.0227 340.156 91.4072 340.534 90.8807C340.917 90.3542 341.442 89.9432 342.108 89.6477C342.775 89.3523 343.533 89.2045 344.381 89.2045C345.245 89.2045 345.998 89.3523 346.642 89.6477C347.29 89.9432 347.794 90.3542 348.154 90.8807C348.514 91.4072 348.699 92.017 348.711 92.7102H346.353ZM360.738 95.1818C360.738 96.4508 360.497 97.5303 360.016 98.4205C359.539 99.3106 358.887 99.9905 358.062 100.46C357.24 100.926 356.315 101.159 355.289 101.159C354.255 101.159 353.327 100.924 352.505 100.455C351.683 99.9848 351.033 99.3049 350.556 98.4148C350.079 97.5246 349.84 96.447 349.84 95.1818C349.84 93.9129 350.079 92.8333 350.556 91.9432C351.033 91.053 351.683 90.375 352.505 89.9091C353.327 89.4394 354.255 89.2045 355.289 89.2045C356.315 89.2045 357.24 89.4394 358.062 89.9091C358.887 90.375 359.539 91.053 360.016 91.9432C360.497 92.8333 360.738 93.9129 360.738 95.1818ZM358.243 95.1818C358.243 94.3598 358.12 93.6667 357.874 93.1023C357.632 92.5379 357.289 92.1098 356.846 91.8182C356.402 91.5265 355.884 91.3807 355.289 91.3807C354.694 91.3807 354.175 91.5265 353.732 91.8182C353.289 92.1098 352.944 92.5379 352.698 93.1023C352.455 93.6667 352.334 94.3598 352.334 95.1818C352.334 96.0038 352.455 96.697 352.698 97.2614C352.944 97.8258 353.289 98.2538 353.732 98.5455C354.175 98.8371 354.694 98.983 355.289 98.983C355.884 98.983 356.402 98.8371 356.846 98.5455C357.289 98.2538 357.632 97.8258 357.874 97.2614C358.12 96.697 358.243 96.0038 358.243 95.1818ZM366.205 101H362.08V89.3636H366.239C367.41 89.3636 368.417 89.5966 369.262 90.0625C370.107 90.5246 370.756 91.1894 371.211 92.0568C371.669 92.9242 371.898 93.9621 371.898 95.1705C371.898 96.3826 371.669 97.4242 371.211 98.2955C370.756 99.1667 370.103 99.8352 369.251 100.301C368.402 100.767 367.387 101 366.205 101ZM364.54 98.892H366.103C366.83 98.892 367.442 98.7633 367.938 98.5057C368.438 98.2443 368.813 97.8409 369.063 97.2955C369.317 96.7462 369.444 96.0379 369.444 95.1705C369.444 94.3106 369.317 93.608 369.063 93.0625C368.813 92.517 368.44 92.1155 367.944 91.858C367.448 91.6004 366.836 91.4716 366.109 91.4716H364.54V98.892ZM373.241 101V89.3636H381.082V91.392H375.701V94.1648H380.678V96.1932H375.701V98.9716H381.104V101H373.241ZM388.936 101V99.2273L393.078 95.392C393.43 95.0511 393.725 94.7443 393.964 94.4716C394.207 94.1989 394.39 93.9318 394.515 93.6705C394.64 93.4053 394.703 93.1193 394.703 92.8125C394.703 92.4716 394.625 92.178 394.47 91.9318C394.314 91.6818 394.102 91.4905 393.833 91.358C393.564 91.2216 393.26 91.1534 392.919 91.1534C392.563 91.1534 392.252 91.2254 391.987 91.3693C391.722 91.5133 391.517 91.7197 391.373 91.9886C391.229 92.2576 391.157 92.5777 391.157 92.9489H388.822C388.822 92.1875 388.994 91.5265 389.339 90.9659C389.684 90.4053 390.167 89.9716 390.788 89.6648C391.409 89.358 392.125 89.2045 392.936 89.2045C393.769 89.2045 394.494 89.3523 395.112 89.6477C395.733 89.9394 396.216 90.3447 396.561 90.8636C396.905 91.3826 397.078 91.9773 397.078 92.6477C397.078 93.0871 396.991 93.5208 396.816 93.9489C396.646 94.3769 396.341 94.8523 395.902 95.375C395.462 95.8939 394.843 96.517 394.044 97.2443L392.345 98.9091V98.9886H397.231V101H388.936Z" fill="white"/>
<path d="M278.068 159.16H270.228V124.08H283.428C290.348 124.08 295.428 127.52 295.428 135.08V137.92C295.428 145.48 290.348 148.92 283.428 148.92H278.068V159.16ZM278.068 130.88V142.12H283.028C285.708 142.12 287.628 140.52 287.628 137.48V135.52C287.628 132.48 285.708 130.88 283.028 130.88H278.068ZM304.933 159.16H297.213V124.08H304.933V134.56C306.333 132.96 308.613 132.24 311.053 132.24C315.893 132.24 320.173 134.84 320.173 143.28V159.16H312.333V142.76C312.333 140.04 310.773 138.72 308.653 138.72C306.533 138.72 304.933 140 304.933 142.56V159.16ZM333.356 159.8C328.036 159.8 321.756 157.32 321.756 148.72V143.32C321.756 134.72 327.916 132.24 333.356 132.24C338.676 132.24 344.956 134.72 344.956 143.32V148.72C344.956 157.32 338.676 159.8 333.356 159.8ZM333.356 153.24C335.076 153.24 337.316 152.32 337.316 149.48V142.56C337.316 139.72 335.076 138.8 333.356 138.8C331.636 138.8 329.396 139.72 329.396 142.56V149.48C329.396 152.32 331.636 153.24 333.356 153.24ZM354.523 159.16H346.963V132.88H354.163V134.84C355.763 133.04 358.243 132.24 360.683 132.24C365.523 132.24 369.683 134.84 369.683 143.28V159.16H362.003V142.84C362.003 140.12 360.523 138.72 358.283 138.72C356.043 138.72 354.523 140.08 354.523 142.64V159.16ZM379.752 130.6H372.072V123.84H379.752V130.6ZM379.752 159.16H372.072V132.88H379.752V159.16ZM393.253 159.8C388.333 159.8 381.733 157.28 381.733 148.12V143.92C381.733 134.76 388.333 132.24 393.253 132.24C396.933 132.24 399.453 133 401.213 134.08L400.413 139.92C399.133 139.16 397.173 138.72 394.413 138.72C391.493 138.72 389.373 140.32 389.373 143.84V148.2C389.373 151.72 391.493 153.32 394.413 153.32C396.973 153.32 399.413 152.72 400.893 151.8L401.693 157.84C399.733 159.04 396.933 159.8 393.253 159.8ZM412.786 159.8C409.266 159.8 405.546 158.92 402.826 157.08L403.626 150.96C406.826 152.84 409.466 153.6 412.226 153.6C413.986 153.6 415.106 152.92 415.106 151.72C415.106 150.36 412.986 149.64 409.986 148.6L408.346 148.04C404.386 146.68 402.266 143.68 402.306 140.24C402.346 135.08 406.306 132.24 412.466 132.24C416.066 132.24 418.906 133.08 421.266 134.64L420.226 140.4C418.386 139.24 415.706 138.44 413.186 138.44C411.266 138.44 410.226 139.04 410.226 140.12C410.226 141.48 411.746 141.8 414.626 142.72L416.106 143.2C420.346 144.56 422.826 147.28 422.786 151.36C422.746 157.04 418.386 159.8 412.786 159.8ZM445.173 159.16H437.573V134.96H432.013V129C435.973 128.84 438.173 127.56 438.853 124.08H445.173V159.16Z" fill="#E99C35"/>
</svg>
