<svg width="366" height="455" viewBox="0 0 366 455" fill="none" xmlns="http://www.w3.org/2000/svg">
<g clip-path="url(#clip0_4866_71246)">
<path d="M297.539 408.595C308.374 435.783 334.928 455 365.972 455H914.685C949.905 455 979.355 430.262 986.613 397.2C989.319 397.65 992.064 398.107 994.852 398.571C1020.54 402.851 1049.84 407.733 1085.58 412.912C1376.04 455 1257.83 455 1257.83 455H26.7529C13.2427 455 -91.4565 450.49 227.711 418.423C247.141 416.471 270.378 412.898 297.539 408.595Z" fill="#E7FCE3"/>
<path d="M297.539 408.595C308.374 435.783 334.928 455 365.972 455H914.685C949.905 455 979.355 430.262 986.613 397.2C989.319 397.65 992.064 398.107 994.852 398.571C1020.54 402.851 1049.84 407.733 1085.58 412.912C1376.04 455 1257.83 455 1257.83 455H26.7529C13.2427 455 -91.4565 450.49 227.711 418.423C247.141 416.471 270.378 412.898 297.539 408.595Z" fill="#E7FCE3"/>
<mask id="mask0_4866_71246" style="mask-type:luminance" maskUnits="userSpaceOnUse" x="63" y="244" width="102" height="188">
<path d="M164.559 244H63.1895V431.08H164.559V244Z" fill="white"/>
</mask>
<g mask="url(#mask0_4866_71246)">
<path d="M113.623 301.67C113.473 301.67 113.323 301.67 113.183 301.64C111.923 301.47 110.863 300.62 110.433 299.42C108.073 292.82 106.353 266.21 106.173 263.2C106.053 261.33 107.473 259.72 109.353 259.6C111.223 259.49 112.833 260.9 112.953 262.78C113.453 270.71 114.383 282.08 115.423 289.75L131.213 266.94C132.283 265.4 134.393 265.02 135.933 266.08C137.473 267.15 137.863 269.26 136.793 270.8L116.433 300.21C115.793 301.13 114.743 301.67 113.643 301.67H113.623Z" fill="#E7FCE3"/>
<path d="M115.434 431.08C113.584 431.08 112.064 429.59 112.044 427.73C111.974 422.32 110.234 295.11 110.234 293.75C110.234 291.88 111.754 290.36 113.624 290.36C115.494 290.36 117.014 291.88 117.014 293.75C117.014 295.48 118.804 426.32 118.824 427.64C118.854 429.51 117.354 431.05 115.474 431.08H115.424H115.434Z" fill="#E7FCE3"/>
<path d="M112.714 322.03C111.974 322.03 111.234 321.79 110.614 321.3C106.664 318.18 102.154 311.7 97.194 302.03C93.604 295.02 91.124 288.95 91.024 288.7C90.314 286.96 91.154 284.98 92.884 284.28C94.624 283.57 96.604 284.41 97.304 286.14C99.9842 292.71 108.344 310.87 114.814 315.98C116.284 317.14 116.534 319.28 115.374 320.75C114.704 321.6 113.714 322.04 112.704 322.04L112.714 322.03Z" fill="#E7FCE3"/>
<path d="M114.143 322.57C113.153 322.57 112.183 322.14 111.503 321.32C110.323 319.87 110.543 317.73 111.993 316.55C112.203 316.38 132.783 299.6 145.833 284.2C147.043 282.77 149.183 282.59 150.613 283.8C152.043 285.01 152.223 287.15 151.013 288.58C137.543 304.48 117.143 321.12 116.273 321.82C115.643 322.33 114.883 322.58 114.133 322.58L114.143 322.57Z" fill="#E7FCE3"/>
<path d="M113.624 347.14C112.244 347.14 110.944 346.29 110.434 344.92C107.314 336.42 84.1638 312.74 75.5038 304.33C74.1638 303.02 74.1238 300.88 75.4338 299.53C76.7438 298.19 78.8838 298.15 80.2338 299.46C83.5338 302.66 112.584 331.1 116.804 342.58C117.454 344.34 116.544 346.29 114.784 346.94C114.394 347.08 114.004 347.15 113.614 347.15L113.624 347.14Z" fill="#E7FCE3"/>
<path d="M114.984 372.03C114.804 372.03 114.634 372.02 114.454 371.99C112.604 371.7 111.334 369.96 111.634 368.11C114.434 350.36 144.834 306.14 146.134 304.27C147.194 302.73 149.314 302.34 150.854 303.4C152.394 304.46 152.784 306.58 151.724 308.12C151.644 308.23 143.864 319.53 135.864 332.75C122.694 354.51 119.074 364.56 118.344 369.16C118.084 370.83 116.634 372.02 114.994 372.02L114.984 372.03Z" fill="#E7FCE3"/>
<path d="M113.394 366.15C111.744 366.15 110.314 364.95 110.054 363.3C109.024 360.28 95.9638 345.42 75.7338 325.58C74.3938 324.27 74.3738 322.12 75.6838 320.78C76.9938 319.44 79.1438 319.42 80.4838 320.73C80.5738 320.82 89.2838 329.36 97.9638 338.49C116.214 357.69 116.584 360.71 116.774 362.34C116.994 364.2 115.674 365.89 113.804 366.11C113.664 366.13 113.534 366.13 113.394 366.13V366.15ZM110.034 363.16C110.034 363.16 110.034 363.21 110.034 363.23C110.034 363.21 110.034 363.18 110.034 363.16Z" fill="#E7FCE3"/>
<path d="M89.6726 276.7C89.6726 276.7 78.4626 276.8 78.2926 283.45C78.2926 283.45 77.8726 289.91 86.1726 291.64C86.1726 291.64 97.5926 293.64 99.0728 286.83C99.0728 286.83 102.953 277.6 89.6826 276.7H89.6726Z" fill="#D1F5CA"/>
<path d="M89.773 293.45C87.633 293.45 85.993 293.17 85.903 293.15C78.293 291.56 76.603 286.09 76.773 283.39C76.843 280.99 78.093 277.8 83.603 276.13C86.603 275.22 89.533 275.19 89.663 275.18H89.783C94.873 275.53 98.313 277.1 100.003 279.85C101.943 283 100.813 286.52 100.523 287.28C99.9632 289.69 98.053 292.64 92.233 293.31C91.383 293.41 90.543 293.45 89.773 293.45ZM89.633 278.23C89.243 278.23 86.813 278.33 84.433 279.06C81.413 279.99 79.863 281.48 79.813 283.5V283.56C79.783 284.08 79.763 288.76 86.473 290.16C86.523 290.16 96.423 291.82 97.573 286.52L97.603 286.38L97.653 286.25C97.653 286.25 98.723 283.57 97.393 281.43C96.263 279.61 93.573 278.51 89.633 278.23Z" fill="#D1F5CA"/>
<path d="M134.004 258.47C134.004 258.47 120.554 258.64 120.774 269.81C120.774 269.81 119.694 282.22 131.074 283.77C131.074 283.77 142.954 285.59 146.284 274.51C146.284 274.51 152.504 259.19 134.004 258.47Z" fill="#D1F5CA"/>
<path d="M133.083 285.44C132.263 285.44 131.503 285.38 130.843 285.28C120.783 283.91 118.863 274.58 119.243 269.76C119.193 266.43 120.233 263.65 122.323 261.49C126.573 257.1 133.673 256.96 133.973 256.95H134.053C140.403 257.2 144.783 259.13 147.073 262.68C150.353 267.77 148.023 274.21 147.713 275.01C145.183 283.32 137.963 285.43 133.073 285.43L133.083 285.44ZM133.993 259.99C133.503 260.01 127.743 260.26 124.513 263.61C122.973 265.21 122.253 267.22 122.303 269.78V269.94C122.263 270.38 121.513 280.93 131.293 282.26C131.743 282.33 141.943 283.72 144.833 274.07L144.883 273.93C144.903 273.88 147.103 268.28 144.523 264.31C142.803 261.65 139.263 260.2 133.993 259.98V259.99Z" fill="#D1F5CA"/>
<path d="M75.8736 294.45C75.8736 294.45 64.9536 294.68 64.7336 303.56C64.7336 303.56 64.2636 312.18 72.3236 314.41C72.3236 314.41 83.4236 316.97 84.9236 307.88C84.9236 307.88 88.7936 295.54 75.8736 294.45Z" fill="#D1F5CA"/>
<path d="M75.6628 316.26C73.6328 316.26 72.1028 315.92 71.9728 315.89L71.9128 315.87C64.6028 313.85 63.0228 306.88 63.2028 303.47C63.4028 295.34 71.5528 293.01 75.8328 292.92H75.9928C80.2928 293.28 83.3928 294.84 85.2228 297.56C88.0828 301.81 86.6528 307.33 86.4028 308.2C85.9328 310.94 84.6428 313.03 82.5728 314.42C80.3928 315.88 77.7628 316.24 75.6628 316.24V316.26ZM72.6828 312.93C73.0728 313.01 77.8328 313.96 80.8828 311.9C82.2628 310.97 83.0928 309.57 83.4128 307.62L83.4628 307.41C83.4628 307.41 84.9228 302.56 82.6828 299.25C81.4028 297.36 79.1028 296.26 75.8228 295.96C74.8628 296 66.4228 296.55 66.2428 303.58C66.2228 303.92 65.9628 311.03 72.6828 312.91V312.93Z" fill="#D1F5CA"/>
<path d="M153.454 275.86C153.454 275.86 142.534 276.09 142.314 284.97C142.314 284.97 141.844 293.59 149.904 295.82C149.904 295.82 161.004 298.38 162.504 289.29C162.504 289.29 166.374 276.95 153.454 275.86Z" fill="#D1F5CA"/>
<path d="M153.243 297.67C151.213 297.67 149.683 297.33 149.553 297.3L149.493 297.28C142.183 295.25 140.603 288.28 140.783 284.88C140.983 276.75 149.133 274.42 153.413 274.33H153.573C157.873 274.69 160.973 276.25 162.803 278.97C165.663 283.22 164.233 288.74 163.983 289.61C163.513 292.35 162.223 294.44 160.153 295.83C157.973 297.29 155.343 297.65 153.243 297.65V297.67ZM150.273 294.34C150.663 294.42 155.423 295.37 158.473 293.31C159.853 292.38 160.683 290.98 161.003 289.03L161.053 288.82C161.053 288.82 162.513 283.97 160.273 280.66C158.993 278.77 156.693 277.67 153.413 277.37C152.453 277.41 144.013 277.96 143.833 284.99C143.813 285.33 143.553 292.44 150.273 294.32V294.34Z" fill="#D1F5CA"/>
<path d="M77.4929 318.9C77.4929 318.9 66.2829 319 66.1129 325.65C66.1129 325.65 65.6929 332.11 73.9929 333.84C73.9929 333.84 85.4129 335.84 86.8929 329.03C86.8929 329.03 90.7729 319.8 77.5029 318.9H77.4929Z" fill="#D1F5CA"/>
<path d="M77.5933 335.64C75.4533 335.64 73.8133 335.36 73.7233 335.34C66.1133 333.75 64.4233 328.28 64.5933 325.58C64.6633 323.18 65.9133 319.99 71.4233 318.32C74.4233 317.41 77.3533 317.38 77.4833 317.37H77.6033C82.6933 317.72 86.1333 319.29 87.8233 322.04C89.7633 325.19 88.6333 328.71 88.3433 329.47C87.7833 331.88 85.8733 334.83 80.0533 335.5C79.2033 335.6 78.3633 335.64 77.5933 335.64ZM77.4533 320.42C77.0633 320.42 74.6333 320.52 72.2533 321.25C69.2333 322.18 67.6833 323.67 67.6333 325.69V325.75C67.6033 326.27 67.5833 330.95 74.2933 332.35C74.3433 332.35 84.2433 334.01 85.3933 328.71L85.4233 328.57L85.4733 328.44C85.4733 328.44 86.5433 325.76 85.2133 323.62C84.0833 321.8 81.3933 320.7 77.4533 320.42Z" fill="#D1F5CA"/>
<path d="M107.713 245.52C107.713 245.52 94.2626 245.69 94.4826 256.86C94.4826 256.86 93.4026 269.27 104.783 270.82C104.783 270.82 116.663 272.64 119.993 261.56C119.993 261.56 126.213 246.24 107.713 245.52Z" fill="#D1F5CA"/>
<path d="M106.793 272.49C105.973 272.49 105.213 272.43 104.553 272.33C94.4924 270.96 92.5724 261.63 92.9524 256.81C92.9024 253.48 93.9424 250.7 96.0324 248.54C100.293 244.14 107.393 244 107.693 244H107.773C114.123 244.25 118.503 246.18 120.793 249.73C124.073 254.82 121.743 261.26 121.433 262.06C118.903 270.37 111.683 272.48 106.793 272.48V272.49ZM107.703 247.05C107.213 247.07 101.453 247.32 98.2224 250.67C96.6824 252.27 95.9624 254.28 96.0124 256.84V257C95.9724 257.44 95.2224 267.99 105.003 269.32C105.453 269.39 115.653 270.78 118.543 261.13L118.593 260.99C118.613 260.94 120.813 255.34 118.233 251.37C116.513 248.71 112.973 247.26 107.703 247.04V247.05Z" fill="#D1F5CA"/>
<path d="M151.034 298.77C151.034 298.77 140.114 299 139.894 307.88C139.894 307.88 139.424 316.5 147.484 318.73C147.484 318.73 158.584 321.29 160.084 312.2C160.084 312.2 163.954 299.86 151.034 298.77Z" fill="#D1F5CA"/>
<path d="M150.833 320.59C148.803 320.59 147.273 320.25 147.143 320.22L147.083 320.2C139.773 318.17 138.193 311.2 138.373 307.8C138.573 299.67 146.723 297.34 151.003 297.25H151.163C155.463 297.61 158.563 299.17 160.393 301.89C163.253 306.14 161.823 311.66 161.573 312.53C161.103 315.27 159.813 317.36 157.743 318.75C155.563 320.21 152.933 320.57 150.833 320.57V320.59ZM147.853 317.25C148.243 317.33 153.003 318.28 156.053 316.22C157.433 315.29 158.263 313.89 158.583 311.94L158.633 311.73C158.633 311.73 160.093 306.88 157.853 303.57C156.573 301.68 154.273 300.58 150.993 300.28C150.033 300.32 141.593 300.87 141.413 307.9C141.393 308.24 141.133 315.35 147.853 317.23V317.25Z" fill="#D1F5CA"/>
</g>
<path fill-rule="evenodd" clip-rule="evenodd" d="M56.3323 405.326C54.1132 401.876 46.2343 390.737 39.4444 394.931C39.4444 394.931 35.007 397.103 35.7198 402.788C23.4709 408.134 25.2896 420.536 26.0466 422.787C26.6243 424.455 25.3398 427.607 25.3398 427.607C27.544 426.748 30.4464 428.676 30.4464 428.676C42.23 436.556 51.2717 427.757 52.3905 426.587C55.0273 428.207 57.5438 428.596 59.5778 426.895C65.7947 421.694 61.7004 413.991 57.3898 407.037L57.8626 407.647C57.8626 407.647 69.4136 404.416 68.6014 401.071C67.8486 397.971 57.7982 404.373 56.3323 405.326Z" fill="#E7FCE3"/>
<mask id="mask1_4866_71246" style="mask-type:luminance" maskUnits="userSpaceOnUse" x="22" y="391" width="51" height="44">
<path d="M72.3398 391H22.3398V435H72.3398V391Z" fill="white"/>
<path fill-rule="evenodd" clip-rule="evenodd" d="M56.3323 405.326C54.1132 401.876 46.2343 390.737 39.4444 394.931C39.4444 394.931 35.007 397.103 35.7198 402.788C23.4709 408.134 25.2896 420.536 26.0466 422.787C26.6243 424.455 25.3398 427.607 25.3398 427.607C27.544 426.748 30.4464 428.676 30.4464 428.676C42.23 436.556 51.2717 427.757 52.3905 426.587C55.0273 428.207 57.5438 428.596 59.5778 426.895C65.7947 421.694 61.7004 413.991 57.3898 407.037L57.8626 407.647C57.8626 407.647 69.4136 404.416 68.6014 401.071C67.8486 397.971 57.7982 404.373 56.3323 405.326Z" fill="black"/>
</mask>
<g mask="url(#mask1_4866_71246)">
<path d="M39.4445 394.931L40.7634 397.625C40.8515 397.582 40.9374 397.535 41.0209 397.483L39.4445 394.931ZM56.3324 405.326L53.8093 406.949C54.241 407.62 54.9225 408.092 55.7029 408.259C56.4833 408.427 57.2982 408.276 57.9674 407.841L56.3324 405.326ZM35.7199 402.788L36.92 405.538C38.139 405.006 38.8621 403.735 38.6966 402.415L35.7199 402.788ZM26.0467 422.787L23.2033 423.744C23.2061 423.752 23.209 423.761 23.212 423.769L26.0467 422.787ZM25.3399 427.607L22.5618 426.475C22.1094 427.585 22.3613 428.858 23.2025 429.712C24.0437 430.566 25.3126 430.837 26.4296 430.402L25.3399 427.607ZM30.4465 428.676L32.1142 426.183L32.107 426.178L30.4465 428.676ZM52.3906 426.587L53.9608 424.031C52.7567 423.291 51.1997 423.492 50.2228 424.514L52.3906 426.587ZM57.3899 407.037L59.7612 405.199C58.7836 403.937 56.9894 403.662 55.6786 404.573C54.3677 405.483 53.9992 407.26 54.84 408.617L57.3899 407.037ZM57.8627 407.647L55.4914 409.484C56.2388 410.449 57.4957 410.864 58.6707 410.536L57.8627 407.647ZM41.0209 397.483C41.8841 396.95 42.746 396.872 43.7889 397.179C44.9369 397.516 46.2485 398.321 47.6341 399.526C50.4009 401.932 52.7407 405.287 53.8093 406.949L58.8555 403.703C57.705 401.914 54.9958 397.976 51.5709 394.998C49.8607 393.511 47.7908 392.102 45.4824 391.423C43.0691 390.713 40.3998 390.815 37.868 392.378L41.0209 397.483ZM38.6966 402.415C38.4556 400.493 39.0656 399.329 39.6417 398.621C39.9526 398.239 40.279 397.964 40.5189 397.791C40.6369 397.706 40.7276 397.65 40.7753 397.621C40.7989 397.608 40.8112 397.601 40.8101 397.602C40.8095 397.602 40.8055 397.604 40.7978 397.608C40.794 397.61 40.7892 397.612 40.7835 397.615C40.7806 397.617 40.7775 397.618 40.7742 397.62C40.7725 397.621 40.7707 397.622 40.7689 397.622C40.768 397.623 40.7666 397.624 40.7662 397.624C40.7648 397.625 40.7634 397.625 39.4445 394.931C38.1256 392.236 38.1241 392.237 38.1226 392.238C38.1221 392.238 38.1206 392.239 38.1196 392.239C38.1175 392.24 38.1154 392.241 38.1132 392.242C38.1087 392.244 38.104 392.247 38.099 392.249C38.089 392.254 38.0779 392.26 38.0657 392.266C38.0413 392.279 38.0124 392.294 37.9795 392.311C37.9138 392.346 37.8314 392.392 37.7351 392.449C37.5429 392.562 37.2925 392.72 37.0056 392.927C36.4358 393.339 35.6974 393.962 34.988 394.834C33.5237 396.633 32.2714 399.398 32.7433 403.161L38.6966 402.415ZM28.8902 421.831C28.6767 421.196 28.0841 418.11 28.9216 414.655C29.7149 411.383 31.7741 407.784 36.92 405.538L34.5199 400.039C27.4168 403.139 24.2609 408.414 23.0905 413.242C21.9644 417.887 22.6597 422.128 23.2033 423.744L28.8902 421.831ZM25.3399 427.607C28.1181 428.739 28.1183 428.738 28.1185 428.738C28.1186 428.738 28.1188 428.737 28.1189 428.737C28.1192 428.736 28.1195 428.735 28.1199 428.735C28.1205 428.733 28.1213 428.731 28.1221 428.729C28.1237 428.725 28.1257 428.72 28.128 428.715C28.1325 428.703 28.1382 428.689 28.145 428.672C28.1586 428.637 28.1766 428.591 28.1983 428.534C28.2416 428.42 28.2998 428.262 28.3663 428.07C28.4981 427.69 28.669 427.156 28.8205 426.549C28.9697 425.952 29.1158 425.223 29.1718 424.465C29.225 423.745 29.2163 422.772 28.8815 421.805L23.212 423.769C23.166 423.636 23.2133 423.682 23.1882 424.023C23.1658 424.325 23.0991 424.696 22.9994 425.095C22.902 425.485 22.7879 425.843 22.6969 426.106C22.652 426.236 22.6144 426.337 22.5897 426.402C22.5774 426.435 22.5684 426.458 22.5635 426.47C22.561 426.476 22.5596 426.48 22.5593 426.481C22.5591 426.481 22.5592 426.481 22.5596 426.48C22.5598 426.479 22.5601 426.479 22.5605 426.478C22.5607 426.477 22.5609 426.477 22.5611 426.476C22.561 426.476 22.5612 426.476 22.5611 426.476C22.5613 426.475 22.5618 426.475 25.3399 427.607ZM30.4465 428.676C32.107 426.178 32.1063 426.177 32.1056 426.177C32.1054 426.177 32.1047 426.176 32.1042 426.176C32.1032 426.175 32.1021 426.175 32.101 426.174C32.0988 426.172 32.0965 426.171 32.0939 426.169C32.0888 426.166 32.0829 426.162 32.0763 426.158C32.0631 426.149 32.047 426.139 32.028 426.126C31.99 426.102 31.9405 426.071 31.8804 426.034C31.7605 425.961 31.5967 425.865 31.3965 425.756C31.001 425.54 30.438 425.259 29.7717 425.01C28.5801 424.564 26.4135 423.968 24.2503 424.812L26.4296 430.402C26.4178 430.407 26.5067 430.37 26.7601 430.396C27.0135 430.422 27.3253 430.501 27.668 430.629C28.0028 430.754 28.3031 430.903 28.5207 431.021C28.627 431.079 28.7072 431.127 28.7547 431.156C28.7782 431.17 28.7933 431.18 28.7989 431.183C28.8017 431.185 28.8021 431.186 28.8 431.184C28.7989 431.183 28.7973 431.182 28.795 431.181C28.7938 431.18 28.7925 431.179 28.791 431.178C28.7903 431.178 28.7895 431.177 28.7887 431.177C28.7882 431.176 28.7876 431.176 28.7874 431.176C28.7867 431.175 28.7861 431.175 30.4465 428.676ZM50.2228 424.514C49.8087 424.946 47.6571 427.059 44.4233 428.195C41.35 429.275 37.1443 429.546 32.1142 426.183L28.7789 431.17C35.5325 435.686 41.7393 435.498 46.4124 433.856C50.9251 432.27 53.8536 429.398 54.5584 428.661L50.2228 424.514ZM57.653 424.594C57.2562 424.926 56.8934 425.028 56.4251 424.994C55.8604 424.954 55.0417 424.695 53.9608 424.031L50.8204 429.144C52.3763 430.099 54.1342 430.845 55.9954 430.979C57.9531 431.119 59.8655 430.565 61.5027 429.196L57.653 424.594ZM54.84 408.617C57.0171 412.13 58.8475 415.398 59.5067 418.29C59.8244 419.684 59.8291 420.832 59.5692 421.792C59.32 422.712 58.7761 423.654 57.653 424.594L61.5027 429.196C63.4881 427.535 64.7638 425.564 65.3606 423.36C65.9469 421.195 65.8243 419.008 65.3567 416.957C64.4453 412.958 62.0733 408.898 59.9399 405.456L54.84 408.617ZM60.234 405.809L59.7612 405.199L55.0187 408.874L55.4914 409.484L60.234 405.809ZM65.6862 401.779C65.4278 400.715 66.2961 400.446 65.3947 401.165C64.7325 401.694 63.6477 402.287 62.3287 402.867C61.0519 403.429 59.7291 403.904 58.7101 404.242C58.2046 404.41 57.7828 404.541 57.4905 404.629C57.3445 404.673 57.2313 404.707 57.1567 404.728C57.1194 404.739 57.0917 404.747 57.0745 404.752C57.0658 404.754 57.0598 404.756 57.0565 404.757C57.0548 404.757 57.0539 404.758 57.0536 404.758C57.0534 404.758 57.0534 404.758 57.0536 404.758C57.054 404.757 57.0547 404.757 57.8627 407.647C58.6707 410.536 58.6711 410.536 58.6716 410.535C58.6719 410.535 58.6724 410.535 58.6728 410.535C58.6737 410.535 58.6748 410.535 58.676 410.534C58.6785 410.533 58.6817 410.533 58.6856 410.531C58.6934 410.529 58.7039 410.526 58.7171 410.523C58.7436 410.515 58.7807 410.504 58.8278 410.491C58.9219 410.463 59.0561 410.424 59.2244 410.373C59.5606 410.272 60.0349 410.124 60.5996 409.937C61.721 409.565 63.2352 409.023 64.7447 408.359C66.2118 407.714 67.8625 406.872 69.1377 405.855C70.1737 405.028 72.1813 403.1 71.5168 400.364L65.6862 401.779ZM57.9674 407.841C58.681 407.377 61.4236 405.629 64.0269 404.386C65.3742 403.743 66.432 403.36 67.0678 403.253C67.4094 403.196 67.2883 403.28 66.9462 403.163C66.3837 402.97 65.8476 402.444 65.6862 401.779L71.5168 400.364C71.1673 398.924 70.1524 397.919 68.8904 397.487C67.8489 397.13 66.8077 397.213 66.0782 397.335C64.5721 397.587 62.8845 398.283 61.4418 398.972C58.4652 400.393 55.4497 402.322 54.6974 402.811L57.9674 407.841Z" fill="white"/>
</g>
<path d="M56.1543 405.442C56.1543 405.442 67.7891 397.727 68.6013 401.071C69.4134 404.416 57.8625 407.647 57.8625 407.647L56.1543 405.442Z" fill="#D1F5CA"/>
<path d="M56.9415 406.308C56.9415 406.308 47.4384 389.994 39.4446 394.931C39.4446 394.931 32.6312 398.266 37.2462 407.488C41.8611 416.71 53.1381 432.282 59.578 426.895C66.018 421.508 61.3935 413.435 56.9258 406.291L56.9415 406.308Z" fill="#D1F5CA"/>
<path d="M35.8015 402.753C35.8015 402.753 46.6149 409.166 52.5072 426.462C52.5072 426.462 43.0437 437.1 30.4464 428.676C30.4464 428.676 27.544 426.748 25.3398 427.607C25.3398 427.607 26.6243 424.455 26.0466 422.787C25.2879 420.531 23.4627 408.079 35.8015 402.753Z" fill="#E7FCE3"/>
<mask id="mask2_4866_71246" style="mask-type:luminance" maskUnits="userSpaceOnUse" x="102" y="0" width="141" height="62">
<path d="M242.176 0H102.016V61.86H242.176V0Z" fill="white"/>
</mask>
<g mask="url(#mask2_4866_71246)">
<path d="M142.276 15.2202C142.276 15.2202 150.026 -1.47985 175.506 0.110154C200.976 1.69015 204.516 13.8502 204.516 13.8502C204.516 13.8502 221.876 9.65015 236.096 21.9802C236.096 21.9802 249.896 35.4701 235.936 48.8102C223.466 60.7301 201.336 57.5402 198.226 51.7202C198.226 51.7202 190.336 62.2201 172.346 61.8102C154.346 61.4002 148.126 49.2502 148.126 49.2502C148.126 49.2502 132.016 64.6402 111.566 51.1602C88.7156 36.1102 110.026 3.73015 142.276 15.2202Z" fill="#F3FFF0"/>
<path d="M197.816 39.52C168.246 60.27 148.776 37.5 148.776 37.5C130.346 46.22 113.896 43.82 102.656 39.76C103.826 43.97 106.686 47.99 111.576 51.21C132.026 64.68 148.136 49.3 148.136 49.3C148.136 49.3 154.356 61.45 172.356 61.86C190.356 62.27 198.236 51.77 198.236 51.77C201.356 57.59 223.476 60.78 235.946 48.86C238.416 46.5 240.016 44.13 240.976 41.83C216.396 52.75 197.806 39.52 197.806 39.52H197.816Z" fill="#ECFFE7"/>
</g>
<path d="M219.388 220.09C218.872 218.551 210.366 237.103 185.093 251.215C185.093 251.215 168.489 261.717 171.017 276.55C171.017 276.55 172.104 291.383 189.795 297.908C189.795 297.908 167.416 306.231 166.696 323.243C166.696 323.243 165.609 342.79 182.213 347.489C182.213 347.489 158.38 361.601 163.802 388.026C163.802 388.026 167.049 425.661 224.09 427.473C224.09 427.473 279.323 432.172 286.905 393.815C286.905 393.815 293.046 367.757 271.741 358.345C271.741 358.345 287.992 346.045 285.098 327.943C285.098 327.943 282.57 304.419 263.439 300.074C263.439 300.074 278.603 285.962 274.988 271.115C274.988 271.115 276.429 253.026 242.134 240.359C242.134 240.359 222.636 229.857 219.388 220.09Z" fill="#E7FCE3"/>
<path d="M234.185 295.007C233.492 295.007 232.813 294.68 232.392 294.053C231.712 293.059 231.971 291.71 232.962 291.029C240.001 286.221 241.767 274.18 241.781 274.071C243.33 263.855 237.677 261.172 237.623 261.158C236.536 260.668 236.047 259.387 236.536 258.284C237.025 257.194 238.302 256.704 239.403 257.194C239.756 257.358 248.099 261.28 246.074 274.697C245.993 275.242 244.036 288.727 235.408 294.625C235.041 294.884 234.606 295.007 234.185 295.007Z" fill="#D1F5CA"/>
<path d="M219.021 289.939C218.491 289.939 217.975 289.749 217.554 289.367C216.671 288.55 216.616 287.188 217.431 286.302C221.141 282.271 221.073 275.16 220.366 269.916C219.565 263.923 217.73 258.897 217.717 258.856C217.309 257.725 217.88 256.486 219.008 256.063C220.122 255.655 221.372 256.227 221.793 257.344C222.119 258.243 229.728 279.328 220.638 289.245C220.217 289.708 219.633 289.939 219.048 289.939H219.021Z" fill="#D1F5CA"/>
<path d="M202.771 289.94C202.037 289.94 201.33 289.572 200.923 288.904C191.248 273.008 202.703 257.113 203.192 256.445C203.898 255.478 205.257 255.274 206.222 255.982C207.187 256.69 207.39 258.052 206.684 259.019C206.263 259.592 196.48 273.254 204.619 286.643C205.244 287.665 204.917 289 203.898 289.626C203.545 289.844 203.151 289.94 202.771 289.94Z" fill="#D1F5CA"/>
<path d="M196.996 340.243C196.235 340.243 195.515 339.848 195.107 339.139C186.968 324.769 196.208 310.017 196.615 309.391C197.267 308.383 198.599 308.083 199.604 308.737C200.61 309.377 200.909 310.726 200.257 311.734C200.175 311.87 192.05 324.946 198.871 337.001C199.455 338.05 199.102 339.371 198.056 339.957C197.716 340.147 197.349 340.243 196.982 340.243H196.996Z" fill="#D1F5CA"/>
<path d="M212.879 343.866C212.525 343.866 212.158 343.771 211.819 343.594C210.773 343.008 210.406 341.687 210.99 340.638C220.311 323.952 212.294 312.701 212.213 312.592C211.506 311.625 211.71 310.263 212.675 309.554C213.64 308.846 214.998 309.05 215.705 310.017C216.112 310.562 225.434 323.666 214.767 342.763C214.373 343.471 213.64 343.88 212.879 343.88V343.866Z" fill="#D1F5CA"/>
<path d="M230.571 343.866C230.177 343.866 229.783 343.757 229.416 343.539C228.411 342.899 228.098 341.564 228.737 340.542C239.879 322.794 230.843 312.85 230.449 312.442C229.634 311.57 229.661 310.194 230.517 309.377C231.373 308.546 232.732 308.573 233.56 309.431C234.05 309.935 245.422 322.113 232.392 342.858C231.984 343.512 231.278 343.866 230.558 343.866H230.571Z" fill="#D1F5CA"/>
<path d="M250.069 346.767C249.431 346.767 248.806 346.481 248.371 345.95C247.623 345.01 247.787 343.648 248.724 342.899C262.991 331.512 255.029 316.964 254.689 316.351C254.105 315.302 254.472 313.981 255.504 313.395C256.55 312.81 257.868 313.177 258.453 314.213C258.561 314.39 268.548 332.628 251.414 346.29C251.02 346.604 250.545 346.767 250.069 346.767Z" fill="#D1F5CA"/>
<path d="M199.522 406.836C199.06 406.836 198.598 406.687 198.204 406.387C190.514 400.448 186.859 391.499 187.62 380.493C188.177 372.375 190.935 366.055 191.044 365.782C191.533 364.679 192.81 364.189 193.897 364.665C194.998 365.156 195.487 366.436 195.011 367.526C194.97 367.621 192.416 373.546 191.927 380.902C191.302 390.464 194.291 397.874 200.84 402.927C201.791 403.663 201.968 405.025 201.234 405.978C200.813 406.537 200.161 406.823 199.522 406.823V406.836Z" fill="#D1F5CA"/>
<path d="M220.829 405.025C220.57 405.025 220.312 404.984 220.054 404.888C218.94 404.466 218.369 403.213 218.791 402.082C226.155 382.631 214.972 369.364 214.483 368.806C213.695 367.907 213.79 366.531 214.701 365.741C215.611 364.951 216.97 365.047 217.758 365.945C218.315 366.572 231.155 381.651 222.84 403.608C222.513 404.48 221.685 405.011 220.815 405.011L220.829 405.025Z" fill="#D1F5CA"/>
<path d="M234.905 405.025C234.565 405.025 234.226 404.943 233.899 404.78C232.84 404.221 232.432 402.914 232.989 401.851C243.384 382.019 233.709 369.991 233.601 369.869C232.84 368.942 232.962 367.58 233.872 366.804C234.796 366.041 236.155 366.164 236.929 367.076C237.405 367.648 248.547 381.474 236.821 403.854C236.427 404.589 235.679 405.011 234.905 405.011V405.025Z" fill="#D1F5CA"/>
<path d="M256.93 402.491C256.428 402.491 255.925 402.314 255.517 401.96C254.621 401.17 254.512 399.808 255.3 398.895C265.857 386.704 257.392 375.344 257.026 374.867C256.305 373.914 256.468 372.552 257.42 371.83C258.357 371.094 259.716 371.271 260.45 372.211C260.558 372.361 271.496 386.827 258.575 401.742C258.14 402.232 257.542 402.491 256.944 402.491H256.93Z" fill="#D1F5CA"/>
<path d="M164.484 364.163H164.486L164.528 364.165H164.572H164.589H164.612L164.635 364.164C174.812 363.932 181.746 365.842 186.466 368.661C191.162 371.466 193.819 375.261 195.301 379.105C196.795 382.982 197.099 386.93 197.014 389.949C196.971 391.451 196.833 392.701 196.708 393.569C196.645 394.002 196.585 394.338 196.543 394.56C196.522 394.672 196.505 394.754 196.494 394.806C196.488 394.832 196.484 394.85 196.482 394.86L196.48 394.867V394.869L196.449 395.003L196.436 395.142C195.051 410.708 187.788 419.129 180.983 423.711C177.548 426.024 174.193 427.381 171.7 428.158C170.455 428.545 169.431 428.786 168.729 428.929C168.378 429.001 168.108 429.048 167.931 429.076C167.843 429.09 167.778 429.099 167.738 429.105L167.698 429.11L167.696 429.111H167.694H167.692L167.657 429.115L167.619 429.122C155.423 431.079 147.739 428.691 143.169 425.999C140.866 424.642 139.308 423.181 138.337 422.085C137.852 421.536 137.514 421.078 137.304 420.771C137.2 420.618 137.127 420.502 137.085 420.432C137.063 420.396 137.05 420.373 137.043 420.361C137.042 420.359 137.041 420.357 137.04 420.356C137.039 420.354 137.039 420.353 137.039 420.353L136.95 420.188L136.822 420.034C131.127 413.178 130.69 403.878 131.863 395.933C132.444 392.003 133.403 388.515 134.219 386.008C134.627 384.756 134.997 383.755 135.262 383.071C135.395 382.73 135.502 382.468 135.574 382.294C135.61 382.208 135.638 382.143 135.656 382.102L135.675 382.057C139.953 372.673 147.122 368.217 153.285 366.083C156.378 365.011 159.207 364.53 161.259 364.318C162.283 364.213 163.108 364.174 163.669 364.162C163.949 364.156 164.162 364.157 164.301 364.159C164.37 364.159 164.421 364.161 164.452 364.162L164.483 364.163H164.484Z" fill="#E7FCE3" stroke="white" stroke-width="4"/>
<path d="M150.899 410.119C150.173 410.119 149.482 409.767 149.075 409.116C139.141 393.436 148.845 375.715 149.252 374.958C149.837 373.92 151.147 373.551 152.192 374.131C153.236 374.712 153.608 376.014 153.024 377.053C152.935 377.229 144.17 393.331 152.723 406.829C153.36 407.832 153.059 409.151 152.05 409.785C151.696 410.014 151.289 410.119 150.899 410.119Z" fill="#D1F5CA"/>
<path d="M160.249 410.823C159.912 410.823 159.576 410.753 159.239 410.577C158.177 410.031 157.77 408.729 158.336 407.673C165.632 393.823 158.177 379.78 158.106 379.639C157.539 378.601 157.929 377.299 158.974 376.736C160.018 376.173 161.329 376.56 161.895 377.598C162.25 378.249 170.501 393.806 162.143 409.679C161.754 410.418 161.01 410.823 160.231 410.823H160.249Z" fill="#D1F5CA"/>
<path d="M170.573 414.642C170.236 414.642 169.882 414.554 169.563 414.396C168.519 413.833 168.111 412.53 168.678 411.492C179.108 392.064 169.333 381.153 169.227 381.03C168.413 380.15 168.483 378.795 169.351 378.003C170.236 377.193 171.6 377.264 172.397 378.126C172.893 378.654 184.332 391.43 172.468 413.516C172.078 414.237 171.334 414.66 170.555 414.66L170.573 414.642Z" fill="#D1F5CA"/>
<path d="M181.852 413.692C181.391 413.692 180.931 413.551 180.541 413.252C179.603 412.53 179.408 411.175 180.134 410.243C192.476 394.264 182.1 379.059 181.993 378.9C181.321 377.932 181.551 376.595 182.525 375.909C183.499 375.24 184.844 375.469 185.535 376.437C185.659 376.613 197.789 394.404 183.552 412.847C183.127 413.393 182.489 413.692 181.834 413.692H181.852Z" fill="#D1F5CA"/>
<mask id="mask3_4866_71246" style="mask-type:luminance" maskUnits="userSpaceOnUse" x="240" y="353" width="49" height="69">
<path d="M288.016 353H240.016V422H288.016V353Z" fill="white"/>
</mask>
<g mask="url(#mask3_4866_71246)">
<path d="M259.406 382.25C259.406 382.25 258.056 404.51 256.256 410.59C256.256 410.59 252.886 420.94 265.026 420.71C265.026 420.71 273.796 420.93 274.026 416.21C274.026 416.21 272.456 392.37 269.976 383.15L259.406 382.25Z" fill="#E7FCE3"/>
<path d="M283.995 376.9C282.945 385.34 273.465 390.41 262.685 389.78C249.285 389 244.115 380.52 245.155 372.08C246.205 363.64 255.755 357.87 266.475 359.2C277.195 360.53 285.045 368.46 283.995 376.9Z" fill="#D1F5CA"/>
<path d="M276.021 416.079L276.029 416.193L276.023 416.307C275.931 418.204 274.946 419.583 273.725 420.502C272.56 421.379 271.143 421.877 269.908 422.174C268.648 422.478 267.422 422.609 266.528 422.666C266.076 422.695 265.699 422.706 265.43 422.71C265.295 422.712 265.187 422.712 265.11 422.711C265.075 422.711 265.047 422.711 265.025 422.71C261.742 422.767 259.243 422.116 257.416 420.884C255.551 419.627 254.592 417.904 254.154 416.246C253.727 414.627 253.79 413.057 253.936 411.945C254.01 411.378 254.109 410.903 254.191 410.563C254.232 410.393 254.27 410.255 254.298 410.155C254.313 410.105 254.325 410.064 254.334 410.033L254.342 410.007C255.171 407.193 255.945 400.352 256.514 393.963C256.607 392.91 256.694 391.879 256.775 390.89C252.559 389.786 249.297 387.769 246.994 385.113C243.734 381.353 242.591 376.534 243.17 371.835V371.833C244.408 361.882 255.373 355.807 266.721 357.215C278.069 358.623 287.218 367.194 285.98 377.147C285.361 382.117 282.258 385.984 277.996 388.469C276.595 389.286 275.06 389.96 273.426 390.485C274.022 394.463 274.524 398.919 274.921 402.941C275.274 406.514 275.549 409.797 275.736 412.185C275.829 413.38 275.9 414.351 275.948 415.025C275.972 415.362 275.991 415.625 276.003 415.803L276.017 416.007L276.02 416.06L276.021 416.074V416.077V416.079ZM276.021 416.079L274.026 416.21C276.021 416.079 276.021 416.079 276.021 416.079Z" stroke="white" stroke-width="4"/>
<path d="M259.406 382.25C259.406 382.25 258.056 404.51 256.256 410.59C256.256 410.59 252.886 420.94 265.026 420.71C265.026 420.71 273.796 420.93 274.026 416.21C274.026 416.21 272.456 392.37 269.976 383.15L259.406 382.25Z" fill="#E7FCE3"/>
<path d="M283.995 376.9C282.945 385.34 273.465 390.41 262.685 389.78C249.285 389 244.115 380.52 245.155 372.08C246.205 363.64 255.755 357.87 266.475 359.2C277.195 360.53 285.045 368.46 283.995 376.9Z" fill="#D1F5CA"/>
</g>
</g>
<defs>
<clipPath id="clip0_4866_71246">
<rect width="366" height="455" fill="white"/>
</clipPath>
</defs>
</svg>
