<svg width="848" height="586" viewBox="0 0 848 586" fill="none" xmlns="http://www.w3.org/2000/svg">
<path d="M836.75 309.149C833.07 305.043 829.98 300.428 827.6 295.442L804.2 246.751C800.54 240.416 791.42 240.416 787.76 246.751L764.36 295.442C761.975 300.409 758.886 305.023 755.211 309.149L745.476 320.022C741.82 326.357 746.395 334.257 753.706 334.257H763.422V432.499H87.2369V334.257H94.4889C101.8 334.257 106.375 326.338 102.719 320.022L92.9839 309.149C89.3089 305.043 86.2199 300.428 83.8349 295.442L60.4359 246.751C56.7799 240.416 47.6509 240.416 43.9949 246.751L20.5959 295.442C18.2109 300.409 15.1219 305.023 11.4469 309.149L1.71193 320.022C-1.94407 326.357 2.62993 334.257 9.94193 334.257H19.6569V574.992C19.6569 580.525 24.1529 585.023 29.6859 585.023H821.01C826.54 585.023 831.04 580.525 831.04 574.992V334.257H838.29C845.6 334.257 850.18 326.338 846.52 320.022L836.79 309.149H836.75ZM69.3499 385.959C69.3499 385.959 69.3499 386.037 69.3499 386.057V399.452C69.3499 401.153 67.9809 402.522 66.2809 402.522H40.5739C38.8729 402.522 37.5049 401.153 37.5049 399.452V377.668C37.5049 368.869 44.6399 361.751 53.4179 361.751C62.1949 361.751 69.3299 368.888 69.3299 377.668V385.959H69.3499ZM813.13 385.959C813.13 385.959 813.13 386.037 813.13 386.057V399.452C813.13 401.153 811.77 402.522 810.06 402.522H784.36C782.66 402.522 781.29 401.153 781.29 399.452V377.668C781.29 368.869 788.42 361.751 797.2 361.751C805.98 361.751 813.11 368.888 813.11 377.668V385.959H813.13Z" fill="#362974"/>
<path d="M394.099 5.73121L120.143 120.704C92.7834 132.181 74.9844 158.965 74.9844 188.65V511.319C74.9844 552.008 107.952 585 148.628 585H697.341C738.009 585 770.984 552.016 770.984 511.319V188.693C770.984 158.987 753.156 132.188 725.768 120.726L451.005 5.7094C432.799 -1.91523 412.298 -1.9007 394.092 5.73848L394.099 5.73121Z" fill="#362974"/>
<mask id="mask0_4915_47425" style="mask-type:alpha" maskUnits="userSpaceOnUse" x="0" y="0" width="848" height="585">
<path d="M836.75 309.126C833.07 305.02 829.98 300.405 827.6 295.419L804.2 246.728C800.54 240.393 791.42 240.393 787.76 246.728L764.36 295.419C761.975 300.386 758.886 305 755.211 309.126L745.476 319.999C741.82 326.334 746.395 334.234 753.706 334.234H763.422V432.476H87.2369V334.234H94.4889C101.8 334.234 106.375 326.315 102.719 319.999L92.9839 309.126C89.3089 305.02 86.2199 300.405 83.8349 295.419L60.4359 246.728C56.7799 240.393 47.6509 240.393 43.9949 246.728L20.5959 295.419C18.2109 300.386 15.1219 305 11.4469 309.126L1.71193 319.999C-1.94407 326.334 2.62993 334.234 9.94193 334.234H19.6569V574.969C19.6569 580.502 24.1529 585 29.6859 585H821.01C826.54 585 831.04 580.502 831.04 574.969V334.234H838.29C845.6 334.234 850.18 326.315 846.52 319.999L836.79 309.126H836.75ZM69.3499 385.936C69.3499 385.936 69.3499 386.014 69.3499 386.034V399.429C69.3499 401.13 67.9809 402.499 66.2809 402.499H40.5739C38.8729 402.499 37.5049 401.13 37.5049 399.429V377.645C37.5049 368.846 44.6399 361.728 53.4179 361.728C62.1949 361.728 69.3299 368.865 69.3299 377.645V385.936H69.3499ZM813.13 385.936C813.13 385.936 813.13 386.014 813.13 386.034V399.429C813.13 401.13 811.77 402.499 810.06 402.499H784.36C782.66 402.499 781.29 401.13 781.29 399.429V377.645C781.29 368.846 788.42 361.728 797.2 361.728C805.98 361.728 813.11 368.865 813.11 377.645V385.936H813.13Z" fill="#F1F2FE"/>
<path d="M394.099 5.73121L120.143 120.704C92.7834 132.181 74.9844 158.965 74.9844 188.65V511.319C74.9844 552.008 107.952 585 148.628 585H697.341C738.009 585 770.984 552.016 770.984 511.319V188.693C770.984 158.987 753.156 132.188 725.768 120.726L451.005 5.7094C432.799 -1.91523 412.298 -1.9007 394.092 5.73848L394.099 5.73121Z" fill="#F1F2FE"/>
</mask>
<g mask="url(#mask0_4915_47425)">
<path opacity="0.5" d="M872.5 68.8372V65.1524H831.99V64.4523H758.813V33.6847H831.99V30H-0.5V68.1371H40.009V100.25H-0.5V138.387H40.009V170.499H-0.5V208.636H40.009V240.749H-0.5V278.886H40.009V310.998H-0.5V349.136H40.009V381.248H-0.5V419.385H40.009V451.498H-0.5V489.635H40.009V521.747H-0.5V559.884H40.009V595.037H872.5V591.352H799.32V560.584H872.5V556.9H831.99V556.2H758.813V525.432H831.99V524.787H872.5V521.102H799.32V490.335H872.5V486.65H831.99V485.95H758.813V455.182H831.99V454.538H872.5V450.853H799.32V420.085H872.5V416.4H831.99V415.7H758.813V384.933H831.99V384.288H872.5V380.603H799.32V349.836H872.5V346.151H831.99V345.451H758.813V314.683H831.99V314.038H872.5V310.354H799.32V279.586H872.5V275.901H831.99V275.201H758.813V244.434H831.99V243.789H872.5V240.104H799.32V209.336H872.5V205.652H831.99V204.952H758.813V174.184H831.99V173.539H872.5V169.854H799.32V139.087H872.5V135.402H831.99V134.702H758.813V103.934H831.99V103.29H872.5V99.605H799.32V68.8372H872.5ZM795.64 99.605H723.752V68.8372H795.64V99.605ZM755.132 134.702H683.242V103.934H755.132V134.702ZM795.64 169.854H723.752V139.087H795.64V169.854ZM755.132 204.952H683.242V174.184H755.132V204.952ZM795.64 240.104H723.752V209.336H795.64V240.104ZM755.132 275.201H683.242V244.434H755.132V275.201ZM795.64 310.354H723.752V279.586H795.64V310.354ZM755.132 345.451H683.242V314.683H755.132V345.451ZM795.64 380.603H723.752V349.836H795.64V380.603ZM755.132 415.7H683.242V384.933H755.132V415.7ZM795.64 450.853H723.752V420.085H795.64V450.853ZM755.132 485.95H683.242V455.182H755.132V485.95ZM795.64 521.102H723.752V490.335H795.64V521.102ZM755.132 556.2H683.242V525.432H755.132V556.2ZM679.561 556.2H607.672V525.432H679.561V556.2ZM603.991 556.2H532.101V525.432H603.991V556.2ZM528.42 556.2H456.531V525.432H528.42V556.2ZM452.85 556.2H380.96V525.432H452.85V556.2ZM377.279 556.2H305.39V525.432H377.279V556.2ZM301.709 556.2H229.819V525.432H301.709V556.2ZM226.138 556.2H154.248V525.432H226.138V556.2ZM720.089 99.605H648.199V68.8372H720.089V99.605ZM679.58 134.702H607.69V103.934H679.58V134.702ZM720.089 169.854H648.199V139.087H720.089V169.854ZM679.58 204.952H607.69V174.184H679.58V204.952ZM720.089 240.104H648.199V209.336H720.089V240.104ZM679.58 275.201H607.69V244.434H679.58V275.201ZM720.089 310.354H648.199V279.586H720.089V310.354ZM679.58 345.451H607.69V314.683H679.58V345.451ZM720.089 380.603H648.199V349.836H720.089V380.603ZM679.58 415.7H607.69V384.933H679.58V415.7ZM720.089 450.853H648.199V420.085H720.089V450.853ZM679.58 485.95H607.69V455.182H679.58V485.95ZM720.089 521.102H648.199V490.335H720.089V521.102ZM229.874 103.934H301.764V134.702H229.874V103.934ZM305.445 103.934H377.334V134.702H305.445V103.934ZM381.015 103.934H452.905V134.702H381.015V103.934ZM456.586 103.934H528.475V134.702H456.586V103.934ZM532.156 103.934H604.046V134.702H532.156V103.934ZM644.537 169.854H572.647V139.087H644.537V169.854ZM604.028 204.952H532.138V174.184H604.028V204.952ZM644.537 240.104H572.647V209.336H644.537V240.104ZM604.028 275.201H532.138V244.434H604.028V275.201ZM644.537 310.354H572.647V279.586H644.537V310.354ZM604.028 345.451H532.138V314.683H604.028V345.451ZM644.537 380.603H572.647V349.836H644.537V380.603ZM604.028 415.7H532.138V384.933H604.028V415.7ZM644.537 450.853H572.647V420.085H644.537V450.853ZM604.028 485.95H532.138V455.182H604.028V485.95ZM270.383 139.087H342.273V169.854H270.383V139.087ZM345.954 139.087H417.844V169.854H345.954V139.087ZM421.525 139.087H493.414V169.854H421.525V139.087ZM497.095 139.087H568.985V169.854H497.095V139.087ZM528.475 204.952H456.586V174.184H528.475V204.952ZM568.985 240.104H497.095V209.336H568.985V240.104ZM528.475 275.201H456.586V244.434H528.475V275.201ZM568.985 310.354H497.095V279.586H568.985V310.354ZM528.475 345.451H456.586V314.683H528.475V345.451ZM568.985 380.603H497.095V349.836H568.985V380.603ZM528.475 415.7H456.586V384.933H528.475V415.7ZM568.985 450.853H497.095V420.085H568.985V450.853ZM528.475 485.95H456.586V455.182H528.475V485.95ZM452.905 485.95H381.015V455.182H452.905V485.95ZM377.334 485.95H305.445V455.182H377.334V485.95ZM381.015 174.202H452.905V204.97H381.015V174.202ZM493.414 240.122H421.525V209.355H493.414V240.122ZM452.905 275.22H381.015V244.452H452.905V275.22ZM493.414 310.372H421.525V279.604H493.414V310.372ZM452.905 345.469H381.015V314.702H452.905V345.469ZM493.414 380.622H421.525V349.854H493.414V380.622ZM452.905 415.719H381.015V384.951H452.905V415.719ZM493.414 450.871H421.525V420.104H493.414V450.871ZM345.972 209.373H417.862V240.141H345.972V209.373ZM345.972 279.623H417.862V310.39H345.972V279.623ZM345.972 349.872H417.862V380.64H345.972V349.872ZM345.972 420.122H417.862V450.89H345.972V420.122ZM305.463 174.239H377.353V205.007H305.463V174.239ZM305.463 244.489H377.353V275.256H305.463V244.489ZM305.463 314.738H377.353V345.506H305.463V314.738ZM305.463 384.988H377.353V415.756H305.463V384.988ZM270.402 209.41H342.291V240.178H270.402V209.41ZM270.402 279.66H342.291V310.427H270.402V279.66ZM270.402 349.909H342.291V380.677H270.402V349.909ZM270.402 420.159H342.291V450.927H270.402V420.159ZM229.893 174.276H301.782V205.044H229.893V174.276ZM229.893 244.526H301.782V275.293H229.893V244.526ZM229.893 314.775H301.782V345.543H229.893V314.775ZM229.893 385.025H301.782V415.793H229.893V385.025ZM229.893 455.275H301.782V486.042H229.893V455.275ZM194.831 139.197H266.721V169.965H194.831V139.197ZM194.831 209.447H266.721V240.215H194.831V209.447ZM194.831 279.697H266.721V310.464H194.831V279.697ZM194.831 349.946H266.721V380.714H194.831V349.946ZM194.831 420.196H266.721V450.963H194.831V420.196ZM194.831 490.445H266.721V521.213H194.831V490.445ZM270.402 490.445H342.291V521.213H270.402V490.445ZM345.972 490.445H417.862V521.213H345.972V490.445ZM421.543 490.445H493.433V521.213H421.543V490.445ZM497.113 490.445H569.003V521.213H497.113V490.445ZM572.684 490.445H644.574V521.213H572.684V490.445ZM154.304 103.934H226.193V134.702H154.304V103.934ZM154.304 174.184H226.193V204.952H154.304V174.184ZM154.304 244.434H226.193V275.201H154.304V244.434ZM154.304 314.683H226.193V345.451H154.304V314.683ZM154.304 384.933H226.193V415.7H154.304V384.933ZM154.304 455.182H226.193V485.95H154.304V455.182ZM644.518 99.605H572.629V68.8372H644.518V99.605ZM568.948 99.605H497.058V68.8372H568.948V99.605ZM493.377 99.605H421.488V68.8372H493.377V99.605ZM417.807 99.605H345.917V68.8372H417.807V99.605ZM342.236 99.605H270.347V68.8372H342.236V99.605ZM266.666 99.605H194.776V68.8372H266.666V99.605ZM191.095 99.605H119.206V68.8372H191.095V99.605ZM119.206 139.087H191.095V169.854H119.206V139.087ZM119.206 209.336H191.095V240.104H119.206V209.336ZM119.206 279.586H191.095V310.354H119.206V279.586ZM119.206 349.836H191.095V380.603H119.206V349.836ZM119.206 420.085H191.095V450.853H119.206V420.085ZM119.206 490.335H191.095V521.102H119.206V490.335ZM78.752 103.934H150.641V134.702H78.752V103.934ZM78.752 174.184H150.641V204.952H78.752V174.184ZM78.752 244.434H150.641V275.201H78.752V244.434ZM78.752 314.683H150.641V345.451H78.752V314.683ZM78.752 384.933H150.641V415.7H78.752V384.933ZM78.752 455.182H150.641V485.95H78.752V455.182ZM78.752 525.432H150.641V556.2H78.752V525.432ZM115.561 68.8372V99.605H43.69V68.8372H115.58H115.561ZM115.561 139.087V169.854H43.69V139.087H115.58H115.561ZM115.561 209.336V240.104H43.69V209.336H115.58H115.561ZM115.561 279.586V310.354H43.69V279.586H115.58H115.561ZM115.561 349.836V380.603H43.69V349.836H115.58H115.561ZM115.561 420.085V450.853H43.69V420.085H115.58H115.561ZM115.561 490.335V521.102H43.69V490.335H115.58H115.561ZM683.261 33.6847H755.15V64.4523H683.261V33.6847ZM607.69 33.6847H679.58V64.4523H607.69V33.6847ZM532.12 33.6847H604.009V64.4523H532.12V33.6847ZM456.549 33.6847H528.439V64.4523H456.549V33.6847ZM380.979 33.6847H452.868V64.4523H380.979V33.6847ZM305.408 33.6847H377.298V64.4523H305.408V33.6847ZM229.837 33.6847H301.727V64.4523H229.837V33.6847ZM154.267 33.6847H226.156V64.4523H154.267V33.6847ZM78.696 33.6847H150.586V64.4523H78.696V33.6847ZM3.181 33.6847H75.071V64.4523H3.181V33.6847ZM3.181 103.934H75.071V134.702H3.181V103.934ZM3.181 174.184H75.071V204.952H3.181V174.184ZM3.181 244.434H75.071V275.201H3.181V244.434ZM3.181 314.683H75.071V345.451H3.181V314.683ZM3.181 384.933H75.071V415.7H3.181V384.933ZM3.181 455.182H75.071V485.95H3.181V455.182ZM3.181 525.432H75.071V556.2H3.181V525.432ZM43.69 591.352V560.584H115.58V591.352H43.69ZM119.261 591.352V560.584H191.15V591.352H119.261ZM194.831 591.352V560.584H266.721V591.352H194.831ZM270.402 591.352V560.584H342.291V591.352H270.402ZM345.972 591.352V560.584H417.862V591.352H345.972ZM421.543 591.352V560.584H493.433V591.352H421.543ZM497.113 591.352V560.584H569.003V591.352H497.113ZM572.684 591.352V560.584H644.574V591.352H572.684ZM648.255 591.352V560.584H720.144V591.352H648.255ZM723.825 591.352V560.584H795.71V591.352H723.825Z" fill="#0C0541"/>
</g>
<path d="M472.484 79H381.484C372.648 79 365.484 86.1634 365.484 95C365.484 103.837 372.648 111 381.484 111H472.484C481.321 111 488.484 103.837 488.484 95C488.484 86.1634 481.321 79 472.484 79Z" fill="#9730E8"/>
<path d="M386.496 101.001V89.3642H394.337V91.3926H388.956V94.1654H393.933V96.1938H388.956V98.9722H394.359V101.001H386.496ZM395.813 101.001V89.3642H400.404C401.286 89.3642 402.038 89.5328 402.659 89.8699C403.28 90.2033 403.754 90.6673 404.08 91.262C404.409 91.8529 404.574 92.5347 404.574 93.3074C404.574 94.0801 404.407 94.762 404.074 95.3529C403.741 95.9438 403.258 96.404 402.625 96.7336C401.996 97.0631 401.235 97.2279 400.341 97.2279H397.415V95.2563H399.943C400.417 95.2563 400.807 95.1748 401.114 95.012C401.424 94.8453 401.655 94.6161 401.807 94.3245C401.962 94.029 402.04 93.69 402.04 93.3074C402.04 92.9211 401.962 92.5839 401.807 92.2961C401.655 92.0044 401.424 91.779 401.114 91.6199C400.803 91.457 400.409 91.3756 399.932 91.3756H398.273V101.001H395.813ZM408.152 89.3642V101.001H405.692V89.3642H408.152ZM416.009 92.7108C415.963 92.2525 415.768 91.8964 415.424 91.6426C415.079 91.3889 414.611 91.262 414.02 91.262C413.619 91.262 413.28 91.3188 413.003 91.4324C412.727 91.5423 412.515 91.6957 412.367 91.8926C412.223 92.0896 412.151 92.3131 412.151 92.5631C412.143 92.7714 412.187 92.9533 412.282 93.1086C412.38 93.2639 412.515 93.3983 412.685 93.512C412.855 93.6218 413.052 93.7184 413.276 93.8017C413.499 93.8813 413.738 93.9495 413.992 94.0063L415.037 94.2563C415.545 94.3699 416.011 94.5214 416.435 94.7108C416.859 94.9002 417.227 95.1332 417.537 95.4097C417.848 95.6862 418.088 96.012 418.259 96.387C418.433 96.762 418.522 97.1919 418.526 97.6767C418.522 98.3889 418.34 99.0063 417.98 99.529C417.624 100.048 417.109 100.452 416.435 100.74C415.765 101.024 414.956 101.166 414.009 101.166C413.069 101.166 412.251 101.022 411.554 100.734C410.861 100.446 410.319 100.02 409.929 99.4551C409.543 98.887 409.34 98.1843 409.321 97.3472H411.702C411.729 97.7373 411.84 98.0631 412.037 98.3245C412.238 98.582 412.505 98.7771 412.838 98.9097C413.176 99.0385 413.556 99.1029 413.98 99.1029C414.397 99.1029 414.759 99.0423 415.066 98.9211C415.376 98.7998 415.617 98.6313 415.787 98.4154C415.958 98.1995 416.043 97.9514 416.043 97.6711C416.043 97.4097 415.965 97.19 415.81 97.012C415.658 96.8339 415.435 96.6824 415.14 96.5574C414.848 96.4324 414.49 96.3188 414.066 96.2165L412.799 95.8983C411.818 95.6597 411.043 95.2866 410.475 94.779C409.907 94.2714 409.624 93.5877 409.628 92.7279C409.624 92.0233 409.812 91.4078 410.191 90.8813C410.573 90.3548 411.098 89.9438 411.765 89.6483C412.431 89.3529 413.189 89.2051 414.037 89.2051C414.901 89.2051 415.655 89.3529 416.299 89.6483C416.946 89.9438 417.45 90.3548 417.81 90.8813C418.17 91.4078 418.355 92.0176 418.367 92.7108H416.009ZM430.394 95.1824C430.394 96.4514 430.153 97.5309 429.672 98.4211C429.195 99.3112 428.544 99.9911 427.718 100.461C426.896 100.927 425.972 101.16 424.945 101.16C423.911 101.16 422.983 100.925 422.161 100.456C421.339 99.9854 420.689 99.3055 420.212 98.4154C419.735 97.5252 419.496 96.4476 419.496 95.1824C419.496 93.9135 419.735 92.8339 420.212 91.9438C420.689 91.0536 421.339 90.3756 422.161 89.9097C422.983 89.44 423.911 89.2051 424.945 89.2051C425.972 89.2051 426.896 89.44 427.718 89.9097C428.544 90.3756 429.195 91.0536 429.672 91.9438C430.153 92.8339 430.394 93.9135 430.394 95.1824ZM427.9 95.1824C427.9 94.3604 427.776 93.6673 427.53 93.1029C427.288 92.5385 426.945 92.1104 426.502 91.8188C426.059 91.5271 425.54 91.3813 424.945 91.3813C424.35 91.3813 423.831 91.5271 423.388 91.8188C422.945 92.1104 422.6 92.5385 422.354 93.1029C422.112 93.6673 421.991 94.3604 421.991 95.1824C421.991 96.0044 422.112 96.6976 422.354 97.262C422.6 97.8264 422.945 98.2544 423.388 98.5461C423.831 98.8377 424.35 98.9836 424.945 98.9836C425.54 98.9836 426.059 98.8377 426.502 98.5461C426.945 98.2544 427.288 97.8264 427.53 97.262C427.776 96.6976 427.9 96.0044 427.9 95.1824ZM435.861 101.001H431.736V89.3642H435.895C437.066 89.3642 438.073 89.5972 438.918 90.0631C439.763 90.5252 440.412 91.19 440.867 92.0574C441.325 92.9248 441.555 93.9627 441.555 95.1711C441.555 96.3832 441.325 97.4248 440.867 98.2961C440.412 99.1673 439.759 99.8358 438.907 100.302C438.058 100.768 437.043 101.001 435.861 101.001ZM434.197 98.8926H435.759C436.486 98.8926 437.098 98.7639 437.594 98.5063C438.094 98.2449 438.469 97.8415 438.719 97.2961C438.973 96.7468 439.1 96.0385 439.1 95.1711C439.1 94.3112 438.973 93.6086 438.719 93.0631C438.469 92.5176 438.096 92.1161 437.6 91.8586C437.104 91.601 436.492 91.4722 435.765 91.4722H434.197V98.8926ZM442.897 101.001V89.3642H450.738V91.3926H445.357V94.1654H450.334V96.1938H445.357V98.9722H450.761V101.001H442.897ZM462.893 101.16C462.045 101.16 461.289 101.014 460.626 100.723C459.967 100.427 459.446 100.022 459.064 99.5063C458.685 98.9873 458.49 98.3889 458.478 97.7108H460.956C460.971 97.9949 461.064 98.2449 461.234 98.4608C461.408 98.6729 461.639 98.8377 461.927 98.9551C462.215 99.0726 462.539 99.1313 462.899 99.1313C463.274 99.1313 463.605 99.065 463.893 98.9324C464.181 98.7998 464.406 98.6161 464.569 98.3813C464.732 98.1464 464.814 97.8756 464.814 97.5688C464.814 97.2582 464.726 96.9836 464.552 96.7449C464.382 96.5025 464.135 96.3131 463.814 96.1767C463.495 96.0404 463.117 95.9722 462.677 95.9722H461.592V94.1654H462.677C463.048 94.1654 463.376 94.101 463.66 93.9722C463.948 93.8434 464.171 93.6654 464.331 93.4381C464.49 93.207 464.569 92.9381 464.569 92.6313C464.569 92.3396 464.499 92.0839 464.359 91.8642C464.223 91.6408 464.029 91.4665 463.779 91.3415C463.533 91.2165 463.245 91.154 462.916 91.154C462.582 91.154 462.278 91.2146 462.001 91.3358C461.725 91.4533 461.503 91.6218 461.336 91.8415C461.17 92.0612 461.081 92.3188 461.069 92.6142H458.711C458.723 91.9438 458.914 91.3529 459.285 90.8415C459.656 90.3301 460.156 89.9305 460.785 89.6426C461.418 89.351 462.132 89.2051 462.927 89.2051C463.73 89.2051 464.433 89.351 465.035 89.6426C465.637 89.9343 466.105 90.3283 466.439 90.8245C466.776 91.3169 466.942 91.8699 466.939 92.4836C466.942 93.1351 466.74 93.6786 466.331 94.1142C465.925 94.5498 465.397 94.8264 464.745 94.9438V95.0347C465.601 95.1445 466.253 95.4419 466.7 95.9267C467.151 96.4078 467.374 97.0101 467.37 97.7336C467.374 98.3964 467.183 98.9854 466.796 99.5006C466.414 100.016 465.885 100.421 465.211 100.717C464.537 101.012 463.764 101.16 462.893 101.16Z" fill="#362974"/>
<path d="M307.043 159.799C302.603 159.799 298.603 158.399 295.363 156.279L296.563 149.439C298.923 151.119 302.963 152.879 306.643 152.879C309.163 152.879 311.163 151.799 311.203 149.439C311.243 147.239 309.483 145.999 305.843 144.639L304.043 143.959C298.283 141.799 295.483 138.599 295.483 133.319C295.483 127.199 300.083 123.439 307.163 123.439C310.723 123.439 314.243 124.439 317.003 126.039L316.003 132.519C313.083 130.959 310.283 130.359 307.723 130.359C305.363 130.359 303.403 131.279 303.363 133.519C303.323 135.839 305.323 136.679 308.563 137.919L310.363 138.599C315.683 140.599 319.123 143.519 319.123 149.439C319.123 155.919 314.003 159.799 307.043 159.799ZM328.188 130.599H320.508V123.839H328.188V130.599ZM328.188 159.159H320.508V132.879H328.188V159.159ZM353.249 132.879V136.519H353.289V157.719C353.289 162.519 350.449 167.999 341.289 167.999C338.409 167.999 335.809 167.359 333.889 166.279L334.689 160.719C336.449 161.439 338.209 161.879 340.489 161.879C344.089 161.879 346.089 160.679 346.089 157.119V156.919C344.409 158.599 341.849 159.199 339.929 159.199C334.649 159.199 330.169 156.599 330.169 148.159V143.279C330.169 134.839 334.649 132.239 339.929 132.239C341.929 132.239 344.529 133.079 346.089 134.839V132.879H353.249ZM345.729 149.119V142.479C345.729 139.759 343.569 138.679 341.849 138.679C340.129 138.679 338.009 139.759 338.009 142.479V148.919C338.009 151.639 340.129 152.759 341.849 152.759C343.529 152.759 345.729 151.679 345.729 149.119ZM363.408 159.159H355.688V124.079H363.408V134.559C364.808 132.959 367.088 132.239 369.528 132.239C374.368 132.239 378.648 134.839 378.648 143.279V159.159H370.808V142.759C370.808 140.039 369.248 138.719 367.128 138.719C365.008 138.719 363.408 139.999 363.408 142.559V159.159ZM391.051 159.839C386.171 159.839 383.011 157.679 383.011 151.639V140.039H378.651V133.679H383.011V125.279H390.611V133.679H396.691V140.039H390.611V151.279C390.611 152.639 391.411 153.359 392.691 153.399C393.891 153.439 395.451 153.279 396.291 152.959L396.691 158.759C395.291 159.399 393.331 159.839 391.051 159.839ZM435.47 147.599L439.83 124.119H447.83L439.83 159.159H431.51L426.39 136.479L421.43 159.159H413.11L404.91 124.119H412.95L417.35 147.599L422.43 124.119H430.35L435.47 147.599ZM457.629 159.799C452.309 159.799 446.029 157.319 446.029 148.719V143.319C446.029 134.719 452.189 132.239 457.629 132.239C462.949 132.239 469.229 134.719 469.229 143.319V148.719C469.229 157.319 462.949 159.799 457.629 159.799ZM457.629 153.239C459.349 153.239 461.589 152.319 461.589 149.479V142.559C461.589 139.719 459.349 138.799 457.629 138.799C455.909 138.799 453.669 139.719 453.669 142.559V149.479C453.669 152.319 455.909 153.239 457.629 153.239ZM478.955 159.159H471.235V132.879H478.595V134.879C479.955 132.999 482.355 132.239 484.315 132.239C485.915 132.239 487.155 132.599 488.195 133.399L487.795 140.159C486.675 139.599 485.275 139.359 483.795 139.359C480.795 139.359 479.075 140.759 478.955 143.159V159.159ZM503.561 134.039V124.879H511.281V159.159H504.121V157.199C502.561 158.959 499.961 159.799 497.961 159.799C492.681 159.799 488.201 157.199 488.201 148.759V143.279C488.201 134.839 492.681 132.239 497.961 132.239C499.881 132.239 502.041 132.839 503.561 134.039ZM503.761 149.559V142.319C503.761 139.759 501.561 138.679 499.881 138.679C498.161 138.679 496.041 139.799 496.041 142.519V149.559C496.041 152.279 498.161 153.359 499.881 153.359C501.601 153.359 503.761 152.279 503.761 149.559ZM523.551 159.799C520.031 159.799 516.311 158.919 513.591 157.079L514.391 150.959C517.591 152.839 520.231 153.599 522.991 153.599C524.751 153.599 525.871 152.919 525.871 151.719C525.871 150.359 523.751 149.639 520.751 148.599L519.111 148.039C515.151 146.679 513.031 143.679 513.071 140.239C513.111 135.079 517.071 132.239 523.231 132.239C526.831 132.239 529.671 133.079 532.031 134.639L530.991 140.399C529.151 139.239 526.471 138.439 523.951 138.439C522.031 138.439 520.991 139.039 520.991 140.119C520.991 141.479 522.511 141.799 525.391 142.719L526.871 143.199C531.111 144.559 533.591 147.279 533.551 151.359C533.511 157.039 529.151 159.799 523.551 159.799ZM555.937 159.159H548.337V134.959H542.777V128.999C546.737 128.839 548.937 127.559 549.617 124.079H555.937V159.159Z" fill="#9730E8"/>
<path d="M838.5 200.993L816.49 193.503L794.5 186V200.993V216L816.49 208.497L838.5 200.993Z" fill="#362974"/>
<path d="M92.5 206.494L71.506 199.253L50.5 192V206.494V221L71.506 213.747L92.5 206.494Z" fill="#362974"/>
<path d="M52 193V245" stroke="#362974" stroke-width="5"/>
<path d="M796 187V242" stroke="#362974" stroke-width="5"/>
</svg>
