<svg width="848" height="586" viewBox="0 0 848 586" fill="none" xmlns="http://www.w3.org/2000/svg">
<path d="M836.75 309.149C833.07 305.043 829.98 300.428 827.6 295.442L804.2 246.751C800.54 240.416 791.42 240.416 787.76 246.751L764.36 295.442C761.975 300.409 758.886 305.023 755.211 309.149L745.476 320.022C741.82 326.357 746.395 334.257 753.706 334.257H763.422V432.499H87.2369V334.257H94.4889C101.8 334.257 106.375 326.338 102.719 320.022L92.9839 309.149C89.3089 305.043 86.2199 300.428 83.8349 295.442L60.4359 246.751C56.7799 240.416 47.6509 240.416 43.9949 246.751L20.5959 295.442C18.2109 300.409 15.1219 305.023 11.4469 309.149L1.71193 320.022C-1.94407 326.357 2.62993 334.257 9.94193 334.257H19.6569V574.992C19.6569 580.525 24.1529 585.023 29.6859 585.023H821.01C826.54 585.023 831.04 580.525 831.04 574.992V334.257H838.29C845.6 334.257 850.18 326.338 846.52 320.022L836.79 309.149H836.75ZM69.3499 385.959C69.3499 385.959 69.3499 386.037 69.3499 386.057V399.452C69.3499 401.153 67.9809 402.522 66.2809 402.522H40.5739C38.8729 402.522 37.5049 401.153 37.5049 399.452V377.668C37.5049 368.869 44.6399 361.751 53.4179 361.751C62.1949 361.751 69.3299 368.888 69.3299 377.668V385.959H69.3499ZM813.13 385.959C813.13 385.959 813.13 386.037 813.13 386.057V399.452C813.13 401.153 811.77 402.522 810.06 402.522H784.36C782.66 402.522 781.29 401.153 781.29 399.452V377.668C781.29 368.869 788.42 361.751 797.2 361.751C805.98 361.751 813.11 368.888 813.11 377.668V385.959H813.13Z" fill="#F1F2FE"/>
<path d="M394.099 5.73121L120.143 120.704C92.7834 132.181 74.9844 158.965 74.9844 188.65V511.319C74.9844 552.008 107.952 585 148.628 585H697.341C738.009 585 770.984 552.016 770.984 511.319V188.693C770.984 158.987 753.156 132.188 725.768 120.726L451.005 5.7094C432.799 -1.91523 412.298 -1.9007 394.092 5.73848L394.099 5.73121Z" fill="#F1F2FE"/>
<mask id="mask0_4876_71335" style="mask-type:alpha" maskUnits="userSpaceOnUse" x="0" y="0" width="848" height="585">
<path d="M836.75 309.126C833.07 305.02 829.98 300.405 827.6 295.419L804.2 246.728C800.54 240.393 791.42 240.393 787.76 246.728L764.36 295.419C761.975 300.386 758.886 305 755.211 309.126L745.476 319.999C741.82 326.334 746.395 334.234 753.706 334.234H763.422V432.476H87.2369V334.234H94.4889C101.8 334.234 106.375 326.315 102.719 319.999L92.9839 309.126C89.3089 305.02 86.2199 300.405 83.8349 295.419L60.4359 246.728C56.7799 240.393 47.6509 240.393 43.9949 246.728L20.5959 295.419C18.2109 300.386 15.1219 305 11.4469 309.126L1.71193 319.999C-1.94407 326.334 2.62993 334.234 9.94193 334.234H19.6569V574.969C19.6569 580.502 24.1529 585 29.6859 585H821.01C826.54 585 831.04 580.502 831.04 574.969V334.234H838.29C845.6 334.234 850.18 326.315 846.52 319.999L836.79 309.126H836.75ZM69.3499 385.936C69.3499 385.936 69.3499 386.014 69.3499 386.034V399.429C69.3499 401.13 67.9809 402.499 66.2809 402.499H40.5739C38.8729 402.499 37.5049 401.13 37.5049 399.429V377.645C37.5049 368.846 44.6399 361.728 53.4179 361.728C62.1949 361.728 69.3299 368.865 69.3299 377.645V385.936H69.3499ZM813.13 385.936C813.13 385.936 813.13 386.014 813.13 386.034V399.429C813.13 401.13 811.77 402.499 810.06 402.499H784.36C782.66 402.499 781.29 401.13 781.29 399.429V377.645C781.29 368.846 788.42 361.728 797.2 361.728C805.98 361.728 813.11 368.865 813.11 377.645V385.936H813.13Z" fill="#F1F2FE"/>
<path d="M394.099 5.73121L120.143 120.704C92.7834 132.181 74.9844 158.965 74.9844 188.65V511.319C74.9844 552.008 107.952 585 148.628 585H697.341C738.009 585 770.984 552.016 770.984 511.319V188.693C770.984 158.987 753.156 132.188 725.768 120.726L451.005 5.7094C432.799 -1.91523 412.298 -1.9007 394.092 5.73848L394.099 5.73121Z" fill="#F1F2FE"/>
</mask>
<g mask="url(#mask0_4876_71335)">
<path opacity="0.5" d="M872.5 68.8372V65.1524H831.99V64.4523H758.813V33.6847H831.99V30H-0.5V68.1371H40.009V100.25H-0.5V138.387H40.009V170.499H-0.5V208.636H40.009V240.749H-0.5V278.886H40.009V310.998H-0.5V349.136H40.009V381.248H-0.5V419.385H40.009V451.498H-0.5V489.635H40.009V521.747H-0.5V559.884H40.009V595.037H872.5V591.352H799.32V560.584H872.5V556.9H831.99V556.2H758.813V525.432H831.99V524.787H872.5V521.102H799.32V490.335H872.5V486.65H831.99V485.95H758.813V455.182H831.99V454.538H872.5V450.853H799.32V420.085H872.5V416.4H831.99V415.7H758.813V384.933H831.99V384.288H872.5V380.603H799.32V349.836H872.5V346.151H831.99V345.451H758.813V314.683H831.99V314.038H872.5V310.354H799.32V279.586H872.5V275.901H831.99V275.201H758.813V244.434H831.99V243.789H872.5V240.104H799.32V209.336H872.5V205.652H831.99V204.952H758.813V174.184H831.99V173.539H872.5V169.854H799.32V139.087H872.5V135.402H831.99V134.702H758.813V103.934H831.99V103.29H872.5V99.605H799.32V68.8372H872.5ZM795.64 99.605H723.752V68.8372H795.64V99.605ZM755.132 134.702H683.242V103.934H755.132V134.702ZM795.64 169.854H723.752V139.087H795.64V169.854ZM755.132 204.952H683.242V174.184H755.132V204.952ZM795.64 240.104H723.752V209.336H795.64V240.104ZM755.132 275.201H683.242V244.434H755.132V275.201ZM795.64 310.354H723.752V279.586H795.64V310.354ZM755.132 345.451H683.242V314.683H755.132V345.451ZM795.64 380.603H723.752V349.836H795.64V380.603ZM755.132 415.7H683.242V384.933H755.132V415.7ZM795.64 450.853H723.752V420.085H795.64V450.853ZM755.132 485.95H683.242V455.182H755.132V485.95ZM795.64 521.102H723.752V490.335H795.64V521.102ZM755.132 556.2H683.242V525.432H755.132V556.2ZM679.561 556.2H607.672V525.432H679.561V556.2ZM603.991 556.2H532.101V525.432H603.991V556.2ZM528.42 556.2H456.531V525.432H528.42V556.2ZM452.85 556.2H380.96V525.432H452.85V556.2ZM377.279 556.2H305.39V525.432H377.279V556.2ZM301.709 556.2H229.819V525.432H301.709V556.2ZM226.138 556.2H154.248V525.432H226.138V556.2ZM720.089 99.605H648.199V68.8372H720.089V99.605ZM679.58 134.702H607.69V103.934H679.58V134.702ZM720.089 169.854H648.199V139.087H720.089V169.854ZM679.58 204.952H607.69V174.184H679.58V204.952ZM720.089 240.104H648.199V209.336H720.089V240.104ZM679.58 275.201H607.69V244.434H679.58V275.201ZM720.089 310.354H648.199V279.586H720.089V310.354ZM679.58 345.451H607.69V314.683H679.58V345.451ZM720.089 380.603H648.199V349.836H720.089V380.603ZM679.58 415.7H607.69V384.933H679.58V415.7ZM720.089 450.853H648.199V420.085H720.089V450.853ZM679.58 485.95H607.69V455.182H679.58V485.95ZM720.089 521.102H648.199V490.335H720.089V521.102ZM229.874 103.934H301.764V134.702H229.874V103.934ZM305.445 103.934H377.334V134.702H305.445V103.934ZM381.015 103.934H452.905V134.702H381.015V103.934ZM456.586 103.934H528.475V134.702H456.586V103.934ZM532.156 103.934H604.046V134.702H532.156V103.934ZM644.537 169.854H572.647V139.087H644.537V169.854ZM604.028 204.952H532.138V174.184H604.028V204.952ZM644.537 240.104H572.647V209.336H644.537V240.104ZM604.028 275.201H532.138V244.434H604.028V275.201ZM644.537 310.354H572.647V279.586H644.537V310.354ZM604.028 345.451H532.138V314.683H604.028V345.451ZM644.537 380.603H572.647V349.836H644.537V380.603ZM604.028 415.7H532.138V384.933H604.028V415.7ZM644.537 450.853H572.647V420.085H644.537V450.853ZM604.028 485.95H532.138V455.182H604.028V485.95ZM270.383 139.087H342.273V169.854H270.383V139.087ZM345.954 139.087H417.844V169.854H345.954V139.087ZM421.525 139.087H493.414V169.854H421.525V139.087ZM497.095 139.087H568.985V169.854H497.095V139.087ZM528.475 204.952H456.586V174.184H528.475V204.952ZM568.985 240.104H497.095V209.336H568.985V240.104ZM528.475 275.201H456.586V244.434H528.475V275.201ZM568.985 310.354H497.095V279.586H568.985V310.354ZM528.475 345.451H456.586V314.683H528.475V345.451ZM568.985 380.603H497.095V349.836H568.985V380.603ZM528.475 415.7H456.586V384.933H528.475V415.7ZM568.985 450.853H497.095V420.085H568.985V450.853ZM528.475 485.95H456.586V455.182H528.475V485.95ZM452.905 485.95H381.015V455.182H452.905V485.95ZM377.334 485.95H305.445V455.182H377.334V485.95ZM381.015 174.202H452.905V204.97H381.015V174.202ZM493.414 240.122H421.525V209.355H493.414V240.122ZM452.905 275.22H381.015V244.452H452.905V275.22ZM493.414 310.372H421.525V279.604H493.414V310.372ZM452.905 345.469H381.015V314.702H452.905V345.469ZM493.414 380.622H421.525V349.854H493.414V380.622ZM452.905 415.719H381.015V384.951H452.905V415.719ZM493.414 450.871H421.525V420.104H493.414V450.871ZM345.972 209.373H417.862V240.141H345.972V209.373ZM345.972 279.623H417.862V310.39H345.972V279.623ZM345.972 349.872H417.862V380.64H345.972V349.872ZM345.972 420.122H417.862V450.89H345.972V420.122ZM305.463 174.239H377.353V205.007H305.463V174.239ZM305.463 244.489H377.353V275.256H305.463V244.489ZM305.463 314.738H377.353V345.506H305.463V314.738ZM305.463 384.988H377.353V415.756H305.463V384.988ZM270.402 209.41H342.291V240.178H270.402V209.41ZM270.402 279.66H342.291V310.427H270.402V279.66ZM270.402 349.909H342.291V380.677H270.402V349.909ZM270.402 420.159H342.291V450.927H270.402V420.159ZM229.893 174.276H301.782V205.044H229.893V174.276ZM229.893 244.526H301.782V275.293H229.893V244.526ZM229.893 314.775H301.782V345.543H229.893V314.775ZM229.893 385.025H301.782V415.793H229.893V385.025ZM229.893 455.275H301.782V486.042H229.893V455.275ZM194.831 139.197H266.721V169.965H194.831V139.197ZM194.831 209.447H266.721V240.215H194.831V209.447ZM194.831 279.697H266.721V310.464H194.831V279.697ZM194.831 349.946H266.721V380.714H194.831V349.946ZM194.831 420.196H266.721V450.963H194.831V420.196ZM194.831 490.445H266.721V521.213H194.831V490.445ZM270.402 490.445H342.291V521.213H270.402V490.445ZM345.972 490.445H417.862V521.213H345.972V490.445ZM421.543 490.445H493.433V521.213H421.543V490.445ZM497.113 490.445H569.003V521.213H497.113V490.445ZM572.684 490.445H644.574V521.213H572.684V490.445ZM154.304 103.934H226.193V134.702H154.304V103.934ZM154.304 174.184H226.193V204.952H154.304V174.184ZM154.304 244.434H226.193V275.201H154.304V244.434ZM154.304 314.683H226.193V345.451H154.304V314.683ZM154.304 384.933H226.193V415.7H154.304V384.933ZM154.304 455.182H226.193V485.95H154.304V455.182ZM644.518 99.605H572.629V68.8372H644.518V99.605ZM568.948 99.605H497.058V68.8372H568.948V99.605ZM493.377 99.605H421.488V68.8372H493.377V99.605ZM417.807 99.605H345.917V68.8372H417.807V99.605ZM342.236 99.605H270.347V68.8372H342.236V99.605ZM266.666 99.605H194.776V68.8372H266.666V99.605ZM191.095 99.605H119.206V68.8372H191.095V99.605ZM119.206 139.087H191.095V169.854H119.206V139.087ZM119.206 209.336H191.095V240.104H119.206V209.336ZM119.206 279.586H191.095V310.354H119.206V279.586ZM119.206 349.836H191.095V380.603H119.206V349.836ZM119.206 420.085H191.095V450.853H119.206V420.085ZM119.206 490.335H191.095V521.102H119.206V490.335ZM78.752 103.934H150.641V134.702H78.752V103.934ZM78.752 174.184H150.641V204.952H78.752V174.184ZM78.752 244.434H150.641V275.201H78.752V244.434ZM78.752 314.683H150.641V345.451H78.752V314.683ZM78.752 384.933H150.641V415.7H78.752V384.933ZM78.752 455.182H150.641V485.95H78.752V455.182ZM78.752 525.432H150.641V556.2H78.752V525.432ZM115.561 68.8372V99.605H43.69V68.8372H115.58H115.561ZM115.561 139.087V169.854H43.69V139.087H115.58H115.561ZM115.561 209.336V240.104H43.69V209.336H115.58H115.561ZM115.561 279.586V310.354H43.69V279.586H115.58H115.561ZM115.561 349.836V380.603H43.69V349.836H115.58H115.561ZM115.561 420.085V450.853H43.69V420.085H115.58H115.561ZM115.561 490.335V521.102H43.69V490.335H115.58H115.561ZM683.261 33.6847H755.15V64.4523H683.261V33.6847ZM607.69 33.6847H679.58V64.4523H607.69V33.6847ZM532.12 33.6847H604.009V64.4523H532.12V33.6847ZM456.549 33.6847H528.439V64.4523H456.549V33.6847ZM380.979 33.6847H452.868V64.4523H380.979V33.6847ZM305.408 33.6847H377.298V64.4523H305.408V33.6847ZM229.837 33.6847H301.727V64.4523H229.837V33.6847ZM154.267 33.6847H226.156V64.4523H154.267V33.6847ZM78.696 33.6847H150.586V64.4523H78.696V33.6847ZM3.181 33.6847H75.071V64.4523H3.181V33.6847ZM3.181 103.934H75.071V134.702H3.181V103.934ZM3.181 174.184H75.071V204.952H3.181V174.184ZM3.181 244.434H75.071V275.201H3.181V244.434ZM3.181 314.683H75.071V345.451H3.181V314.683ZM3.181 384.933H75.071V415.7H3.181V384.933ZM3.181 455.182H75.071V485.95H3.181V455.182ZM3.181 525.432H75.071V556.2H3.181V525.432ZM43.69 591.352V560.584H115.58V591.352H43.69ZM119.261 591.352V560.584H191.15V591.352H119.261ZM194.831 591.352V560.584H266.721V591.352H194.831ZM270.402 591.352V560.584H342.291V591.352H270.402ZM345.972 591.352V560.584H417.862V591.352H345.972ZM421.543 591.352V560.584H493.433V591.352H421.543ZM497.113 591.352V560.584H569.003V591.352H497.113ZM572.684 591.352V560.584H644.574V591.352H572.684ZM648.255 591.352V560.584H720.144V591.352H648.255ZM723.825 591.352V560.584H795.71V591.352H723.825Z" fill="white"/>
</g>
<path d="M472.484 54H381.484C372.648 54 365.484 61.1634 365.484 70C365.484 78.8366 372.648 86 381.484 86H472.484C481.321 86 488.484 78.8366 488.484 70C488.484 61.1634 481.321 54 472.484 54Z" fill="#9730E8"/>
<path d="M386.496 76.0001V64.3637H394.337V66.3921H388.956V69.1649H393.933V71.1933H388.956V73.9717H394.359V76.0001H386.496ZM395.813 76.0001V64.3637H400.404C401.286 64.3637 402.038 64.5323 402.659 64.8694C403.28 65.2028 403.754 65.6668 404.08 66.2615C404.409 66.8524 404.574 67.5342 404.574 68.3069C404.574 69.0796 404.407 69.7615 404.074 70.3524C403.741 70.9433 403.258 71.4035 402.625 71.7331C401.996 72.0626 401.235 72.2274 400.341 72.2274H397.415V70.2558H399.943C400.417 70.2558 400.807 70.1743 401.114 70.0115C401.424 69.8448 401.655 69.6156 401.807 69.324C401.962 69.0285 402.04 68.6895 402.04 68.3069C402.04 67.9206 401.962 67.5834 401.807 67.2956C401.655 67.0039 401.424 66.7785 401.114 66.6194C400.803 66.4565 400.409 66.3751 399.932 66.3751H398.273V76.0001H395.813ZM408.152 64.3637V76.0001H405.692V64.3637H408.152ZM416.009 67.7103C415.963 67.252 415.768 66.8959 415.424 66.6421C415.079 66.3884 414.611 66.2615 414.02 66.2615C413.619 66.2615 413.28 66.3183 413.003 66.4319C412.727 66.5418 412.515 66.6952 412.367 66.8921C412.223 67.0891 412.151 67.3126 412.151 67.5626C412.143 67.7709 412.187 67.9528 412.282 68.1081C412.38 68.2634 412.515 68.3978 412.685 68.5115C412.855 68.6213 413.052 68.7179 413.276 68.8012C413.499 68.8808 413.738 68.949 413.992 69.0058L415.037 69.2558C415.545 69.3694 416.011 69.5209 416.435 69.7103C416.859 69.8997 417.227 70.1327 417.537 70.4092C417.848 70.6857 418.088 71.0115 418.259 71.3865C418.433 71.7615 418.522 72.1914 418.526 72.6762C418.522 73.3884 418.34 74.0058 417.98 74.5285C417.624 75.0471 417.109 75.4511 416.435 75.7391C415.765 76.0231 414.956 76.1651 414.009 76.1651C413.069 76.1651 412.251 76.0211 411.554 75.7331C410.861 75.4451 410.319 75.0191 409.929 74.4546C409.543 73.8865 409.34 73.1838 409.321 72.3467H411.702C411.729 72.7368 411.84 73.0626 412.037 73.324C412.238 73.5815 412.505 73.7766 412.838 73.9092C413.176 74.038 413.556 74.1024 413.98 74.1024C414.397 74.1024 414.759 74.0418 415.066 73.9206C415.376 73.7993 415.617 73.6308 415.787 73.4149C415.958 73.199 416.043 72.9509 416.043 72.6706C416.043 72.4092 415.965 72.1895 415.81 72.0115C415.658 71.8334 415.435 71.6819 415.14 71.5569C414.848 71.4319 414.49 71.3183 414.066 71.216L412.799 70.8978C411.818 70.6592 411.043 70.2861 410.475 69.7785C409.907 69.2709 409.624 68.5872 409.628 67.7274C409.624 67.0228 409.812 66.4073 410.191 65.8808C410.573 65.3543 411.098 64.9433 411.765 64.6478C412.431 64.3524 413.189 64.2046 414.037 64.2046C414.901 64.2046 415.655 64.3524 416.299 64.6478C416.946 64.9433 417.45 65.3543 417.81 65.8808C418.17 66.4073 418.355 67.0171 418.367 67.7103H416.009ZM430.394 70.1819C430.394 71.4509 430.153 72.5304 429.672 73.4206C429.195 74.3107 428.544 74.9906 427.718 75.4601C426.896 75.9261 425.972 76.1591 424.945 76.1591C423.911 76.1591 422.983 75.9241 422.161 75.4551C421.339 74.9849 420.689 74.305 420.212 73.4149C419.735 72.5247 419.496 71.4471 419.496 70.1819C419.496 68.913 419.735 67.8334 420.212 66.9433C420.689 66.0531 421.339 65.3751 422.161 64.9092C422.983 64.4395 423.911 64.2046 424.945 64.2046C425.972 64.2046 426.896 64.4395 427.718 64.9092C428.544 65.3751 429.195 66.0531 429.672 66.9433C430.153 67.8334 430.394 68.913 430.394 70.1819ZM427.9 70.1819C427.9 69.3599 427.776 68.6668 427.53 68.1024C427.288 67.538 426.945 67.1099 426.502 66.8183C426.059 66.5266 425.54 66.3808 424.945 66.3808C424.35 66.3808 423.831 66.5266 423.388 66.8183C422.945 67.1099 422.6 67.538 422.354 68.1024C422.112 68.6668 421.991 69.3599 421.991 70.1819C421.991 71.0039 422.112 71.6971 422.354 72.2615C422.6 72.8259 422.945 73.2539 423.388 73.5456C423.831 73.8372 424.35 73.9831 424.945 73.9831C425.54 73.9831 426.059 73.8372 426.502 73.5456C426.945 73.2539 427.288 72.8259 427.53 72.2615C427.776 71.6971 427.9 71.0039 427.9 70.1819ZM435.861 76.0001H431.736V64.3637H435.895C437.066 64.3637 438.073 64.5967 438.918 65.0626C439.763 65.5247 440.412 66.1895 440.867 67.0569C441.325 67.9243 441.555 68.9622 441.555 70.1706C441.555 71.3827 441.325 72.4243 440.867 73.2956C440.412 74.1668 439.759 74.8353 438.907 75.3011C438.058 75.7671 437.043 76.0001 435.861 76.0001ZM434.197 73.8921H435.759C436.486 73.8921 437.098 73.7634 437.594 73.5058C438.094 73.2444 438.469 72.841 438.719 72.2956C438.973 71.7463 439.1 71.038 439.1 70.1706C439.1 69.3107 438.973 68.6081 438.719 68.0626C438.469 67.5171 438.096 67.1156 437.6 66.8581C437.104 66.6005 436.492 66.4717 435.765 66.4717H434.197V73.8921ZM442.897 76.0001V64.3637H450.738V66.3921H445.357V69.1649H450.334V71.1933H445.357V73.9717H450.761V76.0001H442.897ZM462.893 76.1591C462.045 76.1591 461.289 76.0131 460.626 75.7221C459.967 75.4261 459.446 75.0211 459.064 74.5058C458.685 73.9868 458.49 73.3884 458.478 72.7103H460.956C460.971 72.9944 461.064 73.2444 461.234 73.4603C461.408 73.6724 461.639 73.8372 461.927 73.9546C462.215 74.0721 462.539 74.1308 462.899 74.1308C463.274 74.1308 463.605 74.0645 463.893 73.9319C464.181 73.7993 464.406 73.6156 464.569 73.3808C464.732 73.1459 464.814 72.8751 464.814 72.5683C464.814 72.2577 464.726 71.9831 464.552 71.7444C464.382 71.502 464.135 71.3126 463.814 71.1762C463.495 71.0399 463.117 70.9717 462.677 70.9717H461.592V69.1649H462.677C463.048 69.1649 463.376 69.1005 463.66 68.9717C463.948 68.8429 464.171 68.6649 464.331 68.4376C464.49 68.2065 464.569 67.9376 464.569 67.6308C464.569 67.3391 464.499 67.0834 464.359 66.8637C464.223 66.6403 464.029 66.466 463.779 66.341C463.533 66.216 463.245 66.1535 462.916 66.1535C462.582 66.1535 462.278 66.2141 462.001 66.3353C461.725 66.4528 461.503 66.6213 461.336 66.841C461.17 67.0607 461.081 67.3183 461.069 67.6137H458.711C458.723 66.9433 458.914 66.3524 459.285 65.841C459.656 65.3296 460.156 64.93 460.785 64.6421C461.418 64.3505 462.132 64.2046 462.927 64.2046C463.73 64.2046 464.433 64.3505 465.035 64.6421C465.637 64.9338 466.105 65.3278 466.439 65.824C466.776 66.3164 466.942 66.8694 466.939 67.4831C466.942 68.1346 466.74 68.6781 466.331 69.1137C465.925 69.5493 465.397 69.8259 464.745 69.9433V70.0342C465.601 70.144 466.253 70.4414 466.7 70.9262C467.151 71.4073 467.374 72.0096 467.37 72.7331C467.374 73.3959 467.183 73.9849 466.796 74.5001C466.414 75.0151 465.885 75.4201 465.211 75.7161C464.537 76.0111 463.764 76.1591 462.893 76.1591Z" fill="white"/>
<path d="M307.043 134.8C302.603 134.8 298.603 133.4 295.363 131.28L296.563 124.44C298.923 126.12 302.963 127.88 306.643 127.88C309.163 127.88 311.163 126.8 311.203 124.44C311.243 122.24 309.483 121 305.843 119.64L304.043 118.96C298.283 116.8 295.483 113.6 295.483 108.32C295.483 102.2 300.083 98.4399 307.163 98.4399C310.723 98.4399 314.243 99.4399 317.003 101.04L316.003 107.52C313.083 105.96 310.283 105.36 307.723 105.36C305.363 105.36 303.403 106.28 303.363 108.52C303.323 110.84 305.323 111.68 308.563 112.92L310.363 113.6C315.683 115.6 319.123 118.52 319.123 124.44C319.123 130.92 314.003 134.8 307.043 134.8ZM328.188 105.6H320.508V98.8399H328.188V105.6ZM328.188 134.16H320.508V107.88H328.188V134.16ZM353.249 107.88V111.52H353.289V132.72C353.289 137.52 350.449 143 341.289 143C338.409 143 335.809 142.36 333.889 141.28L334.689 135.72C336.449 136.44 338.209 136.88 340.489 136.88C344.089 136.88 346.089 135.68 346.089 132.12V131.92C344.409 133.6 341.849 134.2 339.929 134.2C334.649 134.2 330.169 131.6 330.169 123.16V118.28C330.169 109.84 334.649 107.24 339.929 107.24C341.929 107.24 344.529 108.08 346.089 109.84V107.88H353.249ZM345.729 124.12V117.48C345.729 114.76 343.569 113.68 341.849 113.68C340.129 113.68 338.009 114.76 338.009 117.48V123.92C338.009 126.64 340.129 127.76 341.849 127.76C343.529 127.76 345.729 126.68 345.729 124.12ZM363.408 134.16H355.688V99.0799H363.408V109.56C364.808 107.96 367.088 107.24 369.528 107.24C374.368 107.24 378.648 109.84 378.648 118.28V134.16H370.808V117.76C370.808 115.04 369.248 113.72 367.128 113.72C365.008 113.72 363.408 115 363.408 117.56V134.16ZM391.051 134.84C386.171 134.84 383.011 132.68 383.011 126.64V115.04H378.651V108.68H383.011V100.28H390.611V108.68H396.691V115.04H390.611V126.28C390.611 127.64 391.411 128.36 392.691 128.4C393.891 128.44 395.451 128.28 396.291 127.96L396.691 133.76C395.291 134.4 393.331 134.84 391.051 134.84ZM435.47 122.6L439.83 99.1199H447.83L439.83 134.16H431.51L426.39 111.48L421.43 134.16H413.11L404.91 99.1199H412.95L417.35 122.6L422.43 99.1199H430.35L435.47 122.6ZM457.629 134.8C452.309 134.8 446.029 132.32 446.029 123.72V118.32C446.029 109.72 452.189 107.24 457.629 107.24C462.949 107.24 469.229 109.72 469.229 118.32V123.72C469.229 132.32 462.949 134.8 457.629 134.8ZM457.629 128.24C459.349 128.24 461.589 127.32 461.589 124.48V117.56C461.589 114.72 459.349 113.8 457.629 113.8C455.909 113.8 453.669 114.72 453.669 117.56V124.48C453.669 127.32 455.909 128.24 457.629 128.24ZM478.955 134.16H471.235V107.88H478.595V109.88C479.955 108 482.355 107.24 484.315 107.24C485.915 107.24 487.155 107.6 488.195 108.4L487.795 115.16C486.675 114.6 485.275 114.36 483.795 114.36C480.795 114.36 479.075 115.76 478.955 118.16V134.16ZM503.561 109.04V99.8799H511.281V134.16H504.121V132.2C502.561 133.96 499.961 134.8 497.961 134.8C492.681 134.8 488.201 132.2 488.201 123.76V118.28C488.201 109.84 492.681 107.24 497.961 107.24C499.881 107.24 502.041 107.84 503.561 109.04ZM503.761 124.56V117.32C503.761 114.76 501.561 113.68 499.881 113.68C498.161 113.68 496.041 114.8 496.041 117.52V124.56C496.041 127.28 498.161 128.36 499.881 128.36C501.601 128.36 503.761 127.28 503.761 124.56ZM523.551 134.8C520.031 134.8 516.311 133.92 513.591 132.08L514.391 125.96C517.591 127.84 520.231 128.6 522.991 128.6C524.751 128.6 525.871 127.92 525.871 126.72C525.871 125.36 523.751 124.64 520.751 123.6L519.111 123.04C515.151 121.68 513.031 118.68 513.071 115.24C513.111 110.08 517.071 107.24 523.231 107.24C526.831 107.24 529.671 108.08 532.031 109.64L530.991 115.4C529.151 114.24 526.471 113.44 523.951 113.44C522.031 113.44 520.991 114.04 520.991 115.12C520.991 116.48 522.511 116.8 525.391 117.72L526.871 118.2C531.111 119.56 533.591 122.28 533.551 126.36C533.511 132.04 529.151 134.8 523.551 134.8ZM555.937 134.16H548.337V109.96H542.777V104C546.737 103.84 548.937 102.56 549.617 99.0799H555.937V134.16Z" fill="#9730E8"/>
<path d="M838.5 200.993L816.49 193.503L794.5 186V200.993V216L816.49 208.497L838.5 200.993Z" fill="#F1F2FE"/>
<path d="M92.5 206.494L71.506 199.253L50.5 192V206.494V221L71.506 213.747L92.5 206.494Z" fill="#F1F2FE"/>
<path d="M52 193V245" stroke="#F1F2FE" stroke-width="5"/>
<path d="M796 187V242" stroke="#F1F2FE" stroke-width="5"/>
</svg>
