<svg width="367" height="518" viewBox="0 0 367 518" fill="none" xmlns="http://www.w3.org/2000/svg">
<g clip-path="url(#clip0_4915_47534)">
<mask id="mask0_4915_47534" style="mask-type:luminance" maskUnits="userSpaceOnUse" x="88" y="238" width="96" height="242">
<path d="M183.02 238H88.0195V480H183.02V238Z" fill="white"/>
</mask>
<g mask="url(#mask0_4915_47534)">
<path d="M126.361 264.915C126.361 264.915 128.801 234.309 116.051 238.364C116.051 238.364 106.841 242.966 114.701 267.348C114.701 267.348 107.651 248.925 100.861 255.43C100.861 255.43 93.2707 261.389 108.181 277.909C108.181 277.909 97.6106 266.256 92.7206 272.761C92.7206 272.761 85.1306 278.985 110.621 296.878C110.621 296.878 94.3506 283.868 90.2906 297.689C90.2906 297.689 86.2306 303.648 106.561 317.188C106.561 317.188 91.6506 308.25 89.2106 316.642C89.2106 316.642 84.0606 324.504 110.901 336.422C110.901 336.422 91.6506 323.958 88.1206 333.443C88.1206 333.443 85.4007 340.213 108.181 350.773C108.181 350.773 92.1806 343.739 91.3606 351.849C91.3606 351.849 85.9506 357.262 107.641 367.012C107.641 367.012 92.1806 358.338 91.9106 368.088C91.9106 368.088 91.3606 376.215 108.451 383.531C108.451 383.531 94.3506 375.95 91.9106 381.628C91.9106 381.628 87.8506 388.944 110.901 397.071C110.901 397.071 100.861 393.546 98.7106 400.862C98.7106 400.862 92.1907 408.724 127.171 420.361C127.171 420.361 135.041 463.431 133.691 479.421L146.711 479.967V416.852C146.711 416.852 181.141 411.704 178.711 401.954C178.711 401.954 178.441 390.847 155.661 401.954C155.661 401.954 181.431 394.373 179.521 384.624C179.521 384.624 177.901 374.593 153.751 386.527C153.751 386.527 180.601 375.42 178.711 366.747C178.711 366.747 177.631 353.736 152.941 367.558C152.941 367.558 181.691 356.997 180.071 348.87C180.071 348.87 178.161 337.217 157.831 349.135C157.831 349.135 183.601 339.385 182.791 334.784C182.791 334.784 187.391 321.508 157.021 336.952C157.021 336.952 185.221 323.13 182.241 316.907C182.241 316.907 180.611 304.989 157.021 317.718C157.021 317.718 185.221 304.443 181.691 297.937C181.691 297.937 180.071 285.473 158.911 302.539C158.911 302.539 181.961 283.57 175.731 275.989C175.731 275.989 169.211 261.356 151.051 285.192C151.051 285.192 167.321 258.376 159.741 253.775C159.741 253.775 150.521 245.647 141.841 271.387C141.841 271.387 149.161 241.311 136.421 241.592C136.421 241.592 127.471 236.99 126.381 264.882L126.361 264.915Z" fill="#1C4648"/>
</g>
<mask id="mask1_4915_47534" style="mask-type:luminance" maskUnits="userSpaceOnUse" x="161" y="329" width="120" height="165">
<path d="M280.02 329H161.02V494H280.02V329Z" fill="white"/>
</mask>
<g mask="url(#mask1_4915_47534)">
<path d="M217.912 352.346C217.912 352.346 218.622 377.991 218.262 376.945C217.912 375.898 194.752 362.545 194.752 362.545L186.682 369.929L216.172 391.006L216.532 407.513L184.242 391.006L180.032 400.851L216.192 421.235V439.157L178.632 427.558L176.172 437.403L215.832 452.157L216.542 491.863L230.232 491.509L231.292 454.264L259.022 438.803L259.372 427.204L233.052 439.496L232.342 425.096L260.072 407.881L258.312 396.99L230.232 412.45L230.592 395.589L257.272 379.421L252.002 370.637L229.172 382.236L228.472 351.668L217.942 352.375L217.912 352.346Z" fill="#1C4648"/>
<path d="M223.301 331.137C223.301 331.137 208.561 333.009 208.561 344.019C208.561 344.019 207.401 357.136 219.561 359.008C219.561 359.008 233.371 361.116 235.001 348.234C235.001 348.234 239.921 330.194 223.301 331.137Z" fill="#1A3C3D"/>
<path d="M221.662 361.249C220.272 361.249 219.342 361.117 219.232 361.102C208.132 359.392 206.012 349.178 206.452 343.931C206.512 333.821 217.322 329.782 223.032 329.045H223.182C228.472 328.736 232.432 330.165 234.932 333.261C239.352 338.714 237.392 347.336 237.072 348.633C236.512 352.789 234.752 356.002 231.852 358.198C228.442 360.778 224.262 361.249 221.662 361.249ZM223.492 333.246C223.002 333.32 219.842 333.835 216.782 335.383C212.712 337.446 210.652 340.35 210.652 344.02V344.211C210.612 344.654 209.832 355.383 219.872 356.931C219.912 356.931 225.522 357.727 229.342 354.823C231.312 353.32 232.522 351.021 232.902 347.97L232.962 347.675C232.962 347.675 234.972 339.996 231.652 335.899C230.042 333.924 227.302 333.025 223.492 333.231V333.246Z" fill="#1A3C3D"/>
<path d="M174.472 421.031C174.472 421.031 163.152 422.475 163.152 430.92C163.152 430.92 162.252 441.002 171.602 442.431C171.602 442.431 182.202 444.053 183.472 434.148C183.472 434.148 187.242 420.294 174.492 421.016L174.472 421.031Z" fill="#1A3C3D"/>
<path d="M173.211 444.642C172.101 444.642 171.371 444.539 171.281 444.524C165.421 443.625 162.931 439.852 161.881 436.845C160.911 434.045 161.021 431.421 161.051 430.847C161.101 422.74 169.671 419.513 174.211 418.938H174.361C178.581 418.672 181.761 419.837 183.791 422.357C187.301 426.69 185.811 433.441 185.531 434.561C185.081 437.877 183.681 440.442 181.351 442.195C178.611 444.259 175.281 444.627 173.211 444.627V444.642ZM174.681 423.124C174.271 423.183 171.931 423.58 169.671 424.73C166.701 426.248 165.261 428.267 165.261 430.92V431.112C165.181 431.937 164.801 439.262 171.931 440.353C171.961 440.353 176.081 440.928 178.831 438.82C180.261 437.73 181.081 436.123 181.381 433.898L181.441 433.603C181.851 432.04 182.511 427.442 180.531 424.995C179.411 423.61 177.431 422.991 174.691 423.124H174.681Z" fill="#1A3C3D"/>
<path d="M265.88 363.475C265.88 363.475 253.94 360.66 249.73 369.562C249.73 369.562 244.81 379.864 253.94 383.844C253.94 383.844 264.23 387.587 269.62 379.864C269.62 379.864 277.57 368.383 265.88 363.46V363.475Z" fill="#1A3C3D"/>
<path d="M259.46 386.866C257 386.866 254.76 386.395 253.23 385.835L253.12 385.79C250.1 384.479 248.04 382.415 247.02 379.689C245.09 374.53 247.73 368.9 247.84 368.664C251.75 360.41 261.67 360.322 266.37 361.427L266.71 361.53C270.58 363.166 273.02 365.628 273.96 368.87C275.67 374.751 271.53 380.823 271.36 381.074C268.24 385.555 263.54 386.866 259.46 386.866ZM254.72 381.885C255.53 382.165 263.66 384.744 267.9 378.657C267.93 378.613 271.06 373.97 269.92 370.02C269.36 368.119 267.78 366.586 265.25 365.48C264.61 365.363 262.21 364.935 259.52 365.274C255.69 365.746 253.04 367.485 251.63 370.447C251.61 370.492 249.65 374.736 250.95 378.2C251.55 379.821 252.79 381.015 254.71 381.87L254.72 381.885Z" fill="#1A3C3D"/>
<path d="M253.23 432.704C253.23 432.704 255.65 444.731 265.48 444.863C265.48 444.863 276.889 445.04 276.699 435.077C276.699 435.077 275.82 424.141 266.56 422.46C266.56 422.46 252.82 419.999 253.22 432.689L253.23 432.704Z" fill="#1A3C3D"/>
<path d="M265.542 446.971H265.472C256.342 446.853 252.132 437.862 251.192 433.116L251.142 432.763C251.012 428.562 252.232 425.305 254.782 423.094C259.422 419.085 266.652 420.323 266.942 420.382C275.532 421.944 278.472 430.552 278.812 434.9V435.032C278.882 438.334 277.872 441.061 275.802 443.124C272.092 446.838 266.292 446.971 265.532 446.971H265.542ZM255.342 432.453C255.662 433.824 257.992 442.667 265.532 442.756C265.572 442.756 270.242 442.77 272.852 440.147C274.072 438.923 274.642 437.302 274.612 435.195C274.522 434.34 273.492 425.865 266.192 424.538C266.152 424.538 260.612 423.61 257.522 426.307C256.022 427.619 255.282 429.682 255.342 432.453Z" fill="#1A3C3D"/>
<path d="M183.992 385.495C183.992 385.495 172.042 382.68 167.832 391.582C167.832 391.582 162.922 401.884 172.042 405.864C172.042 405.864 182.342 409.607 187.732 401.884C187.732 401.884 195.682 390.403 183.992 385.48V385.495Z" fill="#1A3C3D"/>
<path d="M177.55 408.886C175.09 408.886 172.85 408.4 171.32 407.854L171.21 407.81C168.19 406.498 166.13 404.435 165.11 401.708C163.18 396.55 165.82 390.919 165.93 390.684C169.84 382.43 179.76 382.342 184.46 383.447L184.8 383.55C188.67 385.186 191.11 387.647 192.05 390.89C193.76 396.771 189.62 402.843 189.45 403.094C186.33 407.574 181.63 408.886 177.55 408.886ZM172.82 403.904C173.63 404.184 181.76 406.778 186 400.676C186.03 400.632 189.17 395.99 188.02 392.04C187.46 390.138 185.88 388.605 183.35 387.5C182.72 387.382 180.32 386.955 177.62 387.294C173.8 387.765 171.15 389.505 169.73 392.467C169.72 392.511 167.76 396.756 169.06 400.22C169.66 401.841 170.9 403.035 172.81 403.89L172.82 403.904Z" fill="#1A3C3D"/>
<path d="M198.25 359.525C198.25 359.525 189.99 350.461 181.5 355.413C181.5 355.413 171.63 361.131 176.9 369.592C176.9 369.592 183.28 378.508 192.08 375.177C192.08 375.177 205.13 370.211 198.25 359.525Z" fill="#1A3C3D"/>
<path d="M188.181 378.022C182.101 378.022 177.231 373.674 175.201 370.83L175.121 370.726C173.371 367.926 172.841 365.067 173.551 362.237C174.871 356.887 180.221 353.747 180.441 353.615C188.311 349.016 196.561 354.558 199.811 358.125L200.031 358.405C202.321 361.942 202.941 365.362 201.891 368.56C199.981 374.382 193.141 377.049 192.851 377.152C191.241 377.757 189.681 378.022 188.201 378.022H188.181ZM178.661 368.412C179.171 369.105 184.411 375.826 191.351 373.203C191.391 373.188 196.601 371.124 197.891 367.219C198.501 365.332 198.061 363.18 196.601 360.837C196.161 360.38 194.411 358.67 192.001 357.432C188.561 355.663 185.401 355.59 182.571 357.24C182.531 357.27 178.521 359.658 177.641 363.254C177.231 364.934 177.571 366.614 178.671 368.412H178.661Z" fill="#1A3C3D"/>
<path d="M265.412 391.817C265.412 391.817 253.702 392.524 252.542 403.77C252.542 403.77 249.732 414.072 263.302 415.251C263.302 415.251 275.012 415.959 277.122 404.949C277.122 404.949 282.502 390.431 265.412 391.831V391.817Z" fill="#1A3C3D"/>
<path d="M264 417.375C263.72 417.375 263.45 417.375 263.19 417.346C257.9 416.889 254.18 415.12 252.04 412.07C249.52 408.459 250.24 404.346 250.46 403.403C251.6 393.233 260.61 390.006 265.26 389.711C271.36 389.21 275.66 390.566 278.06 393.735C281.4 398.141 279.54 404.332 279.15 405.496C277.25 414.958 268.84 417.375 263.98 417.375H264ZM265.54 393.926C265.12 393.956 255.6 394.722 254.63 403.993L254.57 404.332C254.57 404.332 253.84 407.324 255.52 409.697C256.9 411.657 259.58 412.806 263.48 413.145C263.82 413.16 273.32 413.558 275.04 404.538L275.13 404.199C275.13 404.199 276.91 399.188 274.69 396.27C272.85 393.852 268.72 393.661 265.59 393.926H265.54Z" fill="#1A3C3D"/>
</g>
<mask id="mask2_4915_47534" style="mask-type:luminance" maskUnits="userSpaceOnUse" x="245" y="427" width="84" height="84">
<path d="M328.722 463.973L293.594 427L245.021 473.149L280.15 510.122L328.722 463.973Z" fill="white"/>
</mask>
<g mask="url(#mask2_4915_47534)">
<path d="M288.531 467.442C288.531 467.442 300.161 459.727 300.971 463.071C301.791 466.416 290.241 469.647 290.241 469.647L288.531 467.442Z" fill="#1A3C3D"/>
<path d="M289.311 468.308C289.311 468.308 279.811 451.994 271.821 456.931C271.821 456.931 265.001 460.266 269.621 469.488C274.231 478.71 285.511 494.282 291.951 488.895C298.391 483.508 293.771 475.435 289.301 468.291L289.311 468.308Z" fill="#1A3C3D"/>
<path d="M268.171 464.752C268.171 464.752 278.991 471.165 284.881 488.461C284.881 488.461 275.421 499.099 262.821 490.675C262.821 490.675 259.921 488.747 257.711 489.606C257.711 489.606 259.001 486.454 258.421 484.786C257.661 482.53 255.841 470.078 268.171 464.752Z" fill="#1C4648"/>
</g>
<path d="M340.099 450.881C340.099 450.881 340.979 468.551 340.369 471.301C340.369 471.301 331.059 460.721 323.729 467.211C323.729 467.211 318.399 473.131 325.149 477.851C325.149 477.851 333.989 483.161 340.899 478.261C340.899 478.261 340.599 489.571 340.549 491.891C340.549 491.891 333.419 482.081 325.979 486.881C325.979 486.881 321.689 490.821 326.949 497.891C326.949 497.891 332.219 503.531 340.349 499.561L340.039 511.581C340.039 511.581 339.829 513.221 342.659 513.881C342.659 513.881 345.409 514.041 345.759 511.021L346.089 498.391C346.089 498.391 352.849 505.591 359.569 500.861C359.569 500.861 366.589 497.151 364.909 491.021C364.879 490.931 364.859 490.841 364.829 490.741C362.859 484.451 355.889 484.801 352.549 486.411C352.549 486.411 347.239 488.591 345.919 491.141L346.319 478.941C346.319 478.941 351.459 483.441 359.099 481.051C359.099 481.051 367.279 478.051 365.719 471.511C365.719 471.511 363.379 463.961 354.229 465.951C354.229 465.951 347.759 468.011 346.149 471.801C346.149 471.801 345.949 455.581 345.249 451.721L340.099 450.871V450.881Z" fill="#1C4648"/>
<path d="M339.281 472.016L339.191 475.485L347.841 475.71L347.932 472.242L339.281 472.016Z" fill="#1C4648"/>
<path d="M338.969 493.133L338.879 496.602L347.539 496.827L347.629 493.358L338.969 493.133Z" fill="#1C4648"/>
<path d="M342.59 413.01C342.59 413.01 333.21 410.95 330.4 419.71C330.4 419.71 330.05 422.73 330.79 425.33C330.79 425.33 320.87 423.12 318.58 432.41C318.58 432.41 317.14 443.33 326.46 444.82C326.46 444.82 321.08 452.97 327.81 457.96C327.81 457.96 338.28 462.97 342.59 454.74C342.59 454.74 348.98 462.88 358.6 456.09C358.6 456.09 365.35 450.29 359.67 442.57C359.67 442.57 368.5 438.88 364.65 429.33C364.65 429.33 360.13 421.55 352.29 424.73C352.29 424.73 353.12 413.22 342.6 413.01H342.59Z" fill="#1A3C3D"/>
<path d="M349.918 437.002C349.808 441.302 346.308 444.702 342.108 444.592C337.908 444.482 334.588 440.902 334.698 436.602C334.808 432.302 338.308 428.902 342.518 429.002C346.718 429.112 350.038 432.692 349.928 436.992L349.918 437.002Z" fill="#1C4648"/>
<path d="M346.37 437.36C346.31 439.85 344.28 441.81 341.85 441.75C339.42 441.69 337.5 439.62 337.56 437.13C337.62 434.64 339.65 432.67 342.08 432.73C344.51 432.79 346.43 434.86 346.37 437.36Z" fill="#1A3C3D"/>
<mask id="mask3_4915_47534" style="mask-type:luminance" maskUnits="userSpaceOnUse" x="135" y="0" width="141" height="62">
<path d="M275.18 0H135.02V61.86H275.18V0Z" fill="white"/>
</mask>
<g mask="url(#mask3_4915_47534)">
<path d="M175.27 15.2206C175.27 15.2206 183.02 -1.47936 208.5 0.110643C233.97 1.69064 237.51 13.8506 237.51 13.8506C237.51 13.8506 254.87 9.65065 269.09 21.9806C269.09 21.9806 282.89 35.4706 268.93 48.8106C256.46 60.7306 234.33 57.5406 231.22 51.7206C231.22 51.7206 223.33 62.2206 205.34 61.8106C187.34 61.4006 181.12 49.2506 181.12 49.2506C181.12 49.2506 165.01 64.6406 144.56 51.1606C121.71 36.1106 143.02 3.73064 175.27 15.2206Z" fill="#1C4648"/>
<path d="M230.82 39.52C201.25 60.27 181.78 37.5 181.78 37.5C163.35 46.22 146.9 43.82 135.66 39.76C136.83 43.97 139.69 47.99 144.58 51.21C165.03 64.68 181.14 49.3 181.14 49.3C181.14 49.3 187.36 61.45 205.36 61.86C223.36 62.27 231.24 51.77 231.24 51.77C234.36 57.59 256.48 60.78 268.95 48.86C271.42 46.5 273.02 44.13 273.98 41.83C249.4 52.75 230.81 39.52 230.81 39.52H230.82Z" fill="#1A3C3D"/>
</g>
<path d="M-617.461 471.594C-606.626 498.783 -580.072 518 -549.028 518H-0.315491C34.9047 518 64.3547 493.261 71.6134 460.199C74.3193 460.649 77.0641 461.106 79.8516 461.571C105.538 465.851 134.841 470.733 170.58 475.912C461.04 518 342.83 518 342.83 518H-888.247C-901.757 518 -1006.46 513.49 -687.289 481.423C-667.859 479.471 -644.622 475.898 -617.461 471.594Z" fill="#1C4648"/>
</g>
<defs>
<clipPath id="clip0_4915_47534">
<rect width="367" height="518" fill="white"/>
</clipPath>
</defs>
</svg>
