<svg width="697" height="585" viewBox="0 0 697 585" fill="none" xmlns="http://www.w3.org/2000/svg">
<path d="M320.099 5.73121L46.1426 120.704C18.7832 132.181 0.984375 158.965 0.984375 188.65V511.319C0.984375 552.008 33.9522 585 74.628 585H623.341C664.009 585 696.984 552.016 696.984 511.319V188.693C696.984 158.987 679.156 132.188 651.768 120.726L377.005 5.7094C358.799 -1.91523 338.298 -1.9007 320.092 5.73848L320.099 5.73121Z" fill="#07496F"/>
<mask id="mask0_4915_48906" style="mask-type:alpha" maskUnits="userSpaceOnUse" x="0" y="0" width="697" height="585">
<path d="M320.099 5.73121L46.1426 120.704C18.7832 132.181 0.984375 158.965 0.984375 188.65V511.319C0.984375 552.008 33.9522 585 74.628 585H623.341C664.009 585 696.984 552.016 696.984 511.319V188.693C696.984 158.987 679.156 132.188 651.768 120.726L377.005 5.7094C358.799 -1.91523 338.298 -1.9007 320.092 5.73848L320.099 5.73121Z" fill="#07496F"/>
</mask>
<g mask="url(#mask0_4915_48906)">
<path d="M349.484 -1L349.484 584M399.484 -1L399.484 584M49.4844 -1L49.4844 584M449.484 -1L449.484 584M99.4844 -1L99.4844 584M499.484 -1L499.484 584M149.484 -1L149.484 584M549.484 -1L549.484 584M199.484 -1L199.484 584M599.484 -1V584M249.484 -1L249.484 584M649.484 -1V584M299.484 -1L299.484 584" stroke="#0C0541" stroke-width="4"/>
</g>
<rect x="294.484" y="78" width="117" height="32" rx="16" fill="#3AB6FF"/>
<path d="M315.496 100V88.3636H323.337V90.392H317.956V93.1648H322.933V95.1932H317.956V97.9716H323.359V100H315.496ZM324.813 100V88.3636H329.404C330.286 88.3636 331.038 88.5322 331.659 88.8693C332.28 89.2027 332.754 89.6667 333.08 90.2614C333.409 90.8523 333.574 91.5341 333.574 92.3068C333.574 93.0795 333.407 93.7614 333.074 94.3523C332.741 94.9432 332.258 95.4034 331.625 95.733C330.996 96.0625 330.235 96.2273 329.341 96.2273H326.415V94.2557H328.943C329.417 94.2557 329.807 94.1742 330.114 94.0114C330.424 93.8447 330.655 93.6155 330.807 93.3239C330.962 93.0284 331.04 92.6894 331.04 92.3068C331.04 91.9205 330.962 91.5833 330.807 91.2955C330.655 91.0038 330.424 90.7784 330.114 90.6193C329.803 90.4564 329.409 90.375 328.932 90.375H327.273V100H324.813ZM337.152 88.3636V100H334.692V88.3636H337.152ZM345.009 91.7102C344.963 91.2519 344.768 90.8958 344.424 90.642C344.079 90.3883 343.611 90.2614 343.02 90.2614C342.619 90.2614 342.28 90.3182 342.003 90.4318C341.727 90.5417 341.515 90.6951 341.367 90.892C341.223 91.089 341.151 91.3125 341.151 91.5625C341.143 91.7708 341.187 91.9527 341.282 92.108C341.38 92.2633 341.515 92.3977 341.685 92.5114C341.855 92.6212 342.052 92.7178 342.276 92.8011C342.499 92.8807 342.738 92.9489 342.992 93.0057L344.037 93.2557C344.545 93.3693 345.011 93.5208 345.435 93.7102C345.859 93.8996 346.227 94.1326 346.537 94.4091C346.848 94.6856 347.088 95.0114 347.259 95.3864C347.433 95.7614 347.522 96.1913 347.526 96.6761C347.522 97.3883 347.34 98.0057 346.98 98.5284C346.624 99.0473 346.109 99.4508 345.435 99.7386C344.765 100.023 343.956 100.165 343.009 100.165C342.069 100.165 341.251 100.021 340.554 99.733C339.861 99.4451 339.319 99.0189 338.929 98.4545C338.543 97.8864 338.34 97.1837 338.321 96.3466H340.702C340.729 96.7367 340.84 97.0625 341.037 97.3239C341.238 97.5814 341.505 97.7765 341.838 97.9091C342.176 98.0379 342.556 98.1023 342.98 98.1023C343.397 98.1023 343.759 98.0417 344.066 97.9205C344.376 97.7992 344.617 97.6307 344.787 97.4148C344.958 97.1989 345.043 96.9508 345.043 96.6705C345.043 96.4091 344.965 96.1894 344.81 96.0114C344.658 95.8333 344.435 95.6818 344.14 95.5568C343.848 95.4318 343.49 95.3182 343.066 95.2159L341.799 94.8977C340.818 94.6591 340.043 94.286 339.475 93.7784C338.907 93.2708 338.624 92.5871 338.628 91.7273C338.624 91.0227 338.812 90.4072 339.191 89.8807C339.573 89.3542 340.098 88.9432 340.765 88.6477C341.431 88.3523 342.189 88.2045 343.037 88.2045C343.901 88.2045 344.655 88.3523 345.299 88.6477C345.946 88.9432 346.45 89.3542 346.81 89.8807C347.17 90.4072 347.355 91.017 347.367 91.7102H345.009ZM359.394 94.1818C359.394 95.4508 359.153 96.5303 358.672 97.4205C358.195 98.3106 357.544 98.9905 356.718 99.4602C355.896 99.9261 354.972 100.159 353.945 100.159C352.911 100.159 351.983 99.9242 351.161 99.4545C350.339 98.9848 349.689 98.3049 349.212 97.4148C348.735 96.5246 348.496 95.447 348.496 94.1818C348.496 92.9129 348.735 91.8333 349.212 90.9432C349.689 90.053 350.339 89.375 351.161 88.9091C351.983 88.4394 352.911 88.2045 353.945 88.2045C354.972 88.2045 355.896 88.4394 356.718 88.9091C357.544 89.375 358.195 90.053 358.672 90.9432C359.153 91.8333 359.394 92.9129 359.394 94.1818ZM356.9 94.1818C356.9 93.3598 356.776 92.6667 356.53 92.1023C356.288 91.5379 355.945 91.1098 355.502 90.8182C355.059 90.5265 354.54 90.3807 353.945 90.3807C353.35 90.3807 352.831 90.5265 352.388 90.8182C351.945 91.1098 351.6 91.5379 351.354 92.1023C351.112 92.6667 350.991 93.3598 350.991 94.1818C350.991 95.0038 351.112 95.697 351.354 96.2614C351.6 96.8258 351.945 97.2538 352.388 97.5455C352.831 97.8371 353.35 97.983 353.945 97.983C354.54 97.983 355.059 97.8371 355.502 97.5455C355.945 97.2538 356.288 96.8258 356.53 96.2614C356.776 95.697 356.9 95.0038 356.9 94.1818ZM364.861 100H360.736V88.3636H364.895C366.066 88.3636 367.073 88.5966 367.918 89.0625C368.763 89.5246 369.412 90.1894 369.867 91.0568C370.325 91.9242 370.555 92.9621 370.555 94.1705C370.555 95.3826 370.325 96.4242 369.867 97.2955C369.412 98.1667 368.759 98.8352 367.907 99.3011C367.058 99.767 366.043 100 364.861 100ZM363.197 97.892H364.759C365.486 97.892 366.098 97.7633 366.594 97.5057C367.094 97.2443 367.469 96.8409 367.719 96.2955C367.973 95.7462 368.1 95.0379 368.1 94.1705C368.1 93.3106 367.973 92.608 367.719 92.0625C367.469 91.517 367.096 91.1155 366.6 90.858C366.104 90.6004 365.492 90.4716 364.765 90.4716H363.197V97.892ZM371.897 100V88.3636H379.738V90.392H374.357V93.1648H379.334V95.1932H374.357V97.9716H379.761V100H371.897ZM389.431 88.3636V100H386.971V90.6989H386.903L384.238 92.3693V90.1875L387.119 88.3636H389.431Z" fill="#0C0541"/>
<path d="M292.984 158.16H284.984L282.944 151.28H272.224L270.224 158.16H262.184L273.424 123.08H281.744L292.984 158.16ZM277.544 133.08L274.144 144.68H280.984L277.544 133.08ZM301.435 158.16H293.595V123.08H301.435V158.16ZM317.572 131.24C322.852 131.24 327.332 133.84 327.332 142.28V147.76C327.332 156.2 322.852 158.8 317.572 158.8C315.652 158.8 313.492 158.2 311.972 157V164.08H304.252V131.88H311.412V133.84C312.972 132.08 315.572 131.24 317.572 131.24ZM319.492 148.52V141.48C319.492 138.76 317.372 137.68 315.652 137.68C313.932 137.68 311.772 138.76 311.772 141.48V148.72C311.772 151.28 313.972 152.36 315.652 152.36C317.372 152.36 319.492 151.24 319.492 148.52ZM337.042 158.16H329.322V123.08H337.042V133.56C338.442 131.96 340.722 131.24 343.162 131.24C348.002 131.24 352.282 133.84 352.282 142.28V158.16H344.442V141.76C344.442 139.04 342.882 137.72 340.762 137.72C338.642 137.72 337.042 139 337.042 141.56V158.16ZM364.746 131.24C370.546 131.24 375.666 133.28 375.666 141.92V158.16H369.746L369.426 156.48C367.906 157.92 365.346 158.84 362.066 158.84C358.746 158.84 353.866 156.84 353.866 150.36C353.866 144.12 358.466 142.24 364.466 142.24H368.186V140.72C368.186 138.12 366.226 137.48 363.706 137.48C361.226 137.48 358.186 138.64 356.146 139.96L355.346 134.12C357.986 132.28 361.386 131.24 364.746 131.24ZM364.626 153.08C366.186 153.08 368.186 152.2 368.186 150.12V147.72H364.946C362.626 147.72 361.386 148.56 361.386 150.44C361.386 152.16 362.626 153.08 364.626 153.08ZM391.376 131.24C396.656 131.24 401.136 133.84 401.136 142.28V147.76C401.136 156.2 396.656 158.8 391.376 158.8C389.376 158.8 386.776 157.96 385.216 156.2V158.16H378.056V123.88H385.776V133.04C387.296 131.84 389.456 131.24 391.376 131.24ZM393.296 148.56V141.52C393.296 138.8 391.176 137.68 389.456 137.68C387.776 137.68 385.576 138.76 385.576 141.32V148.56C385.576 151.28 387.736 152.36 389.456 152.36C391.176 152.36 393.296 151.28 393.296 148.56ZM424.567 147.08H409.847V148.4C409.847 151.12 412.087 152.72 415.407 152.72C418.367 152.72 420.607 152 422.287 150.92L423.087 156.6C421.327 157.92 418.047 158.8 413.847 158.8C408.847 158.8 402.327 156.08 402.327 147.32V142.32C402.327 133.8 408.607 131.24 413.727 131.24C419.287 131.24 424.767 133.4 424.767 144C424.767 145.48 424.687 146.4 424.567 147.08ZM413.767 137.32C411.807 137.32 409.847 138.6 409.847 141.44V142.24H417.407V141.44C417.407 138.6 415.727 137.32 413.767 137.32ZM436.77 158.84C431.89 158.84 428.73 156.68 428.73 150.64V139.04H424.37V132.68H428.73V124.28H436.33V132.68H442.41V139.04H436.33V150.28C436.33 151.64 437.13 152.36 438.41 152.4C439.61 152.44 441.17 152.28 442.01 151.96L442.41 157.76C441.01 158.4 439.05 158.84 436.77 158.84Z" fill="#3AB6FF"/>
</svg>
