<svg width="256" height="418" viewBox="0 0 256 418" fill="none" xmlns="http://www.w3.org/2000/svg">
<g clip-path="url(#clip0_4915_47441)">
<mask id="mask0_4915_47441" style="mask-type:luminance" maskUnits="userSpaceOnUse" x="78" y="265" width="97" height="155">
<path d="M155.275 265L78 275.609L97.7233 419.262L174.998 408.652L155.275 265Z" fill="white"/>
</mask>
<g mask="url(#mask0_4915_47441)">
<path d="M122.527 314.614C122.412 314.63 122.298 314.645 122.188 314.637C121.21 314.638 120.312 314.097 119.858 313.22C117.363 308.399 113.246 288.146 112.792 285.854C112.503 284.431 113.416 283.046 114.836 282.757C116.25 282.477 117.626 283.391 117.916 284.822C119.133 290.859 121.041 299.492 122.642 305.273L132.274 286.105C132.928 284.811 134.496 284.298 135.782 284.951C137.068 285.611 137.588 287.19 136.935 288.485L124.515 313.199C124.124 313.972 123.381 314.497 122.542 314.612L122.527 314.614Z" fill="#362974"/>
<path d="M137.549 413.793C136.139 413.987 134.823 413.002 134.611 411.576C133.988 407.429 119.25 309.931 119.107 308.886C118.909 307.45 119.908 306.124 121.333 305.928C122.759 305.733 124.078 306.741 124.275 308.177C124.457 309.505 139.616 409.785 139.77 410.797C139.99 412.23 139.009 413.569 137.579 413.789L137.541 413.794L137.549 413.793Z" fill="#362974"/>
<path d="M123.979 330.343C123.414 330.421 122.825 330.314 122.301 330.002C118.961 328.02 114.84 323.516 110.039 316.61C106.563 311.603 104.033 307.202 103.93 307.02C103.206 305.758 103.637 304.15 104.882 303.432C106.134 302.704 107.732 303.142 108.448 304.397C111.183 309.162 119.471 322.231 124.942 325.478C126.184 326.215 126.601 327.832 125.871 329.082C125.45 329.805 124.742 330.246 123.972 330.352L123.979 330.343Z" fill="#362974"/>
<path d="M125.126 330.608C124.371 330.712 123.586 330.483 122.981 329.925C121.929 328.935 121.871 327.268 122.852 326.211C122.994 326.058 136.913 311.019 145.238 297.828C146.009 296.604 147.622 296.241 148.839 297.021C150.057 297.8 150.42 299.425 149.648 300.649C141.056 314.268 127.26 329.181 126.67 329.809C126.244 330.267 125.691 330.538 125.119 330.617L125.126 330.608Z" fill="#362974"/>
<path d="M127.319 349.529C126.267 349.673 125.186 349.157 124.653 348.158C121.378 341.958 101.234 326.198 93.7461 320.646C92.5865 319.781 92.3304 318.142 93.1867 316.968C94.0441 315.802 95.6712 315.547 96.8384 316.412C99.6911 318.524 124.835 337.321 129.262 345.695C129.943 346.978 129.455 348.571 128.182 349.254C127.899 349.402 127.609 349.497 127.312 349.538L127.319 349.529Z" fill="#362974"/>
<path d="M130.979 368.5C130.842 368.519 130.711 368.529 130.571 368.525C129.13 368.495 127.979 367.292 128.012 365.84C128.275 351.918 146.788 314.781 147.581 313.209C148.227 311.915 149.802 311.394 151.088 312.047C152.374 312.7 152.894 314.287 152.249 315.58C152.199 315.673 147.46 325.164 142.755 336.153C135.01 354.24 133.31 362.336 133.238 365.944C133.216 367.254 132.236 368.319 130.986 368.491L130.979 368.5Z" fill="#362974"/>
<path d="M129.148 364.151C127.891 364.324 126.674 363.552 126.302 362.312C125.198 360.101 113.676 350.058 96.1625 336.94C95.0029 336.075 94.761 334.426 95.6183 333.26C96.4757 332.094 98.1125 331.853 99.2718 332.719C99.3498 332.779 106.89 338.425 114.47 344.527C130.406 357.36 131.007 359.64 131.323 360.872C131.687 362.277 130.859 363.713 129.457 364.077C129.352 364.107 129.253 364.121 129.146 364.136L129.148 364.151ZM126.272 362.207C126.272 362.207 126.277 362.245 126.279 362.261C126.277 362.245 126.274 362.222 126.272 362.207Z" fill="#362974"/>
<path d="M101.636 297.947C101.636 297.947 93.1005 299.197 93.672 304.321C93.672 304.321 94.0329 309.326 100.543 309.785C100.543 309.785 109.459 310.126 109.87 304.742C109.87 304.742 111.853 297.248 101.643 297.946L101.636 297.947Z" fill="#362974"/>
<path d="M103.476 310.8C101.845 311.023 100.565 310.98 100.494 310.974C94.5256 310.55 92.6606 306.526 92.5055 304.435C92.3059 302.585 92.9224 300.005 96.9467 298.146C99.1381 297.133 101.368 296.803 101.466 296.782L101.557 296.77C105.475 296.506 108.262 297.351 109.841 299.286C111.652 301.502 111.161 304.323 111.02 304.937C110.848 306.846 109.703 309.311 105.337 310.435C104.699 310.6 104.063 310.719 103.476 310.8ZM101.765 299.127C101.467 299.168 99.6261 299.499 97.8883 300.309C95.6842 301.339 94.6597 302.645 94.8345 304.202L94.8409 304.248C94.8728 304.65 95.351 308.246 100.614 308.619C100.652 308.613 108.374 308.852 108.691 304.662L108.7 304.551L108.724 304.446C108.724 304.446 109.257 302.276 108.018 300.772C106.964 299.493 104.798 298.93 101.765 299.127Z" fill="#362974"/>
<path d="M133.508 279.309C133.508 279.309 123.273 280.848 124.618 289.402C124.618 289.402 125.103 299.044 133.942 299.043C133.942 299.043 143.19 299.197 144.56 290.341C144.56 290.341 147.687 277.926 133.508 279.309Z" fill="#362974"/>
<path d="M135.648 300.116C135.023 300.202 134.437 300.235 133.924 300.227C126.11 300.228 123.663 293.265 123.445 289.524C123.055 286.973 123.555 284.729 124.921 282.852C127.698 279.036 133.095 278.185 133.323 278.146L133.384 278.138C138.251 277.665 141.793 278.689 143.913 281.175C146.95 284.74 145.853 289.929 145.701 290.576C144.648 297.222 139.367 299.597 135.639 300.109L135.648 300.116ZM133.659 280.478C133.287 280.545 128.923 281.34 126.814 284.25C125.808 285.64 125.471 287.259 125.779 289.219L125.796 289.342C125.812 289.684 126.353 297.864 133.948 297.861C134.299 297.868 142.221 297.868 143.406 290.155L143.43 290.043C143.44 290.002 144.526 285.472 142.141 282.694C140.55 280.831 137.698 280.088 133.658 280.471L133.659 280.478Z" fill="#362974"/>
<path d="M92.9882 313.021C92.9882 313.021 84.688 314.341 85.4565 321.182C85.4565 321.182 86.007 327.851 92.3863 328.719C92.3863 328.719 101.118 329.523 101.303 322.386C101.303 322.386 102.952 312.506 92.9882 313.021Z" fill="#362974"/>
<path d="M95.1267 329.79C93.5792 330.003 92.377 329.902 92.2747 329.892L92.2269 329.883C86.4415 329.097 84.5022 323.911 84.2799 321.273C83.5752 315.01 89.5424 312.368 92.7956 311.851L92.9176 311.834C96.2334 311.66 98.761 312.534 100.443 314.431C103.071 317.395 102.563 321.783 102.464 322.477C102.395 324.63 101.632 326.37 100.2 327.654C98.6923 329.003 96.7255 329.555 95.1247 329.775L95.1267 329.79ZM92.5039 327.545C92.8097 327.566 96.5384 327.797 98.6462 325.896C99.6 325.038 100.085 323.876 100.124 322.345L100.14 322.178C100.14 322.178 100.741 318.301 98.6847 315.994C97.5097 314.677 95.6405 314.073 93.1085 314.186C92.3809 314.317 86.005 315.623 86.6089 321.04C86.6295 321.303 87.1809 326.79 92.5018 327.53L92.5039 327.545Z" fill="#362974"/>
<path d="M150.167 290.627C150.167 290.627 141.867 291.946 142.636 298.788C142.636 298.788 143.186 305.456 149.565 306.325C149.565 306.325 158.297 307.129 158.482 299.992C158.482 299.992 160.131 290.111 150.167 290.627Z" fill="#362974"/>
<path d="M152.307 307.396C150.759 307.608 149.557 307.507 149.455 307.498L149.407 307.489C143.62 306.695 141.681 301.509 141.46 298.879C140.755 292.615 146.722 289.973 149.975 289.456L150.097 289.439C153.413 289.266 155.941 290.139 157.623 292.036C160.251 295 159.743 299.389 159.644 300.083C159.575 302.236 158.812 303.976 157.38 305.26C155.872 306.609 153.905 307.161 152.304 307.381L152.307 307.396ZM149.691 305.15C149.997 305.17 153.726 305.402 155.834 303.501C156.788 302.642 157.273 301.48 157.311 299.949L157.327 299.783C157.327 299.783 157.929 295.906 155.872 293.599C154.697 292.281 152.828 291.677 150.296 291.79C149.568 291.922 143.192 293.227 143.796 298.644C143.817 298.907 144.368 304.394 149.689 305.134L149.691 305.15Z" fill="#362974"/>
<path d="M96.7995 331.627C96.7995 331.627 88.2646 332.877 88.8361 338.001C88.8361 338.001 89.197 343.005 95.7065 343.465C95.7065 343.465 104.622 343.806 105.033 338.422C105.033 338.422 107.017 330.928 96.8071 331.626L96.7995 331.627Z" fill="#362974"/>
<path d="M98.6402 344.47C97.0089 344.694 95.7292 344.65 95.6584 344.644C89.6897 344.22 87.8247 340.197 87.6696 338.105C87.47 336.255 88.0865 333.675 92.1108 331.816C94.3018 330.803 96.5321 330.473 96.6302 330.452L96.7217 330.44C100.639 330.176 103.426 331.021 105.005 332.956C106.816 335.172 106.325 337.993 106.184 338.607C106.012 340.516 104.867 342.981 100.501 344.105C99.8631 344.27 99.2271 344.389 98.6402 344.47ZM96.9289 332.797C96.6316 332.838 94.7897 333.169 93.0524 333.979C90.8483 335.009 89.8238 336.315 89.9986 337.872L90.005 337.918C90.0369 338.32 90.5151 341.916 95.7777 342.289C95.8158 342.283 103.538 342.522 103.855 338.332L103.864 338.221L103.888 338.116C103.888 338.116 104.421 335.946 103.182 334.442C102.128 333.163 99.9621 332.6 96.9289 332.797Z" fill="#362974"/>
<path d="M112.102 272.117C112.102 272.117 101.867 273.655 103.212 282.209C103.212 282.209 103.697 291.852 112.535 291.851C112.535 291.851 121.784 292.005 123.154 283.148C123.154 283.148 126.28 270.734 112.102 272.117Z" fill="#362974"/>
<path d="M114.242 292.923C113.617 293.008 113.031 293.042 112.517 293.034C104.704 293.035 102.257 286.072 102.038 282.331C101.649 279.779 102.149 277.536 103.514 275.658C106.298 271.834 111.695 270.983 111.924 270.952L111.985 270.944C116.852 270.471 120.395 271.494 122.514 273.981C125.551 277.546 124.454 282.735 124.302 283.382C123.25 290.027 117.968 292.403 114.241 292.915L114.242 292.923ZM112.253 273.293C111.882 273.36 107.517 274.154 105.408 277.065C104.403 278.455 104.066 280.073 104.374 282.034L104.391 282.157C104.407 282.499 104.947 290.678 112.543 290.676C112.893 290.683 120.815 290.682 122.001 282.97L122.025 282.857C122.035 282.817 123.121 278.286 120.736 275.508C119.144 273.645 116.293 272.903 112.252 273.285L112.253 273.293Z" fill="#362974"/>
<path d="M150.738 308.473C150.738 308.473 142.438 309.792 143.206 316.634C143.206 316.634 143.757 323.302 150.136 324.171C150.136 324.171 158.867 324.975 159.053 317.838C159.053 317.838 160.702 307.958 150.738 308.473Z" fill="#362974"/>
<path d="M152.885 325.248C151.337 325.46 150.135 325.359 150.033 325.35L149.985 325.341C144.199 324.547 142.259 319.36 142.038 316.731C141.333 310.467 147.3 307.825 150.554 307.308L150.676 307.291C153.992 307.117 156.519 307.991 158.201 309.888C160.829 312.852 160.321 317.24 160.222 317.935C160.153 320.088 159.39 321.828 157.958 323.111C156.45 324.461 154.483 325.012 152.883 325.232L152.885 325.248ZM150.261 322.995C150.567 323.015 154.295 323.247 156.403 321.346C157.357 320.487 157.842 319.325 157.881 317.794L157.897 317.628C157.897 317.628 158.498 313.751 156.442 311.444C155.267 310.126 153.398 309.523 150.866 309.635C150.138 309.767 143.762 311.072 144.366 316.489C144.387 316.752 144.938 322.239 150.259 322.979L150.261 322.995Z" fill="#362974"/>
</g>
<path d="M152.258 35.092C153.023 33.735 154.977 33.735 155.742 35.092L159.423 41.622C159.708 42.128 160.199 42.485 160.769 42.6L168.116 44.082C169.644 44.391 170.248 46.249 169.193 47.396L164.121 52.914C163.727 53.342 163.539 53.92 163.606 54.497L164.467 61.943C164.646 63.491 163.064 64.64 161.648 63.991L154.832 60.872C154.304 60.63 153.696 60.63 153.168 60.872L146.352 63.991C144.936 64.64 143.354 63.491 143.533 61.943L144.394 54.497C144.461 53.92 144.273 53.342 143.879 52.914L138.807 47.396C137.752 46.249 138.356 44.391 139.884 44.082L147.231 42.6C147.801 42.485 148.292 42.128 148.577 41.622L152.258 35.092Z" fill="#362974"/>
<path d="M98.2575 93.092C99.0228 91.735 100.977 91.735 101.742 93.092L105.423 99.622C105.708 100.128 106.199 100.485 106.769 100.6L114.116 102.082C115.644 102.391 116.248 104.249 115.193 105.396L110.121 110.914C109.727 111.342 109.539 111.92 109.606 112.497L110.467 119.943C110.646 121.491 109.064 122.64 107.648 121.991L100.832 118.872C100.304 118.63 99.6958 118.63 99.1678 118.872L92.3523 121.991C90.9355 122.64 89.3543 121.491 89.5332 119.943L90.3937 112.497C90.4604 111.92 90.2726 111.342 89.8792 110.914L84.8067 105.396C83.7523 104.249 84.3562 102.391 85.8835 102.082L93.2305 100.6C93.8003 100.485 94.2919 100.128 94.5773 99.622L98.2575 93.092Z" fill="#362974"/>
<path d="M49.2575 1.09197C50.0225 -0.265031 51.9771 -0.265031 52.7421 1.09197L56.4223 7.62197C56.7077 8.12797 57.1993 8.48496 57.7691 8.59996L65.1161 10.082C66.6433 10.391 67.2473 12.249 66.1929 13.396L61.1204 18.914C60.727 19.342 60.5392 19.92 60.6059 20.497L61.4664 27.943C61.6453 29.491 60.0641 30.64 58.6473 29.991L51.8321 26.872C51.3036 26.63 50.696 26.63 50.1675 26.872L43.3523 29.991C41.9355 30.64 40.3543 29.491 40.5332 27.943L41.3937 20.497C41.4604 19.92 41.2726 19.342 40.8792 18.914L35.8067 13.396C34.7523 12.249 35.3562 10.391 36.8835 10.082L44.2305 8.59996C44.8003 8.48496 45.2919 8.12797 45.5773 7.62197L49.2575 1.09197Z" fill="#362974"/>
<path d="M54.7658 402.128C54.7658 402.128 57.267 392.754 77.0427 384.423C95.8822 376.476 80.6172 368.474 80.6172 368.474C80.6172 368.474 64.8421 362.692 53.788 384.068C53.788 384.068 50.9383 373.081 65.429 365.19C65.429 365.19 82.4222 360.688 78.269 351.276C74.1159 341.864 51.4674 355.613 48.4858 362.423C45.5042 369.233 49.5803 347.074 59.5516 337.421C59.5655 337.42 64.6024 325.339 51.9495 325.794C51.9495 325.794 41.7437 325.3 42.6374 350.265C42.6374 350.265 37.4619 326.069 18.8832 332.892C18.8832 332.892 14.5416 336.924 18.1963 344.931C18.1963 344.931 24.0605 349.457 33.0653 352.617C33.0653 352.617 42.432 355.728 42.7793 363.326C42.7793 363.326 24.8892 350.479 13.0577 363.579C13.0577 363.579 7.70578 376.056 22.8045 374.638C22.8045 374.638 42.4916 368.064 47.5575 387.192C47.5575 387.192 38.0714 375.009 20.8984 381.347C20.8984 381.347 13.5784 384.573 21.1073 395.121C21.1073 395.121 25.3306 397.63 36.5436 397.296C47.7566 396.962 49.01 402.655 49.01 402.655L54.7645 402.114L54.7658 402.128Z" fill="#362974"/>
<path d="M211.112 310.623C211.112 310.623 213.383 293.523 205.09 287.674C201.208 284.921 195.504 286.138 193.18 290.321C192.863 290.903 192.599 291.538 192.414 292.226" fill="#362974"/>
<path d="M222.678 307.552C222.678 307.552 228.461 286.774 217.237 285.424C217.237 285.424 209.077 283.73 207.387 292.915" fill="#362974"/>
<path d="M220.645 288.494C220.645 288.494 225.056 280.659 236.966 288.494C248.877 296.329 215.205 344.026 215.205 344.026L200.918 342.332C200.918 342.332 199.571 319.516 179.843 310.993C160.115 302.47 184.94 274.545 197.511 299.399C197.511 299.399 200.574 306.546 201.578 311.31" fill="#362974"/>
<path d="M221.989 290.875H192.754V313.691H221.989V290.875Z" fill="#362974"/>
<path d="M215.5 300H203.5V399H215.5V300Z" fill="#362974"/>
<path d="M247.657 379.497C241.747 380.246 236.124 380.894 230.784 381.423C-92.8643 413.49 13.3049 418 27.0049 418H257.004C251.788 417.649 247.657 413.296 247.657 407.992V379.497Z" fill="#362974"/>
<path d="M1049.69 418H1275.36C1275.36 418 1395.23 418 1100.7 375.912C1085.77 373.779 1071.95 371.697 1059.04 369.686V407.992C1059.04 413.296 1054.91 417.649 1049.69 418Z" fill="#362974"/>
</g>
<defs>
<clipPath id="clip0_4915_47441">
<rect width="256" height="418" fill="white"/>
</clipPath>
</defs>
</svg>
