<svg width="367" height="518" viewBox="0 0 367 518" fill="none" xmlns="http://www.w3.org/2000/svg">
<g clip-path="url(#clip0_4866_71247)">
<mask id="mask0_4866_71247" style="mask-type:luminance" maskUnits="userSpaceOnUse" x="88" y="228" width="96" height="242">
<path d="M183.02 228H88.0195V470H183.02V228Z" fill="white"/>
</mask>
<g mask="url(#mask0_4866_71247)">
<path d="M126.361 254.915C126.361 254.915 128.801 224.309 116.051 228.364C116.051 228.364 106.841 232.966 114.701 257.348C114.701 257.348 107.651 238.925 100.861 245.43C100.861 245.43 93.2707 251.389 108.181 267.909C108.181 267.909 97.6106 256.256 92.7206 262.761C92.7206 262.761 85.1306 268.985 110.621 286.878C110.621 286.878 94.3506 273.868 90.2906 287.689C90.2906 287.689 86.2306 293.648 106.561 307.188C106.561 307.188 91.6506 298.25 89.2106 306.642C89.2106 306.642 84.0606 314.504 110.901 326.422C110.901 326.422 91.6506 313.958 88.1206 323.443C88.1206 323.443 85.4007 330.213 108.181 340.773C108.181 340.773 92.1806 333.739 91.3606 341.849C91.3606 341.849 85.9506 347.262 107.641 357.012C107.641 357.012 92.1806 348.338 91.9106 358.088C91.9106 358.088 91.3606 366.215 108.451 373.531C108.451 373.531 94.3506 365.95 91.9106 371.628C91.9106 371.628 87.8506 378.944 110.901 387.071C110.901 387.071 100.861 383.546 98.7106 390.862C98.7106 390.862 92.1907 398.724 127.171 410.361C127.171 410.361 135.041 453.431 133.691 469.421L146.711 469.967V406.852C146.711 406.852 181.141 401.704 178.711 391.954C178.711 391.954 178.441 380.847 155.661 391.954C155.661 391.954 181.431 384.373 179.521 374.624C179.521 374.624 177.901 364.593 153.751 376.527C153.751 376.527 180.601 365.42 178.711 356.747C178.711 356.747 177.631 343.736 152.941 357.558C152.941 357.558 181.691 346.997 180.071 338.87C180.071 338.87 178.161 327.217 157.831 339.135C157.831 339.135 183.601 329.385 182.791 324.784C182.791 324.784 187.391 311.508 157.021 326.952C157.021 326.952 185.221 313.13 182.241 306.907C182.241 306.907 180.611 294.989 157.021 307.718C157.021 307.718 185.221 294.443 181.691 287.937C181.691 287.937 180.071 275.473 158.911 292.539C158.911 292.539 181.961 273.57 175.731 265.989C175.731 265.989 169.211 251.356 151.051 275.192C151.051 275.192 167.321 248.376 159.741 243.775C159.741 243.775 150.521 235.647 141.841 261.387C141.841 261.387 149.161 231.311 136.421 231.592C136.421 231.592 127.471 226.99 126.381 254.882L126.361 254.915Z" fill="#E7FCE3"/>
</g>
<mask id="mask1_4866_71247" style="mask-type:luminance" maskUnits="userSpaceOnUse" x="161" y="319" width="120" height="165">
<path d="M280.02 319H161.02V484H280.02V319Z" fill="white"/>
</mask>
<g mask="url(#mask1_4866_71247)">
<path d="M217.912 342.346C217.912 342.346 218.622 367.991 218.262 366.945C217.912 365.898 194.752 352.545 194.752 352.545L186.682 359.929L216.172 381.006L216.532 397.513L184.242 381.006L180.032 390.851L216.192 411.235V429.157L178.632 417.558L176.172 427.403L215.832 442.157L216.542 481.863L230.232 481.509L231.292 444.264L259.022 428.803L259.372 417.204L233.052 429.496L232.342 415.096L260.072 397.881L258.312 386.99L230.232 402.45L230.592 385.589L257.272 369.421L252.002 360.637L229.172 372.236L228.472 341.668L217.942 342.375L217.912 342.346Z" fill="#E7FCE3"/>
<path d="M223.301 321.137C223.301 321.137 208.561 323.009 208.561 334.019C208.561 334.019 207.401 347.136 219.561 349.008C219.561 349.008 233.371 351.116 235.001 338.234C235.001 338.234 239.921 320.194 223.301 321.137Z" fill="#D1F5CA"/>
<path d="M221.662 351.248C220.272 351.248 219.342 351.116 219.232 351.101C208.132 349.391 206.012 339.177 206.452 333.93C206.512 323.82 217.322 319.781 223.032 319.044H223.182C228.472 318.735 232.432 320.164 234.932 323.26C239.352 328.713 237.392 337.335 237.072 338.632C236.512 342.788 234.752 346.001 231.852 348.197C228.442 350.777 224.262 351.248 221.662 351.248ZM223.492 323.245C223.002 323.319 219.842 323.834 216.782 325.382C212.712 327.445 210.652 330.349 210.652 334.019V334.21C210.612 334.653 209.832 345.382 219.872 346.93C219.912 346.93 225.522 347.726 229.342 344.822C231.312 343.319 232.522 341.02 232.902 337.969L232.962 337.674C232.962 337.674 234.972 329.995 231.652 325.898C230.042 323.923 227.302 323.024 223.492 323.23V323.245Z" fill="#D1F5CA"/>
<path d="M174.472 411.029C174.472 411.029 163.152 412.473 163.152 420.918C163.152 420.918 162.252 431 171.602 432.429C171.602 432.429 182.202 434.051 183.472 424.146C183.472 424.146 187.242 410.292 174.492 411.014L174.472 411.029Z" fill="#D1F5CA"/>
<path d="M173.211 434.64C172.101 434.64 171.371 434.537 171.281 434.522C165.421 433.623 162.931 429.85 161.881 426.843C160.911 424.043 161.021 421.419 161.051 420.845C161.101 412.738 169.671 409.511 174.211 408.936H174.361C178.581 408.67 181.761 409.835 183.791 412.355C187.301 416.688 185.811 423.439 185.531 424.559C185.081 427.875 183.681 430.44 181.351 432.193C178.611 434.257 175.281 434.625 173.211 434.625V434.64ZM174.681 413.122C174.271 413.181 171.931 413.578 169.671 414.728C166.701 416.246 165.261 418.265 165.261 420.918V421.11C165.181 421.935 164.801 429.26 171.931 430.351C171.961 430.351 176.081 430.926 178.831 428.818C180.261 427.728 181.081 426.121 181.381 423.896L181.441 423.601C181.851 422.038 182.511 417.44 180.531 414.993C179.411 413.608 177.431 412.989 174.691 413.122H174.681Z" fill="#D1F5CA"/>
<path d="M265.88 353.474C265.88 353.474 253.94 350.659 249.73 359.561C249.73 359.561 244.81 369.863 253.94 373.843C253.94 373.843 264.23 377.586 269.62 369.863C269.62 369.863 277.57 358.382 265.88 353.459V353.474Z" fill="#D1F5CA"/>
<path d="M259.46 376.864C257 376.864 254.76 376.393 253.23 375.833L253.12 375.788C250.1 374.477 248.04 372.413 247.02 369.687C245.09 364.528 247.73 358.898 247.84 358.662C251.75 350.408 261.67 350.32 266.37 351.425L266.71 351.528C270.58 353.164 273.02 355.626 273.96 358.868C275.67 364.749 271.53 370.821 271.36 371.072C268.24 375.553 263.54 376.864 259.46 376.864ZM254.72 371.883C255.53 372.163 263.66 374.742 267.9 368.655C267.93 368.611 271.06 363.968 269.92 360.018C269.36 358.117 267.78 356.584 265.25 355.478C264.61 355.361 262.21 354.933 259.52 355.272C255.69 355.744 253.04 357.483 251.63 360.445C251.61 360.49 249.65 364.734 250.95 368.198C251.55 369.819 252.79 371.013 254.71 371.868L254.72 371.883Z" fill="#D1F5CA"/>
<path d="M253.23 422.702C253.23 422.702 255.65 434.729 265.48 434.861C265.48 434.861 276.889 435.038 276.699 425.075C276.699 425.075 275.82 414.139 266.56 412.458C266.56 412.458 252.82 409.997 253.22 422.687L253.23 422.702Z" fill="#D1F5CA"/>
<path d="M265.542 436.969H265.472C256.342 436.851 252.132 427.86 251.192 423.114L251.142 422.761C251.012 418.56 252.232 415.303 254.782 413.092C259.422 409.083 266.652 410.321 266.942 410.38C275.532 411.942 278.472 420.55 278.812 424.898V425.03C278.882 428.332 277.872 431.059 275.802 433.122C272.092 436.836 266.292 436.969 265.532 436.969H265.542ZM255.342 422.451C255.662 423.822 257.992 432.665 265.532 432.754C265.572 432.754 270.242 432.768 272.852 430.145C274.072 428.921 274.642 427.3 274.612 425.193C274.522 424.338 273.492 415.863 266.192 414.536C266.152 414.536 260.612 413.608 257.522 416.305C256.022 417.617 255.282 419.68 255.342 422.451Z" fill="#D1F5CA"/>
<path d="M183.992 375.494C183.992 375.494 172.042 372.679 167.832 381.581C167.832 381.581 162.922 391.883 172.042 395.863C172.042 395.863 182.342 399.606 187.732 391.883C187.732 391.883 195.682 380.402 183.992 375.479V375.494Z" fill="#D1F5CA"/>
<path d="M177.55 398.884C175.09 398.884 172.85 398.398 171.32 397.852L171.21 397.808C168.19 396.496 166.13 394.433 165.11 391.706C163.18 386.548 165.82 380.917 165.93 380.682C169.84 372.428 179.76 372.34 184.46 373.445L184.8 373.548C188.67 375.184 191.11 377.645 192.05 380.888C193.76 386.769 189.62 392.841 189.45 393.092C186.33 397.572 181.63 398.884 177.55 398.884ZM172.82 393.902C173.63 394.182 181.76 396.776 186 390.674C186.03 390.63 189.17 385.988 188.02 382.038C187.46 380.136 185.88 378.603 183.35 377.498C182.72 377.38 180.32 376.953 177.62 377.292C173.8 377.763 171.15 379.503 169.73 382.465C169.72 382.509 167.76 386.754 169.06 390.218C169.66 391.839 170.9 393.033 172.81 393.888L172.82 393.902Z" fill="#D1F5CA"/>
<path d="M198.25 349.524C198.25 349.524 189.99 340.46 181.5 345.412C181.5 345.412 171.63 351.13 176.9 359.591C176.9 359.591 183.28 368.507 192.08 365.176C192.08 365.176 205.13 360.21 198.25 349.524Z" fill="#D1F5CA"/>
<path d="M188.181 368.021C182.101 368.021 177.231 363.673 175.201 360.829L175.121 360.725C173.371 357.925 172.841 355.066 173.551 352.236C174.871 346.886 180.221 343.746 180.441 343.614C188.311 339.015 196.561 344.557 199.811 348.124L200.031 348.404C202.321 351.941 202.941 355.361 201.891 358.559C199.981 364.381 193.141 367.048 192.851 367.151C191.241 367.756 189.681 368.021 188.201 368.021H188.181ZM178.661 358.411C179.171 359.104 184.411 365.825 191.351 363.202C191.391 363.187 196.601 361.123 197.891 357.218C198.501 355.331 198.061 353.179 196.601 350.836C196.161 350.379 194.411 348.669 192.001 347.431C188.561 345.662 185.401 345.589 182.571 347.239C182.531 347.269 178.521 349.657 177.641 353.253C177.231 354.933 177.571 356.613 178.671 358.411H178.661Z" fill="#D1F5CA"/>
<path d="M265.412 381.817C265.412 381.817 253.702 382.524 252.542 393.77C252.542 393.77 249.732 404.072 263.302 405.251C263.302 405.251 275.012 405.959 277.122 394.949C277.122 394.949 282.502 380.431 265.412 381.831V381.817Z" fill="#D1F5CA"/>
<path d="M264 407.373C263.72 407.373 263.45 407.373 263.19 407.344C257.9 406.887 254.18 405.118 252.04 402.068C249.52 398.457 250.24 394.344 250.46 393.401C251.6 383.231 260.61 380.004 265.26 379.709C271.36 379.208 275.66 380.564 278.06 383.733C281.4 388.139 279.54 394.33 279.15 395.494C277.25 404.956 268.84 407.373 263.98 407.373H264ZM265.54 383.924C265.12 383.954 255.6 384.72 254.63 393.991L254.57 394.33C254.57 394.33 253.84 397.322 255.52 399.695C256.9 401.655 259.58 402.804 263.48 403.143C263.82 403.158 273.32 403.556 275.04 394.536L275.13 394.197C275.13 394.197 276.91 389.186 274.69 386.268C272.85 383.85 268.72 383.659 265.59 383.924H265.54Z" fill="#D1F5CA"/>
</g>
<mask id="mask2_4866_71247" style="mask-type:luminance" maskUnits="userSpaceOnUse" x="245" y="417" width="84" height="84">
<path d="M328.722 453.973L293.594 417L245.021 463.149L280.15 500.122L328.722 453.973Z" fill="white"/>
</mask>
<g mask="url(#mask2_4866_71247)">
<path d="M288.531 457.442C288.531 457.442 300.161 449.727 300.971 453.071C301.791 456.416 290.241 459.647 290.241 459.647L288.531 457.442Z" fill="#D1F5CA"/>
<path d="M289.311 458.308C289.311 458.308 279.811 441.994 271.821 446.931C271.821 446.931 265.001 450.266 269.621 459.488C274.231 468.71 285.511 484.282 291.951 478.895C298.391 473.508 293.771 465.435 289.301 458.291L289.311 458.308Z" fill="#D1F5CA"/>
<path d="M268.171 454.753C268.171 454.753 278.991 461.166 284.881 478.462C284.881 478.462 275.421 489.1 262.821 480.676C262.821 480.676 259.921 478.748 257.711 479.607C257.711 479.607 259.001 476.455 258.421 474.787C257.661 472.531 255.841 460.079 268.171 454.753Z" fill="#E7FCE3"/>
</g>
<path d="M340.099 440.88C340.099 440.88 340.979 458.55 340.369 461.3C340.369 461.3 331.059 450.72 323.729 457.21C323.729 457.21 318.399 463.13 325.149 467.85C325.149 467.85 333.989 473.16 340.899 468.26C340.899 468.26 340.599 479.57 340.549 481.89C340.549 481.89 333.419 472.08 325.979 476.88C325.979 476.88 321.689 480.82 326.949 487.89C326.949 487.89 332.219 493.53 340.349 489.56L340.039 501.58C340.039 501.58 339.829 503.22 342.659 503.88C342.659 503.88 345.409 504.04 345.759 501.02L346.089 488.39C346.089 488.39 352.849 495.59 359.569 490.86C359.569 490.86 366.589 487.15 364.909 481.02C364.879 480.93 364.859 480.84 364.829 480.74C362.859 474.45 355.889 474.8 352.549 476.41C352.549 476.41 347.239 478.59 345.919 481.14L346.319 468.94C346.319 468.94 351.459 473.44 359.099 471.05C359.099 471.05 367.279 468.05 365.719 461.51C365.719 461.51 363.379 453.96 354.229 455.95C354.229 455.95 347.759 458.01 346.149 461.8C346.149 461.8 345.949 445.58 345.249 441.72L340.099 440.87V440.88Z" fill="#E7FCE3"/>
<path d="M339.281 462.015L339.191 465.484L347.841 465.709L347.932 462.241L339.281 462.015Z" fill="#E7FCE3"/>
<path d="M338.969 483.134L338.879 486.603L347.539 486.828L347.629 483.359L338.969 483.134Z" fill="#E7FCE3"/>
<path d="M342.59 403.01C342.59 403.01 333.21 400.95 330.4 409.71C330.4 409.71 330.05 412.73 330.79 415.33C330.79 415.33 320.87 413.12 318.58 422.41C318.58 422.41 317.14 433.33 326.46 434.82C326.46 434.82 321.08 442.97 327.81 447.96C327.81 447.96 338.28 452.97 342.59 444.74C342.59 444.74 348.98 452.88 358.6 446.09C358.6 446.09 365.35 440.29 359.67 432.57C359.67 432.57 368.5 428.88 364.65 419.33C364.65 419.33 360.13 411.55 352.29 414.73C352.29 414.73 353.12 403.22 342.6 403.01H342.59Z" fill="#D1F5CA"/>
<path d="M349.918 427.002C349.808 431.302 346.308 434.702 342.108 434.592C337.908 434.482 334.588 430.902 334.698 426.602C334.808 422.302 338.308 418.902 342.518 419.002C346.718 419.112 350.038 422.692 349.928 426.992L349.918 427.002Z" fill="#E7FCE3"/>
<path d="M346.37 427.36C346.31 429.85 344.28 431.81 341.85 431.75C339.42 431.69 337.5 429.62 337.56 427.13C337.62 424.64 339.65 422.67 342.08 422.73C344.51 422.79 346.43 424.86 346.37 427.36Z" fill="#D1F5CA"/>
<mask id="mask3_4866_71247" style="mask-type:luminance" maskUnits="userSpaceOnUse" x="135" y="0" width="141" height="62">
<path d="M275.18 0H135.02V61.86H275.18V0Z" fill="white"/>
</mask>
<g mask="url(#mask3_4866_71247)">
<path d="M175.27 15.2202C175.27 15.2202 183.02 -1.47985 208.5 0.110154C233.97 1.69015 237.51 13.8502 237.51 13.8502C237.51 13.8502 254.87 9.65016 269.09 21.9802C269.09 21.9802 282.89 35.4701 268.93 48.8102C256.46 60.7301 234.33 57.5402 231.22 51.7202C231.22 51.7202 223.33 62.2201 205.34 61.8102C187.34 61.4002 181.12 49.2502 181.12 49.2502C181.12 49.2502 165.01 64.6402 144.56 51.1602C121.71 36.1102 143.02 3.73015 175.27 15.2202Z" fill="#F3FFF0"/>
<path d="M230.82 39.52C201.25 60.27 181.78 37.5 181.78 37.5C163.35 46.22 146.9 43.82 135.66 39.76C136.83 43.97 139.69 47.99 144.58 51.21C165.03 64.68 181.14 49.3 181.14 49.3C181.14 49.3 187.36 61.45 205.36 61.86C223.36 62.27 231.24 51.77 231.24 51.77C234.36 57.59 256.48 60.78 268.95 48.86C271.42 46.5 273.02 44.13 273.98 41.83C249.4 52.75 230.81 39.52 230.81 39.52H230.82Z" fill="#ECFFE7"/>
</g>
<path d="M-617.461 471.595C-606.626 498.783 -580.072 518 -549.028 518H-0.315491C34.9047 518 64.3547 493.262 71.6134 460.2C74.3193 460.65 77.0641 461.107 79.8516 461.571C105.538 465.851 134.841 470.733 170.58 475.912C461.04 518 342.83 518 342.83 518H-888.247C-901.757 518 -1006.46 513.49 -687.289 481.423C-667.859 479.471 -644.622 475.898 -617.461 471.595Z" fill="#E7FCE3"/>
</g>
<defs>
<clipPath id="clip0_4866_71247">
<rect width="367" height="518" fill="white"/>
</clipPath>
</defs>
</svg>
