<svg width="366" height="455" viewBox="0 0 366 455" fill="none" xmlns="http://www.w3.org/2000/svg">
<g clip-path="url(#clip0_4915_47579)">
<path d="M297.539 408.594C308.374 435.783 334.928 455 365.972 455H914.685C949.905 455 979.355 430.261 986.613 397.199C989.319 397.649 992.064 398.106 994.852 398.571C1020.54 402.851 1049.84 407.733 1085.58 412.912C1376.04 455 1257.83 455 1257.83 455H26.7529C13.2427 455 -91.4565 450.49 227.711 418.423C247.141 416.471 270.378 412.898 297.539 408.594Z" fill="#1C4648"/>
<path d="M297.539 408.594C308.374 435.783 334.928 455 365.972 455H914.685C949.905 455 979.355 430.261 986.613 397.199C989.319 397.649 992.064 398.106 994.852 398.571C1020.54 402.851 1049.84 407.733 1085.58 412.912C1376.04 455 1257.83 455 1257.83 455H26.7529C13.2427 455 -91.4565 450.49 227.711 418.423C247.141 416.471 270.378 412.898 297.539 408.594Z" fill="#1C4648"/>
<mask id="mask0_4915_47579" style="mask-type:luminance" maskUnits="userSpaceOnUse" x="63" y="244" width="102" height="188">
<path d="M164.559 244H63.1895V431.08H164.559V244Z" fill="white"/>
</mask>
<g mask="url(#mask0_4915_47579)">
<path d="M113.623 301.67C113.473 301.67 113.323 301.67 113.183 301.64C111.923 301.47 110.863 300.62 110.433 299.42C108.073 292.82 106.353 266.21 106.173 263.2C106.053 261.33 107.473 259.72 109.353 259.6C111.223 259.49 112.833 260.9 112.953 262.78C113.453 270.71 114.383 282.08 115.423 289.75L131.213 266.94C132.283 265.4 134.393 265.02 135.933 266.08C137.473 267.15 137.863 269.26 136.793 270.8L116.433 300.21C115.793 301.13 114.743 301.67 113.643 301.67H113.623Z" fill="#1C4648"/>
<path d="M115.434 431.079C113.584 431.079 112.064 429.589 112.044 427.729C111.974 422.319 110.234 295.109 110.234 293.749C110.234 291.879 111.754 290.359 113.624 290.359C115.494 290.359 117.014 291.879 117.014 293.749C117.014 295.479 118.804 426.319 118.824 427.639C118.854 429.509 117.354 431.049 115.474 431.079H115.424H115.434Z" fill="#1C4648"/>
<path d="M112.714 322.03C111.974 322.03 111.234 321.79 110.614 321.3C106.664 318.18 102.154 311.7 97.194 302.03C93.604 295.02 91.124 288.95 91.024 288.7C90.314 286.96 91.154 284.98 92.884 284.28C94.624 283.57 96.604 284.41 97.304 286.14C99.9842 292.71 108.344 310.87 114.814 315.98C116.284 317.14 116.534 319.28 115.374 320.75C114.704 321.6 113.714 322.04 112.704 322.04L112.714 322.03Z" fill="#1C4648"/>
<path d="M114.143 322.57C113.153 322.57 112.183 322.14 111.503 321.32C110.323 319.87 110.543 317.73 111.993 316.55C112.203 316.38 132.783 299.6 145.833 284.2C147.043 282.77 149.183 282.59 150.613 283.8C152.043 285.01 152.223 287.15 151.013 288.58C137.543 304.48 117.143 321.12 116.273 321.82C115.643 322.33 114.883 322.58 114.133 322.58L114.143 322.57Z" fill="#1C4648"/>
<path d="M113.624 347.139C112.244 347.139 110.944 346.289 110.434 344.919C107.314 336.419 84.1638 312.739 75.5038 304.329C74.1638 303.019 74.1238 300.879 75.4338 299.529C76.7438 298.189 78.8838 298.149 80.2338 299.459C83.5338 302.659 112.584 331.099 116.804 342.579C117.454 344.339 116.544 346.289 114.784 346.939C114.394 347.079 114.004 347.149 113.614 347.149L113.624 347.139Z" fill="#1C4648"/>
<path d="M114.984 372.029C114.804 372.029 114.634 372.019 114.454 371.989C112.604 371.699 111.334 369.959 111.634 368.109C114.434 350.359 144.834 306.139 146.134 304.269C147.194 302.729 149.314 302.339 150.854 303.399C152.394 304.459 152.784 306.579 151.724 308.119C151.644 308.229 143.864 319.529 135.864 332.749C122.694 354.509 119.074 364.559 118.344 369.159C118.084 370.829 116.634 372.019 114.994 372.019L114.984 372.029Z" fill="#1C4648"/>
<path d="M113.394 366.151C111.744 366.151 110.314 364.951 110.054 363.301C109.024 360.281 95.9638 345.421 75.7338 325.581C74.3938 324.271 74.3738 322.121 75.6838 320.781C76.9938 319.441 79.1438 319.421 80.4838 320.731C80.5738 320.821 89.2838 329.361 97.9638 338.491C116.214 357.691 116.584 360.711 116.774 362.341C116.994 364.201 115.674 365.891 113.804 366.111C113.664 366.131 113.534 366.131 113.394 366.131V366.151ZM110.034 363.161C110.034 363.161 110.034 363.211 110.034 363.231C110.034 363.211 110.034 363.181 110.034 363.161Z" fill="#1C4648"/>
<path d="M89.6726 276.699C89.6726 276.699 78.4626 276.799 78.2926 283.449C78.2926 283.449 77.8726 289.909 86.1726 291.639C86.1726 291.639 97.5926 293.639 99.0728 286.829C99.0728 286.829 102.953 277.599 89.6826 276.699H89.6726Z" fill="#1A3C3D"/>
<path d="M89.773 293.45C87.633 293.45 85.993 293.17 85.903 293.15C78.293 291.56 76.603 286.09 76.773 283.39C76.843 280.99 78.093 277.8 83.603 276.13C86.603 275.22 89.533 275.19 89.663 275.18H89.783C94.873 275.53 98.313 277.1 100.003 279.85C101.943 283 100.813 286.52 100.523 287.28C99.9632 289.69 98.053 292.64 92.233 293.31C91.383 293.41 90.543 293.45 89.773 293.45ZM89.633 278.23C89.243 278.23 86.813 278.33 84.433 279.06C81.413 279.99 79.863 281.48 79.813 283.5V283.56C79.783 284.08 79.763 288.76 86.473 290.16C86.523 290.16 96.423 291.82 97.573 286.52L97.603 286.38L97.653 286.25C97.653 286.25 98.723 283.57 97.393 281.43C96.263 279.61 93.573 278.51 89.633 278.23Z" fill="#1A3C3D"/>
<path d="M134.004 258.471C134.004 258.471 120.554 258.641 120.774 269.811C120.774 269.811 119.694 282.221 131.074 283.771C131.074 283.771 142.954 285.591 146.284 274.511C146.284 274.511 152.504 259.191 134.004 258.471Z" fill="#1A3C3D"/>
<path d="M133.083 285.439C132.263 285.439 131.503 285.379 130.843 285.279C120.783 283.909 118.863 274.579 119.243 269.759C119.193 266.429 120.233 263.649 122.323 261.489C126.573 257.099 133.673 256.959 133.973 256.949H134.053C140.403 257.199 144.783 259.129 147.073 262.679C150.353 267.769 148.023 274.209 147.713 275.009C145.183 283.319 137.963 285.429 133.073 285.429L133.083 285.439ZM133.993 259.989C133.503 260.009 127.743 260.259 124.513 263.609C122.973 265.209 122.253 267.219 122.303 269.779V269.939C122.263 270.379 121.513 280.929 131.293 282.259C131.743 282.329 141.943 283.719 144.833 274.069L144.883 273.929C144.903 273.879 147.103 268.279 144.523 264.309C142.803 261.649 139.263 260.199 133.993 259.979V259.989Z" fill="#1A3C3D"/>
<path d="M75.8736 294.449C75.8736 294.449 64.9536 294.679 64.7336 303.559C64.7336 303.559 64.2636 312.179 72.3236 314.409C72.3236 314.409 83.4236 316.969 84.9236 307.879C84.9236 307.879 88.7936 295.539 75.8736 294.449Z" fill="#1A3C3D"/>
<path d="M75.6628 316.26C73.6328 316.26 72.1028 315.92 71.9728 315.89L71.9128 315.87C64.6028 313.85 63.0228 306.88 63.2028 303.47C63.4028 295.34 71.5528 293.01 75.8328 292.92H75.9928C80.2928 293.28 83.3928 294.84 85.2228 297.56C88.0828 301.81 86.6528 307.33 86.4028 308.2C85.9328 310.94 84.6428 313.03 82.5728 314.42C80.3928 315.88 77.7628 316.24 75.6628 316.24V316.26ZM72.6828 312.93C73.0728 313.01 77.8328 313.96 80.8828 311.9C82.2628 310.97 83.0928 309.57 83.4128 307.62L83.4628 307.41C83.4628 307.41 84.9228 302.56 82.6828 299.25C81.4028 297.36 79.1028 296.26 75.8228 295.96C74.8628 296 66.4228 296.55 66.2428 303.58C66.2228 303.92 65.9628 311.03 72.6828 312.91V312.93Z" fill="#1A3C3D"/>
<path d="M153.454 275.859C153.454 275.859 142.534 276.089 142.314 284.969C142.314 284.969 141.844 293.589 149.904 295.819C149.904 295.819 161.004 298.379 162.504 289.289C162.504 289.289 166.374 276.949 153.454 275.859Z" fill="#1A3C3D"/>
<path d="M153.243 297.67C151.213 297.67 149.683 297.33 149.553 297.3L149.493 297.28C142.183 295.25 140.603 288.28 140.783 284.88C140.983 276.75 149.133 274.42 153.413 274.33H153.573C157.873 274.69 160.973 276.25 162.803 278.97C165.663 283.22 164.233 288.74 163.983 289.61C163.513 292.35 162.223 294.44 160.153 295.83C157.973 297.29 155.343 297.65 153.243 297.65V297.67ZM150.273 294.34C150.663 294.42 155.423 295.37 158.473 293.31C159.853 292.38 160.683 290.98 161.003 289.03L161.053 288.82C161.053 288.82 162.513 283.97 160.273 280.66C158.993 278.77 156.693 277.67 153.413 277.37C152.453 277.41 144.013 277.96 143.833 284.99C143.813 285.33 143.553 292.44 150.273 294.32V294.34Z" fill="#1A3C3D"/>
<path d="M77.4929 318.9C77.4929 318.9 66.2829 319 66.1129 325.65C66.1129 325.65 65.6929 332.11 73.9929 333.84C73.9929 333.84 85.4129 335.84 86.8929 329.03C86.8929 329.03 90.7729 319.8 77.5029 318.9H77.4929Z" fill="#1A3C3D"/>
<path d="M77.5933 335.641C75.4533 335.641 73.8133 335.361 73.7233 335.341C66.1133 333.751 64.4233 328.281 64.5933 325.581C64.6633 323.181 65.9133 319.991 71.4233 318.321C74.4233 317.411 77.3533 317.381 77.4833 317.371H77.6033C82.6933 317.721 86.1333 319.291 87.8233 322.041C89.7633 325.191 88.6333 328.711 88.3433 329.471C87.7833 331.881 85.8733 334.831 80.0533 335.501C79.2033 335.601 78.3633 335.641 77.5933 335.641ZM77.4533 320.421C77.0633 320.421 74.6333 320.521 72.2533 321.251C69.2333 322.181 67.6833 323.671 67.6333 325.691V325.751C67.6033 326.271 67.5833 330.951 74.2933 332.351C74.3433 332.351 84.2433 334.011 85.3933 328.711L85.4233 328.571L85.4733 328.441C85.4733 328.441 86.5433 325.761 85.2133 323.621C84.0833 321.801 81.3933 320.701 77.4533 320.421Z" fill="#1A3C3D"/>
<path d="M107.713 245.52C107.713 245.52 94.2626 245.69 94.4826 256.86C94.4826 256.86 93.4026 269.27 104.783 270.82C104.783 270.82 116.663 272.64 119.993 261.56C119.993 261.56 126.213 246.24 107.713 245.52Z" fill="#1A3C3D"/>
<path d="M106.793 272.49C105.973 272.49 105.213 272.43 104.553 272.33C94.4924 270.96 92.5724 261.63 92.9524 256.81C92.9024 253.48 93.9424 250.7 96.0324 248.54C100.293 244.14 107.393 244 107.693 244H107.773C114.123 244.25 118.503 246.18 120.793 249.73C124.073 254.82 121.743 261.26 121.433 262.06C118.903 270.37 111.683 272.48 106.793 272.48V272.49ZM107.703 247.05C107.213 247.07 101.453 247.32 98.2224 250.67C96.6824 252.27 95.9624 254.28 96.0124 256.84V257C95.9724 257.44 95.2224 267.99 105.003 269.32C105.453 269.39 115.653 270.78 118.543 261.13L118.593 260.99C118.613 260.94 120.813 255.34 118.233 251.37C116.513 248.71 112.973 247.26 107.703 247.04V247.05Z" fill="#1A3C3D"/>
<path d="M151.034 298.77C151.034 298.77 140.114 299 139.894 307.88C139.894 307.88 139.424 316.5 147.484 318.73C147.484 318.73 158.584 321.29 160.084 312.2C160.084 312.2 163.954 299.86 151.034 298.77Z" fill="#1A3C3D"/>
<path d="M150.833 320.59C148.803 320.59 147.273 320.25 147.143 320.22L147.083 320.2C139.773 318.17 138.193 311.2 138.373 307.8C138.573 299.67 146.723 297.34 151.003 297.25H151.163C155.463 297.61 158.563 299.17 160.393 301.89C163.253 306.14 161.823 311.66 161.573 312.53C161.103 315.27 159.813 317.36 157.743 318.75C155.563 320.21 152.933 320.57 150.833 320.57V320.59ZM147.853 317.25C148.243 317.33 153.003 318.28 156.053 316.22C157.433 315.29 158.263 313.89 158.583 311.94L158.633 311.73C158.633 311.73 160.093 306.88 157.853 303.57C156.573 301.68 154.273 300.58 150.993 300.28C150.033 300.32 141.593 300.87 141.413 307.9C141.393 308.24 141.133 315.35 147.853 317.23V317.25Z" fill="#1A3C3D"/>
</g>
<path fill-rule="evenodd" clip-rule="evenodd" d="M56.3323 405.326C54.1132 401.876 46.2343 390.737 39.4444 394.931C39.4444 394.931 35.007 397.103 35.7198 402.788C23.4709 408.134 25.2896 420.536 26.0466 422.787C26.6243 424.455 25.3398 427.607 25.3398 427.607C27.544 426.748 30.4464 428.676 30.4464 428.676C42.23 436.556 51.2717 427.757 52.3905 426.587C55.0273 428.207 57.5438 428.596 59.5778 426.895C65.7947 421.694 61.7004 413.991 57.3898 407.037L57.8626 407.647C57.8626 407.647 69.4136 404.416 68.6014 401.071C67.8486 397.971 57.7982 404.373 56.3323 405.326Z" fill="#1C4648"/>
<mask id="mask1_4915_47579" style="mask-type:luminance" maskUnits="userSpaceOnUse" x="22" y="391" width="51" height="44">
<path d="M72.3398 391H22.3398V435H72.3398V391Z" fill="white"/>
<path fill-rule="evenodd" clip-rule="evenodd" d="M56.3323 405.326C54.1132 401.876 46.2343 390.737 39.4444 394.931C39.4444 394.931 35.007 397.103 35.7198 402.788C23.4709 408.134 25.2896 420.536 26.0466 422.787C26.6243 424.455 25.3398 427.607 25.3398 427.607C27.544 426.748 30.4464 428.676 30.4464 428.676C42.23 436.556 51.2717 427.757 52.3905 426.587C55.0273 428.207 57.5438 428.596 59.5778 426.895C65.7947 421.694 61.7004 413.991 57.3898 407.037L57.8626 407.647C57.8626 407.647 69.4136 404.416 68.6014 401.071C67.8486 397.971 57.7982 404.373 56.3323 405.326Z" fill="black"/>
</mask>
<g mask="url(#mask1_4915_47579)">
<path d="M39.4445 394.93L40.7634 397.624C40.8515 397.581 40.9374 397.534 41.0209 397.482L39.4445 394.93ZM56.3324 405.325L53.8093 406.948C54.241 407.619 54.9225 408.091 55.7029 408.258C56.4833 408.426 57.2982 408.275 57.9674 407.84L56.3324 405.325ZM35.7199 402.787L36.92 405.537C38.139 405.005 38.8621 403.734 38.6966 402.414L35.7199 402.787ZM26.0467 422.786L23.2033 423.743C23.2061 423.751 23.209 423.76 23.212 423.768L26.0467 422.786ZM25.3399 427.606L22.5618 426.474C22.1094 427.584 22.3613 428.857 23.2025 429.711C24.0437 430.565 25.3126 430.836 26.4296 430.401L25.3399 427.606ZM30.4465 428.675L32.1142 426.182L32.107 426.177L30.4465 428.675ZM52.3906 426.586L53.9608 424.03C52.7567 423.29 51.1997 423.491 50.2228 424.513L52.3906 426.586ZM57.3899 407.036L59.7612 405.198C58.7836 403.936 56.9894 403.661 55.6786 404.572C54.3677 405.482 53.9992 407.259 54.84 408.616L57.3899 407.036ZM57.8627 407.646L55.4914 409.483C56.2388 410.448 57.4957 410.863 58.6707 410.535L57.8627 407.646ZM41.0209 397.482C41.8841 396.949 42.746 396.871 43.7889 397.178C44.9369 397.515 46.2485 398.32 47.6341 399.525C50.4009 401.931 52.7407 405.286 53.8093 406.948L58.8555 403.702C57.705 401.913 54.9958 397.975 51.5709 394.997C49.8607 393.51 47.7908 392.101 45.4824 391.422C43.0691 390.712 40.3998 390.814 37.868 392.377L41.0209 397.482ZM38.6966 402.414C38.4556 400.492 39.0656 399.328 39.6417 398.62C39.9526 398.238 40.279 397.963 40.5189 397.79C40.6369 397.705 40.7276 397.649 40.7753 397.62C40.7989 397.607 40.8112 397.6 40.8101 397.601C40.8095 397.601 40.8055 397.603 40.7978 397.607C40.794 397.609 40.7892 397.611 40.7835 397.614C40.7806 397.616 40.7775 397.617 40.7742 397.619C40.7725 397.62 40.7707 397.621 40.7689 397.621C40.768 397.622 40.7666 397.623 40.7662 397.623C40.7648 397.624 40.7634 397.624 39.4445 394.93C38.1256 392.235 38.1241 392.236 38.1226 392.237C38.1221 392.237 38.1206 392.238 38.1196 392.238C38.1175 392.239 38.1154 392.24 38.1132 392.241C38.1087 392.243 38.104 392.246 38.099 392.248C38.089 392.253 38.0779 392.259 38.0657 392.265C38.0413 392.278 38.0124 392.293 37.9795 392.31C37.9138 392.345 37.8314 392.391 37.7351 392.448C37.5429 392.561 37.2925 392.719 37.0056 392.926C36.4358 393.338 35.6974 393.961 34.988 394.833C33.5237 396.632 32.2714 399.397 32.7433 403.16L38.6966 402.414ZM28.8902 421.83C28.6767 421.195 28.0841 418.109 28.9216 414.654C29.7149 411.382 31.7741 407.783 36.92 405.537L34.5199 400.038C27.4168 403.138 24.2609 408.413 23.0905 413.241C21.9644 417.886 22.6597 422.127 23.2033 423.743L28.8902 421.83ZM25.3399 427.606C28.1181 428.738 28.1183 428.737 28.1185 428.737C28.1186 428.737 28.1188 428.736 28.1189 428.736C28.1192 428.735 28.1195 428.734 28.1199 428.734C28.1205 428.732 28.1213 428.73 28.1221 428.728C28.1237 428.724 28.1257 428.719 28.128 428.714C28.1325 428.702 28.1382 428.688 28.145 428.671C28.1586 428.636 28.1766 428.59 28.1983 428.533C28.2416 428.419 28.2998 428.261 28.3663 428.069C28.4981 427.689 28.669 427.155 28.8205 426.548C28.9697 425.951 29.1158 425.222 29.1718 424.464C29.225 423.744 29.2163 422.771 28.8815 421.804L23.212 423.768C23.166 423.635 23.2133 423.681 23.1882 424.022C23.1658 424.324 23.0991 424.695 22.9994 425.094C22.902 425.484 22.7879 425.842 22.6969 426.105C22.652 426.235 22.6144 426.336 22.5897 426.401C22.5774 426.434 22.5684 426.457 22.5635 426.469C22.561 426.475 22.5596 426.479 22.5593 426.48C22.5591 426.48 22.5592 426.48 22.5596 426.479C22.5598 426.478 22.5601 426.478 22.5605 426.477C22.5607 426.476 22.5609 426.476 22.5611 426.475C22.561 426.475 22.5612 426.475 22.5611 426.475C22.5613 426.474 22.5618 426.474 25.3399 427.606ZM30.4465 428.675C32.107 426.177 32.1063 426.176 32.1056 426.176C32.1054 426.176 32.1047 426.175 32.1042 426.175C32.1032 426.174 32.1021 426.174 32.101 426.173C32.0988 426.171 32.0965 426.17 32.0939 426.168C32.0888 426.165 32.0829 426.161 32.0763 426.157C32.0631 426.148 32.047 426.138 32.028 426.125C31.99 426.101 31.9405 426.07 31.8804 426.033C31.7605 425.96 31.5967 425.864 31.3965 425.755C31.001 425.539 30.438 425.258 29.7717 425.009C28.5801 424.563 26.4135 423.967 24.2503 424.811L26.4296 430.401C26.4178 430.406 26.5067 430.369 26.7601 430.395C27.0135 430.421 27.3253 430.5 27.668 430.628C28.0028 430.753 28.3031 430.902 28.5207 431.02C28.627 431.078 28.7072 431.126 28.7547 431.155C28.7782 431.169 28.7933 431.179 28.7989 431.182C28.8017 431.184 28.8021 431.185 28.8 431.183C28.7989 431.182 28.7973 431.181 28.795 431.18C28.7938 431.179 28.7925 431.178 28.791 431.177C28.7903 431.177 28.7895 431.176 28.7887 431.176C28.7882 431.175 28.7876 431.175 28.7874 431.175C28.7867 431.174 28.7861 431.174 30.4465 428.675ZM50.2228 424.513C49.8087 424.945 47.6571 427.058 44.4233 428.194C41.35 429.274 37.1443 429.545 32.1142 426.182L28.7789 431.169C35.5325 435.685 41.7393 435.497 46.4124 433.855C50.9251 432.269 53.8536 429.397 54.5584 428.66L50.2228 424.513ZM57.653 424.593C57.2562 424.925 56.8934 425.027 56.4251 424.993C55.8604 424.953 55.0417 424.694 53.9608 424.03L50.8204 429.143C52.3763 430.098 54.1342 430.844 55.9954 430.978C57.9531 431.118 59.8655 430.564 61.5027 429.195L57.653 424.593ZM54.84 408.616C57.0171 412.129 58.8475 415.397 59.5067 418.289C59.8244 419.683 59.8291 420.831 59.5692 421.791C59.32 422.711 58.7761 423.653 57.653 424.593L61.5027 429.195C63.4881 427.534 64.7638 425.563 65.3606 423.359C65.9469 421.194 65.8243 419.007 65.3567 416.956C64.4453 412.957 62.0733 408.897 59.9399 405.455L54.84 408.616ZM60.234 405.808L59.7612 405.198L55.0187 408.873L55.4914 409.483L60.234 405.808ZM65.6862 401.778C65.4278 400.714 66.2961 400.445 65.3947 401.164C64.7325 401.693 63.6477 402.286 62.3287 402.866C61.0519 403.428 59.7291 403.903 58.7101 404.241C58.2046 404.409 57.7828 404.54 57.4905 404.628C57.3445 404.672 57.2313 404.706 57.1567 404.727C57.1194 404.738 57.0917 404.746 57.0745 404.751C57.0658 404.753 57.0598 404.755 57.0565 404.756C57.0548 404.756 57.0539 404.757 57.0536 404.757C57.0534 404.757 57.0534 404.757 57.0536 404.757C57.054 404.756 57.0547 404.756 57.8627 407.646C58.6707 410.535 58.6711 410.535 58.6716 410.534C58.6719 410.534 58.6724 410.534 58.6728 410.534C58.6737 410.534 58.6748 410.534 58.676 410.533C58.6785 410.532 58.6817 410.532 58.6856 410.53C58.6934 410.528 58.7039 410.525 58.7171 410.522C58.7436 410.514 58.7807 410.503 58.8278 410.49C58.9219 410.462 59.0561 410.423 59.2244 410.372C59.5606 410.271 60.0349 410.123 60.5996 409.936C61.721 409.564 63.2352 409.022 64.7447 408.358C66.2118 407.713 67.8625 406.871 69.1377 405.854C70.1737 405.027 72.1813 403.099 71.5168 400.363L65.6862 401.778ZM57.9674 407.84C58.681 407.376 61.4236 405.628 64.0269 404.385C65.3742 403.742 66.432 403.359 67.0678 403.252C67.4094 403.195 67.2883 403.279 66.9462 403.162C66.3837 402.969 65.8476 402.443 65.6862 401.778L71.5168 400.363C71.1673 398.923 70.1524 397.918 68.8904 397.486C67.8489 397.129 66.8077 397.212 66.0782 397.334C64.5721 397.586 62.8845 398.282 61.4418 398.971C58.4652 400.392 55.4497 402.321 54.6974 402.81L57.9674 407.84Z" fill="#1A3C3D"/>
</g>
<path d="M56.1543 405.442C56.1543 405.442 67.7891 397.727 68.6013 401.071C69.4134 404.416 57.8625 407.647 57.8625 407.647L56.1543 405.442Z" fill="#1A3C3D"/>
<path d="M56.9415 406.308C56.9415 406.308 47.4384 389.994 39.4446 394.931C39.4446 394.931 32.6312 398.266 37.2462 407.488C41.8611 416.71 53.1381 432.282 59.578 426.895C66.018 421.508 61.3935 413.435 56.9258 406.291L56.9415 406.308Z" fill="#1A3C3D"/>
<path d="M35.8015 402.754C35.8015 402.754 46.6149 409.167 52.5072 426.463C52.5072 426.463 43.0437 437.101 30.4464 428.677C30.4464 428.677 27.544 426.749 25.3398 427.608C25.3398 427.608 26.6243 424.456 26.0466 422.788C25.2879 420.532 23.4627 408.08 35.8015 402.754Z" fill="#1C4648"/>
<mask id="mask2_4915_47579" style="mask-type:luminance" maskUnits="userSpaceOnUse" x="102" y="0" width="141" height="62">
<path d="M242.176 0H102.016V61.86H242.176V0Z" fill="white"/>
</mask>
<g mask="url(#mask2_4915_47579)">
<path d="M142.276 15.2206C142.276 15.2206 150.026 -1.47936 175.506 0.110643C200.976 1.69064 204.516 13.8506 204.516 13.8506C204.516 13.8506 221.876 9.65064 236.096 21.9806C236.096 21.9806 249.896 35.4706 235.936 48.8106C223.466 60.7306 201.336 57.5406 198.226 51.7206C198.226 51.7206 190.336 62.2206 172.346 61.8106C154.346 61.4006 148.126 49.2506 148.126 49.2506C148.126 49.2506 132.016 64.6406 111.566 51.1606C88.7156 36.1106 110.026 3.73064 142.276 15.2206Z" fill="#1C4648"/>
<path d="M197.816 39.52C168.246 60.27 148.776 37.5 148.776 37.5C130.346 46.22 113.896 43.82 102.656 39.76C103.826 43.97 106.686 47.99 111.576 51.21C132.026 64.68 148.136 49.3 148.136 49.3C148.136 49.3 154.356 61.45 172.356 61.86C190.356 62.27 198.236 51.77 198.236 51.77C201.356 57.59 223.476 60.78 235.946 48.86C238.416 46.5 240.016 44.13 240.976 41.83C216.396 52.75 197.806 39.52 197.806 39.52H197.816Z" fill="#1A3C3D"/>
</g>
<path d="M219.388 220.09C218.872 218.551 210.366 237.103 185.093 251.215C185.093 251.215 168.489 261.717 171.017 276.55C171.017 276.55 172.104 291.383 189.795 297.908C189.795 297.908 167.416 306.231 166.696 323.243C166.696 323.243 165.609 342.79 182.213 347.489C182.213 347.489 158.38 361.601 163.802 388.026C163.802 388.026 167.049 425.661 224.09 427.473C224.09 427.473 279.323 432.172 286.905 393.815C286.905 393.815 293.046 367.757 271.741 358.345C271.741 358.345 287.992 346.045 285.098 327.943C285.098 327.943 282.57 304.419 263.439 300.074C263.439 300.074 278.603 285.962 274.988 271.115C274.988 271.115 276.429 253.026 242.134 240.359C242.134 240.359 222.636 229.857 219.388 220.09Z" fill="#1C4648"/>
<path d="M234.185 295.007C233.492 295.007 232.813 294.68 232.392 294.053C231.712 293.059 231.971 291.71 232.962 291.029C240.001 286.221 241.767 274.18 241.781 274.071C243.33 263.855 237.677 261.172 237.623 261.158C236.536 260.668 236.047 259.387 236.536 258.284C237.025 257.194 238.302 256.704 239.403 257.194C239.756 257.358 248.099 261.28 246.074 274.697C245.993 275.242 244.036 288.727 235.408 294.625C235.041 294.884 234.606 295.007 234.185 295.007Z" fill="#1A3C3D"/>
<path d="M219.021 289.939C218.491 289.939 217.975 289.749 217.554 289.367C216.671 288.55 216.616 287.188 217.431 286.302C221.141 282.271 221.073 275.16 220.366 269.916C219.565 263.923 217.73 258.897 217.717 258.856C217.309 257.725 217.88 256.486 219.008 256.063C220.122 255.655 221.372 256.227 221.793 257.344C222.119 258.243 229.728 279.328 220.638 289.245C220.217 289.708 219.633 289.939 219.048 289.939H219.021Z" fill="#1A3C3D"/>
<path d="M202.771 289.94C202.037 289.94 201.33 289.572 200.923 288.904C191.248 273.008 202.703 257.113 203.192 256.445C203.898 255.478 205.257 255.274 206.222 255.982C207.187 256.69 207.39 258.052 206.684 259.019C206.263 259.592 196.48 273.254 204.619 286.643C205.244 287.665 204.917 289 203.898 289.626C203.545 289.844 203.151 289.94 202.771 289.94Z" fill="#1A3C3D"/>
<path d="M196.996 340.244C196.235 340.244 195.515 339.849 195.107 339.14C186.968 324.77 196.208 310.018 196.615 309.392C197.267 308.384 198.599 308.084 199.604 308.738C200.61 309.378 200.909 310.727 200.257 311.735C200.175 311.871 192.05 324.947 198.871 337.002C199.455 338.051 199.102 339.372 198.056 339.958C197.716 340.148 197.349 340.244 196.982 340.244H196.996Z" fill="#1A3C3D"/>
<path d="M212.879 343.866C212.525 343.866 212.158 343.771 211.819 343.594C210.773 343.008 210.406 341.687 210.99 340.638C220.311 323.952 212.294 312.701 212.213 312.592C211.506 311.625 211.71 310.263 212.675 309.554C213.64 308.846 214.998 309.05 215.705 310.017C216.112 310.562 225.434 323.666 214.767 342.763C214.373 343.471 213.64 343.88 212.879 343.88V343.866Z" fill="#1A3C3D"/>
<path d="M230.571 343.865C230.177 343.865 229.783 343.756 229.416 343.538C228.411 342.898 228.098 341.563 228.737 340.541C239.879 322.793 230.843 312.849 230.449 312.441C229.634 311.569 229.661 310.193 230.517 309.376C231.373 308.545 232.732 308.572 233.56 309.43C234.05 309.934 245.422 322.112 232.392 342.857C231.984 343.511 231.278 343.865 230.558 343.865H230.571Z" fill="#1A3C3D"/>
<path d="M250.069 346.768C249.431 346.768 248.806 346.482 248.371 345.951C247.623 345.011 247.787 343.649 248.724 342.9C262.991 331.513 255.029 316.965 254.689 316.352C254.105 315.303 254.472 313.982 255.504 313.396C256.55 312.811 257.868 313.178 258.453 314.214C258.561 314.391 268.548 332.629 251.414 346.291C251.02 346.605 250.545 346.768 250.069 346.768Z" fill="#1A3C3D"/>
<path d="M199.522 406.837C199.06 406.837 198.598 406.688 198.204 406.388C190.514 400.449 186.859 391.5 187.62 380.494C188.177 372.376 190.935 366.056 191.044 365.783C191.533 364.68 192.81 364.19 193.897 364.666C194.998 365.157 195.487 366.437 195.011 367.527C194.97 367.622 192.416 373.547 191.927 380.903C191.302 390.465 194.291 397.875 200.84 402.928C201.791 403.664 201.968 405.026 201.234 405.979C200.813 406.538 200.161 406.824 199.522 406.824V406.837Z" fill="#1A3C3D"/>
<path d="M220.829 405.025C220.57 405.025 220.312 404.984 220.054 404.888C218.94 404.466 218.369 403.213 218.791 402.082C226.155 382.631 214.972 369.364 214.483 368.806C213.695 367.907 213.79 366.531 214.701 365.741C215.611 364.951 216.97 365.047 217.758 365.945C218.315 366.572 231.155 381.651 222.84 403.608C222.513 404.48 221.685 405.011 220.815 405.011L220.829 405.025Z" fill="#1A3C3D"/>
<path d="M234.905 405.025C234.565 405.025 234.226 404.943 233.899 404.78C232.84 404.221 232.432 402.914 232.989 401.851C243.384 382.019 233.709 369.991 233.601 369.869C232.84 368.942 232.962 367.58 233.872 366.804C234.796 366.041 236.155 366.164 236.929 367.076C237.405 367.648 248.547 381.474 236.821 403.854C236.427 404.589 235.679 405.011 234.905 405.011V405.025Z" fill="#1A3C3D"/>
<path d="M256.93 402.491C256.428 402.491 255.925 402.314 255.517 401.96C254.621 401.17 254.512 399.808 255.3 398.895C265.857 386.704 257.392 375.344 257.026 374.867C256.305 373.914 256.468 372.552 257.42 371.83C258.357 371.094 259.716 371.271 260.45 372.211C260.558 372.361 271.496 386.827 258.575 401.742C258.14 402.232 257.542 402.491 256.944 402.491H256.93Z" fill="#1A3C3D"/>
<path d="M164.484 364.163H164.486L164.528 364.165H164.572H164.589H164.612L164.635 364.164C174.812 363.932 181.746 365.842 186.466 368.661C191.162 371.466 193.819 375.261 195.301 379.105C196.795 382.982 197.099 386.93 197.014 389.949C196.971 391.451 196.833 392.701 196.708 393.569C196.645 394.002 196.585 394.338 196.543 394.56C196.522 394.672 196.505 394.754 196.494 394.806C196.488 394.832 196.484 394.85 196.482 394.86L196.48 394.867V394.869L196.449 395.003L196.436 395.142C195.051 410.708 187.788 419.129 180.983 423.711C177.548 426.024 174.193 427.381 171.7 428.158C170.455 428.545 169.431 428.786 168.729 428.929C168.378 429.001 168.108 429.048 167.931 429.076C167.843 429.09 167.778 429.099 167.738 429.105L167.698 429.11L167.696 429.111H167.694H167.692L167.657 429.115L167.619 429.122C155.423 431.079 147.739 428.691 143.169 425.999C140.866 424.642 139.308 423.181 138.337 422.085C137.852 421.536 137.514 421.078 137.304 420.771C137.2 420.618 137.127 420.502 137.085 420.432C137.063 420.396 137.05 420.373 137.043 420.361C137.042 420.359 137.041 420.357 137.04 420.356C137.039 420.354 137.039 420.353 137.039 420.353L136.95 420.188L136.822 420.034C131.127 413.178 130.69 403.878 131.863 395.933C132.444 392.003 133.403 388.515 134.219 386.008C134.627 384.756 134.997 383.755 135.262 383.071C135.395 382.73 135.502 382.468 135.574 382.294C135.61 382.208 135.638 382.143 135.656 382.102L135.675 382.057C139.953 372.673 147.122 368.217 153.285 366.083C156.378 365.011 159.207 364.53 161.259 364.318C162.283 364.213 163.108 364.174 163.669 364.162C163.949 364.156 164.162 364.157 164.301 364.159C164.37 364.159 164.421 364.161 164.452 364.162L164.483 364.163H164.484Z" fill="#1C4648" stroke="#1A3C3D" stroke-width="4"/>
<path d="M150.899 410.118C150.173 410.118 149.482 409.766 149.075 409.115C139.141 393.435 148.845 375.714 149.252 374.957C149.837 373.919 151.147 373.55 152.192 374.13C153.236 374.711 153.608 376.013 153.024 377.052C152.935 377.228 144.17 393.33 152.723 406.828C153.36 407.831 153.059 409.15 152.05 409.784C151.696 410.013 151.289 410.118 150.899 410.118Z" fill="#1A3C3D"/>
<path d="M160.249 410.822C159.912 410.822 159.576 410.752 159.239 410.576C158.177 410.03 157.77 408.728 158.336 407.672C165.632 393.822 158.177 379.779 158.106 379.638C157.539 378.6 157.929 377.298 158.974 376.735C160.018 376.172 161.329 376.559 161.895 377.597C162.25 378.248 170.501 393.805 162.143 409.678C161.754 410.417 161.01 410.822 160.231 410.822H160.249Z" fill="#1A3C3D"/>
<path d="M170.573 414.642C170.236 414.642 169.882 414.554 169.563 414.396C168.519 413.833 168.111 412.53 168.678 411.492C179.108 392.064 169.333 381.153 169.227 381.03C168.413 380.15 168.483 378.795 169.351 378.003C170.236 377.193 171.6 377.264 172.397 378.126C172.893 378.654 184.332 391.43 172.468 413.516C172.078 414.237 171.334 414.66 170.555 414.66L170.573 414.642Z" fill="#1A3C3D"/>
<path d="M181.852 413.693C181.391 413.693 180.931 413.552 180.541 413.253C179.603 412.531 179.408 411.176 180.134 410.244C192.476 394.265 182.1 379.06 181.993 378.901C181.321 377.933 181.551 376.596 182.525 375.91C183.499 375.241 184.844 375.47 185.535 376.438C185.659 376.614 197.789 394.405 183.552 412.848C183.127 413.394 182.489 413.693 181.834 413.693H181.852Z" fill="#1A3C3D"/>
<mask id="mask3_4915_47579" style="mask-type:luminance" maskUnits="userSpaceOnUse" x="240" y="353" width="49" height="69">
<path d="M288.016 353H240.016V422H288.016V353Z" fill="white"/>
</mask>
<g mask="url(#mask3_4915_47579)">
<path d="M259.406 382.25C259.406 382.25 258.056 404.51 256.256 410.59C256.256 410.59 252.886 420.94 265.026 420.71C265.026 420.71 273.796 420.93 274.026 416.21C274.026 416.21 272.456 392.37 269.976 383.15L259.406 382.25Z" fill="#1C4648"/>
<path d="M283.995 376.9C282.945 385.34 273.465 390.41 262.685 389.78C249.285 389 244.115 380.52 245.155 372.08C246.205 363.64 255.755 357.87 266.475 359.2C277.195 360.53 285.045 368.46 283.995 376.9Z" fill="#1A3C3D"/>
<path d="M276.021 416.079L276.029 416.193L276.023 416.307C275.931 418.204 274.946 419.583 273.725 420.502C272.56 421.379 271.143 421.877 269.908 422.174C268.648 422.478 267.422 422.609 266.528 422.666C266.076 422.695 265.699 422.706 265.43 422.71C265.295 422.712 265.187 422.712 265.11 422.711C265.075 422.711 265.047 422.711 265.025 422.71C261.742 422.767 259.243 422.116 257.416 420.884C255.551 419.627 254.592 417.904 254.154 416.246C253.727 414.627 253.79 413.057 253.936 411.945C254.01 411.378 254.109 410.903 254.191 410.563C254.232 410.393 254.27 410.255 254.298 410.155C254.313 410.105 254.325 410.064 254.334 410.033L254.342 410.007C255.171 407.193 255.945 400.352 256.514 393.963C256.607 392.91 256.694 391.879 256.775 390.89C252.559 389.786 249.297 387.769 246.994 385.113C243.734 381.353 242.591 376.534 243.17 371.835V371.833C244.408 361.882 255.373 355.807 266.721 357.215C278.069 358.623 287.218 367.194 285.98 377.147C285.361 382.117 282.258 385.984 277.996 388.469C276.595 389.286 275.06 389.96 273.426 390.485C274.022 394.463 274.524 398.919 274.921 402.941C275.274 406.514 275.549 409.797 275.736 412.185C275.829 413.38 275.9 414.351 275.948 415.025C275.972 415.362 275.991 415.625 276.003 415.803L276.017 416.007L276.02 416.06L276.021 416.074V416.077V416.079ZM276.021 416.079L274.026 416.21C276.021 416.079 276.021 416.079 276.021 416.079Z" stroke="#1A3C3D" stroke-width="4"/>
<path d="M259.406 382.25C259.406 382.25 258.056 404.51 256.256 410.59C256.256 410.59 252.886 420.94 265.026 420.71C265.026 420.71 273.796 420.93 274.026 416.21C274.026 416.21 272.456 392.37 269.976 383.15L259.406 382.25Z" fill="#1C4648"/>
<path d="M283.995 376.9C282.945 385.34 273.465 390.41 262.685 389.78C249.285 389 244.115 380.52 245.155 372.08C246.205 363.64 255.755 357.87 266.475 359.2C277.195 360.53 285.045 368.46 283.995 376.9Z" fill="#1A3C3D"/>
</g>
</g>
<defs>
<clipPath id="clip0_4915_47579">
<rect width="366" height="455" fill="white"/>
</clipPath>
</defs>
</svg>
