<svg width="1281" height="585" viewBox="0 0 1281 585" fill="none" xmlns="http://www.w3.org/2000/svg">
<path fill-rule="evenodd" clip-rule="evenodd" d="M992.308 451.061C996.353 442.71 1008.06 424.475 1034.18 421.465C1040.36 420.753 1045.73 420.355 1050.59 419.996L1050.59 419.996C1072.5 418.376 1083.77 417.544 1109.99 392.119C1116.21 386.087 1121.11 381.076 1125.17 376.914C1142.04 359.649 1144.62 357.002 1168.46 356.689C1173.76 356.619 1179.15 357.074 1184.61 357.537C1209.64 359.654 1236.45 361.922 1265.82 314.724C1265.82 314.724 1270.45 282.729 1235.92 288.637C1235.92 288.637 1220.06 293.119 1201.61 310.173C1183.17 327.227 1159.62 324.025 1159.62 324.025C1159.62 324.025 1138.62 318.415 1103.64 357.486C1068.67 396.556 1067.11 398.189 1042.76 400.089C1020.3 401.843 984.727 418.806 970.58 449.674L965.737 449.365C951.018 448.052 945.988 463.026 945.988 463.026L937.091 483.899C935.352 488.257 933.362 492.537 931.291 496.6C910.017 492.681 889.849 489.91 868.008 488.689C653.206 462.713 490.488 485.006 375.175 507.341C375.03 507.223 374.882 507.109 374.731 506.998C377.576 505.311 379.353 502.838 379.191 500.184C379.049 497.795 377.369 495.778 374.852 494.393C377.325 491.82 378.365 488.737 377.342 486.092C376.457 483.87 374.262 482.455 371.456 481.928C373.531 478.325 373.841 474.511 371.759 472.092C369.903 469.929 366.62 469.4 363.148 470.426C364.045 467.697 363.826 465.054 362.269 463.223C360.452 461.113 357.29 460.591 353.918 461.51C355.563 456.705 354.789 452.017 351.672 450.116C349.629 448.882 347.019 449.094 344.485 450.365C344.496 446.546 343.017 443.36 340.249 442.229C336.996 440.89 333 442.788 330.135 446.625C328.985 441.35 325.666 437.548 321.828 437.718C317.794 437.866 314.618 442.353 314.12 448.132C311.427 442.596 306.504 439.407 302.568 440.935C298.623 442.466 297.158 448.252 298.964 454.181C294.867 449.389 289.113 447.556 285.658 450.13C282.992 452.141 282.505 456.286 284.06 460.532C280.34 458.921 276.617 459.069 274.471 461.313C272.376 463.517 272.356 467.129 274.031 470.727C270.407 470.768 267.394 472.187 266.241 474.814C265.125 477.386 266.046 480.494 268.378 483.149C267.689 482.649 266.919 482.267 266.079 482.03C261.557 480.746 256.661 484.062 254.828 489.468C254.858 483.648 251.21 478.863 246.436 478.638C242.442 478.449 238.944 481.598 237.648 486.04L237.62 486.046C235.192 482.557 231.291 480.77 227.715 481.875C224.842 482.762 222.869 485.302 222.138 488.448C218.548 486.246 214.277 486.167 211.445 488.567C210.003 489.787 209.156 491.493 208.875 493.364C206.026 493.083 203.085 493.923 200.741 495.904C198.758 497.581 197.593 499.823 197.138 502.203C192.936 502.499 189.123 505.229 187.607 509.444C187.001 511.165 186.882 512.947 187.133 514.63C186.677 514.809 186.233 515.017 185.805 515.252V487.08C190.135 480.842 229.024 423.958 214.159 414.164C202.229 406.303 195.997 410.365 193.681 412.787C192.329 411.364 190.511 410.393 188.099 410.102C188.099 410.102 179.159 408.243 175.877 417.091C174.845 415.531 173.588 414.16 172.058 413.079C166.931 409.437 159.396 411.048 156.327 416.581C156.198 416.819 156.075 417.064 155.96 417.315H155.765V417.767C155.591 418.194 155.44 418.639 155.315 419.102L155.479 419.263C155.301 419.211 155.121 419.162 154.938 419.115C152.147 416.775 149.223 415.607 146.387 415.333C146.589 412.841 146.322 409.667 144.439 406.948C141.981 403.4 137.461 401.588 131.003 401.566L130.921 401.569L130.901 401.571C130.385 401.605 123.344 402.071 119.258 406.644C118.827 407.128 118.444 407.638 118.11 408.174C118.205 407.877 118.294 407.573 118.376 407.26C118.661 406.43 120.788 399.756 117.267 394.67C114.809 391.123 110.289 389.31 103.831 389.289L103.749 389.292C103.445 389.303 96.2392 389.709 92.0764 394.367C90.0341 396.654 89.0813 399.536 89.256 402.941C89.0494 407.886 91.3464 417.36 101.614 418.39C102.288 418.468 103.062 418.501 103.895 418.471L103.895 418.461L103.938 418.459C105.001 427.64 106.733 440.678 108.445 445.485C108.596 448.545 108.806 452.781 109.059 457.864C104.47 451.945 99.6655 442.972 96.7015 436.901C97.4851 435.899 97.8876 434.819 98.0776 433.833C98.3439 433.045 99.3606 429.402 97.2731 426.251C95.4544 423.5 91.9023 422.021 86.7199 421.851L86.598 421.855C86.5944 421.856 86.5886 421.856 86.5807 421.857C86.5665 421.858 86.5454 421.859 86.5179 421.861C86.0057 421.897 83.2584 422.09 80.4788 423.051C74.9449 424.963 73.7941 428.273 73.8123 430.73C73.7401 433.499 75.6599 439.032 83.4478 440.378C83.54 440.395 85.216 440.621 87.3894 440.542C88.1714 440.513 89.023 440.441 89.8826 440.308C90.1386 440.268 90.387 440.225 90.6279 440.178C91.801 442.575 93.3926 445.706 95.2458 449.045C100.636 458.742 105.452 465.2 109.576 468.251L110.158 479.947C103.017 471.12 92.0739 460.347 84.8786 453.517C85.0905 451.248 84.9717 447.754 82.9213 444.914C80.9615 442.199 77.7551 440.718 73.3746 440.508L73.2121 440.514C68.8687 440.764 60.6782 443.449 60.7775 451.774C60.7216 455.269 62.5855 462.341 70.0847 464.137L70.1464 464.155C70.2795 464.181 71.8461 464.473 73.9077 464.398L73.907 464.377C76.0398 464.3 78.6974 463.834 80.8571 462.26C81.454 461.824 81.9816 461.33 82.4389 460.778C93.3044 471.248 107.675 485.999 110.288 492.433C110.425 492.766 110.608 493.067 110.826 493.331L111.191 500.665C108.256 497.326 103.893 492.729 97.3841 486.316C93.9176 482.9 90.4499 479.572 87.4738 476.749C87.8106 475.345 88.18 472.439 86.4725 469.862C84.6538 467.111 81.1018 465.632 75.9193 465.462L75.7974 465.466C75.7874 465.467 75.7606 465.469 75.7184 465.472L75.7173 465.472C75.2051 465.508 72.4578 465.701 69.6782 466.662C64.1444 468.574 62.9935 471.883 63.0117 474.341C63.0074 474.507 63.0102 474.683 63.0211 474.868C61.4231 472.88 58.4972 471.511 53.3843 471.696C53.3843 471.696 39.9048 471.042 41.0852 504.071C41.0852 504.071 34.2496 472.059 9.7113 481.086C9.7113 481.086 3.97708 486.421 8.80414 497.014C8.80414 497.014 16.5494 503.002 28.4427 507.183C28.4427 507.183 40.8139 511.299 41.2726 521.351C41.2726 521.351 17.6439 504.355 2.01724 521.686C2.01724 521.686 -5.05147 538.194 14.8905 536.317C14.8905 536.317 40.8926 527.619 47.5835 552.927C47.5835 552.927 35.0545 536.808 12.373 545.194C12.373 545.194 2.70499 549.462 12.6489 563.417C12.6489 563.417 18.2269 566.736 33.0366 566.294C34.9897 566.236 36.714 566.316 38.2359 566.5C-27.3952 581.287 22.8644 584 31.9114 584H1253.38C1253.38 584 1298.96 584 1263.49 570.534C1263.42 568.461 1262.67 566.478 1261.46 564.823C1264.68 564.067 1267.11 562.239 1267.76 559.659C1268.34 557.337 1267.34 554.91 1265.35 552.834C1268.48 551.121 1270.4 548.491 1270.21 545.661C1270.04 543.276 1268.37 541.268 1265.85 539.924C1268.91 537.109 1270.35 533.564 1269.08 530.631C1267.96 528.011 1264.99 526.523 1261.37 526.461C1263.04 524.126 1263.63 521.539 1262.69 519.326C1261.59 516.768 1258.73 515.322 1255.24 515.188C1258.25 511.097 1258.91 506.393 1256.51 503.644C1254.93 501.855 1252.38 501.275 1249.58 501.728C1250.73 498.088 1250.28 494.605 1247.97 492.697C1245.27 490.444 1240.89 491.057 1237.01 493.859C1237.49 488.482 1235.47 483.86 1231.75 482.871C1227.86 481.804 1223.49 485.132 1221.28 490.496C1220.37 484.407 1216.63 479.889 1212.41 480.167C1208.19 480.445 1205.06 485.526 1205.01 491.724C1202.53 485.924 1197.59 482.45 1193.53 483.87C1190.38 484.99 1188.67 488.798 1188.88 493.316C1185.82 490.663 1182.22 489.689 1179.5 491.186C1176.84 492.661 1175.74 496.101 1176.26 500.035C1172.79 498.988 1169.49 499.439 1167.6 501.6C1165.77 503.718 1165.71 506.959 1167.14 510.19C1166.64 509.508 1166.02 508.913 1165.29 508.436C1161.36 505.854 1155.69 507.551 1152.32 512.159C1154.1 506.616 1152.05 500.957 1147.56 499.312C1143.81 497.934 1139.53 499.889 1136.96 503.739L1136.93 503.736C1135.66 499.679 1132.48 496.806 1128.73 496.788C1125.73 496.773 1123.08 498.605 1121.44 501.387C1118.68 498.21 1114.63 496.855 1111.2 498.296C1109.46 499.027 1108.14 500.401 1107.31 502.101C1104.68 500.98 1101.62 500.899 1098.79 502.087C1097.46 502.646 1096.32 503.449 1095.37 504.418C1088.04 501.947 1076.28 501.546 1061.27 513.164C1061.27 513.164 1064.1 497.762 1086.78 496.323C1086.78 496.323 1110.61 500.581 1110.9 486.391C1111.18 472.2 1074.91 476.219 1067.23 483.003C1059.55 489.787 1077.51 464.439 1095.57 458.167C1095.59 458.174 1108.9 445.993 1092.83 439.199C1092.83 439.199 1080.37 432.642 1066.99 464.391C1066.99 464.391 1074.58 431.112 1047.42 428.835C1047.42 428.835 1039.65 431.353 1039.57 443.494C1039.57 443.494 1044.26 452.569 1053.67 461.762C1053.67 461.762 1063.56 471.105 1059.58 480.811C1059.58 480.811 1044.7 454.33 1022.31 463.832C1022.31 463.832 1020.5 465.459 1019.1 467.87C1018.25 466.225 1017.76 465.282 1017.76 465.282C1012.06 451.981 1005.27 450.569 1001.71 450.898C999.108 451.131 996.515 451.33 993.911 451.164L992.308 451.061ZM1051.68 513.446C1051.68 513.446 1048.34 498.916 1032.54 492.958C1030.65 489.545 1028.81 486.156 1027.1 482.98C1027.27 483.046 1027.44 483.111 1027.62 483.176C1027.76 483.23 1027.91 483.284 1028.06 483.337C1028.06 483.337 1056.47 486.57 1051.68 513.446ZM272.058 486.208L273.021 489.745C272.704 489.889 272.391 490.05 272.082 490.228C271.887 488.134 271.158 486.215 270.005 484.734C270.632 485.259 271.318 485.754 272.058 486.208ZM1169.74 514.213L1169.6 517.877C1169.25 517.919 1168.9 517.979 1168.56 518.056C1169 516.001 1168.88 513.951 1168.22 512.193C1168.66 512.882 1169.17 513.559 1169.74 514.213ZM63.4248 487.078C63.4338 487.078 65.0179 483.282 64.7067 479.461C66.1269 481.451 68.5913 483.288 72.6473 483.988C72.7394 484.006 74.4154 484.231 76.5888 484.152C77.3708 484.124 78.2225 484.052 79.082 483.918C80.9341 483.635 82.3846 483.135 83.5178 482.505C99.5274 497.694 109.604 508.664 110.586 511.25C110.748 512.086 111.201 512.797 111.821 513.293C112.358 524.056 112.888 534.668 113.357 544.06L113.785 552.657C95.2953 555.609 79.7294 558.29 66.6846 560.724C71.0718 557.126 77.4091 553.11 86.5266 549.263C111.409 538.748 91.2477 528.162 91.2477 528.162C91.2477 528.162 70.4124 520.513 55.8125 548.794C55.8125 548.794 52.0487 534.258 71.1876 523.817C71.1876 523.817 93.6317 517.861 88.1463 505.409C82.661 492.956 52.7475 511.147 48.8095 520.157C44.8715 529.167 50.2551 499.849 63.4248 487.078ZM169.956 544.176C151.663 546.808 135.28 549.271 120.627 551.573C120.14 541.824 119.554 530.09 118.948 517.943C119.087 517.632 119.181 517.295 119.223 516.939C119.793 512.206 123.096 501.791 135.662 479.044C138.538 473.837 141.392 468.911 143.837 464.786C144.656 465.203 145.571 465.545 146.589 465.791L146.65 465.809C146.784 465.835 148.35 466.126 150.412 466.051L150.411 466.031C152.544 465.953 155.202 465.488 157.361 463.914C158.078 463.39 158.695 462.782 159.211 462.092C164.675 470.279 168.054 479.119 169.956 485.239V544.176ZM141.287 445.16C140.829 444.92 140.364 444.688 139.893 444.465C130.084 455.201 119.774 464.633 116.44 467.625C116.9 476.867 117.438 487.659 117.993 498.793C123.819 485.48 132.803 469.751 138.807 459.696C137.641 457.423 137.256 455.041 137.282 453.427C137.236 449.563 138.975 446.915 141.287 445.16ZM133.728 440.931C130.227 437.997 128.856 434.328 129.011 430.69C128.938 430.683 128.867 430.675 128.796 430.667C127.488 430.536 126.31 430.268 125.249 429.889L115.342 445.491C115.502 448.736 115.725 453.237 115.993 458.627C120.445 454.475 127.169 448.005 133.728 440.931ZM119.643 425.825C117.035 422.446 116.319 418.076 116.438 415.218C116.363 413.747 116.498 412.373 116.84 411.102C115.276 413.874 113.053 415.681 110.704 416.813C111.457 423.362 112.386 430.471 113.303 435.809L119.643 425.825Z" fill="#362974"/>
<g clip-path="url(#clip0_4915_47146)">
<path opacity="0.5" d="M1095.5 535.106C1095.5 535.106 1084.06 510.888 1104.5 526.699C1104.5 526.699 1098.96 506.99 1114.12 522.564C1114.12 522.564 1117.12 498.203 1124.99 520.475C1124.99 520.475 1135.97 495.972 1140.05 521.559" stroke="#0C0541" stroke-width="3" stroke-miterlimit="10" stroke-linecap="round" stroke-linejoin="round"/>
<path opacity="0.5" d="M1107.58 545.067C1107.58 545.067 1119.8 526.036 1119.08 547.25C1119.08 547.25 1135.46 534.434 1130.64 555.144" stroke="#0C0541" stroke-width="3" stroke-miterlimit="10" stroke-linecap="round" stroke-linejoin="round"/>
<path opacity="0.5" d="M1207.64 531.508C1207.64 531.508 1223.21 512.888 1217.92 534.279C1217.92 534.279 1234.01 533.215 1221.39 546.111C1221.39 546.111 1237.05 545.379 1223.32 555.095" stroke="#0C0541" stroke-width="3" stroke-miterlimit="10" stroke-linecap="round" stroke-linejoin="round"/>
<path opacity="0.5" d="M1190.86 514.855C1190.86 514.855 1189.98 494.212 1202.62 511.752C1202.62 511.752 1200.92 500.906 1208.13 501.025C1215.34 501.144 1211.98 512.903 1211.98 512.903C1211.98 512.903 1214.45 502.186 1221.36 504.543C1228.26 506.899 1223.78 518.904 1223.78 518.904C1223.78 518.904 1229.41 503.998 1236.59 516.669C1236.59 516.669 1238.97 518.853 1232.26 527.157" stroke="#0C0541" stroke-width="3" stroke-miterlimit="10" stroke-linecap="round" stroke-linejoin="round"/>
<path opacity="0.5" d="M1231.73 539.517C1231.73 539.517 1234.18 531.84 1242.04 538.894C1242.04 538.894 1247.76 544.916 1234.95 547.151C1234.95 547.151 1252.9 549.36 1236.41 556.845C1236.41 556.845 1247.81 556.741 1240.38 564.573" stroke="#0C0541" stroke-width="3" stroke-miterlimit="10" stroke-linecap="round" stroke-linejoin="round"/>
</g>
<g clip-path="url(#clip1_4915_47146)">
<path opacity="0.5" d="M208.103 528.3C208.103 528.3 189.928 508.626 214.167 517.582C214.167 517.582 202.976 500.44 222.107 510.754C222.107 510.754 217.665 486.614 231.856 505.501C231.856 505.501 234.984 478.834 246.544 502.022" stroke="#0C0541" stroke-width="3" stroke-miterlimit="10" stroke-linecap="round" stroke-linejoin="round"/>
<path opacity="0.5" d="M222.617 534.181C222.617 534.181 228.573 512.362 234.242 532.817C234.242 532.817 246.03 515.679 247.64 536.881" stroke="#0C0541" stroke-width="3" stroke-miterlimit="10" stroke-linecap="round" stroke-linejoin="round"/>
<path opacity="0.5" d="M314.011 491.252C314.011 491.252 323.277 468.824 324.646 490.816C324.646 490.816 339.674 484.979 331.503 501.063C331.503 501.063 346.226 495.67 336.039 509.054" stroke="#0C0541" stroke-width="3" stroke-miterlimit="10" stroke-linecap="round" stroke-linejoin="round"/>
<path opacity="0.5" d="M293.015 480.395C293.015 480.395 285.986 460.965 303.31 473.908C303.31 473.908 298.434 464.071 305.349 462.023C312.264 459.975 312.58 472.202 312.58 472.202C312.58 472.202 311.723 461.238 319.018 461.416C326.313 461.594 325.633 474.391 325.633 474.391C325.633 474.391 326.544 458.48 337.183 468.419C337.183 468.419 340.114 469.788 336.198 479.722" stroke="#0C0541" stroke-width="3" stroke-miterlimit="10" stroke-linecap="round" stroke-linejoin="round"/>
<path opacity="0.5" d="M339.389 491.674C339.389 491.674 339.424 483.617 349.039 487.99C349.039 487.99 356.299 492.021 344.749 497.993C344.749 497.993 362.54 494.718 349.049 506.803C349.049 506.803 359.891 503.287 355.157 512.984" stroke="#0C0541" stroke-width="3" stroke-miterlimit="10" stroke-linecap="round" stroke-linejoin="round"/>
</g>
<g clip-path="url(#clip2_4915_47146)">
<rect x="768" y="370" width="98" height="141" fill="#BD9DE8"/>
<path d="M771.5 386L770 373.5L759.5 378L760 382.5L771.5 386Z" fill="#BD9DE8"/>
<path d="M795.376 423.107C785.426 423.652 778.23 424.239 776.32 424.407V435.976C779.563 435.724 786.759 435.179 796.086 434.676L795.376 423.107Z" fill="#D4B5FD"/>
<path d="M793.466 455.006C785.604 455.467 779.474 455.886 776.32 456.138V467.706C780.096 467.413 786.403 466.994 794.176 466.575L793.466 455.006Z" fill="#D4B5FD"/>
<path d="M829.801 407.096C823.316 407.18 816.92 407.347 810.879 407.599L811.545 418.078C817.231 417.868 823.272 417.7 829.357 417.658L829.801 407.096Z" fill="#D4B5FD"/>
<path d="M812.836 422.312C808.261 422.479 803.908 422.647 799.91 422.856L800.621 434.425C804.53 434.216 808.749 434.048 813.102 433.922L812.88 422.312H812.836Z" fill="#D4B5FD"/>
<path d="M804.481 438.574C790.978 439.161 780.14 439.999 776.32 440.293V451.861C781.251 451.484 792.089 450.688 805.192 450.143L804.481 438.574Z" fill="#D4B5FD"/>
<path d="M827.449 449.556L827.938 437.903C821.453 437.987 815.056 438.155 809.016 438.406L809.726 450.017C815.412 449.807 821.364 449.64 827.405 449.598L827.449 449.556Z" fill="#D4B5FD"/>
<path d="M870.265 389.324C873.063 387.186 875.151 384.21 875.951 380.773C848.056 377.797 770.679 381.612 760.152 382.156C761.44 385.887 764.194 388.989 767.792 390.833C777.92 389.785 828.512 384.965 870.265 389.324Z" fill="#D4B5FD"/>
<path d="M814.742 392.468L801.816 392.636L802.483 403.66C813.943 403.115 827.801 402.654 841.126 402.821L841.793 392.091L819.273 392.426L819.495 403.031L814.964 403.115L814.742 392.51V392.468Z" fill="#D4B5FD"/>
<path d="M876.309 376.498C875.865 369.331 870.268 363.546 862.939 362.289L862.85 362.079C834.467 359.984 798.266 360.78 772.903 361.744L772.681 362.247C765.041 363.504 759.223 369.792 759.223 377.337C759.223 377.504 759.267 377.672 759.267 377.84C767.751 377.42 846.949 373.355 876.22 376.414L876.309 376.498Z" fill="#D4B5FD"/>
<path d="M846.28 392.049L845.613 402.905C850.366 403.031 854.986 403.24 859.339 403.534V392.761H860.049C860.049 392.761 860.182 392.761 860.271 392.761C855.652 392.426 850.943 392.175 846.28 392.049Z" fill="#D4B5FD"/>
<path d="M811.19 486C806.598 486.065 802.141 486.173 798 486.282L798.855 505H812L811.145 486.022L811.19 486Z" fill="#D4B5FD"/>
<path d="M797.952 403.91L797.286 392.803C788.846 393.264 781.65 393.851 776.32 394.312V405.336C776.72 405.336 785.47 404.539 797.952 403.868V403.91Z" fill="#D4B5FD"/>
<path d="M826.028 469.76C819.543 469.844 813.146 470.011 807.105 470.263L807.816 481.873C813.502 481.664 819.454 481.496 825.495 481.454L825.983 469.802L826.028 469.76Z" fill="#D4B5FD"/>
<rect x="428" y="386" width="98" height="125" fill="#BD9DE8"/>
<path d="M834.331 407.096L833.887 417.658C842.726 417.658 851.476 417.868 859.383 418.455V407.85C851.61 407.305 842.992 407.096 834.331 407.096Z" fill="#D4B5FD"/>
<path d="M844.504 422.017L843.793 433.67C849.212 433.796 854.453 434.047 859.384 434.424V422.688C854.675 422.353 849.656 422.101 844.504 421.976V422.017Z" fill="#D4B5FD"/>
<path d="M843.192 486.091L842.054 504.527L836.668 504.441L837.806 486.026C830.581 485.962 823.137 486.026 816 486.112L816.832 505H859V486.585C854.096 486.348 848.797 486.177 843.192 486.091Z" fill="#D4B5FD"/>
<path d="M832.465 437.862L831.977 449.515C841.526 449.515 850.988 449.766 859.383 450.479V438.742C851.121 438.072 841.837 437.82 832.465 437.82V437.862Z" fill="#D4B5FD"/>
<path d="M794.12 486C786.334 486.221 779.985 486.443 776 486.576V505H795L794.12 486Z" fill="#D4B5FD"/>
<path d="M842.593 453.916L841.883 465.568C848.013 465.694 853.92 466.03 859.384 466.491V454.754C854.142 454.293 848.457 454.042 842.593 453.874V453.916Z" fill="#D4B5FD"/>
<path d="M776.32 405.797V420.132C779.652 419.839 791.822 418.916 807.013 418.288L806.347 407.809C789.601 408.563 776.942 409.611 776.676 409.653L776.32 405.839V405.797Z" fill="#D4B5FD"/>
<path d="M802.571 470.431C790.889 470.934 781.162 471.646 776.32 471.982V483.55C781.828 483.131 791.689 482.46 803.282 481.999L802.571 470.431Z" fill="#D4B5FD"/>
<path d="M837.349 465.485L838.06 453.832C830.553 453.748 822.824 453.832 815.495 454.084L815.718 465.694L811.187 465.778L810.965 454.251C806.39 454.419 802.037 454.587 798.039 454.796L798.75 466.365C810.21 465.82 824.068 465.359 837.394 465.527L837.349 465.485Z" fill="#D4B5FD"/>
<path d="M839.264 433.628L839.975 421.976C832.468 421.892 824.739 421.976 817.41 422.227L817.632 433.838C824.695 433.628 832.068 433.544 839.264 433.628Z" fill="#D4B5FD"/>
<path d="M859.386 470.808C850.68 470.011 840.686 469.718 830.559 469.76L830.07 481.412C840.375 481.412 850.547 481.706 859.386 482.544V470.808Z" fill="#D4B5FD"/>
<path d="M841.751 311.528L822.74 264.415C822.207 263.074 821.229 262.11 820.119 261.481V216.506H814.389V217.135L781.786 232.14L814.389 245.47V261.23C813.012 261.817 811.813 262.823 811.191 264.415L792.18 311.528L772.059 361.408C797.377 360.402 833.578 359.606 862.005 361.743L841.751 311.57V311.528Z" fill="#9747FF"/>
<path d="M451.067 425.107C441.117 425.652 433.922 426.239 432.012 426.407V437.976C435.254 437.724 442.45 437.179 451.778 436.676L451.067 425.107Z" fill="#D4B5FD"/>
<path d="M415 379.5L487.5 372L532 378.5L531.5 383L416 384.5L415 379.5Z" fill="#BD9DE8"/>
<path d="M449.157 457.006C441.295 457.467 435.165 457.886 432.012 458.138V469.706C435.787 469.413 442.095 468.994 449.868 468.575L449.157 457.006Z" fill="#D4B5FD"/>
<path d="M485.492 409.096C479.007 409.18 472.611 409.347 466.57 409.599L467.237 420.078C472.922 419.868 478.963 419.7 485.048 419.658L485.492 409.096Z" fill="#D4B5FD"/>
<path d="M531.487 384.24L575.906 369.569L584.789 409.389L520.383 419.868V399L526.5 392L531.487 384.24Z" fill="#9747FF"/>
<path d="M468.57 424.312C463.995 424.479 459.642 424.647 455.645 424.856L456.355 436.425C460.264 436.216 464.484 436.048 468.837 435.922L468.615 424.312H468.57Z" fill="#D4B5FD"/>
<path d="M460.173 440.574C446.67 441.161 435.832 441.999 432.012 442.293V453.861C436.942 453.484 447.78 452.688 460.884 452.143L460.173 440.574Z" fill="#D4B5FD"/>
<path d="M483.137 451.557L483.625 439.904C477.14 439.988 470.744 440.156 464.703 440.407L465.414 452.018C471.099 451.808 477.051 451.641 483.092 451.599L483.137 451.557Z" fill="#D4B5FD"/>
<path d="M525.999 391.324C528.798 389.186 530.885 386.21 531.685 382.773C503.79 379.797 426.414 383.612 415.887 384.156C417.175 387.887 419.929 390.989 423.527 392.833C433.654 391.785 484.246 386.965 525.999 391.324Z" fill="#D4B5FD"/>
<path d="M470.433 394.468L457.508 394.636L458.174 405.66C469.634 405.115 483.492 404.654 496.818 404.821L497.484 394.091L474.964 394.426L475.186 405.031L470.656 405.115L470.433 394.51V394.468Z" fill="#D4B5FD"/>
<path d="M532 378.498C531.556 371.331 525.959 365.546 518.63 364.289L518.542 364.079C490.158 361.984 453.958 362.78 428.595 363.744L428.373 364.247C420.733 365.504 414.914 371.792 414.914 379.337C414.914 379.504 414.958 379.672 414.958 379.84C423.442 379.42 502.64 375.355 531.911 378.414L532 378.498Z" fill="#D4B5FD"/>
<rect x="613" y="328" width="57" height="104" fill="#FEBD33"/>
<path d="M502.018 394.049L501.352 404.905C506.104 405.031 510.724 405.24 515.077 405.534V394.761H515.787C515.787 394.761 515.921 394.761 516.01 394.761C511.39 394.426 506.682 394.175 502.018 394.049Z" fill="#D4B5FD"/>
<path d="M467.19 488C462.598 488.065 458.141 488.173 454 488.282L454.855 507H468L467.145 488.022L467.19 488Z" fill="#D4B5FD"/>
<path d="M453.643 405.91L452.977 394.803C444.538 395.264 437.342 395.851 432.012 396.312V407.336C432.411 407.336 441.162 406.539 453.643 405.868V405.91Z" fill="#D4B5FD"/>
<path d="M481.719 471.76C475.234 471.844 468.838 472.011 462.797 472.263L463.508 483.873C469.193 483.664 475.145 483.496 481.186 483.454L481.675 471.802L481.719 471.76Z" fill="#D4B5FD"/>
<path d="M490.022 409.096L489.578 419.658C498.417 419.658 507.168 419.868 515.074 420.455V409.85C507.301 409.305 498.684 409.096 490.022 409.096Z" fill="#D4B5FD"/>
<path d="M500.195 424.017L499.484 435.67C504.903 435.796 510.145 436.047 515.075 436.424V424.688C510.367 424.353 505.348 424.101 500.195 423.976V424.017Z" fill="#D4B5FD"/>
<path d="M498.825 488.091L497.66 506.527L492.149 506.441L493.314 488.026C485.921 487.962 478.303 488.026 471 488.112L471.851 507H515V488.585C509.982 488.348 504.56 488.177 498.825 488.091Z" fill="#D4B5FD"/>
<path d="M488.157 439.862L487.668 451.515C497.218 451.515 506.679 451.766 515.074 452.479V440.742C506.812 440.072 497.529 439.82 488.157 439.82V439.862Z" fill="#D4B5FD"/>
<path d="M449.166 488C441.79 488.221 435.776 488.443 432 488.576V507H450L449.166 488Z" fill="#D4B5FD"/>
<path d="M498.285 455.916L497.574 467.568C503.704 467.694 509.612 468.03 515.075 468.491V456.754C509.834 456.293 504.148 456.042 498.285 455.874V455.916Z" fill="#D4B5FD"/>
<path d="M432.012 407.797V422.132C435.343 421.839 447.514 420.916 462.705 420.288L462.038 409.809C445.293 410.563 432.634 411.611 432.367 411.653L432.012 407.839V407.797Z" fill="#D4B5FD"/>
<path d="M458.263 472.431C446.581 472.934 436.853 473.646 432.012 473.982V485.55C437.52 485.131 447.38 484.46 458.974 483.999L458.263 472.431Z" fill="#D4B5FD"/>
<path d="M493.041 467.485L493.751 455.832C486.245 455.748 478.516 455.832 471.187 456.084L471.409 467.694L466.878 467.778L466.656 456.251C462.081 456.419 457.728 456.587 453.73 456.796L454.441 468.365C465.901 467.82 479.76 467.359 493.085 467.527L493.041 467.485Z" fill="#D4B5FD"/>
<path d="M494.951 435.628L495.662 423.976C488.155 423.892 480.427 423.976 473.098 424.227L473.32 435.838C480.382 435.628 487.756 435.544 494.951 435.628Z" fill="#D4B5FD"/>
<path d="M515.074 472.808C506.368 472.011 496.374 471.718 486.246 471.76L485.758 483.412C496.063 483.412 506.235 483.706 515.074 484.544V472.808Z" fill="#D4B5FD"/>
<path d="M497.489 313.528L478.478 266.415C477.945 265.074 476.968 264.11 475.857 263.481V218.506H470.127V219.135L437.524 234.14L470.127 247.47V263.23C468.75 263.817 467.551 264.823 466.929 266.415L447.918 313.528L427.797 363.408C453.115 362.402 489.316 361.606 517.744 363.743L497.489 313.57V313.528Z" fill="#9747FF"/>
<rect x="515" y="460" width="258" height="43" fill="#BD9DE8"/>
<rect x="544" y="432" width="192" height="66" fill="#FEBD33"/>
<path d="M520 412.724L604.483 404.635L610.88 433.766L580.453 438.209L572.325 497.699H520V412.724Z" fill="#D4B5FD"/>
<path d="M756.5 384.5L715.477 369.569L706.594 409.389L771 419.868V396L765.5 393.5L760 389L756.5 384.5Z" fill="#9747FF"/>
<path d="M770.88 411.09L686.396 403L680 432.131L710.426 436.574L718.555 498.106H770.88V411.09Z" fill="#D4B5FD"/>
<path d="M587.43 352.049L583.699 302.169C583.699 302.169 562.023 293.325 566.065 282.553C570.107 271.78 707.809 277.855 707.809 277.855C707.809 277.855 726.104 292.026 698.609 304.726L697.232 354.564L639.063 337.779L587.474 352.007L587.43 352.049Z" fill="#D4B5FD"/>
<path d="M596.82 406.411L564.719 409.298V367.106C564.871 367.008 565.042 366.899 565.229 366.779C566.137 366.199 567.441 365.374 569.022 364.398C572.185 362.446 576.443 359.897 580.839 357.499C585.253 355.092 589.734 352.876 593.364 351.556C595.189 350.891 596.695 350.493 597.816 350.375C598.774 350.275 599.119 350.413 599.187 350.441C599.221 350.497 599.323 350.674 599.449 351.065C599.611 351.574 599.762 352.279 599.888 353.189C600.14 355.005 600.265 357.422 600.283 360.274C600.319 365.967 599.928 373.161 599.386 380.254C598.844 387.337 598.155 394.279 597.6 399.452C597.323 402.038 597.08 404.18 596.906 405.675C596.875 405.941 596.846 406.187 596.82 406.411Z" fill="#D4B5FD" stroke="#BD9DE8" stroke-width="4"/>
<path d="M671.013 355.417C671.368 355.158 671.84 354.843 672.436 354.505C674.056 353.588 676.597 352.502 680.162 351.968C687.137 350.923 698.259 351.955 714.325 360.893L717.759 408.898L684.099 408.898L671.013 355.417Z" fill="#D4B5FD" stroke="#BD9DE8" stroke-width="4"/>
<path d="M642.467 55.454C642.467 55.454 657.88 53.3163 659.612 88.3577C661.344 123.399 681.199 154.962 696.213 162.255C715.09 171.434 714.513 187.069 714.513 187.069C714.513 187.069 647.619 169.8 565.89 186.524C565.89 186.524 563.447 171.812 590.32 157.183C595.25 154.501 599.514 150.812 602.49 146.243C615.727 125.998 624.744 89.4475 624.744 89.4475C624.744 89.4475 627.009 55.454 642.467 55.454Z" fill="#9747FF"/>
<path d="M594.313 428.713L594.214 433.485L597.087 430.774L617.659 432.342L619.674 432.495L619.807 430.479L622.489 389.726C622.874 387.344 623.232 385.089 623.572 382.954C624.455 377.395 625.21 372.645 625.966 368.569C627.018 362.896 628.044 358.7 629.345 355.589C630.629 352.52 632.125 350.646 634.053 349.454C636.022 348.236 638.681 347.581 642.58 347.425C646.18 347.281 648.929 348.221 651.193 350.516C653.552 352.907 655.565 356.951 657.173 363.4C660.39 376.306 661.741 397.767 662.095 431.584L662.116 433.594L664.126 433.563L691.132 433.144L693.236 433.111L693.096 431.012L687.944 353.342L687.873 352.276L686.947 351.742L671.777 342.996L640.658 310.839L639.076 309.204L637.657 310.982L612.074 343.034L597.989 343.427L596.085 343.481L596.045 345.385L594.313 428.713Z" fill="#D4B5FD" stroke="#BD9DE8" stroke-width="4"/>
<path d="M589.295 265.325L587.562 209.2C587.562 209.2 568.107 204.883 565.264 187.069C562.422 169.255 648.149 169.8 648.149 169.8C648.149 169.8 706.47 169.8 713.888 187.614C721.305 205.428 689.857 211.338 689.857 211.338L688.125 265.283H589.206L589.295 265.325Z" fill="#D4B5FD"/>
<path d="M583 501.022H584.93L584.999 499.093L586.499 457.093L586.5 457.058V457.022C586.5 456.024 586.889 454.393 588.094 453.039C589.24 451.75 591.292 450.522 595 450.522C598.724 450.522 600.284 451.747 600.976 452.804C601.75 453.988 601.801 455.509 601.553 456.564L601.489 456.837L601.502 457.117L603.502 499.117L603.593 501.022H605.5H627H628.919L628.998 499.104L630.498 462.604L630.501 462.532L630.499 462.459C630.427 460.162 631.111 456.646 633.365 453.751C635.548 450.948 639.359 448.522 646 448.522C652.565 448.522 656.167 451.131 658.164 454.18C660.246 457.359 660.73 461.256 660.507 463.851L660.495 463.993L660.503 464.136L662.503 499.136L662.611 501.022H664.5H688H690V499.022V458.522C690 457.259 690.474 455.246 691.913 453.579C693.29 451.986 695.712 450.522 700 450.522H700.111L700.221 450.51C702.093 450.302 705.054 450.643 707.633 452.352C710.121 454 712.462 457.056 713.009 462.715C713.846 471.364 715.058 481.992 715.996 490.221C716.404 493.8 716.76 496.926 717.012 499.238L717.206 501.022H719H737H738.924L738.998 499.1C739.334 490.463 739.385 477.382 738.444 465.181C737.974 459.082 737.253 453.158 736.182 448.1C735.124 443.106 733.679 438.708 731.623 435.853C727.582 430.241 719.967 427.06 712.585 425.266C705.111 423.45 697.371 422.938 692.483 423.022H584.547C580.826 422.85 575.282 423.658 570.593 426.723C565.761 429.882 562 435.343 562 444.022V499.022V501.022H564H583Z" fill="#D4B5FD" stroke="#BD9DE8" stroke-width="4"/>
<path d="M650.603 232.313H625.141C621.746 222.725 622.636 203.55 639.059 203.55C654.338 203.55 652.3 224.323 650.603 232.313Z" fill="#FEBD33"/>
<path d="M639.89 7.7964L600.758 25.7782L639.89 41.7899V58.6819H646.775V7H639.89V7.7964Z" fill="#9747FF"/>
<path d="M589 260.589C589 260.589 569.848 269.601 565.851 283.098C563.948 289.553 641.604 287.443 641.604 287.443C641.604 287.443 704.362 289.742 712 283C708.002 274.365 688 259 688 259L589 260.589Z" fill="#9747FF"/>
</g>
<path d="M993.629 467.761C992.354 468.608 991.713 470.24 992.18 471.768L1002.07 505.127C1002.64 507.021 1004.62 508.115 1006.53 507.535C1008.42 506.969 1009.51 504.98 1008.94 503.066L999.046 469.707C998.481 467.814 996.495 466.719 994.584 467.299C994.233 467.417 993.914 467.543 993.615 467.741L993.629 467.761Z" fill="#0C0541"/>
<path d="M980.706 467.469C979.809 468.064 979.177 469.059 979.114 470.221L976.984 502.141C976.86 504.119 978.34 505.836 980.315 505.96C982.29 506.085 984.004 504.602 984.129 502.624L986.259 470.704C986.383 468.725 984.903 467.008 982.928 466.884C982.113 466.822 981.343 467.046 980.706 467.469Z" fill="#0C0541"/>
<path d="M961.756 467.301C961.059 467.764 960.52 468.466 960.272 469.349L951.232 502.526C950.723 504.444 951.825 506.412 953.753 506.941C955.667 507.451 957.632 506.347 958.161 504.416L967.201 471.239C967.71 469.321 966.608 467.353 964.68 466.824C963.634 466.542 962.592 466.745 961.756 467.301Z" fill="#0C0541"/>
<path d="M356.623 216C334.736 216 317 234.363 317 257.014C317 279.664 334.736 298.028 356.623 298.028C378.51 298.028 396.246 279.664 396.246 257.014C396.246 234.363 378.496 216 356.623 216ZM322.818 249.84C322.818 245.567 325.995 242.109 329.906 242.109C333.818 242.109 336.995 245.567 336.995 249.84C336.995 254.113 333.818 257.571 329.906 257.571C325.995 257.571 322.818 254.113 322.818 249.84ZM339.353 285.895C334.637 285.895 330.81 281.937 330.81 277.064C330.81 272.191 334.637 268.232 339.353 268.232C344.07 268.232 347.896 272.191 347.896 277.064C347.896 281.937 344.07 285.895 339.353 285.895ZM347.896 233.292C347.896 228.218 351.638 224.088 356.256 224.088C360.873 224.088 364.615 228.204 364.615 233.292C364.615 238.379 360.873 242.495 356.256 242.495C351.638 242.495 347.896 238.379 347.896 233.292ZM362.794 288.467C360.379 288.467 358.431 286.567 358.431 284.237C358.431 281.908 360.379 280.007 362.794 280.007C365.209 280.007 367.157 281.908 367.157 284.237C367.157 286.567 365.209 288.467 362.794 288.467ZM363.161 274.491C357.343 274.491 352.627 269.632 352.627 263.645C352.627 257.657 357.343 252.798 363.161 252.798C368.979 252.798 373.695 257.657 373.695 263.645C373.695 269.632 368.979 274.491 363.161 274.491ZM380.614 249.483C377.804 249.483 375.531 247.253 375.531 244.51C375.531 241.766 377.804 239.551 380.614 239.551C383.424 239.551 385.698 241.78 385.698 244.51C385.698 247.239 383.424 249.483 380.614 249.483Z" fill="#9747FF"/>
<path d="M864.341 453.955C864.341 453.955 835.074 501.28 848.582 508.996C848.582 508.996 860.055 513.287 865.404 490.535C865.404 490.535 857.695 509.844 865.836 511.773C865.836 511.773 874.625 516.713 879.993 493.311C879.993 493.311 874.625 512.404 884.063 512.404C884.063 512.404 893.068 515.415 896.706 490.301C896.706 490.301 894.779 508.762 904.631 509.609C904.631 509.609 913.636 512.187 915.131 490.084C915.131 490.084 913.204 509.393 922.426 509.177C922.426 509.177 930.134 510.042 928.423 489.219C928.423 489.219 930.134 507.897 936.996 507.464C936.996 507.464 945.353 509.826 942.363 489.002C942.363 489.002 944.507 507.031 954.575 505.535C954.575 505.535 971.505 503.822 951.351 471.623L938.923 451.232L864.323 453.919L864.341 453.955Z" fill="#9747FF"/>
<path d="M899.787 413.368C899.787 413.368 873.42 411.962 852.942 447.064C852.942 447.064 839.056 467.328 848.007 472.268C848.007 472.268 858.363 480.507 866.36 457.899C866.36 457.899 859.768 475.099 866.36 476.27C866.36 476.27 876.013 480.507 880.48 458.134C880.48 458.134 875.779 478.163 884.713 477.929C884.713 477.929 893.898 480.76 896.239 457.43C896.239 457.43 892.943 477.46 900.706 477.695C900.706 477.695 908.937 480.056 910.36 457.899C910.36 457.899 908.721 475.567 917.654 475.567C917.654 475.567 925.182 479.335 924.948 456.709C924.948 456.709 925.417 475.333 937.664 474.143C937.664 474.143 946.381 476.505 941.896 457.178C941.896 457.178 946.129 473.206 954.378 470.609C954.378 470.609 966.139 466.373 949.443 437.617C949.443 437.617 929.199 406.517 899.769 413.35L899.787 413.368Z" fill="#AF71FF"/>
<path d="M903.334 379.239C903.334 379.239 868.285 379.239 854.777 414.323C854.777 414.323 847.375 432.676 852.85 436.209C852.85 436.209 861.423 444.845 871.545 419.407C871.545 419.407 859.784 440.608 867.547 443.439C867.547 443.439 880.028 451.209 886.386 421.768C886.386 421.768 881.451 440.392 890.619 442.267C890.619 442.267 901.911 446.738 904.739 419.407C904.739 419.407 901.209 439.202 910.863 440.608C910.863 440.608 919.814 443.908 919.58 418.451C919.58 418.451 918.877 439.653 927.811 439.184C927.811 439.184 938.167 443.421 933.466 417.514C933.466 417.514 935.591 437.309 946.181 436.372C946.181 436.372 958.663 434.731 949.009 406.444C949.009 406.444 934.438 376.534 903.352 379.239H903.334Z" fill="#C79CFF"/>
<path d="M904.237 347.854C904.237 347.854 876.591 347.205 860.831 381.658C860.831 381.658 855.05 394.639 859.751 396.784C859.751 396.784 864.253 402.355 878.194 384.345C878.194 384.345 862.975 401.508 868.126 404.951C868.126 404.951 873.493 412.884 888.928 388.004C888.928 388.004 881.219 402.175 890.207 405.168C890.207 405.168 899.86 409.459 904.363 387.572C904.363 387.572 899.644 405.384 908.217 407.097C908.217 407.097 916.574 409.026 918.934 386.706C918.934 386.706 916.574 405.168 923.436 405.799C923.436 405.799 932.009 407.944 930.515 386.49C930.515 386.49 932.442 403.221 941.663 402.157C941.663 402.157 956.882 399.146 941.231 370.192C941.231 370.192 927.507 345.294 904.255 347.872L904.237 347.854Z" fill="#D9BCFF"/>
<path d="M898.993 322.53C898.993 322.53 861.693 336.142 866.592 353.72C866.592 353.72 868.014 360.679 882.603 349.321C882.603 349.321 863.728 361.869 870.14 367.223C870.14 367.223 875.471 371.947 887.646 356.388C887.646 356.388 879.559 369.964 888.366 371.748C888.366 371.748 900.343 374.705 901.838 354.279C901.838 354.279 898.993 369.549 905.585 369.567C905.585 369.567 913.797 370.667 912.699 354.08C912.699 354.08 912.663 369.531 920.389 368.413C920.389 368.413 927.287 371.189 924.424 350.222C924.424 350.222 928.476 365.979 938.022 360.841C938.022 360.841 947.747 350.619 928.998 336.791C928.998 336.791 909.709 318.654 899.047 322.548L898.993 322.53Z" fill="#E9D8FF"/>
<path d="M1046.8 241.814L1053.6 254.753L1040 257.478L1051.56 262.241L1044.08 275.18L1059.03 265.655L1061.08 278.594L1067.19 267.692L1076.72 276.543L1071.96 261.566L1086.24 260.204L1071.96 254.753L1080.8 241.814L1065.16 249.99L1061.08 235L1058.36 248.627L1046.8 241.814Z" fill="#FEBD33"/>
<path d="M230.767 299.564L237.533 312.031L224 314.656L235.497 319.245L228.06 331.711L242.933 322.534L244.97 335L251.053 324.497L260.527 333.024L255.797 318.595L270 317.282L255.797 312.031L264.587 299.564L249.03 307.442L244.97 293L242.263 306.129L230.767 299.564Z" fill="#FEBD33"/>
<g clip-path="url(#clip3_4915_47146)">
<path d="M970.416 225.887C992.664 225.887 1010.7 207.852 1010.7 185.604C1010.7 163.356 992.664 145.32 970.416 145.32C948.168 145.32 930.133 163.356 930.133 185.604C930.133 207.852 948.168 225.887 970.416 225.887Z" fill="#D4B5FD"/>
<path d="M1037.83 149.205C1037.83 149.205 1030.11 138.02 996.301 153.609C998.651 155.476 1000.8 157.589 1002.68 159.915C1009.66 156.656 1018.97 153.82 1024.92 158.047C1029.95 161.614 1021.44 170.527 1011.16 178.868C999.909 188.01 986.535 196.473 986.535 196.473C986.535 196.473 960.65 209.429 941.46 213.216C932.16 215.048 924.435 214.731 921.989 209.737C921.989 209.737 921.575 202.92 931.527 195.725C930.629 192.387 930.136 188.873 930.136 185.253C930.136 185.253 904.321 202.938 909.75 218.236C913.226 228.012 930.99 227.792 952.045 221.125C963.94 217.355 976.883 211.534 988.902 204.294C988.902 204.294 999.662 198.79 1011.29 190.696C1027.68 179.29 1045.78 162.733 1037.82 149.205H1037.83Z" fill="#9747FF"/>
</g>
<path d="M520.258 71.0912C521.023 69.7339 522.977 69.7339 523.742 71.0911L526.946 76.7758C527.232 77.2822 527.723 77.6393 528.293 77.7543L534.69 79.0449C536.217 79.3531 536.821 81.2119 535.767 82.359L531.35 87.1629C530.957 87.5908 530.769 88.1687 530.836 88.7461L531.585 95.2284C531.764 96.7761 530.183 97.925 528.766 97.2766L522.832 94.5609C522.304 94.319 521.696 94.319 521.168 94.5609L515.234 97.2766C513.817 97.925 512.236 96.7761 512.415 95.2284L513.164 88.7461C513.231 88.1687 513.043 87.5908 512.65 87.1629L508.233 82.359C507.179 81.212 507.783 79.3531 509.31 79.0449L515.707 77.7543C516.277 77.6393 516.768 77.2822 517.054 76.7758L520.258 71.0912Z" fill="#FEBD33"/>
<path d="M863.27 33.9845C864.04 32.6553 865.96 32.6553 866.73 33.9845L870.258 40.0699C870.547 40.5687 871.038 40.9184 871.604 41.0294L878.557 42.3934C880.103 42.6966 880.707 44.5853 879.625 45.7301L874.888 50.7398C874.48 51.171 874.285 51.7608 874.355 52.35L875.165 59.1641C875.348 60.7048 873.783 61.8582 872.366 61.2275L865.813 58.3118C865.295 58.0815 864.705 58.0815 864.187 58.3118L857.634 61.2275C856.217 61.8582 854.652 60.7048 854.835 59.1641L855.645 52.35C855.715 51.7608 855.52 51.171 855.112 50.7398L850.375 45.7301C849.293 44.5853 849.897 42.6966 851.443 42.3934L858.396 41.0294C858.962 40.9184 859.453 40.5687 859.742 40.0699L863.27 33.9845Z" fill="#FEBD33"/>
<path d="M402.986 504.991C402.986 504.991 406.726 492.525 433.568 482.173C459.139 472.297 439.019 460.936 439.019 460.936C439.019 460.936 418.124 452.53 402.425 480.735C402.425 480.735 399.064 465.885 418.806 455.903C418.806 455.903 441.761 450.571 436.587 437.778C431.414 424.986 400.498 442.484 396.22 451.492C391.943 460.501 398.324 430.957 412.084 418.426C412.103 418.425 419.353 402.435 402.382 402.521C402.382 402.521 388.728 401.437 388.889 434.948C388.889 434.948 382.96 402.29 357.784 410.669C357.784 410.669 351.8 415.897 356.364 426.783C356.364 426.783 364.033 433.096 375.967 437.705C375.967 437.705 388.387 442.265 388.537 452.467C388.537 452.467 365.101 434.501 348.705 451.576C348.705 451.576 341.016 468.084 361.305 466.807C361.305 466.807 387.955 458.807 393.948 484.666C393.948 484.666 381.744 467.937 358.472 475.725C358.472 475.725 348.531 479.748 358.18 494.202C358.18 494.202 363.735 497.741 378.772 497.757C393.809 497.774 395.252 505.459 395.252 505.459L402.985 504.973L402.986 504.991Z" fill="#9747FF"/>
<path d="M757.758 37.0912C758.523 35.7339 760.477 35.7339 761.242 37.0911L764.605 43.0574C764.891 43.5637 765.382 43.9209 765.952 44.0358L772.665 45.3904C774.192 45.6986 774.796 47.5574 773.742 48.7044L769.107 53.7463C768.714 54.1742 768.526 54.7521 768.593 55.3295L769.379 62.1329C769.558 63.6806 767.976 64.8295 766.56 64.1811L760.332 61.3309C759.804 61.089 759.196 61.089 758.668 61.3309L752.44 64.1811C751.024 64.8295 749.442 63.6806 749.621 62.1329L750.407 55.3295C750.474 54.7521 750.286 54.1742 749.893 53.7463L745.258 48.7044C744.204 47.5574 744.808 45.6986 746.335 45.3904L753.048 44.0358C753.618 43.9209 754.109 43.5637 754.395 43.0574L757.758 37.0912Z" fill="#FEBD33"/>
<path d="M827.758 66.0912C828.523 64.7339 830.477 64.7339 831.242 66.0911L834.605 72.0574C834.891 72.5637 835.382 72.9209 835.952 73.0358L842.665 74.3904C844.192 74.6986 844.796 76.5574 843.742 77.7044L839.107 82.7463C838.714 83.1742 838.526 83.7521 838.593 84.3295L839.379 91.1329C839.558 92.6806 837.976 93.8295 836.56 93.1811L830.332 90.3309C829.804 90.089 829.196 90.089 828.668 90.3309L822.44 93.1811C821.024 93.8295 819.442 92.6806 819.621 91.1329L820.407 84.3295C820.474 83.7521 820.286 83.1742 819.893 82.7463L815.258 77.7044C814.204 76.5574 814.808 74.6986 816.335 74.3904L823.048 73.0358C823.618 72.9209 824.109 72.5637 824.395 72.0574L827.758 66.0912Z" fill="#FEBD33"/>
<path d="M449.758 31.0912C450.523 29.7339 452.477 29.7339 453.242 31.0911L456.605 37.0574C456.891 37.5637 457.382 37.9209 457.952 38.0358L464.665 39.3904C466.192 39.6986 466.796 41.5574 465.742 42.7044L461.107 47.7463C460.714 48.1742 460.526 48.7521 460.593 49.3295L461.379 56.1329C461.558 57.6806 459.976 58.8295 458.56 58.1811L452.332 55.3309C451.804 55.089 451.196 55.089 450.668 55.3309L444.44 58.1811C443.024 58.8295 441.442 57.6806 441.621 56.1329L442.407 49.3295C442.474 48.7521 442.286 48.1742 441.893 47.7463L437.258 42.7044C436.204 41.5574 436.808 39.6986 438.335 39.3904L445.048 38.0358C445.618 37.9209 446.109 37.5637 446.395 37.0574L449.758 31.0912Z" fill="#FEBD33"/>
<path d="M407.758 83.0912C408.523 81.7339 410.477 81.7339 411.242 83.0911L414.605 89.0574C414.891 89.5637 415.382 89.9209 415.952 90.0358L422.665 91.3904C424.192 91.6986 424.796 93.5574 423.742 94.7044L419.107 99.7463C418.714 100.174 418.526 100.752 418.593 101.33L419.379 108.133C419.558 109.681 417.976 110.83 416.56 110.181L410.332 107.331C409.804 107.089 409.196 107.089 408.668 107.331L402.44 110.181C401.024 110.83 399.442 109.681 399.621 108.133L400.407 101.33C400.474 100.752 400.286 100.174 399.893 99.7463L395.258 94.7044C394.204 93.5574 394.808 91.6986 396.335 91.3904L403.048 90.0358C403.618 89.9209 404.109 89.5637 404.395 89.0574L407.758 83.0912Z" fill="#FEBD33"/>
<rect x="579.5" y="78" width="124" height="32" rx="16" fill="#9747FF"/>
<path d="M600.511 100V88.3636H608.352V90.392H602.972V93.1648H607.949V95.1932H602.972V97.9716H608.375V100H600.511ZM609.828 100V88.3636H614.419C615.302 88.3636 616.054 88.5322 616.675 88.8693C617.296 89.2027 617.77 89.6667 618.095 90.2614C618.425 90.8523 618.59 91.5341 618.59 92.3068C618.59 93.0795 618.423 93.7614 618.09 94.3523C617.756 94.9432 617.273 95.4034 616.641 95.733C616.012 96.0625 615.251 96.2273 614.357 96.2273H611.431V94.2557H613.959C614.432 94.2557 614.823 94.1742 615.129 94.0114C615.44 93.8447 615.671 93.6155 615.823 93.3239C615.978 93.0284 616.056 92.6894 616.056 92.3068C616.056 91.9205 615.978 91.5833 615.823 91.2955C615.671 91.0038 615.44 90.7784 615.129 90.6193C614.819 90.4564 614.425 90.375 613.948 90.375H612.288V100H609.828ZM622.168 88.3636V100H619.708V88.3636H622.168ZM630.024 91.7102C629.979 91.2519 629.784 90.8958 629.439 90.642C629.095 90.3883 628.627 90.2614 628.036 90.2614C627.634 90.2614 627.295 90.3182 627.019 90.4318C626.742 90.5417 626.53 90.6951 626.382 90.892C626.239 91.089 626.167 91.3125 626.167 91.5625C626.159 91.7708 626.203 91.9527 626.297 92.108C626.396 92.2633 626.53 92.3977 626.701 92.5114C626.871 92.6212 627.068 92.7178 627.292 92.8011C627.515 92.8807 627.754 92.9489 628.007 93.0057L629.053 93.2557C629.56 93.3693 630.026 93.5208 630.451 93.7102C630.875 93.8996 631.242 94.1326 631.553 94.4091C631.864 94.6856 632.104 95.0114 632.274 95.3864C632.449 95.7614 632.538 96.1913 632.542 96.6761C632.538 97.3883 632.356 98.0057 631.996 98.5284C631.64 99.0473 631.125 99.4508 630.451 99.7386C629.78 100.023 628.971 100.165 628.024 100.165C627.085 100.165 626.267 100.021 625.57 99.733C624.877 99.4451 624.335 99.0189 623.945 98.4545C623.559 97.8864 623.356 97.1837 623.337 96.3466H625.718C625.744 96.7367 625.856 97.0625 626.053 97.3239C626.254 97.5814 626.521 97.7765 626.854 97.9091C627.191 98.0379 627.572 98.1023 627.996 98.1023C628.413 98.1023 628.774 98.0417 629.081 97.9205C629.392 97.7992 629.632 97.6307 629.803 97.4148C629.973 97.1989 630.059 96.9508 630.059 96.6705C630.059 96.4091 629.981 96.1894 629.826 96.0114C629.674 95.8333 629.451 95.6818 629.155 95.5568C628.864 95.4318 628.506 95.3182 628.081 95.2159L626.814 94.8977C625.833 94.6591 625.059 94.286 624.49 93.7784C623.922 93.2708 623.64 92.5871 623.644 91.7273C623.64 91.0227 623.828 90.4072 624.206 89.8807C624.589 89.3542 625.114 88.9432 625.78 88.6477C626.447 88.3523 627.204 88.2045 628.053 88.2045C628.917 88.2045 629.67 88.3523 630.314 88.6477C630.962 88.9432 631.466 89.3542 631.826 89.8807C632.185 90.4072 632.371 91.017 632.382 91.7102H630.024ZM644.41 94.1818C644.41 95.4508 644.169 96.5303 643.688 97.4205C643.211 98.3106 642.559 98.9905 641.733 99.4602C640.911 99.9261 639.987 100.159 638.961 100.159C637.927 100.159 636.999 99.9242 636.177 99.4545C635.355 98.9848 634.705 98.3049 634.228 97.4148C633.75 96.5246 633.512 95.447 633.512 94.1818C633.512 92.9129 633.75 91.8333 634.228 90.9432C634.705 90.053 635.355 89.375 636.177 88.9091C636.999 88.4394 637.927 88.2045 638.961 88.2045C639.987 88.2045 640.911 88.4394 641.733 88.9091C642.559 89.375 643.211 90.053 643.688 90.9432C644.169 91.8333 644.41 92.9129 644.41 94.1818ZM641.915 94.1818C641.915 93.3598 641.792 92.6667 641.546 92.1023C641.303 91.5379 640.961 91.1098 640.518 90.8182C640.074 90.5265 639.555 90.3807 638.961 90.3807C638.366 90.3807 637.847 90.5265 637.404 90.8182C636.961 91.1098 636.616 91.5379 636.37 92.1023C636.127 92.6667 636.006 93.3598 636.006 94.1818C636.006 95.0038 636.127 95.697 636.37 96.2614C636.616 96.8258 636.961 97.2538 637.404 97.5455C637.847 97.8371 638.366 97.983 638.961 97.983C639.555 97.983 640.074 97.8371 640.518 97.5455C640.961 97.2538 641.303 96.8258 641.546 96.2614C641.792 95.697 641.915 95.0038 641.915 94.1818ZM649.877 100H645.752V88.3636H649.911C651.082 88.3636 652.089 88.5966 652.934 89.0625C653.779 89.5246 654.428 90.1894 654.883 91.0568C655.341 91.9242 655.57 92.9621 655.57 94.1705C655.57 95.3826 655.341 96.4242 654.883 97.2955C654.428 98.1667 653.775 98.8352 652.922 99.3011C652.074 99.767 651.059 100 649.877 100ZM648.212 97.892H649.775C650.502 97.892 651.114 97.7633 651.61 97.5057C652.11 97.2443 652.485 96.8409 652.735 96.2955C652.989 95.7462 653.116 95.0379 653.116 94.1705C653.116 93.3106 652.989 92.608 652.735 92.0625C652.485 91.517 652.112 91.1155 651.616 90.858C651.119 90.6004 650.508 90.4716 649.78 90.4716H648.212V97.892ZM656.913 100V88.3636H664.754V90.392H659.373V93.1648H664.35V95.1932H659.373V97.9716H664.776V100H656.913ZM672.431 97.9545V96.017L677.289 88.3636H678.96V91.0455H677.971L674.909 95.892V95.983H681.812V97.9545H672.431ZM678.017 100V97.3636L678.062 96.5057V88.3636H680.369V100H678.017Z" fill="white"/>
<mask id="path-101-outside-1_4915_47146" maskUnits="userSpaceOnUse" x="501" y="118" width="280" height="53" fill="black">
<rect fill="white" x="501" y="118" width="280" height="53"/>
<path d="M517.56 158.8C513.12 158.8 509.12 157.4 505.88 155.28L507.08 148.44C509.44 150.12 513.48 151.88 517.16 151.88C519.68 151.88 521.68 150.8 521.72 148.44C521.76 146.24 520 145 516.36 143.64L514.56 142.96C508.8 140.8 506 137.6 506 132.32C506 126.2 510.6 122.44 517.68 122.44C521.24 122.44 524.76 123.44 527.52 125.04L526.52 131.52C523.6 129.96 520.8 129.36 518.24 129.36C515.88 129.36 513.92 130.28 513.88 132.52C513.84 134.84 515.84 135.68 519.08 136.92L520.88 137.6C526.2 139.6 529.64 142.52 529.64 148.44C529.64 154.92 524.52 158.8 517.56 158.8ZM538.705 129.6H531.025V122.84H538.705V129.6ZM538.705 158.16H531.025V131.88H538.705V158.16ZM563.766 131.88V135.52H563.806V156.72C563.806 161.52 560.966 167 551.806 167C548.926 167 546.326 166.36 544.406 165.28L545.206 159.72C546.966 160.44 548.726 160.88 551.006 160.88C554.606 160.88 556.606 159.68 556.606 156.12V155.92C554.926 157.6 552.366 158.2 550.446 158.2C545.166 158.2 540.686 155.6 540.686 147.16V142.28C540.686 133.84 545.166 131.24 550.446 131.24C552.446 131.24 555.046 132.08 556.606 133.84V131.88H563.766ZM556.246 148.12V141.48C556.246 138.76 554.086 137.68 552.366 137.68C550.646 137.68 548.526 138.76 548.526 141.48V147.92C548.526 150.64 550.646 151.76 552.366 151.76C554.046 151.76 556.246 150.68 556.246 148.12ZM573.925 158.16H566.205V123.08H573.925V133.56C575.325 131.96 577.605 131.24 580.045 131.24C584.885 131.24 589.165 133.84 589.165 142.28V158.16H581.325V141.76C581.325 139.04 579.765 137.72 577.645 137.72C575.525 137.72 573.925 139 573.925 141.56V158.16ZM601.567 158.84C596.687 158.84 593.527 156.68 593.527 150.64V139.04H589.167V132.68H593.527V124.28H601.127V132.68H607.207V139.04H601.127V150.28C601.127 151.64 601.927 152.36 603.207 152.4C604.407 152.44 605.967 152.28 606.807 151.96L607.207 157.76C605.807 158.4 603.847 158.84 601.567 158.84ZM645.987 146.6L650.347 123.12H658.347L650.347 158.16H642.027L636.907 135.48L631.947 158.16H623.627L615.427 123.12H623.467L627.867 146.6L632.947 123.12H640.867L645.987 146.6ZM668.145 158.8C662.825 158.8 656.545 156.32 656.545 147.72V142.32C656.545 133.72 662.705 131.24 668.145 131.24C673.465 131.24 679.745 133.72 679.745 142.32V147.72C679.745 156.32 673.465 158.8 668.145 158.8ZM668.145 152.24C669.865 152.24 672.105 151.32 672.105 148.48V141.56C672.105 138.72 669.865 137.8 668.145 137.8C666.425 137.8 664.185 138.72 664.185 141.56V148.48C664.185 151.32 666.425 152.24 668.145 152.24ZM689.472 158.16H681.752V131.88H689.112V133.88C690.472 132 692.872 131.24 694.832 131.24C696.432 131.24 697.672 131.6 698.712 132.4L698.312 139.16C697.192 138.6 695.792 138.36 694.312 138.36C691.312 138.36 689.592 139.76 689.472 142.16V158.16ZM714.077 133.04V123.88H721.797V158.16H714.637V156.2C713.077 157.96 710.477 158.8 708.477 158.8C703.197 158.8 698.717 156.2 698.717 147.76V142.28C698.717 133.84 703.197 131.24 708.477 131.24C710.397 131.24 712.557 131.84 714.077 133.04ZM714.277 148.56V141.32C714.277 138.76 712.077 137.68 710.397 137.68C708.677 137.68 706.557 138.8 706.557 141.52V148.56C706.557 151.28 708.677 152.36 710.397 152.36C712.117 152.36 714.277 151.28 714.277 148.56ZM734.068 158.8C730.548 158.8 726.828 157.92 724.108 156.08L724.908 149.96C728.108 151.84 730.748 152.6 733.508 152.6C735.268 152.6 736.388 151.92 736.388 150.72C736.388 149.36 734.268 148.64 731.268 147.6L729.628 147.04C725.668 145.68 723.548 142.68 723.588 139.24C723.628 134.08 727.588 131.24 733.748 131.24C737.348 131.24 740.188 132.08 742.548 133.64L741.508 139.4C739.668 138.24 736.988 137.44 734.468 137.44C732.548 137.44 731.508 138.04 731.508 139.12C731.508 140.48 733.028 140.8 735.908 141.72L737.388 142.2C741.628 143.56 744.108 146.28 744.068 150.36C744.028 156.04 739.668 158.8 734.068 158.8ZM770.014 144.44L763.494 151.44H776.294V158.16H753.694V152.4L765.374 139.32C767.734 136.64 768.774 134.92 768.774 132.76C768.774 130.6 767.214 129.16 764.814 129.16C762.414 129.16 760.654 130.44 760.494 134.04H753.694C753.654 126.4 758.774 122.44 764.934 122.44C771.374 122.44 776.254 126.4 776.254 132.52C776.254 137.24 774.014 140.12 770.014 144.44Z"/>
</mask>
<path d="M517.56 158.8C513.12 158.8 509.12 157.4 505.88 155.28L507.08 148.44C509.44 150.12 513.48 151.88 517.16 151.88C519.68 151.88 521.68 150.8 521.72 148.44C521.76 146.24 520 145 516.36 143.64L514.56 142.96C508.8 140.8 506 137.6 506 132.32C506 126.2 510.6 122.44 517.68 122.44C521.24 122.44 524.76 123.44 527.52 125.04L526.52 131.52C523.6 129.96 520.8 129.36 518.24 129.36C515.88 129.36 513.92 130.28 513.88 132.52C513.84 134.84 515.84 135.68 519.08 136.92L520.88 137.6C526.2 139.6 529.64 142.52 529.64 148.44C529.64 154.92 524.52 158.8 517.56 158.8ZM538.705 129.6H531.025V122.84H538.705V129.6ZM538.705 158.16H531.025V131.88H538.705V158.16ZM563.766 131.88V135.52H563.806V156.72C563.806 161.52 560.966 167 551.806 167C548.926 167 546.326 166.36 544.406 165.28L545.206 159.72C546.966 160.44 548.726 160.88 551.006 160.88C554.606 160.88 556.606 159.68 556.606 156.12V155.92C554.926 157.6 552.366 158.2 550.446 158.2C545.166 158.2 540.686 155.6 540.686 147.16V142.28C540.686 133.84 545.166 131.24 550.446 131.24C552.446 131.24 555.046 132.08 556.606 133.84V131.88H563.766ZM556.246 148.12V141.48C556.246 138.76 554.086 137.68 552.366 137.68C550.646 137.68 548.526 138.76 548.526 141.48V147.92C548.526 150.64 550.646 151.76 552.366 151.76C554.046 151.76 556.246 150.68 556.246 148.12ZM573.925 158.16H566.205V123.08H573.925V133.56C575.325 131.96 577.605 131.24 580.045 131.24C584.885 131.24 589.165 133.84 589.165 142.28V158.16H581.325V141.76C581.325 139.04 579.765 137.72 577.645 137.72C575.525 137.72 573.925 139 573.925 141.56V158.16ZM601.567 158.84C596.687 158.84 593.527 156.68 593.527 150.64V139.04H589.167V132.68H593.527V124.28H601.127V132.68H607.207V139.04H601.127V150.28C601.127 151.64 601.927 152.36 603.207 152.4C604.407 152.44 605.967 152.28 606.807 151.96L607.207 157.76C605.807 158.4 603.847 158.84 601.567 158.84ZM645.987 146.6L650.347 123.12H658.347L650.347 158.16H642.027L636.907 135.48L631.947 158.16H623.627L615.427 123.12H623.467L627.867 146.6L632.947 123.12H640.867L645.987 146.6ZM668.145 158.8C662.825 158.8 656.545 156.32 656.545 147.72V142.32C656.545 133.72 662.705 131.24 668.145 131.24C673.465 131.24 679.745 133.72 679.745 142.32V147.72C679.745 156.32 673.465 158.8 668.145 158.8ZM668.145 152.24C669.865 152.24 672.105 151.32 672.105 148.48V141.56C672.105 138.72 669.865 137.8 668.145 137.8C666.425 137.8 664.185 138.72 664.185 141.56V148.48C664.185 151.32 666.425 152.24 668.145 152.24ZM689.472 158.16H681.752V131.88H689.112V133.88C690.472 132 692.872 131.24 694.832 131.24C696.432 131.24 697.672 131.6 698.712 132.4L698.312 139.16C697.192 138.6 695.792 138.36 694.312 138.36C691.312 138.36 689.592 139.76 689.472 142.16V158.16ZM714.077 133.04V123.88H721.797V158.16H714.637V156.2C713.077 157.96 710.477 158.8 708.477 158.8C703.197 158.8 698.717 156.2 698.717 147.76V142.28C698.717 133.84 703.197 131.24 708.477 131.24C710.397 131.24 712.557 131.84 714.077 133.04ZM714.277 148.56V141.32C714.277 138.76 712.077 137.68 710.397 137.68C708.677 137.68 706.557 138.8 706.557 141.52V148.56C706.557 151.28 708.677 152.36 710.397 152.36C712.117 152.36 714.277 151.28 714.277 148.56ZM734.068 158.8C730.548 158.8 726.828 157.92 724.108 156.08L724.908 149.96C728.108 151.84 730.748 152.6 733.508 152.6C735.268 152.6 736.388 151.92 736.388 150.72C736.388 149.36 734.268 148.64 731.268 147.6L729.628 147.04C725.668 145.68 723.548 142.68 723.588 139.24C723.628 134.08 727.588 131.24 733.748 131.24C737.348 131.24 740.188 132.08 742.548 133.64L741.508 139.4C739.668 138.24 736.988 137.44 734.468 137.44C732.548 137.44 731.508 138.04 731.508 139.12C731.508 140.48 733.028 140.8 735.908 141.72L737.388 142.2C741.628 143.56 744.108 146.28 744.068 150.36C744.028 156.04 739.668 158.8 734.068 158.8ZM770.014 144.44L763.494 151.44H776.294V158.16H753.694V152.4L765.374 139.32C767.734 136.64 768.774 134.92 768.774 132.76C768.774 130.6 767.214 129.16 764.814 129.16C762.414 129.16 760.654 130.44 760.494 134.04H753.694C753.654 126.4 758.774 122.44 764.934 122.44C771.374 122.44 776.254 126.4 776.254 132.52C776.254 137.24 774.014 140.12 770.014 144.44Z" fill="#9747FF"/>
<path d="M505.88 155.28L501.94 154.589C501.664 156.164 502.352 157.752 503.69 158.627L505.88 155.28ZM507.08 148.44L509.4 145.181C508.281 144.385 506.832 144.218 505.562 144.739C504.292 145.26 503.377 146.396 503.14 147.749L507.08 148.44ZM521.72 148.44L517.721 148.367L517.721 148.372L521.72 148.44ZM516.36 143.64L514.946 147.382C514.951 147.384 514.955 147.385 514.96 147.387L516.36 143.64ZM514.56 142.96L515.974 139.218L515.964 139.215L514.56 142.96ZM527.52 125.04L531.473 125.65C531.724 124.022 530.952 122.406 529.526 121.579L527.52 125.04ZM526.52 131.52L524.635 135.048C525.779 135.659 527.148 135.678 528.308 135.098C529.468 134.518 530.275 133.412 530.473 132.13L526.52 131.52ZM513.88 132.52L509.881 132.449L509.881 132.451L513.88 132.52ZM519.08 136.92L517.65 140.656C517.656 140.658 517.661 140.66 517.666 140.662L519.08 136.92ZM520.88 137.6L519.466 141.342L519.472 141.344L520.88 137.6ZM517.56 154.8C513.976 154.8 510.727 153.672 508.07 151.933L503.69 158.627C507.513 161.128 512.264 162.8 517.56 162.8V154.8ZM509.82 155.971L511.02 149.131L503.14 147.749L501.94 154.589L509.82 155.971ZM504.76 151.699C507.586 153.71 512.421 155.88 517.16 155.88V147.88C514.539 147.88 511.294 146.53 509.4 145.181L504.76 151.699ZM517.16 155.88C518.914 155.88 520.932 155.516 522.64 154.339C524.521 153.042 525.677 150.982 525.719 148.508L517.721 148.372C517.72 148.389 517.723 148.263 517.821 148.081C517.918 147.901 518.039 147.794 518.1 147.751C518.149 147.718 518.116 147.754 517.943 147.798C517.772 147.842 517.512 147.88 517.16 147.88V155.88ZM525.719 148.513C525.764 146.063 524.692 144.104 523.008 142.675C521.553 141.441 519.64 140.595 517.76 139.893L514.96 147.387C515.794 147.698 516.437 147.973 516.934 148.224C517.436 148.478 517.704 148.666 517.832 148.775C517.947 148.872 517.886 148.851 517.811 148.695C517.775 148.621 517.749 148.544 517.734 148.473C517.72 148.403 517.721 148.364 517.721 148.367L525.719 148.513ZM517.774 139.898L515.974 139.218L513.146 146.702L514.946 147.382L517.774 139.898ZM515.964 139.215C513.449 138.271 512.021 137.258 511.212 136.272C510.473 135.372 510 134.194 510 132.32H502C502 135.726 502.927 138.788 505.028 141.348C507.059 143.822 509.911 145.489 513.156 146.705L515.964 139.215ZM510 132.32C510 130.344 510.7 129.034 511.754 128.151C512.888 127.201 514.812 126.44 517.68 126.44V118.44C513.468 118.44 509.552 119.559 506.616 122.019C503.6 124.546 502 128.176 502 132.32H510ZM517.68 126.44C520.533 126.44 523.361 127.252 525.514 128.501L529.526 121.579C526.159 119.628 521.947 118.44 517.68 118.44V126.44ZM523.567 124.43L522.567 130.91L530.473 132.13L531.473 125.65L523.567 124.43ZM528.405 127.992C524.899 126.119 521.451 125.36 518.24 125.36V133.36C520.149 133.36 522.301 133.801 524.635 135.048L528.405 127.992ZM518.24 125.36C516.631 125.36 514.694 125.659 513.021 126.739C511.14 127.954 509.925 129.961 509.881 132.449L517.879 132.591C517.879 132.627 517.863 132.811 517.731 133.046C517.601 133.276 517.441 133.408 517.359 133.461C517.293 133.504 517.314 133.473 517.483 133.433C517.649 133.394 517.901 133.36 518.24 133.36V125.36ZM509.881 132.451C509.86 133.642 510.107 134.83 510.712 135.934C511.301 137.009 512.111 137.788 512.896 138.359C514.313 139.39 516.178 140.092 517.65 140.656L520.51 133.184C519.691 132.871 519.061 132.624 518.538 132.388C518.01 132.151 517.737 131.988 517.604 131.891C517.489 131.807 517.604 131.863 517.728 132.09C517.789 132.201 517.832 132.317 517.856 132.424C517.868 132.474 517.874 132.515 517.877 132.544C517.88 132.574 517.879 132.589 517.879 132.589L509.881 132.451ZM517.666 140.662L519.466 141.342L522.294 133.858L520.494 133.178L517.666 140.662ZM519.472 141.344C521.86 142.242 523.357 143.183 524.262 144.204C525.064 145.108 525.64 146.34 525.64 148.44H533.64C533.64 144.62 532.496 141.432 530.248 138.896C528.103 136.477 525.22 134.958 522.288 133.856L519.472 141.344ZM525.64 148.44C525.64 150.53 524.86 151.975 523.659 152.969C522.38 154.028 520.33 154.8 517.56 154.8V162.8C521.75 162.8 525.74 161.632 528.761 159.131C531.86 156.565 533.64 152.83 533.64 148.44H525.64ZM538.705 129.6V133.6C540.914 133.6 542.705 131.809 542.705 129.6H538.705ZM531.025 129.6H527.025C527.025 131.809 528.816 133.6 531.025 133.6V129.6ZM531.025 122.84V118.84C528.816 118.84 527.025 120.631 527.025 122.84H531.025ZM538.705 122.84H542.705C542.705 120.631 540.914 118.84 538.705 118.84V122.84ZM538.705 158.16V162.16C540.914 162.16 542.705 160.369 542.705 158.16H538.705ZM531.025 158.16H527.025C527.025 160.369 528.816 162.16 531.025 162.16V158.16ZM531.025 131.88V127.88C528.816 127.88 527.025 129.671 527.025 131.88H531.025ZM538.705 131.88H542.705C542.705 129.671 540.914 127.88 538.705 127.88V131.88ZM538.705 125.6H531.025V133.6H538.705V125.6ZM535.025 129.6V122.84H527.025V129.6H535.025ZM531.025 126.84H538.705V118.84H531.025V126.84ZM534.705 122.84V129.6H542.705V122.84H534.705ZM538.705 154.16H531.025V162.16H538.705V154.16ZM535.025 158.16V131.88H527.025V158.16H535.025ZM531.025 135.88H538.705V127.88H531.025V135.88ZM534.705 131.88V158.16H542.705V131.88H534.705ZM563.766 131.88H567.766C567.766 129.671 565.975 127.88 563.766 127.88V131.88ZM563.766 135.52H559.766C559.766 137.729 561.557 139.52 563.766 139.52V135.52ZM563.806 135.52H567.806C567.806 133.311 566.015 131.52 563.806 131.52V135.52ZM544.406 165.28L540.447 164.71C540.211 166.345 541.005 167.957 542.445 168.766L544.406 165.28ZM545.206 159.72L546.72 156.018C545.58 155.551 544.288 155.636 543.219 156.248C542.15 156.86 541.422 157.931 541.247 159.15L545.206 159.72ZM556.606 155.92H560.606C560.606 154.302 559.631 152.844 558.137 152.224C556.642 151.605 554.922 151.948 553.778 153.092L556.606 155.92ZM556.606 133.84L553.613 136.493C554.715 137.737 556.471 138.169 558.025 137.58C559.579 136.99 560.606 135.502 560.606 133.84H556.606ZM556.606 131.88V127.88C554.397 127.88 552.606 129.671 552.606 131.88H556.606ZM559.766 131.88V135.52H567.766V131.88H559.766ZM563.766 139.52H563.806V131.52H563.766V139.52ZM559.806 135.52V156.72H567.806V135.52H559.806ZM559.806 156.72C559.806 158.38 559.315 159.871 558.329 160.918C557.402 161.902 555.563 163 551.806 163V171C557.209 171 561.37 169.358 564.153 166.402C566.877 163.509 567.806 159.86 567.806 156.72H559.806ZM551.806 163C549.472 163 547.576 162.474 546.367 161.794L542.445 168.766C545.076 170.246 548.38 171 551.806 171V163ZM548.365 165.85L549.165 160.29L541.247 159.15L540.447 164.71L548.365 165.85ZM543.691 163.422C545.857 164.308 548.131 164.88 551.006 164.88V156.88C549.321 156.88 548.075 156.572 546.72 156.018L543.691 163.422ZM551.006 164.88C553.094 164.88 555.608 164.564 557.624 162.983C559.862 161.228 560.606 158.654 560.606 156.12H552.606C552.606 156.651 552.529 156.865 552.52 156.888C552.518 156.894 552.53 156.863 552.567 156.813C552.604 156.762 552.648 156.718 552.688 156.687C552.766 156.626 552.739 156.681 552.458 156.749C552.166 156.82 551.702 156.88 551.006 156.88V164.88ZM560.606 156.12V155.92H552.606V156.12H560.606ZM553.778 153.092C553.482 153.387 553.014 153.676 552.361 153.892C551.711 154.107 551.017 154.2 550.446 154.2V162.2C552.964 162.2 556.73 161.452 559.434 158.748L553.778 153.092ZM550.446 154.2C548.404 154.2 547.125 153.696 546.353 152.956C545.614 152.249 544.686 150.699 544.686 147.16H536.686C536.686 152.061 537.998 156.031 540.819 158.734C543.607 161.404 547.208 162.2 550.446 162.2V154.2ZM544.686 147.16V142.28H536.686V147.16H544.686ZM544.686 142.28C544.686 138.741 545.614 137.191 546.353 136.484C547.125 135.744 548.404 135.24 550.446 135.24V127.24C547.208 127.24 543.607 128.036 540.819 130.706C537.998 133.409 536.686 137.379 536.686 142.28H544.686ZM550.446 135.24C550.924 135.24 551.579 135.348 552.229 135.603C552.879 135.859 553.343 136.189 553.613 136.493L559.599 131.187C557.102 128.369 553.291 127.24 550.446 127.24V135.24ZM560.606 133.84V131.88H552.606V133.84H560.606ZM556.606 135.88H563.766V127.88H556.606V135.88ZM560.246 148.12V141.48H552.246V148.12H560.246ZM560.246 141.48C560.246 138.929 559.173 136.829 557.465 135.449C555.884 134.172 553.983 133.68 552.366 133.68V141.68C552.373 141.68 552.389 141.681 552.411 141.684C552.432 141.687 552.452 141.692 552.467 141.697C552.501 141.708 552.485 141.71 552.437 141.671C552.412 141.651 552.38 141.621 552.348 141.58C552.315 141.539 552.287 141.495 552.267 141.452C552.247 141.41 552.24 141.382 552.239 141.378C552.239 141.375 552.246 141.406 552.246 141.48H560.246ZM552.366 133.68C550.745 133.68 548.843 134.174 547.267 135.465C545.567 136.857 544.526 138.956 544.526 141.48H552.526C552.526 141.401 552.534 141.365 552.534 141.364C552.534 141.364 552.528 141.389 552.509 141.43C552.49 141.471 552.463 141.515 552.43 141.557C552.397 141.599 552.363 141.632 552.335 141.655C552.281 141.699 552.256 141.702 552.281 141.694C552.309 141.685 552.344 141.68 552.366 141.68V133.68ZM544.526 141.48V147.92H552.526V141.48H544.526ZM544.526 147.92C544.526 150.439 545.562 152.536 547.242 153.935C548.807 155.237 550.712 155.76 552.366 155.76V147.76C552.367 147.76 552.359 147.76 552.345 147.758C552.331 147.756 552.319 147.752 552.31 147.749C552.289 147.742 552.311 147.745 552.36 147.785C552.385 147.806 552.415 147.836 552.444 147.873C552.474 147.912 552.497 147.951 552.514 147.987C552.531 148.024 552.535 148.044 552.534 148.041C552.534 148.037 552.526 147.999 552.526 147.92H544.526ZM552.366 155.76C553.972 155.76 555.836 155.265 557.389 154.06C559.07 152.755 560.246 150.703 560.246 148.12H552.246C552.246 148.152 552.243 148.146 552.251 148.111C552.259 148.075 552.275 148.025 552.304 147.968C552.365 147.848 552.441 147.773 552.483 147.74C552.517 147.714 552.515 147.725 552.465 147.741C552.443 147.748 552.419 147.753 552.397 147.757C552.375 147.76 552.364 147.76 552.366 147.76V155.76ZM573.925 158.16V162.16C576.134 162.16 577.925 160.369 577.925 158.16H573.925ZM566.205 158.16H562.205C562.205 160.369 563.996 162.16 566.205 162.16V158.16ZM566.205 123.08V119.08C563.996 119.08 562.205 120.871 562.205 123.08H566.205ZM573.925 123.08H577.925C577.925 120.871 576.134 119.08 573.925 119.08V123.08ZM573.925 133.56H569.925C569.925 135.226 570.958 136.718 572.518 137.304C574.078 137.891 575.838 137.448 576.935 136.194L573.925 133.56ZM589.165 158.16V162.16C591.374 162.16 593.165 160.369 593.165 158.16H589.165ZM581.325 158.16H577.325C577.325 160.369 579.116 162.16 581.325 162.16V158.16ZM573.925 154.16H566.205V162.16H573.925V154.16ZM570.205 158.16V123.08H562.205V158.16H570.205ZM566.205 127.08H573.925V119.08H566.205V127.08ZM569.925 123.08V133.56H577.925V123.08H569.925ZM576.935 136.194C577.298 135.779 578.257 135.24 580.045 135.24V127.24C576.952 127.24 573.351 128.141 570.914 130.926L576.935 136.194ZM580.045 135.24C581.783 135.24 582.879 135.699 583.566 136.398C584.26 137.104 585.165 138.694 585.165 142.28H593.165C593.165 137.426 591.93 133.496 589.273 130.792C586.61 128.081 583.147 127.24 580.045 127.24V135.24ZM585.165 142.28V158.16H593.165V142.28H585.165ZM589.165 154.16H581.325V162.16H589.165V154.16ZM585.325 158.16V141.76H577.325V158.16H585.325ZM585.325 141.76C585.325 139.638 584.702 137.522 583.14 135.924C581.577 134.325 579.537 133.72 577.645 133.72V141.72C577.763 141.72 577.775 141.739 577.712 141.715C577.681 141.703 577.634 141.682 577.58 141.647C577.524 141.612 577.47 141.568 577.419 141.516C577.369 141.465 577.333 141.415 577.308 141.375C577.284 141.335 577.276 141.313 577.277 141.317C577.281 141.327 577.325 141.458 577.325 141.76H585.325ZM577.645 133.72C575.793 133.72 573.784 134.288 572.216 135.798C570.617 137.337 569.925 139.421 569.925 141.56H577.925C577.925 141.335 577.96 141.268 577.945 141.306C577.938 141.325 577.921 141.363 577.889 141.412C577.856 141.461 577.814 141.513 577.763 141.562C577.657 141.665 577.557 141.712 577.514 141.727C577.478 141.74 577.513 141.72 577.645 141.72V133.72ZM569.925 141.56V158.16H577.925V141.56H569.925ZM593.527 139.04H597.527C597.527 136.831 595.736 135.04 593.527 135.04V139.04ZM589.167 139.04H585.167C585.167 141.249 586.958 143.04 589.167 143.04V139.04ZM589.167 132.68V128.68C586.958 128.68 585.167 130.471 585.167 132.68H589.167ZM593.527 132.68V136.68C595.736 136.68 597.527 134.889 597.527 132.68H593.527ZM593.527 124.28V120.28C591.318 120.28 589.527 122.071 589.527 124.28H593.527ZM601.127 124.28H605.127C605.127 122.071 603.336 120.28 601.127 120.28V124.28ZM601.127 132.68H597.127C597.127 134.889 598.918 136.68 601.127 136.68V132.68ZM607.207 132.68H611.207C611.207 130.471 609.416 128.68 607.207 128.68V132.68ZM607.207 139.04V143.04C609.416 143.04 611.207 141.249 611.207 139.04H607.207ZM601.127 139.04V135.04C598.918 135.04 597.127 136.831 597.127 139.04H601.127ZM603.207 152.4L603.34 148.402L603.332 148.402L603.207 152.4ZM606.807 151.96L610.798 151.685C610.711 150.421 610.03 149.273 608.962 148.59C607.895 147.908 606.567 147.771 605.383 148.222L606.807 151.96ZM607.207 157.76L608.87 161.398C610.385 160.705 611.312 159.147 611.198 157.485L607.207 157.76ZM601.567 154.84C599.631 154.84 598.793 154.401 598.433 154.069C598.133 153.791 597.527 152.997 597.527 150.64H589.527C589.527 154.323 590.501 157.629 593.001 159.941C595.441 162.199 598.623 162.84 601.567 162.84V154.84ZM597.527 150.64V139.04H589.527V150.64H597.527ZM593.527 135.04H589.167V143.04H593.527V135.04ZM593.167 139.04V132.68H585.167V139.04H593.167ZM589.167 136.68H593.527V128.68H589.167V136.68ZM597.527 132.68V124.28H589.527V132.68H597.527ZM593.527 128.28H601.127V120.28H593.527V128.28ZM597.127 124.28V132.68H605.127V124.28H597.127ZM601.127 136.68H607.207V128.68H601.127V136.68ZM603.207 132.68V139.04H611.207V132.68H603.207ZM607.207 135.04H601.127V143.04H607.207V135.04ZM597.127 139.04V150.28H605.127V139.04H597.127ZM597.127 150.28C597.127 151.756 597.581 153.403 598.879 154.683C600.148 155.935 601.741 156.356 603.082 156.398L603.332 148.402C603.393 148.404 603.946 148.445 604.496 148.987C605.074 149.557 605.127 150.164 605.127 150.28H597.127ZM603.074 156.398C604.503 156.445 606.674 156.291 608.231 155.698L605.383 148.222C605.432 148.204 605.394 148.222 605.238 148.255C605.095 148.285 604.906 148.316 604.68 148.342C604.219 148.395 603.728 148.415 603.34 148.402L603.074 156.398ZM602.817 152.235L603.217 158.035L611.198 157.485L610.798 151.685L602.817 152.235ZM605.544 154.122C604.747 154.486 603.37 154.84 601.567 154.84V162.84C604.325 162.84 606.867 162.314 608.87 161.398L605.544 154.122ZM645.987 146.6L642.078 147.452C642.484 149.313 644.145 150.629 646.049 150.6C647.953 150.57 649.572 149.202 649.919 147.33L645.987 146.6ZM650.347 123.12V119.12C648.419 119.12 646.766 120.495 646.414 122.39L650.347 123.12ZM658.347 123.12L662.246 124.01C662.517 122.824 662.233 121.578 661.474 120.626C660.715 119.674 659.564 119.12 658.347 119.12V123.12ZM650.347 158.16V162.16C652.213 162.16 653.831 160.87 654.246 159.05L650.347 158.16ZM642.027 158.16L638.125 159.041C638.536 160.865 640.157 162.16 642.027 162.16V158.16ZM636.907 135.48L640.808 134.599C640.396 132.77 638.768 131.474 636.893 131.48C635.018 131.486 633.399 132.794 632.999 134.625L636.907 135.48ZM631.947 158.16V162.16C633.826 162.16 635.453 160.851 635.854 159.015L631.947 158.16ZM623.627 158.16L619.732 159.071C620.155 160.881 621.769 162.16 623.627 162.16V158.16ZM615.427 123.12V119.12C614.205 119.12 613.051 119.678 612.292 120.635C611.534 121.591 611.254 122.842 611.532 124.031L615.427 123.12ZM623.467 123.12L627.398 122.383C627.044 120.491 625.392 119.12 623.467 119.12V123.12ZM627.867 146.6L623.935 147.337C624.286 149.208 625.907 150.573 627.811 150.6C629.715 150.626 631.373 149.307 631.776 147.446L627.867 146.6ZM632.947 123.12V119.12C631.063 119.12 629.435 120.434 629.037 122.274L632.947 123.12ZM640.867 123.12L644.775 122.268C644.374 120.43 642.747 119.12 640.867 119.12V123.12ZM649.919 147.33L654.279 123.85L646.414 122.39L642.054 145.87L649.919 147.33ZM650.347 127.12H658.347V119.12H650.347V127.12ZM654.447 122.23L646.447 157.27L654.246 159.05L662.246 124.01L654.447 122.23ZM650.347 154.16H642.027V162.16H650.347V154.16ZM645.928 157.279L640.808 134.599L633.005 136.361L638.125 159.041L645.928 157.279ZM632.999 134.625L628.039 157.305L635.854 159.015L640.814 136.335L632.999 134.625ZM631.947 154.16H623.627V162.16H631.947V154.16ZM627.521 157.249L619.321 122.209L611.532 124.031L619.732 159.071L627.521 157.249ZM615.427 127.12H623.467V119.12H615.427V127.12ZM619.535 123.857L623.935 147.337L631.798 145.863L627.398 122.383L619.535 123.857ZM631.776 147.446L636.856 123.966L629.037 122.274L623.957 145.754L631.776 147.446ZM632.947 127.12H640.867V119.12H632.947V127.12ZM636.958 123.972L642.078 147.452L649.895 145.748L644.775 122.268L636.958 123.972ZM668.145 154.8C666.013 154.8 664.075 154.289 662.767 153.298C661.645 152.447 660.545 150.921 660.545 147.72H652.545C652.545 153.119 654.586 157.133 657.933 159.672C661.096 162.071 664.958 162.8 668.145 162.8V154.8ZM660.545 147.72V142.32H652.545V147.72H660.545ZM660.545 142.32C660.545 139.092 661.635 137.572 662.733 136.734C664.014 135.756 665.94 135.24 668.145 135.24V127.24C664.911 127.24 661.037 127.964 657.878 130.376C654.535 132.928 652.545 136.948 652.545 142.32H660.545ZM668.145 135.24C670.278 135.24 672.216 135.751 673.523 136.742C674.646 137.593 675.745 139.119 675.745 142.32H683.745C683.745 136.921 681.705 132.907 678.357 130.368C675.195 127.969 671.333 127.24 668.145 127.24V135.24ZM675.745 142.32V147.72H683.745V142.32H675.745ZM675.745 147.72C675.745 150.921 674.646 152.447 673.523 153.298C672.216 154.289 670.278 154.8 668.145 154.8V162.8C671.333 162.8 675.195 162.071 678.357 159.672C681.705 157.133 683.745 153.119 683.745 147.72H675.745ZM668.145 156.24C669.625 156.24 671.535 155.86 673.18 154.618C674.996 153.247 676.105 151.105 676.105 148.48H668.105C668.105 148.571 668.096 148.61 668.097 148.607C668.098 148.602 668.107 148.566 668.133 148.512C668.16 148.457 668.196 148.401 668.241 148.348C668.285 148.295 668.327 148.258 668.36 148.232C668.423 148.185 668.44 148.191 668.379 148.209C668.351 148.217 668.314 148.225 668.27 148.231C668.227 148.237 668.184 148.24 668.145 148.24V156.24ZM676.105 148.48V141.56H668.105V148.48H676.105ZM676.105 141.56C676.105 138.935 674.996 136.793 673.18 135.422C671.535 134.18 669.625 133.8 668.145 133.8V141.8C668.184 141.8 668.227 141.803 668.27 141.809C668.314 141.815 668.351 141.823 668.379 141.831C668.44 141.849 668.423 141.855 668.36 141.808C668.327 141.782 668.285 141.745 668.241 141.692C668.196 141.639 668.16 141.583 668.133 141.528C668.107 141.474 668.098 141.438 668.097 141.433C668.096 141.43 668.105 141.469 668.105 141.56H676.105ZM668.145 133.8C666.666 133.8 664.756 134.18 663.11 135.422C661.295 136.793 660.185 138.935 660.185 141.56H668.185C668.185 141.469 668.194 141.43 668.193 141.433C668.192 141.438 668.184 141.474 668.157 141.528C668.131 141.583 668.094 141.639 668.05 141.692C668.006 141.745 667.964 141.782 667.93 141.808C667.868 141.855 667.85 141.849 667.912 141.831C667.939 141.823 667.976 141.815 668.02 141.809C668.064 141.803 668.107 141.8 668.145 141.8V133.8ZM660.185 141.56V148.48H668.185V141.56H660.185ZM660.185 148.48C660.185 151.105 661.295 153.247 663.11 154.618C664.756 155.86 666.666 156.24 668.145 156.24V148.24C668.107 148.24 668.064 148.237 668.02 148.231C667.976 148.225 667.939 148.217 667.912 148.209C667.85 148.191 667.868 148.185 667.93 148.232C667.964 148.258 668.006 148.295 668.05 148.348C668.094 148.401 668.131 148.457 668.157 148.512C668.184 148.566 668.192 148.602 668.193 148.607C668.194 148.61 668.185 148.571 668.185 148.48H660.185ZM689.472 158.16V162.16C691.681 162.16 693.472 160.369 693.472 158.16H689.472ZM681.752 158.16H677.752C677.752 160.369 679.542 162.16 681.752 162.16V158.16ZM681.752 131.88V127.88C679.542 127.88 677.752 129.671 677.752 131.88H681.752ZM689.112 131.88H693.112C693.112 129.671 691.321 127.88 689.112 127.88V131.88ZM689.112 133.88H685.112C685.112 135.614 686.229 137.151 687.879 137.685C689.529 138.22 691.336 137.63 692.352 136.224L689.112 133.88ZM698.712 132.4L702.705 132.636C702.783 131.313 702.201 130.038 701.15 129.23L698.712 132.4ZM698.312 139.16L696.523 142.738C697.725 143.339 699.149 143.296 700.313 142.623C701.477 141.951 702.225 140.738 702.305 139.396L698.312 139.16ZM689.472 142.16L685.477 141.96C685.473 142.027 685.472 142.093 685.472 142.16H689.472ZM689.472 154.16H681.752V162.16H689.472V154.16ZM685.752 158.16V131.88H677.752V158.16H685.752ZM681.752 135.88H689.112V127.88H681.752V135.88ZM685.112 131.88V133.88H693.112V131.88H685.112ZM692.352 136.224C692.52 135.993 692.814 135.745 693.291 135.545C693.779 135.341 694.339 135.24 694.832 135.24V127.24C692.075 127.24 688.229 128.276 685.871 131.536L692.352 136.224ZM694.832 135.24C695.783 135.24 696.097 135.435 696.273 135.57L701.15 129.23C699.246 127.765 697.08 127.24 694.832 127.24V135.24ZM694.719 132.164L694.319 138.924L702.305 139.396L702.705 132.636L694.719 132.164ZM700.1 135.582C698.239 134.652 696.165 134.36 694.312 134.36V142.36C695.418 142.36 696.144 142.548 696.523 142.738L700.1 135.582ZM694.312 134.36C692.24 134.36 690.075 134.839 688.327 136.225C686.481 137.688 685.586 139.777 685.477 141.96L693.467 142.36C693.474 142.218 693.497 142.212 693.463 142.285C693.423 142.366 693.359 142.445 693.296 142.495C693.188 142.581 693.383 142.36 694.312 142.36V134.36ZM685.472 142.16V158.16H693.472V142.16H685.472ZM714.077 133.04L711.599 136.18C712.802 137.129 714.442 137.308 715.822 136.64C717.201 135.971 718.077 134.573 718.077 133.04H714.077ZM714.077 123.88V119.88C711.868 119.88 710.077 121.671 710.077 123.88H714.077ZM721.797 123.88H725.797C725.797 121.671 724.006 119.88 721.797 119.88V123.88ZM721.797 158.16V162.16C724.006 162.16 725.797 160.369 725.797 158.16H721.797ZM714.637 158.16H710.637C710.637 160.369 712.428 162.16 714.637 162.16V158.16ZM714.637 156.2H718.637C718.637 154.538 717.61 153.05 716.056 152.46C714.502 151.871 712.746 152.303 711.644 153.547L714.637 156.2ZM718.077 133.04V123.88H710.077V133.04H718.077ZM714.077 127.88H721.797V119.88H714.077V127.88ZM717.797 123.88V158.16H725.797V123.88H717.797ZM721.797 154.16H714.637V162.16H721.797V154.16ZM718.637 158.16V156.2H710.637V158.16H718.637ZM711.644 153.547C711.374 153.851 710.91 154.181 710.26 154.437C709.611 154.692 708.956 154.8 708.477 154.8V162.8C711.322 162.8 715.133 161.671 717.631 158.853L711.644 153.547ZM708.477 154.8C706.435 154.8 705.157 154.296 704.384 153.556C703.645 152.849 702.717 151.299 702.717 147.76H694.717C694.717 152.661 696.029 156.631 698.85 159.334C701.638 162.004 705.239 162.8 708.477 162.8V154.8ZM702.717 147.76V142.28H694.717V147.76H702.717ZM702.717 142.28C702.717 138.741 703.645 137.191 704.384 136.484C705.157 135.744 706.435 135.24 708.477 135.24V127.24C705.239 127.24 701.638 128.036 698.85 130.706C696.029 133.409 694.717 137.379 694.717 142.28H702.717ZM708.477 135.24C709.7 135.24 710.929 135.651 711.599 136.18L716.556 129.9C714.186 128.029 711.094 127.24 708.477 127.24V135.24ZM718.277 148.56V141.32H710.277V148.56H718.277ZM718.277 141.32C718.277 138.737 717.101 136.685 715.42 135.38C713.867 134.175 712.003 133.68 710.397 133.68V141.68C710.395 141.68 710.406 141.68 710.429 141.683C710.45 141.687 710.474 141.692 710.496 141.699C710.546 141.715 710.548 141.726 710.514 141.7C710.473 141.667 710.396 141.592 710.335 141.472C710.307 141.415 710.29 141.365 710.282 141.329C710.274 141.294 710.277 141.288 710.277 141.32H718.277ZM710.397 133.68C708.743 133.68 706.838 134.203 705.273 135.505C703.593 136.904 702.557 139.001 702.557 141.52H710.557C710.557 141.441 710.565 141.403 710.566 141.399C710.566 141.396 710.562 141.416 710.545 141.453C710.529 141.489 710.505 141.528 710.475 141.567C710.446 141.604 710.416 141.634 710.391 141.655C710.343 141.695 710.32 141.698 710.341 141.691C710.35 141.688 710.362 141.684 710.376 141.682C710.39 141.68 710.398 141.68 710.397 141.68V133.68ZM702.557 141.52V148.56H710.557V141.52H702.557ZM702.557 148.56C702.557 151.084 703.598 153.183 705.298 154.575C706.875 155.866 708.776 156.36 710.397 156.36V148.36C710.376 148.36 710.34 148.355 710.312 148.346C710.287 148.338 710.312 148.341 710.366 148.385C710.395 148.408 710.428 148.441 710.461 148.483C710.495 148.525 710.521 148.569 710.54 148.61C710.56 148.651 710.565 148.676 710.565 148.676C710.565 148.675 710.557 148.639 710.557 148.56H702.557ZM710.397 156.36C712.014 156.36 713.915 155.868 715.496 154.591C717.204 153.211 718.277 151.111 718.277 148.56H710.277C710.277 148.634 710.27 148.665 710.271 148.662C710.272 148.658 710.278 148.63 710.299 148.587C710.319 148.545 710.346 148.501 710.379 148.46C710.411 148.419 710.443 148.389 710.468 148.369C710.516 148.33 710.533 148.332 710.498 148.343C710.483 148.348 710.463 148.353 710.442 148.356C710.42 148.359 710.404 148.36 710.397 148.36V156.36ZM724.107 156.08L720.141 155.562C719.945 157.062 720.613 158.545 721.866 159.393L724.107 156.08ZM724.908 149.96L726.934 146.511C725.777 145.831 724.356 145.777 723.15 146.367C721.945 146.956 721.115 148.111 720.941 149.442L724.908 149.96ZM731.268 147.6L732.578 143.821C732.572 143.819 732.566 143.817 732.56 143.815L731.268 147.6ZM729.628 147.04L728.328 150.823L728.335 150.825L729.628 147.04ZM723.587 139.24L727.587 139.287C727.587 139.281 727.587 139.276 727.587 139.271L723.587 139.24ZM742.548 133.64L746.484 134.351C746.768 132.777 746.087 131.185 744.753 130.303L742.548 133.64ZM741.508 139.4L739.374 142.784C740.499 143.493 741.903 143.597 743.12 143.061C744.337 142.525 745.208 141.419 745.444 140.111L741.508 139.4ZM735.908 141.72L737.142 137.915C737.136 137.913 737.13 137.911 737.125 137.91L735.908 141.72ZM737.387 142.2L736.153 146.005L736.166 146.009L737.387 142.2ZM744.068 150.36L740.068 150.321L740.068 150.332L744.068 150.36ZM734.068 154.8C731.108 154.8 728.234 154.042 726.349 152.767L721.866 159.393C725.421 161.798 729.987 162.8 734.068 162.8V154.8ZM728.074 156.598L728.874 150.478L720.941 149.442L720.141 155.562L728.074 156.598ZM722.881 153.409C726.554 155.567 729.888 156.6 733.508 156.6V148.6C731.607 148.6 729.661 148.113 726.934 146.511L722.881 153.409ZM733.508 156.6C734.819 156.6 736.388 156.36 737.764 155.479C739.323 154.481 740.387 152.787 740.387 150.72H732.387C732.387 150.376 732.474 149.953 732.71 149.539C732.94 149.135 733.232 148.881 733.451 148.741C733.827 148.5 733.956 148.6 733.508 148.6V156.6ZM740.387 150.72C740.387 147.581 737.855 146.052 736.827 145.506C735.583 144.847 733.948 144.296 732.578 143.821L729.957 151.379C730.726 151.646 731.361 151.865 731.917 152.076C732.478 152.289 732.844 152.45 733.078 152.574C733.341 152.713 733.231 152.699 733.026 152.47C732.749 152.16 732.387 151.545 732.387 150.72H740.387ZM732.56 143.815L730.92 143.255L728.335 150.825L729.975 151.385L732.56 143.815ZM730.927 143.257C728.39 142.386 727.57 140.79 727.587 139.287L719.588 139.193C719.525 144.57 722.945 148.974 728.328 150.823L730.927 143.257ZM727.587 139.271C727.599 137.822 728.099 137.023 728.808 136.478C729.652 135.83 731.219 135.24 733.747 135.24V127.24C730.116 127.24 726.623 128.07 723.937 130.132C721.116 132.297 719.616 135.498 719.588 139.209L727.587 139.271ZM733.747 135.24C736.682 135.24 738.728 135.91 740.342 136.977L744.753 130.303C741.647 128.25 738.013 127.24 733.747 127.24V135.24ZM738.611 132.929L737.571 138.689L745.444 140.111L746.484 134.351L738.611 132.929ZM743.641 136.016C741.141 134.44 737.717 133.44 734.467 133.44V141.44C736.258 141.44 738.194 142.04 739.374 142.784L743.641 136.016ZM734.467 133.44C733.199 133.44 731.655 133.62 730.287 134.4C728.666 135.324 727.508 137.002 727.508 139.12H735.508C735.508 139.518 735.403 140.014 735.111 140.491C734.827 140.955 734.477 141.22 734.248 141.35C734.035 141.472 733.914 141.486 733.976 141.474C734.031 141.463 734.186 141.44 734.467 141.44V133.44ZM727.508 139.12C727.508 140.293 727.866 141.464 728.66 142.461C729.368 143.351 730.237 143.866 730.858 144.172C731.952 144.712 733.536 145.162 734.69 145.53L737.125 137.91C736.311 137.65 735.797 137.496 735.258 137.318C734.744 137.148 734.504 137.051 734.397 136.998C734.278 136.939 734.587 137.061 734.92 137.48C735.101 137.708 735.262 137.989 735.371 138.313C735.477 138.631 735.508 138.912 735.508 139.12H727.508ZM734.673 145.525L736.153 146.005L738.622 138.395L737.142 137.915L734.673 145.525ZM736.166 146.009C737.788 146.529 738.741 147.205 739.273 147.836C739.755 148.41 740.079 149.162 740.068 150.321L748.067 150.399C748.096 147.478 747.2 144.83 745.392 142.684C743.634 140.595 741.227 139.231 738.609 138.391L736.166 146.009ZM740.068 150.332C740.056 152.037 739.456 152.96 738.692 153.556C737.801 154.251 736.27 154.8 734.068 154.8V162.8C737.465 162.8 740.914 161.969 743.613 159.864C746.439 157.66 748.039 154.363 748.067 150.388L740.068 150.332ZM770.014 144.44L772.941 147.166L772.949 147.158L770.014 144.44ZM763.494 151.44L760.567 148.714C759.482 149.879 759.191 151.576 759.826 153.036C760.461 154.496 761.902 155.44 763.494 155.44V151.44ZM776.294 151.44H780.294C780.294 149.231 778.503 147.44 776.294 147.44V151.44ZM776.294 158.16V162.16C778.503 162.16 780.294 160.369 780.294 158.16H776.294ZM753.694 158.16H749.694C749.694 160.369 751.485 162.16 753.694 162.16V158.16ZM753.694 152.4L750.71 149.736C750.056 150.469 749.694 151.417 749.694 152.4H753.694ZM765.374 139.32L768.357 141.984C768.363 141.977 768.37 141.97 768.376 141.964L765.374 139.32ZM760.494 134.04V138.04C762.634 138.04 764.395 136.356 764.49 134.218L760.494 134.04ZM753.694 134.04L749.694 134.061C749.705 136.262 751.493 138.04 753.694 138.04V134.04ZM767.087 141.714L760.567 148.714L766.421 154.166L772.941 147.166L767.087 141.714ZM763.494 155.44H776.294V147.44H763.494V155.44ZM772.294 151.44V158.16H780.294V151.44H772.294ZM776.294 154.16H753.694V162.16H776.294V154.16ZM757.694 158.16V152.4H749.694V158.16H757.694ZM756.677 155.064L768.357 141.984L762.39 136.656L750.71 149.736L756.677 155.064ZM768.376 141.964C770.8 139.21 772.774 136.509 772.774 132.76H764.774C764.774 133.331 764.667 134.07 762.372 136.676L768.376 141.964ZM772.774 132.76C772.774 130.668 771.99 128.656 770.391 127.196C768.825 125.767 766.807 125.16 764.814 125.16V133.16C765.016 133.16 765.113 133.19 765.128 133.196C765.139 133.2 765.08 133.18 764.997 133.104C764.91 133.025 764.843 132.926 764.803 132.831C764.765 132.74 764.774 132.705 764.774 132.76H772.774ZM764.814 125.16C762.916 125.16 760.705 125.679 758.967 127.44C757.267 129.163 756.603 131.487 756.498 133.862L764.49 134.218C764.544 132.993 764.841 132.877 764.661 133.06C764.577 133.144 764.491 133.184 764.467 133.193C764.461 133.195 764.561 133.16 764.814 133.16V125.16ZM760.494 130.04H753.694V138.04H760.494V130.04ZM757.694 134.019C757.679 131.142 758.608 129.355 759.745 128.273C760.925 127.152 762.698 126.44 764.934 126.44V118.44C761.01 118.44 757.143 119.708 754.232 122.477C751.279 125.285 749.669 129.298 749.694 134.061L757.694 134.019ZM764.934 126.44C767.351 126.44 769.203 127.18 770.389 128.208C771.524 129.192 772.254 130.603 772.254 132.52H780.254C780.254 128.317 778.543 124.688 775.628 122.162C772.764 119.68 768.956 118.44 764.934 118.44V126.44ZM772.254 132.52C772.254 135.552 771.07 137.411 767.079 141.722L772.949 147.158C776.957 142.829 780.254 138.928 780.254 132.52H772.254Z" fill="#0C0541" mask="url(#path-101-outside-1_4915_47146)"/>
<defs>
<clipPath id="clip0_4915_47146">
<rect width="95.0135" height="205.316" fill="white" transform="translate(1062 555.303) rotate(-82.9862)"/>
</clipPath>
<clipPath id="clip1_4915_47146">
<rect width="95.0135" height="205.316" fill="white" transform="translate(182.199 557.608) rotate(-100.429)"/>
</clipPath>
<clipPath id="clip2_4915_47146">
<rect width="458.307" height="517.741" fill="white" transform="translate(415 7)"/>
</clipPath>
<clipPath id="clip3_4915_47146">
<rect width="130.756" height="81.8876" fill="white" transform="translate(909 144)"/>
</clipPath>
</defs>
</svg>
