<svg width="256" height="418" viewBox="0 0 256 418" fill="none" xmlns="http://www.w3.org/2000/svg">
<g clip-path="url(#clip0_4876_71333)">
<mask id="mask0_4876_71333" style="mask-type:luminance" maskUnits="userSpaceOnUse" x="78" y="265" width="97" height="155">
<path d="M155.275 265L78 275.61L97.7233 419.262L174.998 408.652L155.275 265Z" fill="white"/>
</mask>
<g mask="url(#mask0_4876_71333)">
<path d="M122.527 314.614C122.412 314.63 122.298 314.645 122.188 314.637C121.21 314.638 120.312 314.097 119.858 313.22C117.363 308.399 113.246 288.146 112.792 285.854C112.503 284.431 113.416 283.046 114.836 282.757C116.25 282.477 117.626 283.391 117.916 284.822C119.133 290.859 121.041 299.492 122.642 305.273L132.274 286.105C132.928 284.811 134.496 284.298 135.782 284.951C137.068 285.611 137.588 287.19 136.935 288.485L124.515 313.199C124.124 313.972 123.381 314.497 122.542 314.612L122.527 314.614Z" fill="#F1F2FE"/>
<path d="M137.549 413.794C136.139 413.988 134.823 413.003 134.611 411.577C133.988 407.43 119.25 309.932 119.107 308.887C118.909 307.451 119.908 306.125 121.333 305.929C122.759 305.734 124.078 306.742 124.275 308.178C124.457 309.506 139.616 409.786 139.77 410.798C139.99 412.231 139.009 413.57 137.579 413.79L137.541 413.795L137.549 413.794Z" fill="#F1F2FE"/>
<path d="M123.979 330.343C123.414 330.421 122.825 330.314 122.301 330.002C118.961 328.02 114.84 323.516 110.039 316.61C106.563 311.603 104.033 307.202 103.93 307.02C103.206 305.758 103.637 304.15 104.882 303.432C106.134 302.704 107.732 303.142 108.448 304.397C111.183 309.162 119.471 322.231 124.942 325.478C126.184 326.215 126.601 327.832 125.871 329.082C125.45 329.805 124.742 330.246 123.972 330.352L123.979 330.343Z" fill="#F1F2FE"/>
<path d="M125.126 330.608C124.371 330.712 123.586 330.483 122.981 329.925C121.929 328.935 121.871 327.268 122.852 326.211C122.994 326.058 136.913 311.019 145.238 297.828C146.009 296.604 147.622 296.241 148.839 297.021C150.057 297.8 150.42 299.425 149.648 300.649C141.056 314.268 127.26 329.181 126.67 329.809C126.244 330.267 125.691 330.538 125.119 330.617L125.126 330.608Z" fill="#F1F2FE"/>
<path d="M127.319 349.529C126.267 349.673 125.186 349.157 124.653 348.158C121.378 341.958 101.234 326.198 93.7461 320.646C92.5865 319.781 92.3304 318.142 93.1867 316.968C94.0441 315.802 95.6712 315.547 96.8384 316.412C99.6911 318.524 124.835 337.321 129.262 345.695C129.943 346.978 129.455 348.571 128.182 349.254C127.899 349.402 127.609 349.497 127.312 349.538L127.319 349.529Z" fill="#F1F2FE"/>
<path d="M130.979 368.499C130.842 368.518 130.711 368.528 130.571 368.524C129.13 368.494 127.979 367.291 128.012 365.839C128.275 351.917 146.788 314.78 147.581 313.208C148.227 311.914 149.802 311.393 151.088 312.046C152.374 312.699 152.894 314.286 152.249 315.579C152.199 315.672 147.46 325.163 142.755 336.152C135.01 354.239 133.31 362.335 133.238 365.943C133.216 367.253 132.236 368.318 130.986 368.49L130.979 368.499Z" fill="#F1F2FE"/>
<path d="M129.148 364.15C127.891 364.323 126.674 363.551 126.302 362.311C125.198 360.1 113.676 350.057 96.1625 336.939C95.0029 336.074 94.761 334.425 95.6183 333.259C96.4757 332.093 98.1125 331.852 99.2718 332.718C99.3498 332.778 106.89 338.424 114.47 344.526C130.406 357.359 131.007 359.639 131.323 360.871C131.687 362.276 130.859 363.712 129.457 364.076C129.352 364.106 129.253 364.12 129.146 364.135L129.148 364.15ZM126.272 362.206C126.272 362.206 126.277 362.244 126.279 362.26C126.277 362.244 126.274 362.221 126.272 362.206Z" fill="#F1F2FE"/>
<path d="M101.636 297.947C101.636 297.947 93.1005 299.197 93.672 304.321C93.672 304.321 94.0329 309.326 100.543 309.785C100.543 309.785 109.459 310.126 109.87 304.742C109.87 304.742 111.853 297.248 101.643 297.946L101.636 297.947Z" fill="#E5E7FC"/>
<path d="M103.476 310.799C101.845 311.022 100.565 310.979 100.494 310.973C94.5256 310.549 92.6606 306.525 92.5055 304.434C92.3059 302.584 92.9224 300.004 96.9467 298.145C99.1381 297.132 101.368 296.802 101.466 296.781L101.557 296.769C105.475 296.505 108.262 297.35 109.841 299.285C111.652 301.501 111.161 304.322 111.02 304.936C110.848 306.845 109.703 309.31 105.337 310.434C104.699 310.599 104.063 310.718 103.476 310.799ZM101.765 299.126C101.467 299.167 99.6261 299.498 97.8883 300.308C95.6842 301.338 94.6597 302.644 94.8345 304.201L94.8409 304.247C94.8728 304.649 95.351 308.245 100.614 308.618C100.652 308.612 108.374 308.851 108.691 304.661L108.7 304.55L108.724 304.445C108.724 304.445 109.257 302.275 108.018 300.771C106.964 299.492 104.798 298.929 101.765 299.126Z" fill="#E5E7FC"/>
<path d="M133.508 279.309C133.508 279.309 123.273 280.848 124.618 289.402C124.618 289.402 125.103 299.044 133.942 299.043C133.942 299.043 143.19 299.197 144.56 290.341C144.56 290.341 147.687 277.926 133.508 279.309Z" fill="#E5E7FC"/>
<path d="M135.648 300.115C135.023 300.201 134.437 300.234 133.924 300.226C126.11 300.227 123.663 293.264 123.445 289.523C123.055 286.972 123.555 284.728 124.921 282.851C127.698 279.035 133.095 278.184 133.323 278.145L133.384 278.137C138.251 277.664 141.793 278.688 143.913 281.174C146.95 284.739 145.853 289.928 145.701 290.575C144.648 297.221 139.367 299.596 135.639 300.108L135.648 300.115ZM133.659 280.477C133.287 280.544 128.923 281.339 126.814 284.249C125.808 285.639 125.471 287.258 125.779 289.218L125.796 289.341C125.812 289.683 126.353 297.863 133.948 297.86C134.299 297.867 142.221 297.867 143.406 290.154L143.43 290.042C143.44 290.001 144.526 285.471 142.141 282.693C140.55 280.83 137.698 280.087 133.658 280.47L133.659 280.477Z" fill="#E5E7FC"/>
<path d="M92.9882 313.021C92.9882 313.021 84.688 314.341 85.4565 321.182C85.4565 321.182 86.007 327.851 92.3863 328.719C92.3863 328.719 101.118 329.523 101.303 322.386C101.303 322.386 102.952 312.506 92.9882 313.021Z" fill="#E5E7FC"/>
<path d="M95.1267 329.79C93.5792 330.003 92.377 329.902 92.2747 329.892L92.2269 329.883C86.4415 329.097 84.5022 323.911 84.2799 321.273C83.5752 315.01 89.5424 312.368 92.7956 311.851L92.9176 311.834C96.2334 311.66 98.761 312.534 100.443 314.431C103.071 317.395 102.563 321.783 102.464 322.477C102.395 324.63 101.632 326.37 100.2 327.654C98.6923 329.003 96.7255 329.555 95.1247 329.775L95.1267 329.79ZM92.5039 327.545C92.8097 327.566 96.5384 327.797 98.6462 325.896C99.6 325.038 100.085 323.876 100.124 322.345L100.14 322.178C100.14 322.178 100.741 318.301 98.6847 315.994C97.5097 314.677 95.6405 314.073 93.1085 314.186C92.3809 314.317 86.005 315.623 86.6089 321.04C86.6295 321.303 87.1809 326.79 92.5018 327.53L92.5039 327.545Z" fill="#E5E7FC"/>
<path d="M150.167 290.627C150.167 290.627 141.867 291.946 142.636 298.788C142.636 298.788 143.186 305.456 149.565 306.325C149.565 306.325 158.297 307.129 158.482 299.992C158.482 299.992 160.131 290.111 150.167 290.627Z" fill="#E5E7FC"/>
<path d="M152.307 307.396C150.759 307.608 149.557 307.507 149.455 307.498L149.407 307.489C143.62 306.695 141.681 301.509 141.46 298.879C140.755 292.615 146.722 289.973 149.975 289.456L150.097 289.439C153.413 289.266 155.941 290.139 157.623 292.036C160.251 295 159.743 299.389 159.644 300.083C159.575 302.236 158.812 303.976 157.38 305.26C155.872 306.609 153.905 307.161 152.304 307.381L152.307 307.396ZM149.691 305.15C149.997 305.17 153.726 305.402 155.834 303.501C156.788 302.642 157.273 301.48 157.311 299.949L157.327 299.783C157.327 299.783 157.929 295.906 155.872 293.599C154.697 292.281 152.828 291.677 150.296 291.79C149.568 291.922 143.192 293.227 143.796 298.644C143.817 298.907 144.368 304.394 149.689 305.134L149.691 305.15Z" fill="#E5E7FC"/>
<path d="M96.7995 331.626C96.7995 331.626 88.2646 332.876 88.8361 338C88.8361 338 89.197 343.004 95.7065 343.464C95.7065 343.464 104.622 343.805 105.033 338.421C105.033 338.421 107.017 330.927 96.8071 331.625L96.7995 331.626Z" fill="#E5E7FC"/>
<path d="M98.6402 344.47C97.0089 344.694 95.7292 344.65 95.6584 344.644C89.6897 344.22 87.8247 340.197 87.6696 338.105C87.47 336.255 88.0865 333.675 92.1108 331.816C94.3018 330.803 96.5321 330.473 96.6302 330.452L96.7217 330.44C100.639 330.176 103.426 331.021 105.005 332.956C106.816 335.172 106.325 337.993 106.184 338.607C106.012 340.516 104.867 342.981 100.501 344.105C99.8631 344.27 99.2271 344.389 98.6402 344.47ZM96.9289 332.797C96.6316 332.838 94.7897 333.169 93.0524 333.979C90.8483 335.009 89.8238 336.315 89.9986 337.872L90.005 337.918C90.0369 338.32 90.5151 341.916 95.7777 342.289C95.8158 342.283 103.538 342.522 103.855 338.332L103.864 338.221L103.888 338.116C103.888 338.116 104.421 335.946 103.182 334.442C102.128 333.163 99.9621 332.6 96.9289 332.797Z" fill="#E5E7FC"/>
<path d="M112.102 272.117C112.102 272.117 101.867 273.655 103.212 282.209C103.212 282.209 103.697 291.852 112.535 291.851C112.535 291.851 121.784 292.005 123.154 283.148C123.154 283.148 126.28 270.734 112.102 272.117Z" fill="#E5E7FC"/>
<path d="M114.242 292.923C113.617 293.008 113.031 293.042 112.517 293.034C104.704 293.035 102.257 286.072 102.038 282.331C101.649 279.779 102.149 277.536 103.514 275.658C106.298 271.834 111.695 270.983 111.924 270.952L111.985 270.944C116.852 270.471 120.395 271.494 122.514 273.981C125.551 277.546 124.454 282.735 124.302 283.382C123.25 290.027 117.968 292.403 114.241 292.915L114.242 292.923ZM112.253 273.293C111.882 273.36 107.517 274.154 105.408 277.065C104.403 278.455 104.066 280.073 104.374 282.034L104.391 282.157C104.407 282.499 104.947 290.678 112.543 290.676C112.893 290.683 120.815 290.682 122.001 282.97L122.025 282.857C122.035 282.817 123.121 278.286 120.736 275.508C119.144 273.645 116.293 272.903 112.252 273.285L112.253 273.293Z" fill="#E5E7FC"/>
<path d="M150.738 308.472C150.738 308.472 142.438 309.791 143.206 316.633C143.206 316.633 143.757 323.301 150.136 324.17C150.136 324.17 158.867 324.974 159.053 317.837C159.053 317.837 160.702 307.957 150.738 308.472Z" fill="#E5E7FC"/>
<path d="M152.885 325.248C151.337 325.46 150.135 325.359 150.033 325.35L149.985 325.341C144.199 324.547 142.259 319.36 142.038 316.731C141.333 310.467 147.3 307.825 150.554 307.308L150.676 307.291C153.992 307.117 156.519 307.991 158.201 309.888C160.829 312.852 160.321 317.24 160.222 317.935C160.153 320.088 159.39 321.828 157.958 323.111C156.45 324.461 154.483 325.012 152.883 325.232L152.885 325.248ZM150.261 322.995C150.567 323.015 154.295 323.247 156.403 321.346C157.357 320.487 157.842 319.325 157.881 317.794L157.897 317.628C157.897 317.628 158.498 313.751 156.442 311.444C155.267 310.126 153.398 309.523 150.866 309.635C150.138 309.767 143.762 311.072 144.366 316.489C144.387 316.752 144.938 322.239 150.259 322.979L150.261 322.995Z" fill="#E5E7FC"/>
</g>
<path d="M152.258 35.091C153.023 33.734 154.977 33.734 155.742 35.091L159.423 41.621C159.708 42.127 160.199 42.484 160.769 42.599L168.116 44.081C169.644 44.39 170.248 46.248 169.193 47.395L164.121 52.913C163.727 53.341 163.539 53.919 163.606 54.496L164.467 61.942C164.646 63.49 163.064 64.639 161.648 63.99L154.832 60.871C154.304 60.629 153.696 60.629 153.168 60.871L146.352 63.99C144.936 64.639 143.354 63.49 143.533 61.942L144.394 54.496C144.461 53.919 144.273 53.341 143.879 52.913L138.807 47.395C137.752 46.248 138.356 44.39 139.884 44.081L147.231 42.599C147.801 42.484 148.292 42.127 148.577 41.621L152.258 35.091Z" fill="#F1F2FE"/>
<path d="M98.2575 93.091C99.0228 91.734 100.977 91.734 101.742 93.091L105.423 99.621C105.708 100.127 106.199 100.484 106.769 100.599L114.116 102.081C115.644 102.39 116.248 104.248 115.193 105.395L110.121 110.913C109.727 111.341 109.539 111.919 109.606 112.496L110.467 119.942C110.646 121.49 109.064 122.639 107.648 121.99L100.832 118.871C100.304 118.629 99.6958 118.629 99.1678 118.871L92.3523 121.99C90.9355 122.639 89.3543 121.49 89.5332 119.942L90.3937 112.496C90.4604 111.919 90.2726 111.341 89.8792 110.913L84.8067 105.395C83.7523 104.248 84.3562 102.39 85.8835 102.081L93.2305 100.599C93.8003 100.484 94.2919 100.127 94.5773 99.621L98.2575 93.091Z" fill="#F1F2FE"/>
<path d="M49.2575 1.09099C50.0225 -0.266008 51.9771 -0.266008 52.7421 1.09099L56.4223 7.62099C56.7077 8.12699 57.1993 8.48399 57.7691 8.59899L65.1161 10.081C66.6433 10.39 67.2473 12.248 66.1929 13.395L61.1204 18.913C60.727 19.341 60.5392 19.919 60.6059 20.496L61.4664 27.942C61.6453 29.49 60.0641 30.639 58.6473 29.99L51.8321 26.871C51.3036 26.629 50.696 26.629 50.1675 26.871L43.3523 29.99C41.9355 30.639 40.3543 29.49 40.5332 27.942L41.3937 20.496C41.4604 19.919 41.2726 19.341 40.8792 18.913L35.8067 13.395C34.7523 12.248 35.3562 10.39 36.8835 10.081L44.2305 8.59899C44.8003 8.48399 45.2919 8.12699 45.5773 7.62099L49.2575 1.09099Z" fill="#F1F2FE"/>
<path d="M54.7658 402.127C54.7658 402.127 57.267 392.753 77.0427 384.422C95.8822 376.475 80.6172 368.473 80.6172 368.473C80.6172 368.473 64.8421 362.691 53.788 384.067C53.788 384.067 50.9383 373.08 65.429 365.189C65.429 365.189 82.4222 360.687 78.269 351.275C74.1159 341.863 51.4674 355.612 48.4858 362.422C45.5042 369.232 49.5803 347.073 59.5516 337.42C59.5655 337.419 64.6024 325.338 51.9495 325.793C51.9495 325.793 41.7437 325.299 42.6374 350.264C42.6374 350.264 37.4619 326.068 18.8832 332.891C18.8832 332.891 14.5416 336.923 18.1963 344.93C18.1963 344.93 24.0605 349.456 33.0653 352.616C33.0653 352.616 42.432 355.727 42.7793 363.325C42.7793 363.325 24.8892 350.478 13.0577 363.578C13.0577 363.578 7.70578 376.055 22.8045 374.637C22.8045 374.637 42.4916 368.063 47.5575 387.191C47.5575 387.191 38.0714 375.008 20.8984 381.346C20.8984 381.346 13.5784 384.572 21.1073 395.12C21.1073 395.12 25.3306 397.629 36.5436 397.295C47.7566 396.961 49.01 402.654 49.01 402.654L54.7645 402.113L54.7658 402.127Z" fill="#F1F2FE"/>
<path d="M211.112 310.623C211.112 310.623 213.383 293.523 205.09 287.674C201.208 284.921 195.504 286.138 193.18 290.321C192.863 290.903 192.599 291.538 192.414 292.226" fill="#F1F2FE"/>
<path d="M222.678 307.552C222.678 307.552 228.461 286.774 217.237 285.424C217.237 285.424 209.077 283.73 207.387 292.915" fill="#F1F2FE"/>
<path d="M220.645 288.494C220.645 288.494 225.056 280.659 236.966 288.494C248.877 296.329 215.205 344.026 215.205 344.026L200.918 342.332C200.918 342.332 199.571 319.516 179.843 310.993C160.115 302.47 184.94 274.545 197.511 299.399C197.511 299.399 200.574 306.546 201.578 311.31" fill="#F1F2FE"/>
<path d="M221.989 290.876H192.754V313.692H221.989V290.876Z" fill="#F1F2FE"/>
<path d="M215.5 300H203.5V399H215.5V300Z" fill="#F1F2FE"/>
<path d="M247.657 379.497C241.747 380.246 236.124 380.894 230.784 381.423C-92.8643 413.49 13.3049 418 27.0049 418H257.004C251.788 417.649 247.657 413.296 247.657 407.992V379.497Z" fill="#F1F2FE"/>
<path d="M1049.69 418H1275.36C1275.36 418 1395.23 418 1100.7 375.912C1085.77 373.779 1071.95 371.697 1059.04 369.686V407.992C1059.04 413.296 1054.91 417.649 1049.69 418Z" fill="#F1F2FE"/>
</g>
<defs>
<clipPath id="clip0_4876_71333">
<rect width="256" height="418" fill="white"/>
</clipPath>
</defs>
</svg>
