<svg width="238" height="197" viewBox="0 0 238 197" fill="none" xmlns="http://www.w3.org/2000/svg">
<path d="M202.842 78.9483C206.174 77.7816 209.159 75.5919 211.243 72.4353C216.32 64.7715 214.188 54.4785 206.471 49.4279C198.755 44.3853 188.391 46.503 183.306 54.1668C183.129 54.4305 182.984 54.7103 182.823 54.982C181.592 53.056 179.958 51.3538 177.923 50.0193C170.206 44.9767 159.843 47.0944 154.757 54.7582C149.68 62.422 151.812 72.723 159.529 77.7656C162.796 79.9073 166.545 80.7384 170.166 80.4267C169.152 86.684 171.799 93.237 177.472 96.9531C185.189 101.996 195.56 99.8699 200.638 92.2141C203.341 88.1385 203.977 83.3196 202.842 78.9403V78.9483Z" fill="#07496F"/>
<path d="M132.959 172.287C136.969 174.067 141.549 174.617 146.149 173.537C157.319 170.907 164.239 159.707 161.609 148.537C158.969 137.367 147.779 130.447 136.609 133.077C136.219 133.167 135.849 133.297 135.469 133.407C136.009 130.607 135.999 127.667 135.299 124.707C132.669 113.537 121.469 106.617 110.299 109.247C99.1288 111.887 92.2088 123.077 94.8388 134.247C95.9588 138.987 98.6188 142.947 102.159 145.747C95.8688 150.577 92.6188 158.797 94.5588 167.017C97.1988 178.187 108.389 185.107 119.559 182.467C125.499 181.067 130.219 177.227 132.959 172.277V172.287Z" fill="#216186"/>
<path d="M97.8591 32.4994C100.789 29.8994 102.949 26.3694 103.769 22.2194C105.769 12.1394 99.2191 2.35935 89.1391 0.359353C79.0591 -1.64065 69.2791 4.90935 67.2791 14.9894C67.2091 15.3394 67.1791 15.6894 67.1291 16.0394C65.0491 14.5594 62.6491 13.4794 59.9791 12.9494C49.9091 10.9494 40.1191 17.4994 38.1191 27.5794C36.1191 37.6494 42.6691 47.4394 52.7491 49.4394C57.0191 50.2894 61.2391 49.5794 64.8291 47.7394C66.4291 54.6494 71.9191 60.3493 79.3291 61.8194C89.3991 63.8194 99.1891 57.2694 101.189 47.1894C102.249 41.8294 100.879 36.5694 97.8591 32.4994Z" fill="#07496F"/>
<path d="M56.6173 161.947C60.9873 161.647 65.2973 159.987 68.8573 156.887C77.4973 149.337 78.3873 136.207 70.8273 127.557C63.2773 118.917 50.1473 118.027 41.4973 125.587C41.1973 125.847 40.9273 126.137 40.6473 126.407C39.8173 123.687 38.4273 121.077 36.4373 118.797C28.8873 110.157 15.7573 109.267 7.10728 116.827C-1.53272 124.377 -2.42272 137.507 5.13728 146.147C8.33728 149.817 12.5473 152.067 16.9873 152.887C13.6873 160.097 14.6573 168.877 20.2173 175.237C27.7673 183.877 40.8973 184.767 49.5473 177.207C54.1473 173.187 56.5173 167.597 56.6273 161.937L56.6173 161.947Z" fill="#216186"/>
<path d="M108.613 132.947C112.983 132.647 117.303 130.987 120.853 127.887C129.493 120.337 130.383 107.207 122.823 98.5567C115.273 89.9167 102.143 89.0267 93.4932 96.5867C93.1932 96.8467 92.9232 97.1367 92.6432 97.4067C91.8132 94.6867 90.4232 92.0867 88.4332 89.7967C80.8832 81.1567 67.7532 80.2667 59.1032 87.8267C50.4632 95.3767 49.5832 108.507 57.1332 117.157C60.3332 120.817 64.5432 123.077 68.9832 123.897C65.6832 131.107 66.6532 139.887 72.2132 146.247C79.7632 154.887 92.8932 155.777 101.533 148.217C106.133 144.197 108.503 138.597 108.613 132.947Z" fill="#07496F"/>
<path d="M197.853 169.575C201.918 171.207 206.53 171.592 211.075 170.346C222.14 167.308 228.655 155.874 225.612 144.796C222.575 133.731 211.14 127.216 200.062 130.259C199.679 130.362 199.31 130.506 198.94 130.627C199.377 127.817 199.257 124.871 198.462 121.943C195.424 110.879 183.99 104.364 172.912 107.406C161.847 110.444 155.341 121.882 158.374 132.956C159.663 137.644 162.47 141.51 166.11 144.181C160.002 149.236 157.054 157.564 159.292 165.709C162.33 176.774 173.764 183.289 184.833 180.242C190.724 178.625 195.295 174.614 197.853 169.575Z" fill="#07496F"/>
</svg>
