<svg width="697" height="586" viewBox="0 0 697 586" fill="none" xmlns="http://www.w3.org/2000/svg">
<path d="M319.115 6.73121L45.1582 121.704C17.7988 133.181 0 159.965 0 189.65V512.319C0 553.008 32.9678 586 73.6436 586H622.356C663.025 586 696 553.016 696 512.319V189.693C696 159.987 678.172 133.188 650.784 121.726L376.02 6.7094C357.815 -0.915233 337.313 -0.900696 319.108 6.73848L319.115 6.73121Z" fill="#E7FCE3"/>
<mask id="mask0_4866_71055" style="mask-type:alpha" maskUnits="userSpaceOnUse" x="0" y="1" width="696" height="585">
<path d="M319.115 6.73121L45.1582 121.704C17.7988 133.181 0 159.965 0 189.65V512.319C0 553.008 32.9678 586 73.6436 586H622.356C663.025 586 696 553.016 696 512.319V189.693C696 159.987 678.172 133.188 650.784 121.726L376.02 6.7094C357.815 -0.915233 337.313 -0.900696 319.108 6.73848L319.115 6.73121Z" fill="#FCF1E3"/>
</mask>
<g mask="url(#mask0_4866_71055)">
<mask id="mask1_4866_71055" style="mask-type:alpha" maskUnits="userSpaceOnUse" x="0" y="1" width="696" height="585">
<path d="M319.115 6.73121L45.1582 121.704C17.7988 133.181 0 159.965 0 189.65V512.319C0 553.008 32.9678 586 73.6436 586H622.356C663.025 586 696 553.016 696 512.319V189.693C696 159.987 678.172 133.188 650.784 121.726L376.02 6.7094C357.815 -0.915233 337.313 -0.900696 319.108 6.73848L319.115 6.73121Z" fill="#E7FCE3"/>
</mask>
<g mask="url(#mask1_4866_71055)">
<path d="M348.5 0L348.5 585M398.5 0L398.5 585M48.5 0L48.5 585M448.5 0L448.5 585M98.5 0L98.5 585M498.5 0L498.5 585M148.5 0L148.5 585M548.5 0L548.5 585M198.5 0L198.5 585M598.5 0V585M248.5 0L248.5 585M648.5 0V585M298.5 0L298.5 585" stroke="white" stroke-opacity="0.4" stroke-width="4"/>
</g>
</g>
<rect x="296.5" y="79" width="123" height="32" rx="16" fill="#94BF49"/>
<path d="M317.511 101V89.3636H325.352V91.392H319.972V94.1648H324.949V96.1932H319.972V98.9716H325.375V101H317.511ZM326.828 101V89.3636H331.419C332.302 89.3636 333.054 89.5322 333.675 89.8693C334.296 90.2027 334.77 90.6667 335.095 91.2614C335.425 91.8523 335.59 92.5341 335.59 93.3068C335.59 94.0795 335.423 94.7614 335.09 95.3523C334.756 95.9432 334.273 96.4034 333.641 96.733C333.012 97.0625 332.251 97.2273 331.357 97.2273H328.431V95.2557H330.959C331.432 95.2557 331.823 95.1742 332.129 95.0114C332.44 94.8447 332.671 94.6155 332.823 94.3239C332.978 94.0284 333.056 93.6894 333.056 93.3068C333.056 92.9205 332.978 92.5833 332.823 92.2955C332.671 92.0038 332.44 91.7784 332.129 91.6193C331.819 91.4564 331.425 91.375 330.948 91.375H329.288V101H326.828ZM339.168 89.3636V101H336.708V89.3636H339.168ZM347.024 92.7102C346.979 92.2519 346.784 91.8958 346.439 91.642C346.095 91.3883 345.627 91.2614 345.036 91.2614C344.634 91.2614 344.295 91.3182 344.019 91.4318C343.742 91.5417 343.53 91.6951 343.382 91.892C343.239 92.089 343.167 92.3125 343.167 92.5625C343.159 92.7708 343.203 92.9527 343.297 93.108C343.396 93.2633 343.53 93.3977 343.701 93.5114C343.871 93.6212 344.068 93.7178 344.292 93.8011C344.515 93.8807 344.754 93.9489 345.007 94.0057L346.053 94.2557C346.56 94.3693 347.026 94.5208 347.451 94.7102C347.875 94.8996 348.242 95.1326 348.553 95.4091C348.864 95.6856 349.104 96.0114 349.274 96.3864C349.449 96.7614 349.538 97.1913 349.542 97.6761C349.538 98.3883 349.356 99.0057 348.996 99.5284C348.64 100.047 348.125 100.451 347.451 100.739C346.78 101.023 345.971 101.165 345.024 101.165C344.085 101.165 343.267 101.021 342.57 100.733C341.877 100.445 341.335 100.019 340.945 99.4545C340.559 98.8864 340.356 98.1837 340.337 97.3466H342.718C342.744 97.7367 342.856 98.0625 343.053 98.3239C343.254 98.5814 343.521 98.7765 343.854 98.9091C344.191 99.0379 344.572 99.1023 344.996 99.1023C345.413 99.1023 345.774 99.0417 346.081 98.9205C346.392 98.7992 346.632 98.6307 346.803 98.4148C346.973 98.1989 347.059 97.9508 347.059 97.6705C347.059 97.4091 346.981 97.1894 346.826 97.0114C346.674 96.8333 346.451 96.6818 346.155 96.5568C345.864 96.4318 345.506 96.3182 345.081 96.2159L343.814 95.8977C342.833 95.6591 342.059 95.286 341.49 94.7784C340.922 94.2708 340.64 93.5871 340.644 92.7273C340.64 92.0227 340.828 91.4072 341.206 90.8807C341.589 90.3542 342.114 89.9432 342.78 89.6477C343.447 89.3523 344.204 89.2045 345.053 89.2045C345.917 89.2045 346.67 89.3523 347.314 89.6477C347.962 89.9432 348.466 90.3542 348.826 90.8807C349.185 91.4072 349.371 92.017 349.382 92.7102H347.024ZM361.41 95.1818C361.41 96.4508 361.169 97.5303 360.688 98.4205C360.211 99.3106 359.559 99.9905 358.733 100.46C357.911 100.926 356.987 101.159 355.961 101.159C354.927 101.159 353.999 100.924 353.177 100.455C352.355 99.9848 351.705 99.3049 351.228 98.4148C350.75 97.5246 350.512 96.447 350.512 95.1818C350.512 93.9129 350.75 92.8333 351.228 91.9432C351.705 91.053 352.355 90.375 353.177 89.9091C353.999 89.4394 354.927 89.2045 355.961 89.2045C356.987 89.2045 357.911 89.4394 358.733 89.9091C359.559 90.375 360.211 91.053 360.688 91.9432C361.169 92.8333 361.41 93.9129 361.41 95.1818ZM358.915 95.1818C358.915 94.3598 358.792 93.6667 358.546 93.1023C358.303 92.5379 357.961 92.1098 357.518 91.8182C357.074 91.5265 356.555 91.3807 355.961 91.3807C355.366 91.3807 354.847 91.5265 354.404 91.8182C353.961 92.1098 353.616 92.5379 353.37 93.1023C353.127 93.6667 353.006 94.3598 353.006 95.1818C353.006 96.0038 353.127 96.697 353.37 97.2614C353.616 97.8258 353.961 98.2538 354.404 98.5455C354.847 98.8371 355.366 98.983 355.961 98.983C356.555 98.983 357.074 98.8371 357.518 98.5455C357.961 98.2538 358.303 97.8258 358.546 97.2614C358.792 96.697 358.915 96.0038 358.915 95.1818ZM366.877 101H362.752V89.3636H366.911C368.082 89.3636 369.089 89.5966 369.934 90.0625C370.779 90.5246 371.428 91.1894 371.883 92.0568C372.341 92.9242 372.57 93.9621 372.57 95.1705C372.57 96.3826 372.341 97.4242 371.883 98.2955C371.428 99.1667 370.775 99.8352 369.922 100.301C369.074 100.767 368.059 101 366.877 101ZM365.212 98.892H366.775C367.502 98.892 368.114 98.7633 368.61 98.5057C369.11 98.2443 369.485 97.8409 369.735 97.2955C369.989 96.7462 370.116 96.0379 370.116 95.1705C370.116 94.3106 369.989 93.608 369.735 93.0625C369.485 92.517 369.112 92.1155 368.616 91.858C368.119 91.6004 367.508 91.4716 366.78 91.4716H365.212V98.892ZM373.913 101V89.3636H381.754V91.392H376.373V94.1648H381.35V96.1932H376.373V98.9716H381.776V101H373.913ZM393.909 101.159C393.06 101.159 392.305 101.013 391.642 100.722C390.983 100.426 390.462 100.021 390.079 99.5057C389.7 98.9867 389.505 98.3883 389.494 97.7102H391.971C391.986 97.9943 392.079 98.2443 392.25 98.4602C392.424 98.6723 392.655 98.8371 392.943 98.9545C393.231 99.072 393.555 99.1307 393.914 99.1307C394.289 99.1307 394.621 99.0644 394.909 98.9318C395.197 98.7992 395.422 98.6155 395.585 98.3807C395.748 98.1458 395.829 97.875 395.829 97.5682C395.829 97.2576 395.742 96.983 395.568 96.7443C395.397 96.5019 395.151 96.3125 394.829 96.1761C394.511 96.0398 394.132 95.9716 393.693 95.9716H392.608V94.1648H393.693C394.064 94.1648 394.392 94.1004 394.676 93.9716C394.964 93.8428 395.187 93.6648 395.346 93.4375C395.505 93.2064 395.585 92.9375 395.585 92.6307C395.585 92.339 395.515 92.0833 395.375 91.8636C395.238 91.6402 395.045 91.4659 394.795 91.3409C394.549 91.2159 394.261 91.1534 393.931 91.1534C393.598 91.1534 393.293 91.214 393.017 91.3352C392.74 91.4527 392.519 91.6212 392.352 91.8409C392.185 92.0606 392.096 92.3182 392.085 92.6136H389.727C389.738 91.9432 389.93 91.3523 390.301 90.8409C390.672 90.3295 391.172 89.9299 391.801 89.642C392.433 89.3504 393.147 89.2045 393.943 89.2045C394.746 89.2045 395.448 89.3504 396.051 89.642C396.653 89.9337 397.121 90.3277 397.454 90.8239C397.791 91.3163 397.958 91.8693 397.954 92.483C397.958 93.1345 397.755 93.678 397.346 94.1136C396.941 94.5492 396.412 94.8258 395.761 94.9432V95.0341C396.617 95.1439 397.269 95.4413 397.716 95.9261C398.166 96.4072 398.39 97.0095 398.386 97.733C398.39 98.3958 398.198 98.9848 397.812 99.5C397.43 100.015 396.901 100.42 396.227 100.716C395.553 101.011 394.78 101.159 393.909 101.159Z" fill="white"/>
<path d="M273.74 159.16H265.9V124.08H279.1C286.02 124.08 291.1 127.52 291.1 135.08V137.92C291.1 145.48 286.02 148.92 279.1 148.92H273.74V159.16ZM273.74 130.88V142.12H278.7C281.38 142.12 283.3 140.52 283.3 137.48V135.52C283.3 132.48 281.38 130.88 278.7 130.88H273.74ZM300.604 159.16H292.884V124.08H300.604V134.56C302.004 132.96 304.284 132.24 306.724 132.24C311.564 132.24 315.844 134.84 315.844 143.28V159.16H308.004V142.76C308.004 140.04 306.444 138.72 304.324 138.72C302.204 138.72 300.604 140 300.604 142.56V159.16ZM329.028 159.8C323.708 159.8 317.428 157.32 317.428 148.72V143.32C317.428 134.72 323.588 132.24 329.028 132.24C334.348 132.24 340.628 134.72 340.628 143.32V148.72C340.628 157.32 334.348 159.8 329.028 159.8ZM329.028 153.24C330.748 153.24 332.988 152.32 332.988 149.48V142.56C332.988 139.72 330.748 138.8 329.028 138.8C327.308 138.8 325.068 139.72 325.068 142.56V149.48C325.068 152.32 327.308 153.24 329.028 153.24ZM350.194 159.16H342.634V132.88H349.834V134.84C351.434 133.04 353.914 132.24 356.354 132.24C361.194 132.24 365.354 134.84 365.354 143.28V159.16H357.674V142.84C357.674 140.12 356.194 138.72 353.954 138.72C351.714 138.72 350.194 140.08 350.194 142.64V159.16ZM375.424 130.6H367.744V123.84H375.424V130.6ZM375.424 159.16H367.744V132.88H375.424V159.16ZM388.925 159.8C384.005 159.8 377.405 157.28 377.405 148.12V143.92C377.405 134.76 384.005 132.24 388.925 132.24C392.605 132.24 395.125 133 396.885 134.08L396.085 139.92C394.805 139.16 392.845 138.72 390.085 138.72C387.165 138.72 385.045 140.32 385.045 143.84V148.2C385.045 151.72 387.165 153.32 390.085 153.32C392.645 153.32 395.085 152.72 396.565 151.8L397.365 157.84C395.405 159.04 392.605 159.8 388.925 159.8ZM408.458 159.8C404.938 159.8 401.218 158.92 398.498 157.08L399.298 150.96C402.498 152.84 405.138 153.6 407.898 153.6C409.658 153.6 410.778 152.92 410.778 151.72C410.778 150.36 408.658 149.64 405.658 148.6L404.018 148.04C400.058 146.68 397.938 143.68 397.978 140.24C398.018 135.08 401.978 132.24 408.138 132.24C411.738 132.24 414.578 133.08 416.938 134.64L415.898 140.4C414.058 139.24 411.378 138.44 408.858 138.44C406.938 138.44 405.898 139.04 405.898 140.12C405.898 141.48 407.418 141.8 410.298 142.72L411.778 143.2C416.018 144.56 418.498 147.28 418.458 151.36C418.418 157.04 414.058 159.8 408.458 159.8ZM444.404 145.44L437.884 152.44H450.684V159.16H428.084V153.4L439.764 140.32C442.124 137.64 443.164 135.92 443.164 133.76C443.164 131.6 441.604 130.16 439.204 130.16C436.804 130.16 435.044 131.44 434.884 135.04H428.084C428.044 127.4 433.164 123.44 439.324 123.44C445.764 123.44 450.644 127.4 450.644 133.52C450.644 138.24 448.404 141.12 444.404 145.44Z" fill="#94BF49"/>
</svg>
