<svg width="1291" height="585" viewBox="0 0 1291 585" fill="none" xmlns="http://www.w3.org/2000/svg">
<g clip-path="url(#clip0_4910_62972)">
<path d="M1231.28 488.535C1230.38 482.426 1226.63 477.888 1222.41 478.166C1218.19 478.444 1215.06 483.525 1215 489.723C1212.53 483.923 1207.59 480.449 1203.52 481.87C1200.38 482.989 1198.67 486.798 1198.88 491.315C1195.81 488.662 1192.22 487.688 1189.5 489.185C1186.84 490.66 1185.74 494.1 1186.26 498.034C1182.79 496.987 1179.49 497.438 1177.6 499.599C1174.99 502.616 1175.99 507.91 1179.73 512.212L1177.86 560.762L1253.85 573.125C1255.19 575.653 1257.57 577.659 1260.63 578.42C1266.24 579.819 1271.86 576.552 1273.2 571.133C1273.95 568.153 1273.17 565.161 1271.45 562.822C1274.67 562.066 1277.11 560.238 1277.75 557.658C1278.33 555.336 1277.33 552.909 1275.35 550.833C1278.48 549.12 1280.39 546.49 1280.21 543.66C1280.03 541.275 1278.36 539.267 1275.84 537.923C1278.9 535.108 1280.34 531.563 1279.08 528.63C1277.96 526.01 1274.99 524.522 1271.37 524.46C1273.04 522.125 1273.62 519.538 1272.69 517.325C1271.59 514.767 1268.73 513.322 1265.23 513.187C1268.24 509.096 1268.91 504.392 1266.51 501.644C1264.93 499.854 1262.37 499.274 1259.57 499.727C1260.73 496.087 1260.27 492.604 1257.97 490.696C1255.27 488.443 1250.89 489.056 1247.01 491.858C1247.49 486.481 1245.46 481.859 1241.75 480.87C1237.84 479.798 1233.45 483.158 1231.25 488.56L1231.28 488.535Z" fill="#E8EAFF"/>
<path d="M1146.93 501.735C1145.66 497.679 1142.47 494.805 1138.73 494.787C1135.72 494.772 1133.08 496.604 1131.44 499.386C1128.67 496.209 1124.62 494.854 1121.2 496.295C1119.46 497.026 1118.14 498.4 1117.31 500.1C1114.68 498.979 1111.62 498.898 1108.79 500.086C1106.4 501.092 1104.61 502.881 1103.46 505.015C1099.37 504.038 1094.91 505.499 1092.2 509.066C1091.11 510.527 1090.46 512.191 1090.19 513.872C1087.13 514.085 1084.18 515.525 1082.18 518.144C1079.18 522.119 1079.35 527.429 1082.16 531.231C1079.76 531.793 1077.51 533.111 1075.89 535.246C1072.31 540.124 1073.26 546.978 1078.09 550.616C1082.06 553.615 1087.39 553.444 1091.19 550.602L1177.69 559.235C1179.32 560.854 1181.56 562.104 1184.21 562.578C1190.16 563.664 1195.66 560.618 1196.55 555.793C1197.26 551.951 1194.78 548.159 1190.77 546.218C1193.59 543.67 1194.91 540.08 1193.81 536.842C1192.68 533.571 1189.36 531.567 1185.52 531.36C1189.24 527.446 1189.98 521.923 1187.04 518.489C1185.03 516.143 1181.8 515.332 1178.55 516.055C1179.38 512.198 1178.23 508.363 1175.28 506.435C1171.35 503.854 1165.69 505.55 1162.32 510.158C1164.09 504.615 1162.05 498.956 1157.56 497.311C1153.81 495.933 1149.53 497.888 1146.96 501.739L1146.93 501.735Z" fill="#F1F2FE"/>
<path opacity="0.5" d="M1105.5 535.106C1105.5 535.106 1094.06 510.889 1114.5 526.699C1114.5 526.699 1108.96 506.99 1124.12 522.565C1124.12 522.565 1127.12 498.203 1134.99 520.475C1134.99 520.475 1145.97 495.973 1150.05 521.559" stroke="white" stroke-width="3" stroke-miterlimit="10" stroke-linecap="round" stroke-linejoin="round"/>
<path opacity="0.5" d="M1117.58 545.068C1117.58 545.068 1129.8 526.037 1129.08 547.251C1129.08 547.251 1145.46 534.434 1140.64 555.144" stroke="white" stroke-width="3" stroke-miterlimit="10" stroke-linecap="round" stroke-linejoin="round"/>
<path opacity="0.5" d="M1217.64 531.509C1217.64 531.509 1233.21 512.889 1227.92 534.28C1227.92 534.28 1244.01 533.216 1231.39 546.112C1231.39 546.112 1247.05 545.38 1233.32 555.096" stroke="white" stroke-width="3" stroke-miterlimit="10" stroke-linecap="round" stroke-linejoin="round"/>
<path opacity="0.5" d="M1200.86 514.855C1200.86 514.855 1199.98 494.212 1212.62 511.753C1212.62 511.753 1210.92 500.906 1218.13 501.025C1225.34 501.144 1221.98 512.904 1221.98 512.904C1221.98 512.904 1224.45 502.187 1231.36 504.543C1238.26 506.9 1233.78 518.905 1233.78 518.905C1233.78 518.905 1239.41 503.998 1246.59 516.669C1246.59 516.669 1248.97 518.854 1242.26 527.158" stroke="white" stroke-width="3" stroke-miterlimit="10" stroke-linecap="round" stroke-linejoin="round"/>
<path opacity="0.5" d="M1241.73 539.518C1241.73 539.518 1244.18 531.841 1252.04 538.895C1252.04 538.895 1257.76 544.917 1244.95 547.152C1244.95 547.152 1262.9 549.361 1246.41 556.846C1246.41 556.846 1257.81 556.741 1250.38 564.574" stroke="white" stroke-width="3" stroke-miterlimit="10" stroke-linecap="round" stroke-linejoin="round"/>
</g>
<g clip-path="url(#clip1_4910_62972)">
<path d="M324.135 446.167C321.445 440.609 316.51 437.403 312.565 438.934C308.62 440.465 307.155 446.251 308.961 452.181C304.864 447.388 299.11 445.555 295.655 448.129C292.989 450.141 292.502 454.285 294.057 458.531C290.338 456.92 286.615 457.069 284.468 459.312C282.374 461.517 282.354 465.128 284.028 468.726C280.404 468.767 277.391 470.186 276.238 472.814C274.65 476.476 277.191 481.226 282.055 484.207L294.821 531.086L371.019 520.104C373.056 522.114 375.926 523.315 379.076 523.123C384.846 522.777 389.23 517.974 388.889 512.402C388.711 509.333 387.068 506.714 384.728 504.997C387.573 503.311 389.35 500.837 389.189 498.183C389.047 495.794 387.366 493.777 384.849 492.392C387.322 489.82 388.362 486.736 387.339 484.092C386.454 481.869 384.259 480.454 381.453 479.927C383.529 476.325 383.839 472.511 381.756 470.091C379.9 467.928 376.618 467.399 373.146 468.426C374.042 465.696 373.824 463.053 372.266 461.223C370.449 459.112 367.288 458.591 363.915 459.51C365.56 454.704 364.787 450.016 361.669 448.115C359.626 446.881 357.016 447.093 354.482 448.364C354.493 444.546 353.014 441.359 350.246 440.229C346.994 438.889 342.997 440.787 340.132 444.625C338.983 439.35 335.664 435.548 331.825 435.717C327.775 435.866 324.589 440.389 324.112 446.202L324.135 446.167Z" fill="#E8EAFF"/>
<path d="M247.617 484.045C245.189 480.556 241.288 478.769 237.712 479.875C234.839 480.761 232.866 483.301 232.135 486.447C228.545 484.245 224.275 484.167 221.442 486.567C220 487.786 219.153 489.493 218.872 491.363C216.023 491.082 213.082 491.922 210.738 493.904C208.755 495.581 207.59 497.823 207.135 500.203C202.933 500.499 199.12 503.228 197.604 507.443C196.998 509.165 196.88 510.946 197.13 512.629C194.271 513.752 191.888 516.009 190.762 519.109C189.096 523.799 190.852 528.813 194.668 531.599C192.548 532.854 190.791 534.788 189.886 537.31C187.934 543.036 190.9 549.289 196.6 551.311C201.283 552.984 206.316 551.222 209.09 547.372L294.203 529.679C296.243 530.735 298.75 531.258 301.425 530.915C307.419 530.169 311.76 525.613 311.161 520.744C310.685 516.866 307.18 513.992 302.775 513.342C304.701 510.065 304.891 506.244 302.865 503.486C300.806 500.704 297.036 499.788 293.312 500.741C295.693 495.89 294.742 490.4 290.908 488.004C288.286 486.37 284.958 486.565 282.08 488.228C281.714 484.3 279.467 480.986 276.076 480.03C271.554 478.745 266.658 482.061 264.825 487.468C264.856 481.648 261.207 476.862 256.433 476.638C252.439 476.448 248.941 479.597 247.646 484.04L247.617 484.045Z" fill="#F1F2FE"/>
<path opacity="0.5" d="M218.1 528.299C218.1 528.299 199.924 508.625 224.163 517.582C224.163 517.582 212.972 500.439 232.104 510.753C232.104 510.753 227.661 486.614 241.852 505.5C241.852 505.5 244.98 478.834 256.54 502.022" stroke="white" stroke-width="3" stroke-miterlimit="10" stroke-linecap="round" stroke-linejoin="round"/>
<path opacity="0.5" d="M232.614 534.18C232.614 534.18 238.569 512.361 244.238 532.816C244.238 532.816 256.026 515.678 257.636 536.88" stroke="white" stroke-width="3" stroke-miterlimit="10" stroke-linecap="round" stroke-linejoin="round"/>
<path opacity="0.5" d="M324.008 491.252C324.008 491.252 333.273 468.824 334.642 490.816C334.642 490.816 349.67 484.979 341.499 501.063C341.499 501.063 356.222 495.67 346.035 509.054" stroke="white" stroke-width="3" stroke-miterlimit="10" stroke-linecap="round" stroke-linejoin="round"/>
<path opacity="0.5" d="M303.011 480.394C303.011 480.394 295.982 460.964 313.306 473.907C313.306 473.907 308.43 464.07 315.345 462.022C322.26 459.974 322.576 472.201 322.576 472.201C322.576 472.201 321.719 461.237 329.014 461.415C336.309 461.593 335.629 474.391 335.629 474.391C335.629 474.391 336.54 458.479 347.179 468.418C347.179 468.418 350.11 469.787 346.194 479.722" stroke="white" stroke-width="3" stroke-miterlimit="10" stroke-linecap="round" stroke-linejoin="round"/>
<path opacity="0.5" d="M349.385 491.674C349.385 491.674 349.42 483.617 359.035 487.99C359.035 487.99 366.295 492.021 354.745 497.993C354.745 497.993 372.536 494.718 359.045 506.803C359.045 506.803 369.887 503.287 365.153 512.984" stroke="white" stroke-width="3" stroke-miterlimit="10" stroke-linecap="round" stroke-linejoin="round"/>
</g>
<path d="M1084.26 526.87C981.405 507.155 931.946 490.693 868.436 487.163C537.964 447.457 330.004 520.556 227.726 534.149C-90.9433 576.503 13.5925 582.459 27.0817 582.459H1256.24C1256.24 582.459 1374.26 582.459 1084.26 526.87Z" fill="#E8EAFF"/>
<g clip-path="url(#clip2_4910_62972)">
<rect x="779" y="460" width="91" height="51" fill="white"/>
<path d="M805.376 423.108C795.426 423.653 788.23 424.24 786.32 424.407V435.976C789.563 435.724 796.759 435.18 806.086 434.677L805.376 423.108Z" fill="#D4B5FD"/>
<path d="M803.466 455.006C795.604 455.467 789.474 455.886 786.32 456.138V467.706C790.096 467.413 796.403 466.994 804.176 466.575L803.466 455.006Z" fill="#D4B5FD"/>
<path d="M839.801 407.096C833.316 407.18 826.92 407.348 820.879 407.599L821.545 418.078C827.231 417.869 833.272 417.701 839.357 417.659L839.801 407.096Z" fill="#D4B5FD"/>
<path d="M822.836 422.311C818.261 422.479 813.908 422.646 809.91 422.856L810.621 434.425C814.53 434.215 818.749 434.047 823.102 433.922L822.88 422.311H822.836Z" fill="#D4B5FD"/>
<path d="M814.481 438.574C800.978 439.161 790.14 439.999 786.32 440.293V451.861C791.251 451.484 802.089 450.688 815.192 450.143L814.481 438.574Z" fill="#D4B5FD"/>
<path d="M837.449 449.556L837.938 437.904C831.453 437.988 825.056 438.155 819.016 438.407L819.726 450.017C825.412 449.808 831.364 449.64 837.405 449.598L837.449 449.556Z" fill="#D4B5FD"/>
<path d="M880.265 389.324C883.063 387.186 885.151 384.21 885.951 380.773C858.056 377.797 780.679 381.612 770.152 382.156C771.44 385.887 774.194 388.989 777.792 390.833C787.92 389.785 838.512 384.965 880.265 389.324Z" fill="#D4B5FD"/>
<path d="M824.742 392.468L811.816 392.635L812.483 403.659C823.943 403.114 837.801 402.653 851.126 402.821L851.793 392.09L829.273 392.426L829.495 403.03L824.964 403.114L824.742 392.509V392.468Z" fill="#D4B5FD"/>
<path d="M886.309 376.498C885.865 369.33 880.268 363.546 872.939 362.288L872.85 362.079C844.467 359.983 808.266 360.779 782.903 361.743L782.681 362.246C775.041 363.504 769.223 369.791 769.223 377.336C769.223 377.504 769.267 377.671 769.267 377.839C777.751 377.42 856.949 373.354 886.22 376.414L886.309 376.498Z" fill="#D4B5FD"/>
<path d="M856.28 392.048L855.613 402.904C860.366 403.03 864.986 403.24 869.339 403.533V392.761H870.049C870.049 392.761 870.182 392.761 870.271 392.761C865.652 392.426 860.943 392.174 856.28 392.048Z" fill="#D4B5FD"/>
<path d="M821.19 486C816.598 486.065 812.141 486.173 808 486.282L808.855 505H822L821.145 486.022L821.19 486Z" fill="#D4B5FD"/>
<path d="M807.952 403.91L807.286 392.803C798.846 393.264 791.65 393.851 786.32 394.312V405.336C786.72 405.336 795.47 404.539 807.952 403.868V403.91Z" fill="#D4B5FD"/>
<path d="M836.028 469.76C829.543 469.844 823.146 470.011 817.105 470.263L817.816 481.873C823.502 481.664 829.454 481.496 835.495 481.454L835.983 469.802L836.028 469.76Z" fill="#D4B5FD"/>
<path d="M844.331 407.096L843.887 417.659C852.726 417.659 861.476 417.868 869.383 418.455V407.851C861.61 407.306 852.992 407.096 844.331 407.096Z" fill="#D4B5FD"/>
<path d="M854.504 422.018L853.793 433.67C859.212 433.796 864.453 434.048 869.384 434.425V422.689C864.675 422.353 859.656 422.102 854.504 421.976V422.018Z" fill="#D4B5FD"/>
<path d="M853.192 486.091L852.054 504.527L846.668 504.441L847.806 486.026C840.581 485.962 833.137 486.026 826 486.112L826.832 505H869V486.585C864.096 486.348 858.797 486.177 853.192 486.091Z" fill="#D4B5FD"/>
<path d="M842.465 437.862L841.977 449.514C851.526 449.514 860.988 449.766 869.383 450.478V438.742C861.121 438.071 851.837 437.82 842.465 437.82V437.862Z" fill="#D4B5FD"/>
<path d="M804.12 486C796.334 486.221 789.985 486.443 786 486.576V505H805L804.12 486Z" fill="#D4B5FD"/>
<path d="M852.593 453.916L851.883 465.568C858.013 465.694 863.92 466.03 869.384 466.491V454.754C864.142 454.293 858.457 454.042 852.593 453.874V453.916Z" fill="#D4B5FD"/>
<path d="M786.32 405.796V420.132C789.652 419.838 801.822 418.916 817.013 418.287L816.347 407.808C799.601 408.563 786.942 409.611 786.676 409.653L786.32 405.838V405.796Z" fill="#D4B5FD"/>
<path d="M812.571 470.43C800.889 470.933 791.162 471.646 786.32 471.981V483.55C791.828 483.131 801.689 482.46 813.282 481.999L812.571 470.43Z" fill="#D4B5FD"/>
<path d="M847.349 465.485L848.06 453.832C840.553 453.748 832.824 453.832 825.495 454.084L825.718 465.694L821.187 465.778L820.965 454.251C816.39 454.419 812.037 454.587 808.039 454.796L808.75 466.365C820.21 465.82 834.068 465.359 847.394 465.527L847.349 465.485Z" fill="#D4B5FD"/>
<path d="M849.264 433.629L849.975 421.976C842.468 421.892 834.739 421.976 827.41 422.228L827.632 433.838C834.695 433.629 842.068 433.545 849.264 433.629Z" fill="#D4B5FD"/>
<path d="M869.386 470.808C860.68 470.011 850.686 469.718 840.559 469.76L840.07 481.412C850.375 481.412 860.547 481.706 869.386 482.544V470.808Z" fill="#D4B5FD"/>
<path d="M851.751 311.528L832.74 264.415C832.207 263.074 831.229 262.11 830.119 261.481V216.506H824.389V217.135L791.786 232.14L824.389 245.47V261.23C823.012 261.817 821.813 262.823 821.191 264.415L802.18 311.528L782.059 361.408C807.377 360.402 843.578 359.606 872.005 361.743L851.751 311.57V311.528Z" fill="#9747FF"/>
<path d="M461.067 425.108C451.117 425.653 443.922 426.24 442.012 426.407V437.976C445.254 437.724 452.45 437.18 461.778 436.677L461.067 425.108Z" fill="#D4B5FD"/>
<path d="M459.157 457.006C451.295 457.467 445.165 457.886 442.012 458.138V469.706C445.787 469.413 452.095 468.994 459.868 468.575L459.157 457.006Z" fill="#D4B5FD"/>
<path d="M495.492 409.096C489.007 409.18 482.611 409.348 476.57 409.599L477.237 420.078C482.922 419.869 488.963 419.701 495.048 419.659L495.492 409.096Z" fill="#D4B5FD"/>
<path d="M541.487 384.24L585.906 369.57L594.789 409.39L530.383 419.869V399L536.5 392L541.487 384.24Z" fill="#9747FF"/>
<path d="M478.57 424.311C473.995 424.479 469.642 424.646 465.645 424.856L466.355 436.425C470.264 436.215 474.484 436.047 478.837 435.922L478.615 424.311H478.57Z" fill="#D4B5FD"/>
<path d="M470.173 440.574C456.67 441.161 445.832 441.999 442.012 442.293V453.861C446.942 453.484 457.78 452.688 470.884 452.143L470.173 440.574Z" fill="#D4B5FD"/>
<path d="M493.137 451.557L493.625 439.904C487.14 439.988 480.744 440.156 474.703 440.407L475.414 452.018C481.099 451.808 487.051 451.641 493.092 451.599L493.137 451.557Z" fill="#D4B5FD"/>
<path d="M535.999 391.324C538.798 389.186 540.885 386.21 541.685 382.773C513.79 379.797 436.414 383.612 425.887 384.156C427.175 387.887 429.929 390.989 433.527 392.833C443.654 391.785 494.246 386.965 535.999 391.324Z" fill="#D4B5FD"/>
<path d="M480.433 394.468L467.508 394.635L468.174 405.659C479.634 405.114 493.492 404.653 506.818 404.821L507.484 394.09L484.964 394.426L485.186 405.03L480.656 405.114L480.433 394.509V394.468Z" fill="#D4B5FD"/>
<path d="M542 378.498C541.556 371.33 535.959 365.546 528.63 364.288L528.542 364.079C500.158 361.983 463.958 362.779 438.595 363.743L438.373 364.246C430.733 365.504 424.914 371.791 424.914 379.336C424.914 379.504 424.958 379.671 424.958 379.839C433.442 379.42 512.64 375.354 541.911 378.414L542 378.498Z" fill="#D4B5FD"/>
<rect x="438" y="460" width="91" height="51" fill="white"/>
<path d="M512.018 394.048L511.352 404.904C516.104 405.03 520.724 405.24 525.077 405.533V394.761H525.787C525.787 394.761 525.921 394.761 526.01 394.761C521.39 394.426 516.682 394.174 512.018 394.048Z" fill="#D4B5FD"/>
<path d="M477.19 488C472.598 488.065 468.141 488.173 464 488.282L464.855 507H478L477.145 488.022L477.19 488Z" fill="#D4B5FD"/>
<path d="M463.643 405.91L462.977 394.803C454.538 395.264 447.342 395.851 442.012 396.312V407.336C442.411 407.336 451.162 406.539 463.643 405.868V405.91Z" fill="#D4B5FD"/>
<path d="M491.719 471.76C485.234 471.844 478.838 472.011 472.797 472.263L473.508 483.873C479.193 483.664 485.145 483.496 491.186 483.454L491.675 471.802L491.719 471.76Z" fill="#D4B5FD"/>
<path d="M500.022 409.096L499.578 419.659C508.417 419.659 517.168 419.868 525.074 420.455V409.851C517.301 409.306 508.684 409.096 500.022 409.096Z" fill="#D4B5FD"/>
<path d="M510.195 424.018L509.484 435.67C514.903 435.796 520.145 436.048 525.075 436.425V424.689C520.367 424.353 515.348 424.102 510.195 423.976V424.018Z" fill="#D4B5FD"/>
<path d="M508.825 488.091L507.66 506.527L502.149 506.441L503.314 488.026C495.921 487.962 488.303 488.026 481 488.112L481.851 507H525V488.585C519.982 488.348 514.56 488.177 508.825 488.091Z" fill="#D4B5FD"/>
<path d="M498.157 439.862L497.668 451.515C507.218 451.515 516.679 451.766 525.074 452.479V440.742C516.812 440.072 507.529 439.82 498.157 439.82V439.862Z" fill="#D4B5FD"/>
<path d="M459.166 488C451.79 488.221 445.776 488.443 442 488.576V507H460L459.166 488Z" fill="#D4B5FD"/>
<path d="M508.285 455.916L507.574 467.568C513.704 467.694 519.612 468.03 525.075 468.491V456.754C519.834 456.293 514.148 456.042 508.285 455.874V455.916Z" fill="#D4B5FD"/>
<path d="M442.012 407.796V422.132C445.343 421.838 457.514 420.916 472.705 420.287L472.038 409.808C455.293 410.563 442.634 411.611 442.367 411.653L442.012 407.838V407.796Z" fill="#D4B5FD"/>
<path d="M468.263 472.43C456.581 472.933 446.853 473.646 442.012 473.981V485.55C447.52 485.131 457.38 484.46 468.974 483.999L468.263 472.43Z" fill="#D4B5FD"/>
<path d="M503.041 467.485L503.751 455.832C496.245 455.748 488.516 455.832 481.187 456.084L481.409 467.694L476.878 467.778L476.656 456.251C472.081 456.419 467.728 456.587 463.73 456.796L464.441 468.365C475.901 467.82 489.76 467.359 503.085 467.527L503.041 467.485Z" fill="#D4B5FD"/>
<path d="M504.951 435.629L505.662 423.976C498.155 423.892 490.427 423.976 483.098 424.228L483.32 435.838C490.382 435.629 497.756 435.545 504.951 435.629Z" fill="#D4B5FD"/>
<path d="M525.074 472.808C516.368 472.011 506.374 471.718 496.246 471.76L495.758 483.412C506.063 483.412 516.235 483.706 525.074 484.544V472.808Z" fill="#D4B5FD"/>
<path d="M507.489 313.528L488.478 266.415C487.945 265.074 486.968 264.11 485.857 263.481V218.506H480.127V219.135L447.524 234.14L480.127 247.47V263.23C478.75 263.817 477.551 264.823 476.929 266.415L457.918 313.528L437.797 363.408C463.115 362.402 499.316 361.606 527.744 363.743L507.489 313.57V313.528Z" fill="#9747FF"/>
<rect x="525" y="460" width="258" height="43" fill="white"/>
<rect x="554" y="432" width="192" height="66" fill="white"/>
<path d="M530 412.724L614.483 404.635L620.88 433.766L590.453 438.209L582.325 497.699H530V412.724Z" fill="#D4B5FD"/>
<path d="M766.5 384.5L725.477 369.57L716.594 409.39L781 419.869V396L775.5 393.5L770 389L766.5 384.5Z" fill="#9747FF"/>
<path d="M780.88 411.09L696.396 403L690 432.131L720.426 436.574L728.555 498.106H780.88V411.09Z" fill="#D4B5FD"/>
<path d="M597.43 352.049L593.699 302.17C593.699 302.17 572.023 293.326 576.065 282.553C580.107 271.781 717.809 277.855 717.809 277.855C717.809 277.855 736.104 292.026 708.609 304.727L707.232 354.564L649.063 337.779L597.474 352.007L597.43 352.049Z" fill="#D4B5FD"/>
<path d="M606.82 406.411L574.719 409.297V367.105C574.871 367.007 575.042 366.898 575.229 366.778C576.137 366.198 577.441 365.373 579.022 364.398C582.185 362.445 586.443 359.897 590.839 357.499C595.253 355.092 599.734 352.876 603.364 351.555C605.189 350.891 606.695 350.492 607.816 350.375C608.774 350.275 609.119 350.412 609.187 350.44C609.221 350.496 609.323 350.674 609.449 351.065C609.611 351.574 609.762 352.278 609.888 353.188C610.14 355.004 610.265 357.421 610.283 360.274C610.319 365.967 609.928 373.16 609.386 380.253C608.844 387.337 608.155 394.278 607.6 399.452C607.323 402.037 607.08 404.18 606.906 405.675C606.875 405.941 606.846 406.187 606.82 406.411Z" fill="#D4B5FD" stroke="white" stroke-width="4"/>
<path d="M681.013 355.418C681.368 355.159 681.84 354.843 682.436 354.506C684.056 353.588 686.597 352.503 690.162 351.969C697.137 350.924 708.259 351.956 724.325 360.894L727.759 408.899L694.099 408.899L681.013 355.418Z" fill="#D4B5FD" stroke="white" stroke-width="4"/>
<path d="M652.467 55.4545C652.467 55.4545 667.88 53.3168 669.612 88.3582C671.344 123.4 691.199 154.962 706.213 162.255C725.09 171.435 724.513 187.069 724.513 187.069C724.513 187.069 657.619 169.8 575.89 186.525C575.89 186.525 573.447 171.812 600.32 157.184C605.25 154.501 609.514 150.812 612.49 146.244C625.727 125.998 634.744 89.448 634.744 89.448C634.744 89.448 637.009 55.4545 652.467 55.4545Z" fill="#9747FF"/>
<path d="M604.313 428.713L604.214 433.485L607.087 430.774L627.659 432.342L629.674 432.495L629.807 430.479L632.489 389.726C632.874 387.344 633.232 385.089 633.572 382.954C634.455 377.395 635.21 372.645 635.966 368.569C637.018 362.896 638.044 358.7 639.345 355.589C640.629 352.52 642.125 350.646 644.053 349.454C646.022 348.236 648.681 347.581 652.58 347.425C656.18 347.281 658.929 348.221 661.193 350.516C663.552 352.907 665.565 356.951 667.173 363.4C670.39 376.306 671.741 397.767 672.095 431.584L672.116 433.594L674.126 433.563L701.132 433.144L703.236 433.111L703.096 431.012L697.944 353.342L697.873 352.276L696.947 351.742L681.777 342.996L650.658 310.839L649.076 309.204L647.657 310.982L622.074 343.034L607.989 343.427L606.085 343.481L606.045 345.385L604.313 428.713Z" fill="#D4B5FD" stroke="white" stroke-width="4"/>
<path d="M599.295 265.326L597.562 209.201C597.562 209.201 578.107 204.883 575.264 187.069C572.422 169.255 658.149 169.8 658.149 169.8C658.149 169.8 716.47 169.8 723.888 187.614C731.305 205.428 699.857 211.338 699.857 211.338L698.125 265.284H599.206L599.295 265.326Z" fill="#D4B5FD"/>
<path d="M660.603 232.313H635.141C631.746 222.725 632.636 203.55 649.059 203.55C664.338 203.55 662.3 224.323 660.603 232.313Z" fill="white"/>
<path d="M591 501.022H592.93L592.999 499.093L594.499 457.093L594.5 457.058V457.022C594.5 456.024 594.889 454.393 596.094 453.039C597.24 451.75 599.292 450.522 603 450.522C606.724 450.522 608.284 451.747 608.976 452.804C609.75 453.988 609.801 455.509 609.553 456.564L609.489 456.837L609.502 457.117L611.502 499.117L611.593 501.022H613.5H635H636.919L636.998 499.104L638.498 462.604L638.501 462.532L638.499 462.459C638.427 460.162 639.111 456.646 641.365 453.751C643.548 450.948 647.359 448.522 654 448.522C660.565 448.522 664.167 451.131 666.164 454.18C668.246 457.359 668.73 461.256 668.507 463.851L668.495 463.993L668.503 464.136L670.503 499.136L670.611 501.022H672.5H696H698V499.022V458.522C698 457.259 698.474 455.246 699.913 453.579C701.29 451.986 703.712 450.522 708 450.522H708.111L708.221 450.51C710.093 450.302 713.054 450.643 715.633 452.352C718.121 454 720.462 457.056 721.009 462.715C721.846 471.364 723.058 481.992 723.996 490.221C724.404 493.8 724.76 496.926 725.012 499.238L725.206 501.022H727H745H746.924L746.998 499.1C747.334 490.463 747.385 477.382 746.444 465.181C745.974 459.082 745.253 453.158 744.182 448.1C743.124 443.106 741.679 438.708 739.623 435.853C735.582 430.241 727.967 427.06 720.585 425.266C713.111 423.45 705.371 422.938 700.483 423.022H592.547C588.826 422.85 583.282 423.658 578.593 426.723C573.761 429.882 570 435.343 570 444.022V499.022V501.022H572H591Z" fill="#D4B5FD" stroke="white" stroke-width="4"/>
<path d="M649.89 7.7964L610.758 25.7782L649.89 41.7899V58.6819H656.775V7H649.89V7.7964Z" fill="#9747FF"/>
<path d="M599 260.589C599 260.589 579.848 269.601 575.851 283.098C573.948 289.553 651.604 287.443 651.604 287.443C651.604 287.443 714.362 289.742 722 283C718.002 274.365 698 259 698 259L599 260.589Z" fill="#9747FF"/>
</g>
<path d="M1000.55 453.231C1000.55 453.231 1010.11 423.391 1044.18 419.464C1078.24 415.538 1087.95 421.176 1119.99 390.118C1152.02 359.061 1148.88 355.077 1178.46 354.688C1208.04 354.299 1240.03 370.237 1275.82 312.723C1275.82 312.723 1280.45 280.728 1245.91 286.637C1245.91 286.637 1230.05 291.119 1211.61 308.173C1193.17 325.227 1169.62 322.024 1169.62 322.024C1169.62 322.024 1148.61 316.414 1113.64 355.485C1078.66 394.556 1077.11 396.188 1052.76 398.089C1028.41 399.989 988.67 419.756 977.492 455.727L1000.56 453.221L1000.55 453.231Z" fill="#E8EAFF"/>
<path d="M923.31 523.743C923.31 523.743 938.349 503.788 947.089 481.899L955.985 461.025C955.985 461.025 961.015 446.051 975.734 447.364L1003.91 449.163C1006.51 449.329 1009.1 449.13 1011.7 448.898C1015.27 448.568 1022.06 449.98 1027.76 463.282C1027.76 463.282 1054.76 515.781 1061.41 520.792L923.31 523.743Z" fill="#F1F2FE"/>
<path d="M1003.62 467.761C1002.35 468.608 1001.71 470.24 1002.18 471.768L1012.07 505.127C1012.63 507.021 1014.62 508.115 1016.53 507.535C1018.42 506.969 1019.51 504.98 1018.93 503.066L1009.04 469.707C1008.48 467.814 1006.49 466.719 1004.58 467.299C1004.23 467.417 1003.91 467.543 1003.61 467.741L1003.62 467.761Z" fill="#E5E7FC"/>
<path d="M990.702 467.469C989.805 468.064 989.173 469.059 989.111 470.221L986.98 502.141C986.856 504.119 988.336 505.836 990.311 505.96C992.286 506.085 994 504.602 994.125 502.624L996.255 470.704C996.379 468.725 994.899 467.008 992.924 466.884C992.109 466.822 991.339 467.046 990.702 467.469Z" fill="#E5E7FC"/>
<path d="M971.752 467.301C971.055 467.764 970.516 468.466 970.268 469.349L961.228 502.526C960.719 504.444 961.821 506.412 963.749 506.941C965.663 507.451 967.628 506.347 968.157 504.416L977.197 471.239C977.706 469.321 976.604 467.353 974.676 466.824C973.63 466.542 972.589 466.745 971.752 467.301Z" fill="#E5E7FC"/>
<path d="M466.691 99.0977C467.456 97.7387 469.413 97.7387 470.177 99.0977L475.741 108.985C476.026 109.492 476.517 109.849 477.087 109.965L488.199 112.211C489.725 112.519 490.329 114.376 489.277 115.523L481.601 123.887C481.208 124.315 481.021 124.892 481.088 125.468L482.389 136.751C482.568 138.299 480.986 139.448 479.569 138.798L469.268 134.075C468.739 133.833 468.13 133.833 467.601 134.075L457.299 138.798C455.883 139.448 454.3 138.299 454.479 136.751L455.781 125.468C455.847 124.892 455.66 124.315 455.267 123.887L447.592 115.523C446.539 114.376 447.143 112.519 448.669 112.211L459.781 109.965C460.351 109.849 460.843 109.492 461.128 108.985L466.691 99.0977Z" fill="#9747FF"/>
<path d="M366.623 216C344.736 216 327 234.363 327 257.014C327 279.664 344.736 298.028 366.623 298.028C388.51 298.028 406.246 279.664 406.246 257.014C406.246 234.363 388.496 216 366.623 216ZM332.818 249.84C332.818 245.567 335.995 242.109 339.906 242.109C343.818 242.109 346.995 245.567 346.995 249.84C346.995 254.113 343.818 257.571 339.906 257.571C335.995 257.571 332.818 254.113 332.818 249.84ZM349.353 285.895C344.637 285.895 340.81 281.937 340.81 277.064C340.81 272.191 344.637 268.232 349.353 268.232C354.07 268.232 357.896 272.191 357.896 277.064C357.896 281.937 354.07 285.895 349.353 285.895ZM357.896 233.292C357.896 228.218 361.638 224.088 366.256 224.088C370.873 224.088 374.615 228.204 374.615 233.292C374.615 238.379 370.873 242.495 366.256 242.495C361.638 242.495 357.896 238.379 357.896 233.292ZM372.794 288.467C370.379 288.467 368.431 286.567 368.431 284.237C368.431 281.908 370.379 280.007 372.794 280.007C375.209 280.007 377.157 281.908 377.157 284.237C377.157 286.567 375.209 288.467 372.794 288.467ZM373.161 274.491C367.343 274.491 362.627 269.632 362.627 263.645C362.627 257.657 367.343 252.798 373.161 252.798C378.979 252.798 383.695 257.657 383.695 263.645C383.695 269.632 378.979 274.491 373.161 274.491ZM390.614 249.483C387.804 249.483 385.531 247.253 385.531 244.51C385.531 241.766 387.804 239.551 390.614 239.551C393.424 239.551 395.698 241.78 395.698 244.51C395.698 247.239 393.424 249.483 390.614 249.483Z" fill="#9747FF"/>
<path d="M951.352 47.0977C952.116 45.7387 954.073 45.7387 954.838 47.0977L960.611 57.3576C960.896 57.8644 961.387 58.222 961.957 58.3372L973.488 60.6676C975.014 60.9761 975.618 62.8332 974.565 63.9803L966.601 72.6588C966.208 73.0865 966.021 73.6636 966.087 74.2403L967.438 85.9475C967.617 87.4956 966.034 88.6442 964.618 87.9947L953.928 83.094C953.399 82.8514 952.79 82.8514 952.261 83.094L941.572 87.9947C940.155 88.6442 938.573 87.4956 938.751 85.9475L940.102 74.2403C940.169 73.6636 939.981 73.0865 939.589 72.6588L931.624 63.9803C930.571 62.8332 931.175 60.9761 932.701 60.6676L944.232 58.3372C944.802 58.222 945.293 57.8644 945.579 57.3576L951.352 47.0977Z" fill="#9747FF"/>
<path d="M874.341 453.955C874.341 453.955 845.074 501.28 858.582 508.996C858.582 508.996 870.055 513.287 875.404 490.535C875.404 490.535 867.695 509.844 875.836 511.773C875.836 511.773 884.625 516.713 889.993 493.311C889.993 493.311 884.625 512.404 894.063 512.404C894.063 512.404 903.068 515.415 906.706 490.301C906.706 490.301 904.779 508.762 914.631 509.609C914.631 509.609 923.636 512.187 925.131 490.084C925.131 490.084 923.204 509.393 932.426 509.177C932.426 509.177 940.134 510.042 938.423 489.219C938.423 489.219 940.134 507.897 946.996 507.464C946.996 507.464 955.353 509.826 952.363 489.002C952.363 489.002 954.507 507.031 964.575 505.535C964.575 505.535 981.505 503.822 961.351 471.623L948.923 451.232L874.323 453.919L874.341 453.955Z" fill="#9747FF"/>
<path d="M909.787 413.368C909.787 413.368 883.42 411.962 862.942 447.064C862.942 447.064 849.056 467.328 858.007 472.268C858.007 472.268 868.363 480.507 876.36 457.899C876.36 457.899 869.768 475.099 876.36 476.27C876.36 476.27 886.013 480.507 890.48 458.134C890.48 458.134 885.779 478.163 894.713 477.929C894.713 477.929 903.898 480.76 906.239 457.43C906.239 457.43 902.943 477.46 910.706 477.695C910.706 477.695 918.937 480.056 920.36 457.899C920.36 457.899 918.721 475.567 927.654 475.567C927.654 475.567 935.182 479.335 934.948 456.709C934.948 456.709 935.417 475.333 947.664 474.143C947.664 474.143 956.381 476.505 951.896 457.178C951.896 457.178 956.129 473.206 964.378 470.609C964.378 470.609 976.139 466.373 959.443 437.617C959.443 437.617 939.199 406.517 909.769 413.35L909.787 413.368Z" fill="#AF71FF"/>
<path d="M913.334 379.239C913.334 379.239 878.285 379.239 864.777 414.323C864.777 414.323 857.375 432.676 862.85 436.209C862.85 436.209 871.423 444.845 881.545 419.407C881.545 419.407 869.784 440.608 877.547 443.439C877.547 443.439 890.028 451.209 896.386 421.768C896.386 421.768 891.451 440.392 900.619 442.267C900.619 442.267 911.911 446.738 914.739 419.407C914.739 419.407 911.209 439.202 920.863 440.608C920.863 440.608 929.814 443.908 929.58 418.451C929.58 418.451 928.877 439.653 937.811 439.184C937.811 439.184 948.167 443.421 943.466 417.514C943.466 417.514 945.591 437.309 956.181 436.372C956.181 436.372 968.663 434.731 959.009 406.444C959.009 406.444 944.438 376.534 913.352 379.239H913.334Z" fill="#C79CFF"/>
<path d="M914.237 347.854C914.237 347.854 886.591 347.205 870.831 381.658C870.831 381.658 865.05 394.639 869.751 396.784C869.751 396.784 874.253 402.355 888.194 384.345C888.194 384.345 872.975 401.508 878.126 404.951C878.126 404.951 883.493 412.884 898.928 388.004C898.928 388.004 891.219 402.175 900.207 405.168C900.207 405.168 909.86 409.459 914.363 387.572C914.363 387.572 909.644 405.384 918.217 407.097C918.217 407.097 926.574 409.026 928.934 386.706C928.934 386.706 926.574 405.168 933.436 405.799C933.436 405.799 942.009 407.944 940.515 386.49C940.515 386.49 942.442 403.221 951.663 402.157C951.663 402.157 966.882 399.146 951.231 370.192C951.231 370.192 937.507 345.294 914.255 347.872L914.237 347.854Z" fill="#D9BCFF"/>
<path d="M908.993 322.53C908.993 322.53 871.693 336.142 876.592 353.72C876.592 353.72 878.014 360.679 892.603 349.321C892.603 349.321 873.728 361.869 880.14 367.223C880.14 367.223 885.471 371.947 897.646 356.388C897.646 356.388 889.559 369.964 898.366 371.748C898.366 371.748 910.343 374.705 911.838 354.279C911.838 354.279 908.993 369.549 915.585 369.567C915.585 369.567 923.797 370.667 922.699 354.08C922.699 354.08 922.663 369.531 930.389 368.413C930.389 368.413 937.287 371.189 934.424 350.222C934.424 350.222 938.476 365.979 948.022 360.841C948.022 360.841 957.747 350.619 938.998 336.791C938.998 336.791 919.709 318.654 909.047 322.548L908.993 322.53Z" fill="#E9D8FF"/>
<path d="M1062 534.324C1062 534.324 1070.57 524.053 1100.1 525.139C1128.25 526.162 1113.83 507.269 1113.83 507.269C1113.83 507.269 1097.49 490.857 1071.27 511.163C1071.27 511.163 1074.1 495.761 1096.78 494.323C1096.78 494.323 1120.61 498.58 1120.89 484.39C1121.17 470.199 1084.9 474.218 1077.22 481.002C1069.54 487.786 1087.51 462.439 1105.57 456.166C1105.59 456.173 1118.89 443.992 1102.83 437.198C1102.83 437.198 1090.37 430.641 1076.98 462.39C1076.98 462.39 1084.58 429.111 1057.41 426.834C1057.41 426.834 1049.65 429.352 1049.56 441.494C1049.56 441.494 1054.26 450.568 1063.67 459.761C1063.67 459.761 1073.55 469.104 1069.57 478.81C1069.57 478.81 1054.7 452.33 1032.31 461.831C1032.31 461.831 1018.38 474.324 1038.06 481.336C1038.06 481.336 1066.46 484.569 1061.68 511.445C1061.68 511.445 1056.91 490.685 1031.78 488.619C1031.78 488.619 1020.77 488.395 1024.04 505.971C1024.04 505.971 1027.86 511.567 1042.05 517.674C1056.25 523.782 1054.51 531.633 1054.51 531.633L1062.01 534.305L1062 534.324Z" fill="#F1F2FE"/>
<path fill-rule="evenodd" clip-rule="evenodd" d="M166.328 414.58C166.199 414.818 166.076 415.063 165.961 415.314H165.766V415.767C165.592 416.194 165.441 416.639 165.316 417.102L165.766 417.544V417.846C148.659 401.898 125.667 431.956 148.714 441.93C167.322 449.983 176.329 471.561 179.957 483.238V558.366H195.806V485.079C200.136 478.842 239.025 421.958 224.16 412.163C212.23 404.302 205.998 408.364 203.682 410.786C202.33 409.364 200.512 408.392 198.1 408.102C198.1 408.102 189.16 406.243 185.878 415.09C184.847 413.531 183.589 412.159 182.059 411.078C176.932 407.436 169.397 409.047 166.328 414.58Z" fill="#F1F2FE"/>
<path d="M1056.8 241.814L1063.6 254.753L1050 257.478L1061.56 262.241L1054.08 275.18L1069.03 265.655L1071.08 278.594L1077.19 267.692L1086.72 276.543L1081.96 261.566L1096.24 260.204L1081.96 254.753L1090.8 241.814L1075.16 249.99L1071.08 235L1068.36 248.627L1056.8 241.814Z" fill="#9747FF"/>
<path d="M240.767 299.564L247.533 312.031L234 314.656L245.497 319.245L238.06 331.711L252.933 322.534L254.97 335L261.053 324.497L270.527 333.024L265.797 318.595L280 317.282L265.797 312.031L274.587 299.564L259.03 307.442L254.97 293L252.263 306.129L240.767 299.564Z" fill="#9747FF"/>
<g clip-path="url(#clip3_4910_62972)">
<path d="M980.416 225.888C1002.66 225.888 1020.7 207.852 1020.7 185.604C1020.7 163.356 1002.66 145.321 980.416 145.321C958.168 145.321 940.133 163.356 940.133 185.604C940.133 207.852 958.168 225.888 980.416 225.888Z" fill="#D4B5FD"/>
<path d="M1047.83 149.205C1047.83 149.205 1040.11 138.02 1006.3 153.609C1008.65 155.476 1010.8 157.59 1012.68 159.915C1019.66 156.656 1028.97 153.82 1034.92 158.048C1039.95 161.615 1031.44 170.528 1021.16 178.868C1009.91 188.01 996.535 196.474 996.535 196.474C996.535 196.474 970.65 209.429 951.46 213.216C942.16 215.048 934.435 214.731 931.989 209.737C931.989 209.737 931.575 202.921 941.527 195.725C940.629 192.387 940.136 188.873 940.136 185.253C940.136 185.253 914.321 202.938 919.75 218.236C923.226 228.012 940.99 227.792 962.045 221.125C973.94 217.356 986.883 211.534 998.902 204.295C998.902 204.295 1009.66 198.79 1021.29 190.696C1037.68 179.291 1055.78 162.733 1047.82 149.205H1047.83Z" fill="#9747FF"/>
</g>
<path d="M412.986 504.991C412.986 504.991 416.726 492.525 443.568 482.173C469.139 472.297 449.019 460.936 449.019 460.936C449.019 460.936 428.124 452.53 412.425 480.735C412.425 480.735 409.064 465.885 428.806 455.903C428.806 455.903 451.761 450.571 446.587 437.778C441.414 424.986 410.498 442.484 406.22 451.492C401.943 460.501 408.324 430.957 422.084 418.426C422.103 418.425 429.353 402.435 412.382 402.521C412.382 402.521 398.728 401.437 398.889 434.948C398.889 434.948 392.96 402.29 367.784 410.669C367.784 410.669 361.8 415.897 366.364 426.783C366.364 426.783 374.033 433.096 385.967 437.705C385.967 437.705 398.387 442.265 398.537 452.467C398.537 452.467 375.101 434.501 358.705 451.576C358.705 451.576 351.016 468.084 371.305 466.807C371.305 466.807 397.955 458.807 403.948 484.666C403.948 484.666 391.744 467.937 368.472 475.725C368.472 475.725 358.531 479.748 368.18 494.202C368.18 494.202 373.735 497.741 388.772 497.757C403.809 497.774 405.252 505.459 405.252 505.459L412.985 504.973L412.986 504.991Z" fill="#9747FF"/>
<path d="M801.68 51.2015C802.439 49.8161 804.429 49.8161 805.188 51.2015L810.746 61.3461C811.028 61.8598 811.52 62.2243 812.094 62.3434L823.277 64.6648C824.785 64.9779 825.388 66.807 824.362 67.9557L816.579 76.6653C816.2 77.0897 816.019 77.6556 816.083 78.2212L817.397 89.9164C817.571 91.4715 815.973 92.6157 814.557 91.9491L804.286 87.113C803.747 86.859 803.122 86.859 802.582 87.113L792.311 91.9491C790.896 92.6157 789.297 91.4715 789.472 89.9164L790.786 78.2212C790.849 77.6556 790.669 77.0897 790.29 76.6653L782.507 67.9557C781.48 66.807 782.083 64.9779 783.592 64.6648L794.775 62.3434C795.348 62.2243 795.841 61.8598 796.122 61.3461L801.68 51.2015Z" fill="#9747FF"/>
<path d="M901.219 92.1119C901.983 90.7529 903.94 90.7529 904.705 92.1119L910.478 102.372C910.763 102.879 911.255 103.236 911.825 103.351L923.355 105.682C924.881 105.99 925.485 107.847 924.432 108.994L916.468 117.673C916.075 118.101 915.888 118.678 915.954 119.254L917.305 130.962C917.484 132.51 915.901 133.658 914.485 133.009L903.795 128.108C903.266 127.866 902.657 127.866 902.128 128.108L891.439 133.009C890.022 133.658 888.44 132.51 888.618 130.962L889.969 119.254C890.036 118.678 889.848 118.101 889.456 117.673L881.491 108.994C880.439 107.847 881.042 105.99 882.569 105.682L894.099 103.351C894.669 103.236 895.161 102.879 895.446 102.372L901.219 92.1119Z" fill="#9747FF"/>
<path d="M67.1051 570.688C67.1051 570.688 70.4086 558.285 96.5276 547.263C121.41 536.748 101.249 526.162 101.249 526.162C101.249 526.162 80.4135 518.513 65.8136 546.794C65.8136 546.794 62.0497 532.258 81.1886 521.817C81.1886 521.817 103.633 515.861 98.1473 503.409C92.662 490.956 62.7485 509.147 58.8106 518.157C54.8726 527.167 60.2562 497.849 73.4259 485.078C73.4443 485.077 80.0969 469.094 63.3853 469.696C63.3853 469.696 49.9059 469.042 51.0862 502.071C51.0862 502.071 44.2506 470.059 19.7124 479.086C19.7124 479.086 13.9781 484.421 18.8052 495.014C18.8052 495.014 26.5504 501.002 38.4437 505.183C38.4437 505.183 50.8149 509.299 51.2736 519.351C51.2736 519.351 27.645 502.355 12.0183 519.686C12.0183 519.686 4.94958 536.194 24.8916 534.317C24.8916 534.317 50.8937 525.619 57.5845 550.927C57.5845 550.927 45.0556 534.808 22.374 543.194C22.374 543.194 12.706 547.462 22.6499 561.417C22.6499 561.417 28.2279 564.736 43.0377 564.294C57.8474 563.852 59.5029 571.385 59.5029 571.385L67.1033 570.669L67.1051 570.688Z" fill="#F1F2FE"/>
<g clip-path="url(#clip4_4910_62972)">
<path d="M121.923 446.07C121.771 446.075 121.618 446.081 121.475 446.055C120.189 445.928 119.081 445.097 118.6 443.886C115.957 437.221 113.22 410.062 112.926 406.99C112.734 405.081 114.116 403.381 116.021 403.189C117.916 403.008 119.604 404.391 119.796 406.309C120.599 414.403 121.966 426.001 123.308 433.809L138.496 409.891C139.525 408.276 141.654 407.809 143.257 408.837C144.861 409.874 145.336 412.019 144.306 413.634L124.723 444.472C124.107 445.437 123.06 446.028 121.943 446.069L121.923 446.07Z" fill="#F1F2FE"/>
<path d="M128.575 578.391C126.697 578.459 125.097 576.991 125.008 575.089C124.736 569.557 118.236 439.484 118.185 438.093C118.116 436.18 119.603 434.568 121.502 434.499C123.401 434.43 125.002 435.929 125.071 437.842C125.136 439.612 131.821 573.397 131.89 574.746C131.99 576.658 130.524 578.289 128.616 578.389L128.565 578.391L128.575 578.391Z" fill="#F1F2FE"/>
<path d="M121.756 466.932C121.005 466.959 120.244 466.741 119.596 466.262C115.469 463.217 110.647 456.754 105.25 447.045C101.343 440.006 98.5987 433.888 98.4878 433.636C97.702 431.882 98.4815 429.825 100.212 429.045C101.953 428.255 103.995 429.041 104.771 430.785C107.737 437.407 116.903 455.676 123.664 460.665C125.2 461.797 125.534 463.977 124.41 465.524C123.761 466.418 122.772 466.905 121.746 466.942L121.756 466.932Z" fill="#F1F2FE"/>
<path d="M123.229 467.431C122.223 467.468 121.222 467.064 120.501 466.25C119.249 464.81 119.392 462.613 120.821 461.352C121.028 461.171 141.305 443.244 153.986 427.008C155.161 425.5 157.328 425.237 158.825 426.422C160.323 427.607 160.585 429.79 159.41 431.298C146.321 448.061 126.221 465.837 125.364 466.585C124.743 467.13 123.981 467.414 123.219 467.442L123.229 467.431Z" fill="#F1F2FE"/>
<path d="M123.615 492.586C122.213 492.637 120.861 491.815 120.292 490.433C116.807 481.852 92.4151 458.482 83.3071 450.199C81.8975 448.908 81.7772 446.72 83.0574 445.291C84.338 443.872 86.5099 443.752 87.9297 445.042C91.4003 448.194 121.962 476.215 126.675 487.804C127.4 489.58 126.548 491.609 124.785 492.338C124.394 492.496 124.001 492.582 123.605 492.597L123.615 492.586Z" fill="#F1F2FE"/>
<path d="M125.922 517.998C125.739 518.005 125.566 518.001 125.382 517.977C123.492 517.749 122.138 516.016 122.374 514.112C124.557 495.85 153.786 449.49 155.037 447.529C156.056 445.914 158.195 445.437 159.798 446.464C161.402 447.492 161.877 449.646 160.858 451.261C160.78 451.376 153.299 463.224 145.666 477.043C133.1 499.791 129.798 510.206 129.227 514.938C129.025 516.656 127.597 517.927 125.931 517.988L125.922 517.998Z" fill="#F1F2FE"/>
<path d="M124.088 512.042C122.412 512.103 120.915 510.928 120.59 509.25C119.432 506.198 105.615 491.479 84.3312 471.929C82.9216 470.638 82.8213 468.44 84.1019 467.021C85.3824 465.601 87.5653 465.501 88.9749 466.792C89.0697 466.881 98.2333 475.296 107.388 484.315C126.637 503.283 127.126 506.359 127.379 508.019C127.672 509.914 126.394 511.692 124.503 511.986C124.362 512.011 124.23 512.016 124.087 512.021L124.088 512.042ZM120.564 509.107C120.564 509.107 120.566 509.158 120.567 509.179C120.566 509.158 120.565 509.128 120.564 509.107Z" fill="#F1F2FE"/>
<path d="M96.6677 421.409C96.6677 421.409 85.2865 421.926 85.3613 428.735C85.3613 428.735 85.175 435.359 93.6689 436.823C93.6689 436.823 105.342 438.447 106.591 431.425C106.591 431.425 110.188 421.84 96.6779 421.409L96.6677 421.409Z" fill="#E5E7FC"/>
<path d="M97.3924 438.541C95.219 438.62 93.543 438.394 93.4509 438.377C85.6629 437.032 83.7431 431.498 83.8153 428.73C83.7971 426.272 84.9479 422.962 90.4818 421.051C93.4948 420.009 96.4694 419.87 96.601 419.855L96.7229 419.85C101.905 420.02 105.457 421.5 107.276 424.25C109.364 427.401 108.347 431.044 108.081 431.832C107.602 434.318 105.771 437.407 99.8856 438.307C99.026 438.441 98.1744 438.513 97.3924 438.541ZM96.684 422.976C96.2879 422.991 93.8237 423.183 91.4338 424.017C88.4012 425.08 86.8825 426.662 86.9068 428.73L86.9091 428.791C86.8979 429.325 87.0517 434.113 93.9185 435.297C93.9693 435.296 104.086 436.628 105.056 431.164L105.082 431.019L105.128 430.885C105.128 430.885 106.115 428.103 104.684 425.963C103.469 424.143 100.696 423.117 96.684 422.976Z" fill="#E5E7FC"/>
<path d="M141.011 401.123C141.011 401.123 127.358 401.793 127.997 413.212C127.997 413.212 127.362 425.948 138.977 427.113C138.977 427.113 151.11 428.536 154.08 417.078C154.08 417.078 159.827 401.176 141.011 401.123Z" fill="#E5E7FC"/>
<path d="M141.08 428.747C140.247 428.778 139.473 428.744 138.799 428.666C128.531 427.636 126.234 418.163 126.441 413.218C126.266 409.813 127.219 406.931 129.261 404.644C133.414 399.996 140.62 399.59 140.924 399.569L141.006 399.566C147.464 399.587 151.984 401.4 154.442 404.947C157.962 410.033 155.836 416.707 155.551 417.537C153.29 426.132 146.036 428.557 141.07 428.738L141.08 428.747ZM141.058 402.678C140.561 402.717 134.72 403.185 131.564 406.732C130.06 408.425 129.403 410.508 129.55 413.125L129.555 413.289C129.531 413.74 129.162 424.561 139.144 425.56C139.604 425.615 150.015 426.661 152.591 416.682L152.636 416.537C152.655 416.485 154.681 410.675 151.913 406.709C150.067 404.051 146.418 402.698 141.057 402.668L141.058 402.678Z" fill="#E5E7FC"/>
<path d="M83.3127 440.078C83.3127 440.078 72.2308 440.716 72.3377 449.809C72.3377 449.809 72.1811 458.644 80.4498 460.628C80.4498 460.628 91.8183 462.837 93.0035 453.482C93.0035 453.482 96.4749 440.715 83.3127 440.078Z" fill="#E5E7FC"/>
<path d="M83.9108 462.397C81.8491 462.472 80.2826 462.181 80.1494 462.155L80.0877 462.137C72.5885 460.34 70.7246 453.268 70.7805 449.773C70.6812 441.449 78.8717 438.764 83.2152 438.514L83.3776 438.508C87.7581 438.717 90.9646 440.199 92.9243 442.914C95.987 447.156 94.7401 452.856 94.5185 453.755C94.1431 456.575 92.9107 458.761 90.8601 460.26C88.7004 461.834 86.0428 462.299 83.91 462.377L83.9108 462.397ZM80.7604 459.101C81.1594 459.168 86.0291 459.964 89.05 457.744C90.417 456.742 91.2078 455.279 91.4603 453.272L91.5033 453.055C91.5033 453.055 92.8056 448.04 90.4075 444.737C89.0372 442.85 86.6604 441.81 83.3181 441.624C82.3446 441.701 73.7933 442.575 73.8721 449.773C73.8644 450.122 73.8648 457.405 80.7596 459.08L80.7604 459.101Z" fill="#E5E7FC"/>
<path d="M161.412 418.195C161.412 418.195 150.33 418.833 150.437 427.926C150.437 427.926 150.28 436.761 158.549 438.745C158.549 438.745 169.917 440.954 171.103 431.599C171.103 431.599 174.574 418.833 161.412 418.195Z" fill="#E5E7FC"/>
<path d="M162.01 440.514C159.948 440.589 158.382 440.298 158.248 440.272L158.187 440.254C150.687 438.447 148.823 431.375 148.88 427.89C148.78 419.566 156.971 416.881 161.314 416.631L161.477 416.625C165.857 416.835 169.064 418.316 171.023 421.031C174.086 425.273 172.839 430.973 172.618 431.872C172.242 434.693 171.01 436.878 168.959 438.377C166.8 439.951 164.142 440.416 162.009 440.494L162.01 440.514ZM158.87 437.217C159.269 437.285 164.138 438.081 167.159 435.861C168.526 434.858 169.317 433.396 169.57 431.389L169.612 431.172C169.612 431.172 170.915 426.157 168.517 422.853C167.146 420.967 164.77 419.927 161.427 419.741C160.454 419.817 151.903 420.692 151.981 427.89C151.974 428.239 151.974 435.522 158.869 437.197L158.87 437.217Z" fill="#E5E7FC"/>
<path d="M85.8675 465.03C85.8675 465.03 74.4863 465.547 74.561 472.356C74.561 472.356 74.3748 478.98 82.8687 480.443C82.8687 480.443 94.5413 482.068 95.7911 475.046C95.7911 475.046 99.3882 465.461 85.8777 465.03L85.8675 465.03Z" fill="#E5E7FC"/>
<path d="M86.5918 482.152C84.4184 482.231 82.7424 482.005 82.6503 481.988C74.8624 480.642 72.9425 475.109 73.0147 472.34C72.9965 469.883 74.1474 466.573 79.6812 464.661C82.6942 463.619 85.6688 463.481 85.8005 463.466L85.9223 463.461C91.1048 463.631 94.6569 465.11 96.4755 467.861C98.563 471.012 97.5463 474.655 97.2801 475.443C96.801 477.929 94.9709 481.017 89.085 481.918C88.2255 482.051 87.3738 482.123 86.5918 482.152ZM85.8834 466.587C85.4874 466.601 83.0232 466.793 80.6332 467.628C77.6006 468.691 76.0819 470.272 76.1063 472.341L76.1085 472.402C76.0974 472.935 76.2511 477.724 83.1179 478.908C83.1687 478.906 93.285 480.239 94.2557 474.774L94.281 474.63L94.3269 474.495C94.3269 474.495 95.3139 471.714 93.8836 469.574C92.6682 467.754 89.8953 466.728 85.8834 466.587Z" fill="#E5E7FC"/>
<path d="M113.829 388.846C113.829 388.846 100.176 389.516 100.815 400.935C100.815 400.935 100.18 413.671 111.795 414.836C111.795 414.836 123.928 416.259 126.898 404.801C126.898 404.801 132.645 388.899 113.829 388.846Z" fill="#E5E7FC"/>
<path d="M113.898 416.47C113.065 416.501 112.291 416.467 111.617 416.389C101.349 415.359 99.0524 405.886 99.259 400.941C99.0843 397.536 100.037 394.653 102.079 392.367C106.242 387.708 113.448 387.303 113.752 387.291L113.834 387.289C120.292 387.31 124.812 389.122 127.27 392.67C130.791 397.756 128.664 404.43 128.379 405.26C126.118 413.854 118.864 416.279 113.898 416.46L113.898 416.47ZM113.876 390.411C113.379 390.45 107.539 390.918 104.383 394.465C102.878 396.158 102.222 398.241 102.368 400.858L102.374 401.022C102.35 401.474 101.98 412.294 111.962 413.293C112.422 413.348 122.833 414.394 125.409 404.415L125.455 404.27C125.473 404.218 127.499 398.408 124.731 394.442C122.885 391.784 119.236 390.432 113.876 390.401L113.876 390.411Z" fill="#E5E7FC"/>
<path d="M159.806 441.721C159.806 441.721 148.724 442.36 148.831 451.452C148.831 451.452 148.675 460.288 156.943 462.272C156.943 462.272 168.312 464.481 169.497 455.126C169.497 455.126 172.968 442.359 159.806 441.721Z" fill="#E5E7FC"/>
<path d="M160.415 464.051C158.353 464.126 156.787 463.834 156.654 463.808L156.592 463.79C149.092 461.983 147.228 454.911 147.285 451.427C147.185 443.102 155.376 440.417 159.719 440.167L159.882 440.161C164.262 440.371 167.469 441.852 169.428 444.567C172.491 448.81 171.244 454.509 171.023 455.409C170.647 458.229 169.415 460.415 167.364 461.913C165.205 463.487 162.547 463.953 160.414 464.03L160.415 464.051ZM157.264 460.744C157.663 460.811 162.533 461.607 165.554 459.387C166.921 458.385 167.712 456.922 167.964 454.915L168.007 454.699C168.007 454.699 169.309 449.683 166.911 446.38C165.541 444.494 163.164 443.453 159.822 443.267C158.848 443.344 150.297 444.218 150.376 451.417C150.368 451.765 150.369 459.048 157.263 460.723L157.264 460.744Z" fill="#E5E7FC"/>
</g>
<path d="M367.691 43.0977C368.456 41.7387 370.413 41.7387 371.177 43.0977L376.741 52.9851C377.026 53.4919 377.517 53.8495 378.087 53.9647L389.199 56.2105C390.725 56.519 391.329 58.3761 390.277 59.5232L382.601 67.8869C382.208 68.3146 382.021 68.8917 382.088 69.4684L383.389 80.7508C383.568 82.2989 381.986 83.4475 380.569 82.798L370.268 78.0753C369.739 77.8326 369.13 77.8326 368.601 78.0753L358.299 82.798C356.883 83.4475 355.3 82.2989 355.479 80.7508L356.781 69.4684C356.847 68.8917 356.66 68.3146 356.267 67.8869L348.592 59.5232C347.539 58.3761 348.143 56.519 349.669 56.2105L360.781 53.9647C361.351 53.8495 361.843 53.4919 362.128 52.9851L367.691 43.0977Z" fill="#9747FF"/>
<path d="M307.691 117.098C308.456 115.739 310.413 115.739 311.177 117.098L316.741 126.985C317.026 127.492 317.517 127.849 318.087 127.965L329.199 130.211C330.725 130.519 331.329 132.376 330.277 133.523L322.601 141.887C322.208 142.315 322.021 142.892 322.088 143.468L323.389 154.751C323.568 156.299 321.986 157.448 320.569 156.798L310.268 152.075C309.739 151.833 309.13 151.833 308.601 152.075L298.299 156.798C296.883 157.448 295.3 156.299 295.479 154.751L296.781 143.468C296.847 142.892 296.66 142.315 296.267 141.887L288.592 133.523C287.539 132.376 288.143 130.519 289.669 130.211L300.781 127.965C301.351 127.849 301.843 127.492 302.128 126.985L307.691 117.098Z" fill="#9747FF"/>
<rect x="589.5" y="78" width="124" height="32" rx="16" fill="#9747FF"/>
<path d="M610.511 100V88.3636H618.352V90.392H612.972V93.1648H617.949V95.1932H612.972V97.9716H618.375V100H610.511ZM619.828 100V88.3636H624.419C625.302 88.3636 626.054 88.5322 626.675 88.8693C627.296 89.2027 627.77 89.6667 628.095 90.2614C628.425 90.8523 628.59 91.5341 628.59 92.3068C628.59 93.0795 628.423 93.7614 628.09 94.3523C627.756 94.9432 627.273 95.4034 626.641 95.733C626.012 96.0625 625.251 96.2273 624.357 96.2273H621.431V94.2557H623.959C624.432 94.2557 624.823 94.1742 625.129 94.0114C625.44 93.8447 625.671 93.6155 625.823 93.3239C625.978 93.0284 626.056 92.6894 626.056 92.3068C626.056 91.9205 625.978 91.5833 625.823 91.2955C625.671 91.0038 625.44 90.7784 625.129 90.6193C624.819 90.4564 624.425 90.375 623.948 90.375H622.288V100H619.828ZM632.168 88.3636V100H629.708V88.3636H632.168ZM640.024 91.7102C639.979 91.2519 639.784 90.8958 639.439 90.642C639.095 90.3883 638.627 90.2614 638.036 90.2614C637.634 90.2614 637.295 90.3182 637.019 90.4318C636.742 90.5417 636.53 90.6951 636.382 90.892C636.239 91.089 636.167 91.3125 636.167 91.5625C636.159 91.7708 636.203 91.9527 636.297 92.108C636.396 92.2633 636.53 92.3977 636.701 92.5114C636.871 92.6212 637.068 92.7178 637.292 92.8011C637.515 92.8807 637.754 92.9489 638.007 93.0057L639.053 93.2557C639.56 93.3693 640.026 93.5208 640.451 93.7102C640.875 93.8996 641.242 94.1326 641.553 94.4091C641.864 94.6856 642.104 95.0114 642.274 95.3864C642.449 95.7614 642.538 96.1913 642.542 96.6761C642.538 97.3883 642.356 98.0057 641.996 98.5284C641.64 99.0473 641.125 99.4508 640.451 99.7386C639.78 100.023 638.971 100.165 638.024 100.165C637.085 100.165 636.267 100.021 635.57 99.733C634.877 99.4451 634.335 99.0189 633.945 98.4545C633.559 97.8864 633.356 97.1837 633.337 96.3466H635.718C635.744 96.7367 635.856 97.0625 636.053 97.3239C636.254 97.5814 636.521 97.7765 636.854 97.9091C637.191 98.0379 637.572 98.1023 637.996 98.1023C638.413 98.1023 638.774 98.0417 639.081 97.9205C639.392 97.7992 639.632 97.6307 639.803 97.4148C639.973 97.1989 640.059 96.9508 640.059 96.6705C640.059 96.4091 639.981 96.1894 639.826 96.0114C639.674 95.8333 639.451 95.6818 639.155 95.5568C638.864 95.4318 638.506 95.3182 638.081 95.2159L636.814 94.8977C635.833 94.6591 635.059 94.286 634.49 93.7784C633.922 93.2708 633.64 92.5871 633.644 91.7273C633.64 91.0227 633.828 90.4072 634.206 89.8807C634.589 89.3542 635.114 88.9432 635.78 88.6477C636.447 88.3523 637.204 88.2045 638.053 88.2045C638.917 88.2045 639.67 88.3523 640.314 88.6477C640.962 88.9432 641.466 89.3542 641.826 89.8807C642.185 90.4072 642.371 91.017 642.382 91.7102H640.024ZM654.41 94.1818C654.41 95.4508 654.169 96.5303 653.688 97.4205C653.211 98.3106 652.559 98.9905 651.733 99.4602C650.911 99.9261 649.987 100.159 648.961 100.159C647.927 100.159 646.999 99.9242 646.177 99.4545C645.355 98.9848 644.705 98.3049 644.228 97.4148C643.75 96.5246 643.512 95.447 643.512 94.1818C643.512 92.9129 643.75 91.8333 644.228 90.9432C644.705 90.053 645.355 89.375 646.177 88.9091C646.999 88.4394 647.927 88.2045 648.961 88.2045C649.987 88.2045 650.911 88.4394 651.733 88.9091C652.559 89.375 653.211 90.053 653.688 90.9432C654.169 91.8333 654.41 92.9129 654.41 94.1818ZM651.915 94.1818C651.915 93.3598 651.792 92.6667 651.546 92.1023C651.303 91.5379 650.961 91.1098 650.518 90.8182C650.074 90.5265 649.555 90.3807 648.961 90.3807C648.366 90.3807 647.847 90.5265 647.404 90.8182C646.961 91.1098 646.616 91.5379 646.37 92.1023C646.127 92.6667 646.006 93.3598 646.006 94.1818C646.006 95.0038 646.127 95.697 646.37 96.2614C646.616 96.8258 646.961 97.2538 647.404 97.5455C647.847 97.8371 648.366 97.983 648.961 97.983C649.555 97.983 650.074 97.8371 650.518 97.5455C650.961 97.2538 651.303 96.8258 651.546 96.2614C651.792 95.697 651.915 95.0038 651.915 94.1818ZM659.877 100H655.752V88.3636H659.911C661.082 88.3636 662.089 88.5966 662.934 89.0625C663.779 89.5246 664.428 90.1894 664.883 91.0568C665.341 91.9242 665.57 92.9621 665.57 94.1705C665.57 95.3826 665.341 96.4242 664.883 97.2955C664.428 98.1667 663.775 98.8352 662.922 99.3011C662.074 99.767 661.059 100 659.877 100ZM658.212 97.892H659.775C660.502 97.892 661.114 97.7633 661.61 97.5057C662.11 97.2443 662.485 96.8409 662.735 96.2955C662.989 95.7462 663.116 95.0379 663.116 94.1705C663.116 93.3106 662.989 92.608 662.735 92.0625C662.485 91.517 662.112 91.1155 661.616 90.858C661.119 90.6004 660.508 90.4716 659.78 90.4716H658.212V97.892ZM666.913 100V88.3636H674.754V90.392H669.373V93.1648H674.35V95.1932H669.373V97.9716H674.776V100H666.913ZM682.431 97.9545V96.017L687.289 88.3636H688.96V91.0455H687.971L684.909 95.892V95.983H691.812V97.9545H682.431ZM688.017 100V97.3636L688.062 96.5057V88.3636H690.369V100H688.017Z" fill="white"/>
<mask id="path-109-outside-1_4910_62972" maskUnits="userSpaceOnUse" x="511" y="118" width="280" height="53" fill="black">
<rect fill="white" x="511" y="118" width="280" height="53"/>
<path d="M527.56 158.8C523.12 158.8 519.12 157.4 515.88 155.28L517.08 148.44C519.44 150.12 523.48 151.88 527.16 151.88C529.68 151.88 531.68 150.8 531.72 148.44C531.76 146.24 530 145 526.36 143.64L524.56 142.96C518.8 140.8 516 137.6 516 132.32C516 126.2 520.6 122.44 527.68 122.44C531.24 122.44 534.76 123.44 537.52 125.04L536.52 131.52C533.6 129.96 530.8 129.36 528.24 129.36C525.88 129.36 523.92 130.28 523.88 132.52C523.84 134.84 525.84 135.68 529.08 136.92L530.88 137.6C536.2 139.6 539.64 142.52 539.64 148.44C539.64 154.92 534.52 158.8 527.56 158.8ZM548.705 129.6H541.025V122.84H548.705V129.6ZM548.705 158.16H541.025V131.88H548.705V158.16ZM573.766 131.88V135.52H573.806V156.72C573.806 161.52 570.966 167 561.806 167C558.926 167 556.326 166.36 554.406 165.28L555.206 159.72C556.966 160.44 558.726 160.88 561.006 160.88C564.606 160.88 566.606 159.68 566.606 156.12V155.92C564.926 157.6 562.366 158.2 560.446 158.2C555.166 158.2 550.686 155.6 550.686 147.16V142.28C550.686 133.84 555.166 131.24 560.446 131.24C562.446 131.24 565.046 132.08 566.606 133.84V131.88H573.766ZM566.246 148.12V141.48C566.246 138.76 564.086 137.68 562.366 137.68C560.646 137.68 558.526 138.76 558.526 141.48V147.92C558.526 150.64 560.646 151.76 562.366 151.76C564.046 151.76 566.246 150.68 566.246 148.12ZM583.925 158.16H576.205V123.08H583.925V133.56C585.325 131.96 587.605 131.24 590.045 131.24C594.885 131.24 599.165 133.84 599.165 142.28V158.16H591.325V141.76C591.325 139.04 589.765 137.72 587.645 137.72C585.525 137.72 583.925 139 583.925 141.56V158.16ZM611.567 158.84C606.687 158.84 603.527 156.68 603.527 150.64V139.04H599.167V132.68H603.527V124.28H611.127V132.68H617.207V139.04H611.127V150.28C611.127 151.64 611.927 152.36 613.207 152.4C614.407 152.44 615.967 152.28 616.807 151.96L617.207 157.76C615.807 158.4 613.847 158.84 611.567 158.84ZM655.987 146.6L660.347 123.12H668.347L660.347 158.16H652.027L646.907 135.48L641.947 158.16H633.627L625.427 123.12H633.467L637.867 146.6L642.947 123.12H650.867L655.987 146.6ZM678.145 158.8C672.825 158.8 666.545 156.32 666.545 147.72V142.32C666.545 133.72 672.705 131.24 678.145 131.24C683.465 131.24 689.745 133.72 689.745 142.32V147.72C689.745 156.32 683.465 158.8 678.145 158.8ZM678.145 152.24C679.865 152.24 682.105 151.32 682.105 148.48V141.56C682.105 138.72 679.865 137.8 678.145 137.8C676.425 137.8 674.185 138.72 674.185 141.56V148.48C674.185 151.32 676.425 152.24 678.145 152.24ZM699.472 158.16H691.752V131.88H699.112V133.88C700.472 132 702.872 131.24 704.832 131.24C706.432 131.24 707.672 131.6 708.712 132.4L708.312 139.16C707.192 138.6 705.792 138.36 704.312 138.36C701.312 138.36 699.592 139.76 699.472 142.16V158.16ZM724.077 133.04V123.88H731.797V158.16H724.637V156.2C723.077 157.96 720.477 158.8 718.477 158.8C713.197 158.8 708.717 156.2 708.717 147.76V142.28C708.717 133.84 713.197 131.24 718.477 131.24C720.397 131.24 722.557 131.84 724.077 133.04ZM724.277 148.56V141.32C724.277 138.76 722.077 137.68 720.397 137.68C718.677 137.68 716.557 138.8 716.557 141.52V148.56C716.557 151.28 718.677 152.36 720.397 152.36C722.117 152.36 724.277 151.28 724.277 148.56ZM744.068 158.8C740.548 158.8 736.828 157.92 734.108 156.08L734.908 149.96C738.108 151.84 740.748 152.6 743.508 152.6C745.268 152.6 746.388 151.92 746.388 150.72C746.388 149.36 744.268 148.64 741.268 147.6L739.628 147.04C735.668 145.68 733.548 142.68 733.588 139.24C733.628 134.08 737.588 131.24 743.748 131.24C747.348 131.24 750.188 132.08 752.548 133.64L751.508 139.4C749.668 138.24 746.988 137.44 744.468 137.44C742.548 137.44 741.508 138.04 741.508 139.12C741.508 140.48 743.028 140.8 745.908 141.72L747.388 142.2C751.628 143.56 754.108 146.28 754.068 150.36C754.028 156.04 749.668 158.8 744.068 158.8ZM780.014 144.44L773.494 151.44H786.294V158.16H763.694V152.4L775.374 139.32C777.734 136.64 778.774 134.92 778.774 132.76C778.774 130.6 777.214 129.16 774.814 129.16C772.414 129.16 770.654 130.44 770.494 134.04H763.694C763.654 126.4 768.774 122.44 774.934 122.44C781.374 122.44 786.254 126.4 786.254 132.52C786.254 137.24 784.014 140.12 780.014 144.44Z"/>
</mask>
<path d="M527.56 158.8C523.12 158.8 519.12 157.4 515.88 155.28L517.08 148.44C519.44 150.12 523.48 151.88 527.16 151.88C529.68 151.88 531.68 150.8 531.72 148.44C531.76 146.24 530 145 526.36 143.64L524.56 142.96C518.8 140.8 516 137.6 516 132.32C516 126.2 520.6 122.44 527.68 122.44C531.24 122.44 534.76 123.44 537.52 125.04L536.52 131.52C533.6 129.96 530.8 129.36 528.24 129.36C525.88 129.36 523.92 130.28 523.88 132.52C523.84 134.84 525.84 135.68 529.08 136.92L530.88 137.6C536.2 139.6 539.64 142.52 539.64 148.44C539.64 154.92 534.52 158.8 527.56 158.8ZM548.705 129.6H541.025V122.84H548.705V129.6ZM548.705 158.16H541.025V131.88H548.705V158.16ZM573.766 131.88V135.52H573.806V156.72C573.806 161.52 570.966 167 561.806 167C558.926 167 556.326 166.36 554.406 165.28L555.206 159.72C556.966 160.44 558.726 160.88 561.006 160.88C564.606 160.88 566.606 159.68 566.606 156.12V155.92C564.926 157.6 562.366 158.2 560.446 158.2C555.166 158.2 550.686 155.6 550.686 147.16V142.28C550.686 133.84 555.166 131.24 560.446 131.24C562.446 131.24 565.046 132.08 566.606 133.84V131.88H573.766ZM566.246 148.12V141.48C566.246 138.76 564.086 137.68 562.366 137.68C560.646 137.68 558.526 138.76 558.526 141.48V147.92C558.526 150.64 560.646 151.76 562.366 151.76C564.046 151.76 566.246 150.68 566.246 148.12ZM583.925 158.16H576.205V123.08H583.925V133.56C585.325 131.96 587.605 131.24 590.045 131.24C594.885 131.24 599.165 133.84 599.165 142.28V158.16H591.325V141.76C591.325 139.04 589.765 137.72 587.645 137.72C585.525 137.72 583.925 139 583.925 141.56V158.16ZM611.567 158.84C606.687 158.84 603.527 156.68 603.527 150.64V139.04H599.167V132.68H603.527V124.28H611.127V132.68H617.207V139.04H611.127V150.28C611.127 151.64 611.927 152.36 613.207 152.4C614.407 152.44 615.967 152.28 616.807 151.96L617.207 157.76C615.807 158.4 613.847 158.84 611.567 158.84ZM655.987 146.6L660.347 123.12H668.347L660.347 158.16H652.027L646.907 135.48L641.947 158.16H633.627L625.427 123.12H633.467L637.867 146.6L642.947 123.12H650.867L655.987 146.6ZM678.145 158.8C672.825 158.8 666.545 156.32 666.545 147.72V142.32C666.545 133.72 672.705 131.24 678.145 131.24C683.465 131.24 689.745 133.72 689.745 142.32V147.72C689.745 156.32 683.465 158.8 678.145 158.8ZM678.145 152.24C679.865 152.24 682.105 151.32 682.105 148.48V141.56C682.105 138.72 679.865 137.8 678.145 137.8C676.425 137.8 674.185 138.72 674.185 141.56V148.48C674.185 151.32 676.425 152.24 678.145 152.24ZM699.472 158.16H691.752V131.88H699.112V133.88C700.472 132 702.872 131.24 704.832 131.24C706.432 131.24 707.672 131.6 708.712 132.4L708.312 139.16C707.192 138.6 705.792 138.36 704.312 138.36C701.312 138.36 699.592 139.76 699.472 142.16V158.16ZM724.077 133.04V123.88H731.797V158.16H724.637V156.2C723.077 157.96 720.477 158.8 718.477 158.8C713.197 158.8 708.717 156.2 708.717 147.76V142.28C708.717 133.84 713.197 131.24 718.477 131.24C720.397 131.24 722.557 131.84 724.077 133.04ZM724.277 148.56V141.32C724.277 138.76 722.077 137.68 720.397 137.68C718.677 137.68 716.557 138.8 716.557 141.52V148.56C716.557 151.28 718.677 152.36 720.397 152.36C722.117 152.36 724.277 151.28 724.277 148.56ZM744.068 158.8C740.548 158.8 736.828 157.92 734.108 156.08L734.908 149.96C738.108 151.84 740.748 152.6 743.508 152.6C745.268 152.6 746.388 151.92 746.388 150.72C746.388 149.36 744.268 148.64 741.268 147.6L739.628 147.04C735.668 145.68 733.548 142.68 733.588 139.24C733.628 134.08 737.588 131.24 743.748 131.24C747.348 131.24 750.188 132.08 752.548 133.64L751.508 139.4C749.668 138.24 746.988 137.44 744.468 137.44C742.548 137.44 741.508 138.04 741.508 139.12C741.508 140.48 743.028 140.8 745.908 141.72L747.388 142.2C751.628 143.56 754.108 146.28 754.068 150.36C754.028 156.04 749.668 158.8 744.068 158.8ZM780.014 144.44L773.494 151.44H786.294V158.16H763.694V152.4L775.374 139.32C777.734 136.64 778.774 134.92 778.774 132.76C778.774 130.6 777.214 129.16 774.814 129.16C772.414 129.16 770.654 130.44 770.494 134.04H763.694C763.654 126.4 768.774 122.44 774.934 122.44C781.374 122.44 786.254 126.4 786.254 132.52C786.254 137.24 784.014 140.12 780.014 144.44Z" fill="#9747FF"/>
<path d="M515.88 155.28L511.94 154.589C511.664 156.164 512.352 157.752 513.69 158.627L515.88 155.28ZM517.08 148.44L519.4 145.181C518.281 144.385 516.832 144.218 515.562 144.739C514.292 145.26 513.377 146.396 513.14 147.749L517.08 148.44ZM531.72 148.44L527.721 148.367L527.721 148.372L531.72 148.44ZM526.36 143.64L524.946 147.382C524.951 147.384 524.955 147.385 524.96 147.387L526.36 143.64ZM524.56 142.96L525.974 139.218L525.964 139.215L524.56 142.96ZM537.52 125.04L541.473 125.65C541.724 124.022 540.952 122.406 539.526 121.579L537.52 125.04ZM536.52 131.52L534.635 135.048C535.779 135.659 537.148 135.678 538.308 135.098C539.468 134.518 540.275 133.412 540.473 132.13L536.52 131.52ZM523.88 132.52L519.881 132.449L519.881 132.451L523.88 132.52ZM529.08 136.92L527.65 140.656C527.656 140.658 527.661 140.66 527.666 140.662L529.08 136.92ZM530.88 137.6L529.466 141.342L529.472 141.344L530.88 137.6ZM527.56 154.8C523.976 154.8 520.727 153.672 518.07 151.933L513.69 158.627C517.513 161.128 522.264 162.8 527.56 162.8V154.8ZM519.82 155.971L521.02 149.131L513.14 147.749L511.94 154.589L519.82 155.971ZM514.76 151.699C517.586 153.71 522.421 155.88 527.16 155.88V147.88C524.539 147.88 521.294 146.53 519.4 145.181L514.76 151.699ZM527.16 155.88C528.914 155.88 530.932 155.516 532.64 154.339C534.521 153.042 535.677 150.982 535.719 148.508L527.721 148.372C527.72 148.389 527.723 148.263 527.821 148.081C527.918 147.901 528.039 147.794 528.1 147.751C528.149 147.718 528.116 147.754 527.943 147.798C527.772 147.842 527.512 147.88 527.16 147.88V155.88ZM535.719 148.513C535.764 146.063 534.692 144.104 533.008 142.675C531.553 141.441 529.64 140.595 527.76 139.893L524.96 147.387C525.794 147.698 526.437 147.973 526.934 148.224C527.436 148.478 527.704 148.666 527.832 148.775C527.947 148.872 527.886 148.851 527.811 148.695C527.775 148.621 527.749 148.544 527.734 148.473C527.72 148.403 527.721 148.364 527.721 148.367L535.719 148.513ZM527.774 139.898L525.974 139.218L523.146 146.702L524.946 147.382L527.774 139.898ZM525.964 139.215C523.449 138.271 522.021 137.258 521.212 136.272C520.473 135.372 520 134.194 520 132.32H512C512 135.726 512.927 138.788 515.028 141.348C517.059 143.822 519.911 145.489 523.156 146.705L525.964 139.215ZM520 132.32C520 130.344 520.7 129.034 521.754 128.151C522.888 127.201 524.812 126.44 527.68 126.44V118.44C523.468 118.44 519.552 119.559 516.616 122.019C513.6 124.546 512 128.176 512 132.32H520ZM527.68 126.44C530.533 126.44 533.361 127.252 535.514 128.501L539.526 121.579C536.159 119.628 531.947 118.44 527.68 118.44V126.44ZM533.567 124.43L532.567 130.91L540.473 132.13L541.473 125.65L533.567 124.43ZM538.405 127.992C534.899 126.119 531.451 125.36 528.24 125.36V133.36C530.149 133.36 532.301 133.801 534.635 135.048L538.405 127.992ZM528.24 125.36C526.631 125.36 524.694 125.659 523.021 126.739C521.14 127.954 519.925 129.961 519.881 132.449L527.879 132.591C527.879 132.627 527.863 132.811 527.731 133.046C527.601 133.276 527.441 133.408 527.359 133.461C527.293 133.504 527.314 133.473 527.483 133.433C527.649 133.394 527.901 133.36 528.24 133.36V125.36ZM519.881 132.451C519.86 133.642 520.107 134.83 520.712 135.934C521.301 137.009 522.111 137.788 522.896 138.359C524.313 139.39 526.178 140.092 527.65 140.656L530.51 133.184C529.691 132.871 529.061 132.624 528.538 132.388C528.01 132.151 527.737 131.988 527.604 131.891C527.489 131.807 527.604 131.863 527.728 132.09C527.789 132.201 527.832 132.317 527.856 132.424C527.868 132.474 527.874 132.515 527.877 132.544C527.88 132.574 527.879 132.589 527.879 132.589L519.881 132.451ZM527.666 140.662L529.466 141.342L532.294 133.858L530.494 133.178L527.666 140.662ZM529.472 141.344C531.86 142.242 533.357 143.183 534.262 144.204C535.064 145.108 535.64 146.34 535.64 148.44H543.64C543.64 144.62 542.496 141.432 540.248 138.896C538.103 136.477 535.22 134.958 532.288 133.856L529.472 141.344ZM535.64 148.44C535.64 150.53 534.86 151.975 533.659 152.969C532.38 154.028 530.33 154.8 527.56 154.8V162.8C531.75 162.8 535.74 161.632 538.761 159.131C541.86 156.565 543.64 152.83 543.64 148.44H535.64ZM548.705 129.6V133.6C550.914 133.6 552.705 131.809 552.705 129.6H548.705ZM541.025 129.6H537.025C537.025 131.809 538.816 133.6 541.025 133.6V129.6ZM541.025 122.84V118.84C538.816 118.84 537.025 120.631 537.025 122.84H541.025ZM548.705 122.84H552.705C552.705 120.631 550.914 118.84 548.705 118.84V122.84ZM548.705 158.16V162.16C550.914 162.16 552.705 160.369 552.705 158.16H548.705ZM541.025 158.16H537.025C537.025 160.369 538.816 162.16 541.025 162.16V158.16ZM541.025 131.88V127.88C538.816 127.88 537.025 129.671 537.025 131.88H541.025ZM548.705 131.88H552.705C552.705 129.671 550.914 127.88 548.705 127.88V131.88ZM548.705 125.6H541.025V133.6H548.705V125.6ZM545.025 129.6V122.84H537.025V129.6H545.025ZM541.025 126.84H548.705V118.84H541.025V126.84ZM544.705 122.84V129.6H552.705V122.84H544.705ZM548.705 154.16H541.025V162.16H548.705V154.16ZM545.025 158.16V131.88H537.025V158.16H545.025ZM541.025 135.88H548.705V127.88H541.025V135.88ZM544.705 131.88V158.16H552.705V131.88H544.705ZM573.766 131.88H577.766C577.766 129.671 575.975 127.88 573.766 127.88V131.88ZM573.766 135.52H569.766C569.766 137.729 571.557 139.52 573.766 139.52V135.52ZM573.806 135.52H577.806C577.806 133.311 576.015 131.52 573.806 131.52V135.52ZM554.406 165.28L550.447 164.71C550.211 166.345 551.005 167.957 552.445 168.766L554.406 165.28ZM555.206 159.72L556.72 156.018C555.58 155.551 554.288 155.636 553.219 156.248C552.15 156.86 551.422 157.931 551.247 159.15L555.206 159.72ZM566.606 155.92H570.606C570.606 154.302 569.631 152.844 568.137 152.224C566.642 151.605 564.922 151.948 563.778 153.092L566.606 155.92ZM566.606 133.84L563.613 136.493C564.715 137.737 566.471 138.169 568.025 137.58C569.579 136.99 570.606 135.502 570.606 133.84H566.606ZM566.606 131.88V127.88C564.397 127.88 562.606 129.671 562.606 131.88H566.606ZM569.766 131.88V135.52H577.766V131.88H569.766ZM573.766 139.52H573.806V131.52H573.766V139.52ZM569.806 135.52V156.72H577.806V135.52H569.806ZM569.806 156.72C569.806 158.38 569.315 159.871 568.329 160.918C567.402 161.902 565.563 163 561.806 163V171C567.209 171 571.37 169.358 574.153 166.402C576.877 163.509 577.806 159.86 577.806 156.72H569.806ZM561.806 163C559.472 163 557.576 162.474 556.367 161.794L552.445 168.766C555.076 170.246 558.38 171 561.806 171V163ZM558.365 165.85L559.165 160.29L551.247 159.15L550.447 164.71L558.365 165.85ZM553.691 163.422C555.857 164.308 558.131 164.88 561.006 164.88V156.88C559.321 156.88 558.075 156.572 556.72 156.018L553.691 163.422ZM561.006 164.88C563.094 164.88 565.608 164.564 567.624 162.983C569.862 161.228 570.606 158.654 570.606 156.12H562.606C562.606 156.651 562.529 156.865 562.52 156.888C562.518 156.894 562.53 156.863 562.567 156.813C562.604 156.762 562.648 156.718 562.688 156.687C562.766 156.626 562.739 156.681 562.458 156.749C562.166 156.82 561.702 156.88 561.006 156.88V164.88ZM570.606 156.12V155.92H562.606V156.12H570.606ZM563.778 153.092C563.482 153.387 563.014 153.676 562.361 153.892C561.711 154.107 561.017 154.2 560.446 154.2V162.2C562.964 162.2 566.73 161.452 569.434 158.748L563.778 153.092ZM560.446 154.2C558.404 154.2 557.125 153.696 556.353 152.956C555.614 152.249 554.686 150.699 554.686 147.16H546.686C546.686 152.061 547.998 156.031 550.819 158.734C553.607 161.404 557.208 162.2 560.446 162.2V154.2ZM554.686 147.16V142.28H546.686V147.16H554.686ZM554.686 142.28C554.686 138.741 555.614 137.191 556.353 136.484C557.125 135.744 558.404 135.24 560.446 135.24V127.24C557.208 127.24 553.607 128.036 550.819 130.706C547.998 133.409 546.686 137.379 546.686 142.28H554.686ZM560.446 135.24C560.924 135.24 561.579 135.348 562.229 135.603C562.879 135.859 563.343 136.189 563.613 136.493L569.599 131.187C567.102 128.369 563.291 127.24 560.446 127.24V135.24ZM570.606 133.84V131.88H562.606V133.84H570.606ZM566.606 135.88H573.766V127.88H566.606V135.88ZM570.246 148.12V141.48H562.246V148.12H570.246ZM570.246 141.48C570.246 138.929 569.173 136.829 567.465 135.449C565.884 134.172 563.983 133.68 562.366 133.68V141.68C562.373 141.68 562.389 141.681 562.411 141.684C562.432 141.687 562.452 141.692 562.467 141.697C562.501 141.708 562.485 141.71 562.437 141.671C562.412 141.651 562.38 141.621 562.348 141.58C562.315 141.539 562.287 141.495 562.267 141.452C562.247 141.41 562.24 141.382 562.239 141.378C562.239 141.375 562.246 141.406 562.246 141.48H570.246ZM562.366 133.68C560.745 133.68 558.843 134.174 557.267 135.465C555.567 136.857 554.526 138.956 554.526 141.48H562.526C562.526 141.401 562.534 141.365 562.534 141.364C562.534 141.364 562.528 141.389 562.509 141.43C562.49 141.471 562.463 141.515 562.43 141.557C562.397 141.599 562.363 141.632 562.335 141.655C562.281 141.699 562.256 141.702 562.281 141.694C562.309 141.685 562.344 141.68 562.366 141.68V133.68ZM554.526 141.48V147.92H562.526V141.48H554.526ZM554.526 147.92C554.526 150.439 555.562 152.536 557.242 153.935C558.807 155.237 560.712 155.76 562.366 155.76V147.76C562.367 147.76 562.359 147.76 562.345 147.758C562.331 147.756 562.319 147.752 562.31 147.749C562.289 147.742 562.311 147.745 562.36 147.785C562.385 147.806 562.415 147.836 562.444 147.873C562.474 147.912 562.497 147.951 562.514 147.987C562.531 148.024 562.535 148.044 562.534 148.041C562.534 148.037 562.526 147.999 562.526 147.92H554.526ZM562.366 155.76C563.972 155.76 565.836 155.265 567.389 154.06C569.07 152.755 570.246 150.703 570.246 148.12H562.246C562.246 148.152 562.243 148.146 562.251 148.111C562.259 148.075 562.275 148.025 562.304 147.968C562.365 147.848 562.441 147.773 562.483 147.74C562.517 147.714 562.515 147.725 562.465 147.741C562.443 147.748 562.419 147.753 562.397 147.757C562.375 147.76 562.364 147.76 562.366 147.76V155.76ZM583.925 158.16V162.16C586.134 162.16 587.925 160.369 587.925 158.16H583.925ZM576.205 158.16H572.205C572.205 160.369 573.996 162.16 576.205 162.16V158.16ZM576.205 123.08V119.08C573.996 119.08 572.205 120.871 572.205 123.08H576.205ZM583.925 123.08H587.925C587.925 120.871 586.134 119.08 583.925 119.08V123.08ZM583.925 133.56H579.925C579.925 135.226 580.958 136.718 582.518 137.304C584.078 137.891 585.838 137.448 586.935 136.194L583.925 133.56ZM599.165 158.16V162.16C601.374 162.16 603.165 160.369 603.165 158.16H599.165ZM591.325 158.16H587.325C587.325 160.369 589.116 162.16 591.325 162.16V158.16ZM583.925 154.16H576.205V162.16H583.925V154.16ZM580.205 158.16V123.08H572.205V158.16H580.205ZM576.205 127.08H583.925V119.08H576.205V127.08ZM579.925 123.08V133.56H587.925V123.08H579.925ZM586.935 136.194C587.298 135.779 588.257 135.24 590.045 135.24V127.24C586.952 127.24 583.351 128.141 580.914 130.926L586.935 136.194ZM590.045 135.24C591.783 135.24 592.879 135.699 593.566 136.398C594.26 137.104 595.165 138.694 595.165 142.28H603.165C603.165 137.426 601.93 133.496 599.273 130.792C596.61 128.081 593.147 127.24 590.045 127.24V135.24ZM595.165 142.28V158.16H603.165V142.28H595.165ZM599.165 154.16H591.325V162.16H599.165V154.16ZM595.325 158.16V141.76H587.325V158.16H595.325ZM595.325 141.76C595.325 139.638 594.702 137.522 593.14 135.924C591.577 134.325 589.537 133.72 587.645 133.72V141.72C587.763 141.72 587.775 141.739 587.712 141.715C587.681 141.703 587.634 141.682 587.58 141.647C587.524 141.612 587.47 141.568 587.419 141.516C587.369 141.465 587.333 141.415 587.308 141.375C587.284 141.335 587.276 141.313 587.277 141.317C587.281 141.327 587.325 141.458 587.325 141.76H595.325ZM587.645 133.72C585.793 133.72 583.784 134.288 582.216 135.798C580.617 137.337 579.925 139.421 579.925 141.56H587.925C587.925 141.335 587.96 141.268 587.945 141.306C587.938 141.325 587.921 141.363 587.889 141.412C587.856 141.461 587.814 141.513 587.763 141.562C587.657 141.665 587.557 141.712 587.514 141.727C587.478 141.74 587.513 141.72 587.645 141.72V133.72ZM579.925 141.56V158.16H587.925V141.56H579.925ZM603.527 139.04H607.527C607.527 136.831 605.736 135.04 603.527 135.04V139.04ZM599.167 139.04H595.167C595.167 141.249 596.958 143.04 599.167 143.04V139.04ZM599.167 132.68V128.68C596.958 128.68 595.167 130.471 595.167 132.68H599.167ZM603.527 132.68V136.68C605.736 136.68 607.527 134.889 607.527 132.68H603.527ZM603.527 124.28V120.28C601.318 120.28 599.527 122.071 599.527 124.28H603.527ZM611.127 124.28H615.127C615.127 122.071 613.336 120.28 611.127 120.28V124.28ZM611.127 132.68H607.127C607.127 134.889 608.918 136.68 611.127 136.68V132.68ZM617.207 132.68H621.207C621.207 130.471 619.416 128.68 617.207 128.68V132.68ZM617.207 139.04V143.04C619.416 143.04 621.207 141.249 621.207 139.04H617.207ZM611.127 139.04V135.04C608.918 135.04 607.127 136.831 607.127 139.04H611.127ZM613.207 152.4L613.34 148.402L613.332 148.402L613.207 152.4ZM616.807 151.96L620.798 151.685C620.711 150.421 620.03 149.273 618.962 148.59C617.895 147.908 616.567 147.771 615.383 148.222L616.807 151.96ZM617.207 157.76L618.87 161.398C620.385 160.705 621.312 159.147 621.198 157.485L617.207 157.76ZM611.567 154.84C609.631 154.84 608.793 154.401 608.433 154.069C608.133 153.791 607.527 152.997 607.527 150.64H599.527C599.527 154.323 600.501 157.629 603.001 159.941C605.441 162.199 608.623 162.84 611.567 162.84V154.84ZM607.527 150.64V139.04H599.527V150.64H607.527ZM603.527 135.04H599.167V143.04H603.527V135.04ZM603.167 139.04V132.68H595.167V139.04H603.167ZM599.167 136.68H603.527V128.68H599.167V136.68ZM607.527 132.68V124.28H599.527V132.68H607.527ZM603.527 128.28H611.127V120.28H603.527V128.28ZM607.127 124.28V132.68H615.127V124.28H607.127ZM611.127 136.68H617.207V128.68H611.127V136.68ZM613.207 132.68V139.04H621.207V132.68H613.207ZM617.207 135.04H611.127V143.04H617.207V135.04ZM607.127 139.04V150.28H615.127V139.04H607.127ZM607.127 150.28C607.127 151.756 607.581 153.403 608.879 154.683C610.148 155.935 611.741 156.356 613.082 156.398L613.332 148.402C613.393 148.404 613.946 148.445 614.496 148.987C615.074 149.557 615.127 150.164 615.127 150.28H607.127ZM613.074 156.398C614.503 156.445 616.674 156.291 618.231 155.698L615.383 148.222C615.432 148.204 615.394 148.222 615.238 148.255C615.095 148.285 614.906 148.316 614.68 148.342C614.219 148.395 613.728 148.415 613.34 148.402L613.074 156.398ZM612.817 152.235L613.217 158.035L621.198 157.485L620.798 151.685L612.817 152.235ZM615.544 154.122C614.747 154.486 613.37 154.84 611.567 154.84V162.84C614.325 162.84 616.867 162.314 618.87 161.398L615.544 154.122ZM655.987 146.6L652.078 147.452C652.484 149.313 654.145 150.629 656.049 150.6C657.953 150.57 659.572 149.202 659.919 147.33L655.987 146.6ZM660.347 123.12V119.12C658.419 119.12 656.766 120.495 656.414 122.39L660.347 123.12ZM668.347 123.12L672.246 124.01C672.517 122.824 672.233 121.578 671.474 120.626C670.715 119.674 669.564 119.12 668.347 119.12V123.12ZM660.347 158.16V162.16C662.213 162.16 663.831 160.87 664.246 159.05L660.347 158.16ZM652.027 158.16L648.125 159.041C648.536 160.865 650.157 162.16 652.027 162.16V158.16ZM646.907 135.48L650.808 134.599C650.396 132.77 648.768 131.474 646.893 131.48C645.018 131.486 643.399 132.794 642.999 134.625L646.907 135.48ZM641.947 158.16V162.16C643.826 162.16 645.453 160.851 645.854 159.015L641.947 158.16ZM633.627 158.16L629.732 159.071C630.155 160.881 631.769 162.16 633.627 162.16V158.16ZM625.427 123.12V119.12C624.205 119.12 623.051 119.678 622.292 120.635C621.534 121.591 621.254 122.842 621.532 124.031L625.427 123.12ZM633.467 123.12L637.398 122.383C637.044 120.491 635.392 119.12 633.467 119.12V123.12ZM637.867 146.6L633.935 147.337C634.286 149.208 635.907 150.573 637.811 150.6C639.715 150.626 641.373 149.307 641.776 147.446L637.867 146.6ZM642.947 123.12V119.12C641.063 119.12 639.435 120.434 639.037 122.274L642.947 123.12ZM650.867 123.12L654.775 122.268C654.374 120.43 652.747 119.12 650.867 119.12V123.12ZM659.919 147.33L664.279 123.85L656.414 122.39L652.054 145.87L659.919 147.33ZM660.347 127.12H668.347V119.12H660.347V127.12ZM664.447 122.23L656.447 157.27L664.246 159.05L672.246 124.01L664.447 122.23ZM660.347 154.16H652.027V162.16H660.347V154.16ZM655.928 157.279L650.808 134.599L643.005 136.361L648.125 159.041L655.928 157.279ZM642.999 134.625L638.039 157.305L645.854 159.015L650.814 136.335L642.999 134.625ZM641.947 154.16H633.627V162.16H641.947V154.16ZM637.521 157.249L629.321 122.209L621.532 124.031L629.732 159.071L637.521 157.249ZM625.427 127.12H633.467V119.12H625.427V127.12ZM629.535 123.857L633.935 147.337L641.798 145.863L637.398 122.383L629.535 123.857ZM641.776 147.446L646.856 123.966L639.037 122.274L633.957 145.754L641.776 147.446ZM642.947 127.12H650.867V119.12H642.947V127.12ZM646.958 123.972L652.078 147.452L659.895 145.748L654.775 122.268L646.958 123.972ZM678.145 154.8C676.013 154.8 674.075 154.289 672.767 153.298C671.645 152.447 670.545 150.921 670.545 147.72H662.545C662.545 153.119 664.586 157.133 667.933 159.672C671.096 162.071 674.958 162.8 678.145 162.8V154.8ZM670.545 147.72V142.32H662.545V147.72H670.545ZM670.545 142.32C670.545 139.092 671.635 137.572 672.733 136.734C674.014 135.756 675.94 135.24 678.145 135.24V127.24C674.911 127.24 671.037 127.964 667.878 130.376C664.535 132.928 662.545 136.948 662.545 142.32H670.545ZM678.145 135.24C680.278 135.24 682.216 135.751 683.523 136.742C684.646 137.593 685.745 139.119 685.745 142.32H693.745C693.745 136.921 691.705 132.907 688.357 130.368C685.195 127.969 681.333 127.24 678.145 127.24V135.24ZM685.745 142.32V147.72H693.745V142.32H685.745ZM685.745 147.72C685.745 150.921 684.646 152.447 683.523 153.298C682.216 154.289 680.278 154.8 678.145 154.8V162.8C681.333 162.8 685.195 162.071 688.357 159.672C691.705 157.133 693.745 153.119 693.745 147.72H685.745ZM678.145 156.24C679.625 156.24 681.535 155.86 683.18 154.618C684.996 153.247 686.105 151.105 686.105 148.48H678.105C678.105 148.571 678.096 148.61 678.097 148.607C678.098 148.602 678.107 148.566 678.133 148.512C678.16 148.457 678.196 148.401 678.241 148.348C678.285 148.295 678.327 148.258 678.36 148.232C678.423 148.185 678.44 148.191 678.379 148.209C678.351 148.217 678.314 148.225 678.27 148.231C678.227 148.237 678.184 148.24 678.145 148.24V156.24ZM686.105 148.48V141.56H678.105V148.48H686.105ZM686.105 141.56C686.105 138.935 684.996 136.793 683.18 135.422C681.535 134.18 679.625 133.8 678.145 133.8V141.8C678.184 141.8 678.227 141.803 678.27 141.809C678.314 141.815 678.351 141.823 678.379 141.831C678.44 141.849 678.423 141.855 678.36 141.808C678.327 141.782 678.285 141.745 678.241 141.692C678.196 141.639 678.16 141.583 678.133 141.528C678.107 141.474 678.098 141.438 678.097 141.433C678.096 141.43 678.105 141.469 678.105 141.56H686.105ZM678.145 133.8C676.666 133.8 674.756 134.18 673.11 135.422C671.295 136.793 670.185 138.935 670.185 141.56H678.185C678.185 141.469 678.194 141.43 678.193 141.433C678.192 141.438 678.184 141.474 678.157 141.528C678.131 141.583 678.094 141.639 678.05 141.692C678.006 141.745 677.964 141.782 677.93 141.808C677.868 141.855 677.85 141.849 677.912 141.831C677.939 141.823 677.976 141.815 678.02 141.809C678.064 141.803 678.107 141.8 678.145 141.8V133.8ZM670.185 141.56V148.48H678.185V141.56H670.185ZM670.185 148.48C670.185 151.105 671.295 153.247 673.11 154.618C674.756 155.86 676.666 156.24 678.145 156.24V148.24C678.107 148.24 678.064 148.237 678.02 148.231C677.976 148.225 677.939 148.217 677.912 148.209C677.85 148.191 677.868 148.185 677.93 148.232C677.964 148.258 678.006 148.295 678.05 148.348C678.094 148.401 678.131 148.457 678.157 148.512C678.184 148.566 678.192 148.602 678.193 148.607C678.194 148.61 678.185 148.571 678.185 148.48H670.185ZM699.472 158.16V162.16C701.681 162.16 703.472 160.369 703.472 158.16H699.472ZM691.752 158.16H687.752C687.752 160.369 689.542 162.16 691.752 162.16V158.16ZM691.752 131.88V127.88C689.542 127.88 687.752 129.671 687.752 131.88H691.752ZM699.112 131.88H703.112C703.112 129.671 701.321 127.88 699.112 127.88V131.88ZM699.112 133.88H695.112C695.112 135.614 696.229 137.151 697.879 137.685C699.529 138.22 701.336 137.63 702.352 136.224L699.112 133.88ZM708.712 132.4L712.705 132.636C712.783 131.313 712.201 130.038 711.15 129.23L708.712 132.4ZM708.312 139.16L706.523 142.738C707.725 143.339 709.149 143.296 710.313 142.623C711.477 141.951 712.225 140.738 712.305 139.396L708.312 139.16ZM699.472 142.16L695.477 141.96C695.473 142.027 695.472 142.093 695.472 142.16H699.472ZM699.472 154.16H691.752V162.16H699.472V154.16ZM695.752 158.16V131.88H687.752V158.16H695.752ZM691.752 135.88H699.112V127.88H691.752V135.88ZM695.112 131.88V133.88H703.112V131.88H695.112ZM702.352 136.224C702.52 135.993 702.814 135.745 703.291 135.545C703.779 135.341 704.339 135.24 704.832 135.24V127.24C702.075 127.24 698.229 128.276 695.871 131.536L702.352 136.224ZM704.832 135.24C705.783 135.24 706.097 135.435 706.273 135.57L711.15 129.23C709.246 127.765 707.08 127.24 704.832 127.24V135.24ZM704.719 132.164L704.319 138.924L712.305 139.396L712.705 132.636L704.719 132.164ZM710.1 135.582C708.239 134.652 706.165 134.36 704.312 134.36V142.36C705.418 142.36 706.144 142.548 706.523 142.738L710.1 135.582ZM704.312 134.36C702.24 134.36 700.075 134.839 698.327 136.225C696.481 137.688 695.586 139.777 695.477 141.96L703.467 142.36C703.474 142.218 703.497 142.212 703.463 142.285C703.423 142.366 703.359 142.445 703.296 142.495C703.188 142.581 703.383 142.36 704.312 142.36V134.36ZM695.472 142.16V158.16H703.472V142.16H695.472ZM724.077 133.04L721.599 136.18C722.802 137.129 724.442 137.308 725.822 136.64C727.201 135.971 728.077 134.573 728.077 133.04H724.077ZM724.077 123.88V119.88C721.868 119.88 720.077 121.671 720.077 123.88H724.077ZM731.797 123.88H735.797C735.797 121.671 734.006 119.88 731.797 119.88V123.88ZM731.797 158.16V162.16C734.006 162.16 735.797 160.369 735.797 158.16H731.797ZM724.637 158.16H720.637C720.637 160.369 722.428 162.16 724.637 162.16V158.16ZM724.637 156.2H728.637C728.637 154.538 727.61 153.05 726.056 152.46C724.502 151.871 722.746 152.303 721.644 153.547L724.637 156.2ZM728.077 133.04V123.88H720.077V133.04H728.077ZM724.077 127.88H731.797V119.88H724.077V127.88ZM727.797 123.88V158.16H735.797V123.88H727.797ZM731.797 154.16H724.637V162.16H731.797V154.16ZM728.637 158.16V156.2H720.637V158.16H728.637ZM721.644 153.547C721.374 153.851 720.91 154.181 720.26 154.437C719.611 154.692 718.956 154.8 718.477 154.8V162.8C721.322 162.8 725.133 161.671 727.631 158.853L721.644 153.547ZM718.477 154.8C716.435 154.8 715.157 154.296 714.384 153.556C713.645 152.849 712.717 151.299 712.717 147.76H704.717C704.717 152.661 706.029 156.631 708.85 159.334C711.638 162.004 715.239 162.8 718.477 162.8V154.8ZM712.717 147.76V142.28H704.717V147.76H712.717ZM712.717 142.28C712.717 138.741 713.645 137.191 714.384 136.484C715.157 135.744 716.435 135.24 718.477 135.24V127.24C715.239 127.24 711.638 128.036 708.85 130.706C706.029 133.409 704.717 137.379 704.717 142.28H712.717ZM718.477 135.24C719.7 135.24 720.929 135.651 721.599 136.18L726.556 129.9C724.186 128.029 721.094 127.24 718.477 127.24V135.24ZM728.277 148.56V141.32H720.277V148.56H728.277ZM728.277 141.32C728.277 138.737 727.101 136.685 725.42 135.38C723.867 134.175 722.003 133.68 720.397 133.68V141.68C720.395 141.68 720.406 141.68 720.429 141.683C720.45 141.687 720.474 141.692 720.496 141.699C720.546 141.715 720.548 141.726 720.514 141.7C720.473 141.667 720.396 141.592 720.335 141.472C720.307 141.415 720.29 141.365 720.282 141.329C720.274 141.294 720.277 141.288 720.277 141.32H728.277ZM720.397 133.68C718.743 133.68 716.838 134.203 715.273 135.505C713.593 136.904 712.557 139.001 712.557 141.52H720.557C720.557 141.441 720.565 141.403 720.566 141.399C720.566 141.396 720.562 141.416 720.545 141.453C720.529 141.489 720.505 141.528 720.475 141.567C720.446 141.604 720.416 141.634 720.391 141.655C720.343 141.695 720.32 141.698 720.341 141.691C720.35 141.688 720.362 141.684 720.376 141.682C720.39 141.68 720.398 141.68 720.397 141.68V133.68ZM712.557 141.52V148.56H720.557V141.52H712.557ZM712.557 148.56C712.557 151.084 713.598 153.183 715.298 154.575C716.875 155.866 718.776 156.36 720.397 156.36V148.36C720.376 148.36 720.34 148.355 720.312 148.346C720.287 148.338 720.312 148.341 720.366 148.385C720.395 148.408 720.428 148.441 720.461 148.483C720.495 148.525 720.521 148.569 720.54 148.61C720.56 148.651 720.565 148.676 720.565 148.676C720.565 148.675 720.557 148.639 720.557 148.56H712.557ZM720.397 156.36C722.014 156.36 723.915 155.868 725.496 154.591C727.204 153.211 728.277 151.111 728.277 148.56H720.277C720.277 148.634 720.27 148.665 720.271 148.662C720.272 148.658 720.278 148.63 720.299 148.587C720.319 148.545 720.346 148.501 720.379 148.46C720.411 148.419 720.443 148.389 720.468 148.369C720.516 148.33 720.533 148.332 720.498 148.343C720.483 148.348 720.463 148.353 720.442 148.356C720.42 148.359 720.404 148.36 720.397 148.36V156.36ZM734.107 156.08L730.141 155.562C729.945 157.062 730.613 158.545 731.866 159.393L734.107 156.08ZM734.908 149.96L736.934 146.511C735.777 145.831 734.356 145.777 733.15 146.367C731.945 146.956 731.115 148.111 730.941 149.442L734.908 149.96ZM741.268 147.6L742.578 143.821C742.572 143.819 742.566 143.817 742.56 143.815L741.268 147.6ZM739.628 147.04L738.328 150.823L738.335 150.825L739.628 147.04ZM733.587 139.24L737.587 139.287C737.587 139.281 737.587 139.276 737.587 139.271L733.587 139.24ZM752.548 133.64L756.484 134.351C756.768 132.777 756.087 131.185 754.753 130.303L752.548 133.64ZM751.508 139.4L749.374 142.784C750.499 143.493 751.903 143.597 753.12 143.061C754.337 142.525 755.208 141.419 755.444 140.111L751.508 139.4ZM745.908 141.72L747.142 137.915C747.136 137.913 747.13 137.911 747.125 137.91L745.908 141.72ZM747.387 142.2L746.153 146.005L746.166 146.009L747.387 142.2ZM754.068 150.36L750.068 150.321L750.068 150.332L754.068 150.36ZM744.068 154.8C741.108 154.8 738.234 154.042 736.349 152.767L731.866 159.393C735.421 161.798 739.987 162.8 744.068 162.8V154.8ZM738.074 156.598L738.874 150.478L730.941 149.442L730.141 155.562L738.074 156.598ZM732.881 153.409C736.554 155.567 739.888 156.6 743.508 156.6V148.6C741.607 148.6 739.661 148.113 736.934 146.511L732.881 153.409ZM743.508 156.6C744.819 156.6 746.388 156.36 747.764 155.479C749.323 154.481 750.387 152.787 750.387 150.72H742.387C742.387 150.376 742.474 149.953 742.71 149.539C742.94 149.135 743.232 148.881 743.451 148.741C743.827 148.5 743.956 148.6 743.508 148.6V156.6ZM750.387 150.72C750.387 147.581 747.855 146.052 746.827 145.506C745.583 144.847 743.948 144.296 742.578 143.821L739.957 151.379C740.726 151.646 741.361 151.865 741.917 152.076C742.478 152.289 742.844 152.45 743.078 152.574C743.341 152.713 743.231 152.699 743.026 152.47C742.749 152.16 742.387 151.545 742.387 150.72H750.387ZM742.56 143.815L740.92 143.255L738.335 150.825L739.975 151.385L742.56 143.815ZM740.927 143.257C738.39 142.386 737.57 140.79 737.587 139.287L729.588 139.193C729.525 144.57 732.945 148.974 738.328 150.823L740.927 143.257ZM737.587 139.271C737.599 137.822 738.099 137.023 738.808 136.478C739.652 135.83 741.219 135.24 743.747 135.24V127.24C740.116 127.24 736.623 128.07 733.937 130.132C731.116 132.297 729.616 135.498 729.588 139.209L737.587 139.271ZM743.747 135.24C746.682 135.24 748.728 135.91 750.342 136.977L754.753 130.303C751.647 128.25 748.013 127.24 743.747 127.24V135.24ZM748.611 132.929L747.571 138.689L755.444 140.111L756.484 134.351L748.611 132.929ZM753.641 136.016C751.141 134.44 747.717 133.44 744.467 133.44V141.44C746.258 141.44 748.194 142.04 749.374 142.784L753.641 136.016ZM744.467 133.44C743.199 133.44 741.655 133.62 740.287 134.4C738.666 135.324 737.508 137.002 737.508 139.12H745.508C745.508 139.518 745.403 140.014 745.111 140.491C744.827 140.955 744.477 141.22 744.248 141.35C744.035 141.472 743.914 141.486 743.976 141.474C744.031 141.463 744.186 141.44 744.467 141.44V133.44ZM737.508 139.12C737.508 140.293 737.866 141.464 738.66 142.461C739.368 143.351 740.237 143.866 740.858 144.172C741.952 144.712 743.536 145.162 744.69 145.53L747.125 137.91C746.311 137.65 745.797 137.496 745.258 137.318C744.744 137.148 744.504 137.051 744.397 136.998C744.278 136.939 744.587 137.061 744.92 137.48C745.101 137.708 745.262 137.989 745.371 138.313C745.477 138.631 745.508 138.912 745.508 139.12H737.508ZM744.673 145.525L746.153 146.005L748.622 138.395L747.142 137.915L744.673 145.525ZM746.166 146.009C747.788 146.529 748.741 147.205 749.273 147.836C749.755 148.41 750.079 149.162 750.068 150.321L758.067 150.399C758.096 147.478 757.2 144.83 755.392 142.684C753.634 140.595 751.227 139.231 748.609 138.391L746.166 146.009ZM750.068 150.332C750.056 152.037 749.456 152.96 748.692 153.556C747.801 154.251 746.27 154.8 744.068 154.8V162.8C747.465 162.8 750.914 161.969 753.613 159.864C756.439 157.66 758.039 154.363 758.067 150.388L750.068 150.332ZM780.014 144.44L782.941 147.166L782.949 147.158L780.014 144.44ZM773.494 151.44L770.567 148.714C769.482 149.879 769.191 151.576 769.826 153.036C770.461 154.496 771.902 155.44 773.494 155.44V151.44ZM786.294 151.44H790.294C790.294 149.231 788.503 147.44 786.294 147.44V151.44ZM786.294 158.16V162.16C788.503 162.16 790.294 160.369 790.294 158.16H786.294ZM763.694 158.16H759.694C759.694 160.369 761.485 162.16 763.694 162.16V158.16ZM763.694 152.4L760.71 149.736C760.056 150.469 759.694 151.417 759.694 152.4H763.694ZM775.374 139.32L778.357 141.984C778.363 141.977 778.37 141.97 778.376 141.964L775.374 139.32ZM770.494 134.04V138.04C772.634 138.04 774.395 136.356 774.49 134.218L770.494 134.04ZM763.694 134.04L759.694 134.061C759.705 136.262 761.493 138.04 763.694 138.04V134.04ZM777.087 141.714L770.567 148.714L776.421 154.166L782.941 147.166L777.087 141.714ZM773.494 155.44H786.294V147.44H773.494V155.44ZM782.294 151.44V158.16H790.294V151.44H782.294ZM786.294 154.16H763.694V162.16H786.294V154.16ZM767.694 158.16V152.4H759.694V158.16H767.694ZM766.677 155.064L778.357 141.984L772.39 136.656L760.71 149.736L766.677 155.064ZM778.376 141.964C780.8 139.21 782.774 136.509 782.774 132.76H774.774C774.774 133.331 774.667 134.07 772.372 136.676L778.376 141.964ZM782.774 132.76C782.774 130.668 781.99 128.656 780.391 127.196C778.825 125.767 776.807 125.16 774.814 125.16V133.16C775.016 133.16 775.113 133.19 775.128 133.196C775.139 133.2 775.08 133.18 774.997 133.104C774.91 133.025 774.843 132.926 774.803 132.831C774.765 132.74 774.774 132.705 774.774 132.76H782.774ZM774.814 125.16C772.916 125.16 770.705 125.679 768.967 127.44C767.267 129.163 766.603 131.487 766.498 133.862L774.49 134.218C774.544 132.993 774.841 132.877 774.661 133.06C774.577 133.144 774.491 133.184 774.467 133.193C774.461 133.195 774.561 133.16 774.814 133.16V125.16ZM770.494 130.04H763.694V138.04H770.494V130.04ZM767.694 134.019C767.679 131.142 768.608 129.355 769.745 128.273C770.925 127.152 772.698 126.44 774.934 126.44V118.44C771.01 118.44 767.143 119.708 764.232 122.477C761.279 125.285 759.669 129.298 759.694 134.061L767.694 134.019ZM774.934 126.44C777.351 126.44 779.203 127.18 780.389 128.208C781.524 129.192 782.254 130.603 782.254 132.52H790.254C790.254 128.317 788.543 124.688 785.628 122.162C782.764 119.68 778.956 118.44 774.934 118.44V126.44ZM782.254 132.52C782.254 135.552 781.07 137.411 777.079 141.722L782.949 147.158C786.957 142.829 790.254 138.928 790.254 132.52H782.254Z" fill="white" mask="url(#path-109-outside-1_4910_62972)"/>
<defs>
<clipPath id="clip0_4910_62972">
<rect width="95.0135" height="205.316" fill="white" transform="translate(1072 555.303) rotate(-82.9862)"/>
</clipPath>
<clipPath id="clip1_4910_62972">
<rect width="95.0135" height="205.316" fill="white" transform="translate(192.195 557.608) rotate(-100.429)"/>
</clipPath>
<clipPath id="clip2_4910_62972">
<rect width="458.307" height="517.741" fill="white" transform="translate(425 7)"/>
</clipPath>
<clipPath id="clip3_4910_62972">
<rect width="130.756" height="81.8876" fill="white" transform="translate(919 144)"/>
</clipPath>
<clipPath id="clip4_4910_62972">
<rect width="103.02" height="191.511" fill="white" transform="translate(68.5547 388.935) rotate(-2.08257)"/>
</clipPath>
</defs>
</svg>
