<svg width="285" height="492" viewBox="0 0 285 492" fill="none" xmlns="http://www.w3.org/2000/svg">
<path d="M208.518 45.6027C208.518 45.6027 181.555 54.8892 163.278 39.0121C163.278 39.0121 150.697 51.592 165.377 92.9316C165.377 92.9316 178.859 49.796 195.634 84.2463C195.634 84.2463 220.498 50.6959 215.105 91.4342C215.105 91.4342 226.79 84.2463 232.482 95.0302C232.482 95.0302 227.388 80.053 246.863 86.0423C246.863 86.0423 238.475 69.5678 243.868 57.8839C243.868 57.8839 249.261 51.592 258.25 57.8839C258.25 57.8839 248.663 23.1349 278.322 42.9067C278.322 42.9067 272.631 5.76042 253.458 0.969727C253.458 0.969727 254.358 18.3442 233.987 36.6148C233.987 36.6148 226.845 14.3914 219.764 22.9022C218.872 23.9767 217.429 24.4267 216.094 24.0116C211.354 22.5337 201.542 21.882 208.518 45.6027Z" fill="#FCF1E3"/>
<path d="M215.758 43.5043C213.743 43.5043 212.111 41.6269 212.111 39.311C212.111 36.9951 213.743 35.1177 215.758 35.1177C217.772 35.1177 219.404 36.9951 219.404 39.311C219.404 41.6269 217.772 43.5043 215.758 43.5043Z" fill="#FFE2B7"/>
<path d="M225.248 40.4126C223.234 40.4126 221.601 38.6463 221.601 36.4675C221.601 34.2887 223.234 32.5225 225.248 32.5225C227.262 32.5225 228.895 34.2887 228.895 36.4675C228.895 38.6463 227.262 40.4126 225.248 40.4126Z" fill="#FFE2B7"/>
<path d="M224.48 38C223.652 38 222.98 37.3284 222.98 36.5C222.98 35.6716 223.652 35 224.48 35C225.309 35 225.98 35.6716 225.98 36.5C225.98 37.3284 225.309 38 224.48 38Z" fill="#FACC87"/>
<path d="M215.417 39.1131C215.176 38.3136 215.475 37.5165 216.085 37.3327C216.695 37.1488 217.385 37.6479 217.626 38.4474C217.867 39.2469 217.568 40.044 216.958 40.2278C216.348 40.4117 215.658 39.9126 215.417 39.1131Z" fill="#FACC87"/>
<path d="M224.2 45.4051C224.2 45.4051 223.401 48.7993 221.205 49.001C219.009 49.2027 216.809 47.7015 216.809 47.7015C216.809 47.7015 213.515 46.402 216.708 49.8971C219.901 53.3922 223.598 57.7872 225.794 51.8948C225.794 51.8948 228.591 55.7894 230.089 49.9979C231.586 44.2064 230.388 42.81 230.388 42.81C230.388 42.81 229.588 42.2126 228.491 45.0055C227.393 47.7985 223.998 45.6029 224.196 45.4051H224.2Z" fill="#FFE2B7"/>
<g clip-path="url(#clip0_4784_62303)">
<path d="M42.1203 140.652C42.1203 140.652 22.4492 147.596 22.4492 172.075C22.4492 196.553 42.1203 208.396 66.6932 207.984C91.2662 207.572 105.606 193.287 106.433 169.221C107.261 145.154 80.619 137.386 80.619 137.386L42.1044 140.652H42.1203Z" fill="#FCF1E3"/>
<path d="M51.9393 154.524L44.9844 164.322L59.7218 165.146L51.9393 154.524Z" fill="#FFE2B7"/>
<path d="M75.7018 154.936L69.5586 165.542L84.3119 166.367L75.7018 154.936Z" fill="#FFE2B7"/>
<path d="M63.4156 171.266L58.084 176.974L69.5588 177.386L63.4156 171.266Z" fill="#FFE2B7"/>
<path d="M38.4277 179.431L47.8495 181.872L47.4357 188.404H51.5259L52.3376 183.093L73.6479 183.902V188.801H78.9795L80.2049 180.224H88.4012C88.4012 180.224 87.9874 195.729 76.9264 197.774L75.7009 193.287H69.1439L68.7301 198.995H61.3614L60.5498 193.287L53.5789 193.7V199.011C53.5789 199.011 41.2925 197.378 38.4277 179.415V179.431Z" fill="#FFE2B7"/>
<path d="M85.5359 137.386H40.0664V140.239H85.5359V137.386Z" fill="#DEEFFF"/>
<path d="M62.7935 145.741C75.3539 145.741 85.5362 143.278 85.5362 140.239C85.5362 137.201 75.3539 134.738 62.7935 134.738C50.233 134.738 40.0508 137.201 40.0508 140.239C40.0508 143.278 50.233 145.741 62.7935 145.741Z" fill="#FFE2B7"/>
<path d="M62.7935 142.887C75.3539 142.887 85.5362 140.424 85.5362 137.386C85.5362 134.347 75.3539 131.884 62.7935 131.884C50.233 131.884 40.0508 134.347 40.0508 137.386C40.0508 140.424 50.233 142.887 62.7935 142.887Z" fill="#FCF1E3"/>
<path d="M44.5703 137.941V108.563C44.5703 98.0833 53.1008 89.5854 63.6207 89.5854C74.1406 89.5854 82.6711 98.0833 82.6711 108.563V137.941" stroke="#FCF1E3" stroke-width="4" stroke-miterlimit="10"/>
</g>
<g clip-path="url(#clip1_4784_62303)">
<path d="M90.3585 81.4672C85.9918 81.4672 82.4648 77.998 82.4648 73.7336C82.4648 69.4691 86.0058 66 90.3585 66" stroke="#FCF1E3" stroke-width="4" stroke-miterlimit="10"/>
<path d="M90.2871 81.4674C93.2542 81.4674 95.6615 79.1089 95.6615 76.2019C95.6615 73.295 93.2542 70.9365 90.2871 70.9365" stroke="#FCF1E3" stroke-width="4" stroke-miterlimit="10" stroke-linecap="round"/>
<path d="M90.3577 66.0547C97.0757 66.0547 102.52 71.3887 102.52 77.9705C102.52 84.5522 97.0757 89.8862 90.3577 89.8862H24.6055" stroke="#FCF1E3" stroke-width="4" stroke-miterlimit="10"/>
</g>
<g clip-path="url(#clip2_4784_62303)">
<path d="M56.6073 390.452C56.6073 390.452 19.1976 381.198 9.63958 419.512C9.63958 419.512 4.06804 440.068 23.3251 451.327C24.2316 451.858 24.813 452.824 24.8605 453.883L25.9916 478.788C26.0791 480.639 27.4983 482.142 29.3242 482.307L53.196 484.505C54.8348 484.659 56.3751 483.685 56.9698 482.137L65.4512 459.992C65.9372 458.733 67.1659 457.937 68.5033 457.98C73.6856 458.158 86.6867 456.185 92.0347 433.028C100.427 396.732 56.6073 390.452 56.6073 390.452Z" fill="#FCF1E3"/>
<path d="M62.286 442.356C67.6677 442.995 72.8497 436.644 73.8603 428.171C74.8709 419.698 71.3274 412.31 65.9457 411.671C60.5639 411.031 55.3819 417.382 54.3713 425.855C53.3607 434.329 56.9042 441.716 62.286 442.356Z" fill="#FFE2B7"/>
<path d="M63.812 431.966C65.5539 432.173 67.26 429.877 67.6226 426.837C67.9851 423.797 66.8668 421.165 65.1249 420.958C63.3829 420.751 61.6768 423.047 61.3143 426.087C60.9517 429.127 62.07 431.759 63.812 431.966Z" fill="#FACC87"/>
<path d="M44.0823 427.354C47.9866 420.635 47.0288 412.751 41.943 409.746C36.8572 406.741 29.5693 409.751 25.6651 416.471C21.7608 423.19 22.7185 431.073 27.8043 434.078C32.8901 437.084 40.178 434.073 44.0823 427.354Z" fill="#FFE2B7"/>
<path d="M38.0613 423.908C39.1933 421.96 38.7376 419.569 37.0435 418.568C35.3494 417.567 33.0585 418.335 31.9265 420.283C30.7946 422.231 31.2503 424.622 32.9443 425.623C34.6384 426.624 36.9294 425.856 38.0613 423.908Z" fill="#FACC87"/>
<path d="M44.9917 438.81C42.3935 440.116 37.3139 443.346 36.7846 448.838C36.6904 449.832 37.0932 450.834 37.9046 451.398C38.716 451.961 39.9108 452.16 41.5977 450.787C44.9704 448.05 48.006 451.641 48.006 451.641C48.006 451.641 49.618 454.62 51.5985 450.833C53.3415 447.501 51.434 441.842 48.0017 439.088C47.1543 438.405 45.967 438.314 44.9928 438.803L44.9917 438.81Z" fill="#FFE2B7"/>
<path d="M29.7871 458.472C29.7871 458.472 48.3271 472.581 57.8457 463.103" stroke="#FFE2B7" stroke-width="3" stroke-linecap="round" stroke-linejoin="round"/>
<path d="M37.9613 457.438L33.4801 468.987" stroke="#FFE2B7" stroke-width="3" stroke-linecap="round" stroke-linejoin="round"/>
<path d="M45.709 460.21L44.667 473.12" stroke="#FFE2B7" stroke-width="3" stroke-linecap="round" stroke-linejoin="round"/>
<path d="M51.584 460.074L52.5979 470.595" stroke="#FFE2B7" stroke-width="3" stroke-linecap="round" stroke-linejoin="round"/>
</g>
<g clip-path="url(#clip3_4784_62303)">
<path d="M115.105 371.916C115.105 371.916 84.01 386.274 83.3878 414.68C82.7657 443.086 73.7477 486.159 127.542 490.84C181.335 495.521 184.138 449.634 184.138 449.634L183.83 418.421C183.83 418.421 182.278 383.776 143.095 370.352L115.111 371.91L115.105 371.916Z" fill="#FCF1E3"/>
<path d="M130.961 341.327L128.472 361.93L112.303 371.916L121.007 373.165L120.699 388.462L129.402 378.161L132.821 387.522L139.665 378.161L143.398 385.03L147.438 377.852L154.59 378.161C154.59 378.161 154.59 370.357 144.642 362.863L146.508 343.825C146.508 343.825 140.909 332.59 130.961 341.327Z" fill="#FFE2B7"/>
<path d="M145.886 393.452L137.182 408.75L143.403 409.999L143.711 405.318L149.31 405.009L149.618 409.689H157.392C157.392 409.689 159.259 404.069 145.886 393.458V393.452Z" fill="#FFE2B7"/>
<path d="M121.636 392.519C121.636 392.519 131.584 399.388 130.032 409.999L122.88 410.308V403.129H115.414V408.75H107.641C107.641 408.75 115.728 392.519 121.636 392.519Z" fill="#FFE2B7"/>
<path d="M167.348 414.679C167.348 414.679 174.191 430.911 163.307 464.622L154.603 452.447L145.277 465.247L139.055 452.763L128.171 463.998L124.13 447.142L112.316 460.566L108.897 445.268L95.8379 460.566L97.7043 409.689L103.612 422.798L109.519 418.742L115.426 434.664L124.444 425.927L130.974 438.411L136.573 429.983L142.794 439.969L150.568 427.794L157.097 434.664L167.36 414.686L167.348 414.679Z" fill="#FFE2B7"/>
<path d="M234.921 392.786C234.921 392.786 281.255 390.912 284.052 420.567C286.848 450.222 270.679 475.191 238.653 478.629C206.628 482.066 176.464 460.839 176.464 443.359C176.464 425.879 174.289 400.595 223.106 392.482L234.921 392.792V392.786Z" fill="#FCF1E3"/>
<path d="M235.228 370.625L244.555 370L237.089 390.288L238.641 395.593C238.641 395.593 223.402 396.217 223.094 392.47C223.094 392.47 226.204 398.4 235.222 370.618L235.228 370.625Z" fill="#FFE2B7"/>
<path d="M208.645 401.292L206.078 412.764L221.704 408.55L208.645 401.292Z" fill="#FFE2B7"/>
<path d="M234.527 405.743C234.527 405.743 246.886 413 247.121 412.297C247.357 411.594 247.121 400.589 247.121 400.589L234.527 405.737V405.743Z" fill="#FFE2B7"/>
<path d="M267.417 416.978L252.026 423.296V431.257L240.363 431.723L240.127 423.999L226.132 425.169L227.533 433.361L214.704 432.427L216.105 422.592L204.913 422.125L202.817 428.916L194.657 427.746L196.523 418.148L187.662 414.401L183.229 445.069C183.229 445.069 192.79 451.386 193.255 450.453C193.72 449.519 194.185 440.618 194.185 440.618L206.079 442.255L207.48 453.024L226.138 454.43L226.374 442.255L240.598 441.788L241.299 453.496L252.727 450.689L252.026 440.624L260.887 438.284L263.219 445.542L271.85 441.091C271.85 441.091 275.812 434.07 267.417 416.978Z" fill="#FFE2B7"/>
</g>
<defs>
<clipPath id="clip0_4784_62303">
<rect width="84" height="120" fill="white" transform="translate(22.4492 88)"/>
</clipPath>
<clipPath id="clip1_4784_62303">
<rect width="80" height="31" fill="white" transform="translate(24.6055 63)"/>
</clipPath>
<clipPath id="clip2_4784_62303">
<rect width="86" height="142" fill="white" transform="translate(19.7344 338.713) rotate(7.98885)"/>
</clipPath>
<clipPath id="clip3_4784_62303">
<rect width="202" height="155" fill="white" transform="translate(82.4492 337)"/>
</clipPath>
</defs>
</svg>
