<svg width="238" height="197" viewBox="0 0 238 197" fill="none" xmlns="http://www.w3.org/2000/svg">
<path d="M202.842 79.2589C206.174 78.0921 209.159 75.9025 211.243 72.7458C216.32 65.082 214.188 54.789 206.471 49.7384C198.755 44.6958 188.391 46.8136 183.306 54.4774C183.129 54.7411 182.984 55.0208 182.823 55.2925C181.592 53.3666 179.958 51.6644 177.923 50.3298C170.206 45.2872 159.843 47.4049 154.757 55.0687C149.68 62.7325 151.812 73.0335 159.529 78.0761C162.796 80.2178 166.545 81.0489 170.166 80.7373C169.152 86.9946 171.799 93.5476 177.472 97.2636C185.189 102.306 195.56 100.18 200.638 92.5247C203.341 88.449 203.977 83.6302 202.842 79.2509V79.2589Z" fill="#E8F4FF"/>
<path d="M132.959 172.598C136.969 174.378 141.549 174.928 146.149 173.848C157.319 171.218 164.239 160.018 161.609 148.848C158.969 137.678 147.779 130.758 136.609 133.388C136.219 133.478 135.849 133.608 135.469 133.718C136.009 130.918 135.999 127.978 135.299 125.018C132.669 113.848 121.469 106.928 110.299 109.558C99.1288 112.198 92.2088 123.388 94.8388 134.558C95.9588 139.298 98.6188 143.258 102.159 146.058C95.8688 150.888 92.6188 159.108 94.5588 167.328C97.1988 178.498 108.389 185.418 119.559 182.778C125.499 181.378 130.219 177.538 132.959 172.588V172.598Z" fill="#DEEFFF"/>
<path d="M97.8591 32.81C100.789 30.21 102.949 26.68 103.769 22.53C105.769 12.45 99.2191 2.67002 89.1391 0.670022C79.0591 -1.32998 69.2791 5.22002 67.2791 15.3C67.2091 15.65 67.1791 16 67.1291 16.35C65.0491 14.87 62.6491 13.79 59.9791 13.26C49.9091 11.26 40.1191 17.81 38.1191 27.89C36.1191 37.96 42.6691 47.75 52.7491 49.75C57.0191 50.6 61.2391 49.89 64.8291 48.05C66.4291 54.96 71.9191 60.66 79.3291 62.13C89.3991 64.13 99.1891 57.58 101.189 47.5C102.249 42.14 100.879 36.88 97.8591 32.81Z" fill="#E8F4FF"/>
<path d="M56.6173 162.257C60.9873 161.957 65.2973 160.297 68.8573 157.197C77.4973 149.647 78.3873 136.517 70.8273 127.867C63.2773 119.227 50.1473 118.337 41.4973 125.897C41.1973 126.157 40.9273 126.447 40.6473 126.717C39.8173 123.997 38.4273 121.387 36.4373 119.107C28.8873 110.467 15.7573 109.577 7.10728 117.137C-1.53272 124.687 -2.42272 137.817 5.13728 146.457C8.33728 150.127 12.5473 152.377 16.9873 153.197C13.6873 160.407 14.6573 169.187 20.2173 175.547C27.7673 184.187 40.8973 185.077 49.5473 177.517C54.1473 173.497 56.5173 167.907 56.6273 162.247L56.6173 162.257Z" fill="#DEEFFF"/>
<path d="M108.613 133.257C112.983 132.957 117.303 131.297 120.853 128.197C129.493 120.647 130.383 107.517 122.823 98.8673C115.273 90.2273 102.143 89.3373 93.4932 96.8973C93.1932 97.1573 92.9232 97.4473 92.6432 97.7173C91.8132 94.9973 90.4232 92.3973 88.4332 90.1073C80.8832 81.4673 67.7532 80.5773 59.1032 88.1373C50.4632 95.6873 49.5832 108.817 57.1332 117.467C60.3332 121.127 64.5432 123.387 68.9832 124.207C65.6832 131.417 66.6532 140.197 72.2132 146.557C79.7632 155.197 92.8932 156.087 101.533 148.527C106.133 144.507 108.503 138.907 108.613 133.257Z" fill="#EBF5FF"/>
<path d="M197.853 169.886C201.918 171.517 206.53 171.903 211.075 170.656C222.14 167.619 228.655 156.184 225.612 145.107C222.575 134.042 211.14 127.527 200.062 130.569C199.679 130.673 199.31 130.816 198.94 130.938C199.377 128.127 199.257 125.182 198.462 122.254C195.424 111.189 183.99 104.674 172.912 107.716C161.847 110.754 155.341 122.193 158.374 133.266C159.663 137.954 162.47 141.821 166.11 144.491C160.002 149.547 157.054 157.874 159.292 166.02C162.33 177.084 173.764 183.6 184.833 180.553C190.724 178.935 195.295 174.925 197.853 169.886Z" fill="#EBF5FF"/>
</svg>
