<svg width="266" height="536" viewBox="0 0 266 536" fill="none" xmlns="http://www.w3.org/2000/svg">
<g clip-path="url(#clip0_4876_71334)">
<mask id="mask0_4876_71334" style="mask-type:luminance" maskUnits="userSpaceOnUse" x="142" y="463" width="124" height="69">
<path d="M149.139 463.001L142.5 516.965L259.113 531.312L265.752 477.347L149.139 463.001Z" fill="white"/>
</mask>
<g mask="url(#mask0_4876_71334)">
<path d="M233.64 478.757C233.13 475.261 230.99 472.664 228.57 472.823C226.15 472.982 224.36 475.89 224.33 479.437C222.91 476.118 220.09 474.13 217.76 474.942C215.96 475.583 214.98 477.763 215.1 480.347C213.35 478.83 211.29 478.272 209.73 479.129C208.21 479.973 207.58 481.941 207.88 484.193C205.89 483.594 204.01 483.852 202.93 485.088C201.43 486.815 202 489.844 204.15 492.306L203.08 520.089L246.56 527.163C247.33 528.61 248.69 529.758 250.44 530.194C253.65 530.994 256.87 529.125 257.64 526.024C258.06 524.318 257.62 522.606 256.63 521.268C258.48 520.835 259.87 519.789 260.24 518.313C260.57 516.984 260 515.595 258.86 514.407C260.65 513.427 261.75 511.921 261.65 510.302C261.54 508.937 260.59 507.788 259.15 507.019C260.9 505.408 261.72 503.379 261 501.701C260.36 500.202 258.66 499.35 256.58 499.315C257.54 497.979 257.88 496.498 257.34 495.232C256.71 493.768 255.07 492.941 253.07 492.864C254.8 490.523 255.18 487.831 253.8 486.258C252.9 485.234 251.44 484.902 249.84 485.162C250.5 483.079 250.24 481.085 248.92 479.993C247.37 478.704 244.87 479.055 242.64 480.658C242.92 477.581 241.76 474.936 239.64 474.371C237.4 473.757 234.88 475.68 233.63 478.771L233.64 478.757Z" fill="#E8EAFF"/>
<path d="M185.381 486.311C184.651 483.99 182.831 482.346 180.691 482.336C178.961 482.327 177.451 483.375 176.511 484.967C174.931 483.149 172.611 482.373 170.661 483.198C169.661 483.616 168.901 484.403 168.431 485.376C166.921 484.734 165.171 484.687 163.551 485.367C162.181 485.943 161.161 486.967 160.511 488.188C158.161 487.629 155.611 488.465 154.061 490.506C153.431 491.342 153.061 492.294 152.911 493.256C151.161 493.379 149.471 494.202 148.321 495.701C146.611 497.976 146.711 501.014 148.311 503.19C146.941 503.512 145.651 504.266 144.721 505.488C142.681 508.279 143.221 512.202 145.991 514.284C148.261 516 151.311 515.902 153.481 514.276L202.981 519.216C203.921 520.143 205.191 520.857 206.711 521.128C210.111 521.75 213.271 520.007 213.771 517.246C214.181 515.047 212.761 512.877 210.461 511.766C212.081 510.308 212.841 508.254 212.211 506.401C211.561 504.529 209.661 503.382 207.461 503.264C209.591 501.024 210.011 497.864 208.331 495.898C207.181 494.556 205.331 494.092 203.471 494.506C203.951 492.299 203.291 490.104 201.601 489C199.351 487.523 196.111 488.494 194.191 491.131C195.201 487.959 194.031 484.721 191.461 483.779C189.311 482.991 186.861 484.11 185.391 486.313L185.381 486.311Z" fill="#F1F2FE"/>
<path opacity="0.5" d="M161.671 505.408C161.671 505.408 155.121 491.549 166.821 500.597C166.821 500.597 163.651 489.318 172.331 498.231C172.331 498.231 174.041 484.29 178.551 497.035C178.551 497.035 184.831 483.014 187.161 497.656" stroke="white" stroke-width="3" stroke-miterlimit="10" stroke-linecap="round" stroke-linejoin="round"/>
<path opacity="0.5" d="M168.59 511.108C168.59 511.108 175.58 500.218 175.17 512.357C175.17 512.357 184.54 505.023 181.79 516.874" stroke="white" stroke-width="3" stroke-miterlimit="10" stroke-linecap="round" stroke-linejoin="round"/>
<path opacity="0.5" d="M225.852 503.349C225.852 503.349 234.752 492.694 231.732 504.935C231.732 504.935 240.932 504.326 233.712 511.705C233.712 511.705 242.672 511.286 234.822 516.846" stroke="white" stroke-width="3" stroke-miterlimit="10" stroke-linecap="round" stroke-linejoin="round"/>
<path opacity="0.5" d="M216.242 493.819C216.242 493.819 215.742 482.006 222.982 492.043C222.982 492.043 222.002 485.836 226.132 485.904C230.252 485.973 228.332 492.702 228.332 492.702C228.332 492.702 229.742 486.569 233.692 487.917C237.652 489.266 235.082 496.136 235.082 496.136C235.082 496.136 238.312 487.606 242.412 494.857C242.412 494.857 243.782 496.107 239.932 500.859" stroke="white" stroke-width="3" stroke-miterlimit="10" stroke-linecap="round" stroke-linejoin="round"/>
<path opacity="0.5" d="M239.621 507.932C239.621 507.932 241.031 503.539 245.531 507.576C245.531 507.576 248.801 511.023 241.471 512.302C241.471 512.302 251.741 513.566 242.301 517.849C242.301 517.849 248.831 517.788 244.581 522.271" stroke="white" stroke-width="3" stroke-miterlimit="10" stroke-linecap="round" stroke-linejoin="round"/>
</g>
<path d="M43.7619 1.09123C44.5219 -0.266071 46.4818 -0.26607 47.2418 1.09113L51.0818 7.90213C51.3718 8.40843 51.8619 8.76563 52.4319 8.88053L60.0918 10.4269C61.6218 10.735 62.2219 12.5939 61.1719 13.7409L55.8819 19.4966C55.4819 19.9245 55.3018 20.5024 55.3618 21.0798L56.2619 28.846C56.4419 30.394 54.8618 31.543 53.4418 30.895L46.3318 27.641C45.8018 27.399 45.2019 27.399 44.6719 27.641L37.5619 30.895C36.1419 31.543 34.5618 30.394 34.7418 28.846L35.6419 21.0798C35.7019 20.5024 35.5219 19.9245 35.1219 19.4966L29.8318 13.7409C28.7818 12.5939 29.3819 10.735 30.9119 10.4269L38.5718 8.88053C39.1418 8.76563 39.6319 8.40843 39.9219 7.90213L43.7619 1.09123Z" fill="#F1F2FE"/>
<path d="M204.252 8.195C205.012 6.8113 206.992 6.8113 207.752 8.195L211.432 14.8908C211.712 15.404 212.202 15.7681 212.782 15.8869L220.192 17.4242C221.702 17.737 222.312 19.5679 221.282 20.7165L216.102 26.5032C215.722 26.9282 215.542 27.4942 215.602 28.0612L216.472 35.8152C216.652 37.3702 215.052 38.5152 213.642 37.8492L206.852 34.6602C206.312 34.4072 205.692 34.4072 205.152 34.6602L198.362 37.8492C196.952 38.5152 195.352 37.3702 195.532 35.8152L196.402 28.0612C196.462 27.4942 196.282 26.9282 195.902 26.5032L190.722 20.7165C189.692 19.5679 190.302 17.737 191.812 17.4242L199.222 15.8869C199.802 15.7681 200.292 15.404 200.572 14.8908L204.252 8.195Z" fill="#F1F2FE"/>
<path d="M128.762 39.091C129.522 37.734 131.482 37.734 132.242 39.091L136.082 45.902C136.372 46.408 136.862 46.766 137.432 46.881L145.092 48.427C146.622 48.735 147.222 50.594 146.172 51.741L140.882 57.497C140.482 57.925 140.302 58.502 140.362 59.08L141.262 66.846C141.442 68.394 139.862 69.543 138.442 68.895L131.332 65.641C130.802 65.399 130.202 65.399 129.672 65.641L122.562 68.895C121.142 69.543 119.562 68.394 119.742 66.846L120.642 59.08C120.702 58.502 120.522 57.925 120.122 57.497L114.832 51.741C113.782 50.594 114.382 48.735 115.912 48.427L123.572 46.881C124.142 46.766 124.632 46.408 124.922 45.902L128.762 39.091Z" fill="#F1F2FE"/>
<path d="M125.515 505.659C125.515 505.659 130.525 499.672 147.765 500.305C164.205 500.901 155.785 489.888 155.785 489.888C155.785 489.888 146.244 480.321 130.934 492.158C130.934 492.158 132.584 483.179 145.824 482.341C145.824 482.341 159.745 484.823 159.905 476.551C160.075 468.279 138.895 470.621 134.405 474.576C129.925 478.53 140.414 463.755 150.954 460.099C150.964 460.102 158.745 453.002 149.355 449.042C149.355 449.042 142.085 445.219 134.265 463.726C134.265 463.726 138.705 444.328 122.845 443C122.845 443 118.305 444.468 118.255 451.545C118.255 451.545 120.995 456.835 126.495 462.194C126.495 462.194 132.264 467.641 129.944 473.298C129.944 473.298 121.254 457.862 108.184 463.401C108.184 463.401 100.045 470.683 111.535 474.771C111.535 474.771 128.124 476.655 125.324 492.322C125.324 492.322 122.545 480.22 107.875 479.016C107.875 479.016 101.445 478.886 103.355 489.131C103.355 489.131 105.585 492.393 113.875 495.953C122.155 499.514 121.145 504.09 121.145 504.09L125.525 505.648L125.515 505.659Z" fill="#F1F2FE"/>
<path d="M-791.343 497.497C-797.253 498.246 -802.876 498.894 -808.216 499.423C-1131.86 531.49 -1025.7 536 -1012 536H-781.996C-787.212 535.649 -791.343 531.296 -791.343 525.992V497.497Z" fill="#F1F2FE"/>
<path d="M10.692 536H236.36C236.36 536 356.23 536 61.7 493.912C46.7726 491.779 32.9525 489.697 20.04 487.686V525.992C20.04 531.296 15.9053 535.649 10.692 536Z" fill="#F1F2FE"/>
<path d="M-791.343 497.497C-797.253 498.246 -802.876 498.894 -808.216 499.423C-1131.86 531.49 -1025.7 536 -1012 536H-781.996C-787.212 535.649 -791.343 531.296 -791.343 525.992V497.497Z" fill="#F1F2FE"/>
<path d="M10.692 536H236.36C236.36 536 356.23 536 61.7 493.912C46.7726 491.779 32.9525 489.697 20.04 487.686V525.992C20.04 531.296 15.9053 535.649 10.692 536Z" fill="#F1F2FE"/>
<path d="M14.6396 461.737C14.6396 461.737 -7.52046 497.507 2.70954 503.339C2.70954 503.339 11.3995 506.583 15.4495 489.386C15.4495 489.386 9.60961 503.98 15.7796 505.438C15.7796 505.438 22.4296 509.172 26.4896 491.484C26.4896 491.484 22.4295 505.915 29.5795 505.915C29.5795 505.915 36.3896 508.191 39.1496 489.208C39.1496 489.208 37.6896 503.162 45.1496 503.803C45.1496 503.803 51.9696 505.751 53.0996 489.045C53.0996 489.045 51.6396 503.639 58.6196 503.476C58.6196 503.476 64.4596 504.13 63.1596 488.391C63.1596 488.391 64.4596 502.508 69.6496 502.181C69.6496 502.181 75.9796 503.966 73.7196 488.227C73.7196 488.227 75.3395 501.854 82.9595 500.723C82.9595 500.723 95.7796 499.429 80.5196 475.091L71.1096 459.679L14.6296 461.709L14.6396 461.737Z" fill="#CFD3FF"/>
<path d="M41.4786 431.06C41.4786 431.06 21.5187 429.997 6.00866 456.528C6.00866 456.528 -4.50132 471.845 2.27868 475.579C2.27868 475.579 10.1187 481.806 16.1687 464.718C16.1687 464.718 11.1787 477.718 16.1687 478.604C16.1687 478.604 23.4786 481.806 26.8586 464.895C26.8586 464.895 23.2986 480.035 30.0686 479.858C30.0686 479.858 37.0187 481.997 38.7987 464.364C38.7987 464.364 36.2987 479.503 42.1787 479.68C42.1787 479.68 48.4086 481.465 49.4886 464.718C49.4886 464.718 48.2487 478.072 55.0087 478.072C55.0087 478.072 60.7087 480.92 60.5287 463.819C60.5287 463.819 60.8887 477.895 70.1587 476.996C70.1587 476.996 76.7586 478.781 73.3586 464.173C73.3586 464.173 76.5687 476.287 82.8087 474.325C82.8087 474.325 91.7186 471.123 79.0786 449.388C79.0786 449.388 63.7486 425.882 41.4686 431.046L41.4786 431.06Z" fill="#D6DAFF"/>
<path d="M44.1693 405.263C44.1693 405.263 17.6293 405.263 7.39933 431.781C7.39933 431.781 1.79925 445.653 5.93925 448.324C5.93925 448.324 12.4293 454.851 20.0993 435.624C20.0993 435.624 11.1893 451.649 17.0693 453.788C17.0693 453.788 26.5193 459.662 31.3293 437.409C31.3293 437.409 27.5993 451.486 34.5393 452.903C34.5393 452.903 43.0893 456.282 45.2293 435.624C45.2293 435.624 42.5593 450.586 49.8693 451.649C49.8693 451.649 56.6393 454.143 56.4693 434.902C56.4693 434.902 55.9393 450.927 62.6993 450.573C62.6993 450.573 70.5393 453.775 66.9793 434.193C66.9793 434.193 68.5893 449.155 76.6093 448.447C76.6093 448.447 86.0593 447.207 78.7493 425.826C78.7493 425.826 67.7194 403.219 44.1794 405.263H44.1693Z" fill="#DDE0FF"/>
<path d="M44.8517 381.542C44.8517 381.542 23.9217 381.051 11.9917 407.092C11.9917 407.092 7.61178 416.903 11.1718 418.525C11.1718 418.525 14.5817 422.736 25.1317 409.123C25.1317 409.123 13.6117 422.095 17.5117 424.698C17.5117 424.698 21.5717 430.694 33.2617 411.889C33.2617 411.889 27.4217 422.599 34.2317 424.862C34.2317 424.862 41.5417 428.105 44.9517 411.562C44.9517 411.562 41.3717 425.025 47.8617 426.32C47.8617 426.32 54.1917 427.778 55.9817 410.908C55.9817 410.908 54.1917 424.862 59.3918 425.338C59.3918 425.338 65.8817 426.96 64.7517 410.744C64.7517 410.744 66.2117 423.39 73.1917 422.586C73.1917 422.586 84.7117 420.31 72.8617 398.425C72.8617 398.425 62.4717 379.607 44.8617 381.555L44.8517 381.542Z" fill="#E8EAFF"/>
<path d="M40.8816 362.401C40.8816 362.401 12.6416 372.689 16.3516 385.975C16.3516 385.975 17.4316 391.235 28.4716 382.65C28.4716 382.65 14.1816 392.134 19.0316 396.181C19.0316 396.181 23.0717 399.752 32.2917 387.992C32.2917 387.992 26.1716 398.253 32.8316 399.602C32.8316 399.602 41.9016 401.837 43.0316 386.397C43.0316 386.397 40.8816 397.939 45.8716 397.953C45.8716 397.953 52.0916 398.784 51.2616 386.248C51.2616 386.248 51.2316 397.926 57.0816 397.081C57.0816 397.081 62.3016 399.179 60.1316 383.331C60.1316 383.331 63.2017 395.241 70.4317 391.358C70.4317 391.358 77.7916 383.631 63.6016 373.179C63.6016 373.179 48.9917 359.471 40.9217 362.414L40.8816 362.401Z" fill="#F1F2FE"/>
</g>
<defs>
<clipPath id="clip0_4876_71334">
<rect width="266" height="536" fill="white"/>
</clipPath>
</defs>
</svg>
