<svg width="285" height="492" viewBox="0 0 285 492" fill="none" xmlns="http://www.w3.org/2000/svg">
<path d="M208.518 45.6036C208.518 45.6036 181.555 54.8902 163.278 39.0131C163.278 39.0131 150.697 51.593 165.377 92.9326C165.377 92.9326 178.859 49.7969 195.634 84.2472C195.634 84.2472 220.498 50.6969 215.105 91.4352C215.105 91.4352 226.79 84.2472 232.482 95.0312C232.482 95.0312 227.388 80.0539 246.863 86.0433C246.863 86.0433 238.475 69.5687 243.868 57.8849C243.868 57.8849 249.261 51.593 258.25 57.8849C258.25 57.8849 248.663 23.1359 278.322 42.9077C278.322 42.9077 272.631 5.76139 253.458 0.970703C253.458 0.970703 254.358 18.3452 233.987 36.6158C233.987 36.6158 226.845 14.3924 219.764 22.9031C218.872 23.9777 217.429 24.4276 216.094 24.0126C211.354 22.5346 201.542 21.8829 208.518 45.6036Z" fill="#483E1C"/>
<path d="M215.758 43.5038C213.743 43.5038 212.111 41.6264 212.111 39.3105C212.111 36.9946 213.743 35.1172 215.758 35.1172C217.772 35.1172 219.404 36.9946 219.404 39.3105C219.404 41.6264 217.772 43.5038 215.758 43.5038Z" fill="#0C0541"/>
<path d="M225.248 40.4116C223.234 40.4116 221.601 38.6453 221.601 36.4665C221.601 34.2877 223.234 32.5215 225.248 32.5215C227.262 32.5215 228.895 34.2877 228.895 36.4665C228.895 38.6453 227.262 40.4116 225.248 40.4116Z" fill="#0C0541"/>
<path d="M224.48 38C223.652 38 222.98 37.3284 222.98 36.5C222.98 35.6716 223.652 35 224.48 35C225.309 35 225.98 35.6716 225.98 36.5C225.98 37.3284 225.309 38 224.48 38Z" fill="#483E1C"/>
<path d="M215.417 39.1126C215.176 38.3131 215.475 37.516 216.085 37.3322C216.695 37.1484 217.385 37.6475 217.626 38.4469C217.867 39.2464 217.568 40.0435 216.958 40.2274C216.348 40.4112 215.658 39.9121 215.417 39.1126Z" fill="#483E1C"/>
<path d="M224.2 45.4046C224.2 45.4046 223.401 48.7988 221.205 49.0005C219.009 49.2022 216.809 47.701 216.809 47.701C216.809 47.701 213.515 46.4015 216.708 49.8966C219.901 53.3917 223.598 57.7867 225.794 51.8943C225.794 51.8943 228.591 55.789 230.089 49.9975C231.586 44.206 230.388 42.8095 230.388 42.8095C230.388 42.8095 229.588 42.2121 228.491 45.0051C227.393 47.798 223.998 45.6024 224.196 45.4046H224.2Z" fill="#0C0541"/>
<g clip-path="url(#clip0_4915_48591)">
<path d="M42.1203 140.653C42.1203 140.653 22.4492 147.597 22.4492 172.076C22.4492 196.554 42.1203 208.397 66.6932 207.985C91.2662 207.573 105.606 193.288 106.433 169.222C107.261 145.155 80.619 137.387 80.619 137.387L42.1044 140.653H42.1203Z" fill="#483E1C"/>
<path d="M51.9393 154.525L44.9844 164.323L59.7218 165.148L51.9393 154.525Z" fill="#0C0541"/>
<path d="M75.7018 154.938L69.5586 165.544L84.3119 166.368L75.7018 154.938Z" fill="#0C0541"/>
<path d="M63.4156 171.266L58.084 176.973L69.5588 177.385L63.4156 171.266Z" fill="#0C0541"/>
<path d="M38.4277 179.432L47.8495 181.873L47.4357 188.405H51.5259L52.3376 183.094L73.6479 183.903V188.802H78.9795L80.2049 180.225H88.4012C88.4012 180.225 87.9874 195.73 76.9264 197.775L75.7009 193.288H69.1439L68.7301 198.996H61.3614L60.5498 193.288L53.5789 193.701V199.012C53.5789 199.012 41.2925 197.379 38.4277 179.416V179.432Z" fill="#0C0541"/>
<path d="M85.5359 137.387H40.0664V140.24H85.5359V137.387Z" fill="#DEEFFF"/>
<path d="M62.7935 145.741C75.3539 145.741 85.5362 143.278 85.5362 140.24C85.5362 137.201 75.3539 134.738 62.7935 134.738C50.233 134.738 40.0508 137.201 40.0508 140.24C40.0508 143.278 50.233 145.741 62.7935 145.741Z" fill="#0C0541"/>
<path d="M62.7935 142.888C75.3539 142.888 85.5362 140.424 85.5362 137.386C85.5362 134.348 75.3539 131.885 62.7935 131.885C50.233 131.885 40.0508 134.348 40.0508 137.386C40.0508 140.424 50.233 142.888 62.7935 142.888Z" fill="#483E1C"/>
<path d="M44.5703 137.941V108.563C44.5703 98.0838 53.1008 89.5859 63.6207 89.5859C74.1406 89.5859 82.6711 98.0838 82.6711 108.563V137.941" stroke="#483E1C" stroke-width="4" stroke-miterlimit="10"/>
</g>
<g clip-path="url(#clip1_4915_48591)">
<path d="M90.3585 81.4672C85.9918 81.4672 82.4648 77.998 82.4648 73.7336C82.4648 69.4691 86.0058 66 90.3585 66" stroke="#483E1C" stroke-width="4" stroke-miterlimit="10"/>
<path d="M90.2871 81.4664C93.2542 81.4664 95.6615 79.1079 95.6615 76.201C95.6615 73.294 93.2542 70.9355 90.2871 70.9355" stroke="#483E1C" stroke-width="4" stroke-miterlimit="10" stroke-linecap="round"/>
<path d="M90.3577 66.0547C97.0757 66.0547 102.52 71.3887 102.52 77.9705C102.52 84.5522 97.0757 89.8862 90.3577 89.8862H24.6055" stroke="#483E1C" stroke-width="4" stroke-miterlimit="10"/>
</g>
<g clip-path="url(#clip2_4915_48591)">
<path d="M56.6073 390.451C56.6073 390.451 19.1976 381.197 9.63958 419.511C9.63958 419.511 4.06804 440.067 23.3251 451.326C24.2316 451.857 24.813 452.823 24.8605 453.882L25.9916 478.787C26.0791 480.638 27.4983 482.141 29.3242 482.306L53.196 484.504C54.8348 484.658 56.3751 483.685 56.9698 482.136L65.4512 459.991C65.9372 458.732 67.1659 457.936 68.5033 457.979C73.6856 458.157 86.6867 456.184 92.0347 433.027C100.427 396.731 56.6073 390.451 56.6073 390.451Z" fill="#483E1C"/>
<path d="M62.286 442.357C67.6677 442.996 72.8497 436.645 73.8603 428.172C74.8709 419.699 71.3274 412.311 65.9457 411.672C60.5639 411.032 55.3819 417.383 54.3713 425.856C53.3607 434.33 56.9042 441.717 62.286 442.357Z" fill="#0C0541"/>
<path d="M63.812 431.967C65.5539 432.174 67.26 429.878 67.6226 426.838C67.9851 423.798 66.8668 421.166 65.1249 420.959C63.3829 420.752 61.6768 423.048 61.3143 426.088C60.9517 429.128 62.07 431.76 63.812 431.967Z" fill="#483E1C"/>
<path d="M44.0823 427.354C47.9866 420.635 47.0288 412.751 41.943 409.746C36.8572 406.741 29.5693 409.751 25.6651 416.471C21.7608 423.19 22.7185 431.073 27.8043 434.078C32.8901 437.084 40.178 434.073 44.0823 427.354Z" fill="#0C0541"/>
<path d="M38.0613 423.908C39.1933 421.96 38.7376 419.57 37.0435 418.569C35.3494 417.568 33.0585 418.335 31.9265 420.283C30.7946 422.231 31.2503 424.622 32.9443 425.623C34.6384 426.624 36.9294 425.857 38.0613 423.908Z" fill="#483E1C"/>
<path d="M44.9917 438.81C42.3935 440.116 37.3139 443.346 36.7846 448.838C36.6904 449.832 37.0932 450.834 37.9046 451.398C38.716 451.961 39.9108 452.16 41.5977 450.787C44.9704 448.05 48.006 451.641 48.006 451.641C48.006 451.641 49.618 454.62 51.5985 450.833C53.3415 447.501 51.434 441.842 48.0017 439.088C47.1543 438.405 45.967 438.314 44.9928 438.803L44.9917 438.81Z" fill="#0C0541"/>
<path d="M29.7871 458.471C29.7871 458.471 48.3271 472.58 57.8457 463.102" stroke="#0C0541" stroke-width="3" stroke-linecap="round" stroke-linejoin="round"/>
<path d="M37.9613 457.439L33.4801 468.988" stroke="#0C0541" stroke-width="3" stroke-linecap="round" stroke-linejoin="round"/>
<path d="M45.709 460.211L44.667 473.12" stroke="#0C0541" stroke-width="3" stroke-linecap="round" stroke-linejoin="round"/>
<path d="M51.584 460.074L52.5979 470.595" stroke="#0C0541" stroke-width="3" stroke-linecap="round" stroke-linejoin="round"/>
</g>
<g clip-path="url(#clip3_4915_48591)">
<path d="M115.105 371.916C115.105 371.916 84.01 386.274 83.3878 414.68C82.7657 443.086 73.7477 486.159 127.542 490.84C181.335 495.521 184.138 449.634 184.138 449.634L183.83 418.421C183.83 418.421 182.278 383.776 143.095 370.352L115.111 371.91L115.105 371.916Z" fill="#483E1C"/>
<path d="M130.961 341.327L128.472 361.93L112.303 371.916L121.007 373.165L120.699 388.462L129.402 378.161L132.821 387.522L139.665 378.161L143.398 385.03L147.438 377.852L154.59 378.161C154.59 378.161 154.59 370.357 144.642 362.863L146.508 343.825C146.508 343.825 140.909 332.59 130.961 341.327Z" fill="#665827"/>
<path d="M145.886 393.453L137.182 408.751L143.403 410L143.711 405.319L149.31 405.01L149.618 409.69H157.392C157.392 409.69 159.259 404.07 145.886 393.459V393.453Z" fill="#0C0541"/>
<path d="M121.636 392.518C121.636 392.518 131.584 399.387 130.032 409.998L122.88 410.307V403.128H115.414V408.749H107.641C107.641 408.749 115.728 392.518 121.636 392.518Z" fill="#0C0541"/>
<path d="M167.348 414.679C167.348 414.679 174.191 430.911 163.307 464.622L154.603 452.447L145.277 465.247L139.055 452.763L128.171 463.998L124.13 447.142L112.316 460.566L108.897 445.268L95.8379 460.566L97.7043 409.689L103.612 422.798L109.519 418.742L115.426 434.664L124.444 425.927L130.974 438.411L136.573 429.983L142.794 439.969L150.568 427.794L157.097 434.664L167.36 414.686L167.348 414.679Z" fill="#0C0541"/>
<path d="M234.921 392.786C234.921 392.786 281.255 390.912 284.052 420.567C286.848 450.222 270.679 475.191 238.653 478.629C206.628 482.066 176.464 460.839 176.464 443.359C176.464 425.879 174.289 400.595 223.106 392.482L234.921 392.792V392.786Z" fill="#483E1C"/>
<path d="M235.228 370.625L244.555 370L237.089 390.288L238.641 395.593C238.641 395.593 223.402 396.217 223.094 392.47C223.094 392.47 226.204 398.4 235.222 370.618L235.228 370.625Z" fill="#665827"/>
<path d="M208.645 401.293L206.078 412.765L221.704 408.551L208.645 401.293Z" fill="#0C0541"/>
<path d="M234.527 405.744C234.527 405.744 246.886 413.001 247.121 412.298C247.357 411.595 247.121 400.59 247.121 400.59L234.527 405.738V405.744Z" fill="#0C0541"/>
<path d="M267.417 416.977L252.026 423.295V431.256L240.363 431.723L240.127 423.998L226.132 425.169L227.533 433.36L214.704 432.426L216.105 422.592L204.913 422.125L202.817 428.916L194.657 427.746L196.523 418.147L187.662 414.4L183.229 445.068C183.229 445.068 192.79 451.386 193.255 450.452C193.72 449.519 194.185 440.618 194.185 440.618L206.079 442.255L207.48 453.023L226.138 454.43L226.374 442.255L240.598 441.788L241.299 453.496L252.727 450.689L252.026 440.624L260.887 438.283L263.219 445.541L271.85 441.091C271.85 441.091 275.812 434.069 267.417 416.977Z" fill="#0C0541"/>
</g>
<defs>
<clipPath id="clip0_4915_48591">
<rect width="84" height="120" fill="white" transform="translate(22.4492 88)"/>
</clipPath>
<clipPath id="clip1_4915_48591">
<rect width="80" height="31" fill="white" transform="translate(24.6055 63)"/>
</clipPath>
<clipPath id="clip2_4915_48591">
<rect width="86" height="142" fill="white" transform="translate(19.7344 338.713) rotate(7.98885)"/>
</clipPath>
<clipPath id="clip3_4915_48591">
<rect width="202" height="155" fill="white" transform="translate(82.4492 337)"/>
</clipPath>
</defs>
</svg>
