<svg width="268" height="265" viewBox="0 0 268 265" fill="none" xmlns="http://www.w3.org/2000/svg">
<path d="M38.9499 239.578C41.4783 243.163 45.1272 245.985 49.6296 247.419C60.5665 250.893 72.253 244.831 75.7273 233.894C79.1929 222.952 73.1392 211.27 62.2023 207.796C61.8214 207.673 61.4371 207.595 61.0545 207.494C62.9547 205.368 64.4547 202.84 65.3727 199.94C68.8469 189.003 62.7846 177.316 51.8477 173.842C40.9057 170.377 29.2243 176.43 25.7501 187.367C24.2792 192.01 24.5304 196.774 26.1321 200.994C18.2549 201.912 11.2475 207.3 8.69473 215.35C5.22909 226.292 11.2828 237.974 22.2248 241.439C28.0416 243.286 34.0632 242.412 38.955 239.569L38.9499 239.578Z" fill="#216186"/>
<path d="M216.197 236.687C219.255 239.824 223.31 242.034 227.977 242.741C239.325 244.439 249.909 236.618 251.608 225.257C253.306 213.909 245.485 203.325 234.123 201.626C233.731 201.565 233.335 201.547 232.948 201.509C234.484 199.115 235.574 196.366 236.023 193.374C237.721 182.026 229.9 171.442 218.539 169.743C207.191 168.045 196.607 175.866 194.915 187.221C194.19 192.036 195.2 196.701 197.449 200.616C189.817 202.768 183.753 209.191 182.505 217.546C180.806 228.894 188.628 239.477 199.989 241.177C206.031 242.081 211.826 240.268 216.211 236.688L216.197 236.687Z" fill="#216186"/>
<path d="M203.613 130.257C207.983 129.957 212.303 128.297 215.853 125.197C224.493 117.647 225.383 104.517 217.823 95.8673C210.273 87.2273 197.143 86.3373 188.493 93.8973C188.193 94.1573 187.923 94.4473 187.643 94.7173C186.813 91.9973 185.423 89.3973 183.433 87.1073C175.883 78.4673 162.753 77.5773 154.103 85.1373C145.463 92.6873 144.583 105.817 152.133 114.467C155.333 118.127 159.543 120.387 163.983 121.207C160.683 128.417 161.653 137.197 167.213 143.557C174.763 152.197 187.893 153.087 196.533 145.527C201.133 141.507 203.503 135.907 203.613 130.257Z" fill="#07496F"/>
<path d="M155.613 183.257C159.983 182.957 164.303 181.297 167.853 178.197C176.493 170.647 177.383 157.517 169.823 148.867C162.273 140.227 149.143 139.337 140.493 146.897C140.193 147.157 139.923 147.447 139.643 147.717C138.813 144.997 137.423 142.397 135.433 140.107C127.883 131.467 114.753 130.577 106.103 138.137C97.4632 145.687 96.5832 158.817 104.133 167.467C107.333 171.127 111.543 173.387 115.983 174.207C112.683 181.417 113.653 190.197 119.213 196.557C126.763 205.197 139.893 206.087 148.533 198.527C153.133 194.507 155.503 188.907 155.613 183.257Z" fill="#07496F"/>
<path d="M172.689 31.8914C174.493 28.8576 175.375 25.262 174.945 21.504C173.914 12.3689 165.669 5.84881 156.511 6.93341C147.358 8.02413 140.774 16.3034 141.798 25.4437C141.832 25.7596 141.9 26.067 141.952 26.3786C139.771 25.693 137.426 25.4374 135.008 25.7219C125.855 26.8126 119.271 35.0919 120.296 44.2322C121.326 53.3673 129.576 59.8936 138.729 58.8028C142.609 58.3463 146.017 56.5752 148.592 54.0108C151.834 59.4582 158.071 62.7808 164.806 61.9859C173.959 60.8952 180.544 52.6046 179.519 43.4756C178.973 38.6153 176.366 34.5134 172.684 31.8853L172.689 31.8914Z" fill="#07496F"/>
<path d="M172.485 237.135C176.844 237.561 181.379 236.636 185.392 234.165C195.16 228.145 198.205 215.342 192.176 205.562C186.156 195.795 173.353 192.75 163.574 198.778C163.235 198.985 162.921 199.227 162.6 199.447C162.23 196.627 161.288 193.833 159.704 191.246C153.683 181.478 140.88 178.433 131.101 184.462C121.334 190.482 118.298 203.287 124.317 213.064C126.869 217.202 130.648 220.126 134.892 221.668C130.447 228.234 129.955 237.054 134.389 244.245C140.409 254.012 153.212 257.057 162.981 251.027C168.182 247.821 171.444 242.689 172.485 237.135Z" fill="#07496F"/>
</svg>
