<svg width="286" height="190" viewBox="0 0 286 190" fill="none" xmlns="http://www.w3.org/2000/svg">
<g clip-path="url(#clip0_5142_1011)">
<path d="M178.859 50.2683C178.859 50.2683 154.19 49.8377 148.32 81.4962C148.32 81.4962 146.458 91.614 140.723 85.398C134.988 79.182 128.24 65.0144 122.937 72.6701C117.633 80.3391 128.848 100.265 138.995 112.146C143.881 117.864 138.415 137.306 138.415 137.306C138.415 137.306 129.954 161.308 141.141 163.623C141.141 163.623 146.593 165.062 150.601 157.837C154.622 150.612 159.777 152.63 159.777 152.63C159.777 152.63 162.786 154.218 163.07 161.739C163.353 169.26 171.531 169.112 171.531 169.112C171.531 169.112 178.13 169.839 183.865 160.434C189.6 151.029 193.325 157.972 193.325 157.972C193.325 157.972 200.922 173.444 216.414 165.775C231.906 158.106 221.582 139.889 221.582 139.889C221.582 139.889 211.165 113.343 207.292 81.994C207.292 81.994 203.635 49.0036 178.845 50.2414L178.859 50.2683Z" fill="#9DD4D1"/>
<path d="M171.895 170C171.72 170 171.585 170 171.517 170C168.4 170.04 162.476 168.372 162.233 161.793C161.99 155.469 159.75 153.666 159.413 153.424C158.846 153.236 154.757 152.173 151.37 158.268C147.079 165.991 141.182 164.537 140.925 164.47C138.807 164.04 137.147 162.829 136.054 160.891C131.87 153.518 137.363 137.709 137.606 137.036C139.076 131.803 142.099 117.11 138.334 112.724C128.2 100.871 116.5 80.4602 122.222 72.1992C123.396 70.5039 124.759 69.6293 126.284 69.6159C129.873 69.6024 133.503 74.4864 136.985 79.2493C138.51 81.3482 139.954 83.326 141.357 84.8329C142.221 85.7748 143.476 86.8242 144.555 86.5148C146.242 86.0304 147.254 82.5322 147.47 81.3482C149.184 72.1319 153.678 59.7941 165.377 53.2687C172.219 49.4476 178.305 49.4072 178.845 49.4207C204.12 48.1694 208.128 81.6039 208.155 81.9402C211.893 112.146 221.852 138.207 222.365 139.566C222.851 140.427 227.588 149.307 225.105 157.38C223.877 161.376 221.083 164.47 216.805 166.583C212.028 168.951 207.467 169.421 203.27 168.009C196.172 165.6 192.704 158.685 192.556 158.389C192.556 158.389 191.463 156.438 189.776 156.397C189.762 156.397 189.735 156.397 189.722 156.397C188.17 156.397 186.402 157.958 184.607 160.905C179.439 169.368 173.555 170.013 171.895 170.013V170ZM171.544 168.264C171.544 168.264 171.612 168.264 171.639 168.264C171.882 168.291 177.792 168.749 183.136 159.99C185.336 156.384 187.563 154.595 189.83 154.648C192.529 154.729 194.026 157.447 194.094 157.568C194.134 157.662 197.427 164.188 203.837 166.354C207.575 167.619 211.691 167.161 216.036 165.008C219.882 163.111 222.379 160.353 223.458 156.841C225.806 149.226 220.881 140.414 220.827 140.319C220.813 140.279 220.786 140.252 220.773 140.212C220.665 139.943 210.274 113.209 206.428 82.1017C206.428 82.0075 205.47 73.8675 201.57 65.9966C196.415 55.6232 188.777 50.6047 178.886 51.1025C178.872 51.1025 178.845 51.1025 178.832 51.1025C177.873 51.1025 154.825 51.1025 149.143 81.6308C149.035 82.2093 148.023 87.2682 145.014 88.1293C143.476 88.5733 141.802 87.8467 140.062 85.9631C138.604 84.3755 137.133 82.3708 135.568 80.2315C132.505 76.0471 129.05 71.2977 126.311 71.2977C126.311 71.2977 126.297 71.2977 126.284 71.2977C125.339 71.2977 124.475 71.9166 123.625 73.141C118.713 80.2449 129.765 100.023 139.63 111.567C144.744 117.554 139.454 136.7 139.225 137.521C139.157 137.736 133.733 153.316 137.538 160.017C138.388 161.524 139.616 162.412 141.303 162.761C141.546 162.815 146.229 163.905 149.845 157.407C154.177 149.603 160.034 151.796 160.088 151.823C160.115 151.823 160.142 151.85 160.182 151.863C160.533 152.052 163.637 153.908 163.934 161.699C164.19 168.278 171.221 168.251 171.517 168.251L171.544 168.264Z" fill="black"/>
<path d="M186.159 19.9687C186.159 19.9687 180.478 17.9775 174.905 31.136C169.331 44.2945 168.792 45.4516 168.792 45.4516C168.792 45.4516 141.721 50.0665 142.841 58.9464C142.841 58.9464 144.137 63.521 156.552 62.1486C168.967 60.7763 179.817 61.6374 179.817 61.6374C179.817 61.6374 198.777 64.0323 209.532 68.4319C220.3 72.845 218.087 64.9875 218.087 64.9875C218.087 64.9875 217.17 58.6908 193.541 48.6537L190.788 26.7902C190.788 26.7902 190.423 20.5742 186.159 19.9418V19.9687Z" fill="black"/>
<path d="M168.805 45.1152L171.302 39.6527C171.302 39.6527 190.261 41.0385 192.394 42.4109L193.136 48.1694L168.805 45.1152Z" fill="#497F44"/>
<path d="M214.808 70.6519C213.297 70.6519 211.407 70.181 209.1 69.2391C198.561 64.9202 179.79 62.5253 179.601 62.4984C179.533 62.4984 168.724 61.6642 156.538 63.0097C143.759 64.4224 142.059 59.7268 141.91 59.1752C141.91 59.1348 141.897 59.0944 141.883 59.0541C140.736 50.0126 163.677 45.465 168.076 44.6847C168.495 43.7159 169.858 40.5676 174 30.7996C179.493 17.816 185.376 18.8924 186.24 19.1211C191.071 19.888 191.53 26.4672 191.543 26.7498L194.229 48.0617C216.63 57.6413 218.654 63.8573 218.829 64.7992C218.937 65.2162 219.585 68.0686 217.79 69.6562C217.048 70.3155 216.063 70.6384 214.808 70.6384V70.6519ZM171.234 60.5206C176.335 60.5206 179.722 60.7762 179.776 60.7897C180.599 60.8973 199.006 63.2519 209.748 67.6515C213.148 69.0508 215.604 69.3064 216.63 68.3915C217.723 67.4228 217.143 65.2566 217.143 65.2297C217.143 65.1893 217.129 65.1624 217.116 65.1221C217.116 65.0951 215.577 59.0137 193.082 49.461C192.798 49.3399 192.596 49.0843 192.569 48.7748L189.816 26.9112C189.816 26.8036 189.425 21.3276 185.916 20.8163C185.862 20.8163 185.822 20.8029 185.768 20.776C185.66 20.7491 180.667 19.444 175.579 31.4589C170.06 44.4828 169.48 45.7476 169.466 45.8014C169.345 46.057 169.115 46.2454 168.832 46.2857C161.558 47.5236 142.936 52.1788 143.584 58.7446C143.759 59.1213 145.635 62.4715 156.349 61.301C161.869 60.6955 167.118 60.5206 171.234 60.5206Z" fill="black"/>
<path d="M192.353 43.3392C192.259 43.3392 192.178 43.3258 192.083 43.2988C186.942 41.6036 171.45 40.581 171.288 40.581C170.816 40.5541 170.451 40.137 170.478 39.6661C170.505 39.1952 170.924 38.8319 171.396 38.8589C172.044 38.8992 187.266 39.9083 192.61 41.6708C193.055 41.8188 193.311 42.3032 193.163 42.7607C193.041 43.1239 192.704 43.3527 192.34 43.3527L192.353 43.3392Z" fill="black"/>
<path d="M194.517 80.279C194.722 74.8733 191.339 70.3571 186.96 70.1916C182.581 70.0262 178.864 74.2742 178.659 79.6799C178.453 85.0856 181.837 89.6019 186.216 89.7673C190.595 89.9328 194.312 85.6847 194.517 80.279Z" fill="white"/>
<path d="M183.676 70.7999C183.676 70.7999 178.116 72.9526 178.939 81.5366C178.939 81.5366 179.061 86.7704 183.325 88.5733C183.325 88.5733 188.723 85.9093 188.143 78.294C188.143 78.294 187.859 71.4995 183.676 70.7999Z" fill="#0090CF"/>
<path d="M186.415 90.5511C186.321 90.5511 186.227 90.5511 186.146 90.5511C181.301 90.3627 177.536 85.4115 177.765 79.4915C177.995 73.5715 182.124 68.9028 186.969 69.1046C189.357 69.1988 191.543 70.4231 193.122 72.549C194.661 74.6209 195.457 77.3253 195.349 80.1508C195.133 85.9496 191.152 90.5511 186.429 90.5511H186.415ZM186.672 70.8133C182.866 70.8133 179.655 74.6882 179.466 79.5588C179.277 84.5235 182.3 88.6809 186.2 88.8289C190.086 88.9769 193.419 85.0482 193.608 80.0835C193.703 77.6482 193.028 75.3206 191.719 73.558C190.45 71.8493 188.737 70.8671 186.874 70.7999C186.807 70.7999 186.726 70.7999 186.658 70.7999L186.672 70.8133Z" fill="black"/>
<path d="M183.298 89.5286C182.988 89.5286 182.691 89.3671 182.543 89.0711C182.313 88.654 182.475 88.1293 182.893 87.914C186.861 85.8151 187.387 79.9759 187.401 79.9086C187.886 73.881 183.838 71.8628 183.663 71.7821C183.231 71.5802 183.055 71.069 183.258 70.6384C183.46 70.2079 183.973 70.033 184.405 70.2213C184.621 70.329 189.722 72.7777 189.128 80.0431C189.101 80.3257 188.494 86.878 183.717 89.4209C183.582 89.4882 183.447 89.5151 183.312 89.5151L183.298 89.5286Z" fill="black"/>
<path d="M175.569 79.5787C175.774 74.173 172.391 69.6567 168.012 69.4913C163.633 69.3259 159.916 73.5739 159.711 78.9796C159.505 84.3853 162.889 88.9016 167.268 89.067C171.647 89.2325 175.363 84.9844 175.569 79.5787Z" fill="white"/>
<path d="M164.743 70.0868C164.743 70.0868 159.183 72.2395 160.006 80.8235C160.006 80.8235 160.128 86.0573 164.392 87.8602C164.392 87.8602 169.79 85.1962 169.21 77.581C169.21 77.581 168.926 70.7864 164.743 70.0868Z" fill="#0090CF"/>
<path d="M167.469 89.838C167.375 89.838 167.28 89.838 167.199 89.838C164.811 89.7438 162.625 88.5195 161.046 86.3936C159.507 84.3217 158.711 81.6173 158.819 78.7918C158.927 75.9664 159.926 73.3293 161.612 71.3784C163.353 69.3737 165.634 68.3108 168.009 68.405C172.853 68.5933 176.618 73.5446 176.389 79.4646C176.173 85.2635 172.192 89.8649 167.469 89.8649V89.838ZM167.725 70.1002C165.944 70.1002 164.244 70.9479 162.908 72.4817C161.464 74.1366 160.627 76.3969 160.533 78.8457C160.438 81.2809 161.113 83.6086 162.422 85.3711C163.691 87.0798 165.404 88.062 167.267 88.1293C171.167 88.2773 174.486 84.3486 174.675 79.3838C174.864 74.4191 171.841 70.2617 167.941 70.1137C167.874 70.1137 167.793 70.1137 167.725 70.1137V70.1002Z" fill="black"/>
<path d="M164.352 88.8155C164.041 88.8155 163.745 88.654 163.596 88.358C163.367 87.9409 163.529 87.4162 163.947 87.2009C167.887 85.1155 168.441 79.2628 168.454 79.1955C168.953 73.1141 164.77 71.0959 164.716 71.069C164.284 70.8672 164.095 70.3559 164.298 69.9253C164.5 69.4948 165.013 69.3064 165.445 69.5082C165.661 69.6159 170.762 72.0646 170.168 79.33C170.141 79.6126 169.534 86.1649 164.757 88.7078C164.622 88.7751 164.487 88.802 164.352 88.802V88.8155Z" fill="black"/>
<path d="M176.78 100.763C165.31 100.763 158.239 93.7129 158.131 93.6053C157.632 93.094 157.645 92.2733 158.158 91.7889C158.671 91.2911 159.48 91.3045 159.98 91.8158C160.533 92.3809 173.582 105.257 193.473 92.946C194.08 92.5693 194.877 92.7576 195.255 93.3631C195.632 93.9685 195.443 94.7624 194.836 95.1391C188.075 99.3234 181.976 100.777 176.78 100.777V100.763Z" fill="black"/>
<path d="M131.803 69.7908C131.803 69.7908 133.746 57.0494 127.174 57.0494H119.874H119.023H111.723C105.151 57.0494 107.094 69.7908 107.094 69.7908H111.412C111.412 69.7908 110.225 60.6552 112.87 60.3861H125.838C125.838 60.3861 127.39 62.0275 126.756 68.7548L131.803 69.7908Z" fill="#FDBA12"/>
<path d="M132.518 70.8133L125.825 69.441L125.892 68.6741C126.338 63.9919 125.676 61.9333 125.352 61.2472H112.937C112.937 61.2472 112.816 61.2875 112.721 61.4086C111.763 62.6061 111.939 67.1268 112.263 69.6831L112.384 70.6519H106.339L106.231 69.9253C106.177 69.5755 104.962 61.3952 108.025 57.8566C108.97 56.7534 110.211 56.2017 111.709 56.2017H127.161C128.659 56.2017 129.9 56.7534 130.845 57.8566C133.895 61.3952 132.694 69.5755 132.64 69.9253L132.505 70.8133H132.518ZM107.85 68.9297H110.454C110.238 66.7366 109.969 62.1083 111.372 60.3457C111.75 59.8748 112.236 59.5923 112.789 59.5384H112.883H126.216L126.472 59.8075C126.648 59.9959 128.146 61.7853 127.687 68.0821L131.074 68.7682C131.344 66.1446 131.425 61.1261 129.563 58.9734C128.955 58.2603 128.173 57.9104 127.188 57.9104H111.736C110.751 57.9104 109.969 58.2603 109.361 58.9734C107.459 61.1799 107.594 66.3733 107.877 68.9431L107.85 68.9297Z" fill="black"/>
<path d="M119.482 138.611C139.583 138.611 155.877 122.364 155.877 102.324C155.877 82.2831 139.583 66.037 119.482 66.037C99.3819 66.037 83.0873 82.2831 83.0873 102.324C83.0873 122.364 99.3819 138.611 119.482 138.611Z" fill="#FDBA12"/>
<path d="M119.482 139.472C98.9434 139.472 82.2371 122.815 82.2371 102.337C82.2371 81.8595 98.9434 65.2028 119.482 65.2028C140.021 65.2028 156.727 81.8595 156.727 102.337C156.727 122.815 140.021 139.472 119.482 139.472ZM119.482 66.9115C99.888 66.9115 83.9509 82.8013 83.9509 102.337C83.9509 121.873 99.888 137.763 119.482 137.763C139.076 137.763 155.014 121.873 155.014 102.337C155.014 82.8013 139.076 66.9115 119.482 66.9115Z" fill="black"/>
<path d="M119.388 133.982C137.029 133.982 151.33 119.724 151.33 102.135C151.33 84.5469 137.029 70.2886 119.388 70.2886C101.747 70.2886 87.446 84.5469 87.446 102.135C87.446 119.724 101.747 133.982 119.388 133.982Z" fill="#FDBA12"/>
<path d="M119.388 134.843C101.292 134.843 86.5824 120.164 86.5824 102.135C86.5824 84.1064 101.305 69.4275 119.388 69.4275C137.471 69.4275 152.193 84.1064 152.193 102.135C152.193 120.164 137.471 134.843 119.388 134.843ZM119.388 71.1362C102.25 71.1362 88.3097 85.0348 88.3097 102.122C88.3097 119.209 102.25 133.108 119.388 133.108C136.526 133.108 150.466 119.209 150.466 102.122C150.466 85.0348 136.526 71.1362 119.388 71.1362Z" fill="#F7921E"/>
<path d="M122.397 87.47L125.717 94.1704L133.139 95.2467C135.595 95.5965 136.566 98.6104 134.799 100.333L129.428 105.553L130.696 112.926C131.115 115.361 128.551 117.218 126.365 116.061L119.725 112.576L113.086 116.061C110.9 117.204 108.336 115.348 108.754 112.926L110.023 105.553L104.652 100.333C102.884 98.6104 103.855 95.61 106.312 95.2467L113.734 94.1704L117.053 87.47C118.146 85.25 121.318 85.25 122.411 87.47H122.397Z" fill="#FFECD1"/>
<path d="M111.682 117.258C110.886 117.258 110.103 117.016 109.429 116.518C108.241 115.657 107.647 114.218 107.904 112.764L109.091 105.849L104.044 100.951C102.992 99.9289 102.614 98.422 103.073 97.0227C103.532 95.6234 104.719 94.6278 106.177 94.4125L113.153 93.4034L116.271 87.1067C116.918 85.7882 118.241 84.9675 119.725 84.9675C121.196 84.9675 122.519 85.7882 123.18 87.1067L126.297 93.4034L133.274 94.4125C134.731 94.6278 135.919 95.6234 136.378 97.0227C136.836 98.422 136.458 99.9289 135.406 100.951L130.359 105.849L131.546 112.764C131.789 114.218 131.209 115.657 130.022 116.518C128.821 117.379 127.269 117.5 125.973 116.814L119.739 113.545L113.504 116.814C112.937 117.11 112.317 117.258 111.709 117.258H111.682ZM119.712 86.6627C118.888 86.6627 118.173 87.1067 117.809 87.8467L114.287 94.9507L106.419 96.0944C105.596 96.2154 104.962 96.7536 104.706 97.534C104.449 98.3143 104.652 99.1351 105.245 99.7136L110.94 105.243L109.591 113.06C109.456 113.868 109.766 114.648 110.441 115.132C111.116 115.617 111.952 115.684 112.681 115.294L119.712 111.607L126.742 115.294C127.471 115.684 128.308 115.617 128.982 115.132C129.657 114.648 129.968 113.868 129.833 113.06L128.483 105.243L134.178 99.7136C134.772 99.1351 134.974 98.3278 134.718 97.534C134.461 96.7536 133.827 96.2154 133.004 96.0944L125.136 94.9507L121.614 87.8467C121.25 87.1067 120.535 86.6627 119.712 86.6627Z" fill="#F7921E"/>
<path d="M104.355 118.631C104.908 118.362 105.866 117.77 106.352 116.693C106.77 115.765 106.73 114.715 106.244 113.572C106.136 113.316 105.853 113.195 105.596 113.276C104.544 113.639 102.857 114.904 103.046 117.272C102.074 116.209 101.264 115.119 100.563 114.029C101.17 113.962 102.277 113.72 103.086 112.872C103.788 112.146 104.112 111.15 104.044 109.899C104.031 109.63 103.801 109.414 103.532 109.401C102.385 109.414 100.252 110.074 99.7126 112.576C99.0244 111.298 98.4981 110.02 98.1202 108.755C98.3631 108.809 98.714 108.863 99.1188 108.863C99.6721 108.863 100.347 108.769 100.968 108.419C101.858 107.934 102.465 107.073 102.762 105.862C102.83 105.593 102.681 105.324 102.412 105.243C101.278 104.88 98.9569 104.921 97.7289 107.342C97.432 106.064 97.2566 104.813 97.1891 103.602C97.567 103.763 98.2552 104.019 99.0649 104.019C99.3887 104.019 99.7396 103.979 100.077 103.871C101.049 103.575 101.818 102.862 102.358 101.745C102.479 101.503 102.385 101.194 102.142 101.059C101.116 100.467 98.8489 100.023 97.1351 102.122C97.1351 101.019 97.2161 99.9558 97.351 98.9602C97.6749 99.1216 98.4441 99.4311 99.3482 99.4311C99.6721 99.4311 100.023 99.3907 100.36 99.2831C101.332 98.9871 102.101 98.274 102.641 97.1573C102.762 96.9151 102.668 96.6191 102.425 96.4711C101.426 95.906 99.2943 95.4754 97.6074 97.3187C97.8773 95.8925 98.2417 94.6278 98.606 93.5515C98.606 93.5918 98.606 93.6322 98.606 93.6725C98.6465 93.8071 98.7275 93.9282 98.8489 93.9955C98.9029 94.0224 99.8475 94.5605 101.022 94.5605C101.345 94.5605 101.696 94.5202 102.034 94.4125C103.005 94.1165 103.774 93.4035 104.314 92.2867C104.436 92.0445 104.341 91.7485 104.098 91.6005C102.992 90.9682 100.455 90.4973 98.714 93.1747C99.1998 91.7889 99.6721 90.7933 99.9285 90.3089C100.509 90.134 101.575 89.69 102.236 88.6809C102.789 87.8333 102.911 86.7838 102.614 85.5864C102.546 85.3173 102.277 85.1558 102.007 85.1962C100.738 85.4249 98.4576 86.7166 98.9164 89.9591C98.9164 89.9591 98.9164 89.9591 98.9164 89.986C98.687 90.4704 98.3226 91.2911 97.9313 92.3809C97.8368 91.7755 97.5939 91.022 97.0272 90.3896C96.3524 89.6362 95.3808 89.2326 94.1258 89.2056C93.8559 89.2056 93.613 89.4075 93.5995 89.6766C93.4916 90.9547 94.1393 93.4976 97.3915 93.9013C97.3915 93.9013 97.405 93.9013 97.4185 93.9013C97.1216 94.8834 96.8382 96.0136 96.6088 97.238C96.3524 96.6864 95.9341 96.0136 95.2324 95.5562C94.3822 94.9911 93.3431 94.87 92.1286 95.1525C91.8587 95.2198 91.6833 95.4754 91.7373 95.7445C91.9397 96.9016 93.0193 98.9198 95.7047 98.9198C95.9071 98.9198 96.1365 98.9063 96.3524 98.8794C96.231 99.902 96.15 100.992 96.15 102.109C95.7452 101.624 95.1244 101.059 94.2608 100.803C93.2892 100.521 92.2501 100.709 91.184 101.342C90.9411 101.49 90.8601 101.786 90.9816 102.028C91.4134 102.875 92.5874 104.1 94.3687 104.1C94.922 104.1 95.5293 103.979 96.1905 103.696C96.258 104.867 96.4199 106.064 96.6763 107.289C96.204 106.966 95.5697 106.67 94.8275 106.616C93.8289 106.549 92.8438 106.939 91.9262 107.786C91.7238 107.975 91.6968 108.284 91.8722 108.499C92.385 109.132 93.4646 109.899 94.841 109.899C95.5428 109.899 96.3254 109.697 97.1621 109.159C97.5265 110.329 97.9853 111.5 98.579 112.67C98.1472 112.428 97.6344 112.226 97.0272 112.186C96.0151 112.119 95.0435 112.509 94.1258 113.356C93.9234 113.545 93.8964 113.854 94.0718 114.07C94.5846 114.702 95.6642 115.469 97.0407 115.469C97.8233 115.469 98.7005 115.213 99.6316 114.554C100.212 115.482 100.887 116.397 101.656 117.312C101.345 117.191 101.008 117.097 100.63 117.07C99.6316 117.003 98.6465 117.393 97.7289 118.24C97.5265 118.429 97.4995 118.738 97.6749 118.954C98.1877 119.586 99.2673 120.353 100.644 120.353C101.453 120.353 102.385 120.084 103.356 119.344C103.397 119.317 103.424 119.276 103.451 119.236C104.355 120.111 105.353 120.972 106.473 121.819C106.568 121.887 106.676 121.927 106.784 121.927C106.946 121.927 107.094 121.86 107.202 121.725C107.378 121.496 107.324 121.174 107.094 120.999C106.055 120.218 105.124 119.424 104.274 118.604L104.355 118.631Z" fill="#FFECD1"/>
<path d="M148.469 101.395C147.403 100.763 146.364 100.575 145.392 100.857C144.528 101.113 143.894 101.678 143.503 102.162C143.503 101.032 143.422 99.9558 143.3 98.9333C143.53 98.9602 143.746 98.9736 143.948 98.9736C146.633 98.9736 147.713 96.9555 147.915 95.7984C147.956 95.5293 147.794 95.2736 147.524 95.2064C146.31 94.9104 145.27 95.0449 144.42 95.61C143.719 96.0674 143.3 96.7402 143.044 97.2918C142.814 96.0674 142.531 94.9373 142.234 93.9551C142.234 93.9551 142.248 93.9551 142.261 93.9551C145.527 93.5515 146.175 91.0086 146.053 89.7304C146.026 89.4613 145.797 89.2595 145.527 89.2595C144.285 89.2864 143.3 89.6766 142.626 90.4435C142.059 91.0758 141.829 91.8293 141.721 92.4347C141.33 91.3449 140.966 90.5242 140.736 90.0398C140.736 90.0398 140.736 90.0398 140.736 90.0129C141.209 86.7704 138.914 85.4788 137.646 85.25C137.376 85.1962 137.106 85.3711 137.039 85.6402C136.728 86.8511 136.863 87.8871 137.417 88.7347C138.064 89.7438 139.144 90.1878 139.724 90.3627C139.967 90.8471 140.439 91.8427 140.939 93.2285C139.198 90.5511 136.661 91.022 135.554 91.6544C135.311 91.7889 135.217 92.0849 135.338 92.3405C135.878 93.4573 136.647 94.1704 137.619 94.4664C137.97 94.574 138.307 94.6144 138.631 94.6144C139.805 94.6144 140.75 94.0762 140.804 94.0493C140.925 93.982 141.02 93.8609 141.047 93.7264C141.047 93.686 141.047 93.6456 141.047 93.6053C141.411 94.6682 141.762 95.9464 142.045 97.3725C140.358 95.5293 138.226 95.9598 137.228 96.5249C136.985 96.6594 136.89 96.9554 137.012 97.2111C137.552 98.3278 138.321 99.0409 139.292 99.3369C139.643 99.4445 139.981 99.4849 140.304 99.4849C141.209 99.4849 141.964 99.1754 142.302 99.014C142.437 100.023 142.518 101.073 142.518 102.176C140.804 100.077 138.537 100.521 137.511 101.113C137.268 101.247 137.174 101.543 137.295 101.799C137.835 102.916 138.604 103.629 139.576 103.925C139.927 104.033 140.264 104.073 140.588 104.073C141.397 104.073 142.086 103.817 142.464 103.656C142.396 104.867 142.221 106.118 141.924 107.396C140.696 104.974 138.375 104.934 137.241 105.297C136.985 105.378 136.823 105.661 136.89 105.916C137.187 107.127 137.794 107.988 138.685 108.473C139.306 108.822 139.967 108.917 140.534 108.917C140.939 108.917 141.29 108.863 141.532 108.809C141.141 110.074 140.615 111.352 139.94 112.617C139.4 110.141 137.322 109.441 136.162 109.441H136.121C135.851 109.441 135.622 109.657 135.608 109.939C135.541 111.177 135.865 112.186 136.566 112.913C137.376 113.747 138.483 113.989 139.09 114.07C138.388 115.159 137.579 116.249 136.607 117.326C136.796 114.958 135.109 113.693 134.056 113.33C133.8 113.235 133.517 113.37 133.409 113.626C132.923 114.769 132.882 115.819 133.301 116.747C133.787 117.823 134.745 118.415 135.298 118.684C134.448 119.492 133.517 120.299 132.478 121.079C132.248 121.254 132.194 121.577 132.37 121.806C132.478 121.94 132.626 122.008 132.788 122.008C132.896 122.008 133.004 121.967 133.098 121.9C134.218 121.066 135.217 120.205 136.121 119.317C136.148 119.357 136.175 119.398 136.216 119.424C137.187 120.164 138.118 120.434 138.928 120.434C140.304 120.434 141.384 119.653 141.897 119.034C142.072 118.819 142.045 118.51 141.843 118.321C140.925 117.474 139.954 117.083 138.941 117.151C138.564 117.178 138.226 117.272 137.916 117.393C138.685 116.491 139.36 115.563 139.94 114.635C140.871 115.307 141.748 115.55 142.531 115.55C143.907 115.55 144.987 114.769 145.5 114.15C145.675 113.935 145.648 113.626 145.446 113.437C144.528 112.59 143.557 112.199 142.545 112.267C141.951 112.307 141.424 112.509 141.006 112.751C141.6 111.581 142.072 110.41 142.423 109.239C143.26 109.764 144.042 109.966 144.744 109.966C146.121 109.966 147.2 109.186 147.713 108.567C147.888 108.351 147.861 108.042 147.659 107.854C146.741 107.006 145.756 106.616 144.758 106.683C144.015 106.737 143.395 107.033 142.909 107.356C143.179 106.131 143.327 104.934 143.395 103.763C144.056 104.033 144.677 104.167 145.216 104.167C147.011 104.167 148.172 102.956 148.604 102.095C148.725 101.853 148.644 101.557 148.401 101.409L148.469 101.395Z" fill="#FFECD1"/>
<path d="M77.8513 101.651C77.8513 101.651 77.8513 94.2107 83.573 93.6591C89.2947 93.1075 91.5888 95.4754 91.4944 97.5609C91.4134 99.6463 85.5163 99.606 85.5163 99.606C85.5163 99.606 91.2515 99.3907 91.0356 102.889C90.8061 106.387 85.8806 106.024 85.8806 106.024C85.8806 106.024 90.9141 105.97 91.049 109.778C91.184 113.599 83.7755 112.939 83.7755 112.939C83.7755 112.939 77.6894 113.182 77.8513 101.651Z" fill="#9DD4D1"/>
<path d="M85.044 113.841C84.4097 113.841 83.9374 113.814 83.7485 113.787C83.3841 113.787 81.6568 113.679 80.051 112.105C77.9593 110.074 76.9337 106.549 77.0012 101.624C77.0012 98.7718 78.3641 93.2689 83.5056 92.7845C87.7834 92.3675 89.9695 93.5111 91.0626 94.5336C91.9532 95.3813 92.4255 96.4576 92.3715 97.5744C92.331 98.6911 91.4269 99.3773 90.2664 99.7943C90.5228 99.9558 90.7657 100.144 90.9816 100.373C91.6428 101.059 91.9667 101.934 91.8992 102.929C91.8317 104.006 91.3999 104.88 90.6307 105.553C90.3608 105.782 90.064 105.983 89.7536 106.131C90.9276 106.831 91.8587 107.961 91.9262 109.724C91.9667 110.693 91.6158 111.554 90.9276 112.199C89.4567 113.585 86.7173 113.814 85.0575 113.814L85.044 113.841ZM83.7755 112.078C83.7755 112.078 83.8294 112.078 83.8564 112.078C85.0575 112.186 88.4446 112.186 89.7266 110.975C90.064 110.652 90.2124 110.289 90.1854 109.805C90.0909 107.329 87.1896 106.939 86.2045 106.885C85.9751 106.885 85.8401 106.885 85.8132 106.885C85.3543 106.845 85.0035 106.468 85.017 105.997C85.0305 105.539 85.4083 105.176 85.8671 105.163C86.0156 105.163 86.1775 105.163 86.3529 105.163C87.1896 105.163 88.6605 104.974 89.4837 104.261C89.902 103.898 90.1179 103.427 90.1584 102.822C90.1854 102.31 90.0505 101.907 89.7266 101.57C88.8629 100.696 86.9602 100.467 85.9346 100.44C85.7727 100.44 85.6242 100.44 85.5028 100.44C85.0305 100.44 84.6526 100.063 84.6526 99.5925C84.6526 99.1216 85.017 98.7449 85.4758 98.718C85.5433 98.718 85.7052 98.718 85.9346 98.718C88.3366 98.6776 90.6037 98.0991 90.6307 97.5071C90.6577 96.9016 90.3743 96.2827 89.8615 95.7849C89.1868 95.1391 87.473 94.13 83.654 94.4933C78.796 94.9642 78.715 101.369 78.715 101.638C78.6475 107.127 80.024 109.67 81.198 110.827C82.4395 112.065 83.6945 112.065 83.7485 112.065C83.7485 112.065 83.7485 112.065 83.762 112.065L83.7755 112.078Z" fill="black"/>
<path d="M82.7094 56.3363C82.7094 56.3363 81.2925 64.4224 74.4642 66.8308C74.4642 66.8308 80.0105 67.5439 82.1427 74.917C82.1427 74.917 83.708 68.9566 89.1059 66.6962C89.1059 66.6962 83.708 65.7006 82.7094 56.3497V56.3363Z" fill="#FFD200"/>
<path d="M134.056 50.4297C134.056 50.4297 135.473 42.3436 142.302 39.9352C142.302 39.9352 136.755 39.2221 134.623 31.8491C134.623 31.8491 133.058 37.8094 127.66 40.0698C127.66 40.0698 133.058 41.0654 134.056 50.4163V50.4297Z" fill="#FFD200"/>
<path d="M82.6555 148.917C82.6555 148.917 84.0724 140.831 90.9007 138.422C90.9007 138.422 85.3544 137.709 83.2223 130.336C83.2223 130.336 81.6569 136.296 76.259 138.557C76.259 138.557 81.6569 139.552 82.6555 148.903V148.917Z" fill="#FFD200"/>
<path d="M100.239 54.3719C99.7666 54.3719 99.3752 53.9817 99.3752 53.5108V40.6214C99.3752 40.1505 99.7666 39.7603 100.239 39.7603C100.711 39.7603 101.103 40.1505 101.103 40.6214V53.5108C101.103 53.9817 100.711 54.3719 100.239 54.3719Z" fill="#FFD200"/>
<path d="M104.476 47.4025H96.0016C95.5293 47.4025 95.1379 47.0123 95.1379 46.5414C95.1379 46.0705 95.5293 45.6803 96.0016 45.6803H104.476C104.949 45.6803 105.34 46.0705 105.34 46.5414C105.34 47.0123 104.949 47.4025 104.476 47.4025Z" fill="#FFD200"/>
<path d="M66.9342 95.5965C66.4619 95.5965 66.0706 95.2064 66.0706 94.7355V81.846C66.0706 81.3751 66.4619 80.9849 66.9342 80.9849C67.4065 80.9849 67.7979 81.3751 67.7979 81.846V94.7355C67.7979 95.2064 67.4065 95.5965 66.9342 95.5965Z" fill="#FFD200"/>
<path d="M71.1715 88.6271H62.6969C62.2246 88.6271 61.8333 88.2369 61.8333 87.766C61.8333 87.2951 62.2246 86.9049 62.6969 86.9049H71.1715C71.6438 86.9049 72.0352 87.2951 72.0352 87.766C72.0352 88.2369 71.6438 88.6271 71.1715 88.6271Z" fill="#FFD200"/>
<path d="M121.209 160.151C120.737 160.151 120.346 159.761 120.346 159.29V146.401C120.346 145.93 120.737 145.54 121.209 145.54C121.682 145.54 122.073 145.93 122.073 146.401V159.29C122.073 159.761 121.682 160.151 121.209 160.151Z" fill="#FFD200"/>
<path d="M125.433 153.182H116.959C116.486 153.182 116.095 152.792 116.095 152.321C116.095 151.85 116.486 151.46 116.959 151.46H125.433C125.906 151.46 126.297 151.85 126.297 152.321C126.297 152.792 125.906 153.182 125.433 153.182Z" fill="#FFD200"/>
<path d="M193.163 126.555C193.028 126.555 192.893 126.528 192.758 126.448C181.706 120.568 178.656 113.101 179.493 108.069C179.925 105.432 181.476 103.454 183.352 103.145C184.918 102.889 186.362 103.804 187.347 105.634C191.166 112.764 206.833 113.908 206.995 113.908C207.467 113.935 207.831 114.352 207.791 114.823C207.764 115.294 207.359 115.657 206.873 115.617C206.185 115.576 190.086 114.406 185.822 106.427C185.457 105.755 184.702 104.651 183.636 104.826C182.718 104.974 181.557 106.145 181.207 108.338C180.478 112.778 183.339 119.465 193.581 124.914C193.999 125.143 194.161 125.654 193.932 126.071C193.77 126.367 193.473 126.528 193.176 126.528L193.163 126.555Z" fill="black"/>
</g>
<ellipse cx="176.333" cy="180.534" rx="34.5" ry="6.53439" fill="#C4C6C8"/>
<path d="M34.2672 73.7605L43.2873 70.8868L48.9842 80.9448L38.5399 83.3396L34.2672 73.7605Z" fill="#85D164"/>
<path d="M4.83325 106.507V100.164C10.6295 102.506 14.7955 100.49 16.154 99.1887V107.971C11.4446 111.093 6.64457 108.296 4.83325 106.507Z" fill="#FBB424"/>
<path d="M9.36157 53.9069L12.1289 45.9811C15.0806 48.592 19.8158 48.623 21.8144 48.3122V57.1704C13.697 57.9164 10.1303 55.3056 9.36157 53.9069Z" fill="#E9E9E9"/>
<path d="M44.4559 137.785L49.2455 130.887L56.9088 139.625L52.5982 145.604L44.4559 137.785Z" fill="#85D164"/>
<path d="M245.833 139.717L252.701 135L260.55 141.604C260.55 141.604 259.079 146.321 253.682 146.321L245.833 139.717Z" fill="#FCEB45"/>
<path d="M238.541 115.199C236.645 107.437 240.594 101.291 242.806 99.1887L252.758 103.555C248.967 107.049 248.651 113.42 248.967 116.17L238.541 115.199Z" fill="#85D164"/>
<path d="M270.871 117.714V109.377C275.202 111.6 280.223 111.847 282.192 111.693L280.715 119.566C280.715 119.566 272.512 118.949 270.871 117.714Z" fill="#FFD767"/>
<path d="M36.8333 111.125L43.8068 102L49.2861 107.763L44.305 117.849L36.8333 111.125Z" fill="#FCEB45"/>
<path d="M261.814 41.2641L268.668 34.6604L279.928 45.5094L270.137 51.6415L261.814 41.2641Z" fill="#FCEB45"/>
<path d="M224.456 65.1168C228.715 62.4583 229.188 55.7803 228.893 52.7736L236.879 56.0968C237.234 62.933 234.365 66.5411 232.886 67.4906L224.456 65.1168Z" fill="#EEEEEE"/>
<path d="M44.8333 41.3208V31.4151L56.154 30V38.0189L44.8333 41.3208Z" fill="#FBB424"/>
<defs>
<clipPath id="clip0_5142_1011">
<rect width="164" height="151" fill="white" transform="translate(61.8333 19)"/>
</clipPath>
</defs>
</svg>
