<svg width="45" height="27" viewBox="0 0 45 27" fill="none" xmlns="http://www.w3.org/2000/svg">
<path d="M0.505022 27V0.818181H6.04053V12.3622H6.3857L15.8076 0.818181H22.4425L12.7266 12.5412L22.5576 27H15.9354L8.76355 16.2358L6.04053 19.5597V27H0.505022ZM24.2453 27V0.818181H34.7283C36.6544 0.818181 38.261 1.10369 39.5479 1.67472C40.8348 2.24574 41.8022 3.03835 42.4499 4.05256C43.0976 5.05824 43.4215 6.21733 43.4215 7.52983C43.4215 8.55256 43.2169 9.4517 42.8078 10.2273C42.3987 10.9943 41.8362 11.625 41.1203 12.1193C40.4129 12.6051 39.6033 12.9503 38.6914 13.1548V13.4105C39.6885 13.4531 40.6218 13.7344 41.4911 14.2543C42.3689 14.7741 43.0806 15.5028 43.626 16.4403C44.1715 17.3693 44.4442 18.4773 44.4442 19.7642C44.4442 21.1534 44.099 22.3935 43.4087 23.4844C42.7269 24.5668 41.7169 25.4233 40.3789 26.054C39.0408 26.6847 37.3916 27 35.4314 27H24.2453ZM29.7808 22.4744H34.2936C35.8362 22.4744 36.9612 22.1804 37.6686 21.5923C38.376 20.9957 38.7297 20.2031 38.7297 19.2145C38.7297 18.4901 38.555 17.8509 38.2056 17.2969C37.8561 16.7429 37.3576 16.3082 36.7098 15.9929C36.0706 15.6776 35.3078 15.5199 34.4215 15.5199H29.7808V22.4744ZM29.7808 11.7741H33.8845C34.6431 11.7741 35.3164 11.642 35.9044 11.3778C36.501 11.1051 36.9698 10.7216 37.3107 10.2273C37.6601 9.73295 37.8348 9.14062 37.8348 8.45028C37.8348 7.50426 37.4982 6.74148 36.8249 6.16193C36.1601 5.58239 35.2141 5.29261 33.9868 5.29261H29.7808V11.7741Z" fill="black"/>
</svg>
