<svg width="82" height="120" viewBox="0 0 82 120" fill="none" xmlns="http://www.w3.org/2000/svg">
<g clip-path="url(#clip0_3104_9704)">
<path d="M72.8437 77.1561V118.518C72.8437 119.642 71.6336 120.351 70.6529 119.804L62.3 115.137L40.989 103.231L19.4039 115.292L11.325 119.804C10.3443 120.351 9.13428 119.644 9.13428 118.518V77.1561L10.3928 76.2816L14.5264 73.4066L16.1746 72.2581L40.989 54.9985L65.7363 72.2114L68.1694 73.9044L71.5199 76.235L72.8455 77.1561H72.8437Z" fill="#FCCAD0"/>
<path d="M19.4037 73.4066V115.29L11.3249 119.802C10.3442 120.349 9.13418 119.642 9.13418 118.516V77.6706L8.71094 77.4245V73.4028H19.4037V73.4066Z" fill="#ED384E"/>
<path opacity="0.5" d="M40.989 103.229L9.13428 84.7221V74.1039H72.8344L72.8194 118.553C72.8194 119.657 71.6336 120.352 70.6697 119.814L40.9871 103.229H40.989Z" fill="url(#paint0_linear_3104_9704)"/>
<path d="M72.9925 73.9044V77.4991L72.8415 77.5867V118.518C72.8415 119.642 71.6315 120.35 70.6507 119.804L62.2979 115.137V73.9062H72.9907L72.9925 73.9044Z" fill="#ED384E"/>
<path d="M81.8284 27.4582V70.099C81.8284 71.5234 81.0677 72.8379 79.8353 73.5501L72.9945 77.4991L72.8435 77.5867L62.2998 83.6743L42.9074 94.8723C41.6749 95.5846 40.1535 95.5846 38.9192 94.8723L19.4018 83.6034L9.13224 77.6762L8.709 77.4301L1.99313 73.552C0.760709 72.8397 0 71.5253 0 70.1008V27.4582C0 26.0338 0.760709 24.7193 1.99313 24.0071L38.9211 2.6867C40.1535 1.97447 41.6749 1.97447 42.9092 2.6867L79.8353 24.0071C81.0677 24.7193 81.8284 26.0338 81.8284 27.4582Z" fill="#D2273B"/>
<path d="M0 25.2153V68.1058C0 69.452 0.717826 70.6975 1.88499 71.3705L39.0292 92.8158C40.1964 93.4889 41.632 93.4889 42.7992 92.8158L79.9434 71.3705C81.1106 70.6975 81.8284 69.452 81.8284 68.1058V25.2153C81.8284 23.8691 81.1106 22.6236 79.9434 21.9506L42.7992 0.505267C41.632 -0.167812 40.1964 -0.167812 39.0292 0.505267L1.88499 21.9506C0.717826 22.6236 0 23.8691 0 25.2153Z" fill="url(#paint1_linear_3104_9704)"/>
<path opacity="0.8" d="M6.37638 28.8958V64.4254C6.37638 65.7715 7.0942 67.017 8.26137 67.6901L39.0309 85.4549C40.1981 86.1279 41.6338 86.1279 42.8009 85.4549L73.5705 67.6901C74.7358 67.017 75.4555 65.7715 75.4555 64.4254V28.8958C75.4555 27.5496 74.7377 26.3041 73.5705 25.6311L42.7991 7.86626C41.6319 7.19318 40.1962 7.19318 39.0291 7.86626L8.2595 25.6311C7.09234 26.3041 6.37451 27.5496 6.37451 28.8958H6.37638Z" fill="#FEEBED"/>
<path d="M31.692 41.62L28.692 42.55C28.392 42.35 28.092 42.07 27.792 41.71C27.492 41.35 27.342 40.85 27.342 40.21C27.342 39.01 28.072 38.17 29.532 37.69L32.892 36.55H34.002C34.862 36.55 35.542 36.8 36.042 37.3C36.542 37.8 36.792 38.48 36.792 39.34V54.97C36.572 55.01 36.242 55.06 35.802 55.12C35.382 55.2 34.952 55.24 34.512 55.24C34.072 55.24 33.672 55.21 33.312 55.15C32.972 55.09 32.682 54.97 32.442 54.79C32.202 54.61 32.012 54.37 31.872 54.07C31.752 53.75 31.692 53.34 31.692 52.84V41.62ZM50.0393 40.48C48.4993 40.48 47.3193 40.95 46.4993 41.89C45.6793 42.83 45.2693 44.16 45.2693 45.88C45.2693 47.62 45.7193 48.96 46.6193 49.9C47.5393 50.84 48.7693 51.31 50.3093 51.31C51.1293 51.31 51.8193 51.2 52.3793 50.98C52.9593 50.76 53.5093 50.51 54.0293 50.23C54.3693 50.51 54.6293 50.85 54.8093 51.25C55.0093 51.63 55.1093 52.08 55.1093 52.6C55.1093 53.42 54.6493 54.12 53.7293 54.7C52.8293 55.26 51.4493 55.54 49.5893 55.54C48.2493 55.54 46.9893 55.35 45.8093 54.97C44.6293 54.59 43.5993 54.01 42.7193 53.23C41.8393 52.43 41.1393 51.43 40.6193 50.23C40.1193 49.01 39.8693 47.56 39.8693 45.88C39.8693 44.32 40.1093 42.95 40.5893 41.77C41.0893 40.57 41.7593 39.56 42.5993 38.74C43.4593 37.92 44.4593 37.3 45.5993 36.88C46.7393 36.46 47.9593 36.25 49.2593 36.25C51.0993 36.25 52.5193 36.55 53.5193 37.15C54.5393 37.75 55.0493 38.52 55.0493 39.46C55.0493 39.98 54.9193 40.43 54.6593 40.81C54.3993 41.19 54.0993 41.49 53.7593 41.71C53.2393 41.37 52.6793 41.08 52.0793 40.84C51.4993 40.6 50.8193 40.48 50.0393 40.48Z" fill="#ED384E"/>
</g>
<defs>
<linearGradient id="paint0_linear_3104_9704" x1="9.13428" y1="97.0519" x2="72.8344" y2="97.0519" gradientUnits="userSpaceOnUse">
<stop stop-color="#ED384E"/>
<stop offset="1" stop-color="#FC5F2F"/>
</linearGradient>
<linearGradient id="paint1_linear_3104_9704" x1="40.9142" y1="0.000457764" x2="40.9142" y2="93.3206" gradientUnits="userSpaceOnUse">
<stop stop-color="#FC5569"/>
<stop offset="1" stop-color="#ED384E"/>
</linearGradient>
<clipPath id="clip0_3104_9704">
<rect width="81.8284" height="120" fill="white"/>
</clipPath>
</defs>
</svg>
