<svg width="82" height="120" viewBox="0 0 82 120" fill="none" xmlns="http://www.w3.org/2000/svg">
<g clip-path="url(#clip0_3104_8864)">
<path d="M72.916 77.1561V118.518C72.916 119.642 71.7048 120.351 70.7231 119.804L62.3619 115.137L41.0296 103.231L19.4229 115.292L11.336 119.804C10.3543 120.351 9.14307 119.644 9.14307 118.518V77.1561L10.4028 76.2816L14.5405 73.4066L16.1904 72.2581L41.0296 54.9985L65.8015 72.2114L68.2371 73.9044L71.5909 76.235L72.9179 77.1561H72.916Z" fill="#FEECAC"/>
<path d="M19.4232 73.4066V115.29L11.3363 119.802C10.3546 120.349 9.14339 119.642 9.14339 118.516V77.6706L8.71973 77.4245V73.4028H19.4232V73.4066Z" fill="#FDD338"/>
<path opacity="0.5" d="M41.0296 103.229L9.14307 84.7221V74.1039H72.9067L72.8918 118.553C72.8918 119.657 71.7048 120.352 70.7399 119.814L41.0277 103.229H41.0296Z" fill="url(#paint0_linear_3104_8864)"/>
<path d="M73.0657 73.9044V77.4991L72.9145 77.5867V118.518C72.9145 119.642 71.7033 120.351 70.7216 119.804L62.3604 115.137V73.9063H73.0638L73.0657 73.9044Z" fill="#FDD338"/>
<path d="M81.9101 27.4582V70.099C81.9101 71.5234 81.1486 72.8379 79.915 73.5501L73.0674 77.4991L72.9162 77.5867L62.362 83.6743L42.9502 94.8724C41.7165 95.5846 40.1936 95.5846 38.9581 94.8724L19.4212 83.6034L9.14135 77.6762L8.71769 77.4301L1.99512 73.552C0.761468 72.8398 0 71.5253 0 70.1008V27.4582C0 26.0338 0.761468 24.7193 1.99512 24.0071L38.9599 2.68672C40.1936 1.97449 41.7165 1.97449 42.952 2.68672L79.915 24.0071C81.1486 24.7193 81.9101 26.0338 81.9101 27.4582V27.4582Z" fill="#E3B50A"/>
<path d="M0 25.2153V68.1059C0 69.452 0.718542 70.6975 1.88687 71.3706L39.0682 92.8159C40.2365 93.4889 41.6736 93.4889 42.8419 92.8159L80.0232 71.3706C81.1916 70.6975 81.9101 69.452 81.9101 68.1059V25.2153C81.9101 23.8691 81.1916 22.6237 80.0232 21.9506L42.8419 0.505297C41.6736 -0.167781 40.2365 -0.167781 39.0682 0.505297L1.88687 21.9506C0.718542 22.6237 0 23.8691 0 25.2153Z" fill="url(#paint1_linear_3104_8864)"/>
<path opacity="0.8" d="M6.00187 28.5343V64.0639C6.00187 65.4101 6.72041 66.6555 7.88874 67.3286L38.689 85.0934C39.8573 85.7665 41.2944 85.7665 42.4628 85.0934L73.263 67.3286C74.4295 66.6555 75.1499 65.4101 75.1499 64.0639V28.5343C75.1499 27.1882 74.4314 25.9427 73.263 25.2696L42.4609 7.50481C41.2926 6.83173 39.8555 6.83173 38.6871 7.50481L7.88687 25.2696C6.71854 25.9427 6 27.1882 6 28.5343H6.00187Z" fill="#FFF4CC"/>
<path d="M28.4214 47.25V53.88C28.2014 53.94 27.8514 54 27.3714 54.06C26.8914 54.12 26.4214 54.15 25.9614 54.15C25.5014 54.15 25.0914 54.11 24.7314 54.03C24.3914 53.97 24.1014 53.85 23.8614 53.67C23.6214 53.49 23.4414 53.24 23.3214 52.92C23.2014 52.6 23.1414 52.18 23.1414 51.66V35.82C23.3614 35.78 23.7114 35.73 24.1914 35.67C24.6714 35.59 25.1314 35.55 25.5714 35.55C26.0314 35.55 26.4314 35.59 26.7714 35.67C27.1314 35.73 27.4314 35.85 27.6714 36.03C27.9114 36.21 28.0914 36.46 28.2114 36.78C28.3314 37.1 28.3914 37.52 28.3914 38.04V42.81L34.6314 35.64C35.9914 35.64 36.9614 35.9 37.5414 36.42C38.1414 36.92 38.4414 37.52 38.4414 38.22C38.4414 38.74 38.3114 39.23 38.0514 39.69C37.7914 40.15 37.3714 40.67 36.7914 41.25L33.0414 45C33.5414 45.56 34.0614 46.14 34.6014 46.74C35.1614 47.34 35.7014 47.93 36.2214 48.51C36.7614 49.07 37.2714 49.61 37.7514 50.13C38.2514 50.65 38.6814 51.1 39.0414 51.48C39.0414 51.92 38.9614 52.31 38.8014 52.65C38.6414 52.99 38.4214 53.28 38.1414 53.52C37.8814 53.76 37.5814 53.94 37.2414 54.06C36.9014 54.18 36.5414 54.24 36.1614 54.24C35.3414 54.24 34.6714 54.04 34.1514 53.64C33.6314 53.22 33.1314 52.73 32.6514 52.17L28.4214 47.25ZM45.82 36.36C46.16 36.16 46.67 35.97 47.35 35.79C48.05 35.61 48.75 35.52 49.45 35.52C50.45 35.52 51.33 35.67 52.09 35.97C52.87 36.25 53.37 36.7 53.59 37.32C53.95 38.36 54.34 39.57 54.76 40.95C55.18 42.33 55.6 43.76 56.02 45.24C56.44 46.7 56.85 48.15 57.25 49.59C57.65 51.01 58 52.27 58.3 53.37C58.06 53.65 57.7 53.87 57.22 54.03C56.74 54.21 56.17 54.3 55.51 54.3C55.03 54.3 54.62 54.26 54.28 54.18C53.96 54.1 53.69 53.98 53.47 53.82C53.27 53.66 53.1 53.45 52.96 53.19C52.84 52.93 52.73 52.63 52.63 52.29L52.09 50.22H46.66C46.5 50.82 46.34 51.44 46.18 52.08C46.02 52.72 45.86 53.34 45.7 53.94C45.42 54.04 45.12 54.12 44.8 54.18C44.5 54.26 44.13 54.3 43.69 54.3C42.67 54.3 41.91 54.13 41.41 53.79C40.93 53.43 40.69 52.94 40.69 52.32C40.69 52.04 40.73 51.76 40.81 51.48C40.89 51.2 40.98 50.87 41.08 50.49C41.22 49.95 41.41 49.28 41.65 48.48C41.91 47.68 42.19 46.82 42.49 45.9C42.79 44.96 43.11 44 43.45 43.02C43.79 42.04 44.11 41.12 44.41 40.26C44.71 39.38 44.98 38.6 45.22 37.92C45.48 37.24 45.68 36.72 45.82 36.36ZM49.42 40.23C49.14 41.07 48.82 42.01 48.46 43.05C48.12 44.07 47.81 45.11 47.53 46.17H51.25C50.97 45.09 50.68 44.04 50.38 43.02C50.1 41.98 49.84 41.05 49.6 40.23H49.42Z" fill="#FBCE2A"/>
</g>
<defs>
<linearGradient id="paint0_linear_3104_8864" x1="73" y1="120" x2="-8" y2="120" gradientUnits="userSpaceOnUse">
<stop stop-color="#FBCE2A"/>
<stop offset="1" stop-color="#FBCE2A" stop-opacity="0"/>
</linearGradient>
<linearGradient id="paint1_linear_3104_8864" x1="40.9551" y1="0.000488281" x2="40.9551" y2="93.3207" gradientUnits="userSpaceOnUse">
<stop stop-color="#FFDB57"/>
<stop offset="1" stop-color="#FBCE2A"/>
</linearGradient>
<clipPath id="clip0_3104_8864">
<rect width="81.9101" height="120" fill="white"/>
</clipPath>
</defs>
</svg>
