<svg width="82" height="120" viewBox="0 0 82 120" fill="none" xmlns="http://www.w3.org/2000/svg">
<g clip-path="url(#clip0_3104_9619)">
<path d="M72.916 77.1561V118.518C72.916 119.642 71.7048 120.351 70.7231 119.804L62.3619 115.137L41.0296 103.231L19.4229 115.292L11.336 119.804C10.3543 120.351 9.14307 119.644 9.14307 118.518V77.1561L10.4028 76.2816L14.5405 73.4066L16.1904 72.2581L41.0296 54.9985L65.8015 72.2114L68.2371 73.9044L71.5909 76.235L72.9179 77.1561H72.916Z" fill="#FED9A3"/>
<path d="M19.4232 73.4066V115.29L11.3363 119.802C10.3546 120.349 9.14339 119.642 9.14339 118.516V77.6706L8.71973 77.4245V73.4028H19.4232V73.4066Z" fill="#FBA524"/>
<path opacity="0.5" d="M41.0296 103.229L9.14307 84.7221V74.1039H72.9067L72.8918 118.553C72.8918 119.657 71.7048 120.352 70.7399 119.814L41.0277 103.229H41.0296Z" fill="url(#paint0_linear_3104_9619)"/>
<path d="M73.0657 73.9044V77.4991L72.9145 77.5867V118.518C72.9145 119.642 71.7033 120.351 70.7216 119.804L62.3604 115.137V73.9063H73.0638L73.0657 73.9044Z" fill="url(#paint1_linear_3104_9619)"/>
<path d="M73.0657 73.9044V77.4991L72.9145 77.5867V118.518C72.9145 119.642 71.7033 120.351 70.7216 119.804L62.3604 115.137V73.9063H73.0638L73.0657 73.9044Z" fill="#FBB424"/>
<path d="M81.9101 27.4582V70.099C81.9101 71.5234 81.1486 72.8379 79.915 73.5501L73.0674 77.4991L72.9162 77.5867L62.362 83.6743L42.9502 94.8724C41.7165 95.5846 40.1936 95.5846 38.9581 94.8724L19.4212 83.6034L9.14135 77.6762L8.71769 77.4301L1.99512 73.552C0.761468 72.8398 0 71.5253 0 70.1008V27.4582C0 26.0338 0.761468 24.7193 1.99512 24.0071L38.9599 2.68672C40.1936 1.97449 41.7165 1.97449 42.952 2.68672L79.915 24.0071C81.1486 24.7193 81.9101 26.0338 81.9101 27.4582V27.4582Z" fill="#D89000"/>
<path d="M0 25.2153V68.1059C0 69.452 0.718542 70.6975 1.88687 71.3706L39.0682 92.8159C40.2365 93.4889 41.6736 93.4889 42.8419 92.8159L80.0232 71.3706C81.1916 70.6975 81.9101 69.452 81.9101 68.1059V25.2153C81.9101 23.8691 81.1916 22.6237 80.0232 21.9506L42.8419 0.505297C41.6736 -0.167781 40.2365 -0.167781 39.0682 0.505297L1.88687 21.9506C0.718542 22.6237 0 23.8691 0 25.2153Z" fill="url(#paint2_linear_3104_9619)"/>
<path opacity="0.8" d="M6.00187 28.5343V64.0639C6.00187 65.4101 6.72041 66.6555 7.88874 67.3286L38.689 85.0934C39.8573 85.7665 41.2944 85.7665 42.4628 85.0934L73.263 67.3286C74.4295 66.6555 75.1499 65.4101 75.1499 64.0639V28.5343C75.1499 27.1882 74.4314 25.9427 73.263 25.2696L42.4609 7.50481C41.2926 6.83173 39.8555 6.83173 38.6871 7.50481L7.88687 25.2696C6.71854 25.9427 6 27.1882 6 28.5343H6.00187Z" fill="#FFE2C2"/>
<path d="M28.7144 47.25V53.88C28.4944 53.94 28.1444 54 27.6644 54.06C27.1844 54.12 26.7144 54.15 26.2544 54.15C25.7944 54.15 25.3844 54.11 25.0244 54.03C24.6844 53.97 24.3944 53.85 24.1544 53.67C23.9144 53.49 23.7344 53.24 23.6144 52.92C23.4944 52.6 23.4344 52.18 23.4344 51.66V35.82C23.6544 35.78 24.0044 35.73 24.4844 35.67C24.9644 35.59 25.4244 35.55 25.8644 35.55C26.3244 35.55 26.7244 35.59 27.0644 35.67C27.4244 35.73 27.7244 35.85 27.9644 36.03C28.2044 36.21 28.3844 36.46 28.5044 36.78C28.6244 37.1 28.6844 37.52 28.6844 38.04V42.81L34.9244 35.64C36.2844 35.64 37.2544 35.9 37.8344 36.42C38.4344 36.92 38.7344 37.52 38.7344 38.22C38.7344 38.74 38.6044 39.23 38.3444 39.69C38.0844 40.15 37.6644 40.67 37.0844 41.25L33.3344 45C33.8344 45.56 34.3544 46.14 34.8944 46.74C35.4544 47.34 35.9944 47.93 36.5144 48.51C37.0544 49.07 37.5644 49.61 38.0444 50.13C38.5444 50.65 38.9744 51.1 39.3344 51.48C39.3344 51.92 39.2544 52.31 39.0944 52.65C38.9344 52.99 38.7144 53.28 38.4344 53.52C38.1744 53.76 37.8744 53.94 37.5344 54.06C37.1944 54.18 36.8344 54.24 36.4544 54.24C35.6344 54.24 34.9644 54.04 34.4444 53.64C33.9244 53.22 33.4244 52.73 32.9444 52.17L28.7144 47.25ZM46.9914 50.25C47.2714 50.33 47.6314 50.39 48.0714 50.43C48.5114 50.45 48.9314 50.46 49.3314 50.46C50.1314 50.46 50.7914 50.3 51.3114 49.98C51.8514 49.64 52.1214 49.12 52.1214 48.42C52.1214 47.76 51.9014 47.29 51.4614 47.01C51.0214 46.73 50.3514 46.59 49.4514 46.59H46.9914V50.25ZM46.9914 42.93H49.1814C50.0414 42.93 50.6614 42.77 51.0414 42.45C51.4414 42.13 51.6414 41.66 51.6414 41.04C51.6414 40.5 51.4114 40.07 50.9514 39.75C50.5114 39.43 49.8414 39.27 48.9414 39.27C48.6414 39.27 48.2914 39.28 47.8914 39.3C47.5114 39.32 47.2114 39.35 46.9914 39.39V42.93ZM48.9414 54.48C48.6014 54.48 48.2014 54.47 47.7414 54.45C47.2814 54.43 46.8014 54.39 46.3014 54.33C45.8214 54.27 45.3414 54.19 44.8614 54.09C44.3814 54.01 43.9414 53.89 43.5414 53.73C42.4414 53.31 41.8914 52.58 41.8914 51.54V37.53C41.8914 37.11 42.0014 36.79 42.2214 36.57C42.4614 36.33 42.7814 36.14 43.1814 36C43.8614 35.76 44.7114 35.59 45.7314 35.49C46.7514 35.37 47.8014 35.31 48.8814 35.31C51.4414 35.31 53.4114 35.74 54.7914 36.6C56.1714 37.46 56.8614 38.79 56.8614 40.59C56.8614 41.49 56.6014 42.27 56.0814 42.93C55.5614 43.57 54.8614 44.04 53.9814 44.34C54.9814 44.62 55.8114 45.13 56.4714 45.87C57.1514 46.61 57.4914 47.54 57.4914 48.66C57.4914 50.64 56.7514 52.11 55.2714 53.07C53.8114 54.01 51.7014 54.48 48.9414 54.48Z" fill="#FBB424"/>
</g>
<defs>
<linearGradient id="paint0_linear_3104_9619" x1="67" y1="120" x2="0.500001" y2="120" gradientUnits="userSpaceOnUse">
<stop stop-color="#FBB424"/>
<stop offset="1" stop-color="#FBB424" stop-opacity="0"/>
</linearGradient>
<linearGradient id="paint1_linear_3104_9619" x1="62.3622" y1="96.9475" x2="73.0657" y2="96.9475" gradientUnits="userSpaceOnUse">
<stop stop-color="#FDAB30"/>
<stop offset="1" stop-color="#FEB029"/>
</linearGradient>
<linearGradient id="paint2_linear_3104_9619" x1="40.9551" y1="0.000488281" x2="40.9551" y2="93.3207" gradientUnits="userSpaceOnUse">
<stop stop-color="#FFD071"/>
<stop offset="1" stop-color="#FBB424"/>
</linearGradient>
<clipPath id="clip0_3104_9619">
<rect width="81.9101" height="120" fill="white"/>
</clipPath>
</defs>
</svg>
