<svg width="90" height="128" viewBox="0 0 90 128" fill="none" xmlns="http://www.w3.org/2000/svg">
<g filter="url(#filter0_d_3104_9698)">
<path d="M76.8436 77.1561V118.518C76.8436 119.642 75.6335 120.351 74.6528 119.804L66.2999 115.137L44.987 103.231L23.4019 115.292L15.3231 119.804C14.3424 120.351 13.1323 119.644 13.1323 118.518V77.1561L14.3909 76.2816L18.5244 73.4066L20.1726 72.2581L44.987 54.9985L69.7343 72.2114L72.1674 73.9044L75.5179 76.235L76.8436 77.1561Z" fill="url(#paint0_linear_3104_9698)"/>
<path d="M23.4037 73.4066V115.29L15.3249 119.802C14.3442 120.349 13.1342 119.642 13.1342 118.516V77.6706L12.7109 77.4245V73.4028H23.4037V73.4066Z" fill="#5EB14E"/>
<path opacity="0.5" d="M44.989 103.229L13.1343 84.7221V74.1039H76.8344L76.8194 118.553C76.8194 119.657 75.6336 120.352 74.6697 119.814L44.9871 103.229H44.989Z" fill="url(#paint1_linear_3104_9698)"/>
<path d="M76.9925 73.9044V77.4991L76.8415 77.5867V118.518C76.8415 119.642 75.6315 120.35 74.6507 119.804L66.2979 115.137V73.9062H76.9907L76.9925 73.9044Z" fill="#5EB14E"/>
<path d="M85.8284 27.4582V70.099C85.8284 71.5234 85.0677 72.8379 83.8353 73.5501L76.9945 77.4991L76.8435 77.5867L66.2998 83.6743L46.9074 94.8723C45.6749 95.5846 44.1535 95.5846 42.9192 94.8723L23.4018 83.6034L13.1322 77.6743L12.709 77.4282L5.99313 73.5501C4.76071 72.8379 4 71.5234 4 70.099V27.4582C4 26.0338 4.76071 24.7193 5.99313 24.0071L42.9211 2.6867C44.1535 1.97447 45.6749 1.97447 46.9092 2.6867L83.8353 24.0071C85.0677 24.7193 85.8284 26.0338 85.8284 27.4582Z" fill="#377E2A"/>
<path d="M4 25.2153V68.1058C4 69.452 4.71783 70.6975 5.88499 71.3705L43.0292 92.8158C44.1964 93.4889 45.632 93.4889 46.7992 92.8158L83.9434 71.3705C85.1087 70.6975 85.8284 69.452 85.8284 68.1058V25.2153C85.8284 23.8691 85.1106 22.6236 83.9434 21.9506L46.7992 0.505267C45.6339 -0.167812 44.1964 -0.167812 43.0292 0.505267L5.88499 21.9506C4.71783 22.6236 4 23.8691 4 25.2153Z" fill="url(#paint2_linear_3104_9698)"/>
<path opacity="0.8" d="M10.0019 28.5343V64.0639C10.0019 65.4101 10.7197 66.6555 11.8869 67.3286L42.6564 85.0934C43.8236 85.7665 45.2592 85.7665 46.4264 85.0934L77.196 67.3286C78.3631 66.6555 79.081 65.4101 79.081 64.0639V28.5343C79.081 27.1882 78.3631 25.9427 77.196 25.2696L46.4245 7.50481C45.2592 6.83173 43.8217 6.83173 42.6546 7.50481L11.885 25.2696C10.7178 25.9427 10 27.1882 10 28.5343H10.0019Z" fill="#D3F3CD"/>
<path d="M35.3238 35.31C36.4638 35.31 37.4738 35.46 38.3538 35.76C39.2338 36.04 39.9838 36.43 40.6038 36.93C41.2238 37.43 41.6938 38.02 42.0138 38.7C42.3338 39.38 42.4938 40.11 42.4938 40.89C42.4938 42.99 41.3038 44.99 38.9238 46.89L34.9938 50.04H42.1938C42.3138 50.26 42.4238 50.54 42.5238 50.88C42.6438 51.22 42.7038 51.59 42.7038 51.99C42.7038 52.71 42.5438 53.23 42.2238 53.55C41.9038 53.85 41.4838 54 40.9638 54H30.5538C30.1138 53.7 29.7638 53.32 29.5038 52.86C29.2638 52.38 29.1438 51.82 29.1438 51.18C29.1438 50.5 29.2838 49.93 29.5638 49.47C29.8438 48.99 30.1538 48.61 30.4938 48.33L34.6338 44.79C35.1538 44.35 35.5838 43.96 35.9238 43.62C36.2638 43.26 36.5338 42.94 36.7338 42.66C36.9538 42.38 37.1038 42.12 37.1838 41.88C37.2838 41.64 37.3338 41.41 37.3338 41.19C37.3338 40.63 37.0838 40.19 36.5838 39.87C36.1038 39.55 35.5038 39.39 34.7838 39.39C33.9838 39.39 33.2638 39.52 32.6238 39.78C32.0038 40.02 31.4838 40.28 31.0638 40.56C30.7238 40.32 30.4438 40.02 30.2238 39.66C30.0038 39.3 29.8938 38.88 29.8938 38.4C29.8938 37.36 30.3838 36.59 31.3638 36.09C32.3438 35.57 33.6638 35.31 35.3238 35.31ZM54.9876 39.48C53.4476 39.48 52.2676 39.95 51.4476 40.89C50.6276 41.83 50.2176 43.16 50.2176 44.88C50.2176 46.62 50.6676 47.96 51.5676 48.9C52.4876 49.84 53.7176 50.31 55.2576 50.31C56.0776 50.31 56.7676 50.2 57.3276 49.98C57.9076 49.76 58.4576 49.51 58.9776 49.23C59.3176 49.51 59.5776 49.85 59.7576 50.25C59.9576 50.63 60.0576 51.08 60.0576 51.6C60.0576 52.42 59.5976 53.12 58.6776 53.7C57.7776 54.26 56.3976 54.54 54.5376 54.54C53.1976 54.54 51.9376 54.35 50.7576 53.97C49.5776 53.59 48.5476 53.01 47.6676 52.23C46.7876 51.43 46.0876 50.43 45.5676 49.23C45.0676 48.01 44.8176 46.56 44.8176 44.88C44.8176 43.32 45.0576 41.95 45.5376 40.77C46.0376 39.57 46.7076 38.56 47.5476 37.74C48.4076 36.92 49.4076 36.3 50.5476 35.88C51.6876 35.46 52.9076 35.25 54.2076 35.25C56.0476 35.25 57.4676 35.55 58.4676 36.15C59.4876 36.75 59.9976 37.52 59.9976 38.46C59.9976 38.98 59.8676 39.43 59.6076 39.81C59.3476 40.19 59.0476 40.49 58.7076 40.71C58.1876 40.37 57.6276 40.08 57.0276 39.84C56.4476 39.6 55.7676 39.48 54.9876 39.48Z" fill="#5EB14E"/>
</g>
<defs>
<filter id="filter0_d_3104_9698" x="0" y="0.000457764" width="89.8286" height="127.999" filterUnits="userSpaceOnUse" color-interpolation-filters="sRGB">
<feFlood flood-opacity="0" result="BackgroundImageFix"/>
<feColorMatrix in="SourceAlpha" type="matrix" values="0 0 0 0 0 0 0 0 0 0 0 0 0 0 0 0 0 0 127 0" result="hardAlpha"/>
<feOffset dy="4"/>
<feGaussianBlur stdDeviation="2"/>
<feComposite in2="hardAlpha" operator="out"/>
<feColorMatrix type="matrix" values="0 0 0 0 0 0 0 0 0 0 0 0 0 0 0 0 0 0 0.25 0"/>
<feBlend mode="normal" in2="BackgroundImageFix" result="effect1_dropShadow_3104_9698"/>
<feBlend mode="normal" in="SourceGraphic" in2="effect1_dropShadow_3104_9698" result="shape"/>
</filter>
<linearGradient id="paint0_linear_3104_9698" x1="13.1342" y1="87.4965" x2="76.8436" y2="87.4965" gradientUnits="userSpaceOnUse">
<stop stop-color="#BCE6B3"/>
<stop offset="1" stop-color="#5EB14E"/>
</linearGradient>
<linearGradient id="paint1_linear_3104_9698" x1="79.5" y1="120" x2="-1" y2="120" gradientUnits="userSpaceOnUse">
<stop offset="0.136646" stop-color="#5EB14E"/>
<stop offset="1" stop-color="#5EB14E" stop-opacity="0"/>
</linearGradient>
<linearGradient id="paint2_linear_3104_9698" x1="44.9142" y1="0.000457764" x2="44.9142" y2="93.3206" gradientUnits="userSpaceOnUse">
<stop stop-color="#91DB82"/>
<stop offset="1" stop-color="#5EB14E"/>
</linearGradient>
</defs>
</svg>
