<svg width="90" height="128" viewBox="0 0 90 128" fill="none" xmlns="http://www.w3.org/2000/svg">
<g filter="url(#filter0_d_3104_9617)">
<path d="M76.8436 77.1561V118.518C76.8436 119.642 75.6335 120.351 74.6528 119.804L66.2999 115.137L44.987 103.231L23.4019 115.292L15.3231 119.804C14.3424 120.351 13.1323 119.644 13.1323 118.518V77.1561L14.3909 76.2816L18.5244 73.4066L20.1726 72.2581L44.987 54.9985L69.7343 72.2114L72.1674 73.9044L75.5179 76.235L76.8436 77.1561Z" fill="#B2DFF4"/>
<path d="M23.4037 73.4066V115.29L15.3249 119.802C14.3442 120.349 13.1342 119.642 13.1342 118.516V77.6706L12.7109 77.4245V73.4028H23.4037V73.4066Z" fill="#5AA4C6"/>
<path opacity="0.5" d="M44.989 103.229L13.1343 84.7221V74.1039H76.8344L76.8194 118.553C76.8194 119.657 75.6336 120.352 74.6697 119.814L44.9871 103.229H44.989Z" fill="url(#paint0_linear_3104_9617)"/>
<path d="M76.9925 73.9044V77.4991L76.8415 77.5868V118.518C76.8415 119.642 75.6315 120.351 74.6507 119.804L66.2979 115.137V73.9063H76.9907L76.9925 73.9044Z" fill="#5AA4C6"/>
<path d="M85.8284 27.4583V70.099C85.8284 71.5235 85.0677 72.8379 83.8353 73.5502L76.9945 77.4991L76.8435 77.5868L66.2998 83.6743L46.9074 94.8724C45.6749 95.5846 44.1535 95.5846 42.9192 94.8724L23.4018 83.6035L13.1322 77.6744L12.709 77.4283L5.99313 73.5502C4.76071 72.8379 4 71.5235 4 70.099V27.4583C4 26.0338 4.76071 24.7194 5.99313 24.0071L42.9211 2.68676C44.1535 1.97453 45.6749 1.97453 46.9092 2.68676L83.8353 24.0071C85.0677 24.7194 85.8284 26.0338 85.8284 27.4583Z" fill="#447E98"/>
<path d="M4 25.2153V68.1059C4 69.452 4.71783 70.6975 5.88499 71.3706L43.0292 92.8159C44.1964 93.4889 45.632 93.4889 46.7992 92.8159L83.9434 71.3706C85.1087 70.6975 85.8284 69.452 85.8284 68.1059V25.2153C85.8284 23.8691 85.1106 22.6237 83.9434 21.9506L46.7992 0.505297C45.6339 -0.167781 44.1964 -0.167781 43.0292 0.505297L5.88499 21.9506C4.71783 22.6237 4 23.8691 4 25.2153Z" fill="url(#paint1_linear_3104_9617)"/>
<path opacity="0.8" d="M10.0019 28.5343V64.0639C10.0019 65.4101 10.7197 66.6555 11.8869 67.3286L42.6564 85.0934C43.8236 85.7665 45.2592 85.7665 46.4264 85.0934L77.196 67.3286C78.3631 66.6555 79.081 65.4101 79.081 64.0639V28.5343C79.081 27.1882 78.3631 25.9427 77.196 25.2696L46.4245 7.50481C45.2592 6.83173 43.8217 6.83173 42.6546 7.50481L11.885 25.2696C10.7178 25.9427 10 27.1882 10 28.5343H10.0019Z" fill="#C8EEFF"/>
<path d="M34.4392 35.31C36.7392 35.31 38.4892 35.79 39.6892 36.75C40.8892 37.69 41.4892 38.96 41.4892 40.56C41.4892 41.52 41.2292 42.34 40.7092 43.02C40.2092 43.68 39.6092 44.18 38.9092 44.52C39.3292 44.68 39.7192 44.88 40.0792 45.12C40.4392 45.36 40.7592 45.66 41.0392 46.02C41.3192 46.38 41.5392 46.8 41.6992 47.28C41.8592 47.76 41.9392 48.32 41.9392 48.96C41.9392 49.82 41.7492 50.59 41.3692 51.27C41.0092 51.95 40.4992 52.53 39.8392 53.01C39.1792 53.49 38.3892 53.85 37.4692 54.09C36.5692 54.35 35.5792 54.48 34.4992 54.48C32.4192 54.48 30.8492 54.19 29.7892 53.61C28.7292 53.03 28.1992 52.29 28.1992 51.39C28.1992 50.85 28.3292 50.39 28.5892 50.01C28.8492 49.61 29.1692 49.3 29.5492 49.08C29.9492 49.36 30.4792 49.66 31.1392 49.98C31.8192 50.28 32.6992 50.43 33.7792 50.43C34.7992 50.43 35.5492 50.25 36.0292 49.89C36.5292 49.53 36.7792 49.06 36.7792 48.48C36.7792 47.9 36.5792 47.46 36.1792 47.16C35.7992 46.86 35.1292 46.71 34.1692 46.71H31.3492C31.2092 46.49 31.0892 46.22 30.9892 45.9C30.8892 45.58 30.8392 45.2 30.8392 44.76C30.8392 44.3 30.8792 43.91 30.9592 43.59C31.0592 43.25 31.1892 42.97 31.3492 42.75H34.1692C35.6092 42.75 36.3292 42.2 36.3292 41.1C36.3292 40.58 36.0992 40.16 35.6392 39.84C35.1792 39.52 34.4892 39.36 33.5692 39.36C32.7492 39.36 32.0292 39.46 31.4092 39.66C30.7892 39.84 30.2792 40.07 29.8792 40.35C29.5392 40.11 29.2592 39.82 29.0392 39.48C28.8192 39.12 28.7092 38.7 28.7092 38.22C28.7092 37.22 29.2292 36.49 30.2692 36.03C31.3092 35.55 32.6992 35.31 34.4392 35.31ZM50.0266 50.25C50.3066 50.33 50.6666 50.39 51.1066 50.43C51.5466 50.45 51.9666 50.46 52.3666 50.46C53.1666 50.46 53.8266 50.3 54.3466 49.98C54.8866 49.64 55.1566 49.12 55.1566 48.42C55.1566 47.76 54.9366 47.29 54.4966 47.01C54.0566 46.73 53.3866 46.59 52.4866 46.59H50.0266V50.25ZM50.0266 42.93H52.2166C53.0766 42.93 53.6966 42.77 54.0766 42.45C54.4766 42.13 54.6766 41.66 54.6766 41.04C54.6766 40.5 54.4466 40.07 53.9866 39.75C53.5466 39.43 52.8766 39.27 51.9766 39.27C51.6766 39.27 51.3266 39.28 50.9266 39.3C50.5466 39.32 50.2466 39.35 50.0266 39.39V42.93ZM51.9766 54.48C51.6366 54.48 51.2366 54.47 50.7766 54.45C50.3166 54.43 49.8366 54.39 49.3366 54.33C48.8566 54.27 48.3766 54.19 47.8966 54.09C47.4166 54.01 46.9766 53.89 46.5766 53.73C45.4766 53.31 44.9266 52.58 44.9266 51.54V37.53C44.9266 37.11 45.0366 36.79 45.2566 36.57C45.4966 36.33 45.8166 36.14 46.2166 36C46.8966 35.76 47.7466 35.59 48.7666 35.49C49.7866 35.37 50.8366 35.31 51.9166 35.31C54.4766 35.31 56.4466 35.74 57.8266 36.6C59.2066 37.46 59.8966 38.79 59.8966 40.59C59.8966 41.49 59.6366 42.27 59.1166 42.93C58.5966 43.57 57.8966 44.04 57.0166 44.34C58.0166 44.62 58.8466 45.13 59.5066 45.87C60.1866 46.61 60.5266 47.54 60.5266 48.66C60.5266 50.64 59.7866 52.11 58.3066 53.07C56.8466 54.01 54.7366 54.48 51.9766 54.48Z" fill="#5AA4C6"/>
</g>
<defs>
<filter id="filter0_d_3104_9617" x="0" y="0.000488281" width="89.8286" height="127.999" filterUnits="userSpaceOnUse" color-interpolation-filters="sRGB">
<feFlood flood-opacity="0" result="BackgroundImageFix"/>
<feColorMatrix in="SourceAlpha" type="matrix" values="0 0 0 0 0 0 0 0 0 0 0 0 0 0 0 0 0 0 127 0" result="hardAlpha"/>
<feOffset dy="4"/>
<feGaussianBlur stdDeviation="2"/>
<feComposite in2="hardAlpha" operator="out"/>
<feColorMatrix type="matrix" values="0 0 0 0 0 0 0 0 0 0 0 0 0 0 0 0 0 0 0.25 0"/>
<feBlend mode="normal" in2="BackgroundImageFix" result="effect1_dropShadow_3104_9617"/>
<feBlend mode="normal" in="SourceGraphic" in2="effect1_dropShadow_3104_9617" result="shape"/>
</filter>
<linearGradient id="paint0_linear_3104_9617" x1="88.5" y1="120" x2="-12" y2="120" gradientUnits="userSpaceOnUse">
<stop stop-color="#5AA4C6"/>
<stop offset="1" stop-color="#5AA4C6" stop-opacity="0"/>
</linearGradient>
<linearGradient id="paint1_linear_3104_9617" x1="44.9142" y1="0.000488281" x2="44.9142" y2="93.3207" gradientUnits="userSpaceOnUse">
<stop stop-color="#9FCDE2"/>
<stop offset="1" stop-color="#5AA4C6"/>
</linearGradient>
</defs>
</svg>
