<svg width="128" height="128" viewBox="0 0 128 128" fill="none" xmlns="http://www.w3.org/2000/svg">
<path d="M60.3552 5.51105C52.6982 6.02888 45.2377 8.02683 38.3922 11.3902Z" fill="white"/>
<path d="M60.3552 5.51105C52.6982 6.02888 45.2377 8.02683 38.3922 11.3902" stroke="#F0F0F0" stroke-width="5" stroke-miterlimit="10" stroke-linecap="round"/>
<path d="M5.49023 68.3638C5.92572 74.7981 7.41393 81.1557 9.94879 87.1862C10.3939 88.2572 10.8773 89.2944 11.3917 90.3254" fill="white"/>
<path d="M5.49023 68.3638C5.92572 74.7981 7.41393 81.1557 9.94879 87.1862C10.3939 88.2572 10.8773 89.2944 11.3917 90.3254" stroke="#F0F0F0" stroke-width="5" stroke-miterlimit="10" stroke-linecap="round"/>
<path d="M90.3222 11.3959C83.4766 8.03896 76.0131 6.0318 68.3565 5.51021Z" fill="white"/>
<path d="M90.3222 11.3959C83.4766 8.03896 76.0131 6.0318 68.3565 5.51021" stroke="#F0F0F0" stroke-width="5" stroke-miterlimit="10" stroke-linecap="round"/>
<path d="M11.3809 38.4053C9.68092 41.8809 8.30052 45.53 7.30029 49.3175C6.34032 52.9548 5.74285 56.6599 5.49517 60.371" fill="white"/>
<path d="M11.3809 38.4053C9.68092 41.8809 8.30052 45.53 7.30029 49.3175C6.34032 52.9548 5.74285 56.6599 5.49517 60.371" stroke="#F0F0F0" stroke-width="5" stroke-miterlimit="10" stroke-linecap="round"/>
<path d="M31.4688 15.3989C30.3879 16.1269 29.3307 16.8758 28.2899 17.673C23.233 21.5741 18.8989 26.2473 15.3822 31.4762" fill="white"/>
<path d="M31.4688 15.3989C30.3879 16.1269 29.3307 16.8758 28.2899 17.673C23.233 21.5741 18.8989 26.2473 15.3822 31.4762" stroke="#F0F0F0" stroke-width="5" stroke-miterlimit="10" stroke-linecap="round"/>
<path d="M97.2464 113.33C103.62 109.05 109.081 103.588 113.333 97.2529Z" fill="white"/>
<path d="M97.2464 113.33C103.62 109.05 109.081 103.588 113.333 97.2529" stroke="#F0F0F0" stroke-width="5" stroke-miterlimit="10" stroke-linecap="round"/>
<path d="M117.326 90.3287C117.877 89.2025 118.4 88.069 118.886 86.9108C121.343 80.966 122.795 74.7007 123.226 68.3667" fill="white"/>
<path d="M117.326 90.3287C117.877 89.2025 118.4 88.069 118.886 86.9108C121.343 80.966 122.795 74.7007 123.226 68.3667" stroke="#F0F0F0" stroke-width="5" stroke-miterlimit="10" stroke-linecap="round"/>
<path d="M113.332 31.4701C109.769 26.1598 105.336 21.4215 100.181 17.4927C99.2277 16.7614 98.241 16.0725 97.242 15.4021" fill="white"/>
<path d="M113.332 31.4701C109.769 26.1598 105.336 21.4215 100.181 17.4927C99.2277 16.7614 98.241 16.0725 97.242 15.4021" stroke="#F0F0F0" stroke-width="5" stroke-miterlimit="10" stroke-linecap="round"/>
<path d="M123.211 60.3611C122.951 56.5506 122.329 52.753 121.325 49.014C120.329 45.3284 118.982 41.7758 117.318 38.3945" fill="white"/>
<path d="M123.211 60.3611C122.951 56.5506 122.329 52.753 121.325 49.014C120.329 45.3284 118.982 41.7758 117.318 38.3945" stroke="#F0F0F0" stroke-width="5" stroke-miterlimit="10" stroke-linecap="round"/>
<path d="M15.3834 97.2584C19.6387 103.589 25.0921 109.054 31.4556 113.336Z" fill="white"/>
<path d="M15.3834 97.2584C19.6387 103.589 25.0921 109.054 31.4556 113.336" stroke="#F0F0F0" stroke-width="5" stroke-miterlimit="10" stroke-linecap="round"/>
</svg>
