<svg width="90" height="128" viewBox="0 0 90 128" fill="none" xmlns="http://www.w3.org/2000/svg">
<g filter="url(#filter0_d_3104_9618)">
<path d="M76.8436 77.1561V118.518C76.8436 119.642 75.6335 120.351 74.6528 119.804L66.2999 115.137L44.987 103.231L23.4019 115.292L15.3231 119.804C14.3424 120.351 13.1323 119.644 13.1323 118.518V77.1561L14.3909 76.2816L18.5244 73.4066L20.1726 72.2581L44.987 54.9985L69.7343 72.2114L72.1674 73.9044L75.5179 76.235L76.8436 77.1561Z" fill="#D6F3B3"/>
<path d="M23.4037 73.4066V115.29L15.3249 119.802C14.3442 120.349 13.1342 119.642 13.1342 118.516V77.6706L12.7109 77.4245V73.4028H23.4037V73.4066Z" fill="#80C133"/>
<path opacity="0.5" d="M44.989 103.229L13.1343 84.7221V74.1039H76.8344L76.8194 118.553C76.8194 119.657 75.6336 120.352 74.6697 119.814L44.9871 103.229H44.989Z" fill="url(#paint0_linear_3104_9618)"/>
<path d="M76.9925 73.9044V77.4991L76.8415 77.5867V118.518C76.8415 119.642 75.6315 120.35 74.6507 119.804L66.2979 115.137V73.9062H76.9907L76.9925 73.9044Z" fill="#80C133"/>
<path d="M85.8284 27.4582V70.099C85.8284 71.5234 85.0677 72.8379 83.8353 73.5501L76.9945 77.4991L76.8435 77.5867L66.2998 83.6743L46.9074 94.8723C45.6749 95.5846 44.1535 95.5846 42.9192 94.8723L23.4018 83.6034L13.1322 77.6743L12.709 77.4282L5.99313 73.5501C4.76071 72.8379 4 71.5234 4 70.099V27.4582C4 26.0338 4.76071 24.7193 5.99313 24.0071L42.9211 2.6867C44.1535 1.97447 45.6749 1.97447 46.9092 2.6867L83.8353 24.0071C85.0677 24.7193 85.8284 26.0338 85.8284 27.4582Z" fill="#67A51E"/>
<path d="M4 25.2153V68.1058C4 69.452 4.71783 70.6975 5.88499 71.3705L43.0292 92.8158C44.1964 93.4889 45.632 93.4889 46.7992 92.8158L83.9434 71.3705C85.1087 70.6975 85.8284 69.452 85.8284 68.1058V25.2153C85.8284 23.8691 85.1106 22.6236 83.9434 21.9506L46.7992 0.505267C45.6339 -0.167812 44.1964 -0.167812 43.0292 0.505267L5.88499 21.9506C4.71783 22.6236 4 23.8691 4 25.2153Z" fill="url(#paint1_linear_3104_9618)"/>
<path opacity="0.8" d="M10.0019 28.5343V64.0639C10.0019 65.4101 10.7197 66.6555 11.8869 67.3286L42.6564 85.0934C43.8236 85.7665 45.2592 85.7665 46.4264 85.0934L77.196 67.3286C78.3631 66.6555 79.081 65.4101 79.081 64.0639V28.5343C79.081 27.1882 78.3631 25.9427 77.196 25.2696L46.4245 7.50481C45.2592 6.83173 43.8217 6.83173 42.6546 7.50481L11.885 25.2696C10.7178 25.9427 10 27.1882 10 28.5343H10.0019Z" fill="#EBFFD3"/>
<path d="M34.606 35.31C35.746 35.31 36.756 35.46 37.636 35.76C38.516 36.04 39.266 36.43 39.886 36.93C40.506 37.43 40.976 38.02 41.296 38.7C41.616 39.38 41.776 40.11 41.776 40.89C41.776 42.99 40.586 44.99 38.206 46.89L34.276 50.04H41.476C41.596 50.26 41.706 50.54 41.806 50.88C41.926 51.22 41.986 51.59 41.986 51.99C41.986 52.71 41.826 53.23 41.506 53.55C41.186 53.85 40.766 54 40.246 54H29.836C29.396 53.7 29.046 53.32 28.786 52.86C28.546 52.38 28.426 51.82 28.426 51.18C28.426 50.5 28.566 49.93 28.846 49.47C29.126 48.99 29.436 48.61 29.776 48.33L33.916 44.79C34.436 44.35 34.866 43.96 35.206 43.62C35.546 43.26 35.816 42.94 36.016 42.66C36.236 42.38 36.386 42.12 36.466 41.88C36.566 41.64 36.616 41.41 36.616 41.19C36.616 40.63 36.366 40.19 35.866 39.87C35.386 39.55 34.786 39.39 34.066 39.39C33.266 39.39 32.546 39.52 31.906 39.78C31.286 40.02 30.766 40.28 30.346 40.56C30.006 40.32 29.726 40.02 29.506 39.66C29.286 39.3 29.176 38.88 29.176 38.4C29.176 37.36 29.666 36.59 30.646 36.09C31.626 35.57 32.946 35.31 34.606 35.31ZM50.0998 50.25C50.3798 50.33 50.7398 50.39 51.1798 50.43C51.6198 50.45 52.0398 50.46 52.4398 50.46C53.2398 50.46 53.8998 50.3 54.4198 49.98C54.9598 49.64 55.2298 49.12 55.2298 48.42C55.2298 47.76 55.0098 47.29 54.5698 47.01C54.1298 46.73 53.4598 46.59 52.5598 46.59H50.0998V50.25ZM50.0998 42.93H52.2898C53.1498 42.93 53.7698 42.77 54.1498 42.45C54.5498 42.13 54.7498 41.66 54.7498 41.04C54.7498 40.5 54.5198 40.07 54.0598 39.75C53.6198 39.43 52.9498 39.27 52.0498 39.27C51.7498 39.27 51.3998 39.28 50.9998 39.3C50.6198 39.32 50.3198 39.35 50.0998 39.39V42.93ZM52.0498 54.48C51.7098 54.48 51.3098 54.47 50.8498 54.45C50.3898 54.43 49.9098 54.39 49.4098 54.33C48.9298 54.27 48.4498 54.19 47.9698 54.09C47.4898 54.01 47.0498 53.89 46.6498 53.73C45.5498 53.31 44.9998 52.58 44.9998 51.54V37.53C44.9998 37.11 45.1098 36.79 45.3298 36.57C45.5698 36.33 45.8898 36.14 46.2898 36C46.9698 35.76 47.8198 35.59 48.8398 35.49C49.8598 35.37 50.9098 35.31 51.9898 35.31C54.5498 35.31 56.5198 35.74 57.8998 36.6C59.2798 37.46 59.9698 38.79 59.9698 40.59C59.9698 41.49 59.7098 42.27 59.1898 42.93C58.6698 43.57 57.9698 44.04 57.0898 44.34C58.0898 44.62 58.9198 45.13 59.5798 45.87C60.2598 46.61 60.5998 47.54 60.5998 48.66C60.5998 50.64 59.8598 52.11 58.3798 53.07C56.9198 54.01 54.8098 54.48 52.0498 54.48Z" fill="#80C133"/>
</g>
<defs>
<filter id="filter0_d_3104_9618" x="0" y="0.000457764" width="89.8286" height="127.999" filterUnits="userSpaceOnUse" color-interpolation-filters="sRGB">
<feFlood flood-opacity="0" result="BackgroundImageFix"/>
<feColorMatrix in="SourceAlpha" type="matrix" values="0 0 0 0 0 0 0 0 0 0 0 0 0 0 0 0 0 0 127 0" result="hardAlpha"/>
<feOffset dy="4"/>
<feGaussianBlur stdDeviation="2"/>
<feComposite in2="hardAlpha" operator="out"/>
<feColorMatrix type="matrix" values="0 0 0 0 0 0 0 0 0 0 0 0 0 0 0 0 0 0 0.25 0"/>
<feBlend mode="normal" in2="BackgroundImageFix" result="effect1_dropShadow_3104_9618"/>
<feBlend mode="normal" in="SourceGraphic" in2="effect1_dropShadow_3104_9618" result="shape"/>
</filter>
<linearGradient id="paint0_linear_3104_9618" x1="79.5" y1="120" x2="-13" y2="120" gradientUnits="userSpaceOnUse">
<stop stop-color="#6EBA60"/>
<stop offset="1" stop-color="#6EBA60" stop-opacity="0"/>
</linearGradient>
<linearGradient id="paint1_linear_3104_9618" x1="44.9142" y1="0.000457764" x2="44.9142" y2="93.3206" gradientUnits="userSpaceOnUse">
<stop stop-color="#B5E37F"/>
<stop offset="1" stop-color="#80C133"/>
</linearGradient>
</defs>
</svg>
