<svg width="90" height="128" viewBox="0 0 90 128" fill="none" xmlns="http://www.w3.org/2000/svg">
<g filter="url(#filter0_d_3104_8863)">
<path d="M76.8436 77.1561V118.518C76.8436 119.642 75.6335 120.351 74.6528 119.804L66.2999 115.137L44.987 103.231L23.4019 115.292L15.3231 119.804C14.3424 120.351 13.1323 119.644 13.1323 118.518V77.1561L14.3909 76.2816L18.5244 73.4066L20.1726 72.2581L44.987 54.9985L69.7343 72.2114L72.1674 73.9044L75.5179 76.235L76.8436 77.1561Z" fill="url(#paint0_linear_3104_8863)"/>
<path d="M23.4037 73.4066V115.29L15.3249 119.802C14.3442 120.349 13.1342 119.642 13.1342 118.516V77.6706L12.7109 77.4245V73.4028H23.4037V73.4066Z" fill="#ADC335"/>
<path opacity="0.5" d="M44.989 103.229L13.1343 84.7221V74.1039H76.8344L76.8194 118.553C76.8194 119.657 75.6336 120.352 74.6697 119.814L44.9871 103.229H44.989Z" fill="url(#paint1_linear_3104_8863)"/>
<path d="M76.9925 73.9044V77.4991L76.8415 77.5867V118.518C76.8415 119.642 75.6315 120.35 74.6507 119.804L66.2979 115.137V73.9062H76.9907L76.9925 73.9044Z" fill="#ADC335"/>
<path d="M85.8284 27.4582V70.099C85.8284 71.5234 85.0677 72.8379 83.8353 73.5501L76.9945 77.4991L76.8435 77.5867L66.2998 83.6743L46.9074 94.8723C45.6749 95.5846 44.1535 95.5846 42.9192 94.8723L23.4018 83.6034L13.1322 77.6743L12.709 77.4282L5.99313 73.5501C4.76071 72.8379 4 71.5234 4 70.099V27.4582C4 26.0338 4.76071 24.7193 5.99313 24.0071L42.9211 2.6867C44.1535 1.97447 45.6749 1.97447 46.9092 2.6867L83.8353 24.0071C85.0677 24.7193 85.8284 26.0338 85.8284 27.4582Z" fill="#8B9E22"/>
<path d="M4 25.2153V68.1058C4 69.452 4.71783 70.6975 5.88499 71.3705L43.0292 92.8158C44.1964 93.4889 45.632 93.4889 46.7992 92.8158L83.9434 71.3705C85.1087 70.6975 85.8284 69.452 85.8284 68.1058V25.2153C85.8284 23.8691 85.1106 22.6236 83.9434 21.9506L46.7992 0.505267C45.6339 -0.167812 44.1964 -0.167812 43.0292 0.505267L5.88499 21.9506C4.71783 22.6236 4 23.8691 4 25.2153Z" fill="url(#paint2_linear_3104_8863)"/>
<path opacity="0.8" d="M10.0019 28.5343V64.0639C10.0019 65.4101 10.7197 66.6555 11.8869 67.3286L42.6564 85.0934C43.8236 85.7665 45.2592 85.7665 46.4264 85.0934L77.196 67.3286C78.3631 66.6555 79.081 65.4101 79.081 64.0639V28.5343C79.081 27.1882 78.3631 25.9427 77.196 25.2696L46.4245 7.50481C45.2592 6.83173 43.8217 6.83173 42.6546 7.50481L11.885 25.2696C10.7178 25.9427 10 27.1882 10 28.5343H10.0019Z" fill="#F5FADD"/>
<path d="M34.4888 35.31C35.6288 35.31 36.6388 35.46 37.5188 35.76C38.3988 36.04 39.1488 36.43 39.7688 36.93C40.3888 37.43 40.8588 38.02 41.1788 38.7C41.4988 39.38 41.6588 40.11 41.6588 40.89C41.6588 42.99 40.4688 44.99 38.0888 46.89L34.1588 50.04H41.3588C41.4788 50.26 41.5888 50.54 41.6888 50.88C41.8088 51.22 41.8688 51.59 41.8688 51.99C41.8688 52.71 41.7088 53.23 41.3888 53.55C41.0688 53.85 40.6488 54 40.1288 54H29.7188C29.2788 53.7 28.9288 53.32 28.6688 52.86C28.4288 52.38 28.3088 51.82 28.3088 51.18C28.3088 50.5 28.4488 49.93 28.7288 49.47C29.0088 48.99 29.3188 48.61 29.6588 48.33L33.7988 44.79C34.3188 44.35 34.7488 43.96 35.0888 43.62C35.4288 43.26 35.6988 42.94 35.8988 42.66C36.1188 42.38 36.2688 42.12 36.3488 41.88C36.4488 41.64 36.4988 41.41 36.4988 41.19C36.4988 40.63 36.2488 40.19 35.7488 39.87C35.2688 39.55 34.6688 39.39 33.9488 39.39C33.1488 39.39 32.4288 39.52 31.7888 39.78C31.1688 40.02 30.6488 40.28 30.2288 40.56C29.8888 40.32 29.6088 40.02 29.3888 39.66C29.1688 39.3 29.0588 38.88 29.0588 38.4C29.0588 37.36 29.5488 36.59 30.5288 36.09C31.5088 35.57 32.8288 35.31 34.4888 35.31ZM48.7526 36.36C49.0926 36.16 49.6026 35.97 50.2826 35.79C50.9826 35.61 51.6826 35.52 52.3826 35.52C53.3826 35.52 54.2626 35.67 55.0226 35.97C55.8026 36.25 56.3026 36.7 56.5226 37.32C56.8826 38.36 57.2726 39.57 57.6926 40.95C58.1126 42.33 58.5326 43.76 58.9526 45.24C59.3726 46.7 59.7826 48.15 60.1826 49.59C60.5826 51.01 60.9326 52.27 61.2326 53.37C60.9926 53.65 60.6326 53.87 60.1526 54.03C59.6726 54.21 59.1026 54.3 58.4426 54.3C57.9626 54.3 57.5526 54.26 57.2126 54.18C56.8926 54.1 56.6226 53.98 56.4026 53.82C56.2026 53.66 56.0326 53.45 55.8926 53.19C55.7726 52.93 55.6626 52.63 55.5626 52.29L55.0226 50.22H49.5926C49.4326 50.82 49.2726 51.44 49.1126 52.08C48.9526 52.72 48.7926 53.34 48.6326 53.94C48.3526 54.04 48.0526 54.12 47.7326 54.18C47.4326 54.26 47.0626 54.3 46.6226 54.3C45.6026 54.3 44.8426 54.13 44.3426 53.79C43.8626 53.43 43.6226 52.94 43.6226 52.32C43.6226 52.04 43.6626 51.76 43.7426 51.48C43.8226 51.2 43.9126 50.87 44.0126 50.49C44.1526 49.95 44.3426 49.28 44.5826 48.48C44.8426 47.68 45.1226 46.82 45.4226 45.9C45.7226 44.96 46.0426 44 46.3826 43.02C46.7226 42.04 47.0426 41.12 47.3426 40.26C47.6426 39.38 47.9126 38.6 48.1526 37.92C48.4126 37.24 48.6126 36.72 48.7526 36.36ZM52.3526 40.23C52.0726 41.07 51.7526 42.01 51.3926 43.05C51.0526 44.07 50.7426 45.11 50.4626 46.17H54.1826C53.9026 45.09 53.6126 44.04 53.3126 43.02C53.0326 41.98 52.7726 41.05 52.5326 40.23H52.3526Z" fill="#ADC335"/>
</g>
<defs>
<filter id="filter0_d_3104_8863" x="0" y="0.000457764" width="89.8286" height="127.999" filterUnits="userSpaceOnUse" color-interpolation-filters="sRGB">
<feFlood flood-opacity="0" result="BackgroundImageFix"/>
<feColorMatrix in="SourceAlpha" type="matrix" values="0 0 0 0 0 0 0 0 0 0 0 0 0 0 0 0 0 0 127 0" result="hardAlpha"/>
<feOffset dy="4"/>
<feGaussianBlur stdDeviation="2"/>
<feComposite in2="hardAlpha" operator="out"/>
<feColorMatrix type="matrix" values="0 0 0 0 0 0 0 0 0 0 0 0 0 0 0 0 0 0 0.25 0"/>
<feBlend mode="normal" in2="BackgroundImageFix" result="effect1_dropShadow_3104_8863"/>
<feBlend mode="normal" in="SourceGraphic" in2="effect1_dropShadow_3104_8863" result="shape"/>
</filter>
<linearGradient id="paint0_linear_3104_8863" x1="13.1342" y1="87.4965" x2="76.8436" y2="87.4965" gradientUnits="userSpaceOnUse">
<stop stop-color="#EFF5CC"/>
<stop offset="1" stop-color="#CEE841"/>
</linearGradient>
<linearGradient id="paint1_linear_3104_8863" x1="79.5" y1="100.5" x2="-27.5" y2="97.0519" gradientUnits="userSpaceOnUse">
<stop stop-color="#ADC335"/>
<stop offset="1" stop-color="#ADC335" stop-opacity="0"/>
</linearGradient>
<linearGradient id="paint2_linear_3104_8863" x1="44.9142" y1="0.000457764" x2="44.9142" y2="93.3206" gradientUnits="userSpaceOnUse">
<stop stop-color="#DDE99E"/>
<stop offset="1" stop-color="#ADC335"/>
</linearGradient>
</defs>
</svg>
