<svg width="82" height="120" viewBox="0 0 82 120" fill="none" xmlns="http://www.w3.org/2000/svg">
<g clip-path="url(#clip0_3104_8866)">
<path d="M72.916 77.1561V118.518C72.916 119.642 71.7048 120.351 70.7231 119.804L62.3619 115.137L41.0296 103.231L19.4229 115.292L11.336 119.804C10.3543 120.351 9.14307 119.644 9.14307 118.518V77.1561L10.4028 76.2816L14.5405 73.4066L16.1904 72.2581L41.0296 54.9985L65.8015 72.2114L68.2371 73.9044L71.5909 76.235L72.9179 77.1561H72.916Z" fill="#EBDCC1"/>
<path d="M19.4232 73.4066V115.29L11.3363 119.802C10.3546 120.349 9.14339 119.642 9.14339 118.516V77.6706L8.71973 77.4245V73.4028H19.4232V73.4066Z" fill="#9A7E4B"/>
<path opacity="0.5" d="M41.0296 103.229L9.14307 84.7221V74.1039H72.9067L72.8918 118.553C72.8918 119.657 71.7048 120.352 70.7399 119.814L41.0277 103.229H41.0296Z" fill="url(#paint0_linear_3104_8866)"/>
<path d="M73.0657 73.9044V77.4991L72.9145 77.5868V118.518C72.9145 119.642 71.7033 120.351 70.7216 119.804L62.3604 115.137V73.9063H73.0638L73.0657 73.9044Z" fill="#9A7E4B"/>
<path d="M81.9101 27.4583V70.099C81.9101 71.5235 81.1486 72.8379 79.915 73.5502L73.0674 77.4991L72.9162 77.5868L62.362 83.6743L42.9502 94.8724C41.7165 95.5846 40.1936 95.5846 38.9581 94.8724L19.4212 83.6035L9.14135 77.6763L8.71769 77.4302L1.99512 73.552C0.761468 72.8398 0 71.5253 0 70.1009V27.4583C0 26.0338 0.761468 24.7194 1.99512 24.0071L38.9599 2.68676C40.1936 1.97453 41.7165 1.97453 42.952 2.68676L79.915 24.0071C81.1486 24.7194 81.9101 26.0338 81.9101 27.4583V27.4583Z" fill="#826A3E"/>
<path d="M0 25.2153V68.1059C0 69.452 0.718542 70.6975 1.88687 71.3706L39.0682 92.8159C40.2365 93.4889 41.6736 93.4889 42.8419 92.8159L80.0232 71.3706C81.1916 70.6975 81.9101 69.452 81.9101 68.1059V25.2153C81.9101 23.8691 81.1916 22.6237 80.0232 21.9506L42.8419 0.505297C41.6736 -0.167781 40.2365 -0.167781 39.0682 0.505297L1.88687 21.9506C0.718542 22.6237 0 23.8691 0 25.2153Z" fill="url(#paint1_linear_3104_8866)"/>
<path opacity="0.8" d="M6.00187 28.5343V64.0639C6.00187 65.4101 6.72041 66.6555 7.88874 67.3286L38.689 85.0934C39.8573 85.7665 41.2944 85.7665 42.4628 85.0934L73.263 67.3286C74.4295 66.6555 75.1499 65.4101 75.1499 64.0639V28.5343C75.1499 27.1882 74.4314 25.9427 73.263 25.2696L42.4609 7.50481C41.2926 6.83173 39.8555 6.83173 38.6871 7.50481L7.88687 25.2696C6.71854 25.9427 6 27.1882 6 28.5343H6.00187Z" fill="#FFF3DE"/>
<path d="M30.7588 54.48C29.8388 54.48 28.9988 54.41 28.2388 54.27C27.4988 54.13 26.8588 53.92 26.3188 53.64C25.7788 53.36 25.3588 53.02 25.0588 52.62C24.7588 52.2 24.6088 51.72 24.6088 51.18C24.6088 50.62 24.7688 50.15 25.0888 49.77C25.4088 49.39 25.7688 49.09 26.1688 48.87C26.7288 49.29 27.3288 49.66 27.9688 49.98C28.6088 50.28 29.4188 50.43 30.3988 50.43C31.3388 50.43 32.0088 50.22 32.4088 49.8C32.8088 49.38 33.0088 48.87 33.0088 48.27C33.0088 47.69 32.8288 47.21 32.4688 46.83C32.1288 46.45 31.5288 46.26 30.6688 46.26C30.1288 46.26 29.6788 46.32 29.3188 46.44C28.9588 46.56 28.5488 46.73 28.0888 46.95C27.1088 46.91 26.3288 46.65 25.7488 46.17C25.1888 45.67 24.9088 44.91 24.9088 43.89C24.9088 43.83 24.9088 43.76 24.9088 43.68C24.9088 43.58 24.9188 43.39 24.9388 43.11L25.2988 38.55C25.3588 37.69 25.6288 37.01 26.1088 36.51C26.5888 36.01 27.2588 35.76 28.1188 35.76H36.7588C36.8788 35.98 36.9988 36.27 37.1188 36.63C37.2388 36.99 37.2988 37.37 37.2988 37.77C37.2988 38.53 37.1288 39.07 36.7888 39.39C36.4488 39.71 36.0188 39.87 35.4988 39.87H29.7388L29.5288 42.69C29.9088 42.59 30.2888 42.5 30.6688 42.42C31.0688 42.34 31.5688 42.3 32.1688 42.3C33.2088 42.3 34.1088 42.46 34.8688 42.78C35.6288 43.08 36.2488 43.5 36.7288 44.04C37.2288 44.58 37.5888 45.21 37.8088 45.93C38.0488 46.65 38.1688 47.42 38.1688 48.24C38.1688 49.06 38.0288 49.85 37.7488 50.61C37.4688 51.37 37.0288 52.04 36.4288 52.62C35.8288 53.18 35.0588 53.63 34.1188 53.97C33.1988 54.31 32.0788 54.48 30.7588 54.48ZM44.7526 36.36C45.0926 36.16 45.6026 35.97 46.2826 35.79C46.9826 35.61 47.6826 35.52 48.3826 35.52C49.3826 35.52 50.2626 35.67 51.0226 35.97C51.8026 36.25 52.3026 36.7 52.5226 37.32C52.8826 38.36 53.2726 39.57 53.6926 40.95C54.1126 42.33 54.5326 43.76 54.9526 45.24C55.3726 46.7 55.7826 48.15 56.1826 49.59C56.5826 51.01 56.9326 52.27 57.2326 53.37C56.9926 53.65 56.6326 53.87 56.1526 54.03C55.6726 54.21 55.1026 54.3 54.4426 54.3C53.9626 54.3 53.5526 54.26 53.2126 54.18C52.8926 54.1 52.6226 53.98 52.4026 53.82C52.2026 53.66 52.0326 53.45 51.8926 53.19C51.7726 52.93 51.6626 52.63 51.5626 52.29L51.0226 50.22H45.5926C45.4326 50.82 45.2726 51.44 45.1126 52.08C44.9526 52.72 44.7926 53.34 44.6326 53.94C44.3526 54.04 44.0526 54.12 43.7326 54.18C43.4326 54.26 43.0626 54.3 42.6226 54.3C41.6026 54.3 40.8426 54.13 40.3426 53.79C39.8626 53.43 39.6226 52.94 39.6226 52.32C39.6226 52.04 39.6626 51.76 39.7426 51.48C39.8226 51.2 39.9126 50.87 40.0126 50.49C40.1526 49.95 40.3426 49.28 40.5826 48.48C40.8426 47.68 41.1226 46.82 41.4226 45.9C41.7226 44.96 42.0426 44 42.3826 43.02C42.7226 42.04 43.0426 41.12 43.3426 40.26C43.6426 39.38 43.9126 38.6 44.1526 37.92C44.4126 37.24 44.6126 36.72 44.7526 36.36ZM48.3526 40.23C48.0726 41.07 47.7526 42.01 47.3926 43.05C47.0526 44.07 46.7426 45.11 46.4626 46.17H50.1826C49.9026 45.09 49.6126 44.04 49.3126 43.02C49.0326 41.98 48.7726 41.05 48.5326 40.23H48.3526Z" fill="#9A7E4B"/>
</g>
<defs>
<linearGradient id="paint0_linear_3104_8866" x1="73" y1="120" x2="-6.5" y2="120" gradientUnits="userSpaceOnUse">
<stop stop-color="#9A7E4B"/>
<stop offset="1" stop-color="#9A7E4B" stop-opacity="0"/>
</linearGradient>
<linearGradient id="paint1_linear_3104_8866" x1="40.9551" y1="0.000488281" x2="40.9551" y2="93.3207" gradientUnits="userSpaceOnUse">
<stop stop-color="#C1AF8D"/>
<stop offset="1" stop-color="#9A7E4B"/>
</linearGradient>
<clipPath id="clip0_3104_8866">
<rect width="81.9101" height="120" fill="white"/>
</clipPath>
</defs>
</svg>
