<svg width="82" height="120" viewBox="0 0 82 120" fill="none" xmlns="http://www.w3.org/2000/svg">
<g clip-path="url(#clip0_3104_9624)">
<path d="M72.8437 77.1561V118.518C72.8437 119.642 71.6336 120.351 70.6529 119.804L62.3 115.137L40.989 103.231L19.4039 115.292L11.325 119.804C10.3443 120.351 9.13428 119.644 9.13428 118.518V77.1561L10.3928 76.2816L14.5264 73.4066L16.1746 72.2581L40.989 54.9985L65.7363 72.2114L68.1694 73.9044L71.5199 76.235L72.8455 77.1561H72.8437Z" fill="#FEC7BD"/>
<path d="M19.4037 73.4066V115.29L11.3249 119.802C10.3442 120.349 9.13418 119.642 9.13418 118.516V77.6706L8.71094 77.4245V73.4028H19.4037V73.4066Z" fill="#F55030"/>
<path opacity="0.5" d="M40.989 103.229L9.13428 84.7221V74.1039H72.8344L72.8194 118.553C72.8194 119.657 71.6336 120.352 70.6697 119.814L40.9871 103.229H40.989Z" fill="url(#paint0_linear_3104_9624)"/>
<path d="M72.9925 73.9044V77.4991L72.8415 77.5867V118.518C72.8415 119.642 71.6315 120.35 70.6507 119.804L62.2979 115.137V73.9062H72.9907L72.9925 73.9044Z" fill="#F55030"/>
<path d="M81.8284 27.4582V70.099C81.8284 71.5234 81.0677 72.8379 79.8353 73.5501L72.9945 77.4991L72.8435 77.5867L62.2998 83.6743L42.9074 94.8723C41.6749 95.5846 40.1535 95.5846 38.9192 94.8723L19.4018 83.6034L9.13224 77.6762L8.709 77.4301L1.99313 73.552C0.760709 72.8397 0 71.5253 0 70.1008V27.4582C0 26.0338 0.760709 24.7193 1.99313 24.0071L38.9211 2.6867C40.1535 1.97447 41.6749 1.97447 42.9092 2.6867L79.8353 24.0071C81.0677 24.7193 81.8284 26.0338 81.8284 27.4582Z" fill="#D83044"/>
<path d="M0 25.2153V68.1058C0 69.452 0.717826 70.6975 1.88499 71.3705L39.0292 92.8158C40.1964 93.4889 41.632 93.4889 42.7992 92.8158L79.9434 71.3705C81.1106 70.6975 81.8284 69.452 81.8284 68.1058V25.2153C81.8284 23.8691 81.1106 22.6236 79.9434 21.9506L42.7992 0.505267C41.632 -0.167812 40.1964 -0.167812 39.0292 0.505267L1.88499 21.9506C0.717826 22.6236 0 23.8691 0 25.2153Z" fill="url(#paint1_linear_3104_9624)"/>
<path opacity="0.8" d="M6.37638 28.8958V64.4254C6.37638 65.7715 7.0942 67.017 8.26137 67.6901L39.0309 85.4549C40.1981 86.1279 41.6338 86.1279 42.8009 85.4549L73.5705 67.6901C74.7358 67.017 75.4555 65.7715 75.4555 64.4254V28.8958C75.4555 27.5496 74.7377 26.3041 73.5705 25.6311L42.7991 7.86626C41.6319 7.19318 40.1962 7.19318 39.0291 7.86626L8.2595 25.6311C7.09234 26.3041 6.37451 27.5496 6.37451 28.8958H6.37638Z" fill="#FFE0DA"/>
<path d="M30.9742 41.62L27.9742 42.55C27.6742 42.35 27.3742 42.07 27.0742 41.71C26.7742 41.35 26.6242 40.85 26.6242 40.21C26.6242 39.01 27.3542 38.17 28.8142 37.69L32.1742 36.55H33.2842C34.1442 36.55 34.8242 36.8 35.3242 37.3C35.8242 37.8 36.0742 38.48 36.0742 39.34V54.97C35.8542 55.01 35.5242 55.06 35.0842 55.12C34.6642 55.2 34.2342 55.24 33.7942 55.24C33.3542 55.24 32.9542 55.21 32.5942 55.15C32.2542 55.09 31.9642 54.97 31.7242 54.79C31.4842 54.61 31.2942 54.37 31.1542 54.07C31.0342 53.75 30.9742 53.34 30.9742 52.84V41.62ZM45.1516 51.25C45.4316 51.33 45.7916 51.39 46.2316 51.43C46.6716 51.45 47.0916 51.46 47.4916 51.46C48.2916 51.46 48.9516 51.3 49.4716 50.98C50.0116 50.64 50.2816 50.12 50.2816 49.42C50.2816 48.76 50.0616 48.29 49.6216 48.01C49.1816 47.73 48.5116 47.59 47.6116 47.59H45.1516V51.25ZM45.1516 43.93H47.3416C48.2016 43.93 48.8216 43.77 49.2016 43.45C49.6016 43.13 49.8016 42.66 49.8016 42.04C49.8016 41.5 49.5716 41.07 49.1116 40.75C48.6716 40.43 48.0016 40.27 47.1016 40.27C46.8016 40.27 46.4516 40.28 46.0516 40.3C45.6716 40.32 45.3716 40.35 45.1516 40.39V43.93ZM47.1016 55.48C46.7616 55.48 46.3616 55.47 45.9016 55.45C45.4416 55.43 44.9616 55.39 44.4616 55.33C43.9816 55.27 43.5016 55.19 43.0216 55.09C42.5416 55.01 42.1016 54.89 41.7016 54.73C40.6016 54.31 40.0516 53.58 40.0516 52.54V38.53C40.0516 38.11 40.1616 37.79 40.3816 37.57C40.6216 37.33 40.9416 37.14 41.3416 37C42.0216 36.76 42.8716 36.59 43.8916 36.49C44.9116 36.37 45.9616 36.31 47.0416 36.31C49.6016 36.31 51.5716 36.74 52.9516 37.6C54.3316 38.46 55.0216 39.79 55.0216 41.59C55.0216 42.49 54.7616 43.27 54.2416 43.93C53.7216 44.57 53.0216 45.04 52.1416 45.34C53.1416 45.62 53.9716 46.13 54.6316 46.87C55.3116 47.61 55.6516 48.54 55.6516 49.66C55.6516 51.64 54.9116 53.11 53.4316 54.07C51.9716 55.01 49.8616 55.48 47.1016 55.48Z" fill="#F55030"/>
</g>
<defs>
<linearGradient id="paint0_linear_3104_9624" x1="9.13428" y1="97.0519" x2="72.8344" y2="97.0519" gradientUnits="userSpaceOnUse">
<stop stop-color="#FB672A"/>
<stop offset="1" stop-color="#FF3D17"/>
</linearGradient>
<linearGradient id="paint1_linear_3104_9624" x1="40.9142" y1="0.000457764" x2="40.9142" y2="93.3206" gradientUnits="userSpaceOnUse">
<stop stop-color="#FA7F67"/>
<stop offset="1" stop-color="#F55030"/>
</linearGradient>
<clipPath id="clip0_3104_9624">
<rect width="81.8284" height="120" fill="white"/>
</clipPath>
</defs>
</svg>
