<svg width="90" height="128" viewBox="0 0 90 128" fill="none" xmlns="http://www.w3.org/2000/svg">
<g filter="url(#filter0_d_3104_8862)">
<path d="M76.8436 77.1561V118.518C76.8436 119.642 75.6335 120.351 74.6528 119.804L66.2999 115.137L44.987 103.231L23.4019 115.292L15.3231 119.804C14.3424 120.351 13.1323 119.644 13.1323 118.518V77.1561L14.3909 76.2816L18.5244 73.4066L20.1726 72.2581L44.987 54.9985L69.7343 72.2114L72.1674 73.9044L75.5179 76.235L76.8436 77.1561Z" fill="#BCE7ED"/>
<path d="M23.4037 73.4066V115.29L15.3249 119.802C14.3442 120.349 13.1342 119.642 13.1342 118.516V77.6706L12.7109 77.4245V73.4028H23.4037V73.4066Z" fill="#60B0AD"/>
<path opacity="0.5" d="M44.989 103.229L13.1343 84.7221V74.1039H76.8344L76.8194 118.553C76.8194 119.657 75.6336 120.352 74.6697 119.814L44.9871 103.229H44.989Z" fill="url(#paint0_linear_3104_8862)"/>
<path d="M76.9925 73.9044V77.4991L76.8415 77.5868V118.518C76.8415 119.642 75.6315 120.351 74.6507 119.804L66.2979 115.137V73.9063H76.9907L76.9925 73.9044Z" fill="#60B0AD"/>
<path d="M85.8284 27.4583V70.099C85.8284 71.5235 85.0677 72.8379 83.8353 73.5502L76.9945 77.4991L76.8435 77.5868L66.2998 83.6743L46.9074 94.8724C45.6749 95.5846 44.1535 95.5846 42.9192 94.8724L23.4018 83.6035L13.1322 77.6744L12.709 77.4283L5.99313 73.5502C4.76071 72.8379 4 71.5235 4 70.099V27.4583C4 26.0338 4.76071 24.7194 5.99313 24.0071L42.9211 2.68676C44.1535 1.97453 45.6749 1.97453 46.9092 2.68676L83.8353 24.0071C85.0677 24.7194 85.8284 26.0338 85.8284 27.4583Z" fill="#4A8785"/>
<path d="M4 25.2153V68.1059C4 69.452 4.71783 70.6975 5.88499 71.3706L43.0292 92.8159C44.1964 93.4889 45.632 93.4889 46.7992 92.8159L83.9434 71.3706C85.1087 70.6975 85.8284 69.452 85.8284 68.1059V25.2153C85.8284 23.8691 85.1106 22.6237 83.9434 21.9506L46.7992 0.505297C45.6339 -0.167781 44.1964 -0.167781 43.0292 0.505297L5.88499 21.9506C4.71783 22.6237 4 23.8691 4 25.2153Z" fill="url(#paint1_linear_3104_8862)"/>
<path opacity="0.8" d="M10.0019 28.5343V64.0639C10.0019 65.4101 10.7197 66.6555 11.8869 67.3286L42.6564 85.0934C43.8236 85.7665 45.2592 85.7665 46.4264 85.0934L77.196 67.3286C78.3631 66.6555 79.081 65.4101 79.081 64.0639V28.5343C79.081 27.1882 78.3631 25.9427 77.196 25.2696L46.4245 7.50481C45.2592 6.83173 43.8217 6.83173 42.6546 7.50481L11.885 25.2696C10.7178 25.9427 10 27.1882 10 28.5343H10.0019Z" fill="#D2F4F3"/>
<path d="M34.322 35.31C36.622 35.31 38.372 35.79 39.572 36.75C40.772 37.69 41.372 38.96 41.372 40.56C41.372 41.52 41.112 42.34 40.592 43.02C40.092 43.68 39.492 44.18 38.792 44.52C39.212 44.68 39.602 44.88 39.962 45.12C40.322 45.36 40.642 45.66 40.922 46.02C41.202 46.38 41.422 46.8 41.582 47.28C41.742 47.76 41.822 48.32 41.822 48.96C41.822 49.82 41.632 50.59 41.252 51.27C40.892 51.95 40.382 52.53 39.722 53.01C39.062 53.49 38.272 53.85 37.352 54.09C36.452 54.35 35.462 54.48 34.382 54.48C32.302 54.48 30.732 54.19 29.672 53.61C28.612 53.03 28.082 52.29 28.082 51.39C28.082 50.85 28.212 50.39 28.472 50.01C28.732 49.61 29.052 49.3 29.432 49.08C29.832 49.36 30.362 49.66 31.022 49.98C31.702 50.28 32.582 50.43 33.662 50.43C34.682 50.43 35.432 50.25 35.912 49.89C36.412 49.53 36.662 49.06 36.662 48.48C36.662 47.9 36.462 47.46 36.062 47.16C35.682 46.86 35.012 46.71 34.052 46.71H31.232C31.092 46.49 30.972 46.22 30.872 45.9C30.772 45.58 30.722 45.2 30.722 44.76C30.722 44.3 30.762 43.91 30.842 43.59C30.942 43.25 31.072 42.97 31.232 42.75H34.052C35.492 42.75 36.212 42.2 36.212 41.1C36.212 40.58 35.982 40.16 35.522 39.84C35.062 39.52 34.372 39.36 33.452 39.36C32.632 39.36 31.912 39.46 31.292 39.66C30.672 39.84 30.162 40.07 29.762 40.35C29.422 40.11 29.142 39.82 28.922 39.48C28.702 39.12 28.592 38.7 28.592 38.22C28.592 37.22 29.112 36.49 30.152 36.03C31.192 35.55 32.582 35.31 34.322 35.31ZM48.6794 36.36C49.0194 36.16 49.5294 35.97 50.2094 35.79C50.9094 35.61 51.6094 35.52 52.3094 35.52C53.3094 35.52 54.1894 35.67 54.9494 35.97C55.7294 36.25 56.2294 36.7 56.4494 37.32C56.8094 38.36 57.1994 39.57 57.6194 40.95C58.0394 42.33 58.4594 43.76 58.8794 45.24C59.2994 46.7 59.7094 48.15 60.1094 49.59C60.5094 51.01 60.8594 52.27 61.1594 53.37C60.9194 53.65 60.5594 53.87 60.0794 54.03C59.5994 54.21 59.0294 54.3 58.3694 54.3C57.8894 54.3 57.4794 54.26 57.1394 54.18C56.8194 54.1 56.5494 53.98 56.3294 53.82C56.1294 53.66 55.9594 53.45 55.8194 53.19C55.6994 52.93 55.5894 52.63 55.4894 52.29L54.9494 50.22H49.5194C49.3594 50.82 49.1994 51.44 49.0394 52.08C48.8794 52.72 48.7194 53.34 48.5594 53.94C48.2794 54.04 47.9794 54.12 47.6594 54.18C47.3594 54.26 46.9894 54.3 46.5494 54.3C45.5294 54.3 44.7694 54.13 44.2694 53.79C43.7894 53.43 43.5494 52.94 43.5494 52.32C43.5494 52.04 43.5894 51.76 43.6694 51.48C43.7494 51.2 43.8394 50.87 43.9394 50.49C44.0794 49.95 44.2694 49.28 44.5094 48.48C44.7694 47.68 45.0494 46.82 45.3494 45.9C45.6494 44.96 45.9694 44 46.3094 43.02C46.6494 42.04 46.9694 41.12 47.2694 40.26C47.5694 39.38 47.8394 38.6 48.0794 37.92C48.3394 37.24 48.5394 36.72 48.6794 36.36ZM52.2794 40.23C51.9994 41.07 51.6794 42.01 51.3194 43.05C50.9794 44.07 50.6694 45.11 50.3894 46.17H54.1094C53.8294 45.09 53.5394 44.04 53.2394 43.02C52.9594 41.98 52.6994 41.05 52.4594 40.23H52.2794Z" fill="#60B0AD"/>
</g>
<defs>
<filter id="filter0_d_3104_8862" x="0" y="0.000488281" width="89.8286" height="127.999" filterUnits="userSpaceOnUse" color-interpolation-filters="sRGB">
<feFlood flood-opacity="0" result="BackgroundImageFix"/>
<feColorMatrix in="SourceAlpha" type="matrix" values="0 0 0 0 0 0 0 0 0 0 0 0 0 0 0 0 0 0 127 0" result="hardAlpha"/>
<feOffset dy="4"/>
<feGaussianBlur stdDeviation="2"/>
<feComposite in2="hardAlpha" operator="out"/>
<feColorMatrix type="matrix" values="0 0 0 0 0 0 0 0 0 0 0 0 0 0 0 0 0 0 0.25 0"/>
<feBlend mode="normal" in2="BackgroundImageFix" result="effect1_dropShadow_3104_8862"/>
<feBlend mode="normal" in="SourceGraphic" in2="effect1_dropShadow_3104_8862" result="shape"/>
</filter>
<linearGradient id="paint0_linear_3104_8862" x1="-9.5" y1="97.0519" x2="76.8344" y2="97.0519" gradientUnits="userSpaceOnUse">
<stop stop-color="#60B0AD" stop-opacity="0"/>
<stop offset="1" stop-color="#60B0AD"/>
</linearGradient>
<linearGradient id="paint1_linear_3104_8862" x1="44.9142" y1="0.000488281" x2="44.9142" y2="93.3207" gradientUnits="userSpaceOnUse">
<stop stop-color="#8FD3D1"/>
<stop offset="1" stop-color="#60B0AD"/>
</linearGradient>
</defs>
</svg>
