<svg width="90" height="128" viewBox="0 0 90 128" fill="none" xmlns="http://www.w3.org/2000/svg">
<g filter="url(#filter0_d_3104_9697)">
<path d="M76.8436 77.1561V118.518C76.8436 119.642 75.6335 120.351 74.6528 119.804L66.2999 115.137L44.987 103.231L23.4019 115.292L15.3231 119.804C14.3424 120.351 13.1323 119.644 13.1323 118.518V77.1561L14.3909 76.2816L18.5244 73.4066L20.1726 72.2581L44.987 54.9985L69.7343 72.2114L72.1674 73.9044L75.5179 76.235L76.8436 77.1561Z" fill="#BAD7F6"/>
<path d="M23.4037 73.4066V115.29L15.3249 119.802C14.3442 120.349 13.1342 119.642 13.1342 118.516V77.6706L12.7109 77.4245V73.4028H23.4037V73.4066Z" fill="#5390D1"/>
<path opacity="0.5" d="M44.989 103.229L13.1343 84.7221V74.1039H76.8344L76.8194 118.553C76.8194 119.657 75.6336 120.352 74.6697 119.814L44.9871 103.229H44.989Z" fill="url(#paint0_linear_3104_9697)"/>
<path d="M76.9925 73.9044V77.4991L76.8415 77.5868V118.518C76.8415 119.642 75.6315 120.351 74.6507 119.804L66.2979 115.137V73.9063H76.9907L76.9925 73.9044Z" fill="#5390D1"/>
<path d="M85.8284 27.4583V70.099C85.8284 71.5235 85.0677 72.8379 83.8353 73.5502L76.9945 77.4991L76.8435 77.5868L66.2998 83.6743L46.9074 94.8724C45.6749 95.5846 44.1535 95.5846 42.9192 94.8724L23.4018 83.6035L13.1322 77.6744L12.709 77.4283L5.99313 73.5502C4.76071 72.8379 4 71.5235 4 70.099V27.4583C4 26.0338 4.76071 24.7194 5.99313 24.0071L42.9211 2.68676C44.1535 1.97453 45.6749 1.97453 46.9092 2.68676L83.8353 24.0071C85.0677 24.7194 85.8284 26.0338 85.8284 27.4583Z" fill="#4678AE"/>
<path d="M4 25.2153V68.1059C4 69.452 4.71783 70.6975 5.88499 71.3706L43.0292 92.8159C44.1964 93.4889 45.632 93.4889 46.7992 92.8159L83.9434 71.3706C85.1087 70.6975 85.8284 69.452 85.8284 68.1059V25.2153C85.8284 23.8691 85.1106 22.6237 83.9434 21.9506L46.7992 0.505297C45.6339 -0.167781 44.1964 -0.167781 43.0292 0.505297L5.88499 21.9506C4.71783 22.6237 4 23.8691 4 25.2153Z" fill="url(#paint1_linear_3104_9697)"/>
<path opacity="0.8" d="M10.0019 28.5343V64.0639C10.0019 65.4101 10.7197 66.6555 11.8869 67.3286L42.6564 85.0934C43.8236 85.7665 45.2592 85.7665 46.4264 85.0934L77.196 67.3286C78.3631 66.6555 79.081 65.4101 79.081 64.0639V28.5343C79.081 27.1882 78.3631 25.9427 77.196 25.2696L46.4245 7.50481C45.2592 6.83173 43.8217 6.83173 42.6546 7.50481L11.885 25.2696C10.7178 25.9427 10 27.1882 10 28.5343H10.0019Z" fill="#D3E9FF"/>
<path d="M35.157 35.31C37.457 35.31 39.207 35.79 40.407 36.75C41.607 37.69 42.207 38.96 42.207 40.56C42.207 41.52 41.947 42.34 41.427 43.02C40.927 43.68 40.327 44.18 39.627 44.52C40.047 44.68 40.437 44.88 40.797 45.12C41.157 45.36 41.477 45.66 41.757 46.02C42.037 46.38 42.257 46.8 42.417 47.28C42.577 47.76 42.657 48.32 42.657 48.96C42.657 49.82 42.467 50.59 42.087 51.27C41.727 51.95 41.217 52.53 40.557 53.01C39.897 53.49 39.107 53.85 38.187 54.09C37.287 54.35 36.297 54.48 35.217 54.48C33.137 54.48 31.567 54.19 30.507 53.61C29.447 53.03 28.917 52.29 28.917 51.39C28.917 50.85 29.047 50.39 29.307 50.01C29.567 49.61 29.887 49.3 30.267 49.08C30.667 49.36 31.197 49.66 31.857 49.98C32.537 50.28 33.417 50.43 34.497 50.43C35.517 50.43 36.267 50.25 36.747 49.89C37.247 49.53 37.497 49.06 37.497 48.48C37.497 47.9 37.297 47.46 36.897 47.16C36.517 46.86 35.847 46.71 34.887 46.71H32.067C31.927 46.49 31.807 46.22 31.707 45.9C31.607 45.58 31.557 45.2 31.557 44.76C31.557 44.3 31.597 43.91 31.677 43.59C31.777 43.25 31.907 42.97 32.067 42.75H34.887C36.327 42.75 37.047 42.2 37.047 41.1C37.047 40.58 36.817 40.16 36.357 39.84C35.897 39.52 35.207 39.36 34.287 39.36C33.467 39.36 32.747 39.46 32.127 39.66C31.507 39.84 30.997 40.07 30.597 40.35C30.257 40.11 29.977 39.82 29.757 39.48C29.537 39.12 29.427 38.7 29.427 38.22C29.427 37.22 29.947 36.49 30.987 36.03C32.027 35.55 33.417 35.31 35.157 35.31ZM54.9143 39.48C53.3743 39.48 52.1943 39.95 51.3743 40.89C50.5543 41.83 50.1443 43.16 50.1443 44.88C50.1443 46.62 50.5943 47.96 51.4943 48.9C52.4143 49.84 53.6443 50.31 55.1843 50.31C56.0043 50.31 56.6943 50.2 57.2543 49.98C57.8343 49.76 58.3843 49.51 58.9043 49.23C59.2443 49.51 59.5043 49.85 59.6843 50.25C59.8843 50.63 59.9843 51.08 59.9843 51.6C59.9843 52.42 59.5243 53.12 58.6043 53.7C57.7043 54.26 56.3243 54.54 54.4643 54.54C53.1243 54.54 51.8643 54.35 50.6843 53.97C49.5043 53.59 48.4743 53.01 47.5943 52.23C46.7143 51.43 46.0143 50.43 45.4943 49.23C44.9943 48.01 44.7443 46.56 44.7443 44.88C44.7443 43.32 44.9843 41.95 45.4643 40.77C45.9643 39.57 46.6343 38.56 47.4743 37.74C48.3343 36.92 49.3343 36.3 50.4743 35.88C51.6143 35.46 52.8343 35.25 54.1343 35.25C55.9743 35.25 57.3943 35.55 58.3943 36.15C59.4143 36.75 59.9243 37.52 59.9243 38.46C59.9243 38.98 59.7943 39.43 59.5343 39.81C59.2743 40.19 58.9743 40.49 58.6343 40.71C58.1143 40.37 57.5543 40.08 56.9543 39.84C56.3743 39.6 55.6943 39.48 54.9143 39.48Z" fill="#5390D1"/>
</g>
<defs>
<filter id="filter0_d_3104_9697" x="0" y="0.000488281" width="89.8286" height="127.999" filterUnits="userSpaceOnUse" color-interpolation-filters="sRGB">
<feFlood flood-opacity="0" result="BackgroundImageFix"/>
<feColorMatrix in="SourceAlpha" type="matrix" values="0 0 0 0 0 0 0 0 0 0 0 0 0 0 0 0 0 0 127 0" result="hardAlpha"/>
<feOffset dy="4"/>
<feGaussianBlur stdDeviation="2"/>
<feComposite in2="hardAlpha" operator="out"/>
<feColorMatrix type="matrix" values="0 0 0 0 0 0 0 0 0 0 0 0 0 0 0 0 0 0 0.25 0"/>
<feBlend mode="normal" in2="BackgroundImageFix" result="effect1_dropShadow_3104_9697"/>
<feBlend mode="normal" in="SourceGraphic" in2="effect1_dropShadow_3104_9697" result="shape"/>
</filter>
<linearGradient id="paint0_linear_3104_9697" x1="77" y1="91.5" x2="-17" y2="91.5" gradientUnits="userSpaceOnUse">
<stop stop-color="#5390D1"/>
<stop offset="1" stop-color="#5390D1" stop-opacity="0"/>
</linearGradient>
<linearGradient id="paint1_linear_3104_9697" x1="44.9142" y1="0.000488281" x2="44.9142" y2="93.3207" gradientUnits="userSpaceOnUse">
<stop stop-color="#92C1F2"/>
<stop offset="1" stop-color="#5390D1"/>
</linearGradient>
</defs>
</svg>
