<svg width="169" height="180" viewBox="0 0 169 180" fill="none" xmlns="http://www.w3.org/2000/svg">
<g clip-path="url(#clip0_2238_49966)">
<path fill-rule="evenodd" clip-rule="evenodd" d="M92.7606 196.028L92.7009 195.975C108.681 181.426 124.964 175.622 140.639 174.903C134.41 166.179 130.029 154.716 128.791 140.77C144.848 140.833 157.993 145.34 167.665 152.346C169.22 146.848 173.144 141.309 177.91 135.788V217.602H140.321C140.427 217.453 140.53 217.303 140.636 217.156C124.957 216.437 108.675 210.633 92.6976 196.084L92.7573 196.031L92.7606 196.028Z" fill="#FFAC41"/>
<path d="M134.797 154.124C134.658 153.984 134.658 153.757 134.797 153.621C134.936 153.481 135.162 153.481 135.298 153.621L169 187.441V188.449L134.797 154.127V154.124Z" fill="#854100"/>
<path fill-rule="evenodd" clip-rule="evenodd" d="M119.43 168.785V168.855C100.169 167.916 86.2219 161.256 75.8601 151.767C74.3012 161.23 69.8533 171.258 61.8465 180.857C51.7368 170.632 46.2673 159.446 44.5658 148.885C38.0217 152.546 28.1873 153.015 18.2268 153.242C16.1505 119.781 39.3849 104.681 60.6391 109.876V109.866C60.596 109.8 60.5562 109.733 60.5164 109.663C60.5861 109.703 60.6524 109.743 60.7187 109.783H60.7287C55.5511 88.458 70.5996 65.1428 103.944 67.2263C103.715 77.2248 103.25 87.0901 99.602 93.657C110.13 95.3644 121.274 100.853 131.463 110.998C121.898 119.032 111.907 123.496 102.474 125.06C111.931 135.458 118.564 149.457 119.503 168.788H119.433L119.43 168.785ZM60.7254 109.786V109.793H60.7353L60.7254 109.786ZM60.6358 109.876V109.886L60.6425 109.876H60.6391H60.6358Z" fill="#FFAC41"/>
<path d="M34.466 83.9748C34.3433 83.8517 34.3433 83.6486 34.466 83.5255C34.5888 83.4023 34.7911 83.4023 34.9138 83.5255L101.499 150.343C101.622 150.466 101.622 150.669 101.499 150.792C101.376 150.915 101.174 150.915 101.051 150.792L34.466 83.9748Z" fill="#854100"/>
<path d="M60.8315 162.954C60.8315 163.13 60.6888 163.273 60.5131 163.273C60.3373 163.273 60.1946 163.13 60.1946 162.954V110.432L32.6218 138.101C32.4991 138.224 32.2968 138.224 32.174 138.101C32.0513 137.978 32.0513 137.775 32.174 137.652L60.2908 109.437C60.3472 109.38 60.4268 109.344 60.5164 109.344C60.6922 109.344 60.8348 109.487 60.8348 109.663V162.954H60.8315Z" fill="#854100"/>
<path d="M113.619 109.344C113.795 109.344 113.937 109.487 113.937 109.663C113.937 109.84 113.795 109.983 113.619 109.983H60.5131C60.3373 109.983 60.1946 109.84 60.1946 109.663C60.1946 109.577 60.2311 109.497 60.2875 109.437L88.4043 81.2222C88.527 81.0991 88.7293 81.0991 88.8521 81.2222C88.9748 81.3454 88.9748 81.5484 88.8521 81.6716L61.2792 109.34H113.619V109.344Z" fill="#854100"/>
<path fill-rule="evenodd" clip-rule="evenodd" d="M8.89324 68.0419H8.84348C9.51017 54.2724 14.2367 44.2973 20.9765 36.8883C14.2566 35.7767 7.13863 32.5947 0.32254 26.8699C7.58309 19.6407 15.5236 15.7299 23.0229 14.515C20.4225 9.8353 20.0909 2.80577 19.9283 -4.31695C43.6868 -5.8014 54.4068 10.8105 50.7185 26.0045H50.7251C50.7749 25.9746 50.8213 25.9446 50.8678 25.918C50.8412 25.9679 50.8114 26.0145 50.7815 26.0611V26.0678C65.9229 22.3666 82.4772 33.1273 80.9979 56.9651C73.8998 56.802 66.8947 56.4692 62.2312 53.8597C61.0206 61.3852 57.1233 69.3566 49.9191 76.6391C44.2142 69.7993 41.0433 62.6566 39.9355 55.9133C32.5522 62.6732 22.615 67.4195 8.88992 68.0885V68.0386L8.89324 68.0419ZM50.7848 26.0678V26.0744L50.7881 26.0678H50.7848ZM50.7218 26.0045H50.7152L50.7218 26.0079V26.0045Z" fill="#FFAC41"/>
<path d="M69.1104 7.29562C69.1999 7.20908 69.3425 7.20908 69.4288 7.29562C69.5183 7.38548 69.5183 7.5286 69.4288 7.61514L21.9848 55.2242C21.8952 55.3141 21.7526 55.3141 21.6664 55.2242C21.5768 55.1343 21.5768 54.9912 21.6664 54.9047L69.1104 7.29562Z" fill="#854100"/>
<path d="M13.0326 26.1444C12.9066 26.1444 12.8071 26.0445 12.8071 25.918C12.8071 25.7916 12.9099 25.6917 13.0326 25.6917H50.3238L30.6782 5.97775C30.5886 5.88788 30.5886 5.74476 30.6782 5.65822C30.7677 5.56835 30.9104 5.56835 30.9966 5.65822L51.0303 25.7616C51.0701 25.8015 51.0966 25.8581 51.0966 25.9214C51.0966 26.0478 50.9938 26.1477 50.8711 26.1477H13.0326V26.1444Z" fill="#854100"/>
<path d="M51.0966 63.8881C51.0966 64.0146 50.9938 64.1144 50.871 64.1144C50.7483 64.1144 50.6455 64.0112 50.6455 63.8881V25.918C50.6455 25.7915 50.745 25.6917 50.871 25.6917C50.9341 25.6917 50.9905 25.7183 51.0303 25.7582L71.0639 45.8616C71.1535 45.9515 71.1535 46.0946 71.0639 46.1811C70.9744 46.271 70.8317 46.271 70.7455 46.1811L51.0999 26.4672V63.8881H51.0966Z" fill="#854100"/>
<path fill-rule="evenodd" clip-rule="evenodd" d="M155.704 63.3896V63.4476C142.984 62.6831 133.773 57.2528 126.927 49.5133C125.898 57.2317 122.958 65.4088 117.674 73.2379C110.994 64.8974 107.382 55.7766 106.259 47.1619C101.937 50.146 95.4444 50.5308 88.8628 50.7154C87.4929 23.4268 102.834 11.1111 116.874 15.3499V15.3393C116.844 15.2813 116.819 15.2286 116.793 15.1759C116.84 15.2075 116.883 15.2444 116.925 15.2761H116.934C115.87 9.87741 116.1 4.32058 117.576 -0.724854H143.635C143.345 0.287396 143.005 1.24165 142.609 2.12737C149.561 3.51921 156.925 7.99526 163.652 16.2725C157.334 22.8258 150.735 26.4635 144.507 27.7394C150.752 36.2223 155.134 47.6364 155.751 63.4001H155.704V63.3896ZM116.934 15.2708H116.938H116.929H116.934ZM116.874 15.3446V15.3552V15.3499V15.3446Z" fill="#FFAC41"/>
<path d="M104.52 -0.724854L143.982 48.7354C144.062 48.8364 144.062 49.0011 143.982 49.102C143.901 49.203 143.77 49.203 143.689 49.102L103.931 -0.724854H104.52Z" fill="#854100"/>
<path d="M117.297 58.7237C117.297 58.865 117.2 58.9802 117.081 58.9802C116.963 58.9802 116.866 58.865 116.866 58.7237V16.1948L98.0612 38.5977C97.9777 38.6972 97.8415 38.6972 97.7536 38.5977C97.6701 38.4983 97.6701 38.336 97.7536 38.2313L116.932 15.3887C116.971 15.3416 117.024 15.3154 117.086 15.3154C117.204 15.3154 117.301 15.4306 117.301 15.5719V58.7237H117.297Z" fill="#854100"/>
<path d="M151.855 14.8024C151.97 14.8024 152.064 14.9175 152.064 15.0588C152.064 15.2001 151.97 15.3153 151.855 15.3153H116.619C116.504 15.3153 116.41 15.2001 116.41 15.0588C116.41 14.9856 116.431 14.9228 116.469 14.8757L129.215 -0.724854H129.809L117.128 14.8024H151.855Z" fill="#854100"/>
<rect x="142" y="15" width="11" height="15" fill="#FFAC41"/>
</g>
<defs>
<clipPath id="clip0_2238_49966">
<rect width="169" height="180" fill="white"/>
</clipPath>
</defs>
</svg>
