<svg width="242" height="180" viewBox="0 0 242 180" fill="none" xmlns="http://www.w3.org/2000/svg">
<g clip-path="url(#clip0_2238_49984)">
<path fill-rule="evenodd" clip-rule="evenodd" d="M23.9965 78.7199C25.0698 82.7269 29.2314 85.1269 33.2404 84.0541L44.2278 81.1114C58.134 77.3885 60.3018 75.2514 64.0265 61.3563L66.9833 50.3233C68.0566 46.3163 65.6555 42.1567 61.6466 41.0839C57.6376 40.0111 53.476 42.4111 52.4027 46.4181C50.9009 51.7226 47.0489 49.5473 47.5707 46.8506C47.8083 45.6336 48.4743 44.1962 48.6271 42.9665L50.9518 34.2996C52.0251 30.2926 49.624 26.1329 45.6151 25.0601C41.6061 23.9874 37.4445 26.3873 36.3712 30.3943L35.4845 33.7059C35.3827 33.8755 35.2597 34.0367 35.1112 34.1808C34.1482 35.1434 32.5913 35.1434 31.6283 34.1808C30.5296 33.0826 31.2932 31.8318 31.6623 30.441L34.1016 21.3415C35.1748 17.3345 32.7737 13.1749 28.7648 12.1021C24.7558 11.0293 20.5942 13.4293 19.5209 17.4363L18.6555 20.6715C18.5918 20.7563 18.5197 20.8327 18.4434 20.909C17.4804 21.8715 15.9235 21.8715 14.9605 20.909C12.9708 18.9203 13.7005 15.7783 8.54192 13.3699C4.49904 11.483 0.647065 12.2632 -1.86435 14.4978C-4.63879 16.9698 -5.77572 21.2228 -3.72247 25.6241C-1.31286 30.7802 1.82641 30.0509 3.81604 32.0395C4.77903 33.002 4.77903 34.5582 3.81604 35.5207C3.73968 35.597 3.65907 35.6649 3.57847 35.7327L-0.1123 36.7207C-4.12124 37.7935 -6.52236 41.9531 -5.44907 45.9601C-4.37577 49.9671 -0.214114 52.3671 3.79482 51.2943L13.3484 48.7374C14.7399 48.3643 15.9871 47.6011 17.0901 48.7035C18.0531 49.6661 18.0531 51.2222 17.0901 52.1847C16.9416 52.3331 16.7804 52.4561 16.6107 52.5579L13.2975 53.4483C9.28856 54.5211 6.88743 58.6807 7.96073 62.6877C9.03402 66.6947 13.1957 69.0947 17.2046 68.0219L25.8758 65.6983C27.1061 65.5414 28.5442 64.8757 29.7617 64.6425C32.4598 64.1209 34.6361 67.971 29.329 69.4721C25.3201 70.5448 22.9189 74.7045 23.9922 78.7115L23.9965 78.7199Z" fill="#FFAC41"/>
<path d="M57.2005 51.3494C57.2429 51.1925 57.3999 51.1035 57.5569 51.1416C57.7138 51.184 57.8029 51.3409 57.7647 51.4978L52.9158 69.5781L68.0183 84.6732C68.1328 84.7877 68.1328 84.97 68.0183 85.0845C67.9037 85.199 67.7213 85.199 67.6068 85.0845L52.5043 69.9894L34.4153 74.8359C34.2584 74.8783 34.1014 74.785 34.059 74.6281C34.0165 74.4712 34.1099 74.3144 34.2668 74.272L52.0334 69.5144L36.948 54.4363L18.8589 59.2828C18.702 59.3252 18.545 59.232 18.5026 59.0751C18.4602 58.9182 18.5535 58.7613 18.7105 58.7189L36.4771 53.9614L21.3916 38.8832L3.30256 43.7298C3.1456 43.7722 2.98863 43.6789 2.94621 43.522C2.90379 43.3651 2.99712 43.2082 3.15408 43.1658L20.9207 38.4083L4.90189 22.3973C4.78735 22.2828 4.78735 22.1005 4.90189 21.986C5.01644 21.8715 5.19885 21.8715 5.31339 21.986L21.3322 37.997L26.092 20.239C26.1344 20.0821 26.2914 19.9931 26.4483 20.0313C26.6053 20.0737 26.6944 20.2305 26.6562 20.3874L21.8073 38.4677L36.8928 53.5458L41.6526 35.7879C41.695 35.631 41.852 35.5419 42.009 35.5801C42.1659 35.6225 42.255 35.7794 42.2168 35.9363L37.3679 54.0165L52.4534 69.0947L57.2132 51.3367L57.2005 51.3494Z" fill="#663300"/>
<path fill-rule="evenodd" clip-rule="evenodd" d="M61.8119 112.256L49.8529 100.303C45.8737 96.3253 39.3618 96.3253 35.3783 100.303C31.8869 103.792 31.4585 109.224 34.0887 113.193L33.9571 113.061C30.6142 109.72 25.146 109.72 21.8031 113.061C18.4602 116.403 18.4602 121.868 21.8031 125.21L22.6346 126.041H14.2646C9.08476 126.041 4.84674 130.277 4.84674 135.454C4.84674 140.631 9.08476 144.867 14.2646 144.867H22.6346L21.8031 145.698C18.4602 149.039 18.4602 154.505 21.8031 157.846C25.146 161.188 30.6142 161.188 33.9571 157.846L34.0887 157.715C31.4585 161.684 31.8869 167.115 35.3783 170.605C39.3575 174.582 45.8694 174.582 49.8529 170.605L62.0112 158.457C68.854 151.618 73.7453 145.698 73.546 134.92C73.3508 124.357 68.5019 118.943 61.8161 112.256H61.8119Z" fill="#FF9966"/>
<path d="M45.6913 112.599C45.581 112.489 45.4071 112.489 45.2968 112.599C45.1865 112.71 45.1865 112.883 45.2968 112.994L67.6323 135.318H43.9096L28.1792 119.596C28.069 119.485 27.895 119.485 27.7847 119.596C27.6744 119.706 27.6744 119.88 27.7847 119.99L43.1205 135.318H17.6881C17.5354 135.318 17.4081 135.441 17.4081 135.598C17.4081 135.755 17.5312 135.878 17.6881 135.878H43.095L27.7805 151.185C27.6702 151.295 27.6702 151.469 27.7805 151.579C27.8908 151.69 28.0647 151.69 28.175 151.579L43.8841 135.878H67.6068L45.2925 158.181C45.1822 158.292 45.1822 158.466 45.2925 158.576C45.4028 158.686 45.5768 158.686 45.6871 158.576L68.3959 135.878H89.4248C89.5775 135.878 89.7048 135.755 89.7048 135.598C89.7048 135.441 89.5818 135.318 89.4248 135.318H68.4214L45.6871 112.599H45.6913Z" fill="#663300"/>
<path fill-rule="evenodd" clip-rule="evenodd" d="M170.296 96.1675C176.533 55.6922 185.336 33.4642 242 25.2644C233.708 81.2924 211.229 90.0004 170.296 96.1675Z" fill="#FF6633"/>
<path d="M210.563 56.334V43.4597C210.563 43.3127 210.681 43.1938 210.828 43.1938C210.975 43.1938 211.094 43.3127 211.094 43.4597V55.7992L222.673 44.2167C222.776 44.1134 222.948 44.1134 223.052 44.2167C223.155 44.3199 223.155 44.4888 223.052 44.5951L211.473 56.1776H223.808C223.955 56.1776 224.074 56.2965 224.074 56.4435C224.074 56.5905 223.955 56.7094 223.808 56.7094H210.941L199.553 68.1011H217.68C217.826 68.1011 217.945 68.2199 217.945 68.3669C217.945 68.5139 217.826 68.6328 217.68 68.6328H199.018L186.738 80.9159H208.84C208.987 80.9159 209.105 81.0348 209.105 81.1818C209.105 81.3288 208.987 81.4477 208.84 81.4477H186.204L160.159 107.5C160.056 107.603 159.884 107.603 159.781 107.5C159.678 107.396 159.678 107.228 159.781 107.121L185.825 81.0692V58.4266C185.825 58.2796 185.944 58.1607 186.091 58.1607C186.238 58.1607 186.357 58.2796 186.357 58.4266V80.5343L198.636 68.2512V49.5841C198.636 49.4371 198.755 49.3182 198.902 49.3182C199.049 49.3182 199.168 49.4371 199.168 49.5841V67.7163L210.556 56.3246L210.563 56.334Z" fill="#663300"/>
<path fill-rule="evenodd" clip-rule="evenodd" d="M75.6755 66.1648H179.751V115.449C179.751 142.556 157.564 164.733 130.443 164.733H124.983C97.8626 164.733 75.6755 142.556 75.6755 115.449V66.1648Z" fill="#FFAC41"/>
<path d="M127.715 85.9028C156.456 85.9028 179.755 77.0658 179.755 66.1647C179.755 55.2636 156.456 46.4265 127.715 46.4265C98.9746 46.4265 75.6755 55.2636 75.6755 66.1647C75.6755 77.0658 98.9746 85.9028 127.715 85.9028Z" fill="#9B651E"/>
<path fill-rule="evenodd" clip-rule="evenodd" d="M175.818 126.007V87.4124H194.111C204.174 87.4124 212.404 95.6426 212.404 105.696V107.723C212.404 117.781 204.169 126.007 194.111 126.007H175.818Z" fill="#FFAC41"/>
<path d="M124.971 -23.3715C129.9 -22.4641 134.164 -21.0564 137.685 -19.0168C141.978 -16.5278 145.223 -13.2671 147.425 -9.60783C151.943 -2.10267 151.985 7.17489 147.59 14.7479C138.703 30.055 117.178 26.595 114.301 43.0258C114.026 44.5947 113.996 46.1933 114.191 47.7749C114.658 51.5317 116.423 55.174 119.32 58.104C123.333 62.1619 128.683 63.7944 134.155 64.6042C145.465 66.2791 143.017 75.103 133.697 73.9157C125.929 72.9278 118.612 70.5405 112.723 64.583C108.362 60.1732 105.698 54.644 104.985 48.8943C104.68 46.4265 104.735 43.9163 105.168 41.4273C109.253 18.0934 132.149 22.9103 139.581 10.1049C144.231 2.09513 140.599 -6.64393 133.044 -11.0241C130.295 -12.6184 126.88 -13.7124 122.824 -14.3611C113.372 -15.8749 114.352 -25.339 124.971 -23.3843V-23.3715Z" fill="#99CCCC"/>
</g>
<defs>
<clipPath id="clip0_2238_49984">
<rect width="242" height="180" fill="white"/>
</clipPath>
</defs>
</svg>
