<svg width="133" height="220" viewBox="0 0 133 220" fill="none" xmlns="http://www.w3.org/2000/svg">
<g clip-path="url(#clip0_2378_21604)">
<path fill-rule="evenodd" clip-rule="evenodd" d="M119.618 220.532L119.545 220.466C139.119 202.615 159.062 195.492 178.262 194.61C170.632 183.906 165.266 169.841 163.75 152.729C183.417 152.806 199.518 158.336 211.364 166.933C213.27 160.186 218.076 153.39 223.914 146.615V247.004H177.872C178.002 246.82 178.128 246.636 178.258 246.457C159.054 245.575 139.11 238.452 119.541 220.601L119.614 220.536L119.618 220.532Z" fill="#FFAC41"/>
<path fill-rule="evenodd" clip-rule="evenodd" d="M152.284 187.104V187.19C128.692 186.038 111.609 177.866 98.9174 166.222C97.0079 177.833 91.5599 190.138 81.7528 201.917C69.3699 189.371 62.6706 175.644 60.5865 162.686C52.5709 167.178 40.5252 167.754 28.3251 168.032C25.7819 126.975 54.2406 108.446 80.274 114.821V114.809C80.2211 114.727 80.1724 114.646 80.1236 114.56C80.209 114.609 80.2902 114.658 80.3715 114.707H80.3836C74.0419 88.5406 92.474 59.9321 133.316 62.4887C133.035 74.757 132.467 86.862 127.998 94.9198C140.892 97.0149 154.543 103.749 167.023 116.197C155.307 126.056 143.07 131.533 131.516 133.452C143.098 146.211 151.224 163.388 152.373 187.108H152.288L152.284 187.104ZM80.3796 114.711V114.719H80.3918L80.3796 114.711ZM80.2699 114.821V114.833L80.278 114.821H80.274H80.2699Z" fill="#FFAC41"/>
<path d="M48.2158 83.0394C48.0654 82.8883 48.0654 82.6392 48.2158 82.4881C48.3661 82.337 48.6139 82.337 48.7642 82.4881L130.321 164.475C130.472 164.626 130.472 164.875 130.321 165.026C130.171 165.177 129.923 165.177 129.773 165.026L48.2158 83.0394Z" fill="#854100"/>
<path d="M80.5095 179.949C80.5095 180.165 80.3348 180.341 80.1195 180.341C79.9042 180.341 79.7295 180.165 79.7295 179.949V115.503L45.9568 149.454C45.8065 149.605 45.5587 149.605 45.4084 149.454C45.2581 149.302 45.2581 149.053 45.4084 148.902L79.8473 114.282C79.9164 114.213 80.0139 114.168 80.1236 114.168C80.3389 114.168 80.5136 114.343 80.5136 114.56V179.949H80.5095Z" fill="#854100"/>
<path d="M145.166 114.168C145.382 114.168 145.556 114.343 145.556 114.56C145.556 114.776 145.382 114.952 145.166 114.952H80.1195C79.9042 114.952 79.7295 114.776 79.7295 114.56C79.7295 114.454 79.7742 114.356 79.8432 114.282L114.282 79.6619C114.432 79.5108 114.68 79.5108 114.831 79.6619C114.981 79.813 114.981 80.0621 114.831 80.2132L81.058 114.164H145.166V114.168Z" fill="#854100"/>
<path fill-rule="evenodd" clip-rule="evenodd" d="M16.8929 63.4893H16.8319C17.6485 46.5938 23.4377 34.354 31.693 25.263C23.4621 23.8989 14.7437 19.9946 6.39502 12.9701C15.2881 4.09968 25.0141 -0.699029 34.1997 -2.18969C31.0146 -7.9318 30.6083 -16.5572 30.4092 -25.297C59.5098 -27.1185 72.6402 -6.73519 68.1226 11.9083H68.1307C68.1917 11.8715 68.2486 11.8348 68.3054 11.8021C68.2729 11.8634 68.2364 11.9206 68.1998 11.9777V11.9859C86.7457 7.44448 107.022 20.6481 105.21 49.8977C96.5163 49.6976 87.9361 49.2892 82.224 46.0873C80.7411 55.3213 75.9675 65.1025 67.1435 74.0383C60.1558 65.6456 56.2719 56.8814 54.915 48.6072C45.8716 56.9018 33.7 62.7256 16.8888 63.5465V63.4852L16.8929 63.4893ZM68.2039 11.9859V11.9941L68.2079 11.9859H68.2039ZM68.1267 11.9083H68.1185L68.1267 11.9124V11.9083Z" fill="#FFAC41"/>
<path d="M90.6499 -11.0479C90.7596 -11.1541 90.9343 -11.1541 91.0399 -11.0479C91.1496 -10.9377 91.1496 -10.762 91.0399 -10.6559L32.9281 47.7618C32.8184 47.872 32.6437 47.872 32.5381 47.7618C32.4284 47.6515 32.4284 47.4759 32.5381 47.3697L90.6499 -11.0479Z" fill="#854100"/>
<path d="M21.963 12.0797C21.8086 12.0797 21.6868 11.9572 21.6868 11.802C21.6868 11.6468 21.8127 11.5243 21.963 11.5243H67.6392L43.5762 -12.6652C43.4665 -12.7755 43.4665 -12.9511 43.5762 -13.0573C43.6859 -13.1676 43.8606 -13.1676 43.9662 -13.0573L68.5045 11.6101C68.5533 11.6591 68.5858 11.7285 68.5858 11.8061C68.5858 11.9613 68.4598 12.0838 68.3095 12.0838H21.963V12.0797Z" fill="#854100"/>
<path d="M68.5857 58.3923C68.5857 58.5475 68.4598 58.6701 68.3095 58.6701C68.1591 58.6701 68.0332 58.5435 68.0332 58.3923V11.802C68.0332 11.6468 68.1551 11.5243 68.3095 11.5243C68.3866 11.5243 68.4557 11.557 68.5045 11.606L93.0427 36.2734C93.1524 36.3836 93.1524 36.5593 93.0427 36.6654C92.933 36.7757 92.7584 36.7757 92.6527 36.6654L68.5898 12.4759V58.3923H68.5857Z" fill="#854100"/>
<path fill-rule="evenodd" clip-rule="evenodd" d="M196.715 57.7809V57.852C181.134 56.914 169.852 50.2509 161.467 40.7543C160.206 50.225 156.605 60.2585 150.133 69.865C141.952 59.631 137.528 48.4395 136.152 37.8691C130.857 41.5306 122.905 42.0028 114.844 42.2293C113.166 8.74544 131.957 -6.36626 149.153 -1.16515V-1.17808C149.117 -1.24924 149.086 -1.31393 149.054 -1.37862C149.112 -1.33981 149.164 -1.29453 149.216 -1.25571H149.226C147.924 -7.88002 148.205 -14.6984 150.013 -20.8893H181.931C181.577 -19.6472 181.16 -18.4763 180.675 -17.3895C189.19 -15.6817 198.21 -10.1895 206.449 -0.0330599C198.711 8.00797 190.628 12.4716 182.999 14.0371C190.649 24.4458 196.017 38.4513 196.772 57.7938H196.715V57.7809ZM149.226 -1.26218H149.232H149.221H149.226ZM149.153 -1.17161V-1.15868V-1.16515V-1.17161Z" fill="#FFAC41"/>
<path d="M149.671 52.0555C149.671 52.2289 149.553 52.3702 149.407 52.3702C149.262 52.3702 149.144 52.2289 149.144 52.0555V-0.128634L126.11 27.3604C126.008 27.4824 125.841 27.4824 125.734 27.3604C125.631 27.2383 125.631 27.0392 125.734 26.9108L149.224 -1.11772C149.273 -1.17553 149.337 -1.20764 149.413 -1.20764C149.558 -1.20764 149.676 -1.06634 149.676 -0.892931V52.0555H149.671Z" fill="#854100"/>
</g>
<defs>
<clipPath id="clip0_2378_21604">
<rect width="133" height="220" fill="white"/>
</clipPath>
</defs>
</svg>
