<svg width="152" height="220" viewBox="0 0 152 220" fill="none" xmlns="http://www.w3.org/2000/svg">
<g clip-path="url(#clip0_2378_21621)">
<path fill-rule="evenodd" clip-rule="evenodd" d="M73.8672 159.525C80.3473 117.454 89.4939 94.3495 148.369 85.8264C139.753 144.063 116.397 153.115 73.8672 159.525Z" fill="#FF6633"/>
<path d="M115.705 118.121V104.739C115.705 104.586 115.828 104.463 115.981 104.463C116.134 104.463 116.257 104.586 116.257 104.739V117.565L128.288 105.526C128.395 105.419 128.574 105.419 128.681 105.526C128.788 105.633 128.788 105.809 128.681 105.919L116.65 117.958H129.467C129.62 117.958 129.743 118.082 129.743 118.235C129.743 118.388 129.62 118.511 129.467 118.511H116.098L104.265 130.352H123.099C123.252 130.352 123.375 130.475 123.375 130.628C123.375 130.781 123.252 130.905 123.099 130.905H103.71L90.9509 143.672H113.914C114.067 143.672 114.191 143.796 114.191 143.948C114.191 144.101 114.067 144.225 113.914 144.225H90.3953L63.3349 171.304C63.2276 171.411 63.049 171.411 62.9417 171.304C62.8345 171.197 62.8345 171.021 62.9417 170.91L90.0022 143.831V120.296C90.0022 120.143 90.1257 120.02 90.2784 120.02C90.4311 120.02 90.5545 120.143 90.5545 120.296V143.275L103.313 130.508V111.105C103.313 110.952 103.437 110.829 103.589 110.829C103.742 110.829 103.865 110.952 103.865 111.105V129.952L115.698 118.111L115.705 118.121Z" fill="#663300"/>
<path fill-rule="evenodd" clip-rule="evenodd" d="M-24.4453 128.339H83.691V179.566C83.691 207.742 60.6382 230.793 32.4592 230.793H26.7864C-1.39257 230.793 -24.4453 207.742 -24.4453 179.566V128.339Z" fill="#FFAC41"/>
<path d="M29.625 148.856C59.4873 148.856 83.6954 139.67 83.6954 128.339C83.6954 117.008 59.4873 107.823 29.625 107.823C-0.23719 107.823 -24.4453 117.008 -24.4453 128.339C-24.4453 139.67 -0.23719 148.856 29.625 148.856Z" fill="#9B651E"/>
<path fill-rule="evenodd" clip-rule="evenodd" d="M79.605 190.54V150.425H98.6114C109.067 150.425 117.618 158.979 117.618 169.429V171.536C117.618 181.99 109.062 190.54 98.6114 190.54H79.605Z" fill="#FFAC41"/>
<path d="M26.7733 35.2733C31.8951 36.2165 36.3249 37.6797 39.9834 39.7997C44.4441 42.3868 47.816 45.7761 50.1037 49.5796C54.798 57.3807 54.8421 67.024 50.2756 74.8956C41.0413 90.8062 18.6761 87.2098 15.6877 104.288C15.4012 105.919 15.3703 107.581 15.5731 109.225C16.0579 113.129 17.8916 116.915 20.9021 119.961C25.0718 124.179 30.6301 125.876 36.3161 126.717C48.0673 128.458 45.524 137.63 35.8401 136.396C27.7694 135.369 20.166 132.888 14.048 126.695C9.51676 122.112 6.74867 116.364 6.00816 110.388C5.6908 107.823 5.7481 105.214 6.19769 102.627C10.4424 78.373 34.2312 83.3797 41.9537 70.0695C46.7846 61.744 43.0115 52.6604 35.1613 48.1076C32.305 46.4504 28.7568 45.3133 24.5429 44.639C14.7224 43.0655 15.7406 33.2283 26.7733 35.2601V35.2733Z" fill="#99CCCC"/>
</g>
<defs>
<clipPath id="clip0_2378_21621">
<rect width="152" height="220" fill="white"/>
</clipPath>
</defs>
</svg>
