<svg width="197" height="180" viewBox="0 0 197 180" fill="none" xmlns="http://www.w3.org/2000/svg">
<g clip-path="url(#clip0_2238_48440)">
<path fill-rule="evenodd" clip-rule="evenodd" d="M61.6792 277.046L85.7338 301.082L203.04 183.858V135.783L61.6792 277.046Z" fill="#B1865C"/>
<path d="M49.3243 9.87772H30.5271V12.8051H49.3243V9.87772Z" fill="#8BBE33"/>
<path fill-rule="evenodd" clip-rule="evenodd" d="M0.34021 43.4453L32.4656 11.3421C36.9475 32.747 16.5204 47.9393 0.34021 43.4453Z" fill="#8BBE33"/>
<path fill-rule="evenodd" clip-rule="evenodd" d="M0.340228 43.4453L32.4656 11.3421C11.0459 6.86329 -4.15688 27.2763 0.340228 43.4453Z" fill="#99CC33"/>
<path fill-rule="evenodd" clip-rule="evenodd" d="M0.34021 -20.7625L32.4656 11.3407C36.9475 -10.0628 16.5204 -25.2566 0.34021 -20.7625Z" fill="#8BBE33"/>
<path fill-rule="evenodd" clip-rule="evenodd" d="M0.340245 -20.7625L32.4656 11.3407C11.0459 15.8209 -4.15825 -4.59346 0.340245 -20.7625Z" fill="#99CC33"/>
<path d="M107.023 14.036H88.2253V16.9634H107.023V14.036Z" fill="#8BBE33"/>
<path fill-rule="evenodd" clip-rule="evenodd" d="M137.208 47.6037L105.083 15.5004C100.601 36.9054 121.028 52.0977 137.208 47.6037Z" fill="#8BBE33"/>
<path fill-rule="evenodd" clip-rule="evenodd" d="M137.208 47.6037L105.083 15.5004C126.502 11.0216 141.705 31.4346 137.208 47.6037Z" fill="#99CC33"/>
<path fill-rule="evenodd" clip-rule="evenodd" d="M137.208 -16.6042L105.083 15.4991C100.601 -5.90588 121.028 -21.0982 137.208 -16.6042Z" fill="#8BBE33"/>
<path fill-rule="evenodd" clip-rule="evenodd" d="M137.208 -16.6042L105.083 15.499C126.502 19.9778 141.705 -0.435169 137.208 -16.6042Z" fill="#99CC33"/>
<path d="M93.0197 -28.4934H44.9049V301.339H93.0197V-28.4934Z" fill="#B1865C"/>
<path fill-rule="evenodd" clip-rule="evenodd" d="M9.98254 57.1926L67.5947 14.333L125.208 57.1926V213.918H67.5947H9.98254V57.1926Z" fill="#996633"/>
<path fill-rule="evenodd" clip-rule="evenodd" d="M64.0916 149.03C66.6533 146.47 70.8076 146.47 73.3692 149.03C75.9309 151.59 75.9309 155.74 73.3692 158.302L17.7146 213.918H9.98254V203.104L64.0916 149.032V149.03Z" fill="#84592C"/>
<path fill-rule="evenodd" clip-rule="evenodd" d="M24.0769 129.837L26.2626 123.18L28.4607 129.663L35.178 128.325L31.2518 132.707C31.7869 133.111 32.3011 133.556 32.7891 134.044C33.7015 134.956 34.4688 135.957 35.0909 137.021C40.835 145.195 39.8299 155.104 34.9983 162.582L40.788 168.369C40.8115 168.391 40.8322 168.414 40.8516 168.439C40.947 168.534 41.0479 168.619 41.1543 168.693C41.6396 169.03 42.2534 169.164 42.8534 169.116C43.4575 169.066 44.0381 168.836 44.4556 168.445C44.5635 168.344 44.6602 168.233 44.7418 168.114C45.0224 167.711 45.5796 167.61 45.9846 167.892C46.3883 168.172 46.4892 168.729 46.2072 169.134C46.051 169.359 45.8726 169.564 45.6777 169.745C44.9561 170.419 43.9897 170.815 43.0013 170.897C42.0087 170.977 40.9774 170.743 40.1341 170.158C39.9309 170.017 39.7401 169.857 39.5645 169.678L39.5189 169.637L33.9573 164.079C32.6758 165.789 31.1855 167.342 29.5279 168.681L35.0011 174.15C35.0232 174.174 35.0453 174.197 35.0646 174.221C35.16 174.316 35.261 174.4 35.3674 174.475C35.8526 174.812 36.4664 174.946 37.0664 174.898C37.6706 174.848 38.2512 174.617 38.6687 174.226C38.7751 174.125 38.8733 174.015 38.9549 173.896C39.2369 173.493 39.7926 173.393 40.1977 173.674C40.6014 173.955 40.7023 174.511 40.4203 174.916C40.264 175.141 40.0857 175.345 39.8908 175.528C39.1691 176.202 38.2014 176.598 37.2144 176.68C36.2218 176.76 35.1904 176.526 34.3472 175.941C34.1439 175.801 33.9532 175.639 33.7776 175.461L33.732 175.42L28.0791 169.769C23.0318 173.27 16.6767 174.856 9.9801 173.153V153.176L10.6506 153.294C10.4128 152.98 10.1902 152.658 9.9801 152.329V136.546C10.5455 135.66 11.2146 134.822 11.9888 134.048C15.2901 130.749 19.7706 129.347 24.0742 129.841L24.0769 129.837Z" fill="#84592C"/>
<path d="M79.6977 119.115C86.3819 112.436 86.3819 101.606 79.6977 94.9262C73.0134 88.2466 62.1761 88.2466 55.4918 94.9262C48.8076 101.606 48.8076 112.436 55.4918 119.115C62.1761 125.795 73.0134 125.795 79.6977 119.115Z" fill="#544620"/>
<path fill-rule="evenodd" clip-rule="evenodd" d="M68.7311 160.222C72.3448 160.222 75.2908 157.277 75.2908 153.667C75.2908 150.057 72.3434 147.112 68.7311 147.112C65.1188 147.112 62.1714 150.057 62.1714 153.667C62.1714 157.277 65.1188 160.222 68.7311 160.222Z" fill="#544620"/>
<path d="M130.708 147.112H68.7312V160.222H130.708V147.112Z" fill="#544620"/>
<path fill-rule="evenodd" clip-rule="evenodd" d="M130.708 160.222C134.321 160.222 137.267 157.277 137.267 153.667C137.267 150.057 134.32 147.112 130.708 147.112C127.095 147.112 124.148 150.057 124.148 153.667C124.148 157.277 127.095 160.222 130.708 160.222Z" fill="#B1865C"/>
<path fill-rule="evenodd" clip-rule="evenodd" d="M132.6 104.231L139.231 100.878L135.95 107.516C134.935 109.571 132.797 109.578 131.667 108.414C130.807 107.53 130.312 105.939 132.6 104.231Z" fill="#675727"/>
<path fill-rule="evenodd" clip-rule="evenodd" d="M134.476 111.227L141.896 110.818L135.733 106.708C133.826 105.436 131.971 106.498 131.574 108.072C131.273 109.267 131.641 110.893 134.476 111.229V111.227Z" fill="#675727"/>
<path d="M109.346 131.887C109.346 131.393 108.945 130.992 108.451 130.992C107.956 130.992 107.555 131.393 107.555 131.887V143.096L107.557 143.156C107.555 143.408 107.577 143.656 107.621 143.898C107.802 144.908 108.366 145.802 109.125 146.447C109.881 147.088 110.845 147.491 111.832 147.523C112.099 147.532 112.37 147.514 112.639 147.465C113.125 147.378 113.447 146.914 113.36 146.43C113.273 145.946 112.808 145.624 112.324 145.711C112.182 145.736 112.035 145.745 111.889 145.741C111.316 145.723 110.743 145.476 110.279 145.084C109.821 144.694 109.482 144.166 109.378 143.585C109.355 143.458 109.344 143.325 109.344 143.191C109.348 143.159 109.349 143.127 109.349 143.096V131.887H109.346Z" fill="#FFCC99"/>
<path d="M117.527 131.887C117.527 131.393 117.127 130.992 116.632 130.992C116.137 130.992 115.736 131.393 115.736 131.887V143.096L115.739 143.156C115.736 143.408 115.758 143.656 115.802 143.898C115.983 144.908 116.547 145.802 117.306 146.447C118.062 147.088 119.026 147.491 120.015 147.523C120.281 147.532 120.552 147.514 120.822 147.465C121.307 147.378 121.629 146.914 121.542 146.43C121.455 145.946 120.991 145.624 120.507 145.711C120.364 145.736 120.218 145.745 120.071 145.741C119.499 145.723 118.925 145.476 118.462 145.084C118.003 144.694 117.664 144.166 117.561 143.585C117.537 143.458 117.526 143.325 117.526 143.191C117.529 143.159 117.532 143.127 117.532 143.096V131.887H117.527Z" fill="#FFCC99"/>
<path fill-rule="evenodd" clip-rule="evenodd" d="M117.01 120.143L135.722 116.669C131.595 141.773 88.6052 144.14 88.5775 109.321C92.3972 109.062 95.5755 110.299 97.8869 113.558C98.3943 105.324 107.51 118.738 117.01 120.143Z" fill="#FFCC00"/>
<path d="M131.852 123.564C137.596 117.825 137.596 108.519 131.852 102.78C126.109 97.0409 116.798 97.0409 111.054 102.78C105.311 108.519 105.311 117.825 111.054 123.564C116.798 129.303 126.109 129.303 131.852 123.564Z" fill="#FFCC00"/>
<path fill-rule="evenodd" clip-rule="evenodd" d="M110.511 116.301L118.297 127.392C112.168 131.69 103.713 130.208 99.4132 124.082C95.1124 117.956 96.5958 109.509 102.726 105.211L110.511 116.301Z" fill="#9B742D"/>
<path d="M128.638 107.498C128.723 108.075 128.651 108.652 128.445 109.171H128.443C128.235 109.696 127.893 110.166 127.438 110.524C126.733 111.081 125.866 111.3 125.04 111.202C124.212 111.106 123.421 110.693 122.862 109.988C122.597 109.652 122.403 109.267 122.287 108.858C122.171 108.448 122.134 108.015 122.184 107.591L123.384 107.732C123.352 108.004 123.374 108.275 123.446 108.528C123.518 108.781 123.641 109.024 123.812 109.239C124.163 109.683 124.661 109.942 125.181 110.003C125.701 110.064 126.245 109.926 126.689 109.575C126.978 109.346 127.195 109.051 127.325 108.727C127.456 108.396 127.502 108.033 127.449 107.674L128.64 107.497L128.638 107.498Z" fill="#675727"/>
<path fill-rule="evenodd" clip-rule="evenodd" d="M151.398 93.9626C152.056 93.9626 152.67 94.156 153.185 94.4875V84.1705C153.148 84.0848 153.127 83.9923 153.127 83.8928C153.127 83.5101 153.438 83.2007 153.82 83.2007C154.616 83.2007 155.976 83.3623 156.979 84.0752C157.71 84.5946 158.245 85.3807 158.266 86.5536V86.5646H158.269V91.6472C158.269 93.0038 158.285 93.7567 158.469 94.2071C158.624 94.5884 158.986 94.8467 159.684 95.2501C160.015 95.4394 160.128 95.8607 159.939 96.1909C159.749 96.5211 159.327 96.6344 158.997 96.4451C158.014 95.8787 157.492 95.4794 157.186 94.7265C156.908 94.0441 156.882 93.1792 156.882 91.6472V86.5646H156.885C156.869 85.9167 156.576 85.4843 156.177 85.1997C155.75 84.8958 155.201 84.7341 154.698 84.654V97.2602C154.698 99.0824 153.22 100.559 151.398 100.559C149.576 100.559 148.096 99.0824 148.096 97.2602C148.096 95.438 149.574 93.9612 151.398 93.9612V93.9626Z" fill="#544620"/>
<path fill-rule="evenodd" clip-rule="evenodd" d="M166.133 77.0116C166.728 77.0116 167.282 77.1857 167.748 77.4855V67.9255H177.341V76.9094C177.341 78.5548 176.005 79.8893 174.359 79.8893C172.712 79.8893 171.375 78.5548 171.375 76.9094C171.375 75.264 172.711 73.9281 174.359 73.9281C174.953 73.9281 175.508 74.1022 175.973 74.402V69.2918H169.117V79.9915C169.117 81.6369 167.781 82.9714 166.135 82.9714C164.488 82.9714 163.151 81.6369 163.151 79.9915C163.151 78.3461 164.487 77.0102 166.135 77.0102L166.133 77.0116Z" fill="#544620"/>
<path d="M162.312 176.456C163.187 175.581 163.187 174.164 162.312 173.29C161.437 172.415 160.018 172.415 159.143 173.29L156.609 175.819C155.133 177.295 154.009 177.916 153.063 177.853C152.061 177.786 150.93 176.985 149.568 175.631C149.432 175.496 149.318 175.385 149.227 175.302C147.108 173.353 144.825 172.65 142.687 172.795C140.551 172.94 138.619 173.942 137.169 175.398C137.057 175.51 136.97 175.599 136.908 175.668C135.415 177.289 134.509 179.392 134.473 181.54C134.44 183.544 135.151 185.561 136.824 187.251C138.56 189.004 139.394 190.373 139.399 191.545C139.405 192.679 138.603 193.924 137.068 195.436L134.355 198.09C133.477 198.961 133.47 200.379 134.342 201.257C135.213 202.134 136.633 202.141 137.511 201.269L140.224 198.615C142.638 196.238 143.896 194.002 143.885 191.532C143.874 189.098 142.617 186.736 140.005 184.097C139.261 183.347 138.944 182.467 138.96 181.602C138.976 180.576 139.438 179.539 140.201 178.712C140.269 178.639 140.314 178.59 140.338 178.565C141.066 177.835 141.997 177.333 142.984 177.267C143.968 177.201 145.073 177.574 146.181 178.594C146.277 178.683 146.35 178.751 146.398 178.799C148.522 180.911 150.521 182.177 152.763 182.325C155.062 182.476 157.302 181.458 159.776 178.987L162.31 176.456H162.312Z" fill="#FF8383"/>
<path fill-rule="evenodd" clip-rule="evenodd" d="M136.363 19.6781L167.979 -11.9154C146.899 -16.3224 131.938 3.76597 136.363 19.6781Z" fill="#8BBE33"/>
<path fill-rule="evenodd" clip-rule="evenodd" d="M136.363 19.6781L167.979 -11.9154C172.389 9.14967 152.286 24.1002 136.363 19.6781Z" fill="#99CC33"/>
<path fill-rule="evenodd" clip-rule="evenodd" d="M199.594 19.6781L167.979 -11.9154C189.057 -16.3224 204.019 3.76597 199.594 19.6781Z" fill="#8BBE33"/>
<path fill-rule="evenodd" clip-rule="evenodd" d="M199.594 19.6781L167.979 -11.9154C163.569 9.14967 183.671 24.1002 199.594 19.6781Z" fill="#99CC33"/>
<path d="M168.839 153.991L167.594 155.235L175.583 163.219L176.829 161.975L168.839 153.991Z" fill="#8BBE33"/>
<path fill-rule="evenodd" clip-rule="evenodd" d="M141.733 155.438H169.042C161.843 166.439 146.699 164.22 141.733 155.438Z" fill="#8BBE33"/>
<path fill-rule="evenodd" clip-rule="evenodd" d="M141.733 155.438H169.042C161.843 144.437 146.699 146.656 141.733 155.438Z" fill="#99CC33"/>
<path fill-rule="evenodd" clip-rule="evenodd" d="M169.042 128.148V155.438C180.05 148.244 177.83 133.11 169.042 128.148Z" fill="#8BBE33"/>
<path fill-rule="evenodd" clip-rule="evenodd" d="M169.042 128.148V155.438C158.033 148.244 160.254 133.11 169.042 128.148Z" fill="#99CC33"/>
<path fill-rule="evenodd" clip-rule="evenodd" d="M37.3288 19.6781L68.944 -11.9154C47.8644 -16.3224 32.9035 3.76597 37.3288 19.6781Z" fill="#8BBE33"/>
<path fill-rule="evenodd" clip-rule="evenodd" d="M37.3287 19.6781L68.944 -11.9154C73.354 9.14967 53.2518 24.1002 37.3287 19.6781Z" fill="#99CC33"/>
<path fill-rule="evenodd" clip-rule="evenodd" d="M100.558 19.6781L68.9427 -11.9154C90.0223 -16.3224 104.983 3.76597 100.558 19.6781Z" fill="#8BBE33"/>
<path fill-rule="evenodd" clip-rule="evenodd" d="M100.558 19.6781L68.9429 -11.9154C64.5328 9.14967 84.635 24.1002 100.558 19.6781Z" fill="#99CC33"/>
<path d="M86.5055 57.6734V56.3844C86.7433 56.383 86.9631 56.343 87.1677 56.2601C87.3723 56.1786 87.5493 56.0625 87.7041 55.9119C87.8575 55.76 87.9764 55.5804 88.0621 55.369C88.1479 55.159 88.1921 54.9242 88.1935 54.6645C88.1921 54.4061 88.1479 54.1699 88.0621 53.9599C87.9764 53.7485 87.8562 53.5689 87.7041 53.417C87.5493 53.265 87.3723 53.149 87.1677 53.0688C86.9631 52.9859 86.7433 52.9459 86.5055 52.9445V51.6555C86.8387 51.6555 87.1567 51.7067 87.4566 51.8048C87.7566 51.9042 88.0331 52.0438 88.2833 52.2247C88.5336 52.4057 88.7506 52.6198 88.9359 52.8699C89.1197 53.1199 89.2607 53.3949 89.363 53.6974C89.464 54 89.5151 54.3232 89.5165 54.6645C89.5165 55.0057 89.464 55.329 89.363 55.6315C89.2607 55.9341 89.1183 56.2103 88.9359 56.459C88.7506 56.7077 88.5336 56.9232 88.2833 57.1042C88.0331 57.2865 87.7566 57.4247 87.4566 57.5242C87.1567 57.6222 86.8387 57.672 86.5055 57.6734ZM54.0677 51.7716V53.9861H52.2484V51.7716H50.9254V57.5573H52.2484V55.2599H54.0677V57.5573H55.3907V51.7716H54.0677ZM86.5055 51.6555V52.9445C86.2677 52.9445 86.0479 52.9859 85.8433 53.0688C85.6387 53.1503 85.4618 53.2664 85.3083 53.417C85.1535 53.5689 85.0346 53.7485 84.9489 53.9599C84.8632 54.1699 84.8189 54.4047 84.8175 54.6645C84.8189 54.9228 84.8632 55.159 84.9489 55.369C85.0346 55.5804 85.1549 55.76 85.3083 55.9119C85.4618 56.0639 85.6387 56.1786 85.8433 56.2601C86.0479 56.343 86.2677 56.383 86.5055 56.3844V57.6734C86.1723 57.6734 85.8544 57.6222 85.5544 57.5242C85.2544 57.4247 84.9779 57.2865 84.7277 57.1042C84.4775 56.9232 84.2604 56.7091 84.0752 56.459C83.8913 56.209 83.7503 55.9341 83.648 55.6315C83.5471 55.329 83.4959 55.0057 83.4945 54.6645C83.4959 54.3232 83.5471 54 83.648 53.6974C83.7503 53.3949 83.8913 53.1186 84.0752 52.8699C84.2604 52.6212 84.4775 52.4057 84.7277 52.2247C84.9779 52.0424 85.2544 51.9042 85.5544 51.8048C85.8544 51.7067 86.1723 51.6569 86.5055 51.6555ZM61.4666 56.2836V55.2585H63.5347V54.0027H61.4666V53.044H63.7407V51.7716H60.1422V57.5573H63.7822V56.2849H61.4666V56.2836ZM69.6092 56.2836V51.7702H68.2862V57.5559H71.6774V56.2836H69.6092ZM77.3385 56.2836V51.7702H76.0155V57.5559H79.4066V56.2836H77.3385Z" fill="white"/>
<path d="M65.9524 73.4114V70.8004H66.24C66.4529 70.7976 66.6464 70.741 66.8192 70.6277C66.992 70.5158 67.1275 70.3624 67.2312 70.1676C67.3335 69.9742 67.3874 69.7532 67.3888 69.5073C67.386 69.2614 67.3335 69.0403 67.2312 68.8469C67.1289 68.6535 66.992 68.5002 66.8192 68.3869C66.6464 68.275 66.4529 68.217 66.24 68.2142H65.9524V66.0605H66.24C66.7211 66.0632 67.169 66.1544 67.5865 66.3312C68.0012 66.5081 68.3676 66.7526 68.6814 67.0689C68.998 67.3825 69.2413 67.7487 69.4196 68.1631C69.5966 68.5789 69.6878 69.0265 69.6906 69.5087C69.6878 69.9231 69.609 70.3182 69.4556 70.6885C69.3021 71.0615 69.0864 71.3972 68.8086 71.6942C68.5307 71.9912 68.2072 72.2358 67.8367 72.4236L69.9781 76.1136H67.5063L65.9552 73.4114H65.9524ZM77.583 66.0618V76.1136H79.882V66.0618H77.583ZM93.7397 66.0618V71.5188L89.8605 66.0618H88.1366V76.1136H90.4356V70.6567L94.3148 76.1136H96.0387V66.0618H93.7397ZM114.25 70.513H109.207V72.5231H111.894C111.774 72.8464 111.597 73.1213 111.365 73.3534C111.132 73.5827 110.845 73.7609 110.502 73.8853C110.162 74.0096 109.766 74.0718 109.321 74.0745C108.833 74.0718 108.392 73.9985 108.004 73.8521C107.614 73.7057 107.284 73.4998 107.007 73.2373C106.735 72.9721 106.523 72.6613 106.379 72.2993C106.233 71.9401 106.161 71.545 106.16 71.1167C106.162 70.6733 106.236 70.2671 106.385 69.901C106.531 69.5322 106.737 69.2144 107.006 68.9464C107.271 68.6784 107.584 68.4698 107.942 68.3247C108.301 68.1783 108.694 68.1051 109.119 68.1023C109.5 68.1051 109.849 68.1576 110.169 68.2598C110.487 68.3634 110.767 68.5043 111.006 68.6812C111.246 68.858 111.435 69.0569 111.576 69.2793L113.531 68.159C113.246 67.7072 112.882 67.3066 112.441 66.9626C112 66.62 111.503 66.352 110.943 66.1585C110.383 65.9651 109.779 65.8643 109.135 65.8615C108.54 65.8643 107.978 65.9527 107.448 66.1268C106.919 66.3008 106.437 66.5481 105.999 66.8659C105.561 67.1836 105.182 67.5621 104.864 67.9973C104.546 68.4325 104.299 68.9119 104.125 69.4382C103.952 69.9618 103.863 70.5158 103.861 71.1015C103.863 71.6804 103.949 72.2316 104.122 72.7524C104.295 73.2719 104.541 73.7499 104.861 74.1837C105.182 74.6175 105.568 74.9918 106.013 75.311C106.461 75.6287 106.961 75.8732 107.512 76.0487C108.065 76.2228 108.656 76.3126 109.291 76.3139C110 76.3112 110.654 76.1993 111.254 75.9741C111.853 75.7489 112.376 75.4242 112.824 74.996C113.272 74.5705 113.619 74.0524 113.868 73.4432C114.117 72.8353 114.241 72.146 114.247 71.3751V70.513H114.25ZM65.9524 66.0618V68.2156H64.5161V70.8004H65.9524V73.4114L65.6068 72.8105H64.5147V76.1136H62.2157V66.0618H65.951H65.9524ZM50.8741 72.9541V70.8004H51.0178C51.2542 70.7976 51.463 70.741 51.6482 70.6277C51.8307 70.5158 51.9745 70.3624 52.0795 70.1676C52.1846 69.9742 52.2371 69.7532 52.2399 69.5073C52.2371 69.2614 52.1846 69.0403 52.0795 68.8469C51.9745 68.6535 51.8307 68.5002 51.6482 68.3869C51.4644 68.275 51.2556 68.217 51.0178 68.2142H50.8741V66.0605H51.0178C51.5155 66.0632 51.9786 66.1544 52.4044 66.3312C52.8302 66.5081 53.2021 66.7526 53.5228 67.0689C53.8408 67.3825 54.0882 67.7487 54.268 68.1631C54.4449 68.5789 54.5362 69.0265 54.5389 69.5087C54.5362 69.9894 54.4449 70.437 54.268 70.8543C54.0882 71.2687 53.8422 71.6348 53.5228 71.9484C53.2021 72.2648 52.8302 72.5079 52.4044 72.6861C51.9786 72.863 51.5155 72.9541 51.0178 72.9569H50.8741V72.9541ZM35.7957 76.3139C36.3445 76.3139 36.8463 76.2421 37.3025 76.1039C37.7574 75.9658 38.15 75.7641 38.4832 75.4989C38.8163 75.2336 39.0748 74.9103 39.2573 74.5277C39.4398 74.1477 39.5297 73.714 39.5324 73.2277C39.5297 72.8035 39.4661 72.4402 39.343 72.1321C39.2186 71.8227 39.0486 71.563 38.8329 71.3447C38.6173 71.1292 38.3712 70.9454 38.0947 70.7962C37.8196 70.6457 37.5265 70.5158 37.221 70.408C36.9113 70.3003 36.6058 70.2022 36.2989 70.111C35.9104 69.9936 35.5952 69.8831 35.3547 69.7808C35.1155 69.6772 34.9303 69.5778 34.8058 69.481C34.6787 69.383 34.5957 69.2849 34.5501 69.184C34.5072 69.0832 34.4851 68.9754 34.4879 68.8608C34.4879 68.724 34.528 68.5996 34.6082 68.485C34.6869 68.3703 34.8072 68.2764 34.9676 68.2073C35.128 68.1382 35.327 68.1023 35.5662 68.0995C35.8703 68.0995 36.1316 68.1479 36.3487 68.2405C36.5671 68.3344 36.7509 68.4684 36.9044 68.6425C37.0579 68.8152 37.1919 69.0224 37.3039 69.2628L39.2435 68.1286C38.9974 67.6354 38.6947 67.2195 38.3311 66.8838C37.9689 66.5467 37.5555 66.2898 37.091 66.1185C36.6265 65.9458 36.1192 65.8601 35.5648 65.8601C35.215 65.8601 34.875 65.9057 34.5473 65.9914C34.2169 66.0798 33.91 66.2097 33.6252 66.3796C33.3404 66.5495 33.0916 66.7581 32.8759 67.004C32.6603 67.2527 32.493 67.5359 32.3727 67.8564C32.2525 68.1769 32.1902 68.5306 32.1889 68.9188C32.193 69.3968 32.2773 69.8071 32.4405 70.1483C32.605 70.4909 32.8289 70.7797 33.1082 71.0117C33.3888 71.2466 33.704 71.44 34.0566 71.5934C34.4063 71.7467 34.7699 71.8738 35.1487 71.976C35.6491 72.1128 36.0542 72.2371 36.3611 72.3546C36.668 72.472 36.8878 72.6005 37.0274 72.7428C37.1657 72.8809 37.2362 73.0508 37.2334 73.2553C37.2362 73.3865 37.2002 73.5164 37.1228 73.6407C37.044 73.7651 36.9044 73.8659 36.7067 73.9474C36.5076 74.0289 36.2298 74.0718 35.8689 74.0745C35.4929 74.0718 35.1667 74.0151 34.8971 73.8977C34.6261 73.783 34.3966 73.6228 34.2128 73.4142C34.0289 73.2056 33.8755 72.9624 33.7579 72.682L31.7755 73.8314C31.9621 74.3273 32.2372 74.7625 32.5995 75.1328C32.9617 75.5044 33.4068 75.7931 33.9404 75.999C34.4741 76.2076 35.0948 76.3125 35.7984 76.3153L35.7957 76.3139ZM50.8741 66.0618V68.2156H49.5096V70.8004H50.8741V72.9541H49.5096V76.1136H47.2106V66.0618H50.8741Z" fill="white"/>
<rect x="150" y="16" width="10" height="15" fill="#99CC33"/>
<mask id="path-47-inside-1_2238_48440" fill="white">
<path fill-rule="evenodd" clip-rule="evenodd" d="M155 33C161.075 33 166 28.0751 166 22C166 15.9249 161.075 11 155 11C148.925 11 144 15.9249 144 22C144 28.0751 148.925 33 155 33ZM156.282 23.958C156.557 22.935 156.694 22.1815 156.694 21.6975C156.694 21.2025 156.606 20.856 156.43 20.658C154.78 20.658 153.669 20.746 153.097 20.922L153.048 21.2025L153.18 21.384C153.466 21.747 153.609 22.132 153.609 22.539C153.609 22.803 153.471 23.43 153.196 24.42C152.932 25.399 152.8 26.1305 152.8 26.6145C152.8 27.0875 152.927 27.4505 153.18 27.7035C153.444 27.9565 153.801 28.083 154.252 28.083C154.703 28.083 155.204 27.973 155.754 27.753C156.315 27.533 156.782 27.28 157.156 26.994L156.859 26.169L156.711 26.235C156.392 26.345 156.172 26.4 156.051 26.4C155.93 26.4 155.869 26.246 155.869 25.938C155.869 25.63 156.007 24.97 156.282 23.958ZM154.285 18.975C154.571 19.239 154.962 19.371 155.457 19.371C155.963 19.371 156.381 19.217 156.711 18.909C157.052 18.601 157.222 18.238 157.222 17.82C157.222 17.402 157.085 17.0775 156.81 16.8465C156.535 16.6155 156.15 16.5 155.655 16.5C155.16 16.5 154.736 16.643 154.384 16.929C154.043 17.204 153.873 17.5505 153.873 17.9685C153.873 18.3755 154.01 18.711 154.285 18.975Z"/>
</mask>
<path fill-rule="evenodd" clip-rule="evenodd" d="M155 33C161.075 33 166 28.0751 166 22C166 15.9249 161.075 11 155 11C148.925 11 144 15.9249 144 22C144 28.0751 148.925 33 155 33ZM156.282 23.958C156.557 22.935 156.694 22.1815 156.694 21.6975C156.694 21.2025 156.606 20.856 156.43 20.658C154.78 20.658 153.669 20.746 153.097 20.922L153.048 21.2025L153.18 21.384C153.466 21.747 153.609 22.132 153.609 22.539C153.609 22.803 153.471 23.43 153.196 24.42C152.932 25.399 152.8 26.1305 152.8 26.6145C152.8 27.0875 152.927 27.4505 153.18 27.7035C153.444 27.9565 153.801 28.083 154.252 28.083C154.703 28.083 155.204 27.973 155.754 27.753C156.315 27.533 156.782 27.28 157.156 26.994L156.859 26.169L156.711 26.235C156.392 26.345 156.172 26.4 156.051 26.4C155.93 26.4 155.869 26.246 155.869 25.938C155.869 25.63 156.007 24.97 156.282 23.958ZM154.285 18.975C154.571 19.239 154.962 19.371 155.457 19.371C155.963 19.371 156.381 19.217 156.711 18.909C157.052 18.601 157.222 18.238 157.222 17.82C157.222 17.402 157.085 17.0775 156.81 16.8465C156.535 16.6155 156.15 16.5 155.655 16.5C155.16 16.5 154.736 16.643 154.384 16.929C154.043 17.204 153.873 17.5505 153.873 17.9685C153.873 18.3755 154.01 18.711 154.285 18.975Z" fill="white"/>
<path d="M156.282 23.958L157.247 24.2202L157.248 24.2176L156.282 23.958ZM156.43 20.658L157.178 19.9936L156.879 19.658H156.43V20.658ZM153.097 20.922L152.803 19.9662L152.219 20.146L152.113 20.7482L153.097 20.922ZM153.048 21.2025L152.063 21.0287L151.989 21.4471L152.239 21.7907L153.048 21.2025ZM153.18 21.384L152.371 21.9722L152.382 21.9877L152.394 22.0029L153.18 21.384ZM153.196 24.42L152.233 24.1523L152.231 24.1596L153.196 24.42ZM153.18 27.7035L152.473 28.4106L152.48 28.4181L152.488 28.4255L153.18 27.7035ZM155.754 27.753L155.389 26.822L155.383 26.8245L155.754 27.753ZM157.156 26.994L157.764 27.7884L158.345 27.3438L158.097 26.6553L157.156 26.994ZM156.859 26.169L157.8 25.8303L157.436 24.8184L156.453 25.2552L156.859 26.169ZM156.711 26.235L157.037 27.1804L157.078 27.1663L157.117 27.1488L156.711 26.235ZM154.285 18.975L153.593 19.6964L153.6 19.7032L153.607 19.7098L154.285 18.975ZM156.711 18.909L156.041 18.1669L156.035 18.1724L156.029 18.1779L156.711 18.909ZM156.81 16.8465L156.167 17.6122L156.167 17.6122L156.81 16.8465ZM154.384 16.929L155.012 17.7074L155.015 17.7051L154.384 16.929ZM165 22C165 27.5228 160.523 32 155 32V34C161.627 34 167 28.6274 167 22H165ZM155 12C160.523 12 165 16.4772 165 22H167C167 15.3726 161.627 10 155 10V12ZM145 22C145 16.4772 149.477 12 155 12V10C148.373 10 143 15.3726 143 22H145ZM155 32C149.477 32 145 27.5228 145 22H143C143 28.6274 148.373 34 155 34V32ZM155.694 21.6975C155.694 22.04 155.589 22.6843 155.316 23.6984L157.248 24.2176C157.525 23.1857 157.694 22.323 157.694 21.6975H155.694ZM155.683 21.3224C155.634 21.2673 155.641 21.2427 155.659 21.3125C155.677 21.3812 155.694 21.5037 155.694 21.6975H157.694C157.694 21.1453 157.609 20.4782 157.178 19.9936L155.683 21.3224ZM153.391 21.8778C153.799 21.7524 154.763 21.658 156.43 21.658V19.658C154.797 19.658 153.54 19.7396 152.803 19.9662L153.391 21.8778ZM154.033 21.3763L154.082 21.0958L152.113 20.7482L152.063 21.0287L154.033 21.3763ZM153.989 20.7958L153.857 20.6143L152.239 21.7907L152.371 21.9722L153.989 20.7958ZM154.609 22.539C154.609 21.8774 154.371 21.2794 153.965 20.7651L152.394 22.0029C152.561 22.2146 152.609 22.3866 152.609 22.539H154.609ZM154.16 24.6876C154.3 24.1841 154.408 23.7602 154.483 23.4215C154.551 23.1091 154.609 22.791 154.609 22.539H152.609C152.609 22.5306 152.609 22.5617 152.595 22.6525C152.582 22.7366 152.561 22.8489 152.529 22.993C152.466 23.2813 152.368 23.6659 152.233 24.1524L154.16 24.6876ZM153.8 26.6145C153.8 26.2703 153.902 25.646 154.162 24.6804L152.231 24.1596C151.963 25.152 151.8 25.9907 151.8 26.6145H153.8ZM153.887 26.9964C153.876 26.9854 153.8 26.9108 153.8 26.6145H151.8C151.8 27.2642 151.978 27.9156 152.473 28.4106L153.887 26.9964ZM154.252 27.083C153.996 27.083 153.908 27.0166 153.872 26.9815L152.488 28.4255C152.979 28.8964 153.607 29.083 154.252 29.083V27.083ZM155.383 26.8245C154.916 27.0113 154.543 27.083 154.252 27.083V29.083C154.864 29.083 155.492 28.9347 156.125 28.6815L155.383 26.8245ZM156.549 26.1996C156.266 26.4158 155.886 26.6271 155.389 26.822L156.119 28.684C156.744 28.4389 157.299 28.1442 157.764 27.7884L156.549 26.1996ZM155.919 26.5077L156.216 27.3327L158.097 26.6553L157.8 25.8303L155.919 26.5077ZM157.117 27.1488L157.266 27.0828L156.453 25.2552L156.305 25.3212L157.117 27.1488ZM156.051 27.4C156.364 27.4 156.738 27.2836 157.037 27.1804L156.385 25.2896C156.241 25.3392 156.136 25.3706 156.064 25.3886C156.029 25.3975 156.009 25.4012 156.001 25.4024C155.991 25.4041 156.011 25.4 156.051 25.4V27.4ZM154.869 25.938C154.869 26.1283 154.884 26.3956 154.984 26.6502C155.037 26.7855 155.136 26.974 155.325 27.1336C155.531 27.309 155.788 27.4 156.051 27.4V25.4C156.253 25.4 156.457 25.4718 156.618 25.6086C156.761 25.7297 156.823 25.8605 156.846 25.9188C156.885 26.0194 156.869 26.0557 156.869 25.938H154.869ZM155.317 23.6958C155.177 24.2118 155.068 24.6509 154.994 25.008C154.923 25.3454 154.869 25.6736 154.869 25.938H156.869C156.869 25.8944 156.884 25.7386 156.952 25.416C157.015 25.1131 157.112 24.7162 157.247 24.2202L155.317 23.6958ZM155.457 18.371C155.142 18.371 155.019 18.291 154.964 18.2402L153.607 19.7098C154.124 20.187 154.781 20.371 155.457 20.371V18.371ZM156.029 18.1779C155.907 18.2918 155.743 18.371 155.457 18.371V20.371C156.183 20.371 156.855 20.1422 157.393 19.6401L156.029 18.1779ZM156.222 17.82C156.222 17.9252 156.195 18.0275 156.041 18.1669L157.381 19.6511C157.909 19.1745 158.222 18.5508 158.222 17.82H156.222ZM156.167 17.6122C156.186 17.6282 156.193 17.6392 156.199 17.6533C156.206 17.6714 156.222 17.7205 156.222 17.82H158.222C158.222 17.1604 157.993 16.5339 157.453 16.0808L156.167 17.6122ZM155.655 17.5C156.003 17.5 156.13 17.5811 156.167 17.6122L157.453 16.0808C156.94 15.6499 156.297 15.5 155.655 15.5V17.5ZM155.015 17.7051C155.172 17.5775 155.367 17.5 155.655 17.5V15.5C154.953 15.5 154.301 15.7085 153.754 16.1529L155.015 17.7051ZM154.873 17.9685C154.873 17.8693 154.894 17.8031 155.012 17.7074L153.757 16.1506C153.193 16.6049 152.873 17.2317 152.873 17.9685H154.873ZM154.978 18.2536C154.914 18.192 154.873 18.1237 154.873 17.9685H152.873C152.873 18.6273 153.107 19.23 153.593 19.6964L154.978 18.2536Z" fill="white" mask="url(#path-47-inside-1_2238_48440)"/>
</g>
<defs>
<clipPath id="clip0_2238_48440">
<rect width="197" height="180" fill="white"/>
</clipPath>
</defs>
</svg>
