<svg width="221" height="179" viewBox="0 0 221 179" fill="none" xmlns="http://www.w3.org/2000/svg">
<g clip-path="url(#clip0_2238_48397)">
<path fill-rule="evenodd" clip-rule="evenodd" d="M62.9991 88.5805L36.9876 43.5616C36.2525 42.2887 34.6082 41.849 33.3352 42.5835C32.0614 43.3181 31.6214 44.9611 32.3565 46.2331L58.368 91.252C59.1031 92.5249 60.7474 92.9646 62.0204 92.2301C63.2942 91.4955 63.7342 89.8525 62.9991 88.5805Z" fill="#FFCD7C"/>
<path fill-rule="evenodd" clip-rule="evenodd" d="M72.6028 85.2837L61.664 66.351L39.7689 78.9825L50.7077 97.9152C54.1844 103.932 61.9549 106.013 67.9758 102.539C73.9968 99.0647 76.0795 91.3001 72.6028 85.2837Z" fill="#A06223"/>
<path fill-rule="evenodd" clip-rule="evenodd" d="M53.0314 71.3305L48.4003 74.0021L58.367 91.2521C59.1021 92.5249 60.7455 92.9646 62.0193 92.2301C63.2931 91.4947 63.7332 89.8533 62.9981 88.5805L53.0314 71.3305Z" fill="#AB7134"/>
<path fill-rule="evenodd" clip-rule="evenodd" d="M98.8305 80.3191C93.8124 80.3191 89.3371 83.1091 86.419 87.4667C85.3217 87.003 84.1416 86.7495 82.9125 86.7495C79.5975 86.7495 76.6396 88.5839 74.7028 91.4525C73.9668 91.1395 73.1746 90.9681 72.3491 90.9681C68.4556 90.9681 65.2988 94.7584 65.2988 99.434H133.905C133.905 94.7584 130.748 90.9681 126.854 90.9681C126.029 90.9681 125.237 91.1395 124.501 91.4525C122.564 88.5839 119.606 86.7495 116.291 86.7495C115.062 86.7495 113.881 87.003 112.784 87.4667C109.866 83.1091 105.392 80.3191 100.373 80.3191C100.114 80.3191 99.8574 80.3274 99.6013 80.3415C99.3452 80.3274 99.0883 80.3191 98.8297 80.3191H98.8305Z" fill="#8A5A25"/>
<path d="M119.086 37.7015V23.5322H119.079C119.271 14.3764 114.527 8.36412 108.285 5.62217C105.834 4.54477 103.141 3.9833 100.425 3.9452C97.7233 3.90711 94.9975 4.39074 92.4648 5.40189C85.8066 8.06268 80.466 14.3134 80.2646 24.2643L80.2563 24.3015V141.328H84.0902V24.3015H84.0836C84.2609 16.1618 88.5481 11.082 93.8878 8.94795C95.9523 8.12313 98.175 7.72894 100.38 7.76041C102.571 7.79188 104.75 8.24818 106.743 9.12268C111.678 11.2907 115.426 16.108 115.261 23.4941L115.252 23.5314V37.7007H119.086V37.7015Z" fill="#91BE23"/>
<path fill-rule="evenodd" clip-rule="evenodd" d="M117.168 25.2366V88.2094C142.573 71.6087 137.45 36.6872 117.168 25.2366Z" fill="#A0CD23"/>
<path fill-rule="evenodd" clip-rule="evenodd" d="M117.169 25.2366V88.2094C91.7637 71.6087 96.8871 36.6872 117.169 25.2366Z" fill="#91BE23"/>
<path fill-rule="evenodd" clip-rule="evenodd" d="M53.1103 179.789L43.451 91.7059H148.421L138.762 179.789H53.1103Z" fill="#FF624F"/>
<path fill-rule="evenodd" clip-rule="evenodd" d="M136.776 91.7059C136.664 91.99 136.604 92.2997 136.604 92.6227C136.604 94.0106 137.73 95.136 139.119 95.136C140.508 95.136 141.634 94.0106 141.634 92.6227C141.634 92.2989 141.573 91.99 141.462 91.7059H136.777H136.776Z" fill="#FFCD00"/>
<path fill-rule="evenodd" clip-rule="evenodd" d="M114.392 91.7059C114.28 91.99 114.219 92.2997 114.219 92.6227C114.219 94.0106 115.345 95.136 116.734 95.136C118.123 95.136 119.25 94.0106 119.25 92.6227C119.25 92.2989 119.188 91.99 119.077 91.7059H114.392H114.392Z" fill="#FFCD00"/>
<path fill-rule="evenodd" clip-rule="evenodd" d="M92.0066 91.7059C91.8956 91.99 91.8342 92.2997 91.8342 92.6227C91.8342 94.0106 92.9605 95.136 94.3495 95.136C95.7385 95.136 96.8648 94.0106 96.8648 92.6227C96.8648 92.2989 96.8035 91.99 96.6924 91.7059H92.0074H92.0066Z" fill="#FFCD00"/>
<path fill-rule="evenodd" clip-rule="evenodd" d="M69.6217 91.7059C69.5107 91.99 69.4493 92.2997 69.4493 92.6227C69.4493 94.0106 70.5756 95.136 71.9646 95.136C73.3536 95.136 74.4799 94.0106 74.4799 92.6227C74.4799 92.2989 74.4186 91.99 74.3075 91.7059H69.6226H69.6217Z" fill="#FFCD00"/>
<path fill-rule="evenodd" clip-rule="evenodd" d="M47.2376 91.7059C47.1265 91.99 47.0652 92.2997 47.0652 92.6227C47.0652 94.0106 48.1915 95.136 49.5805 95.136C50.9695 95.136 52.0958 94.0106 52.0958 92.6227C52.0958 92.2989 52.0344 91.99 51.9234 91.7059H47.2384H47.2376Z" fill="#FFCD00"/>
<path fill-rule="evenodd" clip-rule="evenodd" d="M127.749 107.695C126.36 107.695 125.233 108.821 125.233 110.209C125.233 111.597 126.36 112.722 127.749 112.722C129.138 112.722 130.264 111.597 130.264 110.209C130.264 108.821 129.138 107.695 127.749 107.695Z" fill="#FFCD00"/>
<path d="M105.949 112.654C107.3 112.331 108.133 110.974 107.81 109.625C107.487 108.275 106.129 107.442 104.778 107.765C103.427 108.088 102.594 109.445 102.918 110.795C103.241 112.145 104.598 112.977 105.949 112.654Z" fill="#FFCD00"/>
<path d="M85.6159 111.272C86.0737 109.961 85.3816 108.528 84.07 108.071C82.7584 107.613 81.3241 108.305 80.8663 109.615C80.4086 110.926 81.1007 112.359 82.4123 112.817C83.7238 113.274 85.1582 112.582 85.6159 111.272Z" fill="#FFCD00"/>
<path d="M60.9635 112.696C62.3373 112.49 63.2839 111.21 63.0779 109.838C62.8718 108.465 61.5911 107.519 60.2173 107.725C58.8435 107.931 57.8969 109.211 58.1029 110.583C58.309 111.956 59.5897 112.902 60.9635 112.696Z" fill="#FFCD00"/>
<path fill-rule="evenodd" clip-rule="evenodd" d="M127.749 141.721C126.36 141.721 125.233 142.846 125.233 144.234C125.233 145.622 126.36 146.748 127.749 146.748C129.138 146.748 130.264 145.622 130.264 144.234C130.264 142.846 129.138 141.721 127.749 141.721Z" fill="#FFCD00"/>
<path fill-rule="evenodd" clip-rule="evenodd" d="M105.365 141.721C103.976 141.721 102.849 142.846 102.849 144.234C102.849 145.622 103.976 146.748 105.365 146.748C106.754 146.748 107.88 145.622 107.88 144.234C107.88 142.846 106.754 141.721 105.365 141.721Z" fill="#FFCD00"/>
<path fill-rule="evenodd" clip-rule="evenodd" d="M82.9796 141.721C81.5906 141.721 80.4644 142.846 80.4644 144.234C80.4644 145.622 81.5906 146.748 82.9796 146.748C84.3687 146.748 85.4949 145.622 85.4949 144.234C85.4949 142.846 84.3687 141.721 82.9796 141.721Z" fill="#FFCD00"/>
<path fill-rule="evenodd" clip-rule="evenodd" d="M60.5946 141.721C59.2056 141.721 58.0793 142.846 58.0793 144.234C58.0793 145.622 59.2056 146.748 60.5946 146.748C61.9836 146.748 63.1099 145.622 63.1099 144.234C63.1099 142.846 61.9836 141.721 60.5946 141.721Z" fill="#FFCD00"/>
<path fill-rule="evenodd" clip-rule="evenodd" d="M127.749 175.746C126.36 175.746 125.233 176.871 125.233 178.259C125.233 178.835 125.427 179.365 125.753 179.789H129.744C130.07 179.365 130.264 178.835 130.264 178.259C130.264 176.871 129.138 175.746 127.749 175.746Z" fill="#FFCD00"/>
<path fill-rule="evenodd" clip-rule="evenodd" d="M105.365 175.746C103.976 175.746 102.849 176.871 102.849 178.259C102.849 178.835 103.043 179.365 103.369 179.789H107.36C107.686 179.365 107.88 178.835 107.88 178.259C107.88 176.871 106.754 175.746 105.365 175.746Z" fill="#FFCD00"/>
<path fill-rule="evenodd" clip-rule="evenodd" d="M82.9796 175.746C81.5906 175.746 80.4644 176.871 80.4644 178.259C80.4644 178.835 80.6583 179.365 80.984 179.789H84.9753C85.301 179.365 85.4949 178.835 85.4949 178.259C85.4949 176.871 84.3687 175.746 82.9796 175.746Z" fill="#FFCD00"/>
<path fill-rule="evenodd" clip-rule="evenodd" d="M60.5946 175.746C59.2056 175.746 58.0793 176.871 58.0793 178.259C58.0793 178.835 58.2733 179.365 58.599 179.789H62.5903C62.916 179.365 63.1099 178.835 63.1099 178.259C63.1099 176.871 61.9836 175.746 60.5946 175.746Z" fill="#FFCD00"/>
<path fill-rule="evenodd" clip-rule="evenodd" d="M139.118 124.135C137.729 124.135 136.603 125.26 136.603 126.648C136.603 128.036 137.729 129.161 139.118 129.161C140.507 129.161 141.633 128.036 141.633 126.648C141.633 125.26 140.507 124.135 139.118 124.135Z" fill="#FFCD00"/>
<path fill-rule="evenodd" clip-rule="evenodd" d="M116.733 124.135C115.344 124.135 114.218 125.26 114.218 126.648C114.218 128.036 115.344 129.161 116.733 129.161C118.122 129.161 119.249 128.036 119.249 126.648C119.249 125.26 118.122 124.135 116.733 124.135Z" fill="#FFCD00"/>
<path fill-rule="evenodd" clip-rule="evenodd" d="M94.3495 124.135C92.9605 124.135 91.8342 125.26 91.8342 126.648C91.8342 128.036 92.9605 129.161 94.3495 129.161C95.7385 129.161 96.8648 128.036 96.8648 126.648C96.8648 125.26 95.7385 124.135 94.3495 124.135Z" fill="#FFCD00"/>
<path fill-rule="evenodd" clip-rule="evenodd" d="M71.9646 124.135C70.5756 124.135 69.4493 125.26 69.4493 126.648C69.4493 128.036 70.5756 129.161 71.9646 129.161C73.3536 129.161 74.4799 128.036 74.4799 126.648C74.4799 125.26 73.3536 124.135 71.9646 124.135Z" fill="#FFCD00"/>
<path fill-rule="evenodd" clip-rule="evenodd" d="M49.5799 124.135C48.471 124.135 47.5295 124.852 47.1956 125.847L47.426 127.945C47.866 128.674 48.6666 129.161 49.5807 129.161C50.9697 129.161 52.096 128.036 52.096 126.648C52.096 125.26 50.9697 124.135 49.5807 124.135H49.5799Z" fill="#FFCD00"/>
<path fill-rule="evenodd" clip-rule="evenodd" d="M139.118 158.159C137.729 158.159 136.603 159.285 136.603 160.673C136.603 162.061 137.729 163.186 139.118 163.186C139.689 163.186 140.216 162.996 140.638 162.675L141.036 159.048C140.574 158.505 139.886 158.16 139.118 158.16V158.159Z" fill="#FFCD00"/>
<path d="M117.307 163.119C118.66 162.804 119.501 161.453 119.186 160.101C118.871 158.749 117.519 157.908 116.166 158.223C114.813 158.538 113.972 159.889 114.287 161.241C114.602 162.593 115.954 163.433 117.307 163.119Z" fill="#FFCD00"/>
<path fill-rule="evenodd" clip-rule="evenodd" d="M94.3495 158.159C92.9605 158.159 91.8342 159.285 91.8342 160.673C91.8342 162.061 92.9605 163.186 94.3495 163.186C95.7385 163.186 96.8648 162.061 96.8648 160.673C96.8648 159.285 95.7385 158.159 94.3495 158.159Z" fill="#FFCD00"/>
<path d="M73.743 162.45C74.7252 161.468 74.7252 159.877 73.743 158.895C72.7607 157.914 71.1681 157.914 70.1858 158.895C69.2035 159.877 69.2035 161.468 70.1858 162.45C71.1681 163.431 72.7607 163.431 73.743 162.45Z" fill="#FFCD00"/>
<path fill-rule="evenodd" clip-rule="evenodd" d="M51.2233 162.576C51.757 162.115 52.0951 161.434 52.0951 160.673C52.0951 159.715 51.5598 158.883 50.7716 158.459L51.2233 162.576Z" fill="#FFCD00"/>
<path fill-rule="evenodd" clip-rule="evenodd" d="M168.185 143.357V100.91C168.185 99.4415 166.983 98.2407 165.514 98.2407C164.045 98.2407 162.842 99.4415 162.842 100.91V143.357C162.842 144.825 164.045 146.026 165.514 146.026C166.984 146.026 168.185 144.825 168.185 143.357Z" fill="#FFCD7C"/>
<path fill-rule="evenodd" clip-rule="evenodd" d="M168.185 132.736H162.842V145.6C162.842 146.334 164.045 146.935 165.513 146.935C166.983 146.935 168.184 146.334 168.184 145.6V132.736H168.185Z" fill="#A06223"/>
<path d="M163.989 147.592V163.384C163.989 164.226 164.672 164.909 165.515 164.909C166.357 164.909 167.04 164.226 167.04 163.384V147.592C168.032 147.73 168.925 148.194 169.604 148.873C170.42 149.688 170.927 150.813 170.927 152.049V163.385C170.927 164.227 171.61 164.909 172.453 164.909C173.296 164.909 173.979 164.227 173.979 163.385V152.049C173.979 150.366 173.421 148.808 172.482 147.55H174.057C175.294 147.55 176.419 148.057 177.235 148.873C178.051 149.688 178.558 150.813 178.558 152.049V163.385C178.558 164.227 179.241 164.909 180.084 164.909C180.927 164.909 181.61 164.227 181.61 163.385V152.049C181.61 149.972 180.76 148.084 179.393 146.718C178.026 145.351 176.137 144.503 174.058 144.503H156.974C154.896 144.503 153.007 145.351 151.639 146.718C150.271 148.085 149.422 149.972 149.422 152.049V163.385C149.422 164.227 150.105 164.909 150.948 164.909C151.791 164.909 152.474 164.227 152.474 163.385V152.049C152.474 150.813 152.981 149.689 153.798 148.873C154.614 148.057 155.739 147.55 156.975 147.55H158.55C157.611 148.808 157.054 150.366 157.054 152.049V163.385C157.054 164.227 157.737 164.909 158.579 164.909C159.422 164.909 160.105 164.227 160.105 163.385V152.049C160.105 150.813 160.612 149.689 161.429 148.873C162.108 148.194 163 147.73 163.992 147.592H163.989Z" fill="#A06223"/>
<path fill-rule="evenodd" clip-rule="evenodd" d="M159.073 155.218C152.623 155.218 146.87 158.804 143.12 164.405C141.71 163.809 140.193 163.483 138.613 163.483C134.352 163.483 130.55 165.841 128.061 169.529C127.114 169.126 126.097 168.907 125.035 168.907C120.031 168.907 115.973 173.779 115.973 179.789H204.156C204.156 173.779 200.099 168.907 195.094 168.907C194.034 168.907 193.015 169.127 192.069 169.529C189.579 165.841 185.778 163.483 181.517 163.483C179.936 163.483 178.42 163.809 177.009 164.405C173.259 158.804 167.507 155.218 161.056 155.218C160.724 155.218 160.393 155.229 160.064 155.247C159.735 155.229 159.405 155.218 159.072 155.218H159.073Z" fill="#8A5A25"/>
<path fill-rule="evenodd" clip-rule="evenodd" d="M39.5656 179.789C41.9268 179.789 43.8528 177.864 43.8528 175.505C43.8528 173.145 41.9268 171.221 39.5656 171.221C37.2045 171.221 35.2784 173.145 35.2784 175.505C35.2784 177.864 37.2045 179.789 39.5656 179.789Z" fill="#8A5A25"/>
<path d="M68.9287 179.788C72.4005 179.788 75.2149 176.975 75.2149 173.506C75.2149 170.037 72.4005 167.225 68.9287 167.225C65.457 167.225 62.6426 170.037 62.6426 173.506C62.6426 176.975 65.457 179.788 68.9287 179.788Z" fill="#8A5A25"/>
<path fill-rule="evenodd" clip-rule="evenodd" d="M217.857 179.789C219.589 179.789 221.001 178.377 221.001 176.647C221.001 174.917 219.589 173.506 217.857 173.506C216.126 173.506 214.714 174.917 214.714 176.647C214.714 178.377 216.126 179.789 217.857 179.789Z" fill="#8A5A25"/>
</g>
<defs>
<clipPath id="clip0_2238_48397">
<rect width="221" height="179" fill="white"/>
</clipPath>
</defs>
</svg>
