<svg width="107" height="218" viewBox="0 0 107 218" fill="none" xmlns="http://www.w3.org/2000/svg">
<g clip-path="url(#clip0_2378_20338)">
<path fill-rule="evenodd" clip-rule="evenodd" d="M45.926 224.176L63.6357 241.812L150 155.803V120.531L45.926 224.176Z" fill="#B1865C"/>
<path d="M36.83 209.839H22.991V211.987H36.83V209.839Z" fill="#8BBE33"/>
<path fill-rule="evenodd" clip-rule="evenodd" d="M0.766357 234.468L24.418 210.914C27.7177 226.618 12.6787 237.765 0.766357 234.468Z" fill="#8BBE33"/>
<path fill-rule="evenodd" clip-rule="evenodd" d="M0.766155 234.468L24.4178 210.914C8.64799 207.627 -2.54474 222.605 0.766155 234.468Z" fill="#99CC33"/>
<path fill-rule="evenodd" clip-rule="evenodd" d="M0.766357 187.358L24.418 210.912C27.7177 195.208 12.6787 184.06 0.766357 187.358Z" fill="#8BBE33"/>
<path fill-rule="evenodd" clip-rule="evenodd" d="M0.766155 187.358L24.4178 210.912C8.64799 214.199 -2.54474 199.221 0.766155 187.358Z" fill="#99CC33"/>
<path d="M36.83 28.1531H22.991V30.3009H36.83V28.1531Z" fill="#8BBE33"/>
<path fill-rule="evenodd" clip-rule="evenodd" d="M0.766357 52.7819L24.418 29.2275C27.7177 44.9325 12.6787 56.0791 0.766357 52.7819Z" fill="#8BBE33"/>
<path fill-rule="evenodd" clip-rule="evenodd" d="M0.766155 52.7818L24.4178 29.2275C8.64799 25.9414 -2.54474 40.9185 0.766155 52.7818Z" fill="#99CC33"/>
<path fill-rule="evenodd" clip-rule="evenodd" d="M0.766357 5.67217L24.418 29.2265C27.7177 13.5226 12.6787 2.37489 0.766357 5.67217Z" fill="#8BBE33"/>
<path fill-rule="evenodd" clip-rule="evenodd" d="M0.766193 5.67212L24.4178 29.2264C8.64803 32.5136 -2.54572 17.5354 0.766193 5.67212Z" fill="#99CC33"/>
<path d="M79.3087 31.2041H65.4697V33.3519H79.3087V31.2041Z" fill="#8BBE33"/>
<path fill-rule="evenodd" clip-rule="evenodd" d="M101.532 55.8328L77.8808 32.2784C74.5811 47.9834 89.62 59.1301 101.532 55.8328Z" fill="#8BBE33"/>
<path fill-rule="evenodd" clip-rule="evenodd" d="M101.532 55.8328L77.8809 32.2785C93.6506 28.9924 104.843 43.9695 101.532 55.8328Z" fill="#99CC33"/>
<path fill-rule="evenodd" clip-rule="evenodd" d="M101.532 8.72311L77.8808 32.2774C74.5811 16.5725 89.62 5.42583 101.532 8.72311Z" fill="#8BBE33"/>
<path fill-rule="evenodd" clip-rule="evenodd" d="M101.532 8.72314L77.8809 32.2775C93.6506 35.5636 104.843 20.5865 101.532 8.72314Z" fill="#99CC33"/>
<path d="M68.9994 0H33.5759V242H68.9994V0Z" fill="#B1865C"/>
<path fill-rule="evenodd" clip-rule="evenodd" d="M33.5759 176.684H68.9994V182.626L33.5759 217.903V176.684Z" fill="#9F7953"/>
<path fill-rule="evenodd" clip-rule="evenodd" d="M7.86548 62.8683L50.2812 31.422L92.698 62.8683V177.859H50.2812H7.86548V62.8683Z" fill="#996633"/>
<path fill-rule="evenodd" clip-rule="evenodd" d="M47.7021 130.25C49.5881 128.372 52.6466 128.372 54.5326 130.25C56.4186 132.128 56.4186 135.173 54.5326 137.053L13.558 177.859H7.86548V169.924L47.7021 130.251V130.25Z" fill="#84592C"/>
<path fill-rule="evenodd" clip-rule="evenodd" d="M18.2418 116.168L19.8509 111.283L21.4692 116.04L26.4147 115.058L23.5242 118.273C23.918 118.57 24.2967 118.897 24.6559 119.254C25.3277 119.923 25.8926 120.658 26.3506 121.439C30.5795 127.436 29.8396 134.706 26.2824 140.193L30.5449 144.439C30.5622 144.455 30.5775 144.472 30.5917 144.49C30.662 144.56 30.7363 144.622 30.8146 144.677C31.1719 144.924 31.6238 145.023 32.0655 144.987C32.5103 144.951 32.9378 144.781 33.2451 144.494C33.3245 144.42 33.3958 144.339 33.4558 144.252C33.6624 143.956 34.0726 143.882 34.3708 144.089C34.668 144.295 34.7423 144.703 34.5347 145C34.4197 145.165 34.2884 145.315 34.1449 145.448C33.6136 145.943 32.9021 146.234 32.1744 146.294C31.4436 146.352 30.6844 146.181 30.0635 145.751C29.9139 145.648 29.7734 145.53 29.6442 145.4L29.6106 145.369L25.516 141.291C24.5725 142.546 23.4753 143.686 22.255 144.668L26.2844 148.681C26.3007 148.698 26.317 148.715 26.3312 148.732C26.4015 148.802 26.4758 148.864 26.5541 148.919C26.9114 149.166 27.3633 149.265 27.805 149.229C28.2498 149.193 28.6773 149.023 28.9846 148.736C29.063 148.662 29.1353 148.581 29.1953 148.494C29.403 148.198 29.8121 148.125 30.1103 148.331C30.4075 148.538 30.4818 148.945 30.2742 149.242C30.1592 149.407 30.0279 149.557 29.8844 149.691C29.3531 150.186 28.6406 150.477 27.9139 150.537C27.1831 150.595 26.4239 150.424 25.803 149.994C25.6534 149.892 25.5129 149.773 25.3837 149.643L25.3501 149.612L21.1883 145.467C17.4723 148.035 12.7935 149.199 7.86328 147.949V133.292L8.35691 133.378C8.18185 133.148 8.01799 132.912 7.86328 132.671V121.09C8.27956 120.44 8.77218 119.825 9.34214 119.258C11.7726 116.837 15.0713 115.808 18.2397 116.171L18.2418 116.168Z" fill="#84592C"/>
<path d="M59.1915 108.301C64.1126 103.4 64.1126 95.4545 59.1915 90.5536C54.2704 85.6527 46.2916 85.6527 41.3705 90.5536C36.4493 95.4545 36.4493 103.4 41.3705 108.301C46.2916 113.202 54.2704 113.202 59.1915 108.301Z" fill="#544620"/>
<path fill-rule="evenodd" clip-rule="evenodd" d="M51.1178 138.461C53.7783 138.461 55.9472 136.3 55.9472 133.652C55.9472 131.003 53.7773 128.842 51.1178 128.842C48.4583 128.842 46.2883 131.003 46.2883 133.652C46.2883 136.3 48.4583 138.461 51.1178 138.461Z" fill="#544620"/>
<path d="M96.7466 128.842H51.1177V138.461H96.7466V128.842Z" fill="#544620"/>
<path fill-rule="evenodd" clip-rule="evenodd" d="M96.7467 138.461C99.4072 138.461 101.576 136.3 101.576 133.652C101.576 131.003 99.4062 128.842 96.7467 128.842C94.0872 128.842 91.9172 131.003 91.9172 133.652C91.9172 136.3 94.0872 138.461 96.7467 138.461Z" fill="#B1865C"/>
<path fill-rule="evenodd" clip-rule="evenodd" d="M98.1402 97.3808L103.022 94.9208L100.606 99.7912C99.8593 101.298 98.2847 101.303 97.4532 100.45C96.8201 99.8013 96.4558 98.6336 98.1402 97.3808Z" fill="#675727"/>
<path fill-rule="evenodd" clip-rule="evenodd" d="M99.5214 102.514L104.984 102.214L100.447 99.1982C99.043 98.2647 97.6771 99.0442 97.385 100.199C97.1631 101.075 97.4339 102.268 99.5214 102.515V102.514Z" fill="#675727"/>
<path d="M81.0198 117.672C81.0198 117.309 80.7246 117.016 80.3602 117.016C79.9958 117.016 79.7007 117.309 79.7007 117.672V125.896L79.7027 125.94C79.7007 126.125 79.717 126.307 79.7495 126.485C79.8829 127.226 80.2981 127.881 80.8569 128.355C81.4136 128.825 82.123 129.121 82.8498 129.144C83.0462 129.15 83.2457 129.137 83.4442 129.102C83.8014 129.038 84.0385 128.697 83.9744 128.343C83.9103 127.987 83.5683 127.751 83.2121 127.815C83.1073 127.833 82.9994 127.84 82.8915 127.837C82.4701 127.824 82.0477 127.642 81.7068 127.354C81.3689 127.069 81.1195 126.681 81.0432 126.255C81.0259 126.161 81.0177 126.064 81.0177 125.966C81.0208 125.942 81.0218 125.919 81.0218 125.896V117.672H81.0198Z" fill="#FFCC99"/>
<path d="M87.0429 117.672C87.0429 117.309 86.7478 117.016 86.3834 117.016C86.019 117.016 85.7239 117.309 85.7239 117.672V125.896L85.7259 125.94C85.7239 126.125 85.7402 126.307 85.7727 126.485C85.9061 127.226 86.3213 127.881 86.8801 128.355C87.4368 128.825 88.1462 129.121 88.874 129.144C89.0704 129.15 89.2699 129.137 89.4684 129.102C89.8256 129.038 90.0628 128.697 89.9986 128.343C89.9345 127.987 89.5925 127.751 89.2363 127.815C89.1315 127.833 89.0236 127.84 88.9157 127.837C88.4943 127.824 88.0719 127.642 87.731 127.354C87.3931 127.069 87.1437 126.681 87.0674 126.255C87.0501 126.161 87.0419 126.064 87.0419 125.966C87.044 125.942 87.046 125.919 87.046 125.896V117.672H87.0429Z" fill="#FFCC99"/>
<path fill-rule="evenodd" clip-rule="evenodd" d="M86.6623 109.056L100.438 106.506C97.4001 124.926 65.7496 126.662 65.7292 101.115C68.5414 100.925 70.8813 101.833 72.5831 104.224C72.9566 98.1825 79.668 108.025 86.6623 109.056Z" fill="#FFCC00"/>
<path d="M97.5894 111.565C101.818 107.354 101.818 100.527 97.5894 96.3161C93.361 92.1051 86.5055 92.1051 82.2772 96.3161C78.0488 100.527 78.0488 107.354 82.2772 111.565C86.5055 115.776 93.361 115.776 97.5894 111.565Z" fill="#FFCC00"/>
<path fill-rule="evenodd" clip-rule="evenodd" d="M81.8777 106.237L87.61 114.374C83.0971 117.527 76.8722 116.44 73.7069 111.945C70.5405 107.451 71.6326 101.253 76.1455 98.0995L81.8777 106.237Z" fill="#9B742D"/>
<path d="M95.223 99.778C95.2851 100.201 95.2322 100.624 95.0805 101.005H95.0795C94.9258 101.391 94.6744 101.735 94.3396 101.998C93.8205 102.406 93.1823 102.567 92.5737 102.495C91.964 102.425 91.3819 102.121 90.9707 101.605C90.7753 101.358 90.6328 101.075 90.5473 100.775C90.4618 100.474 90.4343 100.157 90.4709 99.8459L91.3544 99.9493C91.331 100.149 91.3473 100.348 91.4002 100.533C91.4531 100.719 91.5437 100.897 91.6699 101.055C91.9284 101.381 92.2948 101.571 92.6775 101.616C93.0602 101.66 93.4612 101.559 93.7879 101.301C94.0007 101.133 94.1604 100.917 94.2561 100.679C94.3528 100.437 94.3864 100.17 94.3477 99.9067L95.224 99.777L95.223 99.778Z" fill="#675727"/>
<path d="M100.767 166.968C100.816 167.033 100.88 167.083 100.952 167.114C101.025 167.146 101.105 167.158 101.185 167.149C101.311 167.135 101.417 167.071 101.491 166.979C101.563 166.888 101.601 166.77 101.586 166.645C101.579 166.586 101.561 166.528 101.531 166.477C101.502 166.425 101.463 166.378 101.416 166.342L101.312 166.474C101.342 166.498 101.367 166.526 101.384 166.559C101.402 166.591 101.413 166.627 101.418 166.665C101.428 166.743 101.404 166.818 101.358 166.876C101.313 166.934 101.245 166.973 101.167 166.983C101.116 166.989 101.065 166.98 101.021 166.961C100.975 166.941 100.934 166.911 100.903 166.87L100.768 166.97L100.767 166.968Z" fill="#2B2A29"/>
<path d="M99.9497 167.781C99.9986 167.846 100.063 167.897 100.135 167.927C100.207 167.959 100.288 167.971 100.368 167.962C100.493 167.948 100.6 167.884 100.673 167.792C100.746 167.701 100.783 167.583 100.769 167.458C100.762 167.399 100.744 167.341 100.714 167.29C100.685 167.238 100.646 167.191 100.599 167.155L100.494 167.288C100.525 167.311 100.549 167.34 100.566 167.372C100.585 167.404 100.596 167.44 100.601 167.478C100.61 167.556 100.587 167.631 100.541 167.689C100.495 167.747 100.428 167.786 100.35 167.796C100.299 167.802 100.248 167.793 100.203 167.774C100.157 167.754 100.117 167.724 100.086 167.683L99.9507 167.783L99.9497 167.781Z" fill="#2B2A29"/>
<path fill-rule="evenodd" clip-rule="evenodd" d="M100.911 35.3436L124.187 12.1633C108.667 8.92987 97.6526 23.6688 100.911 35.3436Z" fill="#8BBE33"/>
<path fill-rule="evenodd" clip-rule="evenodd" d="M100.911 35.3436L124.187 12.1633C127.433 27.6189 112.634 38.5882 100.911 35.3436Z" fill="#99CC33"/>
<path fill-rule="evenodd" clip-rule="evenodd" d="M104.864 134.951H124.969C119.67 143.023 108.52 141.395 104.864 134.951Z" fill="#8BBE33"/>
<path fill-rule="evenodd" clip-rule="evenodd" d="M104.864 134.951H124.969C119.67 126.88 108.52 128.508 104.864 134.951Z" fill="#99CC33"/>
<path d="M52.335 0H50.2129V13.5621H52.335V0Z" fill="#8BBE33"/>
<path fill-rule="evenodd" clip-rule="evenodd" d="M27.9985 35.3436L51.2745 12.1633C35.7552 8.92987 24.7405 23.6688 27.9985 35.3436Z" fill="#8BBE33"/>
<path fill-rule="evenodd" clip-rule="evenodd" d="M27.9985 35.3436L51.2746 12.1633C54.5214 27.6189 39.7215 38.5882 27.9985 35.3436Z" fill="#99CC33"/>
<path fill-rule="evenodd" clip-rule="evenodd" d="M74.5495 35.3436L51.2734 12.1633C66.7928 8.92987 77.8075 23.6688 74.5495 35.3436Z" fill="#8BBE33"/>
<path fill-rule="evenodd" clip-rule="evenodd" d="M74.5495 35.3436L51.2734 12.1633C48.0267 27.6189 62.8265 38.5882 74.5495 35.3436Z" fill="#99CC33"/>
<path d="M64.2036 63.2211V62.2754C64.3787 62.2744 64.5405 62.245 64.6912 62.1842C64.8418 62.1244 64.9721 62.0392 65.0861 61.9287C65.199 61.8172 65.2866 61.6855 65.3497 61.5304C65.4128 61.3763 65.4453 61.204 65.4464 61.0134C65.4453 60.8239 65.4128 60.6506 65.3497 60.4965C65.2866 60.3414 65.198 60.2096 65.0861 60.0981C64.9721 59.9866 64.8418 59.9015 64.6912 59.8427C64.5405 59.7819 64.3787 59.7525 64.2036 59.7515V58.8058C64.4489 58.8058 64.683 58.8433 64.9039 58.9153C65.1247 58.9882 65.3283 59.0906 65.5125 59.2234C65.6967 59.3562 65.8565 59.5133 65.9929 59.6968C66.1283 59.8802 66.2321 60.0819 66.3074 60.3039C66.3817 60.5259 66.4194 60.7631 66.4204 61.0134C66.4204 61.2638 66.3817 61.501 66.3074 61.723C66.2321 61.9449 66.1273 62.1477 65.9929 62.3301C65.8565 62.5126 65.6967 62.6707 65.5125 62.8035C65.3283 62.9373 65.1247 63.0386 64.9039 63.1116C64.683 63.1836 64.4489 63.2201 64.2036 63.2211ZM40.322 58.8909V60.5158H38.9826V58.8909H38.0085V63.1359H38.9826V61.4503H40.322V63.1359H41.296V58.8909H40.322ZM64.2036 58.8058V59.7515C64.0286 59.7515 63.8667 59.7819 63.7161 59.8427C63.5655 59.9025 63.4352 59.9877 63.3222 60.0981C63.2082 60.2096 63.1207 60.3414 63.0576 60.4965C62.9945 60.6506 62.9619 60.8229 62.9609 61.0134C62.9619 61.203 62.9945 61.3763 63.0576 61.5304C63.1207 61.6855 63.2092 61.8172 63.3222 61.9287C63.4352 62.0402 63.5655 62.1244 63.7161 62.1842C63.8667 62.245 64.0286 62.2744 64.2036 62.2754V63.2211C63.9583 63.2211 63.7243 63.1836 63.5034 63.1116C63.2825 63.0386 63.079 62.9373 62.8947 62.8035C62.7105 62.6707 62.5507 62.5136 62.4143 62.3301C62.279 62.1467 62.1752 61.9449 62.0998 61.723C62.0255 61.501 61.9879 61.2638 61.9869 61.0134C61.9879 60.7631 62.0255 60.5259 62.0998 60.3039C62.1752 60.0819 62.279 59.8792 62.4143 59.6968C62.5507 59.5143 62.7105 59.3562 62.8947 59.2234C63.079 59.0896 63.2825 58.9882 63.5034 58.9153C63.7243 58.8433 63.9583 58.8068 64.2036 58.8058ZM45.7693 62.2014V61.4493H47.2919V60.5279H45.7693V59.8245H47.4435V58.8909H44.7942V63.1359H47.4741V62.2024H45.7693V62.2014ZM51.7641 62.2014V58.8899H50.7901V63.1349H53.2867V62.2014H51.7641ZM57.4546 62.2014V58.8899H56.4806V63.1349H58.9772V62.2014H57.4546Z" fill="white"/>
<path d="M49.0719 74.7681V72.8523H49.2836C49.4404 72.8503 49.5829 72.8088 49.7101 72.7256C49.8373 72.6435 49.9371 72.531 50.0134 72.3881C50.0887 72.2462 50.1284 72.084 50.1294 71.9036C50.1274 71.7232 50.0887 71.561 50.0134 71.4191C49.9381 71.2772 49.8373 71.1647 49.7101 71.0816C49.5829 70.9995 49.4404 70.9569 49.2836 70.9549H49.0719V69.3746H49.2836C49.6378 69.3767 49.9676 69.4436 50.275 69.5733C50.5803 69.703 50.85 69.8825 51.0811 70.1146C51.3142 70.3447 51.4933 70.6133 51.6246 70.9174C51.7549 71.2225 51.822 71.5509 51.8241 71.9046C51.822 72.2087 51.764 72.4986 51.651 72.7702C51.5381 73.0439 51.3793 73.2902 51.1747 73.5082C50.9701 73.7261 50.732 73.9055 50.4592 74.0433L52.0358 76.7507H50.2159L49.074 74.7681H49.0719ZM57.6347 69.3757V76.7507H59.3273V69.3757H57.6347ZM69.5297 69.3757V73.3794L66.6737 69.3757H65.4046V76.7507H67.0972V72.7469L69.9531 76.7507H71.2223V69.3757H69.5297ZM84.6298 72.6415H80.9168V74.1163H82.8954C82.8069 74.3535 82.6766 74.5552 82.5056 74.7255C82.3346 74.8938 82.1229 75.0245 81.8705 75.1157C81.6201 75.207 81.329 75.2526 81.0013 75.2546C80.642 75.2526 80.3173 75.1989 80.0313 75.0914C79.7443 74.984 79.5011 74.8329 79.2975 74.6404C79.097 74.4457 78.9413 74.2177 78.8354 73.9521C78.7275 73.6886 78.6746 73.3987 78.6736 73.0845C78.6756 72.7591 78.7296 72.4611 78.8395 72.1925C78.9474 71.9218 79.099 71.6887 79.2965 71.4921C79.4919 71.2954 79.7219 71.1424 79.9855 71.0359C80.2502 70.9285 80.5392 70.8748 80.8527 70.8728C81.1326 70.8748 81.3901 70.9133 81.6252 70.9883C81.8593 71.0643 82.0659 71.1677 82.242 71.2975C82.4181 71.4272 82.5575 71.5732 82.6613 71.7364L84.1005 70.9143C83.8908 70.5829 83.6232 70.2889 83.2985 70.0365C82.9738 69.7852 82.6074 69.5885 82.1952 69.4466C81.783 69.3047 81.3382 69.2307 80.8639 69.2287C80.4263 69.2307 80.012 69.2956 79.6222 69.4233C79.2324 69.551 78.8782 69.7324 78.5555 69.9656C78.2329 70.1987 77.954 70.4764 77.7199 70.7957C77.4858 71.115 77.3036 71.4667 77.1754 71.8529C77.0482 72.2371 76.983 72.6435 76.981 73.0733C76.983 73.498 77.0461 73.9024 77.1734 74.2846C77.3006 74.6657 77.4818 75.0164 77.7179 75.3347C77.954 75.653 78.238 75.9276 78.5657 76.1618C78.8955 76.3949 79.2639 76.5743 79.669 76.7031C80.0761 76.8308 80.5117 76.8967 80.9789 76.8977C81.501 76.8956 81.9825 76.8135 82.4242 76.6483C82.8649 76.4831 83.2506 76.2449 83.5804 75.9307C83.9102 75.6185 84.1656 75.2384 84.3488 74.7914C84.5321 74.3454 84.6237 73.8396 84.6277 73.274V72.6415H84.6298ZM49.0719 69.3757V70.9559H48.0144V72.8523H49.0719V74.7681L48.8175 74.3271H48.0134V76.7507H46.3208V69.3757H49.0709H49.0719ZM37.9708 74.4326V72.8523H38.0767C38.2507 72.8503 38.4044 72.8088 38.5408 72.7256C38.6751 72.6435 38.781 72.531 38.8583 72.3881C38.9357 72.2462 38.9744 72.084 38.9764 71.9036C38.9744 71.7232 38.9357 71.561 38.8583 71.4191C38.781 71.2772 38.6751 71.1647 38.5408 71.0816C38.4054 70.9995 38.2517 70.9569 38.0767 70.9549H37.9708V69.3746H38.0767C38.4431 69.3767 38.784 69.4436 39.0975 69.5733C39.411 69.703 39.6848 69.8825 39.9209 70.1146C40.155 70.3447 40.3372 70.6133 40.4695 70.9174C40.5998 71.2225 40.667 71.5509 40.669 71.9046C40.667 72.2574 40.5998 72.5858 40.4695 72.8919C40.3372 73.196 40.156 73.4646 39.9209 73.6947C39.6848 73.9268 39.411 74.1052 39.0975 74.2359C38.784 74.3657 38.4431 74.4326 38.0767 74.4346H37.9708V74.4326ZM26.8697 76.8977C27.2737 76.8977 27.6432 76.845 27.9791 76.7436C28.3139 76.6422 28.603 76.4943 28.8483 76.2996C29.0936 76.105 29.2839 75.8678 29.4182 75.5871C29.5526 75.3083 29.6187 74.9901 29.6208 74.6333C29.6187 74.3221 29.5719 74.0555 29.4813 73.8295C29.3897 73.6024 29.2646 73.4119 29.1058 73.2517C28.947 73.0936 28.7658 72.9588 28.5623 72.8493C28.3597 72.7388 28.144 72.6435 27.919 72.5645C27.691 72.4854 27.4661 72.4134 27.2402 72.3465C26.9541 72.2604 26.7221 72.1793 26.545 72.1043C26.3689 72.0283 26.2325 71.9553 26.1409 71.8843C26.0473 71.8124 25.9862 71.7404 25.9526 71.6664C25.9211 71.5924 25.9048 71.5134 25.9068 71.4292C25.9068 71.3289 25.9363 71.2377 25.9954 71.1535C26.0534 71.0694 26.1419 71.0005 26.26 70.9498C26.3781 70.8991 26.5246 70.8728 26.7007 70.8707C26.9246 70.8707 27.117 70.9062 27.2768 70.9741C27.4376 71.043 27.573 71.1414 27.6859 71.2691C27.7989 71.3958 27.8976 71.5478 27.9801 71.7242L29.4081 70.892C29.2269 70.5302 29.004 70.2251 28.7363 69.9788C28.4696 69.7314 28.1653 69.5429 27.8233 69.4172C27.4814 69.2905 27.1078 69.2277 26.6997 69.2277C26.4422 69.2277 26.1918 69.2611 25.9506 69.324C25.7073 69.3888 25.4814 69.4841 25.2717 69.6088C25.0621 69.7335 24.8789 69.8865 24.7201 70.0669C24.5613 70.2494 24.4382 70.4572 24.3496 70.6923C24.2611 70.9275 24.2153 71.187 24.2142 71.4718C24.2173 71.8225 24.2794 72.1236 24.3995 72.3739C24.5206 72.6253 24.6855 72.8371 24.8911 73.0074C25.0977 73.1797 25.3297 73.3216 25.5893 73.4342C25.8468 73.5467 26.1145 73.6399 26.3933 73.7149C26.7618 73.8153 27.06 73.9065 27.2859 73.9927C27.5119 74.0788 27.6737 74.1731 27.7765 74.2775C27.8783 74.3788 27.9302 74.5035 27.9282 74.6535C27.9302 74.7498 27.9038 74.8451 27.8468 74.9363C27.7887 75.0276 27.6859 75.1015 27.5404 75.1614C27.3938 75.2212 27.1893 75.2526 26.9236 75.2546C26.6468 75.2526 26.4066 75.211 26.2081 75.1249C26.0086 75.0407 25.8397 74.9231 25.7043 74.7701C25.5689 74.617 25.4559 74.4386 25.3694 74.2329L23.9099 75.0762C24.0473 75.4401 24.2499 75.7594 24.5165 76.031C24.7832 76.3037 25.1109 76.5155 25.5038 76.6666C25.8967 76.8196 26.3536 76.8967 26.8717 76.8987L26.8697 76.8977ZM37.9708 69.3757V70.9559H36.9662V72.8523H37.9708V74.4326H36.9662V76.7507H35.2736V69.3757H37.9708Z" fill="white"/>
</g>
<defs>
<clipPath id="clip0_2378_20338">
<rect width="107" height="218" fill="white"/>
</clipPath>
</defs>
</svg>
