<svg width="130" height="220" viewBox="0 0 130 220" fill="none" xmlns="http://www.w3.org/2000/svg">
<g clip-path="url(#clip0_2238_50380)">
<path fill-rule="evenodd" clip-rule="evenodd" d="M2.93046 147.372L-17.9889 111.524C-18.5801 110.51 -19.9024 110.16 -20.9262 110.745C-21.9506 111.33 -22.3046 112.638 -21.7134 113.651L-0.794043 149.499C-0.202843 150.513 1.11953 150.863 2.1433 150.278C3.16774 149.693 3.52166 148.385 2.93046 147.372Z" fill="#FFCD7C"/>
<path fill-rule="evenodd" clip-rule="evenodd" d="M10.6541 144.747L1.85677 129.671L-15.752 139.729L-6.95459 154.805C-4.15855 159.596 2.09072 161.253 6.93297 158.487C11.7752 155.72 13.4502 149.537 10.6541 144.747Z" fill="#A06223"/>
<path fill-rule="evenodd" clip-rule="evenodd" d="M-5.0858 133.636L-8.8103 135.763L-0.794764 149.499C-0.203562 150.513 1.11814 150.863 2.14258 150.278C3.16702 149.692 3.52094 148.385 2.92974 147.372L-5.0858 133.636Z" fill="#AB7134"/>
<path fill-rule="evenodd" clip-rule="evenodd" d="M31.7473 140.793C27.7116 140.793 24.1124 143.015 21.7656 146.485C20.8831 146.116 19.934 145.914 18.9455 145.914C16.2795 145.914 13.9007 147.374 12.343 149.659C11.7511 149.41 11.1139 149.273 10.4501 149.273C7.31879 149.273 4.78003 152.291 4.78003 156.014H59.955C59.955 152.291 57.4163 149.273 54.285 149.273C53.6211 149.273 52.9839 149.41 52.392 149.659C50.8344 147.374 48.4556 145.914 45.7895 145.914C44.8011 145.914 43.8513 146.116 42.9695 146.485C40.6227 143.015 37.0242 140.793 32.9877 140.793C32.7798 140.793 32.5731 140.8 32.3672 140.811C32.1612 140.8 31.9546 140.793 31.7467 140.793H31.7473Z" fill="#8A5A25"/>
<path d="M48.0377 106.857V95.5744H48.0317C48.1863 88.2837 44.3712 83.4962 39.3509 81.3128C37.3794 80.4549 35.2139 80.0078 33.0297 79.9775C30.8569 79.9472 28.6647 80.3323 26.6278 81.1374C21.273 83.2562 16.978 88.2336 16.816 96.1574L16.8093 96.187V189.374H19.8926V96.187H19.8873C20.0299 89.7055 23.4778 85.6605 27.7722 83.9611C29.4325 83.3043 31.2201 82.9904 32.9937 83.0155C34.7553 83.0406 36.5083 83.4039 38.1106 84.1003C42.0797 85.8267 45.0937 89.6626 44.961 95.5441L44.9544 95.5738V106.857H48.0377V106.857Z" fill="#91BE23"/>
<path fill-rule="evenodd" clip-rule="evenodd" d="M46.4954 96.9316V147.076C66.9268 133.857 62.8064 106.05 46.4954 96.9316Z" fill="#A0CD23"/>
<path fill-rule="evenodd" clip-rule="evenodd" d="M46.4953 96.9316V147.076C26.0639 133.857 30.1843 106.05 46.4953 96.9316Z" fill="#91BE23"/>
<path fill-rule="evenodd" clip-rule="evenodd" d="M-5.02251 220L-12.7908 149.861H71.6297L63.8614 220H-5.02251Z" fill="#FF624F"/>
<path fill-rule="evenodd" clip-rule="evenodd" d="M62.2646 149.861C62.1746 150.087 62.126 150.333 62.126 150.591C62.126 151.696 63.0318 152.592 64.1489 152.592C65.2659 152.592 66.1717 151.696 66.1717 150.591C66.1717 150.333 66.1224 150.087 66.0331 149.861H62.2653H62.2646Z" fill="#FFCD00"/>
<path fill-rule="evenodd" clip-rule="evenodd" d="M44.2619 149.861C44.1726 150.087 44.1233 150.333 44.1233 150.591C44.1233 151.696 45.0291 152.592 46.1462 152.592C47.2633 152.592 48.1691 151.696 48.1691 150.591C48.1691 150.333 48.1197 150.087 48.0304 149.861H44.2626H44.2619Z" fill="#FFCD00"/>
<path fill-rule="evenodd" clip-rule="evenodd" d="M26.2592 149.861C26.1699 150.087 26.1206 150.333 26.1206 150.591C26.1206 151.696 27.0264 152.592 28.1435 152.592C29.2606 152.592 30.1664 151.696 30.1664 150.591C30.1664 150.333 30.117 150.087 30.0277 149.861H26.2599H26.2592Z" fill="#FFCD00"/>
<path fill-rule="evenodd" clip-rule="evenodd" d="M8.25656 149.861C8.16724 150.087 8.11792 150.333 8.11792 150.591C8.11792 151.696 9.02372 152.592 10.1408 152.592C11.2579 152.592 12.1637 151.696 12.1637 150.591C12.1637 150.333 12.1144 150.087 12.025 149.861H8.25722H8.25656Z" fill="#FFCD00"/>
<path fill-rule="evenodd" clip-rule="evenodd" d="M55.0041 162.593C53.887 162.593 52.9812 163.489 52.9812 164.594C52.9812 165.699 53.887 166.596 55.0041 166.596C56.1212 166.596 57.027 165.699 57.027 164.594C57.027 163.489 56.1212 162.593 55.0041 162.593Z" fill="#FFCD00"/>
<path d="M37.4723 166.541C38.5588 166.284 39.2288 165.204 38.9687 164.129C38.7087 163.054 37.6171 162.391 36.5305 162.648C35.444 162.906 34.774 163.986 35.0341 165.061C35.2941 166.136 36.3857 166.799 37.4723 166.541Z" fill="#FFCD00"/>
<path d="M21.1197 165.441C21.4878 164.397 20.9312 163.256 19.8764 162.892C18.8216 162.527 17.668 163.078 17.2999 164.122C16.9317 165.165 17.4884 166.307 18.5432 166.671C19.598 167.035 20.7515 166.484 21.1197 165.441Z" fill="#FFCD00"/>
<path d="M1.29347 166.575C2.39832 166.411 3.15964 165.392 2.99393 164.299C2.82822 163.206 1.79822 162.452 0.693376 162.616C-0.411472 162.78 -1.17279 163.799 -1.00708 164.892C-0.841369 165.986 0.188624 166.739 1.29347 166.575Z" fill="#FFCD00"/>
<path fill-rule="evenodd" clip-rule="evenodd" d="M55.0041 189.687C53.887 189.687 52.9812 190.583 52.9812 191.688C52.9812 192.794 53.887 193.69 55.0041 193.69C56.1212 193.69 57.027 192.794 57.027 191.688C57.027 190.583 56.1212 189.687 55.0041 189.687Z" fill="#FFCD00"/>
<path fill-rule="evenodd" clip-rule="evenodd" d="M37.0021 189.687C35.885 189.687 34.9792 190.583 34.9792 191.688C34.9792 192.794 35.885 193.69 37.0021 193.69C38.1192 193.69 39.025 192.794 39.025 191.688C39.025 190.583 38.1192 189.687 37.0021 189.687Z" fill="#FFCD00"/>
<path fill-rule="evenodd" clip-rule="evenodd" d="M18.9994 189.687C17.8824 189.687 16.9766 190.583 16.9766 191.688C16.9766 192.794 17.8824 193.69 18.9994 193.69C20.1165 193.69 21.0223 192.794 21.0223 191.688C21.0223 190.583 20.1165 189.687 18.9994 189.687Z" fill="#FFCD00"/>
<path fill-rule="evenodd" clip-rule="evenodd" d="M0.996758 189.687C-0.120325 189.687 -1.02612 190.583 -1.02612 191.688C-1.02612 192.794 -0.120325 193.69 0.996758 193.69C2.11384 193.69 3.01964 192.794 3.01964 191.688C3.01964 190.583 2.11384 189.687 0.996758 189.687Z" fill="#FFCD00"/>
<path fill-rule="evenodd" clip-rule="evenodd" d="M55.0041 216.781C53.887 216.781 52.9812 217.677 52.9812 218.782C52.9812 219.24 53.1372 219.662 53.3991 220H56.6091C56.871 219.662 57.027 219.24 57.027 218.782C57.027 217.677 56.1212 216.781 55.0041 216.781Z" fill="#FFCD00"/>
<path fill-rule="evenodd" clip-rule="evenodd" d="M37.0021 216.781C35.885 216.781 34.9792 217.677 34.9792 218.782C34.9792 219.24 35.1352 219.662 35.3972 220H38.6071C38.869 219.662 39.025 219.24 39.025 218.782C39.025 217.677 38.1192 216.781 37.0021 216.781Z" fill="#FFCD00"/>
<path fill-rule="evenodd" clip-rule="evenodd" d="M18.9994 216.781C17.8824 216.781 16.9766 217.677 16.9766 218.782C16.9766 219.24 17.1325 219.662 17.3945 220H20.6044C20.8664 219.662 21.0223 219.24 21.0223 218.782C21.0223 217.677 20.1165 216.781 18.9994 216.781Z" fill="#FFCD00"/>
<path fill-rule="evenodd" clip-rule="evenodd" d="M0.996758 216.781C-0.120325 216.781 -1.02612 217.677 -1.02612 218.782C-1.02612 219.24 -0.870157 219.662 -0.608215 220H2.60173C2.86367 219.662 3.01964 219.24 3.01964 218.782C3.01964 217.677 2.11384 216.781 0.996758 216.781Z" fill="#FFCD00"/>
<path fill-rule="evenodd" clip-rule="evenodd" d="M64.1481 175.683C63.031 175.683 62.1252 176.58 62.1252 177.685C62.1252 178.79 63.031 179.686 64.1481 179.686C65.2652 179.686 66.171 178.79 66.171 177.685C66.171 176.58 65.2652 175.683 64.1481 175.683Z" fill="#FFCD00"/>
<path fill-rule="evenodd" clip-rule="evenodd" d="M46.1454 175.683C45.0284 175.683 44.1226 176.58 44.1226 177.685C44.1226 178.79 45.0284 179.686 46.1454 179.686C47.2625 179.686 48.1683 178.79 48.1683 177.685C48.1683 176.58 47.2625 175.683 46.1454 175.683Z" fill="#FFCD00"/>
<path fill-rule="evenodd" clip-rule="evenodd" d="M28.1435 175.683C27.0264 175.683 26.1206 176.58 26.1206 177.685C26.1206 178.79 27.0264 179.686 28.1435 179.686C29.2606 179.686 30.1664 178.79 30.1664 177.685C30.1664 176.58 29.2606 175.683 28.1435 175.683Z" fill="#FFCD00"/>
<path fill-rule="evenodd" clip-rule="evenodd" d="M10.1408 175.683C9.02372 175.683 8.11792 176.58 8.11792 177.685C8.11792 178.79 9.02372 179.686 10.1408 179.686C11.2579 179.686 12.1637 178.79 12.1637 177.685C12.1637 176.58 11.2579 175.683 10.1408 175.683Z" fill="#FFCD00"/>
<path fill-rule="evenodd" clip-rule="evenodd" d="M64.1481 202.777C63.031 202.777 62.1252 203.673 62.1252 204.778C62.1252 205.884 63.031 206.78 64.1481 206.78C64.6074 206.78 65.0313 206.628 65.3705 206.373L65.6904 203.485C65.3192 203.052 64.766 202.778 64.1481 202.778V202.777Z" fill="#FFCD00"/>
<path d="M46.6066 206.726C47.6947 206.475 48.3713 205.399 48.1179 204.323C47.8645 203.246 46.777 202.577 45.6889 202.827C44.6008 203.078 43.9242 204.154 44.1776 205.231C44.431 206.307 45.5185 206.977 46.6066 206.726Z" fill="#FFCD00"/>
<path fill-rule="evenodd" clip-rule="evenodd" d="M28.1435 202.777C27.0264 202.777 26.1206 203.673 26.1206 204.778C26.1206 205.884 27.0264 206.78 28.1435 206.78C29.2606 206.78 30.1664 205.884 30.1664 204.778C30.1664 203.673 29.2606 202.777 28.1435 202.777Z" fill="#FFCD00"/>
<path d="M11.5712 206.193C12.3612 205.412 12.3612 204.144 11.5712 203.363C10.7812 202.581 9.50041 202.581 8.71042 203.363C7.92044 204.144 7.92044 205.412 8.71042 206.193C9.50041 206.975 10.7812 206.975 11.5712 206.193Z" fill="#FFCD00"/>
<path fill-rule="evenodd" clip-rule="evenodd" d="M87.5248 190.99V157.19C87.5248 156.02 86.5577 155.064 85.3766 155.064C84.1949 155.064 83.2278 156.02 83.2278 157.19V190.99C83.2278 192.159 84.1949 193.115 85.3766 193.115C86.5584 193.115 87.5248 192.159 87.5248 190.99Z" fill="#FFCD7C"/>
<path fill-rule="evenodd" clip-rule="evenodd" d="M87.5248 182.532H83.2278V192.776C83.2278 193.36 84.1949 193.839 85.376 193.839C86.5577 193.839 87.5242 193.361 87.5242 192.776V182.532H87.5248Z" fill="#A06223"/>
<path d="M84.1495 194.362V206.937C84.1495 207.608 84.6987 208.151 85.3766 208.151C86.0544 208.151 86.6036 207.608 86.6036 206.937V194.362C87.4015 194.472 88.1193 194.842 88.6652 195.382C89.3217 196.031 89.7296 196.927 89.7296 197.911V206.938C89.7296 207.609 90.2788 208.152 90.9567 208.152C91.6345 208.152 92.1837 207.609 92.1837 206.938V197.911C92.1837 196.571 91.7352 195.331 90.98 194.329H92.247C93.2415 194.329 94.146 194.732 94.8025 195.382C95.459 196.031 95.8669 196.927 95.8669 197.911V206.938C95.8669 207.609 96.4161 208.152 97.094 208.152C97.7718 208.152 98.321 207.609 98.321 206.938V197.911C98.321 196.257 97.6378 194.754 96.5381 193.666C95.4383 192.577 93.9193 191.902 92.2477 191.902H78.5081C76.8365 191.902 75.3175 192.578 74.2177 193.666C73.1173 194.755 72.4348 196.257 72.4348 197.911V206.938C72.4348 207.609 72.984 208.152 73.6619 208.152C74.3397 208.152 74.8889 207.609 74.8889 206.938V197.911C74.8889 196.927 75.2968 196.032 75.9534 195.382C76.6099 194.732 77.515 194.329 78.5088 194.329H79.7758C79.0207 195.331 78.5721 196.571 78.5721 197.911V206.938C78.5721 207.609 79.1213 208.152 79.7992 208.152C80.477 208.152 81.0262 207.609 81.0262 206.938V197.911C81.0262 196.927 81.4341 196.032 82.0907 195.382C82.6365 194.842 83.3544 194.472 84.1522 194.362H84.1495Z" fill="#A06223"/>
<path fill-rule="evenodd" clip-rule="evenodd" d="M80.1964 200.435C75.0089 200.435 70.3826 203.29 67.3666 207.75C66.2322 207.276 65.0125 207.016 63.7414 207.016C60.3149 207.016 57.2576 208.894 55.2553 211.83C54.4942 211.51 53.6757 211.335 52.8219 211.335C48.7974 211.335 45.5342 215.214 45.5342 220H116.454C116.454 215.214 113.19 211.335 109.166 211.335C108.313 211.335 107.494 211.51 106.732 211.83C104.73 208.894 101.673 207.016 98.2464 207.016C96.9753 207.016 95.7556 207.276 94.6212 207.75C91.6052 203.291 86.9789 200.435 81.7914 200.435C81.5241 200.435 81.2582 200.443 80.9936 200.458C80.729 200.443 80.463 200.435 80.1958 200.435H80.1964Z" fill="#8A5A25"/>
<path d="M7.69934 219.999C10.4914 219.999 12.7549 217.76 12.7549 214.998C12.7549 212.235 10.4914 209.996 7.69934 209.996C4.90724 209.996 2.6438 212.235 2.6438 214.998C2.6438 217.76 4.90724 219.999 7.69934 219.999Z" fill="#8A5A25"/>
<path fill-rule="evenodd" clip-rule="evenodd" d="M127.472 220C128.865 220 130.001 218.876 130.001 217.499C130.001 216.121 128.865 214.998 127.472 214.998C126.08 214.998 124.944 216.121 124.944 217.499C124.944 218.876 126.08 220 127.472 220Z" fill="#8A5A25"/>
</g>
<defs>
<clipPath id="clip0_2238_50380">
<rect width="130" height="220" fill="white"/>
</clipPath>
</defs>
</svg>
