<svg width="23" height="29" viewBox="0 0 23 29" fill="none" xmlns="http://www.w3.org/2000/svg">
<g clip-path="url(#clip0_5863_31230)">
<path d="M19.2099 15.374C19.1777 11.8312 22.1286 10.1302 22.2589 10.0514C20.6007 7.64426 18.0153 7.30877 17.0982 7.26851C14.8968 7.04877 12.8021 8.55512 11.6887 8.55512C10.5753 8.55512 8.84946 7.30542 7.02881 7.34064C4.62611 7.37251 2.41968 8.72454 1.18279 10.8465C-1.3079 15.1307 0.543196 21.4815 2.97467 24.9555C4.1591 26.6565 5.57196 28.5671 7.42814 28.4983C9.22002 28.4295 9.89683 27.3526 12.0593 27.3526C14.2217 27.3526 14.8292 28.4983 16.7226 28.4698C18.6464 28.4295 19.8664 26.7286 21.0407 25.0277C22.4011 23.0533 22.9662 21.1427 22.9984 21.0421C22.9561 21.027 19.2454 19.6145 19.2082 15.374H19.2099Z" fill="white"/>
<path d="M15.6515 4.96873C16.6396 3.78612 17.3046 2.13887 17.1219 0.5C15.7022 0.553678 13.9814 1.44105 12.9645 2.61862C12.0491 3.67038 11.2454 5.35119 11.4636 6.95483C13.0457 7.07393 14.6684 6.15468 15.6515 4.96873Z" fill="white"/>
</g>
<defs>
<clipPath id="clip0_5863_31230">
<rect width="23" height="28" fill="white" transform="translate(0 0.5)"/>
</clipPath>
</defs>
</svg>
