<svg width="158" height="141" viewBox="0 0 158 141" fill="none" xmlns="http://www.w3.org/2000/svg">
<path d="M132.009 14.8887C120.148 6.2216 103.894 0.773136 91.9616 9.05547C90.428 10.1195 89.0741 11.4256 87.9304 12.8979C75.1438 29.3557 74.1922 38.0566 41.0262 37.987C17.8501 37.9384 -15.2835 75.7088 18.079 118.681C31.0024 135.327 51.1218 141.791 71.6682 140.301C93.0863 138.748 115.829 130.577 133.022 117.623C154.488 101.449 161.1 74.6724 154.352 49.1998C152.269 41.341 148.967 33.7255 144.252 27.0769C143.737 26.3509 143.203 25.6369 142.651 24.9379C139.931 21.4974 136.252 17.9878 132.011 14.8887L132.009 14.8887Z" fill="#F2F2F2"/>
<path d="M38 37.4853C38 33.6194 41.134 30.4854 45 30.4854H112.429C116.295 30.4854 119.429 33.6194 119.429 37.4854V131.7C119.429 135.566 116.295 138.7 112.429 138.7H45C41.134 138.7 38 135.566 38 131.7V37.4853Z" fill="#B8B6B6"/>
<path d="M38 35.3418C38 31.4758 41.134 28.3418 45 28.3418H112.429C116.295 28.3418 119.429 31.4758 119.429 35.3418V129.556C119.429 133.422 116.295 136.556 112.429 136.556H45C41.134 136.556 38 133.422 38 129.556V35.3418Z" fill="#D9D9D9"/>
<rect x="42.2856" y="36.9131" width="72.8571" height="96.4286" rx="4" fill="#C9C9C9"/>
<rect x="42.2856" y="34.7705" width="72.8571" height="96.4286" rx="4" fill="#E0E0E0"/>
<path d="M46.3249 129.057C44.0214 129.057 42.2856 127.074 42.2856 124.771L42.2856 36.9138C42.2856 34.6102 44.0213 32.9173 46.3249 32.9173L110.975 32.9173C113.278 32.9173 115.143 34.7816 115.143 37.0852L115.143 114.057L100.143 129.057L46.3249 129.057Z" fill="white"/>
<circle cx="67.4644" cy="72.8066" r="3.75" fill="#B6B6B6"/>
<circle cx="88.8931" cy="72.8066" r="3.75" fill="#B6B6B6"/>
<path d="M86.2144 92.6279C86.2144 88.4858 82.8565 85.1279 78.7144 85.1279C74.5722 85.1279 71.2144 88.4858 71.2144 92.6279" stroke="#B6B6B6" stroke-width="5" stroke-linecap="round"/>
<path d="M103.376 114.038L115.143 114.038L100.143 129.038L100.143 117.271C100.143 115.484 101.589 114.038 103.376 114.038Z" fill="#D3D3D3"/>
<path d="M66.9285 19.7705C65.745 19.7705 64.7856 20.7299 64.7856 21.9134V26.1991H59.4285C58.245 26.1991 57.2856 27.1585 57.2856 28.3419V35.8419C57.2856 37.0254 58.245 37.9848 59.4285 37.9848H99.0714C100.255 37.9848 101.214 37.0254 101.214 35.8419V28.3419C101.214 27.1585 100.255 26.1991 99.0714 26.1991H94.7856V21.9134C94.7856 20.7299 93.8263 19.7705 92.6428 19.7705H66.9285Z" fill="#8B8B8B"/>
<path d="M66.9285 18.6992C65.745 18.6992 64.7856 19.6586 64.7856 20.8421V25.1278H59.4285C58.245 25.1278 57.2856 26.0872 57.2856 27.2706V34.7706C57.2856 35.9541 58.245 36.9135 59.4285 36.9135H99.0714C100.255 36.9135 101.214 35.9541 101.214 34.7706V27.2706C101.214 26.0872 100.255 25.1278 99.0714 25.1278H94.7856V20.8421C94.7856 19.6586 93.8263 18.6992 92.6428 18.6992H66.9285Z" fill="#B2B2B2"/>
<path d="M88.893 20.8418H67.9287C67.3764 20.8418 66.9287 21.2895 66.9287 21.8418V24.5918" stroke="white" stroke-linecap="round"/>
<path d="M61.6042 7.43072C62.5493 7.16726 62.8938 5.46416 62.3738 3.62675C61.8537 1.78934 60.666 0.513401 59.7209 0.776864C58.7759 1.04033 58.4314 2.74342 58.9514 4.58083C59.4715 6.41825 60.6592 7.69418 61.6042 7.43072Z" fill="#999999"/>
<path d="M64.5472 8.45684C64.6655 7.56746 62.998 6.61546 60.8227 6.33047C58.6474 6.04548 56.7881 6.53543 56.6698 7.4248C56.5515 8.31418 58.219 9.26618 60.3943 9.55117C62.5696 9.83616 64.4289 9.34621 64.5472 8.45684Z" fill="#999999"/>
<path d="M64.5023 5.26901C65.2477 3.54716 65.1075 1.83391 64.1892 1.44235C63.2709 1.05079 61.9222 2.12921 61.1768 3.85106C60.4314 5.57291 60.5716 7.28617 61.4899 7.67773C62.4082 8.06928 63.7569 6.99086 64.5023 5.26901Z" fill="#CCCCCC"/>
<path d="M64.8058 8.10024C64.6162 8.33358 64.2081 8.34919 63.8943 8.13557C63.5806 7.92195 63.4796 7.5588 63.67 7.32547C63.8596 7.09213 64.2677 7.07652 64.5815 7.29014C64.8952 7.50375 64.9962 7.86691 64.8058 8.10024Z" fill="#808080"/>
<path d="M59.1291 9.95546C59.1084 9.9415 59.0952 9.91767 59.0968 9.89302C59.0993 9.8544 59.1357 9.82647 59.1788 9.83058C60.1929 9.92506 62.1947 8.47821 62.3503 8.341C62.3801 8.31471 62.4298 8.31635 62.4596 8.34429C62.4902 8.37222 62.4902 8.41659 62.4604 8.44288C62.4414 8.45931 60.3361 10.0771 59.1697 9.96861C59.1548 9.96696 59.1407 9.96204 59.1291 9.95382V9.95546Z" fill="#999999"/>
<path d="M56.8824 9.21776C56.8584 9.20133 56.8452 9.1734 56.8518 9.14546C56.8601 9.10767 56.9015 9.08548 56.9429 9.09452C57.938 9.32047 60.1649 8.16282 60.342 8.04861C60.376 8.02643 60.4248 8.03465 60.4505 8.06669C60.4762 8.09873 60.4695 8.14228 60.4356 8.16364C60.4141 8.17761 58.0563 9.48972 56.9114 9.23009C56.9006 9.22762 56.8907 9.22352 56.8824 9.21776Z" fill="#999999"/>
<path d="M60.153 10.2533C60.1323 10.2393 60.1191 10.2155 60.1207 10.1909C60.1232 10.1523 60.1597 10.1243 60.2027 10.1284C61.2168 10.2229 63.2186 8.77606 63.3742 8.63885C63.404 8.61256 63.4537 8.6142 63.4835 8.64214C63.5141 8.67007 63.5141 8.71444 63.4843 8.74073C63.4653 8.75716 61.36 10.3749 60.1936 10.2665C60.1787 10.2648 60.1646 10.2599 60.153 10.2517V10.2533Z" fill="#999999"/>
<path d="M57.8551 9.6455C57.8311 9.62907 57.8178 9.60113 57.8245 9.5732C57.8327 9.5354 57.8741 9.51322 57.9155 9.52226C58.9106 9.7482 61.1375 8.59055 61.3147 8.47635C61.3486 8.45416 61.3975 8.46238 61.4232 8.49442C61.4488 8.52647 61.4422 8.57001 61.4083 8.59137C61.3867 8.60534 59.029 9.91745 57.8841 9.65782C57.8733 9.65536 57.8634 9.65125 57.8551 9.6455Z" fill="#999999"/>
<path d="M43.6648 57.7414C43.6499 57.7414 43.6341 57.7405 43.6184 57.7381C43.6093 57.7364 43.3825 57.7069 42.966 57.6444C42.7756 57.6157 42.6448 57.4398 42.6746 57.2509C42.7036 57.0619 42.8808 56.9329 43.0712 56.9608C43.4801 57.0225 43.7078 57.0529 43.7103 57.0529C43.9007 57.0783 44.0348 57.2517 44.01 57.4406C43.9868 57.6148 43.837 57.7405 43.6656 57.7405L43.6648 57.7414Z" fill="#B6B6B6"/>
<path d="M40.4462 57.2169C40.4255 57.2169 40.4039 57.2152 40.3832 57.2111C39.9577 57.1339 39.5239 57.0517 39.0934 56.9671C38.9047 56.9301 38.7822 56.7486 38.8194 56.5612C38.8567 56.3739 39.0388 56.2523 39.2284 56.2893C39.6564 56.3731 40.0869 56.4544 40.5091 56.5316C40.6978 56.5662 40.8237 56.7461 40.7889 56.9342C40.7583 57.101 40.6117 57.2177 40.447 57.2177L40.4462 57.2169ZM36.6024 56.4405C36.5776 56.4405 36.5519 56.438 36.5263 56.4322C36.0991 56.3378 35.6694 56.2392 35.248 56.1406C35.0609 56.0962 34.945 55.9105 34.9898 55.7248C35.0336 55.5391 35.2216 55.4241 35.4086 55.4685C35.8267 55.5671 36.2547 55.664 36.6786 55.7585C36.8665 55.8004 36.9841 55.9845 36.9427 56.171C36.9062 56.332 36.763 56.4413 36.6032 56.4413L36.6024 56.4405ZM32.7934 55.5178C32.7636 55.5178 32.7338 55.5137 32.704 55.5063C32.2793 55.3945 31.853 55.2787 31.4382 55.1628C31.2528 55.1111 31.1452 54.9205 31.1973 54.7364C31.2495 54.5524 31.4416 54.4456 31.627 54.4973C32.0384 54.6124 32.4606 54.7274 32.8829 54.8383C33.0683 54.8876 33.1792 55.0766 33.1296 55.2606C33.0882 55.4151 32.9474 55.5178 32.7934 55.5178ZM29.0284 54.4341C28.9936 54.4341 28.958 54.4291 28.9232 54.4176C28.5027 54.2854 28.0829 54.1498 27.6748 54.0134C27.4927 53.9526 27.3942 53.7571 27.4554 53.5755C27.5167 53.3947 27.7145 53.297 27.8967 53.3578C28.3007 53.4925 28.7162 53.6273 29.1335 53.7579C29.3164 53.8154 29.4183 54.0093 29.3603 54.1917C29.3131 54.3388 29.1765 54.4333 29.0284 54.4333V54.4341ZM25.3253 53.1581C25.284 53.1581 25.2426 53.1507 25.2012 53.1351C24.7856 52.9782 24.3733 52.8163 23.9759 52.6561C23.7979 52.5838 23.7127 52.3825 23.7847 52.2059C23.8576 52.0292 24.0604 51.9446 24.2384 52.0161C24.6308 52.1747 25.0381 52.334 25.4487 52.4893C25.6283 52.5575 25.7186 52.7572 25.6499 52.9355C25.5969 53.0735 25.4644 53.1581 25.3245 53.1581H25.3253ZM21.7151 51.6414C21.6654 51.6414 21.6149 51.6307 21.5669 51.6086C21.1637 51.4204 20.7663 51.2265 20.3847 51.0334C20.2133 50.9463 20.1454 50.7385 20.2332 50.5684C20.3209 50.3983 20.5304 50.331 20.7018 50.4181C21.0768 50.6078 21.4684 50.7985 21.8649 50.9841C22.0388 51.0655 22.1133 51.2717 22.0313 51.4442C21.9717 51.5691 21.8467 51.6423 21.7159 51.6423L21.7151 51.6414ZM18.2612 49.8092C18.1992 49.8092 18.1371 49.7928 18.0799 49.7583C17.6966 49.5258 17.3224 49.2875 16.9681 49.0492C16.8092 48.9424 16.767 48.7272 16.8754 48.5694C16.983 48.4117 17.1999 48.3698 17.3589 48.4774C17.7041 48.7099 18.0692 48.9424 18.4434 49.1692C18.6073 49.2686 18.6594 49.4814 18.5593 49.6441C18.4939 49.7509 18.3788 49.8092 18.2621 49.8092H18.2612ZM15.0881 47.5391C15.0069 47.5391 14.9258 47.5112 14.8604 47.4545C14.5168 47.1595 14.1898 46.8564 13.8877 46.554C13.7519 46.4185 13.7527 46.1999 13.8893 46.0652C14.0259 45.9304 14.2461 45.9312 14.3819 46.0668C14.6716 46.3568 14.9862 46.6477 15.3165 46.932C15.4623 47.0568 15.478 47.2754 15.3521 47.4192C15.2834 47.4981 15.1866 47.5383 15.0889 47.5383L15.0881 47.5391ZM19.7597 45.9255C19.5833 45.9255 19.4327 45.7932 19.4136 45.6157C19.3937 45.4259 19.5328 45.2559 19.7241 45.2362C20.1438 45.1926 20.5627 45.1244 20.9692 45.0316C21.1563 44.9897 21.3434 45.1055 21.3864 45.2912C21.4294 45.4769 21.3119 45.6626 21.1248 45.7053C20.691 45.8039 20.244 45.877 19.7969 45.923C19.7845 45.9247 19.7729 45.9247 19.7605 45.9247L19.7597 45.9255ZM17.1569 45.8844C17.1411 45.8844 17.1254 45.8836 17.1089 45.8811C17.0708 45.8762 17.0327 45.8704 16.9946 45.8647C16.5981 45.8064 16.1949 45.7291 15.7951 45.6363C15.608 45.5927 15.4921 45.4071 15.5359 45.2205C15.5798 45.0349 15.7677 44.9198 15.9548 44.9634C16.3356 45.0521 16.7198 45.1252 17.0973 45.1811C17.1329 45.186 17.1685 45.1918 17.2041 45.1967C17.3945 45.223 17.5278 45.3972 17.5013 45.5862C17.4773 45.7595 17.3282 45.8844 17.1569 45.8844ZM13.3959 44.8459C13.3512 44.8459 13.3057 44.8377 13.2626 44.8196C13.078 44.7432 12.8918 44.6627 12.7071 44.5789C12.6964 44.5887 12.684 44.5978 12.6715 44.606C12.5109 44.7112 12.2949 44.6684 12.1889 44.509C12.131 44.4228 12.0747 44.3349 12.0192 44.2478C11.9306 44.1894 11.876 44.0958 11.8652 43.9955C11.7394 43.7836 11.6227 43.5699 11.515 43.3563C11.4289 43.1854 11.4993 42.9784 11.6715 42.8929C11.8437 42.8075 12.0523 42.8773 12.1384 43.0482C12.2518 43.2733 12.376 43.4993 12.5118 43.7228C12.8487 43.8879 13.1906 44.0424 13.5309 44.1829C13.708 44.256 13.7925 44.4581 13.7188 44.6347C13.6633 44.7678 13.5333 44.8475 13.3976 44.8475L13.3959 44.8459ZM23.4867 44.8188C23.3625 44.8188 23.2425 44.7522 23.1795 44.6364C23.0885 44.468 23.153 44.2584 23.3219 44.1689C23.6953 43.9709 24.0504 43.7466 24.3774 43.5034C24.5314 43.3892 24.7492 43.4196 24.8651 43.5724C24.9801 43.7252 24.9495 43.9413 24.7955 44.0563C24.4404 44.3209 24.0554 44.5641 23.6506 44.7785C23.5984 44.8065 23.5421 44.8196 23.4867 44.8196V44.8188ZM9.96776 42.9825C9.89988 42.9825 9.83117 42.9628 9.77073 42.9217C9.40979 42.6752 9.0505 42.4131 8.7028 42.142C8.5513 42.0245 8.52481 41.8068 8.64402 41.6572C8.7624 41.5069 8.98179 41.4806 9.13246 41.5989C9.46857 41.861 9.81627 42.1149 10.1656 42.3523C10.3237 42.4608 10.3643 42.6752 10.255 42.833C10.1871 42.9307 10.0787 42.9825 9.96776 42.9825ZM26.3701 42.2537C26.3047 42.2537 26.2385 42.2356 26.1789 42.197C26.0183 42.0919 25.9736 41.8782 26.0795 41.7188C26.0969 41.6926 26.1143 41.6663 26.1308 41.64C26.3328 41.3245 26.5108 40.9852 26.6574 40.6327C26.731 40.456 26.9347 40.3731 27.1119 40.4454C27.2899 40.5185 27.3735 40.7206 27.3006 40.8964C27.1384 41.2859 26.9422 41.6605 26.7178 42.0097C26.6988 42.0393 26.6797 42.068 26.6607 42.0976C26.5936 42.1987 26.4827 42.2537 26.3693 42.2537H26.3701ZM11.0067 41.1067C10.8412 41.1067 10.6938 40.9884 10.664 40.8208C10.587 40.3829 10.5423 39.9335 10.5324 39.4849C10.5282 39.2943 10.6805 39.1357 10.8726 39.1316C11.063 39.1291 11.2245 39.2787 11.2286 39.4693C11.2377 39.8834 11.2783 40.2975 11.3503 40.7017C11.3834 40.8898 11.2567 41.069 11.0672 41.1018C11.0465 41.1051 11.0266 41.1067 11.0067 41.1067ZM6.96761 40.4971C6.8782 40.4971 6.78879 40.4634 6.72091 40.3952C6.41046 40.0855 6.10498 39.7626 5.81357 39.4356C5.68608 39.2926 5.70016 39.0741 5.84421 38.9476C5.98825 38.821 6.20846 38.835 6.33595 38.978C6.61825 39.2951 6.9138 39.6073 7.21514 39.9072C7.35091 40.0419 7.35091 40.2613 7.21514 40.3961C7.14725 40.4634 7.05867 40.4971 6.96926 40.4971H6.96761ZM27.5374 38.5934C27.5324 38.5934 27.5266 38.5934 27.5217 38.5934C27.3296 38.5844 27.1806 38.4234 27.1897 38.2328C27.1946 38.121 27.1971 38.0085 27.1971 37.8959C27.1971 37.596 27.1789 37.2937 27.1417 36.9979C27.1185 36.8081 27.2543 36.6364 27.4447 36.6125C27.6351 36.5887 27.8089 36.7243 27.8329 36.9133C27.8727 37.237 27.8934 37.5681 27.8934 37.8951C27.8934 38.0175 27.8909 38.1416 27.8851 38.2632C27.8768 38.4488 27.7228 38.5926 27.5374 38.5926V38.5934ZM4.46831 37.5106C4.35737 37.5106 4.2481 37.458 4.18104 37.3602C3.9302 36.9971 3.68929 36.6232 3.46494 36.2502C3.36643 36.0859 3.42107 35.8739 3.58581 35.7761C3.75138 35.6784 3.96497 35.7326 4.06348 35.8961C4.28038 36.2568 4.51301 36.6183 4.75557 36.9691C4.86402 37.1269 4.82429 37.3413 4.66534 37.4498C4.6049 37.4908 4.53702 37.5106 4.46913 37.5106H4.46831ZM11.1334 37.2485C11.1127 37.2485 11.092 37.2468 11.0713 37.2427C10.8817 37.209 10.7559 37.0291 10.7898 36.8418C10.8726 36.3866 10.9703 35.9511 11.0821 35.5477C11.1326 35.3637 11.3246 35.2552 11.5101 35.3062C11.6955 35.3563 11.8048 35.5469 11.7535 35.731C11.6475 36.1138 11.5539 36.5287 11.4753 36.9642C11.4447 37.131 11.2981 37.2485 11.1334 37.2485ZM26.7335 34.8354C26.6069 34.8354 26.4852 34.7672 26.4231 34.6473C26.3022 34.4139 26.1673 34.1872 26.0216 33.9735C25.9388 33.8528 25.8502 33.732 25.7575 33.6153C25.6383 33.4658 25.6639 33.2481 25.8146 33.1297C25.9653 33.0114 26.1847 33.0369 26.3039 33.1864C26.4074 33.3162 26.5067 33.451 26.5986 33.5857C26.76 33.8224 26.9099 34.0738 27.0431 34.3318C27.1309 34.5018 27.063 34.7097 26.8925 34.7968C26.842 34.8231 26.7873 34.8346 26.7335 34.8346V34.8354ZM2.58328 34.1116C2.44751 34.1116 2.31836 34.0327 2.26289 33.9004C2.08904 33.4921 1.92927 33.0772 1.78936 32.6664C1.7281 32.4856 1.82579 32.2892 2.00791 32.2284C2.19004 32.1668 2.3879 32.2646 2.44916 32.4453C2.58328 32.8397 2.73643 33.239 2.90448 33.6309C2.97982 33.8067 2.89703 34.0097 2.71987 34.0836C2.67517 34.1025 2.62964 34.1107 2.5841 34.1107L2.58328 34.1116ZM12.4215 33.603C12.3594 33.603 12.2965 33.5866 12.2402 33.552C12.0763 33.4526 12.025 33.2398 12.1252 33.0772C12.3702 32.6803 12.6467 32.3147 12.9489 31.9902C13.0797 31.8497 13.2999 31.8415 13.4406 31.9713C13.5822 32.1011 13.5905 32.3196 13.4597 32.4593C13.1881 32.7502 12.9389 33.0796 12.7179 33.4378C12.6525 33.5447 12.5374 33.603 12.4207 33.603H12.4215ZM24.0852 32.0378C24.0215 32.0378 23.9569 32.0206 23.8989 31.9844C23.5529 31.7667 23.1812 31.567 22.7938 31.3912C22.6191 31.3115 22.5421 31.1069 22.6216 30.9336C22.7019 30.7602 22.908 30.6838 23.0827 30.7627C23.4991 30.9517 23.8989 31.1661 24.2715 31.4003C24.4337 31.5021 24.4818 31.7157 24.3791 31.8768C24.3129 31.9803 24.2003 32.037 24.0844 32.037L24.0852 32.0378ZM15.3273 31.0987C15.1924 31.0987 15.0632 31.0198 15.0069 30.8892C14.9316 30.7134 15.0136 30.5105 15.1907 30.4357C15.598 30.2631 16.0343 30.1226 16.488 30.0175C16.6759 29.9748 16.8622 30.0898 16.906 30.2763C16.9499 30.462 16.8332 30.6477 16.6453 30.6912C16.2313 30.7865 15.834 30.9147 15.4639 31.0716C15.4192 31.0905 15.3728 31.0995 15.3273 31.0995V31.0987ZM20.4542 30.6493C20.4335 30.6493 20.412 30.6477 20.3913 30.6435C19.9757 30.568 19.5544 30.517 19.1396 30.494C18.9475 30.4833 18.801 30.3198 18.8118 30.1292C18.8225 29.9386 18.9873 29.794 19.1793 29.8039C19.6231 29.8293 20.0726 29.8827 20.5172 29.9641C20.7059 29.9986 20.8317 30.1785 20.797 30.3667C20.7663 30.5335 20.6198 30.6501 20.4551 30.6501L20.4542 30.6493ZM1.48388 30.3913C1.31665 30.3913 1.16847 30.2714 1.14032 30.1013C1.0683 29.6617 1.01531 29.2189 0.983855 28.7842C0.969781 28.5936 1.11466 28.4285 1.30589 28.4145C1.49713 28.4014 1.66435 28.5443 1.67843 28.7341C1.70823 29.1482 1.75873 29.5705 1.82744 29.9887C1.85807 30.1769 1.72975 30.3543 1.54017 30.3856C1.52113 30.3888 1.50209 30.3905 1.48388 30.3905V30.3913ZM1.39861 26.5207C1.38371 26.5207 1.36964 26.5199 1.35473 26.5182C1.16433 26.4944 1.02856 26.3211 1.05339 26.1321C1.10969 25.6917 1.18916 25.2513 1.29099 24.8224C1.33487 24.6368 1.52196 24.5209 1.70989 24.5653C1.89698 24.6088 2.01288 24.7945 1.969 24.981C1.87297 25.3861 1.79764 25.8026 1.74466 26.2192C1.7223 26.3942 1.57246 26.5215 1.39944 26.5215L1.39861 26.5207ZM2.4889 22.8079C2.43923 22.8079 2.3879 22.7972 2.33989 22.7742C2.16604 22.6928 2.09236 22.4866 2.17431 22.3141C2.32912 21.9895 2.50132 21.6658 2.6851 21.352C2.72567 21.2821 2.76706 21.2131 2.80928 21.1441C2.90862 20.9806 3.12221 20.928 3.28695 21.0266C3.4517 21.1252 3.50468 21.338 3.40534 21.5007C3.3656 21.5664 3.32586 21.6321 3.28695 21.6987C3.1131 21.9961 2.95002 22.3026 2.80349 22.6098C2.74388 22.7347 2.61887 22.8079 2.4889 22.8079ZM4.64547 19.5798C4.56434 19.5798 4.48321 19.5518 4.41698 19.4951C4.2721 19.3702 4.25638 19.1517 4.38304 19.0079C4.66948 18.6817 4.97578 18.3572 5.29534 18.0458C5.43276 17.9119 5.65297 17.9135 5.78791 18.0491C5.92285 18.1847 5.9212 18.404 5.7846 18.5379C5.47829 18.8378 5.18358 19.1484 4.90955 19.4614C4.84084 19.5403 4.74398 19.5806 4.6463 19.5806L4.64547 19.5798ZM7.51979 16.9531C7.41382 16.9531 7.30951 16.9054 7.2408 16.8142C7.12573 16.6614 7.15719 16.4445 7.31117 16.3303C7.65804 16.0723 8.02313 15.8184 8.39566 15.5744C8.55627 15.4692 8.77234 15.5136 8.8783 15.673C8.98427 15.8324 8.93956 16.0468 8.77896 16.152C8.41801 16.3878 8.06452 16.6343 7.72841 16.884C7.66549 16.9309 7.59264 16.9531 7.51979 16.9531ZM10.8403 14.904C10.7145 14.904 10.5928 14.8358 10.5307 14.7166C10.4421 14.5474 10.5092 14.3387 10.6805 14.2508L10.7989 14.1908C11.1441 14.0158 11.501 13.8416 11.8594 13.6707C12.0333 13.5886 12.2411 13.6617 12.3238 13.8334C12.4066 14.006 12.333 14.2122 12.1599 14.2943C11.8064 14.4619 11.4554 14.6337 11.1152 14.8062L11.0001 14.8645C10.9488 14.8908 10.8941 14.9031 10.8403 14.9031V14.904ZM14.3927 13.2764C14.2561 13.2764 14.1261 13.1958 14.0706 13.0627C13.9969 12.8861 14.0814 12.684 14.2585 12.6109C14.6567 12.4474 15.0665 12.2839 15.4772 12.1261C15.6568 12.0571 15.858 12.1458 15.9275 12.3233C15.997 12.5016 15.9076 12.7012 15.7288 12.7702C15.3232 12.9264 14.9184 13.0874 14.5251 13.2492C14.4812 13.2673 14.4365 13.2755 14.3918 13.2755L14.3927 13.2764ZM18.0576 11.9125C17.9127 11.9125 17.7769 11.8221 17.7281 11.6775C17.6668 11.4968 17.7637 11.3004 17.9458 11.2396C18.3523 11.1032 18.772 10.9668 19.1926 10.8345C19.3755 10.777 19.5717 10.8773 19.6297 11.0597C19.6876 11.2412 19.5866 11.436 19.4029 11.4935C18.9864 11.6241 18.5717 11.7597 18.1693 11.8944C18.1321 11.9067 18.0948 11.9125 18.0576 11.9125ZM21.7995 10.7721C21.6472 10.7721 21.5073 10.6719 21.4642 10.519C21.4129 10.335 21.5213 10.1444 21.7068 10.0934C22.1232 9.97842 22.5495 9.86504 22.9726 9.75576C23.1588 9.70811 23.3484 9.81821 23.3973 10.0031C23.4453 10.1879 23.3335 10.3761 23.1481 10.4246C22.7284 10.533 22.3062 10.6456 21.893 10.7589C21.8616 10.7672 21.8301 10.7713 21.7995 10.7713V10.7721ZM25.5969 9.82478C25.4379 9.82478 25.2939 9.7155 25.2575 9.55529C25.2152 9.36878 25.3328 9.18392 25.5199 9.14202C25.9421 9.04753 26.3726 8.95387 26.8006 8.86432C26.9885 8.82488 27.1731 8.94401 27.2129 9.13134C27.2526 9.31784 27.1326 9.50106 26.9438 9.5405C26.5199 9.62923 26.0919 9.72208 25.6739 9.81574C25.6482 9.82149 25.6225 9.82396 25.5969 9.82396V9.82478ZM29.4332 9.05C29.2684 9.05 29.1211 8.93251 29.0913 8.76572C29.0573 8.57757 29.1823 8.39846 29.3719 8.36396C29.7999 8.28755 30.2345 8.21278 30.6642 8.14376C30.8538 8.11336 31.0326 8.24071 31.0641 8.42886C31.0947 8.61701 30.9664 8.79448 30.7768 8.8257C30.3513 8.89472 29.9208 8.96784 29.4969 9.04425C29.4762 9.04836 29.4547 9.05 29.4348 9.05H29.4332ZM33.3018 8.45844C33.1287 8.45844 32.9789 8.33109 32.9565 8.15691C32.9325 7.96794 33.0666 7.79458 33.2579 7.77075C33.6875 7.71653 34.1255 7.66477 34.5593 7.61711C34.7505 7.59575 34.9227 7.73296 34.9434 7.92275C34.9649 8.11254 34.8267 8.28344 34.6354 8.30398C34.2049 8.35081 33.7711 8.40257 33.3456 8.4568C33.3307 8.45844 33.3158 8.45926 33.3009 8.45926L33.3018 8.45844ZM37.196 8.06407C37.0155 8.06407 36.8632 7.92604 36.8491 7.74528C36.8342 7.55467 36.9783 7.3887 37.1695 7.37392C37.6025 7.34105 38.0421 7.31147 38.4767 7.28518C38.6688 7.2745 38.8335 7.4191 38.8451 7.6089C38.8567 7.79951 38.7101 7.96301 38.5189 7.97451C38.0876 7.99998 37.6513 8.03038 37.2225 8.06242C37.2134 8.06242 37.2043 8.06325 37.1952 8.06325L37.196 8.06407ZM46.3239 7.88331C46.3198 7.88331 46.3157 7.88331 46.3115 7.88331C45.881 7.8677 45.4439 7.8562 45.0126 7.84716C44.8206 7.84305 44.6674 7.68531 44.6715 7.49469C44.6757 7.30408 44.8371 7.15126 45.0267 7.15619C45.4613 7.16441 45.9017 7.17673 46.3364 7.19234C46.5284 7.19891 46.6791 7.35913 46.6716 7.54974C46.665 7.73625 46.5102 7.88331 46.3239 7.88331ZM41.1051 7.86195C40.9172 7.86195 40.7624 7.71324 40.7574 7.52591C40.7525 7.3353 40.904 7.17591 41.096 7.17098C41.5307 7.15865 41.9711 7.15044 42.4065 7.14551C42.4082 7.14551 42.409 7.14551 42.4107 7.14551C42.6011 7.14551 42.7567 7.29751 42.7584 7.4873C42.7608 7.67791 42.6069 7.83484 42.414 7.83648C41.9827 7.84141 41.5456 7.84963 41.1151 7.86195C41.1118 7.86195 41.1084 7.86195 41.1051 7.86195Z" fill="#B6B6B6"/>
<path d="M49.5722 8.05737C49.564 8.05737 49.5548 8.05737 49.5466 8.05655C49.3305 8.04093 49.1144 8.02532 48.8975 8.01136C48.7055 7.99903 48.5606 7.83389 48.573 7.6441C48.5854 7.45348 48.7518 7.3097 48.9431 7.32203C49.1608 7.33599 49.3793 7.3516 49.5971 7.36721C49.7891 7.38118 49.9332 7.54715 49.9183 7.73694C49.905 7.91851 49.7519 8.05655 49.5714 8.05655L49.5722 8.05737Z" fill="#B6B6B6"/>
</svg>
