<svg width="155" height="137" viewBox="0 0 155 137" fill="none" xmlns="http://www.w3.org/2000/svg">
<path d="M129.009 10.5891C117.148 1.92204 100.894 -3.52642 88.9616 4.75591C87.428 5.81996 86.0741 7.12602 84.9304 8.5983C72.1438 25.0562 71.1922 33.757 38.0262 33.6875C14.8501 33.6388 -18.2835 71.4092 15.079 114.381C28.0024 131.027 48.1218 137.492 68.6683 136.002C90.0863 134.448 112.829 126.278 130.022 113.323C151.488 97.1491 158.1 70.3728 151.352 44.9002C149.269 37.0414 145.967 29.426 141.252 22.7773C140.737 22.0514 140.203 21.3373 139.651 20.6383C136.931 17.1979 133.252 13.6882 129.011 10.5891L129.009 10.5891Z" fill="#F2F2F2"/>
<path d="M35 33.1854C35 29.3194 38.134 26.1854 42 26.1854H109.429C113.295 26.1854 116.429 29.3194 116.429 33.1854V127.4C116.429 131.266 113.295 134.4 109.429 134.4H42C38.134 134.4 35 131.266 35 127.4V33.1854Z" fill="#B8B6B6"/>
<path d="M35 31.0425C35 27.1765 38.134 24.0425 42 24.0425H109.429C113.295 24.0425 116.429 27.1765 116.429 31.0425V125.257C116.429 129.123 113.295 132.257 109.429 132.257H42C38.134 132.257 35 129.123 35 125.257V31.0425Z" fill="#D9D9D9"/>
<rect x="39.2857" y="32.6139" width="72.8571" height="96.4286" rx="4" fill="#C9C9C9"/>
<rect x="39.2857" y="30.4711" width="72.8571" height="96.4286" rx="4" fill="#E0E0E0"/>
<path d="M43.325 124.757C41.0214 124.757 39.2857 122.775 39.2857 120.471L39.2857 32.6139C39.2857 30.3104 41.0214 28.6175 43.325 28.6175L107.975 28.6175C110.279 28.6175 112.143 30.4818 112.143 32.7853L112.143 109.757L97.1429 124.757L43.325 124.757Z" fill="white"/>
<circle cx="64.4643" cy="68.5068" r="3.75" fill="#B6B6B6"/>
<circle cx="85.8929" cy="68.5068" r="3.75" fill="#B6B6B6"/>
<path d="M70 82.3996C71.2248 84.4325 73.4536 85.7921 75.9999 85.7921C78.5463 85.7921 80.7751 84.4325 82 82.3996" stroke="#B6B6B6" stroke-width="5" stroke-linecap="round"/>
<path d="M100.376 109.738L112.143 109.738L97.1429 124.738L97.1429 112.971C97.1429 111.184 98.5888 109.738 100.376 109.738Z" fill="#D3D3D3"/>
<path d="M63.9286 15.4711C62.7451 15.4711 61.7857 16.4305 61.7857 17.6139V21.8997H56.4286C55.2451 21.8997 54.2857 22.859 54.2857 24.0425V31.5425C54.2857 32.726 55.2451 33.6854 56.4286 33.6854H96.0714C97.2549 33.6854 98.2143 32.726 98.2143 31.5425V24.0425C98.2143 22.859 97.2549 21.8997 96.0714 21.8997H91.7857V17.6139C91.7857 16.4305 90.8263 15.4711 89.6429 15.4711H63.9286Z" fill="#8B8B8B"/>
<path d="M63.9286 14.3997C62.7451 14.3997 61.7857 15.359 61.7857 16.5425V20.8282H56.4286C55.2451 20.8282 54.2857 21.7876 54.2857 22.9711V30.4711C54.2857 31.6546 55.2451 32.6139 56.4286 32.6139H96.0714C97.2549 32.6139 98.2143 31.6546 98.2143 30.4711V22.9711C98.2143 21.7876 97.2549 20.8282 96.0714 20.8282H91.7857V16.5425C91.7857 15.359 90.8263 14.3997 89.6429 14.3997H63.9286Z" fill="#B2B2B2"/>
<path d="M85.8929 16.5425H64.9286C64.3763 16.5425 63.9286 16.9902 63.9286 17.5425V20.2925" stroke="white" stroke-linecap="round"/>
</svg>
