<svg width="155" height="137" viewBox="0 0 155 137" fill="none" xmlns="http://www.w3.org/2000/svg">
<path d="M129.026 10.5891C117.165 1.92204 100.911 -3.52642 88.9788 4.75591C87.4453 5.81996 86.0913 7.12602 84.9476 8.5983C72.161 25.0562 71.2094 33.757 38.0434 33.6875C14.8673 33.6388 -18.2663 71.4092 15.0962 114.381C28.0196 131.027 48.139 137.492 68.6855 136.002C90.1035 134.448 112.846 126.278 130.039 113.323C151.506 97.1491 158.117 70.3728 151.369 44.9002C149.286 37.0414 145.985 29.426 141.269 22.7773C140.754 22.0514 140.22 21.3373 139.668 20.6383C136.948 17.1979 133.269 13.6882 129.029 10.5891L129.026 10.5891Z" fill="#F2F2F2"/>
<path d="M68.1091 101.409C71.1449 95.8561 73.0901 87.3092 73.0901 77.7244C73.0901 76.8387 73.0731 75.9627 73.0412 75.0971H81.8273C81.7954 75.9634 81.7783 76.8387 81.7783 77.7244C81.7783 87.31 83.7235 95.8561 86.7593 101.409H68.1091Z" fill="#DFDFDF"/>
<g style="mix-blend-mode:multiply" opacity="0.5">
<path d="M81.7787 77.7244C81.7787 76.8387 81.7958 75.9627 81.8277 75.0971H73.0416C73.0735 75.9634 73.0906 76.8387 73.0906 77.7244C73.0906 79.4332 73.0275 81.1084 72.9088 82.7403C72.9088 82.7403 77.1368 80.1391 81.9605 82.7403C81.8418 81.1084 81.7787 79.4332 81.7787 77.7237V77.7244Z" fill="#DFDFDF"/>
</g>
<g style="mix-blend-mode:screen" opacity="0.5">
<path d="M75.2324 75.0963H73.9705C73.9957 75.9627 74.0091 76.838 74.0091 77.7237C74.0091 87.3092 72.4749 95.8553 70.0815 101.408H72.762C74.2828 95.8553 75.2584 87.3085 75.2584 77.7237C75.2584 76.838 75.2487 75.9619 75.2324 75.0963Z" fill="#DFDFDF"/>
</g>
<g style="mix-blend-mode:multiply" opacity="0.5">
<path d="M86.7606 101.409H82.1076C80.5867 95.8561 79.6119 87.3092 79.6119 77.7244C79.6119 76.8387 79.6208 75.9627 79.6364 75.0971H81.8279C81.796 75.9634 81.7789 76.8387 81.7789 77.7244C81.7789 87.31 83.7241 95.8561 86.7599 101.409H86.7606Z" fill="#DFDFDF"/>
</g>
<path d="M65.3615 69.8208H65.3504C58.4917 69.7947 53.2169 69.2679 48.75 68.1635C43.3974 66.8405 39.1419 64.6542 35.7404 61.4791C28.4492 54.6746 25.0536 43.2512 25.0536 25.5307C25.0536 24.7607 25.3667 24.0242 25.9201 23.4914C26.4736 22.9594 27.2191 22.6781 27.984 22.7116C28.1992 22.7213 49.7115 23.6697 65.2339 22.9549C65.9995 22.9206 66.7458 23.2011 67.3 23.7332C67.8542 24.2652 68.1673 25.0024 68.1673 25.7732V66.9995C68.1673 67.7494 67.8705 68.4687 67.3416 68.9985C66.8156 69.5253 66.1034 69.8208 65.3615 69.8208ZM30.6971 28.4648C31.0294 42.817 33.8679 52.0339 39.5566 57.3423C44.2587 61.7306 51.2242 63.8088 62.5564 64.1333V28.7058C50.7487 29.0886 36.7056 28.6804 30.6971 28.4648Z" fill="#DFDFDF"/>
<g style="mix-blend-mode:multiply" opacity="0.5">
<path d="M33.246 25.8627C31.8149 25.8172 30.6302 26.9999 30.6954 28.4386C30.6954 28.4475 30.6962 28.4557 30.6969 28.4647C36.7566 28.6811 50.8101 29.087 62.557 28.7057V26.0179C52.1952 26.3545 40.1114 26.0806 33.2468 25.8627H33.246Z" fill="#C1C1C1"/>
</g>
<g style="mix-blend-mode:screen" opacity="0.5">
<path d="M62.5563 64.1333V63.4453C62.6135 63.7938 62.6172 64.0303 62.5563 64.1333Z" fill="#A3A3A3"/>
<path d="M30.6956 28.4386L30.7587 28.467C30.7379 28.467 30.7171 28.4655 30.6963 28.4648C31.0287 42.817 33.8671 52.0339 39.5559 57.3423C44.2579 61.7306 51.2235 63.8088 62.5557 64.1334C61.7626 65.4854 57.2401 64.7975 57.2401 64.7975C26.6019 64.4139 30.6956 28.4386 30.6956 28.4386Z" fill="#A3A3A3"/>
</g>
<g style="mix-blend-mode:screen" opacity="0.5">
<path d="M68.0918 67.4396V26.2134C68.0918 25.4426 67.778 24.7053 67.2246 24.1733C66.6704 23.6413 65.9241 23.3607 65.1584 23.395C49.6361 24.1106 28.1245 23.1622 27.9086 23.1525C27.1437 23.1189 26.3981 23.4003 25.8446 23.9323C25.4618 24.3002 25.194 24.7665 25.0657 25.2739C25.1272 24.5986 25.4285 23.9644 25.9196 23.492C26.473 22.96 27.2186 22.6787 27.9835 22.7123C28.1986 22.722 49.711 23.6704 65.2334 22.9555C65.999 22.9212 66.7453 23.2018 67.2995 23.7338C67.8537 24.2658 68.1668 25.0031 68.1668 25.7739V66.9994C68.1668 67.2366 68.1371 67.4702 68.08 67.6963C68.0874 67.6112 68.0918 67.5262 68.0918 67.4396Z" fill="#DFDFDF"/>
</g>
<g style="mix-blend-mode:multiply" opacity="0.5">
<path d="M60.3435 68.7335C62.9096 68.7641 65.1709 68.9133 67.1621 69.1611C66.6591 69.5849 66.0233 69.8207 65.3623 69.8207H65.3512C58.4925 69.7946 53.2177 69.2678 48.7508 68.1634C43.3982 66.8404 39.1427 64.6541 35.7412 61.4791C31.9138 57.9078 29.1607 53.0628 27.4077 46.703C30.5028 56.1371 38.6902 68.4746 60.3435 68.7335Z" fill="#DFDFDF"/>
</g>
<path d="M87.5274 68.9985C86.9992 68.4687 86.7017 67.7501 86.7017 66.9995V25.7732C86.7017 25.0024 87.0155 24.2652 87.5689 23.7332C88.1231 23.2011 88.8694 22.9206 89.6351 22.9549C105.157 23.6705 126.669 22.7221 126.885 22.7116C127.65 22.6781 128.395 22.9594 128.949 23.4914C129.502 24.0234 129.815 24.7607 129.815 25.5307C129.815 43.252 126.42 54.6746 119.128 61.4791C115.726 64.6542 111.47 66.8405 106.118 68.1635C101.651 69.2679 96.3765 69.7947 89.5178 69.8208H89.5067C88.7648 69.8208 88.0526 69.5253 87.5266 68.9985H87.5274ZM92.3125 28.7065V64.1341C103.645 63.8095 110.61 61.7314 115.312 57.343C121.001 52.0339 123.84 42.8177 124.172 28.4655C118.163 28.6811 104.12 29.0901 92.3118 28.7065H92.3125Z" fill="#DFDFDF"/>
<g style="mix-blend-mode:multiply" opacity="0.5">
<path d="M92.3118 26.0179V28.7057C104.059 29.087 118.112 28.6811 124.172 28.4647C124.172 28.4557 124.173 28.4468 124.173 28.4386C124.239 26.9999 123.054 25.8172 121.623 25.8627C114.758 26.0806 102.674 26.3537 92.3126 26.0179H92.3118Z" fill="#BABABA"/>
</g>
<g style="mix-blend-mode:screen" opacity="0.5">
<path d="M92.3118 64.1332V63.4452C92.2547 63.7937 92.251 64.0302 92.3118 64.1332Z" fill="#DFDFDF"/>
<path d="M124.173 28.4386L124.11 28.4669C124.131 28.4669 124.152 28.4654 124.172 28.4647C123.84 42.8169 121.002 52.0338 115.313 57.3422C110.611 61.7305 103.645 63.8087 92.313 64.1333C93.1061 65.4854 97.6286 64.7974 97.6286 64.7974C128.268 64.4131 124.174 28.4378 124.174 28.4378L124.173 28.4386Z" fill="#A3A3A3"/>
</g>
<g style="mix-blend-mode:screen" opacity="0.5">
<path d="M86.7767 67.4402V26.2139C86.7767 25.4431 87.0905 24.7059 87.644 24.1739C88.1982 23.6418 88.9445 23.3613 89.7101 23.3956C105.233 24.1112 126.744 23.1628 126.96 23.1531C127.725 23.1195 128.47 23.4008 129.024 23.9328C129.407 24.3007 129.675 24.7671 129.803 25.2745C129.741 24.5992 129.44 23.9649 128.949 23.4926C128.396 22.9606 127.65 22.6792 126.885 22.7128C126.67 22.7225 105.158 23.6709 89.6352 22.9561C88.8696 22.9218 88.1232 23.2023 87.569 23.7344C87.0149 24.2664 86.7018 25.0036 86.7018 25.7744V66.9999C86.7018 67.2372 86.7315 67.4707 86.7886 67.6968C86.7812 67.6118 86.7767 67.5267 86.7767 67.4402Z" fill="#DFDFDF"/>
</g>
<g style="mix-blend-mode:multiply" opacity="0.5">
<path d="M94.5257 68.7335C91.9595 68.7641 89.6982 68.9133 87.707 69.1611C88.21 69.5849 88.8458 69.8207 89.5068 69.8207H89.518C96.3767 69.7946 101.651 69.2678 106.118 68.1634C111.471 66.8404 115.726 64.6541 119.128 61.4791C122.955 57.9078 125.708 53.0628 127.461 46.703C124.366 56.1371 116.179 68.4746 94.5257 68.7335Z" fill="#DFDFDF"/>
</g>
<path d="M45.6647 14.3998C44.8984 18.815 44.4881 23.4637 44.4881 28.2647C44.4881 57.0766 59.2315 80.433 77.418 80.433C95.6045 80.433 110.348 57.0766 110.348 28.2647C110.348 23.4637 109.938 18.815 109.171 14.3998H45.6647V14.3998Z" fill="#DFDFDF"/>
<path d="M45.6647 14.3998C44.8984 18.815 44.4881 23.4637 44.4881 28.2647C44.4881 57.0766 59.2315 80.433 77.418 80.433C95.6045 80.433 110.348 57.0766 110.348 28.2647C110.348 23.4637 109.938 18.815 109.171 14.3998H45.6647V14.3998Z" fill="#E8EAEF"/>
<g style="mix-blend-mode:multiply" opacity="0.5">
<path d="M109.171 14.3998H97.3016C97.7816 18.815 98.0383 23.4637 98.0383 28.2647C98.0383 57.0766 88.8063 80.433 77.4177 80.433C95.6041 80.433 110.348 57.0766 110.348 28.2647C110.348 23.4637 109.938 18.815 109.171 14.3998V14.3998Z" fill="#C6C6C6"/>
</g>
<g style="mix-blend-mode:screen" opacity="0.5">
<path d="M56.7972 28.2647C56.7972 23.4637 57.0539 18.815 57.5339 14.3998H49.4132C48.7374 18.815 48.3761 23.4637 48.3761 28.2647C48.3761 57.0766 61.3783 80.433 77.4178 80.433C66.0292 80.433 56.7972 57.0766 56.7972 28.2647Z" fill="#DFDFDF"/>
</g>
<g style="mix-blend-mode:screen" opacity="0.5">
<path d="M76.9617 15.4288C94.2468 15.4288 108.259 14.9684 108.259 14.3998H45.6647C45.6647 14.9676 59.6766 15.4288 76.9617 15.4288Z" fill="#DFDFDF"/>
</g>
<path d="M90.7359 101.409H64.132C60.6192 101.409 57.7711 104.274 57.7711 107.807H97.0968C97.0968 104.274 94.2487 101.409 90.7359 101.409Z" fill="#DFDFDF"/>
<g style="mix-blend-mode:screen" opacity="0.5">
<path d="M64.133 101.889H90.7369C94.0887 101.889 96.8337 104.498 97.0778 107.806H97.0978C97.0978 104.273 94.2497 101.408 90.7369 101.408H64.133C60.6202 101.408 57.7722 104.273 57.7722 107.806H57.7922C58.0363 104.498 60.7812 101.889 64.133 101.889Z" fill="#DFDFDF"/>
</g>
<g style="mix-blend-mode:multiply" opacity="0.5">
<path d="M97.0963 107.806H89.9824C89.9824 104.273 88.1655 101.409 85.9236 101.409H90.7362C94.249 101.409 97.0963 104.274 97.0963 107.806Z" fill="#DFDFDF"/>
</g>
<g style="mix-blend-mode:screen" opacity="0.5">
<path d="M71.9872 101.409H66.7361C63.2233 101.409 60.3752 104.274 60.3752 107.807H65.6263C65.6263 104.274 68.4744 101.409 71.9872 101.409Z" fill="#DFDFDF"/>
</g>
<path d="M107.369 107.807H47.4988C47.1735 107.807 46.9098 108.072 46.9098 108.399V131.791C46.9098 132.118 47.1735 132.383 47.4988 132.383H107.369C107.695 132.383 107.958 132.118 107.958 131.791V108.399C107.958 108.072 107.695 107.807 107.369 107.807Z" fill="#828282"/>
<g style="mix-blend-mode:multiply" opacity="0.3">
<path d="M107.369 128.159H47.4988C47.1739 128.159 46.9098 127.894 46.9098 127.567V131.791C46.9098 132.118 47.1732 132.383 47.4988 132.383H107.37C107.695 132.383 107.959 132.119 107.959 131.791V127.567C107.959 127.894 107.696 128.159 107.37 128.159H107.369Z" fill="#828282"/>
</g>
<g style="mix-blend-mode:multiply" opacity="0.3">
<path d="M47.4992 132.384H51.1826C49.8013 132.384 48.4369 132.327 47.0934 132.219C47.1987 132.32 47.3412 132.384 47.4992 132.384Z" fill="#828282"/>
<path d="M107.37 107.807H89.0664C86.2398 121.725 70.3554 132.383 51.1829 132.383H107.37C107.695 132.383 107.959 132.119 107.959 131.791V108.399C107.959 108.073 107.696 107.807 107.37 107.807Z" fill="#828282"/>
</g>
<g style="mix-blend-mode:screen" opacity="0.3">
<path d="M107.369 107.807H47.4988C47.1739 107.807 46.9098 108.072 46.9098 108.399V109.167C46.9098 108.84 47.1732 108.575 47.4988 108.575H107.37C107.695 108.575 107.959 108.84 107.959 109.167V108.399C107.959 108.073 107.696 107.807 107.37 107.807H107.369Z" fill="#828282"/>
</g>
<path d="M111.913 129.215H42.9561C42.5463 129.215 42.2142 129.549 42.2142 129.961V133.653C42.2142 134.065 42.5463 134.399 42.9561 134.399H111.913C112.323 134.399 112.655 134.065 112.655 133.653V129.961C112.655 129.549 112.323 129.215 111.913 129.215Z" fill="#828282"/>
<g style="mix-blend-mode:multiply" opacity="0.3">
<path d="M111.913 133.729H42.9561C42.5465 133.729 42.2142 133.395 42.2142 132.983V133.653C42.2142 134.065 42.5465 134.399 42.9561 134.399H111.914C112.323 134.399 112.656 134.065 112.656 133.653V132.983C112.656 133.395 112.323 133.729 111.914 133.729H111.913Z" fill="#828282"/>
</g>
<g style="mix-blend-mode:screen" opacity="0.3">
<path d="M111.913 129.215H42.9561C42.5465 129.215 42.2142 129.55 42.2142 129.961V130.652C42.2142 130.24 42.5465 129.905 42.9561 129.905H111.914C112.323 129.905 112.656 130.24 112.656 130.652V129.961C112.656 129.55 112.323 129.215 111.914 129.215H111.913Z" fill="#828282"/>
</g>
<g style="mix-blend-mode:multiply" opacity="0.3">
<path d="M111.913 129.215H92.2508C92.6603 129.215 92.9927 129.55 92.9927 129.961V133.654C92.9927 134.065 92.6603 134.4 92.2508 134.4H111.913C112.322 134.4 112.655 134.065 112.655 133.654V129.961C112.655 129.55 112.322 129.215 111.913 129.215Z" fill="#828282"/>
</g>
<g style="mix-blend-mode:screen" opacity="0.3">
<path d="M58.6626 133.654V129.961C58.6626 129.55 58.995 129.215 59.4045 129.215H48.7081C48.2985 129.215 47.9662 129.55 47.9662 129.961V133.654C47.9662 134.065 48.2985 134.4 48.7081 134.4H59.4045C58.995 134.4 58.6626 134.065 58.6626 133.654Z" fill="#828282"/>
</g>
<path d="M102.438 111.431H52.328V126.28H102.438V111.431Z" fill="#D8D8D8"/>
<g style="mix-blend-mode:multiply" opacity="0.5">
<path d="M52.3747 125.943V111.431H52.328V126.28H102.438V125.943H52.3747Z" fill="#D8D8D8"/>
</g>
<g style="mix-blend-mode:screen" opacity="0.5">
<path d="M102.438 111.431H52.328V111.691H102.438V111.431Z" fill="#D8D8D8"/>
</g>
<g style="mix-blend-mode:multiply" opacity="0.5">
<path d="M57.7722 107.807H97.0971C97.0971 107.414 97.06 107.029 96.9925 106.655H57.8768C57.8093 107.029 57.7722 107.413 57.7722 107.807Z" fill="#DFDFDF"/>
</g>
<g style="mix-blend-mode:multiply" opacity="0.3">
<path d="M88.0095 111.431C85.7342 117.394 81.0017 122.566 74.6965 126.28H102.438V111.431H88.0095Z" fill="#D8D8D8"/>
</g>
<path d="M54.2371 114.047C54.7116 114.047 55.0962 113.66 55.0962 113.183C55.0962 112.705 54.7116 112.318 54.2371 112.318C53.7626 112.318 53.378 112.705 53.378 113.183C53.378 113.66 53.7626 114.047 54.2371 114.047Z" fill="#828282"/>
<path d="M54.2371 125.184C54.7116 125.184 55.0962 124.797 55.0962 124.319C55.0962 123.842 54.7116 123.455 54.2371 123.455C53.7626 123.455 53.378 123.842 53.378 124.319C53.378 124.797 53.7626 125.184 54.2371 125.184Z" fill="#828282"/>
<path d="M100.529 114.047C101.004 114.047 101.388 113.66 101.388 113.183C101.388 112.705 101.004 112.318 100.529 112.318C100.055 112.318 99.67 112.705 99.67 113.183C99.67 113.66 100.055 114.047 100.529 114.047Z" fill="#828282"/>
<path d="M100.529 125.184C101.004 125.184 101.388 124.797 101.388 124.319C101.388 123.842 101.004 123.455 100.529 123.455C100.055 123.455 99.67 123.842 99.67 124.319C99.67 124.797 100.055 125.184 100.529 125.184Z" fill="#828282"/>
<circle cx="66.5536" cy="36.8997" r="3.5" fill="#B6B6B6"/>
<circle cx="86.5536" cy="36.8997" r="3.5" fill="#B6B6B6"/>
<path d="M71.0536 52.0073C72.2785 54.0402 74.5073 55.3997 77.0536 55.3997C79.5999 55.3997 81.8287 54.0402 83.0536 52.0073" stroke="#B6B6B6" stroke-width="5" stroke-linecap="round"/>
</svg>
