<svg width="155" height="136" viewBox="0 0 155 136" fill="none" xmlns="http://www.w3.org/2000/svg">
<path d="M129.092 10.1475C117.23 1.48039 100.977 -3.96807 89.0441 4.31426C87.5106 5.37831 86.1566 6.68437 85.0129 8.15664C72.2263 24.6145 71.2748 33.3154 38.1087 33.2458C14.9326 33.1972 -18.201 70.9676 15.1615 113.94C28.0849 130.586 48.2044 137.05 68.7508 135.56C90.1688 134.007 112.912 125.836 130.105 112.882C151.571 96.7074 158.182 69.9312 151.434 44.4586C149.352 36.5997 146.05 28.9843 141.334 22.3357C140.819 21.6097 140.286 20.8956 139.734 20.1967C137.013 16.7562 133.334 13.2466 129.094 10.1475L129.092 10.1475Z" fill="#F2F2F2"/>
<path d="M68.1748 100.967C71.2106 95.4143 73.1558 86.8674 73.1558 77.2826C73.1558 76.3969 73.1387 75.5209 73.1068 74.6553H81.8929C81.861 75.5216 81.844 76.3969 81.844 77.2826C81.844 86.8682 83.7892 95.4143 86.825 100.967H68.1748Z" fill="#DFDFDF"/>
<g style="mix-blend-mode:multiply" opacity="0.5">
<path d="M81.8441 77.2826C81.8441 76.3969 81.8611 75.5209 81.893 74.6553H73.1069C73.1388 75.5216 73.1559 76.3969 73.1559 77.2826C73.1559 78.9914 73.0928 80.6666 72.9741 82.2985C72.9741 82.2985 77.2021 79.6973 82.0258 82.2985C81.9071 80.6666 81.8441 78.9914 81.8441 77.2819V77.2826Z" fill="#DFDFDF"/>
</g>
<g style="mix-blend-mode:screen" opacity="0.5">
<path d="M75.2979 74.6543H74.0359C74.0611 75.5206 74.0745 76.3959 74.0745 77.2816C74.0745 86.8672 72.5403 95.4133 70.147 100.966H72.8274C74.3482 95.4133 75.3238 86.8664 75.3238 77.2816C75.3238 76.3959 75.3142 75.5199 75.2979 74.6543Z" fill="#DFDFDF"/>
</g>
<g style="mix-blend-mode:multiply" opacity="0.5">
<path d="M86.826 100.967H82.1729C80.6521 95.4143 79.6772 86.8674 79.6772 77.2826C79.6772 76.3969 79.6861 75.5209 79.7017 74.6553H81.8932C81.8613 75.5216 81.8443 76.3969 81.8443 77.2826C81.8443 86.8682 83.7895 95.4143 86.8253 100.967H86.826Z" fill="#DFDFDF"/>
</g>
<path d="M65.427 69.3794H65.4159C58.5572 69.3533 53.2824 68.8265 48.8156 67.7222C43.4629 66.3992 39.2075 64.2128 35.8059 61.0378C28.5147 54.2333 25.1191 42.8099 25.1191 25.0894C25.1191 24.3193 25.4322 23.5828 25.9857 23.05C26.5391 22.518 27.2847 22.2367 28.0496 22.2703C28.2647 22.28 49.7771 23.2284 65.2994 22.5135C66.0651 22.4792 66.8114 22.7598 67.3656 23.2918C67.9198 23.8238 68.2328 24.5611 68.2328 25.3319V66.5581C68.2328 67.308 67.9361 68.0273 67.4071 68.5571C66.8811 69.0839 66.1689 69.3794 65.427 69.3794ZM30.7626 28.0234C31.095 42.3756 33.9334 51.5925 39.6222 56.9009C44.3242 61.2893 51.2898 63.3674 62.622 63.692V28.2644C50.8142 28.6472 36.7711 28.239 30.7626 28.0234Z" fill="#DFDFDF"/>
<g style="mix-blend-mode:multiply" opacity="0.5">
<path d="M33.3115 25.4212C31.8804 25.3757 30.6956 26.5584 30.7609 27.997C30.7609 28.006 30.7616 28.0142 30.7624 28.0232C36.822 28.2396 50.8755 28.6455 62.6225 28.2642V25.5764C52.2606 25.9129 40.1768 25.6391 33.3122 25.4212H33.3115Z" fill="#C1C1C1"/>
</g>
<g style="mix-blend-mode:screen" opacity="0.5">
<path d="M62.6221 63.6919V63.0039C62.6792 63.3524 62.6829 63.5889 62.6221 63.6919Z" fill="#A3A3A3"/>
<path d="M30.7611 27.9971L30.8242 28.0254C30.8034 28.0254 30.7827 28.0239 30.7619 28.0232C31.0942 42.3754 33.9327 51.5923 39.6214 56.9007C44.3235 61.2891 51.289 63.3672 62.6212 63.6918C61.8282 65.0439 57.3057 64.3559 57.3057 64.3559C26.6674 63.9723 30.7611 27.9971 30.7611 27.9971Z" fill="#A3A3A3"/>
</g>
<g style="mix-blend-mode:screen" opacity="0.5">
<path d="M68.1575 66.9986V25.7724C68.1575 25.0016 67.8437 24.2643 67.2902 23.7323C66.7361 23.2003 65.9897 22.9197 65.2241 22.954C49.7017 23.6696 28.1901 22.7212 27.9742 22.7115C27.2094 22.6779 26.4638 22.9592 25.9103 23.4913C25.5275 23.8591 25.2597 24.3255 25.1313 24.8329C25.1929 24.1576 25.4941 23.5234 25.9853 23.051C26.5387 22.519 27.2843 22.2377 28.0492 22.2712C28.2643 22.281 49.7767 23.2294 65.299 22.5145C66.0647 22.4802 66.811 22.7607 67.3652 23.2928C67.9194 23.8248 68.2324 24.5621 68.2324 25.3329V66.5583C68.2324 66.7956 68.2028 67.0292 68.1456 67.2553C68.1531 67.1702 68.1575 67.0851 68.1575 66.9986Z" fill="#DFDFDF"/>
</g>
<g style="mix-blend-mode:multiply" opacity="0.5">
<path d="M60.409 68.2922C62.9751 68.3228 65.2364 68.472 67.2276 68.7198C66.7246 69.1436 66.0888 69.3794 65.4278 69.3794H65.4167C58.558 69.3533 53.2832 68.8265 48.8163 67.7221C43.4637 66.3991 39.2082 64.2128 35.8067 61.0378C31.9793 57.4665 29.2262 52.6215 27.4731 46.2617C30.5683 55.6958 38.7557 68.0333 60.409 68.2922Z" fill="#DFDFDF"/>
</g>
<path d="M87.5928 68.5571C87.0646 68.0273 86.7671 67.3088 86.7671 66.5581V25.3319C86.7671 24.5611 87.0809 23.8238 87.6343 23.2918C88.1885 22.7598 88.9349 22.4792 89.7005 22.5135C105.223 23.2291 126.734 22.2807 126.95 22.2703C127.715 22.2367 128.461 22.518 129.014 23.05C129.568 23.5821 129.881 24.3193 129.881 25.0894C129.881 42.8106 126.485 54.2333 119.193 61.0378C115.792 64.2128 111.536 66.3992 106.184 67.7222C101.717 68.8265 96.442 69.3533 89.5833 69.3794H89.5721C88.8303 69.3794 88.1181 69.0839 87.5921 68.5571H87.5928ZM92.3779 28.2652V63.6927C103.71 63.3681 110.676 61.29 115.378 56.9017C121.066 51.5925 123.906 42.3763 124.237 28.0241C118.229 28.2398 104.185 28.6487 92.3772 28.2652H92.3779Z" fill="#DFDFDF"/>
<g style="mix-blend-mode:multiply" opacity="0.5">
<path d="M92.3774 25.5764V28.2642C104.124 28.6455 118.178 28.2396 124.238 28.0232C124.238 28.0142 124.238 28.0052 124.239 27.997C124.304 26.5584 123.12 25.3757 121.688 25.4212C114.824 25.6391 102.74 25.9122 92.3782 25.5764H92.3774Z" fill="#BABABA"/>
</g>
<g style="mix-blend-mode:screen" opacity="0.5">
<path d="M92.3773 63.6919V63.0039C92.3201 63.3524 92.3164 63.5889 92.3773 63.6919Z" fill="#DFDFDF"/>
<path d="M124.239 27.9968L124.175 28.0252C124.196 28.0252 124.217 28.0237 124.238 28.023C123.905 42.3752 121.067 51.5921 115.378 56.9005C110.676 61.2888 103.711 63.367 92.3784 63.6915C93.1715 65.0436 97.694 64.3557 97.694 64.3557C128.333 63.9714 124.239 27.9961 124.239 27.9961L124.239 27.9968Z" fill="#A3A3A3"/>
</g>
<g style="mix-blend-mode:screen" opacity="0.5">
<path d="M86.842 66.9986V25.7724C86.842 25.0016 87.1558 24.2643 87.7093 23.7323C88.2635 23.2003 89.0098 22.9197 89.7754 22.954C105.298 23.6696 126.809 22.7212 127.025 22.7115C127.79 22.6779 128.536 22.9592 129.089 23.4913C129.472 23.8591 129.74 24.3255 129.868 24.8329C129.807 24.1576 129.505 23.5234 129.014 23.051C128.461 22.519 127.715 22.2377 126.95 22.2712C126.735 22.281 105.223 23.2294 89.7005 22.5145C88.9349 22.4802 88.1885 22.7607 87.6343 23.2928C87.0802 23.8248 86.7671 24.5621 86.7671 25.3329V66.5583C86.7671 66.7956 86.7968 67.0292 86.8539 67.2553C86.8465 67.1702 86.842 67.0851 86.842 66.9986Z" fill="#DFDFDF"/>
</g>
<g style="mix-blend-mode:multiply" opacity="0.5">
<path d="M94.5911 68.2922C92.0249 68.3228 89.7637 68.472 87.7725 68.7198C88.2755 69.1436 88.9112 69.3794 89.5723 69.3794H89.5834C96.4421 69.3533 101.717 68.8265 106.184 67.7221C111.536 66.3991 115.792 64.2128 119.193 61.0378C123.021 57.4665 125.774 52.6215 127.527 46.2617C124.432 55.6958 116.244 68.0333 94.5911 68.2922Z" fill="#DFDFDF"/>
</g>
<path d="M45.7303 13.958C44.964 18.3732 44.5537 23.022 44.5537 27.823C44.5537 56.6348 59.2971 79.9913 77.4836 79.9913C95.6701 79.9913 110.413 56.6348 110.413 27.823C110.413 23.022 110.004 18.3732 109.237 13.958H45.7303V13.958Z" fill="#DFDFDF"/>
<path d="M45.7303 13.958C44.964 18.3732 44.5537 23.022 44.5537 27.823C44.5537 56.6348 59.2971 79.9913 77.4836 79.9913C95.6701 79.9913 110.413 56.6348 110.413 27.823C110.413 23.022 110.004 18.3732 109.237 13.958H45.7303V13.958Z" fill="#E8EAEF"/>
<g style="mix-blend-mode:multiply" opacity="0.5">
<path d="M109.237 13.958H97.3673C97.8473 18.3732 98.104 23.022 98.104 27.823C98.104 56.6348 88.872 79.9913 77.4834 79.9913C95.6699 79.9913 110.413 56.6348 110.413 27.823C110.413 23.022 110.004 18.3732 109.237 13.958V13.958Z" fill="#C6C6C6"/>
</g>
<g style="mix-blend-mode:screen" opacity="0.5">
<path d="M56.863 27.823C56.863 23.022 57.1197 18.3732 57.5997 13.958H49.479C48.8032 18.3732 48.4419 23.022 48.4419 27.823C48.4419 56.6348 61.4441 79.9913 77.4836 79.9913C66.095 79.9913 56.863 56.6348 56.863 27.823Z" fill="#DFDFDF"/>
</g>
<g style="mix-blend-mode:screen" opacity="0.5">
<path d="M77.027 14.987C94.3121 14.987 108.324 14.5266 108.324 13.958H45.73C45.73 14.5259 59.7419 14.987 77.027 14.987Z" fill="#DFDFDF"/>
</g>
<path d="M90.8017 100.968H64.1978C60.685 100.968 57.8369 103.832 57.8369 107.366H97.1626C97.1626 103.832 94.3145 100.968 90.8017 100.968Z" fill="#DFDFDF"/>
<g style="mix-blend-mode:screen" opacity="0.5">
<path d="M64.1988 101.447H90.8027C94.1545 101.447 96.8994 104.056 97.1435 107.365H97.1635C97.1635 103.831 94.3155 100.967 90.8027 100.967H64.1988C60.686 100.967 57.8379 103.831 57.8379 107.365H57.8579C58.102 104.056 60.847 101.447 64.1988 101.447Z" fill="#DFDFDF"/>
</g>
<g style="mix-blend-mode:multiply" opacity="0.5">
<path d="M97.162 107.365H90.0481C90.0481 103.832 88.2312 100.968 85.9893 100.968H90.8018C94.3147 100.968 97.162 103.832 97.162 107.365Z" fill="#DFDFDF"/>
</g>
<g style="mix-blend-mode:screen" opacity="0.5">
<path d="M72.0528 100.968H66.8018C63.289 100.968 60.4409 103.832 60.4409 107.366H65.692C65.692 103.832 68.54 100.968 72.0528 100.968Z" fill="#DFDFDF"/>
</g>
<path d="M107.435 107.365H47.5646C47.2393 107.365 46.9756 107.63 46.9756 107.958V131.349C46.9756 131.676 47.2393 131.942 47.5646 131.942H107.435C107.761 131.942 108.024 131.676 108.024 131.349V107.958C108.024 107.63 107.761 107.365 107.435 107.365Z" fill="#828282"/>
<g style="mix-blend-mode:multiply" opacity="0.3">
<path d="M107.435 127.717H47.5646C47.2397 127.717 46.9756 127.453 46.9756 127.125V131.349C46.9756 131.676 47.239 131.942 47.5646 131.942H107.436C107.761 131.942 108.025 131.677 108.025 131.349V127.125C108.025 127.452 107.762 127.717 107.436 127.717H107.435Z" fill="#828282"/>
</g>
<g style="mix-blend-mode:multiply" opacity="0.3">
<path d="M47.5645 131.941H51.2479C49.8666 131.941 48.5022 131.885 47.1587 131.776C47.264 131.878 47.4065 131.941 47.5645 131.941Z" fill="#828282"/>
<path d="M107.436 107.365H89.132C86.3054 121.283 70.421 131.942 51.2485 131.942H107.436C107.761 131.942 108.025 131.677 108.025 131.349V107.958C108.025 107.631 107.761 107.365 107.436 107.365Z" fill="#828282"/>
</g>
<g style="mix-blend-mode:screen" opacity="0.3">
<path d="M107.435 107.365H47.5646C47.2397 107.365 46.9756 107.63 46.9756 107.958V108.726C46.9756 108.399 47.239 108.133 47.5646 108.133H107.436C107.761 108.133 108.025 108.398 108.025 108.726V107.958C108.025 107.631 107.762 107.365 107.436 107.365H107.435Z" fill="#828282"/>
</g>
<path d="M111.979 128.773H43.0217C42.6119 128.773 42.2798 129.108 42.2798 129.52V133.211C42.2798 133.623 42.6119 133.957 43.0217 133.957H111.979C112.389 133.957 112.721 133.623 112.721 133.211V129.52C112.721 129.108 112.389 128.773 111.979 128.773Z" fill="#828282"/>
<g style="mix-blend-mode:multiply" opacity="0.3">
<path d="M111.979 133.287H43.0217C42.6121 133.287 42.2798 132.953 42.2798 132.541V133.211C42.2798 133.623 42.6121 133.957 43.0217 133.957H111.98C112.389 133.957 112.721 133.623 112.721 133.211V132.541C112.721 132.953 112.389 133.287 111.98 133.287H111.979Z" fill="#828282"/>
</g>
<g style="mix-blend-mode:screen" opacity="0.3">
<path d="M111.979 128.773H43.0217C42.6121 128.773 42.2798 129.108 42.2798 129.52V130.21C42.2798 129.798 42.6121 129.464 43.0217 129.464H111.98C112.389 129.464 112.721 129.798 112.721 130.21V129.52C112.721 129.108 112.389 128.773 111.98 128.773H111.979Z" fill="#828282"/>
</g>
<g style="mix-blend-mode:multiply" opacity="0.3">
<path d="M111.978 128.773H92.3164C92.7259 128.773 93.0583 129.108 93.0583 129.52V133.212C93.0583 133.624 92.7259 133.958 92.3164 133.958H111.978C112.388 133.958 112.72 133.624 112.72 133.212V129.52C112.72 129.108 112.388 128.773 111.978 128.773Z" fill="#828282"/>
</g>
<g style="mix-blend-mode:screen" opacity="0.3">
<path d="M58.7282 133.212V129.52C58.7282 129.108 59.0605 128.773 59.4701 128.773H48.7736C48.3641 128.773 48.0317 129.108 48.0317 129.52V133.212C48.0317 133.624 48.3641 133.958 48.7736 133.958H59.4701C59.0605 133.958 58.7282 133.624 58.7282 133.212Z" fill="#828282"/>
</g>
<path d="M102.504 110.989H52.3936V125.838H102.504V110.989Z" fill="#D8D8D8"/>
<g style="mix-blend-mode:multiply" opacity="0.5">
<path d="M52.4403 125.501V110.989H52.3936V125.838H102.503V125.501H52.4403Z" fill="#D8D8D8"/>
</g>
<g style="mix-blend-mode:screen" opacity="0.5">
<path d="M102.504 110.989H52.3936V111.249H102.504V110.989Z" fill="#D8D8D8"/>
</g>
<g style="mix-blend-mode:multiply" opacity="0.5">
<path d="M57.8379 107.365H97.1628C97.1628 106.972 97.1257 106.587 97.0582 106.213H57.9425C57.875 106.587 57.8379 106.971 57.8379 107.365Z" fill="#DFDFDF"/>
</g>
<g style="mix-blend-mode:multiply" opacity="0.3">
<path d="M88.0753 110.989C85.7999 116.952 81.0675 122.124 74.7622 125.838H102.503V110.989H88.0753Z" fill="#D8D8D8"/>
</g>
<path d="M54.3025 113.605C54.7769 113.605 55.1616 113.218 55.1616 112.741C55.1616 112.264 54.7769 111.877 54.3025 111.877C53.828 111.877 53.4434 112.264 53.4434 112.741C53.4434 113.218 53.828 113.605 54.3025 113.605Z" fill="#828282"/>
<path d="M54.3025 124.742C54.7769 124.742 55.1616 124.355 55.1616 123.878C55.1616 123.401 54.7769 123.014 54.3025 123.014C53.828 123.014 53.4434 123.401 53.4434 123.878C53.4434 124.355 53.828 124.742 54.3025 124.742Z" fill="#828282"/>
<path d="M100.594 113.605C101.069 113.605 101.454 113.218 101.454 112.741C101.454 112.264 101.069 111.877 100.594 111.877C100.12 111.877 99.7354 112.264 99.7354 112.741C99.7354 113.218 100.12 113.605 100.594 113.605Z" fill="#828282"/>
<path d="M100.594 124.742C101.069 124.742 101.454 124.355 101.454 123.878C101.454 123.401 101.069 123.014 100.594 123.014C100.12 123.014 99.7354 123.401 99.7354 123.878C99.7354 124.355 100.12 124.742 100.594 124.742Z" fill="#828282"/>
<circle cx="66.6191" cy="36.458" r="3.5" fill="#B6B6B6"/>
<circle cx="86.6191" cy="36.458" r="3.5" fill="#B6B6B6"/>
<path d="M84.1191 54.958C84.1191 51.092 80.9851 47.958 77.1191 47.958C73.2531 47.958 70.1191 51.092 70.1191 54.958" stroke="#B6B6B6" stroke-width="5" stroke-linecap="round"/>
</svg>
