<svg width="43" height="13" viewBox="0 0 43 13" fill="none" xmlns="http://www.w3.org/2000/svg">
<path d="M3.82786 11.1392C3.14509 11.1392 2.53525 11.0215 1.99831 10.7862C1.4647 10.5509 1.04211 10.2244 0.730558 9.80682C0.422319 9.38589 0.256599 8.89867 0.233398 8.34517H1.79448C1.81436 8.64678 1.91545 8.90862 2.09775 9.13068C2.28335 9.34943 2.5253 9.51847 2.8236 9.63778C3.12189 9.7571 3.45333 9.81676 3.81792 9.81676C4.21896 9.81676 4.5736 9.74716 4.88184 9.60795C5.19339 9.46875 5.437 9.27486 5.61266 9.02628C5.78832 8.77438 5.87615 8.48438 5.87615 8.15625C5.87615 7.81487 5.78832 7.51491 5.61266 7.25639C5.44031 6.99455 5.18676 6.78906 4.85201 6.63991C4.52057 6.49077 4.11953 6.41619 3.64888 6.41619H2.7888V5.16335H3.64888C4.02672 5.16335 4.35816 5.09541 4.6432 4.95952C4.93155 4.82363 5.15693 4.63471 5.31934 4.39276C5.48174 4.14749 5.56294 3.8608 5.56294 3.53267C5.56294 3.2178 5.49168 2.94437 5.34917 2.71236C5.20996 2.47704 5.0111 2.29309 4.75257 2.16051C4.49737 2.02794 4.19576 1.96165 3.84775 1.96165C3.51631 1.96165 3.20641 2.02296 2.91806 2.1456C2.63302 2.26491 2.40101 2.43726 2.22203 2.66264C2.04306 2.88471 1.94694 3.15151 1.93368 3.46307H0.447177C0.463749 2.91288 0.626154 2.42898 0.934393 2.01136C1.24595 1.59375 1.65693 1.26728 2.16735 1.03196C2.67776 0.796638 3.24453 0.678977 3.86763 0.678977C4.52057 0.678977 5.08401 0.806581 5.55797 1.06179C6.03525 1.31368 6.40314 1.65009 6.66167 2.07102C6.9235 2.49195 7.05276 2.95265 7.04945 3.45312C7.05276 4.0232 6.89367 4.5071 6.57218 4.90483C6.254 5.30256 5.82975 5.56937 5.29945 5.70526V5.7848C5.97559 5.88755 6.49926 6.15601 6.87047 6.5902C7.245 7.02438 7.43061 7.56297 7.42729 8.20597C7.43061 8.7661 7.27483 9.26823 6.95996 9.71236C6.64841 10.1565 6.22251 10.5062 5.68226 10.7614C5.14202 11.0133 4.52388 11.1392 3.82786 11.1392ZM12.1513 11.169C11.3658 11.1657 10.6946 10.9586 10.1378 10.5476C9.58098 10.1366 9.15508 9.53835 8.8601 8.75284C8.56512 7.96733 8.41763 7.02107 8.41763 5.91406C8.41763 4.81037 8.56512 3.86742 8.8601 3.08523C9.1584 2.30303 9.58596 1.70644 10.1428 1.29545C10.7029 0.884469 11.3724 0.678977 12.1513 0.678977C12.9302 0.678977 13.598 0.886126 14.1548 1.30043C14.7117 1.71141 15.1376 2.308 15.4325 3.0902C15.7308 3.86908 15.88 4.81037 15.88 5.91406C15.88 7.02438 15.7325 7.9723 15.4375 8.75781C15.1425 9.54001 14.7166 10.1383 14.1598 10.5526C13.603 10.9635 12.9335 11.169 12.1513 11.169ZM12.1513 9.84162C12.8407 9.84162 13.3793 9.50521 13.7671 8.83239C14.1582 8.15956 14.3537 7.18679 14.3537 5.91406C14.3537 5.06889 14.2642 4.35464 14.0852 3.77131C13.9096 3.18466 13.656 2.74053 13.3246 2.43892C12.9965 2.134 12.6054 1.98153 12.1513 1.98153C11.4652 1.98153 10.9266 2.3196 10.5355 2.99574C10.1444 3.67187 9.94722 4.64465 9.94391 5.91406C9.94391 6.76255 10.0317 7.48011 10.2074 8.06676C10.3864 8.65009 10.6399 9.09257 10.9681 9.39418C11.2962 9.69247 11.6906 9.84162 12.1513 9.84162Z" fill="url(#paint0_linear_3653_15750)"/>
<path d="M20.8414 0.340908L17.5601 12.5312H16.2327L19.514 0.340908H20.8414ZM25.2472 0.818182V11H23.706V2.35938H23.6464L21.2103 3.95028V2.47869L23.7508 0.818182H25.2472ZM30.8462 11.169C30.0607 11.1657 29.3895 10.9586 28.8327 10.5476C28.2759 10.1366 27.85 9.53835 27.555 8.75284C27.26 7.96733 27.1126 7.02107 27.1126 5.91406C27.1126 4.81037 27.26 3.86742 27.555 3.08523C27.8533 2.30303 28.2809 1.70644 28.8377 1.29545C29.3978 0.884469 30.0673 0.678977 30.8462 0.678977C31.6251 0.678977 32.293 0.886126 32.8498 1.30043C33.4066 1.71141 33.8325 2.308 34.1275 3.0902C34.4258 3.86908 34.5749 4.81037 34.5749 5.91406C34.5749 7.02438 34.4274 7.9723 34.1324 8.75781C33.8375 9.54001 33.4116 10.1383 32.8547 10.5526C32.2979 10.9635 31.6284 11.169 30.8462 11.169ZM30.8462 9.84162C31.5356 9.84162 32.0742 9.50521 32.462 8.83239C32.8531 8.15956 33.0486 7.18679 33.0486 5.91406C33.0486 5.06889 32.9591 4.35464 32.7802 3.77131C32.6045 3.18466 32.351 2.74053 32.0195 2.43892C31.6914 2.134 31.3003 1.98153 30.8462 1.98153C30.1601 1.98153 29.6216 2.3196 29.2305 2.99574C28.8394 3.67187 28.6421 4.64465 28.6388 5.91406C28.6388 6.76255 28.7267 7.48011 28.9023 8.06676C29.0813 8.65009 29.3349 9.09257 29.663 9.39418C29.9911 9.69247 30.3855 9.84162 30.8462 9.84162ZM39.1833 11.169C38.3978 11.1657 37.7267 10.9586 37.1698 10.5476C36.613 10.1366 36.1871 9.53835 35.8921 8.75284C35.5972 7.96733 35.4497 7.02107 35.4497 5.91406C35.4497 4.81037 35.5972 3.86742 35.8921 3.08523C36.1904 2.30303 36.618 1.70644 37.1748 1.29545C37.7349 0.884469 38.4044 0.678977 39.1833 0.678977C39.9622 0.678977 40.6301 0.886126 41.1869 1.30043C41.7437 1.71141 42.1696 2.308 42.4646 3.0902C42.7629 3.86908 42.912 4.81037 42.912 5.91406C42.912 7.02438 42.7645 7.9723 42.4695 8.75781C42.1746 9.54001 41.7487 10.1383 41.1919 10.5526C40.635 10.9635 39.9655 11.169 39.1833 11.169ZM39.1833 9.84162C39.8727 9.84162 40.4113 9.50521 40.7991 8.83239C41.1902 8.15956 41.3857 7.18679 41.3857 5.91406C41.3857 5.06889 41.2963 4.35464 41.1173 3.77131C40.9416 3.18466 40.6881 2.74053 40.3566 2.43892C40.0285 2.134 39.6374 1.98153 39.1833 1.98153C38.4972 1.98153 37.9587 2.3196 37.5676 2.99574C37.1765 3.67187 36.9793 4.64465 36.9759 5.91406C36.9759 6.76255 37.0638 7.48011 37.2394 8.06676C37.4184 8.65009 37.672 9.09257 38.0001 9.39418C38.3282 9.69247 38.7226 9.84162 39.1833 9.84162Z" fill="#D0D0D0"/>
<defs>
<linearGradient id="paint0_linear_3653_15750" x1="-2.40625" y1="-1.97753" x2="36.3495" y2="26.0697" gradientUnits="userSpaceOnUse">
<stop stop-color="#29C4E7"/>
<stop offset="1" stop-color="#0193FE"/>
</linearGradient>
</defs>
</svg>
