<svg width="169" height="180" viewBox="0 0 169 180" fill="none" xmlns="http://www.w3.org/2000/svg">
<g clip-path="url(#clip0_2238_48247)">
<path fill-rule="evenodd" clip-rule="evenodd" d="M50.7739 160.162C50.7739 167.401 44.9263 173.27 37.712 173.27C44.9263 173.27 50.7739 179.138 50.7739 186.377C50.7739 193.617 44.9263 199.485 37.712 199.485C34.6678 199.485 31.8673 198.441 29.6469 196.688L29.629 196.738L29.2746 196.382C28.7214 195.912 28.2086 195.398 27.7406 194.843L6.24127 173.268L27.7406 151.694C28.2086 151.138 28.7214 150.624 29.2746 150.154L29.629 149.799L29.6469 149.848C31.8673 148.097 34.6678 147.051 37.712 147.051C44.9263 147.051 50.7739 152.919 50.7739 160.159V160.162Z" fill="#91BE23"/>
<path fill-rule="evenodd" clip-rule="evenodd" d="M50.7739 160.162C50.7739 167.401 44.9263 173.27 37.712 173.27H6.24127L27.7406 151.695C28.2086 151.14 28.7214 150.625 29.2746 150.156L29.629 149.8L29.6469 149.85C31.8673 148.099 34.6678 147.053 37.712 147.053C44.9263 147.053 50.7739 152.921 50.7739 160.16V160.162Z" fill="#57B5A1"/>
<path fill-rule="evenodd" clip-rule="evenodd" d="M152.849 147.054C144.385 147.054 137.523 153.94 137.523 162.434C137.523 153.94 130.662 147.054 122.198 147.054C113.733 147.054 106.872 153.94 106.872 162.434C106.872 166.017 108.094 169.314 110.142 171.93L110.084 171.951L110.499 172.368C111.048 173.019 111.651 173.622 112.3 174.174L137.525 199.488L162.75 174.174C163.399 173.624 164 173.019 164.55 172.368L164.966 171.951L164.908 171.93C166.956 169.314 168.178 166.018 168.178 162.434C168.178 153.94 161.316 147.054 152.852 147.054H152.849Z" fill="#57B5A1"/>
<path fill-rule="evenodd" clip-rule="evenodd" d="M152.849 147.054C144.385 147.054 137.523 153.94 137.523 162.434V199.486L162.749 174.173C163.397 173.622 163.999 173.017 164.549 172.366L164.964 171.949L164.906 171.928C166.955 169.313 168.176 166.017 168.176 162.432C168.176 153.938 161.315 147.053 152.85 147.053L152.849 147.054Z" fill="#57B5A1"/>
<path fill-rule="evenodd" clip-rule="evenodd" d="M48.4564 225.702C48.4564 211.223 60.1533 199.486 74.5818 199.486C60.1533 199.486 48.4564 187.749 48.4564 173.271C48.4564 158.794 60.1533 147.054 74.5818 147.054C80.6688 147.054 86.2712 149.144 90.7119 152.646L90.7463 152.546L91.455 153.257C92.56 154.196 93.5857 155.226 94.5232 156.336L137.522 199.485L94.5232 242.634C93.5872 243.743 92.56 244.772 91.455 245.713L90.7463 246.424L90.7119 246.323C86.2697 249.827 80.6688 251.917 74.5818 251.917C60.1533 251.917 48.4564 240.179 48.4564 225.7V225.702Z" fill="#91BE23"/>
<path fill-rule="evenodd" clip-rule="evenodd" d="M6.841 154.231C6.841 150.267 10.0273 147.054 13.9596 147.054H31.1094L19.3931 158.867C19.1374 159.17 18.8578 159.452 18.5573 159.71L18.3644 159.905L18.3554 159.878C17.1458 160.837 15.6193 161.409 13.9596 161.409C10.0288 161.409 6.841 158.196 6.841 154.232V154.231Z" fill="#996633"/>
<path d="M108.5 153.906C108.607 150.226 105.722 147.155 102.054 147.047C98.387 146.939 95.3269 149.835 95.2193 153.515C95.1117 157.195 97.9975 160.266 101.665 160.374C105.332 160.482 108.392 157.586 108.5 153.906Z" fill="#996633"/>
<path fill-rule="evenodd" clip-rule="evenodd" d="M50.7739 160.162C50.7739 167.401 44.9263 173.27 37.712 173.27H6.24127L27.7406 151.695C28.2086 151.14 28.7214 150.625 29.2746 150.156L29.629 149.8L29.6469 149.85C31.8673 148.099 34.6678 147.053 37.712 147.053C44.9263 147.053 50.7739 152.921 50.7739 160.16V160.162Z" fill="#91BE23"/>
<path fill-rule="evenodd" clip-rule="evenodd" d="M152.849 147.054C144.385 147.054 137.523 153.94 137.523 162.434C137.523 153.94 130.662 147.054 122.198 147.054C113.733 147.054 106.872 153.94 106.872 162.434C106.872 166.017 108.094 169.314 110.142 171.93L110.084 171.951L110.499 172.368C111.048 173.019 111.651 173.622 112.3 174.174L137.525 199.488L162.75 174.174C163.399 173.624 164 173.019 164.55 172.368L164.966 171.951L164.908 171.93C166.956 169.314 168.178 166.018 168.178 162.434C168.178 153.94 161.316 147.054 152.852 147.054H152.849Z" fill="#91BE23"/>
<path fill-rule="evenodd" clip-rule="evenodd" d="M153.674 146.225C145.21 146.225 138.348 153.11 138.348 161.604V198.657L163.574 173.343C164.223 172.792 164.824 172.188 165.374 171.537L165.79 171.119L165.731 171.098C167.78 168.483 169.001 165.187 169.001 161.602C169.001 153.108 162.14 146.223 153.676 146.223L153.674 146.225Z" fill="#ABDB4C"/>
<path fill-rule="evenodd" clip-rule="evenodd" d="M50.7739 1.20783C50.7739 8.44734 44.9263 14.3155 37.712 14.3155C44.9263 14.3155 50.7739 20.1836 50.7739 27.4231C50.7739 34.6626 44.9263 40.5307 37.712 40.5307C34.6678 40.5307 31.8673 39.4864 29.6469 37.734L29.629 37.7835L29.2746 37.4279C28.7229 36.9582 28.2086 36.4436 27.7406 35.8885L6.24127 14.314L20.5084 0H50.7186C50.7545 0.39761 50.7739 0.801222 50.7739 1.20783Z" fill="#ABDB4C"/>
<path fill-rule="evenodd" clip-rule="evenodd" d="M50.7739 1.20783C50.7739 8.44734 44.9263 14.3155 37.712 14.3155H6.24127L20.5084 0H50.7186C50.7545 0.39761 50.7739 0.801222 50.7739 1.20783Z" fill="#57B5A1"/>
<path fill-rule="evenodd" clip-rule="evenodd" d="M149.382 0L152.321 2.94982C152.643 3.33092 152.997 3.68652 153.377 4.00911L153.621 4.25368L153.632 4.21917C155.161 5.4255 157.089 6.1442 159.184 6.1442C163.146 6.1442 166.511 3.57099 167.708 0L149.382 0Z" fill="#57B5A1"/>
<path fill-rule="evenodd" clip-rule="evenodd" d="M149.382 0L152.321 2.94982C152.643 3.33092 152.997 3.68652 153.377 4.00911L153.621 4.25368L153.632 4.21917C155.161 5.4255 157.089 6.1442 159.184 6.1442C163.146 6.1442 166.511 3.57099 167.708 0L149.382 0Z" fill="#57B5A1"/>
<path fill-rule="evenodd" clip-rule="evenodd" d="M48.4564 14.3155C48.4564 9.0325 50.0144 4.11564 52.6938 0H125.663L94.5232 31.2492C93.5872 32.358 92.56 33.3873 91.455 34.328L90.7463 35.0392L90.7119 34.9387C86.2697 38.4422 80.6688 40.5322 74.5818 40.5322C60.1533 40.5322 48.4579 28.7945 48.4579 14.3155H48.4564Z" fill="#57B5A1"/>
<path fill-rule="evenodd" clip-rule="evenodd" d="M48.4564 14.3155C48.4564 9.0325 50.0144 4.11564 52.6938 0H125.663L94.5232 31.2492C93.5872 32.358 92.56 33.3873 91.455 34.328L90.7463 35.0392L90.7119 34.9387C86.2697 38.4422 80.6688 40.5322 74.5818 40.5322C60.1533 40.5322 48.4579 28.7945 48.4579 14.3155H48.4564Z" fill="#57B5A1"/>
<path fill-rule="evenodd" clip-rule="evenodd" d="M8.59906 0C9.90436 1.50342 11.8212 2.45468 13.9593 2.45468C15.6175 2.45468 17.1441 1.88302 18.3552 0.924256L18.3641 0.951264L18.557 0.756209C18.8291 0.523645 19.0833 0.271575 19.3181 0H8.59906Z" fill="#996633"/>
<path fill-rule="evenodd" clip-rule="evenodd" d="M6.841 33.3557C6.841 37.3198 10.0273 40.5322 13.9596 40.5322H31.1094L19.3931 28.7194C19.1374 28.4164 18.8578 28.1343 18.5573 27.8762L18.3644 27.6812L18.3554 27.7082C17.1458 26.7494 15.6193 26.1762 13.9596 26.1762C10.0288 26.1762 6.841 29.3901 6.841 33.3527V33.3557Z" fill="#996633"/>
<path fill-rule="evenodd" clip-rule="evenodd" d="M122.198 40.5322C130.662 40.5322 137.523 33.6468 137.523 25.153C137.523 33.6468 144.385 40.5322 152.849 40.5322C161.313 40.5322 168.175 33.6468 168.175 25.153C168.175 21.5685 166.953 18.2721 164.905 15.6568L164.963 15.6358L164.547 15.2187C163.999 14.5675 163.396 13.9644 162.747 13.4122L149.382 0H125.665L112.298 13.4137C111.649 13.9644 111.048 14.569 110.498 15.2202L110.082 15.6373L110.141 15.6583C108.092 18.2736 106.871 21.57 106.871 25.1545C106.871 33.6483 113.732 40.5337 122.196 40.5337L122.198 40.5322Z" fill="#ABDB4C"/>
<path fill-rule="evenodd" clip-rule="evenodd" d="M122.198 40.5322C130.662 40.5322 137.523 33.6468 137.523 25.153V0H125.665L112.298 13.4137C111.649 13.9644 111.048 14.569 110.498 15.2202L110.082 15.6373L110.141 15.6583C108.092 18.2736 106.871 21.57 106.871 25.1545C106.871 33.6483 113.732 40.5337 122.196 40.5337L122.198 40.5322Z" fill="#91BE23"/>
<path d="M108.505 34.5267C108.966 30.7755 106.308 27.3602 102.57 26.8982C98.8323 26.4363 95.4288 29.1028 94.9685 32.854C94.5082 36.6051 97.1653 40.0205 100.903 40.4824C104.642 40.9443 108.045 38.2779 108.505 34.5267Z" fill="#996633"/>
<path fill-rule="evenodd" clip-rule="evenodd" d="M50.7739 1.20783C50.7739 8.44734 44.9263 14.3155 37.712 14.3155H6.24127L20.5084 0H50.7186C50.7545 0.39761 50.7739 0.801222 50.7739 1.20783Z" fill="#91BE23"/>
<path fill-rule="evenodd" clip-rule="evenodd" d="M149.382 0L152.321 2.94982C152.643 3.33092 152.997 3.68652 153.377 4.00911L153.621 4.25368L153.632 4.21917C155.161 5.4255 157.089 6.1442 159.184 6.1442C163.146 6.1442 166.511 3.57099 167.708 0L149.382 0Z" fill="#996633"/>
<path fill-rule="evenodd" clip-rule="evenodd" d="M48.4564 14.3155C48.4564 9.0325 50.0144 4.11564 52.6938 0H125.663L94.5232 31.2492C93.5872 32.358 92.56 33.3873 91.455 34.328L90.7463 35.0392L90.7119 34.9387C86.2697 38.4422 80.6688 40.5322 74.5818 40.5322C60.1533 40.5322 48.4579 28.7945 48.4579 14.3155H48.4564Z" fill="#ABDB4C"/>
<path fill-rule="evenodd" clip-rule="evenodd" d="M124.467 132.289C124.467 125.049 130.315 119.181 137.529 119.181C130.315 119.181 124.467 113.313 124.467 106.073C124.467 98.8339 130.315 92.9658 137.529 92.9658C140.574 92.9658 143.374 94.0101 145.594 95.7625L145.612 95.713L145.967 96.0686C146.52 96.5383 147.033 97.0529 147.501 97.608L169 119.183L147.501 140.757C147.033 141.312 146.52 141.827 145.967 142.296L145.612 142.652L145.594 142.603C143.374 144.354 140.574 145.399 137.529 145.399C130.315 145.399 124.467 139.531 124.467 132.292V132.289Z" fill="#ABDB4C"/>
<path fill-rule="evenodd" clip-rule="evenodd" d="M124.467 132.289C124.467 125.049 130.315 119.181 137.529 119.181H169L147.501 140.756C147.033 141.311 146.52 141.825 145.967 142.295L145.612 142.651L145.594 142.601C143.374 144.352 140.574 145.398 137.529 145.398C130.315 145.398 124.467 139.53 124.467 132.29V132.289Z" fill="#57B5A1"/>
<path fill-rule="evenodd" clip-rule="evenodd" d="M22.3924 145.396C30.8566 145.396 37.7181 138.511 37.7181 130.017C37.7181 138.511 44.5795 145.396 53.0437 145.396C61.508 145.396 68.3694 138.511 68.3694 130.017C68.3694 126.433 67.1478 123.136 65.0994 120.521L65.1577 120.5L64.7421 120.083C64.1933 119.432 63.5908 118.828 62.9419 118.276L37.7166 92.9628L12.4913 118.276C11.8423 118.827 11.2413 119.432 10.691 120.083L10.2754 120.5L10.3337 120.521C8.28529 123.136 7.06372 126.433 7.06372 130.017C7.06372 138.511 13.9251 145.396 22.3894 145.396H22.3924Z" fill="#57B5A1"/>
<path fill-rule="evenodd" clip-rule="evenodd" d="M22.3925 145.396C30.8567 145.396 37.7182 138.511 37.7182 130.017V92.9643L12.4928 118.278C11.8439 118.828 11.2429 119.433 10.6926 120.084L10.277 120.501L10.3353 120.522C8.28688 123.138 7.06531 126.434 7.06531 130.019C7.06531 138.512 13.9267 145.398 22.391 145.398L22.3925 145.396Z" fill="#57B5A1"/>
<path fill-rule="evenodd" clip-rule="evenodd" d="M124.467 79.8566C124.467 72.6171 130.315 66.749 137.529 66.749C130.315 66.749 124.467 60.8809 124.467 53.6414C124.467 46.4019 130.315 40.5337 137.529 40.5337C140.574 40.5337 143.374 41.578 145.594 43.3305L145.612 43.281L145.967 43.6366C146.52 44.1062 147.033 44.6209 147.501 45.176L169 66.7505L147.501 88.325C147.033 88.8801 146.52 89.3948 145.967 89.8644L145.612 90.22L145.594 90.1705C143.374 91.9215 140.574 92.9673 137.529 92.9673C130.315 92.9673 124.467 87.0991 124.467 79.8596V79.8566Z" fill="#ABDB4C"/>
<path fill-rule="evenodd" clip-rule="evenodd" d="M124.467 79.8566C124.467 72.6171 130.315 66.749 137.529 66.749H169L147.501 88.3235C147.033 88.8786 146.52 89.3933 145.967 89.8629L145.612 90.2185L145.594 90.169C143.374 91.92 140.574 92.9658 137.529 92.9658C130.315 92.9658 124.467 87.0976 124.467 79.8581V79.8566Z" fill="#57B5A1"/>
<path fill-rule="evenodd" clip-rule="evenodd" d="M7.06683 83.9422C7.06683 88.9251 11.0919 92.9642 16.0574 92.9642C11.0919 92.9642 7.06683 97.0033 7.06683 101.986C7.06683 106.969 11.0919 111.008 16.0574 111.008C18.1522 111.008 20.0795 110.29 21.609 109.083L21.621 109.118L21.8647 108.873C22.2445 108.549 22.5988 108.195 22.9203 107.814L37.7182 92.9642L22.9203 78.1146C22.5988 77.7335 22.2445 77.3779 21.8647 77.0553L21.621 76.8108L21.609 76.8453C20.0809 75.6389 18.1522 74.9202 16.0574 74.9202C11.0919 74.9202 7.06683 78.9594 7.06683 83.9422Z" fill="#ABDB4C"/>
<path fill-rule="evenodd" clip-rule="evenodd" d="M7.06683 83.9422C7.06683 88.9251 11.0919 92.9642 16.0574 92.9642H37.7182L22.9203 78.1146C22.5988 77.7335 22.2445 77.3779 21.8647 77.0553L21.621 76.8108L21.609 76.8453C20.0809 75.6389 18.1522 74.9202 16.0574 74.9202C11.0919 74.9202 7.06683 78.9594 7.06683 83.9422Z" fill="#57B5A1"/>
<path fill-rule="evenodd" clip-rule="evenodd" d="M126.785 66.749C126.785 81.228 115.088 92.9643 100.661 92.9643C115.09 92.9643 126.785 104.702 126.785 119.18C126.785 133.657 115.088 145.396 100.661 145.396C94.5727 145.396 88.9717 143.306 84.531 139.804L84.4966 139.905L83.7879 139.194C82.6829 138.254 81.6557 137.225 80.7197 136.115L37.7211 92.9658L80.7197 49.8168C81.6557 48.708 82.6829 47.6787 83.7879 46.7379L84.4966 46.0267L84.531 46.1273C88.9732 42.6238 94.5741 40.5352 100.661 40.5352C115.09 40.5352 126.785 52.273 126.785 66.7505V66.749Z" fill="#91BE23"/>
<path fill-rule="evenodd" clip-rule="evenodd" d="M126.785 66.749C126.785 81.228 115.088 92.9643 100.661 92.9643H37.7195L80.7182 49.8153C81.6541 48.7065 82.6813 47.6772 83.7863 46.7364L84.495 46.0252L84.5294 46.1258C88.9716 42.6223 94.5726 40.5337 100.659 40.5337C115.088 40.5337 126.783 52.2715 126.783 66.749H126.785Z" fill="#57B5A1"/>
<path fill-rule="evenodd" clip-rule="evenodd" d="M168.401 100.141C168.401 96.1767 165.214 92.9643 161.282 92.9643C165.213 92.9643 168.401 89.7519 168.401 85.7878C168.401 81.8237 165.214 78.6113 161.282 78.6113C159.624 78.6113 158.097 79.183 156.886 80.1417L156.877 80.1147L156.684 80.3098C156.384 80.5663 156.104 80.8484 155.849 81.153L144.132 92.9658L155.849 104.779C156.104 105.082 156.384 105.364 156.684 105.622L156.877 105.817L156.886 105.79C158.096 106.749 159.622 107.32 161.282 107.32C165.213 107.32 168.401 104.106 168.401 100.144V100.141Z" fill="#91BE23"/>
<path fill-rule="evenodd" clip-rule="evenodd" d="M168.401 100.141C168.401 96.1766 165.214 92.9643 161.282 92.9643H144.132L155.849 104.777C156.104 105.08 156.384 105.362 156.684 105.62L156.877 105.815L156.886 105.788C158.096 106.747 159.622 107.319 161.282 107.319C165.213 107.319 168.401 104.105 168.401 100.142V100.141Z" fill="#57B5A1"/>
<path fill-rule="evenodd" clip-rule="evenodd" d="M168.401 138.22C168.401 142.184 165.214 145.396 161.282 145.396H144.132L155.849 133.584C156.104 133.28 156.384 132.998 156.684 132.74L156.877 132.545L156.886 132.572C158.096 131.613 159.622 131.042 161.282 131.042C165.213 131.042 168.401 134.256 168.401 138.218V138.22Z" fill="#996633"/>
<path fill-rule="evenodd" clip-rule="evenodd" d="M168.401 47.7087C168.401 43.7446 165.214 40.5323 161.282 40.5323H144.132L155.849 52.345C156.104 52.6481 156.384 52.9302 156.684 53.1883L156.877 53.3833L156.886 53.3563C158.096 54.3151 159.622 54.8867 161.282 54.8867C165.213 54.8867 168.401 51.6728 168.401 47.7102V47.7087Z" fill="#996633"/>
<path fill-rule="evenodd" clip-rule="evenodd" d="M53.045 40.5323C44.5808 40.5323 37.7193 47.4177 37.7193 55.9115C37.7193 47.4177 30.8579 40.5323 22.3937 40.5323C13.9294 40.5323 7.06799 47.4177 7.06799 55.9115C7.06799 59.4945 8.28956 62.7924 10.338 65.4076L10.2797 65.4287L10.6953 65.8458C11.2441 66.497 11.8466 67.1001 12.4955 67.6523L37.7208 92.9658L62.9462 67.6523C63.5951 67.1016 64.1961 66.497 64.7464 65.8458L65.162 65.4287L65.1037 65.4076C67.1521 62.7924 68.3737 59.496 68.3737 55.9115C68.3737 47.4177 61.5123 40.5323 53.048 40.5323H53.045Z" fill="#ABDB4C"/>
<path fill-rule="evenodd" clip-rule="evenodd" d="M53.0452 40.5323C44.581 40.5323 37.7195 47.4177 37.7195 55.9115V92.9643L62.9449 67.6508C63.5938 67.1001 64.1948 66.4955 64.7451 65.8443L65.1607 65.4272L65.1024 65.4062C67.1508 62.7909 68.3724 59.4945 68.3724 55.91C68.3724 47.4162 61.511 40.5308 53.0467 40.5308L53.0452 40.5323Z" fill="#91BE23"/>
<path d="M76.4021 53.5648C79.8127 51.9616 81.2825 47.8873 79.6848 44.4647C78.0871 41.0421 74.027 39.5672 70.6164 41.1705C67.2057 42.7738 65.736 46.848 67.3336 50.2706C68.9313 53.6932 72.9914 55.1681 76.4021 53.5648Z" fill="#996633"/>
<path d="M128.038 93.5977C128.383 89.8341 125.622 86.5027 121.871 86.1569C118.12 85.811 114.801 88.5817 114.456 92.3454C114.111 96.109 116.872 99.4404 120.623 99.7862C124.374 100.132 127.693 97.3614 128.038 93.5977Z" fill="#996633"/>
<path fill-rule="evenodd" clip-rule="evenodd" d="M73.3724 132.065C77.0416 132.065 80.0155 135.049 80.0155 138.731C80.0155 142.413 77.0416 145.398 73.3724 145.398C69.7032 145.398 66.7292 142.413 66.7292 138.731C66.7292 135.049 69.7032 132.065 73.3724 132.065Z" fill="#996633"/>
<path fill-rule="evenodd" clip-rule="evenodd" d="M124.467 132.289C124.467 125.049 130.315 119.181 137.529 119.181H169L147.501 140.756C147.033 141.311 146.52 141.825 145.967 142.295L145.612 142.651L145.594 142.601C143.374 144.352 140.574 145.398 137.529 145.398C130.315 145.398 124.467 139.53 124.467 132.29V132.289Z" fill="#91BE23"/>
<path fill-rule="evenodd" clip-rule="evenodd" d="M22.3924 145.396C30.8566 145.396 37.7181 138.511 37.7181 130.017C37.7181 138.511 44.5795 145.396 53.0437 145.396C61.508 145.396 68.3694 138.511 68.3694 130.017C68.3694 126.433 67.1478 123.136 65.0994 120.521L65.1577 120.5L64.7421 120.083C64.1933 119.432 63.5908 118.828 62.9419 118.276L37.7166 92.9628L12.4913 118.276C11.8423 118.827 11.2413 119.432 10.691 120.083L10.2754 120.5L10.3337 120.521C8.28529 123.136 7.06372 126.433 7.06372 130.017C7.06372 138.511 13.9251 145.396 22.3894 145.396H22.3924Z" fill="#91BE23"/>
<path fill-rule="evenodd" clip-rule="evenodd" d="M21.5669 146.225C30.0312 146.225 36.8926 139.339 36.8926 130.845V93.7925L11.6673 119.106C11.0184 119.657 10.4173 120.261 9.86707 120.913L9.45141 121.33L9.50972 121.349C7.46131 123.964 6.23975 127.261 6.23975 130.845C6.23975 139.339 13.1012 146.225 21.5654 146.225H21.5669Z" fill="#ABDB4C"/>
<path fill-rule="evenodd" clip-rule="evenodd" d="M124.467 79.8566C124.467 72.6171 130.315 66.749 137.529 66.749H169L147.501 88.3235C147.033 88.8786 146.52 89.3933 145.967 89.8629L145.612 90.2185L145.594 90.169C143.374 91.92 140.574 92.9658 137.529 92.9658C130.315 92.9658 124.467 87.0976 124.467 79.8581V79.8566Z" fill="#91BE23"/>
<path fill-rule="evenodd" clip-rule="evenodd" d="M7.06683 83.9422C7.06683 88.9251 11.0919 92.9642 16.0574 92.9642H37.7182L22.9203 78.1146C22.5988 77.7335 22.2445 77.3779 21.8647 77.0553L21.621 76.8108L21.609 76.8453C20.0809 75.6389 18.1522 74.9202 16.0574 74.9202C11.0919 74.9202 7.06683 78.9594 7.06683 83.9422Z" fill="#91BE23"/>
<path fill-rule="evenodd" clip-rule="evenodd" d="M126.785 66.749C126.785 81.228 115.088 92.9643 100.661 92.9643H37.7195L80.7182 49.8153C81.6541 48.7065 82.6813 47.6772 83.7863 46.7364L84.495 46.0252L84.5294 46.1258C88.9716 42.6223 94.5726 40.5337 100.659 40.5337C115.088 40.5337 126.783 52.2715 126.783 66.749H126.785Z" fill="#ABDB4C"/>
<path fill-rule="evenodd" clip-rule="evenodd" d="M168.401 100.141C168.401 96.1766 165.214 92.9643 161.282 92.9643H144.132L155.849 104.777C156.104 105.08 156.384 105.362 156.684 105.62L156.877 105.815L156.886 105.788C158.096 106.747 159.622 107.319 161.282 107.319C165.213 107.319 168.401 104.105 168.401 100.142V100.141Z" fill="#91BE23"/>
</g>
<defs>
<clipPath id="clip0_2238_48247">
<rect width="169" height="180" fill="white"/>
</clipPath>
</defs>
</svg>
