<svg width="200" height="175" viewBox="0 0 200 175" fill="none" xmlns="http://www.w3.org/2000/svg">
<g clip-path="url(#clip0_2238_48340)">
<path d="M155.843 68.4965H159.595V152.641H155.843V68.4965Z" fill="#91BE23"/>
<path fill-rule="evenodd" clip-rule="evenodd" d="M116.575 30.0091L157.719 70.968C130.287 76.6825 110.815 50.6383 116.575 30.0091Z" fill="#91BE23"/>
<path fill-rule="evenodd" clip-rule="evenodd" d="M116.575 30.0091L157.719 70.968C163.46 43.6593 137.297 24.2751 116.575 30.0091Z" fill="#A0CD23"/>
<path fill-rule="evenodd" clip-rule="evenodd" d="M198.864 30.0091L157.719 70.968C185.152 76.6817 204.624 50.6383 198.864 30.0091Z" fill="#91BE23"/>
<path fill-rule="evenodd" clip-rule="evenodd" d="M198.864 30.0091L157.719 70.968C151.98 43.6593 178.142 24.2751 198.864 30.0091Z" fill="#A0CD23"/>
<path d="M67.7963 68.4965H71.5485V153.427H67.7963V68.4965Z" fill="#91BE23"/>
<path fill-rule="evenodd" clip-rule="evenodd" d="M28.5277 30.0091L69.6724 70.968C42.2398 76.6825 22.7678 50.6383 28.5277 30.0091Z" fill="#91BE23"/>
<path fill-rule="evenodd" clip-rule="evenodd" d="M28.5277 30.0091L69.6724 70.968C75.4128 43.6593 49.2505 24.2751 28.5277 30.0091Z" fill="#A0CD23"/>
<path fill-rule="evenodd" clip-rule="evenodd" d="M110.817 30.0091L69.6724 70.968C97.1051 76.6825 116.577 50.6383 110.817 30.0091Z" fill="#91BE23"/>
<path fill-rule="evenodd" clip-rule="evenodd" d="M110.817 30.0091L69.6724 70.968C63.9329 43.6593 90.0952 24.2751 110.817 30.0091Z" fill="#A0CD23"/>
<path d="M166.72 114.108H187.308V157.989H166.72V114.108Z" fill="#6A5219"/>
<path d="M39.6942 114.108H60.2818V157.989H39.6942V114.108Z" fill="#6A5219"/>
<path d="M112.308 78.798C112.308 78.567 112.12 78.3793 111.888 78.3793C111.656 78.3793 111.467 78.5662 111.467 78.798V84.0625C111.467 84.18 111.477 84.2959 111.498 84.4093C111.583 84.8812 111.847 85.2991 112.203 85.5994C112.557 85.8988 113.009 86.0874 113.472 86.1026C113.597 86.1069 113.725 86.0984 113.851 86.0756C114.078 86.035 114.229 85.8184 114.189 85.5917C114.148 85.3659 113.93 85.2145 113.703 85.2551C113.636 85.2669 113.567 85.2712 113.498 85.2695C113.229 85.261 112.96 85.146 112.743 84.9624C112.528 84.7806 112.37 84.5336 112.32 84.2621C112.309 84.2029 112.304 84.1411 112.304 84.0785C112.306 84.0642 112.307 84.0489 112.307 84.0337V78.7971L112.308 78.798Z" fill="#69624F"/>
<path d="M105.164 78.798C105.164 78.567 104.976 78.3793 104.744 78.3793C104.511 78.3793 104.323 78.5662 104.323 78.798V84.0625C104.323 84.18 104.333 84.2959 104.354 84.4093C104.439 84.8812 104.703 85.2991 105.059 85.5994C105.413 85.8988 105.865 86.0874 106.328 86.1026C106.453 86.1069 106.581 86.0984 106.706 86.0756C106.933 86.035 107.085 85.8184 107.045 85.5917C107.004 85.3659 106.786 85.2145 106.559 85.2551C106.492 85.2669 106.423 85.2712 106.354 85.2695C106.085 85.261 105.816 85.146 105.599 84.9624C105.384 84.7806 105.225 84.5336 105.176 84.2621C105.165 84.2029 105.16 84.1411 105.16 84.0785C105.162 84.0642 105.163 84.0489 105.163 84.0337V78.7971L105.164 78.798Z" fill="#69624F"/>
<path d="M100.33 78.798C100.33 78.567 100.143 78.3793 99.9099 78.3793C99.6771 78.3793 99.4893 78.5662 99.4893 78.798V84.0625C99.4893 84.18 99.4995 84.2959 99.5199 84.4093C99.6048 84.8812 99.8691 85.2991 100.225 85.5994C100.579 85.8988 101.031 86.0874 101.495 86.1026C101.619 86.1069 101.747 86.0984 101.873 86.0756C102.099 86.035 102.252 85.8184 102.211 85.5917C102.17 85.3659 101.952 85.2145 101.725 85.2551C101.659 85.2669 101.589 85.2712 101.52 85.2695C101.252 85.261 100.982 85.146 100.765 84.9624C100.551 84.7806 100.392 84.5336 100.342 84.2621C100.331 84.2029 100.326 84.1411 100.326 84.0785C100.328 84.0642 100.329 84.0489 100.329 84.0337V78.7971L100.33 78.798Z" fill="#69624F"/>
<path d="M117.142 78.798C117.142 78.567 116.954 78.3793 116.722 78.3793C116.489 78.3793 116.301 78.5662 116.301 78.798V84.0625C116.301 84.18 116.311 84.2959 116.332 84.4093C116.417 84.8812 116.681 85.2991 117.037 85.5994C117.391 85.8988 117.843 86.0874 118.306 86.1026C118.431 86.1069 118.559 86.0984 118.684 86.0756C118.912 86.035 119.063 85.8184 119.022 85.5917C118.982 85.3659 118.764 85.2145 118.536 85.2551C118.47 85.2669 118.401 85.2712 118.332 85.2695C118.063 85.261 117.794 85.146 117.577 84.9624C117.362 84.7806 117.203 84.5336 117.154 84.2621C117.143 84.2029 117.138 84.1411 117.138 84.0785C117.14 84.0642 117.14 84.0489 117.14 84.0337V78.7971L117.142 78.798Z" fill="#69624F"/>
<path fill-rule="evenodd" clip-rule="evenodd" d="M91.6756 73.5622V76.6022C91.6756 81.5867 91.521 81.7508 96.337 81.7508H119.768C124.862 81.7508 125.075 81.5842 125.075 76.2884V73.5622C125.075 52.5778 91.6756 52.4213 91.6756 73.5622Z" fill="#F93C28"/>
<path d="M116.702 76.5796C116.251 74.6805 117.433 72.7776 119.341 72.3294C121.248 71.8812 123.16 73.0573 123.61 74.9564C124.06 76.8555 122.879 78.7583 120.971 79.2066C119.063 79.6548 117.152 78.4786 116.702 76.5796Z" fill="#FFF8DD"/>
<path d="M106.289 79.3038C104.329 79.3038 102.74 77.722 102.74 75.7707C102.74 73.8195 104.329 72.2376 106.289 72.2376C108.249 72.2376 109.838 73.8195 109.838 75.7707C109.838 77.722 108.249 79.3038 106.289 79.3038Z" fill="#FFF8DD"/>
<path fill-rule="evenodd" clip-rule="evenodd" d="M92.4259 72.2385C92.1846 72.2385 91.9492 72.2621 91.7215 72.3078C91.6943 72.7181 91.6765 73.1342 91.6765 73.5622V76.6022C91.6765 77.6933 91.6697 78.5535 91.7079 79.2319C91.9399 79.2792 92.1803 79.3046 92.4268 79.3046C94.387 79.3046 95.9759 77.7229 95.9759 75.7715C95.9759 73.8202 94.387 72.2385 92.4268 72.2385H92.4259Z" fill="#FFF8DD"/>
<path fill-rule="evenodd" clip-rule="evenodd" d="M113.427 62.5105C111.467 62.5105 109.878 64.0922 109.878 66.0436C109.878 67.9949 111.467 69.5766 113.427 69.5766C115.388 69.5766 116.976 67.9949 116.976 66.0436C116.976 64.0922 115.388 62.5105 113.427 62.5105Z" fill="#FFF8DD"/>
<path d="M99.5649 69.5766C97.6048 69.5766 96.0158 67.9948 96.0158 66.0436C96.0158 64.0923 97.6048 62.5105 99.5649 62.5105C101.525 62.5105 103.114 64.0923 103.114 66.0436C103.114 67.9948 101.525 69.5766 99.5649 69.5766Z" fill="#FFF8DD"/>
<path d="M123.358 80.2537C123.358 80.1166 123.247 80.0058 123.109 80.0058H123.106H123.103C122.965 80.0058 122.854 80.1166 122.854 80.2537V83.3545C122.854 83.3638 122.854 83.3723 122.855 83.3807C122.855 83.4179 122.852 83.4543 122.846 83.4898C122.817 83.6506 122.723 83.7969 122.595 83.9043C122.467 84.0126 122.307 84.0811 122.148 84.0862C122.108 84.0879 122.067 84.0845 122.028 84.0777C121.894 84.054 121.764 84.1428 121.74 84.2773C121.716 84.411 121.805 84.5395 121.94 84.5641C122.015 84.5776 122.091 84.5827 122.165 84.5801C122.439 84.5708 122.707 84.4592 122.917 84.2824C122.987 84.2232 123.051 84.1555 123.107 84.0828C123.163 84.1564 123.228 84.2232 123.297 84.2824C123.507 84.46 123.775 84.5717 124.049 84.5801C124.123 84.5827 124.199 84.5776 124.273 84.5641C124.408 84.5404 124.498 84.4118 124.474 84.2773C124.45 84.1437 124.321 84.054 124.187 84.0777C124.148 84.0845 124.107 84.087 124.066 84.0862C123.907 84.0811 123.748 84.0126 123.619 83.9043C123.492 83.7969 123.397 83.6506 123.369 83.4898C123.363 83.4552 123.359 83.4179 123.359 83.3807C123.36 83.3723 123.361 83.363 123.361 83.3545V80.2537H123.358Z" fill="#867D64"/>
<path d="M122.608 83.0738C120.922 82.8014 119.777 81.2198 120.051 79.5414C120.324 77.863 121.913 76.7232 123.599 76.9956C125.285 77.2681 126.43 78.8496 126.156 80.528C125.883 82.2065 124.294 83.3462 122.608 83.0738Z" fill="#867D64"/>
<path d="M123.343 80.9362C123.321 81.0877 123.34 81.2382 123.394 81.3744C123.449 81.5123 123.539 81.6349 123.658 81.7288C123.844 81.8751 124.072 81.9318 124.29 81.9064C124.507 81.881 124.716 81.7728 124.862 81.5884C124.932 81.5004 124.983 81.3998 125.014 81.2923C125.044 81.1849 125.053 81.0716 125.041 80.9599L124.725 80.9971C124.733 81.0682 124.727 81.1392 124.709 81.2052C124.69 81.272 124.657 81.3355 124.612 81.3922C124.52 81.5089 124.389 81.5766 124.252 81.5926C124.115 81.6087 123.972 81.5723 123.855 81.481C123.779 81.4209 123.722 81.3439 123.688 81.2585C123.653 81.1714 123.641 81.0767 123.655 80.9828L123.341 80.9362H123.343Z" fill="#26231E"/>
<path d="M121.173 80.9362C121.151 81.0877 121.17 81.2382 121.224 81.3744C121.279 81.5123 121.369 81.6349 121.488 81.7288C121.673 81.8751 121.902 81.9318 122.12 81.9064C122.337 81.881 122.546 81.7728 122.692 81.5884C122.762 81.5004 122.813 81.3998 122.843 81.2923C122.874 81.1849 122.883 81.0716 122.871 80.9599L122.555 80.9971C122.563 81.0682 122.557 81.1392 122.538 81.2052C122.52 81.272 122.487 81.3355 122.442 81.3922C122.35 81.5089 122.219 81.5766 122.082 81.5926C121.945 81.6087 121.802 81.5723 121.685 81.481C121.609 81.4209 121.552 81.3439 121.518 81.2585C121.483 81.1714 121.471 81.0767 121.485 80.9828L121.171 80.9362H121.173Z" fill="#26231E"/>
<path d="M27 85.2703H200V129.151H27V85.2703Z" fill="#A06223"/>
<path d="M27 142.18H200V186.061H27V142.18Z" fill="#A06223"/>
</g>
<defs>
<clipPath id="clip0_2238_48340">
<rect width="200" height="175" fill="white" transform="matrix(-1 0 0 1 200 0)"/>
</clipPath>
</defs>
</svg>
