<svg width="94" height="220" viewBox="0 0 94 220" fill="none" xmlns="http://www.w3.org/2000/svg">
<g clip-path="url(#clip0_2378_20260)">
<path d="M39.3783 89.0372H44.0197V193.508H39.3783V89.0372Z" fill="#91BE23"/>
<path fill-rule="evenodd" clip-rule="evenodd" d="M-9.1968 41.2528L41.699 92.1058C7.76495 99.2006 -16.3218 66.8652 -9.1968 41.2528Z" fill="#91BE23"/>
<path fill-rule="evenodd" clip-rule="evenodd" d="M-9.19678 41.2529L41.699 92.1058C48.7999 58.2003 16.4371 34.1338 -9.19678 41.2529Z" fill="#A0CD23"/>
<path fill-rule="evenodd" clip-rule="evenodd" d="M92.5948 41.2528L41.699 92.1058C75.633 99.1996 99.7198 66.8652 92.5948 41.2528Z" fill="#91BE23"/>
<path fill-rule="evenodd" clip-rule="evenodd" d="M92.5948 41.2529L41.699 92.1058C34.5992 58.2003 66.9619 34.1338 92.5948 41.2529Z" fill="#A0CD23"/>
<path d="M52.8327 145.667H78.2995V200.147H52.8327V145.667Z" fill="#6A5219"/>
<path d="M15.5259 101.827C15.5259 101.54 15.2926 101.307 15.0057 101.307C14.7187 101.307 14.4854 101.539 14.4854 101.827V108.363C14.4854 108.509 14.498 108.653 14.5232 108.794C14.6283 109.38 14.9552 109.899 15.3956 110.271C15.8339 110.643 16.393 110.877 16.9659 110.896C17.1204 110.902 17.278 110.891 17.4336 110.863C17.7153 110.812 17.9023 110.543 17.8519 110.262C17.8014 109.982 17.5324 109.794 17.2507 109.844C17.1687 109.859 17.0825 109.864 16.9974 109.862C16.6653 109.851 16.3321 109.709 16.0641 109.481C15.7982 109.255 15.6016 108.948 15.5406 108.611C15.527 108.538 15.5207 108.461 15.5207 108.383C15.5228 108.365 15.5238 108.346 15.5238 108.328V101.826L15.5259 101.827Z" fill="#69624F"/>
<path d="M6.68868 101.827C6.68868 101.54 6.45641 101.307 6.16842 101.307C5.88043 101.307 5.64815 101.539 5.64815 101.827V108.363C5.64815 108.509 5.66076 108.653 5.68598 108.794C5.79109 109.38 6.11797 109.899 6.55835 110.271C6.99664 110.643 7.5558 110.877 8.12862 110.896C8.28312 110.902 8.44078 110.891 8.59633 110.863C8.87696 110.812 9.06509 110.543 9.01464 110.262C8.96419 109.982 8.69513 109.794 8.41345 109.844C8.33147 109.859 8.24528 109.864 8.16014 109.862C7.82801 109.851 7.49483 109.709 7.22682 109.481C6.9609 109.255 6.76436 108.948 6.7034 108.611C6.68974 108.538 6.68344 108.461 6.68344 108.383C6.68554 108.365 6.68658 108.346 6.68658 108.328V101.826L6.68868 101.827Z" fill="#69624F"/>
<path d="M0.709313 101.827C0.709313 101.54 0.477037 101.307 0.189051 101.307C-0.0989353 101.307 -0.331224 101.539 -0.331224 101.827V108.363C-0.331224 108.509 -0.3186 108.653 -0.293375 108.794C-0.188271 109.38 0.138597 109.899 0.578984 110.271C1.01727 110.643 1.57643 110.877 2.14925 110.896C2.30375 110.902 2.46141 110.891 2.61696 110.863C2.89759 110.812 3.08572 110.543 3.03527 110.262C2.98482 109.982 2.71576 109.794 2.43408 109.844C2.3521 109.859 2.26591 109.864 2.18077 109.862C1.84864 109.851 1.51546 109.709 1.24745 109.481C0.981533 109.255 0.784989 108.948 0.724029 108.611C0.710365 108.538 0.704065 108.461 0.704065 108.383C0.706167 108.365 0.707209 108.346 0.707209 108.328V101.826L0.709313 101.827Z" fill="#69624F"/>
<path d="M21.5053 101.827C21.5053 101.54 21.273 101.307 20.985 101.307C20.697 101.307 20.4647 101.539 20.4647 101.827V108.363C20.4647 108.509 20.4773 108.653 20.5026 108.794C20.6077 109.38 20.9346 109.899 21.3749 110.271C21.8132 110.643 22.3724 110.877 22.9452 110.896C23.0997 110.902 23.2574 110.891 23.4129 110.863C23.6946 110.812 23.8817 110.543 23.8312 110.262C23.7808 109.982 23.5117 109.794 23.23 109.844C23.148 109.859 23.0619 109.864 22.9767 109.862C22.6446 109.851 22.3114 109.709 22.0434 109.481C21.7775 109.255 21.5809 108.948 21.52 108.611C21.5063 108.538 21.5 108.461 21.5 108.383C21.5021 108.365 21.5032 108.346 21.5032 108.328V101.826L21.5053 101.827Z" fill="#69624F"/>
<path fill-rule="evenodd" clip-rule="evenodd" d="M-9.99662 95.3266V99.1009C-9.99662 105.289 -10.1879 105.493 -4.23059 105.493H24.753C31.0551 105.493 31.3178 105.286 31.3178 98.7113V95.3266C31.3178 69.2732 -9.99662 69.0789 -9.99662 95.3266Z" fill="#F93C28"/>
<path d="M20.9604 99.0728C20.4034 96.715 21.8649 94.3525 24.2247 93.796C26.5845 93.2395 28.949 94.6997 29.506 97.0576C30.063 99.4154 28.6015 101.778 26.2416 102.334C23.8818 102.891 21.5173 101.431 20.9604 99.0728Z" fill="#FFF8DD"/>
<path d="M8.08024 102.455C5.6556 102.455 3.69003 100.491 3.69003 98.0686C3.69003 95.646 5.6556 93.6821 8.08024 93.6821C10.5049 93.6821 12.4705 95.646 12.4705 98.0686C12.4705 100.491 10.5049 102.455 8.08024 102.455Z" fill="#FFF8DD"/>
<path fill-rule="evenodd" clip-rule="evenodd" d="M16.9101 81.6052C14.4853 81.6052 12.5199 83.569 12.5199 85.9917C12.5199 88.4145 14.4853 90.3783 16.9101 90.3783C19.3348 90.3783 21.3003 88.4145 21.3003 85.9917C21.3003 83.569 19.3348 81.6052 16.9101 81.6052Z" fill="#FFF8DD"/>
<path d="M-0.237627 90.3783C-2.66227 90.3783 -4.62784 88.4144 -4.62784 85.9917C-4.62784 83.5691 -2.66227 81.6052 -0.237627 81.6052C2.18702 81.6052 4.15259 83.5691 4.15259 85.9917C4.15259 88.4144 2.18702 90.3783 -0.237627 90.3783Z" fill="#FFF8DD"/>
<path d="M29.1947 103.634C29.1947 103.464 29.057 103.327 28.8867 103.327H28.8825H28.8783C28.7081 103.327 28.5704 103.464 28.5704 103.634V107.484C28.5704 107.496 28.5704 107.506 28.5725 107.517C28.5725 107.563 28.5683 107.608 28.5609 107.652C28.5252 107.852 28.4085 108.034 28.2509 108.167C28.0922 108.301 27.8946 108.386 27.698 108.393C27.6476 108.395 27.5971 108.391 27.5488 108.382C27.3827 108.353 27.2229 108.463 27.1925 108.63C27.163 108.796 27.2734 108.956 27.4405 108.986C27.533 109.003 27.6265 109.009 27.718 109.006C28.0575 108.994 28.3885 108.856 28.6482 108.636C28.7354 108.563 28.8142 108.479 28.8836 108.389C28.953 108.48 29.0328 108.563 29.119 108.636C29.3786 108.857 29.7097 108.996 30.0492 109.006C30.1406 109.009 30.2342 109.003 30.3267 108.986C30.4927 108.957 30.6042 108.797 30.5747 108.63C30.5453 108.464 30.3855 108.353 30.2195 108.382C30.1711 108.391 30.1207 108.394 30.0702 108.393C29.8737 108.386 29.6761 108.301 29.5174 108.167C29.3597 108.034 29.243 107.852 29.2073 107.652C29.2 107.609 29.1958 107.563 29.1958 107.517C29.1968 107.506 29.1979 107.495 29.1979 107.484V103.634H29.1947Z" fill="#867D64"/>
<path d="M28.2664 107.136C26.1808 106.798 24.7645 104.834 25.1031 102.75C25.4416 100.666 27.4068 99.2512 29.4924 99.5894C31.5781 99.9277 32.9944 101.891 32.6558 103.975C32.3173 106.059 30.3521 107.474 28.2664 107.136Z" fill="#867D64"/>
<path d="M29.1758 104.482C29.1485 104.67 29.1716 104.857 29.2389 105.026C29.3072 105.197 29.4186 105.349 29.5657 105.466C29.7949 105.648 30.0776 105.718 30.3467 105.686C30.6157 105.655 30.8743 105.521 31.0551 105.292C31.1412 105.182 31.2043 105.057 31.2421 104.924C31.28 104.791 31.2915 104.65 31.2758 104.511L30.8848 104.558C30.8953 104.646 30.8879 104.734 30.8648 104.816C30.8417 104.899 30.8007 104.978 30.7461 105.048C30.6315 105.193 30.4696 105.277 30.3004 105.297C30.1312 105.317 29.9536 105.272 29.8096 105.158C29.715 105.084 29.6446 104.988 29.6025 104.882C29.5594 104.774 29.5447 104.656 29.5615 104.54L29.1737 104.482H29.1758Z" fill="#26231E"/>
<path d="M26.4914 104.482C26.4641 104.67 26.4872 104.857 26.5545 105.026C26.6228 105.197 26.7342 105.349 26.8814 105.466C27.1105 105.648 27.3932 105.718 27.6623 105.686C27.9314 105.655 28.1899 105.521 28.3707 105.292C28.4569 105.182 28.5199 105.057 28.5578 104.924C28.5956 104.791 28.6072 104.65 28.5914 104.511L28.2004 104.558C28.2109 104.646 28.2036 104.734 28.1805 104.816C28.1573 104.899 28.1163 104.978 28.0617 105.048C27.9471 105.193 27.7853 105.277 27.616 105.297C27.4468 105.317 27.2692 105.272 27.1252 105.158C27.0306 105.084 26.9602 104.988 26.9182 104.882C26.8751 104.774 26.8603 104.656 26.8772 104.54L26.4893 104.482H26.4914Z" fill="#26231E"/>
<path d="M-120 109.863H94V164.343H-120V109.863Z" fill="#A06223"/>
<path d="M-120 180.52H94V235H-120V180.52Z" fill="#A06223"/>
</g>
<defs>
<clipPath id="clip0_2378_20260">
<rect width="94" height="220" fill="white" transform="matrix(-1 0 0 1 94 0)"/>
</clipPath>
</defs>
</svg>
