<svg width="75" height="220" viewBox="0 0 75 220" fill="none" xmlns="http://www.w3.org/2000/svg">
<g clip-path="url(#clip0_2238_50226)">
<path fill-rule="evenodd" clip-rule="evenodd" d="M0.854736 216.915C0.854736 221.424 4.56192 225.079 9.13531 225.079C4.56192 225.079 0.854736 228.734 0.854736 233.243C0.854736 237.751 4.56192 241.406 9.13531 241.406C11.0646 241.406 12.8397 240.756 14.2485 239.664L14.2595 239.696L14.484 239.474C14.8338 239.181 15.1602 238.861 15.4562 238.516L29.0855 225.079L15.4562 211.642C15.1602 211.297 14.8338 210.976 14.484 210.684L14.2595 210.462L14.2485 210.494C12.8411 209.402 11.0646 208.752 9.13531 208.752C4.56192 208.752 0.854736 212.407 0.854736 216.915Z" fill="#ABDB4C"/>
<path fill-rule="evenodd" clip-rule="evenodd" d="M0.854736 216.915C0.854736 221.424 4.56192 225.079 9.13531 225.079H29.0855L15.4562 211.642C15.1602 211.297 14.8338 210.976 14.484 210.684L14.2595 210.462L14.2485 210.494C12.8411 209.402 11.0646 208.752 9.13531 208.752C4.56192 208.752 0.854736 212.407 0.854736 216.915Z" fill="#57B5A1"/>
<path fill-rule="evenodd" clip-rule="evenodd" d="M111.119 201.358C111.119 214.459 100.346 225.079 87.0564 225.079C100.346 225.079 111.119 235.7 111.119 248.8C111.119 261.9 100.346 272.521 87.0564 272.521C81.4502 272.521 76.2901 270.63 72.2001 267.461L72.1684 267.552L71.5157 266.907C70.498 266.058 69.5519 265.126 68.6899 264.122L29.0869 225.078L68.6899 186.034C69.5519 185.031 70.498 184.099 71.5157 183.248L72.1684 182.605L72.2001 182.696C76.2915 179.525 81.4502 177.634 87.0564 177.634C100.346 177.634 111.119 188.255 111.119 201.357V201.358Z" fill="#91BE23"/>
<path fill-rule="evenodd" clip-rule="evenodd" d="M111.119 201.358C111.119 214.459 100.345 225.079 87.0563 225.079H29.0854L68.6884 186.035C69.5505 185.032 70.4966 184.101 71.5142 183.249L72.167 182.606L72.1987 182.697C76.2901 179.527 81.4487 177.635 87.055 177.635C100.344 177.635 111.117 188.257 111.117 201.358H111.119Z" fill="#57B5A1"/>
<path fill-rule="evenodd" clip-rule="evenodd" d="M43.2024 177.637C35.4065 177.637 29.087 183.867 29.087 191.553C29.087 183.867 22.7674 177.637 14.9716 177.637C7.17576 177.637 0.856201 183.867 0.856201 191.553C0.856201 194.795 1.9813 197.779 3.86794 200.146L3.81423 200.165L4.19707 200.542C4.70247 201.13 5.25745 201.677 5.85511 202.177L29.0884 225.082L52.3216 202.177C52.9193 201.678 53.4729 201.131 53.9796 200.542L54.3625 200.165L54.3088 200.146C56.1954 197.779 57.3205 194.796 57.3205 191.553C57.3205 183.867 51.0009 177.637 43.2051 177.637H43.2024Z" fill="#ABDB4C"/>
<path fill-rule="evenodd" clip-rule="evenodd" d="M43.2023 177.637C35.4065 177.637 29.0869 183.867 29.0869 191.553V225.08L52.3202 202.175C52.9178 201.677 53.4714 201.13 53.9782 200.541L54.361 200.163L54.3073 200.144C56.194 197.778 57.3191 194.795 57.3191 191.552C57.3191 183.866 50.9995 177.635 43.2037 177.635L43.2023 177.637Z" fill="#91BE23"/>
<path fill-rule="evenodd" clip-rule="evenodd" d="M62.0508 177.637C65.5197 177.637 68.3318 180.409 68.3318 183.829C68.3318 187.249 65.5197 190.021 62.0508 190.021C58.5818 190.021 55.7698 187.249 55.7698 183.829C55.7698 180.409 58.5818 177.637 62.0508 177.637Z" fill="#996633"/>
<path fill-rule="evenodd" clip-rule="evenodd" d="M0.854736 216.915C0.854736 221.424 4.56192 225.079 9.13531 225.079H29.0855L15.4562 211.642C15.1602 211.297 14.8338 210.976 14.484 210.684L14.2595 210.462L14.2485 210.494C12.8411 209.402 11.0646 208.752 9.13531 208.752C4.56192 208.752 0.854736 212.407 0.854736 216.915Z" fill="#91BE23"/>
<path fill-rule="evenodd" clip-rule="evenodd" d="M111.119 201.358C111.119 214.459 100.345 225.079 87.0563 225.079H29.0854L68.6884 186.035C69.5505 185.032 70.4966 184.101 71.5142 183.249L72.167 182.606L72.1987 182.697C76.2901 179.527 81.4487 177.635 87.055 177.635C100.344 177.635 111.117 188.257 111.117 201.358H111.119Z" fill="#ABDB4C"/>
<path fill-rule="evenodd" clip-rule="evenodd" d="M41.1106 94.6101C41.1106 101.161 35.7247 106.471 29.0802 106.471C35.7247 106.471 41.1106 111.781 41.1106 118.331C41.1106 124.882 35.7247 130.192 29.0802 130.192C26.2764 130.192 23.697 129.247 21.652 127.661L21.6355 127.706L21.3091 127.384C20.7996 126.959 20.3272 126.494 19.8962 125.991L0.0947266 106.469L19.8962 86.9474C20.3272 86.4451 20.7996 85.9794 21.3091 85.5545L21.6355 85.2327L21.652 85.2775C23.697 83.6931 26.2764 82.7468 29.0802 82.7468C35.7247 82.7468 41.1106 88.0567 41.1106 94.6074V94.6101Z" fill="#91BE23"/>
<path fill-rule="evenodd" clip-rule="evenodd" d="M41.1106 94.6101C41.1106 101.161 35.7247 106.471 29.0802 106.471H0.0947266L19.8962 86.9488C20.3272 86.4465 20.7996 85.9808 21.3091 85.5558L21.6355 85.2341L21.652 85.2789C23.697 83.6945 26.2764 82.7482 29.0802 82.7482C35.7247 82.7482 41.1106 88.058 41.1106 94.6087V94.6101Z" fill="#57B5A1"/>
<path fill-rule="evenodd" clip-rule="evenodd" d="M41.1106 142.054C41.1106 148.604 35.7247 153.914 29.0802 153.914C35.7247 153.914 41.1106 159.224 41.1106 165.775C41.1106 172.326 35.7247 177.635 29.0802 177.635C26.2764 177.635 23.697 176.69 21.652 175.105L21.6355 175.15L21.3091 174.828C20.7996 174.403 20.3272 173.937 19.8962 173.435L0.0947266 153.913L19.8962 134.391C20.3272 133.889 20.7996 133.423 21.3091 132.998L21.6355 132.676L21.652 132.721C23.697 131.137 26.2764 130.19 29.0802 130.19C35.7247 130.19 41.1106 135.5 41.1106 142.051V142.054Z" fill="#91BE23"/>
<path fill-rule="evenodd" clip-rule="evenodd" d="M41.1106 142.054C41.1106 148.604 35.7247 153.914 29.0802 153.914H0.0947266L19.8962 134.392C20.3272 133.89 20.7996 133.424 21.3091 132.999L21.6355 132.678L21.652 132.722C23.697 131.138 26.2764 130.192 29.0802 130.192C35.7247 130.192 41.1106 135.502 41.1106 142.052V142.054Z" fill="#57B5A1"/>
<path fill-rule="evenodd" clip-rule="evenodd" d="M38.9758 153.914C38.9758 140.813 49.749 130.193 63.0381 130.193C49.749 130.193 38.9758 119.572 38.9758 106.472C38.9758 93.3719 49.749 82.7495 63.0381 82.7495C68.6443 82.7495 73.8043 84.6407 77.8944 87.8095L77.926 87.7186L78.5788 88.3621C79.5965 89.212 80.5412 90.1434 81.4046 91.148L121.008 130.192L81.4046 169.236C80.5425 170.239 79.5965 171.17 78.5788 172.021L77.926 172.665L77.8944 172.574C73.803 175.744 68.6443 177.635 63.0381 177.635C49.749 177.635 38.9758 167.014 38.9758 153.913V153.914Z" fill="#91BE23"/>
<path fill-rule="evenodd" clip-rule="evenodd" d="M38.9758 153.914C38.9758 140.813 49.749 130.193 63.0381 130.193H121.009L81.406 169.237C80.5439 170.24 79.5979 171.172 78.5802 172.023L77.9274 172.666L77.8957 172.575C73.8044 175.746 68.6457 177.637 63.0395 177.637C49.7504 177.637 38.9772 167.016 38.9772 153.914H38.9758Z" fill="#57B5A1"/>
<path fill-rule="evenodd" clip-rule="evenodd" d="M0.646729 123.698C0.646729 127.285 3.58136 130.192 7.20316 130.192C3.58274 130.192 0.646729 133.1 0.646729 136.686C0.646729 140.271 3.58136 143.179 7.20316 143.179C8.73038 143.179 10.1364 142.662 11.2519 141.795L11.2601 141.819L11.4378 141.643C11.7146 141.41 11.9721 141.155 12.2076 140.879L22.9986 130.191L12.2076 119.502C11.9721 119.227 11.7146 118.972 11.4378 118.739L11.2601 118.562L11.2519 118.587C10.1378 117.719 8.73175 117.2 7.20316 117.2C3.58274 117.2 0.646729 120.109 0.646729 123.694V123.698Z" fill="#91BE23"/>
<path fill-rule="evenodd" clip-rule="evenodd" d="M0.646729 123.698C0.646729 127.285 3.58136 130.192 7.20316 130.192H22.9986L12.2076 119.503C11.9721 119.229 11.7146 118.973 11.4378 118.74L11.2601 118.563L11.2519 118.588C10.1378 117.72 8.73175 117.202 7.20316 117.202C3.58274 117.202 0.646729 120.11 0.646729 123.695V123.698Z" fill="#57B5A1"/>
<path fill-rule="evenodd" clip-rule="evenodd" d="M0.646729 89.2432C0.646729 85.6563 3.58136 82.7495 7.20316 82.7495H22.9986L12.2076 93.4384C11.9721 93.7127 11.7146 93.9679 11.4378 94.2014L11.2601 94.3779L11.2519 94.3535C10.1378 95.221 8.73175 95.7383 7.20316 95.7383C3.58274 95.7383 0.646729 92.8315 0.646729 89.2446V89.2432Z" fill="#996633"/>
<path fill-rule="evenodd" clip-rule="evenodd" d="M0.646729 171.142C0.646729 174.729 3.58136 177.636 7.20316 177.636H22.9986L12.2076 166.947C11.9721 166.672 11.7146 166.417 11.4378 166.184L11.2601 166.007L11.2519 166.032C10.1378 165.164 8.73175 164.647 7.20316 164.647C3.58274 164.647 0.646729 167.555 0.646729 171.14V171.142Z" fill="#996633"/>
<path d="M50.3673 130.329C50.446 126.909 47.6984 124.075 44.2304 123.997C40.7624 123.92 37.8872 126.629 37.8085 130.048C37.7298 133.467 40.4774 136.301 43.9454 136.379C47.4134 136.456 50.2886 133.748 50.3673 130.329Z" fill="#996633"/>
<path fill-rule="evenodd" clip-rule="evenodd" d="M41.1106 94.6101C41.1106 101.161 35.7247 106.471 29.0802 106.471H0.0947266L19.8962 86.9488C20.3272 86.4465 20.7996 85.9808 21.3091 85.5558L21.6355 85.2341L21.652 85.2789C23.697 83.6945 26.2764 82.7482 29.0802 82.7482C35.7247 82.7482 41.1106 88.058 41.1106 94.6087V94.6101Z" fill="#91BE23"/>
<path fill-rule="evenodd" clip-rule="evenodd" d="M41.1106 142.054C41.1106 148.604 35.7247 153.914 29.0802 153.914H0.0947266L19.8962 134.392C20.3272 133.89 20.7996 133.424 21.3091 132.999L21.6355 132.678L21.652 132.722C23.697 131.138 26.2764 130.192 29.0802 130.192C35.7247 130.192 41.1106 135.502 41.1106 142.052V142.054Z" fill="#ABDB4C"/>
<path fill-rule="evenodd" clip-rule="evenodd" d="M38.9758 153.914C38.9758 140.813 49.749 130.193 63.0381 130.193H121.009L81.406 169.237C80.5439 170.24 79.5979 171.172 78.5802 172.023L77.9274 172.666L77.8957 172.575C73.8044 175.746 68.6457 177.637 63.0395 177.637C49.7504 177.637 38.9772 167.016 38.9772 153.914H38.9758Z" fill="#91BE23"/>
<path fill-rule="evenodd" clip-rule="evenodd" d="M0.646729 123.698C0.646729 127.285 3.58136 130.192 7.20316 130.192H22.9986L12.2076 119.503C11.9721 119.229 11.7146 118.973 11.4378 118.74L11.2601 118.563L11.2519 118.588C10.1378 117.72 8.73175 117.202 7.20316 117.202C3.58274 117.202 0.646729 120.11 0.646729 123.695V123.698Z" fill="#91BE23"/>
<path fill-rule="evenodd" clip-rule="evenodd" d="M14.9702 81.2494C22.766 81.2494 29.0856 75.0191 29.0856 67.3334C29.0856 75.0191 35.4051 81.2494 43.201 81.2494C50.9968 81.2494 57.3163 75.0191 57.3163 67.3334C57.3163 64.0899 56.1912 61.1071 54.3046 58.7407L54.3583 58.7217L53.9755 58.3443C53.4701 57.755 52.9151 57.2092 52.3174 56.7096L29.0842 33.8044L5.85096 56.7096C5.2533 57.2079 4.69969 57.755 4.19291 58.3443L3.81008 58.7217L3.86379 58.7407C1.97715 61.1071 0.852051 64.0899 0.852051 67.3334C0.852051 75.0191 7.17161 81.2494 14.9674 81.2494H14.9702Z" fill="#57B5A1"/>
<path fill-rule="evenodd" clip-rule="evenodd" d="M14.97 81.2494C22.7659 81.2494 29.0854 75.0191 29.0854 67.3333V33.8058L5.85219 56.711C5.25452 57.2092 4.70092 57.7564 4.19414 58.3456L3.81131 58.723L3.86501 58.742C1.97837 61.1084 0.853271 64.0912 0.853271 67.3347C0.853271 75.0204 7.17283 81.2508 14.9687 81.2508L14.97 81.2494Z" fill="#57B5A1"/>
<path fill-rule="evenodd" clip-rule="evenodd" d="M0.854736 25.6422C0.854736 30.151 4.56192 33.8058 9.13531 33.8058C4.56192 33.8058 0.854736 37.4606 0.854736 41.9695C0.854736 46.4783 4.56192 50.1331 9.13531 50.1331C11.0646 50.1331 12.8397 49.4828 14.2485 48.3912L14.2595 48.4224L14.484 48.2011C14.8338 47.9079 15.1602 47.5875 15.4562 47.2426L29.0855 33.8058L15.4562 20.369C15.1602 20.0241 14.8338 19.7024 14.484 19.4105L14.2595 19.1892L14.2485 19.2204C12.8411 18.1288 11.0646 17.4785 9.13531 17.4785C4.56192 17.4785 0.854736 21.1334 0.854736 25.6422Z" fill="#ABDB4C"/>
<path fill-rule="evenodd" clip-rule="evenodd" d="M0.854736 25.6422C0.854736 30.151 4.56192 33.8058 9.13531 33.8058H29.0855L15.4562 20.369C15.1602 20.0241 14.8338 19.7024 14.484 19.4105L14.2595 19.1892L14.2485 19.2204C12.8411 18.1288 11.0646 17.4785 9.13531 17.4785C4.56192 17.4785 0.854736 21.1334 0.854736 25.6422Z" fill="#57B5A1"/>
<path fill-rule="evenodd" clip-rule="evenodd" d="M111.119 10.0845C111.119 23.186 100.346 33.8057 87.0579 33.8057C100.347 33.8057 111.119 44.4267 111.119 57.5268C111.119 70.6269 100.346 81.2493 87.0579 81.2493C81.4503 81.2493 76.2916 79.3581 72.2016 76.1893L72.1699 76.2803L71.5172 75.6367C70.4995 74.7868 69.5534 73.8555 68.6913 72.8508L29.0884 33.807L68.6913 -5.23673C69.5534 -6.24005 70.4995 -7.17141 71.5172 -8.02266L72.1699 -8.66619L72.2016 -8.57523C76.293 -11.7454 81.4516 -13.6353 87.0579 -13.6353C100.347 -13.6353 111.119 -3.01423 111.119 10.0859V10.0845Z" fill="#91BE23"/>
<path fill-rule="evenodd" clip-rule="evenodd" d="M111.119 10.0845C111.119 23.186 100.346 33.8057 87.0578 33.8057H29.0869L68.6899 -5.23807C69.5519 -6.24139 70.498 -7.17275 71.5157 -8.02401L72.1684 -8.66754L72.2001 -8.57657C76.2915 -11.7467 81.4502 -13.6366 87.0564 -13.6366C100.346 -13.6366 111.117 -3.01558 111.117 10.0845H111.119Z" fill="#57B5A1"/>
<path fill-rule="evenodd" clip-rule="evenodd" d="M43.2024 -13.6379C35.4065 -13.6379 29.087 -7.40761 29.087 0.278136C29.087 -7.40761 22.7674 -13.6379 14.9716 -13.6379C7.17576 -13.6379 0.856201 -7.40761 0.856201 0.278136C0.856201 3.52024 1.9813 6.50439 3.86794 8.8708L3.81423 8.88981L4.19707 9.26724C4.70247 9.85647 5.25745 10.4023 5.85511 10.9019L29.0884 33.807L52.3216 10.9019C52.9193 10.4036 53.4729 9.85647 53.9796 9.26724L54.3625 8.88981L54.3088 8.8708C56.1954 6.50439 57.3205 3.5216 57.3205 0.278136C57.3205 -7.40761 51.0009 -13.6379 43.2051 -13.6379H43.2024Z" fill="#ABDB4C"/>
<path fill-rule="evenodd" clip-rule="evenodd" d="M43.2023 -13.6379C35.4065 -13.6379 29.0869 -7.40759 29.0869 0.278152V33.8057L52.3202 10.9005C52.9178 10.4023 53.4714 9.85513 53.9782 9.2659L54.361 8.88847L54.3073 8.86946C56.194 6.50305 57.3191 3.52026 57.3191 0.276793C57.3191 -7.40895 50.9995 -13.6393 43.2037 -13.6393L43.2023 -13.6379Z" fill="#91BE23"/>
<path d="M64.7147 -1.84524C67.856 -3.29597 69.2097 -6.98261 67.7381 -10.0796C66.2666 -13.1766 62.5272 -14.5111 59.3859 -13.0604C56.2445 -11.6096 54.8909 -7.923 56.3624 -4.82603C57.8339 -1.72906 61.5733 -0.394512 64.7147 -1.84524Z" fill="#996633"/>
<path fill-rule="evenodd" clip-rule="evenodd" d="M61.9242 69.1864C65.3036 69.1864 68.0427 71.8868 68.0427 75.2185C68.0427 78.5502 65.3036 81.2506 61.9242 81.2506C58.5447 81.2506 55.8057 78.5502 55.8057 75.2185C55.8057 71.8868 58.5447 69.1864 61.9242 69.1864Z" fill="#996633"/>
<path fill-rule="evenodd" clip-rule="evenodd" d="M14.9702 81.2494C22.766 81.2494 29.0856 75.0191 29.0856 67.3334C29.0856 75.0191 35.4051 81.2494 43.201 81.2494C50.9968 81.2494 57.3163 75.0191 57.3163 67.3334C57.3163 64.0899 56.1912 61.1071 54.3046 58.7407L54.3583 58.7217L53.9755 58.3443C53.4701 57.755 52.9151 57.2092 52.3174 56.7096L29.0842 33.8044L5.85096 56.7096C5.2533 57.2079 4.69969 57.755 4.19291 58.3443L3.81008 58.7217L3.86379 58.7407C1.97715 61.1071 0.852051 64.0899 0.852051 67.3334C0.852051 75.0191 7.17161 81.2494 14.9674 81.2494H14.9702Z" fill="#91BE23"/>
<path fill-rule="evenodd" clip-rule="evenodd" d="M14.21 81.9988C22.0059 81.9988 28.3254 75.7685 28.3254 68.0827V34.5552L5.09217 57.4604C4.49451 57.9586 3.94091 58.5058 3.43413 59.095L3.05129 59.4724L3.105 59.4901C1.21836 61.8565 0.0932617 64.8393 0.0932617 68.0827C0.0932617 75.7685 6.41282 81.9988 14.2086 81.9988H14.21Z" fill="#ABDB4C"/>
<path fill-rule="evenodd" clip-rule="evenodd" d="M0.854736 25.6422C0.854736 30.151 4.56192 33.8058 9.13531 33.8058H29.0855L15.4562 20.369C15.1602 20.0241 14.8338 19.7024 14.484 19.4105L14.2595 19.1892L14.2485 19.2204C12.8411 18.1288 11.0646 17.4785 9.13531 17.4785C4.56192 17.4785 0.854736 21.1334 0.854736 25.6422Z" fill="#91BE23"/>
<path fill-rule="evenodd" clip-rule="evenodd" d="M111.119 10.0845C111.119 23.186 100.346 33.8057 87.0578 33.8057H29.0869L68.6899 -5.23807C69.5519 -6.24139 70.498 -7.17275 71.5157 -8.02401L72.1684 -8.66754L72.2001 -8.57657C76.2915 -11.7467 81.4502 -13.6366 87.0564 -13.6366C100.346 -13.6366 111.117 -3.01558 111.117 10.0845H111.119Z" fill="#ABDB4C"/>
</g>
<defs>
<clipPath id="clip0_2238_50226">
<rect width="75" height="220" fill="white"/>
</clipPath>
</defs>
</svg>
