<svg width="1280" height="97" viewBox="0 0 1280 97" fill="none" xmlns="http://www.w3.org/2000/svg">
<g clip-path="url(#clip0_4502_9433)">
<g clip-path="url(#clip1_4502_9433)">
<path d="M820.342 74.1267C820.342 74.1267 803.729 63.3921 798.548 58.3667C798.548 58.3667 795.633 55.5001 794.434 56.8315C793.234 58.1628 795.489 60.0698 795.489 60.0698C795.489 60.0698 792.946 57.3472 791.627 58.8824C790.307 60.4176 793.21 62.1927 793.21 62.1927C793.21 62.1927 790.655 59.662 789.672 61.581C788.688 63.5001 797.408 72.1716 813.817 85.113" fill="white"/>
<path d="M813.817 85.7249C813.685 85.7249 813.553 85.677 813.433 85.593C801.486 76.1658 787.561 64.3039 789.12 61.2814C789.504 60.5498 790.056 60.3099 790.451 60.2499C790.547 60.2379 790.631 60.2259 790.727 60.2259C790.715 60.166 790.703 60.094 790.691 60.034C790.607 59.4703 790.763 58.9186 791.159 58.4628C791.531 58.0311 792.035 57.7912 792.599 57.7792C792.898 57.7792 793.186 57.8272 793.486 57.9231C793.486 57.8991 793.486 57.8631 793.486 57.8392C793.45 57.2994 793.63 56.8077 793.99 56.3999C794.302 56.0521 794.734 55.8602 795.213 55.8482C796.821 55.8122 798.776 57.6952 799.004 57.9111C804.077 62.8286 820.534 73.4792 820.702 73.5871C820.99 73.767 821.073 74.1508 820.882 74.4387C820.702 74.7265 820.318 74.8105 820.03 74.6186C819.346 74.1748 803.298 63.8001 798.14 58.7867C797.456 58.115 796.089 57.0715 795.285 57.0715H795.261C795.105 57.0715 794.997 57.1195 794.913 57.2155C794.77 57.3714 794.71 57.5393 794.722 57.7432C794.758 58.235 795.177 58.8107 795.537 59.1945C795.765 59.3984 795.921 59.5663 795.969 59.6142C796.197 59.8541 796.185 60.2259 795.969 60.4658C795.741 60.7057 795.369 60.7177 795.117 60.5138C795.069 60.4658 794.889 60.3099 794.662 60.07C794.074 59.5543 793.246 58.9906 792.646 59.0026C792.431 59.0026 792.275 59.0865 792.131 59.2544C791.963 59.4463 791.915 59.6142 791.939 59.8301C791.987 60.166 792.263 60.5258 792.587 60.8616C793.162 61.2334 793.582 61.6412 793.678 61.7252C793.906 61.9411 793.918 62.3009 793.726 62.5408C793.534 62.7926 793.186 62.8526 792.922 62.6847C792.826 62.6247 792.323 62.3129 791.819 61.8331C791.423 61.5932 790.991 61.4013 790.679 61.4613C790.559 61.4853 790.404 61.5453 790.248 61.8331C789.912 62.6367 793.546 68.2858 814.225 84.5975C814.488 84.8134 814.536 85.1972 814.333 85.4611C814.213 85.617 814.033 85.701 813.841 85.701L813.817 85.7249Z" fill="black"/>
<path d="M906.978 79.8839C908.729 78.7325 908.153 76.8255 908.141 76.8015C907.829 75.854 907.29 75.1823 906.558 74.8225C906.054 74.5706 905.551 74.5106 905.119 74.5106C906.906 73.1194 906.03 71.1883 906.018 71.1644C905.575 70.2648 904.951 69.6771 904.171 69.4132C903.667 69.2453 903.188 69.2453 902.78 69.2933C904.243 67.7821 903.26 66.031 903.248 66.019C902.72 65.1674 902.06 64.6277 901.256 64.4358C900.681 64.2919 900.129 64.3638 899.697 64.4838C901.089 62.6847 899.745 61.0415 899.733 61.0175C899.073 60.2619 898.33 59.8421 897.514 59.7941C897.01 59.7582 896.567 59.8661 896.183 60.01C897.37 58.031 895.811 56.5438 895.787 56.5198C895.031 55.8482 894.24 55.5363 893.424 55.5963C892.872 55.6323 892.393 55.8242 892.033 56.0401C892.92 53.9891 891.241 52.7297 891.217 52.7058C890.401 52.13 889.574 51.9022 888.77 52.0341C888.242 52.13 887.799 52.3579 887.463 52.6098C888.015 50.5469 886.263 49.5154 886.239 49.5034C884.752 48.6878 883.625 49.0236 882.893 49.5394C883.397 47.7283 881.933 46.6368 881.909 46.6129C881.082 46.0372 880.266 45.8213 879.45 45.9652C879.247 46.0012 879.067 46.0611 878.887 46.1331C879.63 44.5859 878.575 43.2786 878.563 43.2546C877.903 42.499 877.16 42.0792 876.344 42.0192C876.116 42.0072 875.912 42.0192 875.708 42.0552C876.812 40.7359 876.104 39.2006 876.092 39.1766C875.636 38.2771 875.024 37.6894 874.245 37.4375C873.837 37.3056 873.441 37.2816 873.093 37.3056C874.629 36.0342 873.945 34.2472 873.945 34.2232C873.561 33.2996 872.973 32.676 872.218 32.3641C871.774 32.1842 871.342 32.1362 870.958 32.1482C872.482 30.8049 871.702 29.0178 871.69 28.9938C871.258 28.0823 870.646 27.4946 869.879 27.2187C869.387 27.0508 868.907 27.0388 868.511 27.0748C870.071 25.5516 869.063 23.7525 869.051 23.7285C868.535 22.865 867.864 22.3372 867.072 22.1453C866.592 22.0254 866.125 22.0494 865.741 22.1333C867.156 20.4902 866.005 18.799 865.993 18.775C865.405 17.9595 864.697 17.4797 863.894 17.3598C863.366 17.2758 862.874 17.3598 862.478 17.4797C863.75 15.6806 862.406 14.0974 862.382 14.0734C861.711 13.3298 860.955 12.934 860.139 12.886C859.612 12.8621 859.156 12.982 858.772 13.1499C859.743 11.2069 858.208 9.85159 858.184 9.8276C857.417 9.17993 856.613 8.89208 855.797 8.96404C855.234 9.01202 854.766 9.22791 854.394 9.46778C855.09 7.33287 853.302 6.22943 853.278 6.21744C851.623 5.25793 850.304 5.76167 849.488 6.4933C849.752 4.3344 847.845 3.56679 847.821 3.5548C845.842 2.83516 844.678 3.78268 844.103 4.55029C843.983 2.28344 841.884 1.91163 841.86 1.91163C839.761 1.61179 838.825 2.78719 838.417 3.65075C837.793 1.49185 835.682 1.5878 835.658 1.5878C833.907 1.71973 833.152 2.66725 832.84 3.51881C832.72 3.20697 832.528 2.89513 832.24 2.65525C831.808 2.30743 831.221 2.18749 830.501 2.31942C830.477 2.31942 828.726 2.7512 828.51 4.41836C828.282 4.1425 827.982 3.89062 827.598 3.7347C826.974 3.49483 826.243 3.5548 825.427 3.9386C825.403 3.9386 823.616 4.82615 823.976 6.8891C823.244 6.32538 821.925 5.77367 820.246 6.8891C820.222 6.90109 818.494 8.12447 819.334 10.2114C818.53 9.80361 817.031 9.40781 815.556 10.955C815.544 10.967 814.116 12.5502 815.412 14.4093C814.476 14.1454 812.989 14.1334 811.873 15.9205C811.873 15.9445 810.818 17.7196 812.377 19.2668C811.406 19.1828 809.978 19.4467 809.199 21.3657C809.199 21.3897 808.455 23.3567 810.314 24.6161C809.414 24.712 807.999 25.1798 807.555 27.2307C807.555 27.2547 807.183 29.2697 809.139 30.2052C808.239 30.4451 807.004 31.1407 806.848 33.1557C806.848 33.1797 806.764 35.2546 808.875 35.8903C807.999 36.2142 806.812 37.0417 806.896 39.0807C806.896 39.1047 807.04 41.1556 809.163 41.5754C808.335 41.9952 807.291 42.9187 807.519 44.8857C807.519 44.9097 807.831 46.9487 810.002 47.1766C809.187 47.6683 808.227 48.6878 808.659 50.6548C808.659 50.6788 809.139 52.5618 811.178 52.6938C810.41 53.2455 809.582 54.3009 810.098 56.172C810.098 56.196 810.662 58.019 812.653 58.079C811.885 58.5948 811.082 59.5902 811.442 61.4013C811.442 61.4253 811.825 63.0685 813.517 63.4283C812.797 63.8361 812.077 64.6157 812.005 66.1389C812.005 66.1629 811.981 67.8301 813.505 68.5977C812.713 68.8255 811.861 69.4252 811.43 70.8405C811.43 70.8645 810.938 72.6156 812.449 73.743C811.549 73.791 810.47 74.2228 809.786 75.782C809.786 75.806 809.031 77.689 810.734 78.9844C809.762 79.0084 808.407 79.4281 807.831 81.3712C807.831 81.3951 807.279 83.4221 809.235 84.4896C808.335 84.6095 806.956 85.1372 806.572 87.1762C806.572 87.2002 806.248 89.3351 808.407 90.1627C807.495 90.4385 806.332 91.1822 806.236 93.1492C806.236 93.1731 806.188 95.2961 808.383 95.8598C807.507 96.2316 806.296 97.1311 806.536 99.254C806.536 99.278 806.824 101.257 808.911 101.557C808.095 102.037 807.1 103.044 807.507 105.023C807.507 105.047 807.999 107.11 810.266 107.11C809.51 107.686 808.599 108.825 809.295 110.78C809.295 110.804 810.026 112.651 812.113 112.483C811.394 113.131 810.638 114.33 811.466 116.189C811.466 116.213 812.413 118.156 814.668 117.617C814.068 118.336 813.421 119.656 814.524 121.407C814.536 121.431 815.676 123.122 817.715 122.438C817.115 123.458 817.007 124.813 818.182 126.168C818.194 126.192 819.658 127.776 821.649 126.612C821.289 127.5 821.145 128.879 822.644 130.186C822.668 130.198 824.336 131.566 826.135 130.15C826.015 130.582 825.955 131.134 826.099 131.722C826.291 132.513 826.831 133.185 827.694 133.7C827.718 133.7 829.469 134.696 830.969 133.221C830.921 133.617 830.945 134.084 831.113 134.552C831.388 135.308 832 135.895 832.924 136.303C832.972 136.327 834.003 136.759 835.083 136.303C835.527 136.123 835.898 135.811 836.222 135.404C836.222 135.823 836.27 136.303 836.51 136.771C836.87 137.491 837.53 137.994 838.501 138.294C838.513 138.294 839.377 138.534 840.288 138.222C840.768 138.054 841.26 137.73 841.656 137.143C841.704 137.551 841.824 138.018 842.1 138.45C842.531 139.122 843.251 139.554 844.235 139.745C844.247 139.745 844.894 139.829 845.626 139.578C846.202 139.386 846.813 138.966 847.221 138.162C847.305 138.558 847.461 138.99 847.773 139.386C848.277 140.009 849.032 140.369 850.04 140.453C850.052 140.453 850.58 140.489 851.203 140.273C851.827 140.057 852.547 139.589 852.907 138.594C853.027 138.978 853.23 139.386 853.566 139.745C854.118 140.309 854.91 140.573 855.917 140.537C855.917 140.537 856.265 140.513 856.697 140.357C857.369 140.129 858.268 139.601 858.604 138.414C858.76 138.762 858.988 139.134 859.348 139.434C859.947 139.949 860.763 140.141 861.759 140.009C861.759 140.009 861.962 139.973 862.238 139.877C862.898 139.649 864.014 139.062 864.253 137.623C864.433 137.934 864.685 138.258 865.045 138.51C865.693 138.966 866.52 139.074 867.504 138.858C867.504 138.858 867.552 138.858 867.66 138.81C868.152 138.642 869.627 137.994 869.759 136.267C869.975 136.567 870.263 136.879 870.67 137.095C871.366 137.479 872.194 137.503 873.153 137.179C873.177 137.179 875.276 136.399 875.12 134.24C875.768 134.996 876.956 135.811 878.839 135.176C878.911 135.152 880.482 134.552 881.07 133.161C881.262 132.705 881.31 132.213 881.25 131.698C882.341 132.753 883.625 132.537 884.296 132.297C884.572 132.201 884.752 132.105 884.764 132.093C885.628 131.578 886.155 130.93 886.311 130.15C886.407 129.695 886.359 129.263 886.263 128.891C887.259 129.623 888.29 129.479 888.95 129.251C889.382 129.095 889.67 128.915 889.682 128.903C890.497 128.315 890.953 127.62 891.037 126.84C891.097 126.348 891.001 125.904 890.857 125.521C891.757 126.084 892.608 126.012 893.244 125.797C893.88 125.581 894.264 125.233 894.276 125.221C895.019 124.537 895.391 123.782 895.403 122.99C895.403 122.486 895.271 122.042 895.091 121.683C895.919 122.066 896.651 122.018 897.226 121.815C897.958 121.563 898.426 121.095 898.438 121.083C899.097 120.339 899.397 119.56 899.325 118.756C899.277 118.24 899.097 117.809 898.882 117.449C899.553 117.665 900.141 117.629 900.621 117.449C901.532 117.137 902.06 116.417 902.072 116.405C902.648 115.59 902.864 114.774 902.708 113.983C902.6 113.467 902.348 113.047 902.084 112.723C902.588 112.843 903.08 112.867 903.535 112.723C903.583 112.711 903.619 112.699 903.667 112.687C904.699 112.327 905.203 111.428 905.227 111.392C905.706 110.504 905.826 109.665 905.575 108.897C905.419 108.417 905.143 108.046 904.867 107.758C905.359 107.818 905.778 107.758 906.126 107.638C907.29 107.242 907.746 106.139 907.758 106.115C908.117 105.179 908.129 104.327 907.794 103.572C907.542 103.008 907.146 102.612 906.774 102.348C907.17 102.348 907.518 102.3 907.817 102.193C909.245 101.701 909.569 100.25 909.569 100.238C909.761 99.254 909.629 98.4145 909.161 97.7308C908.873 97.311 908.501 97.0112 908.153 96.8073C908.381 96.7713 908.597 96.7233 908.789 96.6634C910.468 96.0877 910.612 94.3485 910.612 94.3246C910.708 92.4415 909.701 91.494 908.693 91.0982C910.72 90.3786 910.564 88.3516 910.564 88.3156C910.456 87.3201 910.084 86.5525 909.449 86.0368C909.017 85.689 908.537 85.521 908.129 85.4251C910.228 84.4656 909.773 82.3547 909.773 82.3307C909.533 81.3592 909.053 80.6515 908.345 80.2317C907.877 79.9559 907.398 79.8479 906.978 79.8119V79.8839Z" fill="white"/>
<path d="M855.75 141.161C854.646 141.161 853.771 140.837 853.135 140.177C853.039 140.081 852.955 139.985 852.871 139.877C852.415 140.417 851.851 140.705 851.396 140.861C850.7 141.101 850.112 141.077 850.004 141.077C848.805 140.981 847.893 140.537 847.281 139.781C847.198 139.673 847.114 139.553 847.042 139.433C846.694 139.769 846.286 140.021 845.806 140.177C844.907 140.489 844.127 140.369 844.115 140.369C842.939 140.153 842.088 139.625 841.548 138.798C841.464 138.666 841.38 138.522 841.308 138.366C841.044 138.558 840.756 138.714 840.445 138.822C839.329 139.206 838.286 138.906 838.286 138.906C837.146 138.558 836.354 137.946 835.923 137.071C835.851 136.939 835.803 136.795 835.755 136.663C835.599 136.759 835.443 136.831 835.287 136.903C833.992 137.43 832.792 136.939 832.66 136.891C831.569 136.411 830.849 135.703 830.513 134.792C830.465 134.66 830.429 134.516 830.393 134.384C829.182 134.948 827.946 134.612 827.359 134.264C826.339 133.652 825.715 132.861 825.475 131.889C825.427 131.685 825.392 131.47 825.38 131.266C824.036 131.709 822.789 131.146 822.225 130.69C821.014 129.634 820.726 128.519 820.774 127.619C819.262 127.919 818.087 127.056 817.691 126.6C816.791 125.557 816.456 124.381 816.719 123.242C815.34 123.242 814.369 122.354 813.985 121.778C813.109 120.387 813.181 119.212 813.517 118.348C811.682 118.156 810.89 116.501 810.89 116.489C810.218 114.978 810.458 113.826 810.902 113.023C809.295 112.579 808.707 111.044 808.707 111.02C808.155 109.449 808.491 108.309 809.019 107.554C807.688 107.074 807.064 105.899 806.908 105.191C806.584 103.584 807.052 102.516 807.652 101.833C806.404 101.173 805.972 99.9016 805.924 99.3619C805.768 97.9586 806.176 96.7832 807.076 95.9916C805.912 95.2 805.589 93.8926 805.613 93.173C805.697 91.5898 806.38 90.6783 807.1 90.1625C805.984 89.227 805.84 87.8477 805.948 87.1281C806.248 85.5089 807.088 84.6933 807.915 84.2855C807.028 83.2661 807.016 81.9827 807.208 81.2511C807.688 79.6559 808.623 78.9363 809.487 78.6244C808.539 77.1852 809.175 75.602 809.187 75.578C809.727 74.3426 810.482 73.7189 811.226 73.4191C810.41 72.1717 810.782 70.7804 810.806 70.7085C811.142 69.605 811.718 68.9334 812.293 68.5256C811.538 67.734 811.334 66.7025 811.358 66.1628C811.418 64.9874 811.814 64.1958 812.293 63.6561C811.118 62.9244 810.83 61.6531 810.806 61.5931C810.566 60.3817 810.758 59.3143 811.358 58.4867C810.266 58.0189 809.667 57.0474 809.463 56.4118C809.043 54.8765 809.415 53.8091 809.931 53.0894C808.683 52.5497 808.131 51.3623 808.023 50.8466C807.676 49.2634 808.119 48.1959 808.707 47.5003C807.496 46.9006 806.98 45.7012 806.884 45.0176C806.692 43.4344 807.22 42.4149 807.856 41.7912C806.62 41.0476 806.272 39.7163 806.248 39.1525C806.188 37.5214 806.836 36.5499 807.544 35.9742C806.44 35.1466 806.176 33.8632 806.212 33.1676C806.332 31.5244 807.088 30.6249 807.856 30.1331C806.584 28.8978 806.92 27.1706 806.92 27.1587C807.208 25.8033 807.963 24.8318 809.043 24.3521C807.939 22.9008 808.575 21.2097 808.587 21.1977C809.235 19.6145 810.278 18.9908 811.19 18.7869C810.554 17.4676 811.01 16.1363 811.298 15.6565C812.222 14.1813 813.373 13.7615 814.333 13.7255C813.925 12.2622 814.656 11.0149 815.064 10.5951C816.276 9.32374 817.535 9.19181 818.459 9.34773C818.375 7.90846 819.262 6.853 819.862 6.44521C821.253 5.52168 822.453 5.59364 823.316 5.90549C823.58 4.20235 825.116 3.45873 825.14 3.44674C826.123 2.99097 827.023 2.91901 827.802 3.23085C827.934 3.27882 828.054 3.33879 828.186 3.42275C828.822 2.22336 830.129 1.85155 830.321 1.80358C831.281 1.62367 832.036 1.77959 832.612 2.24735C832.672 2.29532 832.732 2.3433 832.78 2.40327C833.308 1.73161 834.171 1.15591 835.587 1.03597C836.319 0.999985 837.662 1.27584 838.478 2.46324C839.113 1.74361 840.193 1.11992 841.92 1.3718C842.508 1.45575 843.863 1.99548 844.439 3.39876C845.218 2.83505 846.382 2.45125 848.001 3.05094C848.661 3.30281 849.74 4.09441 850.028 5.46171C850.856 5.07791 852.067 4.898 853.555 5.74956C854.178 6.12137 855.114 7.10487 855.138 8.52015C855.33 8.47218 855.51 8.4362 855.702 8.4242C856.685 8.32825 857.645 8.67607 858.544 9.41969C858.568 9.43169 859.888 10.5951 859.648 12.3462C859.804 12.3342 859.972 12.3222 860.128 12.3462C861.111 12.3942 862.023 12.8619 862.802 13.7375C862.826 13.7615 863.954 15.0808 863.486 16.7719C863.642 16.7719 863.798 16.7839 863.942 16.8079C864.913 16.9639 865.765 17.5276 866.449 18.4751C866.785 18.9308 867.324 20.1902 866.809 21.5455C866.929 21.5575 867.06 21.5815 867.18 21.6175C868.14 21.8574 868.932 22.481 869.543 23.4885C869.903 24.1002 870.251 25.3596 869.651 26.5949C869.795 26.6309 869.927 26.6669 870.059 26.7149C870.995 27.0387 871.726 27.7464 872.23 28.8018C872.242 28.8258 872.902 30.313 872.11 31.7523C872.218 31.7883 872.326 31.8243 872.434 31.8723C873.346 32.2441 874.041 32.9877 874.497 34.0671C874.497 34.0911 875.061 35.5184 874.293 36.8977C874.341 36.9097 874.377 36.9217 874.425 36.9337C875.361 37.2455 876.104 37.9292 876.632 38.9846C876.872 39.4884 877.1 40.5079 876.74 41.5393C877.58 41.6952 878.347 42.163 879.007 42.9426C879.055 43.0026 879.871 44.0221 879.739 45.4014C880.566 45.3534 881.418 45.6172 882.246 46.2049C882.269 46.2169 883.457 47.0925 883.589 48.6157C884.357 48.3998 885.352 48.4238 886.516 49.0595C886.528 49.0595 888.027 49.9111 888.159 51.6502C888.315 51.6022 888.483 51.5542 888.651 51.5302C889.622 51.3623 890.606 51.6262 891.565 52.3098C892.141 52.7296 892.969 53.7611 892.885 55.1404C893.041 55.1044 893.208 55.0804 893.364 55.0804C894.348 55.0205 895.296 55.3803 896.171 56.1599C896.195 56.1839 897.551 57.4432 897.155 59.2663C897.275 59.2663 897.407 59.2663 897.527 59.2663C898.51 59.3383 899.398 59.818 900.165 60.7056C900.549 61.1493 901.221 62.4207 900.753 63.836C900.957 63.836 901.161 63.8719 901.365 63.9199C902.324 64.1478 903.128 64.7715 903.74 65.779C903.752 65.803 904.591 67.2542 903.896 68.7894C904.052 68.8134 904.195 68.8614 904.339 68.9094C905.275 69.2212 906.019 69.9169 906.534 70.9603C906.546 70.9843 907.302 72.6155 906.33 74.1387C906.498 74.1867 906.654 74.2587 906.798 74.3306C907.686 74.7744 908.322 75.554 908.693 76.6694C908.693 76.6934 909.185 78.2646 908.19 79.6199C908.334 79.6799 908.478 79.7519 908.621 79.8358C909.473 80.3396 910.049 81.1791 910.325 82.3185C910.325 82.3425 910.732 84.1416 909.401 85.413C909.545 85.4969 909.677 85.5929 909.797 85.6888C910.565 86.3125 911.02 87.224 911.14 88.3875C911.2 89.0951 910.96 90.3904 909.893 91.242C910.792 91.9856 911.26 93.113 911.188 94.4804C911.188 94.5763 911.032 96.3514 909.377 97.191C909.461 97.2989 909.545 97.3949 909.629 97.5148C910.181 98.3304 910.349 99.3379 910.133 100.489C910.085 100.693 909.665 102.324 907.998 102.912C908.118 103.092 908.226 103.272 908.31 103.464C908.717 104.363 908.705 105.383 908.286 106.474C908.262 106.546 907.698 107.866 906.283 108.357C906.175 108.393 906.067 108.429 905.959 108.453C906.019 108.585 906.067 108.717 906.115 108.849C906.414 109.785 906.283 110.78 905.719 111.824C905.695 111.871 905.083 112.975 903.812 113.407C903.764 113.419 903.704 113.443 903.656 113.455C903.488 113.503 903.32 113.539 903.14 113.551C903.188 113.695 903.236 113.838 903.26 113.982C903.452 114.942 903.212 115.913 902.528 116.885C902.492 116.933 901.881 117.772 900.765 118.156C900.453 118.264 900.129 118.324 899.805 118.336C899.841 118.492 899.865 118.66 899.889 118.816C899.973 119.787 899.626 120.723 898.846 121.599C898.726 121.718 898.198 122.234 897.371 122.51C896.903 122.666 896.423 122.726 895.943 122.678C895.955 122.822 895.967 122.954 895.967 123.098C895.967 124.069 895.511 124.981 894.636 125.784C894.636 125.784 894.144 126.228 893.388 126.492C892.933 126.648 892.309 126.756 891.625 126.624C891.625 126.756 891.625 126.888 891.601 127.02C891.493 127.979 890.954 128.819 889.994 129.514C889.886 129.586 889.574 129.778 889.106 129.946C888.351 130.21 887.607 130.234 886.911 130.03C886.911 130.15 886.887 130.27 886.863 130.39C886.659 131.338 886.048 132.129 885.028 132.729C884.98 132.753 884.764 132.873 884.453 132.981C883.517 133.305 882.581 133.281 881.778 132.921C881.73 133.125 881.67 133.317 881.598 133.496C880.914 135.104 879.199 135.775 879.007 135.847C877.724 136.279 876.536 136.171 875.553 135.559C875.145 136.867 874.005 137.61 873.322 137.85C873.298 137.85 873.286 137.862 873.262 137.874C872.182 138.246 871.187 138.198 870.335 137.73C870.239 137.682 870.143 137.622 870.059 137.55C869.495 138.81 868.272 139.325 867.84 139.481C867.696 139.529 867.624 139.541 867.624 139.553C866.461 139.817 865.465 139.673 864.674 139.122C864.602 139.074 864.518 139.014 864.446 138.954C864.026 139.697 863.33 140.261 862.419 140.573C862.155 140.669 861.939 140.705 861.831 140.729C861.831 140.729 861.807 140.729 861.795 140.729C860.619 140.873 859.648 140.633 858.904 140.009C858.808 139.937 858.724 139.853 858.64 139.757C858.22 140.333 857.609 140.777 856.865 141.041C856.337 141.221 855.942 141.245 855.918 141.245C855.846 141.245 855.774 141.245 855.714 141.245L855.75 141.161ZM852.907 137.982C852.907 137.982 852.907 137.982 852.919 137.982C853.183 137.982 853.411 138.162 853.495 138.414C853.603 138.774 853.783 139.074 854.01 139.314C854.442 139.745 855.078 139.949 855.894 139.925C855.894 139.925 856.157 139.901 856.493 139.781C857.033 139.589 857.741 139.182 858.005 138.258C858.077 138.006 858.292 137.826 858.556 137.814C858.82 137.802 859.06 137.946 859.168 138.186C859.312 138.51 859.504 138.786 859.744 138.978C860.212 139.373 860.859 139.517 861.675 139.409C861.675 139.409 861.687 139.409 861.699 139.409C861.699 139.409 861.843 139.385 862.047 139.314C862.682 139.098 863.474 138.606 863.654 137.538C863.702 137.287 863.894 137.083 864.158 137.035C864.41 136.987 864.674 137.107 864.805 137.335C864.973 137.634 865.177 137.862 865.417 138.018C865.921 138.366 866.581 138.45 867.384 138.27C867.384 138.27 867.42 138.27 867.48 138.234C867.948 138.078 869.052 137.55 869.159 136.231C869.183 135.967 869.363 135.751 869.615 135.679C869.867 135.607 870.131 135.703 870.287 135.919C870.491 136.207 870.731 136.423 870.995 136.567C871.522 136.855 872.194 136.879 872.974 136.615C873.034 136.591 874.641 135.967 874.533 134.3C874.509 134.036 874.665 133.784 874.917 133.688C875.169 133.592 875.445 133.652 875.625 133.856C876.416 134.78 877.448 135.032 878.671 134.612C878.671 134.612 880.039 134.084 880.53 132.933C880.674 132.597 880.722 132.213 880.662 131.793C880.626 131.529 880.77 131.278 880.998 131.158C881.238 131.038 881.514 131.086 881.706 131.266C882.509 132.057 883.457 131.949 884.117 131.733C884.345 131.661 884.476 131.577 884.476 131.577C885.172 131.17 885.592 130.654 885.724 130.054C885.784 129.754 885.772 129.419 885.688 129.071C885.628 128.819 885.724 128.555 885.94 128.399C886.156 128.255 886.444 128.255 886.647 128.411C887.415 128.975 888.231 128.867 888.771 128.687C889.118 128.567 889.346 128.423 889.358 128.411C890.006 127.943 890.378 127.392 890.45 126.792C890.486 126.468 890.45 126.12 890.306 125.772C890.21 125.521 890.282 125.245 890.498 125.077C890.702 124.909 890.99 124.885 891.217 125.029C891.805 125.389 892.429 125.473 893.077 125.245C893.568 125.077 893.892 124.801 893.904 124.789C894.504 124.237 894.816 123.637 894.828 123.014C894.828 122.678 894.744 122.33 894.576 121.994C894.456 121.754 894.504 121.479 894.696 121.287C894.876 121.095 895.164 121.047 895.403 121.167C895.955 121.431 896.519 121.467 897.071 121.275C897.646 121.071 898.03 120.699 898.042 120.687C898.558 120.099 898.81 119.476 898.75 118.852C898.726 118.504 898.594 118.156 898.39 117.82C898.258 117.605 898.27 117.317 898.426 117.113C898.582 116.909 898.858 116.825 899.11 116.909C899.578 117.065 900.033 117.065 900.453 116.909C901.173 116.669 901.605 116.093 901.617 116.081C902.084 115.422 902.264 114.762 902.144 114.15C902.072 113.814 901.905 113.479 901.653 113.167C901.485 112.963 901.461 112.675 901.605 112.447C901.749 112.219 902.024 112.111 902.276 112.183C902.696 112.291 903.068 112.291 903.404 112.195L903.5 112.159C904.303 111.883 904.723 111.152 904.723 111.152C905.119 110.42 905.215 109.749 905.023 109.149C904.915 108.825 904.735 108.525 904.459 108.249C904.279 108.057 904.231 107.782 904.351 107.542C904.471 107.302 904.711 107.17 904.975 107.206C905.335 107.254 905.671 107.218 905.959 107.122C906.834 106.822 907.218 105.958 907.218 105.947C907.506 105.191 907.53 104.495 907.266 103.896C907.098 103.524 906.822 103.188 906.45 102.912C906.235 102.756 906.151 102.468 906.235 102.216C906.318 101.965 906.558 101.797 906.822 101.797C906.822 101.797 906.834 101.797 906.846 101.797C907.158 101.797 907.434 101.761 907.662 101.677C908.741 101.305 909.005 100.213 909.017 100.165C909.173 99.3739 909.065 98.6782 908.705 98.1385C908.514 97.8506 908.238 97.5988 907.902 97.4069C907.674 97.2749 907.554 97.0111 907.602 96.7472C907.65 96.4833 907.866 96.2914 908.13 96.2554C908.322 96.2315 908.502 96.1835 908.645 96.1355C909.917 95.6917 910.049 94.3844 910.061 94.3364C910.145 92.7292 909.281 92.0336 908.537 91.7337C908.298 91.6378 908.142 91.4099 908.154 91.1461C908.166 90.8822 908.322 90.6663 908.561 90.5703C910.085 90.0306 910.037 88.5794 910.025 88.4234C909.941 87.6078 909.641 86.9842 909.137 86.5764C908.849 86.3485 908.49 86.1806 908.07 86.0966C907.806 86.0366 907.614 85.8208 907.578 85.5569C907.554 85.293 907.698 85.0412 907.938 84.9212C909.533 84.1896 909.269 82.6904 909.233 82.5224C909.041 81.7308 908.645 81.1551 908.094 80.8193C907.782 80.6274 907.41 80.5195 906.99 80.4955C906.726 80.4715 906.498 80.2916 906.438 80.0277C906.366 79.7758 906.474 79.5 906.702 79.3561C908.046 78.4805 907.638 77.0292 907.614 76.9693C907.35 76.2017 906.93 75.6499 906.342 75.3621C906.007 75.1942 905.623 75.1102 905.191 75.1222C904.927 75.1222 904.687 74.9543 904.603 74.7144C904.519 74.4745 904.603 74.1867 904.807 74.0188C906.163 72.9633 905.587 71.572 905.515 71.4161C905.155 70.6845 904.651 70.2047 904.04 70.0008C903.704 69.8929 903.32 69.8569 902.924 69.9169C902.66 69.9528 902.408 69.8209 902.288 69.581C902.168 69.3412 902.216 69.0653 902.396 68.8734C903.524 67.722 902.804 66.3907 902.768 66.3307C902.348 65.6351 901.809 65.2033 901.173 65.0474C900.789 64.9514 900.369 64.9634 899.925 65.0833C899.674 65.1553 899.398 65.0474 899.254 64.8315C899.11 64.6156 899.122 64.3157 899.278 64.1118C900.333 62.7565 899.422 61.5451 899.326 61.4132C898.786 60.8015 898.186 60.4537 897.539 60.4057C897.191 60.3817 896.843 60.4417 896.483 60.5736C896.231 60.6696 895.955 60.5976 895.787 60.3937C895.619 60.1898 895.595 59.902 895.727 59.6741C896.627 58.1748 895.571 57.0834 895.439 56.9635C894.828 56.4237 894.192 56.1599 893.544 56.1959C893.173 56.2198 892.801 56.3398 892.429 56.5557C892.201 56.6876 891.901 56.6636 891.709 56.4837C891.505 56.3038 891.445 56.0159 891.553 55.7761C892.225 54.2289 891.073 53.2813 890.942 53.1854C890.282 52.7176 889.61 52.5257 888.974 52.6337C888.615 52.6936 888.267 52.8496 887.931 53.1014C887.715 53.2574 887.439 53.2574 887.223 53.1014C887.007 52.9455 886.911 52.6817 886.971 52.4298C887.391 50.8466 886.084 50.043 886.036 50.019C885.04 49.4793 884.141 49.4793 883.349 50.019C883.133 50.1629 882.845 50.1629 882.641 50.019C882.425 49.8631 882.329 49.5992 882.401 49.3474C882.785 47.9681 881.694 47.1285 881.646 47.0925C880.974 46.6247 880.302 46.4448 879.667 46.5528C879.535 46.5768 879.391 46.6247 879.223 46.6847C878.983 46.7807 878.719 46.7207 878.539 46.5408C878.359 46.3489 878.323 46.085 878.431 45.8451C878.995 44.6697 878.215 43.6622 878.179 43.6263C877.652 43.0146 877.04 42.6668 876.404 42.6188C876.26 42.6188 876.104 42.6188 875.912 42.6428C875.661 42.6787 875.409 42.5588 875.277 42.3309C875.145 42.103 875.181 41.8272 875.337 41.6353C876.176 40.6278 875.661 39.4644 875.637 39.4164C875.277 38.6848 874.773 38.205 874.149 38.0011C873.873 37.9052 873.573 37.8812 873.238 37.9052C872.974 37.9292 872.722 37.7613 872.626 37.5214C872.53 37.2695 872.602 36.9817 872.806 36.8137C873.981 35.8422 873.49 34.4869 873.466 34.427C873.154 33.6713 872.686 33.1676 872.086 32.9157C871.786 32.7958 871.438 32.7358 871.079 32.7478C870.803 32.7598 870.575 32.6039 870.479 32.364C870.383 32.1241 870.443 31.8483 870.647 31.6684C871.81 30.6369 871.247 29.2816 871.223 29.2216C870.875 28.49 870.383 27.9982 869.771 27.7823C869.435 27.6624 869.076 27.6264 868.68 27.6744C868.416 27.7104 868.164 27.5664 868.056 27.3266C867.948 27.0867 867.996 26.7988 868.188 26.6189C869.363 25.4675 868.692 24.1722 868.62 24.0283C868.2 23.3326 867.66 22.8888 867.024 22.7329C866.689 22.649 866.329 22.649 865.957 22.7329C865.693 22.7809 865.429 22.6609 865.297 22.4331C865.165 22.2052 865.189 21.9173 865.369 21.7134C866.461 20.4541 865.609 19.1587 865.573 19.1108C865.093 18.4511 864.518 18.0553 863.882 17.9593C863.522 17.8994 863.138 17.9354 862.742 18.0673C862.491 18.1512 862.215 18.0673 862.059 17.8394C861.903 17.6235 861.903 17.3357 862.059 17.1198C863.018 15.7645 862.107 14.6011 861.999 14.4811C861.447 13.8814 860.835 13.5456 860.188 13.5096C859.84 13.4856 859.468 13.5696 859.096 13.7255C858.856 13.8215 858.58 13.7735 858.4 13.5816C858.22 13.3897 858.185 13.1138 858.304 12.8859C859.048 11.3987 857.909 10.3552 857.861 10.3072C857.237 9.77951 856.589 9.53963 855.942 9.5996C855.57 9.63558 855.186 9.76752 854.826 10.0074C854.61 10.1513 854.322 10.1393 854.118 9.97141C853.914 9.81549 853.83 9.53963 853.914 9.28776C854.442 7.68058 853.207 6.84101 853.063 6.75705C851.647 5.94147 850.628 6.42122 850.016 6.97294C849.824 7.14086 849.548 7.17684 849.321 7.06889C849.093 6.94895 848.961 6.69708 848.997 6.44521C849.201 4.81404 847.857 4.22634 847.713 4.15438C846.466 3.69861 845.458 3.96247 844.727 4.94597C844.571 5.14987 844.307 5.24582 844.055 5.16186C843.803 5.0899 843.635 4.86202 843.623 4.61014C843.527 2.89502 842.064 2.57118 841.896 2.5472C840.577 2.35529 839.641 2.82306 839.125 3.93849C839.017 4.17837 838.765 4.3103 838.514 4.2983C838.262 4.27432 838.034 4.1064 837.962 3.85453C837.494 2.22336 835.995 2.22336 835.827 2.23536C834.675 2.33131 833.908 2.84704 833.56 3.77057C833.464 4.01045 833.248 4.15438 832.984 4.17837C832.732 4.17837 832.492 4.02244 832.408 3.78257C832.312 3.53069 832.168 3.3268 832 3.18287C831.713 2.94299 831.305 2.88303 830.753 2.97898C830.657 3.00296 829.422 3.36278 829.266 4.55018C829.23 4.79005 829.062 4.99395 828.822 5.06591C828.582 5.13788 828.33 5.05392 828.174 4.86202C827.982 4.62214 827.766 4.45422 827.515 4.35827C827.059 4.17836 826.483 4.23833 825.823 4.55018C825.787 4.57416 824.456 5.25782 824.72 6.82901C824.768 7.08089 824.648 7.33276 824.432 7.46469C824.216 7.59662 823.94 7.58463 823.736 7.42871C822.813 6.72107 821.805 6.73306 820.726 7.4407C820.606 7.52466 819.418 8.4362 820.042 10.0194C820.138 10.2593 820.078 10.5351 819.886 10.703C819.694 10.8829 819.418 10.9189 819.19 10.799C818.435 10.4152 817.295 10.2113 816.132 11.4227C816.036 11.5426 815.076 12.694 816.048 14.0973C816.192 14.3132 816.192 14.5891 816.048 14.805C815.892 15.0208 815.628 15.1168 815.376 15.0448C814.201 14.721 813.241 15.1408 812.533 16.2802C812.461 16.4121 811.778 17.6955 812.953 18.8589C813.133 19.0388 813.193 19.3147 813.073 19.5545C812.965 19.7944 812.713 19.9383 812.461 19.9143C811.262 19.8184 810.41 20.3941 809.907 21.6295C809.859 21.7734 809.391 23.1887 810.794 24.1362C811.01 24.2801 811.118 24.544 811.046 24.7959C810.986 25.0477 810.77 25.2396 810.506 25.2636C809.319 25.3836 808.563 26.1032 808.287 27.3865C808.263 27.5305 808.059 28.9697 809.535 29.6654C809.775 29.7733 809.907 30.0252 809.883 30.2771C809.859 30.5409 809.679 30.7568 809.427 30.8168C808.311 31.1166 807.688 31.9322 807.592 33.2156C807.592 33.3595 807.592 34.8347 809.175 35.3145C809.427 35.3865 809.607 35.6263 809.619 35.8902C809.619 36.1541 809.463 36.394 809.223 36.4899C808.119 36.9097 807.592 37.7732 807.64 39.0806C807.64 39.1286 807.784 40.6638 809.415 40.9876C809.679 41.0356 809.871 41.2515 809.907 41.5153C809.943 41.7792 809.811 42.0311 809.571 42.151C808.551 42.6548 808.119 43.5663 808.263 44.8376C808.287 44.9816 808.563 46.4088 810.194 46.5888C810.458 46.6127 810.674 46.8046 810.734 47.0685C810.794 47.3324 810.674 47.5962 810.458 47.7282C809.475 48.3279 809.115 49.2754 809.403 50.5467C809.403 50.5947 809.799 51.998 811.358 52.0939C811.622 52.1059 811.838 52.2859 811.91 52.5377C811.982 52.7896 811.886 53.0535 811.682 53.2094C810.782 53.8571 810.506 54.8046 810.83 56.0279C810.83 56.0639 811.286 57.4312 812.809 57.4792C813.073 57.4792 813.313 57.6711 813.385 57.923C813.457 58.1749 813.361 58.4627 813.133 58.6066C812.27 59.1943 811.946 60.1059 812.186 61.2933C812.186 61.3292 812.509 62.5646 813.781 62.8285C814.033 62.8765 814.225 63.0804 814.261 63.3442C814.297 63.5961 814.177 63.848 813.949 63.9799C813.205 64.3997 812.809 65.1433 812.749 66.1748C812.749 66.2108 812.749 67.4701 813.913 68.0458C814.141 68.1538 814.273 68.4056 814.249 68.6575C814.225 68.9094 814.045 69.1253 813.805 69.1972C813.001 69.4371 812.449 70.0368 812.15 71.0323C812.15 71.0683 811.802 72.3996 812.941 73.2512C813.145 73.4071 813.241 73.671 813.169 73.9228C813.097 74.1747 812.869 74.3426 812.605 74.3666C811.658 74.4146 810.938 74.9783 810.482 76.0338C810.47 76.0817 809.931 77.509 811.238 78.4925C811.442 78.6484 811.526 78.9243 811.454 79.1761C811.37 79.428 811.142 79.5959 810.878 79.6079C809.715 79.6439 808.923 80.2916 808.551 81.5509C808.515 81.6949 808.191 83.1461 809.655 83.9497C809.895 84.0817 810.015 84.3455 809.967 84.6094C809.919 84.8732 809.703 85.0771 809.439 85.1131C808.263 85.269 807.544 86.0127 807.304 87.308C807.28 87.4639 807.112 88.9752 808.755 89.5988C809.007 89.6948 809.163 89.9347 809.151 90.1985C809.151 90.4624 808.959 90.6903 808.707 90.7622C807.628 91.0861 807.04 91.9017 806.968 93.185C806.968 93.3409 806.992 94.8402 808.659 95.2599C808.911 95.3199 809.103 95.5478 809.127 95.8117C809.151 96.0755 808.995 96.3274 808.755 96.4234C807.628 96.9031 807.124 97.8266 807.28 99.17C807.28 99.2179 807.532 100.705 809.127 100.921C809.391 100.957 809.595 101.149 809.643 101.413C809.691 101.665 809.583 101.929 809.355 102.072C808.359 102.66 807.975 103.608 808.239 104.879C808.275 105.023 808.683 106.462 810.386 106.462C810.65 106.462 810.89 106.63 810.974 106.882C811.058 107.134 810.974 107.41 810.758 107.578C809.811 108.297 809.547 109.293 809.991 110.552C810.003 110.588 810.578 111.967 812.174 111.847C812.437 111.824 812.689 111.979 812.797 112.219C812.905 112.459 812.845 112.747 812.641 112.927C811.778 113.707 811.598 114.714 812.138 115.925C812.21 116.057 812.929 117.401 814.632 117.005C814.896 116.945 815.16 117.053 815.304 117.281C815.448 117.509 815.424 117.796 815.256 118C814.488 118.924 814.453 119.943 815.16 121.059C815.244 121.179 816.096 122.342 817.631 121.826C817.871 121.742 818.147 121.826 818.303 122.018C818.471 122.222 818.483 122.498 818.351 122.726C817.943 123.422 817.679 124.501 818.747 125.736C818.854 125.856 819.922 126.924 821.433 126.048C821.661 125.916 821.949 125.94 822.153 126.12C822.357 126.288 822.417 126.576 822.321 126.816C821.901 127.871 822.177 128.843 823.149 129.694C823.268 129.79 824.492 130.714 825.847 129.634C826.051 129.467 826.351 129.455 826.567 129.598C826.795 129.742 826.891 130.018 826.819 130.27C826.699 130.714 826.687 131.146 826.783 131.541C826.939 132.165 827.383 132.705 828.09 133.137C828.126 133.161 829.47 133.88 830.609 132.741C830.789 132.561 831.077 132.513 831.317 132.621C831.557 132.729 831.689 132.981 831.665 133.245C831.629 133.628 831.665 133.976 831.785 134.3C832 134.888 832.504 135.356 833.26 135.691C833.26 135.691 834.1 136.039 834.939 135.691C835.263 135.559 835.563 135.332 835.827 134.984C835.995 134.78 836.271 134.696 836.522 134.78C836.774 134.876 836.942 135.116 836.93 135.38C836.93 135.787 836.99 136.147 837.146 136.459C837.422 137.011 837.962 137.418 838.765 137.658C838.765 137.658 839.461 137.838 840.169 137.586C840.601 137.442 840.948 137.155 841.224 136.747C841.368 136.531 841.632 136.423 841.884 136.495C842.136 136.555 842.328 136.771 842.352 137.023C842.4 137.418 842.52 137.766 842.7 138.054C843.047 138.582 843.611 138.918 844.439 139.074C844.439 139.074 844.967 139.122 845.518 138.93C846.07 138.738 846.49 138.366 846.766 137.814C846.886 137.574 847.138 137.442 847.401 137.478C847.665 137.514 847.869 137.706 847.929 137.97C848.013 138.342 848.157 138.666 848.361 138.93C848.745 139.421 849.369 139.697 850.196 139.769C850.196 139.769 850.628 139.781 851.108 139.613C851.755 139.385 852.199 138.954 852.439 138.306C852.523 138.066 852.763 137.898 853.015 137.898L852.907 137.982Z" fill="black"/>
<path d="M821.733 40.112C820.665 40.112 819.586 39.8002 818.566 39.2005C817.019 38.2769 815.808 36.7537 815.184 34.9187C813.864 31.0926 815.472 27.0507 818.746 25.9232C822.033 24.7958 825.775 26.9907 827.082 30.8167C827.718 32.6518 827.706 34.5948 827.046 36.274C826.375 38.0011 825.127 39.2484 823.52 39.8002C822.932 40.0041 822.333 40.1 821.733 40.1V40.112ZM820.533 26.8588C820.066 26.8588 819.598 26.9307 819.154 27.0866C816.515 27.9982 815.256 31.3205 816.359 34.5109C816.899 36.0701 817.907 37.3654 819.214 38.133C820.485 38.8886 821.877 39.0685 823.136 38.6368C824.396 38.205 825.379 37.2095 825.919 35.8302C826.471 34.4149 826.471 32.7837 825.931 31.2125C825.019 28.5739 822.788 26.8468 820.545 26.8468L820.533 26.8588Z" fill="black"/>
<path d="M824.749 37.7729C826.622 37.1291 827.266 34.0629 826.187 30.9245C825.108 27.7861 822.715 25.7639 820.842 26.4077C818.969 27.0516 818.325 30.1177 819.404 33.2561C820.482 36.3945 822.876 38.4167 824.749 37.7729Z" fill="black"/>
<path d="M837.542 34.6789C834.783 34.6789 832.06 32.6279 830.981 29.4855C830.345 27.6504 830.357 25.7074 831.017 24.0283C831.688 22.3012 832.936 21.0538 834.543 20.5021C837.83 19.3747 841.572 21.5695 842.879 25.3956C843.515 27.2307 843.503 29.1737 842.843 30.8528C842.172 32.5799 840.924 33.8273 839.317 34.379C838.729 34.5829 838.141 34.6789 837.542 34.6789ZM836.33 21.4376C835.862 21.4376 835.395 21.5096 834.951 21.6655C833.691 22.0973 832.708 23.0928 832.168 24.4721C831.616 25.8873 831.616 27.5185 832.156 29.0897C833.248 32.2801 836.294 34.1271 838.921 33.2156C840.18 32.7838 841.164 31.7883 841.704 30.409C842.255 28.9938 842.255 27.3626 841.716 25.7914C840.804 23.1527 838.573 21.4256 836.33 21.4256V21.4376Z" fill="black"/>
<path d="M840.54 32.3486C842.413 31.7047 843.057 28.6386 841.978 25.5002C840.899 22.3618 838.506 20.3396 836.633 20.9834C834.76 21.6272 834.116 24.6934 835.195 27.8318C836.274 30.9702 838.667 32.9924 840.54 32.3486Z" fill="black"/>
<path d="M834.249 45.1161C836.955 44.1859 838.463 41.4361 837.617 38.9742C836.771 36.5124 833.891 35.2707 831.184 36.2009C828.478 37.1312 826.97 39.881 827.817 42.3429C828.663 44.8047 831.543 46.0464 834.249 45.1161Z" fill="#F1614E"/>
<path d="M832.42 46.0371C831.617 46.0371 830.825 45.8812 830.093 45.5574C828.714 44.9577 827.706 43.8902 827.239 42.5349C826.771 41.1796 826.915 39.7044 827.634 38.385C828.342 37.0897 829.542 36.1062 830.993 35.6025C832.444 35.0987 833.992 35.1467 835.347 35.7344C836.726 36.3341 837.734 37.4015 838.202 38.7568C838.669 40.1122 838.525 41.5874 837.806 42.9067C837.098 44.2021 835.899 45.1856 834.447 45.6893C833.776 45.9172 833.092 46.0371 832.42 46.0371ZM833.02 36.502C832.48 36.502 831.928 36.5979 831.389 36.7779C830.225 37.1737 829.278 37.9652 828.714 38.9847C828.162 39.9922 828.054 41.1076 828.402 42.1271C828.75 43.1466 829.53 43.9622 830.585 44.418C831.653 44.8857 832.888 44.9217 834.051 44.5139C835.215 44.1181 836.163 43.3265 836.726 42.307C837.278 41.2995 837.386 40.1841 837.038 39.1646C836.69 38.1452 835.911 37.3296 834.855 36.8738C834.279 36.6219 833.656 36.502 833.02 36.502Z" fill="black"/>
<path d="M843.995 55.1165C854.562 50.9906 855.605 47.0446 855.605 47.0446C855.605 47.0446 856.661 44.8857 855.354 42.8228C854.046 40.7598 852.415 40.7838 852.415 40.7838C852.415 40.7838 850.184 40.46 847.317 42.7508C844.451 45.0416 837.962 47.5603 837.962 47.5603L833.296 49.1675C833.296 49.1675 826.627 51.1705 822.956 51.1225C819.286 51.0746 817.727 52.7057 817.727 52.7057C817.727 52.7057 816.431 53.7012 816.671 56.124C816.911 58.5467 819.07 59.6022 819.07 59.6022C819.07 59.6022 822.321 62.0849 833.188 58.8346L844.007 55.1165H843.995Z" fill="#F1614E"/>
<path d="M823.58 61.1253C820.402 61.1253 819.022 60.3337 818.722 60.1418C818.375 59.9619 816.276 58.7505 816.024 56.1838C815.784 53.6651 817.031 52.4657 817.283 52.2498C817.535 52.01 819.298 50.4867 822.944 50.5107C826.471 50.5707 833.032 48.5917 833.092 48.5797L837.746 46.9845C837.746 46.9845 844.163 44.4778 846.922 42.2709C849.776 39.9801 852.103 40.124 852.451 40.16C852.775 40.172 854.502 40.3519 855.869 42.4868C857.249 44.6577 856.337 46.9006 856.181 47.2604C855.989 47.8361 854.346 51.7341 844.223 55.6921H844.199L833.38 59.4222C829.038 60.7175 825.859 61.1253 823.592 61.1253H823.58ZM822.789 51.7461C819.574 51.7461 818.171 53.1254 818.147 53.1374L818.075 53.1973C818.075 53.1973 817.055 54.0489 817.259 56.0639C817.463 58.1268 819.298 59.0384 819.31 59.0504L819.418 59.1103C819.418 59.1103 822.681 61.3172 832.984 58.2468L843.767 54.5407C853.77 50.6307 854.982 46.9126 854.994 46.8766L855.03 46.7686C855.066 46.6967 855.905 44.8856 854.814 43.1585C853.722 41.4433 852.451 41.4074 852.403 41.4074H852.319C852.319 41.4074 850.28 41.1675 847.689 43.2424C844.786 45.5692 838.441 48.04 838.166 48.1479L833.476 49.7671C833.176 49.863 826.639 51.8061 822.932 51.7581C822.885 51.7581 822.837 51.7581 822.789 51.7581V51.7461Z" fill="black"/>
<path d="M821.181 56.6876C820.857 56.6876 820.593 56.4357 820.569 56.1119C820.545 55.776 820.797 55.4762 821.145 55.4522C821.301 55.4522 837.17 54.1809 850.388 45.4013C850.676 45.2094 851.06 45.2934 851.239 45.5692C851.419 45.8451 851.347 46.2409 851.072 46.4208C837.59 55.3802 821.397 56.6636 821.241 56.6756C821.229 56.6756 821.205 56.6756 821.193 56.6756L821.181 56.6876Z" fill="black"/>
<path d="M876.128 60.6216C876.128 60.6216 881.046 41.4673 881.43 34.259C881.43 34.259 881.621 30.1691 883.409 30.337C885.184 30.4929 884.824 33.4314 884.824 33.4314C884.824 33.4314 884.836 29.7013 886.851 29.9292C888.866 30.1571 887.943 33.4314 887.943 33.4314C887.943 33.4314 888.098 29.8453 890.126 30.5769C892.153 31.3085 891.637 43.6142 888.374 64.2437" fill="white"/>
<path d="M888.387 64.8675C888.387 64.8675 888.327 64.8675 888.291 64.8675C887.955 64.8196 887.727 64.4957 887.775 64.1599C891.889 38.1451 890.726 31.5245 889.922 31.1647C889.61 31.0568 889.454 31.1167 889.358 31.1767C889.094 31.3566 888.902 31.7764 888.783 32.2202C888.747 32.9158 888.591 33.4795 888.555 33.5995C888.471 33.8993 888.171 34.0912 887.859 34.0432C887.547 33.9953 887.331 33.7194 887.343 33.4076C887.343 33.2876 887.379 32.6999 887.559 32.0283C887.571 31.5605 887.523 31.1167 887.331 30.8289C887.211 30.649 887.055 30.565 886.803 30.529C886.576 30.505 886.408 30.553 886.252 30.6969C885.772 31.1287 885.568 32.1722 885.496 32.8798C885.496 33.2037 885.472 33.4316 885.46 33.4915C885.424 33.8154 885.124 34.0552 884.812 34.0312C884.488 34.0073 884.237 33.7434 884.237 33.4076C884.237 33.3356 884.237 33.1197 884.261 32.8199C884.261 32.2921 884.189 31.5725 883.877 31.1887C883.745 31.0328 883.589 30.9488 883.385 30.9248C883.253 30.9128 883.145 30.9488 883.037 31.0448C882.437 31.5725 882.138 33.2996 882.09 34.2591C881.706 41.4435 876.968 59.962 876.764 60.7416C876.68 61.0775 876.344 61.2694 876.008 61.1854C875.673 61.1015 875.481 60.7656 875.565 60.4298C875.613 60.2379 880.47 41.2516 880.854 34.1872C880.866 33.8873 881.034 31.1407 882.234 30.1092C882.605 29.7854 883.049 29.6415 883.505 29.6895C884.045 29.7374 884.512 29.9893 884.86 30.4091C884.872 30.4331 884.896 30.4571 884.908 30.4691C885.052 30.2052 885.232 29.9533 885.46 29.7614C885.88 29.3896 886.408 29.2217 886.983 29.2937C887.583 29.3656 888.075 29.6535 888.399 30.1332C888.435 30.1932 888.471 30.2412 888.495 30.3011C888.567 30.2412 888.639 30.1812 888.711 30.1332C889.046 29.9053 889.61 29.7015 890.39 29.9773C893.58 31.1287 891.409 49.2995 889.034 64.3278C888.986 64.6277 888.723 64.8555 888.423 64.8555L888.387 64.8675Z" fill="black"/>
</g>
<path d="M504.471 48.94V43.81H521.421V48.22L513.951 70.12H508.041L515.451 48.94H504.471ZM523.019 50.44V49.36C523.019 45.04 526.619 42.79 531.539 42.79C536.489 42.79 540.089 45.01 540.089 49.36V50.44C540.089 54.79 536.489 57.01 531.569 57.01C526.649 57.01 523.019 54.79 523.019 50.44ZM549.479 57.13H543.779V42.79H549.479V57.13ZM528.569 49.36V50.44C528.569 51.85 529.679 52.9 531.539 52.9C533.399 52.9 534.539 51.85 534.539 50.44V49.36C534.539 47.95 533.399 46.87 531.539 46.9C529.679 46.93 528.569 47.95 528.569 49.36ZM549.929 70.78H524.489V62.83H543.809V61.42H524.489V58.03H549.449V65.89H530.369V67.33H549.929V70.78Z" fill="#C74236"/>
<path d="M559.396 43.21H584.596V57.1H559.396V43.21ZM565.066 52.6H578.926V47.71H565.066V52.6ZM558.196 59.26H585.796V63.88H574.906V70.93H569.086V63.88H558.196V59.26ZM588.436 50.02H607.486V48.07H588.286V43.51H613.426V54.31H594.346V56.32H613.846V60.79H588.436V50.02ZM609.256 61.81V65.56H614.896V70.03H587.296V65.56H592.936V61.81H598.456V65.56H603.736V61.81H609.256ZM625.966 57.64C629.656 59.29 631.546 62.74 631.066 69.01H626.386C626.626 65.77 626.176 63.61 624.886 62.23C623.536 65.71 620.956 68.38 616.246 69.79V64.27C619.756 62.71 621.226 59.26 621.226 54.58V50.65H616.486V45.97H621.076V42.76H626.356V45.97H630.916V50.65H626.236V52.9C626.236 54.55 626.176 56.14 625.966 57.64ZM627.826 52.84H632.296V42.79H637.096V70.78H632.296V57.67H627.826V52.84ZM638.896 70.78V42.79H643.846V70.78H638.896ZM646.426 52.81V50.92C646.426 50.17 646.576 49.51 646.876 48.91H645.166V45.01H651.256V42.61H656.986V45.01H663.046V48.91H661.306C661.606 49.51 661.756 50.17 661.756 50.92V52.81C661.756 56.65 658.726 58.96 654.106 58.96C649.456 58.96 646.426 56.65 646.426 52.81ZM662.926 53.98V49.3H666.796V42.79H672.496V59.08H666.796V53.98H662.926ZM656.656 52.66V50.71C656.656 49.36 655.606 48.58 654.106 48.58C652.576 48.58 651.526 49.36 651.526 50.71V52.66C651.526 54.01 652.306 54.88 654.106 54.88C655.606 54.88 656.656 54.01 656.656 52.66ZM647.266 70.78V60.13H672.526V70.78H647.266ZM652.876 66.97H666.916V63.91H652.876V66.97ZM688.014 42.76H693.804V45.91H700.074V50.32H698.154C698.544 51.13 698.754 52.09 698.754 53.17V62.56C698.754 67.78 695.514 70.21 690.924 70.21C686.364 70.21 683.094 67.78 683.094 62.56V53.17C683.094 52.09 683.304 51.13 683.694 50.32H681.774V45.91H688.014V42.76ZM708.204 53.26H711.054V58.18H708.204V70.78H702.504V42.79H708.204V53.26ZM693.354 62.89V52.6C693.354 50.77 692.394 50.08 690.924 50.08C689.454 50.08 688.464 50.77 688.464 52.6V62.89C688.464 64.72 689.454 65.53 690.924 65.53C692.394 65.53 693.354 64.72 693.354 62.89ZM738.204 70.78H732.504V42.79H738.204V70.78ZM711.894 69.88V64.63C717.954 63.73 722.844 59.05 722.844 51.01V48.61H712.044V43.75H728.454V50.8C728.454 62.29 721.134 69.22 711.894 69.88Z" fill="#222222"/>
<rect x="750.5" y="43" width="28" height="28" rx="14" fill="black"/>
<path d="M762 51.3433L767.657 57.0001L762 62.657" stroke="white" stroke-width="2"/>
</g>
<defs>
<clipPath id="clip0_4502_9433">
<rect width="1280" height="97" fill="white"/>
</clipPath>
<clipPath id="clip1_4502_9433">
<rect width="140.219" height="104" fill="white" transform="translate(789.233 -5)"/>
</clipPath>
</defs>
</svg>
