<svg width="629" height="146" viewBox="0 0 629 146" fill="none" xmlns="http://www.w3.org/2000/svg">
<path d="M26.1265 39.2048C29.9303 38.1995 33.2337 38.1995 36.0365 39.2048C38.8394 40.009 41.1417 41.4163 42.9435 43.4268C44.9455 45.4373 46.4471 47.8499 47.4481 50.6646C48.4491 53.2783 48.9496 55.8919 48.9496 58.5056C48.9496 63.7329 46.8475 68.6586 42.6432 73.2828C38.439 77.7059 32.8333 79.9174 25.8262 79.9174C17.4177 79.9174 11.0112 77.0022 6.6067 71.1718C2.20223 65.3413 0 58.4051 0 50.3631C0 39.1043 3.10314 29.0517 9.30943 20.2055C15.7159 11.1583 25.626 4.4231 39.0396 0L45.9466 9.95198C30.7311 15.7824 23.1234 24.9302 23.1234 37.3953C23.1234 38.4006 23.4237 39.0037 24.0243 39.2048C24.8252 39.4058 25.5259 39.4058 26.1265 39.2048ZM77.4785 38.9032C81.2824 37.898 84.5857 37.898 87.3886 38.9032C90.1914 39.7074 92.5938 41.2153 94.5959 43.4268C96.5979 45.4373 98.0994 47.8499 99.1004 50.6646C100.101 53.2783 100.602 55.8919 100.602 58.5056C100.602 63.7329 98.3997 68.6586 93.9953 73.2828C89.791 77.7059 84.1853 79.9174 77.1782 79.9174C68.7697 79.9174 62.3632 77.0022 57.9587 71.1718C53.5543 65.3413 51.352 58.4051 51.352 50.3631C51.352 39.1043 54.5553 29.0517 60.9618 20.2055C67.3683 11.1583 77.1782 4.4231 90.3916 0L97.5989 9.95198C82.1833 15.7824 74.4755 24.9302 74.4755 37.3953C74.4755 38.1995 74.7758 38.7022 75.3764 38.9032C76.1772 39.1043 76.8779 39.1043 77.4785 38.9032Z" fill="#F0F0F0" fill-opacity="0.5"/>
<path d="M602.629 106.674C598.79 107.679 595.456 107.679 592.627 106.674C589.798 105.87 587.474 104.463 585.655 102.452C583.634 100.442 582.119 98.029 581.108 95.2143C580.098 92.6006 579.593 89.987 579.593 87.3733C579.593 82.146 581.715 77.2203 585.958 72.5961C590.202 68.173 595.86 65.9615 602.932 65.9615C611.42 65.9615 617.886 68.8767 622.332 74.7072C626.777 80.5376 629 87.4738 629 95.5158C629 106.775 625.868 116.827 619.604 125.673C613.137 134.721 603.135 141.456 589.596 145.879L582.624 135.927C597.982 130.096 605.66 120.949 605.66 108.484C605.66 107.478 605.357 106.875 604.751 106.674C603.943 106.473 603.236 106.473 602.629 106.674ZM550.797 106.976C546.958 107.981 543.624 107.981 540.795 106.976C537.966 106.171 535.541 104.664 533.52 102.452C531.499 100.442 529.984 98.029 528.973 95.2143C527.963 92.6006 527.458 89.987 527.458 87.3733C527.458 82.146 529.681 77.2203 534.126 72.5961C538.37 68.173 544.028 65.9615 551.1 65.9615C559.588 65.9615 566.054 68.8767 570.5 74.7072C574.945 80.5376 577.168 87.4738 577.168 95.5158C577.168 106.775 573.935 116.827 567.468 125.673C561.002 134.721 551.1 141.456 537.764 145.879L530.489 135.927C546.049 130.096 553.828 120.949 553.828 108.484C553.828 107.679 553.525 107.177 552.919 106.976C552.111 106.775 551.404 106.775 550.797 106.976Z" fill="#F0F0F0" fill-opacity="0.5"/>
</svg>
