<svg width="292" height="280" viewBox="0 0 292 280" fill="none" xmlns="http://www.w3.org/2000/svg">
<g clip-path="url(#clip0_2445_44366)">
<path d="M137.543 185.097L137.312 173.914L127.532 178.086L118.216 172.717L119.99 184.768L113.316 193.537L125.121 193.382L130.792 204.816L135.209 194.019L146.088 192.088L137.543 185.097Z" fill="#FFF200"/>
<path d="M130.792 206.419C130.195 206.419 129.635 206.071 129.365 205.53L124.157 195.004L113.375 195.14C112.719 195.14 112.198 194.811 111.928 194.251C111.658 193.71 111.716 193.034 112.082 192.552L118.332 184.324L116.654 172.929C116.557 172.311 116.827 171.713 117.329 171.365C117.83 171.017 118.505 170.998 119.026 171.307L127.648 176.29L136.695 172.427C137.177 172.215 137.737 172.273 138.199 172.562C138.643 172.852 138.913 173.354 138.932 173.876L139.164 184.305L147.13 190.833C147.612 191.238 147.825 191.876 147.67 192.474C147.516 193.073 147.014 193.537 146.397 193.652L136.386 195.429L132.297 205.395C132.066 205.974 131.506 206.361 130.87 206.399C130.87 206.399 130.831 206.399 130.812 206.399L130.792 206.419ZM125.122 191.779C125.739 191.779 126.279 192.127 126.549 192.668L130.638 200.934L133.724 193.421C133.937 192.919 134.38 192.552 134.92 192.455L142.347 191.122L136.502 186.352C136.136 186.062 135.923 185.618 135.904 185.135L135.711 176.328L128.111 179.573C127.648 179.766 127.128 179.747 126.684 179.496L120.241 175.768L121.534 184.537C121.592 184.962 121.476 185.406 121.225 185.753L116.557 191.895L125.064 191.779H125.083H125.122Z" fill="#231F20"/>
<path d="M76.3209 188.225L76.0894 177.043L66.3099 181.215L56.9934 175.826L58.768 187.897L52.1133 196.646L63.8988 196.491L69.5698 207.925L73.9869 197.148L84.8659 195.217L76.3209 188.225Z" fill="#FFF200"/>
<path d="M69.5698 209.547C68.9719 209.547 68.4125 209.2 68.1425 208.659L62.9345 198.133L52.1519 198.269C51.4961 198.269 50.9753 197.94 50.7053 197.38C50.4352 196.839 50.4931 196.163 50.8596 195.681L57.1092 187.453L55.4311 176.058C55.3346 175.44 55.6047 174.841 56.1062 174.494C56.6077 174.146 57.2828 174.127 57.8036 174.436L66.4258 179.419L75.4723 175.556C75.9545 175.344 76.5139 175.402 76.9768 175.691C77.4204 175.981 77.6905 176.483 77.7098 177.005L77.9412 187.434L85.9076 193.962C86.3898 194.367 86.602 195.005 86.4477 195.603C86.2934 196.202 85.7918 196.666 85.1746 196.781L75.1636 198.558L71.0744 208.524C70.8429 209.103 70.2835 209.49 69.647 209.528C69.647 209.528 69.6084 209.528 69.5891 209.528L69.5698 209.547ZM63.8989 194.908C64.5161 194.908 65.0562 195.256 65.3263 195.796L69.4155 204.063L72.5018 196.55C72.7139 196.047 73.1576 195.681 73.6977 195.584L81.1239 194.271L75.2794 189.5C74.9129 189.211 74.7007 188.766 74.6814 188.284L74.4885 179.477L66.8887 182.721C66.4258 182.914 65.905 182.895 65.4613 182.644L59.0188 178.917L60.3112 187.685C60.369 188.11 60.2533 188.554 60.0025 188.902L55.3346 195.043L63.841 194.927H63.8603L63.8989 194.908Z" fill="#231F20"/>
<path d="M88.4914 156.3C77.6896 156.706 70.0126 157.053 60.9276 161.322C54.7937 164.199 45.4193 168.603 41.195 178.916C40.2112 181.311 36.3535 191.74 41.8122 201.223C47.3289 210.783 58.4586 212.637 61.5448 213.158C82.9555 216.751 100.605 197.631 105.697 192.107C108.726 188.824 125.488 170.689 120.106 161.322C116.634 155.257 105.466 155.663 88.4722 156.3H88.4914Z" fill="#37519B"/>
<path d="M68.951 221.097C68.3337 221.097 67.7358 220.73 67.4657 220.112L30.7782 133.395C30.431 132.584 30.8168 131.638 31.6269 131.29C32.437 130.942 33.3822 131.329 33.7294 132.14L70.4169 218.857C70.7641 219.668 70.3784 220.614 69.5682 220.962C69.356 221.058 69.1439 221.097 68.951 221.097Z" fill="black"/>
<path d="M16.2551 118.581L18.049 103.208L30.9147 110.257L44.3977 104.077L40.3663 120.455L48.3519 133.414L32.1878 131.637L22.9098 146.624L18.2612 131.193L3.60156 127.079L16.2551 118.581Z" fill="#FFF200"/>
<path d="M22.909 148.247C22.909 148.247 22.774 148.247 22.6968 148.247C22.0796 148.17 21.5588 147.726 21.3659 147.127L16.968 132.526L3.15711 128.663C2.55916 128.49 2.09622 127.987 1.99978 127.369C1.90333 126.751 2.17338 126.133 2.69418 125.786L14.7305 117.693L16.4472 103.054C16.5051 102.532 16.833 102.05 17.2959 101.818C17.7781 101.567 18.3375 101.586 18.8004 101.818L30.9525 108.481L43.7217 102.629C44.2811 102.378 44.9369 102.455 45.4192 102.861C45.9014 103.247 46.0943 103.884 45.9593 104.483L42.0822 120.204L49.7013 132.584C50.0292 133.105 50.0292 133.762 49.7013 134.284C49.3734 134.805 48.7754 135.095 48.1775 135.017L33.0164 133.356L24.2785 147.494C23.9892 147.977 23.4684 148.247 22.909 148.247ZM7.38139 126.481L18.6847 129.648C19.2055 129.803 19.6299 130.208 19.7842 130.73L23.4105 142.762L30.8174 130.788C31.1454 130.266 31.7433 129.977 32.3606 130.035L45.2456 131.444L38.9959 121.286C38.7645 120.919 38.7066 120.475 38.8031 120.05L42.0436 106.897L31.5697 111.687C31.1068 111.899 30.586 111.88 30.1423 111.629L19.3791 105.719L17.8553 118.717C17.7974 119.181 17.5467 119.605 17.1609 119.856L7.41997 126.404L7.38139 126.481Z" fill="black"/>
<mask id="mask0_2445_44366" style="mask-type:luminance" maskUnits="userSpaceOnUse" x="38" y="155" width="84" height="59">
<path d="M88.4914 156.3C77.6896 156.706 70.0126 157.053 60.9276 161.322C54.7937 164.199 45.4193 168.603 41.195 178.916C40.2112 181.311 36.3535 191.74 41.8122 201.223C47.3289 210.783 58.4586 212.637 61.5448 213.158C82.9555 216.751 100.605 197.631 105.697 192.107C108.726 188.824 125.488 170.689 120.106 161.322C116.634 155.257 105.466 155.663 88.4722 156.3H88.4914Z" fill="white"/>
</mask>
<g mask="url(#mask0_2445_44366)">
<path d="M83.0335 159.815L82.8021 148.633L73.0226 152.804L63.706 147.416L65.4806 159.487L58.8066 168.236L70.6115 168.081L76.2824 179.515L80.6996 168.738L91.5785 166.807L83.0335 159.815Z" fill="#FFF200"/>
<path d="M76.2827 181.137C75.6848 181.137 75.1254 180.79 74.8554 180.249L69.6473 169.723L58.8648 169.858C58.2283 169.897 57.6882 169.53 57.4182 168.97C57.1481 168.429 57.206 167.753 57.5725 167.27L63.8221 159.043L62.144 147.648C62.0475 147.03 62.3176 146.431 62.8191 146.084C63.3206 145.736 63.9957 145.717 64.5165 146.026L73.1386 151.009L82.1852 147.146C82.6674 146.933 83.2268 146.991 83.6897 147.281C84.1333 147.571 84.4034 148.073 84.4227 148.594L84.6541 159.024L92.6205 165.551C93.1027 165.957 93.3149 166.594 93.1606 167.193C93.0062 167.792 92.5047 168.255 91.8875 168.371L81.8765 170.148L77.7873 180.114C77.5558 180.693 76.9964 181.079 76.3599 181.118C76.3599 181.118 76.3213 181.118 76.302 181.118L76.2827 181.137ZM70.6118 166.498C71.229 166.498 71.7691 166.845 72.0392 167.386L76.1284 175.652L79.2147 168.139C79.4268 167.637 79.8705 167.27 80.4106 167.174L87.8368 165.861L81.9923 161.09C81.6258 160.8 81.4136 160.356 81.3943 159.873L81.2014 151.067L73.6016 154.311C73.1386 154.504 72.6178 154.485 72.1742 154.234L65.7317 150.506L67.0241 159.275C67.0819 159.7 66.9662 160.144 66.7154 160.491L62.0475 166.633L70.5539 166.517H70.5732L70.6118 166.498Z" fill="black"/>
<path d="M55.9517 201.397L55.7203 190.234L45.9408 194.387L36.6242 189.018L38.3988 201.069L31.7441 209.837L43.5297 209.683L49.2006 221.116L53.6178 210.339L64.4967 208.389L55.9517 201.397Z" fill="#FFF200"/>
<path d="M49.2007 222.719C48.6027 222.719 48.0434 222.372 47.7733 221.831L42.5653 211.305L31.7828 211.44C31.127 211.44 30.6062 211.112 30.3361 210.552C30.0661 210.011 30.124 209.335 30.4904 208.852L36.7401 200.625L35.0619 189.23C34.9655 188.612 35.2355 188.013 35.737 187.666C36.2385 187.318 36.9137 187.299 37.4345 187.608L46.0566 192.591L55.1031 188.728C55.5853 188.516 56.1447 188.573 56.6077 188.863C57.0706 189.153 57.3213 189.655 57.3406 190.176L57.5721 200.606L65.5384 207.134C66.0207 207.539 66.2328 208.176 66.0785 208.775C65.9242 209.374 65.4227 209.837 64.8055 209.953L54.7945 211.73L50.7052 221.696C50.4738 222.275 49.9144 222.661 49.2779 222.7C49.2779 222.7 49.2393 222.7 49.22 222.7L49.2007 222.719ZM43.5298 208.08C44.147 208.08 44.6871 208.428 44.9571 208.968L49.0464 217.234L52.1326 209.722C52.3448 209.219 52.7885 208.852 53.3285 208.756L60.7548 207.423L54.9102 202.653C54.5437 202.363 54.3316 201.919 54.3123 201.436L54.1194 192.629L46.5195 195.874C46.0566 196.067 45.5358 196.048 45.0922 195.797L38.6497 192.069L39.942 200.837C39.9999 201.262 39.8842 201.706 39.6334 202.054L34.9655 208.196L43.4719 208.08H43.4912H43.5298Z" fill="black"/>
</g>
<path d="M241.78 132.564C241.78 132.564 248.994 122.309 255.475 127.62C261.957 132.951 268.727 142.375 268.727 142.375C268.727 142.375 277.716 153.539 273.607 157.845C269.479 162.152 256.71 155.393 256.71 155.393L241.8 132.564H241.78Z" fill="#47484A"/>
<path d="M269.364 160.858C263.828 160.858 256.98 157.343 255.939 156.802C255.707 156.667 255.495 156.493 255.341 156.261L240.43 133.433C240.064 132.873 240.083 132.158 240.469 131.618C240.642 131.366 244.982 125.263 250.364 124.53C252.582 124.221 254.646 124.839 256.479 126.345C263.037 131.733 269.73 141.004 270 141.39C270.965 142.568 279.683 153.731 274.745 158.907C273.414 160.298 271.485 160.819 269.364 160.819V160.858ZM257.81 154.156C261.802 156.184 270.039 159.236 272.45 156.725C274.822 154.233 270.135 146.663 267.493 143.379C267.377 143.225 260.703 133.993 254.473 128.856C253.335 127.909 252.139 127.562 250.827 127.736C248.03 128.122 245.195 130.903 243.767 132.622L257.829 154.137L257.81 154.156Z" fill="black"/>
<path d="M221.971 139.073L244.365 128.064C244.365 128.064 256.922 135.828 257.887 155.489L232.31 168.217L221.971 139.073Z" fill="#7E8083"/>
<path d="M232.31 169.839C232.097 169.839 231.905 169.8 231.712 169.723C231.287 169.549 230.959 169.202 230.805 168.777L220.466 139.633C220.196 138.861 220.543 138.011 221.276 137.644L243.671 126.635C244.172 126.384 244.751 126.423 245.214 126.712C245.754 127.041 258.504 135.152 259.488 155.412C259.526 156.049 259.179 156.648 258.6 156.938L233.023 169.685C232.792 169.8 232.56 169.858 232.31 169.858V169.839ZM223.957 139.903L233.216 165.996L256.228 154.543C255.128 139.382 246.718 131.869 244.23 129.957L223.977 139.923L223.957 139.903Z" fill="black"/>
<path d="M254.53 154.272C254.53 154.272 261.744 144.017 268.225 149.328C274.707 154.659 281.477 164.083 281.477 164.083C281.477 164.083 290.466 175.247 286.357 179.553C282.229 183.86 269.46 177.101 269.46 177.101L254.55 154.272H254.53Z" fill="#47484A"/>
<path d="M282.114 182.585C276.578 182.585 269.73 179.07 268.689 178.53C268.457 178.394 268.245 178.221 268.091 177.989L253.18 155.161C252.814 154.6 252.833 153.886 253.219 153.345C253.392 153.094 257.732 146.991 263.114 146.257C265.332 145.948 267.396 146.566 269.229 148.073C275.787 153.461 282.48 162.731 282.75 163.118C283.715 164.296 292.433 175.459 287.495 180.635C286.164 182.025 284.235 182.547 282.114 182.547V182.585ZM270.56 175.884C274.552 177.912 282.789 180.963 285.2 178.452C287.572 175.961 282.885 168.39 280.243 165.107C280.127 164.952 273.453 155.721 267.223 150.583C266.085 149.656 264.889 149.289 263.577 149.463C260.78 149.849 257.945 152.631 256.517 154.349L270.579 175.864L270.56 175.884Z" fill="black"/>
<path d="M234.721 160.801L257.115 149.792C257.115 149.792 269.673 157.556 270.637 177.217L228.992 191.663L234.721 160.82V160.801Z" fill="#7E8083"/>
<path d="M228.992 193.266C228.606 193.266 228.24 193.131 227.951 192.88C227.526 192.513 227.314 191.934 227.43 191.374L233.159 160.53C233.255 160.028 233.583 159.603 234.027 159.391L256.421 148.382C256.922 148.131 257.501 148.17 257.964 148.46C258.504 148.788 271.254 156.899 272.238 177.159C272.277 177.874 271.833 178.53 271.158 178.762L229.513 193.208C229.339 193.266 229.166 193.305 228.992 193.305V193.266ZM236.148 161.902L231.075 189.249L268.978 176.097C267.84 160.975 259.469 153.539 256.98 151.666L236.168 161.902H236.148Z" fill="black"/>
<path d="M66.9853 215.225C65.0757 215.225 63.1854 215.071 61.3144 214.742C51.3806 213.081 44.3787 208.794 40.463 202.034C34.7921 192.223 38.4763 181.388 39.7493 178.317C44.2244 167.425 53.8881 162.886 60.2728 159.893C69.8401 155.393 78.0572 155.103 88.4539 154.717C105.988 154.079 117.561 153.654 121.534 160.549C126.723 169.588 114.61 184.903 106.913 193.227C93.4111 207.867 80.0053 215.245 67.0046 215.245L66.9853 215.225ZM88.5117 156.3L88.5696 157.903C78.1343 158.29 70.5923 158.56 61.623 162.77C55.682 165.571 46.6934 169.781 42.7005 179.515C41.5818 182.257 38.3027 191.856 43.2213 200.393C46.6355 206.302 52.8851 210.049 61.8352 211.556C75.4724 213.835 89.8427 206.92 104.56 191.006C116.442 178.144 121.747 167.348 118.757 162.114C115.767 156.899 104.367 157.324 88.5696 157.884L88.5117 156.281V156.3Z" fill="black"/>
<path d="M253.257 114.41C246.351 97.4914 235.009 91.9485 228.509 91.8133C224.69 91.7361 222.067 92.6052 220.273 94.1889C219.945 94.4786 218.382 95.9271 217.591 98.4764C216.415 102.32 218.132 105.14 219.019 107.496C216.55 106.974 213.907 106.781 211.226 107.071C203.819 107.901 194.503 112.749 194.503 112.749C194.503 112.749 194.406 112.865 194.213 113.077C190.008 108.307 184.685 104.328 179.129 103.421C178.396 102.764 177.644 102.281 176.853 102.011C162.599 97.2597 118.388 153.712 109.496 167C107.587 169.858 102.842 177.371 93.8337 181.137C88.7993 183.243 87.2369 182.161 79.1162 184.285C70.224 186.603 62.9521 188.515 58.7664 194.019C53.6162 200.798 53.9249 211.981 58.1491 219.455C67.9865 236.895 99.2346 234.346 108.57 233.592C113.663 233.167 129.075 231.912 144.544 223.627C152.163 224.554 162.657 224.38 172.205 222.255C183.739 219.687 195.043 213.989 201.505 209.161C213.869 205.549 237.266 196.105 251.347 171.693C261.03 154.91 260.201 131.328 253.276 114.41H253.257Z" fill="#37519B"/>
<path d="M242.745 145.137C242.745 145.137 242.687 145.137 242.649 145.137C241.762 145.079 241.087 144.326 241.144 143.437C242.051 126.905 235.589 120.184 235.531 120.126C234.914 119.508 234.914 118.484 235.531 117.847C236.149 117.21 237.152 117.21 237.788 117.847C238.097 118.156 245.349 125.495 244.346 143.63C244.308 144.48 243.594 145.156 242.745 145.156V145.137Z" fill="black"/>
<mask id="mask1_2445_44366" style="mask-type:luminance" maskUnits="userSpaceOnUse" x="55" y="91" width="204" height="144">
<path d="M253.624 114.584C246.718 97.6653 235.377 92.1224 228.876 91.9872C225.057 91.9099 222.434 92.779 220.64 94.3627C220.312 94.6524 218.749 96.1009 217.959 98.6503C216.782 102.494 218.499 105.313 219.386 107.67C216.917 107.148 214.274 106.955 211.593 107.245C204.186 108.075 194.87 112.923 194.87 112.923C194.87 112.923 194.773 113.039 194.58 113.251C190.375 108.481 185.052 104.502 179.497 103.594C178.764 102.938 178.011 102.455 177.22 102.185C162.966 97.4335 118.756 153.886 109.863 167.174C107.954 170.032 103.209 177.545 94.2009 181.311C89.1664 183.416 87.604 182.335 79.4834 184.459C70.5912 186.777 63.3193 188.689 59.1336 194.193C53.9834 200.972 54.2921 212.155 58.5163 219.629C68.3537 237.069 99.6018 234.519 108.938 233.766C114.03 233.341 129.442 232.086 144.911 223.8C152.531 224.727 163.024 224.554 172.572 222.429C184.107 219.861 195.41 214.163 201.872 209.335C214.236 205.723 237.633 196.279 251.714 171.867C261.397 155.084 260.568 131.502 253.643 114.584H253.624Z" fill="white"/>
</mask>
<g mask="url(#mask1_2445_44366)">
<path d="M189.239 190.485L188.988 179.322L179.228 183.475L169.911 178.105L171.686 190.157L165.012 198.925L176.817 198.771L182.468 210.204L186.905 199.427L197.784 197.477L189.239 190.485Z" fill="#FFF200"/>
<path d="M182.468 211.807C181.87 211.807 181.311 211.46 181.041 210.919L175.833 200.393L165.05 200.528C164.414 200.606 163.874 200.2 163.604 199.64C163.334 199.099 163.392 198.423 163.758 197.94L170.008 189.713L168.33 178.318C168.233 177.7 168.503 177.101 169.005 176.754C169.506 176.406 170.181 176.387 170.702 176.696L179.324 181.679L188.371 177.816C188.853 177.603 189.412 177.661 189.875 177.951C190.319 178.241 190.589 178.743 190.608 179.264L190.84 189.694L198.806 196.221C199.288 196.627 199.5 197.264 199.346 197.863C199.192 198.462 198.69 198.925 198.073 199.041L188.062 200.818L183.973 210.784C183.741 211.363 183.182 211.749 182.545 211.788C182.545 211.788 182.507 211.788 182.488 211.788L182.468 211.807ZM176.797 197.168C177.415 197.168 177.955 197.515 178.225 198.056L182.314 206.322L185.4 198.809C185.612 198.307 186.056 197.94 186.596 197.844L194.022 196.511L188.178 191.741C187.811 191.451 187.599 191.007 187.58 190.524L187.387 181.717L179.787 184.962C179.324 185.155 178.803 185.136 178.36 184.885L171.917 181.157L173.21 189.925C173.267 190.35 173.152 190.794 172.901 191.142L168.233 197.284L176.739 197.168H176.759H176.797Z" fill="black"/>
<path d="M247.916 176.967L247.684 165.784L237.905 169.956L228.588 164.567L230.363 176.638L223.708 185.387L235.494 185.233L241.164 196.666L245.582 185.889L256.461 183.958L247.916 176.967Z" fill="#FFF200"/>
<path d="M241.165 198.269C240.567 198.269 240.007 197.922 239.737 197.381L234.529 186.855L223.747 186.99C223.091 186.971 222.57 186.662 222.3 186.102C222.03 185.561 222.088 184.885 222.454 184.402L228.704 176.175L227.026 164.78C226.929 164.162 227.199 163.563 227.701 163.216C228.202 162.868 228.878 162.849 229.398 163.158L238.02 168.14L247.067 164.278C247.549 164.065 248.109 164.123 248.572 164.413C249.015 164.703 249.285 165.205 249.305 165.726L249.536 176.155L257.502 182.683C257.985 183.089 258.197 183.726 258.042 184.325C257.888 184.924 257.387 185.387 256.769 185.503L246.758 187.28L242.669 197.246C242.438 197.825 241.878 198.211 241.242 198.231C241.242 198.231 241.203 198.231 241.184 198.231L241.165 198.269ZM235.494 183.63C236.111 183.63 236.651 183.977 236.921 184.518L241.01 192.784L244.096 185.271C244.309 184.769 244.752 184.402 245.292 184.306L252.719 182.973L246.874 178.203C246.508 177.913 246.295 177.469 246.276 176.986L246.083 168.179L238.483 171.424C238.02 171.617 237.5 171.597 237.056 171.346L230.614 167.619L231.906 176.387C231.964 176.812 231.848 177.256 231.597 177.604L226.929 183.746L235.436 183.63H235.455H235.494Z" fill="black"/>
<path d="M218.422 129.745L218.171 118.562L208.411 122.734L199.095 117.346L200.869 129.417L194.195 138.165L206 138.011L211.671 149.444L216.088 138.668L226.967 136.736L218.422 129.745Z" fill="#FFF200"/>
<path d="M211.671 151.067C211.073 151.067 210.514 150.719 210.244 150.179L205.036 139.653L194.254 139.788C193.656 139.749 193.077 139.46 192.807 138.9C192.537 138.359 192.595 137.683 192.961 137.2L199.211 128.973L197.533 117.578C197.436 116.96 197.706 116.361 198.208 116.013C198.709 115.666 199.384 115.646 199.905 115.955L208.527 120.938L217.574 117.076C218.056 116.863 218.615 116.921 219.078 117.211C219.522 117.5 219.792 118.003 219.811 118.524L220.043 128.953L228.009 135.481C228.491 135.887 228.704 136.524 228.549 137.123C228.395 137.722 227.893 138.185 227.276 138.301L217.265 140.078L213.176 150.043C212.944 150.623 212.385 151.009 211.749 151.048C211.749 151.048 211.71 151.048 211.691 151.048L211.671 151.067ZM206 136.428C206.618 136.428 207.158 136.775 207.428 137.316L211.517 145.582L214.603 138.069C214.816 137.567 215.259 137.2 215.799 137.103L223.225 135.771L217.381 131C217.014 130.711 216.802 130.267 216.783 129.784L216.59 120.977L208.99 124.222C208.527 124.415 208.007 124.395 207.563 124.144L201.12 120.417L202.413 129.185C202.471 129.61 202.355 130.054 202.104 130.402L197.436 136.543L205.943 136.428H205.962H206Z" fill="black"/>
<path d="M137.543 185.097L137.312 173.914L127.532 178.086L118.216 172.717L119.99 184.768L113.316 193.537L125.121 193.382L130.792 204.816L135.209 194.019L146.088 192.088L137.543 185.097Z" fill="#FFF200"/>
<path d="M130.792 206.419C130.195 206.419 129.635 206.071 129.365 205.53L124.157 195.004L113.375 195.14C112.719 195.14 112.198 194.811 111.928 194.251C111.658 193.71 111.716 193.034 112.082 192.552L118.332 184.324L116.654 172.929C116.557 172.311 116.827 171.713 117.329 171.365C117.83 171.017 118.505 170.998 119.026 171.307L127.648 176.29L136.695 172.427C137.177 172.215 137.737 172.273 138.199 172.562C138.643 172.852 138.913 173.354 138.932 173.876L139.164 184.305L147.13 190.833C147.612 191.238 147.825 191.876 147.67 192.474C147.516 193.073 147.014 193.537 146.397 193.652L136.386 195.429L132.297 205.395C132.066 205.974 131.506 206.361 130.87 206.399C130.87 206.399 130.831 206.399 130.812 206.399L130.792 206.419ZM125.122 191.779C125.739 191.779 126.279 192.127 126.549 192.668L130.638 200.934L133.724 193.421C133.937 192.919 134.38 192.552 134.92 192.455L142.347 191.122L136.502 186.352C136.136 186.062 135.923 185.618 135.904 185.135L135.711 176.328L128.111 179.573C127.648 179.766 127.128 179.747 126.684 179.496L120.241 175.768L121.534 184.537C121.592 184.962 121.476 185.406 121.225 185.753L116.557 191.895L125.064 191.779H125.083H125.122Z" fill="black"/>
<path d="M110.462 226.698L110.23 215.516L100.451 219.687L91.134 214.299L92.9086 226.37L86.2539 235.119L98.0394 234.964L103.71 246.398L108.128 235.621L119.007 233.689L110.462 226.698Z" fill="#FFF200"/>
<path d="M103.71 248.001C103.113 248.001 102.553 247.653 102.283 247.112L97.0751 236.586L86.2926 236.722C85.6753 236.76 85.1159 236.393 84.8459 235.833C84.5759 235.292 84.6337 234.616 85.0002 234.134L91.2498 225.906L89.5717 214.511C89.4752 213.893 89.7453 213.295 90.2468 212.947C90.7483 212.599 91.4234 212.58 91.9442 212.889L100.566 217.872L109.613 214.009C110.095 213.797 110.654 213.855 111.117 214.144C111.561 214.434 111.831 214.936 111.85 215.458L112.082 225.887L120.048 232.415C120.53 232.82 120.743 233.458 120.588 234.056C120.434 234.655 119.932 235.119 119.315 235.235L109.304 237.011L105.215 246.977C104.984 247.556 104.424 247.943 103.788 247.981C103.788 247.981 103.749 247.981 103.73 247.981L103.71 248.001ZM98.0395 233.361C98.6568 233.361 99.1969 233.709 99.4669 234.25L103.556 242.516L106.642 235.003C106.855 234.501 107.298 234.134 107.838 234.037L115.265 232.704L109.42 227.934C109.054 227.644 108.841 227.2 108.822 226.717L108.629 217.91L101.029 221.155C100.566 221.348 100.046 221.329 99.6019 221.078L93.1594 217.35L94.4518 226.119C94.5097 226.544 94.3939 226.988 94.1432 227.335L89.4752 233.477L97.9817 233.361H98.001H98.0395Z" fill="black"/>
<path d="M76.3209 188.226L76.0894 177.044L66.3099 181.216L56.9934 175.827L58.768 187.898L52.1133 196.647L63.8988 196.492L69.5698 207.926L73.9869 197.149L84.8659 195.218L76.3209 188.226Z" fill="#FFF200"/>
<path d="M69.5698 209.547C68.9719 209.547 68.4125 209.2 68.1425 208.659L62.9345 198.133L52.1519 198.269C51.4961 198.269 50.9753 197.94 50.7053 197.38C50.4352 196.839 50.4931 196.163 50.8596 195.681L57.1092 187.453L55.4311 176.058C55.3346 175.44 55.6047 174.841 56.1062 174.494C56.6077 174.146 57.2828 174.127 57.8036 174.436L66.4258 179.419L75.4723 175.556C75.9545 175.344 76.5139 175.402 76.9768 175.691C77.4204 175.981 77.6905 176.483 77.7098 177.005L77.9412 187.434L85.9076 193.962C86.3898 194.367 86.602 195.005 86.4477 195.603C86.2934 196.202 85.7918 196.666 85.1746 196.781L75.1636 198.558L71.0744 208.524C70.8429 209.103 70.2835 209.49 69.647 209.528C69.647 209.528 69.6084 209.528 69.5891 209.528L69.5698 209.547ZM63.8989 194.908C64.5161 194.908 65.0562 195.256 65.3263 195.796L69.4155 204.063L72.5018 196.55C72.7139 196.047 73.1576 195.681 73.6977 195.584L81.1239 194.271L75.2794 189.5C74.9129 189.211 74.7007 188.766 74.6814 188.284L74.4885 179.477L66.8887 182.721C66.4258 182.914 65.905 182.895 65.4613 182.644L59.0188 178.917L60.3112 187.685C60.369 188.11 60.2533 188.554 60.0025 188.902L55.3346 195.043L63.841 194.927H63.8603L63.8989 194.908Z" fill="black"/>
</g>
<path d="M96.593 235.698C75.9153 235.698 62.5288 230.522 56.7228 220.228C51.8813 211.653 52.1899 199.949 57.4751 193.015C62.008 187.067 69.7428 185.039 78.6929 182.702C82.4735 181.717 84.9425 181.389 86.9293 181.118C89.1475 180.829 90.7678 180.616 93.2175 179.612C99.0813 177.236 104.077 172.717 108.109 166.131C108.571 165.378 109.555 165.146 110.307 165.61C111.06 166.073 111.291 167.058 110.828 167.811C106.43 174.996 100.914 179.96 94.3941 182.605C91.5586 183.745 89.5911 184.015 87.315 184.305C85.3283 184.575 83.0522 184.865 79.4645 185.811C70.7266 188.09 63.8404 189.906 59.9826 194.966C55.5269 200.837 55.2954 211.228 59.4811 218.644C65.6729 229.633 82.1263 234.114 108.379 231.97C124.466 230.657 139.897 225.037 154.267 215.284C155 214.781 156.003 214.975 156.485 215.708C156.987 216.442 156.794 217.447 156.061 217.949C141.228 228.03 125.256 233.824 108.629 235.176C104.366 235.524 100.335 235.698 96.5545 235.698H96.593Z" fill="black"/>
<path d="M194.485 114.352C193.945 114.352 193.424 114.081 193.115 113.599C192.652 112.845 192.884 111.86 193.617 111.378C193.848 111.223 199.519 107.727 210.88 105.468C222.782 103.111 230.651 110.837 230.999 111.184C231.616 111.822 231.616 112.826 230.999 113.463C230.381 114.081 229.359 114.081 228.742 113.463C228.452 113.174 221.701 106.607 211.517 108.635C200.734 110.779 195.372 114.081 195.333 114.101C195.063 114.275 194.774 114.352 194.485 114.352Z" fill="black"/>
<path d="M196.278 212.116C195.487 212.116 194.793 211.537 194.697 210.725C194.581 209.837 195.198 209.045 196.066 208.929C221.547 205.55 240.585 187.067 249.921 170.882C259.893 153.597 258.022 130.363 251.753 115.028C244.886 98.2255 233.872 93.5323 228.452 93.4165C221.855 93.2233 219.965 96.3135 219.078 98.9787C218.557 100.524 218.788 103.208 219.734 106.511C219.984 107.361 219.483 108.249 218.634 108.5C217.785 108.751 216.898 108.249 216.647 107.399C215.509 103.363 215.297 100.176 216.03 97.9551C217.805 92.6053 221.894 90.0366 228.51 90.1911C241.684 90.4808 251.175 105.159 254.704 113.792C261.263 129.861 263.192 154.253 252.679 172.485C247.973 180.655 229.995 207.655 196.471 212.097C196.394 212.097 196.336 212.097 196.259 212.097L196.278 212.116Z" fill="black"/>
<path d="M159.879 225.114C154.575 225.114 149.56 224.535 145.586 223.878C144.718 223.743 144.12 222.912 144.255 222.024C144.39 221.155 145.22 220.537 146.088 220.691C152.897 221.811 162.888 222.7 171.819 220.653C180.673 218.605 189.546 213.333 195.429 209.258C196.162 208.756 197.165 208.929 197.666 209.663C198.168 210.397 197.994 211.401 197.261 211.904C191.147 216.133 181.888 221.638 172.552 223.781C168.405 224.747 164.065 225.095 159.899 225.095L159.879 225.114Z" fill="black"/>
<path d="M138.623 165.088C143.06 141.835 159.687 102.726 179.747 102.455C190.8 102.32 200.039 113.966 203.839 121.595C210.474 134.902 208.7 152.264 199.48 161.882C192.632 169.028 190.24 161.805 179.921 163.93C172.996 165.359 161.056 174.571 152.28 177.314C142.539 180.365 140.822 182.663 139.221 181.678" fill="#D5D7D8"/>
<path d="M140.032 183.533C139.492 183.533 138.971 183.397 138.431 183.069C137.679 182.606 137.428 181.621 137.891 180.867C138.354 180.114 139.338 179.863 140.09 180.327C140.322 180.365 141.402 179.863 142.405 179.419C144.295 178.569 147.15 177.275 151.837 175.807C155.946 174.513 160.884 171.713 165.648 168.99C170.895 165.996 175.833 163.176 179.632 162.385C184.378 161.4 187.58 162.249 190.164 162.925C193.424 163.794 195.064 164.219 198.362 160.782C207.081 151.685 208.836 135.153 202.432 122.329C199.269 115.994 190.531 104.078 179.96 104.078C179.903 104.078 179.845 104.078 179.768 104.078C161.771 104.309 144.932 140.483 140.187 165.397C140.013 166.267 139.184 166.846 138.316 166.672C137.448 166.498 136.869 165.668 137.043 164.799C141.267 142.646 158.125 101.142 179.729 100.852C191.92 100.679 201.525 113.367 205.287 120.88C212.269 134.863 210.283 152.96 200.657 163.003C196.067 167.812 192.788 166.942 189.335 166.015C186.962 165.378 184.281 164.683 180.269 165.513C176.971 166.189 172.226 168.893 167.21 171.771C162.292 174.571 157.219 177.488 152.782 178.878C148.288 180.288 145.53 181.524 143.716 182.354C142.193 183.05 141.074 183.552 140.032 183.552V183.533Z" fill="black"/>
<path d="M174.771 122.753L200.734 69.0622L181.098 76.7296L176.623 49.015L157.97 65.1223L152.492 37.736L151.798 37.5236L131.95 57.1073L125.526 33.2939L106.315 53.7081L94.3363 36.3261L85.8105 95.3862L174.771 122.753Z" fill="#FFF200"/>
<path d="M174.772 124.047C174.656 124.047 174.521 124.047 174.386 123.989L85.4255 96.6219C84.8275 96.4288 84.4417 95.8301 84.5382 95.2121L93.0639 36.152C93.141 35.6305 93.5268 35.2056 94.0476 35.0898C94.5684 34.9739 95.0892 35.167 95.3978 35.6112L106.47 51.6992L124.601 32.4052C124.929 32.0769 125.392 31.9224 125.855 32.0383C126.299 32.1541 126.665 32.5018 126.781 32.946L132.625 54.6541L150.911 36.5962C151.239 36.2679 151.741 36.152 152.184 36.2872L152.86 36.4996C153.303 36.6348 153.65 37.0211 153.747 37.4846L158.801 62.7271L175.775 48.049C176.122 47.74 176.624 47.6627 177.048 47.8172C177.492 47.9717 177.8 48.358 177.877 48.8215L182.121 74.9717L200.272 67.8838C200.754 67.6906 201.313 67.8258 201.68 68.2121C202.046 68.5983 202.124 69.1777 201.892 69.6413L175.929 123.332C175.717 123.776 175.254 124.066 174.772 124.066V124.047ZM87.2386 94.4782L174.097 121.208L198.15 71.4567L181.562 77.9267C181.195 78.0619 180.79 78.0426 180.462 77.8494C180.134 77.6563 179.903 77.328 179.826 76.9417L175.698 51.4868L158.801 66.1069C158.453 66.3966 157.971 66.4932 157.547 66.358C157.122 66.2035 156.795 65.8365 156.698 65.3923L151.529 39.5898L132.838 58.034C132.51 58.3623 132.047 58.4782 131.603 58.3623C131.16 58.2464 130.812 57.8988 130.697 57.4546L124.871 35.843L107.222 54.5962C106.952 54.8859 106.585 55.0211 106.2 55.0018C105.814 54.9825 105.467 54.77 105.235 54.4417L95.1278 39.7443L87.2193 94.4782H87.2386Z" fill="black"/>
<path d="M165.011 153.983C165.011 153.983 152.126 178.182 112.487 172.697C72.8483 167.193 71.1123 129.995 71.1123 129.995C71.1123 129.995 65.5956 86.444 112.487 83.1993C159.378 79.9547 175.697 125.882 175.697 125.882C175.697 125.882 191.379 125.592 190.318 139.131C189.276 152.65 175.446 159.68 165.011 154.002V153.983Z" fill="#FAC3C1"/>
<path d="M123.945 175.131C120.338 175.131 116.442 174.861 112.276 174.281C71.7882 168.661 69.5314 130.44 69.5121 130.054C69.4157 129.397 67.236 110.895 78.8287 96.7384C86.2356 87.6997 97.5196 82.601 112.372 81.5774C155.907 78.5645 173.962 117.404 176.797 124.298C179.247 124.453 185.072 125.225 188.776 129.165C191.187 131.734 192.248 135.114 191.92 139.247C191.38 146.2 187.695 152.052 181.793 155.258C176.681 158.039 170.74 158.309 165.629 156.069C162.601 160.627 150.892 175.131 123.945 175.131ZM117.098 84.6482C115.632 84.6482 114.127 84.7062 112.604 84.8027C98.677 85.7684 88.1452 90.4615 81.3169 98.7663C70.5923 111.822 72.6755 129.61 72.6948 129.783C72.7719 131.367 74.8937 165.861 112.7 171.095C150.661 176.367 163.083 154.176 163.604 153.21C163.796 152.844 164.144 152.554 164.549 152.438C164.954 152.322 165.397 152.361 165.764 152.573C170.22 155.007 175.64 154.949 180.25 152.438C185.188 149.753 188.274 144.848 188.718 138.996C188.968 135.809 188.197 133.26 186.422 131.367C182.7 127.408 175.775 127.485 175.717 127.485C175.023 127.447 174.405 127.06 174.174 126.423C174.02 125.998 158.762 84.6482 117.079 84.6482H117.098Z" fill="black"/>
<path d="M174.192 142.878C173.614 142.878 173.054 142.588 172.765 142.047C172.36 141.275 172.591 140.328 173.363 139.904C174.964 138.996 179.921 138.841 181.966 138.803H181.985C182.853 138.803 183.586 139.517 183.586 140.386C183.586 141.275 182.892 142.009 182.004 142.009C179.169 142.047 175.658 142.318 174.945 142.685C174.713 142.801 174.462 142.859 174.212 142.859L174.192 142.878Z" fill="black"/>
<path d="M100.837 147.598C101.974 146.473 101.839 144.491 100.535 143.171C99.2322 141.851 97.2546 141.693 96.1182 142.818C94.9818 143.943 95.1169 145.924 96.4201 147.244C97.7232 148.564 99.7009 148.722 100.837 147.598Z" fill="black"/>
<path d="M108.533 158.135C104.425 158.135 96.902 157.092 90.6138 150.468C89.9966 149.83 90.0351 148.807 90.6717 148.189C91.3082 147.571 92.3305 147.609 92.9285 148.247C100.702 156.435 110.597 154.813 111.021 154.755C111.889 154.601 112.719 155.18 112.873 156.068C113.028 156.938 112.449 157.768 111.581 157.922C111.427 157.942 110.289 158.135 108.533 158.135Z" fill="black"/>
<path d="M113.857 108.075C113.259 108.075 112.68 107.747 112.41 107.167C110.79 103.788 110.269 100.234 110.887 96.8735C111.118 95.676 111.504 94.44 112.102 93.1267C114.474 87.8734 118.814 83.9915 122.055 81.6546C122.769 81.1331 123.772 81.3069 124.292 82.0215C124.813 82.7361 124.64 83.7404 123.926 84.2619C121.013 86.367 117.098 89.8241 115.034 94.44C114.552 95.5215 114.224 96.5065 114.05 97.4528C113.433 100.833 114.397 103.846 115.323 105.777C115.709 106.569 115.362 107.534 114.571 107.921C114.339 108.037 114.108 108.075 113.876 108.075H113.857Z" fill="black"/>
<path d="M102.939 98.2449C102.939 98.2449 102.824 98.2449 102.766 98.2449C101.878 98.1484 101.261 97.3565 101.358 96.4681C102.341 87.7192 111.426 82.7556 111.812 82.5432C112.584 82.1183 113.567 82.4273 113.973 83.1999C114.378 83.9724 114.088 84.9574 113.317 85.3823C113.24 85.4209 105.331 89.7664 104.54 96.835C104.444 97.6655 103.749 98.2642 102.959 98.2642L102.939 98.2449Z" fill="black"/>
<path d="M92.8885 97.6843C92.8885 97.6843 92.7727 97.6843 92.7149 97.6843C91.8276 97.5877 91.2103 96.7959 91.3068 95.9074C92.3098 87.0233 100.932 83.5662 101.298 83.4117C102.128 83.0834 103.054 83.489 103.382 84.3195C103.71 85.1499 103.305 86.077 102.475 86.4053C102.379 86.4439 95.2803 89.3409 94.5088 96.2551C94.4123 97.0856 93.7179 97.6843 92.9271 97.6843H92.8885Z" fill="black"/>
<path d="M138.701 116.226C138.296 116.226 137.891 116.071 137.563 115.762C135.499 113.696 130.638 107.959 130.368 99.423C130.175 93.4552 132.258 88.8007 134.052 85.9423C134.515 85.1891 135.518 84.9574 136.27 85.4402C137.023 85.9037 137.254 86.908 136.772 87.6612C135.229 90.1333 133.416 94.1698 133.589 99.3265C133.821 106.723 138.045 111.706 139.839 113.502C140.475 114.12 140.475 115.144 139.839 115.781C139.53 116.09 139.106 116.264 138.701 116.264V116.226Z" fill="black"/>
<path d="M149.696 119.625C149.233 119.625 148.79 119.432 148.481 119.065C144.662 114.526 140.052 107.071 139.782 97.2794C139.705 94.4982 139.994 91.6978 140.65 88.936C140.862 88.0669 141.711 87.5261 142.579 87.7386C143.447 87.951 143.967 88.8008 143.775 89.6699C143.196 92.1613 142.926 94.6914 143.003 97.1828C143.254 106.048 147.459 112.827 150.95 116.979C151.529 117.655 151.432 118.679 150.757 119.239C150.448 119.49 150.082 119.625 149.716 119.625H149.696Z" fill="black"/>
<path d="M124.427 109.678C123.791 109.678 123.193 109.292 122.942 108.674C121.785 105.777 120.184 99.8861 122.383 93.1844C123.887 88.6071 126.588 85.4784 128.574 83.6436C129.23 83.0449 130.252 83.1028 130.831 83.7595C131.429 84.4161 131.371 85.4397 130.715 86.0384C128.999 87.6028 126.684 90.2874 125.411 94.208C123.521 99.9633 124.909 105.004 125.893 107.496C126.221 108.326 125.816 109.253 125.006 109.581C124.813 109.659 124.601 109.697 124.408 109.697L124.427 109.678Z" fill="black"/>
<mask id="mask2_2445_44366" style="mask-type:luminance" maskUnits="userSpaceOnUse" x="79" y="112" width="23" height="23">
<path d="M99.4021 132.85C103.108 129.261 102.047 122.144 97.0326 116.954C92.0182 111.764 84.949 110.466 81.2432 114.055C77.5374 117.645 78.5982 124.762 83.6127 129.952C88.6271 135.142 95.6963 136.44 99.4021 132.85Z" fill="white"/>
</mask>
<g mask="url(#mask2_2445_44366)">
<path d="M98.7048 133.542C102.728 130.451 102.656 123.597 98.5443 118.231C94.4327 112.866 87.8384 111.023 83.8155 114.114C79.7925 117.204 79.8643 124.059 83.9759 129.424C88.0875 134.789 94.6818 136.633 98.7048 133.542Z" fill="white"/>
<path d="M106.69 127C107.106 121.394 103.473 116.554 98.5756 116.19C93.6781 115.825 89.3706 120.074 88.9545 125.68C88.5385 131.286 92.1714 136.125 97.0689 136.49C101.966 136.854 106.274 132.605 106.69 127Z" fill="black"/>
</g>
<path d="M93.7578 136.813C93.7578 136.813 93.6614 136.813 93.6228 136.813C90.2665 136.755 86.8524 134.978 83.9976 131.772C78.9246 126.075 78.2495 118.775 82.3774 114.429C84.0555 112.652 86.3316 111.687 88.7813 111.687C88.8199 111.687 88.8777 111.687 88.9163 111.687C92.2726 111.744 95.6867 113.521 98.5415 116.727C103.614 122.425 104.29 129.725 100.162 134.071C98.4836 135.847 96.2075 136.813 93.7578 136.813ZM88.7813 114.236C87.026 114.236 85.4443 114.912 84.2291 116.187C81.0464 119.547 81.7408 125.38 85.9072 130.053C88.2798 132.719 91.0381 134.206 93.6614 134.244C95.5131 134.283 97.0755 133.607 98.31 132.294C101.493 128.933 100.798 123.101 96.6319 118.427C94.2593 115.762 91.501 114.275 88.8777 114.236H88.762H88.7813Z" fill="black"/>
<mask id="mask3_2445_44366" style="mask-type:luminance" maskUnits="userSpaceOnUse" x="114" y="130" width="27" height="20">
<path d="M140.602 140.377C140.909 135.159 135.269 130.585 128.006 130.159C120.742 129.734 114.605 133.619 114.298 138.836C113.991 144.054 119.63 148.628 126.894 149.054C134.158 149.479 140.295 145.594 140.602 140.377Z" fill="white"/>
</mask>
<g mask="url(#mask3_2445_44366)">
<path d="M140.602 140.377C140.909 135.159 135.269 130.585 128.006 130.159C120.742 129.734 114.605 133.619 114.298 138.836C113.991 144.054 119.63 148.628 126.894 149.054C134.158 149.479 140.295 145.594 140.602 140.377Z" fill="white"/>
<path d="M140.888 139.713C141.22 134.048 137.481 129.22 132.536 128.929C127.591 128.639 123.313 132.995 122.98 138.66C122.648 144.325 126.388 149.153 131.333 149.443C136.278 149.734 140.556 145.377 140.888 139.713Z" fill="black"/>
</g>
<path d="M128.073 150.758C127.63 150.758 127.205 150.758 126.742 150.719C122.653 150.487 119.143 149.232 116.596 147.108C114.05 144.983 112.758 142.144 112.931 139.151C113.105 136.157 114.725 133.511 117.503 131.696C120.281 129.88 123.907 129.03 127.996 129.281C132.085 129.513 135.596 130.769 138.142 132.893C140.688 135.017 141.981 137.837 141.807 140.85C141.46 146.721 135.77 150.758 128.073 150.758ZM126.684 131.811C123.656 131.811 120.936 132.526 118.911 133.839C116.828 135.211 115.632 137.142 115.497 139.305C115.362 141.468 116.346 143.535 118.255 145.118C120.338 146.876 123.405 147.938 126.897 148.151C133.783 148.556 138.972 145.408 139.242 140.696C139.377 138.533 138.393 136.466 136.483 134.863C134.4 133.125 131.333 132.043 127.842 131.831C127.456 131.811 127.051 131.792 126.665 131.792L126.684 131.811Z" fill="black"/>
<path d="M106.333 112.228C106.005 112.228 105.677 112.093 105.427 111.841C100.007 106.356 91.5387 106.781 91.4615 106.781C90.7671 106.839 90.1499 106.279 90.1113 105.565C90.0727 104.85 90.6128 104.251 91.3265 104.213C91.7316 104.193 101.029 103.73 107.259 110.026C107.761 110.528 107.761 111.339 107.259 111.841C107.008 112.093 106.681 112.208 106.353 112.208L106.333 112.228Z" fill="black"/>
<path d="M144.159 130.42C143.773 130.42 143.388 130.246 143.137 129.899C143.079 129.821 137.948 123.062 130.29 122.405C129.577 122.347 129.056 121.729 129.114 121.015C129.172 120.3 129.789 119.778 130.503 119.836C139.318 120.59 144.95 128.025 145.181 128.354C145.606 128.914 145.49 129.725 144.911 130.15C144.68 130.324 144.41 130.401 144.14 130.401L144.159 130.42Z" fill="black"/>
</g>
<defs>
<clipPath id="clip0_2445_44366">
<rect width="287" height="216" fill="white" transform="translate(2 32)"/>
</clipPath>
</defs>
</svg>
