<svg width="31" height="31" viewBox="0 0 31 31" fill="none" xmlns="http://www.w3.org/2000/svg">
<g clip-path="url(#clip0_4261_20957)">
<path d="M7.97168 9.50024C6.66894 9.50024 5.17921 8.49757 4.99835 7.19259L4.97168 7.1758L4.97174 22.7804C4.97174 24.8344 6.62717 26.4995 8.66923 26.4995H22.5348C22.9432 26.4995 23.2743 26.1665 23.2743 25.7557V10.5002C23.2743 10.0894 22.9717 9.49949 22.4717 9.49949L7.97168 9.50024Z" fill="url(#paint0_linear_4261_20957)"/>
<path d="M21.9717 9.5C21.3985 8.9674 21.0198 8.04661 21.0198 6.99994C21.0198 5.95335 21.3985 5.03261 21.9716 4.5H7.93095C6.29659 4.5 4.97168 5.61929 4.97168 7C4.97168 8.38071 6.29659 9.5 7.93095 9.5H21.9717Z" fill="url(#paint1_linear_4261_20957)"/>
<path d="M19.0508 25.7898C18.988 25.7898 18.9275 25.8143 18.8831 25.8587C18.8387 25.9031 18.8135 25.9636 18.8135 26.0264V30.4157C18.8135 30.4992 18.8571 30.5765 18.9298 30.6193C19.001 30.6614 19.0914 30.6637 19.1641 30.6232L20.4715 29.9097V25.7929L19.0515 25.7891L19.0508 25.7898Z" fill="#E08290"/>
<path d="M24.2596 25.8046L22.8389 25.8008V29.9107L24.1463 30.6242C24.1815 30.6433 24.2206 30.6533 24.2596 30.6533C24.301 30.6533 24.3431 30.6418 24.3806 30.6203C24.4525 30.5775 24.4969 30.5002 24.4969 30.4167V26.0427C24.4969 25.9125 24.3913 25.8061 24.2604 25.8061L24.2596 25.8046Z" fill="#E08290"/>
<path d="M20.4697 25.7939V29.9108L21.6539 29.2647L22.8374 29.9108V25.8008L20.4697 25.7939Z" fill="#FFE4E8"/>
<path d="M21.654 26.8645C24.7922 26.8645 27.3362 24.3205 27.3362 21.1823C27.3362 18.044 24.7922 15.5 21.654 15.5C18.5157 15.5 15.9717 18.044 15.9717 21.1823C15.9717 24.3205 18.5157 26.8645 21.654 26.8645Z" fill="#E08290"/>
<path d="M21.6539 25.4445C24.0079 25.4445 25.9162 23.5362 25.9162 21.1822C25.9162 18.8282 24.0079 16.9199 21.6539 16.9199C19.2999 16.9199 17.3916 18.8282 17.3916 21.1822C17.3916 23.5362 19.2999 25.4445 21.6539 25.4445Z" fill="#FFE4E8"/>
<path d="M24.8669 20.2012C24.8394 20.1155 24.7651 20.0527 24.6763 20.0397L22.735 19.7572L21.8669 17.9981C21.7873 17.8366 21.5217 17.8366 21.4421 17.9981L20.574 19.7572L18.6327 20.0397C18.5439 20.0527 18.4697 20.1147 18.4421 20.2012C18.4146 20.2869 18.4375 20.3811 18.5026 20.4439L19.9073 21.8126L19.575 23.7462C19.5597 23.835 19.5965 23.9246 19.6692 23.9774C19.7419 24.0302 19.8391 24.0371 19.9188 23.9958L21.6549 23.0833L23.391 23.9958C23.4255 24.0141 23.463 24.0233 23.5013 24.0233C23.5503 24.0233 23.5993 24.008 23.6406 23.9781C23.7133 23.9253 23.7501 23.8358 23.7348 23.747L23.4025 21.8133L24.8072 20.4446C24.8723 20.3818 24.8952 20.2877 24.8677 20.202L24.8669 20.2012Z" fill="#E08290"/>
</g>
<defs>
<linearGradient id="paint0_linear_4261_20957" x1="4.97168" y1="26.4995" x2="30.4717" y2="26.4995" gradientUnits="userSpaceOnUse">
<stop stop-color="#E08290"/>
<stop offset="1" stop-color="#FFC7D0"/>
</linearGradient>
<linearGradient id="paint1_linear_4261_20957" x1="4.97168" y1="9.5" x2="28.6569" y2="9.5" gradientUnits="userSpaceOnUse">
<stop stop-color="#EA97A3"/>
<stop offset="1" stop-color="#FFDBE1"/>
</linearGradient>
<clipPath id="clip0_4261_20957">
<rect width="30" height="30" fill="white" transform="translate(0.97168 0.5)"/>
</clipPath>
</defs>
</svg>
