<svg width="31" height="30" viewBox="0 0 31 30" fill="none" xmlns="http://www.w3.org/2000/svg">
<path d="M25.286 5H19.313C17.6688 5 16.0887 5.67716 14.969 6.83769C13.8482 5.67716 12.2692 5 10.625 5H4.65196C3.75383 5 3.02295 5.71655 3.02295 6.59707V21.4383C3.02295 22.3188 3.75383 23.0354 4.65196 23.0354H10.625C12.1552 23.0354 13.6158 23.7519 14.5346 24.9518C14.6367 25.086 14.7985 25.1648 14.969 25.1648C15.1395 25.1648 15.3013 25.086 15.4034 24.9518C16.3211 23.7519 17.7839 23.0354 19.313 23.0354H25.286C26.1842 23.0354 26.915 22.3188 26.915 21.4383V6.59707C26.915 5.71655 26.1842 5 25.286 5Z" fill="url(#paint0_linear_4261_20822)"/>
<path d="M11.1678 9.25905H6.82376C6.52403 9.25905 6.28076 9.02055 6.28076 8.72669C6.28076 8.43283 6.52403 8.19434 6.82376 8.19434H11.1678C11.4675 8.19434 11.7108 8.43283 11.7108 8.72669C11.7108 9.02055 11.4675 9.25905 11.1678 9.25905Z" fill="white"/>
<path d="M11.1678 12.4534H6.82376C6.52403 12.4534 6.28076 12.2149 6.28076 11.921C6.28076 11.6272 6.52403 11.3887 6.82376 11.3887H11.1678C11.4675 11.3887 11.7108 11.6272 11.7108 11.921C11.7108 12.2149 11.4675 12.4534 11.1678 12.4534Z" fill="white"/>
<path d="M11.1678 15.6467H6.82376C6.52403 15.6467 6.28076 15.4082 6.28076 15.1144C6.28076 14.8205 6.52403 14.582 6.82376 14.582H11.1678C11.4675 14.582 11.7108 14.8205 11.7108 15.1144C11.7108 15.4082 11.4675 15.6467 11.1678 15.6467Z" fill="white"/>
<path d="M11.1678 18.8411H6.82376C6.52403 18.8411 6.28076 18.6026 6.28076 18.3087C6.28076 18.0149 6.52403 17.7764 6.82376 17.7764H11.1678C11.4675 17.7764 11.7108 18.0149 11.7108 18.3087C11.7108 18.6026 11.4675 18.8411 11.1678 18.8411Z" fill="white"/>
<path d="M23.1131 9.25905H18.7691C18.4693 9.25905 18.2261 9.02055 18.2261 8.72669C18.2261 8.43283 18.4693 8.19434 18.7691 8.19434H23.1131C23.4128 8.19434 23.6561 8.43283 23.6561 8.72669C23.6561 9.02055 23.4128 9.25905 23.1131 9.25905Z" fill="white"/>
<path d="M23.1131 12.4534H18.7691C18.4693 12.4534 18.2261 12.2149 18.2261 11.921C18.2261 11.6272 18.4693 11.3887 18.7691 11.3887H23.1131C23.4128 11.3887 23.6561 11.6272 23.6561 11.921C23.6561 12.2149 23.4128 12.4534 23.1131 12.4534Z" fill="white"/>
<path d="M23.1131 15.6467H18.7691C18.4693 15.6467 18.2261 15.4082 18.2261 15.1144C18.2261 14.8205 18.4693 14.582 18.7691 14.582H23.1131C23.4128 14.582 23.6561 14.8205 23.6561 15.1144C23.6561 15.4082 23.4128 15.6467 23.1131 15.6467Z" fill="white"/>
<path d="M23.1131 18.8411H18.7691C18.4693 18.8411 18.2261 18.6026 18.2261 18.3087C18.2261 18.0149 18.4693 17.7764 18.7691 17.7764H23.1131C23.4128 17.7764 23.6561 18.0149 23.6561 18.3087C23.6561 18.6026 23.4128 18.8411 23.1131 18.8411Z" fill="white"/>
<path d="M15.1229 19C17.9396 19 20.2229 16.7614 20.2229 14C20.2229 11.2386 17.9396 9 15.1229 9C12.3063 9 10.0229 11.2386 10.0229 14C10.0229 16.7614 12.3063 19 15.1229 19Z" fill="white"/>
<path d="M16.6751 13.2852L14.6622 12.0416C14.5544 11.9754 14.4344 11.9414 14.3069 11.9414C13.9301 11.9414 13.6226 12.2511 13.6226 12.6317V15.1179C13.6226 15.4984 13.9301 15.8081 14.3069 15.8081C14.4344 15.8081 14.5535 15.7741 14.6622 15.7079L16.6741 14.4653C16.8794 14.3375 17.0032 14.117 17.0032 13.8752C17.0032 13.6335 16.8804 13.4129 16.6741 13.2852H16.6751Z" fill="#328EFC"/>
<defs>
<linearGradient id="paint0_linear_4261_20822" x1="4.52295" y1="5" x2="24.0229" y2="22.5" gradientUnits="userSpaceOnUse">
<stop stop-color="#328EFC"/>
<stop offset="1" stop-color="#62AAFF"/>
</linearGradient>
</defs>
</svg>
