<svg width="31" height="31" viewBox="0 0 31 31" fill="none" xmlns="http://www.w3.org/2000/svg">
<rect x="7.63818" y="6.27734" width="16.2222" height="20.2222" rx="2" fill="url(#paint0_linear_4261_20726)"/>
<rect x="11.1938" y="4.5" width="8.88889" height="3.55556" rx="1.77778" fill="#81AF32"/>
<path d="M11.7495 11.6113C11.1972 11.6113 10.7495 12.059 10.7495 12.6113C10.7495 13.1636 11.1972 13.6113 11.7495 13.6113C12.3018 13.6113 12.7495 13.1636 12.7495 12.6113C12.7495 12.059 12.3018 11.6113 11.7495 11.6113Z" fill="white"/>
<path d="M14.6384 11.6113C14.0861 11.6113 13.6384 12.059 13.6384 12.6113C13.6384 13.1636 14.0861 13.6113 14.6384 13.6113H19.5273C20.0796 13.6113 20.5273 13.1636 20.5273 12.6113C20.5273 12.059 20.0796 11.6113 19.5273 11.6113H14.6384Z" fill="white"/>
<path d="M11.7495 15.6113C11.1972 15.6113 10.7495 16.059 10.7495 16.6113C10.7495 17.1636 11.1972 17.6113 11.7495 17.6113C12.3018 17.6113 12.7495 17.1636 12.7495 16.6113C12.7495 16.059 12.3018 15.6113 11.7495 15.6113Z" fill="white"/>
<path d="M14.6384 15.6113C14.0861 15.6113 13.6384 16.059 13.6384 16.6113C13.6384 17.1636 14.0861 17.6113 14.6384 17.6113H19.5273C20.0796 17.6113 20.5273 17.1636 20.5273 16.6113C20.5273 16.059 20.0796 15.6113 19.5273 15.6113H14.6384Z" fill="white"/>
<path d="M11.7495 19.6113C11.1972 19.6113 10.7495 20.059 10.7495 20.6113C10.7495 21.1636 11.1972 21.6113 11.7495 21.6113C12.3018 21.6113 12.7495 21.1636 12.7495 20.6113C12.7495 20.059 12.3018 19.6113 11.7495 19.6113Z" fill="white"/>
<path d="M14.6384 19.6113C14.0861 19.6113 13.6384 20.059 13.6384 20.6113C13.6384 21.1636 14.0861 21.6113 14.6384 21.6113H19.5273C20.0796 21.6113 20.5273 21.1636 20.5273 20.6113C20.5273 20.059 20.0796 19.6113 19.5273 19.6113H14.6384Z" fill="white"/>
<defs>
<linearGradient id="paint0_linear_4261_20726" x1="7.63818" y1="6.49951" x2="22.1382" y2="26.4995" gradientUnits="userSpaceOnUse">
<stop stop-color="#94BF49"/>
<stop offset="1" stop-color="#AAD265"/>
</linearGradient>
</defs>
</svg>
