<svg width="31" height="31" viewBox="0 0 31 31" fill="none" xmlns="http://www.w3.org/2000/svg">
<path fill-rule="evenodd" clip-rule="evenodd" d="M12.6149 6.43207C13.7153 4.20233 16.8948 4.20233 17.9953 6.43207L19.5721 9.62711L23.0981 10.1395C25.5587 10.497 26.5413 13.5209 24.7607 15.2565L22.2093 17.7435L22.8116 21.2552C23.2319 23.706 20.6596 25.5748 18.4588 24.4178L15.3051 22.7598L12.1514 24.4178C9.95049 25.5748 7.37819 23.706 7.79852 21.2552L8.40082 17.7435L5.84943 15.2565C4.06888 13.5209 5.05141 10.497 7.51207 10.1395L11.038 9.62711L12.6149 6.43207ZM15.3051 10.0193L14.3923 11.8688C13.9553 12.7542 13.1106 13.368 12.1335 13.5099L10.0924 13.8065L11.5693 15.2462C12.2764 15.9354 12.599 16.9284 12.4321 17.9016L12.0835 19.9344L13.909 18.9746C14.783 18.5151 15.8271 18.5151 16.7011 18.9746L18.5267 19.9344L18.178 17.9016C18.0111 16.9284 18.3337 15.9354 19.0408 15.2462L20.5177 13.8065L18.4767 13.5099C17.4995 13.368 16.6548 12.7542 16.2179 11.8688L15.3051 10.0193Z" fill="#EEA545"/>
</svg>
