<svg width="31" height="31" viewBox="0 0 31 31" fill="none" xmlns="http://www.w3.org/2000/svg">
<g clip-path="url(#clip0_4261_20938)">
<path d="M25.9017 4.5H5.97168C5.42168 4.5 4.97168 4.95 4.97168 5.5C4.97168 6.05 5.42168 6.5 5.97168 6.5H7.29168V14.16C7.29168 15.82 8.63168 17.16 10.2917 17.16H15.0217V19.54L8.98168 24.64C8.56168 25 8.50168 25.63 8.86168 26.05C9.06168 26.28 9.34168 26.41 9.62168 26.41C9.85168 26.41 10.0817 26.33 10.2617 26.17L15.0117 22.16V25.68C15.0117 26.23 15.4617 26.68 16.0117 26.68C16.5617 26.68 17.0117 26.23 17.0117 25.68V22.22L21.6917 26.17C21.8817 26.33 22.1117 26.41 22.3317 26.41C22.6217 26.41 22.9017 26.29 23.1017 26.05C23.4617 25.63 23.4017 25 22.9817 24.64L17.0117 19.6V17.16H21.5717C23.2317 17.16 24.5717 15.82 24.5717 14.16V6.5H25.8917C26.4417 6.5 26.8917 6.05 26.8917 5.5C26.8917 4.95 26.4417 4.5 25.8917 4.5H25.9017ZM12.3417 14.01C12.3417 14.56 11.8917 15.01 11.3417 15.01C10.7917 15.01 10.3417 14.56 10.3417 14.01V10.81C10.3417 10.26 10.7917 9.81 11.3417 9.81C11.8917 9.81 12.3417 10.26 12.3417 10.81V14.01ZM14.8217 8.7C14.8217 8.15 15.2717 7.7 15.8217 7.7C16.3717 7.7 16.8217 8.15 16.8217 8.7V14.01C16.8217 14.56 16.3717 15.01 15.8217 15.01C15.2717 15.01 14.8217 14.56 14.8217 14.01V8.7ZM21.3017 14.01C21.3017 14.56 20.8517 15.01 20.3017 15.01C19.7517 15.01 19.3017 14.56 19.3017 14.01V10.81C19.3017 10.26 19.7517 9.81 20.3017 9.81C20.8517 9.81 21.3017 10.26 21.3017 10.81V14.01Z" fill="#E58C99"/>
</g>
<defs>
<clipPath id="clip0_4261_20938">
<rect width="21.93" height="22.17" fill="white" transform="translate(4.97168 4.5)"/>
</clipPath>
</defs>
</svg>
