<svg width="31" height="31" viewBox="0 0 31 31" fill="none" xmlns="http://www.w3.org/2000/svg">
<path fill-rule="evenodd" clip-rule="evenodd" d="M12.3052 4.5C7.8869 4.5 4.30518 8.08172 4.30518 12.5V24.5C4.30518 25.6046 5.20061 26.5 6.30518 26.5H18.3052C22.7235 26.5 26.3052 22.9183 26.3052 18.5V12.5C26.3052 8.08172 22.7235 4.5 18.3052 4.5H12.3052ZM10.3052 13C10.3052 12.1716 10.9551 11.5 11.7568 11.5H18.8536C19.6553 11.5 20.3052 12.1716 20.3052 13C20.3052 13.8284 19.6553 14.5 18.8536 14.5H11.7568C10.9551 14.5 10.3052 13.8284 10.3052 13ZM10.3052 19C10.3052 18.1716 10.6951 17.5 11.1761 17.5H15.4342C15.9152 17.5 16.3052 18.1716 16.3052 19C16.3052 19.8284 15.9152 20.5 15.4342 20.5H11.1761C10.6951 20.5 10.3052 19.8284 10.3052 19Z" fill="url(#paint0_linear_4261_19516)"/>
<defs>
<linearGradient id="paint0_linear_4261_19516" x1="6.30518" y1="4.5" x2="23.3052" y2="26.5" gradientUnits="userSpaceOnUse">
<stop stop-color="#E99C35"/>
<stop offset="1" stop-color="#FBC277"/>
</linearGradient>
</defs>
</svg>
