<svg width="529" height="164" viewBox="0 0 529 164" fill="none" xmlns="http://www.w3.org/2000/svg">
<g clip-path="url(#clip0_4282_21580)">
<path d="M27.7881 41.6981C31.8338 40.6289 35.3473 40.6289 38.3284 41.6981C41.3095 42.5535 43.7582 44.0503 45.6746 46.1887C47.804 48.327 49.401 50.8931 50.4657 53.8868C51.5303 56.6667 52.0627 59.4465 52.0627 62.2264C52.0627 67.7862 49.8269 73.0252 45.3552 77.9434C40.8836 82.6478 34.9214 85 27.4687 85C18.5254 85 11.7114 81.8994 7.02687 75.6981C2.34229 69.4969 0 62.1195 0 53.566C0 41.5912 3.3005 30.8994 9.90149 21.4906C16.7154 11.8679 27.2557 4.7044 41.5224 0L48.8687 10.5849C32.6856 16.7862 24.594 26.5157 24.594 39.7736C24.594 40.8428 24.9134 41.4843 25.5522 41.6981C26.404 41.9119 27.1493 41.9119 27.7881 41.6981ZM82.406 41.3774C86.4517 40.3082 89.9652 40.3082 92.9463 41.3774C95.9274 42.2327 98.4826 43.8365 100.612 46.1887C102.741 48.327 104.338 50.8931 105.403 53.8868C106.468 56.6667 107 59.4465 107 62.2264C107 67.7862 104.658 73.0252 99.9731 77.9434C95.5015 82.6478 89.5393 85 82.0866 85C73.1433 85 66.3294 81.8994 61.6448 75.6981C56.9602 69.4969 54.6179 62.1195 54.6179 53.566C54.6179 41.5912 58.0249 30.8994 64.8388 21.4906C71.6527 11.8679 82.0866 4.7044 96.1403 0L103.806 10.5849C87.41 16.7862 79.2119 26.5157 79.2119 39.7736C79.2119 40.6289 79.5313 41.1635 80.1702 41.3774C81.0219 41.5912 81.7672 41.5912 82.406 41.3774Z" fill="white" fill-opacity="0.5"/>
<path d="M500.952 122.302C496.869 123.371 493.322 123.371 490.313 122.302C487.304 121.447 484.833 119.95 482.899 117.811C480.749 115.673 479.137 113.107 478.063 110.113C476.988 107.333 476.451 104.553 476.451 101.774C476.451 96.2138 478.707 90.9748 483.221 86.0566C487.734 81.3522 493.752 79 501.275 79C510.301 79 517.179 82.1006 521.907 88.3019C526.636 94.5032 529 101.881 529 110.434C529 122.409 525.669 133.101 519.006 142.509C512.128 152.132 501.49 159.296 487.09 164L479.675 153.415C496.009 147.214 504.176 137.484 504.176 124.226C504.176 123.157 503.854 122.516 503.209 122.302C502.349 122.088 501.597 122.088 500.952 122.302ZM445.824 122.623C441.74 123.692 438.194 123.692 435.185 122.623C432.176 121.767 429.597 120.164 427.448 117.811C425.299 115.673 423.687 113.107 422.612 110.113C421.537 107.333 421 104.553 421 101.774C421 96.2138 423.364 90.9748 428.093 86.0566C432.606 81.3522 438.624 79 446.146 79C455.173 79 462.051 82.1006 466.779 88.3019C471.507 94.5032 473.872 101.881 473.872 110.434C473.872 122.409 470.433 133.101 463.555 142.509C456.678 152.132 446.146 159.296 431.961 164L424.224 153.415C440.773 147.214 449.048 137.484 449.048 124.226C449.048 123.371 448.725 122.836 448.081 122.623C447.221 122.409 446.469 122.409 445.824 122.623Z" fill="white" fill-opacity="0.5"/>
</g>
<defs>
<clipPath id="clip0_4282_21580">
<rect width="529" height="164" fill="white"/>
</clipPath>
</defs>
</svg>
