<svg width="287" height="180" viewBox="0 0 287 180" fill="none" xmlns="http://www.w3.org/2000/svg">
<g clip-path="url(#clip0_2238_48602)">
<path d="M222.272 249.807C222.272 249.807 212.053 255.693 195.936 254.267C179.832 252.84 164.006 248.79 155.142 248.063C146.292 247.363 141.425 245.862 139.603 242.432C137.776 238.972 139.373 237.669 142.674 236C146.018 234.301 155.08 239.232 161.165 238.747C167.249 238.263 170.774 242.102 174.745 242.648C178.698 243.225 194.449 240.279 207.01 239.188C219.572 238.096 216.88 226.895 219.964 220.419C222.731 214.669 224.16 199.343 224.434 196.129C224.204 197.265 223.128 199.788 217.97 201.954C211.065 204.789 195.605 207.462 173.112 210.209C150.624 212.969 152.115 210.209 152.799 205.049C153.483 199.92 170.253 204.653 176.748 201.148C183.243 197.626 205.21 193.016 211.568 190.146C217.939 187.293 218.504 182.014 217.758 173.851C217.03 165.671 218.901 161.198 217.635 153.551C217.238 151.125 216.92 148.923 216.69 147.07C219.413 142.896 219.457 138.801 219.867 136.402C220.551 132.334 214.18 117.101 214.348 111.183C214.529 105.235 220.352 102.897 220.352 102.897C220.352 102.897 218.102 103.294 213.602 104.324C209.084 105.323 199.386 98.1336 193.046 95.4612C186.737 92.7888 185.078 100.709 181.187 109.752C177.295 118.826 177.538 121.481 171.851 124.198C166.133 126.927 167.774 118.765 171.974 106.811C176.126 94.8536 187.531 92.7932 187.531 92.7932C187.531 92.7932 175.535 85.9954 169.605 83.9613C163.688 81.9581 158.989 90.244 156.025 98.9217C153.06 107.599 149.579 114.186 147.633 128.402C145.687 142.636 145.793 146.718 145.215 153.057C144.655 159.371 143.45 160.828 140.684 160.401C137.917 159.974 138.465 157.108 139.969 148.021C141.474 138.903 144.377 121.376 147.086 109.783C149.821 98.2217 165.938 79.7259 168.189 77.7667C170.452 75.7943 167.293 74.1873 159.492 76.6573C151.661 79.1008 136.351 76.8862 132.107 76.8554C129.932 76.8554 127.88 81.104 126.084 86.1099C126.053 84.8815 125.992 84.2123 125.992 84.2123C125.992 84.2123 122.678 85.379 117.52 84.9255C112.367 84.5161 108.502 90.6931 103.958 98.5651C99.4134 106.442 93.1615 111.813 92.7379 116.682C92.2967 121.552 91.5819 130.383 89.4994 147.651C87.3861 164.918 88.8906 177.589 88.2067 181.944C87.5052 186.285 84.3594 183.11 81.6239 177.682C78.8884 172.236 75.8617 149.808 77.2162 142.949C78.584 136.089 77.7633 124.105 80.212 112.253C82.674 100.388 89.473 92.3925 89.473 92.3925C89.473 92.3925 65.2198 100.555 58.7297 104.077C52.2351 107.599 47.1568 113.895 46.9892 119.024C46.8392 124.154 47.0201 132.329 48.7981 145.533C50.563 158.763 54.4853 165.381 59.8371 175.819C65.1757 186.289 68.5509 194.998 67.4832 198.427C66.389 201.857 52.6587 180.006 48.8731 172.693C45.1008 165.442 38.8533 150.874 35.8708 139.405C32.9191 127.905 34.7898 125.796 34.7898 125.796C34.7898 125.796 27.2187 132.215 20.4374 136.767C13.6693 141.351 6.85705 151.97 5.7805 155.413C4.69955 158.825 2.16261 161.832 4.24511 169.783C6.29672 177.704 14.5561 186.078 22.3081 193.118C30.0777 200.127 32.0411 201.355 42.4227 207.88C52.8219 214.418 51.7586 215.18 50.0247 217.953C48.2775 220.701 38.7122 210.486 32.522 206.621C26.3319 202.768 25.4363 198.639 15.187 189.899C4.95545 181.129 3.67595 173.178 3.67595 173.178C3.67595 173.178 1.53169 179.522 0.543384 186.5C-0.431682 193.465 -2.57595 200.065 -1.44646 207.576C-0.308145 215.118 0.591917 220.247 0.591917 220.247C0.591917 220.247 1.47433 226.71 4.07304 230.704C6.68939 234.679 10.1264 237.607 17.5607 249.138C25.0259 260.638 26.4863 259.471 37.04 262.429C47.6069 265.401 48.5025 268.197 57.2164 269.562C65.9302 270.944 68.5598 271.746 78.5046 267.726C78.5046 267.726 79.0384 266.15 79.4311 267.347C79.8105 268.532 81.3636 273.841 82.4887 282.127C83.627 290.426 88.4052 308.284 92.4158 321.364C96.4131 334.445 99.7751 328.54 104.399 327.902C109.023 327.281 117.856 329.315 117.856 329.315C117.856 329.315 111.939 325.705 108.93 322.412C105.921 319.075 106.605 316.297 103.031 312.748C99.5016 309.169 96.4926 304.251 94.2865 299.364C92.0496 294.477 85.1006 288.744 92.7952 284.311C100.49 279.882 101.571 295.04 101.814 298.739C102.056 302.454 104.293 303.912 108.886 311.713C113.325 319.33 110.408 319.757 119.303 327.92C119.515 328.131 119.757 328.316 119.974 328.558C129.689 337.297 136.744 333.533 144.941 331.746C153.152 329.954 159.25 326.3 159.25 326.3C159.25 326.3 155.447 324.314 151.877 324.129C148.29 323.979 134.255 310.564 128.476 306.06C122.683 301.539 121.54 295.85 117.984 291.994C114.441 288.172 111.551 284.985 112.508 281.678C113.453 278.402 119.334 288.841 123.261 293.618C127.183 298.4 134.163 305.682 145.065 313.267C155.998 320.884 157.185 320.233 163.009 318.925C168.833 317.666 171.264 308.988 173.924 307.65C176.572 306.36 184.796 300.623 186.927 299.307C189.058 298.003 199.761 294.525 199.761 294.525C199.761 294.525 168.771 288.124 162.175 285.936C155.592 283.827 133.589 274.312 128.846 272.705C124.103 271.068 119.616 268.122 124.116 265.529C128.634 262.936 134.913 271.93 139.126 273.027C143.353 274.105 145.59 276.364 152.323 277.579C159.042 278.825 160.763 281.084 166.296 282.981C171.829 284.861 172.773 282.07 181.381 279.613C189.971 277.187 200.022 279.098 203.185 279.644C206.349 280.19 222.285 249.816 222.285 249.816L222.272 249.807ZM59.0871 226.591C57.3973 222.206 59.268 219.855 61.7652 221.07C64.2757 222.255 65.0654 222.528 67.9553 224.135C70.8452 225.742 72.9586 228.397 71.6217 229.717C70.2981 231.021 68.1715 231.509 68.1715 231.509C63.5477 231.633 60.7813 230.932 59.0959 226.591H59.0871ZM45.0082 239.17C44.9773 242.855 40.3402 243.463 32.1735 238.928C24.0244 234.393 22.1669 234.393 5.56431 226.349C5.56431 226.349 29.9542 234.846 35.2443 235.119C40.5343 235.423 45.0038 235.454 45.0038 239.17H45.0082ZM110.832 176.158C106.481 176.009 108.824 159.256 108.948 144.507C109.01 131.092 113.435 119.716 119.043 109.457C118.054 113.706 117.141 118.377 116.338 123.308C114.834 132.668 113.647 151.393 115.822 162.88C117.997 174.367 115.213 176.308 110.836 176.158H110.832ZM98.5177 199.814C101.774 206.55 97.5426 206.81 97.5426 206.81C92.6452 207.691 90.8231 204.534 88.6038 199.893C86.3845 195.249 88.2685 190.26 92.2217 192.123C96.1749 194.003 95.2484 193.065 98.5177 199.814ZM118.01 191.379C112.994 189.499 112.504 182.912 114.498 182.789C116.475 182.683 116.748 180.816 119.757 185.461C122.784 190.089 118.01 191.379 118.01 191.379ZM85.7757 228.872C74.6131 218.645 71.4541 217.311 72.9277 212.424C74.419 207.567 76.0162 206.264 80.0885 209.844C84.1476 213.423 91.5996 224.958 89.8965 227.203C88.1626 229.418 85.7757 228.872 85.7757 228.872ZM87.0816 256.851C88.6479 259.308 87.4787 262.223 84.9241 263.165C82.3695 264.107 79.8767 266.396 79.8767 266.396C82.1269 258.947 85.5198 254.364 87.086 256.851H87.0816ZM175.394 166.023C182.312 161.352 187.999 161.106 195.998 158.966C189.931 162.228 183.013 166.081 177.22 170.012C169.512 175.247 168.308 175.643 163.428 176.519C158.531 177.4 165.969 172.438 175.394 166.019V166.023ZM133.016 238.686C126.265 237.986 121.522 238.215 121.809 232.949C122.113 227.67 122.4 225.042 125.581 225.865C128.727 226.671 133.761 226.957 134.52 230.114C135.297 233.284 136.484 234.754 135.539 236.731C134.595 238.703 133.016 238.69 133.016 238.69V238.686ZM117.675 259.823C115.698 259.946 116.625 257.181 114.803 255.332C112.963 253.466 108.873 251.449 112.583 250.687C116.276 249.913 119.06 250.049 118.531 251.916C117.984 253.752 117.176 254.782 117.176 254.782C119.153 256.525 119.669 259.7 117.679 259.819L117.675 259.823ZM102.775 274.739C100.009 273.027 98.6986 272.481 99.2457 268.003C99.8104 263.526 96.9205 260.356 100.494 260.233C104.068 260.096 104.981 261.038 105.603 264.618C106.256 268.197 106.362 272.005 106.362 272.005C106.071 275.695 105.524 276.483 102.775 274.735V274.739Z" fill="#339B47"/>
<path d="M165.069 269.351C157.256 267.893 149.499 265.921 142.171 262.795C138.491 261.276 134.842 259.7 131.33 257.789C129.565 256.821 127.849 255.773 126.208 254.663C124.549 253.54 122.938 252.356 121.341 251.189C120.534 250.582 119.775 250.005 118.954 249.477C118.147 248.931 117.326 248.385 116.475 247.901C114.803 246.87 113.055 245.928 111.366 244.806C109.663 243.683 108.065 242.331 106.698 240.799C105.573 239.571 104.584 238.25 103.702 236.885C102.533 237.418 101.161 239.769 100.34 242.045C99.7619 243.652 100.08 246.113 100.353 247.566C101.906 249.631 103.499 251.661 105.127 253.637C107.607 256.671 110.161 259.616 112.747 262.588C115.301 265.577 117.794 268.629 120.212 271.724C122.616 274.819 124.955 277.945 127.359 281.04C129.746 284.148 132.177 287.199 134.869 290.021C136.206 291.417 137.635 292.751 139.17 293.935C140.737 295.102 142.378 296.167 144.019 297.198C147.333 299.337 150.695 301.341 154.07 303.344C157.432 305.33 160.838 307.306 164.244 309.248C160.794 307.381 157.357 305.501 153.951 303.542C150.545 301.614 147.139 299.672 143.777 297.607C142.104 296.577 140.463 295.542 138.822 294.42C137.225 293.235 135.751 291.901 134.366 290.506C131.582 287.714 129.089 284.681 126.609 281.612C124.147 278.579 121.743 275.466 119.263 272.419C116.815 269.399 114.291 266.41 111.661 263.526C109.063 260.58 106.429 257.683 103.874 254.694C101.531 251.934 99.2501 249.094 96.9999 246.258C96.9691 246.272 96.9249 246.32 96.8764 246.382C95.7513 247.474 93.8674 250.084 93.9865 251.3C94.1233 252.484 94.5204 252.876 94.5204 252.876C94.5204 252.876 93.7924 252.678 93.1217 254.104C92.6805 255.09 92.6982 257.186 92.7423 258.52C93.5938 260.4 94.4012 262.284 95.1601 264.195C96.2543 266.925 97.2603 269.69 98.2794 272.419C99.2677 275.197 100.287 277.927 101.412 280.613C102.537 283.312 103.799 285.953 105.198 288.52C105.899 289.823 106.627 291.082 107.373 292.328L109.654 296.093L114.154 303.648L123.203 318.701L113.911 303.784L109.288 296.304L106.962 292.588C106.204 291.329 105.427 290.057 104.712 288.793C103.269 286.231 101.928 283.589 100.759 280.89C99.5898 278.204 98.5398 275.457 97.4897 272.741C96.4396 269.993 95.3895 267.246 94.2512 264.561C93.1879 262.011 92.032 259.462 90.801 256.975C90.5716 257.019 90.4216 257.248 90.3157 257.459C90.3774 257.868 90.3907 258.247 90.3907 258.599C90.4039 259.101 90.3907 259.616 90.3774 260.101C90.3024 261.1 90.1789 262.073 90.0112 263.015C89.998 262.042 89.9186 261.074 89.7995 260.101C89.7377 259.691 89.6759 259.264 89.6009 258.841C89.1774 258.674 88.842 258.767 88.6126 258.947L88.8862 259.022L87.7478 262.055C87.5361 262.557 87.3375 263.103 86.989 263.574C86.6095 264.045 86.1242 264.38 85.6212 264.591C85.3609 264.741 85.105 264.833 84.8624 264.926C84.6197 265.032 84.3903 265.168 84.1476 265.291C83.6932 265.564 83.2652 265.899 82.8725 266.264C82.0828 266.991 81.3812 267.84 80.8033 268.752C81.3371 267.81 81.9901 266.929 82.749 266.11C83.1284 265.714 83.5387 265.366 83.9976 265.049C84.227 264.899 84.452 264.745 84.7123 264.653C84.9859 264.53 85.2153 264.411 85.4403 264.257C85.9124 264.015 86.336 263.711 86.6095 263.315C86.8831 262.918 87.0507 262.403 87.2316 261.888L88.0699 259.097L86.9007 256.442C86.914 256.367 86.914 256.292 86.9316 256.231C85.3212 256.517 83.6932 256.882 82.0828 257.261L76.9427 258.458C73.5057 259.246 70.0863 260.083 66.6626 260.933C70.0555 259.96 73.4307 259.004 76.8368 258.093L81.9592 256.697C83.6623 256.27 85.3521 255.804 87.0816 255.451C87.3111 254.602 87.6728 254.373 88.3611 253.813C85.1536 253.844 81.9283 253.813 78.7208 253.844C75.4955 253.844 72.3365 254.514 69.1113 254.998C62.727 255.971 56.2457 256.728 49.7556 256.411C46.5171 256.244 43.2786 255.821 40.1593 254.892C37.0444 253.968 34.0618 252.634 31.2646 250.991C28.4497 249.384 25.8378 247.469 23.3714 245.378C20.9095 243.282 18.5799 241.01 16.5151 238.488C18.5976 241.006 20.9404 243.251 23.3891 245.316C25.8819 247.412 28.4982 249.323 31.3087 250.93C34.1236 252.506 37.0885 253.844 40.2034 254.751C43.3051 255.676 46.5303 256.054 49.7688 256.209C56.2325 256.512 62.6917 255.737 69.0628 254.69C70.6599 254.43 72.2571 254.174 73.8675 253.932C75.4779 253.69 77.1059 253.554 78.7164 253.51C81.9548 253.448 85.1933 253.466 88.4317 253.448V253.734C88.8729 253.369 89.4509 252.84 90.1657 251.929C91.1848 250.608 91.7937 250.322 92.0805 250.26C92.0055 250.216 91.8996 250.111 91.7628 249.943C91.4143 249.503 91.476 249.05 91.6878 248.609C85.0874 245.712 78.4604 242.798 71.7982 239.976C64.8933 237.048 57.9444 234.182 51.088 231.113C44.2317 228.018 37.4503 224.769 30.7881 221.251C24.1568 217.746 17.5916 214.088 11.1897 210.174C17.6666 213.969 24.2803 217.548 30.9734 220.947C37.6621 224.346 44.5052 227.472 51.3792 230.431C58.2841 233.389 65.2772 236.106 72.2394 238.972C79.0649 241.719 85.8771 244.555 92.6585 247.408C93.007 247.042 93.3865 246.712 93.7085 246.346C94.4851 245.466 94.013 245.193 94.2998 244.511C90.8628 241.948 87.4434 239.399 84.0197 236.801C80.1282 233.812 76.2324 230.84 72.4645 227.683C68.7098 224.527 65.0301 221.159 62.0034 217.245C60.4989 215.347 58.84 213.542 57.1369 211.781C55.4339 210.02 53.6999 208.32 51.9528 206.608C48.454 203.165 44.9288 199.779 41.4609 196.292C39.7446 194.531 38.0415 192.788 36.3826 190.996C34.7237 189.147 33.1132 187.324 31.5778 185.382C28.5379 181.561 25.6922 177.554 22.9876 173.486C20.2521 169.392 17.6181 165.279 15.1253 161.075C17.6798 165.231 20.3712 169.33 23.1552 173.367C25.9216 177.404 28.7982 181.363 31.8823 185.158C33.4177 187.055 35.0457 188.904 36.7311 190.652C38.3901 192.427 40.124 194.201 41.8535 195.887C45.3523 199.348 48.9261 202.685 52.469 206.066C54.2338 207.752 55.9986 209.465 57.7458 211.208C59.4621 212.952 61.1652 214.731 62.7314 216.672C65.7581 220.467 69.4069 223.725 73.1792 226.825C76.9515 229.907 80.8738 232.848 84.8094 235.762C88.2596 238.312 91.7584 240.848 95.2263 243.379C96.669 242.027 98.5398 240.346 100.181 237.339C101.306 235.305 101.747 234.063 101.928 233.407C97.8824 229.673 94.2027 225.5 91.026 221.009C87.5758 216.122 84.6418 210.887 81.9504 205.547C79.2899 200.237 76.8412 194.791 74.4852 189.327C72.0983 183.85 69.9981 178.281 68.2642 172.575C64.8139 161.163 62.8373 149.267 63.1991 137.344C63.3977 131.383 64.1742 125.448 65.6302 119.685C66.3582 116.801 67.2715 113.966 68.3833 111.188C68.9436 109.805 69.5216 108.427 70.1922 107.106C70.8761 105.786 71.5776 104.482 72.4292 103.236C71.5909 104.482 70.907 105.786 70.254 107.137C69.5834 108.458 69.0054 109.836 68.4892 111.249C67.4082 113.997 66.5126 116.832 65.8111 119.716C64.4124 125.483 63.6977 131.431 63.5741 137.349C63.3447 149.245 65.414 161.066 68.9701 172.368C70.7482 178.012 72.9101 183.533 75.3411 188.953C77.7413 194.386 80.2385 199.77 82.9431 205.053C85.6654 210.332 88.6303 215.461 92.0981 220.256C95.4116 224.839 99.228 229.057 103.503 232.821C103.87 232.672 104.311 232.399 104.765 231.928C106.164 230.409 107.686 229.031 109.693 225.359C111.714 221.687 112.566 221.079 113.572 219.715C114.242 218.803 114.256 216.831 114.211 215.616C111.886 212.459 109.742 209.152 107.84 205.723C105.467 201.474 103.49 197.014 101.897 192.431C100.318 187.835 99.1442 183.115 98.2927 178.364C97.472 173.583 96.9558 168.775 96.6029 163.963C96.3911 161.506 96.5279 159.076 96.7838 156.663C97.0441 154.268 97.4235 151.856 97.8956 149.487C98.8221 144.754 100.022 140.048 101.377 135.451C102.714 130.793 104.205 126.21 105.771 121.657C107.351 117.105 109.01 112.553 110.805 108.093C109.089 112.583 107.474 117.136 105.939 121.701C104.417 126.298 103.018 130.912 101.725 135.539C100.446 140.166 99.2942 144.868 98.425 149.575C98.0147 151.974 97.6353 154.339 97.4059 156.738C97.2073 159.107 97.1014 161.502 97.3441 163.901C97.7544 168.683 98.3324 173.46 99.2148 178.166C100.11 182.899 101.328 187.557 102.956 192.066C104.567 196.574 106.605 200.928 108.979 205.053C111.03 208.664 113.329 212.063 115.835 215.373C115.972 215.312 116.109 215.281 116.245 215.25C117.768 214.66 119.969 211.442 123.437 206.572C126.905 201.716 129.746 199.713 131.101 195.891C131.846 193.765 132.058 191.96 132.12 190.749C128.926 183.238 126.949 175.287 126.036 167.217C125.017 158.187 125.352 149.007 126.6 140.026C127.862 131.026 130.082 122.212 132.972 113.596C134.414 109.317 136.042 105.068 137.838 100.912C139.647 96.7557 141.579 92.6568 143.799 88.6812C141.624 92.67 139.753 96.7997 138.006 100.987C136.289 105.16 134.723 109.409 133.324 113.715C130.54 122.335 128.489 131.163 127.351 140.118C126.225 149.069 126.027 158.173 127.17 167.098C128.233 175.472 130.452 183.696 133.995 191.374C134.207 191.374 134.45 191.269 134.71 191.04C136.382 189.675 139.775 185.668 142.299 182.666C144.84 179.632 155.619 169.541 156.47 167.917C157.017 166.917 157.397 165.777 157.626 165.064C157.763 159.239 157.503 153.379 157.154 147.554C156.805 141.5 156.426 135.372 157.141 129.301C157.489 126.249 158.098 123.278 158.994 120.363C159.859 117.448 160.865 114.569 161.99 111.729C163.102 108.907 164.315 106.116 165.656 103.399C166.993 100.652 168.409 97.9665 170.006 95.3733C168.453 98.0149 167.072 100.701 165.793 103.461C164.5 106.208 163.313 109 162.237 111.835C161.173 114.67 160.216 117.554 159.395 120.482C158.557 123.396 157.997 126.368 157.706 129.358C157.083 135.381 157.569 141.434 157.992 147.488C158.434 153.102 158.769 158.777 158.738 164.421C159.148 164.377 159.62 164.21 160 163.769C160.865 162.814 167.981 155.787 170.201 152.04C172.407 148.307 179.642 142.482 180.432 141.421C181.085 140.571 181.619 139.66 181.787 139.356C182.184 133.259 183.534 127.218 185.727 121.53C186.865 118.571 188.219 115.78 189.755 113.05C191.308 110.32 193.037 107.692 195.032 105.31C193.068 107.736 191.414 110.409 189.922 113.138C188.431 115.868 187.156 118.721 186.093 121.635C183.993 127.372 182.762 133.408 182.519 139.493C182.731 139.449 183.035 139.233 183.371 138.824C184.434 137.49 191.414 130.234 191.414 130.234C191.414 130.234 183.035 139.673 180.909 141.751C178.764 143.86 175.539 145.604 176.576 146C176.607 146.031 176.638 146.044 176.669 146.031C177.869 145.727 179.1 145.331 180.225 144.785C180.864 144.481 181.487 144.146 182.126 143.891C182.779 143.605 183.463 143.407 184.134 143.178C185.502 142.812 186.869 142.509 188.241 142.284C189.609 142.024 190.946 141.725 192.287 141.36C194.965 140.571 197.546 139.554 200.088 138.388C202.598 137.234 205.06 135.931 207.447 134.474C205.104 135.975 202.656 137.327 200.15 138.568C197.657 139.797 195.071 140.875 192.411 141.694C191.074 142.117 189.706 142.451 188.321 142.724C186.966 143.028 185.616 143.332 184.306 143.724C183.653 143.922 183.013 144.177 182.391 144.437C181.751 144.723 181.16 145.058 180.52 145.379C179.245 146 177.904 146.471 176.554 146.85V146.819C176.069 147.092 175.429 147.607 174.516 148.426C171.992 150.795 165.802 157.544 166.455 157.923C166.622 158.046 166.759 158.134 166.896 158.209C170.258 157.861 173.633 157.209 176.947 156.417C180.688 155.505 184.429 154.414 188.109 153.247C191.789 152.049 195.438 150.759 199.073 149.394C202.709 148.012 206.282 146.586 209.852 145.053C206.34 146.66 202.766 148.21 199.179 149.637C195.574 151.094 191.956 152.472 188.277 153.762C184.628 155.034 180.917 156.219 177.163 157.222C173.39 158.222 169.592 159.072 165.669 159.437V159.375C165.272 159.604 164.831 159.891 164.332 160.318C162.206 162.004 156.88 169.237 154.22 171.972C151.56 174.701 139.788 185.66 140.247 187.024C140.415 187.557 140.732 187.967 141.068 188.301C143.212 189.195 145.449 189.864 147.743 190.274C150.845 190.82 154.039 190.943 157.216 190.727C160.41 190.516 163.574 190.031 166.719 189.393C168.286 189.058 169.865 188.755 171.387 188.301C172.923 187.83 174.414 187.315 175.919 186.694C178.897 185.527 181.773 184.114 184.615 182.595C187.456 181.107 190.258 179.5 192.976 177.814C198.482 174.446 203.816 170.849 208.987 167.027C203.895 170.941 198.632 174.657 193.205 178.118C190.483 179.861 187.716 181.547 184.888 183.11C182.06 184.673 179.17 186.144 176.192 187.39C174.688 188.028 173.183 188.605 171.63 189.102C170.854 189.331 170.077 189.556 169.256 189.754C168.48 189.935 167.69 190.12 166.914 190.269C163.75 190.982 160.543 191.572 157.304 191.819C154.048 192.105 150.765 192.061 147.514 191.546C144.747 191.093 142.007 190.3 139.426 189.177C138.407 189.375 137.344 189.847 136.704 190.908C135.169 193.457 129.42 203.046 125.908 206.674C122.365 210.271 120.525 212.635 120.313 213.608C120.177 214.216 120.86 215.369 121.407 216.113C123.689 217.676 125.983 219.195 128.312 220.648C131.613 222.682 134.97 224.579 138.592 225.852C142.197 227.173 145.996 227.749 149.861 228.128C153.739 228.476 157.586 228.599 161.447 228.476C169.217 228.234 176.942 227.248 184.575 225.865C188.391 225.183 192.208 224.377 195.963 223.47C199.766 222.559 203.534 221.603 207.244 220.467C203.534 221.652 199.792 222.682 196.024 223.655C192.252 224.61 188.453 225.46 184.637 226.248C177.017 227.749 169.278 228.872 161.496 229.207C157.604 229.418 153.664 229.356 149.773 229.057C145.894 228.784 141.959 228.194 138.217 226.917C134.494 225.658 130.982 223.778 127.633 221.744C124.637 219.952 121.703 218.059 118.8 216.131C118.571 216.131 118.376 216.206 118.253 216.311C117.463 216.98 113.25 222.409 112.111 224.716C110.973 226.992 107.368 231.712 106.698 234.125C106.27 235.52 106.865 237.523 107.382 238.888C107.593 239.148 107.805 239.403 108.021 239.646C109.27 241.085 110.699 242.331 112.31 243.441C113.889 244.563 115.592 245.536 117.295 246.597C118.134 247.143 118.985 247.707 119.806 248.284C120.627 248.843 121.434 249.481 122.206 250.089C123.772 251.273 125.339 252.488 126.949 253.593C128.546 254.747 130.205 255.795 131.904 256.763C135.323 258.705 138.915 260.36 142.532 261.954C149.755 265.172 157.419 267.325 165.188 268.871C169.049 269.659 172.958 270.297 176.898 270.799C180.82 271.283 184.791 271.68 188.758 271.847C184.774 271.755 180.82 271.482 176.867 271.059C172.927 270.605 169.005 270.073 165.083 269.359L165.069 269.351Z" fill="#59B047"/>
<path d="M210.575 156.192C210.575 159.287 209.133 161.806 207.368 161.806H13.1664C11.3883 161.806 9.94116 159.287 9.94116 156.192C9.94116 153.097 11.3839 150.579 13.1664 150.579H207.368C209.133 150.579 210.575 153.097 210.575 156.192Z" fill="black"/>
<path d="M95.2925 148.329C95.2617 148.316 95.2175 148.316 95.169 148.298C88.3744 146.599 95.5043 148.558 95.2925 148.329Z" fill="#3F1D2D"/>
<path d="M110.969 155.523C107.607 151.151 104.417 148.633 104.417 148.633C98.5309 144.93 92.6497 146.449 92.6497 146.449L92.8306 147.448C94.5777 148.025 95.2351 148.267 95.2925 148.329C103.883 150.482 100.706 149.984 100.706 149.984C95.8396 151.671 94.6704 153.669 94.6704 153.669C98.8663 154.519 102.061 152.485 102.061 152.485C102.061 152.485 103.217 150.363 105.59 153.819C111.811 162.893 102.899 165.231 102.899 165.231C109.971 166.384 109.971 159.873 109.971 159.873C110.307 162.559 108.97 164.381 108.97 164.381C111.48 163.712 114.335 159.873 110.977 155.519L110.969 155.523Z" fill="#3F1D2D"/>
<path d="M126.905 149.755C126.693 147.933 119.925 146.053 115.196 142.381L113.175 144.173L121.509 149.667C121.509 149.667 121.571 149.698 121.677 149.791C121.633 149.747 121.571 149.698 121.509 149.667C117.159 147.118 116.629 149.289 116.629 149.289C121.284 150.125 125.405 152.371 125.021 155.373C124.655 158.376 124.276 160.26 121.875 160.925C119.475 161.594 116.841 160.833 116.841 160.833L118.041 162.955C118.041 162.955 122.087 164.958 126.526 161.361C128.291 159.948 127.135 151.543 126.905 149.755ZM121.69 149.786C121.69 149.786 121.752 149.817 121.783 149.848C121.752 149.817 121.721 149.786 121.69 149.786ZM122.374 150.182C122.586 150.306 122.828 150.455 123.014 150.561C122.864 150.455 122.648 150.332 122.374 150.182ZM123.181 150.667C123.243 150.698 123.305 150.698 123.331 150.728C123.301 150.728 123.256 150.698 123.181 150.667ZM123.393 150.79L123.437 150.803C123.437 150.803 123.406 150.79 123.393 150.79Z" fill="#3F1D2D"/>
<path d="M54.2516 122.78C34.2561 149.394 27.916 167.754 36.1577 167.115C44.4127 166.477 70.1262 147.783 70.1262 147.783L58.6901 119.623L54.2516 122.78Z" fill="#ECECEC"/>
<path d="M286.56 113.402C250.249 54.5469 200.803 42.9546 182.329 40.6608L180.719 59.5968C180.719 59.5968 240.295 77.5907 286.564 113.402H286.56Z" fill="#F09220"/>
<path d="M280.463 78.9599C270.2 55.5331 245.126 27.1576 184.394 16.415L182.325 40.6607C197.789 42.5715 234.965 51.0071 267.963 88.2452C263.445 73.3156 260.846 62.0579 280.463 78.9599Z" fill="#FDBF1B"/>
<path d="M267.963 88.2453C274.365 95.4965 280.643 103.813 286.56 113.402C286.82 113.6 287.094 113.799 287.336 114.01C287.336 114.01 288.889 98.1558 280.462 78.96C260.846 62.058 263.45 73.3157 267.963 88.2453Z" fill="black"/>
<path d="M181.976 86.6823C189.578 73.3773 187.205 55.8061 189.124 43.4565C191.008 31.1069 197.926 26.3696 197.683 19.7259C197.198 7.35868 175.561 4.05225 175.561 4.05225L157.207 33.973L166.741 54.8683L181.976 86.6866V86.6823Z" fill="black"/>
<path d="M178.447 79.0523C186.534 67.5524 183.128 54.5468 185.899 43.4256C188.683 32.3044 194.732 28.4784 195.72 22.4555C196.721 16.415 190.853 13.474 190.853 13.474L177.11 10.2556L157.573 32.0754L164.505 51.9845L178.447 79.0523Z" fill="white"/>
<path d="M191.723 13.3508C173.871 -5.94184 152.813 5.87062 145.436 15.5346C137.163 26.4137 136.845 42.4219 136.845 42.4219C71.3263 68.6708 44.4436 129.604 50.6028 123.445C56.7621 117.299 56.1973 121.776 56.1973 121.776C56.1973 121.776 37.724 149.694 44.4436 146.357C51.1499 143.019 53.4001 140.21 53.4001 140.21C53.4001 140.21 27.0336 171.694 36.0827 168.612C45.1319 165.517 84.4036 148.417 84.4036 148.417C93.9205 164.091 109.627 145.582 109.627 145.582C123.892 152.225 123.892 132.761 123.892 132.761C123.892 132.761 191.493 118.501 181.976 71.0087C178.447 53.4551 157.798 46.4284 164.84 31.1025C176.73 5.23223 191.723 13.3508 191.723 13.3508Z" fill="black"/>
<path d="M194.824 22.0901C194.824 26.8098 191.101 30.6182 186.49 30.6182C181.879 30.6182 178.173 26.8098 178.173 22.0901C178.173 17.3704 181.884 13.5312 186.49 13.5312C191.096 13.5312 194.824 17.3528 194.824 22.0901Z" fill="#FDBF1B"/>
<path d="M191.586 23.9745C191.586 26.8583 189.305 29.2093 186.49 29.2093C183.675 29.2093 181.412 26.8583 181.412 23.9745C181.412 21.0908 183.679 18.7573 186.49 18.7573C189.3 18.7573 191.586 21.0952 191.586 23.9745Z" fill="black"/>
<path d="M52.35 150.332C15.5402 176.916 0.927429 230.14 6.6587 237.427C9.59272 241.142 30.453 248.504 35.2136 235.82C39.7889 223.65 60.5918 163.624 60.5918 163.624C75.2045 157.918 80.2652 138.286 80.2652 138.286L52.35 150.332Z" fill="black"/>
</g>
<defs>
<clipPath id="clip0_2238_48602">
<rect width="287" height="180" fill="white"/>
</clipPath>
</defs>
</svg>
