<svg width="194" height="220" viewBox="0 0 194 220" fill="none" xmlns="http://www.w3.org/2000/svg">
<g clip-path="url(#clip0_2378_20609)">
<path d="M121.272 289.807C121.272 289.807 111.053 295.693 94.9361 294.267C78.832 292.84 63.006 288.79 54.1421 288.063C45.2915 287.363 40.425 285.862 38.6028 282.432C36.7762 278.972 38.3734 277.669 41.6736 276C45.018 274.301 54.0804 279.232 60.1646 278.747C66.2488 278.263 69.7741 282.102 73.7449 282.648C77.6981 283.225 93.4492 280.279 106.01 279.188C118.572 278.096 115.88 266.895 118.964 260.419C121.731 254.669 123.16 239.343 123.434 236.129C123.204 237.265 122.128 239.788 116.97 241.954C110.065 244.789 94.6052 247.462 72.1125 250.209C49.6242 252.969 51.1154 250.209 51.7993 245.049C52.4832 239.92 69.2534 244.653 75.748 241.148C82.2426 237.626 104.21 233.016 110.568 230.146C116.939 227.293 117.504 222.014 116.758 213.851C116.03 205.671 117.901 201.198 116.635 193.551C116.238 191.125 115.92 188.923 115.69 187.07C118.413 182.896 118.457 178.801 118.867 176.402C119.551 172.334 113.18 157.101 113.348 151.183C113.529 145.235 119.352 142.897 119.352 142.897C119.352 142.897 117.102 143.294 112.602 144.324C108.084 145.323 98.3863 138.134 92.0462 135.461C85.7369 132.789 84.078 140.709 80.1865 149.752C76.2951 158.826 76.5378 161.481 70.8506 164.198C65.1326 166.927 66.7739 158.765 70.9742 146.811C75.1259 134.854 86.5311 132.793 86.5311 132.793C86.5311 132.793 74.5347 125.995 68.6049 123.961C62.6883 121.958 57.9894 130.244 55.0245 138.922C52.0596 147.599 48.5785 154.186 46.6328 168.402C44.6871 182.636 44.793 186.718 44.215 193.057C43.6546 199.371 42.4502 200.828 39.6838 200.401C36.9174 199.974 37.4645 197.108 38.969 188.021C40.4736 178.903 43.3767 161.376 46.0857 149.783C48.8212 138.222 64.9385 119.726 67.1886 117.767C69.452 115.794 66.293 114.187 58.4924 116.657C50.661 119.101 35.3511 116.886 31.1067 116.855C28.9316 116.855 26.88 121.104 25.0843 126.11C25.0534 124.882 24.9916 124.212 24.9916 124.212C24.9916 124.212 21.6782 125.379 16.5205 124.926C11.3672 124.516 7.5022 130.693 2.95778 138.565C-1.58665 146.442 -7.83855 151.813 -8.26211 156.682C-8.70331 161.552 -9.41807 170.383 -11.5006 187.651C-13.6139 204.918 -12.1094 217.589 -12.7933 221.944C-13.4948 226.285 -16.6406 223.11 -19.3761 217.682C-22.1116 212.236 -25.1383 189.808 -23.7837 182.949C-22.416 176.089 -23.2367 164.105 -20.788 152.253C-18.326 140.388 -11.527 132.393 -11.527 132.393C-11.527 132.393 -35.7802 140.555 -42.2703 144.077C-48.7649 147.599 -53.8432 153.895 -54.0108 159.024C-54.1608 164.154 -53.9799 172.329 -52.2019 185.533C-50.437 198.763 -46.5147 205.381 -41.1629 215.819C-35.8243 226.289 -32.449 234.998 -33.5168 238.427C-34.611 241.857 -48.3413 220.006 -52.1269 212.693C-55.8992 205.442 -62.1467 190.874 -65.1292 179.405C-68.0809 167.905 -66.2102 165.796 -66.2102 165.796C-66.2102 165.796 -73.7813 172.215 -80.5626 176.767C-87.3307 181.351 -94.143 191.97 -95.2195 195.413C-96.3005 198.825 -98.8374 201.832 -96.7549 209.783C-94.7033 217.704 -86.4439 226.078 -78.6919 233.118C-70.9223 240.127 -68.9589 241.355 -58.5773 247.88C-48.1781 254.418 -49.2414 255.18 -50.9753 257.953C-52.7225 260.701 -62.2878 250.486 -68.478 246.621C-74.6681 242.768 -75.5637 238.639 -85.813 229.899C-96.0446 221.129 -97.3241 213.178 -97.3241 213.178C-97.3241 213.178 -99.4683 219.522 -100.457 226.5C-101.432 233.465 -103.576 240.065 -102.446 247.576C-101.308 255.118 -100.408 260.247 -100.408 260.247C-100.408 260.247 -99.5257 266.71 -96.927 270.704C-94.3106 274.679 -90.8736 277.607 -83.4393 289.138C-75.9741 300.638 -74.5137 299.471 -63.96 302.429C-53.3931 305.401 -52.4975 308.197 -43.7836 309.562C-35.0698 310.944 -32.4402 311.746 -22.4954 307.726C-22.4954 307.726 -21.9616 306.15 -21.5689 307.347C-21.1895 308.532 -19.6364 313.841 -18.5113 322.127C-17.373 330.426 -12.5948 348.284 -8.58419 361.364C-4.58686 374.445 -1.22486 368.54 3.39898 367.902C8.02283 367.281 16.8558 369.315 16.8558 369.315C16.8558 369.315 10.9392 365.705 7.93017 362.412C4.92114 359.075 5.60501 356.297 2.03124 352.748C-1.49841 349.169 -4.50744 344.251 -6.71348 339.364C-8.95039 334.477 -15.8994 328.744 -8.20475 324.311C-0.510107 319.882 0.570843 335.04 0.813506 338.739C1.05617 342.454 3.29309 343.912 7.88605 351.713C12.3246 359.33 9.40821 359.757 18.3029 367.92C18.5147 368.131 18.7574 368.316 18.9736 368.558C28.6889 377.297 35.7438 373.533 43.9414 371.746C52.1523 369.954 58.2498 366.3 58.2498 366.3C58.2498 366.3 54.4466 364.314 50.8772 364.129C47.2902 363.979 33.2554 350.564 27.4756 346.06C21.6826 341.539 20.5398 335.85 16.9837 331.994C13.4408 328.172 10.5509 324.985 11.5084 321.678C12.4525 318.402 18.3338 328.841 22.2606 333.618C26.1829 338.4 33.1628 345.682 44.065 353.267C54.9981 360.884 56.1849 360.233 62.0088 358.925C67.8328 357.666 70.2638 348.988 72.9243 347.65C75.5715 346.36 83.7956 340.623 85.9266 339.307C88.0577 338.003 98.7613 334.525 98.7613 334.525C98.7613 334.525 67.771 328.124 61.175 325.936C54.5922 323.827 32.5892 314.312 27.8462 312.705C23.1033 311.068 18.6162 308.122 23.1165 305.529C27.6344 302.936 33.9128 311.931 38.1263 313.027C42.3531 314.105 44.59 316.364 51.3228 317.579C58.0424 318.825 59.7631 321.084 65.2958 322.981C70.8286 324.861 71.7727 322.07 80.3807 319.613C88.971 317.187 99.0217 319.098 102.185 319.644C105.349 320.19 121.285 289.816 121.285 289.816L121.272 289.807ZM-41.9129 266.591C-43.6027 262.206 -41.732 259.855 -39.2348 261.07C-36.7243 262.255 -35.9346 262.528 -33.0447 264.135C-30.1548 265.742 -28.0414 268.397 -29.3783 269.717C-30.7019 271.021 -32.8285 271.509 -32.8285 271.509C-37.4523 271.633 -40.2187 270.932 -41.9041 266.591H-41.9129ZM-55.9918 279.17C-56.0227 282.855 -60.6598 283.463 -68.8265 278.928C-76.9756 274.393 -78.8331 274.393 -95.4357 266.349C-95.4357 266.349 -71.0458 274.846 -65.7557 275.119C-60.4657 275.423 -55.9962 275.454 -55.9962 279.17H-55.9918ZM9.83177 216.158C5.48147 216.009 7.82428 199.256 7.94782 184.507C8.00959 171.092 12.4349 159.716 18.0426 149.457C17.0543 153.706 16.141 158.377 15.338 163.308C13.8335 172.668 12.6467 191.393 14.8218 202.88C16.997 214.367 14.213 216.308 9.83618 216.158H9.83177ZM-2.4823 239.814C0.773804 246.55 -3.45737 246.81 -3.45737 246.81C-8.35476 247.691 -10.1769 244.534 -12.3962 239.893C-14.6155 235.249 -12.7315 230.26 -8.77832 232.123C-4.82511 234.003 -5.75164 233.065 -2.4823 239.814ZM17.0102 231.379C11.9937 229.499 11.5039 222.912 13.4982 222.789C15.4748 222.683 15.7483 220.816 18.7574 225.461C21.784 230.089 17.0102 231.379 17.0102 231.379ZM-15.2243 268.872C-26.3869 258.645 -29.5459 257.311 -28.0723 252.424C-26.581 247.567 -24.9838 246.264 -20.9115 249.844C-16.8524 253.423 -9.40042 264.958 -11.1035 267.203C-12.8374 269.418 -15.2243 268.872 -15.2243 268.872ZM-13.9184 296.851C-12.3521 299.308 -13.5213 302.223 -16.0759 303.165C-18.6305 304.107 -21.1233 306.396 -21.1233 306.396C-18.8731 298.947 -15.4802 294.364 -13.914 296.851H-13.9184ZM74.3935 206.023C81.3116 201.352 86.9988 201.106 94.9978 198.966C88.9313 202.228 82.0131 206.081 76.2201 210.012C68.5122 215.247 67.3077 215.643 62.428 216.519C57.5306 217.4 64.9693 212.438 74.3935 206.019V206.023ZM32.0156 278.686C25.2652 277.986 20.5222 278.215 20.809 272.949C21.1134 267.67 21.4002 265.042 24.5813 265.865C27.7271 266.671 32.7613 266.957 33.5201 270.114C34.2967 273.284 35.4835 274.754 34.5393 276.731C33.5951 278.703 32.0156 278.69 32.0156 278.69V278.686ZM16.6749 299.823C14.6983 299.946 15.6248 297.181 13.8026 295.332C11.9628 293.466 7.8728 291.449 11.5834 290.687C15.2762 289.913 18.0603 290.049 17.5308 291.916C16.9837 293.752 16.1763 294.782 16.1763 294.782C18.1529 296.525 18.6691 299.7 16.6793 299.819L16.6749 299.823ZM1.77535 314.739C-0.991018 313.027 -2.30141 312.481 -1.75431 308.003C-1.18957 303.526 -4.07947 300.356 -0.505697 300.233C3.06808 300.096 3.98137 301.038 4.60347 304.618C5.25645 308.197 5.36234 312.005 5.36234 312.005C5.07115 315.695 4.52406 316.483 1.77535 314.735V314.739Z" fill="#339B47"/>
<path d="M64.0693 309.35C56.2555 307.893 48.4991 305.921 41.1707 302.795C37.491 301.276 33.8422 299.7 30.3302 297.789C28.5654 296.82 26.8491 295.773 25.2078 294.663C23.5489 293.54 21.9385 292.356 20.3413 291.189C19.5339 290.582 18.775 290.005 17.9544 289.477C17.147 288.931 16.3263 288.385 15.4748 287.901C13.8026 286.87 12.0554 285.928 10.3656 284.805C8.66257 283.683 7.06541 282.331 5.69767 280.799C4.57259 279.571 3.58428 278.25 2.70187 276.885C1.53267 277.418 0.160523 279.769 -0.660121 282.045C-1.2381 283.652 -0.920434 286.113 -0.646886 287.566C0.906161 289.631 2.49892 291.66 4.12697 293.637C6.60655 296.671 9.16113 299.616 11.7466 302.588C14.3012 305.577 16.794 308.628 19.2118 311.724C21.6164 314.819 23.9548 317.945 26.3594 321.04C28.7463 324.148 31.1773 327.199 33.8687 330.021C35.2056 331.417 36.6351 332.751 38.1705 333.935C39.7367 335.102 41.378 336.167 43.0193 337.198C46.3328 339.337 49.6948 341.341 53.07 343.344C56.432 345.329 59.8381 347.306 63.2442 349.248C59.794 347.381 56.357 345.501 52.9509 343.542C49.5448 341.614 46.1387 339.672 42.7767 337.607C41.1045 336.577 39.4632 335.542 37.8219 334.42C36.2247 333.235 34.7511 331.901 33.3657 330.506C30.5817 327.714 28.0889 324.681 25.6093 321.612C23.1474 318.579 20.7428 315.466 18.2632 312.419C15.8145 309.399 13.2908 306.409 10.6612 303.526C8.06253 300.58 5.42853 297.683 2.87395 294.694C0.53114 291.933 -1.7499 289.094 -4.00005 286.258C-4.03094 286.272 -4.07506 286.32 -4.12359 286.382C-5.24866 287.473 -7.13262 290.084 -7.01349 291.299C-6.87672 292.484 -6.47964 292.876 -6.47964 292.876C-6.47964 292.876 -7.20763 292.677 -7.87826 294.104C-8.31947 295.09 -8.30182 297.186 -8.2577 298.52C-7.40617 300.4 -6.59876 302.284 -5.83988 304.195C-4.74569 306.925 -3.73974 309.69 -2.72055 312.419C-1.73225 315.197 -0.713069 317.927 0.412007 320.613C1.53708 323.311 2.79894 325.953 4.19757 328.52C4.89908 329.823 5.62707 331.082 6.37271 332.328L8.65375 336.093L13.1541 343.648L22.2032 358.7L12.9114 343.784L8.28755 336.304L5.96239 332.588C5.20352 331.329 4.42699 330.056 3.71224 328.793C2.26949 326.23 0.928227 323.589 -0.24097 320.89C-1.41017 318.204 -2.46024 315.457 -3.51031 312.741C-4.56038 309.993 -5.61045 307.246 -6.74877 304.56C-7.81207 302.011 -8.96804 299.462 -10.199 296.974C-10.4284 297.019 -10.5784 297.247 -10.6843 297.459C-10.6226 297.868 -10.6093 298.247 -10.6093 298.599C-10.5961 299.101 -10.6093 299.616 -10.6226 300.1C-10.6976 301.1 -10.8211 302.073 -10.9888 303.015C-11.002 302.042 -11.0814 301.073 -11.2005 300.1C-11.2623 299.691 -11.3241 299.264 -11.3991 298.841C-11.8226 298.674 -12.158 298.766 -12.3874 298.947L-12.1138 299.022L-13.2522 302.055C-13.4639 302.557 -13.6625 303.103 -14.011 303.574C-14.3905 304.045 -14.8758 304.38 -15.3788 304.591C-15.6391 304.741 -15.895 304.833 -16.1376 304.926C-16.3803 305.031 -16.6097 305.168 -16.8524 305.291C-17.3068 305.564 -17.7348 305.899 -18.1275 306.264C-18.9172 306.991 -19.6188 307.84 -20.1967 308.752C-19.6629 307.81 -19.0099 306.929 -18.251 306.11C-17.8716 305.714 -17.4613 305.366 -17.0024 305.049C-16.773 304.899 -16.548 304.745 -16.2877 304.653C-16.0141 304.53 -15.7847 304.411 -15.5597 304.257C-15.0876 304.014 -14.664 303.711 -14.3905 303.314C-14.1169 302.918 -13.9493 302.403 -13.7684 301.888L-12.9301 299.097L-14.0993 296.442C-14.086 296.367 -14.086 296.292 -14.0684 296.23C-15.6788 296.517 -17.3068 296.882 -18.9172 297.261L-24.0573 298.458C-27.4943 299.246 -30.9137 300.083 -34.3374 300.933C-30.9445 299.96 -27.5693 299.004 -24.1632 298.093L-19.0408 296.697C-17.3377 296.27 -15.6479 295.803 -13.9184 295.451C-13.6889 294.601 -13.3272 294.372 -12.6389 293.813C-15.8464 293.844 -19.0717 293.813 -22.2792 293.844C-25.5045 293.844 -28.6635 294.513 -31.8887 294.998C-38.273 295.971 -44.7543 296.728 -51.2444 296.411C-54.4829 296.244 -57.7214 295.821 -60.8407 294.892C-63.9556 293.967 -66.9382 292.633 -69.7354 290.991C-72.5503 289.384 -75.1622 287.469 -77.6286 285.378C-80.0905 283.282 -82.4201 281.01 -84.4849 278.488C-82.4024 281.006 -80.0596 283.251 -77.6109 285.316C-75.1181 287.412 -72.5018 289.323 -69.6913 290.93C-66.8764 292.506 -63.9115 293.844 -60.7966 294.751C-57.6949 295.676 -54.4697 296.054 -51.2312 296.208C-44.7675 296.512 -38.3083 295.737 -31.9372 294.689C-30.3401 294.43 -28.7429 294.174 -27.1325 293.932C-25.5221 293.69 -23.8941 293.554 -22.2836 293.51C-19.0452 293.448 -15.8067 293.466 -12.5683 293.448V293.734C-12.1271 293.369 -11.5491 292.84 -10.8343 291.929C-9.81515 290.608 -9.20629 290.322 -8.91951 290.26C-8.99451 290.216 -9.1004 290.111 -9.23718 289.943C-9.58573 289.503 -9.52396 289.05 -9.31218 288.609C-15.9126 285.712 -22.5396 282.798 -29.2018 279.976C-36.1067 277.048 -43.0556 274.182 -49.912 271.113C-56.7683 268.018 -63.5497 264.769 -70.2119 261.251C-76.8432 257.746 -83.4084 254.088 -89.8103 250.174C-83.3334 253.969 -76.7197 257.548 -70.0266 260.947C-63.3379 264.346 -56.4948 267.472 -49.6208 270.431C-42.7159 273.389 -35.7228 276.106 -28.7606 278.972C-21.9351 281.719 -15.1229 284.554 -8.34152 287.407C-7.99297 287.042 -7.61354 286.712 -7.29145 286.346C-6.51493 285.466 -6.98702 285.193 -6.70024 284.51C-10.1372 281.948 -13.5566 279.399 -16.9803 276.801C-20.8718 273.812 -24.7676 270.84 -28.5355 267.683C-32.2902 264.527 -35.9699 261.158 -38.9966 257.244C-40.5011 255.347 -42.16 253.542 -43.8631 251.781C-45.5661 250.02 -47.3001 248.32 -49.0472 246.608C-52.546 243.165 -56.0712 239.779 -59.5391 236.292C-61.2554 234.531 -62.9585 232.787 -64.6174 230.996C-66.2763 229.146 -67.8868 227.324 -69.4222 225.382C-72.4621 221.561 -75.3078 217.554 -78.0124 213.486C-80.7479 209.391 -83.3819 205.279 -85.8747 201.075C-83.3202 205.231 -80.6288 209.33 -77.8448 213.367C-75.0784 217.404 -72.2018 221.362 -69.1177 225.158C-67.5823 227.055 -65.9543 228.904 -64.2689 230.652C-62.6099 232.426 -60.876 234.201 -59.1465 235.887C-55.6477 239.347 -52.0739 242.685 -48.531 246.066C-46.7662 247.752 -45.0014 249.465 -43.2542 251.208C-41.5379 252.952 -39.8348 254.731 -38.2686 256.672C-35.2419 260.467 -31.5931 263.725 -27.8208 266.825C-24.0485 269.907 -20.1262 272.848 -16.1906 275.762C-12.7404 278.311 -9.24159 280.847 -5.7737 283.379C-4.33096 282.027 -2.46024 280.345 -0.818956 277.338C0.30612 275.304 0.74733 274.063 0.928225 273.407C-3.11764 269.673 -6.7973 265.5 -9.97399 261.009C-13.4242 256.122 -16.3582 250.887 -19.0496 245.546C-21.7101 240.237 -24.1588 234.791 -26.5148 229.327C-28.9017 223.85 -31.0019 218.281 -32.7358 212.575C-36.1861 201.163 -38.1627 189.267 -37.8009 177.344C-37.6023 171.383 -36.8258 165.448 -35.3698 159.685C-34.6418 156.801 -33.7285 153.966 -32.6167 151.188C-32.0564 149.805 -31.4784 148.427 -30.8078 147.106C-30.1239 145.786 -29.4224 144.482 -28.5708 143.236C-29.4091 144.482 -30.093 145.786 -30.746 147.137C-31.4166 148.458 -31.9946 149.836 -32.5108 151.249C-33.5918 153.997 -34.4874 156.832 -35.1889 159.716C-36.5876 165.483 -37.3023 171.431 -37.4259 177.349C-37.6553 189.245 -35.586 201.066 -32.0299 212.368C-30.2518 218.012 -28.0899 223.533 -25.6589 228.953C-23.2587 234.386 -20.7615 239.77 -18.0569 245.053C-15.3346 250.332 -12.3697 255.461 -8.90186 260.256C-5.58839 264.839 -1.77196 269.057 2.50333 272.821C2.86954 272.672 3.31074 272.399 3.76518 271.927C5.1638 270.409 6.68597 269.031 8.69346 265.359C10.7142 261.687 11.5657 261.079 12.5717 259.714C13.2423 258.803 13.2555 256.831 13.2114 255.615C10.8863 252.459 8.74199 249.152 6.84039 245.723C4.4667 241.474 2.49009 237.014 0.897337 232.431C-0.682182 227.834 -1.85579 223.115 -2.70732 218.364C-3.52796 213.583 -4.04418 208.775 -4.39714 203.963C-4.60892 201.506 -4.47214 199.076 -4.21624 196.663C-3.95593 194.268 -3.57649 191.855 -3.1044 189.487C-2.17787 184.754 -0.977787 180.047 0.376716 175.451C1.71357 170.793 3.20485 166.21 4.77113 161.657C6.35065 157.105 8.00959 152.553 9.8053 148.093C8.089 152.583 6.47419 157.136 4.93879 161.701C3.41663 166.298 2.01801 170.912 0.725273 175.539C-0.554225 180.166 -1.70578 184.868 -2.57496 189.575C-2.98528 191.974 -3.36471 194.339 -3.59414 196.738C-3.79268 199.107 -3.89857 201.502 -3.65591 203.901C-3.24559 208.683 -2.66761 213.46 -1.78519 218.166C-0.889543 222.899 0.328178 227.557 1.95623 232.065C3.56663 236.574 5.60502 240.928 7.97871 245.053C10.0303 248.664 12.329 252.062 14.835 255.373C14.9718 255.312 15.1086 255.281 15.2454 255.25C16.7675 254.66 18.9692 251.442 22.437 246.572C25.9049 241.716 28.7463 239.713 30.1008 235.891C30.8464 233.765 31.0582 231.96 31.12 230.749C27.9256 223.238 25.949 215.287 25.0357 207.217C24.0166 198.187 24.3519 189.007 25.6005 180.025C26.8623 171.026 29.0816 162.212 31.9715 153.596C33.4143 149.317 35.0423 145.068 36.838 140.912C38.647 136.756 40.5794 132.657 42.7987 128.681C40.6236 132.67 38.7529 136.8 37.0057 140.987C35.2894 145.16 33.7231 149.409 32.3245 153.715C29.5405 162.335 27.4889 171.163 26.3505 180.118C25.2255 189.069 25.0269 198.173 26.1696 207.098C27.233 215.472 29.4522 223.696 32.9951 231.374C33.2069 231.374 33.4495 231.268 33.7099 231.04C35.382 229.675 38.7749 225.668 41.2986 222.666C43.84 219.632 54.6186 209.541 55.4702 207.917C56.0173 206.917 56.3967 205.777 56.6261 205.064C56.7629 199.239 56.5026 193.379 56.154 187.554C55.8055 181.5 55.426 175.372 56.1408 169.3C56.4894 166.249 57.0982 163.278 57.9939 160.363C58.8586 157.448 59.8646 154.569 60.9897 151.729C62.1015 148.907 63.3148 146.116 64.6561 143.399C65.9929 140.652 67.4092 137.966 69.0064 135.373C67.4533 138.015 66.0724 140.7 64.7929 143.461C63.5001 146.208 62.3133 149 61.2367 151.835C60.1734 154.67 59.216 157.554 58.3954 160.482C57.5571 163.396 56.9968 166.368 56.7056 169.358C56.0835 175.381 56.5688 181.434 56.9923 187.488C57.4335 193.101 57.7689 198.777 57.738 204.421C58.1483 204.377 58.6204 204.209 58.9998 203.769C59.8646 202.814 66.9812 195.787 69.2005 192.04C71.4065 188.307 78.6423 182.482 79.4321 181.421C80.0851 180.571 80.6189 179.66 80.7866 179.356C81.1837 173.258 82.5338 167.218 84.7266 161.53C85.8649 158.571 87.2194 155.78 88.7548 153.05C90.3078 150.32 92.0374 147.692 94.0316 145.31C92.0682 147.736 90.4137 150.408 88.9224 153.138C87.4312 155.868 86.1561 158.721 85.0928 161.635C82.9926 167.372 81.7617 173.408 81.519 179.493C81.7308 179.449 82.0352 179.233 82.3705 178.823C83.4338 177.489 90.4137 170.234 90.4137 170.234C90.4137 170.234 82.0352 179.673 79.9086 181.751C77.7643 183.86 74.5391 185.604 75.576 186C75.6068 186.031 75.6377 186.044 75.6686 186.031C76.8687 185.727 78.0996 185.331 79.2247 184.785C79.8645 184.481 80.4866 184.146 81.1263 183.891C81.7793 183.605 82.4632 183.407 83.1338 183.178C84.5016 182.812 85.8693 182.509 87.2415 182.284C88.6092 182.024 89.946 181.725 91.2873 181.359C93.9654 180.571 96.5465 179.554 99.0878 178.388C101.598 177.234 104.06 175.931 106.447 174.474C104.104 175.975 101.656 177.327 99.1496 178.568C96.6568 179.796 94.0713 180.875 91.4108 181.694C90.074 182.117 88.7063 182.451 87.3209 182.724C85.9664 183.028 84.6163 183.332 83.3059 183.724C82.6529 183.922 82.0132 184.177 81.391 184.437C80.7513 184.723 80.1601 185.058 79.5203 185.379C78.2453 186 76.904 186.471 75.5539 186.85V186.819C75.0686 187.092 74.4288 187.607 73.5155 188.426C70.9918 190.794 64.8017 197.544 65.4547 197.922C65.6223 198.046 65.7591 198.134 65.8959 198.209C69.2579 197.861 72.6331 197.209 75.9466 196.417C79.688 195.505 83.4294 194.413 87.1091 193.247C90.7887 192.049 94.4375 190.759 98.0731 189.394C101.709 188.012 105.282 186.585 108.852 185.053C105.34 186.66 101.766 188.21 98.179 189.637C94.5743 191.094 90.9564 192.472 87.2767 193.762C83.628 195.034 79.9174 196.219 76.1627 197.222C72.3904 198.222 68.5917 199.072 64.6693 199.437V199.375C64.2722 199.604 63.831 199.89 63.3325 200.317C61.2059 202.004 55.8805 209.237 53.22 211.971C50.5595 214.701 38.7882 225.659 39.247 227.024C39.4147 227.557 39.7323 227.966 40.0676 228.301C42.2119 229.195 44.4488 229.864 46.7431 230.273C49.8448 230.819 53.0391 230.943 56.2158 230.727C59.4101 230.516 62.5736 230.031 65.7194 229.393C67.2857 229.058 68.8652 228.755 70.3874 228.301C71.9228 227.83 73.414 227.315 74.9186 226.694C77.8967 225.527 80.7734 224.114 83.6147 222.595C86.4561 221.107 89.2578 219.5 91.9756 217.814C97.4818 214.446 102.816 210.849 107.987 207.027C102.895 210.941 97.6319 214.657 92.205 218.118C89.4828 219.861 86.7164 221.547 83.8883 223.11C81.0601 224.673 78.1702 226.144 75.1921 227.39C73.6876 228.028 72.1831 228.605 70.63 229.102C69.8535 229.331 69.077 229.556 68.2563 229.754C67.4798 229.934 66.6901 230.119 65.9135 230.269C62.7501 230.982 59.5425 231.572 56.3041 231.819C53.048 232.105 49.7654 232.061 46.5137 231.546C43.7473 231.092 41.0074 230.3 38.4264 229.177C37.4072 229.375 36.3439 229.846 35.7041 230.907C34.1687 233.457 28.4198 243.046 24.9078 246.674C21.3649 250.271 19.5251 252.635 19.3133 253.608C19.1765 254.215 19.8604 255.369 20.4075 256.113C22.6885 257.676 24.9828 259.195 27.3124 260.648C30.6126 262.682 33.9702 264.579 37.5925 265.852C41.1971 267.173 44.9959 267.749 48.8609 268.128C52.7391 268.476 56.5864 268.599 60.447 268.476C68.2166 268.234 75.9422 267.247 83.575 265.865C87.3915 265.183 91.2079 264.377 94.9626 263.47C98.7658 262.559 102.534 261.603 106.244 260.467C102.534 261.652 98.7922 262.682 95.0243 263.655C91.252 264.61 87.4532 265.46 83.6368 266.248C76.0172 267.749 68.2784 268.872 60.4955 269.207C56.6041 269.418 52.6641 269.356 48.7727 269.057C44.8945 268.784 40.9589 268.194 37.2175 266.917C33.4937 265.658 29.9817 263.778 26.6329 261.744C23.6371 259.952 20.7031 258.059 17.8 256.131C17.5705 256.131 17.3764 256.205 17.2529 256.311C16.4631 256.98 12.2496 262.409 11.1113 264.716C9.97295 266.992 6.3683 271.712 5.69767 274.124C5.2697 275.52 5.86532 277.523 6.38153 278.888C6.59331 279.148 6.80509 279.403 7.02129 279.645C8.2699 281.085 9.69941 282.331 11.3098 283.441C12.8893 284.563 14.5924 285.536 16.2954 286.597C17.1337 287.143 17.9853 287.707 18.8059 288.284C19.6266 288.843 20.434 289.481 21.2061 290.089C22.7724 291.273 24.3386 292.488 25.949 293.593C27.5462 294.747 29.2051 295.795 30.9038 296.763C34.3231 298.705 37.9146 300.36 41.5325 301.954C48.755 305.172 56.4188 307.325 64.1884 308.871C68.049 309.659 71.9581 310.297 75.898 310.799C79.8204 311.283 83.7912 311.68 87.7577 311.847C83.7736 311.754 79.8204 311.481 75.8671 311.059C71.9272 310.605 68.0048 310.073 64.0825 309.359L64.0693 309.35Z" fill="#59B047"/>
<path d="M109.575 196.192C109.575 199.287 108.133 201.806 106.368 201.806H-87.8336C-89.6117 201.806 -91.0588 199.287 -91.0588 196.192C-91.0588 193.097 -89.6161 190.579 -87.8336 190.579H106.368C108.133 190.579 109.575 193.097 109.575 196.192Z" fill="black"/>
<path d="M9.96855 195.523C6.60655 191.151 3.41663 188.633 3.41663 188.633C-2.46907 184.93 -8.35034 186.449 -8.35034 186.449L-8.16945 187.448C-6.42227 188.025 -5.76488 188.267 -5.70752 188.329C2.88277 190.482 -0.293914 189.984 -0.293914 189.984C-5.16042 191.671 -6.32962 193.669 -6.32962 193.669C-2.13374 194.519 1.06059 192.485 1.06059 192.485C1.06059 192.485 2.21655 190.363 4.59024 193.819C10.8113 202.893 1.89889 205.231 1.89889 205.231C8.97143 206.384 8.97143 199.873 8.97143 199.873C9.30675 202.559 7.96988 204.381 7.96988 204.381C10.4803 203.712 13.335 199.873 9.97738 195.519L9.96855 195.523Z" fill="#3F1D2D"/>
<path d="M25.9051 189.755C25.6934 187.933 18.9253 186.053 14.1955 182.381L12.1748 184.173L20.5092 189.667C20.5092 189.667 20.571 189.698 20.6769 189.791C20.6327 189.747 20.571 189.698 20.5092 189.667C16.1589 187.118 15.6295 189.289 15.6295 189.289C20.2842 190.125 24.4051 192.371 24.0212 195.373C23.655 198.376 23.2756 200.26 20.8754 200.925C18.4752 201.594 15.8412 200.833 15.8412 200.833L17.0413 202.955C17.0413 202.955 21.0872 204.958 25.5257 201.361C27.2905 199.948 26.1346 191.543 25.9051 189.755ZM20.6901 189.786C20.6901 189.786 20.7519 189.817 20.7827 189.848C20.7519 189.817 20.721 189.786 20.6901 189.786ZM21.374 190.182C21.5857 190.306 21.8284 190.455 22.0137 190.561C21.8637 190.455 21.6475 190.332 21.374 190.182ZM22.1814 190.667C22.2431 190.698 22.3049 190.698 22.3314 190.728C22.3005 190.728 22.2564 190.698 22.1814 190.667ZM22.3931 190.79L22.4373 190.803C22.4373 190.803 22.4064 190.79 22.3931 190.79Z" fill="#3F1D2D"/>
<path d="M185.56 153.402C149.249 94.5469 99.8027 82.9546 81.3294 80.6608L79.719 99.5968C79.719 99.5968 139.295 117.591 185.564 153.402H185.56Z" fill="#F09220"/>
<path d="M179.462 118.96C169.2 95.5331 144.126 67.1576 83.3942 56.415L81.325 80.6607C96.7892 82.5715 133.965 91.0071 166.963 128.245C162.445 113.316 159.846 102.058 179.462 118.96Z" fill="#FDBF1B"/>
<path d="M166.963 128.245C173.365 135.497 179.643 143.813 185.56 153.402C185.82 153.6 186.094 153.799 186.336 154.01C186.336 154.01 187.889 138.156 179.462 118.96C159.846 102.058 162.45 113.316 166.963 128.245Z" fill="black"/>
<path d="M80.9764 126.682C88.5783 113.377 86.2047 95.8061 88.1239 83.4565C90.0079 71.1069 96.926 66.3696 96.6833 59.7259C96.198 47.3587 74.5612 44.0522 74.5612 44.0522L56.207 73.973L65.7415 94.8683L80.9764 126.687V126.682Z" fill="black"/>
<path d="M77.4467 119.052C85.534 107.552 82.1279 94.5468 84.8987 83.4256C87.6827 72.3044 93.7316 68.4784 94.72 62.4555C95.7215 56.415 89.8534 53.474 89.8534 53.474L76.1099 50.2556L56.5732 72.0754L63.5046 91.9845L77.4467 119.052Z" fill="white"/>
<path d="M90.7227 53.3507C72.8715 34.058 51.8127 45.8705 44.4357 55.5344C36.1631 66.4135 35.8454 82.4218 35.8454 82.4218C-29.6737 108.671 -56.5564 169.604 -50.3972 163.445C-44.2379 157.299 -44.8027 161.776 -44.8027 161.776C-44.8027 161.776 -63.276 189.694 -56.5564 186.356C-49.8501 183.019 -47.5999 180.21 -47.5999 180.21C-47.5999 180.21 -73.9664 211.694 -64.9173 208.612C-55.8681 205.517 -16.5964 188.417 -16.5964 188.417C-7.07954 204.091 8.62742 185.582 8.62742 185.582C22.8916 192.225 22.8916 172.761 22.8916 172.761C22.8916 172.761 90.4933 158.501 80.9764 111.009C77.4468 93.4549 56.7983 86.4282 63.84 71.1024C75.7305 45.2321 90.7227 53.3507 90.7227 53.3507Z" fill="black"/>
<path d="M93.8245 62.0901C93.8245 66.8098 90.1007 70.6182 85.4901 70.6182C80.8795 70.6182 77.1733 66.8098 77.1733 62.0901C77.1733 57.3704 80.8839 53.5312 85.4901 53.5312C90.0963 53.5312 93.8245 57.3528 93.8245 62.0901Z" fill="#FDBF1B"/>
<path d="M90.5858 63.9745C90.5858 66.8583 88.3048 69.2093 85.4899 69.2093C82.675 69.2093 80.4116 66.8583 80.4116 63.9745C80.4116 61.0908 82.6794 58.7573 85.4899 58.7573C88.3004 58.7573 90.5858 61.0952 90.5858 63.9745Z" fill="black"/>
</g>
<defs>
<clipPath id="clip0_2378_20609">
<rect width="194" height="220" fill="white"/>
</clipPath>
</defs>
</svg>
