<svg width="203" height="180" viewBox="0 0 203 180" fill="none" xmlns="http://www.w3.org/2000/svg">
<path d="M29.3608 85.8906L30.1185 84.213C30.2465 83.9352 30.3641 83.6573 30.5025 83.3864L30.9142 82.5702L31.7377 80.962C31.8691 80.6946 32.0214 80.4341 32.1701 80.1736L32.613 79.3956C34.8065 77.1205 37.1869 75.1789 39.4946 73.0081C40.0862 72.4698 40.664 71.914 41.2383 71.3375C41.8403 70.7713 42.4285 70.1774 43.0028 69.5487C43.5875 68.927 44.2034 68.2879 44.7811 67.5967C45.0614 67.2459 45.3901 66.909 45.6876 66.5478C45.9921 66.19 46.2931 65.8184 46.5906 65.4328C48.8879 62.5673 51.0884 59.6428 52.5242 56.2772L51.6904 56.5168C51.4171 56.6037 51.1472 56.694 50.8739 56.7878L49.2201 57.3574C46.0647 58.514 42.8921 60.6813 40.1485 63.7517C37.4117 66.8152 35.0867 70.7678 33.6509 75.2345L32.6545 76.8218L32.1528 77.6276L31.6858 78.4508L30.7481 80.118C30.4333 80.6807 30.1634 81.2538 29.8693 81.8303C31.0076 74.2481 33.3188 66.8534 36.7094 60.0353C37.1419 59.6081 37.5847 59.1913 38.0207 58.7745L38.6746 58.1562C38.8891 57.9513 39.1071 57.7464 39.3354 57.5519L40.6847 56.3814L41.3525 55.8048L42.0479 55.256C42.771 54.9469 43.4837 54.6517 44.193 54.3669C44.9126 54.1029 45.6323 53.8354 46.3623 53.5645C46.7186 53.4325 47.075 53.2971 47.4348 53.1651C47.7981 53.0366 48.1648 52.9115 48.5316 52.7795C48.8949 52.6476 49.2581 52.5156 49.6214 52.3801C49.9847 52.2447 50.3376 52.0988 50.7147 51.9668C51.4586 51.6959 52.1955 51.4041 52.9325 51.0846C53.6867 50.7789 54.4513 50.4628 55.209 50.0981C55.5827 49.9106 55.984 49.7404 56.375 49.5528C56.7694 49.3653 57.1638 49.1673 57.5582 48.9589C57.9457 48.7436 58.3644 48.5456 58.7726 48.3268C59.1844 48.1114 59.5961 47.8787 60.0078 47.6356C60.8001 47.1945 61.5924 46.7568 62.3466 46.2636C63.1355 45.8156 63.8793 45.3154 64.6197 44.8013C64.9934 44.5547 65.3601 44.2942 65.7165 44.0233C66.0728 43.7524 66.4154 43.4641 66.7683 43.1932C67.1177 42.9153 67.4568 42.6236 67.7854 42.3145C67.9515 42.1616 68.1107 42.0019 68.2698 41.8456C68.4359 41.6927 68.595 41.5399 68.7542 41.3801L67.8927 41.2829L67.0381 41.2238L65.2978 41.1196C61.9557 40.9876 58.2398 41.7935 54.6001 43.5996C50.9673 45.3988 47.4071 48.1844 44.494 51.7862L42.9959 52.8699L42.6188 53.1442L42.2555 53.4325L41.5255 54.0126C41.0411 54.4051 40.536 54.7906 40.0585 55.2004L38.6296 56.4508C40.837 52.5781 43.3903 48.9242 46.2446 45.5412C46.5906 45.107 46.9608 44.7006 47.3345 44.2908L48.4416 43.0577C48.8084 42.6444 49.2062 42.2624 49.5903 41.8664L50.7493 40.6855L51.9533 39.5532L52.5553 38.987L52.8564 38.7057L53.1677 38.4348L54.4133 37.3546L55.036 36.8162C55.2471 36.6425 55.4651 36.4723 55.6796 36.3021L56.8421 35.7256C57.2296 35.538 57.6067 35.3331 58.0046 35.1629C58.7934 34.8086 59.5753 34.4543 60.3503 34.0931C61.1461 33.7632 61.9349 33.4228 62.7168 33.072C63.1043 32.8879 63.5126 32.742 63.907 32.5683C64.3049 32.4016 64.7028 32.2279 65.0972 32.0508C68.2837 30.6789 71.4909 29.2235 74.9196 27.3584C75.3521 27.1257 75.7742 26.8721 76.1997 26.6394C76.6253 26.4101 77.0474 26.174 77.4591 25.9308C77.8708 25.6877 78.2756 25.4341 78.6735 25.1806C79.0748 24.9409 79.4658 24.6943 79.8464 24.4408C80.2269 24.1838 80.5971 23.9198 80.9535 23.6489C81.3064 23.3675 81.6593 23.1209 81.9914 22.8431C82.6557 22.2943 83.2647 21.7038 83.794 21.0717C82.2959 21.1516 80.7632 21.1759 79.2513 21.3495C74.6878 21.7629 70.062 23.2494 65.976 25.6009C61.8899 27.9592 58.3609 31.1721 55.7799 34.76C53.6037 36.4411 51.5624 38.3062 49.5903 40.2374L48.1406 41.7205C47.895 41.9637 47.6632 42.2207 47.4348 42.4812L46.7394 43.2522C45.7949 44.263 44.9368 45.3571 44.0477 46.4199L44.7708 44.5825L45.141 43.6552L45.5423 42.7451L46.3623 40.9112C46.6425 40.2999 46.9539 39.7095 47.2515 39.1016C50.5833 35.2567 53.8147 31.5229 56.8663 27.9975C59.9524 24.4165 62.8691 20.9188 65.3947 17.5185C65.6092 17.2128 65.8341 16.9245 66.0625 16.6328L66.7475 15.7575C67.2077 15.174 67.6747 14.587 68.1522 14C66.9482 14.2813 65.7407 14.6391 64.5574 15.0906C63.9727 15.3303 63.388 15.5873 62.8137 15.8617C62.5265 15.9972 62.2394 16.1396 61.9522 16.282L61.5232 16.5008L61.1045 16.7404C58.873 18.0117 56.7763 19.5573 54.9149 21.2696C50.9327 24.9201 48.5835 28.6609 47.0439 32.2002C46.6702 33.0998 46.3381 33.982 46.0405 34.8468C45.8883 35.274 45.7568 35.7186 45.6357 36.1528C45.5112 36.5904 45.3935 37.0211 45.2828 37.4518C45.0579 38.3097 44.8538 39.1503 44.6947 40.0116C44.5286 40.8661 44.3729 41.7101 44.2207 42.5437C43.9681 43.1342 43.7328 43.7385 43.4941 44.329L43.1412 45.2147C43.0236 45.5099 42.9059 45.8017 42.8021 46.1073L42.1724 47.903L41.8645 48.7922L41.5877 49.6987C37.1384 55.9715 33.6405 62.9876 31.3398 70.4136L31.3536 68.4233C31.3605 68.0899 31.3536 67.7495 31.3709 67.4196L31.4228 66.4193L31.5335 64.3978C31.5889 63.724 31.6581 63.0536 31.7238 62.3763C33.4676 57.5241 35.1559 52.8143 36.7544 48.3684C38.3597 43.8566 39.844 39.4941 40.9823 35.3609C41.176 34.6384 41.3974 33.9333 41.6154 33.2109C41.8368 32.4954 42.0548 31.7591 42.297 31.0436C41.2694 31.7521 40.2903 32.5649 39.3423 33.4262C38.8856 33.8743 38.4358 34.3363 37.9965 34.8121C37.7785 35.0483 37.5605 35.2914 37.346 35.5345C37.1315 35.7777 36.917 36.0208 36.7198 36.2813C36.3184 36.7919 35.9275 37.3164 35.5469 37.8443C35.1663 38.3722 34.7927 38.9071 34.4571 39.4663C34.1145 40.0221 33.7859 40.5813 33.4641 41.1439C33.3049 41.4253 33.1423 41.7032 32.997 41.9914C32.8552 42.2797 32.7099 42.568 32.568 42.8563C30.1496 47.7745 29.2846 52.1544 29.0978 56.0375C29.0667 57.0205 29.0736 57.9687 29.0978 58.8891C29.1082 59.1183 29.1151 59.3476 29.1255 59.5733C29.1428 59.8026 29.1635 60.0318 29.1808 60.2576C29.2189 60.7126 29.2639 61.1606 29.3123 61.6018C29.4853 63.3593 29.8209 65.0786 30.1288 66.7492C30.1081 67.0688 30.1012 67.3952 30.0977 67.7183L30.0839 68.6873C30.0769 69.3299 30.0631 69.969 30.0666 70.6046L30.1254 72.5184C30.1531 73.154 30.1531 73.7757 30.2119 74.4079C28.2778 81.9519 27.6066 89.8224 28.0529 97.6027C27.9319 97.297 27.8004 96.9914 27.6897 96.6822L27.3644 95.7514L26.714 93.8619C26.6067 93.5458 26.4926 93.2263 26.3957 92.9067L26.1155 91.9412L25.555 89.9892C25.4235 84.866 25.3785 79.8575 25.2609 75.04C25.1432 70.2225 24.9876 65.5961 24.5724 61.31C24.5101 60.5702 24.4582 59.8234 24.4063 59.0662L24.3336 57.9305C24.3094 57.5484 24.2852 57.1663 24.2783 56.7878C24.0915 57.0483 23.9254 57.3157 23.7593 57.5901C23.5932 57.8645 23.4341 58.1423 23.2749 58.4202C22.9601 58.9829 22.6556 59.556 22.3685 60.1395C21.8287 61.3239 21.3478 62.5535 20.9327 63.8038C20.7424 64.436 20.5625 65.0751 20.3998 65.7142C20.3168 66.0337 20.2372 66.3533 20.1611 66.6763L20.0504 67.1591L19.957 67.6453C19.8393 68.2948 19.7321 68.9443 19.6352 69.5904C19.5418 70.2364 19.4449 70.879 19.4034 71.5285C19.1508 74.2794 19.22 76.7628 19.4934 79.01C19.6456 80.1354 19.8255 81.2017 20.0504 82.2159C20.2995 83.2336 20.5797 84.1991 20.8738 85.1196C22.1332 88.8048 23.8078 91.7953 25.6449 94.6608L26.2642 96.4808C26.3611 96.783 26.4787 97.0817 26.5998 97.3804L26.9527 98.2695C27.4267 99.4505 27.873 100.614 28.4197 101.75L28.5961 103.202C28.6584 103.684 28.7069 104.171 28.7968 104.65L29.2916 107.529C29.6998 109.433 30.0908 111.343 30.6374 113.208L31.0215 114.615C31.1599 115.08 31.319 115.539 31.4643 116.004L31.9141 117.39L32.139 118.081C32.2186 118.311 32.3085 118.536 32.395 118.762L33.426 121.482L34.5816 124.149L33.2876 122.69L32.6337 121.951C32.4158 121.701 32.222 121.443 32.011 121.186L30.7724 119.63L30.1531 118.839L29.5683 118.026C27.6447 113.246 25.7764 108.606 24.0153 104.23C22.1782 99.7978 20.4656 95.5569 18.5454 91.7467L17.5732 89.7321L17.331 89.2216L17.1061 88.7075L16.6598 87.669C15.4938 92.6775 15.9678 98.2418 17.3414 103.205C18.0506 105.859 19.0263 108.137 20.0469 110.131C20.5901 111.121 21.1437 112.041 21.7042 112.899C21.846 113.114 21.981 113.326 22.1297 113.531C22.282 113.733 22.4342 113.934 22.583 114.136C22.8874 114.532 23.1884 114.914 23.4964 115.285C24.6865 116.775 26.0151 118.029 27.2987 119.189C27.9284 119.773 28.6204 120.304 29.2846 120.825C29.9524 121.346 30.6201 121.853 31.2775 122.35C32.1148 123.319 32.9486 124.271 33.7755 125.202C34.6508 126.108 35.5158 126.997 36.3807 127.869C38.1833 131.29 40.2453 134.559 42.5288 137.647L43.3972 138.796L43.8297 139.373C43.975 139.564 44.1342 139.744 44.2864 139.928L46.127 142.137L48.0645 144.256C48.3794 144.617 48.7253 144.947 49.0644 145.284L50.0816 146.295L48.3517 145.444L47.9157 145.229L47.4936 144.996L46.646 144.524L44.9334 143.565C44.366 143.235 43.8193 142.877 43.2588 142.527C39.7748 138.831 36.3946 135.239 33.2081 131.853C32.8033 131.426 32.3916 131.002 31.9798 130.585C31.5681 130.168 31.1875 129.738 30.7862 129.321C30.3883 128.904 29.987 128.494 29.5787 128.091C29.3781 127.89 29.167 127.692 28.9733 127.487C28.776 127.282 28.5823 127.081 28.3886 126.879C27.6101 126.077 26.8074 125.302 26.0117 124.552C25.2436 123.788 24.4651 123.052 23.6797 122.35C23.4064 122.107 23.1296 121.86 22.8563 121.61L22.0675 120.843C21.5416 120.329 21.0122 119.804 20.4829 119.269C20.5763 119.905 20.6905 120.544 20.8219 121.18C20.9534 121.815 21.0987 122.454 21.3029 123.076C21.4966 123.701 21.7042 124.323 21.9291 124.941C22.1609 125.556 22.3789 126.181 22.666 126.772C22.9428 127.369 23.2334 127.959 23.531 128.543C23.6797 128.835 23.8354 129.126 23.9877 129.415C24.1434 129.703 24.2956 129.991 24.472 130.266C25.1605 131.377 25.8733 132.461 26.6171 133.489C27.4509 134.566 28.2744 135.552 29.0874 136.459C29.9351 137.341 30.7827 138.136 31.6096 138.866C31.8172 139.046 32.0179 139.23 32.2324 139.394C32.4469 139.557 32.6614 139.72 32.8725 139.883C33.298 140.203 33.7167 140.505 34.1353 140.79C34.5539 141.078 34.9657 141.353 35.3774 141.61C35.796 141.863 36.2216 142.096 36.6367 142.318C37.4706 142.766 38.2905 143.166 39.1001 143.534C39.9305 143.881 40.7539 144.187 41.5601 144.472C43.155 145.062 44.8019 145.458 46.3796 145.875C46.9159 146.191 47.4867 146.462 48.0438 146.743L49.7079 147.57C50.2511 147.851 50.8324 148.084 51.3894 148.33L53.0674 149.053C55.9494 151.543 59.0114 153.804 62.2255 155.808L64.6612 157.264L67.1627 158.598C67.5744 158.83 68.0069 159.021 68.4324 159.223L69.7126 159.827L70.3526 160.129C70.5637 160.23 70.7782 160.331 70.9996 160.418L72.3074 160.956C71.6743 160.918 71.0342 160.886 70.3941 160.841L68.4843 160.633L67.519 160.522C67.1973 160.484 66.8686 160.452 66.5538 160.393L64.6266 160.074C60.0839 157.965 55.6761 155.923 51.5139 153.992C47.2861 152.054 43.2 150.244 39.2973 148.824C37.9549 148.317 36.6125 147.768 35.239 147.195C35.8687 148.296 36.5779 149.372 37.346 150.411C38.1521 151.415 39.0171 152.384 39.9201 153.311C40.8543 154.211 41.8368 155.051 42.8367 155.857C43.8574 156.639 44.9195 157.347 45.9713 158.024C46.1132 158.115 46.2516 158.205 46.3934 158.288C46.5387 158.368 46.6806 158.452 46.8224 158.532C47.1061 158.688 47.3898 158.841 47.6701 158.993C48.2306 159.292 48.7772 159.574 49.317 159.834C49.8498 160.105 50.3999 160.32 50.9327 160.532C51.4655 160.741 51.9914 160.932 52.5069 161.112C52.7629 161.199 53.019 161.282 53.2715 161.366C53.3995 161.407 53.5241 161.446 53.6486 161.484C53.7767 161.519 53.9047 161.55 54.0327 161.585C54.5413 161.717 55.0395 161.835 55.5308 161.939C56.0221 162.043 56.503 162.137 56.9804 162.22C57.2192 162.262 57.451 162.304 57.6863 162.335C57.925 162.359 58.1602 162.387 58.3955 162.411C59.3331 162.505 60.2396 162.561 61.1218 162.585C61.3433 162.588 61.5612 162.595 61.7792 162.599C62.0006 162.592 62.2221 162.588 62.44 162.581C62.876 162.568 63.3084 162.547 63.7375 162.522C64.5955 162.47 65.4224 162.415 66.2528 162.317C67.0866 162.21 67.91 162.095 68.7231 161.977C69.9478 162.144 71.1968 162.196 72.4181 162.272C73.6325 162.37 74.8642 162.349 76.0682 162.359C76.4869 162.502 76.9021 162.661 77.3276 162.793L78.6043 163.172L79.881 163.55L80.5176 163.738L81.1646 163.894L83.749 164.516C84.6174 164.69 85.4893 164.843 86.3577 165.009L87.0116 165.131L87.3369 165.19L87.6655 165.235L88.9803 165.409L90.295 165.582C90.513 165.61 90.7344 165.645 90.9524 165.662L91.6132 165.714L94.2565 165.923C95.1387 165.961 96.0245 165.975 96.9067 165.999C97.5122 166.017 98 165.766 98 165.443C98 165.12 97.5191 164.846 96.924 164.832L94.4329 164.766L91.9488 164.568C91.5371 164.53 91.1184 164.516 90.7067 164.457L89.4716 164.294L88.2364 164.131C87.8247 164.078 87.413 164.026 87.0047 163.943L85.4443 163.043L84.6763 162.595L84.2957 162.373L83.9186 162.13L82.4308 161.157L81.6974 160.675L81.3341 160.435C81.213 160.352 81.0954 160.261 80.9777 160.174C80.4726 159.549 79.9813 158.927 79.5004 158.313C79.2616 158.007 79.0229 157.698 78.7842 157.392C78.5524 157.073 78.3206 156.753 78.0888 156.43C77.6252 155.791 77.165 155.162 76.6945 154.541C76.4557 154.239 76.2309 153.898 75.9921 153.579C75.7569 153.256 75.5216 152.933 75.2794 152.616C74.3003 151.377 73.3108 150.025 72.1725 148.772C71.6224 148.101 71.0377 147.445 70.4114 146.799C70.3319 146.719 70.2523 146.639 70.1727 146.556C70.0966 146.472 70.017 146.385 69.9375 146.299C69.7783 146.128 69.6192 145.958 69.46 145.788C69.1348 145.448 68.7992 145.111 68.4497 144.777C65.848 142.203 63.1666 139.755 60.0285 138.056C60.2777 139.209 60.5302 140.411 60.8693 141.554C61.7654 144.937 63.6717 148.341 66.4465 151.38C69.2144 154.416 72.8714 157.048 77.0577 158.823C78.0057 159.629 79.0056 160.331 80.0159 161.071C81.0227 161.835 82.0779 162.474 83.1436 163.168L81.7977 162.845L81.123 162.682C80.8981 162.63 80.6733 162.574 80.4553 162.505L77.7981 161.72L77.466 161.619L77.1373 161.505L76.4834 161.275L75.1756 160.813C74.2968 160.525 73.4457 160.15 72.5877 159.803L71.3006 159.275C70.8751 159.094 70.4599 158.882 70.0378 158.688L68.7784 158.094L68.1487 157.799C67.9411 157.694 67.737 157.58 67.5329 157.472L65.073 156.159L62.6753 154.725C62.2774 154.273 61.9176 153.77 61.5439 153.29L60.4506 151.849L60.1808 151.491L59.9213 151.119L59.4127 150.376L58.4094 148.9C58.2744 148.528 58.1568 148.139 58.0426 147.75L57.7001 146.597C57.5894 146.219 57.4787 145.837 57.3679 145.458C57.2607 145.076 57.1431 144.711 57.0462 144.315C56.8455 143.537 56.6448 142.77 56.4303 142.006C56.3231 141.627 56.2158 141.241 56.1051 140.856C56.0048 140.463 55.8975 140.071 55.7868 139.678C54.8734 136.573 53.8147 133.353 52.199 129.755C50.6836 126.365 49.0506 123.066 46.7359 120.29L46.4661 122.072C46.4003 122.663 46.3415 123.257 46.2827 123.861C46.089 125.615 46.1858 127.428 46.4349 129.349C46.5941 130.287 46.7948 131.245 47.0404 132.225C47.0992 132.471 47.1684 132.714 47.248 132.951C47.3276 133.19 47.4037 133.43 47.4833 133.673C47.6459 134.156 47.8189 134.646 47.9988 135.135C49.5038 139.018 51.9776 142.87 55.2367 146.135C55.5308 146.694 55.8664 147.212 56.1916 147.75L57.188 149.365C57.3541 149.64 57.534 149.897 57.7105 150.157L58.2502 150.942L59.347 152.526C56.3023 150.362 53.4238 147.945 50.7389 145.323L49.7391 144.329L49.2374 143.832L48.7599 143.311C48.1268 142.617 47.4833 141.926 46.857 141.224L45.0476 139.046C44.7396 138.692 44.4663 138.303 44.1791 137.928L43.3246 136.796L43.0305 135.924C42.9336 135.635 42.8575 135.33 42.7675 135.035L42.2659 133.27L42.0202 132.398C41.9441 132.103 41.8818 131.804 41.8092 131.509L41.4078 129.745C41.4217 129.342 41.4286 128.946 41.4563 128.543L41.5531 127.338C41.6189 126.549 41.6846 125.761 41.7503 124.965C41.8334 124.177 41.9164 123.385 41.9995 122.579C42.079 121.784 42.124 120.999 42.2174 120.176C42.2935 119.36 42.3524 118.543 42.387 117.713C42.4319 116.88 42.4942 116.018 42.5011 115.15C42.5011 114.934 42.5011 114.716 42.5011 114.493C42.5011 114.386 42.5011 114.275 42.4977 114.163C42.4977 114.052 42.5046 113.938 42.508 113.827C42.5184 113.375 42.5184 112.92 42.5115 112.458C42.5046 111.996 42.4838 111.531 42.4562 111.055C42.4492 110.575 42.4354 110.086 42.4112 109.589C42.207 105.866 41.8645 102.177 40.6916 98.7002C40.3733 99.2108 40.1173 99.7249 39.8336 100.249L39.0033 101.844C37.474 104.935 36.5675 108.78 36.5848 112.976C36.6056 117.161 37.5467 121.687 39.4219 125.973C39.6329 127.206 39.8578 128.46 40.1035 129.72L40.5394 131.593L40.7643 132.537C40.837 132.853 40.9131 133.173 41.0065 133.479C38.9375 130.3 37.1073 126.959 35.5296 123.489C35.1525 122.614 34.765 121.742 34.3948 120.863L33.3811 118.186C33.2046 117.741 33.0628 117.286 32.914 116.831L32.4711 115.466C32.3293 115.011 32.1632 114.559 32.0421 114.097L31.665 112.712L31.7584 110.867C31.8103 110.252 31.876 109.638 31.9383 109.03L32.1251 107.22C32.2047 106.619 32.3051 106.019 32.395 105.425C32.7168 104.685 33.0316 103.962 33.3638 103.25C33.7167 102.542 34.0661 101.833 34.4225 101.118C35.0867 99.711 35.8721 98.2973 36.5399 96.8455C36.6229 96.6649 36.7059 96.4808 36.789 96.2967C36.8789 96.1126 36.9689 95.9285 37.0623 95.741C37.2422 95.3693 37.4187 94.9942 37.5882 94.6121C37.9376 93.8515 38.2248 93.0735 38.5812 92.2642C38.7507 91.8613 38.9133 91.4514 39.0655 91.0312C39.2212 90.6144 39.3631 90.1871 39.5361 89.753C39.6987 89.3188 39.8544 88.8777 40.0031 88.4262C40.1519 87.9746 40.2868 87.5092 40.4529 87.0403C41.5774 83.4906 42.5599 79.927 42.6983 76.2557L42.0133 76.801L41.6708 77.0789L41.3421 77.3637L40.017 78.5307C37.4948 80.8161 35.3151 84.0533 33.862 87.9677C33.5091 88.9472 33.1493 89.9614 32.9071 91.0138C32.7756 91.5383 32.6476 92.0731 32.5299 92.615C32.5023 92.7504 32.4677 92.8859 32.4435 93.0214L32.3777 93.4312C32.3362 93.7056 32.2947 93.9835 32.2532 94.2579C32.1009 95.3658 31.9314 96.5051 31.9072 97.6548C31.8691 98.8044 31.8034 99.9784 31.8968 101.149C31.6512 102.378 31.3605 103.636 31.1945 104.893C31.0076 106.154 30.7931 107.446 30.6893 108.735C30.589 108.266 30.4748 107.8 30.3849 107.331L30.1427 105.914L29.9005 104.497C29.8624 104.261 29.814 104.025 29.7863 103.789L29.6998 103.073C29.5856 102.121 29.4611 101.17 29.3573 100.218L29.1462 97.3456C29.1289 97.106 29.1082 96.8663 29.0978 96.6267L29.0805 95.9077L29.0459 94.4697L29.0113 93.0318L29.039 91.5938C29.0598 90.6352 29.0667 89.6731 29.1428 88.7179L29.2362 87.28L29.2812 86.561L29.3573 85.8455L29.3608 85.8906Z" fill="white" fill-opacity="0.15"/>
<path d="M173.639 85.8906L172.881 84.213C172.753 83.9352 172.635 83.6573 172.497 83.3864L172.085 82.5702L171.262 80.962C171.13 80.6946 170.978 80.4341 170.829 80.1736L170.386 79.3956C168.193 77.1205 165.812 75.1789 163.504 73.0081C162.913 72.4698 162.335 71.914 161.761 71.3375C161.159 70.7713 160.57 70.1774 159.996 69.5487C159.411 68.927 158.795 68.2879 158.218 67.5967C157.937 67.2459 157.609 66.909 157.311 66.5478C157.007 66.19 156.706 65.8184 156.408 65.4328C154.111 62.5673 151.91 59.6428 150.474 56.2772L151.308 56.5168C151.581 56.6037 151.851 56.694 152.125 56.7878L153.779 57.3574C156.934 58.514 160.107 60.6813 162.851 63.7517C165.587 66.8152 167.912 70.7678 169.348 75.2345L170.345 76.8218L170.846 77.6276L171.314 78.4508L172.251 80.118C172.566 80.6807 172.836 81.2538 173.13 81.8303C171.992 74.2481 169.68 66.8534 166.29 60.0353C165.857 59.6081 165.414 59.1913 164.978 58.7745L164.324 58.1562C164.11 57.9513 163.892 57.7464 163.664 57.5519L162.314 56.3814L161.646 55.8048L160.951 55.256C160.228 54.9469 159.515 54.6517 158.806 54.3669C158.086 54.1029 157.366 53.8354 156.636 53.5645C156.28 53.4325 155.924 53.2971 155.564 53.1651C155.201 53.0366 154.834 52.9115 154.467 52.7795C154.104 52.6476 153.74 52.5156 153.377 52.3801C153.014 52.2447 152.661 52.0988 152.284 51.9668C151.54 51.6959 150.803 51.4041 150.066 51.0846C149.312 50.7789 148.547 50.4628 147.789 50.0981C147.416 49.9106 147.014 49.7404 146.623 49.5528C146.229 49.3653 145.834 49.1673 145.44 48.9589C145.052 48.7436 144.634 48.5456 144.226 48.3268C143.814 48.1114 143.402 47.8787 142.99 47.6356C142.198 47.1945 141.406 46.7568 140.651 46.2636C139.863 45.8156 139.119 45.3154 138.378 44.8013C138.005 44.5547 137.638 44.2942 137.281 44.0233C136.925 43.7524 136.583 43.4641 136.23 43.1932C135.88 42.9153 135.541 42.6236 135.212 42.3145C135.046 42.1616 134.887 42.0019 134.728 41.8456C134.562 41.6927 134.403 41.5399 134.244 41.3801L135.105 41.2829L135.96 41.2238L137.7 41.1196C141.042 40.9876 144.758 41.7935 148.398 43.5996C152.031 45.3988 155.592 48.1844 158.505 51.7862L160.003 52.8699L160.38 53.1442L160.743 53.4325L161.473 54.0126C161.958 54.4051 162.463 54.7906 162.94 55.2004L164.369 56.4508C162.162 52.5781 159.609 48.9242 156.754 45.5412C156.408 45.107 156.034 44.7006 155.664 44.2908L154.557 43.0577C154.19 42.6444 153.792 42.2624 153.408 41.8664L152.249 40.6855L151.045 39.5532L150.443 38.987L150.142 38.7057L149.831 38.4348L148.585 37.3546L147.962 36.8162C147.751 36.6425 147.533 36.4723 147.319 36.3021L146.156 35.7256C145.769 35.538 145.392 35.3331 144.994 35.1629C144.205 34.8086 143.423 34.4543 142.648 34.0931C141.852 33.7632 141.063 33.4228 140.281 33.072C139.894 32.8879 139.485 32.742 139.091 32.5683C138.693 32.4016 138.295 32.2279 137.901 32.0508C134.714 30.6789 131.507 29.2235 128.078 27.3584C127.645 27.1257 127.223 26.8721 126.798 26.6394C126.372 26.4101 125.95 26.174 125.538 25.9308C125.127 25.6877 124.722 25.4341 124.324 25.1806C123.923 24.9409 123.532 24.6943 123.151 24.4408C122.77 24.1838 122.4 23.9198 122.044 23.6489C121.691 23.3675 121.338 23.1209 121.006 22.8431C120.341 22.2943 119.733 21.7038 119.203 21.0717C120.701 21.1516 122.231 21.1759 123.746 21.3495C128.31 21.7629 132.936 23.2494 137.022 25.6009C141.108 27.9592 144.637 31.1721 147.218 34.76C149.395 36.4411 151.436 38.3062 153.408 40.2374L154.858 41.7205C155.104 41.9637 155.335 42.2207 155.564 42.4812L156.259 43.2522C157.204 44.263 158.062 45.3571 158.951 46.4199L158.228 44.5825L157.858 43.6552L157.456 42.7451L156.636 40.9112C156.356 40.2999 156.045 39.7095 155.747 39.1016C152.415 35.2567 149.184 31.5229 146.132 27.9975C143.046 24.4165 140.129 20.9188 137.603 17.5185C137.389 17.2128 137.164 16.9245 136.935 16.6328L136.25 15.7575C135.79 15.174 135.323 14.587 134.846 14C136.05 14.2813 137.257 14.6391 138.441 15.0906C139.025 15.3303 139.61 15.5873 140.184 15.8617C140.472 15.9972 140.762 16.1396 141.046 16.282L141.475 16.5008L141.894 16.7404C144.125 18.0117 146.222 19.5573 148.083 21.2696C152.066 24.9201 154.412 28.6609 155.955 32.2002C156.328 33.0998 156.661 33.982 156.958 34.8468C157.11 35.274 157.242 35.7186 157.363 36.1528C157.488 36.5904 157.605 37.0211 157.716 37.4518C157.941 38.3097 158.145 39.1503 158.304 40.0116C158.47 40.8661 158.626 41.7101 158.778 42.5437C159.031 43.1342 159.266 43.7385 159.505 44.329L159.858 45.2147C159.975 45.5099 160.093 45.8017 160.197 46.1073L160.826 47.903L161.134 48.7922L161.411 49.6987C165.861 55.9715 169.359 62.9876 171.66 70.4136L171.646 68.4233C171.639 68.0899 171.646 67.7495 171.628 67.4196L171.577 66.4193L171.466 64.3978C171.41 63.724 171.341 63.0536 171.276 62.3763C169.532 57.5241 167.843 52.8143 166.245 48.3684C164.639 43.8566 163.155 39.4941 162.017 35.3609C161.823 34.6384 161.601 33.9333 161.383 33.2109C161.162 32.4954 160.944 31.7591 160.702 31.0436C161.729 31.7521 162.709 32.5649 163.657 33.4262C164.113 33.8743 164.563 34.3363 165.003 34.8121C165.221 35.0483 165.439 35.2914 165.653 35.5345C165.868 35.7777 166.082 36.0208 166.279 36.2813C166.681 36.7919 167.072 37.3164 167.452 37.8443C167.833 38.3722 168.207 38.9071 168.542 39.4663C168.885 40.0221 169.213 40.5813 169.535 41.1439C169.694 41.4253 169.857 41.7032 170.002 41.9914C170.144 42.2797 170.289 42.568 170.431 42.8563C172.85 47.7745 173.715 52.1544 173.902 56.0375C173.933 57.0205 173.926 57.9687 173.902 58.8891C173.891 59.1183 173.884 59.3476 173.874 59.5733C173.857 59.8026 173.836 60.0318 173.819 60.2576C173.781 60.7126 173.736 61.1606 173.687 61.6018C173.514 63.3593 173.178 65.0786 172.871 66.7492C172.891 67.0688 172.898 67.3952 172.902 67.7183L172.916 68.6873C172.922 69.3299 172.936 69.969 172.933 70.6046L172.874 72.5184C172.846 73.154 172.846 73.7757 172.788 74.4079C174.722 81.9519 175.393 89.8224 174.947 97.6027C175.068 97.297 175.199 96.9914 175.31 96.6822L175.635 95.7514L176.286 93.8619C176.393 93.5458 176.507 93.2263 176.604 92.9067L176.884 91.9412L177.445 89.9892C177.573 84.866 177.621 79.8575 177.739 75.04C177.856 70.2225 178.012 65.5961 178.427 61.31C178.49 60.5702 178.541 59.8234 178.593 59.0662L178.666 57.9305C178.69 57.5484 178.714 57.1663 178.721 56.7878C178.908 57.0483 179.074 57.3157 179.24 57.5901C179.406 57.8645 179.566 58.1423 179.725 58.4202C180.04 58.9829 180.344 59.556 180.631 60.1395C181.171 61.3239 181.652 62.5535 182.067 63.8038C182.257 64.436 182.437 65.0751 182.6 65.7142C182.683 66.0337 182.763 66.3533 182.839 66.6763L182.949 67.1591L183.043 67.6453C183.16 68.2948 183.268 68.9443 183.365 69.5904C183.458 70.2364 183.555 70.879 183.596 71.5285C183.849 74.2794 183.78 76.7628 183.506 79.01C183.354 80.1354 183.174 81.2017 182.949 82.2159C182.7 83.2336 182.424 84.1991 182.126 85.1196C180.867 88.8048 179.192 91.7953 177.355 94.6608L176.735 96.4808C176.638 96.783 176.521 97.0817 176.4 97.3804L176.047 98.2695C175.573 99.4505 175.126 100.614 174.58 101.75L174.403 103.202C174.341 103.684 174.293 104.171 174.203 104.65L173.708 107.529C173.3 109.433 172.909 111.343 172.362 113.208L171.978 114.615C171.839 115.08 171.68 115.539 171.535 116.004L171.085 117.39L170.86 118.081C170.781 118.311 170.691 118.536 170.604 118.762L169.573 121.482L168.418 124.149L169.712 122.69L170.366 121.951C170.584 121.701 170.777 121.443 170.988 121.186L172.227 119.63L172.846 118.839L173.431 118.026C175.355 113.246 177.223 108.606 178.984 104.23C180.822 99.7978 182.534 95.5569 184.455 91.7467L185.427 89.7321L185.669 89.2216L185.894 88.7075L186.34 87.669C187.506 92.6775 187.032 98.2418 185.659 103.205C184.949 105.859 183.974 108.137 182.953 110.131C182.41 111.121 181.856 112.041 181.296 112.899C181.154 113.114 181.019 113.326 180.87 113.531C180.718 113.733 180.566 113.934 180.417 114.136C180.112 114.532 179.811 114.914 179.503 115.285C178.313 116.775 176.984 118.029 175.701 119.189C175.071 119.773 174.379 120.304 173.715 120.825C173.047 121.346 172.383 121.853 171.722 122.35C170.885 123.319 170.051 124.271 169.224 125.202C168.348 126.108 167.483 126.997 166.618 127.869C164.816 131.29 162.754 134.559 160.47 137.647L159.602 138.796L159.169 139.373C159.024 139.564 158.865 139.744 158.712 139.928L156.872 142.137L154.934 144.256C154.619 144.617 154.273 144.947 153.934 145.284L152.917 146.295L154.647 145.444L155.083 145.229L155.505 144.996L156.353 144.524L158.065 143.565C158.633 143.235 159.18 142.877 159.74 142.527C163.224 138.831 166.605 135.239 169.795 131.853C170.199 131.426 170.611 131.002 171.023 130.585C171.435 130.168 171.815 129.738 172.217 129.321C172.615 128.904 173.016 128.494 173.424 128.091C173.625 127.89 173.836 127.692 174.03 127.487C174.227 127.282 174.421 127.081 174.614 126.879C175.393 126.077 176.196 125.302 176.991 124.552C177.759 123.788 178.538 123.052 179.323 122.35C179.597 122.107 179.874 121.86 180.147 121.61L180.936 120.843C181.462 120.329 181.991 119.804 182.52 119.269C182.427 119.905 182.313 120.544 182.181 121.18C182.05 121.815 181.905 122.454 181.7 123.076C181.507 123.701 181.299 124.323 181.074 124.941C180.842 125.556 180.624 126.181 180.337 126.772C180.06 127.369 179.77 127.959 179.472 128.543C179.323 128.835 179.168 129.126 179.015 129.415C178.86 129.703 178.708 129.991 178.531 130.266C177.843 131.377 177.13 132.461 176.386 133.489C175.552 134.566 174.729 135.552 173.915 136.459C173.068 137.341 172.22 138.136 171.393 138.866C171.186 139.046 170.985 139.23 170.77 139.394C170.556 139.557 170.341 139.72 170.13 139.883C169.705 140.203 169.286 140.505 168.867 140.79C168.449 141.078 168.037 141.353 167.625 141.61C167.207 141.863 166.781 142.096 166.366 142.318C165.532 142.766 164.712 143.166 163.902 143.534C163.072 143.881 162.248 144.187 161.442 144.472C159.847 145.062 158.2 145.458 156.623 145.875C156.086 146.191 155.515 146.462 154.958 146.743L153.294 147.57C152.751 147.851 152.17 148.084 151.613 148.33L149.934 149.053C147.052 151.543 143.99 153.804 140.776 155.808L138.34 157.264L135.839 158.598C135.427 158.83 134.994 159.021 134.569 159.223L133.289 159.827L132.649 160.129C132.437 160.23 132.223 160.331 132.002 160.418L130.694 160.956C131.327 160.918 131.967 160.886 132.607 160.841L134.517 160.633L135.482 160.522C135.804 160.484 136.133 160.452 136.448 160.393L138.375 160.074C142.918 157.965 147.326 155.923 151.488 153.992C155.716 152.054 159.802 150.244 163.705 148.824C165.048 148.317 166.39 147.768 167.764 147.195C167.134 148.296 166.425 149.372 165.657 150.411C164.85 151.415 163.985 152.384 163.082 153.311C162.148 154.211 161.166 155.051 160.166 155.857C159.145 156.639 158.083 157.347 157.031 158.024C156.889 158.115 156.751 158.205 156.609 158.288C156.463 158.368 156.322 158.452 156.18 158.532C155.896 158.688 155.612 158.841 155.332 158.993C154.772 159.292 154.225 159.574 153.685 159.834C153.152 160.105 152.602 160.32 152.069 160.532C151.536 160.741 151.011 160.932 150.495 161.112C150.239 161.199 149.983 161.282 149.73 161.366C149.602 161.407 149.478 161.446 149.353 161.484C149.225 161.519 149.097 161.55 148.969 161.585C148.461 161.717 147.962 161.835 147.471 161.939C146.98 162.043 146.499 162.137 146.021 162.22C145.783 162.262 145.551 162.304 145.315 162.335C145.077 162.359 144.841 162.387 144.606 162.411C143.669 162.505 142.762 162.561 141.88 162.585C141.658 162.588 141.44 162.595 141.222 162.599C141.001 162.592 140.779 162.588 140.561 162.581C140.122 162.568 139.693 162.547 139.264 162.522C138.406 162.47 137.579 162.415 136.749 162.317C135.915 162.21 135.091 162.095 134.278 161.977C133.053 162.144 131.804 162.196 130.583 162.272C129.368 162.37 128.137 162.349 126.933 162.359C126.514 162.502 126.099 162.661 125.673 162.793L124.397 163.172L123.12 163.55L122.483 163.738L121.836 163.894L119.252 164.516C118.383 164.69 117.511 164.843 116.643 165.009L115.989 165.131L115.664 165.19L115.335 165.235L114.02 165.409L112.705 165.582C112.487 165.61 112.266 165.645 112.048 165.662L111.387 165.714L108.744 165.923C107.861 165.961 106.976 165.975 106.093 165.999C105.488 166.017 105 165.766 105 165.443C105 165.12 105.481 164.846 106.076 164.832L108.567 164.766L111.051 164.568C111.463 164.53 111.882 164.516 112.294 164.457L113.529 164.294L114.764 164.131C115.176 164.078 115.587 164.026 115.996 163.943L117.556 163.043L118.324 162.595L118.705 162.373L119.082 162.13L120.57 161.157L121.303 160.675L121.667 160.435C121.788 160.352 121.905 160.261 122.023 160.174C122.528 159.549 123.019 158.927 123.5 158.313C123.739 158.007 123.978 157.698 124.217 157.392C124.448 157.073 124.68 156.753 124.912 156.43C125.376 155.791 125.836 155.162 126.306 154.541C126.545 154.239 126.77 153.898 127.009 153.579C127.244 153.256 127.479 152.933 127.722 152.616C128.701 151.377 129.69 150.025 130.829 148.772C131.379 148.101 131.963 147.445 132.59 146.799C132.669 146.719 132.749 146.639 132.828 146.556C132.905 146.472 132.984 146.385 133.064 146.299C133.223 146.128 133.382 145.958 133.541 145.788C133.866 145.448 134.202 145.111 134.552 144.777C137.153 142.203 139.835 139.755 142.973 138.056C142.724 139.209 142.471 140.411 142.132 141.554C141.236 144.937 139.33 148.341 136.555 151.38C133.787 154.416 130.13 157.048 125.943 158.823C124.995 159.629 123.995 160.331 122.985 161.071C121.978 161.835 120.923 162.474 119.857 163.168L121.203 162.845L121.878 162.682C122.103 162.63 122.327 162.574 122.545 162.505L125.203 161.72L125.535 161.619L125.864 161.505L126.517 161.275L127.825 160.813C128.704 160.525 129.555 160.15 130.413 159.803L131.701 159.275C132.126 159.094 132.541 158.882 132.963 158.688L134.223 158.094L134.853 157.799C135.06 157.694 135.264 157.58 135.468 157.472L137.928 156.159L140.326 154.725C140.724 154.273 141.084 153.77 141.458 153.29L142.551 151.849L142.821 151.491L143.08 151.119L143.589 150.376L144.592 148.9C144.727 148.528 144.845 148.139 144.959 147.75L145.302 146.597C145.412 146.219 145.523 145.837 145.634 145.458C145.741 145.076 145.859 144.711 145.956 144.315C146.156 143.537 146.357 142.77 146.571 142.006C146.679 141.627 146.786 141.241 146.897 140.856C146.997 140.463 147.104 140.071 147.215 139.678C148.128 136.573 149.187 133.353 150.803 129.755C152.318 126.365 153.952 123.066 156.27 120.29L156.54 122.072C156.605 122.663 156.664 123.257 156.723 123.861C156.917 125.615 156.82 127.428 156.571 129.349C156.412 130.287 156.211 131.245 155.965 132.225C155.906 132.471 155.837 132.714 155.758 132.951C155.678 133.19 155.602 133.43 155.522 133.673C155.36 134.156 155.187 134.646 155.007 135.135C153.502 139.018 151.028 142.87 147.769 146.135C147.474 146.694 147.139 147.212 146.814 147.75L145.817 149.365C145.651 149.64 145.471 149.897 145.295 150.157L144.755 150.942L143.658 152.526C146.703 150.362 149.582 147.945 152.267 145.323L153.266 144.329L153.768 143.832L154.246 143.311C154.879 142.617 155.522 141.926 156.149 141.224L157.958 139.046C158.266 138.692 158.539 138.303 158.827 137.928L159.681 136.796L159.975 135.924C160.072 135.635 160.148 135.33 160.238 135.035L160.74 133.27L160.986 132.398C161.062 132.103 161.124 131.804 161.197 131.509L161.598 129.745C161.584 129.342 161.577 128.946 161.55 128.543L161.453 127.338C161.387 126.549 161.321 125.761 161.255 124.965C161.172 124.177 161.089 123.385 161.006 122.579C160.927 121.784 160.882 120.999 160.788 120.176C160.712 119.36 160.653 118.543 160.619 117.713C160.574 116.88 160.512 116.018 160.505 115.15C160.505 114.934 160.505 114.716 160.505 114.493C160.505 114.386 160.505 114.275 160.508 114.163C160.508 114.052 160.501 113.938 160.498 113.827C160.487 113.375 160.487 112.92 160.498 112.458C160.505 111.996 160.525 111.531 160.553 111.055C160.56 110.575 160.574 110.086 160.598 109.589C160.802 105.866 161.145 102.177 162.318 98.7002C162.636 99.2108 162.892 99.7249 163.176 100.249L164.006 101.844C165.535 104.935 166.442 108.78 166.425 112.976C166.404 117.161 165.463 121.687 163.587 125.973C163.376 127.206 163.152 128.46 162.906 129.72L162.47 131.593L162.245 132.537C162.172 132.853 162.096 133.173 162.003 133.479C164.072 130.3 165.902 126.959 167.48 123.489C167.857 122.614 168.245 121.742 168.615 120.863L169.629 118.186C169.805 117.741 169.947 117.286 170.096 116.831L170.539 115.466C170.68 115.011 170.846 114.559 170.968 114.097L171.345 112.712L171.251 110.867C171.199 110.252 171.134 109.638 171.071 109.03L170.885 107.22C170.805 106.619 170.705 106.019 170.615 105.425C170.293 104.685 169.978 103.962 169.646 103.25C169.293 102.542 168.944 101.833 168.587 101.118C167.923 99.711 167.137 98.2973 166.47 96.8455C166.387 96.6649 166.304 96.4808 166.221 96.2967C166.131 96.1126 166.041 95.9285 165.947 95.741C165.767 95.3693 165.591 94.9942 165.421 94.6121C165.072 93.8515 164.785 93.0735 164.428 92.2642C164.259 91.8613 164.096 91.4514 163.94 91.0312C163.785 90.6144 163.643 90.1871 163.47 89.753C163.307 89.3188 163.152 88.8777 163.003 88.4262C162.854 87.9746 162.719 87.5092 162.553 87.0403C161.428 83.4906 160.446 79.927 160.307 76.2557L160.993 76.801L161.335 77.0789L161.664 77.3637L162.989 78.5307C165.511 80.8161 167.691 84.0533 169.144 87.9677C169.497 88.9472 169.857 89.9614 170.099 91.0138C170.231 91.5383 170.359 92.0731 170.476 92.615C170.504 92.7504 170.539 92.8859 170.563 93.0214L170.629 93.4312C170.67 93.7056 170.712 93.9835 170.753 94.2579C170.905 95.3658 171.075 96.5051 171.099 97.6548C171.137 98.8044 171.203 99.9784 171.109 101.149C171.355 102.378 171.646 103.636 171.812 104.893C171.999 106.154 172.213 107.446 172.317 108.735C172.417 108.266 172.531 107.8 172.621 107.331L172.864 105.914L173.106 104.497C173.144 104.261 173.192 104.025 173.22 103.789L173.307 103.073C173.421 102.121 173.545 101.17 173.649 100.218L173.86 97.3456C173.877 97.106 173.898 96.8663 173.909 96.6267L173.926 95.9077L173.96 94.4697L173.995 93.0318L173.967 91.5938C173.947 90.6352 173.94 89.6731 173.864 88.7179L173.774 87.28L173.729 86.561L173.653 85.8455L173.639 85.8906Z" fill="white" fill-opacity="0.15"/>
</svg>
