<svg width="261" height="179" viewBox="0 0 261 179" fill="none" xmlns="http://www.w3.org/2000/svg">
<g clip-path="url(#clip0_2238_48567)">
<g clip-path="url(#clip1_2238_48567)">
<path opacity="0.3" d="M225.855 81.1304L4.19664 -46.8439C-10.029 -55.0571 -28.2198 -50.1822 -36.4336 -35.9554L-113.494 97.5171C-121.708 111.744 -116.834 129.935 -102.609 138.148L119.05 266.122C133.275 274.336 151.466 269.461 159.68 255.234L236.74 121.761C244.954 107.535 240.08 89.3436 225.855 81.1304Z" fill="#231F20"/>
<path fill-rule="evenodd" clip-rule="evenodd" d="M157.339 238.363L231.95 109.134C240.725 93.9343 235.52 74.4683 220.321 65.6932L2.2226 -60.2258C-12.9764 -69.0009 -32.4373 -63.7763 -41.2131 -48.5761L-115.823 80.6527C-124.599 95.8528 -119.393 115.319 -104.194 124.094L113.904 250.013C129.103 258.788 148.564 253.563 157.339 238.363Z" fill="#FFC764"/>
<path fill-rule="evenodd" clip-rule="evenodd" d="M147.432 120.213L144.225 125.768C141.107 131.169 133.124 132.395 126.401 128.514L46.3062 82.2708C39.583 78.3892 36.6537 70.8633 39.7656 65.4733L42.973 59.9179L147.404 120.211L147.432 120.213Z" fill="#FFBD00"/>
<path fill-rule="evenodd" clip-rule="evenodd" d="M155.687 105.916L158.9 100.35C162.012 94.9598 159.09 87.4229 152.36 83.5522L72.2649 37.3094C65.5417 33.4277 57.5595 34.6538 54.4475 40.0439L51.2338 45.6103L155.665 105.903L155.687 105.916Z" fill="#FFBD00"/>
<path fill-rule="evenodd" clip-rule="evenodd" d="M161.408 119.244C164.03 114.702 161.824 108.52 156.479 105.434L51.2653 44.6886C45.9198 41.6024 39.4627 42.7831 36.8408 47.3244C34.2189 51.8657 36.4249 58.0481 41.7704 61.1343L146.984 121.879C152.329 124.966 158.787 123.785 161.408 119.244Z" fill="#F75105"/>
<path fill-rule="evenodd" clip-rule="evenodd" d="M144.24 103.496C144.918 105.122 145.154 106.875 145.336 108.317C145.553 109.927 145.705 111.088 146.12 112.151C146.497 113.103 147.046 113.831 148.038 114.404C149.063 114.996 149.469 116.201 148.96 117.082C148.451 117.964 147.205 118.215 146.18 117.623C144.096 116.42 142.923 114.787 142.25 113.076C141.623 111.465 141.413 109.741 141.23 108.328C141.025 106.799 140.843 105.562 140.399 104.497C140.001 103.533 139.398 102.744 138.296 102.107C137.304 101.535 136.399 101.423 135.386 101.574C134.275 101.741 133.118 102.219 131.674 102.811C130.33 103.357 128.704 104.035 126.95 104.272C125.094 104.509 123.056 104.272 120.918 103.038C118.78 101.803 117.661 100.202 116.999 98.4976C116.372 96.8861 116.162 95.1629 115.979 93.7492C115.774 92.2201 115.592 90.9832 115.148 89.9188C114.739 88.9477 114.148 88.1652 113.045 87.5289C112.053 86.9561 111.148 86.8448 110.135 86.995C109.025 87.1622 107.867 87.6402 106.423 88.2321C105.09 88.7851 103.464 89.463 101.7 89.6936C99.8437 89.9301 97.8052 89.6937 95.667 88.4592C93.5288 87.2247 92.4104 85.6238 91.7377 83.9127C91.1103 82.3012 90.9002 80.578 90.7171 79.1642C90.5124 77.6352 90.3301 76.3983 89.8866 75.3339C89.4883 74.3691 88.8857 73.5803 87.7835 72.9439C86.7916 72.3712 85.8859 72.2599 84.8734 72.4101C83.7629 72.5773 82.6052 73.0552 81.1613 73.6472C79.828 74.2001 78.1911 74.8717 76.4378 75.1087C74.5755 75.3562 72.5323 75.1025 70.4051 73.8743C68.278 72.6462 67.1486 71.0388 66.4759 69.3277C65.8421 67.7273 65.6384 65.9931 65.4553 64.5793C65.2506 63.0503 65.0683 61.8134 64.6248 60.7489C64.2155 59.7778 63.6239 58.9954 62.5107 58.3527C61.5849 57.8181 60.7187 57.7148 59.7455 57.8732C58.6571 58.053 57.5341 58.5217 56.1343 59.1391C54.8405 59.7001 53.2587 60.4035 51.5779 60.6676C49.7817 60.9533 47.803 60.7662 45.7419 59.5762C44.7279 58.9908 44.3039 57.7907 44.8194 56.8979C45.3349 56.005 46.5752 55.7658 47.6002 56.3576C48.5481 56.9049 49.4253 57.0145 50.4158 56.8516C51.5153 56.678 52.6335 56.192 54.038 55.592C55.2907 55.0513 56.9136 54.3276 58.5834 54.0571C60.3576 53.7587 62.3363 53.9458 64.3927 55.1184C66.5309 56.3529 67.7612 57.9891 68.478 59.7256C69.1558 61.3515 69.3816 63.0985 69.574 64.547C69.791 66.1566 69.9436 67.3176 70.3588 68.3803C70.7349 69.3324 71.2842 70.061 72.2761 70.6337C73.3783 71.27 74.3628 71.3975 75.3974 71.26C76.541 71.1119 77.7033 70.6514 79.1235 70.0751C80.3872 69.5408 82.0542 68.8425 83.746 68.5847C85.5643 68.3118 87.554 68.5053 89.6482 69.7143C91.7423 70.9234 93.0167 72.585 93.7334 74.3216C94.4223 75.9538 94.6481 77.7008 94.8295 79.1429C95.0464 80.7526 95.1991 81.9136 95.6142 82.9763C95.9904 83.9283 96.5396 84.6569 97.5316 85.2296C98.6338 85.866 99.6183 85.9935 100.653 85.8559C101.796 85.7079 102.959 85.2473 104.385 84.66C105.66 84.1321 107.305 83.421 109.008 83.1697C110.826 82.8967 112.816 83.0902 114.91 84.2992C117.004 85.5083 118.278 87.1699 118.995 88.9065C119.673 90.5324 119.899 92.2794 120.098 93.7168C120.315 95.3265 120.467 96.4875 120.882 97.5502C121.259 98.5022 121.808 99.2308 122.8 99.8035C123.902 100.44 124.869 100.572 125.921 100.43C127.076 100.288 128.227 99.8212 129.647 99.2449C130.911 98.7106 132.567 98.006 134.27 97.7546C136.088 97.4816 138.078 97.6751 140.172 98.8841C142.266 100.093 143.54 101.755 144.257 103.491L144.24 103.496Z" fill="#FFED24"/>
<path fill-rule="evenodd" clip-rule="evenodd" d="M142.262 224.338L212.264 103.09C217.362 94.2605 214.334 82.9596 205.517 77.8689L-0.90911 -41.3113C-9.73752 -46.4084 -21.0272 -43.3735 -26.1246 -34.5444L-96.1338 86.7151C-101.231 95.5441 -98.2037 106.845 -89.3753 111.942L117.051 231.122C125.879 236.219 137.169 233.185 142.266 224.355L142.262 224.338Z" fill="#F5A53E"/>
<path fill-rule="evenodd" clip-rule="evenodd" d="M130.628 212.036L195.801 99.1538C198.111 95.1526 196.73 90.0348 192.74 87.7312L-3.07171 -25.321C-7.06158 -27.6245 -12.1903 -26.25 -14.4941 -22.2599L-79.6667 90.6224C-81.9768 94.6236 -80.6074 99.7351 -76.6065 102.045L119.206 215.097C123.196 217.401 128.324 216.026 130.628 212.036Z" fill="#CA6E1D"/>
<path fill-rule="evenodd" clip-rule="evenodd" d="M200.295 54.1309L204.697 76.9243L225.763 69.6576C227.179 70.9457 228.465 72.3344 229.618 73.8234L209.373 80.8143C208.254 79.698 206.968 78.6914 205.536 77.8642L198.856 74.0079L195.333 55.7776L177.783 61.8411L171.82 58.3985L194.273 50.6391L200.302 54.1199L200.295 54.1309ZM165.522 34.0544L170.028 57.3787L164.066 53.9361L160.542 35.7058L142.992 41.7692L137.04 38.333L159.493 30.5736L165.533 34.0607L165.522 34.0544ZM130.748 13.9778L135.255 37.3021L129.303 33.8659L125.779 15.6356L108.229 21.6991L102.267 18.2565L124.719 10.4971L130.748 13.9778ZM95.9747 -6.09869L100.481 17.2256L94.5294 13.7894L90.9946 -4.44731L73.4448 1.61617L67.4821 -1.82643L89.9284 -9.57482L95.9573 -6.09404L95.9747 -6.09869ZM61.2011 -26.1752L65.7139 -2.86196L59.7622 -6.29819L56.2384 -24.5285L38.6886 -18.465L32.7369 -21.9013L55.1896 -29.6607L61.2185 -26.1799L61.2011 -26.1752ZM26.4275 -46.2518L30.934 -22.9275L24.9823 -26.3637L21.4475 -44.6004L3.89769 -38.5369L-0.918818 -41.3177C-2.94682 -42.4886 -5.10302 -43.2338 -7.28946 -43.5702L-11.3131 -64.3965C-9.4793 -64.2637 -7.64943 -63.9714 -5.84081 -63.5151L-1.69828 -42.1057L20.405 -49.7436L26.4449 -46.2564L26.4275 -46.2518ZM-38.6835 -52.319L-30.2963 -27.3421L-36.2148 -17.0911L-57.1852 -12.8408L-50.3808 7.4452L-56.2992 17.6962L-77.2696 21.9465L-70.4652 42.2325L-76.3836 52.4835L-97.354 56.7337L-90.5497 77.0198L-96.1308 86.6866C-96.4935 87.3149 -96.8169 87.9512 -97.0961 88.613L-97.1215 88.6571L-119.904 93.2719C-119.708 91.4305 -119.359 89.6039 -118.839 87.7876L-94.0595 82.768L-102.445 57.7626L-102.606 57.7872L-99.055 51.6366L-99.0021 51.7994L-74.3549 46.8061L-82.3541 22.9643L-82.5216 22.9999L-78.9706 16.8493L-78.9176 17.0121L-54.2705 12.0188L-62.2697 -11.823L-62.4372 -11.7874L-58.8861 -17.938L-58.8332 -17.7751L-34.186 -22.7685L-42.2382 -46.7731L-41.1881 -48.5918C-40.4245 -49.9145 -39.5743 -51.1579 -38.6598 -52.3347L-38.6835 -52.319ZM231.94 109.128L230.807 111.09L206.732 116.34L214.223 139.815L210.723 145.877L186.658 151.134L194.138 174.602L190.638 180.665L166.567 185.932L174.047 209.401L170.547 215.463L144.571 221.129L152.196 245.034C150.886 246.335 149.47 247.516 147.976 248.55L140.904 226.361C141.393 225.717 141.845 225.037 142.258 224.321L147.477 215.282L169.085 210.563L162.362 189.5L167.561 180.495L189.17 175.775L182.453 154.702L187.652 145.696L209.261 140.977L202.537 119.915L207.736 110.909L233.863 105.212C233.315 106.542 232.678 107.849 231.946 109.117L231.94 109.128ZM-89.385 111.936L-86.354 113.686L-81.2056 133.251L-61.681 127.916L-51.5631 133.758L-46.4209 153.334L-26.9028 148.01L-16.7848 153.851L-11.6364 173.417L7.88816 168.082L18.0061 173.923L23.1372 193.493L42.6617 188.158L52.7797 194L57.9218 213.576L77.4463 208.241L87.5532 214.076L92.7017 233.641L112.209 228.311L117.092 231.13C119.075 232.276 121.181 233.006 123.315 233.357L128.81 254.283C127.063 254.229 125.33 254.023 123.6 253.685L117.859 231.838L93.9339 238.38L93.9665 238.501L87.8605 234.976L87.9822 234.944L81.9771 212.077L59.1714 218.31L59.204 218.431L53.0869 214.9L53.2086 214.867L47.2036 192L24.3978 198.233L24.4304 198.355L18.3244 194.829L18.4461 194.797L12.441 171.93L-10.3648 178.163L-10.3322 178.285L-16.4382 174.759L-16.3165 174.727L-22.3216 151.86L-45.1273 158.093L-45.0947 158.214L-51.2007 154.689L-51.079 154.657L-57.0841 131.79L-79.8899 138.023L-79.8573 138.144L-85.9633 134.619L-85.8416 134.586L-92.0406 110.961L-112.875 116.656C-113.974 115.302 -114.944 113.875 -115.789 112.387L-95.0652 106.731C-93.5828 108.821 -91.6381 110.62 -89.2795 111.982L-89.385 111.936ZM-119.693 101.433L-118.032 107.771C-118.805 105.723 -119.355 103.597 -119.693 101.433Z" fill="#F8AC40"/>
<path fill-rule="evenodd" clip-rule="evenodd" d="M149.061 147.299L122.199 46.9312L21.8478 73.8524L48.7091 174.22L149.061 147.299Z" fill="white"/>
<path fill-rule="evenodd" clip-rule="evenodd" d="M156.604 124.715L153.48 130.127C150.451 135.373 142.675 136.572 136.139 132.799L58.1606 87.7774C51.6247 84.0039 48.7751 76.671 51.8043 71.4243L54.929 66.0122L156.604 124.715Z" fill="#F7C900"/>
<path fill-rule="evenodd" clip-rule="evenodd" d="M164.642 110.793L167.767 105.381C170.796 100.134 167.947 92.8014 161.411 89.0279L83.4319 44.0068C76.885 40.2269 69.1207 41.4319 66.0915 46.6786L62.9668 52.0907L164.642 110.793Z" fill="#F7C900"/>
<path fill-rule="evenodd" clip-rule="evenodd" d="M170.197 123.774C172.749 119.354 170.596 113.334 165.394 110.331L62.969 51.1956C57.7667 48.192 51.4881 49.3436 48.9362 53.7636C46.3843 58.1837 48.5373 64.2032 53.7286 67.2004L156.154 126.335C161.356 129.339 167.645 128.194 170.197 123.774Z" fill="#F74100"/>
<path fill-rule="evenodd" clip-rule="evenodd" d="M153.492 108.442C154.161 110.033 154.384 111.734 154.562 113.131C154.776 114.695 154.924 115.838 155.319 116.86C155.679 117.788 156.213 118.493 157.183 119.053C158.153 119.613 158.572 120.796 158.076 121.655C157.579 122.515 156.368 122.756 155.376 122.183C153.348 121.012 152.212 119.416 151.547 117.768C150.933 116.209 150.733 114.52 150.552 113.152C150.357 111.658 150.178 110.467 149.75 109.426C149.356 108.479 148.769 107.714 147.7 107.097C146.73 106.537 145.853 106.427 144.869 106.579C143.787 106.748 142.659 107.199 141.261 107.788C139.952 108.325 138.378 108.989 136.666 109.206C134.856 109.44 132.874 109.207 130.791 108.004C128.763 106.833 127.616 105.23 126.968 103.578C126.355 102.018 126.148 100.341 125.974 98.9621C125.772 97.4788 125.599 96.2767 125.171 95.236C124.789 94.295 124.202 93.5299 123.122 92.9063C122.152 92.3463 121.275 92.2367 120.29 92.3886C119.208 92.5575 118.081 93.0087 116.672 93.5914C115.362 94.1286 113.788 94.7926 112.076 95.0092C110.266 95.2428 108.284 95.0098 106.212 93.8135C104.184 92.6426 103.049 91.0463 102.39 89.3874C101.765 87.8217 101.569 86.1506 101.395 84.7717C101.194 83.2884 101.021 82.0863 100.582 81.0393C100.199 80.0983 99.6013 79.3268 98.5322 78.7096C97.5623 78.1496 96.6851 78.0399 95.7009 78.1919C94.6188 78.3607 93.4913 78.812 92.0821 79.3946C90.7726 79.9319 89.1989 80.5959 87.4867 80.8125C85.6766 81.046 83.6949 80.8131 81.6118 79.6104C79.5287 78.4077 78.448 76.8432 77.7893 75.1843C77.1759 73.625 76.9687 71.9475 76.795 70.5686C76.5932 69.0853 76.4203 67.8832 75.9924 66.8425C75.5988 65.8951 75.0119 65.1301 73.9428 64.5128C73.039 63.991 72.2012 63.8894 71.2454 64.0431C70.1917 64.2136 69.0862 64.6776 67.7275 65.2747C66.4684 65.8264 64.9342 66.4984 63.2991 66.7596C61.5598 67.0487 59.6205 66.8696 57.6145 65.7115C56.6226 65.1388 56.2253 63.9688 56.7217 63.109C57.218 62.2493 58.4299 62.0084 59.4219 62.5811C60.3477 63.1156 61.2029 63.2125 62.1586 63.0589C63.2233 62.8946 64.3179 62.4243 65.6876 61.8336C66.9055 61.3023 68.4809 60.6099 70.1049 60.3424C71.8332 60.0469 73.7615 60.2196 75.7675 61.3777C77.8506 62.5804 79.0432 64.1801 79.746 65.8645C80.4145 67.4556 80.6263 69.1505 80.8158 70.5532C81.0234 72.128 81.1777 73.2606 81.5836 74.2886C81.9441 75.2168 82.4776 75.9217 83.4476 76.4817C84.5167 77.0989 85.4727 77.2247 86.49 77.0919C87.6161 76.9485 88.7374 76.5082 90.1291 75.9303C91.3627 75.4227 92.9665 74.732 94.6236 74.4835C96.3897 74.2245 98.3336 74.421 100.362 75.5919C102.39 76.7627 103.637 78.3943 104.34 80.0787C105.009 81.6698 105.22 83.3646 105.41 84.7673C105.618 86.3422 105.778 87.4637 106.167 88.4963C106.527 89.4246 107.072 90.1358 108.031 90.6895C109.1 91.3067 110.056 91.4325 111.073 91.2996C112.188 91.1499 113.32 90.716 114.701 90.1317C115.935 89.6241 117.55 88.9397 119.196 88.6849C120.962 88.426 122.906 88.6224 124.934 89.7933C126.962 90.9641 128.209 92.5957 128.912 94.2801C129.581 95.8712 129.793 97.566 129.982 98.9687C130.179 100.537 130.344 101.676 130.75 102.704C131.11 103.632 131.644 104.337 132.614 104.897C133.683 105.514 134.639 105.64 135.656 105.507C136.771 105.358 137.904 104.924 139.289 104.357C140.523 103.849 142.126 103.159 143.784 102.91C145.55 102.651 147.494 102.848 149.522 104.018C151.55 105.189 152.804 106.81 153.5 108.505L153.492 108.442Z" fill="#D72C0B"/>
<path fill-rule="evenodd" clip-rule="evenodd" d="M125.542 178.516L122.418 183.928C119.382 189.186 111.613 190.373 105.077 186.6L27.0985 141.579C20.5516 137.799 17.7129 130.472 20.7358 125.237L23.8605 119.825L125.536 178.527L125.542 178.516Z" fill="#F7C900"/>
<path fill-rule="evenodd" clip-rule="evenodd" d="M133.58 164.594L136.705 159.182C139.74 153.924 136.884 146.603 130.337 142.823L52.3586 97.8016C45.8117 94.0217 38.0474 95.2267 35.0182 100.473L31.8935 105.886L133.569 164.588L133.58 164.594Z" fill="#F7C900"/>
<path fill-rule="evenodd" clip-rule="evenodd" d="M139.135 177.575C141.681 173.166 139.534 167.135 134.332 164.132L31.9067 104.997C26.7044 101.993 20.4259 103.145 17.874 107.565C15.322 111.985 17.4751 118.004 22.6663 121.002L125.091 180.137C130.294 183.14 136.583 181.995 139.135 177.575Z" fill="#F74100"/>
<path fill-rule="evenodd" clip-rule="evenodd" d="M122.43 162.243C123.099 163.834 123.321 165.535 123.5 166.932C123.707 168.507 123.862 169.639 124.257 170.661C124.617 171.589 125.151 172.294 126.121 172.854C127.113 173.427 127.51 174.597 127.013 175.456C126.517 176.316 125.305 176.557 124.313 175.984C122.285 174.813 121.138 173.211 120.491 171.558C119.877 169.999 119.67 168.321 119.496 166.943C119.301 165.448 119.111 164.251 118.683 163.21C118.289 162.263 117.702 161.498 116.633 160.88C115.663 160.32 114.786 160.211 113.802 160.363C112.72 160.532 111.592 160.983 110.194 161.572C108.885 162.109 107.311 162.773 105.599 162.99C103.789 163.223 101.796 162.984 99.7237 161.788C97.6516 160.591 96.56 159.02 95.9012 157.361C95.2878 155.802 95.0917 154.131 94.9069 152.746C94.7115 151.251 94.5322 150.06 94.1043 149.02C93.7108 148.072 93.1348 147.314 92.0547 146.69C91.0848 146.13 90.2075 146.02 89.2234 146.172C88.1303 146.335 87.0137 146.792 85.6045 147.375C84.295 147.912 82.7214 148.576 81.0092 148.793C79.199 149.026 77.2173 148.794 75.1452 147.597C73.1172 146.426 71.9815 144.83 71.3228 143.171C70.7047 141.594 70.5022 139.934 70.3284 138.555C70.1267 137.072 69.9537 135.87 69.5148 134.823C69.1323 133.882 68.5343 133.11 67.4652 132.493C66.4953 131.933 65.618 131.824 64.6229 131.969C63.5408 132.138 62.4132 132.589 61.004 133.172C59.7056 133.716 58.1208 134.373 56.4086 134.59C54.5985 134.823 52.6232 134.579 50.5447 133.394C48.5167 132.223 47.381 130.627 46.7222 128.968C46.1042 127.391 45.9017 125.731 45.7169 124.346C45.5152 122.863 45.3422 121.66 44.9143 120.62C44.5207 119.672 43.9338 118.907 42.8647 118.29C41.9609 117.768 41.1231 117.667 40.1673 117.82C39.1136 117.991 38.0081 118.455 36.6494 119.052C35.3904 119.604 33.8497 120.287 32.2037 120.542C30.4643 120.831 28.5314 120.641 26.5254 119.482C25.5335 118.91 25.1362 117.74 25.6326 116.88C26.1289 116.02 27.3408 115.779 28.3328 116.352C29.2586 116.887 30.1138 116.983 31.0805 116.836C32.1516 116.661 33.2398 116.202 34.5985 115.605C35.8164 115.073 37.3918 114.381 39.0158 114.113C40.7488 113.835 42.6771 114.008 44.672 115.16C46.667 116.311 47.9541 117.951 48.6505 119.647C49.308 121.231 49.5308 122.932 49.7203 124.335C49.9279 125.91 50.0823 127.043 50.4881 128.071C50.8596 129.005 51.3932 129.71 52.3631 130.27C53.4322 130.887 54.3883 131.013 55.4055 130.88C56.5317 130.737 57.6529 130.297 59.0447 129.719C60.2673 129.205 61.8821 128.52 63.5392 128.272C65.3052 128.013 67.2492 128.209 69.2836 129.369C71.3556 130.566 72.5592 132.172 73.251 133.85C73.9195 135.441 74.1314 137.136 74.3208 138.538C74.5284 140.113 74.6718 141.239 75.0776 142.267C75.4491 143.202 75.9717 143.9 76.9526 144.467C78.0217 145.084 78.9778 145.21 79.995 145.077C81.1102 144.927 82.2424 144.493 83.6232 143.909C84.8568 143.401 86.4716 142.717 88.1176 142.462C89.8837 142.203 91.8277 142.4 93.8557 143.571C95.8837 144.741 97.1377 146.362 97.8342 148.057C98.5027 149.649 98.7145 151.343 98.9039 152.746C99.1116 154.321 99.2659 155.454 99.6718 156.481C100.032 157.41 100.566 158.115 101.536 158.675C102.605 159.292 103.561 159.418 104.578 159.285C105.693 159.135 106.826 158.701 108.206 158.117C109.44 157.609 111.055 156.925 112.701 156.67C114.467 156.411 116.411 156.608 118.439 157.778C120.522 158.981 121.714 160.581 122.417 162.265L122.43 162.243Z" fill="#FFED24"/>
<path fill-rule="evenodd" clip-rule="evenodd" d="M100.311 17.1127L11.8336 170.36L-89.379 111.925C-98.1964 106.834 -101.224 95.533 -96.1265 86.7039L-26.1237 -34.5445C-21.0262 -43.3736 -9.72554 -46.4021 -0.908148 -41.3114L100.304 17.1237L100.311 17.1127Z" fill="#FDBE4E"/>
<path fill-rule="evenodd" clip-rule="evenodd" d="M79.016 4.81869L67.9683 23.9539L48.7904 12.8816L37.7618 31.9837L56.9396 43.056L45.8537 62.2574L26.6759 51.1851L15.6346 70.3092L34.8234 81.3879L23.7375 100.589L4.55968 89.517L-6.46894 108.619L12.7089 119.691L1.62296 138.893L-17.5548 127.82L-28.6089 146.967L-47.7978 135.888L-36.7119 116.687L-17.5341 127.759L-6.50543 108.657L-25.6832 97.5845L-14.5973 78.3832L4.58047 89.4555L15.6218 70.3313L-3.55599 59.259L7.52991 40.0576L26.7077 51.13L37.7364 32.0278L18.5585 20.9555L29.6444 1.75415L48.8223 12.8265L59.8445 -6.26466L79.0334 4.81403L79.016 4.81869ZM40.6383 -17.3387L29.5906 1.79653L10.4568 -9.25033L-0.571783 9.85181L18.5619 20.8987L7.47604 40.1L-11.6577 29.0532L-22.699 48.1773L-3.56531 59.2242L-14.6512 78.4256L-33.7849 67.3787L-44.8136 86.4808L-25.6798 97.5277L-36.7657 116.729L-55.8995 105.682L-66.9536 124.828L-86.1424 113.75L-75.0565 94.5484L-55.9228 105.595L-44.8941 86.4931L-64.0279 75.4462L-52.942 56.2449L-33.8082 67.2918L-22.7669 48.1676L-41.9006 37.1207L-30.8147 17.9194L-11.681 28.9662L-0.652345 9.86409L-19.7861 -1.18278L-8.70017 -20.3841L10.4336 -9.33726L21.4495 -28.4174L40.6383 -17.3387ZM2.3047 -39.4706L-8.74302 -20.3354L-27.8878 -31.3886L-38.9164 -12.2865L-19.7716 -1.23324L-30.8575 17.9681L-50.0023 6.91489L-61.0436 26.0391L-41.8989 37.0923L-52.9848 56.2937L-72.1295 45.2404L-83.1582 64.3426L-64.0134 75.3958L-75.0993 94.5971L-94.2441 83.5439L-96.8151 87.997C-96.6063 87.5591 -96.3866 87.1275 -96.1447 86.7087L-94.2674 83.457L-83.2387 64.3548L-72.1528 45.1535L-61.1115 26.0293L-26.1292 -34.5619C-21.0317 -43.3909 -9.73103 -46.4194 -0.913642 -41.3287L2.28266 -39.4833L2.3047 -39.4706ZM87.211 34.9902L76.1251 54.1915L56.9362 43.1128L68.0221 23.9115L87.211 34.9902ZM65.0964 73.2937L54.0105 92.495L34.8217 81.4163L45.9076 62.215L65.0964 73.2937ZM42.9755 111.608L31.8896 130.81L12.7008 119.731L23.7867 100.529L42.9755 111.608ZM20.861 149.912L9.7751 169.113L-9.41374 158.034L1.67216 138.833L20.861 149.912Z" fill="#FECE79"/>
<path fill-rule="evenodd" clip-rule="evenodd" d="M10.8322 193.781L120.088 4.54559C121.602 1.92222 120.692 -1.43964 118.08 -2.94777L112.867 -5.95766C110.244 -7.47215 106.888 -6.57293 105.373 -3.94955L-3.88183 185.286C-5.39643 187.91 -7.21982 189.693 -4.59665 191.208L3.339 195.789C5.96217 197.304 9.31759 196.405 10.8322 193.781Z" fill="#FFE5B7"/>
</g>
<g clip-path="url(#clip2_2238_48567)">
<path fill-rule="evenodd" clip-rule="evenodd" d="M228.016 54.6912C231.193 52.4233 232.747 48.7074 232.38 45.0787C235.103 47.5211 239.031 48.4806 242.75 47.2245C248.231 45.3752 251.164 39.4263 249.314 33.9484C248.092 30.3197 245.054 27.7901 241.545 27.0573C244.775 25.2081 246.904 21.6841 246.817 17.7065C246.678 11.932 241.859 7.36124 236.098 7.5008C232.328 7.58803 229.063 9.6815 227.3 12.717C226.549 9.22792 224.053 6.20983 220.422 4.98863C214.958 3.1394 209.005 6.07026 207.137 11.5307C205.88 15.2467 206.823 19.1719 209.267 21.8934C205.635 21.5271 201.917 23.0623 199.648 26.2374C196.296 30.9477 197.396 37.4898 202.109 40.8394C205.234 43.055 209.144 43.3167 212.409 41.8861C210.96 45.1484 211.222 49.0737 213.439 52.1965C216.791 56.9068 223.32 58.0233 228.033 54.6738L228.016 54.6912Z" fill="#E84D4D"/>
<path fill-rule="evenodd" clip-rule="evenodd" d="M232.363 21.9456C228.174 17.7587 221.383 17.7587 217.193 21.9456C213.003 26.1326 213.003 32.9364 217.193 37.1059C221.383 41.2928 228.174 41.2928 232.363 37.1059C236.553 32.9189 236.553 26.1326 232.363 21.9456Z" fill="#FFEC53"/>
</g>
</g>
<defs>
<clipPath id="clip0_2238_48567">
<rect width="261" height="179" fill="white"/>
</clipPath>
<clipPath id="clip1_2238_48567">
<rect width="391.235" height="232.537" fill="white" transform="translate(-77.7317 -116) rotate(30)"/>
</clipPath>
<clipPath id="clip2_2238_48567">
<rect width="52.1624" height="52.1624" fill="white" transform="translate(197.692 4.44775)"/>
</clipPath>
</defs>
</svg>
