<svg width="127" height="220" viewBox="0 0 127 220" fill="none" xmlns="http://www.w3.org/2000/svg">
<g clip-path="url(#clip0_2238_50475)">
<g clip-path="url(#clip1_2238_50475)">
<path opacity="0.3" d="M100.368 81.0105L-67.1832 -15.7251C-77.9363 -21.9335 -91.6867 -18.2485 -97.8955 -7.49452L-156.145 93.3972C-162.354 104.151 -158.67 117.902 -147.917 124.11L19.634 220.846C30.3871 227.054 44.1375 223.369 50.3463 212.615L108.596 111.723C114.805 100.97 111.121 87.2188 100.368 81.0105Z" fill="#231F20"/>
<path fill-rule="evenodd" clip-rule="evenodd" d="M48.5778 199.863L104.976 102.179C111.609 90.689 107.674 75.9748 96.1854 69.3417L-68.6747 -25.8404C-80.1636 -32.4735 -94.874 -28.5242 -101.508 -17.0344L-157.905 80.6495C-164.539 92.1393 -160.604 106.854 -149.115 113.487L15.7449 208.669C27.2338 215.302 41.9442 211.352 48.5778 199.863Z" fill="#FFC764"/>
<path fill-rule="evenodd" clip-rule="evenodd" d="M41.0887 110.553L38.6642 114.752C36.3071 118.835 30.2733 119.761 25.1912 116.827L-35.3524 81.8724C-40.4345 78.9383 -42.6488 73.2495 -40.2965 69.1752L-37.872 64.9759L41.0672 110.551L41.0887 110.553Z" fill="#FFBD00"/>
<path fill-rule="evenodd" clip-rule="evenodd" d="M47.328 99.7463L49.7573 95.5386C52.1096 91.4643 49.9001 85.7672 44.8132 82.8414L-15.7304 47.8865C-20.8125 44.9523 -26.8463 45.8791 -29.1986 49.9534L-31.6279 54.1611L47.3113 99.7366L47.328 99.7463Z" fill="#FFBD00"/>
<path fill-rule="evenodd" clip-rule="evenodd" d="M51.6539 109.82C53.6359 106.387 51.9683 101.714 47.9277 99.3813L-31.6031 53.4642C-35.6438 51.1313 -40.5247 52.0238 -42.5066 55.4566C-44.4885 58.8894 -42.821 63.5626 -38.7803 65.8955L40.7505 111.813C44.7911 114.145 49.672 113.253 51.6539 109.82Z" fill="#F75105"/>
<path fill-rule="evenodd" clip-rule="evenodd" d="M38.676 97.9168C39.1884 99.1458 39.3674 100.471 39.5045 101.561C39.6685 102.778 39.7839 103.656 40.0977 104.459C40.382 105.179 40.7972 105.729 41.547 106.162C42.3218 106.61 42.6292 107.52 42.2444 108.187C41.8595 108.853 40.9172 109.042 40.1424 108.595C38.5678 107.686 37.6807 106.452 37.1722 105.158C36.698 103.94 36.5392 102.638 36.4008 101.569C36.2461 100.413 36.1083 99.4782 35.773 98.6736C35.472 97.9444 35.0164 97.3481 34.1833 96.8671C33.4335 96.4342 32.7489 96.35 31.9835 96.4636C31.1441 96.5899 30.269 96.9512 29.1775 97.3987C28.1614 97.8119 26.9324 98.3243 25.6071 98.5034C24.2042 98.6822 22.6633 98.5035 21.047 97.5704C19.4307 96.6372 18.5854 95.427 18.0852 94.1384C17.611 92.9204 17.4521 91.6177 17.3137 90.5491C17.159 89.3933 17.0212 88.4583 16.6859 87.6537C16.3766 86.9197 15.9294 86.3282 15.0962 85.8472C14.3464 85.4143 13.6619 85.3301 12.8965 85.4437C12.057 85.57 11.1819 85.9313 10.0905 86.3788C9.08268 86.7968 7.8537 87.3092 6.52003 87.4835C5.11714 87.6623 3.57624 87.4836 1.95997 86.5505C0.343691 85.6173 -0.501687 84.4071 -1.01018 83.1137C-1.48442 81.8956 -1.64324 80.593 -1.78164 79.5244C-1.93635 78.3686 -2.07416 77.4336 -2.40944 76.629C-2.71045 75.8998 -3.16599 75.3035 -3.99913 74.8225C-4.74894 74.3896 -5.4335 74.3054 -6.1989 74.419C-7.03834 74.5453 -7.91343 74.9066 -9.00489 75.3541C-10.0127 75.772 -11.25 76.2797 -12.5753 76.4588C-13.983 76.6459 -15.5275 76.4541 -17.1354 75.5258C-18.7434 74.5974 -19.5971 73.3824 -20.1056 72.089C-20.5846 70.8792 -20.7386 69.5683 -20.877 68.4997C-21.0317 67.3439 -21.1695 66.4089 -21.5048 65.6043C-21.8142 64.8702 -22.2614 64.2788 -23.1028 63.7929C-23.8027 63.3889 -24.4574 63.3108 -25.193 63.4305C-26.0158 63.5665 -26.8646 63.9207 -27.9227 64.3874C-28.9007 64.8115 -30.0964 65.3432 -31.3669 65.5428C-32.7246 65.7588 -34.2204 65.6173 -35.7783 64.7178C-36.5448 64.2753 -36.8653 63.3682 -36.4756 62.6933C-36.086 62.0184 -35.1485 61.8376 -34.3737 62.2849C-33.6572 62.6986 -32.9941 62.7814 -32.2453 62.6583C-31.4142 62.5271 -30.569 62.1597 -29.5073 61.7062C-28.5604 61.2975 -27.3336 60.7504 -26.0714 60.5459C-24.7304 60.3204 -23.2347 60.4618 -21.6802 61.3482C-20.0639 62.2813 -19.134 63.5181 -18.5922 64.8308C-18.0798 66.0598 -17.9091 67.3803 -17.7637 68.4753C-17.5997 69.692 -17.4843 70.5696 -17.1705 71.3729C-16.8861 72.0925 -16.471 72.6432 -15.7211 73.0762C-14.888 73.5572 -14.1438 73.6535 -13.3618 73.5496C-12.4973 73.4377 -11.6187 73.0895 -10.5452 72.6539C-9.58999 72.25 -8.32992 71.7222 -7.05105 71.5274C-5.67667 71.321 -4.17261 71.4673 -2.58966 72.3812C-1.00671 73.2951 -0.0434127 74.5512 0.49841 75.8638C1.01911 77.0976 1.18979 78.4182 1.3269 79.5083C1.49088 80.725 1.60628 81.6026 1.92008 82.4059C2.20443 83.1255 2.61961 83.6763 3.36943 84.1092C4.20256 84.5902 4.94673 84.6866 5.72879 84.5826C6.59322 84.4707 7.47182 84.1226 8.55014 83.6786C9.51371 83.2796 10.7571 82.7421 12.0443 82.5521C13.4187 82.3458 14.9228 82.492 16.5057 83.4059C18.0887 84.3198 19.052 85.5759 19.5938 86.8885C20.1061 88.1175 20.2768 89.4381 20.4271 90.5247C20.5911 91.7414 20.7065 92.619 21.0203 93.4223C21.3046 94.1419 21.7198 94.6927 22.4696 95.1256C23.3027 95.6066 24.0338 95.7065 24.829 95.599C25.7017 95.4919 26.572 95.1389 27.6455 94.7034C28.6008 94.2995 29.8525 93.7668 31.1397 93.5768C32.5141 93.3705 34.0181 93.5167 35.6011 94.4306C37.184 95.3446 38.1473 96.6006 38.6892 97.9133L38.676 97.9168Z" fill="#FFED24"/>
<path fill-rule="evenodd" clip-rule="evenodd" d="M37.1809 189.261L90.096 97.6095C93.9491 90.9356 91.6606 82.3932 84.9955 78.5452L-71.0417 -11.543C-77.715 -15.3958 -86.2489 -13.1018 -90.102 -6.4279L-143.022 85.232C-146.875 91.9059 -144.587 100.448 -137.913 104.301L18.1241 194.389C24.7975 198.242 33.3313 195.948 37.1844 189.274L37.1809 189.261Z" fill="#F5A53E"/>
<path fill-rule="evenodd" clip-rule="evenodd" d="M28.3867 179.962L77.6506 94.6345C79.3968 91.61 78.3533 87.7414 75.3374 86.0001L-72.6767 0.544138C-75.6927 -1.19711 -79.5695 -0.158161 -81.3109 2.85801L-130.575 88.1856C-132.321 91.2101 -131.286 95.0739 -128.262 96.8199L19.7526 182.276C22.7685 184.017 26.6453 182.978 28.3867 179.962Z" fill="#CA6E1D"/>
<path fill-rule="evenodd" clip-rule="evenodd" d="M81.0479 60.6017L84.375 77.8312L100.299 72.3383C101.37 73.312 102.341 74.3617 103.213 75.4872L87.9094 80.7716C87.0636 79.9278 86.0921 79.1669 85.009 78.5416L79.9602 75.6267L77.2966 61.8465L64.0308 66.4298L59.5235 63.8276L76.4954 57.9622L81.0527 60.5934L81.0479 60.6017ZM54.7626 45.4259L58.169 63.0567L53.6618 60.4544L50.9982 46.6742L37.7323 51.2575L33.2334 48.6601L50.2054 42.7948L54.7709 45.4307L54.7626 45.4259ZM28.4773 30.25L31.8837 47.8808L27.3848 45.2834L24.7212 31.5031L11.4554 36.0865L6.94811 33.4842L23.9201 27.6189L28.4773 30.25ZM2.19199 15.0742L5.59844 32.705L1.09954 30.1076L-1.57241 16.3225L-14.8383 20.9059L-19.3455 18.3036L-2.37839 12.4466L2.17884 15.0777L2.19199 15.0742ZM-24.0933 -0.101604L-20.682 17.5209L-25.181 14.9234L-27.8446 1.14315L-41.1104 5.72653L-45.6093 3.12908L-28.6374 -2.73624L-24.0802 -0.105125L-24.0933 -0.101604ZM-50.3786 -15.2774L-46.9722 2.35337L-51.4711 -0.244076L-54.143 -14.0291L-67.4089 -9.44577L-71.0497 -11.5478C-72.5826 -12.4328 -74.2125 -12.9961 -75.8652 -13.2504L-78.9066 -28.993C-77.5205 -28.8926 -76.1373 -28.6717 -74.7702 -28.3267L-71.6388 -12.1435L-54.931 -17.9169L-50.3655 -15.2809L-50.3786 -15.2774ZM-99.5959 -19.8637L-93.2561 -0.983633L-97.7298 6.76509L-113.581 9.97785L-108.438 25.312L-112.912 33.0608L-128.763 36.2735L-123.62 51.6077L-128.093 59.3564L-143.945 62.5692L-138.801 77.9034L-143.02 85.2105C-143.294 85.6854 -143.539 86.1664 -143.75 86.6667L-143.769 86.7L-160.991 90.1884C-160.842 88.7964 -160.578 87.4157 -160.186 86.0427L-141.455 82.2484L-147.793 63.3469L-147.915 63.3655L-145.231 58.7162L-145.191 58.8393L-126.56 55.0649L-132.607 37.0429L-132.733 37.0698L-130.049 32.4206L-130.009 32.5437L-111.378 28.7692L-117.425 10.7473L-117.551 10.7741L-114.867 6.12491L-114.827 6.248L-96.1963 2.47354L-102.283 -15.6715L-101.489 -17.0463C-100.912 -18.0461 -100.269 -18.986 -99.578 -19.8755L-99.5959 -19.8637ZM104.968 102.174L104.112 103.657L85.9131 107.626L91.5755 125.37L88.9298 129.953L70.7396 133.926L76.3937 151.666L73.748 156.248L55.553 160.23L61.2071 177.97L58.5613 182.552L38.926 186.836L44.6895 204.905C43.6995 205.889 42.6287 206.781 41.4999 207.563L36.1541 190.79C36.5239 190.303 36.865 189.789 37.1777 189.248L41.1223 182.416L57.4563 178.848L52.374 162.927L56.3041 156.12L72.6381 152.553L67.5606 136.623L71.4907 129.816L87.8247 126.249L82.7424 110.328L86.6725 103.52L106.421 99.2138C106.008 100.219 105.526 101.207 104.973 102.166L104.968 102.174ZM-137.921 104.296L-135.63 105.619L-131.738 120.408L-116.98 116.376L-109.332 120.791L-105.445 135.589L-90.6909 131.565L-83.0428 135.98L-79.151 150.77L-64.3925 146.737L-56.7443 151.153L-52.8657 165.945L-38.1072 161.913L-30.459 166.328L-26.5721 181.126L-11.8135 177.093L-4.17374 181.504L-0.282006 196.293L14.4634 192.264L18.1542 194.395C19.6538 195.261 21.2456 195.813 22.8589 196.078L27.0121 211.896C25.6913 211.856 24.3818 211.7 23.0739 211.444L18.7341 194.93L0.649389 199.875L0.674023 199.967L-3.9415 197.302L-3.84951 197.278L-8.38875 179.993L-25.6276 184.704L-25.6029 184.796L-30.2268 182.127L-30.1348 182.102L-34.674 164.817L-51.9129 169.528L-51.8882 169.62L-56.5038 166.956L-56.4118 166.931L-60.951 149.646L-78.1898 154.357L-78.1652 154.449L-82.7807 151.785L-82.6888 151.76L-87.228 134.475L-104.467 139.186L-104.442 139.278L-109.058 136.614L-108.966 136.589L-113.505 119.304L-130.744 124.015L-130.719 124.107L-135.335 121.443L-135.243 121.418L-139.928 103.559L-155.677 107.865C-156.508 106.841 -157.241 105.762 -157.88 104.638L-142.215 100.362C-141.094 101.942 -139.624 103.302 -137.841 104.331L-137.921 104.296ZM-160.831 96.3573L-159.576 101.148C-160.159 99.6001 -160.576 97.9933 -160.831 96.3573Z" fill="#F8AC40"/>
<path fill-rule="evenodd" clip-rule="evenodd" d="M42.321 131.027L22.0165 55.1594L-53.8391 75.5091L-33.5346 151.377L42.321 131.027Z" fill="white"/>
<path fill-rule="evenodd" clip-rule="evenodd" d="M48.0224 113.956L45.6605 118.047C43.3707 122.013 37.4933 122.919 32.5529 120.066L-26.3912 86.035C-31.3316 83.1826 -33.4857 77.6396 -31.1959 73.6736L-28.834 69.5826L48.0224 113.956Z" fill="#F7C900"/>
<path fill-rule="evenodd" clip-rule="evenodd" d="M54.0979 103.432L56.4598 99.3415C58.7496 95.3755 56.5956 89.8325 51.6551 86.9802L-7.28895 52.9488C-12.2378 50.0916 -18.1068 51.0024 -20.3965 54.9684L-22.7585 59.0594L54.0979 103.432Z" fill="#F7C900"/>
<path fill-rule="evenodd" clip-rule="evenodd" d="M58.2967 113.245C60.2257 109.903 58.5982 105.353 54.6658 103.083L-22.7571 58.3828C-26.6895 56.1125 -31.4355 56.9829 -33.3645 60.324C-35.2935 63.6651 -33.666 68.2153 -29.7419 70.4808L47.681 115.181C51.6134 117.451 56.3677 116.586 58.2967 113.245Z" fill="#F74100"/>
<path fill-rule="evenodd" clip-rule="evenodd" d="M45.6705 101.655C46.1758 102.858 46.3443 104.144 46.4792 105.2C46.6409 106.382 46.7528 107.246 47.0512 108.018C47.3237 108.72 47.727 109.253 48.4602 109.676C49.1934 110.099 49.5103 110.993 49.1351 111.643C48.7599 112.293 47.8438 112.475 47.094 112.042C45.5611 111.157 44.7026 109.951 44.1998 108.705C43.7361 107.526 43.5843 106.25 43.4482 105.216C43.3005 104.086 43.1649 103.186 42.8415 102.399C42.544 101.683 42.1003 101.105 41.2922 100.638C40.559 100.215 39.896 100.132 39.152 100.247C38.3341 100.375 37.4817 100.716 36.4249 101.161C35.435 101.567 34.2455 102.069 32.9512 102.233C31.583 102.409 30.085 102.233 28.5104 101.324C26.9774 100.439 26.1106 99.2276 25.621 97.9785C25.1573 96.7998 25.0007 95.5318 24.8694 94.4895C24.7169 93.3683 24.5861 92.4596 24.2627 91.6729C23.9735 90.9616 23.5298 90.3833 22.7134 89.9119C21.9802 89.4886 21.3171 89.4057 20.5732 89.5206C19.7552 89.6483 18.9029 89.9894 17.8377 90.4298C16.8479 90.8359 15.6583 91.3378 14.3641 91.5015C12.9958 91.678 11.4979 91.502 9.93156 90.5977C8.3986 89.7126 7.54008 88.506 7.04214 87.252C6.57014 86.0685 6.42189 84.8053 6.29053 83.763C6.13805 82.6418 6.00728 81.7331 5.67552 80.9416C5.38636 80.2303 4.93434 79.6472 4.12621 79.1806C3.39305 78.7573 2.72996 78.6744 1.98604 78.7893C1.16807 78.9169 0.315751 79.2581 -0.749428 79.6985C-1.73928 80.1046 -2.92884 80.6065 -4.22308 80.7702C-5.59136 80.9467 -7.08932 80.7707 -8.66394 79.8616C-10.2386 78.9525 -11.0554 77.7698 -11.5533 76.5159C-12.017 75.3372 -12.1736 74.0692 -12.305 73.0269C-12.4575 71.9057 -12.5882 70.997 -12.9116 70.2103C-13.2091 69.4942 -13.6528 68.9159 -14.461 68.4493C-15.1441 68.0549 -15.7774 67.9781 -16.4999 68.0942C-17.2963 68.2232 -18.132 68.5739 -19.1591 69.0252C-20.1108 69.4422 -21.2705 69.9502 -22.5064 70.1476C-23.8212 70.3662 -25.2871 70.2308 -26.8034 69.3554C-27.5533 68.9225 -27.8536 68.0381 -27.4784 67.3882C-27.1031 66.7383 -26.1871 66.5562 -25.4373 66.9891C-24.7374 67.3932 -24.091 67.4664 -23.3686 67.3503C-22.5637 67.2261 -21.7364 66.8706 -20.701 66.4241C-19.7804 66.0225 -18.5896 65.4991 -17.362 65.2969C-16.0555 65.0735 -14.5979 65.2041 -13.0816 66.0795C-11.507 66.9886 -10.6056 68.1979 -10.0743 69.4711C-9.56898 70.6738 -9.40887 71.9549 -9.26566 73.0152C-9.10872 74.2057 -8.99203 75.0618 -8.68527 75.8388C-8.41277 76.5405 -8.00945 77.0733 -7.27629 77.4966C-6.46815 77.9632 -5.74546 78.0582 -4.97654 77.9578C-4.12526 77.8494 -3.27773 77.5166 -2.22569 77.0798C-1.29322 76.6961 -0.0809098 76.174 1.17167 75.9862C2.50663 75.7904 3.97608 75.9389 5.50904 76.824C7.042 77.709 7.98511 78.9423 8.51637 80.2155C9.02169 81.4182 9.18182 82.6994 9.32503 83.7597C9.48197 84.9501 9.60346 85.7979 9.89708 86.5784C10.1696 87.2801 10.5812 87.8177 11.3061 88.2362C12.1142 88.7028 12.8369 88.7979 13.6058 88.6974C14.4488 88.5842 15.3046 88.2563 16.3483 87.8146C17.2808 87.4309 18.5014 86.9136 19.7457 86.721C21.0807 86.5252 22.5501 86.6737 24.0831 87.5588C25.616 88.4438 26.5591 89.6771 27.0904 90.9504C27.5957 92.1531 27.7558 93.4342 27.8991 94.4945C28.0477 95.6801 28.1727 96.5411 28.4794 97.3181C28.7519 98.0197 29.1553 98.5526 29.8884 98.9758C30.6966 99.4424 31.4192 99.5375 32.1882 99.4371C33.0311 99.3239 33.887 98.9959 34.9342 98.5674C35.8667 98.1837 37.079 97.6616 38.3316 97.4738C39.6665 97.278 41.136 97.4265 42.6689 98.3116C44.2019 99.1966 45.1498 100.422 45.6763 101.703L45.6705 101.655Z" fill="#D72C0B"/>
<path fill-rule="evenodd" clip-rule="evenodd" d="M24.5419 154.624L22.18 158.715C19.8854 162.689 14.0129 163.587 9.0724 160.735L-49.8717 126.703C-54.8205 123.846 -56.9662 118.308 -54.6812 114.35L-52.3193 110.259L24.5371 154.632L24.5419 154.624Z" fill="#F7C900"/>
<path fill-rule="evenodd" clip-rule="evenodd" d="M30.6179 144.101L32.9799 140.01C35.2745 136.035 33.1156 130.501 28.1668 127.644L-30.7772 93.6122C-35.726 90.7551 -41.595 91.6659 -43.8848 95.6319L-46.2468 99.7229L30.6096 144.096L30.6179 144.101Z" fill="#F7C900"/>
<path fill-rule="evenodd" clip-rule="evenodd" d="M34.8172 153.913C36.7414 150.58 35.1187 146.022 31.1863 143.751L-46.2366 99.0512C-50.169 96.7808 -54.915 97.6512 -56.844 100.992C-58.7729 104.333 -57.1455 108.884 -53.2214 111.149L24.2015 155.849C28.1339 158.12 32.8882 157.254 34.8172 153.913Z" fill="#F74100"/>
<path fill-rule="evenodd" clip-rule="evenodd" d="M22.1906 142.324C22.696 143.526 22.8644 144.812 22.9993 145.868C23.1562 147.058 23.2729 147.914 23.5713 148.687C23.8438 149.388 24.2472 149.921 24.9803 150.344C25.7301 150.777 26.0305 151.662 25.6552 152.311C25.28 152.961 24.364 153.143 23.6141 152.711C22.0812 151.826 21.2143 150.614 20.7247 149.365C20.2611 148.186 20.1045 146.918 19.9731 145.876C19.8254 144.746 19.6815 143.841 19.3581 143.055C19.0606 142.338 18.6169 141.76 17.8088 141.294C17.0756 140.87 16.4126 140.787 15.6686 140.902C14.8507 141.03 13.9983 141.371 12.9415 141.816C11.9516 142.222 10.7621 142.724 9.46784 142.888C8.09956 143.064 6.59326 142.884 5.02698 141.979C3.46069 141.075 2.63551 139.888 2.13757 138.634C1.6739 137.455 1.52563 136.192 1.38595 135.145C1.23827 134.015 1.10271 133.115 0.779279 132.328C0.481786 131.612 0.0464317 131.038 -0.770039 130.567C-1.50319 130.144 -2.16628 130.061 -2.91021 130.176C-3.7365 130.299 -4.5805 130.644 -5.64569 131.085C-6.63554 131.491 -7.82508 131.993 -9.11932 132.157C-10.4876 132.333 -11.9856 132.157 -13.5519 131.253C-15.0848 130.368 -15.9433 129.161 -16.4413 127.907C-16.9085 126.715 -17.0615 125.46 -17.1929 124.418C-17.3454 123.297 -17.4761 122.388 -17.8079 121.597C-18.097 120.885 -18.5491 120.302 -19.3572 119.836C-20.0904 119.412 -20.7535 119.33 -21.5057 119.44C-22.3237 119.567 -23.176 119.908 -24.2412 120.349C-25.2227 120.76 -26.4206 121.257 -27.7148 121.42C-29.0831 121.597 -30.5762 121.413 -32.1473 120.517C-33.6803 119.632 -34.5388 118.425 -35.0368 117.171C-35.504 115.979 -35.657 114.724 -35.7967 113.677C-35.9492 112.556 -36.08 111.647 -36.4034 110.861C-36.7009 110.145 -37.1446 109.566 -37.9527 109.1C-38.6359 108.705 -39.2692 108.628 -39.9916 108.745C-40.7881 108.873 -41.6238 109.224 -42.6508 109.675C-43.6025 110.093 -44.7671 110.609 -46.0113 110.801C-47.3261 111.02 -48.7872 110.876 -50.3035 110.001C-51.0533 109.568 -51.3536 108.684 -50.9784 108.034C-50.6032 107.384 -49.6872 107.202 -48.9373 107.635C-48.2375 108.039 -47.5911 108.112 -46.8603 108.001C-46.0507 107.868 -45.2282 107.521 -44.2011 107.07C-43.2805 106.668 -42.0896 106.145 -40.862 105.942C-39.5521 105.732 -38.0945 105.863 -36.5865 106.733C-35.0786 107.604 -34.1056 108.843 -33.5792 110.125C-33.0822 111.323 -32.9138 112.609 -32.7705 113.669C-32.6136 114.859 -32.4969 115.716 -32.1902 116.493C-31.9093 117.199 -31.506 117.732 -30.7728 118.155C-29.9647 118.622 -29.242 118.717 -28.4731 118.616C-27.6218 118.508 -26.7743 118.175 -25.7222 117.738C-24.7981 117.35 -23.5775 116.833 -22.3249 116.645C-20.9899 116.449 -19.5205 116.598 -17.9827 117.474C-16.4164 118.379 -15.5066 119.593 -14.9837 120.861C-14.4784 122.064 -14.3183 123.345 -14.175 124.405C-14.0181 125.596 -13.9098 126.447 -13.603 127.224C-13.3222 127.93 -12.9272 128.458 -12.1857 128.886C-11.3775 129.353 -10.6549 129.448 -9.88594 129.348C-9.04298 129.235 -8.18712 128.907 -7.14341 128.465C-6.21094 128.081 -4.9903 127.564 -3.74604 127.371C-2.41109 127.176 -0.94164 127.324 0.591321 128.209C2.12429 129.094 3.07222 130.319 3.59866 131.601C4.10399 132.803 4.2641 134.084 4.40731 135.145C4.56425 136.335 4.68094 137.191 4.9877 137.968C5.2602 138.67 5.66351 139.203 6.39667 139.626C7.2048 140.093 7.92751 140.188 8.69642 140.087C9.53938 139.974 10.3952 139.646 11.4389 139.205C12.3714 138.821 13.5921 138.304 14.8363 138.111C16.1713 137.915 17.6407 138.064 19.1737 138.949C20.7483 139.858 21.6498 141.067 22.181 142.34L22.1906 142.324Z" fill="#FFED24"/>
<path fill-rule="evenodd" clip-rule="evenodd" d="M5.46967 32.6198L-61.4101 148.459L-137.917 104.288C-144.582 100.44 -146.87 91.8976 -143.017 85.2237L-90.102 -6.42787C-86.2488 -13.1018 -77.7066 -15.391 -71.0416 -11.5429L5.46486 32.6281L5.46967 32.6198Z" fill="#FDBE4E"/>
<path fill-rule="evenodd" clip-rule="evenodd" d="M-10.6258 23.3266L-18.9768 37.7909L-33.4733 29.4214L-41.8098 43.8607L-27.3133 52.2302L-35.6931 66.7445L-50.1896 58.3749L-58.5358 72.8309L-44.0309 81.2052L-52.4108 95.7195L-66.9072 87.35L-75.2438 101.789L-60.7473 110.159L-69.1271 124.673L-83.6236 116.304L-91.9794 130.776L-106.484 122.402L-98.1044 107.887L-83.6079 116.257L-75.2713 101.818L-89.7678 93.4482L-81.388 78.9339L-66.8915 87.3035L-58.5454 72.8475L-73.0419 64.478L-64.662 49.9637L-50.1656 58.3333L-41.829 43.894L-56.3255 35.5244L-47.9457 21.0102L-33.4492 29.3797L-25.1175 14.9488L-10.6127 23.3231L-10.6258 23.3266ZM-39.6355 6.57792L-47.9864 21.0422L-62.4496 12.6919L-70.7861 27.1312L-56.3229 35.4815L-64.7028 49.9958L-79.1659 41.6454L-87.5121 56.1014L-73.0489 64.4517L-81.4287 78.966L-95.8919 70.6157L-104.228 85.0549L-89.7653 93.4053L-98.1451 107.92L-112.608 99.5692L-120.964 114.042L-135.469 105.667L-127.089 91.1532L-112.626 99.5035L-104.289 85.0642L-118.752 76.7139L-110.373 62.1996L-95.9095 70.5499L-87.5633 56.094L-102.027 47.7437L-93.6467 33.2294L-79.1835 41.5797L-70.847 27.1405L-85.3102 18.7901L-76.9303 4.27587L-62.4672 12.6262L-54.1403 -1.79644L-39.6355 6.57792ZM-68.6118 -10.1516L-76.9627 4.31272L-91.4342 -4.0424L-99.7707 10.3969L-85.2993 18.752L-93.6791 33.2663L-108.151 24.9112L-116.497 39.3671L-102.025 47.7222L-110.405 62.2365L-124.877 53.8814L-133.213 68.3207L-118.742 76.6758L-127.121 91.19L-141.593 82.8349L-143.536 86.201C-143.378 85.87 -143.212 85.5438 -143.03 85.2271L-141.61 82.7692L-133.274 68.3299L-124.894 53.8157L-116.548 39.3597L-90.1049 -6.44106C-86.2517 -13.115 -77.7096 -15.4042 -71.0445 -11.5561L-68.6284 -10.1612L-68.6118 -10.1516ZM-4.43125 46.1332L-12.8111 60.6475L-27.3159 52.2732L-18.9361 37.7589L-4.43125 46.1332ZM-21.1476 75.0868L-29.5274 89.6011L-44.0322 81.2267L-35.6524 66.7124L-21.1476 75.0868ZM-37.8687 104.049L-46.2486 118.563L-60.7534 110.189L-52.3736 95.6743L-37.8687 104.049ZM-54.5851 133.002L-62.9649 147.517L-77.4697 139.142L-69.0899 124.628L-54.5851 133.002Z" fill="#FECE79"/>
<path fill-rule="evenodd" clip-rule="evenodd" d="M-62.167 166.163L20.419 23.1201C21.5639 21.1371 20.876 18.5959 18.9015 17.4559L14.9608 15.1807C12.9779 14.0359 10.4416 14.7156 9.2967 16.6987L-73.2893 159.742C-74.4342 161.725 -75.8125 163.073 -73.8296 164.218L-67.8311 167.681C-65.8482 168.826 -63.3118 168.146 -62.167 166.163Z" fill="#FFE5B7"/>
</g>
<g clip-path="url(#clip2_2238_50475)">
<path fill-rule="evenodd" clip-rule="evenodd" d="M102.253 50.5652C104.689 48.8696 105.881 46.0913 105.6 43.3783C107.688 45.2044 110.7 45.9218 113.552 44.9826C117.755 43.6 120.004 39.1522 118.585 35.0565C117.648 32.3435 115.319 30.4522 112.628 29.9044C115.104 28.5218 116.738 25.887 116.671 22.9131C116.564 18.5957 112.869 15.1783 108.451 15.2826C105.56 15.3478 103.056 16.9131 101.704 19.1826C101.129 16.5739 99.2142 14.3174 96.4297 13.4044C92.2397 12.0218 87.6747 14.2131 86.2423 18.2957C85.2785 21.0739 86.0014 24.0087 87.8755 26.0435C85.0911 25.7696 82.2397 26.9174 80.4994 29.2913C77.9291 32.8131 78.7725 37.7044 82.3869 40.2087C84.7832 41.8652 87.7818 42.0609 90.2852 40.9913C89.1741 43.4304 89.3749 46.3652 91.075 48.7C93.6453 52.2218 98.652 53.0565 102.266 50.5522L102.253 50.5652Z" fill="#E84D4D"/>
<path fill-rule="evenodd" clip-rule="evenodd" d="M105.587 26.0826C102.374 22.9521 97.1664 22.9521 93.9536 26.0826C90.7407 29.213 90.7407 34.3 93.9536 37.4173C97.1664 40.5478 102.374 40.5478 105.587 37.4173C108.8 34.2869 108.8 29.213 105.587 26.0826Z" fill="#FFEC53"/>
</g>
</g>
<defs>
<clipPath id="clip0_2238_50475">
<rect width="127" height="220" fill="white"/>
</clipPath>
<clipPath id="clip1_2238_50475">
<rect width="295.734" height="175.774" fill="white" transform="translate(-129.113 -68) rotate(30)"/>
</clipPath>
<clipPath id="clip2_2238_50475">
<rect width="40" height="39" fill="white" transform="translate(79 13)"/>
</clipPath>
</defs>
</svg>
