<svg width="44" height="44" viewBox="0 0 44 44" fill="none" xmlns="http://www.w3.org/2000/svg">
<path d="M28 5.5V16.5" stroke="#7F35E9" stroke-miterlimit="10"/>
<path d="M28 9.66602C29.6569 9.66602 31 8.32287 31 6.66602C31 5.00916 29.6569 3.66602 28 3.66602C26.3431 3.66602 25 5.00916 25 6.66602C25 8.32287 26.3431 9.66602 28 9.66602Z" fill="url(#paint0_linear_2233_51271)"/>
<path d="M15 5.5V16.5" stroke="#7F34E9" stroke-miterlimit="10"/>
<path d="M15 9.66602C16.6569 9.66602 18 8.32287 18 6.66602C18 5.00916 16.6569 3.66602 15 3.66602C13.3431 3.66602 12 5.00916 12 6.66602C12 8.32287 13.3431 9.66602 15 9.66602Z" fill="url(#paint1_linear_2233_51271)"/>
<rect x="3" y="20" width="5" height="8" rx="1" fill="url(#paint2_linear_2233_51271)"/>
<path d="M41 21C41 20.4477 40.5523 20 40 20H37C36.4477 20 36 20.4477 36 21V27C36 27.5523 36.4477 28 37 28H40C40.5523 28 41 27.5523 41 27V21Z" fill="url(#paint3_linear_2233_51271)"/>
<path fill-rule="evenodd" clip-rule="evenodd" d="M8 12.4355C6.89543 12.4355 6 13.331 6 14.4355V33.9547C6 35.0593 6.89543 35.9547 8 35.9547H23.9196L31.6003 39.7181L30.1601 35.9547H36C37.1046 35.9547 38 35.0593 38 33.9547V14.4355C38 13.331 37.1046 12.4355 36 12.4355H8Z" fill="url(#paint4_linear_2233_51271)"/>
<circle cx="16" cy="23" r="3" fill="#8138EA"/>
<circle cx="29" cy="23" r="3" fill="#8138EA"/>
<defs>
<linearGradient id="paint0_linear_2233_51271" x1="28" y1="3.66602" x2="28" y2="9.66602" gradientUnits="userSpaceOnUse">
<stop stop-color="#995AF4"/>
<stop offset="0.677083" stop-color="#792CE6"/>
<stop offset="1" stop-color="#995AF4"/>
</linearGradient>
<linearGradient id="paint1_linear_2233_51271" x1="15" y1="3.66602" x2="15" y2="9.66602" gradientUnits="userSpaceOnUse">
<stop stop-color="#995AF4"/>
<stop offset="0.677083" stop-color="#792CE6"/>
<stop offset="1" stop-color="#995AF4"/>
</linearGradient>
<linearGradient id="paint2_linear_2233_51271" x1="5.5" y1="20" x2="5.5" y2="28" gradientUnits="userSpaceOnUse">
<stop stop-color="#995AF4"/>
<stop offset="0.677083" stop-color="#792CE6"/>
<stop offset="1" stop-color="#995AF4"/>
</linearGradient>
<linearGradient id="paint3_linear_2233_51271" x1="38.5" y1="20" x2="38.5" y2="28" gradientUnits="userSpaceOnUse">
<stop stop-color="#995AF4"/>
<stop offset="0.677083" stop-color="#792CE6"/>
<stop offset="1" stop-color="#995AF4"/>
</linearGradient>
<linearGradient id="paint4_linear_2233_51271" x1="22" y1="12.4355" x2="22" y2="39.7181" gradientUnits="userSpaceOnUse">
<stop stop-color="#CFAEFF"/>
<stop offset="1" stop-color="#BA8BFF"/>
</linearGradient>
</defs>
</svg>
