<svg width="44" height="45" viewBox="0 0 44 45" fill="none" xmlns="http://www.w3.org/2000/svg">
<g clip-path="url(#clip0_6154_29129)">
<path d="M37 40.5805V11.3947L27.5858 1.98047H10.25C8.48751 1.98047 7 3.4697 7 5.38047V40.5805C7 42.4912 8.48751 43.9805 10.25 43.9805H33.75C35.5125 43.9805 37 42.4912 37 40.5805Z" fill="white" stroke="#DF4642" stroke-width="2"/>
<path d="M18.5419 13.8025V15.4154V17.1009V23.8448C18.0885 23.5859 17.5572 23.434 16.9866 23.434C15.3376 23.434 14 24.6803 14 26.2161C14 27.7537 15.3372 29 16.9866 29C18.6348 29 19.9717 27.754 19.972 26.2168V16.7177L27.5698 14.6819V21.4432C27.1165 21.1843 26.5852 21.0323 26.0145 21.0323C24.3648 21.0323 23.028 22.2783 23.028 23.8142C23.028 25.3514 24.3648 26.598 26.0145 26.598C27.5677 26.598 28.8441 25.49 28.9857 24.0754H29V14.2987V13.1037V11L18.5419 13.8025Z" fill="#DF4642"/>
<path d="M38 33V40.2C38 42.851 36.0972 45 33.75 45H10.25C7.90282 45 6 42.851 6 40.2V33H38Z" fill="#DF4642"/>
<path d="M17.346 40.79C17.08 40.79 16.667 40.685 16.597 40.447L15.89 37.892L15.568 41.042H14.245L14.833 36.093C14.875 35.666 15.253 35.421 15.568 35.393C15.904 35.365 16.373 35.505 16.499 35.967L17.346 39.173L18.193 35.967C18.319 35.505 18.788 35.365 19.124 35.393C19.439 35.421 19.817 35.666 19.859 36.093L20.447 41.042H19.124L18.809 37.871L18.095 40.447C18.025 40.685 17.612 40.79 17.346 40.79ZM23.3804 39.376H22.5124V41.042H21.0704V36.513C21.0704 35.708 21.3224 35.407 22.1624 35.407H23.3804C24.5914 35.407 25.4804 36.009 25.4804 37.332V37.451C25.4804 38.774 24.5914 39.376 23.3804 39.376ZM22.5124 36.828V38.158H23.3104C23.7794 38.158 24.0454 37.808 24.0454 37.416V37.367C24.0454 36.975 23.7794 36.625 23.3104 36.625H22.7154C22.5544 36.625 22.5124 36.66 22.5124 36.828ZM29.7705 39.278C29.7705 40.468 28.8675 41.161 27.7965 41.161C27.1735 41.161 26.4805 41.007 26.1515 40.552C25.9625 40.293 25.9905 39.915 26.2285 39.705C26.4245 39.53 26.7045 39.53 26.9145 39.586C27.0475 39.621 27.1525 39.726 27.2295 39.775C27.3905 39.873 27.5585 39.887 27.7685 39.887C28.1185 39.887 28.3985 39.614 28.3985 39.236C28.3985 38.83 28.0205 38.606 27.5585 38.606H27.2225C27.0195 38.606 26.8235 38.431 26.7745 38.235C26.7115 37.983 26.7675 37.773 27.0055 37.556L28.0835 36.59H26.7045C26.2915 36.59 26.1305 36.282 26.1305 36.009C26.1305 35.743 26.2985 35.421 26.7045 35.421H28.8815C29.6375 35.421 29.9245 36.303 29.4485 36.779L28.4685 37.752C29.1125 37.822 29.7705 38.403 29.7705 39.278Z" fill="white"/>
</g>
<defs>
<clipPath id="clip0_6154_29129">
<rect width="44" height="44" fill="white" transform="translate(0 0.980469)"/>
</clipPath>
</defs>
</svg>
