<svg width="44" height="44" viewBox="0 0 44 44" fill="none" xmlns="http://www.w3.org/2000/svg">
<path d="M0 37.9679C0 39.2045 0.947368 40.2162 2.10526 40.2162H41.8947C43.0526 40.2162 44 39.2045 44 37.9679V12H0V37.9679Z" fill="url(#paint0_linear_2233_51265)"/>
<path d="M41.8947 4H2.10526C0.947368 4 0 5.04499 0 6.32221V12H44V6.32221C44 5.04499 43.0526 4 41.8947 4Z" fill="url(#paint1_linear_2233_51265)"/>
<path d="M12.9314 25.048C13.7885 24.4495 14.36 23.452 14.36 22.3285C14.36 20.491 12.8573 19 11.0055 19C9.15363 19 7.65098 20.491 7.65098 22.3285C7.65098 23.452 8.21183 24.439 9.07955 25.048C6.9314 25.2475 5.23828 27.022 5.23828 29.2061V30.8787C5.23828 33.1992 16.7621 33.1992 16.7621 30.8787V29.2061C16.7621 27.022 15.069 25.2475 12.9208 25.048H12.9314Z" fill="url(#paint2_linear_2233_51265)"/>
<path d="M29.7735 20.0479H24.064C23.5028 20.0479 23.0478 20.5005 23.0478 21.0588C23.0478 21.6171 23.5028 22.0698 24.064 22.0698H29.7735C30.3347 22.0698 30.7897 21.6171 30.7897 21.0588C30.7897 20.5005 30.3347 20.0479 29.7735 20.0479Z" fill="url(#paint3_linear_2233_51265)"/>
<path d="M36.8464 24.2383H23.9158C23.4364 24.2383 23.0478 24.7073 23.0478 25.2859C23.0478 25.8645 23.4364 26.3335 23.9158 26.3335H36.8464C37.3258 26.3335 37.7145 25.8645 37.7145 25.2859C37.7145 24.7073 37.3258 24.2383 36.8464 24.2383Z" fill="url(#paint4_linear_2233_51265)"/>
<path d="M36.8464 28.4287H23.9158C23.4364 28.4287 23.0478 28.8977 23.0478 29.4763C23.0478 30.0549 23.4364 30.5239 23.9158 30.5239H36.8464C37.3258 30.5239 37.7145 30.0549 37.7145 29.4763C37.7145 28.8977 37.3258 28.4287 36.8464 28.4287Z" fill="url(#paint5_linear_2233_51265)"/>
<defs>
<linearGradient id="paint0_linear_2233_51265" x1="22" y1="3.81617" x2="22" y2="32.9317" gradientUnits="userSpaceOnUse">
<stop stop-color="white"/>
<stop offset="0.81" stop-color="#C7E4FF"/>
</linearGradient>
<linearGradient id="paint1_linear_2233_51265" x1="22" y1="5.03338" x2="22" y2="11.164" gradientUnits="userSpaceOnUse">
<stop stop-color="#14A2FF"/>
<stop offset="1" stop-color="#007ED1"/>
</linearGradient>
<linearGradient id="paint2_linear_2233_51265" x1="11.0055" y1="21.2785" x2="11.0055" y2="34.7081" gradientUnits="userSpaceOnUse">
<stop stop-color="#14A2FF"/>
<stop offset="1" stop-color="#007ED1"/>
</linearGradient>
<linearGradient id="paint3_linear_2233_51265" x1="26.924" y1="19.3774" x2="26.924" y2="21.745" gradientUnits="userSpaceOnUse">
<stop stop-color="#14A2FF"/>
<stop offset="1" stop-color="#007ED1"/>
</linearGradient>
<linearGradient id="paint4_linear_2233_51265" x1="30.3856" y1="23.5435" x2="30.3856" y2="26.0078" gradientUnits="userSpaceOnUse">
<stop stop-color="#14A2FF"/>
<stop offset="1" stop-color="#007ED1"/>
</linearGradient>
<linearGradient id="paint5_linear_2233_51265" x1="30.3856" y1="27.7339" x2="30.3856" y2="30.1983" gradientUnits="userSpaceOnUse">
<stop stop-color="#14A2FF"/>
<stop offset="1" stop-color="#007ED1"/>
</linearGradient>
</defs>
</svg>
