<svg width="30" height="30" viewBox="0 0 30 30" fill="none" xmlns="http://www.w3.org/2000/svg">
<path d="M4 7.94339C4 6.91177 4.8363 6.07547 5.86792 6.07547H8.11484V15.4151C5.84228 15.4151 4 13.5728 4 11.3002V7.94339Z" fill="white"/>
<path d="M25.8736 7.94339C25.8736 6.91177 25.0373 6.07547 24.0057 6.07547H21.7588V15.4151C24.0313 15.4151 25.8736 13.5728 25.8736 11.3002V7.94339Z" fill="white"/>
<path d="M25.8736 7.94342C25.8736 6.9118 25.0373 6.0755 24.0057 6.0755H21.7588V15.4151C24.0313 15.4151 25.8736 13.5728 25.8736 11.3003V7.94342Z" fill="url(#paint0_linear_4020_18832)"/>
<path d="M25.8736 7.94339C25.8736 6.91177 25.0373 6.07547 24.0057 6.07547H21.7588V15.4151C24.0313 15.4151 25.8736 13.5728 25.8736 11.3002V7.94339Z" fill="white"/>
<path fill-rule="evenodd" clip-rule="evenodd" d="M6.59882 6.07547C6.59882 4.92922 7.56844 4 8.76452 4H20.8925C22.0886 4 23.0582 4.92922 23.0582 6.07547V13.3396C23.0582 16.9689 20.5001 20.0257 17.0176 20.9443C16.5124 21.0776 16.128 21.5147 16.128 22.0372C16.128 22.6211 16.6013 23.0944 17.1851 23.0944H19.8097C20.4077 23.0944 20.8925 23.559 20.8925 24.1321C20.8925 25.1637 20.0562 26 19.0246 26H10.6325C9.60085 26 8.76456 25.1637 8.76456 24.1321C8.76456 23.559 9.24936 23.0944 9.84741 23.0944H12.4719C13.0558 23.0944 13.5291 22.6211 13.5291 22.0372C13.5291 21.5147 13.1447 21.0776 12.6395 20.9443C9.15691 20.0257 6.59882 16.9689 6.59882 13.3396V6.07547ZM14.3231 9.22024C14.5253 8.66263 15.3482 8.66263 15.5505 9.22024L16.0358 10.5584C16.1251 10.8044 16.3646 10.9712 16.6363 10.9765L18.1143 11.0054C18.7302 11.0174 18.9845 11.7674 18.4936 12.124L17.3156 12.98C17.099 13.1373 17.0075 13.4072 17.0862 13.6564L17.5143 15.0124C17.6927 15.5775 17.027 16.041 16.5213 15.7038L15.3079 14.8946C15.0848 14.7459 14.7887 14.7459 14.5657 14.8946L13.3522 15.7038C12.8466 16.041 12.1809 15.5775 12.3593 15.0124L12.7873 13.6564C12.866 13.4072 12.7745 13.1373 12.558 12.9799L11.38 12.124C10.8891 11.7674 11.1434 11.0174 11.7592 11.0054L13.2373 10.9765C13.5089 10.9712 13.7485 10.8044 13.8377 10.5584L14.3231 9.22024Z" fill="white"/>
<defs>
<linearGradient id="paint0_linear_4020_18832" x1="23.8162" y1="6.0755" x2="23.8162" y2="15.4151" gradientUnits="userSpaceOnUse">
<stop stop-color="#FFC700"/>
<stop offset="1" stop-color="#FFD646"/>
</linearGradient>
</defs>
</svg>
