<svg width="30" height="30" viewBox="0 0 30 30" fill="none" xmlns="http://www.w3.org/2000/svg">
<path d="M4 7.94336C4 6.91173 4.8363 6.07544 5.86792 6.07544H8.11484V15.415C5.84228 15.415 4 13.5728 4 11.3002V7.94336Z" fill="url(#paint0_linear_4304_28300)"/>
<path d="M25.8736 7.94336C25.8736 6.91173 25.0373 6.07544 24.0057 6.07544H21.7588V15.415C24.0314 15.415 25.8736 13.5728 25.8736 11.3002V7.94336Z" fill="url(#paint1_linear_4304_28300)"/>
<path d="M25.8736 7.94336C25.8736 6.91173 25.0373 6.07544 24.0057 6.07544H21.7588V15.415C24.0314 15.415 25.8736 13.5728 25.8736 11.3002V7.94336Z" fill="url(#paint2_linear_4304_28300)"/>
<path d="M25.8736 7.94336C25.8736 6.91173 25.0373 6.07544 24.0057 6.07544H21.7588V15.415C24.0314 15.415 25.8736 13.5728 25.8736 11.3002V7.94336Z" fill="url(#paint3_linear_4304_28300)"/>
<path fill-rule="evenodd" clip-rule="evenodd" d="M6.59863 6.07547C6.59863 4.92922 7.56825 4 8.76434 4H20.8923C22.0884 4 23.058 4.92922 23.058 6.07547V13.3396C23.058 16.9689 20.4999 20.0257 17.0174 20.9443C16.5122 21.0776 16.1278 21.5147 16.1278 22.0372C16.1278 22.6211 16.6011 23.0944 17.1849 23.0944H19.8095C20.4075 23.0944 20.8923 23.559 20.8923 24.1321C20.8923 25.1637 20.056 26 19.0244 26H10.6323C9.60067 26 8.76438 25.1637 8.76438 24.1321C8.76438 23.559 9.24917 23.0944 9.84723 23.0944H12.4718C13.0556 23.0944 13.5289 22.6211 13.5289 22.0372C13.5289 21.5147 13.1445 21.0776 12.6393 20.9443C9.15673 20.0257 6.59863 16.9689 6.59863 13.3396V6.07547ZM14.3229 9.22024C14.5252 8.66263 15.348 8.66263 15.5503 9.22024L16.0357 10.5584C16.1249 10.8044 16.3644 10.9712 16.6361 10.9765L18.1141 11.0054C18.73 11.0174 18.9843 11.7674 18.4934 12.124L17.3154 12.98C17.0988 13.1373 17.0073 13.4072 17.086 13.6564L17.5141 15.0124C17.6925 15.5775 17.0268 16.041 16.5211 15.7038L15.3077 14.8946C15.0846 14.7459 14.7886 14.7459 14.5655 14.8946L13.3521 15.7038C12.8464 16.041 12.1807 15.5775 12.3591 15.0124L12.7872 13.6564C12.8659 13.4072 12.7744 13.1373 12.5578 12.9799L11.3798 12.124C10.8889 11.7674 11.1432 11.0174 11.7591 11.0054L13.2371 10.9765C13.5088 10.9712 13.7483 10.8044 13.8375 10.5584L14.3229 9.22024Z" fill="url(#paint4_linear_4304_28300)"/>
<defs>
<linearGradient id="paint0_linear_4304_28300" x1="6.05742" y1="6.07544" x2="6.05742" y2="15.415" gradientUnits="userSpaceOnUse">
<stop stop-color="#3AB6FF"/>
<stop offset="1" stop-color="#6DC9FF"/>
</linearGradient>
<linearGradient id="paint1_linear_4304_28300" x1="23.8162" y1="6.07544" x2="23.8162" y2="15.415" gradientUnits="userSpaceOnUse">
<stop stop-color="#A0C958"/>
<stop offset="1" stop-color="#AAD265"/>
</linearGradient>
<linearGradient id="paint2_linear_4304_28300" x1="23.8162" y1="6.07544" x2="23.8162" y2="15.415" gradientUnits="userSpaceOnUse">
<stop stop-color="#3AB6FF"/>
<stop offset="1" stop-color="#6DC9FF"/>
</linearGradient>
<linearGradient id="paint3_linear_4304_28300" x1="23.8162" y1="6.07544" x2="23.8162" y2="15.415" gradientUnits="userSpaceOnUse">
<stop stop-color="#3AB6FF"/>
<stop offset="1" stop-color="#6DC9FF"/>
</linearGradient>
<linearGradient id="paint4_linear_4304_28300" x1="14.8283" y1="4" x2="14.8283" y2="25.9999" gradientUnits="userSpaceOnUse">
<stop stop-color="#3AB6FF"/>
<stop offset="1" stop-color="#6DC9FF"/>
</linearGradient>
</defs>
</svg>
