<svg width="30" height="30" viewBox="0 0 30 30" fill="none" xmlns="http://www.w3.org/2000/svg">
<rect x="7" y="5.77783" width="16.2222" height="20.2222" rx="2" fill="url(#paint0_linear_4304_28327)"/>
<rect x="10.5557" y="4" width="8.88889" height="3.55556" rx="1.77778" fill="url(#paint1_linear_4304_28327)"/>
<path d="M11.1113 11.1111C10.559 11.1111 10.1113 11.5588 10.1113 12.1111C10.1113 12.6634 10.559 13.1111 11.1113 13.1111C11.6636 13.1111 12.1113 12.6634 12.1113 12.1111C12.1113 11.5588 11.6636 11.1111 11.1113 11.1111Z" fill="white"/>
<path d="M14.0002 11.1111C13.4479 11.1111 13.0002 11.5588 13.0002 12.1111C13.0002 12.6634 13.4479 13.1111 14.0002 13.1111H18.8891C19.4414 13.1111 19.8891 12.6634 19.8891 12.1111C19.8891 11.5588 19.4414 11.1111 18.8891 11.1111H14.0002Z" fill="white"/>
<path d="M11.1113 15.1111C10.559 15.1111 10.1113 15.5588 10.1113 16.1111C10.1113 16.6634 10.559 17.1111 11.1113 17.1111C11.6636 17.1111 12.1113 16.6634 12.1113 16.1111C12.1113 15.5588 11.6636 15.1111 11.1113 15.1111Z" fill="white"/>
<path d="M14.0002 15.1111C13.4479 15.1111 13.0002 15.5588 13.0002 16.1111C13.0002 16.6634 13.4479 17.1111 14.0002 17.1111H18.8891C19.4414 17.1111 19.8891 16.6634 19.8891 16.1111C19.8891 15.5588 19.4414 15.1111 18.8891 15.1111H14.0002Z" fill="white"/>
<path d="M11.1113 19.1111C10.559 19.1111 10.1113 19.5588 10.1113 20.1111C10.1113 20.6634 10.559 21.1111 11.1113 21.1111C11.6636 21.1111 12.1113 20.6634 12.1113 20.1111C12.1113 19.5588 11.6636 19.1111 11.1113 19.1111Z" fill="white"/>
<path d="M14.0002 19.1111C13.4479 19.1111 13.0002 19.5588 13.0002 20.1111C13.0002 20.6634 13.4479 21.1111 14.0002 21.1111H18.8891C19.4414 21.1111 19.8891 20.6634 19.8891 20.1111C19.8891 19.5588 19.4414 19.1111 18.8891 19.1111H14.0002Z" fill="white"/>
<defs>
<linearGradient id="paint0_linear_4304_28327" x1="7" y1="6" x2="21.5" y2="26" gradientUnits="userSpaceOnUse">
<stop stop-color="#94BF49"/>
<stop offset="1" stop-color="#AAD265"/>
</linearGradient>
<linearGradient id="paint1_linear_4304_28327" x1="15.0001" y1="4" x2="15.0001" y2="7.55556" gradientUnits="userSpaceOnUse">
<stop stop-color="#A0C958"/>
<stop offset="1" stop-color="#AAD265"/>
</linearGradient>
</defs>
</svg>
