<svg width="31" height="31" viewBox="0 0 31 31" fill="none" xmlns="http://www.w3.org/2000/svg">
<path d="M4.63818 8.44311C4.63818 7.41149 5.47448 6.5752 6.5061 6.5752H8.75302V15.9148C6.48046 15.9148 4.63818 14.0725 4.63818 11.8V8.44311Z" fill="url(#paint0_linear_4261_20751)"/>
<path d="M26.5117 8.44311C26.5117 7.41149 25.6754 6.5752 24.6438 6.5752H22.3969V15.9148C24.6694 15.9148 26.5117 14.0725 26.5117 11.8V8.44311Z" fill="url(#paint1_linear_4261_20751)"/>
<path d="M26.5117 8.44311C26.5117 7.41149 25.6754 6.5752 24.6438 6.5752H22.3969V15.9148C24.6694 15.9148 26.5117 14.0725 26.5117 11.8V8.44311Z" fill="url(#paint2_linear_4261_20751)"/>
<path d="M26.5117 8.44311C26.5117 7.41149 25.6754 6.5752 24.6438 6.5752H22.3969V15.9148C24.6694 15.9148 26.5117 14.0725 26.5117 11.8V8.44311Z" fill="url(#paint3_linear_4261_20751)"/>
<path fill-rule="evenodd" clip-rule="evenodd" d="M7.23682 6.57547C7.23682 5.42922 8.20644 4.5 9.40252 4.5H21.5305C22.7266 4.5 23.6962 5.42922 23.6962 6.57547V13.8396C23.6962 17.4689 21.1381 20.5257 17.6556 21.4443C17.1504 21.5776 16.766 22.0147 16.766 22.5372C16.766 23.1211 17.2393 23.5944 17.8231 23.5944H20.4477C21.0457 23.5944 21.5305 24.059 21.5305 24.6321C21.5305 25.6637 20.6942 26.5 19.6626 26.5H11.2705C10.2389 26.5 9.40256 25.6637 9.40256 24.6321C9.40256 24.059 9.88736 23.5944 10.4854 23.5944H13.1099C13.6938 23.5944 14.1671 23.1211 14.1671 22.5372C14.1671 22.0147 13.7827 21.5776 13.2775 21.4443C9.79491 20.5257 7.23682 17.4689 7.23682 13.8396V6.57547ZM14.9611 9.72024C15.1633 9.16263 15.9862 9.16263 16.1885 9.72024L16.6738 11.0584C16.7631 11.3044 17.0026 11.4712 17.2743 11.4765L18.7523 11.5054C19.3682 11.5174 19.6225 12.2674 19.1316 12.624L17.9536 13.48C17.737 13.6373 17.6455 13.9072 17.7242 14.1564L18.1523 15.5124C18.3307 16.0775 17.665 16.541 17.1593 16.2038L15.9459 15.3946C15.7228 15.2459 15.4267 15.2459 15.2037 15.3946L13.9902 16.2038C13.4846 16.541 12.8189 16.0775 12.9973 15.5124L13.4253 14.1564C13.504 13.9072 13.4125 13.6373 13.196 13.4799L12.018 12.624C11.5271 12.2674 11.7814 11.5174 12.3972 11.5054L13.8753 11.4765C14.1469 11.4712 14.3865 11.3044 14.4757 11.0584L14.9611 9.72024Z" fill="url(#paint4_linear_4261_20751)"/>
<defs>
<linearGradient id="paint0_linear_4261_20751" x1="6.6956" y1="6.5752" x2="6.6956" y2="15.9148" gradientUnits="userSpaceOnUse">
<stop stop-color="#A0C958"/>
<stop offset="1" stop-color="#AAD265"/>
</linearGradient>
<linearGradient id="paint1_linear_4261_20751" x1="24.4543" y1="6.5752" x2="24.4543" y2="15.9148" gradientUnits="userSpaceOnUse">
<stop stop-color="#A0C958"/>
<stop offset="1" stop-color="#AAD265"/>
</linearGradient>
<linearGradient id="paint2_linear_4261_20751" x1="24.4543" y1="6.5752" x2="24.4543" y2="15.9148" gradientUnits="userSpaceOnUse">
<stop stop-color="#A0C958"/>
<stop offset="1" stop-color="#AAD265"/>
</linearGradient>
<linearGradient id="paint3_linear_4261_20751" x1="24.4543" y1="6.5752" x2="24.4543" y2="15.9148" gradientUnits="userSpaceOnUse">
<stop stop-color="#A0C958"/>
<stop offset="1" stop-color="#AAD265"/>
</linearGradient>
<linearGradient id="paint4_linear_4261_20751" x1="7.23682" y1="4.7417" x2="23.3215" y2="25.4328" gradientUnits="userSpaceOnUse">
<stop stop-color="#94BF49"/>
<stop offset="1" stop-color="#AAD265"/>
</linearGradient>
</defs>
</svg>
