<svg width="30" height="30" viewBox="0 0 30 30" fill="none" xmlns="http://www.w3.org/2000/svg">
<rect x="7" y="5.77777" width="16.2222" height="20.2222" rx="2" fill="white" fill-opacity="0.95"/>
<rect x="10.5555" y="4" width="8.88889" height="3.55556" rx="1.77778" fill="white"/>
<path d="M11.1111 11.1111C10.5588 11.1111 10.1111 11.5588 10.1111 12.1111C10.1111 12.6634 10.5588 13.1111 11.1111 13.1111C11.6634 13.1111 12.1111 12.6634 12.1111 12.1111C12.1111 11.5588 11.6634 11.1111 11.1111 11.1111Z" fill="#94BF49"/>
<path d="M14 11.1111C13.4477 11.1111 13 11.5588 13 12.1111C13 12.6634 13.4477 13.1111 14 13.1111H18.8889C19.4412 13.1111 19.8889 12.6634 19.8889 12.1111C19.8889 11.5588 19.4412 11.1111 18.8889 11.1111H14Z" fill="#94BF49"/>
<path d="M11.1111 15.1111C10.5588 15.1111 10.1111 15.5588 10.1111 16.1111C10.1111 16.6634 10.5588 17.1111 11.1111 17.1111C11.6634 17.1111 12.1111 16.6634 12.1111 16.1111C12.1111 15.5588 11.6634 15.1111 11.1111 15.1111Z" fill="#94BF49"/>
<path d="M14 15.1111C13.4477 15.1111 13 15.5588 13 16.1111C13 16.6634 13.4477 17.1111 14 17.1111H18.8889C19.4412 17.1111 19.8889 16.6634 19.8889 16.1111C19.8889 15.5588 19.4412 15.1111 18.8889 15.1111H14Z" fill="#94BF49"/>
<path d="M11.1111 19.1111C10.5588 19.1111 10.1111 19.5588 10.1111 20.1111C10.1111 20.6634 10.5588 21.1111 11.1111 21.1111C11.6634 21.1111 12.1111 20.6634 12.1111 20.1111C12.1111 19.5588 11.6634 19.1111 11.1111 19.1111Z" fill="#94BF49"/>
<path d="M14 19.1111C13.4477 19.1111 13 19.5588 13 20.1111C13 20.6634 13.4477 21.1111 14 21.1111H18.8889C19.4412 21.1111 19.8889 20.6634 19.8889 20.1111C19.8889 19.5588 19.4412 19.1111 18.8889 19.1111H14Z" fill="#94BF49"/>
</svg>
