<svg width="25" height="24" viewBox="0 0 25 24" fill="none" xmlns="http://www.w3.org/2000/svg">
<circle cx="12.4971" cy="11.9995" r="10" stroke="#FCF142" stroke-width="2"/>
<path d="M11.4228 11.931V9.75952C11.4228 9.48524 11.4914 9.42809 11.7542 9.42809H12.7256C13.4914 9.42809 13.9256 9.99952 13.9256 10.6395V10.7195C13.9256 11.3595 13.4914 11.931 12.7256 11.931H11.4228Z" fill="#FCF142"/>
<path fill-rule="evenodd" clip-rule="evenodd" d="M12.4971 19.9995C16.9153 19.9995 20.4971 16.4178 20.4971 11.9995C20.4971 7.58123 16.9153 3.99951 12.4971 3.99951C8.07879 3.99951 4.49707 7.58123 4.49707 11.9995C4.49707 16.4178 8.07879 19.9995 12.4971 19.9995ZM11.4228 13.9195H12.8399C14.8171 13.9195 16.2685 12.9367 16.2685 10.7767V10.5824C16.2685 8.42238 14.8171 7.43952 12.8399 7.43952H10.8514C9.47993 7.43952 9.0685 7.93095 9.0685 9.24524V16.6395H11.4228V13.9195Z" fill="#FCF142"/>
</svg>
