<svg width="26" height="19" viewBox="0 0 26 19" fill="none" xmlns="http://www.w3.org/2000/svg">
<path d="M14.1771 11.0204C14.1771 9.02039 14.6171 7.22039 15.4971 5.62039C16.4171 3.98039 17.4971 2.70039 18.7371 1.78039C20.0171 0.860391 21.1571 0.400391 22.1571 0.400391C22.9971 0.400391 23.6571 0.640391 24.1371 1.12039C24.6571 1.60039 24.9171 2.20039 24.9171 2.92039C24.9171 3.44039 24.7971 3.88039 24.5571 4.24039C24.3571 4.60039 23.9971 5.06039 23.4771 5.62039C23.1571 5.94039 22.8571 6.30039 22.5771 6.70039C22.2971 7.10039 22.0971 7.50039 21.9771 7.90039C23.2971 8.26039 24.2971 8.90039 24.9771 9.82039C25.6571 10.7004 25.9971 11.7204 25.9971 12.8804C25.9971 14.3604 25.4571 15.6804 24.3771 16.8404C23.3371 18.0004 22.0171 18.5804 20.4171 18.5804C18.5371 18.5804 17.0171 17.9604 15.8571 16.7204C14.7371 15.4404 14.1771 13.5404 14.1771 11.0204ZM0.49707 11.0204C0.49707 9.02039 0.937071 7.22039 1.81707 5.62039C2.73707 3.98039 3.81707 2.70039 5.05707 1.78039C6.33707 0.860391 7.47707 0.400391 8.47707 0.400391C9.31707 0.400391 9.97707 0.640391 10.4571 1.12039C10.9771 1.60039 11.2371 2.20039 11.2371 2.92039C11.2371 3.44039 11.1171 3.88039 10.8771 4.24039C10.6771 4.60039 10.3171 5.06039 9.79707 5.62039C9.47707 5.94039 9.17707 6.30039 8.89707 6.70039C8.61707 7.10039 8.41707 7.50039 8.29707 7.90039C9.61707 8.26039 10.6171 8.90039 11.2971 9.82039C11.9771 10.7004 12.3171 11.7204 12.3171 12.8804C12.3171 14.3604 11.7771 15.6804 10.6971 16.8404C9.65707 18.0004 8.33707 18.5804 6.73707 18.5804C4.85707 18.5804 3.33707 17.9604 2.17707 16.7204C1.05707 15.4404 0.49707 13.5404 0.49707 11.0204Z" fill="#F0F0F0"/>
</svg>
