<svg width="91" height="90" viewBox="0 0 91 90" fill="none" xmlns="http://www.w3.org/2000/svg">
<path d="M85.1399 46.7996C85.1399 67.7436 67.5482 84.9996 45.4999 84.9996C23.4515 84.9996 5.85986 67.7436 5.85986 46.7996C5.85986 25.8556 23.4515 8.59961 45.4999 8.59961C67.5482 8.59961 85.1399 25.8556 85.1399 46.7996Z" stroke="#F4BD2E" stroke-width="10"/>
<rect x="5.85986" y="5" width="79.28" height="76.4" rx="38.2" fill="#FEF183"/>
<path d="M46.5736 42.9502C47.9736 42.9502 49.0403 42.6335 49.7736 42.0002C50.5403 41.3335 50.9236 40.3335 50.9236 39.0002C50.9236 37.7335 50.5236 36.7669 49.7236 36.1002C48.957 35.4002 47.8236 35.0502 46.3236 35.0502C45.7903 35.0502 45.3403 35.0669 44.9736 35.1002C44.6403 35.1002 44.2903 35.1335 43.9236 35.2002V42.9502H46.5736ZM43.9736 59.0002C43.607 59.1002 43.0236 59.2002 42.2236 59.3002C41.457 59.4002 40.6903 59.4502 39.9236 59.4502C39.157 59.4502 38.4736 59.3835 37.8736 59.2502C37.307 59.1502 36.8236 58.9502 36.4236 58.6502C36.0236 58.3502 35.7236 57.9335 35.5236 57.4002C35.3236 56.8669 35.2236 56.1669 35.2236 55.3002V31.7502C35.2236 31.0502 35.407 30.5169 35.7736 30.1502C36.1736 29.7502 36.707 29.4335 37.3736 29.2002C38.507 28.8002 39.7903 28.5169 41.2236 28.3502C42.6903 28.1502 44.157 28.0502 45.6236 28.0502C50.2236 28.0502 53.7403 29.0335 56.1736 31.0002C58.607 32.9669 59.8236 35.6335 59.8236 39.0002C59.8236 40.6335 59.557 42.1169 59.0236 43.4502C58.5236 44.7502 57.757 45.8835 56.7236 46.8502C55.7236 47.7835 54.4403 48.5169 52.8736 49.0502C51.3403 49.5502 49.557 49.8002 47.5236 49.8002H43.9736V59.0002Z" fill="#FDBD34"/>
<rect x="5.85986" y="5" width="79.28" height="76.4" rx="38.2" stroke="url(#paint0_linear_2747_39569)" stroke-width="10"/>
<defs>
<linearGradient id="paint0_linear_2747_39569" x1="45.4999" y1="0" x2="45.4999" y2="86.4" gradientUnits="userSpaceOnUse">
<stop stop-color="#FDEF60"/>
<stop offset="1" stop-color="#FAD854"/>
</linearGradient>
</defs>
</svg>
