<svg width="190" height="180" viewBox="0 0 190 180" fill="none" xmlns="http://www.w3.org/2000/svg">
<g clip-path="url(#clip0_2238_45745)">
<path d="M106.232 135.633H-71V140.967H106.232V135.633Z" fill="#00CCFF"/>
<path fill-rule="evenodd" clip-rule="evenodd" d="M51.4236 131.534H85.039V193.4H68.2326C58.9894 193.4 51.4263 185.841 51.4263 176.602V131.536L51.4236 131.534Z" fill="#33CC99"/>
<path fill-rule="evenodd" clip-rule="evenodd" d="M68.2326 143.961C77.4892 143.961 85.039 138.379 85.039 131.536C85.039 124.694 77.4892 119.112 68.2326 119.112C58.9761 119.112 51.4263 124.694 51.4263 131.536C51.4263 138.379 58.9761 143.961 68.2326 143.961Z" fill="#3300CC"/>
<path fill-rule="evenodd" clip-rule="evenodd" d="M51.4236 176.602C51.4236 167.362 58.9867 159.803 68.2299 159.803H115.182C124.425 159.803 131.989 167.362 131.989 176.602C131.989 185.841 124.425 193.4 115.182 193.4H68.2299C58.9867 193.4 51.4236 185.841 51.4236 176.602Z" fill="#33CC99"/>
<path d="M92.3193 159.8H87.4817V170.82H92.3193V159.8Z" fill="#3300CC"/>
<path d="M102.864 159.8H98.0264V170.82H102.864V159.8Z" fill="#3300CC"/>
<path d="M113.409 159.8H108.571V170.82H113.409V159.8Z" fill="#3300CC"/>
<path fill-rule="evenodd" clip-rule="evenodd" d="M55.7759 139.877V-100H80.14V140.304C77.0972 142.562 72.8863 143.961 68.2326 143.961C63.2937 143.961 58.8507 142.386 55.7759 139.877Z" fill="#FFCC00"/>
<path fill-rule="evenodd" clip-rule="evenodd" d="M80.14 140.304V125.907H55.7759V139.88C58.8507 142.388 63.2937 143.964 68.2326 143.964C72.8863 143.964 77.0972 142.564 80.14 140.306V140.304Z" fill="#6666FF"/>
<path d="M80.14 80.7242H55.7759V102.577H80.14V80.7242Z" fill="#6666FF"/>
<path d="M80.14 35.5419H55.7759V57.3947H80.14V35.5419Z" fill="#6666FF"/>
<path d="M80.14 -9.63788H55.7759V12.2149H80.14V-9.63788Z" fill="#6666FF"/>
<path fill-rule="evenodd" clip-rule="evenodd" d="M80.4974 145.366L80.5053 145.374L82.6842 143.196L81.7001 142.212C80.9747 141.487 80.2387 140.522 79.2439 140.202C78.9453 140.106 78.6252 140.056 78.2946 140.056C76.5744 140.056 75.1824 141.45 75.1824 143.167C75.1824 144.883 76.5771 146.277 78.2946 146.277C79.1533 146.277 79.932 145.928 80.4947 145.366H80.4974ZM84.9349 150.422C84.4736 151.419 83.9029 152.336 83.2149 153.141C81.6734 154.951 79.5933 156.188 76.9398 156.529V153.256C78.5452 152.952 79.8093 152.16 80.756 151.049C81.4441 150.244 81.9774 149.263 82.3668 148.17C81.2201 149.1 79.7853 149.615 78.2946 149.615C74.729 149.615 71.8408 146.725 71.8408 143.164C71.8408 139.603 74.7317 136.713 78.2946 136.713C80.0067 136.713 81.6468 137.393 82.8575 138.603L85.0683 140.813L87.2791 138.603C88.4898 137.393 90.1299 136.713 91.842 136.713C95.4076 136.713 98.2958 139.603 98.2958 143.164C98.2958 146.725 95.4076 149.615 91.842 149.615C90.1353 149.615 88.5005 148.94 87.2898 147.738C87.4978 148.383 87.7565 148.991 88.0632 149.553C88.8925 151.067 90.1033 152.235 91.714 152.805C92.1754 152.968 92.6688 153.085 93.1941 153.152V156.345C93.1541 156.343 93.1168 156.34 93.0768 156.335C92.2074 156.249 91.3993 156.068 90.6553 155.807C88.2445 154.954 86.4657 153.261 85.271 151.086C85.151 150.87 85.039 150.646 84.9323 150.42L84.9349 150.422ZM87.4524 143.196L89.6312 145.374L89.6392 145.366C90.2019 145.928 90.9807 146.277 91.8394 146.277C93.5595 146.277 94.9516 144.883 94.9516 143.167C94.9516 141.45 93.5568 140.056 91.8394 140.056C91.5087 140.056 91.1887 140.106 90.89 140.202C89.8953 140.52 89.1592 141.487 88.4365 142.212L87.4524 143.196Z" fill="#FFCC00"/>
<path fill-rule="evenodd" clip-rule="evenodd" d="M101.963 64.5012H135.578V126.368H118.772C109.528 126.368 101.965 118.808 101.965 109.569V64.5039L101.963 64.5012Z" fill="#33CC99"/>
<path d="M118.772 76.9258C128.054 76.9258 135.578 71.3631 135.578 64.5013C135.578 57.6394 128.054 52.0768 118.772 52.0768C109.49 52.0768 101.965 57.6394 101.965 64.5013C101.965 71.3631 109.49 76.9258 118.772 76.9258Z" fill="#3300CC"/>
<path fill-rule="evenodd" clip-rule="evenodd" d="M101.963 109.566C101.963 100.327 109.526 92.7676 118.769 92.7676H165.721C174.964 92.7676 182.528 100.327 182.528 109.566C182.528 118.805 174.964 126.365 165.721 126.365H118.769C109.526 126.365 101.963 118.805 101.963 109.566Z" fill="#33CC99"/>
<path d="M128.108 120.168H122.772V138.814H128.108V120.168Z" fill="#3300CC"/>
<path d="M164.364 120.168H159.027V138.814H164.364V120.168Z" fill="#3300CC"/>
<path fill-rule="evenodd" clip-rule="evenodd" d="M180.685 125.243L182.09 119.997C186.754 121.247 190 125.472 190 130.3C190 136.191 185.224 140.965 179.33 140.965H106.232V135.631H179.33V135.532C182.223 135.532 184.568 133.189 184.568 130.297C184.568 127.874 182.922 125.835 180.685 125.238V125.243Z" fill="#3300CC"/>
<path d="M142.858 92.7676H138.021V103.787H142.858V92.7676Z" fill="#3300CC"/>
<path d="M153.403 92.7676H148.565V103.787H153.403V92.7676Z" fill="#3300CC"/>
<path d="M163.948 92.7676H159.11V103.787H163.948V92.7676Z" fill="#3300CC"/>
<path fill-rule="evenodd" clip-rule="evenodd" d="M106.315 72.8446V-100H130.679V73.2685C127.636 75.5263 123.425 76.9257 118.772 76.9257C113.833 76.9257 109.39 75.3503 106.315 72.842V72.8446Z" fill="#FFCC00"/>
<path fill-rule="evenodd" clip-rule="evenodd" d="M130.679 73.2685V58.8715H106.315V72.8447C109.39 75.353 113.833 76.9284 118.772 76.9284C123.425 76.9284 127.636 75.529 130.679 73.2712V73.2685Z" fill="#6666FF"/>
<path d="M130.679 13.6917H106.315V35.5445H130.679V13.6917Z" fill="#6666FF"/>
<path fill-rule="evenodd" clip-rule="evenodd" d="M131.036 78.3332L131.044 78.3412L133.223 76.1634L132.239 75.1797C131.514 74.4547 130.778 73.4897 129.783 73.1699C129.484 73.0739 129.164 73.0233 128.834 73.0233C127.114 73.0233 125.721 74.4174 125.721 76.134C125.721 77.8507 127.116 79.2448 128.834 79.2448C129.692 79.2448 130.471 78.8956 131.034 78.3332H131.036ZM135.474 83.3899C135.013 84.3868 134.442 85.3038 133.754 86.1088C132.212 87.9188 130.132 89.1556 127.479 89.4968V86.2234C129.084 85.9195 130.348 85.1279 131.295 84.0163C131.98 83.2113 132.516 82.2303 132.906 81.1374C131.762 82.0677 130.324 82.5822 128.834 82.5822C125.268 82.5822 122.38 79.6953 122.38 76.1314C122.38 72.5674 125.268 69.6805 128.834 69.6805C130.546 69.6805 132.186 70.3603 133.397 71.5705L135.607 73.7803L137.818 71.5705C139.029 70.3603 140.669 69.6805 142.381 69.6805C145.947 69.6805 148.835 72.5701 148.835 76.1314C148.835 79.6926 145.944 82.5822 142.381 82.5822C140.674 82.5822 139.04 81.9078 137.829 80.7056C138.037 81.3507 138.296 81.9584 138.602 82.5209C139.432 84.0349 140.642 85.2025 142.253 85.7729C142.714 85.9355 143.208 86.0528 143.733 86.1195V89.3129C143.693 89.3129 143.656 89.3076 143.616 89.3022C142.746 89.2169 141.938 89.0357 141.194 88.7744C138.784 87.9214 137.005 86.2288 135.81 84.0536C135.69 83.8377 135.578 83.6138 135.471 83.3872L135.474 83.3899ZM137.991 76.1634L140.17 78.3412L140.178 78.3332C140.741 78.8956 141.52 79.2448 142.378 79.2448C144.099 79.2448 145.491 77.8507 145.491 76.134C145.491 74.4174 144.096 73.0233 142.378 73.0233C142.048 73.0233 141.728 73.0739 141.429 73.1699C140.434 73.4871 139.698 74.4547 138.976 75.1797L137.991 76.1634Z" fill="#FFCC00"/>
</g>
<defs>
<clipPath id="clip0_2238_45745">
<rect width="190" height="180" fill="white"/>
</clipPath>
</defs>
</svg>
