<svg width="217" height="180" viewBox="0 0 217 180" fill="none" xmlns="http://www.w3.org/2000/svg">
<g clip-path="url(#clip0_2238_45780)">
<path fill-rule="evenodd" clip-rule="evenodd" d="M98.1288 163V119.58H18.7381V141.288C18.7381 153.23 28.4401 162.996 40.2953 162.996H98.1288V163Z" fill="#FFCC00"/>
<path d="M98.1288 162.996C106.936 162.996 114.076 153.277 114.076 141.288C114.076 129.299 106.936 119.58 98.1288 119.58C89.3217 119.58 82.182 129.299 82.182 141.288C82.182 153.277 89.3217 162.996 98.1288 162.996Z" fill="#3300CC"/>
<path fill-rule="evenodd" clip-rule="evenodd" d="M40.2952 163C52.1539 163 61.8524 153.23 61.8524 141.288V80.6406C61.8524 68.6989 52.1505 58.9325 40.2952 58.9325C28.4366 58.9325 18.7381 68.7023 18.7346 80.6441V141.292C18.7346 153.234 28.4366 163.003 40.2952 163.003V163Z" fill="#FFCC00"/>
<path d="M26.6924 129.228H2.76358V136.121H26.6924V129.228Z" fill="#3300CC"/>
<path d="M26.6924 82.3969H2.76358V89.2896H26.6924V82.3969Z" fill="#3300CC"/>
<path fill-rule="evenodd" clip-rule="evenodd" d="M20.1806 61.3139L26.9109 59.4982C25.3089 53.4714 19.8858 49.2814 13.6895 49.2814C6.13048 49.2814 3.05176e-05 55.4513 3.05176e-05 63.0667V157.487H6.84477V63.0632H6.9696C6.9696 59.3271 9.97935 56.2963 13.6895 56.2963C16.7998 56.2963 19.4143 58.4227 20.1806 61.3104V61.3139Z" fill="#3300CC"/>
<path d="M61.8524 110.177H47.7121V116.427H61.8524V110.177Z" fill="#3300CC"/>
<path d="M61.8524 96.5559H47.7121V102.806H61.8524V96.5559Z" fill="#3300CC"/>
<path d="M61.8524 82.9346H47.7121V89.1848H61.8524V82.9346Z" fill="#3300CC"/>
<path fill-rule="evenodd" clip-rule="evenodd" d="M87.4214 157.378H227V125.907H86.877C83.9782 129.839 82.182 135.279 82.182 141.288C82.182 147.668 84.2036 153.405 87.4214 157.378Z" fill="#6666FF"/>
<path fill-rule="evenodd" clip-rule="evenodd" d="M80.379 125.443L80.3686 125.432L83.1633 122.618L84.4255 123.889C85.3547 124.825 86.5961 125.775 87.0053 127.06C87.1266 127.447 87.196 127.859 87.196 128.289C87.196 130.509 85.4068 132.311 83.2015 132.311C80.9962 132.311 79.207 130.509 79.207 128.289C79.207 127.178 79.6543 126.173 80.3755 125.446L80.379 125.443ZM73.8914 119.71C72.6119 120.303 71.4364 121.043 70.4031 121.93C68.0834 123.921 66.4918 126.609 66.0549 130.035H70.254C70.6424 127.96 71.6583 126.326 73.0869 125.104C74.1202 124.217 75.3789 123.526 76.7832 123.023C75.5869 124.504 74.9281 126.358 74.9281 128.282C74.9281 132.887 78.6348 136.616 83.2084 136.616C87.782 136.616 91.4852 132.884 91.4852 128.282C91.4852 126.071 90.6149 123.948 89.0615 122.388L86.2285 119.535L89.0615 116.682C90.6149 115.118 91.4852 112.998 91.4852 110.788C91.4852 106.183 87.7785 102.453 83.2084 102.453C78.6383 102.453 74.9281 106.186 74.9281 110.788C74.9281 112.991 75.795 115.104 77.338 116.668C76.5128 116.399 75.7291 116.068 75.0079 115.67C73.0661 114.598 71.5647 113.033 70.8331 110.952C70.6216 110.355 70.4725 109.72 70.3892 109.039H66.2907C66.2907 109.088 66.2977 109.14 66.3046 109.192C66.4155 110.317 66.6444 111.357 66.9842 112.321C68.0799 115.436 70.2505 117.733 73.0453 119.273C73.3227 119.427 73.607 119.573 73.8983 119.713L73.8914 119.71ZM83.1633 116.459L80.3686 113.644L80.379 113.634C79.6577 112.908 79.2104 111.902 79.2104 110.792C79.2104 108.571 80.9996 106.769 83.2049 106.769C85.4102 106.769 87.196 108.571 87.1994 110.792C87.1994 111.221 87.1335 111.633 87.0087 112.021C86.5996 113.306 85.3617 114.255 84.4289 115.191L83.1668 116.462L83.1633 116.459Z" fill="#6666FF"/>
<path fill-rule="evenodd" clip-rule="evenodd" d="M184.153 97.7186V54.299H104.762V76.0071C104.762 87.9488 114.464 97.7186 126.319 97.7186H184.153Z" fill="#FFCC00"/>
<path fill-rule="evenodd" clip-rule="evenodd" d="M200.096 76.0071C200.096 64.0165 192.957 54.299 184.153 54.299C175.349 54.299 168.206 64.02 168.206 76.0071C168.206 87.9942 175.345 97.7151 184.153 97.7151C192.96 97.7151 200.096 87.9942 200.096 76.0071Z" fill="#3300CC"/>
<path fill-rule="evenodd" clip-rule="evenodd" d="M126.319 97.7186C138.178 97.7186 147.88 87.9487 147.88 76.007V15.3592C147.88 3.41749 138.178 -6.34888 126.319 -6.34888C114.461 -6.34888 104.762 3.42098 104.762 15.3592V76.007C104.762 87.9487 114.464 97.7186 126.319 97.7186Z" fill="#FFCC00"/>
<path d="M112.713 63.9466H88.7841V70.8393H112.713V63.9466Z" fill="#3300CC"/>
<path d="M112.713 17.1155H88.7841V24.0082H112.713V17.1155Z" fill="#3300CC"/>
<path fill-rule="evenodd" clip-rule="evenodd" d="M106.201 -3.9675L112.931 -5.7832C111.329 -11.8099 105.906 -16 99.71 -16C92.151 -16 86.0205 -9.83012 86.0205 -2.21466V92.2052H92.8653V-2.21466H92.9901C92.9901 -5.9508 95.9998 -8.98163 99.71 -8.98163C102.82 -8.98163 105.435 -6.85516 106.201 -3.9675Z" fill="#3300CC"/>
<path d="M147.876 44.8958H133.736V51.1459H147.876V44.8958Z" fill="#3300CC"/>
<path d="M147.876 31.2745H133.736V37.5247H147.876V31.2745Z" fill="#3300CC"/>
<path d="M147.876 17.6533H133.736V23.9035H147.876V17.6533Z" fill="#3300CC"/>
<path fill-rule="evenodd" clip-rule="evenodd" d="M173.445 92.0969H227V60.626H172.897C169.999 64.5577 168.202 69.9978 168.202 76.007C168.202 82.3864 170.224 88.1233 173.442 92.0969H173.445Z" fill="#6666FF"/>
<path fill-rule="evenodd" clip-rule="evenodd" d="M166.403 60.1616L166.392 60.1511L169.191 57.3368L170.453 58.6078C171.382 59.5435 172.623 60.4933 173.033 61.7782C173.154 62.1658 173.223 62.5779 173.223 63.0073C173.223 65.2281 171.434 67.0298 169.229 67.0298C167.024 67.0298 165.234 65.2281 165.234 63.0073C165.234 61.897 165.682 60.8914 166.403 60.1651V60.1616ZM159.915 54.4282C158.636 55.0218 157.46 55.762 156.424 56.6489C154.104 58.6392 152.512 61.3278 152.075 64.7532H156.274C156.663 62.6791 157.679 61.045 159.104 59.8229C160.137 58.936 161.396 58.2446 162.8 57.7418C161.604 59.2223 160.945 61.0764 160.945 63.0004C160.945 67.6025 164.652 71.3351 169.225 71.3351C173.799 71.3351 177.506 67.6025 177.506 63.0004C177.506 60.7901 176.632 58.6671 175.082 57.1063L172.246 54.2501L175.082 51.3973C176.635 49.833 177.506 47.7136 177.506 45.5033C177.506 40.9012 173.799 37.1685 169.225 37.1685C164.652 37.1685 160.945 40.9012 160.945 45.5033C160.945 47.7066 161.812 49.8191 163.355 51.3834C162.53 51.1145 161.746 50.7828 161.025 50.3812C159.083 49.3093 157.582 47.745 156.85 45.6639C156.642 45.0668 156.489 44.4313 156.406 43.7505H152.308C152.311 43.7993 152.315 43.8517 152.322 43.9041C152.433 45.0284 152.661 46.069 153.001 47.0292C154.097 50.1438 156.271 52.4414 159.062 53.9812C159.34 54.1349 159.624 54.2815 159.915 54.4177V54.4282ZM169.187 51.1774L166.389 48.363L166.399 48.3526C165.678 47.6263 165.231 46.6207 165.231 45.5103C165.231 43.2895 167.02 41.4913 169.225 41.4913C171.431 41.4913 173.22 43.293 173.22 45.5103C173.22 45.9398 173.154 46.3518 173.029 46.7394C172.62 48.0243 171.382 48.9741 170.449 49.9099L169.187 51.1809V51.1774Z" fill="#6666FF"/>
</g>
<defs>
<clipPath id="clip0_2238_45780">
<rect width="217" height="180" fill="white"/>
</clipPath>
</defs>
</svg>
