<svg width="114" height="220" viewBox="0 0 114 220" fill="none" xmlns="http://www.w3.org/2000/svg">
<g clip-path="url(#clip0_2378_20220)">
<path fill-rule="evenodd" clip-rule="evenodd" d="M67.4365 211V180.922H12.8773V195.96C12.8773 204.232 19.5447 210.998 27.6918 210.998H67.4365V211Z" fill="#FFCC00"/>
<path d="M67.4365 210.998C73.489 210.998 78.3955 204.265 78.3955 195.96C78.3955 187.654 73.489 180.922 67.4365 180.922C61.384 180.922 56.4775 187.654 56.4775 195.96C56.4775 204.265 61.384 210.998 67.4365 210.998Z" fill="#3300CC"/>
<path fill-rule="evenodd" clip-rule="evenodd" d="M27.6919 211C35.8414 211 42.5064 204.232 42.5064 195.96V153.947C42.5064 145.674 35.839 138.909 27.6919 138.909C19.5423 138.909 12.8773 145.677 12.8749 153.949V195.962C12.8749 204.234 19.5423 211.002 27.6919 211.002V211Z" fill="#FFCC00"/>
<path d="M18.3437 187.605H1.89917V192.38H18.3437V187.605Z" fill="#3300CC"/>
<path d="M18.3437 155.163H1.89917V159.938H18.3437V155.163Z" fill="#3300CC"/>
<path fill-rule="evenodd" clip-rule="evenodd" d="M13.8686 140.558L18.4938 139.3C17.3929 135.126 13.666 132.223 9.40775 132.223C4.213 132.223 0 136.497 0 141.773V207.181H4.70388V141.77H4.78966C4.78966 139.182 6.85803 137.082 9.40775 137.082C11.5452 137.082 13.3419 138.555 13.8686 140.556V140.558Z" fill="#3300CC"/>
<path d="M42.5065 174.408H32.7889V178.737H42.5065V174.408Z" fill="#3300CC"/>
<path d="M42.5065 164.972H32.7889V169.301H42.5065V164.972Z" fill="#3300CC"/>
<path d="M42.5065 155.536H32.7889V159.866H42.5065V155.536Z" fill="#3300CC"/>
<path fill-rule="evenodd" clip-rule="evenodd" d="M60.0781 207.106H156V185.305H59.7039C57.7118 188.028 56.4775 191.797 56.4775 195.96C56.4775 200.379 57.8667 204.353 60.0781 207.106Z" fill="#6666FF"/>
<path fill-rule="evenodd" clip-rule="evenodd" d="M55.2384 184.983L55.2312 184.976L57.1518 183.026L58.0192 183.906C58.6578 184.555 59.5109 185.213 59.7921 186.103C59.8755 186.371 59.9232 186.657 59.9232 186.954C59.9232 188.493 58.6936 189.741 57.1781 189.741C55.6625 189.741 54.4329 188.493 54.4329 186.954C54.4329 186.185 54.7403 185.488 55.236 184.985L55.2384 184.983ZM50.7799 181.011C49.9006 181.422 49.0928 181.935 48.3827 182.549C46.7885 183.928 45.6948 185.791 45.3945 188.164H48.2802C48.5471 186.727 49.2453 185.595 50.2271 184.748C50.9372 184.134 51.8022 183.655 52.7673 183.307C51.9452 184.332 51.4924 185.617 51.4924 186.949C51.4924 190.14 54.0398 192.723 57.1828 192.723C60.3259 192.723 62.8708 190.137 62.8708 186.949C62.8708 185.418 62.2727 183.948 61.2052 182.866L59.2583 180.89L61.2052 178.914C62.2727 177.83 62.8708 176.362 62.8708 174.831C62.8708 171.64 60.3235 169.057 57.1828 169.057C54.0421 169.057 51.4924 171.643 51.4924 174.831C51.4924 176.357 52.0881 177.821 53.1485 178.904C52.5814 178.718 52.0429 178.488 51.5472 178.212C50.2128 177.47 49.181 176.386 48.6782 174.945C48.5328 174.531 48.4304 174.091 48.3732 173.619H45.5566C45.5566 173.653 45.5613 173.689 45.5661 173.726C45.6424 174.504 45.7996 175.225 46.0332 175.893C46.7862 178.05 48.2779 179.642 50.1985 180.709C50.3891 180.815 50.5845 180.917 50.7847 181.014L50.7799 181.011ZM57.1518 178.759L55.2312 176.81L55.2384 176.802C54.7427 176.299 54.4353 175.603 54.4353 174.833C54.4353 173.295 55.6649 172.047 57.1804 172.047C58.696 172.047 59.9232 173.295 59.9256 174.833C59.9256 175.131 59.8803 175.416 59.7945 175.685C59.5133 176.575 58.6626 177.233 58.0216 177.881L57.1542 178.762L57.1518 178.759Z" fill="#6666FF"/>
<path fill-rule="evenodd" clip-rule="evenodd" d="M126.554 165.777V135.699H71.9951V150.737C71.9951 159.009 78.6625 165.777 86.8096 165.777H126.554Z" fill="#FFCC00"/>
<path fill-rule="evenodd" clip-rule="evenodd" d="M86.8096 165.777C94.9592 165.777 101.627 159.009 101.627 150.737V108.724C101.627 100.451 94.9592 93.6857 86.8096 93.6857C78.6601 93.6857 71.9951 100.454 71.9951 108.724V150.737C71.9951 159.009 78.6625 165.777 86.8096 165.777Z" fill="#FFCC00"/>
<path d="M77.4591 142.382H61.0146V147.157H77.4591V142.382Z" fill="#3300CC"/>
<path d="M77.4591 109.94H61.0146V114.715H77.4591V109.94Z" fill="#3300CC"/>
<path fill-rule="evenodd" clip-rule="evenodd" d="M72.984 95.3354L77.6092 94.0776C76.5083 89.9026 72.7814 87 68.5232 87C63.3284 87 59.1154 91.2741 59.1154 96.5496V161.958H63.8193V96.5496H63.9051C63.9051 93.9615 65.9734 91.8619 68.5232 91.8619C70.6606 91.8619 72.4574 93.335 72.984 95.3354Z" fill="#3300CC"/>
<path d="M101.624 129.185H91.9067V133.515H101.624V129.185Z" fill="#3300CC"/>
<path d="M101.624 119.749H91.9067V124.079H101.624V119.749Z" fill="#3300CC"/>
<path d="M101.624 110.313H91.9067V114.643H101.624V110.313Z" fill="#3300CC"/>
<path fill-rule="evenodd" clip-rule="evenodd" d="M114.356 139.76L114.349 139.753L116.272 137.803L117.139 138.684C117.778 139.332 118.631 139.99 118.912 140.88C118.996 141.148 119.043 141.434 119.043 141.731C119.043 143.27 117.814 144.518 116.298 144.518C114.783 144.518 113.553 143.27 113.553 141.731C113.553 140.962 113.861 140.265 114.356 139.762V139.76ZM109.898 135.788C109.018 136.199 108.211 136.712 107.498 137.327C105.904 138.705 104.81 140.568 104.51 142.941H107.396C107.663 141.504 108.361 140.372 109.34 139.525C110.05 138.911 110.915 138.432 111.88 138.084C111.058 139.109 110.605 140.394 110.605 141.726C110.605 144.914 113.153 147.5 116.296 147.5C119.439 147.5 121.986 144.914 121.986 141.726C121.986 140.195 121.386 138.725 120.321 137.643L118.371 135.665L120.321 133.689C121.388 132.605 121.986 131.137 121.986 129.606C121.986 126.418 119.439 123.832 116.296 123.832C113.153 123.832 110.605 126.418 110.605 129.606C110.605 131.132 111.201 132.595 112.262 133.679C111.694 133.493 111.156 133.263 110.66 132.985C109.326 132.242 108.294 131.158 107.791 129.717C107.648 129.303 107.543 128.863 107.486 128.391H104.67C104.672 128.425 104.674 128.461 104.679 128.498C104.755 129.277 104.913 129.997 105.146 130.663C105.899 132.82 107.393 134.412 109.312 135.479C109.502 135.585 109.698 135.687 109.898 135.781V135.788ZM116.27 133.536L114.347 131.587L114.354 131.579C113.858 131.076 113.551 130.38 113.551 129.61C113.551 128.072 114.78 126.826 116.296 126.826C117.811 126.826 119.041 128.074 119.041 129.61C119.041 129.908 118.996 130.193 118.91 130.462C118.629 131.352 117.778 132.01 117.137 132.658L116.27 133.539V133.536Z" fill="#6666FF"/>
</g>
<defs>
<clipPath id="clip0_2378_20220">
<rect width="114" height="220" fill="white"/>
</clipPath>
</defs>
</svg>
