<svg width="108" height="220" viewBox="0 0 108 220" fill="none" xmlns="http://www.w3.org/2000/svg">
<g clip-path="url(#clip0_2238_50140)">
<path d="M50.2291 117.586H-72V121.208H50.2291V117.586Z" fill="#00CCFF"/>
<path fill-rule="evenodd" clip-rule="evenodd" d="M12.4299 114.802H35.613V156.813H24.0224C17.6477 156.813 12.4318 151.679 12.4318 145.405V114.804L12.4299 114.802Z" fill="#33CC99"/>
<path fill-rule="evenodd" clip-rule="evenodd" d="M24.0225 123.241C30.4063 123.241 35.6131 119.45 35.6131 114.804C35.6131 110.157 30.4063 106.367 24.0225 106.367C17.6386 106.367 12.4319 110.157 12.4319 114.804C12.4319 119.45 17.6386 123.241 24.0225 123.241Z" fill="#3300CC"/>
<path fill-rule="evenodd" clip-rule="evenodd" d="M12.4299 145.405C12.4299 139.131 17.6459 133.998 24.0205 133.998H56.4014C62.776 133.998 67.992 139.131 67.992 145.405C67.992 151.679 62.776 156.813 56.4014 156.813H24.0205C17.6459 156.813 12.4299 151.679 12.4299 145.405Z" fill="#33CC99"/>
<path d="M30.4615 152.602H26.7812V165.264H30.4615V152.602Z" fill="#3300CC"/>
<path d="M55.4654 152.602H51.7852V165.264H55.4654V152.602Z" fill="#3300CC"/>
<path fill-rule="evenodd" clip-rule="evenodd" d="M66.7211 156.049L67.6904 152.486C70.9071 153.335 73.1454 156.204 73.1454 159.482C73.1454 163.483 69.8496 166.725 65.7868 166.725H15.3745V163.103H65.7868V163.036C67.7823 163.036 69.399 161.445 69.399 159.481C69.399 157.835 68.2642 156.452 66.7211 156.045V156.049Z" fill="#3300CC"/>
<path d="M40.6341 133.996H37.2979V141.479H40.6341V133.996Z" fill="#3300CC"/>
<path d="M47.9061 133.996H44.5698V141.479H47.9061V133.996Z" fill="#3300CC"/>
<path d="M55.1783 133.996H51.842V141.479H55.1783V133.996Z" fill="#3300CC"/>
<path fill-rule="evenodd" clip-rule="evenodd" d="M15.4316 120.468V-42.4215H32.2345V120.757C30.136 122.29 27.2319 123.241 24.0225 123.241C20.6163 123.241 17.5522 122.171 15.4316 120.468Z" fill="#FFCC00"/>
<path fill-rule="evenodd" clip-rule="evenodd" d="M32.2345 120.757V110.981H15.4316V120.469C17.5522 122.173 20.6163 123.242 24.0225 123.242C27.2319 123.242 30.136 122.292 32.2345 120.759V120.757Z" fill="#6666FF"/>
<path d="M32.2345 80.2997H15.4316V95.1389H32.2345V80.2997Z" fill="#6666FF"/>
<path d="M32.2345 49.6184H15.4316V64.4576H32.2345V49.6184Z" fill="#6666FF"/>
<path d="M32.2345 18.939H15.4316V33.7782H32.2345V18.939Z" fill="#6666FF"/>
<path d="M32.2345 -11.7421H15.4316V3.09713H32.2345V-11.7421Z" fill="#6666FF"/>
<path fill-rule="evenodd" clip-rule="evenodd" d="M32.4808 124.195L32.4863 124.2L33.9889 122.721L33.3102 122.053C32.81 121.561 32.3024 120.906 31.6163 120.688C31.4104 120.623 31.1897 120.589 30.9616 120.589C29.7753 120.589 28.8153 121.536 28.8153 122.701C28.8153 123.867 29.7772 124.814 30.9616 124.814C31.5538 124.814 32.0909 124.576 32.4789 124.195H32.4808ZM35.5412 127.628C35.223 128.305 34.8294 128.928 34.3549 129.475C33.2919 130.704 31.8573 131.544 30.0273 131.775V129.552C31.1345 129.346 32.0063 128.808 32.6592 128.054C33.1337 127.507 33.5015 126.841 33.77 126.099C32.9792 126.731 31.9897 127.08 30.9616 127.08C28.5026 127.08 26.5107 125.118 26.5107 122.699C26.5107 120.281 28.5044 118.319 30.9616 118.319C32.1424 118.319 33.2735 118.781 34.1084 119.602L35.6331 121.103L37.1578 119.602C37.9928 118.781 39.1239 118.319 40.3047 118.319C42.7637 118.319 44.7555 120.281 44.7555 122.699C44.7555 125.118 42.7637 127.08 40.3047 127.08C39.1276 127.08 38.0002 126.622 37.1652 125.806C37.3086 126.244 37.4871 126.656 37.6986 127.038C38.2705 128.066 39.1055 128.859 40.2164 129.247C40.5346 129.357 40.8748 129.437 41.2372 129.482V131.65C41.2096 131.649 41.1838 131.647 41.1562 131.643C40.5567 131.585 39.9994 131.462 39.4862 131.285C37.8236 130.705 36.5969 129.556 35.7729 128.079C35.6902 127.932 35.6129 127.78 35.5393 127.627L35.5412 127.628ZM37.2774 122.721L38.78 124.2L38.7855 124.195C39.1736 124.576 39.7106 124.814 40.3029 124.814C41.4891 124.814 42.4492 123.867 42.4492 122.701C42.4492 121.536 41.4873 120.589 40.3029 120.589C40.0748 120.589 39.8541 120.623 39.6481 120.688C38.9621 120.904 38.4545 121.561 37.956 122.053L37.2774 122.721Z" fill="#FFCC00"/>
<path fill-rule="evenodd" clip-rule="evenodd" d="M47.2847 69.2833H70.4677V111.294H58.8771C52.5025 111.294 47.2865 106.16 47.2865 99.8867V69.2851L47.2847 69.2833Z" fill="#33CC99"/>
<path d="M58.877 77.7203C65.2783 77.7203 70.4676 73.943 70.4676 69.2834C70.4676 64.6239 65.2783 60.8466 58.877 60.8466C52.4757 60.8466 47.2864 64.6239 47.2864 69.2834C47.2864 73.943 52.4757 77.7203 58.877 77.7203Z" fill="#3300CC"/>
<path fill-rule="evenodd" clip-rule="evenodd" d="M47.2847 99.8849C47.2847 93.6111 52.5006 88.4777 58.8753 88.4777H91.2561C97.6307 88.4777 102.847 93.6111 102.847 99.8849C102.847 106.159 97.6307 111.292 91.2561 111.292H58.8753C52.5006 111.292 47.2847 106.159 47.2847 99.8849Z" fill="#33CC99"/>
<path d="M65.316 107.084H61.6357V119.745H65.316V107.084Z" fill="#3300CC"/>
<path d="M90.3199 107.084H86.6396V119.745H90.3199V107.084Z" fill="#3300CC"/>
<path fill-rule="evenodd" clip-rule="evenodd" d="M101.576 110.53L102.545 106.968C105.762 107.817 108 110.686 108 113.964C108 117.964 104.706 121.206 100.641 121.206H50.229V117.584H100.641V117.517C102.637 117.517 104.253 115.926 104.253 113.962C104.253 112.317 103.119 110.932 101.576 110.527V110.53Z" fill="#3300CC"/>
<path d="M75.4886 88.4777H72.1523V95.9606H75.4886V88.4777Z" fill="#3300CC"/>
<path d="M82.7609 88.4777H79.4246V95.9606H82.7609V88.4777Z" fill="#3300CC"/>
<path d="M90.0328 88.4777H86.6965V95.9606H90.0328V88.4777Z" fill="#3300CC"/>
<path fill-rule="evenodd" clip-rule="evenodd" d="M50.2861 74.949V-42.4215H67.089V75.2368C64.9905 76.77 62.0864 77.7203 58.877 77.7203C55.4708 77.7203 52.4067 76.6505 50.2861 74.9472V74.949Z" fill="#FFCC00"/>
<path fill-rule="evenodd" clip-rule="evenodd" d="M67.089 75.2368V65.4604H50.2861V74.949C52.4067 76.6523 55.4708 77.7221 58.877 77.7221C62.0864 77.7221 64.9905 76.7718 67.089 75.2386V75.2368Z" fill="#6666FF"/>
<path d="M67.089 34.7811H50.2861V49.6203H67.089V34.7811Z" fill="#6666FF"/>
<path d="M67.089 4.09985H50.2861V18.939H67.089V4.09985Z" fill="#6666FF"/>
<path fill-rule="evenodd" clip-rule="evenodd" d="M67.3355 78.676L67.341 78.6814L68.8436 77.2026L68.165 76.5347C67.6647 76.0423 67.1571 75.3871 66.4711 75.1698C66.2651 75.1047 66.0444 75.0703 65.8163 75.0703C64.63 75.0703 63.67 76.017 63.67 77.1827C63.67 78.3484 64.6319 79.2951 65.8163 79.2951C66.4085 79.2951 66.9456 79.0579 67.3337 78.676H67.3355ZM70.3959 82.1098C70.0777 82.7867 69.6842 83.4094 69.2096 83.9561C68.1466 85.1851 66.712 86.025 64.882 86.2567V84.0339C65.9892 83.8275 66.861 83.29 67.5139 82.5351C67.9866 81.9885 68.3562 81.3224 68.6248 80.5802C67.8358 81.212 66.8444 81.5613 65.8163 81.5613C63.3573 81.5613 61.3655 79.601 61.3655 77.1809C61.3655 74.7608 63.3573 72.8004 65.8163 72.8004C66.9971 72.8004 68.1282 73.262 68.9632 74.0838L70.4879 75.5843L72.0126 74.0838C72.8476 73.262 73.9787 72.8004 75.1594 72.8004C77.6184 72.8004 79.6103 74.7626 79.6103 77.1809C79.6103 79.5992 77.6166 81.5613 75.1594 81.5613C73.9823 81.5613 72.8549 81.1033 72.0199 80.287C72.1634 80.725 72.3418 81.1377 72.5533 81.5197C73.1253 82.5478 73.9603 83.3406 75.0711 83.728C75.3893 83.8384 75.7296 83.918 76.0919 83.9633V86.1318C76.0643 86.1318 76.0386 86.1282 76.011 86.1246C75.4114 86.0666 74.8541 85.9436 74.341 85.7662C72.6784 85.1869 71.4516 84.0375 70.6277 82.5605C70.5449 82.4139 70.4676 82.2618 70.3941 82.1079L70.3959 82.1098ZM72.1321 77.2026L73.6347 78.6814L73.6403 78.676C74.0283 79.0579 74.5654 79.2951 75.1576 79.2951C76.3439 79.2951 77.3039 78.3484 77.3039 77.1827C77.3039 76.017 76.342 75.0703 75.1576 75.0703C74.9295 75.0703 74.7088 75.1047 74.5028 75.1698C73.8168 75.3852 73.3092 76.0423 72.8108 76.5347L72.1321 77.2026Z" fill="#FFCC00"/>
<path d="M20.3018 163.106H-72V166.728H20.3018V163.106Z" fill="#00CCFF"/>
</g>
<defs>
<clipPath id="clip0_2238_50140">
<rect width="108" height="220" fill="white"/>
</clipPath>
</defs>
</svg>
