<svg width="42" height="42" viewBox="0 0 42 42" fill="none" xmlns="http://www.w3.org/2000/svg">
<g clip-path="url(#clip0_4801_30292)">
<path d="M20.7481 27.8959L13.8737 39.9999L11.3527 36.1529L10.3832 34.6734L8.61036 34.6094L4 34.4429L10.8744 22.3389L20.7481 27.8959Z" fill="#E61F22"/>
<path d="M17.1822 25.8887L11.3527 36.153L10.3831 34.6735L8.61035 34.6095L14.4399 24.3457L17.1822 25.8887Z" fill="#FF8F8F"/>
<path d="M20.748 27.8959L27.6225 39.9999L30.1435 36.1529L31.113 34.6734L32.8858 34.6094L37.4962 34.4429L30.6218 22.3389L20.748 27.8959Z" fill="#E61F22"/>
<path d="M24.3145 25.8887L30.144 36.153L31.1135 34.6735L32.8863 34.6095L27.0568 24.3457L24.3145 25.8887Z" fill="#FF8F8F"/>
<path d="M35.3995 17.5851C35.3995 25.6393 28.8403 32.1693 20.7481 32.1693C17.6467 32.1693 14.7707 31.2105 12.4032 29.5732C8.59324 26.9398 6.09766 22.5528 6.09766 17.5851C6.09812 9.53001 12.6573 3 20.7481 3C28.1965 3 34.3463 8.53261 35.2775 15.6943C35.3579 16.3135 35.3995 16.9442 35.3995 17.5851Z" fill="#D6902B"/>
<path d="M35.3995 16.5851C35.3995 24.6393 28.8403 31.1693 20.7481 31.1693C17.6467 31.1693 14.7707 30.2105 12.4032 28.5732C8.59324 25.9398 6.09766 21.5528 6.09766 16.5851C6.09812 8.53001 12.6573 2 20.7481 2C28.1965 2 34.3463 7.53261 35.2775 14.6943C35.3579 15.3135 35.3995 15.9442 35.3995 16.5851Z" fill="url(#paint0_linear_4801_30292)"/>
<path fill-rule="evenodd" clip-rule="evenodd" d="M13.6638 9.53243C9.75113 13.4274 9.75113 19.7425 13.6638 23.6375C17.5766 27.5325 23.9203 27.5325 27.833 23.6375C31.7457 19.7425 31.7457 13.4274 27.833 9.53243C23.9203 5.63742 17.5766 5.63742 13.6638 9.53243ZM12.114 25.1804C7.34528 20.4333 7.34528 12.7367 12.114 7.98956C16.8826 3.24246 24.6142 3.24246 29.3829 7.98957C34.1516 12.7367 34.1516 20.4333 29.3829 25.1804C24.6142 29.9275 16.8827 29.9275 12.114 25.1804Z" fill="#EBA238"/>
<path d="M21.3265 11.5618L22.573 14.0755C22.6668 14.265 22.8484 14.3966 23.0587 14.427L25.8454 14.83C26.3746 14.9064 26.5858 15.5537 26.2031 15.9254L24.1863 17.882C24.0343 18.0297 23.9649 18.2422 24.001 18.4506L24.477 21.2137C24.5676 21.7382 24.0144 22.1384 23.5411 21.8909L21.0483 20.5862C20.8602 20.4877 20.6361 20.4877 20.448 20.5862L17.9552 21.8909C17.482 22.1384 16.9288 21.7386 17.0194 21.2137L17.4954 18.4506C17.5314 18.2422 17.4621 18.0297 17.31 17.882L15.2932 15.9254C14.9101 15.5537 15.1218 14.9064 15.6509 14.83L18.4377 14.427C18.648 14.3966 18.8296 14.265 18.9234 14.0755L20.1698 11.5618C20.4064 11.0842 21.0899 11.0842 21.327 11.5618H21.3265Z" fill="#EBA238"/>
</g>
<defs>
<linearGradient id="paint0_linear_4801_30292" x1="20.7486" y1="2" x2="20.7486" y2="31.1693" gradientUnits="userSpaceOnUse">
<stop stop-color="#FFDD92"/>
<stop offset="1" stop-color="#FABF3C"/>
</linearGradient>
<clipPath id="clip0_4801_30292">
<rect width="33.4963" height="38" fill="white" transform="translate(4 2)"/>
</clipPath>
</defs>
</svg>
