<svg width="40" height="40" viewBox="0 0 40 40" fill="none" xmlns="http://www.w3.org/2000/svg">
<path d="M19.9593 6L29.9186 32.25H10L19.9593 6Z" fill="url(#paint0_linear_4637_25545)"/>
<mask id="mask0_4637_25545" style="mask-type:alpha" maskUnits="userSpaceOnUse" x="10" y="6" width="20" height="27">
<path d="M19.9593 6L29.9186 32.25H10L19.9593 6Z" fill="url(#paint1_linear_4637_25545)"/>
</mask>
<g mask="url(#mask0_4637_25545)">
<path opacity="0.4" d="M18 7C18 8.10457 18.8954 9 20 9C21.1046 9 22 8.10457 22 7C22 5.89543 21.1046 5 20 5C18.8954 5 18 5.89543 18 7Z" fill="#D5A45D"/>
</g>
<circle cx="20" cy="6" r="2" fill="url(#paint2_linear_4637_25545)"/>
<path d="M35.4186 11V33.2498H15.5L35.4186 11Z" fill="url(#paint3_linear_4637_25545)"/>
<mask id="mask1_4637_25545" style="mask-type:alpha" maskUnits="userSpaceOnUse" x="15" y="11" width="21" height="23">
<path d="M35.4186 11V33.2498H15.5L35.4186 11Z" fill="url(#paint4_linear_4637_25545)"/>
</mask>
<g mask="url(#mask1_4637_25545)">
<circle opacity="0.4" cx="35" cy="12" r="2" fill="#D5A45D"/>
</g>
<circle cx="35" cy="11" r="2" fill="url(#paint5_linear_4637_25545)"/>
<circle cx="34.5" cy="10.5" r="0.5" fill="white" fill-opacity="0.3"/>
<path d="M5.58141 11V33.2498H25.5L5.58141 11Z" fill="url(#paint6_linear_4637_25545)"/>
<mask id="mask2_4637_25545" style="mask-type:alpha" maskUnits="userSpaceOnUse" x="5" y="11" width="21" height="23">
<path d="M5.58141 11V33.2498H25.5L5.58141 11Z" fill="url(#paint7_linear_4637_25545)"/>
</mask>
<g mask="url(#mask2_4637_25545)">
<path opacity="0.4" d="M4 12C4 13.1046 4.89543 14 6 14C7.10457 14 8 13.1046 8 12C8 10.8954 7.10457 10 6 10C4.89543 10 4 10.8954 4 12Z" fill="#D5A45D"/>
</g>
<circle cx="2" cy="2" r="2" transform="matrix(-1 0 0 1 8 9)" fill="url(#paint8_linear_4637_25545)"/>
<rect x="3" y="32.667" width="34.8333" height="3.33333" rx="1.66667" fill="url(#paint9_linear_4637_25545)"/>
<path d="M8.91 22.818C8.91 22.4167 9.02667 22.0993 9.26 21.866C9.49333 21.6327 9.81067 21.516 10.212 21.516H14.832C14.8973 21.6187 14.9533 21.754 15 21.922C15.056 22.09 15.084 22.2673 15.084 22.454C15.084 22.8087 15.0047 23.0607 14.846 23.21C14.6967 23.3593 14.496 23.434 14.244 23.434H11.29V24.736H14.44C14.5053 24.8387 14.5613 24.974 14.608 25.142C14.664 25.3007 14.692 25.4733 14.692 25.66C14.692 26.0147 14.6173 26.2667 14.468 26.416C14.3187 26.5653 14.118 26.64 13.866 26.64H11.29V28.11H14.888C14.9533 28.2127 15.0093 28.348 15.056 28.516C15.112 28.684 15.14 28.8613 15.14 29.048C15.14 29.4027 15.0607 29.6593 14.902 29.818C14.7527 29.9673 14.552 30.042 14.3 30.042H10.212C9.81067 30.042 9.49333 29.9253 9.26 29.692C9.02667 29.4587 8.91 29.1413 8.91 28.74V22.818ZM23.4259 29.706C23.2953 29.8367 23.1039 29.9347 22.8519 30C22.6093 30.0747 22.3153 30.112 21.9699 30.112C21.6246 30.112 21.2979 30.0607 20.9899 29.958C20.6819 29.8553 20.4299 29.608 20.2339 29.216L18.8479 26.388C18.7079 26.0987 18.5819 25.828 18.4699 25.576C18.3579 25.3147 18.2366 25.016 18.1059 24.68L18.0219 24.694C18.0593 25.198 18.0779 25.7113 18.0779 26.234C18.0873 26.7567 18.0919 27.27 18.0919 27.774V29.944C17.9893 29.972 17.8306 30 17.6159 30.028C17.4106 30.056 17.2053 30.07 16.9999 30.07C16.7946 30.07 16.6126 30.056 16.4539 30.028C16.2953 30 16.1646 29.944 16.0619 29.86C15.9593 29.776 15.8799 29.664 15.8239 29.524C15.7679 29.3747 15.7399 29.1833 15.7399 28.95V21.95C15.8706 21.7633 16.0713 21.6233 16.3419 21.53C16.6126 21.4367 16.9019 21.39 17.2099 21.39C17.5553 21.39 17.8819 21.446 18.1899 21.558C18.5073 21.6607 18.7593 21.9033 18.9459 22.286L20.3459 25.114C20.4859 25.4033 20.6119 25.6787 20.7239 25.94C20.8359 26.192 20.9573 26.486 21.0879 26.822L21.1579 26.808C21.1206 26.304 21.0973 25.8 21.0879 25.296C21.0786 24.792 21.0739 24.288 21.0739 23.784V21.516C21.1766 21.488 21.3306 21.46 21.5359 21.432C21.7506 21.404 21.9606 21.39 22.1659 21.39C22.5766 21.39 22.8893 21.4647 23.1039 21.614C23.3186 21.754 23.4259 22.0527 23.4259 22.51V29.706ZM32.0879 28.614C32.0879 28.9033 32.0365 29.118 31.9339 29.258C31.8312 29.398 31.6679 29.5333 31.4439 29.664C31.3132 29.7387 31.1499 29.8133 30.9539 29.888C30.7579 29.9533 30.5432 30.0093 30.3099 30.056C30.0765 30.112 29.8292 30.154 29.5679 30.182C29.3159 30.21 29.0639 30.224 28.8119 30.224C28.1399 30.224 27.5099 30.1353 26.9219 29.958C26.3339 29.7713 25.8205 29.496 25.3819 29.132C24.9525 28.7587 24.6119 28.2967 24.3599 27.746C24.1079 27.1953 23.9819 26.556 23.9819 25.828C23.9819 25.0627 24.1172 24.3953 24.3879 23.826C24.6679 23.2567 25.0319 22.7853 25.4799 22.412C25.9372 22.0293 26.4552 21.7447 27.0339 21.558C27.6219 21.3713 28.2239 21.278 28.8399 21.278C29.7265 21.278 30.4265 21.4227 30.9399 21.712C31.4625 21.992 31.7239 22.3607 31.7239 22.818C31.7239 23.0607 31.6632 23.2707 31.5419 23.448C31.4205 23.6253 31.2805 23.7653 31.1219 23.868C30.8885 23.728 30.5945 23.5927 30.2399 23.462C29.8945 23.322 29.5025 23.252 29.0639 23.252C28.2799 23.252 27.6545 23.476 27.1879 23.924C26.7305 24.372 26.5019 24.9927 26.5019 25.786C26.5019 26.2153 26.5625 26.5887 26.6839 26.906C26.8145 27.214 26.9872 27.4707 27.2019 27.676C27.4165 27.872 27.6639 28.0213 27.9439 28.124C28.2239 28.2173 28.5225 28.264 28.8399 28.264C29.0452 28.264 29.2272 28.2453 29.3859 28.208C29.5445 28.1707 29.6659 28.1287 29.7499 28.082V26.766H28.2519C28.1959 26.6633 28.1399 26.528 28.0839 26.36C28.0372 26.192 28.0139 26.0147 28.0139 25.828C28.0139 25.492 28.0885 25.2493 28.2379 25.1C28.3965 24.9507 28.5972 24.876 28.8399 24.876H31.2059C31.4859 24.876 31.7005 24.9553 31.8499 25.114C32.0085 25.2633 32.0879 25.478 32.0879 25.758V28.614Z" fill="#D68B1E"/>
<rect x="4" y="33" width="32" height="1" rx="0.5" fill="white" fill-opacity="0.2"/>
<circle cx="5.5" cy="10.5" r="0.5" fill="white" fill-opacity="0.3"/>
<circle cx="19.5" cy="5.5" r="0.5" fill="white" fill-opacity="0.3"/>
<defs>
<linearGradient id="paint0_linear_4637_25545" x1="19.9593" y1="6" x2="19.9593" y2="32.25" gradientUnits="userSpaceOnUse">
<stop stop-color="#FFDD92"/>
<stop offset="1" stop-color="#FABF3C"/>
</linearGradient>
<linearGradient id="paint1_linear_4637_25545" x1="19.9593" y1="6" x2="19.9593" y2="32.25" gradientUnits="userSpaceOnUse">
<stop stop-color="#FFDD92"/>
<stop offset="1" stop-color="#FABF3C"/>
</linearGradient>
<linearGradient id="paint2_linear_4637_25545" x1="20" y1="4" x2="20" y2="8" gradientUnits="userSpaceOnUse">
<stop stop-color="#FFDD92"/>
<stop offset="1" stop-color="#FABF3C"/>
</linearGradient>
<linearGradient id="paint3_linear_4637_25545" x1="25.4593" y1="11" x2="25.4593" y2="33.2498" gradientUnits="userSpaceOnUse">
<stop stop-color="#FFDD92"/>
<stop offset="1" stop-color="#FABF3C"/>
</linearGradient>
<linearGradient id="paint4_linear_4637_25545" x1="25.4593" y1="11" x2="25.4593" y2="33.2498" gradientUnits="userSpaceOnUse">
<stop stop-color="#FFDD92"/>
<stop offset="1" stop-color="#FABF3C"/>
</linearGradient>
<linearGradient id="paint5_linear_4637_25545" x1="35" y1="9" x2="35" y2="13" gradientUnits="userSpaceOnUse">
<stop stop-color="#FFDD92"/>
<stop offset="1" stop-color="#FABF3C"/>
</linearGradient>
<linearGradient id="paint6_linear_4637_25545" x1="15.5407" y1="11" x2="15.5407" y2="33.2498" gradientUnits="userSpaceOnUse">
<stop stop-color="#FFDD92"/>
<stop offset="1" stop-color="#FABF3C"/>
</linearGradient>
<linearGradient id="paint7_linear_4637_25545" x1="15.5407" y1="11" x2="15.5407" y2="33.2498" gradientUnits="userSpaceOnUse">
<stop stop-color="#FFDD92"/>
<stop offset="1" stop-color="#FABF3C"/>
</linearGradient>
<linearGradient id="paint8_linear_4637_25545" x1="2" y1="0" x2="2" y2="4" gradientUnits="userSpaceOnUse">
<stop stop-color="#FFDD92"/>
<stop offset="1" stop-color="#FABF3C"/>
</linearGradient>
<linearGradient id="paint9_linear_4637_25545" x1="20.4167" y1="32.667" x2="20.4167" y2="36.0003" gradientUnits="userSpaceOnUse">
<stop stop-color="#FBB34A"/>
<stop offset="1" stop-color="#EBA238"/>
</linearGradient>
</defs>
</svg>
