<svg width="42" height="42" viewBox="0 0 42 42" fill="none" xmlns="http://www.w3.org/2000/svg">
<path d="M22.2595 40.0001C32.3973 40.0001 40.6156 31.7818 40.6156 21.644C40.6156 11.5062 32.3973 3.28784 22.2595 3.28784C12.1216 3.28784 3.90332 11.5062 3.90332 21.644C3.90332 31.7818 12.1216 40.0001 22.2595 40.0001Z" fill="#1D81BD"/>
<path d="M22.2595 38.7125C32.3973 38.7125 40.6156 30.4942 40.6156 20.3564C40.6156 10.2186 32.3973 2.00024 22.2595 2.00024C12.1216 2.00024 3.90332 10.2186 3.90332 20.3564C3.90332 30.4942 12.1216 38.7125 22.2595 38.7125Z" fill="url(#paint0_linear_4801_30177)"/>
<path d="M22.2595 35.0617C24.2465 35.0617 26.1718 34.6734 27.9824 33.9075C29.733 33.1669 31.3061 32.1062 32.658 30.7544C34.0098 29.4026 35.0704 27.8295 35.811 26.0789C36.5769 24.2683 36.9652 22.3426 36.9652 20.3559C36.9652 18.3692 36.5769 16.4435 35.811 14.633C35.0704 12.8824 34.0098 11.3093 32.658 9.95743C31.3061 8.60561 29.733 7.54496 27.9824 6.80437C26.1718 6.03847 24.2462 5.65015 22.2595 5.65015C20.2727 5.65015 18.3471 6.03847 16.5365 6.80437C14.7859 7.54496 13.2128 8.60561 11.861 9.95743C10.5092 11.3093 9.44852 12.8824 8.70794 14.633C7.94203 16.4435 7.55371 18.3692 7.55371 20.3559C7.55371 22.3426 7.94203 24.2683 8.70794 26.0789C9.44852 27.8295 10.5092 29.4026 11.861 30.7544C13.2128 32.1062 14.7859 33.1669 16.5365 33.9075C18.3471 34.6734 20.2727 35.0617 22.2595 35.0617Z" fill="white"/>
<path d="M22.2615 31.4116C23.7572 31.4116 25.2043 31.1204 26.5624 30.5458C27.8782 29.9893 29.061 29.1912 30.0788 28.1735C31.0965 27.1558 31.8946 25.9726 32.451 24.6571C33.0254 23.299 33.3169 21.8519 33.3169 20.3562C33.3169 18.8604 33.0257 17.4134 32.451 16.0552C31.8946 14.7397 31.0965 13.5566 30.0788 12.5389C29.061 11.5212 27.8779 10.7231 26.5624 10.1666C25.2043 9.59223 23.7572 9.30078 22.2615 9.30078C20.7657 9.30078 19.3187 9.59195 17.9605 10.1666C16.645 10.7231 15.4619 11.5212 14.4442 12.5389C13.4264 13.5566 12.6283 14.7395 12.0719 16.0552C11.4975 17.4134 11.2061 18.8604 11.2061 20.3562C11.2061 21.8519 11.4972 23.299 12.0719 24.6571C12.6283 25.9726 13.4264 27.1558 14.4442 28.1735C15.4619 29.1912 16.645 29.9893 17.9605 30.5458C19.3187 31.1201 20.7657 31.4116 22.2615 31.4116Z" fill="url(#paint1_linear_4801_30177)"/>
<path d="M22.2586 27.7617C23.2631 27.7617 24.2315 27.5674 25.1375 27.1843C26.0182 26.812 26.8111 26.2764 27.4947 25.5928C28.1783 24.9092 28.7138 24.116 29.0862 23.2357C29.4693 22.3297 29.6636 21.3612 29.6636 20.3567C29.6636 19.3522 29.4693 18.3835 29.0862 17.4777C28.7138 16.5973 28.1783 15.8042 27.4947 15.1206C26.8111 14.437 26.0179 13.9014 25.1375 13.529C24.2318 13.146 23.2631 12.9517 22.2586 12.9517C21.254 12.9517 20.2853 13.146 19.3796 13.529C18.4992 13.9014 17.7061 14.437 17.0224 15.1206C16.3388 15.8042 15.8035 16.5971 15.4309 17.4777C15.0478 18.3837 14.8535 19.3522 14.8535 20.3567C14.8535 21.3612 15.0478 22.3299 15.4309 23.2357C15.8033 24.116 16.3388 24.9092 17.0224 25.5928C17.7061 26.2764 18.4989 26.8117 19.3796 27.1841C20.2856 27.5672 21.254 27.7615 22.2586 27.7615V27.7617Z" fill="white"/>
<path d="M22.258 24.1111C22.7713 24.1111 23.2614 24.014 23.715 23.8222C24.1603 23.6337 24.5634 23.3609 24.913 23.0114C25.2625 22.6619 25.5352 22.2587 25.7237 21.8134C25.9155 21.3599 26.0127 20.8697 26.0127 20.3565C26.0127 19.8432 25.9155 19.3531 25.7237 18.8995C25.5352 18.4542 25.2628 18.0511 24.9132 17.7015C24.5634 17.3518 24.1605 17.079 23.7153 16.8908C23.2617 16.699 22.7716 16.6018 22.2583 16.6018C21.745 16.6018 21.2549 16.699 20.8013 16.8908C20.3561 17.079 19.9529 17.352 19.6034 17.7015C19.2538 18.0511 18.9811 18.454 18.7929 18.8995C18.6011 19.3531 18.5039 19.8432 18.5039 20.3565C18.5039 20.8697 18.6011 21.3599 18.7929 21.8134C18.9814 22.2587 19.2541 22.6619 19.6036 23.0114C19.9532 23.3609 20.3561 23.6337 20.8013 23.8219C21.2549 24.0137 21.745 24.1109 22.2583 24.1109L22.258 24.1111Z" fill="#D95355"/>
<g style="mix-blend-mode:multiply" opacity="0.35">
<path d="M20.2326 22.3512C20.2246 22.281 20.2472 22.2084 20.3006 22.1541L21.9243 20.5073C22.0179 20.4123 22.1709 20.4112 22.2659 20.5048L22.2741 20.5128L22.5488 20.2632L22.6878 20.3978L22.4412 20.6771L22.4494 20.6851C22.5444 20.7786 22.5455 20.9317 22.4519 21.0266L20.8282 22.6735C20.7748 22.7277 20.7021 22.7511 20.632 22.7442L9.7458 33.7861C9.60902 33.6587 9.47445 33.5291 9.3418 33.3975L20.2329 22.3506L20.2326 22.3512Z" fill="#A3A3A3"/>
</g>
<path d="M2.71995 6.61589L2 6.01621L3.96389 5.34277L7.62169 8.38878L5.6578 9.06222L2.97782 6.83055L3.96692 6.35912L2.71995 6.61589Z" fill="#BC3939"/>
<path d="M5.29958 4.14811L5.7933 6.01402C5.85 5.57617 5.90669 5.13858 5.96311 4.70073L7.92727 6.33629L7.62041 8.38962L3.96289 5.34361L4.26975 3.29028L5.29985 4.14811H5.29958Z" fill="#D95355"/>
<path d="M22.0046 20.3082C22.1191 20.3679 22.2636 20.342 22.3494 20.2388C22.4485 20.1199 22.4323 19.9432 22.3134 19.8442L4.08551 5.07978C3.96662 4.9807 3.78994 4.99694 3.69086 5.11583C3.59179 5.23472 3.60802 5.4114 3.72691 5.51048L21.9548 20.2749C21.9705 20.2878 21.9873 20.2991 22.0046 20.3082Z" fill="#4F4F4F"/>
<path d="M20.1488 18.8915L21.9057 20.3543C22.0139 20.4443 22.1746 20.4296 22.2646 20.3215L22.4122 20.1442C22.5022 20.0361 22.4876 19.8754 22.3794 19.7853L20.6225 18.3226C20.5143 18.2325 20.3536 18.2472 20.2636 18.3554L20.116 18.5326C20.0259 18.6408 20.0406 18.8014 20.1488 18.8915Z" fill="#3F3F3F"/>
<path d="M22.3907 20.1184L22.6874 20.3947L22.565 20.5444L22.2383 20.3014L22.3907 20.1184Z" fill="#3F3F3F"/>
<defs>
<linearGradient id="paint0_linear_4801_30177" x1="5.05058" y1="5.71272" x2="44.3914" y2="16.8777" gradientUnits="userSpaceOnUse">
<stop stop-color="#29C4E7"/>
<stop offset="1" stop-color="#0193FE"/>
</linearGradient>
<linearGradient id="paint1_linear_4801_30177" x1="11.897" y1="11.5367" x2="35.5909" y2="18.2611" gradientUnits="userSpaceOnUse">
<stop stop-color="#29C4E7"/>
<stop offset="1" stop-color="#0193FE"/>
</linearGradient>
</defs>
</svg>
