<svg width="42" height="42" viewBox="0 0 42 42" fill="none" xmlns="http://www.w3.org/2000/svg">
<circle cx="21" cy="21" r="19" fill="url(#paint0_linear_4801_31767)"/>
<circle cx="20.9996" cy="21.0001" r="15.069" fill="url(#paint1_linear_4801_31767)"/>
<path d="M20.0254 24.0651V28.6784C19.889 28.709 19.6919 28.7473 19.4342 28.7932C19.1917 28.8391 18.9264 28.862 18.6383 28.862C18.0623 28.862 17.653 28.7549 17.4104 28.5407C17.183 28.3265 17.0693 27.9669 17.0693 27.462V15.9401C17.0693 15.6494 17.1451 15.4275 17.2967 15.2745C17.4483 15.1215 17.6606 14.9991 17.9334 14.9073C18.176 14.8308 18.4413 14.7619 18.7293 14.7007C19.0325 14.6395 19.3433 14.5936 19.6616 14.563C19.98 14.5171 20.2983 14.4865 20.6166 14.4712C20.935 14.4559 21.2382 14.4482 21.5262 14.4482C23.5273 14.4482 25.028 14.8843 26.0286 15.7565C27.0443 16.6134 27.5521 17.7763 27.5521 19.2452C27.5521 20.7141 27.0594 21.8847 26.074 22.7568C25.0887 23.629 23.6637 24.0651 21.7991 24.0651H20.0254ZM21.6172 21.6781C22.5267 21.6781 23.2392 21.4792 23.7547 21.0813C24.2852 20.6835 24.5505 20.0715 24.5505 19.2452C24.5505 18.4495 24.3004 17.8528 23.8001 17.4549C23.315 17.0571 22.6025 16.8582 21.6626 16.8582C21.0108 16.8582 20.4575 16.9041 20.0027 16.9959V21.6781H21.6172Z" fill="#EBA238"/>
<defs>
<linearGradient id="paint0_linear_4801_31767" x1="21" y1="2" x2="21" y2="40" gradientUnits="userSpaceOnUse">
<stop stop-color="#FFDD92"/>
<stop offset="1" stop-color="#FABF3C"/>
</linearGradient>
<linearGradient id="paint1_linear_4801_31767" x1="20.9996" y1="5.93115" x2="20.9996" y2="36.0691" gradientUnits="userSpaceOnUse">
<stop stop-color="#FBC449"/>
<stop offset="1" stop-color="#FFDC8F"/>
</linearGradient>
</defs>
</svg>
