<svg width="42" height="42" viewBox="0 0 42 42" fill="none" xmlns="http://www.w3.org/2000/svg">
<path d="M11.9463 23.9878L32.0261 4.67135L36.7475 9.57937L16.6677 28.8958L11.9463 23.9878Z" fill="#CCDBF2"/>
<path fill-rule="evenodd" clip-rule="evenodd" d="M18.8194 31.7229C18.2768 32.1345 17.5136 32.0824 17.032 31.6008L13.8885 28.4573L31.874 10.4716C32.556 9.78952 32.7071 8.83486 32.2116 8.33927C31.716 7.84368 30.7613 7.99482 30.0793 8.67686L12.0938 26.6626L8.87768 23.4464C8.39608 22.9648 8.34398 22.2016 8.75566 21.659L23.1013 2.75175C23.3542 2.41843 23.7462 2.21975 24.1645 2.21287L37.0933 2.00019C37.8634 1.98752 38.491 2.61512 38.4783 3.38525L38.2655 16.314C38.2586 16.7323 38.0599 17.1243 37.7266 17.3772L18.8194 31.7229Z" fill="#E1EBFD"/>
<path d="M11.458 24.2168L15.8845 28.6433L6.64957 37.8783L2.22305 33.4518L11.458 24.2168Z" fill="#808996"/>
<path d="M3.39082 30.8205C2.66888 30.0986 1.48375 30.4283 1.5459 31.4474C1.76441 35.0302 4.85264 38.199 8.44365 38.5251C9.54938 38.6255 9.9122 37.3419 9.12712 36.5568L3.39082 30.8205Z" fill="#E61F22"/>
<path fill-rule="evenodd" clip-rule="evenodd" d="M21.8713 34.8711C21.3394 35.403 20.477 35.403 19.9451 34.8711L5.96332 20.8893C5.4314 20.3574 5.4314 19.495 5.96332 18.9631C6.49524 18.4312 7.35765 18.4312 7.88957 18.9631L21.8713 32.9449C22.4032 33.4768 22.4032 34.3392 21.8713 34.8711Z" fill="#F0C953"/>
</svg>
