<svg width="122" height="115" viewBox="0 0 122 115" fill="none" xmlns="http://www.w3.org/2000/svg">
<path d="M52.5607 80.6833C55.35 75.9169 57.1373 68.5808 57.1373 60.3538C57.1373 59.5935 57.1217 58.8416 57.0924 58.0986H65.1653C65.136 58.8422 65.1203 59.5935 65.1203 60.3538C65.1203 68.5814 66.9076 75.9169 69.6969 80.6833H52.5607Z" fill="#F8B805"/>
<g style="mix-blend-mode:multiply" opacity="0.5">
<path d="M65.1208 60.3538C65.1208 59.5935 65.1364 58.8416 65.1658 58.0986H57.0928C57.1222 58.8422 57.1378 59.5935 57.1378 60.3538C57.1378 61.8205 57.0799 63.2584 56.9708 64.6591C56.9708 64.6591 60.8556 62.4264 65.2878 64.6591C65.1787 63.2584 65.1208 61.8205 65.1208 60.3531V60.3538Z" fill="#F8B805"/>
</g>
<g style="mix-blend-mode:screen" opacity="0.5">
<path d="M59.1059 58.0977H57.9464C57.9696 58.8413 57.9818 59.5925 57.9818 60.3528C57.9818 68.5804 56.5721 75.9159 54.3731 80.6824H56.8359C58.2334 75.9159 59.1297 68.5798 59.1297 60.3528C59.1297 59.5925 59.1209 58.8406 59.1059 58.0977Z" fill="#F8B805"/>
</g>
<g style="mix-blend-mode:multiply" opacity="0.5">
<path d="M69.6982 80.6833H65.4229C64.0255 75.9169 63.1298 68.5808 63.1298 60.3538C63.1298 59.5935 63.1379 58.8416 63.1523 58.0986H65.1659C65.1366 58.8422 65.1209 59.5935 65.1209 60.3538C65.1209 68.5814 66.9082 75.9169 69.6976 80.6833H69.6982Z" fill="#F8B805"/>
</g>
<path d="M50.0363 53.5696H50.026C43.7241 53.5472 38.8775 53.095 34.7732 52.1471C29.855 51.0115 25.945 49.1349 22.8196 46.4096C16.1202 40.5691 13.0002 30.7639 13.0002 15.5538C13.0002 14.8928 13.2879 14.2606 13.7964 13.8033C14.3049 13.3467 14.99 13.1052 15.6928 13.134C15.8905 13.1424 35.6566 13.9564 49.919 13.3428C50.6225 13.3134 51.3082 13.5542 51.8174 14.0108C52.3266 14.4675 52.6143 15.1003 52.6143 15.7619V51.1479C52.6143 51.7916 52.3416 52.409 51.8556 52.8638C51.3723 53.316 50.7179 53.5696 50.0363 53.5696ZM18.1856 18.0721C18.491 30.3912 21.0991 38.3024 26.326 42.8588C30.6464 46.6255 37.0465 48.4092 47.4589 48.6878V18.279C36.6096 18.6076 23.7057 18.2572 18.185 18.0721H18.1856Z" fill="#F8B805"/>
<g style="mix-blend-mode:multiply" opacity="0.5">
<path d="M20.5277 15.8389C19.2128 15.7998 18.1242 16.815 18.1842 18.0498C18.1842 18.0575 18.1849 18.0645 18.1856 18.0722C23.7534 18.258 36.6661 18.6064 47.4595 18.2791V15.9721C37.9387 16.2609 26.8358 16.0259 20.5284 15.8389H20.5277Z" fill="#F8B805"/>
</g>
<g style="mix-blend-mode:screen" opacity="0.5">
<path d="M47.4587 48.6872V48.0967C47.5104 48.3958 47.5137 48.5988 47.4587 48.6872Z" fill="#F8B805"/>
<path d="M18.1844 18.0487L18.2423 18.073C18.2232 18.073 18.2041 18.0718 18.185 18.0711C18.4904 30.3902 21.0985 38.3014 26.3254 42.8578C30.6458 46.6245 37.0459 48.4082 47.4583 48.6868C46.7296 49.8474 42.5742 49.2569 42.5742 49.2569C14.4229 48.9276 18.1844 18.0487 18.1844 18.0487Z" fill="#F8B805"/>
</g>
<g style="mix-blend-mode:screen" opacity="0.5">
<path d="M52.5445 51.5252V16.1392C52.5445 15.4776 52.2562 14.8448 51.7477 14.3881C51.2385 13.9314 50.5527 13.6906 49.8493 13.7201C35.5869 14.3343 15.8214 13.5202 15.6231 13.5119C14.9203 13.4831 14.2352 13.7246 13.7267 14.1812C13.3749 14.497 13.1289 14.8973 13.0109 15.3328C13.0675 14.7532 13.3443 14.2088 13.7955 13.8033C14.304 13.3467 14.9891 13.1052 15.6919 13.134C15.8896 13.1424 35.6557 13.9564 49.9181 13.3428C50.6216 13.3134 51.3073 13.5542 51.8165 14.0108C52.3257 14.4675 52.6134 15.1003 52.6134 15.7619V51.1473C52.6134 51.351 52.5861 51.5514 52.5336 51.7455C52.5405 51.6725 52.5445 51.5995 52.5445 51.5252Z" fill="#F8B805"/>
</g>
<g style="mix-blend-mode:multiply" opacity="0.5">
<path d="M45.4253 52.6351C47.7832 52.6613 49.8609 52.7894 51.6905 53.0021C51.2283 53.3659 50.6441 53.5683 50.0367 53.5683H50.0265C43.7246 53.5458 38.878 53.0937 34.7737 52.1457C29.8555 51.0102 25.9455 49.1336 22.8201 46.4083C19.3034 43.3429 16.7737 39.1843 15.163 33.7255C18.0069 41.8231 25.5297 52.4128 45.4253 52.6351Z" fill="#F8B805"/>
</g>
<path d="M70.4025 52.8638C69.9172 52.409 69.6439 51.7923 69.6439 51.1479V15.7619C69.6439 15.1003 69.9322 14.4675 70.4407 14.0108C70.9499 13.5542 71.6357 13.3134 72.3392 13.3428C86.6015 13.957 106.367 13.143 106.565 13.134C107.268 13.1052 107.953 13.3467 108.462 13.8033C108.97 14.26 109.258 14.8928 109.258 15.5538C109.258 30.7646 106.138 40.5691 99.4379 46.4096C96.3125 49.1349 92.4018 51.0115 87.4843 52.1471C83.38 53.095 78.5334 53.5472 72.2314 53.5696H72.2212C71.5396 53.5696 70.8852 53.316 70.4019 52.8638H70.4025ZM74.7993 18.2797V48.6885C85.2116 48.4099 91.6118 46.6261 95.9321 42.8595C101.159 38.3024 103.768 30.3918 104.073 18.0728C98.5517 18.2579 85.6479 18.6089 74.7986 18.2797H74.7993Z" fill="#F8B805"/>
<g style="mix-blend-mode:multiply" opacity="0.5">
<path d="M74.7984 15.9721V18.2791C85.5918 18.6064 98.5045 18.258 104.072 18.0722C104.072 18.0645 104.073 18.0569 104.074 18.0498C104.134 16.815 103.045 15.7998 101.73 15.8389C95.4227 16.0259 84.3198 16.2603 74.7991 15.9721H74.7984Z" fill="#F8B805"/>
</g>
<g style="mix-blend-mode:screen" opacity="0.5">
<path d="M74.7975 48.6882V48.0977C74.7459 48.3968 74.7426 48.5998 74.7975 48.6882Z" fill="#F8B805"/>
<path d="M104.073 18.0493L104.015 18.0737C104.034 18.0737 104.053 18.0724 104.073 18.0718C103.767 30.3908 101.159 38.302 95.9322 42.8584C91.6118 46.6251 85.2117 48.4089 74.7993 48.6875C75.528 49.848 79.6834 49.2575 79.6834 49.2575C107.835 48.9276 104.074 18.0487 104.074 18.0487L104.073 18.0493Z" fill="#F8B805"/>
</g>
<g style="mix-blend-mode:screen" opacity="0.5">
<path d="M69.7127 51.5264V16.1404C69.7127 15.4788 70.0011 14.846 70.5096 14.3893C71.0188 13.9326 71.7045 13.6918 72.408 13.7213C86.6704 14.3355 106.436 13.5215 106.634 13.5131C107.337 13.4843 108.022 13.7258 108.531 14.1824C108.882 14.4982 109.128 14.8985 109.246 15.334C109.19 14.7544 108.913 14.21 108.462 13.8046C107.953 13.3479 107.268 13.1064 106.565 13.1352C106.368 13.1436 86.6015 13.9576 72.3392 13.344C71.6357 13.3146 70.9499 13.5554 70.4407 14.0121C69.9315 14.4687 69.6439 15.1015 69.6439 15.7631V51.1485C69.6439 51.3522 69.6711 51.5527 69.7236 51.7467C69.7168 51.6737 69.7127 51.6007 69.7127 51.5264Z" fill="#F8B805"/>
</g>
<g style="mix-blend-mode:multiply" opacity="0.5">
<path d="M76.8328 52.6351C74.4749 52.6613 72.3972 52.7894 70.5676 53.0021C71.0298 53.3659 71.614 53.5683 72.2213 53.5683H72.2316C78.5335 53.5458 83.3801 53.0937 87.4844 52.1457C92.4026 51.0102 96.3126 49.1336 99.438 46.4083C102.955 43.3429 105.484 39.1843 107.095 33.7255C104.251 41.8231 96.7284 52.4128 76.8328 52.6351Z" fill="#F8B805"/>
</g>
<path d="M31.938 6C31.2339 9.78973 30.8569 13.7799 30.8569 17.9008C30.8569 42.6311 44.4036 62.6789 61.1138 62.6789C77.8241 62.6789 91.3707 42.6311 91.3707 17.9008C91.3707 13.7799 90.9944 9.78973 90.2896 6H31.938V6Z" fill="#F8B805"/>
<path d="M31.938 6C31.2339 9.78973 30.8569 13.7799 30.8569 17.9008C30.8569 42.6311 44.4036 62.6789 61.1138 62.6789C77.8241 62.6789 91.3707 42.6311 91.3707 17.9008C91.3707 13.7799 90.9944 9.78973 90.2896 6H31.938V6Z" fill="#F8B805"/>
<g style="mix-blend-mode:multiply" opacity="0.5">
<path d="M90.2894 6H79.3835C79.8245 9.78973 80.0604 13.7799 80.0604 17.9008C80.0604 42.6311 71.5778 62.6789 61.1136 62.6789C77.8238 62.6789 91.3705 42.6311 91.3705 17.9008C91.3705 13.7799 90.9942 9.78973 90.2894 6V6Z" fill="#F8B805"/>
</g>
<g style="mix-blend-mode:multiply" opacity="0.5">
<path d="M61.7995 20.9999L65.7641 28.5486L74.6304 29.7591L68.2147 35.6349L69.7293 43.9317L61.7995 40.0145L53.8691 43.9317L55.3837 35.6349L48.968 29.7591L57.8343 28.5486L61.7995 20.9999Z" fill="#F7A108"/>
</g>
<g style="mix-blend-mode:screen" opacity="0.5">
<path d="M42.1667 17.9008C42.1667 13.7799 42.4026 9.78973 42.8436 6H35.3822C34.7612 9.78973 34.4292 13.7799 34.4292 17.9008C34.4292 42.6311 46.376 62.6789 61.1135 62.6789C50.6493 62.6789 42.1667 42.6311 42.1667 17.9008Z" fill="#F8B805"/>
</g>
<path d="M45.4541 13.7426C41.9409 13.7426 39.0929 11.0667 39.0929 7.76562C39.0929 11.0667 36.2449 13.7426 32.7316 13.7426C36.2449 13.7426 39.0929 16.4185 39.0929 19.7196C39.0929 16.4185 41.9409 13.7426 45.4541 13.7426Z" fill="white"/>
<path d="M47.9758 19.7188C46.5832 19.7188 45.4544 18.6581 45.4544 17.3496C45.4544 18.6581 44.3256 19.7188 42.9329 19.7188C44.3256 19.7188 45.4544 20.7794 45.4544 22.0879C45.4544 20.7794 46.5832 19.7188 47.9758 19.7188Z" fill="white"/>
<g style="mix-blend-mode:screen" opacity="0.5">
<path d="M60.6947 6.88323C76.5767 6.88323 89.4512 6.48805 89.4512 6H31.9381C31.9381 6.48741 44.8126 6.88323 60.6947 6.88323Z" fill="#F8B805"/>
</g>
<path d="M73.3508 80.6826H48.9065C45.6788 80.6826 43.0619 83.1414 43.0619 86.1741H79.1954C79.1954 83.1414 76.5785 80.6826 73.3508 80.6826Z" fill="#F8B805"/>
<g style="mix-blend-mode:screen" opacity="0.5">
<path d="M48.9074 81.0951H73.3518C76.4315 81.0951 78.9537 83.3342 79.178 86.1741H79.1964C79.1964 83.1414 76.5795 80.6826 73.3518 80.6826H48.9074C45.6798 80.6826 43.0629 83.1414 43.0629 86.1741H43.0813C43.3055 83.3342 45.8277 81.0951 48.9074 81.0951Z" fill="#F8B805"/>
</g>
<g style="mix-blend-mode:multiply" opacity="0.5">
<path d="M79.1946 86.1735H72.6582C72.6582 83.1408 70.9888 80.6826 68.9288 80.6826H73.3508C76.5784 80.6826 79.1946 83.1414 79.1946 86.1735Z" fill="#F8B805"/>
</g>
<g style="mix-blend-mode:screen" opacity="0.5">
<path d="M56.1238 80.6826H51.299C48.0713 80.6826 45.4544 83.1414 45.4544 86.1741H50.2792C50.2792 83.1414 52.8961 80.6826 56.1238 80.6826Z" fill="#F8B805"/>
</g>
<path d="M88.6344 86.1748H33.6236C33.3247 86.1748 33.0824 86.4025 33.0824 86.6833V106.761C33.0824 107.042 33.3247 107.27 33.6236 107.27H88.6344C88.9333 107.27 89.1756 107.042 89.1756 106.761V86.6833C89.1756 86.4025 88.9333 86.1748 88.6344 86.1748Z" fill="#44352A"/>
<g style="mix-blend-mode:multiply" opacity="0.3">
<path d="M88.6344 103.644H33.6236C33.3251 103.644 33.0824 103.417 33.0824 103.136V106.762C33.0824 107.042 33.3244 107.27 33.6236 107.27H88.635C88.9336 107.27 89.1763 107.043 89.1763 106.762V103.136C89.1763 103.416 88.9343 103.644 88.635 103.644H88.6344Z" fill="#44352A"/>
</g>
<g style="mix-blend-mode:screen" opacity="0.3">
<path d="M88.6344 86.1748H33.6236C33.3251 86.1748 33.0824 86.4022 33.0824 86.6833V87.3424C33.0824 87.0619 33.3244 86.8339 33.6236 86.8339H88.635C88.9336 86.8339 89.1763 87.0612 89.1763 87.3424V86.6833C89.1763 86.4028 88.9343 86.1748 88.635 86.1748H88.6344Z" fill="#44352A"/>
</g>
<path d="M92.8085 104.549H29.4488C29.0723 104.549 28.7671 104.836 28.7671 105.189V108.358C28.7671 108.712 29.0723 108.998 29.4488 108.998H92.8085C93.1849 108.998 93.4901 108.712 93.4901 108.358V105.189C93.4901 104.836 93.1849 104.549 92.8085 104.549Z" fill="#44352A"/>
<g style="mix-blend-mode:multiply" opacity="0.3">
<path d="M92.8085 108.425H29.4488C29.0725 108.425 28.7671 108.138 28.7671 107.784V108.359C28.7671 108.713 29.0725 109 29.4488 109H92.8092C93.1854 109 93.4908 108.713 93.4908 108.359V107.784C93.4908 108.138 93.1854 108.425 92.8092 108.425H92.8085Z" fill="#44352A"/>
</g>
<g style="mix-blend-mode:screen" opacity="0.3">
<path d="M92.8085 104.549H29.4488C29.0725 104.549 28.7671 104.836 28.7671 105.189V105.782C28.7671 105.428 29.0725 105.141 29.4488 105.141H92.8092C93.1854 105.141 93.4908 105.428 93.4908 105.782V105.189C93.4908 104.836 93.1854 104.549 92.8092 104.549H92.8085Z" fill="#44352A"/>
</g>
<g style="mix-blend-mode:multiply" opacity="0.3">
<path d="M92.8086 104.549H74.7426C75.1188 104.549 75.4242 104.836 75.4242 105.189V108.358C75.4242 108.712 75.1188 108.999 74.7426 108.999H92.8086C93.1849 108.999 93.4903 108.712 93.4903 108.358V105.189C93.4903 104.836 93.1849 104.549 92.8086 104.549Z" fill="#44352A"/>
</g>
<g style="mix-blend-mode:screen" opacity="0.3">
<path d="M43.881 108.358V105.189C43.881 104.836 44.1864 104.549 44.5627 104.549H34.7345C34.3582 104.549 34.0529 104.836 34.0529 105.189V108.358C34.0529 108.712 34.3582 108.999 34.7345 108.999H44.5627C44.1864 108.999 43.881 108.712 43.881 108.358Z" fill="#44352A"/>
</g>
<path d="M84.1034 89.2852H38.0606V102.031H84.1034V89.2852Z" fill="#EFCA6F"/>
<g style="mix-blend-mode:multiply" opacity="0.5">
<path d="M38.1036 101.741V89.2852H38.0606V102.031H84.1027V101.741H38.1036Z" fill="#EFCA6F"/>
</g>
<g style="mix-blend-mode:screen" opacity="0.5">
<path d="M84.1034 89.2852H38.0606V89.508H84.1034V89.2852Z" fill="#EFCA6F"/>
</g>
<g style="mix-blend-mode:multiply" opacity="0.5">
<path d="M43.0629 86.1745H79.1957C79.1957 85.8369 79.1616 85.5064 79.0996 85.1855H43.159C43.0969 85.5064 43.0629 85.8363 43.0629 86.1745Z" fill="#F8B805"/>
</g>
<g style="mix-blend-mode:multiply" opacity="0.3">
<path d="M70.8456 89.2852C68.7549 94.4033 64.4066 98.8424 58.6132 102.031H84.1025V89.2852H70.8456Z" fill="#EFCA6F"/>
</g>
<path d="M39.8144 91.5302C40.2503 91.5302 40.6038 91.1982 40.6038 90.7886C40.6038 90.3789 40.2503 90.0469 39.8144 90.0469C39.3784 90.0469 39.025 90.3789 39.025 90.7886C39.025 91.1982 39.3784 91.5302 39.8144 91.5302Z" fill="#44352A"/>
<path d="M39.8144 101.091C40.2503 101.091 40.6038 100.759 40.6038 100.349C40.6038 99.9395 40.2503 99.6074 39.8144 99.6074C39.3784 99.6074 39.025 99.9395 39.025 100.349C39.025 100.759 39.3784 101.091 39.8144 101.091Z" fill="#44352A"/>
<path d="M82.3491 91.5302C82.7851 91.5302 83.1385 91.1982 83.1385 90.7886C83.1385 90.3789 82.7851 90.0469 82.3491 90.0469C81.9132 90.0469 81.5598 90.3789 81.5598 90.7886C81.5598 91.1982 81.9132 91.5302 82.3491 91.5302Z" fill="#44352A"/>
<path d="M82.3491 101.091C82.7851 101.091 83.1385 100.759 83.1385 100.349C83.1385 99.9395 82.7851 99.6074 82.3491 99.6074C81.9132 99.6074 81.5598 99.9395 81.5598 100.349C81.5598 100.759 81.9132 101.091 82.3491 101.091Z" fill="#44352A"/>
</svg>
