<svg width="80" height="80" viewBox="0 0 80 80" fill="none" xmlns="http://www.w3.org/2000/svg">
<path d="M34.7254 54.1303C36.4688 51.1223 37.5858 46.4927 37.5858 41.301C37.5858 40.8212 37.576 40.3467 37.5577 39.8778H42.6033C42.585 40.3471 42.5752 40.8212 42.5752 41.301C42.5752 46.4932 43.6922 51.1223 45.4356 54.1303H34.7254Z" fill="#F8B805"/>
<g style="mix-blend-mode:multiply" opacity="0.5">
<path d="M42.5755 41.301C42.5755 40.8212 42.5853 40.3467 42.6036 39.8778H37.558C37.5763 40.3471 37.5861 40.8212 37.5861 41.301C37.5861 42.2265 37.5499 43.1339 37.4818 44.0179C37.4818 44.0179 39.9097 42.6089 42.6798 44.0179C42.6117 43.1339 42.5755 42.2265 42.5755 41.3005V41.301Z" fill="#F8B805"/>
</g>
<g style="mix-blend-mode:screen" opacity="0.5">
<path d="M38.8162 39.8772H38.0915C38.106 40.3465 38.1137 40.8206 38.1137 41.3003C38.1137 46.4925 37.2326 51.1217 35.8582 54.1297H37.3975C38.2709 51.1217 38.8311 46.4921 38.8311 41.3003C38.8311 40.8206 38.8256 40.3461 38.8162 39.8772Z" fill="#F8B805"/>
</g>
<g style="mix-blend-mode:multiply" opacity="0.5">
<path d="M45.4364 54.1303H42.7643C41.8909 51.1223 41.3311 46.4927 41.3311 41.301C41.3311 40.8212 41.3362 40.3467 41.3452 39.8778H42.6037C42.5854 40.3471 42.5756 40.8212 42.5756 41.301C42.5756 46.4932 43.6926 51.1223 45.436 54.1303H45.4364Z" fill="#F8B805"/>
</g>
<path d="M33.1476 37.0197H33.1412C29.2025 37.0055 26.1734 36.7202 23.6082 36.122C20.5343 35.4053 18.0906 34.2211 16.1372 32.5012C11.9501 28.8155 10.0001 22.6277 10.0001 13.0291C10.0001 12.612 10.1799 12.213 10.4977 11.9244C10.8156 11.6363 11.2437 11.4839 11.683 11.5021C11.8065 11.5073 24.1604 12.021 33.0743 11.6338C33.514 11.6152 33.9426 11.7672 34.2609 12.0554C34.5791 12.3436 34.7589 12.7429 34.7589 13.1605V35.4914C34.7589 35.8976 34.5885 36.2873 34.2847 36.5743C33.9827 36.8596 33.5737 37.0197 33.1476 37.0197ZM13.241 14.6184C13.4319 22.3925 15.0619 27.385 18.3287 30.2604C21.029 32.6375 25.029 33.7631 31.5368 33.9389V14.7489C24.756 14.9563 16.6911 14.7352 13.2406 14.6184H13.241Z" fill="#F8B805"/>
<g style="mix-blend-mode:multiply" opacity="0.5">
<path d="M14.7048 13.2091C13.883 13.1844 13.2026 13.825 13.2401 14.6043C13.2401 14.6092 13.2406 14.6136 13.241 14.6185C16.7209 14.7357 24.7913 14.9556 31.5372 14.749V13.2931C25.5867 13.4754 18.6474 13.3271 14.7053 13.2091H14.7048Z" fill="#F8B805"/>
</g>
<g style="mix-blend-mode:screen" opacity="0.5">
<path d="M31.5366 33.9385V33.5658C31.5689 33.7546 31.571 33.8827 31.5366 33.9385Z" fill="#F8B805"/>
<path d="M13.2402 14.6035L13.2764 14.6189C13.2644 14.6189 13.2525 14.6181 13.2406 14.6177C13.4315 22.3918 15.0615 27.3843 18.3283 30.2597C21.0286 32.6368 25.0286 33.7624 31.5364 33.9382C31.0809 34.6706 28.4838 34.298 28.4838 34.298C10.8893 34.0902 13.2402 14.6035 13.2402 14.6035Z" fill="#F8B805"/>
</g>
<g style="mix-blend-mode:screen" opacity="0.5">
<path d="M34.7153 35.7295V13.3985C34.7153 12.981 34.5351 12.5817 34.2172 12.2935C33.899 12.0053 33.4704 11.8533 33.0307 11.8719C24.1167 12.2595 11.7633 11.7458 11.6394 11.7405C11.2001 11.7224 10.7719 11.8747 10.4541 12.1629C10.2343 12.3622 10.0805 12.6148 10.0068 12.8896C10.0421 12.5239 10.2151 12.1803 10.4971 11.9244C10.815 11.6363 11.2431 11.4839 11.6824 11.5021C11.8059 11.5073 24.1598 12.021 33.0738 11.6338C33.5134 11.6152 33.942 11.7672 34.2603 12.0554C34.5785 12.3436 34.7583 12.7429 34.7583 13.1605V35.491C34.7583 35.6196 34.7413 35.7461 34.7085 35.8685C34.7127 35.8225 34.7153 35.7764 34.7153 35.7295Z" fill="#F8B805"/>
</g>
<g style="mix-blend-mode:multiply" opacity="0.5">
<path d="M30.2658 36.43C31.7394 36.4465 33.038 36.5274 34.1815 36.6616C33.8926 36.8911 33.5275 37.0189 33.1479 37.0189H33.1415C29.2028 37.0047 26.1737 36.7194 23.6085 36.1212C20.5346 35.4045 18.0909 34.2203 16.1375 32.5004C13.9396 30.566 12.3585 27.9416 11.3518 24.4967C13.1292 29.6069 17.831 36.2897 30.2658 36.43Z" fill="#F8B805"/>
</g>
<path d="M45.8766 36.5743C45.5732 36.2873 45.4024 35.898 45.4024 35.4914V13.1605C45.4024 12.7429 45.5826 12.3436 45.9004 12.0554C46.2187 11.7672 46.6473 11.6152 47.087 11.6338C56.001 12.0215 68.3544 11.5077 68.4783 11.5021C68.9176 11.4839 69.3458 11.6363 69.6636 11.9244C69.9814 12.2126 70.1612 12.612 70.1612 13.0291C70.1612 22.6282 68.2112 28.8155 64.0237 32.5012C62.0703 34.2211 59.6261 35.4053 56.5527 36.122C53.9875 36.7202 50.9584 37.0055 47.0196 37.0197H47.0133C46.5872 37.0197 46.1782 36.8596 45.8762 36.5743H45.8766ZM48.6245 14.7493V33.9394C55.1323 33.7635 59.1323 32.6379 61.8326 30.2608C65.0994 27.385 66.7299 22.3929 66.9203 14.6188C63.4698 14.7356 55.4049 14.9571 48.6241 14.7493H48.6245Z" fill="#F8B805"/>
<g style="mix-blend-mode:multiply" opacity="0.5">
<path d="M48.624 13.2931V14.749C55.3699 14.9556 63.4403 14.7357 66.9202 14.6185C66.9202 14.6136 66.9206 14.6088 66.921 14.6043C66.9585 13.825 66.2781 13.1844 65.4563 13.2091C61.5142 13.3271 54.5749 13.475 48.6244 13.2931H48.624Z" fill="#F8B805"/>
</g>
<g style="mix-blend-mode:screen" opacity="0.5">
<path d="M48.6234 33.9391V33.5664C48.5912 33.7552 48.5891 33.8833 48.6234 33.9391Z" fill="#F8B805"/>
<path d="M66.9208 14.6039L66.8846 14.6193C66.8965 14.6193 66.9084 14.6185 66.9204 14.6181C66.7295 22.3922 65.0995 27.3847 61.8326 30.2601C59.1324 32.6372 55.1323 33.7628 48.6246 33.9387C49.08 34.671 51.6771 34.2984 51.6771 34.2984C69.2721 34.0902 66.9212 14.6035 66.9212 14.6035L66.9208 14.6039Z" fill="#F8B805"/>
</g>
<g style="mix-blend-mode:screen" opacity="0.5">
<path d="M45.4454 35.7302V13.3993C45.4454 12.9817 45.6256 12.5824 45.9435 12.2942C46.2617 12.006 46.6903 11.854 47.13 11.8726C56.044 12.2603 68.3974 11.7465 68.5214 11.7413C68.9606 11.7231 69.3888 11.8755 69.7066 12.1637C69.9264 12.3629 70.0802 12.6155 70.1539 12.8904C70.1186 12.5246 69.9456 12.181 69.6636 11.9252C69.3458 11.637 68.9176 11.4846 68.4783 11.5028C68.3548 11.5081 56.001 12.0218 47.087 11.6346C46.6473 11.616 46.2187 11.7679 45.9004 12.0561C45.5822 12.3443 45.4024 12.7437 45.4024 13.1612V35.4918C45.4024 35.6203 45.4194 35.7468 45.4523 35.8693C45.448 35.8232 45.4454 35.7771 45.4454 35.7302Z" fill="#F8B805"/>
</g>
<g style="mix-blend-mode:multiply" opacity="0.5">
<path d="M49.8955 36.43C48.4218 36.4465 47.1233 36.5274 45.9798 36.6616C46.2687 36.8911 46.6338 37.0189 47.0134 37.0189H47.0198C50.9585 37.0047 53.9876 36.7194 56.5528 36.1212C59.6266 35.4045 62.0704 34.2203 64.0238 32.5004C66.2217 30.566 67.8027 27.9416 68.8095 24.4967C67.032 29.6069 62.3303 36.2897 49.8955 36.43Z" fill="#F8B805"/>
</g>
<path d="M21.8363 7C21.3962 9.39158 21.1606 11.9097 21.1606 14.5102C21.1606 30.1167 29.6272 42.7682 40.0711 42.7682C50.515 42.7682 58.9817 30.1167 58.9817 14.5102C58.9817 11.9097 58.7465 9.39158 58.306 7H21.8363V7Z" fill="#F8B805"/>
<path d="M21.8363 7C21.3962 9.39158 21.1606 11.9097 21.1606 14.5102C21.1606 30.1167 29.6272 42.7682 40.0711 42.7682C50.515 42.7682 58.9817 30.1167 58.9817 14.5102C58.9817 11.9097 58.7465 9.39158 58.306 7H21.8363V7Z" fill="#F8B805"/>
<g style="mix-blend-mode:multiply" opacity="0.5">
<path d="M58.3058 7H51.4897C51.7653 9.39158 51.9127 11.9097 51.9127 14.5102C51.9127 30.1167 46.6111 42.7682 40.071 42.7682C50.5149 42.7682 58.9815 30.1167 58.9815 14.5102C58.9815 11.9097 58.7464 9.39158 58.3058 7V7Z" fill="#F8B805"/>
</g>
<g style="mix-blend-mode:multiply" opacity="0.5">
<path d="M40.4997 16.4659L42.9776 21.2297L48.519 21.9936L44.5092 25.7016L45.4558 30.9375L40.4997 28.4655L35.5432 30.9375L36.4899 25.7016L32.48 21.9936L38.0215 21.2297L40.4997 16.4659Z" fill="#F7A108"/>
</g>
<g style="mix-blend-mode:screen" opacity="0.5">
<path d="M28.2292 14.5102C28.2292 11.9097 28.3766 9.39158 28.6523 7H23.9889C23.6007 9.39158 23.3932 11.9097 23.3932 14.5102C23.3932 30.1167 30.86 42.7682 40.0709 42.7682C33.5308 42.7682 28.2292 30.1167 28.2292 14.5102Z" fill="#F8B805"/>
</g>
<path d="M30.2839 11.8861C28.0881 11.8861 26.3081 10.1974 26.3081 8.11426C26.3081 10.1974 24.5281 11.8861 22.3323 11.8861C24.5281 11.8861 26.3081 13.5748 26.3081 15.658C26.3081 13.5748 28.0881 11.8861 30.2839 11.8861Z" fill="white"/>
<path d="M31.8599 15.6574C30.9895 15.6574 30.284 14.9881 30.284 14.1624C30.284 14.9881 29.5785 15.6574 28.7081 15.6574C29.5785 15.6574 30.284 16.3268 30.284 17.1525C30.284 16.3268 30.9895 15.6574 31.8599 15.6574Z" fill="white"/>
<g style="mix-blend-mode:screen" opacity="0.5">
<path d="M39.8091 7.55738C49.7354 7.55738 57.782 7.30799 57.782 7H21.8363C21.8363 7.30759 29.8829 7.55738 39.8091 7.55738Z" fill="#F8B805"/>
</g>
<path d="M47.7193 54.1298H32.4415C30.4243 54.1298 28.7887 55.6814 28.7887 57.5953H51.3721C51.3721 55.6814 49.7366 54.1298 47.7193 54.1298Z" fill="#F8B805"/>
<g style="mix-blend-mode:screen" opacity="0.5">
<path d="M32.4422 54.3901H47.7199C49.6447 54.3901 51.2211 55.8031 51.3612 57.5953H51.3727C51.3727 55.6814 49.7372 54.1298 47.7199 54.1298H32.4422C30.4249 54.1298 28.7893 55.6814 28.7893 57.5953H28.8008C28.941 55.8031 30.5173 54.3901 32.4422 54.3901Z" fill="#F8B805"/>
</g>
<g style="mix-blend-mode:multiply" opacity="0.5">
<path d="M51.3717 57.5949H47.2864C47.2864 55.681 46.2431 54.1298 44.9556 54.1298H47.7193C49.7366 54.1298 51.3717 55.6814 51.3717 57.5949Z" fill="#F8B805"/>
</g>
<g style="mix-blend-mode:screen" opacity="0.5">
<path d="M36.9523 54.1298H33.9368C31.9196 54.1298 30.284 55.6814 30.284 57.5953H33.2995C33.2995 55.6814 34.9351 54.1298 36.9523 54.1298Z" fill="#F8B805"/>
</g>
<path d="M57.2715 57.5957H22.8898C22.703 57.5957 22.5515 57.7394 22.5515 57.9166V70.5871C22.5515 70.7644 22.703 70.908 22.8898 70.908H57.2715C57.4583 70.908 57.6098 70.7644 57.6098 70.5871V57.9166C57.6098 57.7394 57.4583 57.5957 57.2715 57.5957Z" fill="#44352A"/>
<g style="mix-blend-mode:multiply" opacity="0.3">
<path d="M57.2715 68.6202H22.8898C22.7032 68.6202 22.5515 68.4768 22.5515 68.2993V70.5874C22.5515 70.7645 22.7028 70.9084 22.8898 70.9084H57.2719C57.4585 70.9084 57.6102 70.7649 57.6102 70.5874V68.2993C57.6102 68.4764 57.459 68.6202 57.2719 68.6202H57.2715Z" fill="#44352A"/>
</g>
<g style="mix-blend-mode:screen" opacity="0.3">
<path d="M57.2715 57.5957H22.8898C22.7032 57.5957 22.5515 57.7392 22.5515 57.9166V58.3325C22.5515 58.1555 22.7028 58.0116 22.8898 58.0116H57.2719C57.4585 58.0116 57.6102 58.1551 57.6102 58.3325V57.9166C57.6102 57.7396 57.459 57.5957 57.2719 57.5957H57.2715Z" fill="#44352A"/>
</g>
<path d="M59.8803 69.191H20.2805C20.0452 69.191 19.8544 69.372 19.8544 69.5952V71.5947C19.8544 71.818 20.0452 71.9989 20.2805 71.9989H59.8803C60.1156 71.9989 60.3063 71.818 60.3063 71.5947V69.5952C60.3063 69.372 60.1156 69.191 59.8803 69.191Z" fill="#44352A"/>
<g style="mix-blend-mode:multiply" opacity="0.3">
<path d="M59.8803 71.637H20.2805C20.0453 71.637 19.8544 71.4559 19.8544 71.2328V71.5957C19.8544 71.8189 20.0453 71.9999 20.2805 71.9999H59.8807C60.1159 71.9999 60.3068 71.8189 60.3068 71.5957V71.2328C60.3068 71.4559 60.1159 71.637 59.8807 71.637H59.8803Z" fill="#44352A"/>
</g>
<g style="mix-blend-mode:screen" opacity="0.3">
<path d="M59.8803 69.191H20.2805C20.0453 69.191 19.8544 69.3721 19.8544 69.5952V69.9691C19.8544 69.746 20.0453 69.5649 20.2805 69.5649H59.8807C60.1159 69.5649 60.3068 69.746 60.3068 69.9691V69.5952C60.3068 69.3721 60.1159 69.191 59.8807 69.191H59.8803Z" fill="#44352A"/>
</g>
<g style="mix-blend-mode:multiply" opacity="0.3">
<path d="M59.8804 69.191H48.5891C48.8243 69.191 49.0151 69.3721 49.0151 69.5952V71.5952C49.0151 71.8183 48.8243 71.9993 48.5891 71.9993H59.8804C60.1156 71.9993 60.3064 71.8183 60.3064 71.5952V69.5952C60.3064 69.3721 60.1156 69.191 59.8804 69.191Z" fill="#44352A"/>
</g>
<g style="mix-blend-mode:screen" opacity="0.3">
<path d="M29.3006 71.5952V69.5952C29.3006 69.3721 29.4915 69.191 29.7267 69.191H23.5841C23.3489 69.191 23.158 69.3721 23.158 69.5952V71.5952C23.158 71.8183 23.3489 71.9993 23.5841 71.9993H29.7267C29.4915 71.9993 29.3006 71.8183 29.3006 71.5952Z" fill="#44352A"/>
</g>
<path d="M54.4396 59.5586H25.6629V67.6019H54.4396V59.5586Z" fill="#EFCA6F"/>
<g style="mix-blend-mode:multiply" opacity="0.5">
<path d="M25.6897 67.4192V59.5586H25.6629V67.6019H54.4392V67.4192H25.6897Z" fill="#EFCA6F"/>
</g>
<g style="mix-blend-mode:screen" opacity="0.5">
<path d="M54.4396 59.5586H25.6629V59.6993H54.4396V59.5586Z" fill="#EFCA6F"/>
</g>
<g style="mix-blend-mode:multiply" opacity="0.5">
<path d="M28.7893 57.5955H51.3723C51.3723 57.3825 51.351 57.1739 51.3122 56.9714H28.8494C28.8106 57.1739 28.7893 57.3821 28.7893 57.5955Z" fill="#F8B805"/>
</g>
<g style="mix-blend-mode:multiply" opacity="0.3">
<path d="M46.1535 59.5586C44.8468 62.7885 42.1291 65.5899 38.5082 67.6019H54.4391V59.5586H46.1535Z" fill="#EFCA6F"/>
</g>
<path d="M26.759 60.9754C27.0314 60.9754 27.2523 60.7659 27.2523 60.5074C27.2523 60.2489 27.0314 60.0393 26.759 60.0393C26.4865 60.0393 26.2656 60.2489 26.2656 60.5074C26.2656 60.7659 26.4865 60.9754 26.759 60.9754Z" fill="#44352A"/>
<path d="M26.759 67.0087C27.0314 67.0087 27.2523 66.7992 27.2523 66.5407C27.2523 66.2822 27.0314 66.0726 26.759 66.0726C26.4865 66.0726 26.2656 66.2822 26.2656 66.5407C26.2656 66.7992 26.4865 67.0087 26.759 67.0087Z" fill="#44352A"/>
<path d="M53.3432 60.9754C53.6157 60.9754 53.8366 60.7659 53.8366 60.5074C53.8366 60.2489 53.6157 60.0393 53.3432 60.0393C53.0707 60.0393 52.8499 60.2489 52.8499 60.5074C52.8499 60.7659 53.0707 60.9754 53.3432 60.9754Z" fill="#44352A"/>
<path d="M53.3432 67.0087C53.6157 67.0087 53.8366 66.7992 53.8366 66.5407C53.8366 66.2822 53.6157 66.0726 53.3432 66.0726C53.0707 66.0726 52.8499 66.2822 52.8499 66.5407C52.8499 66.7992 53.0707 67.0087 53.3432 67.0087Z" fill="#44352A"/>
<path d="M34.7254 54.1303C36.4688 51.1223 37.5858 46.4927 37.5858 41.301C37.5858 40.8212 37.576 40.3467 37.5577 39.8778H42.6033C42.585 40.3471 42.5752 40.8212 42.5752 41.301C42.5752 46.4932 43.6922 51.1223 45.4356 54.1303H34.7254Z" fill="#F8B805"/>
<g style="mix-blend-mode:multiply" opacity="0.5">
<path d="M42.5755 41.301C42.5755 40.8212 42.5853 40.3467 42.6036 39.8778H37.558C37.5763 40.3471 37.5861 40.8212 37.5861 41.301C37.5861 42.2265 37.5499 43.1339 37.4818 44.0179C37.4818 44.0179 39.9097 42.6089 42.6798 44.0179C42.6117 43.1339 42.5755 42.2265 42.5755 41.3005V41.301Z" fill="#F8B805"/>
</g>
<g style="mix-blend-mode:screen" opacity="0.5">
<path d="M38.8162 39.8772H38.0915C38.106 40.3465 38.1137 40.8206 38.1137 41.3003C38.1137 46.4925 37.2326 51.1217 35.8582 54.1297H37.3975C38.2709 51.1217 38.8311 46.4921 38.8311 41.3003C38.8311 40.8206 38.8256 40.3461 38.8162 39.8772Z" fill="#F8B805"/>
</g>
<g style="mix-blend-mode:multiply" opacity="0.5">
<path d="M45.4364 54.1303H42.7643C41.8909 51.1223 41.3311 46.4927 41.3311 41.301C41.3311 40.8212 41.3362 40.3467 41.3452 39.8778H42.6037C42.5854 40.3471 42.5756 40.8212 42.5756 41.301C42.5756 46.4932 43.6926 51.1223 45.436 54.1303H45.4364Z" fill="#F8B805"/>
</g>
<path d="M33.1476 37.0197H33.1412C29.2025 37.0055 26.1734 36.7202 23.6082 36.122C20.5343 35.4053 18.0906 34.2211 16.1372 32.5012C11.9501 28.8155 10.0001 22.6277 10.0001 13.0291C10.0001 12.612 10.1799 12.213 10.4977 11.9244C10.8156 11.6363 11.2437 11.4839 11.683 11.5021C11.8065 11.5073 24.1604 12.021 33.0743 11.6338C33.514 11.6152 33.9426 11.7672 34.2609 12.0554C34.5791 12.3436 34.7589 12.7429 34.7589 13.1605V35.4914C34.7589 35.8976 34.5885 36.2873 34.2847 36.5743C33.9827 36.8596 33.5737 37.0197 33.1476 37.0197ZM13.241 14.6184C13.4319 22.3925 15.0619 27.385 18.3287 30.2604C21.029 32.6375 25.029 33.7631 31.5368 33.9389V14.7489C24.756 14.9563 16.6911 14.7352 13.2406 14.6184H13.241Z" fill="#F8B805"/>
<g style="mix-blend-mode:multiply" opacity="0.5">
<path d="M14.7048 13.2091C13.883 13.1844 13.2026 13.825 13.2401 14.6043C13.2401 14.6092 13.2406 14.6136 13.241 14.6185C16.7209 14.7357 24.7913 14.9556 31.5372 14.749V13.2931C25.5867 13.4754 18.6474 13.3271 14.7053 13.2091H14.7048Z" fill="#F8B805"/>
</g>
<g style="mix-blend-mode:screen" opacity="0.5">
<path d="M31.5366 33.9385V33.5658C31.5689 33.7546 31.571 33.8827 31.5366 33.9385Z" fill="#F8B805"/>
<path d="M13.2402 14.6035L13.2764 14.6189C13.2644 14.6189 13.2525 14.6181 13.2406 14.6177C13.4315 22.3918 15.0615 27.3843 18.3283 30.2597C21.0286 32.6368 25.0286 33.7624 31.5364 33.9382C31.0809 34.6706 28.4838 34.298 28.4838 34.298C10.8893 34.0902 13.2402 14.6035 13.2402 14.6035Z" fill="#F8B805"/>
</g>
<g style="mix-blend-mode:screen" opacity="0.5">
<path d="M34.7153 35.7295V13.3985C34.7153 12.981 34.5351 12.5817 34.2172 12.2935C33.899 12.0053 33.4704 11.8533 33.0307 11.8719C24.1167 12.2595 11.7633 11.7458 11.6394 11.7405C11.2001 11.7224 10.7719 11.8747 10.4541 12.1629C10.2343 12.3622 10.0805 12.6148 10.0068 12.8896C10.0421 12.5239 10.2151 12.1803 10.4971 11.9244C10.815 11.6363 11.2431 11.4839 11.6824 11.5021C11.8059 11.5073 24.1598 12.021 33.0738 11.6338C33.5134 11.6152 33.942 11.7672 34.2603 12.0554C34.5785 12.3436 34.7583 12.7429 34.7583 13.1605V35.491C34.7583 35.6196 34.7413 35.7461 34.7085 35.8685C34.7127 35.8225 34.7153 35.7764 34.7153 35.7295Z" fill="#F8B805"/>
</g>
<g style="mix-blend-mode:multiply" opacity="0.5">
<path d="M30.2658 36.43C31.7394 36.4465 33.038 36.5274 34.1815 36.6616C33.8926 36.8911 33.5275 37.0189 33.1479 37.0189H33.1415C29.2028 37.0047 26.1737 36.7194 23.6085 36.1212C20.5346 35.4045 18.0909 34.2203 16.1375 32.5004C13.9396 30.566 12.3585 27.9416 11.3518 24.4967C13.1292 29.6069 17.831 36.2897 30.2658 36.43Z" fill="#F8B805"/>
</g>
<path d="M45.8766 36.5743C45.5732 36.2873 45.4024 35.898 45.4024 35.4914V13.1605C45.4024 12.7429 45.5826 12.3436 45.9004 12.0554C46.2187 11.7672 46.6473 11.6152 47.087 11.6338C56.001 12.0215 68.3544 11.5077 68.4783 11.5021C68.9176 11.4839 69.3458 11.6363 69.6636 11.9244C69.9814 12.2126 70.1612 12.612 70.1612 13.0291C70.1612 22.6282 68.2112 28.8155 64.0237 32.5012C62.0703 34.2211 59.6261 35.4053 56.5527 36.122C53.9875 36.7202 50.9584 37.0055 47.0196 37.0197H47.0133C46.5872 37.0197 46.1782 36.8596 45.8762 36.5743H45.8766ZM48.6245 14.7493V33.9394C55.1323 33.7635 59.1323 32.6379 61.8326 30.2608C65.0994 27.385 66.7299 22.3929 66.9203 14.6188C63.4698 14.7356 55.4049 14.9571 48.6241 14.7493H48.6245Z" fill="#F8B805"/>
<g style="mix-blend-mode:multiply" opacity="0.5">
<path d="M48.624 13.2931V14.749C55.3699 14.9556 63.4403 14.7357 66.9202 14.6185C66.9202 14.6136 66.9206 14.6088 66.921 14.6043C66.9585 13.825 66.2781 13.1844 65.4563 13.2091C61.5142 13.3271 54.5749 13.475 48.6244 13.2931H48.624Z" fill="#F8B805"/>
</g>
<g style="mix-blend-mode:screen" opacity="0.5">
<path d="M48.6234 33.9391V33.5664C48.5912 33.7552 48.5891 33.8833 48.6234 33.9391Z" fill="#F8B805"/>
<path d="M66.9208 14.6039L66.8846 14.6193C66.8965 14.6193 66.9084 14.6185 66.9204 14.6181C66.7295 22.3922 65.0995 27.3847 61.8326 30.2601C59.1324 32.6372 55.1323 33.7628 48.6246 33.9387C49.08 34.671 51.6771 34.2984 51.6771 34.2984C69.2721 34.0902 66.9212 14.6035 66.9212 14.6035L66.9208 14.6039Z" fill="#F8B805"/>
</g>
<g style="mix-blend-mode:screen" opacity="0.5">
<path d="M45.4454 35.7302V13.3993C45.4454 12.9817 45.6256 12.5824 45.9435 12.2942C46.2617 12.006 46.6903 11.854 47.13 11.8726C56.044 12.2603 68.3974 11.7465 68.5214 11.7413C68.9606 11.7231 69.3888 11.8755 69.7066 12.1637C69.9264 12.3629 70.0802 12.6155 70.1539 12.8904C70.1186 12.5246 69.9456 12.181 69.6636 11.9252C69.3458 11.637 68.9176 11.4846 68.4783 11.5028C68.3548 11.5081 56.001 12.0218 47.087 11.6346C46.6473 11.616 46.2187 11.7679 45.9004 12.0561C45.5822 12.3443 45.4024 12.7437 45.4024 13.1612V35.4918C45.4024 35.6203 45.4194 35.7468 45.4523 35.8693C45.448 35.8232 45.4454 35.7771 45.4454 35.7302Z" fill="#F8B805"/>
</g>
<g style="mix-blend-mode:multiply" opacity="0.5">
<path d="M49.8955 36.43C48.4218 36.4465 47.1233 36.5274 45.9798 36.6616C46.2687 36.8911 46.6338 37.0189 47.0134 37.0189H47.0198C50.9585 37.0047 53.9876 36.7194 56.5528 36.1212C59.6266 35.4045 62.0704 34.2203 64.0238 32.5004C66.2217 30.566 67.8027 27.9416 68.8095 24.4967C67.032 29.6069 62.3303 36.2897 49.8955 36.43Z" fill="#F8B805"/>
</g>
<path d="M21.8363 7C21.3962 9.39158 21.1606 11.9097 21.1606 14.5102C21.1606 30.1167 29.6272 42.7682 40.0711 42.7682C50.515 42.7682 58.9817 30.1167 58.9817 14.5102C58.9817 11.9097 58.7465 9.39158 58.306 7H21.8363V7Z" fill="#F8B805"/>
<path d="M21.8363 7C21.3962 9.39158 21.1606 11.9097 21.1606 14.5102C21.1606 30.1167 29.6272 42.7682 40.0711 42.7682C50.515 42.7682 58.9817 30.1167 58.9817 14.5102C58.9817 11.9097 58.7465 9.39158 58.306 7H21.8363V7Z" fill="#F8B805"/>
<g style="mix-blend-mode:multiply" opacity="0.5">
<path d="M58.3058 7H51.4897C51.7653 9.39158 51.9127 11.9097 51.9127 14.5102C51.9127 30.1167 46.6111 42.7682 40.071 42.7682C50.5149 42.7682 58.9815 30.1167 58.9815 14.5102C58.9815 11.9097 58.7464 9.39158 58.3058 7V7Z" fill="#F8B805"/>
</g>
<g style="mix-blend-mode:multiply" opacity="0.5">
<path d="M40.4997 16.4659L42.9776 21.2297L48.519 21.9936L44.5092 25.7016L45.4558 30.9375L40.4997 28.4655L35.5432 30.9375L36.4899 25.7016L32.48 21.9936L38.0215 21.2297L40.4997 16.4659Z" fill="#F7A108"/>
</g>
<g style="mix-blend-mode:screen" opacity="0.5">
<path d="M28.2292 14.5102C28.2292 11.9097 28.3766 9.39158 28.6523 7H23.9889C23.6007 9.39158 23.3932 11.9097 23.3932 14.5102C23.3932 30.1167 30.86 42.7682 40.0709 42.7682C33.5308 42.7682 28.2292 30.1167 28.2292 14.5102Z" fill="#F8B805"/>
</g>
<path d="M30.2839 11.8861C28.0881 11.8861 26.3081 10.1974 26.3081 8.11426C26.3081 10.1974 24.5281 11.8861 22.3323 11.8861C24.5281 11.8861 26.3081 13.5748 26.3081 15.658C26.3081 13.5748 28.0881 11.8861 30.2839 11.8861Z" fill="white"/>
<path d="M31.8599 15.6574C30.9895 15.6574 30.284 14.9881 30.284 14.1624C30.284 14.9881 29.5785 15.6574 28.7081 15.6574C29.5785 15.6574 30.284 16.3268 30.284 17.1525C30.284 16.3268 30.9895 15.6574 31.8599 15.6574Z" fill="white"/>
<g style="mix-blend-mode:screen" opacity="0.5">
<path d="M39.8091 7.55738C49.7354 7.55738 57.782 7.30799 57.782 7H21.8363C21.8363 7.30759 29.8829 7.55738 39.8091 7.55738Z" fill="#F8B805"/>
</g>
<path d="M47.7193 54.1298H32.4415C30.4243 54.1298 28.7887 55.6814 28.7887 57.5953H51.3721C51.3721 55.6814 49.7366 54.1298 47.7193 54.1298Z" fill="#F8B805"/>
<g style="mix-blend-mode:screen" opacity="0.5">
<path d="M32.4422 54.3901H47.7199C49.6447 54.3901 51.2211 55.8031 51.3612 57.5953H51.3727C51.3727 55.6814 49.7372 54.1298 47.7199 54.1298H32.4422C30.4249 54.1298 28.7893 55.6814 28.7893 57.5953H28.8008C28.941 55.8031 30.5173 54.3901 32.4422 54.3901Z" fill="#F8B805"/>
</g>
<g style="mix-blend-mode:multiply" opacity="0.5">
<path d="M51.3717 57.5949H47.2864C47.2864 55.681 46.2431 54.1298 44.9556 54.1298H47.7193C49.7366 54.1298 51.3717 55.6814 51.3717 57.5949Z" fill="#F8B805"/>
</g>
<g style="mix-blend-mode:screen" opacity="0.5">
<path d="M36.9523 54.1298H33.9368C31.9196 54.1298 30.284 55.6814 30.284 57.5953H33.2995C33.2995 55.6814 34.9351 54.1298 36.9523 54.1298Z" fill="#F8B805"/>
</g>
<path d="M57.2715 57.5957H22.8898C22.703 57.5957 22.5515 57.7394 22.5515 57.9166V70.5871C22.5515 70.7644 22.703 70.908 22.8898 70.908H57.2715C57.4583 70.908 57.6098 70.7644 57.6098 70.5871V57.9166C57.6098 57.7394 57.4583 57.5957 57.2715 57.5957Z" fill="#44352A"/>
<g style="mix-blend-mode:multiply" opacity="0.3">
<path d="M57.2715 68.6202H22.8898C22.7032 68.6202 22.5515 68.4768 22.5515 68.2993V70.5874C22.5515 70.7645 22.7028 70.9084 22.8898 70.9084H57.2719C57.4585 70.9084 57.6102 70.7649 57.6102 70.5874V68.2993C57.6102 68.4764 57.459 68.6202 57.2719 68.6202H57.2715Z" fill="#44352A"/>
</g>
<g style="mix-blend-mode:screen" opacity="0.3">
<path d="M57.2715 57.5957H22.8898C22.7032 57.5957 22.5515 57.7392 22.5515 57.9166V58.3325C22.5515 58.1555 22.7028 58.0116 22.8898 58.0116H57.2719C57.4585 58.0116 57.6102 58.1551 57.6102 58.3325V57.9166C57.6102 57.7396 57.459 57.5957 57.2719 57.5957H57.2715Z" fill="#44352A"/>
</g>
<path d="M59.8803 69.191H20.2805C20.0452 69.191 19.8544 69.372 19.8544 69.5952V71.5947C19.8544 71.818 20.0452 71.9989 20.2805 71.9989H59.8803C60.1156 71.9989 60.3063 71.818 60.3063 71.5947V69.5952C60.3063 69.372 60.1156 69.191 59.8803 69.191Z" fill="#44352A"/>
<g style="mix-blend-mode:multiply" opacity="0.3">
<path d="M59.8803 71.637H20.2805C20.0453 71.637 19.8544 71.4559 19.8544 71.2328V71.5957C19.8544 71.8189 20.0453 71.9999 20.2805 71.9999H59.8807C60.1159 71.9999 60.3068 71.8189 60.3068 71.5957V71.2328C60.3068 71.4559 60.1159 71.637 59.8807 71.637H59.8803Z" fill="#44352A"/>
</g>
<g style="mix-blend-mode:screen" opacity="0.3">
<path d="M59.8803 69.191H20.2805C20.0453 69.191 19.8544 69.3721 19.8544 69.5952V69.9691C19.8544 69.746 20.0453 69.5649 20.2805 69.5649H59.8807C60.1159 69.5649 60.3068 69.746 60.3068 69.9691V69.5952C60.3068 69.3721 60.1159 69.191 59.8807 69.191H59.8803Z" fill="#44352A"/>
</g>
<g style="mix-blend-mode:multiply" opacity="0.3">
<path d="M59.8804 69.191H48.5891C48.8243 69.191 49.0151 69.3721 49.0151 69.5952V71.5952C49.0151 71.8183 48.8243 71.9993 48.5891 71.9993H59.8804C60.1156 71.9993 60.3064 71.8183 60.3064 71.5952V69.5952C60.3064 69.3721 60.1156 69.191 59.8804 69.191Z" fill="#44352A"/>
</g>
<g style="mix-blend-mode:screen" opacity="0.3">
<path d="M29.3006 71.5952V69.5952C29.3006 69.3721 29.4915 69.191 29.7267 69.191H23.5841C23.3489 69.191 23.158 69.3721 23.158 69.5952V71.5952C23.158 71.8183 23.3489 71.9993 23.5841 71.9993H29.7267C29.4915 71.9993 29.3006 71.8183 29.3006 71.5952Z" fill="#44352A"/>
</g>
<path d="M54.4396 59.5586H25.6629V67.6019H54.4396V59.5586Z" fill="#EFCA6F"/>
<g style="mix-blend-mode:multiply" opacity="0.5">
<path d="M25.6897 67.4192V59.5586H25.6629V67.6019H54.4392V67.4192H25.6897Z" fill="#EFCA6F"/>
</g>
<g style="mix-blend-mode:screen" opacity="0.5">
<path d="M54.4396 59.5586H25.6629V59.6993H54.4396V59.5586Z" fill="#EFCA6F"/>
</g>
<g style="mix-blend-mode:multiply" opacity="0.5">
<path d="M28.7893 57.5955H51.3723C51.3723 57.3825 51.351 57.1739 51.3122 56.9714H28.8494C28.8106 57.1739 28.7893 57.3821 28.7893 57.5955Z" fill="#F8B805"/>
</g>
<g style="mix-blend-mode:multiply" opacity="0.3">
<path d="M46.1535 59.5586C44.8468 62.7885 42.1291 65.5899 38.5082 67.6019H54.4391V59.5586H46.1535Z" fill="#EFCA6F"/>
</g>
<path d="M26.759 60.9754C27.0314 60.9754 27.2523 60.7659 27.2523 60.5074C27.2523 60.2489 27.0314 60.0393 26.759 60.0393C26.4865 60.0393 26.2656 60.2489 26.2656 60.5074C26.2656 60.7659 26.4865 60.9754 26.759 60.9754Z" fill="#44352A"/>
<path d="M26.759 67.0087C27.0314 67.0087 27.2523 66.7992 27.2523 66.5407C27.2523 66.2822 27.0314 66.0726 26.759 66.0726C26.4865 66.0726 26.2656 66.2822 26.2656 66.5407C26.2656 66.7992 26.4865 67.0087 26.759 67.0087Z" fill="#44352A"/>
<path d="M53.3432 60.9754C53.6157 60.9754 53.8366 60.7659 53.8366 60.5074C53.8366 60.2489 53.6157 60.0393 53.3432 60.0393C53.0707 60.0393 52.8499 60.2489 52.8499 60.5074C52.8499 60.7659 53.0707 60.9754 53.3432 60.9754Z" fill="#44352A"/>
<path d="M53.3432 67.0087C53.6157 67.0087 53.8366 66.7992 53.8366 66.5407C53.8366 66.2822 53.6157 66.0726 53.3432 66.0726C53.0707 66.0726 52.8499 66.2822 52.8499 66.5407C52.8499 66.7992 53.0707 67.0087 53.3432 67.0087Z" fill="#44352A"/>
</svg>
