<svg width="158" height="158" viewBox="0 0 158 158" fill="none" xmlns="http://www.w3.org/2000/svg">
<path d="M67.1225 111.137C71.0091 104.427 73.4995 94.0991 73.4995 82.5174C73.4995 81.4472 73.4776 80.3886 73.4368 79.3427H84.6853C84.6445 80.3895 84.6226 81.4472 84.6226 82.5174C84.6226 94.1 87.113 104.427 90.9996 111.137H67.1225Z" fill="#F8B805"/>
<g style="mix-blend-mode:multiply" opacity="0.5">
<path d="M84.6233 82.5174C84.6233 81.4472 84.6452 80.3886 84.686 79.3427H73.4375C73.4783 80.3895 73.5002 81.4472 73.5002 82.5174C73.5002 84.5822 73.4194 86.6064 73.2675 88.5783C73.2675 88.5783 78.6804 85.4352 84.856 88.5783C84.704 86.6064 84.6233 84.5822 84.6233 82.5165V82.5174Z" fill="#F8B805"/>
</g>
<g style="mix-blend-mode:screen" opacity="0.5">
<path d="M76.2424 79.3414H74.6268C74.659 80.3882 74.6761 81.4458 74.6761 82.5161C74.6761 94.0987 72.712 104.425 69.6479 111.135H73.0795C75.0266 104.425 76.2756 94.0978 76.2756 82.5161C76.2756 81.4458 76.2633 80.3873 76.2424 79.3414Z" fill="#F8B805"/>
</g>
<g style="mix-blend-mode:multiply" opacity="0.5">
<path d="M91.0014 111.137H85.0442C83.0971 104.427 81.8491 94.0991 81.8491 82.5174C81.8491 81.4472 81.8605 80.3886 81.8804 79.3427H84.6861C84.6453 80.3895 84.6234 81.4472 84.6234 82.5174C84.6234 94.1 87.1138 104.427 91.0004 111.137H91.0014Z" fill="#F8B805"/>
</g>
<path d="M63.605 72.9669H63.5908C54.8098 72.9354 48.0567 72.2988 42.338 70.9644C35.4851 69.3657 30.0371 66.7239 25.6822 62.8874C16.3476 54.6652 12.0003 40.8619 12.0003 19.4495C12.0003 18.519 12.4011 17.6291 13.1097 16.9853C13.8182 16.3424 14.7728 16.0025 15.752 16.0431C16.0275 16.0548 43.5689 17.2008 63.4417 16.337C64.4218 16.2955 65.3774 16.6345 66.0869 17.2774C66.7964 17.9203 67.1972 18.8111 67.1972 19.7425V69.5578C67.1972 70.4639 66.8173 71.3331 66.14 71.9733C65.4666 72.6099 64.5548 72.9669 63.605 72.9669ZM19.2255 22.9948C19.651 40.3371 23.2849 51.4743 30.568 57.8886C36.5879 63.1912 45.5056 65.7023 60.0138 66.0945V23.286C44.8967 23.7486 26.917 23.2554 19.2245 22.9948H19.2255Z" fill="#F8B805"/>
<g style="mix-blend-mode:multiply" opacity="0.5">
<path d="M22.4889 19.8508C20.6567 19.7958 19.1399 21.225 19.2235 22.9633C19.2235 22.9742 19.2244 22.9841 19.2254 22.9949C26.9833 23.2564 44.9755 23.7469 60.0147 23.2861V20.0384C46.7487 20.445 31.2784 20.1141 22.4898 19.8508H22.4889Z" fill="#F8B805"/>
</g>
<g style="mix-blend-mode:screen" opacity="0.5">
<path d="M60.0135 66.0936V65.2623C60.0855 65.6833 60.0901 65.9692 60.0135 66.0936Z" fill="#F8B805"/>
<path d="M19.2237 22.9618L19.3044 22.9961C19.2778 22.9961 19.2512 22.9943 19.2246 22.9934C19.6501 40.3357 23.2841 51.4729 30.5672 57.8872C36.587 63.1898 45.5047 65.7009 60.013 66.0931C58.9976 67.7269 53.2076 66.8956 53.2076 66.8956C13.9826 66.4322 19.2237 22.9618 19.2237 22.9618Z" fill="#F8B805"/>
</g>
<g style="mix-blend-mode:screen" opacity="0.5">
<path d="M67.1002 70.0889V20.2736C67.1002 19.3422 66.6985 18.4514 65.9899 17.8085C65.2804 17.1656 64.3249 16.8266 63.3447 16.8681C43.472 17.7327 15.9315 16.5867 15.6551 16.575C14.6758 16.5345 13.7213 16.8744 13.0127 17.5172C12.5226 17.9618 12.1798 18.5253 12.0154 19.1384C12.0943 18.3224 12.4799 17.556 13.1087 16.9853C13.8172 16.3424 14.7718 16.0025 15.751 16.0431C16.0265 16.0548 43.5679 17.2008 63.4406 16.337C64.4208 16.2955 65.3763 16.6345 66.0858 17.2774C66.7953 17.9203 67.1962 18.8111 67.1962 19.7425V69.5569C67.1962 69.8436 67.1582 70.1258 67.085 70.399C67.0945 70.2962 67.1002 70.1935 67.1002 70.0889Z" fill="#F8B805"/>
</g>
<g style="mix-blend-mode:multiply" opacity="0.5">
<path d="M57.1802 71.6513C60.4656 71.6883 63.3606 71.8686 65.9099 72.168C65.2659 72.6801 64.4519 72.965 63.6057 72.965H63.5914C54.8105 72.9335 48.0574 72.2969 42.3386 70.9625C35.4858 69.3638 30.0377 66.722 25.6829 62.8855C20.7828 58.5702 17.2581 52.7158 15.0137 45.031C18.9763 56.4306 29.4583 71.3385 57.1802 71.6513Z" fill="#F8B805"/>
</g>
<path d="M91.9827 71.9733C91.3065 71.3331 90.9256 70.4648 90.9256 69.5578V19.7425C90.9256 18.8111 91.3274 17.9203 92.0359 17.2774C92.7454 16.6345 93.7009 16.2955 94.6811 16.337C114.554 17.2017 142.094 16.0557 142.371 16.0431C143.35 16.0025 144.305 16.3424 145.013 16.9853C145.722 17.6282 146.122 18.519 146.122 19.4495C146.122 40.8628 141.775 54.6652 132.44 62.8874C128.085 66.7239 122.636 69.3657 115.784 70.9644C110.065 72.2988 103.312 72.9354 94.5311 72.9669H94.5168C93.567 72.9669 92.6552 72.6099 91.9818 71.9733H91.9827ZM98.109 23.2869V66.0954C112.617 65.7032 121.535 63.1921 127.555 57.8895C134.838 51.4743 138.473 40.338 138.897 22.9957C131.205 23.2563 113.225 23.7504 98.108 23.2869H98.109Z" fill="#F8B805"/>
<g style="mix-blend-mode:multiply" opacity="0.5">
<path d="M98.1077 20.0384V23.2861C113.147 23.7469 131.139 23.2564 138.897 22.9949C138.897 22.9841 138.898 22.9733 138.899 22.9633C138.983 21.225 137.466 19.7958 135.634 19.8508C126.845 20.1141 111.375 20.4441 98.1087 20.0384H98.1077Z" fill="#F8B805"/>
</g>
<g style="mix-blend-mode:screen" opacity="0.5">
<path d="M98.1065 66.095V65.2637C98.0346 65.6847 98.03 65.9706 98.1065 66.095Z" fill="#F8B805"/>
<path d="M138.898 22.9627L138.818 22.997C138.844 22.997 138.871 22.9952 138.897 22.9943C138.472 40.3366 134.838 51.4738 127.555 57.8881C121.535 63.1907 112.617 65.7018 98.1089 66.094C99.1243 67.7278 104.914 66.8965 104.914 66.8965C144.14 66.4321 138.899 22.9618 138.899 22.9618L138.898 22.9627Z" fill="#F8B805"/>
</g>
<g style="mix-blend-mode:screen" opacity="0.5">
<path d="M91.0215 70.0903V20.275C91.0215 19.3436 91.4233 18.4528 92.1318 17.8099C92.8414 17.167 93.7969 16.828 94.7771 16.8695C114.65 17.7341 142.19 16.5882 142.467 16.5764C143.446 16.5359 144.4 16.8758 145.109 17.5187C145.599 17.9632 145.942 18.5267 146.106 19.1398C146.027 18.3238 145.642 17.5574 145.013 16.9867C144.305 16.3438 143.35 16.0039 142.371 16.0445C142.095 16.0562 114.554 17.2022 94.6811 16.3384C93.7009 16.2969 92.7454 16.6359 92.0359 17.2788C91.3264 17.9217 90.9256 18.8125 90.9256 19.7439V69.5583C90.9256 69.845 90.9636 70.1272 91.0367 70.4004C91.0272 70.2976 91.0215 70.1949 91.0215 70.0903Z" fill="#F8B805"/>
</g>
<g style="mix-blend-mode:multiply" opacity="0.5">
<path d="M100.942 71.6513C97.657 71.6883 94.762 71.8686 92.2128 72.168C92.8567 72.6801 93.6707 72.965 94.517 72.965H94.5312C103.312 72.9335 110.065 72.2969 115.784 70.9625C122.637 69.3638 128.085 66.722 132.44 62.8855C137.34 58.5702 140.865 52.7158 143.109 45.031C139.146 56.4306 128.664 71.3385 100.942 71.6513Z" fill="#F8B805"/>
</g>
<path d="M38.3876 6C37.4065 11.3351 36.8812 16.9523 36.8812 22.7536C36.8812 57.5681 55.7567 85.7906 79.0401 85.7906C102.324 85.7906 121.199 57.5681 121.199 22.7536C121.199 16.9523 120.675 11.3351 119.693 6H38.3876V6Z" fill="#F8B805"/>
<path d="M38.3876 6C37.4065 11.3351 36.8812 16.9523 36.8812 22.7536C36.8812 57.5681 55.7567 85.7906 79.0401 85.7906C102.324 85.7906 121.199 57.5681 121.199 22.7536C121.199 16.9523 120.675 11.3351 119.693 6H38.3876V6Z" fill="#F8B805"/>
<g style="mix-blend-mode:multiply" opacity="0.5">
<path d="M119.692 6H104.496C105.111 11.3351 105.44 16.9523 105.44 22.7536C105.44 57.5681 93.6203 85.7906 79.0399 85.7906C102.323 85.7906 121.199 57.5681 121.199 22.7536C121.199 16.9523 120.674 11.3351 119.692 6V6Z" fill="#F8B805"/>
</g>
<g style="mix-blend-mode:multiply" opacity="0.5">
<path d="M79.9956 27.1164L85.5197 37.7432L97.8738 39.4474L88.9342 47.7191L91.0447 59.3991L79.9956 53.8846L68.9456 59.3991L71.0561 47.7191L62.1165 39.4474L74.4706 37.7432L79.9956 27.1164Z" fill="#F7A108"/>
</g>
<g style="mix-blend-mode:screen" opacity="0.5">
<path d="M52.6399 22.7536C52.6399 16.9523 52.9686 11.3351 53.5831 6H43.1865C42.3213 11.3351 41.8587 16.9523 41.8587 22.7536C41.8587 57.5681 58.505 85.7906 79.0397 85.7906C64.4593 85.7906 52.6399 57.5681 52.6399 22.7536Z" fill="#F8B805"/>
</g>
<path d="M57.2205 16.8998C52.3252 16.8998 48.357 13.1327 48.357 8.4856C48.357 13.1327 44.3887 16.8998 39.4934 16.8998C44.3887 16.8998 48.357 20.6669 48.357 25.314C48.357 20.6669 52.3252 16.8998 57.2205 16.8998Z" fill="white"/>
<path d="M60.7342 25.3128C58.7937 25.3128 57.2208 23.8197 57.2208 21.9776C57.2208 23.8197 55.648 25.3128 53.7075 25.3128C55.648 25.3128 57.2208 26.8059 57.2208 28.648C57.2208 26.8059 58.7937 25.3128 60.7342 25.3128Z" fill="white"/>
<g style="mix-blend-mode:screen" opacity="0.5">
<path d="M78.4561 7.24338C100.586 7.24338 118.525 6.68706 118.525 6H38.3877C38.3877 6.68616 56.3266 7.24338 78.4561 7.24338Z" fill="#F8B805"/>
</g>
<path d="M96.0908 111.136H62.0308C57.5335 111.136 53.8872 114.597 53.8872 118.866H104.234C104.234 114.597 100.588 111.136 96.0908 111.136Z" fill="#F8B805"/>
<g style="mix-blend-mode:screen" opacity="0.5">
<path d="M62.0322 111.716H96.0922C100.383 111.716 103.898 114.869 104.21 118.866H104.236C104.236 114.597 100.589 111.136 96.0922 111.136H62.0322C57.5349 111.136 53.8886 114.597 53.8886 118.866H53.9143C54.2267 114.869 57.741 111.716 62.0322 111.716Z" fill="#F8B805"/>
</g>
<g style="mix-blend-mode:multiply" opacity="0.5">
<path d="M104.233 118.866H95.1258C95.1258 114.596 92.7997 111.136 89.9294 111.136H96.0908C100.588 111.136 104.233 114.597 104.233 118.866Z" fill="#F8B805"/>
</g>
<g style="mix-blend-mode:screen" opacity="0.5">
<path d="M72.0871 111.136H65.3644C60.8671 111.136 57.2208 114.597 57.2208 118.866H63.9435C63.9435 114.597 67.5898 111.136 72.0871 111.136Z" fill="#F8B805"/>
</g>
<path d="M117.386 118.867H40.7363C40.3198 118.867 39.9821 119.188 39.9821 119.583V147.848C39.9821 148.244 40.3198 148.564 40.7363 148.564H117.386C117.803 148.564 118.14 148.244 118.14 147.848V119.583C118.14 119.188 117.803 118.867 117.386 118.867Z" fill="#44352A"/>
<g style="mix-blend-mode:multiply" opacity="0.3">
<path d="M117.386 143.46H40.7363C40.3202 143.46 39.9821 143.14 39.9821 142.745V147.849C39.9821 148.244 40.3193 148.565 40.7363 148.565H117.387C117.803 148.565 118.141 148.245 118.141 147.849V142.745C118.141 143.139 117.804 143.46 117.387 143.46H117.386Z" fill="#44352A"/>
</g>
<g style="mix-blend-mode:screen" opacity="0.3">
<path d="M117.386 118.867H40.7363C40.3202 118.867 39.9821 119.188 39.9821 119.583V120.511C39.9821 120.116 40.3193 119.795 40.7363 119.795H117.387C117.803 119.795 118.141 120.115 118.141 120.511V119.583C118.141 119.188 117.804 118.867 117.387 118.867H117.386Z" fill="#44352A"/>
</g>
<path d="M123.202 144.734H34.9191C34.3945 144.734 33.9693 145.137 33.9693 145.635V150.096C33.9693 150.594 34.3945 150.998 34.9191 150.998H123.202C123.727 150.998 124.152 150.594 124.152 150.096V145.635C124.152 145.137 123.727 144.734 123.202 144.734Z" fill="#44352A"/>
<g style="mix-blend-mode:multiply" opacity="0.3">
<path d="M123.202 150.19H34.9191C34.3948 150.19 33.9693 149.786 33.9693 149.288V150.098C33.9693 150.596 34.3948 151 34.9191 151H123.203C123.728 151 124.153 150.596 124.153 150.098V149.288C124.153 149.786 123.728 150.19 123.203 150.19H123.202Z" fill="#44352A"/>
</g>
<g style="mix-blend-mode:screen" opacity="0.3">
<path d="M123.202 144.734H34.9191C34.3948 144.734 33.9693 145.138 33.9693 145.635V146.469C33.9693 145.972 34.3948 145.568 34.9191 145.568H123.203C123.728 145.568 124.153 145.972 124.153 146.469V145.635C124.153 145.138 123.728 144.734 123.203 144.734H123.202Z" fill="#44352A"/>
</g>
<g style="mix-blend-mode:multiply" opacity="0.3">
<path d="M123.203 144.734H98.0299C98.5542 144.734 98.9797 145.138 98.9797 145.635V150.097C98.9797 150.594 98.5542 150.998 98.0299 150.998H123.203C123.727 150.998 124.152 150.594 124.152 150.097V145.635C124.152 145.138 123.727 144.734 123.203 144.734Z" fill="#44352A"/>
</g>
<g style="mix-blend-mode:screen" opacity="0.3">
<path d="M55.0286 150.097V145.635C55.0286 145.138 55.4541 144.734 55.9784 144.734H42.2842C41.7599 144.734 41.3344 145.138 41.3344 145.635V150.097C41.3344 150.594 41.7599 150.998 42.2842 150.998H55.9784C55.4541 150.998 55.0286 150.594 55.0286 150.097Z" fill="#44352A"/>
</g>
<path d="M111.073 123.246H46.9186V141.189H111.073V123.246Z" fill="#EFCA6F"/>
<g style="mix-blend-mode:multiply" opacity="0.5">
<path d="M46.9784 140.781V123.246H46.9186V141.189H111.072V140.781H46.9784Z" fill="#EFCA6F"/>
</g>
<g style="mix-blend-mode:screen" opacity="0.5">
<path d="M111.073 123.246H46.9186V123.56H111.073V123.246Z" fill="#EFCA6F"/>
</g>
<g style="mix-blend-mode:multiply" opacity="0.5">
<path d="M53.8886 118.867H104.235C104.235 118.392 104.187 117.927 104.101 117.475H54.0225C53.9361 117.927 53.8886 118.391 53.8886 118.867Z" fill="#F8B805"/>
</g>
<g style="mix-blend-mode:multiply" opacity="0.3">
<path d="M92.6001 123.246C89.687 130.451 83.6282 136.701 75.5558 141.189H111.072V123.246H92.6001Z" fill="#EFCA6F"/>
</g>
<path d="M49.3623 126.407C49.9697 126.407 50.4621 125.939 50.4621 125.363C50.4621 124.786 49.9697 124.318 49.3623 124.318C48.7548 124.318 48.2624 124.786 48.2624 125.363C48.2624 125.939 48.7548 126.407 49.3623 126.407Z" fill="#44352A"/>
<path d="M49.3623 139.866C49.9697 139.866 50.4621 139.398 50.4621 138.822C50.4621 138.245 49.9697 137.777 49.3623 137.777C48.7548 137.777 48.2624 138.245 48.2624 138.822C48.2624 139.398 48.7548 139.866 49.3623 139.866Z" fill="#44352A"/>
<path d="M108.629 126.407C109.236 126.407 109.729 125.939 109.729 125.363C109.729 124.786 109.236 124.318 108.629 124.318C108.021 124.318 107.529 124.786 107.529 125.363C107.529 125.939 108.021 126.407 108.629 126.407Z" fill="#44352A"/>
<path d="M108.629 139.866C109.236 139.866 109.729 139.398 109.729 138.822C109.729 138.245 109.236 137.777 108.629 137.777C108.021 137.777 107.529 138.245 107.529 138.822C107.529 139.398 108.021 139.866 108.629 139.866Z" fill="#44352A"/>
</svg>
