<svg width="24" height="24" viewBox="0 0 24 24" fill="none" xmlns="http://www.w3.org/2000/svg">
<g id="flat_icon_24x24">
<g id="Vector" filter="url(#filter0_d_2176_33237)">
<path d="M5.66729 4.53217C5.68433 4.98333 6.06921 5.33333 6.52046 5.33333H7C7.08841 5.33333 7.17319 5.36845 7.2357 5.43096C7.29821 5.49348 7.33333 5.57826 7.33333 5.66667V11.3772C7.33333 11.4375 7.34971 11.4967 7.38072 11.5485C7.41172 11.6002 7.4562 11.6426 7.50939 11.6711C7.56259 11.6995 7.62251 11.713 7.68278 11.7101C7.74304 11.7072 7.80138 11.688 7.85158 11.6545L8.96354 10.9132C9.07305 10.8402 9.20172 10.8012 9.33333 10.8012C9.46495 10.8012 9.59362 10.8402 9.70312 10.9132L10.8151 11.6545C10.8653 11.688 10.9236 11.7072 10.9839 11.7101C11.0442 11.713 11.1041 11.6995 11.1573 11.6711C11.2105 11.6426 11.2549 11.6002 11.2859 11.5485C11.317 11.4967 11.3333 11.4375 11.3333 11.3772V5.66667C11.3333 5.57826 11.3685 5.49348 11.431 5.43096C11.4935 5.36845 11.5783 5.33333 11.6667 5.33333H19.3333C19.5101 5.33333 19.6797 5.40357 19.8047 5.5286C19.9298 5.65362 20 5.82319 20 6V21.3333C20 21.5101 19.9298 21.6797 19.8047 21.8047C19.6797 21.9298 19.5101 22 19.3333 22H6.5C5.83696 22 5.20107 21.7366 4.73223 21.2678C4.26339 20.7989 4 20.163 4 19.5V4.5C4 4.49604 4.00046 4.49221 4.00058 4.48829C4.00474 3.83832 4.2659 3.2164 4.72704 2.75833C5.20674 2.27593 5.85803 2.00325 6.53833 2H19.3333C19.5101 2 19.6797 2.07024 19.8047 2.19526C19.9298 2.32029 20 2.48986 20 2.66667V3C20 3.17681 19.9298 3.34638 19.8047 3.4714C19.6797 3.59643 19.5101 3.66667 19.3333 3.66667H6.5C6.38789 3.66679 6.27696 3.68951 6.17383 3.73346C6.0707 3.77742 5.97749 3.84171 5.89976 3.9225C5.82203 4.00329 5.76139 4.09891 5.72145 4.20366C5.6815 4.30841 5.66309 4.42014 5.66729 4.53217Z" fill="white"/>
</g>
</g>
<defs>
<filter id="filter0_d_2176_33237" x="3" y="2" width="18" height="22" filterUnits="userSpaceOnUse" color-interpolation-filters="sRGB">
<feFlood flood-opacity="0" result="BackgroundImageFix"/>
<feColorMatrix in="SourceAlpha" type="matrix" values="0 0 0 0 0 0 0 0 0 0 0 0 0 0 0 0 0 0 127 0" result="hardAlpha"/>
<feOffset dy="1"/>
<feGaussianBlur stdDeviation="0.5"/>
<feComposite in2="hardAlpha" operator="out"/>
<feColorMatrix type="matrix" values="0 0 0 0 0 0 0 0 0 0 0 0 0 0 0 0 0 0 0.25 0"/>
<feBlend mode="normal" in2="BackgroundImageFix" result="effect1_dropShadow_2176_33237"/>
<feBlend mode="normal" in="SourceGraphic" in2="effect1_dropShadow_2176_33237" result="shape"/>
</filter>
</defs>
</svg>
