<svg width="158" height="158" viewBox="0 0 158 158" fill="none" xmlns="http://www.w3.org/2000/svg">
<path d="M67.0721 111.137C70.9552 104.427 73.4433 94.0992 73.4433 82.5175C73.4433 81.4473 73.4215 80.3887 73.3807 79.3428H84.619C84.5781 80.3896 84.5563 81.4473 84.5563 82.5175C84.5563 94.1001 87.0444 104.427 90.9275 111.137H67.0721Z" fill="#DD6E00"/>
<g style="mix-blend-mode:multiply" opacity="0.5">
<path d="M84.5568 82.5175C84.5568 81.4473 84.5786 80.3887 84.6194 79.3428H73.3812C73.422 80.3896 73.4438 81.4473 73.4438 82.5175C73.4438 84.5823 73.3631 86.6065 73.2113 88.5784C73.2113 88.5784 78.6193 85.4353 84.7893 88.5784C84.6375 86.6065 84.5568 84.5823 84.5568 82.5166V82.5175Z" fill="#F8B805"/>
</g>
<g style="mix-blend-mode:screen" opacity="0.5">
<path d="M76.1841 79.3414H74.5699C74.6022 80.3882 74.6193 81.4459 74.6193 82.5161C74.6193 94.0987 72.6569 104.425 69.5956 111.135H73.0241C74.9694 104.425 76.2173 94.0978 76.2173 82.5161C76.2173 81.4459 76.2049 80.3873 76.1841 79.3414Z" fill="#DD6E00"/>
</g>
<g style="mix-blend-mode:multiply" opacity="0.5">
<path d="M90.929 111.137H84.9773C83.0319 104.427 81.785 94.0992 81.785 82.5175C81.785 81.4473 81.7964 80.3887 81.8163 79.3428H84.6195C84.5787 80.3896 84.5569 81.4473 84.5569 82.5175C84.5569 94.1001 87.045 104.427 90.928 111.137H90.929Z" fill="#F8B805"/>
</g>
<path d="M63.5576 72.9669H63.5433C54.7704 72.9353 48.0235 72.2988 42.3099 70.9643C35.4633 69.3657 30.0202 66.7239 25.6693 62.8874C16.3432 54.6653 11.9999 40.862 11.9999 19.4497C11.9999 18.5192 12.4003 17.6292 13.1082 16.9855C13.8161 16.3426 14.7698 16.0027 15.7482 16.0432C16.0234 16.055 43.5397 17.2009 63.3943 16.3372C64.3736 16.2957 65.3283 16.6347 66.0371 17.2776C66.746 17.9205 67.1465 18.8113 67.1465 19.7427V69.5578C67.1465 70.4639 66.7669 71.3331 66.0903 71.9733C65.4175 72.6098 64.5065 72.9669 63.5576 72.9669ZM19.2184 22.9949C19.6436 40.3372 23.2742 51.4743 30.5507 57.8886C36.565 63.1912 45.4746 65.7023 59.9696 66.0945V23.2862C44.8663 23.7487 26.9039 23.2555 19.2184 22.9949Z" fill="#DD6E00"/>
<g style="mix-blend-mode:multiply" opacity="0.5">
<path d="M22.479 19.8511C20.6485 19.7961 19.133 21.2252 19.2166 22.9636C19.2166 22.9744 19.2175 22.9843 19.2184 22.9951C26.9694 23.2566 44.9451 23.7471 59.9706 23.2864V20.0386C46.7168 20.4453 31.2605 20.1144 22.4799 19.8511H22.479Z" fill="#F8B805"/>
</g>
<g style="mix-blend-mode:screen" opacity="0.5">
<path d="M59.9696 66.0937V65.2624C60.0427 65.6835 60.0474 65.9693 59.9696 66.0937Z" fill="#DD6E00"/>
<path d="M19.2166 22.9634L19.2973 22.9976C19.2707 22.9976 19.2441 22.9958 19.2176 22.9949C19.6427 40.3372 23.2733 51.4743 30.5498 57.8887C36.5641 63.1912 45.4737 65.7023 59.9687 66.0945C58.9543 67.7283 53.1696 66.897 53.1696 66.897C13.9804 66.4336 19.2166 22.9634 19.2166 22.9634Z" fill="#DD6E00"/>
</g>
<g style="mix-blend-mode:screen" opacity="0.5">
<path d="M67.0506 70.0888V20.2738C67.0506 19.3424 66.6492 18.4515 65.9413 17.8087C65.2324 17.1658 64.2778 16.8268 63.2985 16.8682C43.4439 17.7329 15.9285 16.5869 15.6523 16.5752C14.674 16.5346 13.7203 16.8746 13.0124 17.5174C12.5227 17.9619 12.1802 18.5255 12.016 19.1386C12.0948 18.3226 12.48 17.5562 13.1082 16.9855C13.8161 16.3426 14.7698 16.0027 15.7482 16.0432C16.0234 16.055 43.5397 17.2009 63.3943 16.3372C64.3736 16.2957 65.3283 16.6347 66.0371 17.2776C66.746 17.9205 67.1464 18.8113 67.1464 19.7427V69.5569C67.1464 69.8436 67.1085 70.1258 67.0354 70.399C67.0449 70.2962 67.0506 70.1934 67.0506 70.0888Z" fill="#F8B805"/>
</g>
<g style="mix-blend-mode:multiply" opacity="0.5">
<path d="M57.1382 71.6529C60.4206 71.6898 63.313 71.8702 65.8599 72.1695C65.2165 72.6816 64.4033 72.9666 63.5578 72.9666H63.5435C54.7706 72.935 48.0237 72.2984 42.3101 70.964C35.4635 69.3654 30.0204 66.7236 25.6695 62.8871C20.774 58.5718 17.2525 52.7174 15.0101 45.0327C18.9691 56.4322 29.4416 71.34 57.1382 71.6529Z" fill="#DD6E00"/>
</g>
<path d="M91.9103 71.9733C91.2347 71.3331 90.8541 70.4648 90.8541 69.5578V19.7427C90.8541 18.8113 91.2555 17.9205 91.9634 17.2776C92.6723 16.6347 93.6269 16.2957 94.6062 16.3372C114.461 17.2019 141.976 16.0559 142.252 16.0432C143.231 16.0027 144.184 16.3426 144.892 16.9855C145.6 17.6283 146.001 18.5192 146.001 19.4497C146.001 40.8629 141.657 54.6653 132.33 62.8874C127.979 66.7239 122.535 69.3657 115.69 70.9643C109.976 72.2988 103.229 72.9353 94.4563 72.9669H94.4421C93.4931 72.9669 92.5821 72.6098 91.9094 71.9733H91.9103ZM98.0309 23.2871V66.0954C112.526 65.7032 121.436 63.1921 127.45 57.8895C134.726 51.4743 138.358 40.3381 138.782 22.9958C131.097 23.2564 113.133 23.7505 98.03 23.2871H98.0309Z" fill="#DD6E00"/>
<g style="mix-blend-mode:multiply" opacity="0.5">
<path d="M98.0302 20.0386V23.2864C113.056 23.7471 131.031 23.2566 138.782 22.9951C138.782 22.9843 138.783 22.9735 138.784 22.9636C138.868 21.2252 137.352 19.7961 135.522 19.8511C126.741 20.1144 111.285 20.4444 98.0311 20.0386H98.0302Z" fill="#F8B805"/>
</g>
<g style="mix-blend-mode:screen" opacity="0.5">
<path d="M98.0301 66.0965V65.2651C97.957 65.6862 97.9523 65.972 98.0301 66.0965Z" fill="#DD6E00"/>
<path d="M138.784 22.9643L138.704 22.9985C138.73 22.9985 138.757 22.9967 138.784 22.9958C138.358 40.3381 134.728 51.4752 127.451 57.8896C121.437 63.1921 112.527 65.7032 98.0323 66.0954C99.0468 67.7292 104.831 66.8979 104.831 66.8979C144.022 66.4336 138.785 22.9634 138.785 22.9634L138.784 22.9643Z" fill="#DD6E00"/>
</g>
<g style="mix-blend-mode:screen" opacity="0.5">
<path d="M90.9497 70.0906V20.2755C90.9497 19.3441 91.3511 18.4533 92.059 17.8104C92.7679 17.1676 93.7225 16.8285 94.7018 16.87C114.556 17.7347 142.072 16.5887 142.348 16.577C143.326 16.5364 144.28 16.8763 144.988 17.5192C145.478 17.9637 145.82 18.5272 145.984 19.1404C145.906 18.3244 145.52 17.558 144.892 16.9872C144.184 16.3444 143.231 16.0044 142.252 16.045C141.977 16.0567 114.461 17.2027 94.606 16.3389C93.6267 16.2975 92.672 16.6365 91.9632 17.2794C91.2543 17.9222 90.8539 18.8131 90.8539 19.7445V69.5586C90.8539 69.8453 90.8918 70.1276 90.9649 70.4008C90.9554 70.298 90.9497 70.1952 90.9497 70.0906Z" fill="#DD6E00"/>
</g>
<g style="mix-blend-mode:multiply" opacity="0.5">
<path d="M100.862 71.6529C97.5798 71.6898 94.6875 71.8702 92.1405 72.1695C92.7839 72.6816 93.5971 72.9666 94.4426 72.9666H94.4569C103.23 72.935 109.977 72.2984 115.69 70.964C122.537 69.3654 127.98 66.7236 132.331 62.8871C137.226 58.5718 140.748 52.7174 142.99 45.0327C139.031 56.4322 128.559 71.34 100.862 71.6529Z" fill="#DD6E00"/>
</g>
<path d="M38.3634 6C37.3832 11.335 36.8584 16.9523 36.8584 22.7535C36.8584 57.5679 55.7166 85.7903 78.9789 85.7903C102.241 85.7903 121.099 57.5679 121.099 22.7535C121.099 16.9523 120.576 11.335 119.594 6H38.3634V6Z" fill="#DD6E00"/>
<path d="M38.3634 6C37.3832 11.335 36.8584 16.9523 36.8584 22.7535C36.8584 57.5679 55.7166 85.7903 78.9789 85.7903C102.241 85.7903 121.099 57.5679 121.099 22.7535C121.099 16.9523 120.576 11.335 119.594 6L38.3634 6Z" fill="#DD6E00"/>
<g style="mix-blend-mode:multiply" opacity="0.5">
<path d="M119.594 6H104.412C105.026 11.335 105.355 16.9523 105.355 22.7535C105.355 57.5679 93.546 85.7903 78.9789 85.7903C102.241 85.7903 121.099 57.5679 121.099 22.7535C121.099 16.9523 120.576 11.335 119.594 6V6Z" fill="#DD6E00"/>
</g>
<g style="mix-blend-mode:multiply" opacity="0.5">
<path d="M79.5712 26.6588L85.0902 37.2856L97.433 38.9897L88.5016 47.2614L90.6102 58.9413L79.5712 53.4268L68.5312 58.9413L70.6398 47.2614L61.7084 38.9897L74.0512 37.2856L79.5712 26.6588Z" fill="#A45405"/>
</g>
<g style="mix-blend-mode:screen" opacity="0.5">
<path d="M52.6031 22.7535C52.6031 16.9523 52.9314 11.335 53.5454 6H43.1583C42.2938 11.335 41.8317 16.9523 41.8317 22.7535C41.8317 57.5679 58.4628 85.7903 78.9788 85.7903C64.4116 85.7903 52.6031 57.5679 52.6031 22.7535Z" fill="#DD6E00"/>
</g>
<path d="M57.1796 16.8998C52.2888 16.8998 48.3241 13.1327 48.3241 8.4856C48.3241 13.1327 44.3595 16.8998 39.4686 16.8998C44.3595 16.8998 48.3241 20.6668 48.3241 25.3139C48.3241 20.6668 52.2888 16.8998 57.1796 16.8998Z" fill="white"/>
<path d="M60.691 25.3128C58.7523 25.3128 57.1809 23.8197 57.1809 21.9776C57.1809 23.8197 55.6095 25.3128 53.6708 25.3128C55.6095 25.3128 57.1809 26.8059 57.1809 28.648C57.1809 26.8059 58.7523 25.3128 60.691 25.3128Z" fill="white"/>
<g style="mix-blend-mode:screen" opacity="0.5">
<path d="M78.3946 7.24337C100.504 7.24337 118.426 6.68705 118.426 6H38.3627C38.3627 6.68615 56.2853 7.24337 78.3946 7.24337Z" fill="#DD6E00"/>
</g>
<path d="M96.0141 111.136H61.9852C57.492 111.136 53.849 114.597 53.849 118.867H104.15C104.15 114.597 100.507 111.136 96.0141 111.136Z" fill="#DD6E00"/>
<g style="mix-blend-mode:screen" opacity="0.5">
<path d="M61.9862 111.717H96.0151C100.302 111.717 103.813 114.869 104.126 118.867H104.151C104.151 114.597 100.508 111.136 96.0151 111.136H61.9862C57.4929 111.136 53.85 114.597 53.85 118.867H53.8756C54.1878 114.869 57.6989 111.717 61.9862 111.717Z" fill="#DD6E00"/>
</g>
<g style="mix-blend-mode:multiply" opacity="0.5">
<path d="M104.149 118.866H95.0499C95.0499 114.596 92.726 111.136 89.8583 111.136H96.014C100.507 111.136 104.149 114.597 104.149 118.866Z" fill="#F8B805"/>
</g>
<g style="mix-blend-mode:screen" opacity="0.5">
<path d="M72.0314 111.136H65.3148C60.8216 111.136 57.1786 114.597 57.1786 118.867H63.8952C63.8952 114.597 67.5381 111.136 72.0314 111.136Z" fill="#DD6E00"/>
</g>
<path d="M117.29 118.868H40.7094C40.2933 118.868 39.9559 119.188 39.9559 119.584V147.848C39.9559 148.244 40.2933 148.564 40.7094 148.564H117.29C117.706 148.564 118.043 148.244 118.043 147.848V119.584C118.043 119.188 117.706 118.868 117.29 118.868Z" fill="#44352A"/>
<g style="mix-blend-mode:multiply" opacity="0.3">
<path d="M117.29 143.459H40.7094C40.2938 143.459 39.9559 143.139 39.9559 142.743V147.848C39.9559 148.242 40.2928 148.563 40.7094 148.563H117.291C117.706 148.563 118.044 148.243 118.044 147.848V142.743C118.044 143.138 117.707 143.459 117.291 143.459H117.29Z" fill="#44352A"/>
</g>
<g style="mix-blend-mode:multiply" opacity="0.3">
<path d="M40.7099 148.564H45.4213C43.6544 148.564 41.9093 148.495 40.1908 148.365C40.3255 148.487 40.5077 148.564 40.7099 148.564Z" fill="#44352A"/>
<path d="M117.291 118.866H93.8789C90.2635 135.684 69.9458 148.563 45.4224 148.563H117.291C117.707 148.563 118.045 148.243 118.045 147.847V119.582C118.045 119.187 117.708 118.866 117.291 118.866Z" fill="#44352A"/>
</g>
<g style="mix-blend-mode:screen" opacity="0.3">
<path d="M117.29 118.868H40.7094C40.2938 118.868 39.9559 119.188 39.9559 119.584V120.511C39.9559 120.116 40.2928 119.795 40.7094 119.795H117.291C117.706 119.795 118.044 120.115 118.044 120.511V119.584C118.044 119.189 117.707 118.868 117.291 118.868H117.29Z" fill="#44352A"/>
</g>
<path d="M123.102 144.735H34.899C34.3749 144.735 33.9501 145.139 33.9501 145.637V150.097C33.9501 150.595 34.3749 150.999 34.899 150.999H123.102C123.626 150.999 124.051 150.595 124.051 150.097V145.637C124.051 145.139 123.626 144.735 123.102 144.735Z" fill="#44352A"/>
<g style="mix-blend-mode:multiply" opacity="0.3">
<path d="M123.102 150.189H34.899C34.3752 150.189 33.9501 149.785 33.9501 149.287V150.097C33.9501 150.595 34.3752 150.999 34.899 150.999H123.103C123.627 150.999 124.052 150.595 124.052 150.097V149.287C124.052 149.785 123.627 150.189 123.103 150.189H123.102Z" fill="#44352A"/>
</g>
<g style="mix-blend-mode:screen" opacity="0.3">
<path d="M123.102 144.735H34.899C34.3752 144.735 33.9501 145.139 33.9501 145.637V146.471C33.9501 145.973 34.3752 145.569 34.899 145.569H123.103C123.627 145.569 124.052 145.973 124.052 146.471V145.637C124.052 145.139 123.627 144.735 123.103 144.735H123.102Z" fill="#44352A"/>
</g>
<g style="mix-blend-mode:multiply" opacity="0.3">
<path d="M123.102 144.735H97.952C98.4758 144.735 98.901 145.139 98.901 145.637V150.098C98.901 150.596 98.4758 151 97.952 151H123.102C123.626 151 124.051 150.596 124.051 150.098V145.637C124.051 145.139 123.626 144.735 123.102 144.735Z" fill="#44352A"/>
</g>
<g style="mix-blend-mode:screen" opacity="0.3">
<path d="M54.9888 150.098V145.637C54.9888 145.139 55.4139 144.735 55.9377 144.735H42.2559C41.7321 144.735 41.307 145.139 41.307 145.637V150.098C41.307 150.596 41.7321 151 42.2559 151H55.9377C55.4139 151 54.9888 150.596 54.9888 150.098Z" fill="#44352A"/>
</g>
<path d="M110.982 123.246H46.8861V141.189H110.982V123.246Z" fill="#DD6E00"/>
<g style="mix-blend-mode:multiply" opacity="0.5">
<path d="M46.9459 140.781V123.246H46.8861V141.189H110.981V140.781H46.9459Z" fill="#EFCA6F"/>
</g>
<g style="mix-blend-mode:screen" opacity="0.5">
<path d="M110.982 123.246H46.8861V123.56H110.982V123.246Z" fill="#EFCA6F"/>
</g>
<g style="mix-blend-mode:multiply" opacity="0.5">
<path d="M53.85 118.867H104.15C104.15 118.392 104.103 117.927 104.017 117.475H53.9838C53.8974 117.927 53.85 118.391 53.85 118.867Z" fill="#F8B805"/>
</g>
<g style="mix-blend-mode:multiply" opacity="0.3">
<path d="M92.5271 123.246C89.6167 130.451 83.5634 136.701 75.4984 141.189H110.982V123.246H92.5271Z" fill="#EFCA6F"/>
</g>
<path d="M49.3282 126.405C49.9351 126.405 50.4271 125.938 50.4271 125.361C50.4271 124.785 49.9351 124.317 49.3282 124.317C48.7213 124.317 48.2294 124.785 48.2294 125.361C48.2294 125.938 48.7213 126.405 49.3282 126.405Z" fill="#44352A"/>
<path d="M49.3282 139.864C49.9351 139.864 50.4271 139.397 50.4271 138.82C50.4271 138.244 49.9351 137.776 49.3282 137.776C48.7213 137.776 48.2294 138.244 48.2294 138.82C48.2294 139.397 48.7213 139.864 49.3282 139.864Z" fill="#44352A"/>
<path d="M108.541 126.405C109.148 126.405 109.64 125.938 109.64 125.361C109.64 124.785 109.148 124.317 108.541 124.317C107.934 124.317 107.442 124.785 107.442 125.361C107.442 125.938 107.934 126.405 108.541 126.405Z" fill="#44352A"/>
<path d="M108.541 139.864C109.148 139.864 109.64 139.397 109.64 138.82C109.64 138.244 109.148 137.776 108.541 137.776C107.934 137.776 107.442 138.244 107.442 138.82C107.442 139.397 107.934 139.864 108.541 139.864Z" fill="#44352A"/>
</svg>
