<svg width="80" height="80" viewBox="0 0 80 80" fill="none" xmlns="http://www.w3.org/2000/svg">
<path d="M34.6592 54.1302C36.3979 51.1223 37.5119 46.4927 37.5119 41.3009C37.5119 40.8212 37.5022 40.3467 37.4839 39.8778H42.516C42.4977 40.3471 42.4879 40.8212 42.4879 41.3009C42.4879 46.4931 43.602 51.1223 45.3407 54.1302H34.6592Z" fill="#DD6E00"/>
<g style="mix-blend-mode:multiply" opacity="0.5">
<path d="M42.4883 41.3009C42.4883 40.8212 42.4981 40.3467 42.5163 39.8778H37.4843C37.5025 40.3471 37.5123 40.8212 37.5123 41.3009C37.5123 42.2265 37.4762 43.1339 37.4082 44.0179C37.4082 44.0179 39.8297 42.6089 42.5924 44.0179C42.5244 43.1339 42.4883 42.2265 42.4883 41.3005V41.3009Z" fill="#F8B805"/>
</g>
<g style="mix-blend-mode:screen" opacity="0.5">
<path d="M38.7391 39.8772H38.0164C38.0308 40.3465 38.0385 40.8206 38.0385 41.3003C38.0385 46.4925 37.1598 51.1217 35.7891 54.1296H37.3242C38.1953 51.1217 38.754 46.4921 38.754 41.3003C38.754 40.8206 38.7485 40.3461 38.7391 39.8772Z" fill="#DD6E00"/>
</g>
<g style="mix-blend-mode:multiply" opacity="0.5">
<path d="M45.3414 54.1302H42.6764C41.8054 51.1223 41.2471 46.4927 41.2471 41.3009C41.2471 40.8212 41.2522 40.3467 41.2611 39.8778H42.5162C42.498 40.3471 42.4882 40.8212 42.4882 41.3009C42.4882 46.4931 43.6023 51.1223 45.341 54.1302H45.3414Z" fill="#F8B805"/>
</g>
<path d="M33.0855 37.0197H33.0792C29.151 37.0055 26.13 36.7202 23.5717 36.122C20.506 35.4054 18.0688 34.2211 16.1206 32.5013C11.9448 28.8155 10 22.6278 10 13.0292C10 12.6121 10.1793 12.2132 10.4963 11.9246C10.8133 11.6364 11.2403 11.484 11.6783 11.5022C11.8016 11.5074 24.1223 12.0212 33.0124 11.634C33.4509 11.6154 33.8784 11.7673 34.1958 12.0555C34.5132 12.3437 34.6925 12.743 34.6925 13.1606V35.4915C34.6925 35.8977 34.5225 36.2873 34.2196 36.5743C33.9183 36.8596 33.5104 37.0197 33.0855 37.0197ZM13.2322 14.6185C13.4225 22.3926 15.0482 27.3851 18.3063 30.2605C20.9993 32.6375 24.9887 33.7632 31.479 33.939V14.749C24.7163 14.9564 16.6734 14.7353 13.2322 14.6185Z" fill="#DD6E00"/>
<g style="mix-blend-mode:multiply" opacity="0.5">
<path d="M14.6927 13.2091C13.8731 13.1844 13.1946 13.825 13.2319 14.6043C13.2319 14.6092 13.2324 14.6136 13.2328 14.6185C16.7034 14.7357 24.7522 14.9556 31.48 14.749V13.2931C25.5455 13.4754 18.6247 13.3271 14.6932 13.2091H14.6927Z" fill="#F8B805"/>
</g>
<g style="mix-blend-mode:screen" opacity="0.5">
<path d="M31.4785 33.9386V33.5659C31.5112 33.7547 31.5134 33.8828 31.4785 33.9386Z" fill="#DD6E00"/>
<path d="M13.2312 14.6042L13.2673 14.6196C13.2554 14.6196 13.2435 14.6188 13.2316 14.6184C13.422 22.3925 15.0477 27.385 18.3058 30.2604C20.9988 32.6374 24.9881 33.7631 31.4784 33.9389C31.0242 34.6713 28.434 34.2986 28.434 34.2986C10.8866 34.0909 13.2312 14.6042 13.2312 14.6042Z" fill="#DD6E00"/>
</g>
<g style="mix-blend-mode:screen" opacity="0.5">
<path d="M34.6496 35.7295V13.3986C34.6496 12.9811 34.4698 12.5818 34.1529 12.2936C33.8355 12.0054 33.408 11.8534 32.9695 11.872C24.0794 12.2596 11.7591 11.7459 11.6354 11.7407C11.1973 11.7225 10.7703 11.8749 10.4533 12.163C10.2341 12.3623 10.0807 12.6149 10.0072 12.8898C10.0425 12.524 10.215 12.1804 10.4963 11.9246C10.8132 11.6364 11.2403 11.484 11.6783 11.5022C11.8015 11.5074 24.1223 12.0212 33.0124 11.634C33.4509 11.6154 33.8784 11.7673 34.1958 12.0555C34.5132 12.3437 34.6925 12.743 34.6925 13.1606V35.4911C34.6925 35.6196 34.6755 35.7461 34.6428 35.8686C34.647 35.8225 34.6496 35.7764 34.6496 35.7295Z" fill="#F8B805"/>
</g>
<g style="mix-blend-mode:multiply" opacity="0.5">
<path d="M30.211 36.4305C31.6807 36.4471 32.9758 36.5279 34.1162 36.6621C33.8281 36.8917 33.464 37.0194 33.0854 37.0194H33.079C29.1509 37.0053 26.1298 36.7199 23.5715 36.1217C20.5059 35.4051 18.0687 34.2208 16.1205 32.501C13.9285 30.5666 12.3517 27.9422 11.3477 24.4973C13.1203 29.6074 17.8095 36.2903 30.211 36.4305Z" fill="#DD6E00"/>
</g>
<path d="M45.7807 36.5743C45.4782 36.2873 45.3078 35.8981 45.3078 35.4915V13.1606C45.3078 12.743 45.4875 12.3437 45.8045 12.0555C46.1219 11.7673 46.5494 11.6154 46.9878 11.634C55.878 12.0216 68.1983 11.5079 68.322 11.5022C68.76 11.484 69.187 11.6364 69.504 11.9246C69.821 12.2128 70.0003 12.6121 70.0003 13.0292C70.0003 22.6282 68.0555 28.8155 63.8792 32.5013C61.9311 34.2211 59.4934 35.4054 56.4282 36.122C53.8699 36.7202 50.8489 37.0055 46.9207 37.0197H46.9143C46.4894 37.0197 46.0815 36.8596 45.7803 36.5743H45.7807ZM48.5213 14.7494V33.9394C55.0116 33.7636 59.001 32.6379 61.694 30.2609C64.9521 27.3851 66.5782 22.393 66.7681 14.6189C63.3269 14.7357 55.2835 14.9572 48.5209 14.7494H48.5213Z" fill="#DD6E00"/>
<g style="mix-blend-mode:multiply" opacity="0.5">
<path d="M48.5205 13.2931V14.749C55.2483 14.9556 63.2972 14.7357 66.7677 14.6185C66.7677 14.6136 66.7682 14.6088 66.7686 14.6043C66.806 13.825 66.1274 13.1844 65.3078 13.2091C61.3762 13.3271 54.4555 13.475 48.5209 13.2931H48.5205Z" fill="#F8B805"/>
</g>
<g style="mix-blend-mode:screen" opacity="0.5">
<path d="M48.5205 33.9398V33.5671C48.4877 33.7559 48.4856 33.884 48.5205 33.9398Z" fill="#DD6E00"/>
<path d="M66.7688 14.6047L66.7327 14.62C66.7446 14.62 66.7565 14.6192 66.7684 14.6188C66.5781 22.3929 64.9524 27.3854 61.6943 30.2608C59.0013 32.6378 55.0119 33.7635 48.5216 33.9393C48.9758 34.6717 51.566 34.299 51.566 34.299C69.1138 34.0909 66.7693 14.6042 66.7693 14.6042L66.7688 14.6047Z" fill="#DD6E00"/>
</g>
<g style="mix-blend-mode:screen" opacity="0.5">
<path d="M45.3505 35.7303V13.3994C45.3505 12.9818 45.5303 12.5825 45.8472 12.2943C46.1646 12.0061 46.5921 11.8542 47.0306 11.8728C55.9207 12.2604 68.241 11.7466 68.3647 11.7414C68.8028 11.7232 69.2298 11.8756 69.5467 12.1638C69.766 12.363 69.9194 12.6156 69.9929 12.8905C69.9576 12.5247 69.7851 12.1811 69.5038 11.9253C69.1869 11.6371 68.7598 11.4847 68.3218 11.5029C68.1985 11.5082 55.8778 12.0219 46.9877 11.6347C46.5492 11.6161 46.1217 11.7681 45.8043 12.0563C45.4869 12.3444 45.3076 12.7438 45.3076 13.1613V35.4918C45.3076 35.6203 45.3246 35.7468 45.3573 35.8693C45.3531 35.8232 45.3505 35.7771 45.3505 35.7303Z" fill="#DD6E00"/>
</g>
<g style="mix-blend-mode:multiply" opacity="0.5">
<path d="M49.789 36.4305C48.3193 36.4471 47.0242 36.5279 45.8838 36.6621C46.1719 36.8917 46.536 37.0194 46.9146 37.0194H46.921C50.8491 37.0053 53.8702 36.7199 56.4285 36.1217C59.4941 35.4051 61.9313 34.2208 63.8795 32.501C66.0715 30.5666 67.6483 27.9422 68.6523 24.4973C66.8797 29.6074 62.1905 36.2903 49.789 36.4305Z" fill="#DD6E00"/>
</g>
<path d="M21.8046 7C21.3656 9.39157 21.1307 11.9097 21.1307 14.5102C21.1307 30.1166 29.5747 42.7681 39.9906 42.7681C50.4065 42.7681 58.8505 30.1166 58.8505 14.5102C58.8505 11.9097 58.616 9.39157 58.1766 7H21.8046V7Z" fill="#DD6E00"/>
<path d="M21.8046 7C21.3656 9.39157 21.1307 11.9097 21.1307 14.5102C21.1307 30.1166 29.5747 42.7681 39.9906 42.7681C50.4065 42.7681 58.8505 30.1166 58.8505 14.5102C58.8505 11.9097 58.616 9.39157 58.1766 7L21.8046 7Z" fill="#DD6E00"/>
<g style="mix-blend-mode:multiply" opacity="0.5">
<path d="M58.1765 7H51.3785C51.6534 9.39157 51.8004 11.9097 51.8004 14.5102C51.8004 30.1166 46.513 42.7681 39.9904 42.7681C50.4064 42.7681 58.8503 30.1166 58.8503 14.5102C58.8503 11.9097 58.6158 9.39157 58.1765 7V7Z" fill="#DD6E00"/>
</g>
<g style="mix-blend-mode:multiply" opacity="0.5">
<path d="M40.2561 16.2609L42.7273 21.0246L48.2539 21.7885L44.2548 25.4965L45.1989 30.7324L40.2561 28.2603L35.3128 30.7324L36.2569 25.4965L32.2578 21.7885L37.7845 21.0246L40.2561 16.2609Z" fill="#A45405"/>
</g>
<g style="mix-blend-mode:screen" opacity="0.5">
<path d="M28.1805 14.5102C28.1805 11.9097 28.3275 9.39157 28.6024 7H23.9515C23.5644 9.39157 23.3575 11.9097 23.3575 14.5102C23.3575 30.1166 30.8042 42.7681 39.9905 42.7681C33.4679 42.7681 28.1805 30.1166 28.1805 14.5102Z" fill="#DD6E00"/>
</g>
<path d="M30.2296 11.8861C28.0397 11.8861 26.2645 10.1974 26.2645 8.11426C26.2645 10.1974 24.4892 11.8861 22.2993 11.8861C24.4892 11.8861 26.2645 13.5748 26.2645 15.658C26.2645 13.5748 28.0397 11.8861 30.2296 11.8861Z" fill="white"/>
<path d="M31.8016 15.6574C30.9335 15.6574 30.2299 14.9881 30.2299 14.1624C30.2299 14.9881 29.5263 15.6574 28.6582 15.6574C29.5263 15.6574 30.2299 16.3268 30.2299 17.1525C30.2299 16.3268 30.9335 15.6574 31.8016 15.6574Z" fill="white"/>
<g style="mix-blend-mode:screen" opacity="0.5">
<path d="M39.7292 7.55737C49.6289 7.55737 57.6539 7.30799 57.6539 7H21.8044C21.8044 7.30759 29.8295 7.55737 39.7292 7.55737Z" fill="#DD6E00"/>
</g>
<path d="M47.6187 54.1299H32.3818C30.37 54.1299 28.7388 55.6816 28.7388 57.5954H51.2617C51.2617 55.6816 49.6306 54.1299 47.6187 54.1299Z" fill="#DD6E00"/>
<g style="mix-blend-mode:screen" opacity="0.5">
<path d="M32.3818 54.3902H47.6187C49.5384 54.3902 51.1105 55.8032 51.2503 57.5954H51.2617C51.2617 55.6816 49.6306 54.1299 47.6187 54.1299H32.3818C30.37 54.1299 28.7388 55.6816 28.7388 57.5954H28.7502C28.89 55.8032 30.4622 54.3902 32.3818 54.3902Z" fill="#DD6E00"/>
</g>
<g style="mix-blend-mode:multiply" opacity="0.5">
<path d="M51.2613 57.595H47.1869C47.1869 55.6811 46.1463 54.1299 44.8623 54.1299H47.6186C49.6305 54.1299 51.2613 55.6816 51.2613 57.595Z" fill="#F8B805"/>
</g>
<g style="mix-blend-mode:screen" opacity="0.5">
<path d="M36.88 54.1299H33.8726C31.8607 54.1299 30.2295 55.6816 30.2295 57.5954H33.2369C33.2369 55.6816 34.8681 54.1299 36.88 54.1299Z" fill="#DD6E00"/>
</g>
<path d="M57.1446 57.5958H22.8549C22.6686 57.5958 22.5176 57.7395 22.5176 57.9167V70.5872C22.5176 70.7644 22.6686 70.9081 22.8549 70.9081H57.1446C57.3309 70.9081 57.482 70.7644 57.482 70.5872V57.9167C57.482 57.7395 57.3309 57.5958 57.1446 57.5958Z" fill="#44352A"/>
<g style="mix-blend-mode:multiply" opacity="0.3">
<path d="M57.1446 68.6196H22.8549C22.6688 68.6196 22.5176 68.4761 22.5176 68.2987V70.5868C22.5176 70.7638 22.6684 70.9077 22.8549 70.9077H57.145C57.3311 70.9077 57.4824 70.7642 57.4824 70.5868V68.2987C57.4824 68.4757 57.3316 68.6196 57.145 68.6196H57.1446Z" fill="#44352A"/>
</g>
<g style="mix-blend-mode:multiply" opacity="0.3">
<path d="M22.8555 70.9081H24.9651C24.1739 70.9081 23.3925 70.8773 22.623 70.8187C22.6834 70.8737 22.765 70.9081 22.8555 70.9081Z" fill="#44352A"/>
<path d="M57.1454 57.5952H46.6623C45.0434 65.1341 35.946 70.9075 24.9653 70.9075H57.1454C57.3315 70.9075 57.4827 70.764 57.4827 70.5866V57.9161C57.4827 57.7391 57.3319 57.5952 57.1454 57.5952Z" fill="#44352A"/>
</g>
<g style="mix-blend-mode:screen" opacity="0.3">
<path d="M57.1446 57.5958H22.8549C22.6688 57.5958 22.5176 57.7393 22.5176 57.9167V58.3327C22.5176 58.1556 22.6684 58.0117 22.8549 58.0117H57.145C57.3311 58.0117 57.4824 58.1552 57.4824 58.3327V57.9167C57.4824 57.7397 57.3316 57.5958 57.145 57.5958H57.1446Z" fill="#44352A"/>
</g>
<path d="M59.7468 69.1917H20.253C20.0184 69.1917 19.8281 69.3726 19.8281 69.5958V71.5954C19.8281 71.8186 20.0184 71.9995 20.253 71.9995H59.7468C59.9815 71.9995 60.1717 71.8186 60.1717 71.5954V69.5958C60.1717 69.3726 59.9815 69.1917 59.7468 69.1917Z" fill="#44352A"/>
<g style="mix-blend-mode:multiply" opacity="0.3">
<path d="M59.7468 71.6364H20.253C20.0185 71.6364 19.8281 71.4553 19.8281 71.2322V71.5951C19.8281 71.8182 20.0185 71.9993 20.253 71.9993H59.7473C59.9818 71.9993 60.1721 71.8182 60.1721 71.5951V71.2322C60.1721 71.4553 59.9818 71.6364 59.7473 71.6364H59.7468Z" fill="#44352A"/>
</g>
<g style="mix-blend-mode:screen" opacity="0.3">
<path d="M59.7468 69.1917H20.253C20.0185 69.1917 19.8281 69.3727 19.8281 69.5958V69.9697C19.8281 69.7466 20.0185 69.5655 20.253 69.5655H59.7473C59.9818 69.5655 60.1721 69.7466 60.1721 69.9697V69.5958C60.1721 69.3727 59.9818 69.1917 59.7473 69.1917H59.7468Z" fill="#44352A"/>
</g>
<g style="mix-blend-mode:multiply" opacity="0.3">
<path d="M59.7474 69.1917H48.4863C48.7209 69.1917 48.9112 69.3727 48.9112 69.5958V71.5958C48.9112 71.8189 48.7209 71.9999 48.4863 71.9999H59.7474C59.9819 71.9999 60.1723 71.8189 60.1723 71.5958V69.5958C60.1723 69.3727 59.9819 69.1917 59.7474 69.1917Z" fill="#44352A"/>
</g>
<g style="mix-blend-mode:screen" opacity="0.3">
<path d="M29.2487 71.5958V69.5958C29.2487 69.3727 29.4391 69.1917 29.6736 69.1917H23.5475C23.3129 69.1917 23.1226 69.3727 23.1226 69.5958V71.5958C23.1226 71.8189 23.3129 71.9999 23.5475 71.9999H29.6736C29.4391 71.9999 29.2487 71.8189 29.2487 71.5958Z" fill="#44352A"/>
</g>
<path d="M54.3203 59.5587H25.6206V67.602H54.3203V59.5587Z" fill="#DD6E00"/>
<g style="mix-blend-mode:multiply" opacity="0.5">
<path d="M25.6474 67.4193V59.5587H25.6206V67.602H54.3199V67.4193H25.6474Z" fill="#EFCA6F"/>
</g>
<g style="mix-blend-mode:screen" opacity="0.5">
<path d="M54.3203 59.5587H25.6206V59.6994H54.3203V59.5587Z" fill="#EFCA6F"/>
</g>
<g style="mix-blend-mode:multiply" opacity="0.5">
<path d="M28.7388 57.5956H51.2613C51.2613 57.3826 51.2401 57.1741 51.2014 56.9716H28.7987C28.76 57.1741 28.7388 57.3822 28.7388 57.5956Z" fill="#F8B805"/>
</g>
<g style="mix-blend-mode:multiply" opacity="0.3">
<path d="M46.0569 59.5587C44.7538 62.7886 42.0433 65.59 38.4321 67.602H54.3203V59.5587H46.0569Z" fill="#EFCA6F"/>
</g>
<path d="M26.7142 60.9748C26.9859 60.9748 27.2062 60.7652 27.2062 60.5067C27.2062 60.2482 26.9859 60.0387 26.7142 60.0387C26.4425 60.0387 26.2222 60.2482 26.2222 60.5067C26.2222 60.7652 26.4425 60.9748 26.7142 60.9748Z" fill="#44352A"/>
<path d="M26.7142 67.0082C26.9859 67.0082 27.2062 66.7987 27.2062 66.5402C27.2062 66.2817 26.9859 66.0721 26.7142 66.0721C26.4425 66.0721 26.2222 66.2817 26.2222 66.5402C26.2222 66.7987 26.4425 67.0082 26.7142 67.0082Z" fill="#44352A"/>
<path d="M53.2274 60.9748C53.4991 60.9748 53.7194 60.7652 53.7194 60.5067C53.7194 60.2482 53.4991 60.0387 53.2274 60.0387C52.9556 60.0387 52.7354 60.2482 52.7354 60.5067C52.7354 60.7652 52.9556 60.9748 53.2274 60.9748Z" fill="#44352A"/>
<path d="M53.2274 67.0082C53.4991 67.0082 53.7194 66.7987 53.7194 66.5402C53.7194 66.2817 53.4991 66.0721 53.2274 66.0721C52.9556 66.0721 52.7354 66.2817 52.7354 66.5402C52.7354 66.7987 52.9556 67.0082 53.2274 67.0082Z" fill="#44352A"/>
</svg>
