<svg width="122" height="115" viewBox="0 0 122 115" fill="none" xmlns="http://www.w3.org/2000/svg">
<path d="M52.4552 80.6833C55.2371 75.9169 57.0196 68.5808 57.0196 60.3538C57.0196 59.5936 57.004 58.8417 56.9748 58.0987H65.026C64.9968 58.8423 64.9812 59.5936 64.9812 60.3538C64.9812 68.5814 66.7637 75.9169 69.5456 80.6833H52.4552Z" fill="#DD6E00"/>
<g style="mix-blend-mode:multiply" opacity="0.5">
<path d="M64.9813 60.3538C64.9813 59.5936 64.9969 58.8417 65.0261 58.0987H56.9748C57.0041 58.8423 57.0197 59.5936 57.0197 60.3538C57.0197 61.8205 56.9619 63.2584 56.8531 64.6591C56.8531 64.6591 60.7275 62.4264 65.1478 64.6591C65.0391 63.2584 64.9813 61.8205 64.9813 60.3532V60.3538Z" fill="#F8B805"/>
</g>
<g style="mix-blend-mode:screen" opacity="0.5">
<path d="M58.9824 58.0977H57.826C57.8491 58.8413 57.8614 59.5926 57.8614 60.3528C57.8614 68.5805 56.4555 75.9159 54.2623 80.6823H56.7186C58.1122 75.9159 59.0062 68.5798 59.0062 60.3528C59.0062 59.5926 58.9974 58.8407 58.9824 58.0977Z" fill="#DD6E00"/>
</g>
<g style="mix-blend-mode:multiply" opacity="0.5">
<path d="M69.5461 80.6833H65.2822C63.8885 75.9169 62.9952 68.5808 62.9952 60.3538C62.9952 59.5936 63.0034 58.8417 63.0177 58.0987H65.0259C64.9967 58.8423 64.981 59.5936 64.981 60.3538C64.981 68.5814 66.7636 75.9169 69.5455 80.6833H69.5461Z" fill="#F8B805"/>
</g>
<path d="M49.937 53.5696H49.9268C43.6417 53.5471 38.8081 53.095 34.7148 52.1471C29.8097 51.0115 25.9102 49.1349 22.7932 46.4096C16.1117 40.5691 13.0001 30.764 13.0001 15.5539C13.0001 14.8929 13.287 14.2608 13.7942 13.8035C14.3013 13.3468 14.9846 13.1053 15.6855 13.1341C15.8826 13.1425 35.5958 13.9565 49.82 13.3429C50.5216 13.3135 51.2055 13.5543 51.7134 14.011C52.2212 14.4676 52.5081 15.1004 52.5081 15.762V51.1479C52.5081 51.7916 52.2362 52.409 51.7515 52.8638C51.2695 53.3159 50.6168 53.5696 49.937 53.5696ZM18.1716 18.0722C18.4762 30.3912 21.0773 38.3024 26.2902 42.8588C30.599 46.6255 36.982 48.4092 47.3665 48.6878V18.2791C36.5462 18.6077 23.6776 18.2573 18.1716 18.0722Z" fill="#DD6E00"/>
<g style="mix-blend-mode:multiply" opacity="0.5">
<path d="M20.5077 15.839C19.1963 15.7999 18.1106 16.8151 18.1705 18.0499C18.1705 18.0576 18.1711 18.0647 18.1718 18.0723C23.7247 18.2581 36.6028 18.6065 47.3674 18.2792V15.9722C37.8721 16.2611 26.7989 16.026 20.5084 15.839H20.5077Z" fill="#F8B805"/>
</g>
<g style="mix-blend-mode:screen" opacity="0.5">
<path d="M47.3668 48.6872V48.0967C47.4192 48.3958 47.4226 48.5988 47.3668 48.6872Z" fill="#DD6E00"/>
<path d="M18.1704 18.0498L18.2281 18.0741C18.2091 18.0741 18.1901 18.0729 18.171 18.0722C18.4756 30.3912 21.0767 38.3024 26.2896 42.8588C30.5984 46.6255 36.9814 48.4092 47.3659 48.6878C46.6392 49.8484 42.4949 49.2578 42.4949 49.2578C14.419 48.9286 18.1704 18.0498 18.1704 18.0498Z" fill="#DD6E00"/>
</g>
<g style="mix-blend-mode:screen" opacity="0.5">
<path d="M52.4391 51.5252V16.1393C52.4391 15.4777 52.1516 14.8449 51.6444 14.3882C51.1366 13.9315 50.4526 13.6907 49.7511 13.7202C35.5268 14.3344 15.8143 13.5204 15.6165 13.512C14.9156 13.4832 14.2323 13.7247 13.7252 14.1813C13.3744 14.4971 13.129 14.8974 13.0114 15.3329C13.0678 14.7533 13.3438 14.2089 13.7938 13.8035C14.301 13.3468 14.9842 13.1053 15.6851 13.1341C15.8823 13.1425 35.5955 13.9565 49.8197 13.3429C50.5213 13.3135 51.2052 13.5543 51.7131 14.011C52.2209 14.4676 52.5078 15.1004 52.5078 15.762V51.1473C52.5078 51.3509 52.4806 51.5514 52.4282 51.7455C52.435 51.6725 52.4391 51.5995 52.4391 51.5252Z" fill="#F8B805"/>
</g>
<g style="mix-blend-mode:multiply" opacity="0.5">
<path d="M45.3382 52.6361C47.6897 52.6624 49.7619 52.7904 51.5866 53.0031C51.1256 53.3669 50.543 53.5693 49.9373 53.5693H49.9271C43.642 53.5469 38.8084 53.0947 34.7151 52.1468C29.81 51.0112 25.9105 49.1346 22.7935 46.4093C19.2862 43.344 16.7633 39.1854 15.1569 33.7266C17.9931 41.8242 25.4958 52.4138 45.3382 52.6361Z" fill="#DD6E00"/>
</g>
<path d="M70.2492 52.8638C69.7652 52.409 69.4926 51.7922 69.4926 51.1479V15.762C69.4926 15.1004 69.7801 14.4676 70.2873 14.011C70.7951 13.5543 71.479 13.3135 72.1806 13.3429C86.4048 13.9572 106.117 13.1431 106.315 13.1341C107.016 13.1053 107.699 13.3468 108.207 13.8035C108.714 14.2601 109.001 14.8929 109.001 15.5539C109.001 30.7646 105.889 40.5691 99.2068 46.4096C96.0898 49.1349 92.1896 51.0115 87.2852 52.1471C83.1919 53.095 78.3583 53.5471 72.0732 53.5696H72.063C71.3832 53.5696 70.7305 53.3159 70.2485 52.8638H70.2492ZM74.6342 18.2798V48.6885C85.0187 48.4099 91.4016 46.6261 95.7104 42.8595C100.923 38.3024 103.525 30.3919 103.829 18.0729C98.323 18.258 85.4537 18.609 74.6335 18.2798H74.6342Z" fill="#DD6E00"/>
<g style="mix-blend-mode:multiply" opacity="0.5">
<path d="M74.6329 15.9722V18.2792C85.3975 18.6065 98.2756 18.2581 103.828 18.0723C103.828 18.0647 103.829 18.057 103.83 18.0499C103.89 16.8151 102.804 15.7999 101.493 15.839C95.2021 16.026 84.1289 16.2604 74.6336 15.9722H74.6329Z" fill="#F8B805"/>
</g>
<g style="mix-blend-mode:screen" opacity="0.5">
<path d="M74.633 48.6893V48.0988C74.5806 48.3979 74.5772 48.6009 74.633 48.6893Z" fill="#DD6E00"/>
<path d="M103.83 18.0504L103.773 18.0748C103.792 18.0748 103.811 18.0735 103.83 18.0729C103.525 30.3919 100.924 38.3031 95.711 42.8594C91.4022 46.6261 85.0193 48.4098 74.6348 48.6884C75.3615 49.849 79.5058 49.2585 79.5058 49.2585C107.582 48.9286 103.831 18.0498 103.831 18.0498L103.83 18.0504Z" fill="#DD6E00"/>
</g>
<g style="mix-blend-mode:screen" opacity="0.5">
<path d="M69.561 51.5264V16.1405C69.561 15.4789 69.8485 14.8461 70.3557 14.3894C70.8635 13.9328 71.5475 13.6919 72.249 13.7214C86.4733 14.3356 106.186 13.5216 106.384 13.5133C107.085 13.4844 107.768 13.7259 108.275 14.1826C108.626 14.4983 108.871 14.8986 108.989 15.3341C108.932 14.7545 108.656 14.2101 108.206 13.8047C107.699 13.348 107.016 13.1065 106.315 13.1354C106.118 13.1437 86.4046 13.9577 72.1804 13.3442C71.4788 13.3147 70.7949 13.5555 70.287 14.0122C69.7792 14.4688 69.4923 15.1016 69.4923 15.7633V51.1485C69.4923 51.3522 69.5195 51.5526 69.5719 51.7467C69.5651 51.6737 69.561 51.6007 69.561 51.5264Z" fill="#DD6E00"/>
</g>
<g style="mix-blend-mode:multiply" opacity="0.5">
<path d="M76.6626 52.6361C74.311 52.6624 72.2389 52.7904 70.4142 53.0031C70.8751 53.3669 71.4577 53.5693 72.0635 53.5693H72.0737C78.3587 53.5469 83.1924 53.0947 87.2857 52.1468C92.1907 51.0112 96.0902 49.1346 99.2073 46.4093C102.715 43.344 105.237 39.1854 106.844 33.7266C104.008 41.8242 96.5049 52.4138 76.6626 52.6361Z" fill="#DD6E00"/>
</g>
<path d="M31.8873 6C31.185 9.78972 30.8091 13.7799 30.8091 17.9008C30.8091 42.631 44.3195 62.6786 60.985 62.6786C77.6505 62.6786 91.1608 42.631 91.1608 17.9008C91.1608 13.7799 90.7856 9.78972 90.0826 6H31.8873V6Z" fill="#DD6E00"/>
<path d="M31.8873 6C31.185 9.78972 30.8091 13.7799 30.8091 17.9008C30.8091 42.631 44.3195 62.6786 60.985 62.6786C77.6505 62.6786 91.1608 42.631 91.1608 17.9008C91.1608 13.7799 90.7856 9.78972 90.0826 6L31.8873 6Z" fill="#DD6E00"/>
<g style="mix-blend-mode:multiply" opacity="0.5">
<path d="M90.0825 6H79.2058C79.6457 9.78972 79.8809 13.7799 79.8809 17.9008C79.8809 42.631 71.421 62.6786 60.9849 62.6786C77.6504 62.6786 91.1607 42.631 91.1607 17.9008C91.1607 13.7799 90.7855 9.78972 90.0825 6V6Z" fill="#DD6E00"/>
</g>
<g style="mix-blend-mode:multiply" opacity="0.5">
<path d="M61.4092 20.6748L65.3631 28.2235L74.2057 29.434L67.8071 35.3098L69.3177 43.6065L61.4092 39.6894L53.5 43.6065L55.0106 35.3098L48.6119 29.434L57.4546 28.2235L61.4092 20.6748Z" fill="#A45405"/>
</g>
<g style="mix-blend-mode:screen" opacity="0.5">
<path d="M42.089 17.9008C42.089 13.7799 42.3242 9.78972 42.764 6H35.3225C34.7032 9.78972 34.3721 13.7799 34.3721 17.9008C34.3721 42.631 46.2869 62.6786 60.985 62.6786C50.5488 62.6786 42.089 42.631 42.089 17.9008Z" fill="#DD6E00"/>
</g>
<path d="M45.3673 13.7426C41.8634 13.7426 39.0231 11.0667 39.0231 7.76562C39.0231 11.0667 36.1827 13.7426 32.6788 13.7426C36.1827 13.7426 39.0231 16.4185 39.0231 19.7195C39.0231 16.4185 41.8634 13.7426 45.3673 13.7426Z" fill="white"/>
<path d="M47.8831 19.7187C46.4942 19.7187 45.3684 18.6581 45.3684 17.3496C45.3684 18.6581 44.2425 19.7187 42.8536 19.7187C44.2425 19.7187 45.3684 20.7794 45.3684 22.0879C45.3684 20.7794 46.4942 19.7187 47.8831 19.7187Z" fill="white"/>
<g style="mix-blend-mode:screen" opacity="0.5">
<path d="M60.5665 6.88322C76.406 6.88322 89.246 6.48805 89.246 6H31.8869C31.8869 6.48741 44.727 6.88322 60.5665 6.88322Z" fill="#DD6E00"/>
</g>
<path d="M73.1899 80.6827H48.811C45.5919 80.6827 42.9821 83.1415 42.9821 86.1742H79.0188C79.0188 83.1415 76.4089 80.6827 73.1899 80.6827Z" fill="#DD6E00"/>
<g style="mix-blend-mode:screen" opacity="0.5">
<path d="M48.8115 81.0951H73.1904C76.2619 81.0951 78.7773 83.3343 79.0009 86.1742H79.0193C79.0193 83.1415 76.4094 80.6827 73.1904 80.6827H48.8115C45.5924 80.6827 42.9825 83.1415 42.9825 86.1742H43.0009C43.2246 83.3343 45.74 81.0951 48.8115 81.0951Z" fill="#DD6E00"/>
</g>
<g style="mix-blend-mode:multiply" opacity="0.5">
<path d="M79.0177 86.1735H72.4988C72.4988 83.1408 70.8339 80.6827 68.7794 80.6827H73.1895C76.4085 80.6827 79.0177 83.1415 79.0177 86.1735Z" fill="#F8B805"/>
</g>
<g style="mix-blend-mode:screen" opacity="0.5">
<path d="M56.0081 80.6827H51.1962C47.9772 80.6827 45.3673 83.1415 45.3673 86.1742H50.1792C50.1792 83.1415 52.7891 80.6827 56.0081 80.6827Z" fill="#DD6E00"/>
</g>
<path d="M88.4317 86.1749H33.5682C33.2701 86.1749 33.0284 86.4026 33.0284 86.6835V106.761C33.0284 107.042 33.2701 107.27 33.5682 107.27H88.4317C88.7298 107.27 88.9715 107.042 88.9715 106.761V86.6835C88.9715 86.4026 88.7298 86.1749 88.4317 86.1749Z" fill="#44352A"/>
<g style="mix-blend-mode:multiply" opacity="0.3">
<path d="M88.4317 103.643H33.5682C33.2705 103.643 33.0284 103.416 33.0284 103.135V106.761C33.0284 107.041 33.2698 107.269 33.5682 107.269H88.4324C88.7301 107.269 88.9721 107.042 88.9721 106.761V103.135C88.9721 103.415 88.7308 103.643 88.4324 103.643H88.4317Z" fill="#44352A"/>
</g>
<g style="mix-blend-mode:multiply" opacity="0.3">
<path d="M33.5683 107.27H36.9437C35.6778 107.27 34.4276 107.221 33.1964 107.128C33.2929 107.215 33.4235 107.27 33.5683 107.27Z" fill="#44352A"/>
<path d="M88.432 86.1739H71.6591C69.0689 98.1201 54.513 107.269 36.944 107.269H88.432C88.7298 107.269 88.9718 107.041 88.9718 106.76V86.6824C88.9718 86.4019 88.7305 86.1739 88.432 86.1739Z" fill="#44352A"/>
</g>
<g style="mix-blend-mode:screen" opacity="0.3">
<path d="M88.4317 86.1749H33.5682C33.2705 86.1749 33.0284 86.4023 33.0284 86.6835V87.3425C33.0284 87.062 33.2698 86.834 33.5682 86.834H88.4324C88.7301 86.834 88.9721 87.0613 88.9721 87.3425V86.6835C88.9721 86.4029 88.7308 86.1749 88.4324 86.1749H88.4317Z" fill="#44352A"/>
</g>
<path d="M92.5956 104.55H29.4055C29.0301 104.55 28.7257 104.837 28.7257 105.19V108.359C28.7257 108.713 29.0301 108.999 29.4055 108.999H92.5956C92.9711 108.999 93.2755 108.713 93.2755 108.359V105.19C93.2755 104.837 92.9711 104.55 92.5956 104.55Z" fill="#44352A"/>
<g style="mix-blend-mode:multiply" opacity="0.3">
<path d="M92.5956 108.424H29.4055C29.0303 108.424 28.7257 108.137 28.7257 107.783V108.358C28.7257 108.712 29.0303 108.999 29.4055 108.999H92.5963C92.9716 108.999 93.2761 108.712 93.2761 108.358V107.783C93.2761 108.137 92.9716 108.424 92.5963 108.424H92.5956Z" fill="#44352A"/>
</g>
<g style="mix-blend-mode:screen" opacity="0.3">
<path d="M92.5956 104.55H29.4055C29.0303 104.55 28.7257 104.837 28.7257 105.19V105.783C28.7257 105.429 29.0303 105.142 29.4055 105.142H92.5963C92.9716 105.142 93.2761 105.429 93.2761 105.783V105.19C93.2761 104.837 92.9716 104.55 92.5963 104.55H92.5956Z" fill="#44352A"/>
</g>
<g style="mix-blend-mode:multiply" opacity="0.3">
<path d="M92.5955 104.55H74.5778C74.953 104.55 75.2576 104.837 75.2576 105.19V108.36C75.2576 108.713 74.953 109 74.5778 109H92.5955C92.9707 109 93.2753 108.713 93.2753 108.36V105.19C93.2753 104.837 92.9707 104.55 92.5955 104.55Z" fill="#44352A"/>
</g>
<g style="mix-blend-mode:screen" opacity="0.3">
<path d="M43.7981 108.36V105.19C43.7981 104.837 44.1027 104.55 44.4779 104.55H34.6761C34.3008 104.55 33.9962 104.837 33.9962 105.19V108.36C33.9962 108.713 34.3008 109 34.6761 109H44.4779C44.1027 109 43.7981 108.713 43.7981 108.36Z" fill="#44352A"/>
</g>
<path d="M83.9123 89.2853H37.9928V102.031H83.9123V89.2853Z" fill="#DD6E00"/>
<g style="mix-blend-mode:multiply" opacity="0.5">
<path d="M38.0356 101.741V89.2853H37.9928V102.031H83.9116V101.741H38.0356Z" fill="#EFCA6F"/>
</g>
<g style="mix-blend-mode:screen" opacity="0.5">
<path d="M83.9123 89.2853H37.9928V89.5082H83.9123V89.2853Z" fill="#EFCA6F"/>
</g>
<g style="mix-blend-mode:multiply" opacity="0.5">
<path d="M42.9825 86.1746H79.0186C79.0186 85.837 78.9846 85.5065 78.9228 85.1857H43.0784C43.0165 85.5065 42.9825 85.8364 42.9825 86.1746Z" fill="#F8B805"/>
</g>
<g style="mix-blend-mode:multiply" opacity="0.3">
<path d="M70.6915 89.2853C68.6064 94.4034 64.2697 98.8425 58.4918 102.031H83.9129V89.2853H70.6915Z" fill="#EFCA6F"/>
</g>
<path d="M39.7424 91.5294C40.1772 91.5294 40.5297 91.1973 40.5297 90.7877C40.5297 90.3781 40.1772 90.046 39.7424 90.046C39.3077 90.046 38.9552 90.3781 38.9552 90.7877C38.9552 91.1973 39.3077 91.5294 39.7424 91.5294Z" fill="#44352A"/>
<path d="M39.7424 101.09C40.1772 101.09 40.5297 100.758 40.5297 100.348C40.5297 99.9386 40.1772 99.6066 39.7424 99.6066C39.3077 99.6066 38.9552 99.9386 38.9552 100.348C38.9552 100.758 39.3077 101.09 39.7424 101.09Z" fill="#44352A"/>
<path d="M82.1633 91.5294C82.5981 91.5294 82.9506 91.1973 82.9506 90.7877C82.9506 90.3781 82.5981 90.046 82.1633 90.046C81.7286 90.046 81.3761 90.3781 81.3761 90.7877C81.3761 91.1973 81.7286 91.5294 82.1633 91.5294Z" fill="#44352A"/>
<path d="M82.1633 101.09C82.5981 101.09 82.9506 100.758 82.9506 100.348C82.9506 99.9386 82.5981 99.6066 82.1633 99.6066C81.7286 99.6066 81.3761 99.9386 81.3761 100.348C81.3761 100.758 81.7286 101.09 82.1633 101.09Z" fill="#44352A"/>
</svg>
