<svg width="158" height="158" viewBox="0 0 158 158" fill="none" xmlns="http://www.w3.org/2000/svg">
<path d="M67.0728 111.137C70.9558 104.427 73.4439 94.0992 73.4439 82.5175C73.4439 81.4472 73.4221 80.3887 73.3813 79.3428H84.6195C84.5787 80.3896 84.5569 81.4472 84.5569 82.5175C84.5569 94.1001 87.045 104.427 90.928 111.137H67.0728Z" fill="#BEC4C6"/>
<g style="mix-blend-mode:multiply" opacity="0.5">
<path d="M84.5573 82.5175C84.5573 81.4472 84.5791 80.3887 84.6199 79.3428H73.3817C73.4225 80.3896 73.4443 81.4472 73.4443 82.5175C73.4443 84.5823 73.3637 86.6065 73.2119 88.5784C73.2119 88.5784 78.6198 85.4352 84.7898 88.5784C84.638 86.6065 84.5573 84.5823 84.5573 82.5166V82.5175Z" fill="#BEC4C6"/>
</g>
<g style="mix-blend-mode:screen" opacity="0.5">
<path d="M76.1831 79.3414H74.569C74.6012 80.3882 74.6183 81.4459 74.6183 82.5161C74.6183 94.0988 72.6559 104.425 69.5947 111.135H73.0232C74.9685 104.425 76.2163 94.0979 76.2163 82.5161C76.2163 81.4459 76.204 80.3873 76.1831 79.3414Z" fill="#BEC4C6"/>
</g>
<g style="mix-blend-mode:multiply" opacity="0.5">
<path d="M90.9293 111.137H84.9776C83.0323 104.427 81.7854 94.0992 81.7854 82.5175C81.7854 81.4472 81.7968 80.3887 81.8167 79.3428H84.6199C84.5791 80.3896 84.5572 81.4472 84.5572 82.5175C84.5572 94.1001 87.0453 104.427 90.9284 111.137H90.9293Z" fill="#BEC4C6"/>
</g>
<path d="M63.5575 72.9685H63.5432C54.7703 72.937 48.0234 72.3004 42.3099 70.966C35.4633 69.3673 30.0202 66.7255 25.6693 62.889C16.3432 54.6668 11.9999 40.8634 11.9999 19.451C11.9999 18.5205 12.4004 17.6306 13.1083 16.9868C13.8162 16.3439 14.7699 16.004 15.7482 16.0446C16.0234 16.0563 43.5397 17.2023 63.3942 16.3385C64.3735 16.297 65.3282 16.6361 66.037 17.2789C66.7459 17.9218 67.1463 18.8126 67.1463 19.7441V69.5594C67.1463 70.4655 66.7668 71.3347 66.0902 71.9749C65.4174 72.6115 64.5064 72.9685 63.5575 72.9685ZM19.2185 22.9963C19.6436 40.3387 23.2742 51.4759 30.5507 57.8902C36.565 63.1928 45.4746 65.7039 59.9695 66.0961V23.2875C44.8663 23.7501 26.9039 23.2569 19.2185 22.9963Z" fill="#BEC4C6"/>
<g style="mix-blend-mode:multiply" opacity="0.5">
<path d="M22.4787 19.8523C20.6482 19.7973 19.1327 21.2264 19.2162 22.9648C19.2162 22.9756 19.2172 22.9855 19.2181 22.9964C26.969 23.2578 44.9447 23.7483 59.9701 23.2876V20.0398C46.7164 20.4465 31.2601 20.1156 22.4796 19.8523H22.4787Z" fill="#BEC4C6"/>
</g>
<g style="mix-blend-mode:screen" opacity="0.5">
<path d="M59.9692 66.0951V65.2637C60.0409 65.6848 60.0456 65.9706 59.9692 66.0951Z" fill="#BEC4C6"/>
<path d="M19.2163 22.9647L19.297 22.9989C19.2704 22.9989 19.2438 22.9971 19.2173 22.9962C19.6424 40.3386 23.273 51.4758 30.5494 57.8901C36.5638 63.1927 45.4733 65.7038 59.9683 66.0961C58.9539 67.7299 53.1692 66.8985 53.1692 66.8985C13.9801 66.4351 19.2163 22.9647 19.2163 22.9647Z" fill="#BEC4C6"/>
</g>
<g style="mix-blend-mode:screen" opacity="0.5">
<path d="M67.0499 70.0905V20.2751C67.0499 19.3437 66.6485 18.4529 65.9406 17.81C65.2317 17.1671 64.2771 16.8281 63.2978 16.8696C43.4432 17.7343 15.9279 16.5883 15.6518 16.5766C14.6734 16.536 13.7197 16.8759 13.0118 17.5188C12.5222 17.9633 12.1796 18.5268 12.0154 19.1399C12.0942 18.324 12.4795 17.5575 13.1077 16.9868C13.8156 16.3439 14.7693 16.004 15.7476 16.0446C16.0228 16.0563 43.5391 17.2023 63.3936 16.3385C64.3729 16.297 65.3275 16.6361 66.0364 17.2789C66.7453 17.9218 67.1457 18.8126 67.1457 19.7441V69.5585C67.1457 69.8452 67.1077 70.1274 67.0347 70.4006C67.0442 70.2978 67.0499 70.1951 67.0499 70.0905Z" fill="#BEC4C6"/>
</g>
<g style="mix-blend-mode:multiply" opacity="0.5">
<path d="M57.1388 71.6542C60.4211 71.6912 63.3135 71.8715 65.8604 72.1709C65.217 72.683 64.4038 72.9679 63.5583 72.9679H63.5441C54.7712 72.9364 48.0242 72.2998 42.3107 70.9654C35.4641 69.3667 30.0211 66.7249 25.6702 62.8884C20.7746 58.5731 17.2531 52.7187 15.0108 45.0339C18.9698 56.4335 29.4422 71.3414 57.1388 71.6542Z" fill="#BEC4C6"/>
</g>
<path d="M91.9093 71.975C91.2337 71.3348 90.8531 70.4665 90.8531 69.5594V19.7441C90.8531 18.8127 91.2545 17.9219 91.9625 17.279C92.6713 16.6361 93.6259 16.2971 94.6052 16.3386C114.46 17.2033 141.975 16.0573 142.251 16.0446C143.23 16.0041 144.183 16.344 144.891 16.9869C145.599 17.6297 146 18.5206 146 19.4511C146 40.8644 141.656 54.6669 132.329 62.889C127.978 66.7256 122.534 69.3674 115.689 70.966C109.975 72.3005 103.228 72.937 94.4553 72.9686H94.4411C93.4921 72.9686 92.5812 72.6115 91.9084 71.975H91.9093ZM98.0299 23.2885V66.0971C112.525 65.7049 121.434 63.1938 127.449 57.8912C134.725 51.4759 138.357 40.3396 138.781 22.9973C131.096 23.2578 113.132 23.752 98.029 23.2885H98.0299Z" fill="#BEC4C6"/>
<g style="mix-blend-mode:multiply" opacity="0.5">
<path d="M98.0295 20.0399V23.2877C113.055 23.7484 131.031 23.2579 138.782 22.9964C138.782 22.9856 138.782 22.9748 138.783 22.9649C138.867 21.2265 137.351 19.7974 135.521 19.8524C126.741 20.1156 111.284 20.4457 98.0305 20.0399H98.0295Z" fill="#BEC4C6"/>
</g>
<g style="mix-blend-mode:screen" opacity="0.5">
<path d="M98.0287 66.0966V65.2653C97.957 65.6864 97.9523 65.9722 98.0287 66.0966Z" fill="#BEC4C6"/>
<path d="M138.783 22.9656L138.703 22.9999C138.729 22.9999 138.756 22.9981 138.782 22.9972C138.357 40.3395 134.727 51.4767 127.45 57.8911C121.436 63.1937 112.526 65.7048 98.0313 66.097C99.0457 67.7308 104.83 66.8995 104.83 66.8995C144.02 66.4351 138.784 22.9647 138.784 22.9647L138.783 22.9656Z" fill="#BEC4C6"/>
</g>
<g style="mix-blend-mode:screen" opacity="0.5">
<path d="M90.9491 70.0933V20.2779C90.9491 19.3465 91.3505 18.4557 92.0584 17.8128C92.7672 17.1699 93.7218 16.8309 94.7011 16.8724C114.556 17.7371 142.071 16.5911 142.347 16.5794C143.326 16.5388 144.279 16.8787 144.987 17.5216C145.477 17.9661 145.819 18.5296 145.983 19.1428C145.905 18.3268 145.519 17.5604 144.891 16.9896C144.183 16.3467 143.23 16.0068 142.251 16.0474C141.976 16.0591 114.46 17.2051 94.6053 16.3413C93.626 16.2998 92.6714 16.6389 91.9625 17.2817C91.2537 17.9246 90.8532 18.8155 90.8532 19.7469V69.5613C90.8532 69.848 90.8912 70.1302 90.9642 70.4034C90.9548 70.3007 90.9491 70.1979 90.9491 70.0933Z" fill="#BEC4C6"/>
</g>
<g style="mix-blend-mode:multiply" opacity="0.5">
<path d="M100.861 71.6543C97.5789 71.6913 94.6866 71.8716 92.1396 72.1709C92.783 72.6831 93.5963 72.968 94.4418 72.968H94.456C103.229 72.9364 109.976 72.2999 115.689 70.9654C122.536 69.3668 127.979 66.725 132.33 62.8884C137.225 58.5731 140.747 52.7187 142.989 45.0339C139.03 56.4335 128.558 71.3414 100.861 71.6543Z" fill="#BEC4C6"/>
</g>
<path d="M38.363 6C37.3828 11.3351 36.858 16.9524 36.858 22.7536C36.858 57.5681 55.7162 85.7907 78.9784 85.7907C102.241 85.7907 121.099 57.5681 121.099 22.7536C121.099 16.9524 120.575 11.3351 119.594 6H38.363V6Z" fill="#BEC4C6"/>
<path d="M38.363 6C37.3828 11.3351 36.858 16.9524 36.858 22.7536C36.858 57.5681 55.7162 85.7907 78.9784 85.7907C102.241 85.7907 121.099 57.5681 121.099 22.7536C121.099 16.9524 120.575 11.3351 119.594 6L38.363 6Z" fill="#BEC4C6"/>
<g style="mix-blend-mode:multiply" opacity="0.5">
<path d="M119.594 6H104.412C105.026 11.3351 105.354 16.9524 105.354 22.7536C105.354 57.5681 93.5455 85.7907 78.9784 85.7907C102.241 85.7907 121.099 57.5681 121.099 22.7536C121.099 16.9524 120.575 11.3351 119.594 6V6Z" fill="#BEC4C6"/>
</g>
<g style="mix-blend-mode:multiply" opacity="0.5">
<path d="M79.5718 26.6587L85.0909 37.2856L97.4336 38.9897L88.5023 47.2614L90.6108 58.9414L79.5718 53.4269L68.5319 58.9414L70.6405 47.2614L61.7091 38.9897L74.0519 37.2856L79.5718 26.6587Z" fill="#8F989B"/>
</g>
<g style="mix-blend-mode:screen" opacity="0.5">
<path d="M52.6028 22.7536C52.6028 16.9524 52.9311 11.3351 53.5451 6H43.158C42.2936 11.3351 41.8314 16.9524 41.8314 22.7536C41.8314 57.5681 58.4625 85.7907 78.9784 85.7907C64.4113 85.7907 52.6028 57.5681 52.6028 22.7536Z" fill="#BEC4C6"/>
</g>
<path d="M57.1795 16.8998C52.2887 16.8998 48.324 13.1327 48.324 8.4856C48.324 13.1327 44.3594 16.8998 39.4686 16.8998C44.3594 16.8998 48.324 20.6669 48.324 25.314C48.324 20.6669 52.2887 16.8998 57.1795 16.8998Z" fill="white"/>
<path d="M60.6901 25.3142C58.7514 25.3142 57.18 23.8211 57.18 21.979C57.18 23.8211 55.6085 25.3142 53.6699 25.3142C55.6085 25.3142 57.18 26.8073 57.18 28.6494C57.18 26.8073 58.7514 25.3142 60.6901 25.3142Z" fill="white"/>
<g style="mix-blend-mode:screen" opacity="0.5">
<path d="M78.3949 7.24338C100.504 7.24338 118.427 6.68706 118.427 6H38.3632C38.3632 6.68616 56.2857 7.24338 78.3949 7.24338Z" fill="#BEC4C6"/>
</g>
<path d="M96.0137 111.137H61.9849C57.4917 111.137 53.8487 114.599 53.8487 118.868H104.15C104.15 114.599 100.507 111.137 96.0137 111.137Z" fill="#BEC4C6"/>
<g style="mix-blend-mode:screen" opacity="0.5">
<path d="M61.9859 111.718H96.0147C100.302 111.718 103.813 114.87 104.125 118.868H104.151C104.151 114.599 100.508 111.137 96.0147 111.137H61.9859C57.4927 111.137 53.8497 114.599 53.8497 118.868H53.8754C54.1876 114.87 57.6986 111.718 61.9859 111.718Z" fill="#BEC4C6"/>
</g>
<g style="mix-blend-mode:multiply" opacity="0.5">
<path d="M104.149 118.867H95.0499C95.0499 114.598 92.726 111.137 89.8583 111.137H96.014C100.507 111.137 104.149 114.599 104.149 118.867Z" fill="#BEC4C6"/>
</g>
<g style="mix-blend-mode:screen" opacity="0.5">
<path d="M72.032 111.137H65.3154C60.8222 111.137 57.1793 114.599 57.1793 118.868H63.8958C63.8958 114.599 67.5388 111.137 72.032 111.137Z" fill="#BEC4C6"/>
</g>
<path d="M117.289 118.868H40.7093C40.2932 118.868 39.9559 119.188 39.9559 119.583V147.848C39.9559 148.244 40.2932 148.564 40.7093 148.564H117.289C117.705 148.564 118.043 148.244 118.043 147.848V119.583C118.043 119.188 117.705 118.868 117.289 118.868Z" fill="#44352A"/>
<g style="mix-blend-mode:multiply" opacity="0.3">
<path d="M117.289 143.461H40.7093C40.2937 143.461 39.9559 143.14 39.9559 142.745V147.849C39.9559 148.244 40.2927 148.565 40.7093 148.565H117.29C117.706 148.565 118.044 148.245 118.044 147.849V142.745C118.044 143.14 117.707 143.461 117.29 143.461H117.289Z" fill="#44352A"/>
</g>
<g style="mix-blend-mode:multiply" opacity="0.3">
<path d="M40.7092 148.567H45.4207C43.6537 148.567 41.9086 148.498 40.1901 148.367C40.3249 148.49 40.5071 148.567 40.7092 148.567Z" fill="#44352A"/>
<path d="M117.29 118.869H93.8776C90.2622 135.687 69.9445 148.566 45.4212 148.566H117.29C117.705 148.566 118.043 148.246 118.043 147.85V119.585C118.043 119.19 117.706 118.869 117.29 118.869Z" fill="#44352A"/>
</g>
<g style="mix-blend-mode:screen" opacity="0.3">
<path d="M117.289 118.868H40.7093C40.2937 118.868 39.9559 119.188 39.9559 119.583V120.511C39.9559 120.116 40.2927 119.795 40.7093 119.795H117.29C117.706 119.795 118.044 120.115 118.044 120.511V119.583C118.044 119.189 117.707 118.868 117.29 118.868H117.289Z" fill="#44352A"/>
</g>
<path d="M123.102 144.735H34.8991C34.375 144.735 33.9502 145.139 33.9502 145.637V150.097C33.9502 150.595 34.375 150.999 34.8991 150.999H123.102C123.626 150.999 124.051 150.595 124.051 150.097V145.637C124.051 145.139 123.626 144.735 123.102 144.735Z" fill="#44352A"/>
<g style="mix-blend-mode:multiply" opacity="0.3">
<path d="M123.102 150.19H34.8991C34.3753 150.19 33.9502 149.786 33.9502 149.289V150.098C33.9502 150.596 34.3753 151 34.8991 151H123.103C123.626 151 124.052 150.596 124.052 150.098V149.289C124.052 149.786 123.626 150.19 123.103 150.19H123.102Z" fill="#44352A"/>
</g>
<g style="mix-blend-mode:screen" opacity="0.3">
<path d="M123.102 144.735H34.8991C34.3753 144.735 33.9502 145.139 33.9502 145.637V146.471C33.9502 145.973 34.3753 145.569 34.8991 145.569H123.103C123.626 145.569 124.052 145.973 124.052 146.471V145.637C124.052 145.139 123.626 144.735 123.103 144.735H123.102Z" fill="#44352A"/>
</g>
<g style="mix-blend-mode:multiply" opacity="0.3">
<path d="M123.102 144.735H97.952C98.4758 144.735 98.9009 145.139 98.9009 145.637V150.098C98.9009 150.596 98.4758 151 97.952 151H123.102C123.625 151 124.051 150.596 124.051 150.098V145.637C124.051 145.139 123.625 144.735 123.102 144.735Z" fill="#44352A"/>
</g>
<g style="mix-blend-mode:screen" opacity="0.3">
<path d="M54.9891 150.098V145.637C54.9891 145.139 55.4142 144.735 55.938 144.735H42.2562C41.7324 144.735 41.3073 145.139 41.3073 145.637V150.098C41.3073 150.596 41.7324 151 42.2562 151H55.938C55.4142 151 54.9891 150.596 54.9891 150.098Z" fill="#44352A"/>
</g>
<path d="M110.982 123.246H46.8865V141.189H110.982V123.246Z" fill="#BEC4C6"/>
<g style="mix-blend-mode:multiply" opacity="0.5">
<path d="M46.9463 140.782V123.246H46.8865V141.189H110.981V140.782H46.9463Z" fill="#EFCA6F"/>
</g>
<g style="mix-blend-mode:screen" opacity="0.5">
<path d="M110.982 123.246H46.8865V123.56H110.982V123.246Z" fill="#EFCA6F"/>
</g>
<g style="mix-blend-mode:multiply" opacity="0.5">
<path d="M53.8497 118.867H104.15C104.15 118.392 104.102 117.927 104.016 117.475H53.9835C53.8972 117.927 53.8497 118.391 53.8497 118.867Z" fill="#BEC4C6"/>
</g>
<g style="mix-blend-mode:multiply" opacity="0.3">
<path d="M92.5265 123.246C89.6161 130.451 83.5629 136.701 75.4979 141.189H110.981V123.246H92.5265Z" fill="#BEC4C6"/>
</g>
<path d="M49.3283 126.407C49.9352 126.407 50.4272 125.939 50.4272 125.363C50.4272 124.786 49.9352 124.319 49.3283 124.319C48.7214 124.319 48.2294 124.786 48.2294 125.363C48.2294 125.939 48.7214 126.407 49.3283 126.407Z" fill="#44352A"/>
<path d="M49.3283 139.866C49.9352 139.866 50.4272 139.398 50.4272 138.822C50.4272 138.245 49.9352 137.778 49.3283 137.778C48.7214 137.778 48.2294 138.245 48.2294 138.822C48.2294 139.398 48.7214 139.866 49.3283 139.866Z" fill="#44352A"/>
<path d="M108.54 126.407C109.147 126.407 109.639 125.939 109.639 125.363C109.639 124.786 109.147 124.319 108.54 124.319C107.933 124.319 107.441 124.786 107.441 125.363C107.441 125.939 107.933 126.407 108.54 126.407Z" fill="#44352A"/>
<path d="M108.54 139.866C109.147 139.866 109.639 139.398 109.639 138.822C109.639 138.245 109.147 137.778 108.54 137.778C107.933 137.778 107.441 138.245 107.441 138.822C107.441 139.398 107.933 139.866 108.54 139.866Z" fill="#44352A"/>
</svg>
