<svg width="122" height="115" viewBox="0 0 122 115" fill="none" xmlns="http://www.w3.org/2000/svg">
<path d="M52.4557 80.6834C55.2376 75.9169 57.0202 68.5808 57.0202 60.3538C57.0202 59.5936 57.0045 58.8417 56.9753 58.0987H65.0266C64.9973 58.8423 64.9817 59.5936 64.9817 60.3538C64.9817 68.5815 66.7642 75.9169 69.5461 80.6834H52.4557Z" fill="#BEC4C6"/>
<g style="mix-blend-mode:multiply" opacity="0.5">
<path d="M64.9813 60.3538C64.9813 59.5936 64.9969 58.8417 65.0262 58.0987H56.9749C57.0041 58.8423 57.0198 59.5936 57.0198 60.3538C57.0198 61.8205 56.962 63.2584 56.8532 64.6592C56.8532 64.6592 60.7276 62.4264 65.1479 64.6592C65.0391 63.2584 64.9813 61.8205 64.9813 60.3532V60.3538Z" fill="#BEC4C6"/>
</g>
<g style="mix-blend-mode:screen" opacity="0.5">
<path d="M58.982 58.0978H57.8256C57.8487 58.8414 57.8609 59.5927 57.8609 60.3529C57.8609 68.5806 56.455 75.916 54.2619 80.6825H56.7181C58.1118 75.916 59.0058 68.5799 59.0058 60.3529C59.0058 59.5927 58.9969 58.8407 58.982 58.0978Z" fill="#BEC4C6"/>
</g>
<g style="mix-blend-mode:multiply" opacity="0.5">
<path d="M69.5467 80.6834H65.2827C63.8891 75.9169 62.9958 68.5808 62.9958 60.3538C62.9958 59.5936 63.0039 58.8417 63.0182 58.0987H65.0265C64.9972 58.8423 64.9816 59.5936 64.9816 60.3538C64.9816 68.5815 66.7641 75.9169 69.546 80.6834H69.5467Z" fill="#BEC4C6"/>
</g>
<path d="M49.9369 53.5708H49.9267C43.6417 53.5483 38.808 53.0962 34.7148 52.1482C29.8098 51.0127 25.9102 49.1361 22.7932 46.4108C16.1118 40.5702 13.0002 30.7651 13.0002 15.5549C13.0002 14.8939 13.2871 14.2617 13.7942 13.8044C14.3014 13.3478 14.9846 13.1063 15.6855 13.1351C15.8827 13.1435 35.5958 13.9575 49.82 13.3439C50.5216 13.3145 51.2055 13.5553 51.7133 14.0119C52.2212 14.4686 52.508 15.1014 52.508 15.763V51.1491C52.508 51.7928 52.2361 52.4102 51.7514 52.865C51.2694 53.3171 50.6167 53.5708 49.9369 53.5708ZM18.1717 18.0733C18.4762 30.3923 21.0773 38.3036 26.2903 42.86C30.599 46.6266 36.982 48.4104 47.3665 48.689V18.2801C36.5462 18.6087 23.6777 18.2584 18.1717 18.0733Z" fill="#BEC4C6"/>
<g style="mix-blend-mode:multiply" opacity="0.5">
<path d="M20.5068 15.84C19.1954 15.8009 18.1097 16.8161 18.1695 18.0509C18.1695 18.0586 18.1702 18.0656 18.1709 18.0733C23.7238 18.2591 36.6019 18.6075 47.3664 18.2802V15.9732C37.8711 16.262 26.798 16.027 20.5075 15.84H20.5068Z" fill="#BEC4C6"/>
</g>
<g style="mix-blend-mode:screen" opacity="0.5">
<path d="M47.3664 48.6882V48.0977C47.4187 48.3968 47.4221 48.5998 47.3664 48.6882Z" fill="#BEC4C6"/>
<path d="M18.1704 18.0508L18.2282 18.0751C18.2092 18.0751 18.1901 18.0738 18.1711 18.0732C18.4757 30.3923 21.0767 38.3035 26.2897 42.8599C30.5985 46.6266 36.9814 48.4103 47.3659 48.6889C46.6391 49.8495 42.4949 49.259 42.4949 49.259C14.4191 48.9298 18.1704 18.0508 18.1704 18.0508Z" fill="#BEC4C6"/>
</g>
<g style="mix-blend-mode:screen" opacity="0.5">
<path d="M52.4387 51.5263V16.1403C52.4387 15.4787 52.1512 14.8459 51.644 14.3892C51.1362 13.9325 50.4523 13.6917 49.7507 13.7212C35.5265 14.3354 15.8141 13.5213 15.6162 13.513C14.9153 13.4842 14.2321 13.7257 13.7249 14.1823C13.3741 14.4981 13.1287 14.8984 13.0111 15.3339C13.0675 14.7543 13.3435 14.2099 13.7936 13.8044C14.3008 13.3478 14.984 13.1063 15.6849 13.1351C15.882 13.1435 35.5952 13.9575 49.8194 13.3439C50.5209 13.3145 51.2048 13.5553 51.7127 14.0119C52.2205 14.4686 52.5074 15.1014 52.5074 15.763V51.1484C52.5074 51.3521 52.4802 51.5526 52.4279 51.7467C52.4347 51.6736 52.4387 51.6006 52.4387 51.5263Z" fill="#BEC4C6"/>
</g>
<g style="mix-blend-mode:multiply" opacity="0.5">
<path d="M45.3386 52.6372C47.6902 52.6634 49.7623 52.7915 51.587 53.0042C51.1261 53.368 50.5434 53.5704 49.9377 53.5704H49.9275C43.6424 53.5479 38.8088 53.0958 34.7155 52.1478C29.8105 51.0123 25.911 49.1356 22.794 46.4104C19.2867 43.345 16.7639 39.1864 15.1574 33.7275C17.9937 41.8252 25.4963 52.4149 45.3386 52.6372Z" fill="#BEC4C6"/>
</g>
<path d="M70.249 52.8649C69.765 52.4102 69.4924 51.7934 69.4924 51.1491V15.763C69.4924 15.1014 69.7799 14.4686 70.2871 14.0119C70.7949 13.5553 71.4788 13.3145 72.1804 13.3439C86.4046 13.9581 106.117 13.1441 106.315 13.1351C107.016 13.1063 107.699 13.3478 108.206 13.8044C108.713 14.2611 109 14.8939 109 15.5549C109 30.7657 105.889 40.5702 99.2066 46.4108C96.0895 49.1361 92.1893 51.0127 87.285 52.1482C83.1917 53.0962 78.3581 53.5483 72.073 53.5708H72.0628C71.383 53.5708 70.7304 53.3171 70.2483 52.8649H70.249ZM74.634 18.2808V48.6896C85.0184 48.411 91.4014 46.6273 95.7102 42.8606C100.923 38.3036 103.525 30.393 103.829 18.0739C98.3228 18.259 85.4535 18.61 74.6333 18.2808H74.634Z" fill="#BEC4C6"/>
<g style="mix-blend-mode:multiply" opacity="0.5">
<path d="M74.633 15.9732V18.2802C85.3975 18.6075 98.2756 18.2591 103.828 18.0733C103.828 18.0656 103.829 18.058 103.83 18.0509C103.89 16.8161 102.804 15.8009 101.493 15.84C95.202 16.027 84.1289 16.2614 74.6337 15.9732H74.633Z" fill="#BEC4C6"/>
</g>
<g style="mix-blend-mode:screen" opacity="0.5">
<path d="M74.633 48.6894V48.0989C74.5807 48.398 74.5773 48.601 74.633 48.6894Z" fill="#BEC4C6"/>
<path d="M103.83 18.0514L103.772 18.0758C103.791 18.0758 103.81 18.0745 103.829 18.0738C103.524 30.3929 100.923 38.3041 95.7104 42.8605C91.4016 46.6272 85.0186 48.411 74.6342 48.6896C75.3609 49.8501 79.5052 49.2596 79.5052 49.2596C107.582 48.9298 103.83 18.0508 103.83 18.0508L103.83 18.0514Z" fill="#BEC4C6"/>
</g>
<g style="mix-blend-mode:screen" opacity="0.5">
<path d="M69.561 51.5283V16.1422C69.561 15.4806 69.8486 14.8478 70.3558 14.3911C70.8636 13.9345 71.5475 13.6937 72.2491 13.7231C86.4733 14.3373 106.186 13.5233 106.384 13.515C107.084 13.4861 107.768 13.7276 108.275 14.1843C108.626 14.5 108.871 14.9003 108.989 15.3359C108.932 14.7562 108.656 14.2118 108.206 13.8064C107.699 13.3497 107.016 13.1083 106.315 13.1371C106.118 13.1454 86.4046 13.9595 72.1804 13.3459C71.4788 13.3164 70.7949 13.5572 70.2871 14.0139C69.7793 14.4706 69.4924 15.1034 69.4924 15.765V51.1504C69.4924 51.3541 69.5196 51.5546 69.5719 51.7486C69.5651 51.6756 69.561 51.6026 69.561 51.5283Z" fill="#BEC4C6"/>
</g>
<g style="mix-blend-mode:multiply" opacity="0.5">
<path d="M76.6616 52.6372C74.3101 52.6634 72.2379 52.7915 70.4133 53.0042C70.8742 53.368 71.4568 53.5704 72.0625 53.5704H72.0727C78.3578 53.5479 83.1914 53.0958 87.2847 52.1478C92.1897 51.0123 96.0892 49.1356 99.2063 46.4104C102.714 43.345 105.236 39.1864 106.843 33.7275C104.007 41.8252 96.5039 52.4149 76.6616 52.6372Z" fill="#BEC4C6"/>
</g>
<path d="M31.8874 6C31.1851 9.78974 30.8091 13.78 30.8091 17.9008C30.8091 42.6312 44.3195 62.6789 60.9849 62.6789C77.6504 62.6789 91.1607 42.6312 91.1607 17.9008C91.1607 13.78 90.7854 9.78974 90.0825 6H31.8874V6Z" fill="#BEC4C6"/>
<path d="M31.8874 6C31.1851 9.78974 30.8091 13.78 30.8091 17.9008C30.8091 42.6312 44.3195 62.6789 60.9849 62.6789C77.6504 62.6789 91.1607 42.6312 91.1607 17.9008C91.1607 13.78 90.7854 9.78974 90.0825 6L31.8874 6Z" fill="#BEC4C6"/>
<g style="mix-blend-mode:multiply" opacity="0.5">
<path d="M90.0824 6H79.2057C79.6456 9.78974 79.8808 13.78 79.8808 17.9008C79.8808 42.6312 71.4209 62.6789 60.9848 62.6789C77.6502 62.6789 91.1606 42.6312 91.1606 17.9008C91.1606 13.78 90.7853 9.78974 90.0824 6V6Z" fill="#BEC4C6"/>
</g>
<g style="mix-blend-mode:multiply" opacity="0.5">
<path d="M61.4097 20.6748L65.3636 28.2235L74.2062 29.4341L67.8076 35.3099L69.3182 43.6067L61.4097 39.6895L53.5005 43.6067L55.0111 35.3099L48.6125 29.4341L57.4551 28.2235L61.4097 20.6748Z" fill="#8F989B"/>
</g>
<g style="mix-blend-mode:screen" opacity="0.5">
<path d="M42.0886 17.9008C42.0886 13.78 42.3238 9.78974 42.7637 6H35.3222C34.7029 9.78974 34.3718 13.78 34.3718 17.9008C34.3718 42.6312 46.2866 62.6789 60.9846 62.6789C50.5485 62.6789 42.0886 42.6312 42.0886 17.9008Z" fill="#BEC4C6"/>
</g>
<path d="M45.3678 13.7426C41.8639 13.7426 39.0236 11.0667 39.0236 7.76562C39.0236 11.0667 36.1832 13.7426 32.6794 13.7426C36.1832 13.7426 39.0236 16.4186 39.0236 19.7196C39.0236 16.4186 41.8639 13.7426 45.3678 13.7426Z" fill="white"/>
<path d="M47.8826 19.7197C46.4937 19.7197 45.3679 18.6591 45.3679 17.3506C45.3679 18.6591 44.2421 19.7197 42.8532 19.7197C44.2421 19.7197 45.3679 20.7804 45.3679 22.0889C45.3679 20.7804 46.4937 19.7197 47.8826 19.7197Z" fill="white"/>
<g style="mix-blend-mode:screen" opacity="0.5">
<path d="M60.567 6.88323C76.4065 6.88323 89.2465 6.48805 89.2465 6H31.8876C31.8876 6.48741 44.7276 6.88323 60.567 6.88323Z" fill="#BEC4C6"/>
</g>
<path d="M73.1894 80.6837H48.8105C45.5915 80.6837 42.9816 83.1425 42.9816 86.1752H79.0183C79.0183 83.1425 76.4084 80.6837 73.1894 80.6837Z" fill="#BEC4C6"/>
<g style="mix-blend-mode:screen" opacity="0.5">
<path d="M48.811 81.0962H73.1899C76.2613 81.0962 78.7767 83.3353 79.0004 86.1752H79.0187C79.0187 83.1425 76.4089 80.6837 73.1899 80.6837H48.811C45.592 80.6837 42.9821 83.1425 42.9821 86.1752H43.0005C43.2241 83.3353 45.7395 81.0962 48.811 81.0962Z" fill="#BEC4C6"/>
</g>
<g style="mix-blend-mode:multiply" opacity="0.5">
<path d="M79.0178 86.1746H72.4989C72.4989 83.1419 70.8339 80.6837 68.7795 80.6837H73.1896C76.4086 80.6837 79.0178 83.1425 79.0178 86.1746Z" fill="#BEC4C6"/>
</g>
<g style="mix-blend-mode:screen" opacity="0.5">
<path d="M56.0081 80.6837H51.1963C47.9773 80.6837 45.3674 83.1425 45.3674 86.1752H50.1792C50.1792 83.1425 52.7891 80.6837 56.0081 80.6837Z" fill="#BEC4C6"/>
</g>
<path d="M88.4311 86.1749H33.5678C33.2697 86.1749 33.028 86.4026 33.028 86.6835V106.761C33.028 107.042 33.2697 107.27 33.5678 107.27H88.4311C88.7292 107.27 88.9709 107.042 88.9709 106.761V86.6835C88.9709 86.4026 88.7292 86.1749 88.4311 86.1749Z" fill="#44352A"/>
<g style="mix-blend-mode:multiply" opacity="0.3">
<path d="M88.4311 103.644H33.5678C33.27 103.644 33.028 103.417 33.028 103.136V106.762C33.028 107.042 33.2694 107.27 33.5678 107.27H88.4317C88.7295 107.27 88.9715 107.043 88.9715 106.762V103.136C88.9715 103.416 88.7302 103.644 88.4317 103.644H88.4311Z" fill="#44352A"/>
</g>
<g style="mix-blend-mode:multiply" opacity="0.3">
<path d="M33.5679 107.271H36.9432C35.6774 107.271 34.4272 107.223 33.196 107.13C33.2925 107.217 33.423 107.271 33.5679 107.271Z" fill="#44352A"/>
<path d="M88.4319 86.1759H71.6591C69.0689 98.1222 54.513 107.271 36.944 107.271H88.4319C88.7297 107.271 88.9717 107.043 88.9717 106.762V86.6844C88.9717 86.4039 88.7304 86.1759 88.4319 86.1759Z" fill="#44352A"/>
</g>
<g style="mix-blend-mode:screen" opacity="0.3">
<path d="M88.4311 86.1749H33.5678C33.27 86.1749 33.028 86.4023 33.028 86.6835V87.3425C33.028 87.062 33.2694 86.834 33.5678 86.834H88.4317C88.7295 86.834 88.9715 87.0614 88.9715 87.3425V86.6835C88.9715 86.4029 88.7302 86.1749 88.4317 86.1749H88.4311Z" fill="#44352A"/>
</g>
<path d="M92.5955 104.55H29.4056C29.0301 104.55 28.7258 104.837 28.7258 105.19V108.359C28.7258 108.713 29.0301 108.999 29.4056 108.999H92.5955C92.9709 108.999 93.2753 108.713 93.2753 108.359V105.19C93.2753 104.837 92.9709 104.55 92.5955 104.55Z" fill="#44352A"/>
<g style="mix-blend-mode:multiply" opacity="0.3">
<path d="M92.5955 108.425H29.4056C29.0303 108.425 28.7258 108.138 28.7258 107.784V108.359C28.7258 108.713 29.0303 109 29.4056 109H92.5962C92.9714 109 93.276 108.713 93.276 108.359V107.784C93.276 108.138 92.9714 108.425 92.5962 108.425H92.5955Z" fill="#44352A"/>
</g>
<g style="mix-blend-mode:screen" opacity="0.3">
<path d="M92.5955 104.55H29.4056C29.0303 104.55 28.7258 104.837 28.7258 105.19V105.783C28.7258 105.429 29.0303 105.142 29.4056 105.142H92.5962C92.9714 105.142 93.276 105.429 93.276 105.783V105.19C93.276 104.837 92.9714 104.55 92.5962 104.55H92.5955Z" fill="#44352A"/>
</g>
<g style="mix-blend-mode:multiply" opacity="0.3">
<path d="M92.5955 104.55H74.5778C74.9531 104.55 75.2577 104.837 75.2577 105.19V108.36C75.2577 108.713 74.9531 109 74.5778 109H92.5955C92.9707 109 93.2753 108.713 93.2753 108.36V105.19C93.2753 104.837 92.9707 104.55 92.5955 104.55Z" fill="#44352A"/>
</g>
<g style="mix-blend-mode:screen" opacity="0.3">
<path d="M43.7986 108.36V105.19C43.7986 104.837 44.1032 104.55 44.4784 104.55H34.6766C34.3013 104.55 33.9968 104.837 33.9968 105.19V108.36C33.9968 108.713 34.3013 109 34.6766 109H44.4784C44.1032 109 43.7986 108.713 43.7986 108.36Z" fill="#44352A"/>
</g>
<path d="M83.9127 89.2852H37.9933V102.031H83.9127V89.2852Z" fill="#BEC4C6"/>
<g style="mix-blend-mode:multiply" opacity="0.5">
<path d="M38.0362 101.741V89.2852H37.9933V102.031H83.912V101.741H38.0362Z" fill="#EFCA6F"/>
</g>
<g style="mix-blend-mode:screen" opacity="0.5">
<path d="M83.9127 89.2852H37.9933V89.5081H83.9127V89.2852Z" fill="#EFCA6F"/>
</g>
<g style="mix-blend-mode:multiply" opacity="0.5">
<path d="M42.9821 86.1746H79.0181C79.0181 85.837 78.9841 85.5066 78.9222 85.1857H43.078C43.0161 85.5066 42.9821 85.8364 42.9821 86.1746Z" fill="#BEC4C6"/>
</g>
<g style="mix-blend-mode:multiply" opacity="0.3">
<path d="M70.691 89.2852C68.606 94.4033 64.2693 98.8425 58.4914 102.031H83.9124V89.2852H70.691Z" fill="#BEC4C6"/>
</g>
<path d="M39.7425 91.5303C40.1773 91.5303 40.5298 91.1982 40.5298 90.7886C40.5298 90.379 40.1773 90.0469 39.7425 90.0469C39.3077 90.0469 38.9553 90.379 38.9553 90.7886C38.9553 91.1982 39.3077 91.5303 39.7425 91.5303Z" fill="#44352A"/>
<path d="M39.7425 101.091C40.1773 101.091 40.5298 100.759 40.5298 100.349C40.5298 99.9395 40.1773 99.6075 39.7425 99.6075C39.3077 99.6075 38.9553 99.9395 38.9553 100.349C38.9553 100.759 39.3077 101.091 39.7425 101.091Z" fill="#44352A"/>
<path d="M82.1634 91.5303C82.5982 91.5303 82.9507 91.1982 82.9507 90.7886C82.9507 90.379 82.5982 90.0469 82.1634 90.0469C81.7286 90.0469 81.3762 90.379 81.3762 90.7886C81.3762 91.1982 81.7286 91.5303 82.1634 91.5303Z" fill="#44352A"/>
<path d="M82.1634 101.091C82.5982 101.091 82.9507 100.759 82.9507 100.349C82.9507 99.9395 82.5982 99.6075 82.1634 99.6075C81.7286 99.6075 81.3762 99.9395 81.3762 100.349C81.3762 100.759 81.7286 101.091 82.1634 101.091Z" fill="#44352A"/>
</svg>
