<svg width="80" height="80" viewBox="0 0 80 80" fill="none" xmlns="http://www.w3.org/2000/svg">
<path d="M34.659 54.1303C36.3977 51.1223 37.5117 46.4928 37.5117 41.301C37.5117 40.8212 37.502 40.3467 37.4837 39.8778H42.5157C42.4975 40.3471 42.4877 40.8212 42.4877 41.301C42.4877 46.4932 43.6018 51.1223 45.3405 54.1303H34.659Z" fill="#BEC4C6"/>
<g style="mix-blend-mode:multiply" opacity="0.5">
<path d="M42.4883 41.301C42.4883 40.8212 42.498 40.3467 42.5163 39.8778H37.4843C37.5025 40.3471 37.5123 40.8212 37.5123 41.301C37.5123 42.2265 37.4762 43.134 37.4082 44.0179C37.4082 44.0179 39.8297 42.6089 42.5924 44.0179C42.5244 43.134 42.4883 42.2265 42.4883 41.3006V41.301Z" fill="#BEC4C6"/>
</g>
<g style="mix-blend-mode:screen" opacity="0.5">
<path d="M38.7392 39.8772H38.0164C38.0309 40.3465 38.0385 40.8206 38.0385 41.3003C38.0385 46.4926 37.1598 51.1217 35.7891 54.1297H37.3243C38.1953 51.1217 38.754 46.4921 38.754 41.3003C38.754 40.8206 38.7485 40.3461 38.7392 39.8772Z" fill="#BEC4C6"/>
</g>
<g style="mix-blend-mode:multiply" opacity="0.5">
<path d="M45.3412 54.1303H42.6763C41.8053 51.1223 41.2469 46.4928 41.2469 41.301C41.2469 40.8212 41.252 40.3467 41.261 39.8778H42.5161C42.4978 40.3471 42.4881 40.8212 42.4881 41.301C42.4881 46.4932 43.6021 51.1223 45.3408 54.1303H45.3412Z" fill="#BEC4C6"/>
</g>
<path d="M33.0854 37.0204H33.079C29.1509 37.0063 26.1298 36.7209 23.5715 36.1227C20.5059 35.4061 18.0687 34.2218 16.1206 32.502C11.9447 28.8162 9.99994 22.6285 9.99994 13.0298C9.99994 12.6127 10.1792 12.2138 10.4962 11.9252C10.8132 11.637 11.2402 11.4846 11.6783 11.5028C11.8015 11.5081 24.1222 12.0218 33.0123 11.6346C33.4508 11.616 33.8782 11.768 34.1956 12.0561C34.513 12.3443 34.6923 12.7437 34.6923 13.1612V35.4922C34.6923 35.8984 34.5224 36.288 34.2194 36.575C33.9182 36.8604 33.5103 37.0204 33.0854 37.0204ZM13.2321 14.6191C13.4225 22.3933 15.0481 27.3858 18.3062 30.2612C20.9992 32.6382 24.9886 33.7639 31.4789 33.9397V14.7496C24.7162 14.957 16.6734 14.7359 13.2321 14.6191Z" fill="#BEC4C6"/>
<g style="mix-blend-mode:multiply" opacity="0.5">
<path d="M14.6919 13.2097C13.8723 13.185 13.1937 13.8257 13.2311 14.6049C13.2311 14.6098 13.2315 14.6142 13.2319 14.6191C16.7025 14.7363 24.7513 14.9562 31.4791 14.7496V13.2937C25.5446 13.476 18.6239 13.3277 14.6923 13.2097H14.6919Z" fill="#BEC4C6"/>
</g>
<g style="mix-blend-mode:screen" opacity="0.5">
<path d="M31.479 33.9392V33.5665C31.5117 33.7553 31.5138 33.8834 31.479 33.9392Z" fill="#BEC4C6"/>
<path d="M13.2313 14.6049L13.2674 14.6202C13.2555 14.6202 13.2436 14.6194 13.2317 14.619C13.4221 22.3932 15.0477 27.3857 18.3058 30.2611C20.9988 32.6381 24.9881 33.7638 31.4784 33.9396C31.0242 34.672 28.4341 34.2994 28.4341 34.2994C10.8867 34.0916 13.2313 14.6049 13.2313 14.6049Z" fill="#BEC4C6"/>
</g>
<g style="mix-blend-mode:screen" opacity="0.5">
<path d="M34.649 35.7303V13.3993C34.649 12.9817 34.4693 12.5824 34.1523 12.2942C33.8349 12.006 33.4075 11.854 32.969 11.8726C24.0789 12.2603 11.7586 11.7465 11.635 11.7413C11.1969 11.7231 10.7699 11.8755 10.4529 12.1637C10.2337 12.3629 10.0803 12.6155 10.0068 12.8904C10.042 12.5246 10.2145 12.181 10.4958 11.9252C10.8128 11.637 11.2398 11.4846 11.6779 11.5028C11.8011 11.5081 24.1218 12.0218 33.0119 11.6346C33.4504 11.616 33.8779 11.768 34.1953 12.0561C34.5127 12.3443 34.692 12.7437 34.692 13.1612V35.4918C34.692 35.6203 34.675 35.7468 34.6423 35.8693C34.6465 35.8232 34.649 35.7772 34.649 35.7303Z" fill="#BEC4C6"/>
</g>
<g style="mix-blend-mode:multiply" opacity="0.5">
<path d="M30.2113 36.4312C31.681 36.4478 32.9761 36.5286 34.1165 36.6628C33.8284 36.8924 33.4643 37.0201 33.0857 37.0201H33.0793C29.1512 37.0059 26.1302 36.7206 23.5719 36.1224C20.5062 35.4058 18.069 34.2215 16.1209 32.5017C13.9288 30.5672 12.3521 27.9428 11.348 24.4979C13.1207 29.6081 17.8098 36.2909 30.2113 36.4312Z" fill="#BEC4C6"/>
</g>
<path d="M45.7805 36.575C45.478 36.288 45.3076 35.8988 45.3076 35.4922V13.1612C45.3076 12.7437 45.4873 12.3443 45.8043 12.0561C46.1217 11.768 46.5492 11.616 46.9877 11.6346C55.8778 12.0222 68.198 11.5085 68.3217 11.5028C68.7598 11.4846 69.1868 11.637 69.5037 11.9252C69.8207 12.2134 70 12.6127 70 13.0298C70 22.6289 68.0553 28.8162 63.879 32.502C61.9308 34.2218 59.4932 35.4061 56.428 36.1227C53.8697 36.7209 50.8487 37.0063 46.9205 37.0204H46.9142C46.4893 37.0204 46.0814 36.8604 45.7801 36.575H45.7805ZM48.5211 14.7501V33.9401C55.0114 33.7643 59.0007 32.6386 61.6937 30.2616C64.9518 27.3858 66.5779 22.3937 66.7678 14.6195C63.3266 14.7363 55.2833 14.9578 48.5207 14.7501H48.5211Z" fill="#BEC4C6"/>
<g style="mix-blend-mode:multiply" opacity="0.5">
<path d="M48.5208 13.2937V14.7496C55.2486 14.9562 63.2974 14.7363 66.768 14.6191C66.768 14.6142 66.7684 14.6094 66.7688 14.6049C66.8062 13.8257 66.1277 13.185 65.308 13.2097C61.3765 13.3277 54.4558 13.4756 48.5212 13.2937H48.5208Z" fill="#BEC4C6"/>
</g>
<g style="mix-blend-mode:screen" opacity="0.5">
<path d="M48.5209 33.9399V33.5673C48.4882 33.756 48.486 33.8841 48.5209 33.9399Z" fill="#BEC4C6"/>
<path d="M66.7687 14.6053L66.7326 14.6206C66.7445 14.6206 66.7564 14.6198 66.7683 14.6194C66.5779 22.3936 64.9523 27.3861 61.6942 30.2615C59.0012 32.6385 55.0118 33.7642 48.5215 33.94C48.9758 34.6724 51.5659 34.2998 51.5659 34.2998C69.1137 34.0916 66.7691 14.6049 66.7691 14.6049L66.7687 14.6053Z" fill="#BEC4C6"/>
</g>
<g style="mix-blend-mode:screen" opacity="0.5">
<path d="M45.3505 35.7315V13.4005C45.3505 12.9829 45.5303 12.5836 45.8472 12.2954C46.1646 12.0072 46.5921 11.8553 47.0306 11.8739C55.9207 12.2615 68.241 11.7477 68.3646 11.7425C68.8027 11.7243 69.2297 11.8767 69.5467 12.1649C69.7659 12.3641 69.9193 12.6168 69.9928 12.8916C69.9575 12.5258 69.785 12.1823 69.5038 11.9264C69.1868 11.6382 68.7598 11.4858 68.3217 11.504C68.1985 11.5093 55.8778 12.023 46.9877 11.6358C46.5492 11.6172 46.1217 11.7692 45.8043 12.0574C45.4869 12.3455 45.3076 12.7449 45.3076 13.1624V35.493C45.3076 35.6215 45.3246 35.7481 45.3573 35.8705C45.3531 35.8245 45.3505 35.7784 45.3505 35.7315Z" fill="#BEC4C6"/>
</g>
<g style="mix-blend-mode:multiply" opacity="0.5">
<path d="M49.7885 36.4312C48.3187 36.4478 47.0237 36.5286 45.8832 36.6628C46.1713 36.8924 46.5355 37.0201 46.914 37.0201H46.9204C50.8486 37.0059 53.8696 36.7206 56.4279 36.1224C59.4935 35.4058 61.9307 34.2215 63.8789 32.5017C66.0709 30.5672 67.6477 27.9428 68.6517 24.4979C66.8791 29.6081 62.1899 36.2909 49.7885 36.4312Z" fill="#BEC4C6"/>
</g>
<path d="M21.8044 7C21.3655 9.39158 21.1306 11.9097 21.1306 14.5102C21.1306 30.1168 29.5745 42.7683 39.9904 42.7683C50.4063 42.7683 58.8503 30.1168 58.8503 14.5102C58.8503 11.9097 58.6157 9.39158 58.1764 7H21.8044V7Z" fill="#BEC4C6"/>
<path d="M21.8044 7C21.3655 9.39158 21.1306 11.9097 21.1306 14.5102C21.1306 30.1168 29.5745 42.7683 39.9904 42.7683C50.4063 42.7683 58.8503 30.1168 58.8503 14.5102C58.8503 11.9097 58.6157 9.39158 58.1764 7L21.8044 7Z" fill="#BEC4C6"/>
<g style="mix-blend-mode:multiply" opacity="0.5">
<path d="M58.1761 7H51.3782C51.6531 9.39158 51.8002 11.9097 51.8002 14.5102C51.8002 30.1168 46.5128 42.7683 39.9902 42.7683C50.4061 42.7683 58.85 30.1168 58.85 14.5102C58.85 11.9097 58.6155 9.39158 58.1761 7V7Z" fill="#BEC4C6"/>
</g>
<g style="mix-blend-mode:multiply" opacity="0.5">
<path d="M40.2559 16.2609L42.7271 21.0246L48.2537 21.7885L44.2546 25.4966L45.1987 30.7324L40.2559 28.2604L35.3126 30.7324L36.2568 25.4966L32.2576 21.7885L37.7843 21.0246L40.2559 16.2609Z" fill="#8F989B"/>
</g>
<g style="mix-blend-mode:screen" opacity="0.5">
<path d="M28.1802 14.5102C28.1802 11.9097 28.3272 9.39158 28.6022 7H23.9512C23.5642 9.39158 23.3572 11.9097 23.3572 14.5102C23.3572 30.1168 30.804 42.7683 39.9902 42.7683C33.4676 42.7683 28.1802 30.1168 28.1802 14.5102Z" fill="#BEC4C6"/>
</g>
<path d="M30.2295 11.8861C28.0395 11.8861 26.2643 10.1974 26.2643 8.11426C26.2643 10.1974 24.4891 11.8861 22.2992 11.8861C24.4891 11.8861 26.2643 13.5748 26.2643 15.658C26.2643 13.5748 28.0395 11.8861 30.2295 11.8861Z" fill="white"/>
<path d="M31.8013 15.6581C30.9332 15.6581 30.2296 14.9887 30.2296 14.163C30.2296 14.9887 29.526 15.6581 28.6579 15.6581C29.526 15.6581 30.2296 16.3274 30.2296 17.1532C30.2296 16.3274 30.9332 15.6581 31.8013 15.6581Z" fill="white"/>
<g style="mix-blend-mode:screen" opacity="0.5">
<path d="M39.7294 7.55738C49.629 7.55738 57.654 7.30799 57.654 7H21.8047C21.8047 7.30759 29.8297 7.55738 39.7294 7.55738Z" fill="#BEC4C6"/>
</g>
<path d="M47.6183 54.1305H32.3815C30.3696 54.1305 28.7385 55.6822 28.7385 57.596H51.2614C51.2614 55.6822 49.6302 54.1305 47.6183 54.1305Z" fill="#BEC4C6"/>
<g style="mix-blend-mode:screen" opacity="0.5">
<path d="M32.3818 54.3908H47.6185C49.5382 54.3908 51.1103 55.8038 51.2501 57.596H51.2616C51.2616 55.6822 49.6304 54.1305 47.6185 54.1305H32.3818C30.3699 54.1305 28.7387 55.6822 28.7387 57.596H28.7502C28.89 55.8038 30.4621 54.3908 32.3818 54.3908Z" fill="#BEC4C6"/>
</g>
<g style="mix-blend-mode:multiply" opacity="0.5">
<path d="M51.2609 57.5956H47.1865C47.1865 55.6818 46.146 54.1305 44.8619 54.1305H47.6182C49.6301 54.1305 51.2609 55.6822 51.2609 57.5956Z" fill="#BEC4C6"/>
</g>
<g style="mix-blend-mode:screen" opacity="0.5">
<path d="M36.8799 54.1305H33.8725C31.8606 54.1305 30.2294 55.6822 30.2294 57.596H33.2368C33.2368 55.6822 34.868 54.1305 36.8799 54.1305Z" fill="#BEC4C6"/>
</g>
<path d="M57.1443 57.5958H22.8548C22.6684 57.5958 22.5174 57.7395 22.5174 57.9167V70.5873C22.5174 70.7645 22.6684 70.9082 22.8548 70.9082H57.1443C57.3306 70.9082 57.4817 70.7645 57.4817 70.5873V57.9167C57.4817 57.7395 57.3306 57.5958 57.1443 57.5958Z" fill="#44352A"/>
<g style="mix-blend-mode:multiply" opacity="0.3">
<path d="M57.1443 68.6202H22.8548C22.6687 68.6202 22.5174 68.4768 22.5174 68.2993V70.5874C22.5174 70.7645 22.6682 70.9084 22.8548 70.9084H57.1447C57.3308 70.9084 57.4821 70.7649 57.4821 70.5874V68.2993C57.4821 68.4764 57.3313 68.6202 57.1447 68.6202H57.1443Z" fill="#44352A"/>
</g>
<g style="mix-blend-mode:multiply" opacity="0.3">
<path d="M22.8544 70.9092H24.964C24.1729 70.9092 23.3915 70.8784 22.622 70.8198C22.6823 70.8748 22.7639 70.9092 22.8544 70.9092Z" fill="#44352A"/>
<path d="M57.1442 57.5964H46.6612C45.0423 65.1354 35.9449 70.9088 24.9643 70.9088H57.1442C57.3303 70.9088 57.4816 70.7653 57.4816 70.5879V57.9174C57.4816 57.7403 57.3308 57.5964 57.1442 57.5964Z" fill="#44352A"/>
</g>
<g style="mix-blend-mode:screen" opacity="0.3">
<path d="M57.1443 57.5958H22.8548C22.6687 57.5958 22.5174 57.7393 22.5174 57.9167V58.3327C22.5174 58.1556 22.6682 58.0117 22.8548 58.0117H57.1447C57.3308 58.0117 57.4821 58.1552 57.4821 58.3327V57.9167C57.4821 57.7397 57.3313 57.5958 57.1447 57.5958H57.1443Z" fill="#44352A"/>
</g>
<path d="M59.7466 69.1917H20.2529C20.0182 69.1917 19.828 69.3726 19.828 69.5958V71.5954C19.828 71.8186 20.0182 71.9996 20.2529 71.9996H59.7466C59.9812 71.9996 60.1715 71.8186 60.1715 71.5954V69.5958C60.1715 69.3726 59.9812 69.1917 59.7466 69.1917Z" fill="#44352A"/>
<g style="mix-blend-mode:multiply" opacity="0.3">
<path d="M59.7466 71.637H20.2529C20.0184 71.637 19.828 71.4559 19.828 71.2328V71.5957C19.828 71.8189 20.0184 71.9999 20.2529 71.9999H59.747C59.9815 71.9999 60.1719 71.8189 60.1719 71.5957V71.2328C60.1719 71.4559 59.9815 71.637 59.747 71.637H59.7466Z" fill="#44352A"/>
</g>
<g style="mix-blend-mode:screen" opacity="0.3">
<path d="M59.7466 69.1917H20.2529C20.0184 69.1917 19.828 69.3727 19.828 69.5958V69.9697C19.828 69.7466 20.0184 69.5655 20.2529 69.5655H59.747C59.9815 69.5655 60.1719 69.7466 60.1719 69.9697V69.5958C60.1719 69.3727 59.9815 69.1917 59.747 69.1917H59.7466Z" fill="#44352A"/>
</g>
<g style="mix-blend-mode:multiply" opacity="0.3">
<path d="M59.747 69.1917H48.486C48.7205 69.1917 48.9109 69.3727 48.9109 69.5958V71.5958C48.9109 71.8189 48.7205 72 48.486 72H59.747C59.9815 72 60.1719 71.8189 60.1719 71.5958V69.5958C60.1719 69.3727 59.9815 69.1917 59.747 69.1917Z" fill="#44352A"/>
</g>
<g style="mix-blend-mode:screen" opacity="0.3">
<path d="M29.2491 71.5958V69.5958C29.2491 69.3727 29.4395 69.1917 29.674 69.1917H23.5479C23.3133 69.1917 23.123 69.3727 23.123 69.5958V71.5958C23.123 71.8189 23.3133 72 23.5479 72H29.674C29.4395 72 29.2491 71.8189 29.2491 71.5958Z" fill="#44352A"/>
</g>
<path d="M54.3203 59.5586H25.6207V67.6019H54.3203V59.5586Z" fill="#BEC4C6"/>
<g style="mix-blend-mode:multiply" opacity="0.5">
<path d="M25.6474 67.4193V59.5586H25.6207V67.6019H54.3198V67.4193H25.6474Z" fill="#EFCA6F"/>
</g>
<g style="mix-blend-mode:screen" opacity="0.5">
<path d="M54.3203 59.5586H25.6207V59.6993H54.3203V59.5586Z" fill="#EFCA6F"/>
</g>
<g style="mix-blend-mode:multiply" opacity="0.5">
<path d="M28.7387 57.5956H51.2612C51.2612 57.3826 51.2399 57.1741 51.2013 56.9716H28.7986C28.76 57.1741 28.7387 57.3822 28.7387 57.5956Z" fill="#BEC4C6"/>
</g>
<g style="mix-blend-mode:multiply" opacity="0.3">
<path d="M46.0567 59.5586C44.7535 62.7885 42.0431 65.5899 38.4319 67.6019H54.3201V59.5586H46.0567Z" fill="#BEC4C6"/>
</g>
<path d="M26.7141 60.9754C26.9858 60.9754 27.2061 60.7659 27.2061 60.5074C27.2061 60.2489 26.9858 60.0393 26.7141 60.0393C26.4423 60.0393 26.222 60.2489 26.222 60.5074C26.222 60.7659 26.4423 60.9754 26.7141 60.9754Z" fill="#44352A"/>
<path d="M26.7141 67.0089C26.9858 67.0089 27.2061 66.7993 27.2061 66.5408C27.2061 66.2823 26.9858 66.0728 26.7141 66.0728C26.4423 66.0728 26.222 66.2823 26.222 66.5408C26.222 66.7993 26.4423 67.0089 26.7141 67.0089Z" fill="#44352A"/>
<path d="M53.2266 60.9754C53.4984 60.9754 53.7187 60.7659 53.7187 60.5074C53.7187 60.2489 53.4984 60.0393 53.2266 60.0393C52.9549 60.0393 52.7346 60.2489 52.7346 60.5074C52.7346 60.7659 52.9549 60.9754 53.2266 60.9754Z" fill="#44352A"/>
<path d="M53.2266 67.0089C53.4984 67.0089 53.7187 66.7993 53.7187 66.5408C53.7187 66.2823 53.4984 66.0728 53.2266 66.0728C52.9549 66.0728 52.7346 66.2823 52.7346 66.5408C52.7346 66.7993 52.9549 67.0089 53.2266 67.0089Z" fill="#44352A"/>
</svg>
