<svg width="158" height="158" viewBox="0 0 158 158" fill="none" xmlns="http://www.w3.org/2000/svg">
<g clip-path="url(#clip0_3624_48277)">
<path d="M41.5414 11.5864V54.4099C41.5414 55.6584 42.1062 56.777 42.9605 57.2164L77.2206 74.9245C77.4712 75.0543 77.7325 75.1176 77.9937 75.1176V11.5864H41.5414Z" fill="#00AD37"/>
<path d="M77.9907 11.5864V75.1176C78.2555 75.1176 78.5202 75.0543 78.7709 74.9245L113.024 57.2164C113.878 56.7737 114.443 55.6584 114.443 54.4099V11.5864H77.9943H77.9907Z" fill="#00942F"/>
<path d="M113.776 6H42.2055C40.1759 6 38.5306 7.55165 38.5306 9.4657V10.0017C38.5306 11.9158 40.1759 13.4674 42.2055 13.4674H113.776C115.805 13.4674 117.451 11.9158 117.451 10.0017V9.4657C117.451 7.55165 115.805 6 113.776 6Z" fill="#FFAF02"/>
<path d="M123.907 107.697C123.907 109.085 120.945 110.324 120.807 111.676C120.666 113.054 123.314 114.808 123.035 116.147C122.749 117.502 119.589 118.174 119.173 119.479C118.749 120.801 120.98 123.011 120.426 124.273C119.865 125.545 116.628 125.618 115.943 126.827C115.254 128.039 116.984 130.622 116.176 131.761C115.364 132.903 112.176 132.38 111.251 133.439C110.326 134.501 111.491 137.35 110.46 138.319C109.433 139.288 106.411 138.193 105.285 139.065C104.163 139.934 104.717 142.943 103.506 143.709C102.299 144.472 99.5628 142.84 98.2743 143.489C96.9964 144.135 96.9187 147.188 95.5667 147.717C94.2287 148.24 91.8847 146.136 90.4832 146.536C89.0994 146.932 88.3863 149.911 86.9496 150.178C85.534 150.441 83.6701 147.944 82.2121 148.077C80.7789 148.21 79.4621 151 77.9936 151C76.525 151 75.2083 148.207 73.775 148.077C72.3136 147.944 70.4532 150.441 69.034 150.178C67.5973 149.908 66.8842 146.928 65.5004 146.536C64.0989 146.136 61.7549 148.24 60.417 147.717C59.0684 147.188 58.9908 144.135 57.7093 143.489C56.4244 142.84 53.685 144.472 52.4776 143.709C51.2668 142.943 51.821 139.934 50.6984 139.065C49.5723 138.193 46.5505 139.291 45.5232 138.319C44.496 137.35 45.6574 134.501 44.7325 133.439C43.8111 132.38 40.6199 132.903 39.8079 131.761C38.9995 130.622 40.7293 128.042 40.0409 126.827C39.3561 125.622 36.1189 125.548 35.5576 124.273C35.0034 123.011 37.2345 120.801 36.8108 119.479C36.3907 118.174 33.2313 117.502 32.9489 116.147C32.67 114.812 35.3176 113.054 35.1764 111.679C35.0352 110.327 32.0769 109.085 32.0769 107.7C32.0769 106.316 35.0387 105.074 35.1764 103.722C35.3176 102.344 32.67 100.589 32.9489 99.251C33.2348 97.896 36.3943 97.2235 36.8108 95.9185C37.2345 94.5968 35.0034 92.3862 35.5576 91.1244C36.1189 89.8526 39.3561 89.7794 40.0409 88.5709C40.7293 87.3591 38.9995 84.7756 39.8079 83.637C40.6199 82.4951 43.8076 83.0178 44.7325 81.9591C45.6574 80.8971 44.4924 78.0473 45.5232 77.0785C46.5505 76.1097 49.5723 77.205 50.6984 76.3328C51.821 75.4638 51.2668 72.4542 52.4776 71.6885C53.685 70.9261 56.4208 72.5575 57.7093 71.9083C58.9872 71.2624 59.0649 68.2095 60.417 67.6802C61.7549 67.1575 64.0989 69.2615 65.5004 68.862C66.8842 68.4659 67.5973 65.4862 69.034 65.2199C70.4496 64.9569 72.3136 67.4538 73.7715 67.3206C75.2048 67.1875 76.5215 64.3976 77.99 64.3976C79.4586 64.3976 80.7753 67.1908 82.2086 67.3206C83.6701 67.4538 85.5304 64.9569 86.9496 65.2199C88.3863 65.4896 89.0994 68.4692 90.4832 68.862C91.8847 69.2615 94.2287 67.1575 95.5667 67.6802C96.9152 68.2095 96.9928 71.2624 98.2743 71.9083C99.5593 72.5575 102.299 70.9261 103.506 71.6885C104.717 72.4542 104.163 75.4605 105.285 76.3328C106.411 77.205 109.433 76.1064 110.46 77.0785C111.488 78.0473 110.326 80.8971 111.251 81.9591C112.172 83.0178 115.364 82.4951 116.176 83.637C116.984 84.7756 115.254 87.3557 115.943 88.5709C116.628 89.7761 119.865 89.8493 120.426 91.1244C120.98 92.3862 118.749 94.5968 119.173 95.9185C119.593 97.2235 122.752 97.896 123.035 99.251C123.314 100.586 120.666 102.344 120.807 103.719C120.948 105.07 123.907 106.312 123.907 107.697Z" fill="#FFD102"/>
<path d="M112.307 95.086C106.955 82.1421 93.6112 72.9734 77.9903 72.9734C64.9817 72.9734 53.551 79.3356 47.0026 88.937C43.3136 94.3469 41.1743 100.786 41.1743 107.694C41.1743 116.696 44.8068 124.899 50.7657 131.068C57.5013 138.039 67.2021 142.414 77.9903 142.414C89.5162 142.414 99.8066 137.417 106.556 129.596C111.714 123.621 114.806 115.997 114.806 107.69C114.806 103.243 113.92 98.9911 112.303 95.0827L112.307 95.086Z" fill="#FFAF02"/>
<path d="M79.9989 140.566C68.9354 140.566 58.9804 136.079 52.0754 128.927C45.9612 122.599 42.2369 114.186 42.2369 104.951C42.2369 101.432 42.777 98.0325 43.7866 94.8231C42.1027 98.8015 41.1743 103.146 41.1743 107.694C41.1743 116.696 44.8068 124.899 50.7657 131.068C57.5013 138.039 67.2021 142.414 77.9903 142.414C87.5746 142.414 96.3047 138.958 102.857 133.299C96.5129 137.856 88.5913 140.563 79.9989 140.563V140.566Z" fill="#FFC02E"/>
<path d="M75.8895 75.1174C91.8105 75.1174 105.412 84.4658 110.866 97.6594C112.515 101.644 113.419 105.979 113.419 110.513C113.419 115.048 112.532 119.289 110.919 123.241C113.404 118.563 114.806 113.287 114.806 107.697C114.806 103.249 113.92 98.9978 112.303 95.0893C106.951 82.1454 93.6074 72.9767 77.9864 72.9767C67.4913 72.9767 58.0199 77.1183 51.3162 83.7634C57.8999 78.38 66.4887 75.1208 75.8895 75.1208V75.1174Z" fill="#FF9E02"/>
<path d="M98.6843 102.171C97.3922 101.948 95.7189 101.758 93.7809 101.605C91.6381 101.435 89.174 101.305 86.5441 101.218C85.8063 101.195 85.1567 100.749 84.9026 100.093C83.0598 95.2958 81.1041 91.0611 79.512 88.7107C78.8025 87.662 77.1715 87.662 76.4584 88.7107C74.8663 91.0577 72.9142 95.2958 71.0679 100.093C70.8173 100.749 70.1677 101.192 69.4264 101.218C64.4171 101.385 60.0044 101.705 57.2897 102.174C55.973 102.404 55.3658 103.862 56.1671 104.874C58.0134 107.204 61.2964 110.291 65.5009 113.483C66.0551 113.903 66.2951 114.592 66.1222 115.241C65.8433 116.273 65.5891 117.262 65.3596 118.204C64.6536 121.124 64.1912 123.591 63.9335 125.548C63.7605 126.87 65.1796 127.869 66.4716 127.326C69.3346 126.124 72.7836 124.669 77.055 122.272C77.6305 121.949 78.3435 121.949 78.9154 122.272C83.1869 124.669 86.6359 126.128 89.4988 127.326C90.7909 127.869 92.2135 126.87 92.037 125.548C91.6946 122.961 90.9991 119.476 89.8483 115.241C89.6718 114.592 89.9154 113.903 90.4696 113.483C94.674 110.291 97.9571 107.208 99.8033 104.874C100.605 103.862 99.9975 102.4 98.6807 102.174L98.6843 102.171Z" fill="#FDC92B"/>
</g>
<defs>
<clipPath id="clip0_3624_48277">
<rect width="133.846" height="145" fill="white" transform="translate(12 6)"/>
</clipPath>
</defs>
</svg>
