<svg width="80" height="80" viewBox="0 0 80 80" fill="none" xmlns="http://www.w3.org/2000/svg">
<g clip-path="url(#clip0_3624_48645)">
<path d="M23.2427 9.50427V28.701C23.2427 29.2607 23.4959 29.7621 23.8788 29.9591L39.2368 37.8972C39.3492 37.9554 39.4663 37.9837 39.5834 37.9837V9.50427H23.2427Z" fill="#00AD37"/>
<path d="M39.582 9.50427V37.9837C39.7007 37.9837 39.8194 37.9554 39.9318 37.8972L55.2866 29.9591C55.6695 29.7606 55.9227 29.2607 55.9227 28.701V9.50427H39.5836H39.582Z" fill="#00942F"/>
<path d="M55.6236 7H23.5404C22.6306 7 21.8931 7.69557 21.8931 8.55359V8.79387C21.8931 9.65189 22.6306 10.3475 23.5404 10.3475H55.6236C56.5335 10.3475 57.271 9.65189 57.271 8.79387V8.55359C57.271 7.69557 56.5335 7 55.6236 7Z" fill="#FFAF02"/>
<path d="M60.1651 52.5884C60.1651 53.2107 58.8374 53.7659 58.7757 54.3718C58.7124 54.9897 59.8992 55.7761 59.7742 56.3761C59.646 56.9835 58.2297 57.285 58.043 57.87C57.8531 58.4625 58.8532 59.4534 58.6048 60.019C58.3531 60.5891 56.902 60.622 56.595 61.1637C56.2864 61.7069 57.0618 62.865 56.6995 63.3754C56.3355 63.8873 54.9065 63.653 54.4919 64.1276C54.0773 64.6037 54.5995 65.8812 54.1374 66.3155C53.6769 66.7498 52.3223 66.2588 51.8175 66.6498C51.3143 67.0393 51.5627 68.3884 51.0199 68.7317C50.4787 69.0734 49.2523 68.3422 48.6747 68.6332C48.1018 68.9227 48.067 70.2912 47.4609 70.5285C46.8612 70.7628 45.8104 69.8196 45.1822 69.9987C44.5618 70.1763 44.2422 71.512 43.5981 71.6314C42.9635 71.7493 42.128 70.63 41.4744 70.6897C40.8319 70.7494 40.2416 72 39.5833 72C38.925 72 38.3348 70.7479 37.6923 70.6897C37.0371 70.63 36.2032 71.7493 35.567 71.6314C34.9229 71.5105 34.6033 70.1748 33.9829 69.9987C33.3547 69.8196 32.3039 70.7628 31.7042 70.5285C31.0997 70.2912 31.0648 68.9227 30.4904 68.6332C29.9144 68.3422 28.6864 69.0734 28.1452 68.7317C27.6024 68.3884 27.8508 67.0393 27.3476 66.6498C26.8428 66.2588 25.4882 66.7513 25.0277 66.3155C24.5672 65.8812 25.0878 64.6037 24.6732 64.1276C24.2602 63.653 22.8296 63.8873 22.4656 63.3754C22.1032 62.865 22.8787 61.7084 22.5701 61.1637C22.2631 60.6235 20.8119 60.5906 20.5603 60.019C20.3119 59.4534 21.312 58.4625 21.1221 57.87C20.9338 57.285 19.5175 56.9835 19.3909 56.3761C19.2659 55.7776 20.4527 54.9896 20.3894 54.3733C20.3261 53.7674 19 53.2107 19 52.5899C19 51.969 20.3277 51.4124 20.3894 50.8065C20.4527 50.1886 19.2659 49.4021 19.3909 48.8022C19.5191 48.1948 20.9354 47.8933 21.1221 47.3083C21.312 46.7158 20.3119 45.7248 20.5603 45.1592C20.8119 44.5891 22.2631 44.5563 22.5701 44.0145C22.8787 43.4713 22.1032 42.3132 22.4656 41.8028C22.8296 41.2909 24.2586 41.5252 24.6732 41.0506C25.0878 40.5746 24.5656 39.2971 25.0277 38.8628C25.4882 38.4285 26.8428 38.9195 27.3476 38.5285C27.8508 38.139 27.6024 36.7898 28.1452 36.4466C28.6864 36.1048 29.9128 36.8361 30.4904 36.5451C31.0633 36.2556 31.0981 34.887 31.7042 34.6497C32.3039 34.4154 33.3547 35.3586 33.9829 35.1795C34.6033 35.0019 34.9229 33.6662 35.567 33.5468C36.2016 33.4289 37.0371 34.5482 37.6907 34.4885C38.3332 34.4289 38.9234 33.1782 39.5818 33.1782C40.2401 33.1782 40.8303 34.4303 41.4728 34.4885C42.128 34.5482 42.9619 33.4289 43.5981 33.5468C44.2422 33.6677 44.5618 35.0034 45.1822 35.1795C45.8104 35.3586 46.8612 34.4154 47.4609 34.6497C48.0654 34.887 48.1002 36.2556 48.6747 36.5451C49.2507 36.8361 50.4787 36.1048 51.0199 36.4466C51.5627 36.7898 51.3143 38.1375 51.8175 38.5285C52.3223 38.9195 53.6769 38.427 54.1374 38.8628C54.5979 39.2971 54.0773 40.5746 54.4919 41.0506C54.9049 41.5252 56.3355 41.2909 56.6995 41.8028C57.0618 42.3132 56.2864 43.4698 56.595 44.0145C56.902 44.5548 58.3531 44.5876 58.6048 45.1592C58.8532 45.7248 57.8531 46.7158 58.043 47.3083C58.2313 47.8933 59.6476 48.1948 59.7742 48.8022C59.8992 49.4006 58.7124 50.1886 58.7757 50.805C58.839 51.4109 60.1651 51.9675 60.1651 52.5884Z" fill="#FFD102"/>
<path d="M54.9651 46.9351C52.5661 41.1327 46.5843 37.0226 39.5818 37.0226C33.7504 37.0226 28.6263 39.8746 25.6908 44.1786C24.0371 46.6038 23.0781 49.4901 23.0781 52.5868C23.0781 56.6223 24.7065 60.2996 27.3777 63.065C30.3971 66.1901 34.7458 68.1511 39.5818 68.1511C44.7486 68.1511 49.3616 65.911 52.3873 62.4053C54.6993 59.7265 56.0855 56.3089 56.0855 52.5853C56.0855 50.5915 55.6883 48.6857 54.9635 46.9336L54.9651 46.9351Z" fill="#FFAF02"/>
<path d="M40.4823 67.3228C35.5228 67.3228 31.0602 65.3111 27.9648 62.1054C25.224 59.2684 23.5545 55.4971 23.5545 51.3571C23.5545 49.7797 23.7966 48.2559 24.2492 46.8173C23.4943 48.6007 23.0781 50.5483 23.0781 52.5869C23.0781 56.6223 24.7065 60.2996 27.3777 63.065C30.3971 66.1901 34.7458 68.1511 39.5818 68.1511C43.8783 68.1511 47.7917 66.602 50.7288 64.0649C47.8851 66.108 44.334 67.3213 40.4823 67.3213V67.3228Z" fill="#FFC02E"/>
<path d="M38.6402 37.9837C45.7772 37.9837 51.8745 42.1743 54.3194 48.0887C55.0584 49.8751 55.4635 51.8182 55.4635 53.8509C55.4635 55.8835 55.0663 57.7848 54.3431 59.5563C55.4572 57.4595 56.0854 55.094 56.0854 52.5883C56.0854 50.5944 55.6882 48.6887 54.9635 46.9366C52.5644 41.1341 46.5826 37.024 39.5802 37.024C34.8754 37.024 30.6296 38.8806 27.6245 41.8594C30.5758 39.4462 34.426 37.9852 38.6402 37.9852V37.9837Z" fill="#FF9E02"/>
<path d="M48.8585 50.111C48.2793 50.011 47.5292 49.9259 46.6604 49.8573C45.6999 49.7811 44.5953 49.7229 43.4163 49.6841C43.0856 49.6737 42.7944 49.4737 42.6805 49.1797C41.8544 47.0292 40.9777 45.1308 40.264 44.0772C39.9459 43.6071 39.2148 43.6071 38.8952 44.0772C38.1815 45.1293 37.3064 47.0292 36.4787 49.1797C36.3664 49.4737 36.0752 49.6722 35.7429 49.6841C33.4973 49.7588 31.5192 49.902 30.3023 50.1125C29.712 50.2154 29.4399 50.8691 29.7991 51.3228C30.6267 52.3675 32.0984 53.7509 33.9832 55.1821C34.2316 55.3702 34.3392 55.6791 34.2617 55.9701C34.1367 56.4328 34.0227 56.876 33.9199 57.2984C33.6034 58.6072 33.3961 59.7131 33.2805 60.5906C33.203 61.1831 33.8392 61.6308 34.4183 61.3875C35.7017 60.8488 37.2478 60.1966 39.1626 59.1221C39.4206 58.9773 39.7402 58.9773 39.9966 59.1221C41.9114 60.1966 43.4575 60.8503 44.7409 61.3875C45.3201 61.6308 45.9578 61.1831 45.8787 60.5906C45.7252 59.431 45.4134 57.8685 44.8975 55.9701C44.8184 55.6791 44.9276 55.3702 45.176 55.1821C47.0608 53.7509 48.5325 52.369 49.3601 51.3228C49.7194 50.8691 49.4472 50.2139 48.8569 50.1125L48.8585 50.111Z" fill="#FDC92B"/>
</g>
<defs>
<clipPath id="clip0_3624_48645">
<rect width="60" height="65" fill="white" transform="translate(10 7)"/>
</clipPath>
</defs>
</svg>
