<svg width="122" height="115" viewBox="0 0 122 115" fill="none" xmlns="http://www.w3.org/2000/svg">
<g clip-path="url(#clip0_3624_48085)">
<path d="M35.4729 9.96826V40.3877C35.4729 41.2745 35.8741 42.0691 36.481 42.3813L60.8175 54.9601C60.9955 55.0523 61.1811 55.0973 61.3666 55.0973V9.96826H35.4729Z" fill="#00AD37"/>
<path d="M61.3645 9.96826V55.0973C61.5526 55.0973 61.7406 55.0523 61.9187 54.9601L86.2502 42.3813C86.857 42.0668 87.2582 41.2745 87.2582 40.3877V9.96826H61.367H61.3645Z" fill="#00942F"/>
<path d="M86.7842 6H35.9447C34.503 6 33.3342 7.1022 33.3342 8.46184V8.84259C33.3342 10.2022 34.503 11.3044 35.9447 11.3044H86.7842C88.2259 11.3044 89.3947 10.2022 89.3947 8.84259V8.46184C89.3947 7.1022 88.2259 6 86.7842 6Z" fill="#FFAF02"/>
<path d="M93.9807 78.2401C93.9807 79.2262 91.8768 80.1059 91.779 81.0661C91.6787 82.0452 93.5594 83.2914 93.3613 84.2421C93.1582 85.2046 90.9139 85.6823 90.618 86.6094C90.3171 87.5482 91.9019 89.1185 91.5082 90.0148C91.1095 90.9182 88.81 90.9702 88.3235 91.8287C87.8345 92.6895 89.0633 94.5246 88.489 95.3334C87.9123 96.1446 85.6479 95.7733 84.9909 96.5253C84.3339 97.2797 85.1614 99.3041 84.4292 99.9922C83.6994 100.68 81.5529 99.9024 80.753 100.522C79.9556 101.139 80.3493 103.277 79.4891 103.821C78.6315 104.363 76.6881 103.204 75.7728 103.665C74.8651 104.124 74.8099 106.292 73.8495 106.668C72.8991 107.04 71.234 105.545 70.2385 105.829C69.2555 106.11 68.749 108.227 67.7284 108.416C66.7228 108.603 65.3988 106.829 64.3632 106.924C63.3451 107.018 62.4097 109 61.3665 109C60.3234 109 59.388 107.016 58.3699 106.924C57.3318 106.829 56.0103 108.603 55.0022 108.416C53.9816 108.224 53.4751 106.108 52.4921 105.829C51.4965 105.545 49.8315 107.04 48.8811 106.668C47.9232 106.292 47.868 104.124 46.9577 103.665C46.045 103.204 44.099 104.363 43.2414 103.821C42.3813 103.277 42.775 101.139 41.9776 100.522C41.1777 99.9024 39.0311 100.683 38.3014 99.9922C37.5717 99.3041 38.3967 97.2797 37.7397 96.5253C37.0852 95.7733 34.8183 96.1446 34.2416 95.3334C33.6673 94.5246 34.8961 92.6918 34.4071 91.8287C33.9206 90.9726 31.6211 90.9205 31.2224 90.0148C30.8287 89.1185 32.4135 87.5482 32.1126 86.6094C31.8142 85.6823 29.5699 85.2046 29.3693 84.2421C29.1712 83.2938 31.0519 82.0451 30.9516 81.0685C30.8513 80.1083 28.7499 79.2262 28.7499 78.2424C28.7499 77.2586 30.8538 76.3765 30.9516 75.4164C31.0519 74.4373 29.1712 73.191 29.3693 72.2404C29.5724 71.2778 31.8167 70.8001 32.1126 69.8731C32.4135 68.9342 30.8287 67.364 31.2224 66.4677C31.6211 65.5643 33.9206 65.5123 34.4071 64.6538C34.8961 63.793 33.6673 61.9579 34.2416 61.1491C34.8183 60.3379 37.0827 60.7092 37.7397 59.9572C38.3967 59.2028 37.5692 57.1784 38.3014 56.4903C39.0311 55.8021 41.1777 56.5801 41.9776 55.9605C42.775 55.3433 42.3813 53.2054 43.2414 52.6615C44.099 52.12 46.0425 53.2787 46.9577 52.8176C47.8655 52.3588 47.9207 50.1902 48.8811 49.8142C49.8315 49.4429 51.4965 50.9375 52.4921 50.6537C53.4751 50.3723 53.9816 48.2557 55.0022 48.0665C56.0077 47.8797 57.3318 49.6534 58.3674 49.5588C59.3855 49.4642 60.3209 47.4824 61.364 47.4824C62.4072 47.4824 63.3426 49.4666 64.3606 49.5588C65.3988 49.6534 66.7203 47.8797 67.7284 48.0665C68.749 48.2581 69.2555 50.3747 70.2385 50.6537C71.234 50.9375 72.8991 49.4429 73.8495 49.8142C74.8074 50.1902 74.8626 52.3588 75.7728 52.8176C76.6856 53.2787 78.6315 52.12 79.4891 52.6615C80.3493 53.2054 79.9556 55.3409 80.753 55.9605C81.5529 56.5801 83.6994 55.7997 84.4292 56.4903C85.1589 57.1784 84.3339 59.2028 84.9909 59.9572C85.6454 60.7092 87.9123 60.3379 88.489 61.1491C89.0633 61.9579 87.8345 63.7906 88.3235 64.6538C88.81 65.5099 91.1095 65.5619 91.5082 66.4677C91.9019 67.364 90.3171 68.9342 90.618 69.8731C90.9164 70.8001 93.1607 71.2778 93.3613 72.2404C93.5594 73.1887 91.6787 74.4373 91.779 75.414C91.8793 76.3742 93.9807 77.2563 93.9807 78.2401Z" fill="#FFD102"/>
<path d="M85.7408 69.2818C81.9392 60.0871 72.4604 53.5742 61.3642 53.5742C52.1236 53.5742 44.0039 58.0935 39.3522 64.9138C36.7318 68.7568 35.2122 73.3304 35.2122 78.2376C35.2122 84.6322 37.7925 90.4593 42.0254 94.8414C46.8099 99.7934 53.7009 102.901 61.3642 102.901C69.5516 102.901 76.8613 99.3512 81.6559 93.7961C85.3195 89.5511 87.5162 84.1356 87.5162 78.2352C87.5162 75.0757 86.8868 72.0558 85.7383 69.2794L85.7408 69.2818Z" fill="#FFAF02"/>
<path d="M62.791 101.588C54.9321 101.588 47.8606 98.4006 42.9557 93.3209C38.6125 88.8252 35.967 82.8492 35.967 76.289C35.967 73.7893 36.3506 71.3748 37.0678 69.095C35.8717 71.9211 35.2122 75.0072 35.2122 78.2377C35.2122 84.6323 37.7925 90.4594 42.0254 94.8415C46.8099 99.7935 53.7009 102.901 61.3642 102.901C68.1724 102.901 74.3737 100.446 79.0279 96.426C74.5217 99.6635 68.8946 101.586 62.791 101.586V101.588Z" fill="#FFC02E"/>
<path d="M59.872 55.0972C71.1813 55.0972 80.8432 61.7377 84.7175 71.1098C85.8885 73.9405 86.5305 77.0196 86.5305 80.2406C86.5305 83.4615 85.9011 86.4744 84.7551 89.2815C86.5205 85.9588 87.516 82.2105 87.516 78.2399C87.516 75.0804 86.8866 72.0604 85.7381 69.2841C81.9365 60.0894 72.4577 53.5765 61.3615 53.5765C53.9063 53.5765 47.1784 56.5185 42.4164 61.2388C47.0931 57.4147 53.1941 55.0995 59.872 55.0995V55.0972Z" fill="#FF9E02"/>
<path d="M76.0641 74.3143C75.1463 74.1559 73.9577 74.0211 72.581 73.9123C71.0589 73.7917 69.3086 73.6994 67.4404 73.638C66.9163 73.6214 66.4549 73.3045 66.2744 72.8386C64.9654 69.4308 63.5762 66.4227 62.4452 64.7531C61.9412 64.0082 60.7827 64.0082 60.2761 64.7531C59.1452 66.4203 57.7585 69.4308 56.447 72.8386C56.2689 73.3045 55.8075 73.619 55.2809 73.638C51.7226 73.7562 48.5881 73.9832 46.6597 74.3167C45.7244 74.4799 45.2931 75.5157 45.8623 76.2346C47.1738 77.89 49.5059 80.0823 52.4925 82.3502C52.8862 82.6482 53.0567 83.1377 52.9338 83.5988C52.7357 84.3319 52.5551 85.0343 52.3922 85.7036C51.8906 87.7776 51.5621 89.53 51.3791 90.9205C51.2562 91.8594 52.2643 92.5688 53.1821 92.1833C55.2157 91.3296 57.6657 90.2962 60.6999 88.5935C61.1087 88.3641 61.6152 88.3641 62.0214 88.5935C65.0557 90.2962 67.5056 91.332 69.5393 92.1833C70.4571 92.5688 71.4676 91.8594 71.3423 90.9205C71.099 89.083 70.605 86.607 69.7875 83.5988C69.6622 83.1377 69.8352 82.6482 70.2289 82.3502C73.2155 80.0823 75.5476 77.8924 76.859 76.2346C77.4283 75.5157 76.997 74.4775 76.0616 74.3167L76.0641 74.3143Z" fill="#FDC92B"/>
</g>
<defs>
<clipPath id="clip0_3624_48085">
<rect width="95.0769" height="103" fill="white" transform="translate(13.75 6)"/>
</clipPath>
</defs>
</svg>
