<svg width="142" height="262" viewBox="0 0 142 262" fill="none" xmlns="http://www.w3.org/2000/svg">
<g clip-path="url(#clip0_5369_38110)">
<path d="M33.1504 17C41.8626 17 49.0441 10.4463 50.034 2H140.15V212C140.15 238.51 118.66 260 92.1504 260H50.034C49.0441 251.554 41.8626 245 33.1504 245C24.4382 245 17.2567 251.554 16.2668 260H-462.283V50C-462.283 23.5127 -440.382 2 -413.85 2H16.2668C17.2567 10.4463 24.4382 17 33.1504 17Z" fill="#EFFFF3" stroke="#5DE19C" stroke-width="4"/>
<g clip-path="url(#clip1_5369_38110)">
<path d="M103.752 81.5984C95.8096 81.5984 89.3525 75.0352 89.3525 66.9736C89.3525 58.912 95.8096 52.3488 103.752 52.3488C106.983 52.3488 110.039 53.4148 112.583 55.4241C113.86 56.4312 114.088 58.2979 113.096 59.59C112.105 60.8869 110.267 61.1178 108.995 60.1107C107.486 58.9169 105.672 58.2881 103.752 58.2881C99.0357 58.2881 95.2002 62.1838 95.2002 66.9736C95.2002 71.7634 99.0357 75.6591 103.752 75.6591C107.442 75.6591 110.591 73.2765 111.79 69.9408H105.744C104.129 69.9408 102.818 68.6095 102.818 66.9736C102.818 65.3377 104.129 64.0064 105.744 64.0064H115.229C116.845 64.0064 118.151 65.3377 118.151 66.9736C118.151 75.0401 111.694 81.5984 103.752 81.5984Z" fill="#5DE19C"/>
<path d="M65.3135 82.6301C63.7851 82.6301 62.4985 81.4265 62.397 79.8545C62.3147 78.5723 61.6376 67.175 62.929 61.9038L62.9435 61.8498C64.2108 56.1364 69.3039 52 75.079 52C81.9375 52 87.5191 57.6691 87.5191 64.6303C87.5191 68.4179 85.8649 71.8273 83.2579 74.146L87.5046 75.5461C89.0378 76.0521 89.8794 77.7273 89.3812 79.2895C88.8831 80.8468 87.2337 81.7016 85.6956 81.1956L73.4586 77.1574C72.1189 76.7153 71.2773 75.3643 71.4659 73.9446C71.6497 72.5248 72.8057 71.4441 74.2132 71.3704L74.9338 71.3311C74.9822 71.3311 75.0354 71.3311 75.0838 71.3311C78.7162 71.3311 81.6763 68.3295 81.6763 64.6352C81.6763 60.9409 78.721 57.9442 75.0838 57.9442C72.0124 57.9442 69.3087 60.15 68.6509 63.186C68.6412 63.2253 68.6316 63.2597 68.6219 63.2941L68.6025 63.3727C67.7029 67.0473 68.0366 76.2388 68.2398 79.4713C68.3462 81.1072 67.1225 82.522 65.5118 82.6252C65.449 82.6252 65.3813 82.6301 65.3184 82.6301H65.3135Z" fill="#5DE19C"/>
<path d="M90.2034 93.1332C89.9325 93.1332 89.6568 93.0644 89.415 92.9318C80.2832 88.0241 65.4343 92.1949 65.2844 92.2342C64.4138 92.4847 63.4996 91.9935 63.2481 91.1387C62.9918 90.2839 63.4948 89.3898 64.3606 89.1393C65.0087 88.9526 79.9591 84.7572 90.2614 89.7288C93.1393 88.5694 103.514 85.0864 116.007 89.2621C116.868 89.547 117.328 90.4657 117.033 91.3057C116.738 92.1507 115.809 92.5977 114.948 92.3128C101.783 87.9111 91.0304 92.9121 90.9192 92.9662C90.6919 93.0743 90.4452 93.1283 90.2034 93.1283V93.1332Z" fill="#5DE19C"/>
<path d="M90.2279 87.7932C90.1553 87.7932 90.0779 87.7785 90.0102 87.7441C79.5919 82.7185 64.3561 86.9826 63.7128 87.1644C63.4419 87.243 63.1614 87.0809 63.084 86.8058C63.0066 86.5307 63.1662 86.2457 63.4371 86.1671C63.8772 86.0443 67.8821 84.9292 73.1299 84.4674C80.0175 83.8582 85.7732 84.6148 90.2472 86.7124C93.5217 85.4302 104.163 82.0553 116.883 86.3047C117.149 86.3931 117.294 86.6879 117.207 86.9581C117.12 87.2283 116.83 87.3756 116.564 87.2872C103.887 83.0525 93.3476 86.5749 90.4165 87.7539C90.3585 87.7785 90.2908 87.7883 90.2279 87.7883V87.7932Z" fill="#5DE19C"/>
</g>
<line x1="34.1504" y1="28" x2="34.1504" y2="233" stroke="#5DE19C" stroke-width="2" stroke-linecap="round" stroke-dasharray="5 5"/>
</g>
<defs>
<clipPath id="clip0_5369_38110">
<rect width="142" height="262" fill="white"/>
</clipPath>
<clipPath id="clip1_5369_38110">
<rect width="56" height="43" fill="white" transform="translate(62.1504 52)"/>
</clipPath>
</defs>
</svg>
