<svg width="132" height="262" viewBox="0 0 132 262" fill="none" xmlns="http://www.w3.org/2000/svg">
<g clip-path="url(#clip0_5369_38112)">
<path d="M23.1504 17C31.8626 17 39.0441 10.4463 40.034 2H130.15V212C130.15 238.51 108.66 260 82.1504 260H40.034C39.0441 251.554 31.8626 245 23.1504 245C14.4382 245 7.25665 251.554 6.26678 260H-472.283V50C-472.283 23.5127 -450.382 2 -423.85 2H6.26678C7.25665 10.4463 14.4382 17 23.1504 17Z" fill="#F2FAFD" stroke="#3CB8FF" stroke-width="4"/>
<g clip-path="url(#clip1_5369_38112)">
<path d="M93.7516 81.5984C85.8096 81.5984 79.3525 75.0352 79.3525 66.9736C79.3525 58.912 85.8096 52.3488 93.7516 52.3488C96.9825 52.3488 100.039 53.4148 102.583 55.4241C103.86 56.4312 104.088 58.298 103.096 59.59C102.105 60.8869 100.267 61.1178 98.9946 60.1107C97.4855 58.9169 95.6718 58.2881 93.7516 58.2881C89.0357 58.2881 85.2002 62.1838 85.2002 66.9736C85.2002 71.7634 89.0357 75.6591 93.7516 75.6591C97.442 75.6591 100.591 73.2765 101.79 69.9408H95.7443C94.1288 69.9408 92.8181 68.6095 92.8181 66.9736C92.8181 65.3377 94.1288 64.0064 95.7443 64.0064H105.229C106.845 64.0064 108.151 65.3377 108.151 66.9736C108.151 75.0401 101.694 81.5984 93.7516 81.5984Z" fill="#3CB8FF"/>
<path d="M55.3135 82.6301C53.7851 82.6301 52.4985 81.4265 52.397 79.8545C52.3147 78.5723 51.6376 67.175 52.929 61.9038L52.9435 61.8498C54.2108 56.1364 59.3039 52 65.079 52C71.9375 52 77.5191 57.6691 77.5191 64.6303C77.5191 68.4179 75.8649 71.8273 73.2579 74.146L77.5046 75.5461C79.0378 76.0521 79.8794 77.7273 79.3812 79.2895C78.8831 80.8468 77.2337 81.7016 75.6956 81.1956L63.4586 77.1574C62.1189 76.7153 61.2773 75.3643 61.4659 73.9446C61.6497 72.5248 62.8057 71.4441 64.2132 71.3704L64.9338 71.3311C64.9822 71.3311 65.0354 71.3311 65.0838 71.3311C68.7162 71.3311 71.6763 68.3295 71.6763 64.6352C71.6763 60.9409 68.721 57.9442 65.0838 57.9442C62.0124 57.9442 59.3087 60.15 58.6509 63.186C58.6412 63.2253 58.6316 63.2597 58.6219 63.2941L58.6025 63.3727C57.7029 67.0473 58.0366 76.2388 58.2398 79.4713C58.3462 81.1072 57.1225 82.522 55.5118 82.6252C55.449 82.6252 55.3813 82.6301 55.3184 82.6301H55.3135Z" fill="#3CB8FF"/>
<path d="M80.2034 93.1332C79.9325 93.1332 79.6568 93.0644 79.415 92.9318C70.2832 88.0241 55.4343 92.1949 55.2844 92.2342C54.4138 92.4848 53.4996 91.9935 53.2481 91.1387C52.9918 90.2839 53.4948 89.3898 54.3606 89.1393C55.0087 88.9526 69.9591 84.7572 80.2614 89.7288C83.1393 88.5694 93.5141 85.0864 106.007 89.2621C106.868 89.547 107.328 90.4657 107.033 91.3057C106.738 92.1507 105.809 92.5977 104.948 92.3128C91.7826 87.9111 81.0304 92.9121 80.9192 92.9662C80.6919 93.0743 80.4452 93.1283 80.2034 93.1283V93.1332Z" fill="#3CB8FF"/>
<path d="M80.2279 87.7932C80.1553 87.7932 80.0779 87.7785 80.0102 87.7441C69.5919 82.7185 54.3561 86.9826 53.7128 87.1644C53.4419 87.243 53.1614 87.0809 53.084 86.8058C53.0066 86.5307 53.1662 86.2457 53.4371 86.1671C53.8772 86.0443 57.8821 84.9292 63.1299 84.4674C70.0175 83.8582 75.7732 84.6148 80.2472 86.7124C83.5217 85.4303 94.1626 82.0553 106.883 86.3047C107.149 86.3931 107.294 86.6879 107.207 86.9581C107.12 87.2283 106.83 87.3756 106.564 87.2872C93.8869 83.0526 83.3476 86.5749 80.4165 87.7539C80.3585 87.7785 80.2908 87.7883 80.2279 87.7883V87.7932Z" fill="#3CB8FF"/>
</g>
<line x1="24.1504" y1="28" x2="24.1504" y2="233" stroke="#3FBBF9" stroke-width="2" stroke-linecap="round" stroke-dasharray="5 5"/>
</g>
<defs>
<clipPath id="clip0_5369_38112">
<rect width="132" height="262" fill="white"/>
</clipPath>
<clipPath id="clip1_5369_38112">
<rect width="56" height="43" fill="white" transform="translate(52.1504 52)"/>
</clipPath>
</defs>
</svg>
