<svg width="50" height="50" viewBox="0 0 50 50" fill="none" xmlns="http://www.w3.org/2000/svg">
<rect width="50" height="50" rx="25" fill="#FF274F"/>
<path d="M47.1001 27.0365C47.1001 24.2632 45.0155 22.105 42.2977 22.105C39.5803 22.105 37.4795 24.2627 37.4795 27.0365C37.4795 29.8248 39.5783 32.0505 42.2977 32.0505C45.0175 32.0505 47.1001 29.8243 47.1001 27.0365ZM40.4344 27.0365C40.4344 25.7571 41.2272 24.8444 42.2977 24.8444C43.3365 24.8444 44.1451 25.7571 44.1451 27.0365C44.1451 28.3369 43.3328 29.3111 42.2977 29.3111C41.231 29.3111 40.4344 28.3369 40.4344 27.0365Z" fill="white" stroke="white" stroke-width="0.2"/>
<path d="M27.4877 31.8856H30.686C32.7617 31.8856 34.3544 31.15 35.4267 29.8987C36.4971 28.6495 37.04 26.8968 37.04 24.8763C37.04 22.8559 36.4971 21.1113 35.4285 19.8703C34.3581 18.6272 32.7694 17.9 30.7018 17.9H27.4877C26.9887 17.9 26.5658 18.0738 26.2677 18.3842C25.97 18.6943 25.8044 19.1328 25.8044 19.649V30.1366C25.8044 30.6529 25.97 31.0913 26.2677 31.4014C26.5658 31.7119 26.9887 31.8856 27.4877 31.8856ZM28.8227 29.0802V20.7054H30.4643C31.7721 20.7054 32.6536 21.1137 33.2118 21.8255C33.7737 22.5422 34.0217 23.5835 34.0217 24.8763C34.0217 26.1688 33.7699 27.2187 33.2056 27.9439C32.6451 28.6643 31.7633 29.0802 30.4643 29.0802H28.8227Z" fill="white" stroke="white" stroke-width="0.2"/>
<path d="M25.0576 27.0365C25.0576 24.2632 22.9731 22.105 20.2552 22.105C17.5378 22.105 15.437 24.2627 15.437 27.0365C15.437 29.8248 17.5358 32.0505 20.2552 32.0505C22.975 32.0505 25.0576 29.8243 25.0576 27.0365ZM18.3919 27.0365C18.3919 25.7571 19.1847 24.8444 20.2552 24.8444C21.294 24.8444 22.1027 25.7571 22.1027 27.0365C22.1027 28.3369 21.2903 29.3111 20.2552 29.3111C19.1885 29.3111 18.3919 28.3369 18.3919 27.0365Z" fill="white" stroke="white" stroke-width="0.2"/>
<path d="M5.13997 20.7054H8.11156V30.5984C8.11156 31.5177 8.81233 32.1 9.65236 32.1C10.4924 32.1 11.1932 31.5177 11.1932 30.5984V20.7054H14.1647C14.9182 20.7054 15.4047 19.9983 15.4047 19.3027C15.4047 18.5898 14.9175 17.9 14.1647 17.9H5.13997C4.38647 17.9 3.9 18.6071 3.9 19.3027C3.9 20.0156 4.38718 20.7054 5.13997 20.7054Z" fill="white" stroke="white" stroke-width="0.2"/>
</svg>
