<svg width="50" height="49" viewBox="0 0 50 49" fill="none" xmlns="http://www.w3.org/2000/svg">
<rect width="50" height="49" rx="24.5" fill="#FF274F"/>
<path d="M36.9199 20.2577L38.6148 26.2826L40.3555 19.1077C40.5387 18.3303 41.2411 17.9092 41.974 18.0874C42.7986 18.2817 43.1345 19.1077 42.9513 19.8204L39.9737 30.9956C39.8058 31.6111 39.3019 31.9998 38.7522 31.9998C38.2025 31.9998 37.7444 31.6597 37.5459 30.9956L35.6067 24.2419L33.7591 30.9795C33.5758 31.6597 33.1025 31.9998 32.5528 31.9998C32.0031 31.9998 31.4992 31.6111 31.3312 30.9956L28.2621 19.8204C28.0788 19.1401 28.4147 18.2817 29.2393 18.0874C29.9722 17.9092 30.6746 18.3141 30.8579 19.1077L32.5833 26.2826L34.2782 20.2577C34.4615 19.5936 35.0112 19.1887 35.6067 19.1887C36.1869 19.1887 36.7213 19.5774 36.9199 20.2577Z" fill="white"/>
<path d="M27.5598 19.9987L22.0628 31.2388C21.7116 31.9676 21.0092 32.162 20.3374 31.7895C19.6655 31.4169 19.4059 30.7205 19.7724 29.9755L25.2694 18.7354C25.6206 18.0066 26.323 17.8122 26.9949 18.1848C27.6667 18.5573 27.9263 19.2537 27.5598 19.9987Z" fill="white"/>
<path d="M9.74851 26.218V30.5909C9.74851 31.4331 9.13773 31.9676 8.37425 31.9676C7.61078 31.9676 7 31.4331 7 30.5909V19.3833C7 18.5411 7.61078 18.0066 8.37425 18.0066C9.13773 18.0066 9.74851 18.5411 9.74851 19.3833V23.6266H15.1692V19.3833C15.1692 18.5411 15.78 18.0066 16.5434 18.0066C17.3069 18.0066 17.9177 18.5411 17.9177 19.3833V30.5909C17.9177 31.4331 17.3069 31.9676 16.5434 31.9676C15.78 31.9676 15.1692 31.4331 15.1692 30.5909V26.218H9.74851Z" fill="white"/>
</svg>
