<svg width="50" height="50" viewBox="0 0 50 50" fill="none" xmlns="http://www.w3.org/2000/svg">
<rect width="50" height="50" rx="25" fill="#3AB6FF"/>
<path d="M33.1175 27.8993H34.8535V23.8183H33.1175C31.7071 23.8183 31.1465 24.6235 31.1465 25.8863C31.1465 27.1124 31.7071 27.8993 33.1175 27.8993ZM34.8535 30.8641V30.7176H32.9005C29.7902 30.7176 28 28.7412 28 25.8863C28 22.9765 29.7902 21 32.9005 21H35.9385C37.2767 21 38 21.7137 38 23.1046V30.7176C38 33.6092 36.1555 35 33.3165 35C32.5027 35 31.1284 34.9085 30.2785 34.5791C29.519 34.2863 29.2477 33.5725 29.4286 32.8771C29.6094 32.2 30.1881 31.6693 30.9837 31.8889C31.5986 32.0536 32.4304 32.1817 33.2803 32.1817C34.1664 32.1817 34.8535 31.7425 34.8535 30.8641Z" fill="white"/>
<path d="M27 25.1111V30.463C27 31.4259 26.3534 32 25.4796 32C24.6058 32 23.9592 31.4259 23.9592 30.463V25.4444C23.9592 24.5185 23.3825 23.8519 22.5087 23.8519C21.6524 23.8519 21.0408 24.5 21.0408 25.3889V30.463C21.0408 31.4259 20.3942 32 19.5204 32C18.6466 32 18 31.4259 18 30.463V22.537C18 21.5741 18.6466 21 19.5204 21C20.2369 21 20.8136 21.4074 20.9883 22.0741C21.4951 21.3519 22.3864 21 23.3476 21C25.2175 21 27 22.1481 27 25.1111Z" fill="white"/>
<path d="M15.7228 22.5151V30.4594C15.7228 31.4246 14.9901 32 14 32C13.0099 32 12.2772 31.4246 12.2772 30.4594V22.5151C12.2772 21.5499 13.0099 20.9745 14 20.9745C14.9901 20.9745 15.7228 21.5499 15.7228 22.5151ZM12 17.8747C12 16.8538 12.9109 16 14 16C15.0891 16 16 16.8538 16 17.8747C16 18.8956 15.0891 19.7494 14 19.7494C12.9109 19.7494 12 18.8956 12 17.8747Z" fill="white"/>
</svg>
