<svg width="50" height="50" viewBox="0 0 50 50" fill="none" xmlns="http://www.w3.org/2000/svg">
<g filter="url(#filter0_b_1686_19181)">
<path d="M50 0H20C8.9543 0 0 8.95431 0 20V50H30C41.0457 50 50 41.0457 50 30V0Z" fill="#3AB6FF"/>
<path d="M49.5 0.5H20C9.23045 0.5 0.5 9.23045 0.5 20V49.5H30C40.7696 49.5 49.5 40.7696 49.5 30V0.5Z" stroke="#3AB6FF"/>
</g>
<path d="M25.9068 34.7385C24.3554 33.9225 22.7778 33.1401 21.1696 32.789C20.0437 32.543 18.9036 32.6026 17.7473 32.6629C17.1739 32.6929 16.5965 32.723 16.015 32.7162L16.015 16.6022C16.5755 16.6082 17.1353 16.5713 17.6945 16.5345C18.7553 16.4646 19.8138 16.3949 20.8701 16.6183C22.5457 16.9726 24.2231 17.7935 25.9068 18.7338L25.9068 34.7385Z" fill="white"/>
<path d="M38.7816 35.1667L38.7816 19.0533L37.4305 19.0526L37.4305 33.526C36.7974 33.526 36.1749 33.4883 35.5575 33.4509C34.2445 33.3714 32.9542 33.2932 31.6325 33.582C30.4048 33.8501 29.1974 34.4325 28.0089 35.0058L28.0067 35.0069C27.8959 35.0603 27.7852 35.1137 27.6747 35.1667L38.7816 35.1667Z" fill="white"/>
<path d="M24.6227 35.006C23.4341 34.4327 22.2264 33.8501 20.9974 33.5819C19.6756 33.2932 18.3854 33.372 17.0724 33.4515C16.4549 33.4889 15.8325 33.5266 15.1993 33.5266L15.1993 19.0532L13.8483 19.0532L13.8483 35.1667H24.9564C24.8453 35.1134 24.7341 35.0597 24.6227 35.006Z" fill="white"/>
<path d="M26.7224 34.7379C26.7222 34.738 26.7226 34.7378 26.7224 34.7379V34.7379Z" fill="white"/>
<path d="M26.7224 18.7338L26.7224 34.7379C28.273 33.9226 29.8504 33.1407 31.4596 32.789C32.6237 32.5348 33.8099 32.5971 35.0053 32.6599C35.5401 32.688 36.0769 32.7162 36.6143 32.7162L36.6143 16.6022C36.0535 16.6082 35.4935 16.5713 34.9343 16.5345C33.8736 16.4646 32.8154 16.3949 31.7592 16.6183C30.0836 16.9726 28.4061 17.7942 26.7224 18.7338Z" fill="white"/>
<path d="M30.3572 24.6192V24.5509L30.1176 24.4047L24.6722 21.0818L24.6722 21.0818L24.6688 21.0798C24.0327 20.6985 23.3215 21.2083 23.3215 21.8704V28.5163C23.3215 29.1785 24.0327 29.6883 24.6688 29.307L24.6688 29.307L24.6722 29.3049L30.1162 25.9828C30.605 25.6882 30.6853 25.0325 30.3572 24.6192Z" fill="#3AB6FF" stroke="white"/>
<defs>
<filter id="filter0_b_1686_19181" x="-510" y="-510" width="1070" height="1070" filterUnits="userSpaceOnUse" color-interpolation-filters="sRGB">
<feFlood flood-opacity="0" result="BackgroundImageFix"/>
<feGaussianBlur in="BackgroundImageFix" stdDeviation="255"/>
<feComposite in2="SourceAlpha" operator="in" result="effect1_backgroundBlur_1686_19181"/>
<feBlend mode="normal" in="SourceGraphic" in2="effect1_backgroundBlur_1686_19181" result="shape"/>
</filter>
</defs>
</svg>
