<svg width="50" height="50" viewBox="0 0 50 50" fill="none" xmlns="http://www.w3.org/2000/svg">
<rect width="50" height="50" rx="25" fill="#FF7A00"/>
<path d="M12 34.4868V23.2868C12 22.9921 12.1105 22.7158 12.3316 22.4947C12.5526 22.2737 12.8105 22.1632 13.1237 22.1632H18.1711C18.4658 22.1632 18.7421 22.2737 18.9632 22.4947C19.1842 22.7158 19.2947 22.9737 19.2947 23.2868V34.4868C19.2947 34.7816 19.1842 35.0579 18.9632 35.2789C18.7421 35.5 18.4842 35.6105 18.1711 35.6105H13.1237C12.8289 35.6105 12.5526 35.5 12.3316 35.2789C12.1105 35.0579 12 34.8 12 34.4868ZM14.2474 32.2579C14.2474 32.5711 14.3579 32.8474 14.5789 33.05C14.8 33.2711 15.0579 33.3816 15.3711 33.3816C15.6658 33.3816 15.9421 33.2711 16.1632 33.05C16.3842 32.8289 16.4947 32.5711 16.4947 32.2579C16.4947 31.9632 16.3842 31.6868 16.1632 31.4658C15.9421 31.2447 15.6842 31.1342 15.3711 31.1342C15.0579 31.1342 14.7816 31.2447 14.5789 31.4658C14.3579 31.6868 14.2474 31.9447 14.2474 32.2579ZM20.4 34.4868V23.2684C20.4 22.9737 20.5105 22.7158 20.7132 22.5132C20.9158 22.2921 21.1737 22.1816 21.4684 22.1632C21.7447 22.1447 22.1868 21.7947 22.7947 21.1316C23.4026 20.4684 23.9921 19.7684 24.5632 19.0132C25.3553 18 25.9447 17.3 26.3316 16.9132C26.5342 16.7105 26.7184 16.4158 26.8658 16.0658C27.0132 15.7158 27.1237 15.4395 27.1789 15.2184C27.2342 14.9974 27.3079 14.6474 27.4184 14.1684C27.4921 13.7079 27.5658 13.3579 27.6395 13.1C27.6947 12.8421 27.8237 12.5474 27.9895 12.1974C28.1553 11.8474 28.3579 11.5526 28.5789 11.3316C28.8 11.1105 29.0579 11 29.3711 11C29.9053 11 30.3842 11.0553 30.8079 11.1842C31.2316 11.3132 31.5816 11.4605 31.8579 11.6447C32.1342 11.8289 32.3737 12.0684 32.5579 12.3447C32.7421 12.6395 32.8895 12.8974 32.9816 13.1368C33.0737 13.3763 33.1474 13.6526 33.1842 14.0026C33.2395 14.3526 33.2579 14.6105 33.2763 14.7947V15.4763C33.2763 15.9184 33.2211 16.3605 33.1105 16.8026C33 17.2447 32.8895 17.5947 32.7789 17.8526C32.6684 18.1105 32.5026 18.4421 32.3 18.8289C32.2632 18.9026 32.2079 18.9947 32.1342 19.1421C32.0605 19.2895 31.9868 19.4184 31.95 19.5289C31.8947 19.6395 31.8579 19.7868 31.8026 19.9526H36.6474C37.55 19.9526 38.3421 20.2842 39.0053 20.9474C39.6684 21.6105 40 22.4026 40 23.3053C40 24.3 39.6868 25.1842 39.0421 25.9211C39.2079 26.4368 39.3 26.8789 39.3 27.2474C39.3368 28.1316 39.0789 28.9421 38.5447 29.6421C38.7474 30.2868 38.7474 30.9868 38.5447 31.6868C38.3789 32.35 38.0474 32.9026 37.6053 33.3263C37.7158 34.6342 37.4211 35.6842 36.7395 36.4947C35.9842 37.3789 34.8421 37.8395 33.2947 37.8579H31.0474C30.2737 37.8579 29.4447 37.7658 28.5237 37.5816C27.6211 37.3974 26.9026 37.2316 26.4053 37.0658C25.8895 36.9 25.1895 36.6789 24.3053 36.3658C22.8684 35.8684 21.9474 35.6105 21.5421 35.5921C21.2474 35.5737 20.9711 35.4632 20.75 35.2421C20.5105 35.0579 20.4 34.8 20.4 34.4868Z" fill="white"/>
</svg>
