<svg width="50" height="50" viewBox="0 0 50 50" fill="none" xmlns="http://www.w3.org/2000/svg">
<rect width="50" height="50" rx="25" fill="#2CCD70"/>
<path d="M16 34.4868V23.2868C16 22.9921 16.1105 22.7158 16.3316 22.4947C16.5526 22.2737 16.8105 22.1632 17.1237 22.1632H22.1711C22.4658 22.1632 22.7421 22.2737 22.9632 22.4947C23.1842 22.7158 23.2947 22.9737 23.2947 23.2868V34.4868C23.2947 34.7816 23.1842 35.0579 22.9632 35.2789C22.7421 35.5 22.4842 35.6105 22.1711 35.6105H17.1237C16.8289 35.6105 16.5526 35.5 16.3316 35.2789C16.1105 35.0579 16 34.8 16 34.4868ZM18.2474 32.2579C18.2474 32.5711 18.3579 32.8474 18.5789 33.05C18.8 33.2711 19.0579 33.3816 19.3711 33.3816C19.6658 33.3816 19.9421 33.2711 20.1632 33.05C20.3842 32.8289 20.4947 32.5711 20.4947 32.2579C20.4947 31.9632 20.3842 31.6868 20.1632 31.4658C19.9421 31.2447 19.6842 31.1342 19.3711 31.1342C19.0579 31.1342 18.7816 31.2447 18.5789 31.4658C18.3579 31.6868 18.2474 31.9447 18.2474 32.2579ZM24.4 34.4868V23.2684C24.4 22.9737 24.5105 22.7158 24.7132 22.5132C24.9158 22.2921 25.1737 22.1816 25.4684 22.1632C25.7447 22.1447 26.1868 21.7947 26.7947 21.1316C27.4026 20.4684 27.9921 19.7684 28.5632 19.0132C29.3553 18 29.9447 17.3 30.3316 16.9132C30.5342 16.7105 30.7184 16.4158 30.8658 16.0658C31.0132 15.7158 31.1237 15.4395 31.1789 15.2184C31.2342 14.9974 31.3079 14.6474 31.4184 14.1684C31.4921 13.7079 31.5658 13.3579 31.6395 13.1C31.6947 12.8421 31.8237 12.5474 31.9895 12.1974C32.1553 11.8474 32.3579 11.5526 32.5789 11.3316C32.8 11.1105 33.0579 11 33.3711 11C33.9053 11 34.3842 11.0553 34.8079 11.1842C35.2316 11.3132 35.5816 11.4605 35.8579 11.6447C36.1342 11.8289 36.3737 12.0684 36.5579 12.3447C36.7421 12.6395 36.8895 12.8974 36.9816 13.1368C37.0737 13.3763 37.1474 13.6526 37.1842 14.0026C37.2395 14.3526 37.2579 14.6105 37.2763 14.7947V15.4763C37.2763 15.9184 37.2211 16.3605 37.1105 16.8026C37 17.2447 36.8895 17.5947 36.7789 17.8526C36.6684 18.1105 36.5026 18.4421 36.3 18.8289C36.2632 18.9026 36.2079 18.9947 36.1342 19.1421C36.0605 19.2895 35.9868 19.4184 35.95 19.5289C35.8947 19.6395 35.8579 19.7868 35.8026 19.9526H40.6474C41.55 19.9526 42.3421 20.2842 43.0053 20.9474C43.6684 21.6105 44 22.4026 44 23.3053C44 24.3 43.6868 25.1842 43.0421 25.9211C43.2079 26.4368 43.3 26.8789 43.3 27.2474C43.3368 28.1316 43.0789 28.9421 42.5447 29.6421C42.7474 30.2868 42.7474 30.9868 42.5447 31.6868C42.3789 32.35 42.0474 32.9026 41.6053 33.3263C41.7158 34.6342 41.4211 35.6842 40.7395 36.4947C39.9842 37.3789 38.8421 37.8395 37.2947 37.8579H35.0474C34.2737 37.8579 33.4447 37.7658 32.5237 37.5816C31.6211 37.3974 30.9026 37.2316 30.4053 37.0658C29.8895 36.9 29.1895 36.6789 28.3053 36.3658C26.8684 35.8684 25.9474 35.6105 25.5421 35.5921C25.2474 35.5737 24.9711 35.4632 24.75 35.2421C24.5105 35.0579 24.4 34.8 24.4 34.4868Z" fill="white"/>
<path d="M8.9325 32.6964L8.92482 32.6888L8.91681 32.6814C8.81063 32.5841 8.74737 32.4474 8.74737 32.2579C8.74737 32.0815 8.80222 31.9496 8.9325 31.8193L8.94018 31.8117L8.94752 31.8037C9.04486 31.6975 9.18156 31.6342 9.37105 31.6342C9.54743 31.6342 9.67933 31.6891 9.8096 31.8193C9.93671 31.9464 9.99474 32.0955 9.99474 32.2579C9.99474 32.4343 9.93988 32.5662 9.8096 32.6964C9.6825 32.8235 9.53344 32.8816 9.37105 32.8816C9.19467 32.8816 9.06278 32.8267 8.9325 32.6964ZM30.6474 19.4526H26.5375C26.5506 19.4269 26.5652 19.3981 26.5814 19.3657C26.6144 19.2997 26.6435 19.2457 26.6699 19.1973C26.6738 19.1902 26.6778 19.1828 26.682 19.1752C26.7026 19.1374 26.7256 19.0955 26.7449 19.0571C26.9475 18.6704 27.1202 18.3256 27.2385 18.0496C27.364 17.7569 27.4821 17.378 27.5956 16.9239C27.7157 16.4434 27.7763 15.9605 27.7763 15.4763V14.7947V14.7698L27.7738 14.745C27.7706 14.7128 27.7673 14.6768 27.7636 14.6372C27.7479 14.4676 27.726 14.2309 27.6801 13.9373C27.6381 13.5488 27.5546 13.2338 27.4483 12.9574C27.3378 12.6701 27.1682 12.3779 26.9819 12.0797L26.978 12.0735L26.9739 12.0674C26.7531 11.7361 26.4665 11.4495 26.1352 11.2287C25.8023 11.0067 25.401 10.8421 24.9535 10.7059C24.4687 10.5583 23.9376 10.5 23.3711 10.5C22.9211 10.5 22.5372 10.6662 22.2254 10.978C21.957 11.2465 21.7234 11.5911 21.5376 11.9833C21.3772 12.322 21.2252 12.6604 21.1543 12.9781C21.0755 13.2574 21.0004 13.6187 20.9274 14.0725C20.8783 14.2854 20.8377 14.4673 20.8031 14.6224C20.7586 14.8215 20.724 14.9767 20.6939 15.0972C20.6495 15.2745 20.555 15.5154 20.405 15.8718C20.274 16.1827 20.1214 16.4162 19.978 16.5596C19.5676 16.9701 18.9617 17.6916 18.1693 18.7052L18.1692 18.7052L18.1643 18.7116C17.6036 19.4533 17.0243 20.1412 16.4262 20.7937C16.1305 21.1162 15.8893 21.3468 15.6994 21.4951C15.5389 21.6206 15.4562 21.6539 15.4361 21.662C15.4307 21.6642 15.4299 21.6646 15.4333 21.6644C15.0283 21.6906 14.6489 21.8475 14.352 22.1673C14.0621 22.461 13.9 22.8424 13.9 23.2684V34.4868C13.9 34.9213 14.0575 35.3269 14.4192 35.618C14.7309 35.9185 15.1166 36.0665 15.5109 36.0911L15.5109 36.0912L15.5194 36.0916C15.6594 36.098 15.9422 36.1521 16.402 36.2808C16.8486 36.4059 17.427 36.5909 18.14 36.8377C18.9396 37.1208 19.5905 37.3296 20.0869 37.4887C20.1432 37.5068 20.1975 37.5242 20.2498 37.541C20.7789 37.7171 21.5233 37.8877 22.4237 38.0715L22.4256 38.0719C23.3715 38.261 24.2339 38.3579 25.0474 38.3579H27.2947V38.3579L27.3007 38.3579C28.9459 38.3383 30.2443 37.8442 31.1197 36.8195L31.1222 36.8165C31.8628 35.9357 32.1863 34.8252 32.1192 33.5158C32.5431 33.055 32.8597 32.4823 33.0275 31.8171C33.228 31.1194 33.2521 30.4109 33.0903 29.7396C33.5928 28.9974 33.8359 28.1489 33.8 27.2367C33.7985 26.8692 33.7226 26.464 33.5984 26.0313C34.206 25.243 34.5 24.3178 34.5 23.3053C34.5 22.2659 34.1128 21.3477 33.3588 20.5938C32.6049 19.8399 31.6868 19.4526 30.6474 19.4526ZM5.5 23.2868V34.4868C5.5 34.9368 5.6662 35.3207 5.97803 35.6325C6.29303 35.9475 6.6966 36.1105 7.12368 36.1105H12.1711C12.621 36.1105 13.0049 35.9443 13.3167 35.6325C13.6317 35.3175 13.7947 34.9139 13.7947 34.4868V23.2868C13.7947 22.8369 13.6285 22.453 13.3167 22.1412C13.0017 21.8262 12.5981 21.6632 12.1711 21.6632H7.12368C6.67375 21.6632 6.28985 21.8294 5.97803 22.1412C5.66302 22.4562 5.5 22.8598 5.5 23.2868Z" fill="white" stroke="#2CCD70"/>
</svg>
