<svg width="186" height="180" viewBox="0 0 186 180" fill="none" xmlns="http://www.w3.org/2000/svg">
<g clip-path="url(#clip0_2238_50075)">
<path d="M165.437 149.267C196.01 149.267 220.795 124.704 220.795 94.404C220.795 64.104 196.01 39.541 165.437 39.541C134.864 39.541 110.079 64.104 110.079 94.404C110.079 124.704 134.864 149.267 165.437 149.267Z" fill="#C00567"/>
<path d="M169.793 -2.90576H161.079V42.3638H169.793V-2.90576Z" fill="#34906D"/>
<path fill-rule="evenodd" clip-rule="evenodd" d="M176.929 39.1173L176.908 39.1381L171.427 33.7067L173.903 31.253C175.726 29.4463 177.576 27.038 180.073 26.2453C180.825 26.0069 181.628 25.8764 182.461 25.8764C186.782 25.8764 190.285 29.3479 190.285 33.631C190.285 37.9141 186.782 41.3856 182.461 41.3856C180.3 41.3856 178.343 40.5173 176.927 39.1135L176.929 39.1173ZM165.771 51.7169C166.928 54.199 168.365 56.4843 170.091 58.4953C174.583 63.7262 180.903 67.0426 189.18 67.1731V59.1196C183.537 58.9985 179.269 56.7756 176.272 53.2852C174.546 51.2761 173.203 48.8337 172.225 46.1076C175.104 48.4289 178.715 49.7116 182.461 49.7116C191.421 49.7116 198.684 42.5131 198.684 33.6348C198.684 24.7564 191.421 17.5562 182.461 17.5562C178.158 17.5562 174.031 19.2493 170.99 22.2649L165.435 27.7701L159.88 22.2649C156.838 19.2493 152.713 17.5562 148.41 17.5562C139.45 17.5562 132.186 24.7546 132.186 33.6348C132.186 42.515 139.45 49.7116 148.41 49.7116C152.697 49.7116 156.811 48.0278 159.852 45.0331C159.329 46.6392 158.682 48.1565 157.905 49.5602C155.816 53.3325 152.778 56.2459 148.727 57.6667C147.595 58.064 146.387 58.3515 145.104 58.5161V66.4826C145.171 66.4769 145.237 66.4731 145.304 66.4656C147.492 66.2518 149.519 65.8034 151.39 65.147C157.449 63.0206 161.921 58.7999 164.922 53.3779C165.222 52.8369 165.506 52.2844 165.775 51.7188L165.771 51.7169ZM159.443 33.7067L153.963 39.1381L153.942 39.1173C152.526 40.5211 150.569 41.3894 148.408 41.3894C144.086 41.3894 140.584 37.9179 140.584 33.6348C140.584 29.3517 144.086 25.8802 148.408 25.8802C149.24 25.8802 150.044 26.0088 150.796 26.2491C153.293 27.0418 155.143 29.4501 156.966 31.2568L159.441 33.7105L159.443 33.7067Z" fill="#34906D"/>
<path d="M73.2307 151.272C89.9836 134.669 89.9836 107.749 73.2307 91.1463C56.4779 74.5431 29.3162 74.5431 12.5633 91.1463C-4.18952 107.749 -4.18952 134.669 12.5633 151.272C29.3162 167.875 56.4779 167.875 73.2307 151.272Z" fill="#C00567"/>
<path d="M46.2754 -4.03516H39.5217V80.8833H46.2754V-4.03516Z" fill="#34906D"/>
<path fill-rule="evenodd" clip-rule="evenodd" d="M51.8054 78.3672L51.7882 78.3842L47.541 74.1749L49.4594 72.2736C50.872 70.8737 52.3055 69.0064 54.2411 68.3935C54.8253 68.2081 55.4457 68.1078 56.0928 68.1078C59.4409 68.1078 62.1573 70.798 62.1573 74.1181C62.1573 77.4383 59.4429 80.1285 56.0928 80.1285C54.4187 80.1285 52.903 79.455 51.8054 78.3691V78.3672ZM43.1601 88.1309C44.0573 90.0549 45.1701 91.8257 46.5083 93.3826C49.9882 97.4349 54.8863 100.006 61.3002 100.106V93.865C56.9269 93.7723 53.6208 92.0489 51.2976 89.3436C49.9595 87.7866 48.9192 85.8948 48.1614 83.7816C50.3928 85.5788 53.1913 86.5739 56.0928 86.5739C63.0354 86.5739 68.6647 80.9949 68.6647 74.1144C68.6647 67.2338 63.0354 61.6548 56.0928 61.6548C52.7579 61.6548 49.5606 62.9677 47.2031 65.3041L42.8986 69.5702L38.594 65.3041C36.2366 62.9677 33.0392 61.6548 29.7044 61.6548C22.7617 61.6548 17.1324 67.2338 17.1324 74.1144C17.1324 80.9949 22.7617 86.5739 29.7044 86.5739C33.0277 86.5739 36.2156 85.2705 38.5711 82.9473C38.1664 84.1921 37.6644 85.3688 37.0631 86.4548C35.4463 89.3776 33.0888 91.6346 29.9506 92.7375C29.0725 93.0459 28.1372 93.2672 27.1426 93.3959V99.5689C27.1942 99.5651 27.2457 99.5613 27.2973 99.5557C28.9923 99.3911 30.5634 99.043 32.0122 98.5341C36.708 96.8863 40.1727 93.6153 42.4977 89.4136C42.7306 88.9936 42.9501 88.566 43.1582 88.129L43.1601 88.1309ZM38.2562 74.1749L34.0089 78.3842L33.9917 78.3672C32.8941 79.455 31.3784 80.1266 29.7044 80.1266C26.3562 80.1266 23.6398 77.4364 23.6398 74.1163C23.6398 70.7961 26.3543 68.1059 29.7044 68.1059C30.3496 68.1059 30.9719 68.2062 31.556 68.3916C33.4916 69.0064 34.9252 70.8718 36.3377 72.2717L38.2562 74.173V74.1749Z" fill="#34906D"/>
<path d="M100.47 208.824C115.108 208.824 126.973 197.064 126.973 182.558C126.973 168.051 115.108 156.292 100.47 156.292C85.8333 156.292 73.9675 168.051 73.9675 182.558C73.9675 197.064 85.8333 208.824 100.47 208.824Z" fill="#C00567"/>
<path d="M102.557 -3.47705H98.384V157.642H102.557V-3.47705Z" fill="#34906D"/>
<path fill-rule="evenodd" clip-rule="evenodd" d="M105.973 156.087L105.962 156.097L103.339 153.497L104.524 152.322C105.397 151.458 106.283 150.304 107.478 149.926C107.838 149.81 108.222 149.75 108.621 149.75C110.69 149.75 112.368 151.412 112.368 153.463C112.368 155.514 110.69 157.177 108.621 157.177C107.586 157.177 106.649 156.761 105.971 156.089L105.973 156.087ZM100.632 162.12C101.186 163.308 101.875 164.402 102.702 165.365C104.853 167.869 107.878 169.457 111.841 169.519V165.664C109.14 165.607 107.096 164.542 105.662 162.871C104.836 161.908 104.192 160.739 103.725 159.436C105.103 160.546 106.832 161.161 108.625 161.161C112.914 161.161 116.392 157.714 116.392 153.463C116.392 149.212 112.914 145.765 108.625 145.765C106.565 145.765 104.589 146.577 103.133 148.02L100.474 150.656L97.8148 148.02C96.3583 146.577 94.3826 145.765 92.3229 145.765C88.0337 145.765 84.5557 149.212 84.5557 153.463C84.5557 157.714 88.0337 161.161 92.3229 161.161C94.3769 161.161 96.3449 160.355 97.8014 158.921C97.5513 159.689 97.2402 160.418 96.8699 161.089C95.8696 162.896 94.4151 164.29 92.4756 164.969C91.9335 165.159 91.3551 165.297 90.7404 165.376V169.19C90.7729 169.188 90.8034 169.186 90.8359 169.182C91.8839 169.08 92.8536 168.865 93.7488 168.551C96.6504 167.533 98.7921 165.512 100.228 162.917C100.371 162.658 100.506 162.393 100.636 162.122L100.632 162.12ZM97.6029 153.497L94.9801 156.097L94.9686 156.087C94.291 156.759 93.3537 157.175 92.3191 157.175C90.2499 157.175 88.5739 155.512 88.5739 153.461C88.5739 151.411 90.2518 149.748 92.3191 149.748C92.7181 149.748 93.1017 149.81 93.4625 149.924C94.6575 150.304 95.5432 151.456 96.4156 152.321L97.601 153.495L97.6029 153.497Z" fill="#34906D"/>
<rect x="139" y="16" width="13" height="13" fill="#34906D"/>
</g>
<defs>
<clipPath id="clip0_2238_50075">
<rect width="186" height="180" fill="white"/>
</clipPath>
</defs>
</svg>
