<svg width="215" height="180" viewBox="0 0 215 180" fill="none" xmlns="http://www.w3.org/2000/svg">
<g clip-path="url(#clip0_2238_50087)">
<path fill-rule="evenodd" clip-rule="evenodd" d="M40.7425 -1.60181C76.0033 32.6761 134.07 48.3427 176.712 33.6826C179.904 52.9827 158.696 65.1373 141.677 58.9705C134.292 82.0278 95.8267 84.1986 87.1402 71.8735C82.3676 92.2952 42.6332 97.398 30.943 75.3535C30.3213 75.6051 31.163 75.5774 30.2893 75.861C25.0787 91.0265 12.1429 91.4636 -0.00231934 85.9727V-1.60181H40.7404H40.7425Z" fill="#0D455F"/>
<path fill-rule="evenodd" clip-rule="evenodd" d="M134.403 -1.60181C126.375 10.122 104.985 10.5271 99.7235 2.81221C96.4933 17.1034 69.5985 20.6751 61.6875 5.24739C61.2667 5.42224 61.8371 5.40518 61.2453 5.60136C57.7181 16.2142 48.9633 16.5191 40.7426 12.6766V-1.60181H134.403Z" fill="#0D455F"/>
<path d="M125.392 111.574H55.8363V181H125.392V111.574Z" fill="#0D455F"/>
<path d="M93.932 111.574H87.2964V181H93.932V111.574Z" fill="#34906D"/>
<path d="M125.392 142.976H55.8363V149.599H125.392V142.976Z" fill="#34906D"/>
<path fill-rule="evenodd" clip-rule="evenodd" d="M83.1113 146.532L83.1262 146.547L86.7047 142.975L85.0874 141.361C83.8975 140.173 82.6904 138.589 81.0582 138.069C80.5669 137.911 80.0435 137.828 79.4987 137.828C76.6765 137.828 74.3906 140.112 74.3906 142.926C74.3906 145.741 76.6787 148.025 79.4987 148.025C80.9087 148.025 82.1862 147.453 83.1113 146.532ZM90.3963 154.817C89.64 156.45 88.7022 157.951 87.5763 159.273C85.049 162.237 81.6329 164.267 77.2769 164.826V159.463C79.911 158.966 81.9854 157.67 83.5407 155.849C84.6666 154.527 85.5446 152.921 86.1834 151.13C84.3034 152.656 81.947 153.499 79.5008 153.499C73.6514 153.499 68.9087 148.765 68.9087 142.929C68.9087 137.092 73.6514 132.356 79.5008 132.356C82.3101 132.356 85.0041 133.469 86.9888 135.452L90.6163 139.073L94.2439 135.452C96.2307 133.469 98.9247 132.356 101.732 132.356C107.581 132.356 112.324 137.09 112.324 142.929C112.324 148.767 107.581 153.499 101.732 153.499C98.9332 153.499 96.2478 152.392 94.2631 150.422C94.605 151.477 95.028 152.475 95.5343 153.398C96.8973 155.878 98.882 157.793 101.527 158.729C102.285 158.998 103.095 159.188 103.956 159.297V164.532C103.892 164.527 103.828 164.521 103.761 164.515C102.334 164.374 101.01 164.08 99.7899 163.649C95.8334 162.252 92.9151 159.476 90.956 155.91C90.7616 155.554 90.5758 155.192 90.3984 154.821L90.3963 154.817ZM94.528 142.975L98.1065 146.547L98.1214 146.532C99.0465 147.456 100.322 148.025 101.734 148.025C104.556 148.025 106.842 145.741 106.842 142.926C106.842 140.112 104.554 137.828 101.734 137.828C101.189 137.828 100.666 137.913 100.174 138.069C98.5444 138.589 97.3352 140.173 96.1453 141.361L94.528 142.975Z" fill="#C00567"/>
<path d="M55.8362 97.1721H0V181H55.8362V97.1721Z" fill="#34906D"/>
<path d="M30.58 97.1721H25.254V181H30.58V97.1721Z" fill="#C00567"/>
<path d="M55.8362 122.381H0V127.697H55.8362V122.381Z" fill="#C00567"/>
<path fill-rule="evenodd" clip-rule="evenodd" d="M33.9406 125.236L33.9299 125.247L31.0587 122.381L32.3554 121.087C33.3104 120.133 34.2803 118.862 35.5899 118.445C35.9851 118.319 36.406 118.25 36.8418 118.25C39.1064 118.25 40.9436 120.082 40.9436 122.345C40.9436 124.607 39.1085 126.439 36.8418 126.439C35.7095 126.439 34.6841 125.98 33.9428 125.24L33.9406 125.236ZM28.0934 131.887C28.7001 133.198 29.4521 134.403 30.3579 135.465C32.3875 137.845 35.1284 139.474 38.6257 139.922V135.617C36.5128 135.218 34.8443 134.177 33.5988 132.714C32.6951 131.655 31.9901 130.365 31.4774 128.925C32.9857 130.149 34.8785 130.827 36.8418 130.827C41.5375 130.827 45.3446 127.027 45.3446 122.34C45.3446 117.653 41.5375 113.854 36.8418 113.854C34.5879 113.854 32.4238 114.747 30.8301 116.34L27.9182 119.246L25.0063 116.34C23.4126 114.749 21.2484 113.854 18.9946 113.854C14.2988 113.854 10.4918 117.653 10.4918 122.34C10.4918 127.027 14.2988 130.827 18.9946 130.827C21.242 130.827 23.3976 129.938 24.9914 128.358C24.7179 129.207 24.3782 130.006 23.9702 130.746C22.8764 132.738 21.2826 134.275 19.1591 135.024C18.5502 135.239 17.9008 135.393 17.2086 135.478V139.681C17.2598 139.677 17.3111 139.672 17.3645 139.668C18.5096 139.555 19.5735 139.318 20.5541 138.973C23.7288 137.851 26.0745 135.623 27.6447 132.761C27.8007 132.476 27.9502 132.183 28.0912 131.887H28.0934ZM24.7777 122.381L21.9064 125.247L21.8958 125.236C21.1544 125.976 20.129 126.435 18.9967 126.435C16.7322 126.435 14.897 124.603 14.897 122.34C14.897 120.078 16.7322 118.246 18.9967 118.246C19.4325 118.246 19.8534 118.314 20.2486 118.44C21.5582 118.858 22.5281 120.129 23.4831 121.082L24.7799 122.377L24.7777 122.381Z" fill="#900462"/>
<path d="M81.8967 109.461C91.0852 104.976 94.8913 93.9056 90.3979 84.7342C85.9044 75.5629 74.8129 71.7639 65.6244 76.2489C56.4358 80.734 52.6297 91.8047 57.1232 100.976C61.6167 110.147 72.7081 113.946 81.8967 109.461Z" fill="#C00567"/>
<path fill-rule="evenodd" clip-rule="evenodd" d="M92.197 94.6131H55.3254C55.2698 94.0331 55.2421 93.4467 55.2421 92.8518C55.2421 92.4253 55.257 92.0031 55.2869 91.583H92.2397C92.2675 92.001 92.2846 92.4253 92.2846 92.8518C92.2846 93.4467 92.2547 94.0331 92.2013 94.6131H92.197Z" fill="#900462"/>
<path fill-rule="evenodd" clip-rule="evenodd" d="M75.2792 74.6968V111.499C74.6981 111.555 74.1106 111.583 73.5145 111.583C73.0873 111.583 72.6643 111.568 72.2434 111.538V74.6542C72.6643 74.6264 73.0873 74.6094 73.5145 74.6094C74.1106 74.6094 74.6981 74.6392 75.2792 74.6925V74.6968Z" fill="#900462"/>
<path fill-rule="evenodd" clip-rule="evenodd" d="M77.4478 93.6023L77.4414 93.6087L75.6832 91.8538L76.4779 91.0605C77.0633 90.4763 77.6551 89.7001 78.4562 89.4421C78.6976 89.3653 78.9561 89.3227 79.2232 89.3227C80.6097 89.3227 81.7334 90.4443 81.7334 91.8282C81.7334 93.2121 80.6097 94.3337 79.2232 94.3337C78.531 94.3337 77.9029 94.0544 77.4478 93.6002V93.6023ZM73.8694 97.673C74.2411 98.4748 74.7005 99.2126 75.2559 99.863C76.4972 101.319 78.1763 102.317 80.3148 102.59V99.9547C79.0202 99.7116 78.0012 99.074 77.2385 98.1784C76.6852 97.5302 76.2536 96.7412 75.9396 95.8605C76.8625 96.6111 78.0204 97.0248 79.2232 97.0248C82.0966 97.0248 84.4252 94.7005 84.4252 91.8325C84.4252 88.9644 82.0966 86.6401 79.2232 86.6401C77.8431 86.6401 76.5207 87.1882 75.5443 88.1605L73.7626 89.9389L71.9809 88.1605C71.0045 87.186 69.6821 86.6401 68.302 86.6401C65.4286 86.6401 63.1 88.9644 63.1 91.8325C63.1 94.7005 65.4286 97.0248 68.302 97.0248C69.6779 97.0248 70.996 96.481 71.9723 95.5129C71.8036 96.0311 71.5963 96.5216 71.3485 96.9758C70.6798 98.1955 69.7035 99.1359 68.4046 99.5943C68.0329 99.7265 67.6355 99.8203 67.2104 99.8715V102.443C67.2424 102.443 67.2744 102.439 67.3065 102.435C68.0072 102.366 68.6588 102.221 69.257 102.008C71.2011 101.322 72.6346 99.959 73.596 98.2061C73.6921 98.0313 73.784 97.8522 73.8694 97.6709V97.673ZM71.8399 91.8559L70.0816 93.6109L70.0752 93.6045C69.6202 94.0587 68.9942 94.338 68.2999 94.338C66.9134 94.338 65.7897 93.2164 65.7897 91.8325C65.7897 90.4486 66.9134 89.3269 68.2999 89.3269C68.567 89.3269 68.8255 89.3696 69.0669 89.4463C69.868 89.7022 70.4619 90.4805 71.0451 91.0648L71.8399 91.8581V91.8559Z" fill="#34906D"/>
<path d="M215.002 157.382H125.392V181H215.002V157.382Z" fill="#0D455F"/>
<path d="M138.354 157.382H136.095V181H138.354V157.382Z" fill="#34906D"/>
<path d="M215.002 168.065H125.392V170.317H215.002V168.065Z" fill="#34906D"/>
<path fill-rule="evenodd" clip-rule="evenodd" d="M139.776 169.274L139.772 169.278L138.554 168.063L139.103 167.515C139.507 167.112 139.919 166.572 140.473 166.395C140.639 166.342 140.819 166.312 141.002 166.312C141.962 166.312 142.739 167.088 142.739 168.046C142.739 169.003 141.962 169.779 141.002 169.779C140.522 169.779 140.088 169.585 139.774 169.272L139.776 169.274ZM137.298 172.093C137.554 172.647 137.875 173.159 138.257 173.609C139.116 174.618 140.278 175.309 141.761 175.498V173.673C140.866 173.505 140.159 173.063 139.631 172.443C139.248 171.993 138.949 171.447 138.731 170.837C139.37 171.355 140.174 171.643 141.005 171.643C142.994 171.643 144.606 170.033 144.606 168.046C144.606 166.058 142.994 164.448 141.005 164.448C140.05 164.448 139.133 164.828 138.456 165.502L137.221 166.732L135.988 165.502C135.313 164.828 134.397 164.448 133.44 164.448C131.451 164.448 129.838 166.058 129.838 168.046C129.838 170.033 131.451 171.643 133.44 171.643C134.393 171.643 135.305 171.266 135.98 170.596C135.864 170.954 135.719 171.296 135.548 171.609C135.085 172.453 134.41 173.104 133.51 173.422C133.252 173.513 132.976 173.577 132.683 173.613V175.394C132.705 175.394 132.728 175.39 132.75 175.388C133.235 175.341 133.685 175.24 134.102 175.093C135.448 174.618 136.441 173.673 137.108 172.46C137.174 172.338 137.238 172.215 137.298 172.089V172.093ZM135.892 168.065L134.675 169.28L134.67 169.276C134.356 169.59 133.92 169.784 133.442 169.784C132.483 169.784 131.705 169.007 131.705 168.05C131.705 167.093 132.483 166.316 133.442 166.316C133.628 166.316 133.805 166.346 133.972 166.4C134.527 166.577 134.937 167.116 135.341 167.519L135.89 168.067L135.892 168.065Z" fill="#C00567"/>
</g>
<defs>
<clipPath id="clip0_2238_50087">
<rect width="215" height="180" fill="white"/>
</clipPath>
</defs>
</svg>
