<svg width="126" height="220" viewBox="0 0 126 220" fill="none" xmlns="http://www.w3.org/2000/svg">
<g clip-path="url(#clip0_2238_50999)">
<path d="M95.908 85.1446C113.632 85.1446 128 71.028 128 53.6143C128 36.2007 113.632 22.0841 95.908 22.0841C78.1841 22.0841 63.8159 36.2007 63.8159 53.6143C63.8159 71.028 78.1841 85.1446 95.908 85.1446Z" fill="#C00567"/>
<path d="M98.4331 -2.31055H93.3813V23.7062H98.4331V-2.31055Z" fill="#34906D"/>
<path fill-rule="evenodd" clip-rule="evenodd" d="M102.57 21.8405L102.557 21.8525L99.3802 18.731L100.816 17.3208C101.872 16.2825 102.945 14.8985 104.392 14.4429C104.828 14.3059 105.294 14.2309 105.777 14.2309C108.282 14.2309 110.313 16.226 110.313 18.6875C110.313 21.149 108.282 23.1441 105.777 23.1441C104.524 23.1441 103.39 22.6451 102.568 21.8384L102.57 21.8405ZM96.1013 29.0816C96.7719 30.5081 97.6052 31.8215 98.6056 32.9772C101.209 35.9835 104.874 37.8894 109.672 37.9644V33.336C106.401 33.2664 103.926 31.9889 102.189 29.9829C101.188 28.8283 100.409 27.4246 99.8428 25.8579C101.512 27.192 103.605 27.9291 105.777 27.9291C110.971 27.9291 115.182 23.7921 115.182 18.6897C115.182 13.5872 110.971 9.44916 105.777 9.44916C103.282 9.44916 100.89 10.4222 99.1268 12.1553L95.9065 15.3192L92.6863 12.1553C90.9223 10.4222 88.5309 9.44916 86.0366 9.44916C80.8421 9.44916 76.6313 13.5861 76.6313 18.6897C76.6313 23.7932 80.8421 27.9291 86.0366 27.9291C88.522 27.9291 90.9068 26.9615 92.6697 25.2404C92.3664 26.1634 91.9913 27.0354 91.5409 27.8421C90.3303 30.0101 88.5685 31.6845 86.2203 32.501C85.564 32.7293 84.8635 32.8946 84.1199 32.9892V37.5676C84.1586 37.5643 84.1973 37.5622 84.2361 37.5578C85.5043 37.4349 86.6795 37.1773 87.764 36.8C91.2764 35.5779 93.8692 33.1523 95.6089 30.0362C95.7826 29.7253 95.9475 29.4078 96.1035 29.0827L96.1013 29.0816ZM92.4328 18.731L89.2557 21.8525L89.2436 21.8405C88.4224 22.6473 87.2881 23.1463 86.0355 23.1463C83.5301 23.1463 81.4994 21.1512 81.4994 18.6897C81.4994 16.2282 83.5301 14.2331 86.0355 14.2331C86.5179 14.2331 86.9838 14.307 87.4198 14.4451C88.8673 14.9006 89.9396 16.2847 90.9964 17.323L92.4317 18.7332L92.4328 18.731Z" fill="#34906D"/>
<path d="M42.4537 86.2966C52.1658 76.7546 52.1658 61.284 42.4537 51.742C32.7417 42.2 16.9954 42.2 7.28341 51.742C-2.42861 61.284 -2.42861 76.7546 7.28341 86.2966C16.9954 95.8385 32.7417 95.8385 42.4537 86.2966Z" fill="#C00567"/>
<path d="M26.8269 -2.95966H22.9116V45.8437H26.8269V-2.95966Z" fill="#34906D"/>
<path fill-rule="evenodd" clip-rule="evenodd" d="M30.0329 44.3977L30.0229 44.4075L27.5607 41.9883L28.6728 40.8956C29.4917 40.0911 30.3228 39.018 31.4449 38.6657C31.7835 38.5591 32.1432 38.5015 32.5183 38.5015C34.4594 38.5015 36.0341 40.0476 36.0341 41.9557C36.0341 43.8638 34.4605 45.4099 32.5183 45.4099C31.5478 45.4099 30.6692 45.0228 30.0329 44.3988V44.3977ZM25.021 50.009C25.5411 51.1147 26.1862 52.1324 26.962 53.0272C28.9794 55.3561 31.819 56.8336 35.5372 56.8912V53.3044C33.0019 53.2511 31.0853 52.2607 29.7385 50.7059C28.9628 49.8111 28.3596 48.7238 27.9203 47.5094C29.214 48.5423 30.8363 49.1142 32.5183 49.1142C36.5431 49.1142 39.8066 45.9079 39.8066 41.9535C39.8066 37.9992 36.5431 34.7929 32.5183 34.7929C30.5851 34.7929 28.7315 35.5475 27.3648 36.8902L24.8694 39.342L22.3739 36.8902C21.0072 35.5475 19.1536 34.7929 17.2204 34.7929C13.1956 34.7929 9.93213 37.9992 9.93213 41.9535C9.93213 45.9079 13.1956 49.1142 17.2204 49.1142C19.147 49.1142 20.9951 48.365 22.3606 47.0299C22.126 47.7453 21.835 48.4216 21.4864 49.0457C20.5491 50.7255 19.1824 52.0225 17.3631 52.6564C16.8541 52.8336 16.3118 52.9608 15.7353 53.0348V56.5825C15.7651 56.5803 15.795 56.5781 15.8249 56.5749C16.8076 56.4803 17.7183 56.2802 18.5583 55.9877C21.2806 55.0407 23.2891 53.1609 24.637 50.7461C24.772 50.5047 24.8992 50.259 25.0199 50.0079L25.021 50.009ZM22.178 41.9883L19.7158 44.4075L19.7058 44.3977C19.0695 45.0228 18.1909 45.4088 17.2204 45.4088C15.2793 45.4088 13.7046 43.8627 13.7046 41.9546C13.7046 40.0465 15.2782 38.5004 17.2204 38.5004C17.5944 38.5004 17.9552 38.5581 18.2938 38.6646C19.4159 39.018 20.247 40.09 21.0659 40.8945L22.178 41.9872V41.9883Z" fill="#34906D"/>
<path d="M58.2448 119.372C66.7303 119.372 73.6091 112.614 73.6091 104.277C73.6091 95.9399 66.7303 89.1815 58.2448 89.1815C49.7592 89.1815 42.8804 95.9399 42.8804 104.277C42.8804 112.614 49.7592 119.372 58.2448 119.372Z" fill="#C00567"/>
<path d="M59.4547 -2.63892H57.0356V89.9577H59.4547V-2.63892Z" fill="#34906D"/>
<path fill-rule="evenodd" clip-rule="evenodd" d="M61.4354 89.0641L61.4287 89.0695L59.9082 87.5756L60.5955 86.9004C61.1012 86.4035 61.6146 85.7403 62.3074 85.5229C62.5165 85.4566 62.739 85.4218 62.9703 85.4218C64.1699 85.4218 65.1426 86.3775 65.1426 87.556C65.1426 88.7346 64.1699 89.6903 62.9703 89.6903C62.3705 89.6903 61.8271 89.4511 61.4343 89.0651L61.4354 89.0641ZM58.339 92.5313C58.66 93.2141 59.0595 93.8425 59.5386 94.3959C60.7858 95.8354 62.5398 96.7476 64.8371 96.7835V94.5677C63.2713 94.5351 62.0861 93.923 61.255 92.9629C60.7758 92.4095 60.4029 91.7376 60.1318 90.9885C60.9308 91.6267 61.9334 91.9801 62.9725 91.9801C65.4591 91.9801 67.4753 89.9991 67.4753 87.556C67.4753 85.113 65.4591 83.132 62.9725 83.132C61.7784 83.132 60.6331 83.5984 59.7887 84.428L58.2472 85.9426L56.7057 84.428C55.8613 83.5984 54.7159 83.132 53.5219 83.132C51.0353 83.132 49.019 85.113 49.019 87.556C49.019 89.9991 51.0353 91.9801 53.5219 91.9801C54.7126 91.9801 55.8536 91.5169 56.6979 90.6927C56.5529 91.1342 56.3726 91.5528 56.1579 91.9387C55.578 92.9771 54.7348 93.7784 53.6104 94.1687C53.2962 94.2774 52.9608 94.3568 52.6045 94.4024V96.5943C52.6233 96.5933 52.641 96.5922 52.6598 96.59C53.2674 96.5313 53.8295 96.4073 54.3485 96.2268C56.0306 95.6419 57.2723 94.4807 58.1044 92.989C58.1874 92.8401 58.266 92.6878 58.3413 92.5324L58.339 92.5313ZM56.5828 87.5756L55.0623 89.0695L55.0557 89.0641C54.6628 89.45 54.1195 89.6892 53.5197 89.6892C52.3201 89.6892 51.3485 88.7335 51.3485 87.5549C51.3485 86.3764 52.3212 85.4207 53.5197 85.4207C53.751 85.4207 53.9734 85.4566 54.1826 85.5218C54.8753 85.7403 55.3888 86.4025 55.8945 86.8993L56.5817 87.5745L56.5828 87.5756Z" fill="#34906D"/>
</g>
<defs>
<clipPath id="clip0_2238_50999">
<rect width="126" height="220" fill="white"/>
</clipPath>
</defs>
</svg>
