<svg width="205" height="220" viewBox="0 0 205 220" fill="none" xmlns="http://www.w3.org/2000/svg">
<g clip-path="url(#clip0_2238_50980)">
<path fill-rule="evenodd" clip-rule="evenodd" d="M-8.05736 -0.986572C35.1632 40.4968 106.338 59.4565 158.606 41.7148C162.518 65.0719 136.523 79.7814 115.663 72.3183C106.61 100.222 59.4616 102.85 48.8142 87.9336C42.9642 112.648 -5.73987 118.824 -20.069 92.1451C-20.8311 92.4497 -19.7993 92.4161 -20.8703 92.7593C-27.2572 111.113 -43.1131 111.642 -58 104.997V-0.986572H-8.05998H-8.05736Z" fill="#0D455F"/>
<path fill-rule="evenodd" clip-rule="evenodd" d="M107 -0.986572C97.1423 13.3949 70.8797 13.8919 64.419 4.42805C60.4528 21.9589 27.4304 26.3402 17.717 7.41524C17.2003 7.62973 17.9006 7.60881 17.174 7.84946C12.8433 20.8681 2.09375 21.2421 -8 16.5285V-0.986572H107Z" fill="#0D455F"/>
<path d="M96 136.143H11V220H96V136.143Z" fill="#0D455F"/>
<path d="M57 136.143H49V220H57V136.143Z" fill="#34906D"/>
<path d="M96 173.632H11V181.525H96V173.632Z" fill="#34906D"/>
<path fill-rule="evenodd" clip-rule="evenodd" d="M44.3381 178.036L44.3563 178.054L48.7247 173.713L46.7505 171.751C45.2978 170.308 43.8243 168.382 41.8318 167.75C41.2319 167.558 40.593 167.457 39.9279 167.457C36.4827 167.457 33.6922 170.233 33.6922 173.654C33.6922 177.075 36.4853 179.85 39.9279 179.85C41.6492 179.85 43.2088 179.156 44.3381 178.036ZM53.2314 188.104C52.3081 190.089 51.1632 191.914 49.7888 193.521C46.7035 197.123 42.5333 199.59 37.2156 200.269V193.751C40.4313 193.147 42.9636 191.572 44.8623 189.359C46.2367 187.752 47.3086 185.8 48.0884 183.623C45.7933 185.479 42.9167 186.503 39.9305 186.503C32.7898 186.503 27 180.749 27 173.656C27 166.563 32.7898 160.807 39.9305 160.807C43.3601 160.807 46.6488 162.16 49.0716 164.57L53.5 168.971L57.9284 164.57C60.3539 162.16 63.6426 160.807 67.0695 160.807C74.2102 160.807 80 166.56 80 173.656C80 180.752 74.2102 186.503 67.0695 186.503C63.653 186.503 60.3747 185.158 57.9519 182.763C58.3692 184.046 58.8855 185.259 59.5036 186.381C61.1675 189.395 63.5904 191.722 66.8191 192.86C67.745 193.186 68.7334 193.417 69.7844 193.549V199.911C69.7062 199.906 69.6279 199.898 69.5471 199.891C67.8049 199.72 66.188 199.362 64.6988 198.839C59.8688 197.141 56.3062 193.767 53.9147 189.434C53.6773 189.001 53.4504 188.56 53.234 188.109L53.2314 188.104ZM58.2753 173.713L62.6437 178.054L62.6619 178.036C63.7912 179.158 65.3482 179.85 67.0721 179.85C70.5173 179.85 73.3078 177.075 73.3078 173.654C73.3078 170.233 70.5147 167.457 67.0721 167.457C66.407 167.457 65.7681 167.561 65.1682 167.75C63.1783 168.382 61.7022 170.308 60.2495 171.751L58.2753 173.713Z" fill="#C00567"/>
<path d="M11 118.386H-58V220H11V118.386Z" fill="#34906D"/>
<path d="M11 148.969H-58V155.874H11V148.969Z" fill="#C00567"/>
<path d="M42.6598 133.423C53.9072 127.995 58.5661 114.598 53.0658 103.498C47.5655 92.399 33.9888 87.8014 22.7413 93.2293C11.4939 98.6571 6.83499 112.055 12.3353 123.154C17.8356 134.254 31.4123 138.851 42.6598 133.423Z" fill="#C00567"/>
<path fill-rule="evenodd" clip-rule="evenodd" d="M54.8936 115.426H10.1012C10.0337 114.671 10 113.907 10 113.132C10 112.577 10.0182 112.027 10.0545 111.48H54.9455C54.9792 112.024 55 112.577 55 113.132C55 113.907 54.9637 114.671 54.8988 115.426H54.8936Z" fill="#900462"/>
<path fill-rule="evenodd" clip-rule="evenodd" d="M35 90.8696V136.041C34.2343 136.109 33.4602 136.143 32.6749 136.143C32.1119 136.143 31.5545 136.125 31 136.089V90.8173C31.5545 90.7833 32.1119 90.7623 32.6749 90.7623C33.4602 90.7623 34.2343 90.799 35 90.8644V90.8696Z" fill="#900462"/>
<path fill-rule="evenodd" clip-rule="evenodd" d="M37.4931 114.173L37.4853 114.181L35.3416 112.01L36.3106 111.029C37.0242 110.306 37.7457 109.346 38.7225 109.027C39.0168 108.932 39.332 108.879 39.6576 108.879C41.348 108.879 42.7181 110.266 42.7181 111.978C42.7181 113.69 41.348 115.078 39.6576 115.078C38.8137 115.078 38.0479 114.732 37.4931 114.17V114.173ZM33.1302 119.209C33.5834 120.2 34.1435 121.113 34.8207 121.918C36.334 123.719 38.3813 124.954 40.9886 125.291V122.031C39.4101 121.73 38.1677 120.942 37.2378 119.834C36.5632 119.032 36.0371 118.056 35.6542 116.967C36.7794 117.895 38.1911 118.407 39.6576 118.407C43.1609 118.407 46 115.532 46 111.984C46 108.436 43.1609 105.561 39.6576 105.561C37.975 105.561 36.3626 106.238 35.1723 107.441L33 109.641L30.8277 107.441C29.6373 106.236 28.025 105.561 26.3424 105.561C22.8391 105.561 20 108.436 20 111.984C20 115.532 22.8391 118.407 26.3424 118.407C28.0198 118.407 29.6269 117.734 30.8173 116.537C30.6115 117.178 30.3588 117.784 30.0567 118.346C29.2414 119.855 28.0511 121.018 26.4674 121.585C26.0142 121.749 25.5298 121.865 25.0114 121.928V125.109C25.0505 125.109 25.0896 125.104 25.1286 125.099C25.983 125.015 26.7774 124.835 27.5067 124.571C29.877 123.722 31.6247 122.036 32.7968 119.868C32.914 119.652 33.026 119.43 33.1302 119.206V119.209ZM30.6558 112.013L28.5121 114.184L28.5043 114.176C27.9495 114.738 27.1863 115.083 26.3398 115.083C24.6494 115.083 23.2793 113.696 23.2793 111.984C23.2793 110.272 24.6494 108.884 26.3398 108.884C26.6654 108.884 26.9806 108.937 27.2749 109.032C28.2517 109.348 28.9758 110.311 29.6868 111.034L30.6558 112.015V112.013Z" fill="#34906D"/>
<path d="M206 191.39H96V220H206V191.39Z" fill="#0D455F"/>
<path d="M112 191.39H109V220H112V191.39Z" fill="#34906D"/>
<path d="M206 204.215H96V207.175H206V204.215Z" fill="#34906D"/>
<path fill-rule="evenodd" clip-rule="evenodd" d="M113.113 205.87L113.108 205.875L111.623 204.464L112.293 203.828C112.785 203.36 113.287 202.734 113.962 202.529C114.165 202.467 114.383 202.432 114.607 202.432C115.777 202.432 116.724 203.333 116.724 204.444C116.724 205.556 115.777 206.456 114.607 206.456C114.022 206.456 113.493 206.231 113.11 205.867L113.113 205.87ZM110.092 209.142C110.405 209.785 110.795 210.379 111.262 210.901C112.308 212.072 113.725 212.874 115.532 213.094V210.976C114.441 210.78 113.579 210.268 112.936 209.548C112.47 209.025 112.105 208.392 111.84 207.684C112.618 208.285 113.597 208.619 114.61 208.619C117.034 208.619 119 206.751 119 204.444C119 202.138 117.034 200.269 114.61 200.269C113.446 200.269 112.329 200.71 111.504 201.492L109.999 202.92L108.496 201.492C107.674 200.71 106.556 200.269 105.39 200.269C102.966 200.269 101 202.138 101 204.444C101 206.751 102.966 208.619 105.39 208.619C106.551 208.619 107.663 208.181 108.486 207.404C108.345 207.82 108.168 208.216 107.96 208.58C107.395 209.56 106.572 210.315 105.476 210.684C105.161 210.79 104.825 210.864 104.468 210.906V212.973C104.494 212.973 104.523 212.968 104.549 212.965C105.14 212.911 105.689 212.795 106.197 212.624C107.838 212.072 109.048 210.976 109.861 209.567C109.941 209.426 110.02 209.283 110.092 209.137V209.142ZM108.379 204.467L106.895 205.877L106.89 205.872C106.507 206.236 105.976 206.461 105.393 206.461C104.223 206.461 103.276 205.56 103.276 204.449C103.276 203.338 104.223 202.437 105.393 202.437C105.619 202.437 105.835 202.472 106.038 202.534C106.715 202.739 107.215 203.365 107.707 203.833L108.377 204.469L108.379 204.467Z" fill="#C00567"/>
</g>
<defs>
<clipPath id="clip0_2238_50980">
<rect width="205" height="220" fill="white"/>
</clipPath>
</defs>
</svg>
