<svg width="22" height="22" viewBox="0 0 22 22" fill="none" xmlns="http://www.w3.org/2000/svg">
<path fill-rule="evenodd" clip-rule="evenodd" d="M9.94999 7H19V6H9.94999C9.71836 4.85888 8.70948 4 7.5 4C6.29052 4 5.28164 4.85888 5.05001 6H3V7H5.05001C5.28164 8.14112 6.29052 9 7.5 9C8.70948 9 9.71836 8.14112 9.94999 7ZM9 6.5C9 7.32843 8.32843 8 7.5 8C6.67157 8 6 7.32843 6 6.5C6 5.67157 6.67157 5 7.5 5C8.32843 5 9 5.67157 9 6.5Z" fill="#3AB6FF"/>
<path fill-rule="evenodd" clip-rule="evenodd" d="M19 11H16.95C16.7184 9.85888 15.7095 9 14.5 9C13.2905 9 12.2816 9.85888 12.05 11H3V12H12.05C12.2816 13.1411 13.2905 14 14.5 14C15.7095 14 16.7184 13.1411 16.95 12H19V11ZM14.5 13C13.6716 13 13 12.3284 13 11.5C13 10.6716 13.6716 10 14.5 10C15.3284 10 16 10.6716 16 11.5C16 12.3284 15.3284 13 14.5 13Z" fill="#3AB6FF"/>
<path fill-rule="evenodd" clip-rule="evenodd" d="M7.05001 16H3V17H7.05001C7.28164 18.1411 8.29052 19 9.5 19C10.7095 19 11.7184 18.1411 11.95 17H19V16H11.95C11.7184 14.8589 10.7095 14 9.5 14C8.29052 14 7.28164 14.8589 7.05001 16ZM11 16.5C11 15.6716 10.3284 15 9.5 15C8.67157 15 8 15.6716 8 16.5C8 17.3284 8.67157 18 9.5 18C10.3284 18 11 17.3284 11 16.5Z" fill="#3AB6FF"/>
</svg>
