<svg width="44" height="44" viewBox="0 0 44 44" fill="none" xmlns="http://www.w3.org/2000/svg">
<g id="icon 44X44">
<path id="Vector" d="M27.8033 30.3641H16.1934V41.9654H27.8033V30.3641Z" fill="#C6CEE4"/>
<path id="Vector_2" d="M11.334 42H32.3007" stroke="#8E9FC2" stroke-width="2" stroke-miterlimit="10" stroke-linecap="round"/>
<g id="Group">
<path id="Vector_3" d="M44 10.0391C44 8.0856 42.3576 6.50586 40.3349 6.50586H3.66514C1.64236 6.50586 0 8.0856 0 10.0391V30.4559H44V10.0391Z" fill="#72D7FF"/>
<path id="Vector_4" d="M3.66514 35.4877H40.3312C42.3576 35.4877 43.9963 33.9044 43.9963 31.9544V30.4558H0V31.9544C0 33.908 1.64236 35.4877 3.66514 35.4877Z" fill="#8E9FC2"/>
</g>
<g id="Group_2">
<path id="Vector_5" d="M39.895 0H24.6857C23.2043 0 22.0009 1.16012 22.0009 2.58824C22.0009 1.16012 20.7975 0 19.316 0H4.10313C3.11552 0 2.31445 0.772239 2.31445 1.72431V25.8788C2.31445 26.8309 3.11552 27.6031 4.10313 27.6031H39.895C40.8826 27.6031 41.6836 26.8309 41.6836 25.8788V1.72431C41.6836 0.772239 40.8826 0 39.895 0Z" fill="#4088DC"/>
<g id="Group_3">
<path id="Vector_6" d="M4.10352 25.0152V2.58853C4.10352 2.11249 4.50588 1.72461 4.99968 1.72461H18.4203C20.3955 1.72461 21.9976 3.26909 21.9976 5.17324C21.9976 3.26909 23.5997 1.72461 25.575 1.72461H38.9955C39.4893 1.72461 39.8917 2.11249 39.8917 2.58853V25.0152C39.8917 25.4912 39.4893 25.8791 38.9955 25.8791H4.99968C4.50588 25.8791 4.10352 25.4912 4.10352 25.0152Z" fill="white"/>
<path id="Vector_7" d="M4.10352 25.0152V23.2909C4.10352 22.8149 4.50588 22.427 4.99968 22.427H18.4203C20.3955 22.427 21.9976 23.9715 21.9976 25.8756C21.9976 23.9715 23.5997 22.427 25.575 22.427H38.9955C39.4893 22.427 39.8917 22.8149 39.8917 23.2909V25.0152C39.8917 25.4913 39.4893 25.8792 38.9955 25.8792H4.99968C4.50588 25.8792 4.10352 25.4913 4.10352 25.0152Z" fill="#EDEFF8"/>
</g>
<path id="Vector_8" d="M21.9977 21.563C21.5039 21.563 21.1016 21.1751 21.1016 20.6991V6.90103C21.1016 6.42499 21.5003 6.03711 21.9977 6.03711C22.4952 6.03711 22.8939 6.42499 22.8939 6.90103V20.7026C22.8939 21.1786 22.4952 21.5665 21.9977 21.5665V21.563Z" fill="#EDEFF8"/>
<g id="Group_4">
<path id="Vector_9" d="M36.3139 6.90069H27.3669C26.8731 6.90069 26.4707 6.51281 26.4707 6.03677C26.4707 5.56073 26.8694 5.17285 27.3669 5.17285H36.3139C36.8077 5.17285 37.2101 5.56073 37.2101 6.03677C37.2101 6.51281 36.8114 6.90069 36.3139 6.90069Z" fill="#C6CEE4"/>
<g id="Group_5">
<path id="Vector_10" d="M36.3138 12.0775H35.4177C34.9238 12.0775 34.5215 11.6896 34.5215 11.2135C34.5215 10.7375 34.9202 10.3496 35.4177 10.3496H36.3138C36.8076 10.3496 37.21 10.7375 37.21 11.2135C37.21 11.6896 36.8113 12.0775 36.3138 12.0775Z" fill="#C6CEE4"/>
<path id="Vector_11" d="M31.8404 12.0775H27.3669C26.8731 12.0775 26.4707 11.6896 26.4707 11.2135C26.4707 10.7375 26.8694 10.3496 27.3669 10.3496H31.8404C32.3342 10.3496 32.7366 10.7375 32.7366 11.2135C32.7366 11.6896 32.3379 12.0775 31.8404 12.0775Z" fill="#C6CEE4"/>
</g>
<path id="Vector_12" d="M36.3139 15.5257H27.3669C26.8731 15.5257 26.4707 15.1378 26.4707 14.6618C26.4707 14.1857 26.8694 13.7979 27.3669 13.7979H36.3139C36.8077 13.7979 37.2101 14.1857 37.2101 14.6618C37.2101 15.1378 36.8114 15.5257 36.3139 15.5257Z" fill="#C6CEE4"/>
<path id="Vector_13" d="M32.7366 18.9778H27.3669C26.8731 18.9778 26.4707 18.59 26.4707 18.1139C26.4707 17.6379 26.8694 17.25 27.3669 17.25H32.7366C33.2304 17.25 33.6327 17.6379 33.6327 18.1139C33.6327 18.59 33.234 18.9778 32.7366 18.9778Z" fill="#C6CEE4"/>
<path id="Vector_14" d="M16.632 6.90069H7.68132C7.18752 6.90069 6.78516 6.51281 6.78516 6.03677C6.78516 5.56073 7.18386 5.17285 7.68132 5.17285H16.6284C17.1222 5.17285 17.5245 5.56073 17.5245 6.03677C17.5245 6.51281 17.1258 6.90069 16.6284 6.90069H16.632Z" fill="#C6CEE4"/>
<g id="Group_6">
<path id="Vector_15" d="M8.57749 15.5258H7.68132C7.18752 15.5258 6.78516 15.1379 6.78516 14.6619C6.78516 14.1859 7.18386 13.798 7.68132 13.798H8.57749C9.0713 13.798 9.47366 14.1859 9.47366 14.6619C9.47366 15.1379 9.07496 15.5258 8.57749 15.5258Z" fill="#C6CEE4"/>
<path id="Vector_16" d="M16.6314 15.5258H12.1579C11.6641 15.5258 11.2617 15.1379 11.2617 14.6619C11.2617 14.1859 11.6604 13.798 12.1579 13.798H16.6314C17.1252 13.798 17.5276 14.1859 17.5276 14.6619C17.5276 15.1379 17.1289 15.5258 16.6314 15.5258Z" fill="#C6CEE4"/>
</g>
<path id="Vector_17" d="M16.632 12.0775H7.68132C7.18752 12.0775 6.78516 11.6896 6.78516 11.2135C6.78516 10.7375 7.18386 10.3496 7.68132 10.3496H16.6284C17.1222 10.3496 17.5245 10.7375 17.5245 11.2135C17.5245 11.6896 17.1258 12.0775 16.6284 12.0775H16.632Z" fill="#C6CEE4"/>
<path id="Vector_18" d="M16.632 18.978H7.68132C7.18752 18.978 6.78516 18.5901 6.78516 18.114C6.78516 17.638 7.18386 17.2501 7.68132 17.2501H16.6284C17.1222 17.2501 17.5245 17.638 17.5245 18.114C17.5245 18.5901 17.1258 18.978 16.6284 18.978H16.632Z" fill="#C6CEE4"/>
</g>
</g>
</g>
</svg>
