<svg width="44" height="44" viewBox="0 0 44 44" fill="none" xmlns="http://www.w3.org/2000/svg">
<g id="icon 44X44">
<g id="Group 240">
<path id="Vector" d="M22 41C28.0751 41 33 36.0751 33 30C33 23.9249 28.0751 19 22 19C15.9249 19 11 23.9249 11 30C11 36.0751 15.9249 41 22 41Z" fill="url(#paint0_linear_2066_51461)"/>
<path id="Vector_2" d="M26.284 29.5619L19.5008 25.5376C19.1724 25.3462 18.7656 25.588 18.7656 25.9758V34.0244C18.7656 34.4122 19.1724 34.654 19.5008 34.4626L26.284 30.4383C26.6124 30.2469 26.6124 29.7584 26.284 29.567V29.5619Z" fill="white"/>
</g>
<g id="Group">
<path id="Vector_3" fill-rule="evenodd" clip-rule="evenodd" d="M5.40504 12.5408C5.40504 12.5408 -0.00204229 20.5769 2.81121 30.2901C3.1325 30.1216 3.47338 29.9688 3.79467 29.8003C2.89741 24.6636 4.01408 17.4933 7.25441 13.7476C6.64318 13.3401 6.03194 12.9522 5.40504 12.5447V12.5408Z" fill="#A3A3A3"/>
<path id="Vector_4" fill-rule="evenodd" clip-rule="evenodd" d="M38.5798 12.541C38.5798 12.541 44.0065 20.5772 41.1893 30.2903C40.868 30.1219 40.5271 29.969 40.2058 29.8006C41.1031 24.6638 39.9864 17.4936 36.7461 13.7478C37.3573 13.3403 37.9686 12.9524 38.5759 12.5449L38.5798 12.541Z" fill="#A3A3A3"/>
<path id="Vector_5" fill-rule="evenodd" clip-rule="evenodd" d="M36.2096 14.7114C37.0246 15.7458 39.8378 12.9992 39.16 12.0314C31.4099 -0.0209091 12.5909 -0.00131774 4.84465 12.0353C4.16681 13.0031 6.98005 15.7497 7.79503 14.7153C15.6627 5.46061 28.6319 5.44102 36.2096 14.7153V14.7114Z" fill="#515151"/>
<path id="Vector_6" fill-rule="evenodd" clip-rule="evenodd" d="M36.2109 14.7112C36.4499 15.0169 36.8534 15.0012 37.2962 14.7974C37.2805 14.7308 37.2609 14.6603 37.21 14.5937C30.3414 3.91276 13.6618 3.92843 6.79714 14.5937C6.7462 14.6603 6.73053 14.7308 6.71094 14.7974C7.14977 15.0012 7.55726 15.0169 7.79627 14.7112C15.664 5.45652 28.6331 5.43692 36.2109 14.7112Z" fill="#353535"/>
<path id="Union" fill-rule="evenodd" clip-rule="evenodd" d="M11.4927 31.0733C11.0382 28.5813 10.5797 26.0698 10.1213 23.5621C9.74909 21.5795 4.67897 23.2409 5.03552 25.1059C5.2236 26.1316 5.41168 27.1605 5.59976 28.1893C5.83485 29.4752 6.06993 30.7612 6.30501 32.0411C6.67479 34.0358 7.04162 36.0335 7.40806 38.029C7.46486 38.3383 7.52164 38.6475 7.57842 38.9566C7.77058 39.9702 9.40461 40.359 10.8123 40.1942C10.8123 40.1943 10.8123 40.1945 10.8123 40.1946C11.1304 40.1584 11.4366 40.0925 11.712 39.9987C12.4805 39.7397 13.01 39.2676 12.8836 38.6001L12.8261 38.2854C12.3868 35.8823 11.9469 33.476 11.4927 31.0733Z" fill="#353535"/>
<path id="Union_2" fill-rule="evenodd" clip-rule="evenodd" d="M33.8859 23.5654C33.886 23.5643 33.8862 23.5633 33.8864 23.5623C34.2587 21.5797 39.3288 23.241 38.9722 25.106C38.6928 26.6158 38.4151 28.1322 38.138 29.6455C37.9915 30.4454 37.8451 31.2445 37.6988 32.0412C37.4872 33.1931 37.2756 34.3461 37.0641 35.499C36.8525 36.6519 36.6409 37.8048 36.4293 38.9568C36.237 39.9711 34.6007 40.3597 33.1923 40.194C33.1923 40.1942 33.1923 40.1945 33.1923 40.1947C32.7625 40.1457 32.3542 40.0427 32.0146 39.8895C31.4719 39.6472 31.1044 39.2784 31.1055 38.7914C31.1053 38.7294 31.1112 38.6656 31.1235 38.6L31.181 38.2854C31.6203 35.8824 32.0602 33.476 32.5145 31.0732C32.969 28.5813 33.4274 26.0697 33.8859 23.5621V23.5654Z" fill="#353535"/>
<path id="Vector_7" fill-rule="evenodd" clip-rule="evenodd" d="M5.03268 25.1022C4.31958 25.2393 3.84548 25.9172 3.98261 26.6263L6.06708 37.9185C6.18463 38.612 6.88206 39.0901 7.57558 38.9529L5.03268 25.1022Z" fill="#A3A3A3"/>
<path id="Vector_8" fill-rule="evenodd" clip-rule="evenodd" d="M38.9726 24.9414C39.6857 25.0785 40.1598 25.7642 40.0227 26.4852L37.9382 37.9066C37.8206 38.608 37.1232 39.0899 36.4297 38.9528L38.9726 24.9414Z" fill="#A3A3A3"/>
<path id="Vector_9" fill-rule="evenodd" clip-rule="evenodd" d="M4.13231 27.4451C2.89416 28.4442 2.26726 30.4973 2.65907 32.6993C3.06656 34.9014 4.40658 36.6136 5.91507 37.1073L4.13622 27.4451H4.13231Z" fill="#C9C9C9"/>
<path id="Vector_10" fill-rule="evenodd" clip-rule="evenodd" d="M39.8687 27.4451C41.1068 28.4442 41.7337 30.4973 41.3263 32.6993C40.9344 34.9014 39.5983 36.6136 38.0898 37.1073L39.8687 27.4451Z" fill="#C9C9C9"/>
</g>
</g>
<defs>
<linearGradient id="paint0_linear_2066_51461" x1="22" y1="44.346" x2="22" y2="22.346" gradientUnits="userSpaceOnUse">
<stop stop-color="#D1453A"/>
<stop offset="1" stop-color="#F16054"/>
</linearGradient>
</defs>
</svg>
