<svg width="61" height="60" viewBox="0 0 61 60" fill="none" xmlns="http://www.w3.org/2000/svg">
<g clip-path="url(#clip0_5406_11965)">
<path d="M58.024 11H34.8446C32.5868 11 30.7528 12.7652 30.7528 14.9382C30.7528 12.7652 28.9187 11 26.661 11H3.47601C1.97085 11 0.75 12.175 0.75 13.6237V50.3763C0.75 51.825 1.97085 53 3.47601 53H58.024C59.5292 53 60.75 51.825 60.75 50.3763V13.6237C60.75 12.175 59.5292 11 58.024 11Z" fill="#9F5B62"/>
<path d="M58.024 9H34.8446C32.5868 9 30.7528 10.7652 30.7528 12.9382C30.7528 10.7652 28.9187 9 26.661 9H3.47601C1.97085 9 0.75 10.175 0.75 11.6237V48.3763C0.75 49.825 1.97085 51 3.47601 51H58.024C59.5292 51 60.75 49.825 60.75 48.3763V11.6237C60.75 10.175 59.5292 9 58.024 9Z" fill="#EB2D42"/>
<path d="M3.27734 47.2567V12.9586C3.27734 12.2306 3.89269 11.6374 4.64789 11.6374H25.1725C28.1933 11.6374 30.6435 13.9994 30.6435 16.9115C30.6435 13.9994 33.0937 11.6374 36.1145 11.6374H56.6392C57.3944 11.6374 58.0097 12.2306 58.0097 12.9586V47.2567C58.0097 47.9847 57.3944 48.5779 56.6392 48.5779H4.64789C3.89269 48.5779 3.27734 47.9847 3.27734 47.2567Z" fill="white"/>
<path d="M3.27734 47.2565V44.6194C3.27734 43.8914 3.89269 43.2982 4.64789 43.2982H25.1725C28.1933 43.2982 30.6435 45.6602 30.6435 48.5723C30.6435 45.6602 33.0937 43.2982 36.1145 43.2982H56.6392C57.3944 43.2982 58.0097 43.8914 58.0097 44.6194V47.2565C58.0097 47.9845 57.3944 48.5777 56.6392 48.5777H4.64789C3.89269 48.5777 3.27734 47.9845 3.27734 47.2565Z" fill="#EDEFF8"/>
<path d="M30.25 41C36.6013 41 41.75 35.8513 41.75 29.5C41.75 23.1487 36.6013 18 30.25 18C23.8987 18 18.75 23.1487 18.75 29.5C18.75 35.8513 23.8987 41 30.25 41Z" fill="url(#paint0_linear_5406_11965)"/>
<path d="M34.4963 29.0647L27.5075 25.0665C27.1691 24.8763 26.75 25.1165 26.75 25.5018V33.4982C26.75 33.8835 27.1691 34.1237 27.5075 33.9335L34.4963 29.9353C34.8346 29.7452 34.8346 29.2598 34.4963 29.0697V29.0647Z" fill="white"/>
</g>
<defs>
<linearGradient id="paint0_linear_5406_11965" x1="30.25" y1="44.4981" x2="30.25" y2="21.4981" gradientUnits="userSpaceOnUse">
<stop stop-color="#D1453A"/>
<stop offset="1" stop-color="#F16054"/>
</linearGradient>
<clipPath id="clip0_5406_11965">
<rect width="60" height="60" fill="white" transform="translate(0.75)"/>
</clipPath>
</defs>
</svg>
