<svg width="61" height="60" viewBox="0 0 61 60" fill="none" xmlns="http://www.w3.org/2000/svg">
<g clip-path="url(#clip0_5406_12813)">
<path d="M11.0153 44.0674H50.4008V56.2295H11.0153C9.65128 56.2295 8.55078 55.1502 8.55078 53.8123V46.4846C8.55078 45.1468 9.65128 44.0674 11.0153 44.0674Z" fill="#E4E4E4"/>
<path d="M51.95 54.7098H13.975C11.836 54.7098 10.1 53.0071 10.1 50.9091V42.5476C10.1 41.7115 9.4025 41.0273 8.55 41.0273C7.6975 41.0273 7 41.7115 7 42.5476V50.9091C7 54.6794 10.131 57.7503 13.975 57.7503H51.95C52.8025 57.7503 53.5 57.0662 53.5 56.23C53.5 55.3939 52.8025 54.7098 51.95 54.7098Z" fill="#5A5CBD"/>
<path d="M50.369 1.5H14.75V46.348H50.369C52.0895 46.348 53.5 44.9645 53.5 43.277V4.57095C53.5 2.88345 52.0895 1.5 50.369 1.5Z" fill="#868CFF"/>
<path d="M13.2 1.5C9.263 1.5 7 3.71959 7 7.58108V50.1487H10.1C10.1 48.0507 11.836 46.348 13.975 46.348H14.75V1.5H13.2Z" fill="#5A5CBD"/>
</g>
<path d="M14.8047 49.6855V58.7473L19.2709 55.7267L23.737 58.7473V49.6855H14.8047Z" fill="#EA4455"/>
<path d="M29.2122 32.39C29.2122 31.4877 29.4849 30.7504 30.0303 30.1783C30.5976 29.5841 31.3721 29.287 32.3538 29.287C33.3355 29.287 34.0991 29.5841 34.6445 30.1783C35.2118 30.7504 35.4954 31.4877 35.4954 32.39C35.4954 33.2923 35.2118 34.0405 34.6445 34.6347C34.0991 35.2069 33.3355 35.493 32.3538 35.493C31.3721 35.493 30.5976 35.2069 30.0303 34.6347C29.4849 34.0405 29.2122 33.2923 29.2122 32.39ZM30.2921 28.0656C29.9213 27.8675 29.5722 27.5154 29.2449 27.0092C28.9177 26.4811 28.7541 25.8649 28.7541 25.1607C28.7541 24.4784 28.9286 23.9723 29.2777 23.6422C29.6485 23.2901 30.1831 23.026 30.8812 22.8499L33.4337 22.2227C34.5245 21.9366 35.07 21.4084 35.07 20.6382C35.07 20.2201 34.8627 19.857 34.4482 19.5489C34.0555 19.2408 33.3683 19.0867 32.3865 19.0867C31.492 19.0867 30.6521 19.2077 29.8667 19.4498C29.0813 19.6699 28.4486 19.934 27.9687 20.2421C27.5978 19.956 27.2814 19.6149 27.0197 19.2187C26.7579 18.8006 26.627 18.3055 26.627 17.7333C26.627 17.1611 26.7906 16.6659 27.1178 16.2478C27.4451 15.8077 27.8923 15.4555 28.4595 15.1915C29.0486 14.9054 29.7358 14.6963 30.5212 14.5643C31.3284 14.4322 32.212 14.3662 33.1719 14.3662C35.7463 14.3662 37.6879 14.9494 38.9969 16.1158C40.3277 17.2601 40.9932 18.7676 40.9932 20.6382C40.9932 24.1593 38.5279 26.4151 33.5973 27.4054L30.2921 28.0656Z" fill="white"/>
<defs>
<clipPath id="clip0_5406_12813">
<rect width="46.5" height="56.25" fill="white" transform="translate(7 1.5)"/>
</clipPath>
</defs>
</svg>
