<svg width="44" height="44" viewBox="0 0 44 44" fill="none" xmlns="http://www.w3.org/2000/svg">
<g id="icon 44X44">
<g id="Group">
<g id="Group_2">
<path id="Vector" d="M42.306 32.4971H22V40.1327H42.306V32.4971Z" fill="#F7C9A8"/>
<path id="Vector_2" d="M4.23199 40.1376H22.0007V32.502H4.23199C2.36199 32.502 0.847656 34.2102 0.847656 36.3198C0.847656 38.4293 2.36199 40.1376 4.23199 40.1376Z" fill="#F9E6D7"/>
<path id="Vector_3" d="M43.153 33.453H22.847C22.3813 33.453 22 33.0269 22 32.4975C22 31.968 22.3777 31.542 22.847 31.542H43.153C43.6187 31.542 44 31.968 44 32.4975C44 33.0269 43.6223 33.453 43.153 33.453Z" fill="#FFA016"/>
<path id="Vector_4" d="M43.153 41.0886H22.847C22.3813 41.0886 22 40.6625 22 40.1331C22 39.6037 22.3777 39.1776 22.847 39.1776H43.153C43.6187 39.1776 44 39.6037 44 40.1331C44 40.6625 43.6223 41.0886 43.153 41.0886Z" fill="#FFA016"/>
<path id="Vector_5" d="M22.847 41.0886H4.23133C1.89933 41.0886 0 38.946 0 36.3153C0 33.6846 1.89933 31.542 4.23133 31.542H22.847C23.3127 31.542 23.694 31.968 23.694 32.4975C23.694 33.0269 23.3163 33.453 22.847 33.453H4.23133C2.83067 33.453 1.694 34.7394 1.694 36.3153C1.694 37.8912 2.83433 39.1776 4.23133 39.1776H22.847C23.3127 39.1776 23.694 39.6036 23.694 40.1331C23.694 40.6625 23.3163 41.0886 22.847 41.0886Z" fill="#FFC729"/>
</g>
<path id="Vector_6" d="M12.3377 35.3645H8.95335C7.55268 35.3645 6.41602 36.6509 6.41602 38.2268V42.0446C6.41602 42.4293 6.62135 42.7809 6.93668 42.9256C7.25202 43.0746 7.61502 42.9918 7.86068 42.7188L8.95335 41.4862L10.046 42.7188C10.2073 42.9008 10.4237 43.0001 10.6437 43.0001C10.7537 43.0001 10.8637 42.9753 10.9663 42.9256C11.2817 42.7767 11.487 42.4293 11.487 42.0446V38.2268C11.487 37.7015 11.8683 37.2713 12.334 37.2713C12.7997 37.2713 13.181 36.8453 13.181 36.3158C13.181 35.7864 12.8033 35.3604 12.334 35.3604L12.3377 35.3645Z" fill="#EB2D42"/>
<g id="Group_3">
<path id="Vector_7" d="M38.9221 1H24.5378C23.1371 1 22.0004 2.28225 22.0004 3.86232C22.0004 2.28225 20.8638 1 19.4631 1H5.07877C4.14377 1 3.38477 1.85621 3.38477 2.91097V29.6356C3.38477 30.6904 4.14377 31.5466 5.07877 31.5466H38.9221C39.8571 31.5466 40.6161 30.6904 40.6161 29.6356V2.91097C40.6161 1.85621 39.8571 1 38.9221 1Z" fill="#EB2D42"/>
<g id="Group_4">
<path id="Vector_8" d="M5.07789 28.6805V3.86271C5.07789 3.3374 5.45555 2.90723 5.92489 2.90723H18.6152C20.4852 2.90723 21.9996 4.61552 21.9996 6.72503C21.9996 4.61552 23.5139 2.90723 25.3839 2.90723H38.0779C38.5436 2.90723 38.9249 3.33327 38.9249 3.86271V28.6805C38.9249 29.2058 38.5472 29.636 38.0779 29.636H5.92122C5.45555 29.636 5.07422 29.21 5.07422 28.6805H5.07789Z" fill="white"/>
<path id="Vector_9" d="M5.07789 28.6809V26.7699C5.07789 26.2446 5.45555 25.8145 5.92489 25.8145H18.6152C20.4852 25.8145 21.9996 27.5227 21.9996 29.6323C21.9996 27.5227 23.5139 25.8145 25.3839 25.8145H38.0779C38.5436 25.8145 38.9249 26.2405 38.9249 26.7699V28.6809C38.9249 29.2062 38.5472 29.6364 38.0779 29.6364H5.92122C5.45555 29.6364 5.07422 29.2104 5.07422 28.6809H5.07789Z" fill="#EDEFF8"/>
</g>
<path id="Vector_10" d="M22.0013 24.9166C21.5356 24.9166 21.1543 24.4905 21.1543 23.9611V8.68986C21.1543 8.16455 21.532 7.73438 22.0013 7.73438C22.4706 7.73438 22.8483 8.16041 22.8483 8.68986V23.9611C22.8483 24.4864 22.4706 24.9166 22.0013 24.9166Z" fill="#EDEFF8"/>
</g>
</g>
<path id="Vector_11" d="M13.2871 20C10.5286 20 8.28711 17.7585 8.28711 15C8.28711 12.2415 10.5286 10 13.2871 10C16.0456 10 18.2871 12.2415 18.2871 15C18.2871 17.7585 16.0456 20 13.2871 20ZM13.2871 11.8901C11.5706 11.8901 10.1773 13.2835 10.1773 15C10.1773 16.7165 11.5706 18.1099 13.2871 18.1099C15.0036 18.1099 16.397 16.7165 16.397 15C16.397 13.2835 15.0036 11.8901 13.2871 11.8901Z" fill="#EB2D42"/>
<path id="Vector_12" d="M31.9405 14.9987L34.5771 12.3607C34.8871 12.0506 34.8871 11.5428 34.5771 11.2326C34.2671 10.9225 33.7596 10.9225 33.4496 11.2326L30.813 13.8706L28.1764 11.2326C27.8664 10.9225 27.3589 10.9225 27.0489 11.2326C26.7389 11.5428 26.7389 12.0506 27.0489 12.3607L29.6855 14.9987L27.0489 17.6367C26.7389 17.9469 26.7389 18.4547 27.0489 18.7648C27.2056 18.9216 27.41 19 27.6144 19C27.8187 19 28.0231 18.9216 28.1798 18.7648L30.8164 16.1269L33.453 18.7648C33.6097 18.9216 33.8141 19 34.0184 19C34.2228 19 34.4272 18.9216 34.5839 18.7648C34.8939 18.4547 34.8939 17.9469 34.5839 17.6367L31.9473 14.9987H31.9405Z" fill="#17B5EA"/>
</g>
</svg>
