<svg width="43" height="45" viewBox="0 0 43 45" fill="none" xmlns="http://www.w3.org/2000/svg">
<g id="Frame">
<ellipse id="Ellipse 79" cx="22.3144" cy="43.5" rx="11.3965" ry="1.5" fill="#D9D9D9"/>
<path id="Ellipse 80" d="M12.057 22.2129C11.4024 23.1178 7.44646 22.2153 5.00558 20.4174C2.5647 18.6195 3.35993 16.3222 4.01448 15.4174C5.99658 16.4174 6.38165 16.5212 8.82253 18.3191C11.2634 20.117 12.7115 21.308 12.057 22.2129Z" fill="#F7D548"/>
<path id="Ellipse 81" d="M32.443 22.2129C33.0976 23.1178 37.0535 22.2153 39.4944 20.4174C41.9353 18.6195 41.1401 16.3222 40.4855 15.4174C38.5034 16.4174 38.1184 16.5212 35.6775 18.3191C33.2366 20.117 31.7885 21.308 32.443 22.2129Z" fill="#F7D548"/>
<path id="Vector" d="M36.202 19.045C36.202 24.7246 32.8917 29.6233 28.1098 31.882C26.3039 32.7363 24.2872 33.213 22.1615 33.213C14.4073 33.213 8.12109 26.8696 8.12109 19.045C8.12109 12.566 12.4342 7.09895 18.3208 5.41595C19.5417 5.06762 20.8316 4.87695 22.1615 4.87695C29.9158 4.87695 36.202 11.2203 36.202 19.045Z" fill="#F2CE36"/>
<path id="Vector_2" d="M25.6749 5.324C25.8566 3.91233 25.6022 2.36133 25.6022 2.36133C25.6022 2.36133 24.5485 3.54567 23.7927 3.55667C23.204 1.936 21.5289 0 21.5289 0C21.5289 0 21.3727 2.14133 20.6459 3.575C19.614 3.16433 18.553 2.101 18.553 2.101C18.553 2.101 18.6002 3.707 19.0399 5.225C18.7964 5.28 18.5566 5.34233 18.3168 5.412C13.5349 7.67067 10.2246 12.5693 10.2246 18.249C10.2246 26.0737 16.5108 32.417 24.2651 32.417C25.5986 32.417 26.8849 32.23 28.1058 31.8817C32.8877 29.623 36.198 24.7243 36.198 19.0447C36.198 12.4447 31.725 6.90067 25.6749 5.324Z" fill="#F7D548"/>
<path id="Vector_3" d="M35.5778 38.4968C35.0291 39.0468 34.4441 39.5601 33.83 40.0331C30.4834 42.6145 26.2829 44.0005 22.1333 44.0005C15.6109 44.0005 9.0921 40.6125 5.74186 34.5331C3.75789 30.8481 2.97665 26.1695 4.13215 20.6585L5.71279 22.1765L6.38502 22.8218L8.52524 24.8861L15.8434 20.9151L22.2786 25.2748L24.9603 23.4635L28.7393 20.9115L28.8156 20.9591L35.4325 24.8861L37.4165 23.0895L37.6962 22.8365L40.1272 20.6328C40.1344 20.6585 40.1381 20.6841 40.1453 20.7098C40.1853 20.8931 40.2216 21.0728 40.258 21.2525C40.3997 21.9748 40.5014 22.6788 40.5741 23.3718C41.2609 29.8141 39.1134 34.9621 35.5742 38.5041L35.5778 38.4968Z" fill="#D6F9FC"/>
<path id="Vector_4" d="M35.5767 38.4966C35.028 39.0466 34.443 39.5599 33.8289 40.0329C31.071 41.4776 27.9751 42.2402 24.901 42.2402C18.3786 42.2402 11.8162 38.8522 8.52776 32.7729C7.02343 29.9936 6.20586 26.6569 6.39117 22.8216L8.52776 24.8859L15.8423 20.9149L22.2775 25.2746L24.9592 23.4632L25.0318 23.5109L27.7135 21.6996L28.8145 20.9552L35.4314 24.8822L37.4153 23.0856L37.6951 22.8326L40.126 20.6289C40.1333 20.6546 40.1369 20.6802 40.1442 20.7059C40.1842 20.8892 40.2205 21.0689 40.2569 21.2486C40.3986 21.9709 40.5003 22.6749 40.573 23.3679C41.2597 29.8102 39.1123 34.9582 35.5731 38.5002L35.5767 38.4966Z" fill="#EEFDFF"/>
<path id="Vector_5" d="M18.695 16.8267C18.695 17.0431 18.6404 17.2484 18.5423 17.4281C18.4733 17.5564 18.3825 17.6701 18.2771 17.7654C18.0591 17.9597 17.772 18.0807 17.4559 18.0807C16.7727 18.0807 16.2168 17.5197 16.2168 16.8304C16.2168 16.3574 16.4784 15.9467 16.86 15.7341C16.9072 15.7084 16.9544 15.6864 17.0053 15.6644C17.1434 15.6094 17.296 15.5801 17.4559 15.5801C18.139 15.5801 18.695 16.1411 18.695 16.8304V16.8267Z" fill="black"/>
<path id="Vector_6" d="M28.1071 16.8267C28.1071 17.0431 28.0526 17.2484 27.9544 17.4281C27.8854 17.5564 27.7946 17.6701 27.6892 17.7654C27.4712 17.9597 27.1841 18.0807 26.868 18.0807C26.1849 18.0807 25.6289 17.5197 25.6289 16.8304C25.6289 16.3574 25.8905 15.9467 26.2721 15.7341C26.3193 15.7084 26.3665 15.6864 26.4174 15.6644C26.5555 15.6094 26.7081 15.5801 26.868 15.5801C27.5511 15.5801 28.1071 16.1411 28.1071 16.8304V16.8267Z" fill="black"/>
<path id="Vector_7" d="M18.6954 16.8265C18.6954 17.0428 18.6409 17.2482 18.5428 17.4278C18.4738 17.5562 18.3829 17.6698 18.2775 17.7652C18.1395 17.8202 17.9868 17.8495 17.827 17.8495C17.1438 17.8495 16.5879 17.2885 16.5879 16.5992C16.5879 16.2252 16.7514 15.8915 17.0058 15.6605C17.1438 15.6055 17.2965 15.5762 17.4563 15.5762C18.1395 15.5762 18.6954 16.1372 18.6954 16.8265Z" fill="#1A1A1A"/>
<path id="Vector_8" d="M28.1075 16.8265C28.1075 17.0428 28.053 17.2482 27.9549 17.4278C27.8859 17.5562 27.795 17.6698 27.6896 17.7652C27.5516 17.8202 27.399 17.8495 27.2391 17.8495C26.5559 17.8495 26 17.2885 26 16.5992C26 16.2252 26.1635 15.8915 26.4179 15.6605C26.556 15.6055 26.7086 15.5762 26.8684 15.5762C27.5516 15.5762 28.1075 16.1372 28.1075 16.8265Z" fill="#1A1A1A"/>
<path id="Vector_9" d="M24.2067 17.5781L22.6661 20.2585L22.161 21.1348L20.1152 17.5781H24.2067Z" fill="#EF7F0F"/>
<path id="Vector_10" d="M24.2069 17.5781L22.5281 20.4931L20.8203 17.5781H24.2069Z" fill="#F7931E"/>
</g>
</svg>
