<svg width="44" height="46" viewBox="0 0 44 46" fill="none" xmlns="http://www.w3.org/2000/svg">
<g id="icon 44X44">
<path id="Vector" d="M11.8898 9.54097C10.6407 10.3061 10.2388 11.3238 10.1157 12.0249C9.94912 11.1278 9.74998 10.2797 9.53998 9.51081C11.9369 8.17275 11.0389 6.29947 11.0389 6.29947C9.8405 7.06461 9.44222 8.04837 9.32274 8.74944C9.32274 8.74944 9.32274 8.7419 9.32274 8.73813C9.01498 7.70914 8.68188 6.78193 8.38136 6.00547C10.6334 4.18119 9.36981 2.46998 9.36981 2.46998C8.24015 3.55174 8.0917 4.69757 8.14239 5.40617C7.80929 4.5958 7.53774 4.01911 7.40739 3.75527C6.87877 1.33546 4.99601 1 4.99601 1C5.21688 3.30674 6.45153 3.75527 7.06705 3.83442C7.16843 4.03796 7.46532 4.65611 7.83825 5.56071C6.24153 4.39603 4.79688 5.10464 4.79688 5.10464C6.27412 6.90254 7.55584 6.48416 8.08808 6.17886C8.38498 6.93646 8.70722 7.84483 9.00774 8.84744C9.04032 8.95297 9.06929 9.05851 9.10188 9.16782C7.72239 7.5433 6.07498 7.97676 6.07498 7.97676C7.28791 10.2043 8.74705 9.83873 9.23222 9.6352C9.45308 10.4418 9.65946 11.3351 9.82963 12.2849C8.4936 10.732 6.89688 11.1203 6.89688 11.1203C8.00119 13.2348 9.36619 13.0614 9.92739 12.8729C10.2424 14.9234 10.5719 14.8631 10.246 12.7636C12.7769 11.4708 11.8934 9.53343 11.8934 9.53343L11.8898 9.54097Z" fill="#C9C9C9"/>
<path id="Vector_2" d="M9.91017 13.3933C9.01586 14.5806 8.99776 15.6812 9.13172 16.3785C8.66465 15.6058 8.17948 14.8934 7.71241 14.2564C9.47569 12.1005 7.98397 10.6983 7.98397 10.6983C7.13672 11.8668 7.11138 12.9334 7.24534 13.6345C7.24534 13.6345 7.24172 13.627 7.2381 13.627C6.59 12.7864 5.95638 12.0477 5.40603 11.4409C6.86517 8.88912 5.08741 7.77344 5.08741 7.77344C4.41397 9.2095 4.67828 10.3327 4.97155 10.9735C4.37776 10.344 3.92155 9.91056 3.70793 9.71457C2.36828 7.65659 0.5 8.0599 0.5 8.0599C1.51379 10.1254 2.82086 10.0726 3.4219 9.91056C3.58845 10.0613 4.08086 10.5212 4.74707 11.226C2.85345 10.7473 1.75638 11.9572 1.75638 11.9572C3.76224 13.0691 4.80862 12.1947 5.19603 11.7047C5.73552 12.3002 6.35465 13.0201 6.98828 13.8418C7.05345 13.9285 7.11862 14.0152 7.18741 14.1019C5.33362 13.1144 3.95052 14.1434 3.95052 14.1434C5.85862 15.7566 7.09328 14.8595 7.47345 14.4901C7.96224 15.1573 8.46914 15.9111 8.95793 16.729C7.16931 15.7943 5.81879 16.7592 5.81879 16.7592C7.58931 18.3121 8.79862 17.6298 9.25483 17.2416C10.2686 19.032 10.5547 18.8511 9.5119 17.0192C11.4164 14.852 9.91379 13.3857 9.91379 13.3857L9.91017 13.3933Z" fill="#C9C9C9"/>
<g id="Group" filter="url(#filter0_d_2066_51592)">
<path id="Vector_3" d="M9.16338 8.92676C8.52976 8.92676 8.01562 9.46198 8.01562 10.1216V35.3035C8.01562 35.9631 8.52976 36.4983 9.16338 36.4983H26.9736C27.6072 36.4983 28.1213 35.9631 28.1213 35.3035V14.475L22.7917 8.92676H9.16338Z" fill="white"/>
</g>
<g id="Group_2" filter="url(#filter1_d_2066_51592)">
<path id="Vector_4" d="M9.87767 7.47559C9.15715 7.47559 8.57422 8.08242 8.57422 8.83249V37.3916C8.57422 38.1417 9.15715 38.7485 9.87767 38.7485H30.0811C30.8016 38.7485 31.3846 38.1417 31.3846 37.3916V13.7664L25.3416 7.47559H9.87767Z" fill="white"/>
</g>
<g id="Group_3" filter="url(#filter2_d_2066_51592)">
<path id="Vector_5" d="M10.7073 6.43506C9.92883 6.43506 9.29883 7.0909 9.29883 7.90127V38.7897C9.29883 39.6001 9.92883 40.2559 10.7073 40.2559H32.5545C33.333 40.2559 33.963 39.6001 33.963 38.7897V13.2384L27.4276 6.43506H10.7073Z" fill="white"/>
</g>
<g id="Group_4">
<path id="Vector_6" d="M13.4082 12.0322H29.8534" stroke="#F4F4F4" stroke-width="1.75" stroke-miterlimit="10"/>
<path id="Vector_7" d="M13.4082 14.9948H29.8534" stroke="#F4F4F4" stroke-width="1.75" stroke-miterlimit="10"/>
<path id="Vector_8" d="M13.4082 17.9574H29.8534" stroke="#F4F4F4" stroke-width="1.75" stroke-miterlimit="10"/>
<path id="Vector_9" d="M13.4082 20.9199H29.8534" stroke="#F4F4F4" stroke-width="1.75" stroke-miterlimit="10"/>
<path id="Vector_10" d="M13.4082 23.8826H29.8534" stroke="#F4F4F4" stroke-width="1.75" stroke-miterlimit="10"/>
<path id="Vector_11" d="M13.4082 26.8451H29.8534" stroke="#F4F4F4" stroke-width="1.75" stroke-miterlimit="10"/>
<path id="Vector_12" d="M13.4082 29.8114H19.8929" stroke="#F4F4F4" stroke-width="1.75" stroke-miterlimit="10"/>
</g>
<g id="Group_5">
<path id="Vector_13" d="M42.5004 16.2764C34.9911 16.7061 31.0844 20.3282 29.7194 22.1488C28.5825 23.6677 28.8359 25.2319 28.8359 25.2319L27.8438 25.4845C27.5107 26.5361 27.2283 29.3027 28.0104 31.044C31.9244 25.1151 37.9383 18.8922 37.9383 18.8922C34.2633 23.174 30.7585 28.0061 28.3797 31.436C31.45 32.0768 36.2004 27.8214 36.2004 27.8214L35.2916 26.9017C35.2916 26.9017 36.2873 26.4117 37.3083 25.688C37.7971 24.8889 39.7559 19.4613 42.5004 16.2764Z" fill="url(#paint0_linear_2066_51592)"/>
<path id="Vector_14" d="M28.0066 31.0441C26.8661 32.7703 25.8993 34.474 25.3164 35.9892C25.3164 35.9892 26.4931 34.1499 28.3759 31.4323C28.3107 31.4172 28.2455 31.4059 28.184 31.3871C28.1188 31.2777 28.0609 31.1609 28.0066 31.0403V31.0441Z" fill="#E890FD"/>
<path id="Vector_15" d="M28.0059 31.0439C28.0602 31.1645 28.1181 31.2814 28.1833 31.3907C28.2448 31.4095 28.31 31.4209 28.3752 31.4359C30.754 28.0022 34.2588 23.1739 37.9338 18.8921C37.9338 18.8921 31.9198 25.1188 28.0059 31.0439Z" fill="white"/>
</g>
<path id="Vector_16" d="M28.8108 13.2199H33.9377L27.4023 6.4165V11.7537C27.4023 12.564 28.0323 13.2199 28.8108 13.2199Z" fill="url(#paint1_linear_2066_51592)" stroke="#E9E9E9" stroke-width="0.26" stroke-miterlimit="10"/>
<path id="Vector_17" d="M22.4701 35.2355C22.6185 35.7707 23.0204 36.2192 23.5165 36.419C24.0161 36.6188 24.6027 36.5622 25.0589 36.272C25.5404 35.9629 25.8627 35.2694 25.5585 34.7719C25.2978 34.346 24.7149 34.2706 24.2442 34.3912C23.3535 34.6173 22.6258 35.4089 22.4302 36.3399C22.2999 36.958 22.4411 37.7043 22.9661 38.0209C24.0813 38.6918 25.1783 37.2181 25.6346 36.3474C25.5114 36.6866 25.3485 37.0108 25.2689 37.3651C25.1965 37.6855 25.258 38.0058 25.6418 37.7948C26.0473 37.5724 26.3587 37.0899 26.6773 36.7507C26.7823 36.6414 26.9344 36.4944 27.0937 36.4906C27.3037 36.4831 27.3906 36.6866 27.3435 36.8788C27.2965 37.0711 27.2132 37.2935 27.3906 37.448C27.5354 37.5724 27.7165 37.5008 27.8142 37.3538C27.8902 37.2369 27.9228 37.0975 27.9952 36.9768C28.0677 36.8562 28.198 36.7545 28.3283 36.7922C28.4587 36.8261 28.5275 36.9768 28.6433 37.0447C28.7809 37.1238 28.9583 37.0673 29.0742 36.9542C29.1901 36.8449 29.2552 36.6904 29.3168 36.5396" stroke="#E890FD" stroke-width="0.3" stroke-miterlimit="10" stroke-linecap="round"/>
</g>
<defs>
<filter id="filter0_d_2066_51592" x="6.66562" y="7.57676" width="25.5055" height="32.9715" filterUnits="userSpaceOnUse" color-interpolation-filters="sRGB">
<feFlood flood-opacity="0" result="BackgroundImageFix"/>
<feColorMatrix in="SourceAlpha" type="matrix" values="0 0 0 0 0 0 0 0 0 0 0 0 0 0 0 0 0 0 127 0" result="hardAlpha"/>
<feOffset dx="1.35" dy="1.35"/>
<feGaussianBlur stdDeviation="1.35"/>
<feColorMatrix type="matrix" values="0 0 0 0 0 0 0 0 0 0 0 0 0 0 0 0 0 0 0.3 0"/>
<feBlend mode="normal" in2="BackgroundImageFix" result="effect1_dropShadow_2066_51592"/>
<feBlend mode="normal" in="SourceGraphic" in2="effect1_dropShadow_2066_51592" result="shape"/>
</filter>
<filter id="filter1_d_2066_51592" x="7.03422" y="5.93559" width="28.9705" height="37.4329" filterUnits="userSpaceOnUse" color-interpolation-filters="sRGB">
<feFlood flood-opacity="0" result="BackgroundImageFix"/>
<feColorMatrix in="SourceAlpha" type="matrix" values="0 0 0 0 0 0 0 0 0 0 0 0 0 0 0 0 0 0 127 0" result="hardAlpha"/>
<feOffset dx="1.54" dy="1.54"/>
<feGaussianBlur stdDeviation="1.54"/>
<feColorMatrix type="matrix" values="0 0 0 0 0 0 0 0 0 0 0 0 0 0 0 0 0 0 0.3 0"/>
<feBlend mode="normal" in2="BackgroundImageFix" result="effect1_dropShadow_2066_51592"/>
<feBlend mode="normal" in="SourceGraphic" in2="effect1_dropShadow_2066_51592" result="shape"/>
</filter>
<filter id="filter2_d_2066_51592" x="7.63883" y="4.77506" width="31.3041" height="40.4609" filterUnits="userSpaceOnUse" color-interpolation-filters="sRGB">
<feFlood flood-opacity="0" result="BackgroundImageFix"/>
<feColorMatrix in="SourceAlpha" type="matrix" values="0 0 0 0 0 0 0 0 0 0 0 0 0 0 0 0 0 0 127 0" result="hardAlpha"/>
<feOffset dx="1.66" dy="1.66"/>
<feGaussianBlur stdDeviation="1.66"/>
<feColorMatrix type="matrix" values="0 0 0 0 0 0 0 0 0 0 0 0 0 0 0 0 0 0 0.3 0"/>
<feBlend mode="normal" in2="BackgroundImageFix" result="effect1_dropShadow_2066_51592"/>
<feBlend mode="normal" in="SourceGraphic" in2="effect1_dropShadow_2066_51592" result="shape"/>
</filter>
<linearGradient id="paint0_linear_2066_51592" x1="30.4109" y1="28.334" x2="40.1801" y2="16.4739" gradientUnits="userSpaceOnUse">
<stop stop-color="#E890FD"/>
<stop offset="1" stop-color="#E47DFD"/>
</linearGradient>
<linearGradient id="paint1_linear_2066_51592" x1="28.5139" y1="12.1155" x2="31.1678" y2="9.5046" gradientUnits="userSpaceOnUse">
<stop stop-color="#DFDFDF"/>
<stop offset="1" stop-color="white"/>
</linearGradient>
</defs>
</svg>
