<svg width="228" height="180" viewBox="0 0 228 180" fill="none" xmlns="http://www.w3.org/2000/svg">
<g clip-path="url(#clip0_2238_48200)">
<path d="M173.693 146.974C199.105 121.527 199.105 80.2698 173.693 54.8232C148.281 29.3765 107.08 29.3765 81.6673 54.8232C56.2552 80.2698 56.2552 121.527 81.6673 146.974C107.08 172.42 148.281 172.42 173.693 146.974Z" fill="white"/>
<path d="M190.169 280.387C224.68 245.83 224.68 189.8 190.169 155.242C155.658 120.685 99.7046 120.685 65.1936 155.242C30.6826 189.8 30.6826 245.83 65.1936 280.387C99.7046 314.945 155.658 314.945 190.169 280.387Z" fill="white"/>
<path d="M143.676 148.874H175.525C178.66 148.874 181.205 151.421 181.205 154.561V266.698C181.205 269.837 178.66 272.385 175.525 272.385H143.676C140.541 272.385 137.996 269.837 137.996 266.698V154.561C137.996 151.421 140.541 148.874 143.676 148.874Z" fill="#56C5AD"/>
<path d="M76.2562 129.501H183.031C191.634 129.501 198.618 136.496 198.618 145.11C198.618 153.724 191.634 160.718 183.031 160.718H76.2562C67.6538 160.718 60.6689 153.724 60.6689 145.11C60.6689 136.496 67.6538 129.501 76.2562 129.501Z" fill="#56C5AD"/>
<path fill-rule="evenodd" clip-rule="evenodd" d="M158.615 80.2039C160.877 80.2039 163.013 80.759 164.891 81.7417L212.364 93.3615L165.263 105.679C163.297 106.786 161.029 107.417 158.615 107.417C151.109 107.417 145.026 101.326 145.026 93.8104C145.026 86.2944 151.109 80.2039 158.615 80.2039Z" fill="#FE7B6E"/>
<path fill-rule="evenodd" clip-rule="evenodd" d="M130.818 70.6286C133.044 70.6286 134.859 68.8118 134.859 66.5824C134.859 64.3531 133.044 62.5363 130.818 62.5363C128.592 62.5363 126.777 64.3531 126.777 66.5824C126.777 68.8118 128.592 70.6286 130.818 70.6286Z" fill="#515141"/>
<path fill-rule="evenodd" clip-rule="evenodd" d="M162.032 70.6286C164.258 70.6286 166.073 68.8118 166.073 66.5824C166.073 64.3531 164.258 62.5363 162.032 62.5363C159.806 62.5363 157.991 64.3531 157.991 66.5824C157.991 68.8118 159.806 70.6286 162.032 70.6286Z" fill="#515141"/>
<path fill-rule="evenodd" clip-rule="evenodd" d="M77.6853 39.5483C77.6853 33.0817 82.9709 27.7889 89.4287 27.7889H169.864C176.322 27.7889 181.607 33.0817 181.607 39.5483" fill="#56C5AD"/>
<path fill-rule="evenodd" clip-rule="evenodd" d="M181.607 39.5485C181.607 46.015 176.322 51.3078 169.864 51.3078H89.4287C82.9709 51.3078 77.6853 46.015 77.6853 39.5485" fill="#56C5AD"/>
<path fill-rule="evenodd" clip-rule="evenodd" d="M129.644 -22.2026C143.196 -22.2026 154.285 -11.0984 154.285 2.47169V26.6334C154.285 40.2035 143.196 51.3077 129.644 51.3077C116.092 51.3077 105.003 40.2035 105.003 26.6334V2.47169C105.003 -11.0984 116.092 -22.2026 129.644 -22.2026Z" fill="#56C5AD"/>
</g>
<defs>
<clipPath id="clip0_2238_48200">
<rect width="228" height="180" fill="white"/>
</clipPath>
</defs>
</svg>
