<svg width="234" height="180" viewBox="0 0 234 180" fill="none" xmlns="http://www.w3.org/2000/svg">
<g clip-path="url(#clip0_2238_48132)">
<path fill-rule="evenodd" clip-rule="evenodd" d="M89.2257 118.572L136.361 86.0783C171.422 61.9074 203.528 97.9548 177.748 115.13L130.434 146.655C91.0398 172.903 63.962 135.987 89.2242 118.572H89.2257Z" fill="#B5B5A4"/>
<path fill-rule="evenodd" clip-rule="evenodd" d="M188.13 36.7747H136.364V95.9329C136.364 125.107 188.13 125.107 188.13 95.9329V36.7747Z" fill="#693726"/>
<path d="M162.247 53.0858C176.542 53.0858 188.13 45.7831 188.13 36.7748C188.13 27.7664 176.542 20.4637 162.247 20.4637C147.952 20.4637 136.364 27.7664 136.364 36.7748C136.364 45.7831 147.952 53.0858 162.247 53.0858Z" fill="#FE7B6E"/>
<path fill-rule="evenodd" clip-rule="evenodd" d="M181.428 47.7256V-88.2607H143.908V48.284C148.594 51.2494 155.08 53.0844 162.247 53.0844C169.854 53.0844 176.693 51.0164 181.429 47.7241L181.428 47.7256Z" fill="#3B9188"/>
<path fill-rule="evenodd" clip-rule="evenodd" d="M185.598 92.8228L136.363 92.1553C136.405 99.094 134.818 105.237 129.112 109.365L95.0808 132.115C88.5696 137.202 85.3297 140.912 84.6444 148.027C92.8561 156.881 109.984 160.281 130.436 146.655L177.75 115.13C187.077 108.916 188.824 100.232 185.598 92.8228Z" fill="#693726"/>
<path fill-rule="evenodd" clip-rule="evenodd" d="M25.7512 85.399L72.8865 52.9052C107.948 28.7343 140.054 64.7817 114.275 81.9573L66.9606 113.482C27.5667 139.73 0.488966 102.813 25.7512 85.399Z" fill="#B5B5A4"/>
<path fill-rule="evenodd" clip-rule="evenodd" d="M124.653 3.60025H72.886V62.7585C72.886 91.9329 124.653 91.9329 124.653 62.7585V3.60025Z" fill="#693726"/>
<path d="M98.7693 19.9113C113.064 19.9113 124.653 12.6086 124.653 3.60027C124.653 -5.40808 113.064 -12.7108 98.7693 -12.7108C84.4744 -12.7108 72.886 -5.40808 72.886 3.60027C72.886 12.6086 84.4744 19.9113 98.7693 19.9113Z" fill="#FE7B6E"/>
<path fill-rule="evenodd" clip-rule="evenodd" d="M117.952 14.551V-88.2607H80.4315V15.1109C85.1182 18.0763 91.6039 19.9114 98.7705 19.9114C106.378 19.9114 113.217 17.8434 117.953 14.551H117.952Z" fill="#3B9188"/>
<path fill-rule="evenodd" clip-rule="evenodd" d="M122.12 59.6497L72.8858 58.9823C72.9276 65.9209 71.3405 72.0637 65.6341 76.1922L31.6032 98.9417C25.0921 104.029 21.8522 107.739 21.1669 114.854C29.3786 123.708 46.5067 127.108 66.9584 113.482L114.273 81.9572C123.6 75.7428 125.347 67.0587 122.119 59.6497H122.12Z" fill="#693726"/>
<path fill-rule="evenodd" clip-rule="evenodd" d="M35.6929 -2.27671C36.9306 -1.94523 37.6652 -0.673071 37.3337 0.564742C37.0023 1.80255 35.7302 2.53718 34.4925 2.20421C33.2547 1.87273 32.5202 0.600579 32.8531 -0.637234C33.1846 -1.87505 34.4566 -2.60968 35.6944 -2.2782L35.6929 -2.27671Z" fill="#9CCEBE"/>
<path fill-rule="evenodd" clip-rule="evenodd" d="M76.9852 -2.2768C78.223 -1.94532 78.9575 -0.673163 78.6261 0.56465C78.2946 1.80246 77.0226 2.53709 75.7848 2.20411C74.5471 1.87264 73.8125 0.600487 74.1455 -0.637326C74.4769 -1.87514 75.749 -2.60977 76.9867 -2.27829L76.9852 -2.2768Z" fill="#9CCEBE"/>
<path fill-rule="evenodd" clip-rule="evenodd" d="M118.276 -2.2768C119.514 -1.94532 120.249 -0.673163 119.917 0.56465C119.586 1.80246 118.314 2.53709 117.076 2.20411C115.838 1.87264 115.104 0.600487 115.436 -0.637326C115.768 -1.87514 117.04 -2.60977 118.278 -2.27829L118.276 -2.2768Z" fill="#9CCEBE"/>
<path fill-rule="evenodd" clip-rule="evenodd" d="M159.567 -2.27671C160.805 -1.94523 161.54 -0.673071 161.208 0.564742C160.877 1.80255 159.605 2.53718 158.367 2.20421C157.129 1.87273 156.395 0.600579 156.728 -0.637234C157.059 -1.87505 158.331 -2.60968 159.569 -2.2782L159.567 -2.27671Z" fill="#9CCEBE"/>
<path fill-rule="evenodd" clip-rule="evenodd" d="M14.6233 20.6623C15.8611 20.9937 16.5956 22.2659 16.2642 23.5037C15.9327 24.7415 14.6606 25.4761 13.4229 25.1447C12.1852 24.8132 11.4506 23.541 11.7821 22.3032C12.1135 21.0654 13.3856 20.3308 14.6233 20.6623Z" fill="#9CCEBE"/>
<path fill-rule="evenodd" clip-rule="evenodd" d="M55.9143 20.6623C57.1521 20.9937 57.8866 22.2659 57.5552 23.5037C57.2237 24.7415 55.9517 25.4761 54.7139 25.1447C53.4762 24.8132 52.7416 23.541 53.0731 22.3032C53.4045 21.0654 54.6766 20.3308 55.9143 20.6623Z" fill="#9CCEBE"/>
<path fill-rule="evenodd" clip-rule="evenodd" d="M97.2068 20.6623C98.4445 20.9937 99.1791 22.2659 98.8477 23.5037C98.5162 24.7415 97.2441 25.4761 96.0064 25.1447C94.7687 24.8132 94.0341 23.541 94.3656 22.3032C94.697 21.0654 95.9691 20.3308 97.2068 20.6623Z" fill="#9CCEBE"/>
<path fill-rule="evenodd" clip-rule="evenodd" d="M138.498 20.6623C139.736 20.9937 140.47 22.2659 140.139 23.5037C139.807 24.7415 138.535 25.4761 137.297 25.1447C136.06 24.8132 135.325 23.541 135.657 22.3032C135.988 21.0654 137.26 20.3308 138.498 20.6623Z" fill="#9CCEBE"/>
<path fill-rule="evenodd" clip-rule="evenodd" d="M179.789 20.6623C181.027 20.9937 181.761 22.2659 181.43 23.5037C181.098 24.7415 179.826 25.4761 178.588 25.1447C177.351 24.8132 176.616 23.541 176.948 22.3032C177.279 21.0654 178.551 20.3308 179.789 20.6623Z" fill="#9CCEBE"/>
<path fill-rule="evenodd" clip-rule="evenodd" d="M35.6929 43.503C36.9306 43.8344 37.6652 45.1066 37.3337 46.3444C37.0023 47.5822 35.7302 48.3168 34.4925 47.9854C33.2547 47.6539 32.5202 46.3817 32.8531 45.1439C33.1846 43.9061 34.4566 43.1715 35.6944 43.503H35.6929Z" fill="#9CCEBE"/>
<path fill-rule="evenodd" clip-rule="evenodd" d="M76.9852 43.5028C78.223 43.8343 78.9575 45.1065 78.6261 46.3443C78.2946 47.5821 77.0226 48.3167 75.7848 47.9852C74.5471 47.6538 73.8125 46.3816 74.1455 45.1438C74.4769 43.906 75.749 43.1714 76.9867 43.5028H76.9852Z" fill="#9CCEBE"/>
<path fill-rule="evenodd" clip-rule="evenodd" d="M118.276 43.5028C119.514 43.8343 120.249 45.1065 119.917 46.3443C119.586 47.5821 118.314 48.3167 117.076 47.9852C115.838 47.6538 115.104 46.3816 115.436 45.1438C115.768 43.906 117.04 43.1714 118.278 43.5028H118.276Z" fill="#9CCEBE"/>
<path fill-rule="evenodd" clip-rule="evenodd" d="M159.567 43.503C160.805 43.8344 161.54 45.1066 161.208 46.3444C160.877 47.5822 159.605 48.3168 158.367 47.9854C157.129 47.6539 156.395 46.3817 156.728 45.1439C157.059 43.9061 158.331 43.1715 159.569 43.503H159.567Z" fill="#9CCEBE"/>
<path fill-rule="evenodd" clip-rule="evenodd" d="M14.6233 66.4419C15.8611 66.7734 16.5956 68.0456 16.2642 69.2834C15.9327 70.5212 14.6606 71.2558 13.4229 70.9243C12.1852 70.5929 11.4506 69.3207 11.7821 68.0829C12.1135 66.8451 13.3856 66.1104 14.6233 66.4419Z" fill="#9CCEBE"/>
<path fill-rule="evenodd" clip-rule="evenodd" d="M55.9143 66.4419C57.1521 66.7734 57.8866 68.0456 57.5552 69.2834C57.2237 70.5212 55.9517 71.2558 54.7139 70.9243C53.4762 70.5929 52.7416 69.3207 53.0731 68.0829C53.4045 66.8451 54.6766 66.1104 55.9143 66.4419Z" fill="#9CCEBE"/>
<path fill-rule="evenodd" clip-rule="evenodd" d="M97.2068 66.4419C98.4445 66.7734 99.1791 68.0456 98.8477 69.2834C98.5162 70.5212 97.2441 71.2558 96.0064 70.9243C94.7687 70.5929 94.0341 69.3207 94.3656 68.0829C94.697 66.8451 95.9691 66.1104 97.2068 66.4419Z" fill="#9CCEBE"/>
<path fill-rule="evenodd" clip-rule="evenodd" d="M138.498 66.4419C139.736 66.7734 140.47 68.0456 140.139 69.2834C139.807 70.5212 138.535 71.2558 137.297 70.9243C136.06 70.5929 135.325 69.3207 135.657 68.0829C135.988 66.8451 137.26 66.1104 138.498 66.4419Z" fill="#9CCEBE"/>
<path fill-rule="evenodd" clip-rule="evenodd" d="M179.789 66.4419C181.027 66.7734 181.761 68.0456 181.43 69.2834C181.098 70.5212 179.826 71.2558 178.588 70.9243C177.351 70.5929 176.616 69.3207 176.948 68.0829C177.279 66.8451 178.551 66.1104 179.789 66.4419Z" fill="#9CCEBE"/>
<path fill-rule="evenodd" clip-rule="evenodd" d="M35.6929 89.2826C36.9306 89.6141 37.6652 90.8862 37.3337 92.124C37.0023 93.3619 35.7302 94.0965 34.4925 93.765C33.2547 93.4335 32.5202 92.1614 32.8531 90.9236C33.1846 89.6857 34.4566 88.9511 35.6944 89.2841L35.6929 89.2826Z" fill="#9CCEBE"/>
<path fill-rule="evenodd" clip-rule="evenodd" d="M76.9852 89.2825C78.223 89.614 78.9575 90.8862 78.6261 92.124C78.2946 93.3618 77.0226 94.0964 75.7848 93.7649C74.5471 93.4335 73.8125 92.1613 74.1455 90.9235C74.4769 89.6857 75.749 88.9511 76.9867 89.284L76.9852 89.2825Z" fill="#9CCEBE"/>
<path fill-rule="evenodd" clip-rule="evenodd" d="M118.276 89.2825C119.514 89.614 120.249 90.8862 119.917 92.124C119.586 93.3618 118.314 94.0964 117.076 93.7649C115.838 93.4335 115.104 92.1613 115.436 90.9235C115.768 89.6857 117.04 88.9511 118.278 89.284L118.276 89.2825Z" fill="#9CCEBE"/>
<path fill-rule="evenodd" clip-rule="evenodd" d="M159.567 89.2826C160.805 89.6141 161.54 90.8862 161.208 92.124C160.877 93.3619 159.605 94.0965 158.367 93.765C157.129 93.4335 156.395 92.1614 156.728 90.9236C157.059 89.6857 158.331 88.9511 159.569 89.2841L159.567 89.2826Z" fill="#9CCEBE"/>
<path fill-rule="evenodd" clip-rule="evenodd" d="M14.6233 112.222C15.8611 112.553 16.5956 113.825 16.2642 115.063C15.9327 116.301 14.6606 117.035 13.4229 116.704C12.1852 116.373 11.4506 115.1 11.7821 113.863C12.1135 112.625 13.3856 111.89 14.6233 112.222Z" fill="#9CCEBE"/>
<path fill-rule="evenodd" clip-rule="evenodd" d="M55.9143 112.222C57.1521 112.553 57.8866 113.825 57.5552 115.063C57.2237 116.301 55.9517 117.035 54.7139 116.704C53.4762 116.373 52.7416 115.1 53.0731 113.863C53.4045 112.625 54.6766 111.89 55.9143 112.222Z" fill="#9CCEBE"/>
<path fill-rule="evenodd" clip-rule="evenodd" d="M97.2068 112.222C98.4445 112.553 99.1791 113.825 98.8477 115.063C98.5162 116.301 97.2441 117.035 96.0064 116.704C94.7687 116.373 94.0341 115.1 94.3656 113.863C94.697 112.625 95.9691 111.89 97.2068 112.222Z" fill="#9CCEBE"/>
<path fill-rule="evenodd" clip-rule="evenodd" d="M138.498 112.222C139.736 112.553 140.47 113.825 140.139 115.063C139.807 116.301 138.535 117.035 137.297 116.704C136.06 116.373 135.325 115.1 135.657 113.863C135.988 112.625 137.26 111.89 138.498 112.222Z" fill="#9CCEBE"/>
<path fill-rule="evenodd" clip-rule="evenodd" d="M179.789 112.222C181.027 112.553 181.761 113.825 181.43 115.063C181.098 116.301 179.826 117.035 178.588 116.704C177.351 116.373 176.616 115.1 176.948 113.863C177.279 112.625 178.551 111.89 179.789 112.222Z" fill="#9CCEBE"/>
<path fill-rule="evenodd" clip-rule="evenodd" d="M35.6929 135.062C36.9306 135.394 37.6652 136.666 37.3337 137.904C37.0023 139.142 35.7302 139.876 34.4925 139.545C33.2547 139.213 32.5202 137.941 32.8531 136.703C33.1846 135.465 34.4566 134.731 35.6944 135.062H35.6929Z" fill="#9CCEBE"/>
<path fill-rule="evenodd" clip-rule="evenodd" d="M76.9852 135.062C78.223 135.394 78.9575 136.666 78.6261 137.904C78.2946 139.141 77.0226 139.876 75.7848 139.545C74.5471 139.213 73.8125 137.941 74.1455 136.703C74.4769 135.465 75.749 134.731 76.9867 135.062H76.9852Z" fill="#9CCEBE"/>
<path fill-rule="evenodd" clip-rule="evenodd" d="M118.276 135.062C119.514 135.394 120.249 136.666 119.917 137.904C119.586 139.141 118.314 139.876 117.076 139.545C115.838 139.213 115.104 137.941 115.436 136.703C115.768 135.465 117.04 134.731 118.278 135.062H118.276Z" fill="#9CCEBE"/>
<path fill-rule="evenodd" clip-rule="evenodd" d="M159.567 135.062C160.805 135.394 161.54 136.666 161.208 137.904C160.877 139.142 159.605 139.876 158.367 139.545C157.129 139.213 156.395 137.941 156.728 136.703C157.059 135.465 158.331 134.731 159.569 135.062H159.567Z" fill="#9CCEBE"/>
<path fill-rule="evenodd" clip-rule="evenodd" d="M14.6233 158.001C15.8611 158.333 16.5956 159.605 16.2642 160.843C15.9327 162.081 14.6606 162.815 13.4229 162.484C12.1852 162.152 11.4506 160.88 11.7821 159.642C12.1135 158.404 13.3856 157.67 14.6233 158.001Z" fill="#9CCEBE"/>
<path fill-rule="evenodd" clip-rule="evenodd" d="M55.9143 158.001C57.1521 158.333 57.8866 159.605 57.5552 160.843C57.2237 162.081 55.9517 162.815 54.7139 162.484C53.4762 162.152 52.7416 160.88 53.0731 159.642C53.4045 158.404 54.6766 157.67 55.9143 158.001Z" fill="#9CCEBE"/>
<path fill-rule="evenodd" clip-rule="evenodd" d="M97.2068 158.001C98.4445 158.333 99.1791 159.605 98.8477 160.843C98.5162 162.081 97.2441 162.815 96.0064 162.484C94.7687 162.152 94.0341 160.88 94.3656 159.642C94.697 158.404 95.9691 157.67 97.2068 158.001Z" fill="#9CCEBE"/>
<path fill-rule="evenodd" clip-rule="evenodd" d="M138.498 158.001C139.736 158.333 140.47 159.605 140.139 160.843C139.807 162.081 138.535 162.815 137.297 162.484C136.06 162.152 135.325 160.88 135.657 159.642C135.988 158.404 137.26 157.67 138.498 158.001Z" fill="#9CCEBE"/>
<path fill-rule="evenodd" clip-rule="evenodd" d="M179.789 158.001C181.027 158.333 181.761 159.605 181.43 160.843C181.098 162.081 179.826 162.815 178.588 162.484C177.351 162.152 176.616 160.88 176.948 159.642C177.279 158.404 178.551 157.67 179.789 158.001Z" fill="#9CCEBE"/>
</g>
<defs>
<clipPath id="clip0_2238_48132">
<rect width="234" height="180" fill="white"/>
</clipPath>
</defs>
</svg>
