<svg width="103" height="220" viewBox="0 0 103 220" fill="none" xmlns="http://www.w3.org/2000/svg">
<g clip-path="url(#clip0_2236_53948)">
<path d="M63.0992 128.074C86.3506 105.1 86.3506 67.8516 63.0992 44.8775C39.8478 21.9035 2.14988 21.9035 -21.1015 44.8775C-44.3529 67.8516 -44.3529 105.1 -21.1015 128.074C2.14987 151.048 39.8478 151.048 63.0992 128.074Z" fill="white"/>
<path d="M78.1727 248.524C109.749 217.324 109.749 166.739 78.1728 135.539C46.5962 104.339 -4.59956 104.339 -36.1761 135.539C-67.7527 166.739 -67.7527 217.324 -36.1761 248.524C-4.59957 279.724 46.5962 279.724 78.1727 248.524Z" fill="white"/>
<path d="M20.9986 413.579C78.143 413.579 124.468 367.807 124.468 311.344C124.468 254.881 78.143 209.109 20.9986 209.109C-36.1458 209.109 -82.4705 254.881 -82.4705 311.344C-82.4705 367.807 -36.1458 413.579 20.9986 413.579Z" fill="white"/>
<path d="M35.6347 129.789H64.7764C67.6449 129.789 69.9729 132.09 69.9729 134.924V236.165C69.9729 238.999 67.6449 241.299 64.7764 241.299H35.6347C32.7662 241.299 30.4382 238.999 30.4382 236.165V134.924C30.4382 132.09 32.7662 129.789 35.6347 129.789Z" fill="#56C5AD"/>
<path d="M-26.0522 112.299H71.6439C79.5148 112.299 85.9058 118.614 85.9058 126.391C85.9058 134.168 79.5148 140.483 71.6439 140.483H-26.0522C-33.9231 140.483 -40.3141 134.168 -40.3141 126.391C-40.3141 118.614 -33.9231 112.299 -26.0522 112.299Z" fill="#56C5AD"/>
<path fill-rule="evenodd" clip-rule="evenodd" d="M49.3006 67.7924C51.3709 67.7924 53.3247 68.2935 55.043 69.1807L98.4799 79.6715L55.3839 90.792C53.5853 91.7915 51.5095 92.3611 49.3006 92.3611C42.433 92.3611 36.8679 86.8625 36.8679 80.0767C36.8679 73.291 42.433 67.7924 49.3006 67.7924Z" fill="#FE7B6E"/>
<path fill-rule="evenodd" clip-rule="evenodd" d="M23.8698 59.1473C25.9069 59.1473 27.567 57.507 27.567 55.4943C27.567 53.4816 25.9069 51.8413 23.8698 51.8413C21.8328 51.8413 20.1727 53.4816 20.1727 55.4943C20.1727 57.507 21.8328 59.1473 23.8698 59.1473Z" fill="#515141"/>
<path fill-rule="evenodd" clip-rule="evenodd" d="M52.4295 59.1473C54.4665 59.1473 56.1266 57.507 56.1266 55.4943C56.1266 53.4816 54.4665 51.8413 52.4295 51.8413C50.3925 51.8413 48.7324 53.4816 48.7324 55.4943C48.7324 57.507 50.3925 59.1473 52.4295 59.1473Z" fill="#515141"/>
<path fill-rule="evenodd" clip-rule="evenodd" d="M-24.7468 31.087C-24.7468 25.2488 -19.9107 20.4703 -14.002 20.4703H59.5938C65.5025 20.4703 70.3386 25.2488 70.3386 31.087" fill="#56C5AD"/>
<path fill-rule="evenodd" clip-rule="evenodd" d="M70.3386 31.087C70.3386 36.9253 65.5025 41.7037 59.5938 41.7037H-14.002C-19.9107 41.7037 -24.7468 36.9253 -24.7468 31.087" fill="#56C5AD"/>
<path fill-rule="evenodd" clip-rule="evenodd" d="M22.7945 -24.6637C35.1939 -24.6637 45.3402 -14.6385 45.3402 -2.38695V19.427C45.3402 31.6785 35.1939 41.7038 22.7945 41.7038C10.395 41.7038 -3.75122 31.6785 -3.75122 19.427V-2.38695C-3.75122 -14.6385 10.395 -24.6637 22.7945 -24.6637Z" fill="#56C5AD"/>
</g>
<defs>
<clipPath id="clip0_2236_53948">
<rect width="103" height="220" fill="white"/>
</clipPath>
</defs>
</svg>
