<svg width="152" height="220" viewBox="0 0 152 220" fill="none" xmlns="http://www.w3.org/2000/svg">
<g clip-path="url(#clip0_2236_53967)">
<path fill-rule="evenodd" clip-rule="evenodd" d="M84.0079 151.955L128.139 122.246C160.966 100.146 191.027 133.105 166.889 148.809L122.59 177.632C85.7063 201.631 60.3541 167.878 84.0065 151.955H84.0079Z" fill="#B5B5A4"/>
<path fill-rule="evenodd" clip-rule="evenodd" d="M176.609 77.1667H128.141V131.256C128.141 157.931 176.609 157.931 176.609 131.256V77.1667Z" fill="#693726"/>
<path d="M152.375 92.0802C165.759 92.0802 176.609 85.4032 176.609 77.1667C176.609 68.9302 165.759 62.2532 152.375 62.2532C138.991 62.2532 128.141 68.9302 128.141 77.1667C128.141 85.4032 138.991 92.0802 152.375 92.0802Z" fill="#FE7B6E"/>
<path fill-rule="evenodd" clip-rule="evenodd" d="M170.333 87.1792V-37.1556H135.204V87.6898C139.592 90.4011 145.665 92.0789 152.375 92.0789C159.497 92.0789 165.901 90.1881 170.335 87.1778L170.333 87.1792Z" fill="#3B9188"/>
<path fill-rule="evenodd" clip-rule="evenodd" d="M174.238 128.412L128.141 127.802C128.18 134.146 126.694 139.763 121.351 143.538L89.4891 164.338C83.3928 168.989 80.3594 172.382 79.7178 178.887C87.4062 186.983 103.443 190.091 122.591 177.632L166.891 148.809C175.623 143.127 177.259 135.187 174.238 128.412Z" fill="#693726"/>
<path fill-rule="evenodd" clip-rule="evenodd" d="M24.5778 121.625L68.7093 91.9151C101.536 69.8151 131.596 102.774 107.46 118.478L63.1611 147.302C26.2776 171.301 0.925372 137.547 24.5778 121.625Z" fill="#B5B5A4"/>
<path fill-rule="evenodd" clip-rule="evenodd" d="M117.177 46.8346H68.7092V100.924C68.7092 127.599 117.177 127.599 117.177 100.924V46.8346Z" fill="#693726"/>
<path d="M92.9431 61.7481C106.327 61.7481 117.177 55.071 117.177 46.8345C117.177 38.598 106.327 31.921 92.9431 31.921C79.5591 31.921 68.7092 38.598 68.7092 46.8345C68.7092 55.071 79.5591 61.7481 92.9431 61.7481Z" fill="#FE7B6E"/>
<path fill-rule="evenodd" clip-rule="evenodd" d="M110.904 56.847V-37.1556H75.7744V57.359C80.1624 60.0703 86.2349 61.7481 92.9448 61.7481C100.067 61.7481 106.471 59.8573 110.905 56.847H110.904Z" fill="#3B9188"/>
<path fill-rule="evenodd" clip-rule="evenodd" d="M114.806 98.0818L68.7092 97.4716C68.7484 103.816 67.2624 109.432 61.9196 113.207L30.0574 134.007C23.9612 138.658 20.9278 142.051 20.2861 148.556C27.9746 156.652 44.0112 159.76 63.1596 147.302L107.459 118.478C116.192 112.796 117.827 104.856 114.805 98.0818H114.806Z" fill="#693726"/>
<path fill-rule="evenodd" clip-rule="evenodd" d="M33.8864 -0.396133C35.0453 -0.0930572 35.7331 1.0701 35.4227 2.20186C35.1124 3.33361 33.9214 4.00529 32.7625 3.70222C31.6037 3.39914 30.9159 2.23598 31.2276 1.10423C31.538 -0.0275285 32.729 -0.699209 33.8878 -0.396133H33.8864Z" fill="#9CCEBE"/>
<path fill-rule="evenodd" clip-rule="evenodd" d="M72.5466 -0.396133C73.7054 -0.0930572 74.3932 1.0701 74.0829 2.20186C73.7726 3.33361 72.5815 4.00529 71.4227 3.70222C70.2638 3.39914 69.5761 2.23598 69.8878 1.10423C70.1981 -0.0275285 71.3891 -0.699209 72.548 -0.396133H72.5466Z" fill="#9CCEBE"/>
<path fill-rule="evenodd" clip-rule="evenodd" d="M111.207 -0.396133C112.366 -0.0930572 113.053 1.0701 112.743 2.20186C112.433 3.33361 111.242 4.00529 110.083 3.70222C108.924 3.39914 108.236 2.23598 108.548 1.10423C108.858 -0.0275285 110.049 -0.699209 111.208 -0.396133H111.207Z" fill="#9CCEBE"/>
<path fill-rule="evenodd" clip-rule="evenodd" d="M149.867 -0.396133C151.026 -0.0930572 151.714 1.0701 151.403 2.20186C151.093 3.33361 149.902 4.00529 148.743 3.70222C147.584 3.39914 146.896 2.23598 147.208 1.10423C147.518 -0.0275285 148.709 -0.699209 149.868 -0.396133H149.867Z" fill="#9CCEBE"/>
<path fill-rule="evenodd" clip-rule="evenodd" d="M14.1592 20.5775C15.3181 20.8805 16.0059 22.0437 15.6955 23.1754C15.3852 24.3072 14.1942 24.9789 13.0353 24.6744C11.8765 24.3714 11.1887 23.2082 11.499 22.0765C11.8094 20.9447 13.0004 20.273 14.1592 20.5775Z" fill="#9CCEBE"/>
<path fill-rule="evenodd" clip-rule="evenodd" d="M52.8194 20.5775C53.9782 20.8805 54.666 22.0437 54.3557 23.1754C54.0453 24.3072 52.8543 24.9789 51.6955 24.6744C50.5366 24.3714 49.8489 23.2082 50.1592 22.0765C50.4695 20.9447 51.6605 20.273 52.8194 20.5775Z" fill="#9CCEBE"/>
<path fill-rule="evenodd" clip-rule="evenodd" d="M91.4795 20.5775C92.6384 20.8805 93.3262 22.0437 93.0158 23.1754C92.7055 24.3072 91.5145 24.9789 90.3556 24.6744C89.1968 24.3714 88.509 23.2082 88.8194 22.0765C89.1297 20.9447 90.3207 20.273 91.4795 20.5775Z" fill="#9CCEBE"/>
<path fill-rule="evenodd" clip-rule="evenodd" d="M130.14 20.5775C131.299 20.8805 131.987 22.0437 131.676 23.1754C131.366 24.3072 130.175 24.9789 129.016 24.6744C127.857 24.3714 127.169 23.2082 127.48 22.0765C127.79 20.9447 128.981 20.273 130.14 20.5775Z" fill="#9CCEBE"/>
<path fill-rule="evenodd" clip-rule="evenodd" d="M33.8864 41.4612C35.0453 41.7643 35.7331 42.9274 35.4227 44.0592C35.1124 45.1909 33.9214 45.8626 32.7625 45.5582C31.6037 45.2551 30.9159 44.0919 31.2276 42.9602C31.538 41.8284 32.729 41.1567 33.8878 41.4598L33.8864 41.4612Z" fill="#9CCEBE"/>
<path fill-rule="evenodd" clip-rule="evenodd" d="M72.5466 41.4612C73.7054 41.7643 74.3932 42.9274 74.0829 44.0592C73.7726 45.1909 72.5815 45.8626 71.4227 45.5582C70.2638 45.2551 69.5761 44.0919 69.8878 42.9602C70.1981 41.8284 71.3891 41.1567 72.548 41.4598L72.5466 41.4612Z" fill="#9CCEBE"/>
<path fill-rule="evenodd" clip-rule="evenodd" d="M111.207 41.4612C112.366 41.7643 113.053 42.9274 112.743 44.0592C112.433 45.1909 111.242 45.8626 110.083 45.5582C108.924 45.2551 108.236 44.0919 108.548 42.9602C108.858 41.8284 110.049 41.1567 111.208 41.4598L111.207 41.4612Z" fill="#9CCEBE"/>
<path fill-rule="evenodd" clip-rule="evenodd" d="M149.867 41.4612C151.026 41.7643 151.714 42.9274 151.403 44.0592C151.093 45.1909 149.902 45.8626 148.743 45.5582C147.584 45.2551 146.896 44.0919 147.208 42.9602C147.518 41.8284 148.709 41.1567 149.868 41.4598L149.867 41.4612Z" fill="#9CCEBE"/>
<path fill-rule="evenodd" clip-rule="evenodd" d="M14.1592 62.4348C15.3181 62.7379 16.0059 63.901 15.6955 65.0328C15.3852 66.1645 14.1942 66.8362 13.0353 66.5332C11.8765 66.2301 11.1887 65.0669 11.499 63.9352C11.8094 62.8034 13.0004 62.1317 14.1592 62.4348Z" fill="#9CCEBE"/>
<path fill-rule="evenodd" clip-rule="evenodd" d="M52.8194 62.4348C53.9782 62.7379 54.666 63.901 54.3557 65.0328C54.0453 66.1645 52.8543 66.8362 51.6955 66.5332C50.5366 66.2301 49.8489 65.0669 50.1592 63.9352C50.4695 62.8034 51.6605 62.1317 52.8194 62.4348Z" fill="#9CCEBE"/>
<path fill-rule="evenodd" clip-rule="evenodd" d="M91.4795 62.4348C92.6384 62.7379 93.3262 63.901 93.0158 65.0328C92.7055 66.1645 91.5145 66.8362 90.3556 66.5332C89.1968 66.2301 88.509 65.0669 88.8194 63.9352C89.1297 62.8034 90.3207 62.1317 91.4795 62.4348Z" fill="#9CCEBE"/>
<path fill-rule="evenodd" clip-rule="evenodd" d="M130.14 62.4348C131.299 62.7379 131.987 63.901 131.676 65.0328C131.366 66.1645 130.175 66.8362 129.016 66.5332C127.857 66.2301 127.169 65.0669 127.48 63.9352C127.79 62.8034 128.981 62.1317 130.14 62.4348Z" fill="#9CCEBE"/>
<path fill-rule="evenodd" clip-rule="evenodd" d="M33.8864 83.3183C35.0453 83.6214 35.7331 84.7846 35.4227 85.9163C35.1124 87.0481 33.9214 87.7198 32.7625 87.4167C31.6037 87.1136 30.9159 85.9505 31.2276 84.8187C31.538 83.6869 32.729 83.0153 33.8878 83.3183H33.8864Z" fill="#9CCEBE"/>
<path fill-rule="evenodd" clip-rule="evenodd" d="M72.5466 83.3183C73.7054 83.6214 74.3932 84.7846 74.0829 85.9163C73.7726 87.0481 72.5815 87.7198 71.4227 87.4167C70.2638 87.1136 69.5761 85.9505 69.8878 84.8187C70.1981 83.6869 71.3891 83.0153 72.548 83.3183H72.5466Z" fill="#9CCEBE"/>
<path fill-rule="evenodd" clip-rule="evenodd" d="M111.207 83.3183C112.366 83.6214 113.053 84.7846 112.743 85.9163C112.433 87.0481 111.242 87.7198 110.083 87.4167C108.924 87.1136 108.236 85.9505 108.548 84.8187C108.858 83.6869 110.049 83.0153 111.208 83.3183H111.207Z" fill="#9CCEBE"/>
<path fill-rule="evenodd" clip-rule="evenodd" d="M149.867 83.3183C151.026 83.6214 151.714 84.7846 151.403 85.9163C151.093 87.0481 149.902 87.7198 148.743 87.4167C147.584 87.1136 146.896 85.9505 147.208 84.8187C147.518 83.6869 148.709 83.0153 149.868 83.3183H149.867Z" fill="#9CCEBE"/>
<path fill-rule="evenodd" clip-rule="evenodd" d="M14.1592 104.292C15.3181 104.595 16.0059 105.758 15.6955 106.89C15.3852 108.022 14.1942 108.693 13.0353 108.39C11.8765 108.087 11.1887 106.924 11.499 105.792C11.8094 104.661 13.0004 103.989 14.1592 104.292Z" fill="#9CCEBE"/>
<path fill-rule="evenodd" clip-rule="evenodd" d="M52.8194 104.292C53.9782 104.595 54.666 105.758 54.3557 106.89C54.0453 108.022 52.8543 108.693 51.6955 108.39C50.5366 108.087 49.8489 106.924 50.1592 105.792C50.4695 104.661 51.6605 103.989 52.8194 104.292Z" fill="#9CCEBE"/>
<path fill-rule="evenodd" clip-rule="evenodd" d="M91.4795 104.292C92.6384 104.595 93.3262 105.758 93.0158 106.89C92.7055 108.022 91.5145 108.693 90.3556 108.39C89.1968 108.087 88.509 106.924 88.8194 105.792C89.1297 104.661 90.3207 103.989 91.4795 104.292Z" fill="#9CCEBE"/>
<path fill-rule="evenodd" clip-rule="evenodd" d="M130.14 104.292C131.299 104.595 131.987 105.758 131.676 106.89C131.366 108.022 130.175 108.693 129.016 108.39C127.857 108.087 127.169 106.924 127.48 105.792C127.79 104.661 128.981 103.989 130.14 104.292Z" fill="#9CCEBE"/>
<path fill-rule="evenodd" clip-rule="evenodd" d="M33.8864 125.176C35.0453 125.479 35.7331 126.642 35.4227 127.774C35.1124 128.905 33.9214 129.577 32.7625 129.274C31.6037 128.971 30.9159 127.808 31.2276 126.676C31.538 125.544 32.729 124.872 33.8878 125.177L33.8864 125.176Z" fill="#9CCEBE"/>
<path fill-rule="evenodd" clip-rule="evenodd" d="M72.5466 125.176C73.7054 125.479 74.3932 126.642 74.0829 127.774C73.7726 128.905 72.5815 129.577 71.4227 129.274C70.2638 128.971 69.5761 127.808 69.8878 126.676C70.1981 125.544 71.3891 124.872 72.548 125.177L72.5466 125.176Z" fill="#9CCEBE"/>
<path fill-rule="evenodd" clip-rule="evenodd" d="M111.207 125.176C112.366 125.479 113.053 126.642 112.743 127.774C112.433 128.905 111.242 129.577 110.083 129.274C108.924 128.971 108.236 127.808 108.548 126.676C108.858 125.544 110.049 124.872 111.208 125.177L111.207 125.176Z" fill="#9CCEBE"/>
<path fill-rule="evenodd" clip-rule="evenodd" d="M149.867 125.176C151.026 125.479 151.714 126.642 151.403 127.774C151.093 128.905 149.902 129.577 148.743 129.274C147.584 128.971 146.896 127.808 147.208 126.676C147.518 125.544 148.709 124.872 149.868 125.177L149.867 125.176Z" fill="#9CCEBE"/>
<path fill-rule="evenodd" clip-rule="evenodd" d="M14.1592 146.149C15.3181 146.452 16.0059 147.616 15.6955 148.747C15.3852 149.879 14.1942 150.551 13.0353 150.248C11.8765 149.945 11.1887 148.781 11.499 147.65C11.8094 146.518 13.0004 145.846 14.1592 146.149Z" fill="#9CCEBE"/>
<path fill-rule="evenodd" clip-rule="evenodd" d="M52.8194 146.149C53.9782 146.452 54.666 147.616 54.3557 148.747C54.0453 149.879 52.8543 150.551 51.6955 150.248C50.5366 149.945 49.8489 148.781 50.1592 147.65C50.4695 146.518 51.6605 145.846 52.8194 146.149Z" fill="#9CCEBE"/>
<path fill-rule="evenodd" clip-rule="evenodd" d="M91.4795 146.149C92.6384 146.452 93.3262 147.616 93.0158 148.747C92.7055 149.879 91.5145 150.551 90.3556 150.248C89.1968 149.945 88.509 148.781 88.8194 147.65C89.1297 146.518 90.3207 145.846 91.4795 146.149Z" fill="#9CCEBE"/>
<path fill-rule="evenodd" clip-rule="evenodd" d="M130.14 146.149C131.299 146.452 131.987 147.616 131.676 148.747C131.366 149.879 130.175 150.551 129.016 150.248C127.857 149.945 127.169 148.781 127.48 147.65C127.79 146.518 128.981 145.846 130.14 146.149Z" fill="#9CCEBE"/>
<path fill-rule="evenodd" clip-rule="evenodd" d="M33.8864 167.033C35.0453 167.336 35.7331 168.499 35.4227 169.631C35.1124 170.763 33.9214 171.434 32.7625 171.131C31.6037 170.828 30.9159 169.665 31.2276 168.533C31.538 167.401 32.729 166.73 33.8878 167.033H33.8864Z" fill="#9CCEBE"/>
<path fill-rule="evenodd" clip-rule="evenodd" d="M72.5466 167.033C73.7054 167.336 74.3932 168.499 74.0829 169.631C73.7726 170.763 72.5815 171.434 71.4227 171.131C70.2638 170.828 69.5761 169.665 69.8878 168.533C70.1981 167.401 71.3891 166.73 72.548 167.033H72.5466Z" fill="#9CCEBE"/>
<path fill-rule="evenodd" clip-rule="evenodd" d="M111.207 167.033C112.366 167.336 113.053 168.499 112.743 169.631C112.433 170.763 111.242 171.434 110.083 171.131C108.924 170.828 108.236 169.665 108.548 168.533C108.858 167.401 110.049 166.73 111.208 167.033H111.207Z" fill="#9CCEBE"/>
<path fill-rule="evenodd" clip-rule="evenodd" d="M149.867 167.033C151.026 167.336 151.714 168.499 151.403 169.631C151.093 170.763 149.902 171.434 148.743 171.131C147.584 170.828 146.896 169.665 147.208 168.533C147.518 167.401 148.709 166.73 149.868 167.033H149.867Z" fill="#9CCEBE"/>
<path fill-rule="evenodd" clip-rule="evenodd" d="M14.1592 188.006C15.3181 188.31 16.0059 189.473 15.6955 190.604C15.3852 191.736 14.1942 192.408 13.0353 192.105C11.8765 191.802 11.1887 190.639 11.499 189.507C11.8094 188.375 13.0004 187.703 14.1592 188.006Z" fill="#9CCEBE"/>
<path fill-rule="evenodd" clip-rule="evenodd" d="M52.8194 188.006C53.9782 188.31 54.666 189.473 54.3557 190.604C54.0453 191.736 52.8543 192.408 51.6955 192.105C50.5366 191.802 49.8489 190.639 50.1592 189.507C50.4695 188.375 51.6605 187.703 52.8194 188.006Z" fill="#9CCEBE"/>
<path fill-rule="evenodd" clip-rule="evenodd" d="M91.4795 188.006C92.6384 188.31 93.3262 189.473 93.0158 190.604C92.7055 191.736 91.5145 192.408 90.3556 192.105C89.1968 191.802 88.509 190.639 88.8194 189.507C89.1297 188.375 90.3207 187.703 91.4795 188.006Z" fill="#9CCEBE"/>
<path fill-rule="evenodd" clip-rule="evenodd" d="M130.14 188.006C131.299 188.31 131.987 189.473 131.676 190.604C131.366 191.736 130.175 192.408 129.016 192.105C127.857 191.802 127.169 190.639 127.48 189.507C127.79 188.375 128.981 187.703 130.14 188.006Z" fill="#9CCEBE"/>
<path fill-rule="evenodd" clip-rule="evenodd" d="M33.8864 208.89C35.0453 209.193 35.7331 210.356 35.4227 211.488C35.1124 212.62 33.9214 213.291 32.7625 212.988C31.6037 212.685 30.9159 211.522 31.2276 210.39C31.538 209.259 32.729 208.587 33.8878 208.89H33.8864Z" fill="#9CCEBE"/>
<path fill-rule="evenodd" clip-rule="evenodd" d="M72.5466 208.89C73.7054 209.193 74.3932 210.356 74.0829 211.488C73.7726 212.62 72.5815 213.291 71.4227 212.988C70.2638 212.685 69.5761 211.522 69.8878 210.39C70.1981 209.259 71.3891 208.587 72.548 208.89H72.5466Z" fill="#9CCEBE"/>
<path fill-rule="evenodd" clip-rule="evenodd" d="M111.207 208.89C112.366 209.193 113.053 210.356 112.743 211.488C112.433 212.62 111.242 213.291 110.083 212.988C108.924 212.685 108.236 211.522 108.548 210.39C108.858 209.259 110.049 208.587 111.208 208.89H111.207Z" fill="#9CCEBE"/>
<path fill-rule="evenodd" clip-rule="evenodd" d="M149.867 208.89C151.026 209.193 151.714 210.356 151.403 211.488C151.093 212.62 149.902 213.291 148.743 212.988C147.584 212.685 146.896 211.522 147.208 210.39C147.518 209.259 148.709 208.587 149.868 208.89H149.867Z" fill="#9CCEBE"/>
<path d="M0 227.879L0.170543 227.727L0.341086 227.49V227.561H190.66V-37.086L190.831 -37.3222L190.923 -37.4888H191V-37.3222V227.727V227.892H190.831H0.170543H0V227.879Z" fill="#203B2A"/>
<path d="M86.1611 31.5735L86.1511 31.5679C86.1511 31.5679 86.1412 31.5594 86.1398 31.5566C86.1355 31.5396 86.1398 31.5283 86.1511 31.5226L86.1696 31.517H86.188V31.5226L86.1696 31.5806L86.1596 31.5749L86.1611 31.5735Z" fill="#000031"/>
<path d="M134.757 29.8882L134.747 29.9974L134.735 30.1558L134.719 30.3169C134.704 30.4357 134.682 30.5421 134.651 30.6322C134.635 30.68 134.62 30.736 134.608 30.8029C134.585 30.9258 134.505 31.0828 134.371 31.2725C134.352 31.237 134.341 31.2002 134.336 31.1606V31.0609L134.334 30.7565V30.4507C134.334 30.2145 134.335 30.0097 134.339 29.8363C134.346 29.7066 134.339 29.5483 134.325 29.3599L134.303 29.1223L134.282 28.8861C134.276 28.7892 134.265 28.6677 134.251 28.5216L134.236 28.3346L134.218 28.1407C134.381 28.239 134.489 28.3428 134.54 28.4561C134.648 28.6841 134.715 28.9039 134.74 29.1141C134.745 29.1496 134.746 29.196 134.746 29.2561L134.749 29.3257L134.752 29.3954L134.761 29.4868L134.767 29.581V29.6807L134.764 29.7845L134.754 29.8896L134.757 29.8882Z" fill="#000031"/>
</g>
<defs>
<clipPath id="clip0_2236_53967">
<rect width="152" height="220" fill="white"/>
</clipPath>
</defs>
</svg>
